%TF.GenerationSoftware,KiCad,Pcbnew,5.1.10*%
%TF.CreationDate,2021-12-30T18:00:27+01:00*%
%TF.ProjectId,keypad_board,6b657970-6164-45f6-926f-6172642e6b69,rev?*%
%TF.SameCoordinates,Original*%
%TF.FileFunction,Soldermask,Top*%
%TF.FilePolarity,Negative*%
%FSLAX46Y46*%
G04 Gerber Fmt 4.6, Leading zero omitted, Abs format (unit mm)*
G04 Created by KiCad (PCBNEW 5.1.10) date 2021-12-30 18:00:27*
%MOMM*%
%LPD*%
G01*
G04 APERTURE LIST*
%ADD10C,0.100000*%
%ADD11R,1.500000X1.000000*%
%ADD12C,1.524000*%
%ADD13C,3.000000*%
%ADD14C,0.800000*%
%ADD15C,6.400000*%
%ADD16O,1.700000X1.700000*%
%ADD17R,1.700000X1.700000*%
G04 APERTURE END LIST*
D10*
%TO.C,JP1*%
G36*
X83200000Y-133870602D02*
G01*
X83224534Y-133870602D01*
X83273365Y-133875412D01*
X83321490Y-133884984D01*
X83368445Y-133899228D01*
X83413778Y-133918005D01*
X83457051Y-133941136D01*
X83497850Y-133968396D01*
X83535779Y-133999524D01*
X83570476Y-134034221D01*
X83601604Y-134072150D01*
X83628864Y-134112949D01*
X83651995Y-134156222D01*
X83670772Y-134201555D01*
X83685016Y-134248510D01*
X83694588Y-134296635D01*
X83699398Y-134345466D01*
X83699398Y-134370000D01*
X83700000Y-134370000D01*
X83700000Y-134870000D01*
X83699398Y-134870000D01*
X83699398Y-134894534D01*
X83694588Y-134943365D01*
X83685016Y-134991490D01*
X83670772Y-135038445D01*
X83651995Y-135083778D01*
X83628864Y-135127051D01*
X83601604Y-135167850D01*
X83570476Y-135205779D01*
X83535779Y-135240476D01*
X83497850Y-135271604D01*
X83457051Y-135298864D01*
X83413778Y-135321995D01*
X83368445Y-135340772D01*
X83321490Y-135355016D01*
X83273365Y-135364588D01*
X83224534Y-135369398D01*
X83200000Y-135369398D01*
X83200000Y-135370000D01*
X82700000Y-135370000D01*
X82700000Y-133870000D01*
X83200000Y-133870000D01*
X83200000Y-133870602D01*
G37*
G36*
X82400000Y-135370000D02*
G01*
X81900000Y-135370000D01*
X81900000Y-135369398D01*
X81875466Y-135369398D01*
X81826635Y-135364588D01*
X81778510Y-135355016D01*
X81731555Y-135340772D01*
X81686222Y-135321995D01*
X81642949Y-135298864D01*
X81602150Y-135271604D01*
X81564221Y-135240476D01*
X81529524Y-135205779D01*
X81498396Y-135167850D01*
X81471136Y-135127051D01*
X81448005Y-135083778D01*
X81429228Y-135038445D01*
X81414984Y-134991490D01*
X81405412Y-134943365D01*
X81400602Y-134894534D01*
X81400602Y-134870000D01*
X81400000Y-134870000D01*
X81400000Y-134370000D01*
X81400602Y-134370000D01*
X81400602Y-134345466D01*
X81405412Y-134296635D01*
X81414984Y-134248510D01*
X81429228Y-134201555D01*
X81448005Y-134156222D01*
X81471136Y-134112949D01*
X81498396Y-134072150D01*
X81529524Y-134034221D01*
X81564221Y-133999524D01*
X81602150Y-133968396D01*
X81642949Y-133941136D01*
X81686222Y-133918005D01*
X81731555Y-133899228D01*
X81778510Y-133884984D01*
X81826635Y-133875412D01*
X81875466Y-133870602D01*
X81900000Y-133870602D01*
X81900000Y-133870000D01*
X82400000Y-133870000D01*
X82400000Y-135370000D01*
G37*
%TD*%
D11*
%TO.C,JP4*%
X71120000Y-128270000D03*
D10*
G36*
X70370602Y-126970000D02*
G01*
X70370602Y-126945466D01*
X70375412Y-126896635D01*
X70384984Y-126848510D01*
X70399228Y-126801555D01*
X70418005Y-126756222D01*
X70441136Y-126712949D01*
X70468396Y-126672150D01*
X70499524Y-126634221D01*
X70534221Y-126599524D01*
X70572150Y-126568396D01*
X70612949Y-126541136D01*
X70656222Y-126518005D01*
X70701555Y-126499228D01*
X70748510Y-126484984D01*
X70796635Y-126475412D01*
X70845466Y-126470602D01*
X70870000Y-126470602D01*
X70870000Y-126470000D01*
X71370000Y-126470000D01*
X71370000Y-126470602D01*
X71394534Y-126470602D01*
X71443365Y-126475412D01*
X71491490Y-126484984D01*
X71538445Y-126499228D01*
X71583778Y-126518005D01*
X71627051Y-126541136D01*
X71667850Y-126568396D01*
X71705779Y-126599524D01*
X71740476Y-126634221D01*
X71771604Y-126672150D01*
X71798864Y-126712949D01*
X71821995Y-126756222D01*
X71840772Y-126801555D01*
X71855016Y-126848510D01*
X71864588Y-126896635D01*
X71869398Y-126945466D01*
X71869398Y-126970000D01*
X71870000Y-126970000D01*
X71870000Y-127520000D01*
X70370000Y-127520000D01*
X70370000Y-126970000D01*
X70370602Y-126970000D01*
G37*
G36*
X71870000Y-129020000D02*
G01*
X71870000Y-129570000D01*
X71869398Y-129570000D01*
X71869398Y-129594534D01*
X71864588Y-129643365D01*
X71855016Y-129691490D01*
X71840772Y-129738445D01*
X71821995Y-129783778D01*
X71798864Y-129827051D01*
X71771604Y-129867850D01*
X71740476Y-129905779D01*
X71705779Y-129940476D01*
X71667850Y-129971604D01*
X71627051Y-129998864D01*
X71583778Y-130021995D01*
X71538445Y-130040772D01*
X71491490Y-130055016D01*
X71443365Y-130064588D01*
X71394534Y-130069398D01*
X71370000Y-130069398D01*
X71370000Y-130070000D01*
X70870000Y-130070000D01*
X70870000Y-130069398D01*
X70845466Y-130069398D01*
X70796635Y-130064588D01*
X70748510Y-130055016D01*
X70701555Y-130040772D01*
X70656222Y-130021995D01*
X70612949Y-129998864D01*
X70572150Y-129971604D01*
X70534221Y-129940476D01*
X70499524Y-129905779D01*
X70468396Y-129867850D01*
X70441136Y-129827051D01*
X70418005Y-129783778D01*
X70399228Y-129738445D01*
X70384984Y-129691490D01*
X70375412Y-129643365D01*
X70370602Y-129594534D01*
X70370602Y-129570000D01*
X70370000Y-129570000D01*
X70370000Y-129020000D01*
X71870000Y-129020000D01*
G37*
%TD*%
D11*
%TO.C,JP3*%
X71120000Y-123190000D03*
D10*
G36*
X70370602Y-121890000D02*
G01*
X70370602Y-121865466D01*
X70375412Y-121816635D01*
X70384984Y-121768510D01*
X70399228Y-121721555D01*
X70418005Y-121676222D01*
X70441136Y-121632949D01*
X70468396Y-121592150D01*
X70499524Y-121554221D01*
X70534221Y-121519524D01*
X70572150Y-121488396D01*
X70612949Y-121461136D01*
X70656222Y-121438005D01*
X70701555Y-121419228D01*
X70748510Y-121404984D01*
X70796635Y-121395412D01*
X70845466Y-121390602D01*
X70870000Y-121390602D01*
X70870000Y-121390000D01*
X71370000Y-121390000D01*
X71370000Y-121390602D01*
X71394534Y-121390602D01*
X71443365Y-121395412D01*
X71491490Y-121404984D01*
X71538445Y-121419228D01*
X71583778Y-121438005D01*
X71627051Y-121461136D01*
X71667850Y-121488396D01*
X71705779Y-121519524D01*
X71740476Y-121554221D01*
X71771604Y-121592150D01*
X71798864Y-121632949D01*
X71821995Y-121676222D01*
X71840772Y-121721555D01*
X71855016Y-121768510D01*
X71864588Y-121816635D01*
X71869398Y-121865466D01*
X71869398Y-121890000D01*
X71870000Y-121890000D01*
X71870000Y-122440000D01*
X70370000Y-122440000D01*
X70370000Y-121890000D01*
X70370602Y-121890000D01*
G37*
G36*
X71870000Y-123940000D02*
G01*
X71870000Y-124490000D01*
X71869398Y-124490000D01*
X71869398Y-124514534D01*
X71864588Y-124563365D01*
X71855016Y-124611490D01*
X71840772Y-124658445D01*
X71821995Y-124703778D01*
X71798864Y-124747051D01*
X71771604Y-124787850D01*
X71740476Y-124825779D01*
X71705779Y-124860476D01*
X71667850Y-124891604D01*
X71627051Y-124918864D01*
X71583778Y-124941995D01*
X71538445Y-124960772D01*
X71491490Y-124975016D01*
X71443365Y-124984588D01*
X71394534Y-124989398D01*
X71370000Y-124989398D01*
X71370000Y-124990000D01*
X70870000Y-124990000D01*
X70870000Y-124989398D01*
X70845466Y-124989398D01*
X70796635Y-124984588D01*
X70748510Y-124975016D01*
X70701555Y-124960772D01*
X70656222Y-124941995D01*
X70612949Y-124918864D01*
X70572150Y-124891604D01*
X70534221Y-124860476D01*
X70499524Y-124825779D01*
X70468396Y-124787850D01*
X70441136Y-124747051D01*
X70418005Y-124703778D01*
X70399228Y-124658445D01*
X70384984Y-124611490D01*
X70375412Y-124563365D01*
X70370602Y-124514534D01*
X70370602Y-124490000D01*
X70370000Y-124490000D01*
X70370000Y-123940000D01*
X71870000Y-123940000D01*
G37*
%TD*%
D11*
%TO.C,JP2*%
X71120000Y-118110000D03*
D10*
G36*
X70370602Y-116810000D02*
G01*
X70370602Y-116785466D01*
X70375412Y-116736635D01*
X70384984Y-116688510D01*
X70399228Y-116641555D01*
X70418005Y-116596222D01*
X70441136Y-116552949D01*
X70468396Y-116512150D01*
X70499524Y-116474221D01*
X70534221Y-116439524D01*
X70572150Y-116408396D01*
X70612949Y-116381136D01*
X70656222Y-116358005D01*
X70701555Y-116339228D01*
X70748510Y-116324984D01*
X70796635Y-116315412D01*
X70845466Y-116310602D01*
X70870000Y-116310602D01*
X70870000Y-116310000D01*
X71370000Y-116310000D01*
X71370000Y-116310602D01*
X71394534Y-116310602D01*
X71443365Y-116315412D01*
X71491490Y-116324984D01*
X71538445Y-116339228D01*
X71583778Y-116358005D01*
X71627051Y-116381136D01*
X71667850Y-116408396D01*
X71705779Y-116439524D01*
X71740476Y-116474221D01*
X71771604Y-116512150D01*
X71798864Y-116552949D01*
X71821995Y-116596222D01*
X71840772Y-116641555D01*
X71855016Y-116688510D01*
X71864588Y-116736635D01*
X71869398Y-116785466D01*
X71869398Y-116810000D01*
X71870000Y-116810000D01*
X71870000Y-117360000D01*
X70370000Y-117360000D01*
X70370000Y-116810000D01*
X70370602Y-116810000D01*
G37*
G36*
X71870000Y-118860000D02*
G01*
X71870000Y-119410000D01*
X71869398Y-119410000D01*
X71869398Y-119434534D01*
X71864588Y-119483365D01*
X71855016Y-119531490D01*
X71840772Y-119578445D01*
X71821995Y-119623778D01*
X71798864Y-119667051D01*
X71771604Y-119707850D01*
X71740476Y-119745779D01*
X71705779Y-119780476D01*
X71667850Y-119811604D01*
X71627051Y-119838864D01*
X71583778Y-119861995D01*
X71538445Y-119880772D01*
X71491490Y-119895016D01*
X71443365Y-119904588D01*
X71394534Y-119909398D01*
X71370000Y-119909398D01*
X71370000Y-119910000D01*
X70870000Y-119910000D01*
X70870000Y-119909398D01*
X70845466Y-119909398D01*
X70796635Y-119904588D01*
X70748510Y-119895016D01*
X70701555Y-119880772D01*
X70656222Y-119861995D01*
X70612949Y-119838864D01*
X70572150Y-119811604D01*
X70534221Y-119780476D01*
X70499524Y-119745779D01*
X70468396Y-119707850D01*
X70441136Y-119667051D01*
X70418005Y-119623778D01*
X70399228Y-119578445D01*
X70384984Y-119531490D01*
X70375412Y-119483365D01*
X70370602Y-119434534D01*
X70370602Y-119410000D01*
X70370000Y-119410000D01*
X70370000Y-118860000D01*
X71870000Y-118860000D01*
G37*
%TD*%
D12*
%TO.C,R4*%
X77470000Y-130810000D03*
X87630000Y-130810000D03*
G36*
G01*
X82150000Y-130359999D02*
X82150000Y-131260001D01*
G75*
G02*
X81900001Y-131510000I-249999J0D01*
G01*
X81199999Y-131510000D01*
G75*
G02*
X80950000Y-131260001I0J249999D01*
G01*
X80950000Y-130359999D01*
G75*
G02*
X81199999Y-130110000I249999J0D01*
G01*
X81900001Y-130110000D01*
G75*
G02*
X82150000Y-130359999I0J-249999D01*
G01*
G37*
G36*
G01*
X84150000Y-130359999D02*
X84150000Y-131260001D01*
G75*
G02*
X83900001Y-131510000I-249999J0D01*
G01*
X83199999Y-131510000D01*
G75*
G02*
X82950000Y-131260001I0J249999D01*
G01*
X82950000Y-130359999D01*
G75*
G02*
X83199999Y-130110000I249999J0D01*
G01*
X83900001Y-130110000D01*
G75*
G02*
X84150000Y-130359999I0J-249999D01*
G01*
G37*
%TD*%
%TO.C,R3*%
X87630000Y-125730000D03*
X77470000Y-125730000D03*
G36*
G01*
X82950000Y-126180001D02*
X82950000Y-125279999D01*
G75*
G02*
X83199999Y-125030000I249999J0D01*
G01*
X83900001Y-125030000D01*
G75*
G02*
X84150000Y-125279999I0J-249999D01*
G01*
X84150000Y-126180001D01*
G75*
G02*
X83900001Y-126430000I-249999J0D01*
G01*
X83199999Y-126430000D01*
G75*
G02*
X82950000Y-126180001I0J249999D01*
G01*
G37*
G36*
G01*
X80950000Y-126180001D02*
X80950000Y-125279999D01*
G75*
G02*
X81199999Y-125030000I249999J0D01*
G01*
X81900001Y-125030000D01*
G75*
G02*
X82150000Y-125279999I0J-249999D01*
G01*
X82150000Y-126180001D01*
G75*
G02*
X81900001Y-126430000I-249999J0D01*
G01*
X81199999Y-126430000D01*
G75*
G02*
X80950000Y-126180001I0J249999D01*
G01*
G37*
%TD*%
%TO.C,R2*%
X87630000Y-120650000D03*
X77470000Y-120650000D03*
G36*
G01*
X82950000Y-121100001D02*
X82950000Y-120199999D01*
G75*
G02*
X83199999Y-119950000I249999J0D01*
G01*
X83900001Y-119950000D01*
G75*
G02*
X84150000Y-120199999I0J-249999D01*
G01*
X84150000Y-121100001D01*
G75*
G02*
X83900001Y-121350000I-249999J0D01*
G01*
X83199999Y-121350000D01*
G75*
G02*
X82950000Y-121100001I0J249999D01*
G01*
G37*
G36*
G01*
X80950000Y-121100001D02*
X80950000Y-120199999D01*
G75*
G02*
X81199999Y-119950000I249999J0D01*
G01*
X81900001Y-119950000D01*
G75*
G02*
X82150000Y-120199999I0J-249999D01*
G01*
X82150000Y-121100001D01*
G75*
G02*
X81900001Y-121350000I-249999J0D01*
G01*
X81199999Y-121350000D01*
G75*
G02*
X80950000Y-121100001I0J249999D01*
G01*
G37*
%TD*%
%TO.C,R1*%
X87630000Y-115570000D03*
X77470000Y-115570000D03*
G36*
G01*
X82950000Y-116020001D02*
X82950000Y-115119999D01*
G75*
G02*
X83199999Y-114870000I249999J0D01*
G01*
X83900001Y-114870000D01*
G75*
G02*
X84150000Y-115119999I0J-249999D01*
G01*
X84150000Y-116020001D01*
G75*
G02*
X83900001Y-116270000I-249999J0D01*
G01*
X83199999Y-116270000D01*
G75*
G02*
X82950000Y-116020001I0J249999D01*
G01*
G37*
G36*
G01*
X80950000Y-116020001D02*
X80950000Y-115119999D01*
G75*
G02*
X81199999Y-114870000I249999J0D01*
G01*
X81900001Y-114870000D01*
G75*
G02*
X82150000Y-115119999I0J-249999D01*
G01*
X82150000Y-116020001D01*
G75*
G02*
X81900001Y-116270000I-249999J0D01*
G01*
X81199999Y-116270000D01*
G75*
G02*
X80950000Y-116020001I0J249999D01*
G01*
G37*
%TD*%
%TO.C,U3*%
X116840000Y-109220000D03*
X93980000Y-109220000D03*
X114300000Y-109220000D03*
X96520000Y-109220000D03*
X111760000Y-109220000D03*
X99060000Y-109220000D03*
X109220000Y-109220000D03*
X101600000Y-109220000D03*
X106680000Y-109220000D03*
X104140000Y-109220000D03*
%TD*%
D13*
%TO.C,U1*%
X113030000Y-125730000D03*
D12*
X96520000Y-115570000D03*
X99060000Y-115570000D03*
X101600000Y-115570000D03*
X104140000Y-115570000D03*
X106680000Y-115570000D03*
X109220000Y-115570000D03*
X111760000Y-115570000D03*
X114300000Y-115570000D03*
X114300000Y-135890000D03*
X111760000Y-135890000D03*
X109220000Y-135890000D03*
X106680000Y-135890000D03*
X104140000Y-135890000D03*
X101600000Y-135890000D03*
X99060000Y-135890000D03*
X96520000Y-135890000D03*
%TD*%
D14*
%TO.C,H4*%
X149017056Y-130382944D03*
X147320000Y-129680000D03*
X145622944Y-130382944D03*
X144920000Y-132080000D03*
X145622944Y-133777056D03*
X147320000Y-134480000D03*
X149017056Y-133777056D03*
X149720000Y-132080000D03*
D15*
X147320000Y-132080000D03*
%TD*%
D14*
%TO.C,H3*%
X149017056Y-46562944D03*
X147320000Y-45860000D03*
X145622944Y-46562944D03*
X144920000Y-48260000D03*
X145622944Y-49957056D03*
X147320000Y-50660000D03*
X149017056Y-49957056D03*
X149720000Y-48260000D03*
D15*
X147320000Y-48260000D03*
%TD*%
D14*
%TO.C,H2*%
X65337056Y-130382944D03*
X63640000Y-129680000D03*
X61942944Y-130382944D03*
X61240000Y-132080000D03*
X61942944Y-133777056D03*
X63640000Y-134480000D03*
X65337056Y-133777056D03*
X66040000Y-132080000D03*
D15*
X63640000Y-132080000D03*
%TD*%
D14*
%TO.C,H1*%
X65337056Y-46562944D03*
X63640000Y-45860000D03*
X61942944Y-46562944D03*
X61240000Y-48260000D03*
X61942944Y-49957056D03*
X63640000Y-50660000D03*
X65337056Y-49957056D03*
X66040000Y-48260000D03*
D15*
X63640000Y-48260000D03*
%TD*%
D16*
%TO.C,J9*%
X149860000Y-60960000D03*
X147320000Y-60960000D03*
X149860000Y-63500000D03*
X147320000Y-63500000D03*
X149860000Y-66040000D03*
X147320000Y-66040000D03*
X149860000Y-68580000D03*
X147320000Y-68580000D03*
X149860000Y-71120000D03*
X147320000Y-71120000D03*
X149860000Y-73660000D03*
D17*
X147320000Y-73660000D03*
%TD*%
D16*
%TO.C,J8*%
X149860000Y-83820000D03*
X147320000Y-83820000D03*
X149860000Y-86360000D03*
X147320000Y-86360000D03*
X149860000Y-88900000D03*
X147320000Y-88900000D03*
X149860000Y-91440000D03*
X147320000Y-91440000D03*
X149860000Y-93980000D03*
X147320000Y-93980000D03*
X149860000Y-96520000D03*
D17*
X147320000Y-96520000D03*
%TD*%
D16*
%TO.C,J7*%
X149860000Y-106680000D03*
X147320000Y-106680000D03*
X149860000Y-109220000D03*
X147320000Y-109220000D03*
X149860000Y-111760000D03*
X147320000Y-111760000D03*
X149860000Y-114300000D03*
X147320000Y-114300000D03*
X149860000Y-116840000D03*
X147320000Y-116840000D03*
X149860000Y-119380000D03*
D17*
X147320000Y-119380000D03*
%TD*%
D16*
%TO.C,J3*%
X60960000Y-60960000D03*
X63500000Y-60960000D03*
X60960000Y-63500000D03*
X63500000Y-63500000D03*
X60960000Y-66040000D03*
X63500000Y-66040000D03*
X60960000Y-68580000D03*
X63500000Y-68580000D03*
X60960000Y-71120000D03*
X63500000Y-71120000D03*
X60960000Y-73660000D03*
D17*
X63500000Y-73660000D03*
%TD*%
D16*
%TO.C,J2*%
X60960000Y-83820000D03*
X63500000Y-83820000D03*
X60960000Y-86360000D03*
X63500000Y-86360000D03*
X60960000Y-88900000D03*
X63500000Y-88900000D03*
X60960000Y-91440000D03*
X63500000Y-91440000D03*
X60960000Y-93980000D03*
X63500000Y-93980000D03*
X60960000Y-96520000D03*
D17*
X63500000Y-96520000D03*
%TD*%
D16*
%TO.C,J1*%
X60960000Y-106680000D03*
X63500000Y-106680000D03*
X60960000Y-109220000D03*
X63500000Y-109220000D03*
X60960000Y-111760000D03*
X63500000Y-111760000D03*
X60960000Y-114300000D03*
X63500000Y-114300000D03*
X60960000Y-116840000D03*
X63500000Y-116840000D03*
X60960000Y-119380000D03*
D17*
X63500000Y-119380000D03*
%TD*%
M02*
