%TF.GenerationSoftware,KiCad,Pcbnew,5.1.10*%
%TF.CreationDate,2021-12-30T18:00:27+01:00*%
%TF.ProjectId,keypad_board,6b657970-6164-45f6-926f-6172642e6b69,rev?*%
%TF.SameCoordinates,Original*%
%TF.FileFunction,Copper,L2,Bot*%
%TF.FilePolarity,Positive*%
%FSLAX46Y46*%
G04 Gerber Fmt 4.6, Leading zero omitted, Abs format (unit mm)*
G04 Created by KiCad (PCBNEW 5.1.10) date 2021-12-30 18:00:27*
%MOMM*%
%LPD*%
G01*
G04 APERTURE LIST*
%TA.AperFunction,ComponentPad*%
%ADD10C,1.524000*%
%TD*%
%TA.AperFunction,ComponentPad*%
%ADD11C,0.800000*%
%TD*%
%TA.AperFunction,ComponentPad*%
%ADD12C,6.400000*%
%TD*%
%TA.AperFunction,ComponentPad*%
%ADD13O,1.700000X1.700000*%
%TD*%
%TA.AperFunction,ComponentPad*%
%ADD14R,1.700000X1.700000*%
%TD*%
%TA.AperFunction,ViaPad*%
%ADD15C,0.800000*%
%TD*%
%TA.AperFunction,Conductor*%
%ADD16C,0.250000*%
%TD*%
%TA.AperFunction,Conductor*%
%ADD17C,0.254000*%
%TD*%
%TA.AperFunction,Conductor*%
%ADD18C,0.100000*%
%TD*%
G04 APERTURE END LIST*
D10*
%TO.P,R4,2*%
%TO.N,VCC*%
X77470000Y-130810000D03*
%TO.P,R4,1*%
%TO.N,INT*%
X87630000Y-130810000D03*
%TD*%
%TO.P,R3,2*%
%TO.N,A2*%
X87630000Y-125730000D03*
%TO.P,R3,1*%
%TO.N,Net-(JP4-Pad2)*%
X77470000Y-125730000D03*
%TD*%
%TO.P,R2,2*%
%TO.N,A1*%
X87630000Y-120650000D03*
%TO.P,R2,1*%
%TO.N,Net-(JP3-Pad2)*%
X77470000Y-120650000D03*
%TD*%
%TO.P,R1,2*%
%TO.N,A0*%
X87630000Y-115570000D03*
%TO.P,R1,1*%
%TO.N,Net-(JP2-Pad2)*%
X77470000Y-115570000D03*
%TD*%
%TO.P,U3,10*%
%TO.N,N/C*%
X116840000Y-109220000D03*
%TO.P,U3,1*%
X93980000Y-109220000D03*
%TO.P,U3,9*%
%TO.N,Net-(U1-Pad9)*%
X114300000Y-109220000D03*
%TO.P,U3,2*%
%TO.N,Net-(U1-Pad16)*%
X96520000Y-109220000D03*
%TO.P,U3,8*%
%TO.N,Net-(U1-Pad10)*%
X111760000Y-109220000D03*
%TO.P,U3,3*%
%TO.N,Net-(U1-Pad15)*%
X99060000Y-109220000D03*
%TO.P,U3,7*%
%TO.N,Net-(U1-Pad11)*%
X109220000Y-109220000D03*
%TO.P,U3,4*%
%TO.N,Net-(U1-Pad14)*%
X101600000Y-109220000D03*
%TO.P,U3,6*%
%TO.N,Net-(U1-Pad12)*%
X106680000Y-109220000D03*
%TO.P,U3,5*%
%TO.N,Net-(U1-Pad13)*%
X104140000Y-109220000D03*
%TD*%
%TO.P,U1,16*%
%TO.N,Net-(U1-Pad16)*%
X96520000Y-115570000D03*
%TO.P,U1,15*%
%TO.N,Net-(U1-Pad15)*%
X99060000Y-115570000D03*
%TO.P,U1,14*%
%TO.N,Net-(U1-Pad14)*%
X101600000Y-115570000D03*
%TO.P,U1,13*%
%TO.N,Net-(U1-Pad13)*%
X104140000Y-115570000D03*
%TO.P,U1,12*%
%TO.N,Net-(U1-Pad12)*%
X106680000Y-115570000D03*
%TO.P,U1,11*%
%TO.N,Net-(U1-Pad11)*%
X109220000Y-115570000D03*
%TO.P,U1,10*%
%TO.N,Net-(U1-Pad10)*%
X111760000Y-115570000D03*
%TO.P,U1,9*%
%TO.N,Net-(U1-Pad9)*%
X114300000Y-115570000D03*
%TO.P,U1,8*%
%TO.N,INT*%
X114300000Y-135890000D03*
%TO.P,U1,7*%
%TO.N,A2*%
X111760000Y-135890000D03*
%TO.P,U1,6*%
%TO.N,A1*%
X109220000Y-135890000D03*
%TO.P,U1,5*%
%TO.N,A0*%
X106680000Y-135890000D03*
%TO.P,U1,4*%
%TO.N,SDA*%
X104140000Y-135890000D03*
%TO.P,U1,3*%
%TO.N,SCL*%
X101600000Y-135890000D03*
%TO.P,U1,2*%
%TO.N,N/C*%
X99060000Y-135890000D03*
%TO.P,U1,1*%
X96520000Y-135890000D03*
%TD*%
D11*
%TO.P,H4,1*%
%TO.N,N/C*%
X149017056Y-130382944D03*
X147320000Y-129680000D03*
X145622944Y-130382944D03*
X144920000Y-132080000D03*
X145622944Y-133777056D03*
X147320000Y-134480000D03*
X149017056Y-133777056D03*
X149720000Y-132080000D03*
D12*
X147320000Y-132080000D03*
%TD*%
D11*
%TO.P,H3,1*%
%TO.N,N/C*%
X149017056Y-46562944D03*
X147320000Y-45860000D03*
X145622944Y-46562944D03*
X144920000Y-48260000D03*
X145622944Y-49957056D03*
X147320000Y-50660000D03*
X149017056Y-49957056D03*
X149720000Y-48260000D03*
D12*
X147320000Y-48260000D03*
%TD*%
D11*
%TO.P,H2,1*%
%TO.N,N/C*%
X65337056Y-130382944D03*
X63640000Y-129680000D03*
X61942944Y-130382944D03*
X61240000Y-132080000D03*
X61942944Y-133777056D03*
X63640000Y-134480000D03*
X65337056Y-133777056D03*
X66040000Y-132080000D03*
D12*
X63640000Y-132080000D03*
%TD*%
D11*
%TO.P,H1,1*%
%TO.N,N/C*%
X65337056Y-46562944D03*
X63640000Y-45860000D03*
X61942944Y-46562944D03*
X61240000Y-48260000D03*
X61942944Y-49957056D03*
X63640000Y-50660000D03*
X65337056Y-49957056D03*
X66040000Y-48260000D03*
D12*
X63640000Y-48260000D03*
%TD*%
D13*
%TO.P,J9,12*%
%TO.N,PMOD_SPI_INT*%
X149860000Y-60960000D03*
%TO.P,J9,11*%
%TO.N,PMOD_SPI_CS*%
X147320000Y-60960000D03*
%TO.P,J9,10*%
%TO.N,PMOD_SPI_RESET*%
X149860000Y-63500000D03*
%TO.P,J9,9*%
%TO.N,PMOD_SPI_MOSI*%
X147320000Y-63500000D03*
%TO.P,J9,8*%
%TO.N,PMOD_SPI_CS2*%
X149860000Y-66040000D03*
%TO.P,J9,7*%
%TO.N,PMOD_SPI_MISO*%
X147320000Y-66040000D03*
%TO.P,J9,6*%
%TO.N,PMOD_SPI_CS3*%
X149860000Y-68580000D03*
%TO.P,J9,5*%
%TO.N,PMOD_SPI_SCK*%
X147320000Y-68580000D03*
%TO.P,J9,4*%
%TO.N,GND*%
X149860000Y-71120000D03*
%TO.P,J9,3*%
X147320000Y-71120000D03*
%TO.P,J9,2*%
%TO.N,VCC*%
X149860000Y-73660000D03*
D14*
%TO.P,J9,1*%
X147320000Y-73660000D03*
%TD*%
D13*
%TO.P,J8,12*%
%TO.N,PMOD_UART_INT*%
X149860000Y-83820000D03*
%TO.P,J8,11*%
%TO.N,PMOD_UART_CTS*%
X147320000Y-83820000D03*
%TO.P,J8,10*%
%TO.N,PMOD_UART_RESER*%
X149860000Y-86360000D03*
%TO.P,J8,9*%
%TO.N,PMOD_UART_TXD*%
X147320000Y-86360000D03*
%TO.P,J8,8*%
%TO.N,PMOD_UART_GPIO3*%
X149860000Y-88900000D03*
%TO.P,J8,7*%
%TO.N,PMOD_UART_RXD*%
X147320000Y-88900000D03*
%TO.P,J8,6*%
%TO.N,PMOD_UART_GPIO4*%
X149860000Y-91440000D03*
%TO.P,J8,5*%
%TO.N,PMOD_UART_RTS*%
X147320000Y-91440000D03*
%TO.P,J8,4*%
%TO.N,GND*%
X149860000Y-93980000D03*
%TO.P,J8,3*%
X147320000Y-93980000D03*
%TO.P,J8,2*%
%TO.N,VCC*%
X149860000Y-96520000D03*
D14*
%TO.P,J8,1*%
X147320000Y-96520000D03*
%TD*%
D13*
%TO.P,J7,12*%
%TO.N,PMOD_I2C_GPIO1*%
X149860000Y-106680000D03*
%TO.P,J7,11*%
%TO.N,PMOD_I2C_INT*%
X147320000Y-106680000D03*
%TO.P,J7,10*%
%TO.N,PMOD_I2C_GPIO2*%
X149860000Y-109220000D03*
%TO.P,J7,9*%
%TO.N,PMOD_I2C_RESET*%
X147320000Y-109220000D03*
%TO.P,J7,8*%
%TO.N,PMOD_I2C_GPIO3*%
X149860000Y-111760000D03*
%TO.P,J7,7*%
%TO.N,SCL*%
X147320000Y-111760000D03*
%TO.P,J7,6*%
%TO.N,PMOD_I2C_GPIO4*%
X149860000Y-114300000D03*
%TO.P,J7,5*%
%TO.N,SDA*%
X147320000Y-114300000D03*
%TO.P,J7,4*%
%TO.N,GND*%
X149860000Y-116840000D03*
%TO.P,J7,3*%
X147320000Y-116840000D03*
%TO.P,J7,2*%
%TO.N,VCC*%
X149860000Y-119380000D03*
D14*
%TO.P,J7,1*%
X147320000Y-119380000D03*
%TD*%
D13*
%TO.P,J3,12*%
%TO.N,PMOD_SPI_INT*%
X60960000Y-60960000D03*
%TO.P,J3,11*%
%TO.N,PMOD_SPI_CS*%
X63500000Y-60960000D03*
%TO.P,J3,10*%
%TO.N,PMOD_SPI_RESET*%
X60960000Y-63500000D03*
%TO.P,J3,9*%
%TO.N,PMOD_SPI_MOSI*%
X63500000Y-63500000D03*
%TO.P,J3,8*%
%TO.N,PMOD_SPI_CS2*%
X60960000Y-66040000D03*
%TO.P,J3,7*%
%TO.N,PMOD_SPI_MISO*%
X63500000Y-66040000D03*
%TO.P,J3,6*%
%TO.N,PMOD_SPI_CS3*%
X60960000Y-68580000D03*
%TO.P,J3,5*%
%TO.N,PMOD_SPI_SCK*%
X63500000Y-68580000D03*
%TO.P,J3,4*%
%TO.N,GND*%
X60960000Y-71120000D03*
%TO.P,J3,3*%
X63500000Y-71120000D03*
%TO.P,J3,2*%
%TO.N,VCC*%
X60960000Y-73660000D03*
D14*
%TO.P,J3,1*%
X63500000Y-73660000D03*
%TD*%
D13*
%TO.P,J2,12*%
%TO.N,PMOD_UART_INT*%
X60960000Y-83820000D03*
%TO.P,J2,11*%
%TO.N,PMOD_UART_CTS*%
X63500000Y-83820000D03*
%TO.P,J2,10*%
%TO.N,PMOD_UART_RESER*%
X60960000Y-86360000D03*
%TO.P,J2,9*%
%TO.N,PMOD_UART_TXD*%
X63500000Y-86360000D03*
%TO.P,J2,8*%
%TO.N,PMOD_UART_GPIO3*%
X60960000Y-88900000D03*
%TO.P,J2,7*%
%TO.N,PMOD_UART_RXD*%
X63500000Y-88900000D03*
%TO.P,J2,6*%
%TO.N,PMOD_UART_GPIO4*%
X60960000Y-91440000D03*
%TO.P,J2,5*%
%TO.N,PMOD_UART_RTS*%
X63500000Y-91440000D03*
%TO.P,J2,4*%
%TO.N,GND*%
X60960000Y-93980000D03*
%TO.P,J2,3*%
X63500000Y-93980000D03*
%TO.P,J2,2*%
%TO.N,VCC*%
X60960000Y-96520000D03*
D14*
%TO.P,J2,1*%
X63500000Y-96520000D03*
%TD*%
D13*
%TO.P,J1,12*%
%TO.N,PMOD_I2C_GPIO1*%
X60960000Y-106680000D03*
%TO.P,J1,11*%
%TO.N,PMOD_I2C_INT*%
X63500000Y-106680000D03*
%TO.P,J1,10*%
%TO.N,PMOD_I2C_GPIO2*%
X60960000Y-109220000D03*
%TO.P,J1,9*%
%TO.N,PMOD_I2C_RESET*%
X63500000Y-109220000D03*
%TO.P,J1,8*%
%TO.N,PMOD_I2C_GPIO3*%
X60960000Y-111760000D03*
%TO.P,J1,7*%
%TO.N,SCL*%
X63500000Y-111760000D03*
%TO.P,J1,6*%
%TO.N,PMOD_I2C_GPIO4*%
X60960000Y-114300000D03*
%TO.P,J1,5*%
%TO.N,SDA*%
X63500000Y-114300000D03*
%TO.P,J1,4*%
%TO.N,GND*%
X60960000Y-116840000D03*
%TO.P,J1,3*%
X63500000Y-116840000D03*
%TO.P,J1,2*%
%TO.N,VCC*%
X60960000Y-119380000D03*
D14*
%TO.P,J1,1*%
X63500000Y-119380000D03*
%TD*%
D15*
%TO.N,GND*%
X71120000Y-129540000D03*
X71120000Y-124460000D03*
X71120000Y-119380000D03*
%TO.N,SCL*%
X102870000Y-111760000D03*
%TO.N,SDA*%
X105410000Y-114300000D03*
%TO.N,Net-(JP2-Pad2)*%
X77470000Y-118110000D03*
%TO.N,PMOD_I2C_INT*%
X93980000Y-135890000D03*
X92710000Y-106680000D03*
%TO.N,INT*%
X114300000Y-129540000D03*
%TO.N,A0*%
X106680000Y-120650000D03*
X93980000Y-120650000D03*
X93980000Y-115570000D03*
%TO.N,A1*%
X109220000Y-121920000D03*
%TO.N,A2*%
X111760000Y-128270000D03*
%TD*%
D16*
%TO.N,SCL*%
X102870000Y-134620000D02*
X102870000Y-111760000D01*
X101600000Y-135890000D02*
X102870000Y-134620000D01*
%TO.N,SDA*%
X105410000Y-134620000D02*
X105410000Y-114300000D01*
X104140000Y-135890000D02*
X105410000Y-134620000D01*
%TO.N,Net-(JP2-Pad2)*%
X77470000Y-118110000D02*
X77470000Y-115570000D01*
%TO.N,Net-(U1-Pad16)*%
X96520000Y-109220000D02*
X96520000Y-115570000D01*
%TO.N,Net-(U1-Pad15)*%
X99060000Y-109220000D02*
X99060000Y-115570000D01*
%TO.N,Net-(U1-Pad14)*%
X101600000Y-109220000D02*
X101600000Y-115570000D01*
%TO.N,Net-(U1-Pad13)*%
X104140000Y-109220000D02*
X104140000Y-115570000D01*
%TO.N,Net-(U1-Pad12)*%
X106680000Y-109220000D02*
X106680000Y-115570000D01*
%TO.N,Net-(U1-Pad11)*%
X109220000Y-109220000D02*
X109220000Y-115570000D01*
%TO.N,Net-(U1-Pad10)*%
X111760000Y-109220000D02*
X111760000Y-115570000D01*
%TO.N,Net-(U1-Pad9)*%
X114300000Y-115570000D02*
X114300000Y-109220000D01*
%TO.N,PMOD_I2C_INT*%
X92710000Y-134620000D02*
X92710000Y-106680000D01*
X93980000Y-135890000D02*
X92710000Y-134620000D01*
%TO.N,INT*%
X114300000Y-135890000D02*
X114300000Y-129540000D01*
%TO.N,A0*%
X106680000Y-135890000D02*
X106680000Y-120650000D01*
X93980000Y-120650000D02*
X93980000Y-115570000D01*
%TO.N,A1*%
X109220000Y-135890000D02*
X109220000Y-121920000D01*
%TO.N,A2*%
X111760000Y-135890000D02*
X111760000Y-128270000D01*
%TD*%
D17*
%TO.N,GND*%
X151740001Y-136500000D02*
X115559431Y-136500000D01*
X115643314Y-136297490D01*
X115697000Y-136027592D01*
X115697000Y-135752408D01*
X115643314Y-135482510D01*
X115538005Y-135228273D01*
X115385120Y-134999465D01*
X115190535Y-134804880D01*
X115060000Y-134717659D01*
X115060000Y-131702285D01*
X143485000Y-131702285D01*
X143485000Y-132457715D01*
X143632377Y-133198628D01*
X143921467Y-133896554D01*
X144341161Y-134524670D01*
X144875330Y-135058839D01*
X145503446Y-135478533D01*
X146201372Y-135767623D01*
X146942285Y-135915000D01*
X147697715Y-135915000D01*
X148438628Y-135767623D01*
X149136554Y-135478533D01*
X149764670Y-135058839D01*
X150298839Y-134524670D01*
X150718533Y-133896554D01*
X151007623Y-133198628D01*
X151155000Y-132457715D01*
X151155000Y-131702285D01*
X151007623Y-130961372D01*
X150718533Y-130263446D01*
X150298839Y-129635330D01*
X149764670Y-129101161D01*
X149136554Y-128681467D01*
X148438628Y-128392377D01*
X147697715Y-128245000D01*
X146942285Y-128245000D01*
X146201372Y-128392377D01*
X145503446Y-128681467D01*
X144875330Y-129101161D01*
X144341161Y-129635330D01*
X143921467Y-130263446D01*
X143632377Y-130961372D01*
X143485000Y-131702285D01*
X115060000Y-131702285D01*
X115060000Y-130243711D01*
X115103937Y-130199774D01*
X115217205Y-130030256D01*
X115295226Y-129841898D01*
X115335000Y-129641939D01*
X115335000Y-129438061D01*
X115295226Y-129238102D01*
X115217205Y-129049744D01*
X115103937Y-128880226D01*
X114959774Y-128736063D01*
X114790256Y-128622795D01*
X114601898Y-128544774D01*
X114401939Y-128505000D01*
X114198061Y-128505000D01*
X113998102Y-128544774D01*
X113809744Y-128622795D01*
X113640226Y-128736063D01*
X113496063Y-128880226D01*
X113382795Y-129049744D01*
X113304774Y-129238102D01*
X113265000Y-129438061D01*
X113265000Y-129641939D01*
X113304774Y-129841898D01*
X113382795Y-130030256D01*
X113496063Y-130199774D01*
X113540001Y-130243712D01*
X113540000Y-134717659D01*
X113409465Y-134804880D01*
X113214880Y-134999465D01*
X113061995Y-135228273D01*
X113030000Y-135305515D01*
X112998005Y-135228273D01*
X112845120Y-134999465D01*
X112650535Y-134804880D01*
X112520000Y-134717659D01*
X112520000Y-128973711D01*
X112563937Y-128929774D01*
X112677205Y-128760256D01*
X112755226Y-128571898D01*
X112795000Y-128371939D01*
X112795000Y-128168061D01*
X112755226Y-127968102D01*
X112702894Y-127841762D01*
X112819721Y-127865000D01*
X113240279Y-127865000D01*
X113652756Y-127782953D01*
X114041302Y-127622012D01*
X114390983Y-127388363D01*
X114688363Y-127090983D01*
X114922012Y-126741302D01*
X115082953Y-126352756D01*
X115165000Y-125940279D01*
X115165000Y-125519721D01*
X115082953Y-125107244D01*
X114922012Y-124718698D01*
X114688363Y-124369017D01*
X114390983Y-124071637D01*
X114041302Y-123837988D01*
X113652756Y-123677047D01*
X113240279Y-123595000D01*
X112819721Y-123595000D01*
X112407244Y-123677047D01*
X112018698Y-123837988D01*
X111669017Y-124071637D01*
X111371637Y-124369017D01*
X111137988Y-124718698D01*
X110977047Y-125107244D01*
X110895000Y-125519721D01*
X110895000Y-125940279D01*
X110977047Y-126352756D01*
X111137988Y-126741302D01*
X111371637Y-127090983D01*
X111539281Y-127258627D01*
X111458102Y-127274774D01*
X111269744Y-127352795D01*
X111100226Y-127466063D01*
X110956063Y-127610226D01*
X110842795Y-127779744D01*
X110764774Y-127968102D01*
X110725000Y-128168061D01*
X110725000Y-128371939D01*
X110764774Y-128571898D01*
X110842795Y-128760256D01*
X110956063Y-128929774D01*
X111000001Y-128973712D01*
X111000000Y-134717659D01*
X110869465Y-134804880D01*
X110674880Y-134999465D01*
X110521995Y-135228273D01*
X110490000Y-135305515D01*
X110458005Y-135228273D01*
X110305120Y-134999465D01*
X110110535Y-134804880D01*
X109980000Y-134717659D01*
X109980000Y-122623711D01*
X110023937Y-122579774D01*
X110137205Y-122410256D01*
X110215226Y-122221898D01*
X110255000Y-122021939D01*
X110255000Y-121818061D01*
X110215226Y-121618102D01*
X110137205Y-121429744D01*
X110023937Y-121260226D01*
X109879774Y-121116063D01*
X109710256Y-121002795D01*
X109521898Y-120924774D01*
X109321939Y-120885000D01*
X109118061Y-120885000D01*
X108918102Y-120924774D01*
X108729744Y-121002795D01*
X108560226Y-121116063D01*
X108416063Y-121260226D01*
X108302795Y-121429744D01*
X108224774Y-121618102D01*
X108185000Y-121818061D01*
X108185000Y-122021939D01*
X108224774Y-122221898D01*
X108302795Y-122410256D01*
X108416063Y-122579774D01*
X108460001Y-122623712D01*
X108460000Y-134717659D01*
X108329465Y-134804880D01*
X108134880Y-134999465D01*
X107981995Y-135228273D01*
X107950000Y-135305515D01*
X107918005Y-135228273D01*
X107765120Y-134999465D01*
X107570535Y-134804880D01*
X107440000Y-134717659D01*
X107440000Y-121353711D01*
X107483937Y-121309774D01*
X107597205Y-121140256D01*
X107675226Y-120951898D01*
X107715000Y-120751939D01*
X107715000Y-120548061D01*
X107675226Y-120348102D01*
X107597205Y-120159744D01*
X107483937Y-119990226D01*
X107339774Y-119846063D01*
X107170256Y-119732795D01*
X106981898Y-119654774D01*
X106781939Y-119615000D01*
X106578061Y-119615000D01*
X106378102Y-119654774D01*
X106189744Y-119732795D01*
X106170000Y-119745987D01*
X106170000Y-118530000D01*
X145831928Y-118530000D01*
X145831928Y-120230000D01*
X145844188Y-120354482D01*
X145880498Y-120474180D01*
X145939463Y-120584494D01*
X146018815Y-120681185D01*
X146115506Y-120760537D01*
X146225820Y-120819502D01*
X146345518Y-120855812D01*
X146470000Y-120868072D01*
X148170000Y-120868072D01*
X148294482Y-120855812D01*
X148414180Y-120819502D01*
X148524494Y-120760537D01*
X148621185Y-120681185D01*
X148700537Y-120584494D01*
X148759502Y-120474180D01*
X148781513Y-120401620D01*
X148913368Y-120533475D01*
X149156589Y-120695990D01*
X149426842Y-120807932D01*
X149713740Y-120865000D01*
X150006260Y-120865000D01*
X150293158Y-120807932D01*
X150563411Y-120695990D01*
X150806632Y-120533475D01*
X151013475Y-120326632D01*
X151175990Y-120083411D01*
X151287932Y-119813158D01*
X151345000Y-119526260D01*
X151345000Y-119233740D01*
X151287932Y-118946842D01*
X151175990Y-118676589D01*
X151013475Y-118433368D01*
X150806632Y-118226525D01*
X150624466Y-118104805D01*
X150741355Y-118035178D01*
X150957588Y-117840269D01*
X151131641Y-117606920D01*
X151256825Y-117344099D01*
X151301476Y-117196890D01*
X151180155Y-116967000D01*
X149987000Y-116967000D01*
X149987000Y-116987000D01*
X149733000Y-116987000D01*
X149733000Y-116967000D01*
X147447000Y-116967000D01*
X147447000Y-116987000D01*
X147193000Y-116987000D01*
X147193000Y-116967000D01*
X145999845Y-116967000D01*
X145878524Y-117196890D01*
X145923175Y-117344099D01*
X146048359Y-117606920D01*
X146222412Y-117840269D01*
X146306466Y-117916034D01*
X146225820Y-117940498D01*
X146115506Y-117999463D01*
X146018815Y-118078815D01*
X145939463Y-118175506D01*
X145880498Y-118285820D01*
X145844188Y-118405518D01*
X145831928Y-118530000D01*
X106170000Y-118530000D01*
X106170000Y-116870853D01*
X106272510Y-116913314D01*
X106542408Y-116967000D01*
X106817592Y-116967000D01*
X107087490Y-116913314D01*
X107341727Y-116808005D01*
X107570535Y-116655120D01*
X107765120Y-116460535D01*
X107918005Y-116231727D01*
X107950000Y-116154485D01*
X107981995Y-116231727D01*
X108134880Y-116460535D01*
X108329465Y-116655120D01*
X108558273Y-116808005D01*
X108812510Y-116913314D01*
X109082408Y-116967000D01*
X109357592Y-116967000D01*
X109627490Y-116913314D01*
X109881727Y-116808005D01*
X110110535Y-116655120D01*
X110305120Y-116460535D01*
X110458005Y-116231727D01*
X110490000Y-116154485D01*
X110521995Y-116231727D01*
X110674880Y-116460535D01*
X110869465Y-116655120D01*
X111098273Y-116808005D01*
X111352510Y-116913314D01*
X111622408Y-116967000D01*
X111897592Y-116967000D01*
X112167490Y-116913314D01*
X112421727Y-116808005D01*
X112650535Y-116655120D01*
X112845120Y-116460535D01*
X112998005Y-116231727D01*
X113030000Y-116154485D01*
X113061995Y-116231727D01*
X113214880Y-116460535D01*
X113409465Y-116655120D01*
X113638273Y-116808005D01*
X113892510Y-116913314D01*
X114162408Y-116967000D01*
X114437592Y-116967000D01*
X114707490Y-116913314D01*
X114961727Y-116808005D01*
X115190535Y-116655120D01*
X115385120Y-116460535D01*
X115538005Y-116231727D01*
X115643314Y-115977490D01*
X115697000Y-115707592D01*
X115697000Y-115432408D01*
X115643314Y-115162510D01*
X115538005Y-114908273D01*
X115385120Y-114679465D01*
X115190535Y-114484880D01*
X115060000Y-114397659D01*
X115060000Y-110392341D01*
X115190535Y-110305120D01*
X115385120Y-110110535D01*
X115538005Y-109881727D01*
X115570000Y-109804485D01*
X115601995Y-109881727D01*
X115754880Y-110110535D01*
X115949465Y-110305120D01*
X116178273Y-110458005D01*
X116432510Y-110563314D01*
X116702408Y-110617000D01*
X116977592Y-110617000D01*
X117247490Y-110563314D01*
X117501727Y-110458005D01*
X117730535Y-110305120D01*
X117925120Y-110110535D01*
X118078005Y-109881727D01*
X118183314Y-109627490D01*
X118237000Y-109357592D01*
X118237000Y-109082408D01*
X118183314Y-108812510D01*
X118078005Y-108558273D01*
X117925120Y-108329465D01*
X117730535Y-108134880D01*
X117501727Y-107981995D01*
X117247490Y-107876686D01*
X116977592Y-107823000D01*
X116702408Y-107823000D01*
X116432510Y-107876686D01*
X116178273Y-107981995D01*
X115949465Y-108134880D01*
X115754880Y-108329465D01*
X115601995Y-108558273D01*
X115570000Y-108635515D01*
X115538005Y-108558273D01*
X115385120Y-108329465D01*
X115190535Y-108134880D01*
X114961727Y-107981995D01*
X114707490Y-107876686D01*
X114437592Y-107823000D01*
X114162408Y-107823000D01*
X113892510Y-107876686D01*
X113638273Y-107981995D01*
X113409465Y-108134880D01*
X113214880Y-108329465D01*
X113061995Y-108558273D01*
X113030000Y-108635515D01*
X112998005Y-108558273D01*
X112845120Y-108329465D01*
X112650535Y-108134880D01*
X112421727Y-107981995D01*
X112167490Y-107876686D01*
X111897592Y-107823000D01*
X111622408Y-107823000D01*
X111352510Y-107876686D01*
X111098273Y-107981995D01*
X110869465Y-108134880D01*
X110674880Y-108329465D01*
X110521995Y-108558273D01*
X110490000Y-108635515D01*
X110458005Y-108558273D01*
X110305120Y-108329465D01*
X110110535Y-108134880D01*
X109881727Y-107981995D01*
X109627490Y-107876686D01*
X109357592Y-107823000D01*
X109082408Y-107823000D01*
X108812510Y-107876686D01*
X108558273Y-107981995D01*
X108329465Y-108134880D01*
X108134880Y-108329465D01*
X107981995Y-108558273D01*
X107950000Y-108635515D01*
X107918005Y-108558273D01*
X107765120Y-108329465D01*
X107570535Y-108134880D01*
X107341727Y-107981995D01*
X107087490Y-107876686D01*
X106817592Y-107823000D01*
X106542408Y-107823000D01*
X106272510Y-107876686D01*
X106018273Y-107981995D01*
X105789465Y-108134880D01*
X105594880Y-108329465D01*
X105441995Y-108558273D01*
X105410000Y-108635515D01*
X105378005Y-108558273D01*
X105225120Y-108329465D01*
X105030535Y-108134880D01*
X104801727Y-107981995D01*
X104547490Y-107876686D01*
X104277592Y-107823000D01*
X104002408Y-107823000D01*
X103732510Y-107876686D01*
X103478273Y-107981995D01*
X103249465Y-108134880D01*
X103054880Y-108329465D01*
X102901995Y-108558273D01*
X102870000Y-108635515D01*
X102838005Y-108558273D01*
X102685120Y-108329465D01*
X102490535Y-108134880D01*
X102261727Y-107981995D01*
X102007490Y-107876686D01*
X101737592Y-107823000D01*
X101462408Y-107823000D01*
X101192510Y-107876686D01*
X100938273Y-107981995D01*
X100709465Y-108134880D01*
X100514880Y-108329465D01*
X100361995Y-108558273D01*
X100330000Y-108635515D01*
X100298005Y-108558273D01*
X100145120Y-108329465D01*
X99950535Y-108134880D01*
X99721727Y-107981995D01*
X99467490Y-107876686D01*
X99197592Y-107823000D01*
X98922408Y-107823000D01*
X98652510Y-107876686D01*
X98398273Y-107981995D01*
X98169465Y-108134880D01*
X97974880Y-108329465D01*
X97821995Y-108558273D01*
X97790000Y-108635515D01*
X97758005Y-108558273D01*
X97605120Y-108329465D01*
X97410535Y-108134880D01*
X97181727Y-107981995D01*
X96927490Y-107876686D01*
X96657592Y-107823000D01*
X96382408Y-107823000D01*
X96112510Y-107876686D01*
X95858273Y-107981995D01*
X95629465Y-108134880D01*
X95434880Y-108329465D01*
X95281995Y-108558273D01*
X95250000Y-108635515D01*
X95218005Y-108558273D01*
X95065120Y-108329465D01*
X94870535Y-108134880D01*
X94641727Y-107981995D01*
X94387490Y-107876686D01*
X94117592Y-107823000D01*
X93842408Y-107823000D01*
X93572510Y-107876686D01*
X93470000Y-107919147D01*
X93470000Y-107383711D01*
X93513937Y-107339774D01*
X93627205Y-107170256D01*
X93705226Y-106981898D01*
X93745000Y-106781939D01*
X93745000Y-106578061D01*
X93736185Y-106533740D01*
X145835000Y-106533740D01*
X145835000Y-106826260D01*
X145892068Y-107113158D01*
X146004010Y-107383411D01*
X146166525Y-107626632D01*
X146373368Y-107833475D01*
X146547760Y-107950000D01*
X146373368Y-108066525D01*
X146166525Y-108273368D01*
X146004010Y-108516589D01*
X145892068Y-108786842D01*
X145835000Y-109073740D01*
X145835000Y-109366260D01*
X145892068Y-109653158D01*
X146004010Y-109923411D01*
X146166525Y-110166632D01*
X146373368Y-110373475D01*
X146547760Y-110490000D01*
X146373368Y-110606525D01*
X146166525Y-110813368D01*
X146004010Y-111056589D01*
X145892068Y-111326842D01*
X145835000Y-111613740D01*
X145835000Y-111906260D01*
X145892068Y-112193158D01*
X146004010Y-112463411D01*
X146166525Y-112706632D01*
X146373368Y-112913475D01*
X146547760Y-113030000D01*
X146373368Y-113146525D01*
X146166525Y-113353368D01*
X146004010Y-113596589D01*
X145892068Y-113866842D01*
X145835000Y-114153740D01*
X145835000Y-114446260D01*
X145892068Y-114733158D01*
X146004010Y-115003411D01*
X146166525Y-115246632D01*
X146373368Y-115453475D01*
X146555534Y-115575195D01*
X146438645Y-115644822D01*
X146222412Y-115839731D01*
X146048359Y-116073080D01*
X145923175Y-116335901D01*
X145878524Y-116483110D01*
X145999845Y-116713000D01*
X147193000Y-116713000D01*
X147193000Y-116693000D01*
X147447000Y-116693000D01*
X147447000Y-116713000D01*
X149733000Y-116713000D01*
X149733000Y-116693000D01*
X149987000Y-116693000D01*
X149987000Y-116713000D01*
X151180155Y-116713000D01*
X151301476Y-116483110D01*
X151256825Y-116335901D01*
X151131641Y-116073080D01*
X150957588Y-115839731D01*
X150741355Y-115644822D01*
X150624466Y-115575195D01*
X150806632Y-115453475D01*
X151013475Y-115246632D01*
X151175990Y-115003411D01*
X151287932Y-114733158D01*
X151345000Y-114446260D01*
X151345000Y-114153740D01*
X151287932Y-113866842D01*
X151175990Y-113596589D01*
X151013475Y-113353368D01*
X150806632Y-113146525D01*
X150632240Y-113030000D01*
X150806632Y-112913475D01*
X151013475Y-112706632D01*
X151175990Y-112463411D01*
X151287932Y-112193158D01*
X151345000Y-111906260D01*
X151345000Y-111613740D01*
X151287932Y-111326842D01*
X151175990Y-111056589D01*
X151013475Y-110813368D01*
X150806632Y-110606525D01*
X150632240Y-110490000D01*
X150806632Y-110373475D01*
X151013475Y-110166632D01*
X151175990Y-109923411D01*
X151287932Y-109653158D01*
X151345000Y-109366260D01*
X151345000Y-109073740D01*
X151287932Y-108786842D01*
X151175990Y-108516589D01*
X151013475Y-108273368D01*
X150806632Y-108066525D01*
X150632240Y-107950000D01*
X150806632Y-107833475D01*
X151013475Y-107626632D01*
X151175990Y-107383411D01*
X151287932Y-107113158D01*
X151345000Y-106826260D01*
X151345000Y-106533740D01*
X151287932Y-106246842D01*
X151175990Y-105976589D01*
X151013475Y-105733368D01*
X150806632Y-105526525D01*
X150563411Y-105364010D01*
X150293158Y-105252068D01*
X150006260Y-105195000D01*
X149713740Y-105195000D01*
X149426842Y-105252068D01*
X149156589Y-105364010D01*
X148913368Y-105526525D01*
X148706525Y-105733368D01*
X148590000Y-105907760D01*
X148473475Y-105733368D01*
X148266632Y-105526525D01*
X148023411Y-105364010D01*
X147753158Y-105252068D01*
X147466260Y-105195000D01*
X147173740Y-105195000D01*
X146886842Y-105252068D01*
X146616589Y-105364010D01*
X146373368Y-105526525D01*
X146166525Y-105733368D01*
X146004010Y-105976589D01*
X145892068Y-106246842D01*
X145835000Y-106533740D01*
X93736185Y-106533740D01*
X93705226Y-106378102D01*
X93627205Y-106189744D01*
X93513937Y-106020226D01*
X93369774Y-105876063D01*
X93200256Y-105762795D01*
X93011898Y-105684774D01*
X92811939Y-105645000D01*
X92608061Y-105645000D01*
X92408102Y-105684774D01*
X92219744Y-105762795D01*
X92050226Y-105876063D01*
X91906063Y-106020226D01*
X91792795Y-106189744D01*
X91714774Y-106378102D01*
X91675000Y-106578061D01*
X91675000Y-106781939D01*
X91714774Y-106981898D01*
X91792795Y-107170256D01*
X91906063Y-107339774D01*
X91950001Y-107383712D01*
X91950000Y-134582678D01*
X91946324Y-134620000D01*
X91950000Y-134657322D01*
X91950000Y-134657332D01*
X91960997Y-134768985D01*
X91987089Y-134855000D01*
X92004454Y-134912246D01*
X92075026Y-135044276D01*
X92086978Y-135058839D01*
X92169999Y-135160001D01*
X92199003Y-135183804D01*
X92945000Y-135929802D01*
X92945000Y-135991939D01*
X92984774Y-136191898D01*
X93062795Y-136380256D01*
X93142805Y-136500000D01*
X59080000Y-136500000D01*
X59080000Y-131702285D01*
X59805000Y-131702285D01*
X59805000Y-132457715D01*
X59952377Y-133198628D01*
X60241467Y-133896554D01*
X60661161Y-134524670D01*
X61195330Y-135058839D01*
X61823446Y-135478533D01*
X62521372Y-135767623D01*
X63262285Y-135915000D01*
X64017715Y-135915000D01*
X64758628Y-135767623D01*
X65456554Y-135478533D01*
X66084670Y-135058839D01*
X66618839Y-134524670D01*
X67038533Y-133896554D01*
X67327623Y-133198628D01*
X67475000Y-132457715D01*
X67475000Y-131702285D01*
X67327623Y-130961372D01*
X67207931Y-130672408D01*
X76073000Y-130672408D01*
X76073000Y-130947592D01*
X76126686Y-131217490D01*
X76231995Y-131471727D01*
X76384880Y-131700535D01*
X76579465Y-131895120D01*
X76808273Y-132048005D01*
X77062510Y-132153314D01*
X77332408Y-132207000D01*
X77607592Y-132207000D01*
X77877490Y-132153314D01*
X78131727Y-132048005D01*
X78360535Y-131895120D01*
X78555120Y-131700535D01*
X78708005Y-131471727D01*
X78813314Y-131217490D01*
X78867000Y-130947592D01*
X78867000Y-130672408D01*
X86233000Y-130672408D01*
X86233000Y-130947592D01*
X86286686Y-131217490D01*
X86391995Y-131471727D01*
X86544880Y-131700535D01*
X86739465Y-131895120D01*
X86968273Y-132048005D01*
X87222510Y-132153314D01*
X87492408Y-132207000D01*
X87767592Y-132207000D01*
X88037490Y-132153314D01*
X88291727Y-132048005D01*
X88520535Y-131895120D01*
X88715120Y-131700535D01*
X88868005Y-131471727D01*
X88973314Y-131217490D01*
X89027000Y-130947592D01*
X89027000Y-130672408D01*
X88973314Y-130402510D01*
X88868005Y-130148273D01*
X88715120Y-129919465D01*
X88520535Y-129724880D01*
X88291727Y-129571995D01*
X88037490Y-129466686D01*
X87767592Y-129413000D01*
X87492408Y-129413000D01*
X87222510Y-129466686D01*
X86968273Y-129571995D01*
X86739465Y-129724880D01*
X86544880Y-129919465D01*
X86391995Y-130148273D01*
X86286686Y-130402510D01*
X86233000Y-130672408D01*
X78867000Y-130672408D01*
X78813314Y-130402510D01*
X78708005Y-130148273D01*
X78555120Y-129919465D01*
X78360535Y-129724880D01*
X78131727Y-129571995D01*
X77877490Y-129466686D01*
X77607592Y-129413000D01*
X77332408Y-129413000D01*
X77062510Y-129466686D01*
X76808273Y-129571995D01*
X76579465Y-129724880D01*
X76384880Y-129919465D01*
X76231995Y-130148273D01*
X76126686Y-130402510D01*
X76073000Y-130672408D01*
X67207931Y-130672408D01*
X67038533Y-130263446D01*
X66618839Y-129635330D01*
X66084670Y-129101161D01*
X65456554Y-128681467D01*
X64758628Y-128392377D01*
X64017715Y-128245000D01*
X63262285Y-128245000D01*
X62521372Y-128392377D01*
X61823446Y-128681467D01*
X61195330Y-129101161D01*
X60661161Y-129635330D01*
X60241467Y-130263446D01*
X59952377Y-130961372D01*
X59805000Y-131702285D01*
X59080000Y-131702285D01*
X59080000Y-125592408D01*
X76073000Y-125592408D01*
X76073000Y-125867592D01*
X76126686Y-126137490D01*
X76231995Y-126391727D01*
X76384880Y-126620535D01*
X76579465Y-126815120D01*
X76808273Y-126968005D01*
X77062510Y-127073314D01*
X77332408Y-127127000D01*
X77607592Y-127127000D01*
X77877490Y-127073314D01*
X78131727Y-126968005D01*
X78360535Y-126815120D01*
X78555120Y-126620535D01*
X78708005Y-126391727D01*
X78813314Y-126137490D01*
X78867000Y-125867592D01*
X78867000Y-125592408D01*
X86233000Y-125592408D01*
X86233000Y-125867592D01*
X86286686Y-126137490D01*
X86391995Y-126391727D01*
X86544880Y-126620535D01*
X86739465Y-126815120D01*
X86968273Y-126968005D01*
X87222510Y-127073314D01*
X87492408Y-127127000D01*
X87767592Y-127127000D01*
X88037490Y-127073314D01*
X88291727Y-126968005D01*
X88520535Y-126815120D01*
X88715120Y-126620535D01*
X88868005Y-126391727D01*
X88973314Y-126137490D01*
X89027000Y-125867592D01*
X89027000Y-125592408D01*
X88973314Y-125322510D01*
X88868005Y-125068273D01*
X88715120Y-124839465D01*
X88520535Y-124644880D01*
X88291727Y-124491995D01*
X88037490Y-124386686D01*
X87767592Y-124333000D01*
X87492408Y-124333000D01*
X87222510Y-124386686D01*
X86968273Y-124491995D01*
X86739465Y-124644880D01*
X86544880Y-124839465D01*
X86391995Y-125068273D01*
X86286686Y-125322510D01*
X86233000Y-125592408D01*
X78867000Y-125592408D01*
X78813314Y-125322510D01*
X78708005Y-125068273D01*
X78555120Y-124839465D01*
X78360535Y-124644880D01*
X78131727Y-124491995D01*
X77877490Y-124386686D01*
X77607592Y-124333000D01*
X77332408Y-124333000D01*
X77062510Y-124386686D01*
X76808273Y-124491995D01*
X76579465Y-124644880D01*
X76384880Y-124839465D01*
X76231995Y-125068273D01*
X76126686Y-125322510D01*
X76073000Y-125592408D01*
X59080000Y-125592408D01*
X59080000Y-119233740D01*
X59475000Y-119233740D01*
X59475000Y-119526260D01*
X59532068Y-119813158D01*
X59644010Y-120083411D01*
X59806525Y-120326632D01*
X60013368Y-120533475D01*
X60256589Y-120695990D01*
X60526842Y-120807932D01*
X60813740Y-120865000D01*
X61106260Y-120865000D01*
X61393158Y-120807932D01*
X61663411Y-120695990D01*
X61906632Y-120533475D01*
X62038487Y-120401620D01*
X62060498Y-120474180D01*
X62119463Y-120584494D01*
X62198815Y-120681185D01*
X62295506Y-120760537D01*
X62405820Y-120819502D01*
X62525518Y-120855812D01*
X62650000Y-120868072D01*
X64350000Y-120868072D01*
X64474482Y-120855812D01*
X64594180Y-120819502D01*
X64704494Y-120760537D01*
X64801185Y-120681185D01*
X64880537Y-120584494D01*
X64919068Y-120512408D01*
X76073000Y-120512408D01*
X76073000Y-120787592D01*
X76126686Y-121057490D01*
X76231995Y-121311727D01*
X76384880Y-121540535D01*
X76579465Y-121735120D01*
X76808273Y-121888005D01*
X77062510Y-121993314D01*
X77332408Y-122047000D01*
X77607592Y-122047000D01*
X77877490Y-121993314D01*
X78131727Y-121888005D01*
X78360535Y-121735120D01*
X78555120Y-121540535D01*
X78708005Y-121311727D01*
X78813314Y-121057490D01*
X78867000Y-120787592D01*
X78867000Y-120512408D01*
X86233000Y-120512408D01*
X86233000Y-120787592D01*
X86286686Y-121057490D01*
X86391995Y-121311727D01*
X86544880Y-121540535D01*
X86739465Y-121735120D01*
X86968273Y-121888005D01*
X87222510Y-121993314D01*
X87492408Y-122047000D01*
X87767592Y-122047000D01*
X88037490Y-121993314D01*
X88291727Y-121888005D01*
X88520535Y-121735120D01*
X88715120Y-121540535D01*
X88868005Y-121311727D01*
X88973314Y-121057490D01*
X89027000Y-120787592D01*
X89027000Y-120512408D01*
X88973314Y-120242510D01*
X88868005Y-119988273D01*
X88715120Y-119759465D01*
X88520535Y-119564880D01*
X88291727Y-119411995D01*
X88037490Y-119306686D01*
X87767592Y-119253000D01*
X87492408Y-119253000D01*
X87222510Y-119306686D01*
X86968273Y-119411995D01*
X86739465Y-119564880D01*
X86544880Y-119759465D01*
X86391995Y-119988273D01*
X86286686Y-120242510D01*
X86233000Y-120512408D01*
X78867000Y-120512408D01*
X78813314Y-120242510D01*
X78708005Y-119988273D01*
X78555120Y-119759465D01*
X78360535Y-119564880D01*
X78131727Y-119411995D01*
X77877490Y-119306686D01*
X77607592Y-119253000D01*
X77332408Y-119253000D01*
X77062510Y-119306686D01*
X76808273Y-119411995D01*
X76579465Y-119564880D01*
X76384880Y-119759465D01*
X76231995Y-119988273D01*
X76126686Y-120242510D01*
X76073000Y-120512408D01*
X64919068Y-120512408D01*
X64939502Y-120474180D01*
X64975812Y-120354482D01*
X64988072Y-120230000D01*
X64988072Y-118530000D01*
X64975812Y-118405518D01*
X64939502Y-118285820D01*
X64880537Y-118175506D01*
X64801185Y-118078815D01*
X64704494Y-117999463D01*
X64594180Y-117940498D01*
X64513534Y-117916034D01*
X64597588Y-117840269D01*
X64771641Y-117606920D01*
X64896825Y-117344099D01*
X64941476Y-117196890D01*
X64820155Y-116967000D01*
X63627000Y-116967000D01*
X63627000Y-116987000D01*
X63373000Y-116987000D01*
X63373000Y-116967000D01*
X61087000Y-116967000D01*
X61087000Y-116987000D01*
X60833000Y-116987000D01*
X60833000Y-116967000D01*
X59639845Y-116967000D01*
X59518524Y-117196890D01*
X59563175Y-117344099D01*
X59688359Y-117606920D01*
X59862412Y-117840269D01*
X60078645Y-118035178D01*
X60195534Y-118104805D01*
X60013368Y-118226525D01*
X59806525Y-118433368D01*
X59644010Y-118676589D01*
X59532068Y-118946842D01*
X59475000Y-119233740D01*
X59080000Y-119233740D01*
X59080000Y-106533740D01*
X59475000Y-106533740D01*
X59475000Y-106826260D01*
X59532068Y-107113158D01*
X59644010Y-107383411D01*
X59806525Y-107626632D01*
X60013368Y-107833475D01*
X60187760Y-107950000D01*
X60013368Y-108066525D01*
X59806525Y-108273368D01*
X59644010Y-108516589D01*
X59532068Y-108786842D01*
X59475000Y-109073740D01*
X59475000Y-109366260D01*
X59532068Y-109653158D01*
X59644010Y-109923411D01*
X59806525Y-110166632D01*
X60013368Y-110373475D01*
X60187760Y-110490000D01*
X60013368Y-110606525D01*
X59806525Y-110813368D01*
X59644010Y-111056589D01*
X59532068Y-111326842D01*
X59475000Y-111613740D01*
X59475000Y-111906260D01*
X59532068Y-112193158D01*
X59644010Y-112463411D01*
X59806525Y-112706632D01*
X60013368Y-112913475D01*
X60187760Y-113030000D01*
X60013368Y-113146525D01*
X59806525Y-113353368D01*
X59644010Y-113596589D01*
X59532068Y-113866842D01*
X59475000Y-114153740D01*
X59475000Y-114446260D01*
X59532068Y-114733158D01*
X59644010Y-115003411D01*
X59806525Y-115246632D01*
X60013368Y-115453475D01*
X60195534Y-115575195D01*
X60078645Y-115644822D01*
X59862412Y-115839731D01*
X59688359Y-116073080D01*
X59563175Y-116335901D01*
X59518524Y-116483110D01*
X59639845Y-116713000D01*
X60833000Y-116713000D01*
X60833000Y-116693000D01*
X61087000Y-116693000D01*
X61087000Y-116713000D01*
X63373000Y-116713000D01*
X63373000Y-116693000D01*
X63627000Y-116693000D01*
X63627000Y-116713000D01*
X64820155Y-116713000D01*
X64941476Y-116483110D01*
X64896825Y-116335901D01*
X64771641Y-116073080D01*
X64597588Y-115839731D01*
X64381355Y-115644822D01*
X64264466Y-115575195D01*
X64446632Y-115453475D01*
X64467699Y-115432408D01*
X76073000Y-115432408D01*
X76073000Y-115707592D01*
X76126686Y-115977490D01*
X76231995Y-116231727D01*
X76384880Y-116460535D01*
X76579465Y-116655120D01*
X76710001Y-116742341D01*
X76710000Y-117406289D01*
X76666063Y-117450226D01*
X76552795Y-117619744D01*
X76474774Y-117808102D01*
X76435000Y-118008061D01*
X76435000Y-118211939D01*
X76474774Y-118411898D01*
X76552795Y-118600256D01*
X76666063Y-118769774D01*
X76810226Y-118913937D01*
X76979744Y-119027205D01*
X77168102Y-119105226D01*
X77368061Y-119145000D01*
X77571939Y-119145000D01*
X77771898Y-119105226D01*
X77960256Y-119027205D01*
X78129774Y-118913937D01*
X78273937Y-118769774D01*
X78387205Y-118600256D01*
X78465226Y-118411898D01*
X78505000Y-118211939D01*
X78505000Y-118008061D01*
X78465226Y-117808102D01*
X78387205Y-117619744D01*
X78273937Y-117450226D01*
X78230000Y-117406289D01*
X78230000Y-116742341D01*
X78360535Y-116655120D01*
X78555120Y-116460535D01*
X78708005Y-116231727D01*
X78813314Y-115977490D01*
X78867000Y-115707592D01*
X78867000Y-115432408D01*
X86233000Y-115432408D01*
X86233000Y-115707592D01*
X86286686Y-115977490D01*
X86391995Y-116231727D01*
X86544880Y-116460535D01*
X86739465Y-116655120D01*
X86968273Y-116808005D01*
X87222510Y-116913314D01*
X87492408Y-116967000D01*
X87767592Y-116967000D01*
X88037490Y-116913314D01*
X88291727Y-116808005D01*
X88520535Y-116655120D01*
X88715120Y-116460535D01*
X88868005Y-116231727D01*
X88973314Y-115977490D01*
X89027000Y-115707592D01*
X89027000Y-115432408D01*
X88973314Y-115162510D01*
X88868005Y-114908273D01*
X88715120Y-114679465D01*
X88520535Y-114484880D01*
X88291727Y-114331995D01*
X88037490Y-114226686D01*
X87767592Y-114173000D01*
X87492408Y-114173000D01*
X87222510Y-114226686D01*
X86968273Y-114331995D01*
X86739465Y-114484880D01*
X86544880Y-114679465D01*
X86391995Y-114908273D01*
X86286686Y-115162510D01*
X86233000Y-115432408D01*
X78867000Y-115432408D01*
X78813314Y-115162510D01*
X78708005Y-114908273D01*
X78555120Y-114679465D01*
X78360535Y-114484880D01*
X78131727Y-114331995D01*
X77877490Y-114226686D01*
X77607592Y-114173000D01*
X77332408Y-114173000D01*
X77062510Y-114226686D01*
X76808273Y-114331995D01*
X76579465Y-114484880D01*
X76384880Y-114679465D01*
X76231995Y-114908273D01*
X76126686Y-115162510D01*
X76073000Y-115432408D01*
X64467699Y-115432408D01*
X64653475Y-115246632D01*
X64815990Y-115003411D01*
X64927932Y-114733158D01*
X64985000Y-114446260D01*
X64985000Y-114153740D01*
X64927932Y-113866842D01*
X64815990Y-113596589D01*
X64653475Y-113353368D01*
X64446632Y-113146525D01*
X64272240Y-113030000D01*
X64446632Y-112913475D01*
X64653475Y-112706632D01*
X64815990Y-112463411D01*
X64927932Y-112193158D01*
X64985000Y-111906260D01*
X64985000Y-111613740D01*
X64927932Y-111326842D01*
X64815990Y-111056589D01*
X64653475Y-110813368D01*
X64446632Y-110606525D01*
X64272240Y-110490000D01*
X64446632Y-110373475D01*
X64653475Y-110166632D01*
X64815990Y-109923411D01*
X64927932Y-109653158D01*
X64985000Y-109366260D01*
X64985000Y-109073740D01*
X64927932Y-108786842D01*
X64815990Y-108516589D01*
X64653475Y-108273368D01*
X64446632Y-108066525D01*
X64272240Y-107950000D01*
X64446632Y-107833475D01*
X64653475Y-107626632D01*
X64815990Y-107383411D01*
X64927932Y-107113158D01*
X64985000Y-106826260D01*
X64985000Y-106533740D01*
X64927932Y-106246842D01*
X64815990Y-105976589D01*
X64653475Y-105733368D01*
X64446632Y-105526525D01*
X64203411Y-105364010D01*
X63933158Y-105252068D01*
X63646260Y-105195000D01*
X63353740Y-105195000D01*
X63066842Y-105252068D01*
X62796589Y-105364010D01*
X62553368Y-105526525D01*
X62346525Y-105733368D01*
X62230000Y-105907760D01*
X62113475Y-105733368D01*
X61906632Y-105526525D01*
X61663411Y-105364010D01*
X61393158Y-105252068D01*
X61106260Y-105195000D01*
X60813740Y-105195000D01*
X60526842Y-105252068D01*
X60256589Y-105364010D01*
X60013368Y-105526525D01*
X59806525Y-105733368D01*
X59644010Y-105976589D01*
X59532068Y-106246842D01*
X59475000Y-106533740D01*
X59080000Y-106533740D01*
X59080000Y-96373740D01*
X59475000Y-96373740D01*
X59475000Y-96666260D01*
X59532068Y-96953158D01*
X59644010Y-97223411D01*
X59806525Y-97466632D01*
X60013368Y-97673475D01*
X60256589Y-97835990D01*
X60526842Y-97947932D01*
X60813740Y-98005000D01*
X61106260Y-98005000D01*
X61393158Y-97947932D01*
X61663411Y-97835990D01*
X61906632Y-97673475D01*
X62038487Y-97541620D01*
X62060498Y-97614180D01*
X62119463Y-97724494D01*
X62198815Y-97821185D01*
X62295506Y-97900537D01*
X62405820Y-97959502D01*
X62525518Y-97995812D01*
X62650000Y-98008072D01*
X64350000Y-98008072D01*
X64474482Y-97995812D01*
X64594180Y-97959502D01*
X64704494Y-97900537D01*
X64801185Y-97821185D01*
X64880537Y-97724494D01*
X64939502Y-97614180D01*
X64975812Y-97494482D01*
X64988072Y-97370000D01*
X64988072Y-95670000D01*
X145831928Y-95670000D01*
X145831928Y-97370000D01*
X145844188Y-97494482D01*
X145880498Y-97614180D01*
X145939463Y-97724494D01*
X146018815Y-97821185D01*
X146115506Y-97900537D01*
X146225820Y-97959502D01*
X146345518Y-97995812D01*
X146470000Y-98008072D01*
X148170000Y-98008072D01*
X148294482Y-97995812D01*
X148414180Y-97959502D01*
X148524494Y-97900537D01*
X148621185Y-97821185D01*
X148700537Y-97724494D01*
X148759502Y-97614180D01*
X148781513Y-97541620D01*
X148913368Y-97673475D01*
X149156589Y-97835990D01*
X149426842Y-97947932D01*
X149713740Y-98005000D01*
X150006260Y-98005000D01*
X150293158Y-97947932D01*
X150563411Y-97835990D01*
X150806632Y-97673475D01*
X151013475Y-97466632D01*
X151175990Y-97223411D01*
X151287932Y-96953158D01*
X151345000Y-96666260D01*
X151345000Y-96373740D01*
X151287932Y-96086842D01*
X151175990Y-95816589D01*
X151013475Y-95573368D01*
X150806632Y-95366525D01*
X150624466Y-95244805D01*
X150741355Y-95175178D01*
X150957588Y-94980269D01*
X151131641Y-94746920D01*
X151256825Y-94484099D01*
X151301476Y-94336890D01*
X151180155Y-94107000D01*
X149987000Y-94107000D01*
X149987000Y-94127000D01*
X149733000Y-94127000D01*
X149733000Y-94107000D01*
X147447000Y-94107000D01*
X147447000Y-94127000D01*
X147193000Y-94127000D01*
X147193000Y-94107000D01*
X145999845Y-94107000D01*
X145878524Y-94336890D01*
X145923175Y-94484099D01*
X146048359Y-94746920D01*
X146222412Y-94980269D01*
X146306466Y-95056034D01*
X146225820Y-95080498D01*
X146115506Y-95139463D01*
X146018815Y-95218815D01*
X145939463Y-95315506D01*
X145880498Y-95425820D01*
X145844188Y-95545518D01*
X145831928Y-95670000D01*
X64988072Y-95670000D01*
X64975812Y-95545518D01*
X64939502Y-95425820D01*
X64880537Y-95315506D01*
X64801185Y-95218815D01*
X64704494Y-95139463D01*
X64594180Y-95080498D01*
X64513534Y-95056034D01*
X64597588Y-94980269D01*
X64771641Y-94746920D01*
X64896825Y-94484099D01*
X64941476Y-94336890D01*
X64820155Y-94107000D01*
X63627000Y-94107000D01*
X63627000Y-94127000D01*
X63373000Y-94127000D01*
X63373000Y-94107000D01*
X61087000Y-94107000D01*
X61087000Y-94127000D01*
X60833000Y-94127000D01*
X60833000Y-94107000D01*
X59639845Y-94107000D01*
X59518524Y-94336890D01*
X59563175Y-94484099D01*
X59688359Y-94746920D01*
X59862412Y-94980269D01*
X60078645Y-95175178D01*
X60195534Y-95244805D01*
X60013368Y-95366525D01*
X59806525Y-95573368D01*
X59644010Y-95816589D01*
X59532068Y-96086842D01*
X59475000Y-96373740D01*
X59080000Y-96373740D01*
X59080000Y-83673740D01*
X59475000Y-83673740D01*
X59475000Y-83966260D01*
X59532068Y-84253158D01*
X59644010Y-84523411D01*
X59806525Y-84766632D01*
X60013368Y-84973475D01*
X60187760Y-85090000D01*
X60013368Y-85206525D01*
X59806525Y-85413368D01*
X59644010Y-85656589D01*
X59532068Y-85926842D01*
X59475000Y-86213740D01*
X59475000Y-86506260D01*
X59532068Y-86793158D01*
X59644010Y-87063411D01*
X59806525Y-87306632D01*
X60013368Y-87513475D01*
X60187760Y-87630000D01*
X60013368Y-87746525D01*
X59806525Y-87953368D01*
X59644010Y-88196589D01*
X59532068Y-88466842D01*
X59475000Y-88753740D01*
X59475000Y-89046260D01*
X59532068Y-89333158D01*
X59644010Y-89603411D01*
X59806525Y-89846632D01*
X60013368Y-90053475D01*
X60187760Y-90170000D01*
X60013368Y-90286525D01*
X59806525Y-90493368D01*
X59644010Y-90736589D01*
X59532068Y-91006842D01*
X59475000Y-91293740D01*
X59475000Y-91586260D01*
X59532068Y-91873158D01*
X59644010Y-92143411D01*
X59806525Y-92386632D01*
X60013368Y-92593475D01*
X60195534Y-92715195D01*
X60078645Y-92784822D01*
X59862412Y-92979731D01*
X59688359Y-93213080D01*
X59563175Y-93475901D01*
X59518524Y-93623110D01*
X59639845Y-93853000D01*
X60833000Y-93853000D01*
X60833000Y-93833000D01*
X61087000Y-93833000D01*
X61087000Y-93853000D01*
X63373000Y-93853000D01*
X63373000Y-93833000D01*
X63627000Y-93833000D01*
X63627000Y-93853000D01*
X64820155Y-93853000D01*
X64941476Y-93623110D01*
X64896825Y-93475901D01*
X64771641Y-93213080D01*
X64597588Y-92979731D01*
X64381355Y-92784822D01*
X64264466Y-92715195D01*
X64446632Y-92593475D01*
X64653475Y-92386632D01*
X64815990Y-92143411D01*
X64927932Y-91873158D01*
X64985000Y-91586260D01*
X64985000Y-91293740D01*
X64927932Y-91006842D01*
X64815990Y-90736589D01*
X64653475Y-90493368D01*
X64446632Y-90286525D01*
X64272240Y-90170000D01*
X64446632Y-90053475D01*
X64653475Y-89846632D01*
X64815990Y-89603411D01*
X64927932Y-89333158D01*
X64985000Y-89046260D01*
X64985000Y-88753740D01*
X64927932Y-88466842D01*
X64815990Y-88196589D01*
X64653475Y-87953368D01*
X64446632Y-87746525D01*
X64272240Y-87630000D01*
X64446632Y-87513475D01*
X64653475Y-87306632D01*
X64815990Y-87063411D01*
X64927932Y-86793158D01*
X64985000Y-86506260D01*
X64985000Y-86213740D01*
X64927932Y-85926842D01*
X64815990Y-85656589D01*
X64653475Y-85413368D01*
X64446632Y-85206525D01*
X64272240Y-85090000D01*
X64446632Y-84973475D01*
X64653475Y-84766632D01*
X64815990Y-84523411D01*
X64927932Y-84253158D01*
X64985000Y-83966260D01*
X64985000Y-83673740D01*
X145835000Y-83673740D01*
X145835000Y-83966260D01*
X145892068Y-84253158D01*
X146004010Y-84523411D01*
X146166525Y-84766632D01*
X146373368Y-84973475D01*
X146547760Y-85090000D01*
X146373368Y-85206525D01*
X146166525Y-85413368D01*
X146004010Y-85656589D01*
X145892068Y-85926842D01*
X145835000Y-86213740D01*
X145835000Y-86506260D01*
X145892068Y-86793158D01*
X146004010Y-87063411D01*
X146166525Y-87306632D01*
X146373368Y-87513475D01*
X146547760Y-87630000D01*
X146373368Y-87746525D01*
X146166525Y-87953368D01*
X146004010Y-88196589D01*
X145892068Y-88466842D01*
X145835000Y-88753740D01*
X145835000Y-89046260D01*
X145892068Y-89333158D01*
X146004010Y-89603411D01*
X146166525Y-89846632D01*
X146373368Y-90053475D01*
X146547760Y-90170000D01*
X146373368Y-90286525D01*
X146166525Y-90493368D01*
X146004010Y-90736589D01*
X145892068Y-91006842D01*
X145835000Y-91293740D01*
X145835000Y-91586260D01*
X145892068Y-91873158D01*
X146004010Y-92143411D01*
X146166525Y-92386632D01*
X146373368Y-92593475D01*
X146555534Y-92715195D01*
X146438645Y-92784822D01*
X146222412Y-92979731D01*
X146048359Y-93213080D01*
X145923175Y-93475901D01*
X145878524Y-93623110D01*
X145999845Y-93853000D01*
X147193000Y-93853000D01*
X147193000Y-93833000D01*
X147447000Y-93833000D01*
X147447000Y-93853000D01*
X149733000Y-93853000D01*
X149733000Y-93833000D01*
X149987000Y-93833000D01*
X149987000Y-93853000D01*
X151180155Y-93853000D01*
X151301476Y-93623110D01*
X151256825Y-93475901D01*
X151131641Y-93213080D01*
X150957588Y-92979731D01*
X150741355Y-92784822D01*
X150624466Y-92715195D01*
X150806632Y-92593475D01*
X151013475Y-92386632D01*
X151175990Y-92143411D01*
X151287932Y-91873158D01*
X151345000Y-91586260D01*
X151345000Y-91293740D01*
X151287932Y-91006842D01*
X151175990Y-90736589D01*
X151013475Y-90493368D01*
X150806632Y-90286525D01*
X150632240Y-90170000D01*
X150806632Y-90053475D01*
X151013475Y-89846632D01*
X151175990Y-89603411D01*
X151287932Y-89333158D01*
X151345000Y-89046260D01*
X151345000Y-88753740D01*
X151287932Y-88466842D01*
X151175990Y-88196589D01*
X151013475Y-87953368D01*
X150806632Y-87746525D01*
X150632240Y-87630000D01*
X150806632Y-87513475D01*
X151013475Y-87306632D01*
X151175990Y-87063411D01*
X151287932Y-86793158D01*
X151345000Y-86506260D01*
X151345000Y-86213740D01*
X151287932Y-85926842D01*
X151175990Y-85656589D01*
X151013475Y-85413368D01*
X150806632Y-85206525D01*
X150632240Y-85090000D01*
X150806632Y-84973475D01*
X151013475Y-84766632D01*
X151175990Y-84523411D01*
X151287932Y-84253158D01*
X151345000Y-83966260D01*
X151345000Y-83673740D01*
X151287932Y-83386842D01*
X151175990Y-83116589D01*
X151013475Y-82873368D01*
X150806632Y-82666525D01*
X150563411Y-82504010D01*
X150293158Y-82392068D01*
X150006260Y-82335000D01*
X149713740Y-82335000D01*
X149426842Y-82392068D01*
X149156589Y-82504010D01*
X148913368Y-82666525D01*
X148706525Y-82873368D01*
X148590000Y-83047760D01*
X148473475Y-82873368D01*
X148266632Y-82666525D01*
X148023411Y-82504010D01*
X147753158Y-82392068D01*
X147466260Y-82335000D01*
X147173740Y-82335000D01*
X146886842Y-82392068D01*
X146616589Y-82504010D01*
X146373368Y-82666525D01*
X146166525Y-82873368D01*
X146004010Y-83116589D01*
X145892068Y-83386842D01*
X145835000Y-83673740D01*
X64985000Y-83673740D01*
X64927932Y-83386842D01*
X64815990Y-83116589D01*
X64653475Y-82873368D01*
X64446632Y-82666525D01*
X64203411Y-82504010D01*
X63933158Y-82392068D01*
X63646260Y-82335000D01*
X63353740Y-82335000D01*
X63066842Y-82392068D01*
X62796589Y-82504010D01*
X62553368Y-82666525D01*
X62346525Y-82873368D01*
X62230000Y-83047760D01*
X62113475Y-82873368D01*
X61906632Y-82666525D01*
X61663411Y-82504010D01*
X61393158Y-82392068D01*
X61106260Y-82335000D01*
X60813740Y-82335000D01*
X60526842Y-82392068D01*
X60256589Y-82504010D01*
X60013368Y-82666525D01*
X59806525Y-82873368D01*
X59644010Y-83116589D01*
X59532068Y-83386842D01*
X59475000Y-83673740D01*
X59080000Y-83673740D01*
X59080000Y-73513740D01*
X59475000Y-73513740D01*
X59475000Y-73806260D01*
X59532068Y-74093158D01*
X59644010Y-74363411D01*
X59806525Y-74606632D01*
X60013368Y-74813475D01*
X60256589Y-74975990D01*
X60526842Y-75087932D01*
X60813740Y-75145000D01*
X61106260Y-75145000D01*
X61393158Y-75087932D01*
X61663411Y-74975990D01*
X61906632Y-74813475D01*
X62038487Y-74681620D01*
X62060498Y-74754180D01*
X62119463Y-74864494D01*
X62198815Y-74961185D01*
X62295506Y-75040537D01*
X62405820Y-75099502D01*
X62525518Y-75135812D01*
X62650000Y-75148072D01*
X64350000Y-75148072D01*
X64474482Y-75135812D01*
X64594180Y-75099502D01*
X64704494Y-75040537D01*
X64801185Y-74961185D01*
X64880537Y-74864494D01*
X64939502Y-74754180D01*
X64975812Y-74634482D01*
X64988072Y-74510000D01*
X64988072Y-72810000D01*
X145831928Y-72810000D01*
X145831928Y-74510000D01*
X145844188Y-74634482D01*
X145880498Y-74754180D01*
X145939463Y-74864494D01*
X146018815Y-74961185D01*
X146115506Y-75040537D01*
X146225820Y-75099502D01*
X146345518Y-75135812D01*
X146470000Y-75148072D01*
X148170000Y-75148072D01*
X148294482Y-75135812D01*
X148414180Y-75099502D01*
X148524494Y-75040537D01*
X148621185Y-74961185D01*
X148700537Y-74864494D01*
X148759502Y-74754180D01*
X148781513Y-74681620D01*
X148913368Y-74813475D01*
X149156589Y-74975990D01*
X149426842Y-75087932D01*
X149713740Y-75145000D01*
X150006260Y-75145000D01*
X150293158Y-75087932D01*
X150563411Y-74975990D01*
X150806632Y-74813475D01*
X151013475Y-74606632D01*
X151175990Y-74363411D01*
X151287932Y-74093158D01*
X151345000Y-73806260D01*
X151345000Y-73513740D01*
X151287932Y-73226842D01*
X151175990Y-72956589D01*
X151013475Y-72713368D01*
X150806632Y-72506525D01*
X150624466Y-72384805D01*
X150741355Y-72315178D01*
X150957588Y-72120269D01*
X151131641Y-71886920D01*
X151256825Y-71624099D01*
X151301476Y-71476890D01*
X151180155Y-71247000D01*
X149987000Y-71247000D01*
X149987000Y-71267000D01*
X149733000Y-71267000D01*
X149733000Y-71247000D01*
X147447000Y-71247000D01*
X147447000Y-71267000D01*
X147193000Y-71267000D01*
X147193000Y-71247000D01*
X145999845Y-71247000D01*
X145878524Y-71476890D01*
X145923175Y-71624099D01*
X146048359Y-71886920D01*
X146222412Y-72120269D01*
X146306466Y-72196034D01*
X146225820Y-72220498D01*
X146115506Y-72279463D01*
X146018815Y-72358815D01*
X145939463Y-72455506D01*
X145880498Y-72565820D01*
X145844188Y-72685518D01*
X145831928Y-72810000D01*
X64988072Y-72810000D01*
X64975812Y-72685518D01*
X64939502Y-72565820D01*
X64880537Y-72455506D01*
X64801185Y-72358815D01*
X64704494Y-72279463D01*
X64594180Y-72220498D01*
X64513534Y-72196034D01*
X64597588Y-72120269D01*
X64771641Y-71886920D01*
X64896825Y-71624099D01*
X64941476Y-71476890D01*
X64820155Y-71247000D01*
X63627000Y-71247000D01*
X63627000Y-71267000D01*
X63373000Y-71267000D01*
X63373000Y-71247000D01*
X61087000Y-71247000D01*
X61087000Y-71267000D01*
X60833000Y-71267000D01*
X60833000Y-71247000D01*
X59639845Y-71247000D01*
X59518524Y-71476890D01*
X59563175Y-71624099D01*
X59688359Y-71886920D01*
X59862412Y-72120269D01*
X60078645Y-72315178D01*
X60195534Y-72384805D01*
X60013368Y-72506525D01*
X59806525Y-72713368D01*
X59644010Y-72956589D01*
X59532068Y-73226842D01*
X59475000Y-73513740D01*
X59080000Y-73513740D01*
X59080000Y-60813740D01*
X59475000Y-60813740D01*
X59475000Y-61106260D01*
X59532068Y-61393158D01*
X59644010Y-61663411D01*
X59806525Y-61906632D01*
X60013368Y-62113475D01*
X60187760Y-62230000D01*
X60013368Y-62346525D01*
X59806525Y-62553368D01*
X59644010Y-62796589D01*
X59532068Y-63066842D01*
X59475000Y-63353740D01*
X59475000Y-63646260D01*
X59532068Y-63933158D01*
X59644010Y-64203411D01*
X59806525Y-64446632D01*
X60013368Y-64653475D01*
X60187760Y-64770000D01*
X60013368Y-64886525D01*
X59806525Y-65093368D01*
X59644010Y-65336589D01*
X59532068Y-65606842D01*
X59475000Y-65893740D01*
X59475000Y-66186260D01*
X59532068Y-66473158D01*
X59644010Y-66743411D01*
X59806525Y-66986632D01*
X60013368Y-67193475D01*
X60187760Y-67310000D01*
X60013368Y-67426525D01*
X59806525Y-67633368D01*
X59644010Y-67876589D01*
X59532068Y-68146842D01*
X59475000Y-68433740D01*
X59475000Y-68726260D01*
X59532068Y-69013158D01*
X59644010Y-69283411D01*
X59806525Y-69526632D01*
X60013368Y-69733475D01*
X60195534Y-69855195D01*
X60078645Y-69924822D01*
X59862412Y-70119731D01*
X59688359Y-70353080D01*
X59563175Y-70615901D01*
X59518524Y-70763110D01*
X59639845Y-70993000D01*
X60833000Y-70993000D01*
X60833000Y-70973000D01*
X61087000Y-70973000D01*
X61087000Y-70993000D01*
X63373000Y-70993000D01*
X63373000Y-70973000D01*
X63627000Y-70973000D01*
X63627000Y-70993000D01*
X64820155Y-70993000D01*
X64941476Y-70763110D01*
X64896825Y-70615901D01*
X64771641Y-70353080D01*
X64597588Y-70119731D01*
X64381355Y-69924822D01*
X64264466Y-69855195D01*
X64446632Y-69733475D01*
X64653475Y-69526632D01*
X64815990Y-69283411D01*
X64927932Y-69013158D01*
X64985000Y-68726260D01*
X64985000Y-68433740D01*
X64927932Y-68146842D01*
X64815990Y-67876589D01*
X64653475Y-67633368D01*
X64446632Y-67426525D01*
X64272240Y-67310000D01*
X64446632Y-67193475D01*
X64653475Y-66986632D01*
X64815990Y-66743411D01*
X64927932Y-66473158D01*
X64985000Y-66186260D01*
X64985000Y-65893740D01*
X64927932Y-65606842D01*
X64815990Y-65336589D01*
X64653475Y-65093368D01*
X64446632Y-64886525D01*
X64272240Y-64770000D01*
X64446632Y-64653475D01*
X64653475Y-64446632D01*
X64815990Y-64203411D01*
X64927932Y-63933158D01*
X64985000Y-63646260D01*
X64985000Y-63353740D01*
X64927932Y-63066842D01*
X64815990Y-62796589D01*
X64653475Y-62553368D01*
X64446632Y-62346525D01*
X64272240Y-62230000D01*
X64446632Y-62113475D01*
X64653475Y-61906632D01*
X64815990Y-61663411D01*
X64927932Y-61393158D01*
X64985000Y-61106260D01*
X64985000Y-60813740D01*
X145835000Y-60813740D01*
X145835000Y-61106260D01*
X145892068Y-61393158D01*
X146004010Y-61663411D01*
X146166525Y-61906632D01*
X146373368Y-62113475D01*
X146547760Y-62230000D01*
X146373368Y-62346525D01*
X146166525Y-62553368D01*
X146004010Y-62796589D01*
X145892068Y-63066842D01*
X145835000Y-63353740D01*
X145835000Y-63646260D01*
X145892068Y-63933158D01*
X146004010Y-64203411D01*
X146166525Y-64446632D01*
X146373368Y-64653475D01*
X146547760Y-64770000D01*
X146373368Y-64886525D01*
X146166525Y-65093368D01*
X146004010Y-65336589D01*
X145892068Y-65606842D01*
X145835000Y-65893740D01*
X145835000Y-66186260D01*
X145892068Y-66473158D01*
X146004010Y-66743411D01*
X146166525Y-66986632D01*
X146373368Y-67193475D01*
X146547760Y-67310000D01*
X146373368Y-67426525D01*
X146166525Y-67633368D01*
X146004010Y-67876589D01*
X145892068Y-68146842D01*
X145835000Y-68433740D01*
X145835000Y-68726260D01*
X145892068Y-69013158D01*
X146004010Y-69283411D01*
X146166525Y-69526632D01*
X146373368Y-69733475D01*
X146555534Y-69855195D01*
X146438645Y-69924822D01*
X146222412Y-70119731D01*
X146048359Y-70353080D01*
X145923175Y-70615901D01*
X145878524Y-70763110D01*
X145999845Y-70993000D01*
X147193000Y-70993000D01*
X147193000Y-70973000D01*
X147447000Y-70973000D01*
X147447000Y-70993000D01*
X149733000Y-70993000D01*
X149733000Y-70973000D01*
X149987000Y-70973000D01*
X149987000Y-70993000D01*
X151180155Y-70993000D01*
X151301476Y-70763110D01*
X151256825Y-70615901D01*
X151131641Y-70353080D01*
X150957588Y-70119731D01*
X150741355Y-69924822D01*
X150624466Y-69855195D01*
X150806632Y-69733475D01*
X151013475Y-69526632D01*
X151175990Y-69283411D01*
X151287932Y-69013158D01*
X151345000Y-68726260D01*
X151345000Y-68433740D01*
X151287932Y-68146842D01*
X151175990Y-67876589D01*
X151013475Y-67633368D01*
X150806632Y-67426525D01*
X150632240Y-67310000D01*
X150806632Y-67193475D01*
X151013475Y-66986632D01*
X151175990Y-66743411D01*
X151287932Y-66473158D01*
X151345000Y-66186260D01*
X151345000Y-65893740D01*
X151287932Y-65606842D01*
X151175990Y-65336589D01*
X151013475Y-65093368D01*
X150806632Y-64886525D01*
X150632240Y-64770000D01*
X150806632Y-64653475D01*
X151013475Y-64446632D01*
X151175990Y-64203411D01*
X151287932Y-63933158D01*
X151345000Y-63646260D01*
X151345000Y-63353740D01*
X151287932Y-63066842D01*
X151175990Y-62796589D01*
X151013475Y-62553368D01*
X150806632Y-62346525D01*
X150632240Y-62230000D01*
X150806632Y-62113475D01*
X151013475Y-61906632D01*
X151175990Y-61663411D01*
X151287932Y-61393158D01*
X151345000Y-61106260D01*
X151345000Y-60813740D01*
X151287932Y-60526842D01*
X151175990Y-60256589D01*
X151013475Y-60013368D01*
X150806632Y-59806525D01*
X150563411Y-59644010D01*
X150293158Y-59532068D01*
X150006260Y-59475000D01*
X149713740Y-59475000D01*
X149426842Y-59532068D01*
X149156589Y-59644010D01*
X148913368Y-59806525D01*
X148706525Y-60013368D01*
X148590000Y-60187760D01*
X148473475Y-60013368D01*
X148266632Y-59806525D01*
X148023411Y-59644010D01*
X147753158Y-59532068D01*
X147466260Y-59475000D01*
X147173740Y-59475000D01*
X146886842Y-59532068D01*
X146616589Y-59644010D01*
X146373368Y-59806525D01*
X146166525Y-60013368D01*
X146004010Y-60256589D01*
X145892068Y-60526842D01*
X145835000Y-60813740D01*
X64985000Y-60813740D01*
X64927932Y-60526842D01*
X64815990Y-60256589D01*
X64653475Y-60013368D01*
X64446632Y-59806525D01*
X64203411Y-59644010D01*
X63933158Y-59532068D01*
X63646260Y-59475000D01*
X63353740Y-59475000D01*
X63066842Y-59532068D01*
X62796589Y-59644010D01*
X62553368Y-59806525D01*
X62346525Y-60013368D01*
X62230000Y-60187760D01*
X62113475Y-60013368D01*
X61906632Y-59806525D01*
X61663411Y-59644010D01*
X61393158Y-59532068D01*
X61106260Y-59475000D01*
X60813740Y-59475000D01*
X60526842Y-59532068D01*
X60256589Y-59644010D01*
X60013368Y-59806525D01*
X59806525Y-60013368D01*
X59644010Y-60256589D01*
X59532068Y-60526842D01*
X59475000Y-60813740D01*
X59080000Y-60813740D01*
X59080000Y-47882285D01*
X59805000Y-47882285D01*
X59805000Y-48637715D01*
X59952377Y-49378628D01*
X60241467Y-50076554D01*
X60661161Y-50704670D01*
X61195330Y-51238839D01*
X61823446Y-51658533D01*
X62521372Y-51947623D01*
X63262285Y-52095000D01*
X64017715Y-52095000D01*
X64758628Y-51947623D01*
X65456554Y-51658533D01*
X66084670Y-51238839D01*
X66618839Y-50704670D01*
X67038533Y-50076554D01*
X67327623Y-49378628D01*
X67475000Y-48637715D01*
X67475000Y-47882285D01*
X143485000Y-47882285D01*
X143485000Y-48637715D01*
X143632377Y-49378628D01*
X143921467Y-50076554D01*
X144341161Y-50704670D01*
X144875330Y-51238839D01*
X145503446Y-51658533D01*
X146201372Y-51947623D01*
X146942285Y-52095000D01*
X147697715Y-52095000D01*
X148438628Y-51947623D01*
X149136554Y-51658533D01*
X149764670Y-51238839D01*
X150298839Y-50704670D01*
X150718533Y-50076554D01*
X151007623Y-49378628D01*
X151155000Y-48637715D01*
X151155000Y-47882285D01*
X151007623Y-47141372D01*
X150718533Y-46443446D01*
X150298839Y-45815330D01*
X149764670Y-45281161D01*
X149136554Y-44861467D01*
X148438628Y-44572377D01*
X147697715Y-44425000D01*
X146942285Y-44425000D01*
X146201372Y-44572377D01*
X145503446Y-44861467D01*
X144875330Y-45281161D01*
X144341161Y-45815330D01*
X143921467Y-46443446D01*
X143632377Y-47141372D01*
X143485000Y-47882285D01*
X67475000Y-47882285D01*
X67327623Y-47141372D01*
X67038533Y-46443446D01*
X66618839Y-45815330D01*
X66084670Y-45281161D01*
X65456554Y-44861467D01*
X64758628Y-44572377D01*
X64017715Y-44425000D01*
X63262285Y-44425000D01*
X62521372Y-44572377D01*
X61823446Y-44861467D01*
X61195330Y-45281161D01*
X60661161Y-45815330D01*
X60241467Y-46443446D01*
X59952377Y-47141372D01*
X59805000Y-47882285D01*
X59080000Y-47882285D01*
X59080000Y-43840000D01*
X151740000Y-43840000D01*
X151740001Y-136500000D01*
%TA.AperFunction,Conductor*%
D18*
G36*
X151740001Y-136500000D02*
G01*
X115559431Y-136500000D01*
X115643314Y-136297490D01*
X115697000Y-136027592D01*
X115697000Y-135752408D01*
X115643314Y-135482510D01*
X115538005Y-135228273D01*
X115385120Y-134999465D01*
X115190535Y-134804880D01*
X115060000Y-134717659D01*
X115060000Y-131702285D01*
X143485000Y-131702285D01*
X143485000Y-132457715D01*
X143632377Y-133198628D01*
X143921467Y-133896554D01*
X144341161Y-134524670D01*
X144875330Y-135058839D01*
X145503446Y-135478533D01*
X146201372Y-135767623D01*
X146942285Y-135915000D01*
X147697715Y-135915000D01*
X148438628Y-135767623D01*
X149136554Y-135478533D01*
X149764670Y-135058839D01*
X150298839Y-134524670D01*
X150718533Y-133896554D01*
X151007623Y-133198628D01*
X151155000Y-132457715D01*
X151155000Y-131702285D01*
X151007623Y-130961372D01*
X150718533Y-130263446D01*
X150298839Y-129635330D01*
X149764670Y-129101161D01*
X149136554Y-128681467D01*
X148438628Y-128392377D01*
X147697715Y-128245000D01*
X146942285Y-128245000D01*
X146201372Y-128392377D01*
X145503446Y-128681467D01*
X144875330Y-129101161D01*
X144341161Y-129635330D01*
X143921467Y-130263446D01*
X143632377Y-130961372D01*
X143485000Y-131702285D01*
X115060000Y-131702285D01*
X115060000Y-130243711D01*
X115103937Y-130199774D01*
X115217205Y-130030256D01*
X115295226Y-129841898D01*
X115335000Y-129641939D01*
X115335000Y-129438061D01*
X115295226Y-129238102D01*
X115217205Y-129049744D01*
X115103937Y-128880226D01*
X114959774Y-128736063D01*
X114790256Y-128622795D01*
X114601898Y-128544774D01*
X114401939Y-128505000D01*
X114198061Y-128505000D01*
X113998102Y-128544774D01*
X113809744Y-128622795D01*
X113640226Y-128736063D01*
X113496063Y-128880226D01*
X113382795Y-129049744D01*
X113304774Y-129238102D01*
X113265000Y-129438061D01*
X113265000Y-129641939D01*
X113304774Y-129841898D01*
X113382795Y-130030256D01*
X113496063Y-130199774D01*
X113540001Y-130243712D01*
X113540000Y-134717659D01*
X113409465Y-134804880D01*
X113214880Y-134999465D01*
X113061995Y-135228273D01*
X113030000Y-135305515D01*
X112998005Y-135228273D01*
X112845120Y-134999465D01*
X112650535Y-134804880D01*
X112520000Y-134717659D01*
X112520000Y-128973711D01*
X112563937Y-128929774D01*
X112677205Y-128760256D01*
X112755226Y-128571898D01*
X112795000Y-128371939D01*
X112795000Y-128168061D01*
X112755226Y-127968102D01*
X112702894Y-127841762D01*
X112819721Y-127865000D01*
X113240279Y-127865000D01*
X113652756Y-127782953D01*
X114041302Y-127622012D01*
X114390983Y-127388363D01*
X114688363Y-127090983D01*
X114922012Y-126741302D01*
X115082953Y-126352756D01*
X115165000Y-125940279D01*
X115165000Y-125519721D01*
X115082953Y-125107244D01*
X114922012Y-124718698D01*
X114688363Y-124369017D01*
X114390983Y-124071637D01*
X114041302Y-123837988D01*
X113652756Y-123677047D01*
X113240279Y-123595000D01*
X112819721Y-123595000D01*
X112407244Y-123677047D01*
X112018698Y-123837988D01*
X111669017Y-124071637D01*
X111371637Y-124369017D01*
X111137988Y-124718698D01*
X110977047Y-125107244D01*
X110895000Y-125519721D01*
X110895000Y-125940279D01*
X110977047Y-126352756D01*
X111137988Y-126741302D01*
X111371637Y-127090983D01*
X111539281Y-127258627D01*
X111458102Y-127274774D01*
X111269744Y-127352795D01*
X111100226Y-127466063D01*
X110956063Y-127610226D01*
X110842795Y-127779744D01*
X110764774Y-127968102D01*
X110725000Y-128168061D01*
X110725000Y-128371939D01*
X110764774Y-128571898D01*
X110842795Y-128760256D01*
X110956063Y-128929774D01*
X111000001Y-128973712D01*
X111000000Y-134717659D01*
X110869465Y-134804880D01*
X110674880Y-134999465D01*
X110521995Y-135228273D01*
X110490000Y-135305515D01*
X110458005Y-135228273D01*
X110305120Y-134999465D01*
X110110535Y-134804880D01*
X109980000Y-134717659D01*
X109980000Y-122623711D01*
X110023937Y-122579774D01*
X110137205Y-122410256D01*
X110215226Y-122221898D01*
X110255000Y-122021939D01*
X110255000Y-121818061D01*
X110215226Y-121618102D01*
X110137205Y-121429744D01*
X110023937Y-121260226D01*
X109879774Y-121116063D01*
X109710256Y-121002795D01*
X109521898Y-120924774D01*
X109321939Y-120885000D01*
X109118061Y-120885000D01*
X108918102Y-120924774D01*
X108729744Y-121002795D01*
X108560226Y-121116063D01*
X108416063Y-121260226D01*
X108302795Y-121429744D01*
X108224774Y-121618102D01*
X108185000Y-121818061D01*
X108185000Y-122021939D01*
X108224774Y-122221898D01*
X108302795Y-122410256D01*
X108416063Y-122579774D01*
X108460001Y-122623712D01*
X108460000Y-134717659D01*
X108329465Y-134804880D01*
X108134880Y-134999465D01*
X107981995Y-135228273D01*
X107950000Y-135305515D01*
X107918005Y-135228273D01*
X107765120Y-134999465D01*
X107570535Y-134804880D01*
X107440000Y-134717659D01*
X107440000Y-121353711D01*
X107483937Y-121309774D01*
X107597205Y-121140256D01*
X107675226Y-120951898D01*
X107715000Y-120751939D01*
X107715000Y-120548061D01*
X107675226Y-120348102D01*
X107597205Y-120159744D01*
X107483937Y-119990226D01*
X107339774Y-119846063D01*
X107170256Y-119732795D01*
X106981898Y-119654774D01*
X106781939Y-119615000D01*
X106578061Y-119615000D01*
X106378102Y-119654774D01*
X106189744Y-119732795D01*
X106170000Y-119745987D01*
X106170000Y-118530000D01*
X145831928Y-118530000D01*
X145831928Y-120230000D01*
X145844188Y-120354482D01*
X145880498Y-120474180D01*
X145939463Y-120584494D01*
X146018815Y-120681185D01*
X146115506Y-120760537D01*
X146225820Y-120819502D01*
X146345518Y-120855812D01*
X146470000Y-120868072D01*
X148170000Y-120868072D01*
X148294482Y-120855812D01*
X148414180Y-120819502D01*
X148524494Y-120760537D01*
X148621185Y-120681185D01*
X148700537Y-120584494D01*
X148759502Y-120474180D01*
X148781513Y-120401620D01*
X148913368Y-120533475D01*
X149156589Y-120695990D01*
X149426842Y-120807932D01*
X149713740Y-120865000D01*
X150006260Y-120865000D01*
X150293158Y-120807932D01*
X150563411Y-120695990D01*
X150806632Y-120533475D01*
X151013475Y-120326632D01*
X151175990Y-120083411D01*
X151287932Y-119813158D01*
X151345000Y-119526260D01*
X151345000Y-119233740D01*
X151287932Y-118946842D01*
X151175990Y-118676589D01*
X151013475Y-118433368D01*
X150806632Y-118226525D01*
X150624466Y-118104805D01*
X150741355Y-118035178D01*
X150957588Y-117840269D01*
X151131641Y-117606920D01*
X151256825Y-117344099D01*
X151301476Y-117196890D01*
X151180155Y-116967000D01*
X149987000Y-116967000D01*
X149987000Y-116987000D01*
X149733000Y-116987000D01*
X149733000Y-116967000D01*
X147447000Y-116967000D01*
X147447000Y-116987000D01*
X147193000Y-116987000D01*
X147193000Y-116967000D01*
X145999845Y-116967000D01*
X145878524Y-117196890D01*
X145923175Y-117344099D01*
X146048359Y-117606920D01*
X146222412Y-117840269D01*
X146306466Y-117916034D01*
X146225820Y-117940498D01*
X146115506Y-117999463D01*
X146018815Y-118078815D01*
X145939463Y-118175506D01*
X145880498Y-118285820D01*
X145844188Y-118405518D01*
X145831928Y-118530000D01*
X106170000Y-118530000D01*
X106170000Y-116870853D01*
X106272510Y-116913314D01*
X106542408Y-116967000D01*
X106817592Y-116967000D01*
X107087490Y-116913314D01*
X107341727Y-116808005D01*
X107570535Y-116655120D01*
X107765120Y-116460535D01*
X107918005Y-116231727D01*
X107950000Y-116154485D01*
X107981995Y-116231727D01*
X108134880Y-116460535D01*
X108329465Y-116655120D01*
X108558273Y-116808005D01*
X108812510Y-116913314D01*
X109082408Y-116967000D01*
X109357592Y-116967000D01*
X109627490Y-116913314D01*
X109881727Y-116808005D01*
X110110535Y-116655120D01*
X110305120Y-116460535D01*
X110458005Y-116231727D01*
X110490000Y-116154485D01*
X110521995Y-116231727D01*
X110674880Y-116460535D01*
X110869465Y-116655120D01*
X111098273Y-116808005D01*
X111352510Y-116913314D01*
X111622408Y-116967000D01*
X111897592Y-116967000D01*
X112167490Y-116913314D01*
X112421727Y-116808005D01*
X112650535Y-116655120D01*
X112845120Y-116460535D01*
X112998005Y-116231727D01*
X113030000Y-116154485D01*
X113061995Y-116231727D01*
X113214880Y-116460535D01*
X113409465Y-116655120D01*
X113638273Y-116808005D01*
X113892510Y-116913314D01*
X114162408Y-116967000D01*
X114437592Y-116967000D01*
X114707490Y-116913314D01*
X114961727Y-116808005D01*
X115190535Y-116655120D01*
X115385120Y-116460535D01*
X115538005Y-116231727D01*
X115643314Y-115977490D01*
X115697000Y-115707592D01*
X115697000Y-115432408D01*
X115643314Y-115162510D01*
X115538005Y-114908273D01*
X115385120Y-114679465D01*
X115190535Y-114484880D01*
X115060000Y-114397659D01*
X115060000Y-110392341D01*
X115190535Y-110305120D01*
X115385120Y-110110535D01*
X115538005Y-109881727D01*
X115570000Y-109804485D01*
X115601995Y-109881727D01*
X115754880Y-110110535D01*
X115949465Y-110305120D01*
X116178273Y-110458005D01*
X116432510Y-110563314D01*
X116702408Y-110617000D01*
X116977592Y-110617000D01*
X117247490Y-110563314D01*
X117501727Y-110458005D01*
X117730535Y-110305120D01*
X117925120Y-110110535D01*
X118078005Y-109881727D01*
X118183314Y-109627490D01*
X118237000Y-109357592D01*
X118237000Y-109082408D01*
X118183314Y-108812510D01*
X118078005Y-108558273D01*
X117925120Y-108329465D01*
X117730535Y-108134880D01*
X117501727Y-107981995D01*
X117247490Y-107876686D01*
X116977592Y-107823000D01*
X116702408Y-107823000D01*
X116432510Y-107876686D01*
X116178273Y-107981995D01*
X115949465Y-108134880D01*
X115754880Y-108329465D01*
X115601995Y-108558273D01*
X115570000Y-108635515D01*
X115538005Y-108558273D01*
X115385120Y-108329465D01*
X115190535Y-108134880D01*
X114961727Y-107981995D01*
X114707490Y-107876686D01*
X114437592Y-107823000D01*
X114162408Y-107823000D01*
X113892510Y-107876686D01*
X113638273Y-107981995D01*
X113409465Y-108134880D01*
X113214880Y-108329465D01*
X113061995Y-108558273D01*
X113030000Y-108635515D01*
X112998005Y-108558273D01*
X112845120Y-108329465D01*
X112650535Y-108134880D01*
X112421727Y-107981995D01*
X112167490Y-107876686D01*
X111897592Y-107823000D01*
X111622408Y-107823000D01*
X111352510Y-107876686D01*
X111098273Y-107981995D01*
X110869465Y-108134880D01*
X110674880Y-108329465D01*
X110521995Y-108558273D01*
X110490000Y-108635515D01*
X110458005Y-108558273D01*
X110305120Y-108329465D01*
X110110535Y-108134880D01*
X109881727Y-107981995D01*
X109627490Y-107876686D01*
X109357592Y-107823000D01*
X109082408Y-107823000D01*
X108812510Y-107876686D01*
X108558273Y-107981995D01*
X108329465Y-108134880D01*
X108134880Y-108329465D01*
X107981995Y-108558273D01*
X107950000Y-108635515D01*
X107918005Y-108558273D01*
X107765120Y-108329465D01*
X107570535Y-108134880D01*
X107341727Y-107981995D01*
X107087490Y-107876686D01*
X106817592Y-107823000D01*
X106542408Y-107823000D01*
X106272510Y-107876686D01*
X106018273Y-107981995D01*
X105789465Y-108134880D01*
X105594880Y-108329465D01*
X105441995Y-108558273D01*
X105410000Y-108635515D01*
X105378005Y-108558273D01*
X105225120Y-108329465D01*
X105030535Y-108134880D01*
X104801727Y-107981995D01*
X104547490Y-107876686D01*
X104277592Y-107823000D01*
X104002408Y-107823000D01*
X103732510Y-107876686D01*
X103478273Y-107981995D01*
X103249465Y-108134880D01*
X103054880Y-108329465D01*
X102901995Y-108558273D01*
X102870000Y-108635515D01*
X102838005Y-108558273D01*
X102685120Y-108329465D01*
X102490535Y-108134880D01*
X102261727Y-107981995D01*
X102007490Y-107876686D01*
X101737592Y-107823000D01*
X101462408Y-107823000D01*
X101192510Y-107876686D01*
X100938273Y-107981995D01*
X100709465Y-108134880D01*
X100514880Y-108329465D01*
X100361995Y-108558273D01*
X100330000Y-108635515D01*
X100298005Y-108558273D01*
X100145120Y-108329465D01*
X99950535Y-108134880D01*
X99721727Y-107981995D01*
X99467490Y-107876686D01*
X99197592Y-107823000D01*
X98922408Y-107823000D01*
X98652510Y-107876686D01*
X98398273Y-107981995D01*
X98169465Y-108134880D01*
X97974880Y-108329465D01*
X97821995Y-108558273D01*
X97790000Y-108635515D01*
X97758005Y-108558273D01*
X97605120Y-108329465D01*
X97410535Y-108134880D01*
X97181727Y-107981995D01*
X96927490Y-107876686D01*
X96657592Y-107823000D01*
X96382408Y-107823000D01*
X96112510Y-107876686D01*
X95858273Y-107981995D01*
X95629465Y-108134880D01*
X95434880Y-108329465D01*
X95281995Y-108558273D01*
X95250000Y-108635515D01*
X95218005Y-108558273D01*
X95065120Y-108329465D01*
X94870535Y-108134880D01*
X94641727Y-107981995D01*
X94387490Y-107876686D01*
X94117592Y-107823000D01*
X93842408Y-107823000D01*
X93572510Y-107876686D01*
X93470000Y-107919147D01*
X93470000Y-107383711D01*
X93513937Y-107339774D01*
X93627205Y-107170256D01*
X93705226Y-106981898D01*
X93745000Y-106781939D01*
X93745000Y-106578061D01*
X93736185Y-106533740D01*
X145835000Y-106533740D01*
X145835000Y-106826260D01*
X145892068Y-107113158D01*
X146004010Y-107383411D01*
X146166525Y-107626632D01*
X146373368Y-107833475D01*
X146547760Y-107950000D01*
X146373368Y-108066525D01*
X146166525Y-108273368D01*
X146004010Y-108516589D01*
X145892068Y-108786842D01*
X145835000Y-109073740D01*
X145835000Y-109366260D01*
X145892068Y-109653158D01*
X146004010Y-109923411D01*
X146166525Y-110166632D01*
X146373368Y-110373475D01*
X146547760Y-110490000D01*
X146373368Y-110606525D01*
X146166525Y-110813368D01*
X146004010Y-111056589D01*
X145892068Y-111326842D01*
X145835000Y-111613740D01*
X145835000Y-111906260D01*
X145892068Y-112193158D01*
X146004010Y-112463411D01*
X146166525Y-112706632D01*
X146373368Y-112913475D01*
X146547760Y-113030000D01*
X146373368Y-113146525D01*
X146166525Y-113353368D01*
X146004010Y-113596589D01*
X145892068Y-113866842D01*
X145835000Y-114153740D01*
X145835000Y-114446260D01*
X145892068Y-114733158D01*
X146004010Y-115003411D01*
X146166525Y-115246632D01*
X146373368Y-115453475D01*
X146555534Y-115575195D01*
X146438645Y-115644822D01*
X146222412Y-115839731D01*
X146048359Y-116073080D01*
X145923175Y-116335901D01*
X145878524Y-116483110D01*
X145999845Y-116713000D01*
X147193000Y-116713000D01*
X147193000Y-116693000D01*
X147447000Y-116693000D01*
X147447000Y-116713000D01*
X149733000Y-116713000D01*
X149733000Y-116693000D01*
X149987000Y-116693000D01*
X149987000Y-116713000D01*
X151180155Y-116713000D01*
X151301476Y-116483110D01*
X151256825Y-116335901D01*
X151131641Y-116073080D01*
X150957588Y-115839731D01*
X150741355Y-115644822D01*
X150624466Y-115575195D01*
X150806632Y-115453475D01*
X151013475Y-115246632D01*
X151175990Y-115003411D01*
X151287932Y-114733158D01*
X151345000Y-114446260D01*
X151345000Y-114153740D01*
X151287932Y-113866842D01*
X151175990Y-113596589D01*
X151013475Y-113353368D01*
X150806632Y-113146525D01*
X150632240Y-113030000D01*
X150806632Y-112913475D01*
X151013475Y-112706632D01*
X151175990Y-112463411D01*
X151287932Y-112193158D01*
X151345000Y-111906260D01*
X151345000Y-111613740D01*
X151287932Y-111326842D01*
X151175990Y-111056589D01*
X151013475Y-110813368D01*
X150806632Y-110606525D01*
X150632240Y-110490000D01*
X150806632Y-110373475D01*
X151013475Y-110166632D01*
X151175990Y-109923411D01*
X151287932Y-109653158D01*
X151345000Y-109366260D01*
X151345000Y-109073740D01*
X151287932Y-108786842D01*
X151175990Y-108516589D01*
X151013475Y-108273368D01*
X150806632Y-108066525D01*
X150632240Y-107950000D01*
X150806632Y-107833475D01*
X151013475Y-107626632D01*
X151175990Y-107383411D01*
X151287932Y-107113158D01*
X151345000Y-106826260D01*
X151345000Y-106533740D01*
X151287932Y-106246842D01*
X151175990Y-105976589D01*
X151013475Y-105733368D01*
X150806632Y-105526525D01*
X150563411Y-105364010D01*
X150293158Y-105252068D01*
X150006260Y-105195000D01*
X149713740Y-105195000D01*
X149426842Y-105252068D01*
X149156589Y-105364010D01*
X148913368Y-105526525D01*
X148706525Y-105733368D01*
X148590000Y-105907760D01*
X148473475Y-105733368D01*
X148266632Y-105526525D01*
X148023411Y-105364010D01*
X147753158Y-105252068D01*
X147466260Y-105195000D01*
X147173740Y-105195000D01*
X146886842Y-105252068D01*
X146616589Y-105364010D01*
X146373368Y-105526525D01*
X146166525Y-105733368D01*
X146004010Y-105976589D01*
X145892068Y-106246842D01*
X145835000Y-106533740D01*
X93736185Y-106533740D01*
X93705226Y-106378102D01*
X93627205Y-106189744D01*
X93513937Y-106020226D01*
X93369774Y-105876063D01*
X93200256Y-105762795D01*
X93011898Y-105684774D01*
X92811939Y-105645000D01*
X92608061Y-105645000D01*
X92408102Y-105684774D01*
X92219744Y-105762795D01*
X92050226Y-105876063D01*
X91906063Y-106020226D01*
X91792795Y-106189744D01*
X91714774Y-106378102D01*
X91675000Y-106578061D01*
X91675000Y-106781939D01*
X91714774Y-106981898D01*
X91792795Y-107170256D01*
X91906063Y-107339774D01*
X91950001Y-107383712D01*
X91950000Y-134582678D01*
X91946324Y-134620000D01*
X91950000Y-134657322D01*
X91950000Y-134657332D01*
X91960997Y-134768985D01*
X91987089Y-134855000D01*
X92004454Y-134912246D01*
X92075026Y-135044276D01*
X92086978Y-135058839D01*
X92169999Y-135160001D01*
X92199003Y-135183804D01*
X92945000Y-135929802D01*
X92945000Y-135991939D01*
X92984774Y-136191898D01*
X93062795Y-136380256D01*
X93142805Y-136500000D01*
X59080000Y-136500000D01*
X59080000Y-131702285D01*
X59805000Y-131702285D01*
X59805000Y-132457715D01*
X59952377Y-133198628D01*
X60241467Y-133896554D01*
X60661161Y-134524670D01*
X61195330Y-135058839D01*
X61823446Y-135478533D01*
X62521372Y-135767623D01*
X63262285Y-135915000D01*
X64017715Y-135915000D01*
X64758628Y-135767623D01*
X65456554Y-135478533D01*
X66084670Y-135058839D01*
X66618839Y-134524670D01*
X67038533Y-133896554D01*
X67327623Y-133198628D01*
X67475000Y-132457715D01*
X67475000Y-131702285D01*
X67327623Y-130961372D01*
X67207931Y-130672408D01*
X76073000Y-130672408D01*
X76073000Y-130947592D01*
X76126686Y-131217490D01*
X76231995Y-131471727D01*
X76384880Y-131700535D01*
X76579465Y-131895120D01*
X76808273Y-132048005D01*
X77062510Y-132153314D01*
X77332408Y-132207000D01*
X77607592Y-132207000D01*
X77877490Y-132153314D01*
X78131727Y-132048005D01*
X78360535Y-131895120D01*
X78555120Y-131700535D01*
X78708005Y-131471727D01*
X78813314Y-131217490D01*
X78867000Y-130947592D01*
X78867000Y-130672408D01*
X86233000Y-130672408D01*
X86233000Y-130947592D01*
X86286686Y-131217490D01*
X86391995Y-131471727D01*
X86544880Y-131700535D01*
X86739465Y-131895120D01*
X86968273Y-132048005D01*
X87222510Y-132153314D01*
X87492408Y-132207000D01*
X87767592Y-132207000D01*
X88037490Y-132153314D01*
X88291727Y-132048005D01*
X88520535Y-131895120D01*
X88715120Y-131700535D01*
X88868005Y-131471727D01*
X88973314Y-131217490D01*
X89027000Y-130947592D01*
X89027000Y-130672408D01*
X88973314Y-130402510D01*
X88868005Y-130148273D01*
X88715120Y-129919465D01*
X88520535Y-129724880D01*
X88291727Y-129571995D01*
X88037490Y-129466686D01*
X87767592Y-129413000D01*
X87492408Y-129413000D01*
X87222510Y-129466686D01*
X86968273Y-129571995D01*
X86739465Y-129724880D01*
X86544880Y-129919465D01*
X86391995Y-130148273D01*
X86286686Y-130402510D01*
X86233000Y-130672408D01*
X78867000Y-130672408D01*
X78813314Y-130402510D01*
X78708005Y-130148273D01*
X78555120Y-129919465D01*
X78360535Y-129724880D01*
X78131727Y-129571995D01*
X77877490Y-129466686D01*
X77607592Y-129413000D01*
X77332408Y-129413000D01*
X77062510Y-129466686D01*
X76808273Y-129571995D01*
X76579465Y-129724880D01*
X76384880Y-129919465D01*
X76231995Y-130148273D01*
X76126686Y-130402510D01*
X76073000Y-130672408D01*
X67207931Y-130672408D01*
X67038533Y-130263446D01*
X66618839Y-129635330D01*
X66084670Y-129101161D01*
X65456554Y-128681467D01*
X64758628Y-128392377D01*
X64017715Y-128245000D01*
X63262285Y-128245000D01*
X62521372Y-128392377D01*
X61823446Y-128681467D01*
X61195330Y-129101161D01*
X60661161Y-129635330D01*
X60241467Y-130263446D01*
X59952377Y-130961372D01*
X59805000Y-131702285D01*
X59080000Y-131702285D01*
X59080000Y-125592408D01*
X76073000Y-125592408D01*
X76073000Y-125867592D01*
X76126686Y-126137490D01*
X76231995Y-126391727D01*
X76384880Y-126620535D01*
X76579465Y-126815120D01*
X76808273Y-126968005D01*
X77062510Y-127073314D01*
X77332408Y-127127000D01*
X77607592Y-127127000D01*
X77877490Y-127073314D01*
X78131727Y-126968005D01*
X78360535Y-126815120D01*
X78555120Y-126620535D01*
X78708005Y-126391727D01*
X78813314Y-126137490D01*
X78867000Y-125867592D01*
X78867000Y-125592408D01*
X86233000Y-125592408D01*
X86233000Y-125867592D01*
X86286686Y-126137490D01*
X86391995Y-126391727D01*
X86544880Y-126620535D01*
X86739465Y-126815120D01*
X86968273Y-126968005D01*
X87222510Y-127073314D01*
X87492408Y-127127000D01*
X87767592Y-127127000D01*
X88037490Y-127073314D01*
X88291727Y-126968005D01*
X88520535Y-126815120D01*
X88715120Y-126620535D01*
X88868005Y-126391727D01*
X88973314Y-126137490D01*
X89027000Y-125867592D01*
X89027000Y-125592408D01*
X88973314Y-125322510D01*
X88868005Y-125068273D01*
X88715120Y-124839465D01*
X88520535Y-124644880D01*
X88291727Y-124491995D01*
X88037490Y-124386686D01*
X87767592Y-124333000D01*
X87492408Y-124333000D01*
X87222510Y-124386686D01*
X86968273Y-124491995D01*
X86739465Y-124644880D01*
X86544880Y-124839465D01*
X86391995Y-125068273D01*
X86286686Y-125322510D01*
X86233000Y-125592408D01*
X78867000Y-125592408D01*
X78813314Y-125322510D01*
X78708005Y-125068273D01*
X78555120Y-124839465D01*
X78360535Y-124644880D01*
X78131727Y-124491995D01*
X77877490Y-124386686D01*
X77607592Y-124333000D01*
X77332408Y-124333000D01*
X77062510Y-124386686D01*
X76808273Y-124491995D01*
X76579465Y-124644880D01*
X76384880Y-124839465D01*
X76231995Y-125068273D01*
X76126686Y-125322510D01*
X76073000Y-125592408D01*
X59080000Y-125592408D01*
X59080000Y-119233740D01*
X59475000Y-119233740D01*
X59475000Y-119526260D01*
X59532068Y-119813158D01*
X59644010Y-120083411D01*
X59806525Y-120326632D01*
X60013368Y-120533475D01*
X60256589Y-120695990D01*
X60526842Y-120807932D01*
X60813740Y-120865000D01*
X61106260Y-120865000D01*
X61393158Y-120807932D01*
X61663411Y-120695990D01*
X61906632Y-120533475D01*
X62038487Y-120401620D01*
X62060498Y-120474180D01*
X62119463Y-120584494D01*
X62198815Y-120681185D01*
X62295506Y-120760537D01*
X62405820Y-120819502D01*
X62525518Y-120855812D01*
X62650000Y-120868072D01*
X64350000Y-120868072D01*
X64474482Y-120855812D01*
X64594180Y-120819502D01*
X64704494Y-120760537D01*
X64801185Y-120681185D01*
X64880537Y-120584494D01*
X64919068Y-120512408D01*
X76073000Y-120512408D01*
X76073000Y-120787592D01*
X76126686Y-121057490D01*
X76231995Y-121311727D01*
X76384880Y-121540535D01*
X76579465Y-121735120D01*
X76808273Y-121888005D01*
X77062510Y-121993314D01*
X77332408Y-122047000D01*
X77607592Y-122047000D01*
X77877490Y-121993314D01*
X78131727Y-121888005D01*
X78360535Y-121735120D01*
X78555120Y-121540535D01*
X78708005Y-121311727D01*
X78813314Y-121057490D01*
X78867000Y-120787592D01*
X78867000Y-120512408D01*
X86233000Y-120512408D01*
X86233000Y-120787592D01*
X86286686Y-121057490D01*
X86391995Y-121311727D01*
X86544880Y-121540535D01*
X86739465Y-121735120D01*
X86968273Y-121888005D01*
X87222510Y-121993314D01*
X87492408Y-122047000D01*
X87767592Y-122047000D01*
X88037490Y-121993314D01*
X88291727Y-121888005D01*
X88520535Y-121735120D01*
X88715120Y-121540535D01*
X88868005Y-121311727D01*
X88973314Y-121057490D01*
X89027000Y-120787592D01*
X89027000Y-120512408D01*
X88973314Y-120242510D01*
X88868005Y-119988273D01*
X88715120Y-119759465D01*
X88520535Y-119564880D01*
X88291727Y-119411995D01*
X88037490Y-119306686D01*
X87767592Y-119253000D01*
X87492408Y-119253000D01*
X87222510Y-119306686D01*
X86968273Y-119411995D01*
X86739465Y-119564880D01*
X86544880Y-119759465D01*
X86391995Y-119988273D01*
X86286686Y-120242510D01*
X86233000Y-120512408D01*
X78867000Y-120512408D01*
X78813314Y-120242510D01*
X78708005Y-119988273D01*
X78555120Y-119759465D01*
X78360535Y-119564880D01*
X78131727Y-119411995D01*
X77877490Y-119306686D01*
X77607592Y-119253000D01*
X77332408Y-119253000D01*
X77062510Y-119306686D01*
X76808273Y-119411995D01*
X76579465Y-119564880D01*
X76384880Y-119759465D01*
X76231995Y-119988273D01*
X76126686Y-120242510D01*
X76073000Y-120512408D01*
X64919068Y-120512408D01*
X64939502Y-120474180D01*
X64975812Y-120354482D01*
X64988072Y-120230000D01*
X64988072Y-118530000D01*
X64975812Y-118405518D01*
X64939502Y-118285820D01*
X64880537Y-118175506D01*
X64801185Y-118078815D01*
X64704494Y-117999463D01*
X64594180Y-117940498D01*
X64513534Y-117916034D01*
X64597588Y-117840269D01*
X64771641Y-117606920D01*
X64896825Y-117344099D01*
X64941476Y-117196890D01*
X64820155Y-116967000D01*
X63627000Y-116967000D01*
X63627000Y-116987000D01*
X63373000Y-116987000D01*
X63373000Y-116967000D01*
X61087000Y-116967000D01*
X61087000Y-116987000D01*
X60833000Y-116987000D01*
X60833000Y-116967000D01*
X59639845Y-116967000D01*
X59518524Y-117196890D01*
X59563175Y-117344099D01*
X59688359Y-117606920D01*
X59862412Y-117840269D01*
X60078645Y-118035178D01*
X60195534Y-118104805D01*
X60013368Y-118226525D01*
X59806525Y-118433368D01*
X59644010Y-118676589D01*
X59532068Y-118946842D01*
X59475000Y-119233740D01*
X59080000Y-119233740D01*
X59080000Y-106533740D01*
X59475000Y-106533740D01*
X59475000Y-106826260D01*
X59532068Y-107113158D01*
X59644010Y-107383411D01*
X59806525Y-107626632D01*
X60013368Y-107833475D01*
X60187760Y-107950000D01*
X60013368Y-108066525D01*
X59806525Y-108273368D01*
X59644010Y-108516589D01*
X59532068Y-108786842D01*
X59475000Y-109073740D01*
X59475000Y-109366260D01*
X59532068Y-109653158D01*
X59644010Y-109923411D01*
X59806525Y-110166632D01*
X60013368Y-110373475D01*
X60187760Y-110490000D01*
X60013368Y-110606525D01*
X59806525Y-110813368D01*
X59644010Y-111056589D01*
X59532068Y-111326842D01*
X59475000Y-111613740D01*
X59475000Y-111906260D01*
X59532068Y-112193158D01*
X59644010Y-112463411D01*
X59806525Y-112706632D01*
X60013368Y-112913475D01*
X60187760Y-113030000D01*
X60013368Y-113146525D01*
X59806525Y-113353368D01*
X59644010Y-113596589D01*
X59532068Y-113866842D01*
X59475000Y-114153740D01*
X59475000Y-114446260D01*
X59532068Y-114733158D01*
X59644010Y-115003411D01*
X59806525Y-115246632D01*
X60013368Y-115453475D01*
X60195534Y-115575195D01*
X60078645Y-115644822D01*
X59862412Y-115839731D01*
X59688359Y-116073080D01*
X59563175Y-116335901D01*
X59518524Y-116483110D01*
X59639845Y-116713000D01*
X60833000Y-116713000D01*
X60833000Y-116693000D01*
X61087000Y-116693000D01*
X61087000Y-116713000D01*
X63373000Y-116713000D01*
X63373000Y-116693000D01*
X63627000Y-116693000D01*
X63627000Y-116713000D01*
X64820155Y-116713000D01*
X64941476Y-116483110D01*
X64896825Y-116335901D01*
X64771641Y-116073080D01*
X64597588Y-115839731D01*
X64381355Y-115644822D01*
X64264466Y-115575195D01*
X64446632Y-115453475D01*
X64467699Y-115432408D01*
X76073000Y-115432408D01*
X76073000Y-115707592D01*
X76126686Y-115977490D01*
X76231995Y-116231727D01*
X76384880Y-116460535D01*
X76579465Y-116655120D01*
X76710001Y-116742341D01*
X76710000Y-117406289D01*
X76666063Y-117450226D01*
X76552795Y-117619744D01*
X76474774Y-117808102D01*
X76435000Y-118008061D01*
X76435000Y-118211939D01*
X76474774Y-118411898D01*
X76552795Y-118600256D01*
X76666063Y-118769774D01*
X76810226Y-118913937D01*
X76979744Y-119027205D01*
X77168102Y-119105226D01*
X77368061Y-119145000D01*
X77571939Y-119145000D01*
X77771898Y-119105226D01*
X77960256Y-119027205D01*
X78129774Y-118913937D01*
X78273937Y-118769774D01*
X78387205Y-118600256D01*
X78465226Y-118411898D01*
X78505000Y-118211939D01*
X78505000Y-118008061D01*
X78465226Y-117808102D01*
X78387205Y-117619744D01*
X78273937Y-117450226D01*
X78230000Y-117406289D01*
X78230000Y-116742341D01*
X78360535Y-116655120D01*
X78555120Y-116460535D01*
X78708005Y-116231727D01*
X78813314Y-115977490D01*
X78867000Y-115707592D01*
X78867000Y-115432408D01*
X86233000Y-115432408D01*
X86233000Y-115707592D01*
X86286686Y-115977490D01*
X86391995Y-116231727D01*
X86544880Y-116460535D01*
X86739465Y-116655120D01*
X86968273Y-116808005D01*
X87222510Y-116913314D01*
X87492408Y-116967000D01*
X87767592Y-116967000D01*
X88037490Y-116913314D01*
X88291727Y-116808005D01*
X88520535Y-116655120D01*
X88715120Y-116460535D01*
X88868005Y-116231727D01*
X88973314Y-115977490D01*
X89027000Y-115707592D01*
X89027000Y-115432408D01*
X88973314Y-115162510D01*
X88868005Y-114908273D01*
X88715120Y-114679465D01*
X88520535Y-114484880D01*
X88291727Y-114331995D01*
X88037490Y-114226686D01*
X87767592Y-114173000D01*
X87492408Y-114173000D01*
X87222510Y-114226686D01*
X86968273Y-114331995D01*
X86739465Y-114484880D01*
X86544880Y-114679465D01*
X86391995Y-114908273D01*
X86286686Y-115162510D01*
X86233000Y-115432408D01*
X78867000Y-115432408D01*
X78813314Y-115162510D01*
X78708005Y-114908273D01*
X78555120Y-114679465D01*
X78360535Y-114484880D01*
X78131727Y-114331995D01*
X77877490Y-114226686D01*
X77607592Y-114173000D01*
X77332408Y-114173000D01*
X77062510Y-114226686D01*
X76808273Y-114331995D01*
X76579465Y-114484880D01*
X76384880Y-114679465D01*
X76231995Y-114908273D01*
X76126686Y-115162510D01*
X76073000Y-115432408D01*
X64467699Y-115432408D01*
X64653475Y-115246632D01*
X64815990Y-115003411D01*
X64927932Y-114733158D01*
X64985000Y-114446260D01*
X64985000Y-114153740D01*
X64927932Y-113866842D01*
X64815990Y-113596589D01*
X64653475Y-113353368D01*
X64446632Y-113146525D01*
X64272240Y-113030000D01*
X64446632Y-112913475D01*
X64653475Y-112706632D01*
X64815990Y-112463411D01*
X64927932Y-112193158D01*
X64985000Y-111906260D01*
X64985000Y-111613740D01*
X64927932Y-111326842D01*
X64815990Y-111056589D01*
X64653475Y-110813368D01*
X64446632Y-110606525D01*
X64272240Y-110490000D01*
X64446632Y-110373475D01*
X64653475Y-110166632D01*
X64815990Y-109923411D01*
X64927932Y-109653158D01*
X64985000Y-109366260D01*
X64985000Y-109073740D01*
X64927932Y-108786842D01*
X64815990Y-108516589D01*
X64653475Y-108273368D01*
X64446632Y-108066525D01*
X64272240Y-107950000D01*
X64446632Y-107833475D01*
X64653475Y-107626632D01*
X64815990Y-107383411D01*
X64927932Y-107113158D01*
X64985000Y-106826260D01*
X64985000Y-106533740D01*
X64927932Y-106246842D01*
X64815990Y-105976589D01*
X64653475Y-105733368D01*
X64446632Y-105526525D01*
X64203411Y-105364010D01*
X63933158Y-105252068D01*
X63646260Y-105195000D01*
X63353740Y-105195000D01*
X63066842Y-105252068D01*
X62796589Y-105364010D01*
X62553368Y-105526525D01*
X62346525Y-105733368D01*
X62230000Y-105907760D01*
X62113475Y-105733368D01*
X61906632Y-105526525D01*
X61663411Y-105364010D01*
X61393158Y-105252068D01*
X61106260Y-105195000D01*
X60813740Y-105195000D01*
X60526842Y-105252068D01*
X60256589Y-105364010D01*
X60013368Y-105526525D01*
X59806525Y-105733368D01*
X59644010Y-105976589D01*
X59532068Y-106246842D01*
X59475000Y-106533740D01*
X59080000Y-106533740D01*
X59080000Y-96373740D01*
X59475000Y-96373740D01*
X59475000Y-96666260D01*
X59532068Y-96953158D01*
X59644010Y-97223411D01*
X59806525Y-97466632D01*
X60013368Y-97673475D01*
X60256589Y-97835990D01*
X60526842Y-97947932D01*
X60813740Y-98005000D01*
X61106260Y-98005000D01*
X61393158Y-97947932D01*
X61663411Y-97835990D01*
X61906632Y-97673475D01*
X62038487Y-97541620D01*
X62060498Y-97614180D01*
X62119463Y-97724494D01*
X62198815Y-97821185D01*
X62295506Y-97900537D01*
X62405820Y-97959502D01*
X62525518Y-97995812D01*
X62650000Y-98008072D01*
X64350000Y-98008072D01*
X64474482Y-97995812D01*
X64594180Y-97959502D01*
X64704494Y-97900537D01*
X64801185Y-97821185D01*
X64880537Y-97724494D01*
X64939502Y-97614180D01*
X64975812Y-97494482D01*
X64988072Y-97370000D01*
X64988072Y-95670000D01*
X145831928Y-95670000D01*
X145831928Y-97370000D01*
X145844188Y-97494482D01*
X145880498Y-97614180D01*
X145939463Y-97724494D01*
X146018815Y-97821185D01*
X146115506Y-97900537D01*
X146225820Y-97959502D01*
X146345518Y-97995812D01*
X146470000Y-98008072D01*
X148170000Y-98008072D01*
X148294482Y-97995812D01*
X148414180Y-97959502D01*
X148524494Y-97900537D01*
X148621185Y-97821185D01*
X148700537Y-97724494D01*
X148759502Y-97614180D01*
X148781513Y-97541620D01*
X148913368Y-97673475D01*
X149156589Y-97835990D01*
X149426842Y-97947932D01*
X149713740Y-98005000D01*
X150006260Y-98005000D01*
X150293158Y-97947932D01*
X150563411Y-97835990D01*
X150806632Y-97673475D01*
X151013475Y-97466632D01*
X151175990Y-97223411D01*
X151287932Y-96953158D01*
X151345000Y-96666260D01*
X151345000Y-96373740D01*
X151287932Y-96086842D01*
X151175990Y-95816589D01*
X151013475Y-95573368D01*
X150806632Y-95366525D01*
X150624466Y-95244805D01*
X150741355Y-95175178D01*
X150957588Y-94980269D01*
X151131641Y-94746920D01*
X151256825Y-94484099D01*
X151301476Y-94336890D01*
X151180155Y-94107000D01*
X149987000Y-94107000D01*
X149987000Y-94127000D01*
X149733000Y-94127000D01*
X149733000Y-94107000D01*
X147447000Y-94107000D01*
X147447000Y-94127000D01*
X147193000Y-94127000D01*
X147193000Y-94107000D01*
X145999845Y-94107000D01*
X145878524Y-94336890D01*
X145923175Y-94484099D01*
X146048359Y-94746920D01*
X146222412Y-94980269D01*
X146306466Y-95056034D01*
X146225820Y-95080498D01*
X146115506Y-95139463D01*
X146018815Y-95218815D01*
X145939463Y-95315506D01*
X145880498Y-95425820D01*
X145844188Y-95545518D01*
X145831928Y-95670000D01*
X64988072Y-95670000D01*
X64975812Y-95545518D01*
X64939502Y-95425820D01*
X64880537Y-95315506D01*
X64801185Y-95218815D01*
X64704494Y-95139463D01*
X64594180Y-95080498D01*
X64513534Y-95056034D01*
X64597588Y-94980269D01*
X64771641Y-94746920D01*
X64896825Y-94484099D01*
X64941476Y-94336890D01*
X64820155Y-94107000D01*
X63627000Y-94107000D01*
X63627000Y-94127000D01*
X63373000Y-94127000D01*
X63373000Y-94107000D01*
X61087000Y-94107000D01*
X61087000Y-94127000D01*
X60833000Y-94127000D01*
X60833000Y-94107000D01*
X59639845Y-94107000D01*
X59518524Y-94336890D01*
X59563175Y-94484099D01*
X59688359Y-94746920D01*
X59862412Y-94980269D01*
X60078645Y-95175178D01*
X60195534Y-95244805D01*
X60013368Y-95366525D01*
X59806525Y-95573368D01*
X59644010Y-95816589D01*
X59532068Y-96086842D01*
X59475000Y-96373740D01*
X59080000Y-96373740D01*
X59080000Y-83673740D01*
X59475000Y-83673740D01*
X59475000Y-83966260D01*
X59532068Y-84253158D01*
X59644010Y-84523411D01*
X59806525Y-84766632D01*
X60013368Y-84973475D01*
X60187760Y-85090000D01*
X60013368Y-85206525D01*
X59806525Y-85413368D01*
X59644010Y-85656589D01*
X59532068Y-85926842D01*
X59475000Y-86213740D01*
X59475000Y-86506260D01*
X59532068Y-86793158D01*
X59644010Y-87063411D01*
X59806525Y-87306632D01*
X60013368Y-87513475D01*
X60187760Y-87630000D01*
X60013368Y-87746525D01*
X59806525Y-87953368D01*
X59644010Y-88196589D01*
X59532068Y-88466842D01*
X59475000Y-88753740D01*
X59475000Y-89046260D01*
X59532068Y-89333158D01*
X59644010Y-89603411D01*
X59806525Y-89846632D01*
X60013368Y-90053475D01*
X60187760Y-90170000D01*
X60013368Y-90286525D01*
X59806525Y-90493368D01*
X59644010Y-90736589D01*
X59532068Y-91006842D01*
X59475000Y-91293740D01*
X59475000Y-91586260D01*
X59532068Y-91873158D01*
X59644010Y-92143411D01*
X59806525Y-92386632D01*
X60013368Y-92593475D01*
X60195534Y-92715195D01*
X60078645Y-92784822D01*
X59862412Y-92979731D01*
X59688359Y-93213080D01*
X59563175Y-93475901D01*
X59518524Y-93623110D01*
X59639845Y-93853000D01*
X60833000Y-93853000D01*
X60833000Y-93833000D01*
X61087000Y-93833000D01*
X61087000Y-93853000D01*
X63373000Y-93853000D01*
X63373000Y-93833000D01*
X63627000Y-93833000D01*
X63627000Y-93853000D01*
X64820155Y-93853000D01*
X64941476Y-93623110D01*
X64896825Y-93475901D01*
X64771641Y-93213080D01*
X64597588Y-92979731D01*
X64381355Y-92784822D01*
X64264466Y-92715195D01*
X64446632Y-92593475D01*
X64653475Y-92386632D01*
X64815990Y-92143411D01*
X64927932Y-91873158D01*
X64985000Y-91586260D01*
X64985000Y-91293740D01*
X64927932Y-91006842D01*
X64815990Y-90736589D01*
X64653475Y-90493368D01*
X64446632Y-90286525D01*
X64272240Y-90170000D01*
X64446632Y-90053475D01*
X64653475Y-89846632D01*
X64815990Y-89603411D01*
X64927932Y-89333158D01*
X64985000Y-89046260D01*
X64985000Y-88753740D01*
X64927932Y-88466842D01*
X64815990Y-88196589D01*
X64653475Y-87953368D01*
X64446632Y-87746525D01*
X64272240Y-87630000D01*
X64446632Y-87513475D01*
X64653475Y-87306632D01*
X64815990Y-87063411D01*
X64927932Y-86793158D01*
X64985000Y-86506260D01*
X64985000Y-86213740D01*
X64927932Y-85926842D01*
X64815990Y-85656589D01*
X64653475Y-85413368D01*
X64446632Y-85206525D01*
X64272240Y-85090000D01*
X64446632Y-84973475D01*
X64653475Y-84766632D01*
X64815990Y-84523411D01*
X64927932Y-84253158D01*
X64985000Y-83966260D01*
X64985000Y-83673740D01*
X145835000Y-83673740D01*
X145835000Y-83966260D01*
X145892068Y-84253158D01*
X146004010Y-84523411D01*
X146166525Y-84766632D01*
X146373368Y-84973475D01*
X146547760Y-85090000D01*
X146373368Y-85206525D01*
X146166525Y-85413368D01*
X146004010Y-85656589D01*
X145892068Y-85926842D01*
X145835000Y-86213740D01*
X145835000Y-86506260D01*
X145892068Y-86793158D01*
X146004010Y-87063411D01*
X146166525Y-87306632D01*
X146373368Y-87513475D01*
X146547760Y-87630000D01*
X146373368Y-87746525D01*
X146166525Y-87953368D01*
X146004010Y-88196589D01*
X145892068Y-88466842D01*
X145835000Y-88753740D01*
X145835000Y-89046260D01*
X145892068Y-89333158D01*
X146004010Y-89603411D01*
X146166525Y-89846632D01*
X146373368Y-90053475D01*
X146547760Y-90170000D01*
X146373368Y-90286525D01*
X146166525Y-90493368D01*
X146004010Y-90736589D01*
X145892068Y-91006842D01*
X145835000Y-91293740D01*
X145835000Y-91586260D01*
X145892068Y-91873158D01*
X146004010Y-92143411D01*
X146166525Y-92386632D01*
X146373368Y-92593475D01*
X146555534Y-92715195D01*
X146438645Y-92784822D01*
X146222412Y-92979731D01*
X146048359Y-93213080D01*
X145923175Y-93475901D01*
X145878524Y-93623110D01*
X145999845Y-93853000D01*
X147193000Y-93853000D01*
X147193000Y-93833000D01*
X147447000Y-93833000D01*
X147447000Y-93853000D01*
X149733000Y-93853000D01*
X149733000Y-93833000D01*
X149987000Y-93833000D01*
X149987000Y-93853000D01*
X151180155Y-93853000D01*
X151301476Y-93623110D01*
X151256825Y-93475901D01*
X151131641Y-93213080D01*
X150957588Y-92979731D01*
X150741355Y-92784822D01*
X150624466Y-92715195D01*
X150806632Y-92593475D01*
X151013475Y-92386632D01*
X151175990Y-92143411D01*
X151287932Y-91873158D01*
X151345000Y-91586260D01*
X151345000Y-91293740D01*
X151287932Y-91006842D01*
X151175990Y-90736589D01*
X151013475Y-90493368D01*
X150806632Y-90286525D01*
X150632240Y-90170000D01*
X150806632Y-90053475D01*
X151013475Y-89846632D01*
X151175990Y-89603411D01*
X151287932Y-89333158D01*
X151345000Y-89046260D01*
X151345000Y-88753740D01*
X151287932Y-88466842D01*
X151175990Y-88196589D01*
X151013475Y-87953368D01*
X150806632Y-87746525D01*
X150632240Y-87630000D01*
X150806632Y-87513475D01*
X151013475Y-87306632D01*
X151175990Y-87063411D01*
X151287932Y-86793158D01*
X151345000Y-86506260D01*
X151345000Y-86213740D01*
X151287932Y-85926842D01*
X151175990Y-85656589D01*
X151013475Y-85413368D01*
X150806632Y-85206525D01*
X150632240Y-85090000D01*
X150806632Y-84973475D01*
X151013475Y-84766632D01*
X151175990Y-84523411D01*
X151287932Y-84253158D01*
X151345000Y-83966260D01*
X151345000Y-83673740D01*
X151287932Y-83386842D01*
X151175990Y-83116589D01*
X151013475Y-82873368D01*
X150806632Y-82666525D01*
X150563411Y-82504010D01*
X150293158Y-82392068D01*
X150006260Y-82335000D01*
X149713740Y-82335000D01*
X149426842Y-82392068D01*
X149156589Y-82504010D01*
X148913368Y-82666525D01*
X148706525Y-82873368D01*
X148590000Y-83047760D01*
X148473475Y-82873368D01*
X148266632Y-82666525D01*
X148023411Y-82504010D01*
X147753158Y-82392068D01*
X147466260Y-82335000D01*
X147173740Y-82335000D01*
X146886842Y-82392068D01*
X146616589Y-82504010D01*
X146373368Y-82666525D01*
X146166525Y-82873368D01*
X146004010Y-83116589D01*
X145892068Y-83386842D01*
X145835000Y-83673740D01*
X64985000Y-83673740D01*
X64927932Y-83386842D01*
X64815990Y-83116589D01*
X64653475Y-82873368D01*
X64446632Y-82666525D01*
X64203411Y-82504010D01*
X63933158Y-82392068D01*
X63646260Y-82335000D01*
X63353740Y-82335000D01*
X63066842Y-82392068D01*
X62796589Y-82504010D01*
X62553368Y-82666525D01*
X62346525Y-82873368D01*
X62230000Y-83047760D01*
X62113475Y-82873368D01*
X61906632Y-82666525D01*
X61663411Y-82504010D01*
X61393158Y-82392068D01*
X61106260Y-82335000D01*
X60813740Y-82335000D01*
X60526842Y-82392068D01*
X60256589Y-82504010D01*
X60013368Y-82666525D01*
X59806525Y-82873368D01*
X59644010Y-83116589D01*
X59532068Y-83386842D01*
X59475000Y-83673740D01*
X59080000Y-83673740D01*
X59080000Y-73513740D01*
X59475000Y-73513740D01*
X59475000Y-73806260D01*
X59532068Y-74093158D01*
X59644010Y-74363411D01*
X59806525Y-74606632D01*
X60013368Y-74813475D01*
X60256589Y-74975990D01*
X60526842Y-75087932D01*
X60813740Y-75145000D01*
X61106260Y-75145000D01*
X61393158Y-75087932D01*
X61663411Y-74975990D01*
X61906632Y-74813475D01*
X62038487Y-74681620D01*
X62060498Y-74754180D01*
X62119463Y-74864494D01*
X62198815Y-74961185D01*
X62295506Y-75040537D01*
X62405820Y-75099502D01*
X62525518Y-75135812D01*
X62650000Y-75148072D01*
X64350000Y-75148072D01*
X64474482Y-75135812D01*
X64594180Y-75099502D01*
X64704494Y-75040537D01*
X64801185Y-74961185D01*
X64880537Y-74864494D01*
X64939502Y-74754180D01*
X64975812Y-74634482D01*
X64988072Y-74510000D01*
X64988072Y-72810000D01*
X145831928Y-72810000D01*
X145831928Y-74510000D01*
X145844188Y-74634482D01*
X145880498Y-74754180D01*
X145939463Y-74864494D01*
X146018815Y-74961185D01*
X146115506Y-75040537D01*
X146225820Y-75099502D01*
X146345518Y-75135812D01*
X146470000Y-75148072D01*
X148170000Y-75148072D01*
X148294482Y-75135812D01*
X148414180Y-75099502D01*
X148524494Y-75040537D01*
X148621185Y-74961185D01*
X148700537Y-74864494D01*
X148759502Y-74754180D01*
X148781513Y-74681620D01*
X148913368Y-74813475D01*
X149156589Y-74975990D01*
X149426842Y-75087932D01*
X149713740Y-75145000D01*
X150006260Y-75145000D01*
X150293158Y-75087932D01*
X150563411Y-74975990D01*
X150806632Y-74813475D01*
X151013475Y-74606632D01*
X151175990Y-74363411D01*
X151287932Y-74093158D01*
X151345000Y-73806260D01*
X151345000Y-73513740D01*
X151287932Y-73226842D01*
X151175990Y-72956589D01*
X151013475Y-72713368D01*
X150806632Y-72506525D01*
X150624466Y-72384805D01*
X150741355Y-72315178D01*
X150957588Y-72120269D01*
X151131641Y-71886920D01*
X151256825Y-71624099D01*
X151301476Y-71476890D01*
X151180155Y-71247000D01*
X149987000Y-71247000D01*
X149987000Y-71267000D01*
X149733000Y-71267000D01*
X149733000Y-71247000D01*
X147447000Y-71247000D01*
X147447000Y-71267000D01*
X147193000Y-71267000D01*
X147193000Y-71247000D01*
X145999845Y-71247000D01*
X145878524Y-71476890D01*
X145923175Y-71624099D01*
X146048359Y-71886920D01*
X146222412Y-72120269D01*
X146306466Y-72196034D01*
X146225820Y-72220498D01*
X146115506Y-72279463D01*
X146018815Y-72358815D01*
X145939463Y-72455506D01*
X145880498Y-72565820D01*
X145844188Y-72685518D01*
X145831928Y-72810000D01*
X64988072Y-72810000D01*
X64975812Y-72685518D01*
X64939502Y-72565820D01*
X64880537Y-72455506D01*
X64801185Y-72358815D01*
X64704494Y-72279463D01*
X64594180Y-72220498D01*
X64513534Y-72196034D01*
X64597588Y-72120269D01*
X64771641Y-71886920D01*
X64896825Y-71624099D01*
X64941476Y-71476890D01*
X64820155Y-71247000D01*
X63627000Y-71247000D01*
X63627000Y-71267000D01*
X63373000Y-71267000D01*
X63373000Y-71247000D01*
X61087000Y-71247000D01*
X61087000Y-71267000D01*
X60833000Y-71267000D01*
X60833000Y-71247000D01*
X59639845Y-71247000D01*
X59518524Y-71476890D01*
X59563175Y-71624099D01*
X59688359Y-71886920D01*
X59862412Y-72120269D01*
X60078645Y-72315178D01*
X60195534Y-72384805D01*
X60013368Y-72506525D01*
X59806525Y-72713368D01*
X59644010Y-72956589D01*
X59532068Y-73226842D01*
X59475000Y-73513740D01*
X59080000Y-73513740D01*
X59080000Y-60813740D01*
X59475000Y-60813740D01*
X59475000Y-61106260D01*
X59532068Y-61393158D01*
X59644010Y-61663411D01*
X59806525Y-61906632D01*
X60013368Y-62113475D01*
X60187760Y-62230000D01*
X60013368Y-62346525D01*
X59806525Y-62553368D01*
X59644010Y-62796589D01*
X59532068Y-63066842D01*
X59475000Y-63353740D01*
X59475000Y-63646260D01*
X59532068Y-63933158D01*
X59644010Y-64203411D01*
X59806525Y-64446632D01*
X60013368Y-64653475D01*
X60187760Y-64770000D01*
X60013368Y-64886525D01*
X59806525Y-65093368D01*
X59644010Y-65336589D01*
X59532068Y-65606842D01*
X59475000Y-65893740D01*
X59475000Y-66186260D01*
X59532068Y-66473158D01*
X59644010Y-66743411D01*
X59806525Y-66986632D01*
X60013368Y-67193475D01*
X60187760Y-67310000D01*
X60013368Y-67426525D01*
X59806525Y-67633368D01*
X59644010Y-67876589D01*
X59532068Y-68146842D01*
X59475000Y-68433740D01*
X59475000Y-68726260D01*
X59532068Y-69013158D01*
X59644010Y-69283411D01*
X59806525Y-69526632D01*
X60013368Y-69733475D01*
X60195534Y-69855195D01*
X60078645Y-69924822D01*
X59862412Y-70119731D01*
X59688359Y-70353080D01*
X59563175Y-70615901D01*
X59518524Y-70763110D01*
X59639845Y-70993000D01*
X60833000Y-70993000D01*
X60833000Y-70973000D01*
X61087000Y-70973000D01*
X61087000Y-70993000D01*
X63373000Y-70993000D01*
X63373000Y-70973000D01*
X63627000Y-70973000D01*
X63627000Y-70993000D01*
X64820155Y-70993000D01*
X64941476Y-70763110D01*
X64896825Y-70615901D01*
X64771641Y-70353080D01*
X64597588Y-70119731D01*
X64381355Y-69924822D01*
X64264466Y-69855195D01*
X64446632Y-69733475D01*
X64653475Y-69526632D01*
X64815990Y-69283411D01*
X64927932Y-69013158D01*
X64985000Y-68726260D01*
X64985000Y-68433740D01*
X64927932Y-68146842D01*
X64815990Y-67876589D01*
X64653475Y-67633368D01*
X64446632Y-67426525D01*
X64272240Y-67310000D01*
X64446632Y-67193475D01*
X64653475Y-66986632D01*
X64815990Y-66743411D01*
X64927932Y-66473158D01*
X64985000Y-66186260D01*
X64985000Y-65893740D01*
X64927932Y-65606842D01*
X64815990Y-65336589D01*
X64653475Y-65093368D01*
X64446632Y-64886525D01*
X64272240Y-64770000D01*
X64446632Y-64653475D01*
X64653475Y-64446632D01*
X64815990Y-64203411D01*
X64927932Y-63933158D01*
X64985000Y-63646260D01*
X64985000Y-63353740D01*
X64927932Y-63066842D01*
X64815990Y-62796589D01*
X64653475Y-62553368D01*
X64446632Y-62346525D01*
X64272240Y-62230000D01*
X64446632Y-62113475D01*
X64653475Y-61906632D01*
X64815990Y-61663411D01*
X64927932Y-61393158D01*
X64985000Y-61106260D01*
X64985000Y-60813740D01*
X145835000Y-60813740D01*
X145835000Y-61106260D01*
X145892068Y-61393158D01*
X146004010Y-61663411D01*
X146166525Y-61906632D01*
X146373368Y-62113475D01*
X146547760Y-62230000D01*
X146373368Y-62346525D01*
X146166525Y-62553368D01*
X146004010Y-62796589D01*
X145892068Y-63066842D01*
X145835000Y-63353740D01*
X145835000Y-63646260D01*
X145892068Y-63933158D01*
X146004010Y-64203411D01*
X146166525Y-64446632D01*
X146373368Y-64653475D01*
X146547760Y-64770000D01*
X146373368Y-64886525D01*
X146166525Y-65093368D01*
X146004010Y-65336589D01*
X145892068Y-65606842D01*
X145835000Y-65893740D01*
X145835000Y-66186260D01*
X145892068Y-66473158D01*
X146004010Y-66743411D01*
X146166525Y-66986632D01*
X146373368Y-67193475D01*
X146547760Y-67310000D01*
X146373368Y-67426525D01*
X146166525Y-67633368D01*
X146004010Y-67876589D01*
X145892068Y-68146842D01*
X145835000Y-68433740D01*
X145835000Y-68726260D01*
X145892068Y-69013158D01*
X146004010Y-69283411D01*
X146166525Y-69526632D01*
X146373368Y-69733475D01*
X146555534Y-69855195D01*
X146438645Y-69924822D01*
X146222412Y-70119731D01*
X146048359Y-70353080D01*
X145923175Y-70615901D01*
X145878524Y-70763110D01*
X145999845Y-70993000D01*
X147193000Y-70993000D01*
X147193000Y-70973000D01*
X147447000Y-70973000D01*
X147447000Y-70993000D01*
X149733000Y-70993000D01*
X149733000Y-70973000D01*
X149987000Y-70973000D01*
X149987000Y-70993000D01*
X151180155Y-70993000D01*
X151301476Y-70763110D01*
X151256825Y-70615901D01*
X151131641Y-70353080D01*
X150957588Y-70119731D01*
X150741355Y-69924822D01*
X150624466Y-69855195D01*
X150806632Y-69733475D01*
X151013475Y-69526632D01*
X151175990Y-69283411D01*
X151287932Y-69013158D01*
X151345000Y-68726260D01*
X151345000Y-68433740D01*
X151287932Y-68146842D01*
X151175990Y-67876589D01*
X151013475Y-67633368D01*
X150806632Y-67426525D01*
X150632240Y-67310000D01*
X150806632Y-67193475D01*
X151013475Y-66986632D01*
X151175990Y-66743411D01*
X151287932Y-66473158D01*
X151345000Y-66186260D01*
X151345000Y-65893740D01*
X151287932Y-65606842D01*
X151175990Y-65336589D01*
X151013475Y-65093368D01*
X150806632Y-64886525D01*
X150632240Y-64770000D01*
X150806632Y-64653475D01*
X151013475Y-64446632D01*
X151175990Y-64203411D01*
X151287932Y-63933158D01*
X151345000Y-63646260D01*
X151345000Y-63353740D01*
X151287932Y-63066842D01*
X151175990Y-62796589D01*
X151013475Y-62553368D01*
X150806632Y-62346525D01*
X150632240Y-62230000D01*
X150806632Y-62113475D01*
X151013475Y-61906632D01*
X151175990Y-61663411D01*
X151287932Y-61393158D01*
X151345000Y-61106260D01*
X151345000Y-60813740D01*
X151287932Y-60526842D01*
X151175990Y-60256589D01*
X151013475Y-60013368D01*
X150806632Y-59806525D01*
X150563411Y-59644010D01*
X150293158Y-59532068D01*
X150006260Y-59475000D01*
X149713740Y-59475000D01*
X149426842Y-59532068D01*
X149156589Y-59644010D01*
X148913368Y-59806525D01*
X148706525Y-60013368D01*
X148590000Y-60187760D01*
X148473475Y-60013368D01*
X148266632Y-59806525D01*
X148023411Y-59644010D01*
X147753158Y-59532068D01*
X147466260Y-59475000D01*
X147173740Y-59475000D01*
X146886842Y-59532068D01*
X146616589Y-59644010D01*
X146373368Y-59806525D01*
X146166525Y-60013368D01*
X146004010Y-60256589D01*
X145892068Y-60526842D01*
X145835000Y-60813740D01*
X64985000Y-60813740D01*
X64927932Y-60526842D01*
X64815990Y-60256589D01*
X64653475Y-60013368D01*
X64446632Y-59806525D01*
X64203411Y-59644010D01*
X63933158Y-59532068D01*
X63646260Y-59475000D01*
X63353740Y-59475000D01*
X63066842Y-59532068D01*
X62796589Y-59644010D01*
X62553368Y-59806525D01*
X62346525Y-60013368D01*
X62230000Y-60187760D01*
X62113475Y-60013368D01*
X61906632Y-59806525D01*
X61663411Y-59644010D01*
X61393158Y-59532068D01*
X61106260Y-59475000D01*
X60813740Y-59475000D01*
X60526842Y-59532068D01*
X60256589Y-59644010D01*
X60013368Y-59806525D01*
X59806525Y-60013368D01*
X59644010Y-60256589D01*
X59532068Y-60526842D01*
X59475000Y-60813740D01*
X59080000Y-60813740D01*
X59080000Y-47882285D01*
X59805000Y-47882285D01*
X59805000Y-48637715D01*
X59952377Y-49378628D01*
X60241467Y-50076554D01*
X60661161Y-50704670D01*
X61195330Y-51238839D01*
X61823446Y-51658533D01*
X62521372Y-51947623D01*
X63262285Y-52095000D01*
X64017715Y-52095000D01*
X64758628Y-51947623D01*
X65456554Y-51658533D01*
X66084670Y-51238839D01*
X66618839Y-50704670D01*
X67038533Y-50076554D01*
X67327623Y-49378628D01*
X67475000Y-48637715D01*
X67475000Y-47882285D01*
X143485000Y-47882285D01*
X143485000Y-48637715D01*
X143632377Y-49378628D01*
X143921467Y-50076554D01*
X144341161Y-50704670D01*
X144875330Y-51238839D01*
X145503446Y-51658533D01*
X146201372Y-51947623D01*
X146942285Y-52095000D01*
X147697715Y-52095000D01*
X148438628Y-51947623D01*
X149136554Y-51658533D01*
X149764670Y-51238839D01*
X150298839Y-50704670D01*
X150718533Y-50076554D01*
X151007623Y-49378628D01*
X151155000Y-48637715D01*
X151155000Y-47882285D01*
X151007623Y-47141372D01*
X150718533Y-46443446D01*
X150298839Y-45815330D01*
X149764670Y-45281161D01*
X149136554Y-44861467D01*
X148438628Y-44572377D01*
X147697715Y-44425000D01*
X146942285Y-44425000D01*
X146201372Y-44572377D01*
X145503446Y-44861467D01*
X144875330Y-45281161D01*
X144341161Y-45815330D01*
X143921467Y-46443446D01*
X143632377Y-47141372D01*
X143485000Y-47882285D01*
X67475000Y-47882285D01*
X67327623Y-47141372D01*
X67038533Y-46443446D01*
X66618839Y-45815330D01*
X66084670Y-45281161D01*
X65456554Y-44861467D01*
X64758628Y-44572377D01*
X64017715Y-44425000D01*
X63262285Y-44425000D01*
X62521372Y-44572377D01*
X61823446Y-44861467D01*
X61195330Y-45281161D01*
X60661161Y-45815330D01*
X60241467Y-46443446D01*
X59952377Y-47141372D01*
X59805000Y-47882285D01*
X59080000Y-47882285D01*
X59080000Y-43840000D01*
X151740000Y-43840000D01*
X151740001Y-136500000D01*
G37*
%TD.AperFunction*%
%TD*%
M02*
