%TF.GenerationSoftware,KiCad,Pcbnew,5.1.10*%
%TF.CreationDate,2021-12-30T18:00:27+01:00*%
%TF.ProjectId,keypad_board,6b657970-6164-45f6-926f-6172642e6b69,rev?*%
%TF.SameCoordinates,Original*%
%TF.FileFunction,Legend,Top*%
%TF.FilePolarity,Positive*%
%FSLAX46Y46*%
G04 Gerber Fmt 4.6, Leading zero omitted, Abs format (unit mm)*
G04 Created by KiCad (PCBNEW 5.1.10) date 2021-12-30 18:00:27*
%MOMM*%
%LPD*%
G01*
G04 APERTURE LIST*
%ADD10C,0.300000*%
%ADD11C,0.120000*%
%ADD12C,0.150000*%
G04 APERTURE END LIST*
D10*
X119932142Y-121318571D02*
X119932142Y-119818571D01*
X120789285Y-121318571D02*
X120146428Y-120461428D01*
X120789285Y-119818571D02*
X119932142Y-120675714D01*
X122003571Y-121247142D02*
X121860714Y-121318571D01*
X121575000Y-121318571D01*
X121432142Y-121247142D01*
X121360714Y-121104285D01*
X121360714Y-120532857D01*
X121432142Y-120390000D01*
X121575000Y-120318571D01*
X121860714Y-120318571D01*
X122003571Y-120390000D01*
X122075000Y-120532857D01*
X122075000Y-120675714D01*
X121360714Y-120818571D01*
X122575000Y-120318571D02*
X122932142Y-121318571D01*
X123289285Y-120318571D02*
X122932142Y-121318571D01*
X122789285Y-121675714D01*
X122717857Y-121747142D01*
X122575000Y-121818571D01*
X123860714Y-120318571D02*
X123860714Y-121818571D01*
X123860714Y-120390000D02*
X124003571Y-120318571D01*
X124289285Y-120318571D01*
X124432142Y-120390000D01*
X124503571Y-120461428D01*
X124575000Y-120604285D01*
X124575000Y-121032857D01*
X124503571Y-121175714D01*
X124432142Y-121247142D01*
X124289285Y-121318571D01*
X124003571Y-121318571D01*
X123860714Y-121247142D01*
X125860714Y-121318571D02*
X125860714Y-120532857D01*
X125789285Y-120390000D01*
X125646428Y-120318571D01*
X125360714Y-120318571D01*
X125217857Y-120390000D01*
X125860714Y-121247142D02*
X125717857Y-121318571D01*
X125360714Y-121318571D01*
X125217857Y-121247142D01*
X125146428Y-121104285D01*
X125146428Y-120961428D01*
X125217857Y-120818571D01*
X125360714Y-120747142D01*
X125717857Y-120747142D01*
X125860714Y-120675714D01*
X127217857Y-121318571D02*
X127217857Y-119818571D01*
X127217857Y-121247142D02*
X127075000Y-121318571D01*
X126789285Y-121318571D01*
X126646428Y-121247142D01*
X126575000Y-121175714D01*
X126503571Y-121032857D01*
X126503571Y-120604285D01*
X126575000Y-120461428D01*
X126646428Y-120390000D01*
X126789285Y-120318571D01*
X127075000Y-120318571D01*
X127217857Y-120390000D01*
X129075000Y-121318571D02*
X129075000Y-119818571D01*
X129646428Y-119818571D01*
X129789285Y-119890000D01*
X129860714Y-119961428D01*
X129932142Y-120104285D01*
X129932142Y-120318571D01*
X129860714Y-120461428D01*
X129789285Y-120532857D01*
X129646428Y-120604285D01*
X129075000Y-120604285D01*
X130575000Y-121318571D02*
X130575000Y-119818571D01*
X131075000Y-120890000D01*
X131575000Y-119818571D01*
X131575000Y-121318571D01*
X132575000Y-119818571D02*
X132860714Y-119818571D01*
X133003571Y-119890000D01*
X133146428Y-120032857D01*
X133217857Y-120318571D01*
X133217857Y-120818571D01*
X133146428Y-121104285D01*
X133003571Y-121247142D01*
X132860714Y-121318571D01*
X132575000Y-121318571D01*
X132432142Y-121247142D01*
X132289285Y-121104285D01*
X132217857Y-120818571D01*
X132217857Y-120318571D01*
X132289285Y-120032857D01*
X132432142Y-119890000D01*
X132575000Y-119818571D01*
X133860714Y-121318571D02*
X133860714Y-119818571D01*
X134217857Y-119818571D01*
X134432142Y-119890000D01*
X134575000Y-120032857D01*
X134646428Y-120175714D01*
X134717857Y-120461428D01*
X134717857Y-120675714D01*
X134646428Y-120961428D01*
X134575000Y-121104285D01*
X134432142Y-121247142D01*
X134217857Y-121318571D01*
X133860714Y-121318571D01*
X137003571Y-120532857D02*
X137217857Y-120604285D01*
X137289285Y-120675714D01*
X137360714Y-120818571D01*
X137360714Y-121032857D01*
X137289285Y-121175714D01*
X137217857Y-121247142D01*
X137075000Y-121318571D01*
X136503571Y-121318571D01*
X136503571Y-119818571D01*
X137003571Y-119818571D01*
X137146428Y-119890000D01*
X137217857Y-119961428D01*
X137289285Y-120104285D01*
X137289285Y-120247142D01*
X137217857Y-120390000D01*
X137146428Y-120461428D01*
X137003571Y-120532857D01*
X136503571Y-120532857D01*
X138217857Y-121318571D02*
X138075000Y-121247142D01*
X138003571Y-121175714D01*
X137932142Y-121032857D01*
X137932142Y-120604285D01*
X138003571Y-120461428D01*
X138075000Y-120390000D01*
X138217857Y-120318571D01*
X138432142Y-120318571D01*
X138575000Y-120390000D01*
X138646428Y-120461428D01*
X138717857Y-120604285D01*
X138717857Y-121032857D01*
X138646428Y-121175714D01*
X138575000Y-121247142D01*
X138432142Y-121318571D01*
X138217857Y-121318571D01*
X140003571Y-121318571D02*
X140003571Y-120532857D01*
X139932142Y-120390000D01*
X139789285Y-120318571D01*
X139503571Y-120318571D01*
X139360714Y-120390000D01*
X140003571Y-121247142D02*
X139860714Y-121318571D01*
X139503571Y-121318571D01*
X139360714Y-121247142D01*
X139289285Y-121104285D01*
X139289285Y-120961428D01*
X139360714Y-120818571D01*
X139503571Y-120747142D01*
X139860714Y-120747142D01*
X140003571Y-120675714D01*
X140717857Y-121318571D02*
X140717857Y-120318571D01*
X140717857Y-120604285D02*
X140789285Y-120461428D01*
X140860714Y-120390000D01*
X141003571Y-120318571D01*
X141146428Y-120318571D01*
X142289285Y-121318571D02*
X142289285Y-119818571D01*
X142289285Y-121247142D02*
X142146428Y-121318571D01*
X141860714Y-121318571D01*
X141717857Y-121247142D01*
X141646428Y-121175714D01*
X141575000Y-121032857D01*
X141575000Y-120604285D01*
X141646428Y-120461428D01*
X141717857Y-120390000D01*
X141860714Y-120318571D01*
X142146428Y-120318571D01*
X142289285Y-120390000D01*
X119717857Y-122368571D02*
X120217857Y-123868571D01*
X120717857Y-122368571D01*
X121789285Y-123797142D02*
X121646428Y-123868571D01*
X121360714Y-123868571D01*
X121217857Y-123797142D01*
X121146428Y-123654285D01*
X121146428Y-123082857D01*
X121217857Y-122940000D01*
X121360714Y-122868571D01*
X121646428Y-122868571D01*
X121789285Y-122940000D01*
X121860714Y-123082857D01*
X121860714Y-123225714D01*
X121146428Y-123368571D01*
X122503571Y-123868571D02*
X122503571Y-122868571D01*
X122503571Y-123154285D02*
X122575000Y-123011428D01*
X122646428Y-122940000D01*
X122789285Y-122868571D01*
X122932142Y-122868571D01*
X123360714Y-123797142D02*
X123503571Y-123868571D01*
X123789285Y-123868571D01*
X123932142Y-123797142D01*
X124003571Y-123654285D01*
X124003571Y-123582857D01*
X123932142Y-123440000D01*
X123789285Y-123368571D01*
X123575000Y-123368571D01*
X123432142Y-123297142D01*
X123360714Y-123154285D01*
X123360714Y-123082857D01*
X123432142Y-122940000D01*
X123575000Y-122868571D01*
X123789285Y-122868571D01*
X123932142Y-122940000D01*
X124646428Y-123868571D02*
X124646428Y-122868571D01*
X124646428Y-122368571D02*
X124575000Y-122440000D01*
X124646428Y-122511428D01*
X124717857Y-122440000D01*
X124646428Y-122368571D01*
X124646428Y-122511428D01*
X125575000Y-123868571D02*
X125432142Y-123797142D01*
X125360714Y-123725714D01*
X125289285Y-123582857D01*
X125289285Y-123154285D01*
X125360714Y-123011428D01*
X125432142Y-122940000D01*
X125575000Y-122868571D01*
X125789285Y-122868571D01*
X125932142Y-122940000D01*
X126003571Y-123011428D01*
X126075000Y-123154285D01*
X126075000Y-123582857D01*
X126003571Y-123725714D01*
X125932142Y-123797142D01*
X125789285Y-123868571D01*
X125575000Y-123868571D01*
X126717857Y-122868571D02*
X126717857Y-123868571D01*
X126717857Y-123011428D02*
X126789285Y-122940000D01*
X126932142Y-122868571D01*
X127146428Y-122868571D01*
X127289285Y-122940000D01*
X127360714Y-123082857D01*
X127360714Y-123868571D01*
X129503571Y-122368571D02*
X129646428Y-122368571D01*
X129789285Y-122440000D01*
X129860714Y-122511428D01*
X129932142Y-122654285D01*
X130003571Y-122940000D01*
X130003571Y-123297142D01*
X129932142Y-123582857D01*
X129860714Y-123725714D01*
X129789285Y-123797142D01*
X129646428Y-123868571D01*
X129503571Y-123868571D01*
X129360714Y-123797142D01*
X129289285Y-123725714D01*
X129217857Y-123582857D01*
X129146428Y-123297142D01*
X129146428Y-122940000D01*
X129217857Y-122654285D01*
X129289285Y-122511428D01*
X129360714Y-122440000D01*
X129503571Y-122368571D01*
X130646428Y-123725714D02*
X130717857Y-123797142D01*
X130646428Y-123868571D01*
X130575000Y-123797142D01*
X130646428Y-123725714D01*
X130646428Y-123868571D01*
X131432142Y-123797142D02*
X131432142Y-123868571D01*
X131360714Y-124011428D01*
X131289285Y-124082857D01*
X132860714Y-123868571D02*
X132003571Y-123868571D01*
X132432142Y-123868571D02*
X132432142Y-122368571D01*
X132289285Y-122582857D01*
X132146428Y-122725714D01*
X132003571Y-122797142D01*
X119932142Y-126418571D02*
X119932142Y-124918571D01*
X120575000Y-126418571D02*
X120575000Y-125632857D01*
X120503571Y-125490000D01*
X120360714Y-125418571D01*
X120146428Y-125418571D01*
X120003571Y-125490000D01*
X119932142Y-125561428D01*
X121075000Y-125418571D02*
X121646428Y-125418571D01*
X121289285Y-124918571D02*
X121289285Y-126204285D01*
X121360714Y-126347142D01*
X121503571Y-126418571D01*
X121646428Y-126418571D01*
X121932142Y-125418571D02*
X122503571Y-125418571D01*
X122146428Y-124918571D02*
X122146428Y-126204285D01*
X122217857Y-126347142D01*
X122360714Y-126418571D01*
X122503571Y-126418571D01*
X123003571Y-125418571D02*
X123003571Y-126918571D01*
X123003571Y-125490000D02*
X123146428Y-125418571D01*
X123432142Y-125418571D01*
X123575000Y-125490000D01*
X123646428Y-125561428D01*
X123717857Y-125704285D01*
X123717857Y-126132857D01*
X123646428Y-126275714D01*
X123575000Y-126347142D01*
X123432142Y-126418571D01*
X123146428Y-126418571D01*
X123003571Y-126347142D01*
X124289285Y-126347142D02*
X124432142Y-126418571D01*
X124717857Y-126418571D01*
X124860714Y-126347142D01*
X124932142Y-126204285D01*
X124932142Y-126132857D01*
X124860714Y-125990000D01*
X124717857Y-125918571D01*
X124503571Y-125918571D01*
X124360714Y-125847142D01*
X124289285Y-125704285D01*
X124289285Y-125632857D01*
X124360714Y-125490000D01*
X124503571Y-125418571D01*
X124717857Y-125418571D01*
X124860714Y-125490000D01*
X125575000Y-126275714D02*
X125646428Y-126347142D01*
X125575000Y-126418571D01*
X125503571Y-126347142D01*
X125575000Y-126275714D01*
X125575000Y-126418571D01*
X125575000Y-125490000D02*
X125646428Y-125561428D01*
X125575000Y-125632857D01*
X125503571Y-125561428D01*
X125575000Y-125490000D01*
X125575000Y-125632857D01*
X127360714Y-124847142D02*
X126075000Y-126775714D01*
X128932142Y-124847142D02*
X127646428Y-126775714D01*
X129289285Y-125418571D02*
X129575000Y-126418571D01*
X129860714Y-125704285D01*
X130146428Y-126418571D01*
X130432142Y-125418571D01*
X130860714Y-125418571D02*
X131146428Y-126418571D01*
X131432142Y-125704285D01*
X131717857Y-126418571D01*
X132003571Y-125418571D01*
X132432142Y-125418571D02*
X132717857Y-126418571D01*
X133003571Y-125704285D01*
X133289285Y-126418571D01*
X133575000Y-125418571D01*
X134146428Y-126275714D02*
X134217857Y-126347142D01*
X134146428Y-126418571D01*
X134075000Y-126347142D01*
X134146428Y-126275714D01*
X134146428Y-126418571D01*
X134860714Y-126418571D02*
X134860714Y-124918571D01*
X134860714Y-125490000D02*
X135003571Y-125418571D01*
X135289285Y-125418571D01*
X135432142Y-125490000D01*
X135503571Y-125561428D01*
X135575000Y-125704285D01*
X135575000Y-126132857D01*
X135503571Y-126275714D01*
X135432142Y-126347142D01*
X135289285Y-126418571D01*
X135003571Y-126418571D01*
X134860714Y-126347142D01*
X136432142Y-126418571D02*
X136289285Y-126347142D01*
X136217857Y-126204285D01*
X136217857Y-124918571D01*
X137646428Y-126418571D02*
X137646428Y-125632857D01*
X137575000Y-125490000D01*
X137432142Y-125418571D01*
X137146428Y-125418571D01*
X137003571Y-125490000D01*
X137646428Y-126347142D02*
X137503571Y-126418571D01*
X137146428Y-126418571D01*
X137003571Y-126347142D01*
X136932142Y-126204285D01*
X136932142Y-126061428D01*
X137003571Y-125918571D01*
X137146428Y-125847142D01*
X137503571Y-125847142D01*
X137646428Y-125775714D01*
X139003571Y-126418571D02*
X139003571Y-125632857D01*
X138932142Y-125490000D01*
X138789285Y-125418571D01*
X138503571Y-125418571D01*
X138360714Y-125490000D01*
X139003571Y-126347142D02*
X138860714Y-126418571D01*
X138503571Y-126418571D01*
X138360714Y-126347142D01*
X138289285Y-126204285D01*
X138289285Y-126061428D01*
X138360714Y-125918571D01*
X138503571Y-125847142D01*
X138860714Y-125847142D01*
X139003571Y-125775714D01*
X139503571Y-125418571D02*
X140075000Y-125418571D01*
X139717857Y-124918571D02*
X139717857Y-126204285D01*
X139789285Y-126347142D01*
X139932142Y-126418571D01*
X140075000Y-126418571D01*
X140503571Y-126347142D02*
X140646428Y-126418571D01*
X140932142Y-126418571D01*
X141075000Y-126347142D01*
X141146428Y-126204285D01*
X141146428Y-126132857D01*
X141075000Y-125990000D01*
X140932142Y-125918571D01*
X140717857Y-125918571D01*
X140575000Y-125847142D01*
X140503571Y-125704285D01*
X140503571Y-125632857D01*
X140575000Y-125490000D01*
X140717857Y-125418571D01*
X140932142Y-125418571D01*
X141075000Y-125490000D01*
X142432142Y-126347142D02*
X142289285Y-126418571D01*
X142003571Y-126418571D01*
X141860714Y-126347142D01*
X141789285Y-126275714D01*
X141717857Y-126132857D01*
X141717857Y-125704285D01*
X141789285Y-125561428D01*
X141860714Y-125490000D01*
X142003571Y-125418571D01*
X142289285Y-125418571D01*
X142432142Y-125490000D01*
X143075000Y-126418571D02*
X143075000Y-124918571D01*
X143717857Y-126418571D02*
X143717857Y-125632857D01*
X143646428Y-125490000D01*
X143503571Y-125418571D01*
X143289285Y-125418571D01*
X143146428Y-125490000D01*
X143075000Y-125561428D01*
X145075000Y-126418571D02*
X145075000Y-125632857D01*
X145003571Y-125490000D01*
X144860714Y-125418571D01*
X144575000Y-125418571D01*
X144432142Y-125490000D01*
X145075000Y-126347142D02*
X144932142Y-126418571D01*
X144575000Y-126418571D01*
X144432142Y-126347142D01*
X144360714Y-126204285D01*
X144360714Y-126061428D01*
X144432142Y-125918571D01*
X144575000Y-125847142D01*
X144932142Y-125847142D01*
X145075000Y-125775714D01*
X146432142Y-126418571D02*
X146432142Y-125632857D01*
X146360714Y-125490000D01*
X146217857Y-125418571D01*
X145932142Y-125418571D01*
X145789285Y-125490000D01*
X146432142Y-126347142D02*
X146289285Y-126418571D01*
X145932142Y-126418571D01*
X145789285Y-126347142D01*
X145717857Y-126204285D01*
X145717857Y-126061428D01*
X145789285Y-125918571D01*
X145932142Y-125847142D01*
X146289285Y-125847142D01*
X146432142Y-125775714D01*
X147146428Y-125418571D02*
X147146428Y-126918571D01*
X147146428Y-125490000D02*
X147289285Y-125418571D01*
X147575000Y-125418571D01*
X147717857Y-125490000D01*
X147789285Y-125561428D01*
X147860714Y-125704285D01*
X147860714Y-126132857D01*
X147789285Y-126275714D01*
X147717857Y-126347142D01*
X147575000Y-126418571D01*
X147289285Y-126418571D01*
X147146428Y-126347142D01*
X148503571Y-126275714D02*
X148575000Y-126347142D01*
X148503571Y-126418571D01*
X148432142Y-126347142D01*
X148503571Y-126275714D01*
X148503571Y-126418571D01*
X149217857Y-126418571D02*
X149217857Y-124918571D01*
X149217857Y-125490000D02*
X149360714Y-125418571D01*
X149646428Y-125418571D01*
X149789285Y-125490000D01*
X149860714Y-125561428D01*
X149932142Y-125704285D01*
X149932142Y-126132857D01*
X149860714Y-126275714D01*
X149789285Y-126347142D01*
X149646428Y-126418571D01*
X149360714Y-126418571D01*
X149217857Y-126347142D01*
X151146428Y-126347142D02*
X151003571Y-126418571D01*
X150717857Y-126418571D01*
X150575000Y-126347142D01*
X150503571Y-126204285D01*
X150503571Y-125632857D01*
X150575000Y-125490000D01*
X150717857Y-125418571D01*
X151003571Y-125418571D01*
X151146428Y-125490000D01*
X151217857Y-125632857D01*
X151217857Y-125775714D01*
X150503571Y-125918571D01*
D11*
%TO.C,JP1*%
X81850000Y-133620000D02*
X83250000Y-133620000D01*
X83950000Y-134320000D02*
X83950000Y-134920000D01*
X83250000Y-135620000D02*
X81850000Y-135620000D01*
X81150000Y-134920000D02*
X81150000Y-134320000D01*
X81150000Y-134320000D02*
G75*
G02*
X81850000Y-133620000I700000J0D01*
G01*
X81850000Y-135620000D02*
G75*
G02*
X81150000Y-134920000I0J700000D01*
G01*
X83950000Y-134920000D02*
G75*
G02*
X83250000Y-135620000I-700000J0D01*
G01*
X83250000Y-133620000D02*
G75*
G02*
X83950000Y-134320000I0J-700000D01*
G01*
%TO.C,JP4*%
X70120000Y-129670000D02*
X70120000Y-126870000D01*
X70820000Y-126220000D02*
X71420000Y-126220000D01*
X72120000Y-126870000D02*
X72120000Y-129670000D01*
X71420000Y-130320000D02*
X70820000Y-130320000D01*
X72320000Y-129470000D02*
X72620000Y-129770000D01*
X72620000Y-129770000D02*
X72620000Y-129170000D01*
X72320000Y-129470000D02*
X72620000Y-129170000D01*
X70820000Y-130320000D02*
G75*
G02*
X70120000Y-129620000I0J700000D01*
G01*
X72120000Y-129620000D02*
G75*
G02*
X71420000Y-130320000I-700000J0D01*
G01*
X71420000Y-126220000D02*
G75*
G02*
X72120000Y-126920000I0J-700000D01*
G01*
X70120000Y-126920000D02*
G75*
G02*
X70820000Y-126220000I700000J0D01*
G01*
%TO.C,JP3*%
X70120000Y-124590000D02*
X70120000Y-121790000D01*
X70820000Y-121140000D02*
X71420000Y-121140000D01*
X72120000Y-121790000D02*
X72120000Y-124590000D01*
X71420000Y-125240000D02*
X70820000Y-125240000D01*
X72320000Y-124390000D02*
X72620000Y-124690000D01*
X72620000Y-124690000D02*
X72620000Y-124090000D01*
X72320000Y-124390000D02*
X72620000Y-124090000D01*
X70820000Y-125240000D02*
G75*
G02*
X70120000Y-124540000I0J700000D01*
G01*
X72120000Y-124540000D02*
G75*
G02*
X71420000Y-125240000I-700000J0D01*
G01*
X71420000Y-121140000D02*
G75*
G02*
X72120000Y-121840000I0J-700000D01*
G01*
X70120000Y-121840000D02*
G75*
G02*
X70820000Y-121140000I700000J0D01*
G01*
%TO.C,JP2*%
X70120000Y-119510000D02*
X70120000Y-116710000D01*
X70820000Y-116060000D02*
X71420000Y-116060000D01*
X72120000Y-116710000D02*
X72120000Y-119510000D01*
X71420000Y-120160000D02*
X70820000Y-120160000D01*
X72320000Y-119310000D02*
X72620000Y-119610000D01*
X72620000Y-119610000D02*
X72620000Y-119010000D01*
X72320000Y-119310000D02*
X72620000Y-119010000D01*
X70820000Y-120160000D02*
G75*
G02*
X70120000Y-119460000I0J700000D01*
G01*
X72120000Y-119460000D02*
G75*
G02*
X71420000Y-120160000I-700000J0D01*
G01*
X71420000Y-116060000D02*
G75*
G02*
X72120000Y-116760000I0J-700000D01*
G01*
X70120000Y-116760000D02*
G75*
G02*
X70820000Y-116060000I700000J0D01*
G01*
%TO.C,R4*%
X87630000Y-130810000D02*
X85090000Y-130810000D01*
X85090000Y-130810000D02*
X85090000Y-132080000D01*
X85090000Y-132080000D02*
X80010000Y-132080000D01*
X80010000Y-132080000D02*
X80010000Y-129540000D01*
X80010000Y-129540000D02*
X85090000Y-129540000D01*
X85090000Y-129540000D02*
X85090000Y-130810000D01*
X80010000Y-130810000D02*
X77470000Y-130810000D01*
%TO.C,R3*%
X77470000Y-125730000D02*
X80010000Y-125730000D01*
X80010000Y-125730000D02*
X80010000Y-124460000D01*
X80010000Y-124460000D02*
X85090000Y-124460000D01*
X85090000Y-124460000D02*
X85090000Y-127000000D01*
X85090000Y-127000000D02*
X80010000Y-127000000D01*
X80010000Y-127000000D02*
X80010000Y-125730000D01*
X85090000Y-125730000D02*
X87630000Y-125730000D01*
%TO.C,R2*%
X77470000Y-120650000D02*
X80010000Y-120650000D01*
X80010000Y-120650000D02*
X80010000Y-119380000D01*
X80010000Y-119380000D02*
X85090000Y-119380000D01*
X85090000Y-119380000D02*
X85090000Y-121920000D01*
X85090000Y-121920000D02*
X80010000Y-121920000D01*
X80010000Y-121920000D02*
X80010000Y-120650000D01*
X85090000Y-120650000D02*
X87630000Y-120650000D01*
%TO.C,R1*%
X77470000Y-115570000D02*
X80010000Y-115570000D01*
X80010000Y-115570000D02*
X80010000Y-114300000D01*
X80010000Y-114300000D02*
X85090000Y-114300000D01*
X85090000Y-114300000D02*
X85090000Y-116840000D01*
X85090000Y-116840000D02*
X80010000Y-116840000D01*
X80010000Y-116840000D02*
X80010000Y-115570000D01*
X85090000Y-115570000D02*
X87630000Y-115570000D01*
%TO.C,U3*%
X74930000Y-106045000D02*
X135255000Y-106045000D01*
X74930000Y-105410000D02*
X74930000Y-106045000D01*
X74930000Y-106045000D02*
X74930000Y-105410000D01*
X135890000Y-106045000D02*
X135890000Y-46990000D01*
X135255000Y-106045000D02*
X135890000Y-106045000D01*
X135890000Y-106045000D02*
X135255000Y-106045000D01*
X135890000Y-46355000D02*
X135890000Y-46990000D01*
X76200000Y-46355000D02*
X135890000Y-46355000D01*
X135890000Y-46355000D02*
X135255000Y-46355000D01*
X76200000Y-44450000D02*
X75565000Y-44450000D01*
X74930000Y-46355000D02*
X76200000Y-46355000D01*
X74930000Y-47625000D02*
X74930000Y-46355000D01*
X74930000Y-46355000D02*
X74930000Y-105410000D01*
X130810000Y-110490000D02*
X130810000Y-107950000D01*
X80010000Y-110490000D02*
X130810000Y-110490000D01*
X80010000Y-107950000D02*
X80010000Y-110490000D01*
X73010000Y-108000000D02*
X137810000Y-108000000D01*
X73010000Y-44450000D02*
X137810000Y-44450000D01*
X137810000Y-44450000D02*
X137810000Y-108000000D01*
X73010000Y-108000000D02*
X73010000Y-44450000D01*
%TO.C,U1*%
X94910000Y-114230000D02*
X115910000Y-114230000D01*
X115910000Y-137230000D02*
X115910000Y-114230000D01*
X94910000Y-137230000D02*
X115910000Y-137230000D01*
X94910000Y-137230000D02*
X94910000Y-114230000D01*
%TO.C,J9*%
X159950000Y-74870000D02*
X151320000Y-74870000D01*
X159950000Y-74751905D02*
X151320000Y-74751905D01*
X159950000Y-74633810D02*
X151320000Y-74633810D01*
X159950000Y-74515715D02*
X151320000Y-74515715D01*
X159950000Y-74397620D02*
X151320000Y-74397620D01*
X159950000Y-74279525D02*
X151320000Y-74279525D01*
X159950000Y-74161430D02*
X151320000Y-74161430D01*
X159950000Y-74043335D02*
X151320000Y-74043335D01*
X159950000Y-73925240D02*
X151320000Y-73925240D01*
X159950000Y-73807145D02*
X151320000Y-73807145D01*
X159950000Y-73689050D02*
X151320000Y-73689050D01*
X159950000Y-73570955D02*
X151320000Y-73570955D01*
X159950000Y-73452860D02*
X151320000Y-73452860D01*
X159950000Y-73334765D02*
X151320000Y-73334765D01*
X159950000Y-73216670D02*
X151320000Y-73216670D01*
X159950000Y-73098575D02*
X151320000Y-73098575D01*
X159950000Y-72980480D02*
X151320000Y-72980480D01*
X159950000Y-72862385D02*
X151320000Y-72862385D01*
X159950000Y-72744290D02*
X151320000Y-72744290D01*
X159950000Y-72626195D02*
X151320000Y-72626195D01*
X159950000Y-72508100D02*
X151320000Y-72508100D01*
X151320000Y-74020000D02*
X150910000Y-74020000D01*
X148810000Y-74020000D02*
X148430000Y-74020000D01*
X151320000Y-73300000D02*
X150910000Y-73300000D01*
X148810000Y-73300000D02*
X148430000Y-73300000D01*
X151320000Y-71480000D02*
X150910000Y-71480000D01*
X148810000Y-71480000D02*
X148370000Y-71480000D01*
X151320000Y-70760000D02*
X150910000Y-70760000D01*
X148810000Y-70760000D02*
X148370000Y-70760000D01*
X151320000Y-68940000D02*
X150910000Y-68940000D01*
X148810000Y-68940000D02*
X148370000Y-68940000D01*
X151320000Y-68220000D02*
X150910000Y-68220000D01*
X148810000Y-68220000D02*
X148370000Y-68220000D01*
X151320000Y-66400000D02*
X150910000Y-66400000D01*
X148810000Y-66400000D02*
X148370000Y-66400000D01*
X151320000Y-65680000D02*
X150910000Y-65680000D01*
X148810000Y-65680000D02*
X148370000Y-65680000D01*
X151320000Y-63860000D02*
X150910000Y-63860000D01*
X148810000Y-63860000D02*
X148370000Y-63860000D01*
X151320000Y-63140000D02*
X150910000Y-63140000D01*
X148810000Y-63140000D02*
X148370000Y-63140000D01*
X151320000Y-61320000D02*
X150910000Y-61320000D01*
X148810000Y-61320000D02*
X148370000Y-61320000D01*
X151320000Y-60600000D02*
X150910000Y-60600000D01*
X148810000Y-60600000D02*
X148370000Y-60600000D01*
X159950000Y-72390000D02*
X151320000Y-72390000D01*
X159950000Y-69850000D02*
X151320000Y-69850000D01*
X159950000Y-67310000D02*
X151320000Y-67310000D01*
X159950000Y-64770000D02*
X151320000Y-64770000D01*
X159950000Y-62230000D02*
X151320000Y-62230000D01*
X159950000Y-74990000D02*
X151320000Y-74990000D01*
X151320000Y-74990000D02*
X151320000Y-59630000D01*
X159950000Y-59630000D02*
X151320000Y-59630000D01*
X159950000Y-74990000D02*
X159950000Y-59630000D01*
X146210000Y-74990000D02*
X146210000Y-73660000D01*
X147320000Y-74990000D02*
X146210000Y-74990000D01*
%TO.C,J8*%
X159950000Y-97730000D02*
X151320000Y-97730000D01*
X159950000Y-97611905D02*
X151320000Y-97611905D01*
X159950000Y-97493810D02*
X151320000Y-97493810D01*
X159950000Y-97375715D02*
X151320000Y-97375715D01*
X159950000Y-97257620D02*
X151320000Y-97257620D01*
X159950000Y-97139525D02*
X151320000Y-97139525D01*
X159950000Y-97021430D02*
X151320000Y-97021430D01*
X159950000Y-96903335D02*
X151320000Y-96903335D01*
X159950000Y-96785240D02*
X151320000Y-96785240D01*
X159950000Y-96667145D02*
X151320000Y-96667145D01*
X159950000Y-96549050D02*
X151320000Y-96549050D01*
X159950000Y-96430955D02*
X151320000Y-96430955D01*
X159950000Y-96312860D02*
X151320000Y-96312860D01*
X159950000Y-96194765D02*
X151320000Y-96194765D01*
X159950000Y-96076670D02*
X151320000Y-96076670D01*
X159950000Y-95958575D02*
X151320000Y-95958575D01*
X159950000Y-95840480D02*
X151320000Y-95840480D01*
X159950000Y-95722385D02*
X151320000Y-95722385D01*
X159950000Y-95604290D02*
X151320000Y-95604290D01*
X159950000Y-95486195D02*
X151320000Y-95486195D01*
X159950000Y-95368100D02*
X151320000Y-95368100D01*
X151320000Y-96880000D02*
X150910000Y-96880000D01*
X148810000Y-96880000D02*
X148430000Y-96880000D01*
X151320000Y-96160000D02*
X150910000Y-96160000D01*
X148810000Y-96160000D02*
X148430000Y-96160000D01*
X151320000Y-94340000D02*
X150910000Y-94340000D01*
X148810000Y-94340000D02*
X148370000Y-94340000D01*
X151320000Y-93620000D02*
X150910000Y-93620000D01*
X148810000Y-93620000D02*
X148370000Y-93620000D01*
X151320000Y-91800000D02*
X150910000Y-91800000D01*
X148810000Y-91800000D02*
X148370000Y-91800000D01*
X151320000Y-91080000D02*
X150910000Y-91080000D01*
X148810000Y-91080000D02*
X148370000Y-91080000D01*
X151320000Y-89260000D02*
X150910000Y-89260000D01*
X148810000Y-89260000D02*
X148370000Y-89260000D01*
X151320000Y-88540000D02*
X150910000Y-88540000D01*
X148810000Y-88540000D02*
X148370000Y-88540000D01*
X151320000Y-86720000D02*
X150910000Y-86720000D01*
X148810000Y-86720000D02*
X148370000Y-86720000D01*
X151320000Y-86000000D02*
X150910000Y-86000000D01*
X148810000Y-86000000D02*
X148370000Y-86000000D01*
X151320000Y-84180000D02*
X150910000Y-84180000D01*
X148810000Y-84180000D02*
X148370000Y-84180000D01*
X151320000Y-83460000D02*
X150910000Y-83460000D01*
X148810000Y-83460000D02*
X148370000Y-83460000D01*
X159950000Y-95250000D02*
X151320000Y-95250000D01*
X159950000Y-92710000D02*
X151320000Y-92710000D01*
X159950000Y-90170000D02*
X151320000Y-90170000D01*
X159950000Y-87630000D02*
X151320000Y-87630000D01*
X159950000Y-85090000D02*
X151320000Y-85090000D01*
X159950000Y-97850000D02*
X151320000Y-97850000D01*
X151320000Y-97850000D02*
X151320000Y-82490000D01*
X159950000Y-82490000D02*
X151320000Y-82490000D01*
X159950000Y-97850000D02*
X159950000Y-82490000D01*
X146210000Y-97850000D02*
X146210000Y-96520000D01*
X147320000Y-97850000D02*
X146210000Y-97850000D01*
%TO.C,J7*%
X159950000Y-120590000D02*
X151320000Y-120590000D01*
X159950000Y-120471905D02*
X151320000Y-120471905D01*
X159950000Y-120353810D02*
X151320000Y-120353810D01*
X159950000Y-120235715D02*
X151320000Y-120235715D01*
X159950000Y-120117620D02*
X151320000Y-120117620D01*
X159950000Y-119999525D02*
X151320000Y-119999525D01*
X159950000Y-119881430D02*
X151320000Y-119881430D01*
X159950000Y-119763335D02*
X151320000Y-119763335D01*
X159950000Y-119645240D02*
X151320000Y-119645240D01*
X159950000Y-119527145D02*
X151320000Y-119527145D01*
X159950000Y-119409050D02*
X151320000Y-119409050D01*
X159950000Y-119290955D02*
X151320000Y-119290955D01*
X159950000Y-119172860D02*
X151320000Y-119172860D01*
X159950000Y-119054765D02*
X151320000Y-119054765D01*
X159950000Y-118936670D02*
X151320000Y-118936670D01*
X159950000Y-118818575D02*
X151320000Y-118818575D01*
X159950000Y-118700480D02*
X151320000Y-118700480D01*
X159950000Y-118582385D02*
X151320000Y-118582385D01*
X159950000Y-118464290D02*
X151320000Y-118464290D01*
X159950000Y-118346195D02*
X151320000Y-118346195D01*
X159950000Y-118228100D02*
X151320000Y-118228100D01*
X151320000Y-119740000D02*
X150910000Y-119740000D01*
X148810000Y-119740000D02*
X148430000Y-119740000D01*
X151320000Y-119020000D02*
X150910000Y-119020000D01*
X148810000Y-119020000D02*
X148430000Y-119020000D01*
X151320000Y-117200000D02*
X150910000Y-117200000D01*
X148810000Y-117200000D02*
X148370000Y-117200000D01*
X151320000Y-116480000D02*
X150910000Y-116480000D01*
X148810000Y-116480000D02*
X148370000Y-116480000D01*
X151320000Y-114660000D02*
X150910000Y-114660000D01*
X148810000Y-114660000D02*
X148370000Y-114660000D01*
X151320000Y-113940000D02*
X150910000Y-113940000D01*
X148810000Y-113940000D02*
X148370000Y-113940000D01*
X151320000Y-112120000D02*
X150910000Y-112120000D01*
X148810000Y-112120000D02*
X148370000Y-112120000D01*
X151320000Y-111400000D02*
X150910000Y-111400000D01*
X148810000Y-111400000D02*
X148370000Y-111400000D01*
X151320000Y-109580000D02*
X150910000Y-109580000D01*
X148810000Y-109580000D02*
X148370000Y-109580000D01*
X151320000Y-108860000D02*
X150910000Y-108860000D01*
X148810000Y-108860000D02*
X148370000Y-108860000D01*
X151320000Y-107040000D02*
X150910000Y-107040000D01*
X148810000Y-107040000D02*
X148370000Y-107040000D01*
X151320000Y-106320000D02*
X150910000Y-106320000D01*
X148810000Y-106320000D02*
X148370000Y-106320000D01*
X159950000Y-118110000D02*
X151320000Y-118110000D01*
X159950000Y-115570000D02*
X151320000Y-115570000D01*
X159950000Y-113030000D02*
X151320000Y-113030000D01*
X159950000Y-110490000D02*
X151320000Y-110490000D01*
X159950000Y-107950000D02*
X151320000Y-107950000D01*
X159950000Y-120710000D02*
X151320000Y-120710000D01*
X151320000Y-120710000D02*
X151320000Y-105350000D01*
X159950000Y-105350000D02*
X151320000Y-105350000D01*
X159950000Y-120710000D02*
X159950000Y-105350000D01*
X146210000Y-120710000D02*
X146210000Y-119380000D01*
X147320000Y-120710000D02*
X146210000Y-120710000D01*
%TO.C,J3*%
X59520000Y-74990000D02*
X59520000Y-59630000D01*
X59520000Y-59630000D02*
X56860000Y-59630000D01*
X56860000Y-59630000D02*
X56860000Y-74990000D01*
X56860000Y-74990000D02*
X59520000Y-74990000D01*
X56860000Y-74040000D02*
X50860000Y-74040000D01*
X50860000Y-74040000D02*
X50860000Y-73280000D01*
X50860000Y-73280000D02*
X56860000Y-73280000D01*
X56860000Y-73980000D02*
X50860000Y-73980000D01*
X56860000Y-73860000D02*
X50860000Y-73860000D01*
X56860000Y-73740000D02*
X50860000Y-73740000D01*
X56860000Y-73620000D02*
X50860000Y-73620000D01*
X56860000Y-73500000D02*
X50860000Y-73500000D01*
X56860000Y-73380000D02*
X50860000Y-73380000D01*
X59917071Y-74040000D02*
X59520000Y-74040000D01*
X59917071Y-73280000D02*
X59520000Y-73280000D01*
X62390000Y-74040000D02*
X62002929Y-74040000D01*
X62390000Y-73280000D02*
X62002929Y-73280000D01*
X59520000Y-72390000D02*
X56860000Y-72390000D01*
X56860000Y-71500000D02*
X50860000Y-71500000D01*
X50860000Y-71500000D02*
X50860000Y-70740000D01*
X50860000Y-70740000D02*
X56860000Y-70740000D01*
X59917071Y-71500000D02*
X59520000Y-71500000D01*
X59917071Y-70740000D02*
X59520000Y-70740000D01*
X62457071Y-71500000D02*
X62002929Y-71500000D01*
X62457071Y-70740000D02*
X62002929Y-70740000D01*
X59520000Y-69850000D02*
X56860000Y-69850000D01*
X56860000Y-68960000D02*
X50860000Y-68960000D01*
X50860000Y-68960000D02*
X50860000Y-68200000D01*
X50860000Y-68200000D02*
X56860000Y-68200000D01*
X59917071Y-68960000D02*
X59520000Y-68960000D01*
X59917071Y-68200000D02*
X59520000Y-68200000D01*
X62457071Y-68960000D02*
X62002929Y-68960000D01*
X62457071Y-68200000D02*
X62002929Y-68200000D01*
X59520000Y-67310000D02*
X56860000Y-67310000D01*
X56860000Y-66420000D02*
X50860000Y-66420000D01*
X50860000Y-66420000D02*
X50860000Y-65660000D01*
X50860000Y-65660000D02*
X56860000Y-65660000D01*
X59917071Y-66420000D02*
X59520000Y-66420000D01*
X59917071Y-65660000D02*
X59520000Y-65660000D01*
X62457071Y-66420000D02*
X62002929Y-66420000D01*
X62457071Y-65660000D02*
X62002929Y-65660000D01*
X59520000Y-64770000D02*
X56860000Y-64770000D01*
X56860000Y-63880000D02*
X50860000Y-63880000D01*
X50860000Y-63880000D02*
X50860000Y-63120000D01*
X50860000Y-63120000D02*
X56860000Y-63120000D01*
X59917071Y-63880000D02*
X59520000Y-63880000D01*
X59917071Y-63120000D02*
X59520000Y-63120000D01*
X62457071Y-63880000D02*
X62002929Y-63880000D01*
X62457071Y-63120000D02*
X62002929Y-63120000D01*
X59520000Y-62230000D02*
X56860000Y-62230000D01*
X56860000Y-61340000D02*
X50860000Y-61340000D01*
X50860000Y-61340000D02*
X50860000Y-60580000D01*
X50860000Y-60580000D02*
X56860000Y-60580000D01*
X59917071Y-61340000D02*
X59520000Y-61340000D01*
X59917071Y-60580000D02*
X59520000Y-60580000D01*
X62457071Y-61340000D02*
X62002929Y-61340000D01*
X62457071Y-60580000D02*
X62002929Y-60580000D01*
X64770000Y-73660000D02*
X64770000Y-74930000D01*
X64770000Y-74930000D02*
X63500000Y-74930000D01*
%TO.C,J2*%
X59520000Y-97850000D02*
X59520000Y-82490000D01*
X59520000Y-82490000D02*
X56860000Y-82490000D01*
X56860000Y-82490000D02*
X56860000Y-97850000D01*
X56860000Y-97850000D02*
X59520000Y-97850000D01*
X56860000Y-96900000D02*
X50860000Y-96900000D01*
X50860000Y-96900000D02*
X50860000Y-96140000D01*
X50860000Y-96140000D02*
X56860000Y-96140000D01*
X56860000Y-96840000D02*
X50860000Y-96840000D01*
X56860000Y-96720000D02*
X50860000Y-96720000D01*
X56860000Y-96600000D02*
X50860000Y-96600000D01*
X56860000Y-96480000D02*
X50860000Y-96480000D01*
X56860000Y-96360000D02*
X50860000Y-96360000D01*
X56860000Y-96240000D02*
X50860000Y-96240000D01*
X59917071Y-96900000D02*
X59520000Y-96900000D01*
X59917071Y-96140000D02*
X59520000Y-96140000D01*
X62390000Y-96900000D02*
X62002929Y-96900000D01*
X62390000Y-96140000D02*
X62002929Y-96140000D01*
X59520000Y-95250000D02*
X56860000Y-95250000D01*
X56860000Y-94360000D02*
X50860000Y-94360000D01*
X50860000Y-94360000D02*
X50860000Y-93600000D01*
X50860000Y-93600000D02*
X56860000Y-93600000D01*
X59917071Y-94360000D02*
X59520000Y-94360000D01*
X59917071Y-93600000D02*
X59520000Y-93600000D01*
X62457071Y-94360000D02*
X62002929Y-94360000D01*
X62457071Y-93600000D02*
X62002929Y-93600000D01*
X59520000Y-92710000D02*
X56860000Y-92710000D01*
X56860000Y-91820000D02*
X50860000Y-91820000D01*
X50860000Y-91820000D02*
X50860000Y-91060000D01*
X50860000Y-91060000D02*
X56860000Y-91060000D01*
X59917071Y-91820000D02*
X59520000Y-91820000D01*
X59917071Y-91060000D02*
X59520000Y-91060000D01*
X62457071Y-91820000D02*
X62002929Y-91820000D01*
X62457071Y-91060000D02*
X62002929Y-91060000D01*
X59520000Y-90170000D02*
X56860000Y-90170000D01*
X56860000Y-89280000D02*
X50860000Y-89280000D01*
X50860000Y-89280000D02*
X50860000Y-88520000D01*
X50860000Y-88520000D02*
X56860000Y-88520000D01*
X59917071Y-89280000D02*
X59520000Y-89280000D01*
X59917071Y-88520000D02*
X59520000Y-88520000D01*
X62457071Y-89280000D02*
X62002929Y-89280000D01*
X62457071Y-88520000D02*
X62002929Y-88520000D01*
X59520000Y-87630000D02*
X56860000Y-87630000D01*
X56860000Y-86740000D02*
X50860000Y-86740000D01*
X50860000Y-86740000D02*
X50860000Y-85980000D01*
X50860000Y-85980000D02*
X56860000Y-85980000D01*
X59917071Y-86740000D02*
X59520000Y-86740000D01*
X59917071Y-85980000D02*
X59520000Y-85980000D01*
X62457071Y-86740000D02*
X62002929Y-86740000D01*
X62457071Y-85980000D02*
X62002929Y-85980000D01*
X59520000Y-85090000D02*
X56860000Y-85090000D01*
X56860000Y-84200000D02*
X50860000Y-84200000D01*
X50860000Y-84200000D02*
X50860000Y-83440000D01*
X50860000Y-83440000D02*
X56860000Y-83440000D01*
X59917071Y-84200000D02*
X59520000Y-84200000D01*
X59917071Y-83440000D02*
X59520000Y-83440000D01*
X62457071Y-84200000D02*
X62002929Y-84200000D01*
X62457071Y-83440000D02*
X62002929Y-83440000D01*
X64770000Y-96520000D02*
X64770000Y-97790000D01*
X64770000Y-97790000D02*
X63500000Y-97790000D01*
%TO.C,J1*%
X59520000Y-120710000D02*
X59520000Y-105350000D01*
X59520000Y-105350000D02*
X56860000Y-105350000D01*
X56860000Y-105350000D02*
X56860000Y-120710000D01*
X56860000Y-120710000D02*
X59520000Y-120710000D01*
X56860000Y-119760000D02*
X50860000Y-119760000D01*
X50860000Y-119760000D02*
X50860000Y-119000000D01*
X50860000Y-119000000D02*
X56860000Y-119000000D01*
X56860000Y-119700000D02*
X50860000Y-119700000D01*
X56860000Y-119580000D02*
X50860000Y-119580000D01*
X56860000Y-119460000D02*
X50860000Y-119460000D01*
X56860000Y-119340000D02*
X50860000Y-119340000D01*
X56860000Y-119220000D02*
X50860000Y-119220000D01*
X56860000Y-119100000D02*
X50860000Y-119100000D01*
X59917071Y-119760000D02*
X59520000Y-119760000D01*
X59917071Y-119000000D02*
X59520000Y-119000000D01*
X62390000Y-119760000D02*
X62002929Y-119760000D01*
X62390000Y-119000000D02*
X62002929Y-119000000D01*
X59520000Y-118110000D02*
X56860000Y-118110000D01*
X56860000Y-117220000D02*
X50860000Y-117220000D01*
X50860000Y-117220000D02*
X50860000Y-116460000D01*
X50860000Y-116460000D02*
X56860000Y-116460000D01*
X59917071Y-117220000D02*
X59520000Y-117220000D01*
X59917071Y-116460000D02*
X59520000Y-116460000D01*
X62457071Y-117220000D02*
X62002929Y-117220000D01*
X62457071Y-116460000D02*
X62002929Y-116460000D01*
X59520000Y-115570000D02*
X56860000Y-115570000D01*
X56860000Y-114680000D02*
X50860000Y-114680000D01*
X50860000Y-114680000D02*
X50860000Y-113920000D01*
X50860000Y-113920000D02*
X56860000Y-113920000D01*
X59917071Y-114680000D02*
X59520000Y-114680000D01*
X59917071Y-113920000D02*
X59520000Y-113920000D01*
X62457071Y-114680000D02*
X62002929Y-114680000D01*
X62457071Y-113920000D02*
X62002929Y-113920000D01*
X59520000Y-113030000D02*
X56860000Y-113030000D01*
X56860000Y-112140000D02*
X50860000Y-112140000D01*
X50860000Y-112140000D02*
X50860000Y-111380000D01*
X50860000Y-111380000D02*
X56860000Y-111380000D01*
X59917071Y-112140000D02*
X59520000Y-112140000D01*
X59917071Y-111380000D02*
X59520000Y-111380000D01*
X62457071Y-112140000D02*
X62002929Y-112140000D01*
X62457071Y-111380000D02*
X62002929Y-111380000D01*
X59520000Y-110490000D02*
X56860000Y-110490000D01*
X56860000Y-109600000D02*
X50860000Y-109600000D01*
X50860000Y-109600000D02*
X50860000Y-108840000D01*
X50860000Y-108840000D02*
X56860000Y-108840000D01*
X59917071Y-109600000D02*
X59520000Y-109600000D01*
X59917071Y-108840000D02*
X59520000Y-108840000D01*
X62457071Y-109600000D02*
X62002929Y-109600000D01*
X62457071Y-108840000D02*
X62002929Y-108840000D01*
X59520000Y-107950000D02*
X56860000Y-107950000D01*
X56860000Y-107060000D02*
X50860000Y-107060000D01*
X50860000Y-107060000D02*
X50860000Y-106300000D01*
X50860000Y-106300000D02*
X56860000Y-106300000D01*
X59917071Y-107060000D02*
X59520000Y-107060000D01*
X59917071Y-106300000D02*
X59520000Y-106300000D01*
X62457071Y-107060000D02*
X62002929Y-107060000D01*
X62457071Y-106300000D02*
X62002929Y-106300000D01*
X64770000Y-119380000D02*
X64770000Y-120650000D01*
X64770000Y-120650000D02*
X63500000Y-120650000D01*
%TO.C,JP1*%
D12*
X78502380Y-136972380D02*
X78502380Y-135972380D01*
X78978571Y-136972380D02*
X78978571Y-135972380D01*
X79550000Y-136972380D01*
X79550000Y-135972380D01*
X79883333Y-135972380D02*
X80454761Y-135972380D01*
X80169047Y-136972380D02*
X80169047Y-135972380D01*
X80550000Y-137067619D02*
X81311904Y-137067619D01*
X81550000Y-136448571D02*
X81883333Y-136448571D01*
X82026190Y-136972380D02*
X81550000Y-136972380D01*
X81550000Y-135972380D01*
X82026190Y-135972380D01*
X82454761Y-136972380D02*
X82454761Y-135972380D01*
X83026190Y-136972380D01*
X83026190Y-135972380D01*
X83454761Y-136686666D02*
X83930952Y-136686666D01*
X83359523Y-136972380D02*
X83692857Y-135972380D01*
X84026190Y-136972380D01*
X84692857Y-136448571D02*
X84835714Y-136496190D01*
X84883333Y-136543809D01*
X84930952Y-136639047D01*
X84930952Y-136781904D01*
X84883333Y-136877142D01*
X84835714Y-136924761D01*
X84740476Y-136972380D01*
X84359523Y-136972380D01*
X84359523Y-135972380D01*
X84692857Y-135972380D01*
X84788095Y-136020000D01*
X84835714Y-136067619D01*
X84883333Y-136162857D01*
X84883333Y-136258095D01*
X84835714Y-136353333D01*
X84788095Y-136400952D01*
X84692857Y-136448571D01*
X84359523Y-136448571D01*
X85835714Y-136972380D02*
X85359523Y-136972380D01*
X85359523Y-135972380D01*
X86169047Y-136448571D02*
X86502380Y-136448571D01*
X86645238Y-136972380D02*
X86169047Y-136972380D01*
X86169047Y-135972380D01*
X86645238Y-135972380D01*
%TO.C,JP4*%
X73186666Y-128984285D02*
X73186666Y-128508095D01*
X73472380Y-129079523D02*
X72472380Y-128746190D01*
X73472380Y-128412857D01*
X72567619Y-128127142D02*
X72520000Y-128079523D01*
X72472380Y-127984285D01*
X72472380Y-127746190D01*
X72520000Y-127650952D01*
X72567619Y-127603333D01*
X72662857Y-127555714D01*
X72758095Y-127555714D01*
X72900952Y-127603333D01*
X73472380Y-128174761D01*
X73472380Y-127555714D01*
%TO.C,JP3*%
X73186666Y-123904285D02*
X73186666Y-123428095D01*
X73472380Y-123999523D02*
X72472380Y-123666190D01*
X73472380Y-123332857D01*
X73472380Y-122475714D02*
X73472380Y-123047142D01*
X73472380Y-122761428D02*
X72472380Y-122761428D01*
X72615238Y-122856666D01*
X72710476Y-122951904D01*
X72758095Y-123047142D01*
%TO.C,JP2*%
X73186666Y-118824285D02*
X73186666Y-118348095D01*
X73472380Y-118919523D02*
X72472380Y-118586190D01*
X73472380Y-118252857D01*
X72472380Y-117729047D02*
X72472380Y-117633809D01*
X72520000Y-117538571D01*
X72567619Y-117490952D01*
X72662857Y-117443333D01*
X72853333Y-117395714D01*
X73091428Y-117395714D01*
X73281904Y-117443333D01*
X73377142Y-117490952D01*
X73424761Y-117538571D01*
X73472380Y-117633809D01*
X73472380Y-117729047D01*
X73424761Y-117824285D01*
X73377142Y-117871904D01*
X73281904Y-117919523D01*
X73091428Y-117967142D01*
X72853333Y-117967142D01*
X72662857Y-117919523D01*
X72567619Y-117871904D01*
X72520000Y-117824285D01*
X72472380Y-117729047D01*
%TO.C,R4*%
X82383333Y-132912380D02*
X82050000Y-132436190D01*
X81811904Y-132912380D02*
X81811904Y-131912380D01*
X82192857Y-131912380D01*
X82288095Y-131960000D01*
X82335714Y-132007619D01*
X82383333Y-132102857D01*
X82383333Y-132245714D01*
X82335714Y-132340952D01*
X82288095Y-132388571D01*
X82192857Y-132436190D01*
X81811904Y-132436190D01*
X83240476Y-132245714D02*
X83240476Y-132912380D01*
X83002380Y-131864761D02*
X82764285Y-132579047D01*
X83383333Y-132579047D01*
%TO.C,R3*%
X82383333Y-124532380D02*
X82050000Y-124056190D01*
X81811904Y-124532380D02*
X81811904Y-123532380D01*
X82192857Y-123532380D01*
X82288095Y-123580000D01*
X82335714Y-123627619D01*
X82383333Y-123722857D01*
X82383333Y-123865714D01*
X82335714Y-123960952D01*
X82288095Y-124008571D01*
X82192857Y-124056190D01*
X81811904Y-124056190D01*
X82716666Y-123532380D02*
X83335714Y-123532380D01*
X83002380Y-123913333D01*
X83145238Y-123913333D01*
X83240476Y-123960952D01*
X83288095Y-124008571D01*
X83335714Y-124103809D01*
X83335714Y-124341904D01*
X83288095Y-124437142D01*
X83240476Y-124484761D01*
X83145238Y-124532380D01*
X82859523Y-124532380D01*
X82764285Y-124484761D01*
X82716666Y-124437142D01*
%TO.C,R2*%
X82383333Y-119452380D02*
X82050000Y-118976190D01*
X81811904Y-119452380D02*
X81811904Y-118452380D01*
X82192857Y-118452380D01*
X82288095Y-118500000D01*
X82335714Y-118547619D01*
X82383333Y-118642857D01*
X82383333Y-118785714D01*
X82335714Y-118880952D01*
X82288095Y-118928571D01*
X82192857Y-118976190D01*
X81811904Y-118976190D01*
X82764285Y-118547619D02*
X82811904Y-118500000D01*
X82907142Y-118452380D01*
X83145238Y-118452380D01*
X83240476Y-118500000D01*
X83288095Y-118547619D01*
X83335714Y-118642857D01*
X83335714Y-118738095D01*
X83288095Y-118880952D01*
X82716666Y-119452380D01*
X83335714Y-119452380D01*
%TO.C,R1*%
X82383333Y-114372380D02*
X82050000Y-113896190D01*
X81811904Y-114372380D02*
X81811904Y-113372380D01*
X82192857Y-113372380D01*
X82288095Y-113420000D01*
X82335714Y-113467619D01*
X82383333Y-113562857D01*
X82383333Y-113705714D01*
X82335714Y-113800952D01*
X82288095Y-113848571D01*
X82192857Y-113896190D01*
X81811904Y-113896190D01*
X83335714Y-114372380D02*
X82764285Y-114372380D01*
X83050000Y-114372380D02*
X83050000Y-113372380D01*
X82954761Y-113515238D01*
X82859523Y-113610476D01*
X82764285Y-113658095D01*
%TO.C,U3*%
X100862380Y-76152380D02*
X100862380Y-75152380D01*
X101195714Y-75866666D01*
X101529047Y-75152380D01*
X101529047Y-76152380D01*
X102195714Y-75152380D02*
X102386190Y-75152380D01*
X102481428Y-75200000D01*
X102576666Y-75295238D01*
X102624285Y-75485714D01*
X102624285Y-75819047D01*
X102576666Y-76009523D01*
X102481428Y-76104761D01*
X102386190Y-76152380D01*
X102195714Y-76152380D01*
X102100476Y-76104761D01*
X102005238Y-76009523D01*
X101957619Y-75819047D01*
X101957619Y-75485714D01*
X102005238Y-75295238D01*
X102100476Y-75200000D01*
X102195714Y-75152380D01*
X103052857Y-76152380D02*
X103052857Y-75152380D01*
X103290952Y-75152380D01*
X103433809Y-75200000D01*
X103529047Y-75295238D01*
X103576666Y-75390476D01*
X103624285Y-75580952D01*
X103624285Y-75723809D01*
X103576666Y-75914285D01*
X103529047Y-76009523D01*
X103433809Y-76104761D01*
X103290952Y-76152380D01*
X103052857Y-76152380D01*
X103814761Y-76247619D02*
X104576666Y-76247619D01*
X104814761Y-76152380D02*
X104814761Y-75152380D01*
X105386190Y-76152380D02*
X104957619Y-75580952D01*
X105386190Y-75152380D02*
X104814761Y-75723809D01*
X105814761Y-75628571D02*
X106148095Y-75628571D01*
X106290952Y-76152380D02*
X105814761Y-76152380D01*
X105814761Y-75152380D01*
X106290952Y-75152380D01*
X106910000Y-75676190D02*
X106910000Y-76152380D01*
X106576666Y-75152380D02*
X106910000Y-75676190D01*
X107243333Y-75152380D01*
X107576666Y-76152380D02*
X107576666Y-75152380D01*
X107957619Y-75152380D01*
X108052857Y-75200000D01*
X108100476Y-75247619D01*
X108148095Y-75342857D01*
X108148095Y-75485714D01*
X108100476Y-75580952D01*
X108052857Y-75628571D01*
X107957619Y-75676190D01*
X107576666Y-75676190D01*
X108529047Y-75866666D02*
X109005238Y-75866666D01*
X108433809Y-76152380D02*
X108767142Y-75152380D01*
X109100476Y-76152380D01*
X109433809Y-76152380D02*
X109433809Y-75152380D01*
X109671904Y-75152380D01*
X109814761Y-75200000D01*
X109910000Y-75295238D01*
X109957619Y-75390476D01*
X110005238Y-75580952D01*
X110005238Y-75723809D01*
X109957619Y-75914285D01*
X109910000Y-76009523D01*
X109814761Y-76104761D01*
X109671904Y-76152380D01*
X109433809Y-76152380D01*
%TO.C,U1*%
X99957619Y-125682380D02*
X99957619Y-124682380D01*
X100290952Y-125396666D01*
X100624285Y-124682380D01*
X100624285Y-125682380D01*
X101290952Y-124682380D02*
X101481428Y-124682380D01*
X101576666Y-124730000D01*
X101671904Y-124825238D01*
X101719523Y-125015714D01*
X101719523Y-125349047D01*
X101671904Y-125539523D01*
X101576666Y-125634761D01*
X101481428Y-125682380D01*
X101290952Y-125682380D01*
X101195714Y-125634761D01*
X101100476Y-125539523D01*
X101052857Y-125349047D01*
X101052857Y-125015714D01*
X101100476Y-124825238D01*
X101195714Y-124730000D01*
X101290952Y-124682380D01*
X102148095Y-125682380D02*
X102148095Y-124682380D01*
X102386190Y-124682380D01*
X102529047Y-124730000D01*
X102624285Y-124825238D01*
X102671904Y-124920476D01*
X102719523Y-125110952D01*
X102719523Y-125253809D01*
X102671904Y-125444285D01*
X102624285Y-125539523D01*
X102529047Y-125634761D01*
X102386190Y-125682380D01*
X102148095Y-125682380D01*
X102910000Y-125777619D02*
X103671904Y-125777619D01*
X103910000Y-125682380D02*
X103910000Y-124682380D01*
X104290952Y-124682380D01*
X104386190Y-124730000D01*
X104433809Y-124777619D01*
X104481428Y-124872857D01*
X104481428Y-125015714D01*
X104433809Y-125110952D01*
X104386190Y-125158571D01*
X104290952Y-125206190D01*
X103910000Y-125206190D01*
X105481428Y-125587142D02*
X105433809Y-125634761D01*
X105290952Y-125682380D01*
X105195714Y-125682380D01*
X105052857Y-125634761D01*
X104957619Y-125539523D01*
X104910000Y-125444285D01*
X104862380Y-125253809D01*
X104862380Y-125110952D01*
X104910000Y-124920476D01*
X104957619Y-124825238D01*
X105052857Y-124730000D01*
X105195714Y-124682380D01*
X105290952Y-124682380D01*
X105433809Y-124730000D01*
X105481428Y-124777619D01*
X106243333Y-125158571D02*
X105910000Y-125158571D01*
X105910000Y-125682380D02*
X105910000Y-124682380D01*
X106386190Y-124682380D01*
X106910000Y-125110952D02*
X106814761Y-125063333D01*
X106767142Y-125015714D01*
X106719523Y-124920476D01*
X106719523Y-124872857D01*
X106767142Y-124777619D01*
X106814761Y-124730000D01*
X106910000Y-124682380D01*
X107100476Y-124682380D01*
X107195714Y-124730000D01*
X107243333Y-124777619D01*
X107290952Y-124872857D01*
X107290952Y-124920476D01*
X107243333Y-125015714D01*
X107195714Y-125063333D01*
X107100476Y-125110952D01*
X106910000Y-125110952D01*
X106814761Y-125158571D01*
X106767142Y-125206190D01*
X106719523Y-125301428D01*
X106719523Y-125491904D01*
X106767142Y-125587142D01*
X106814761Y-125634761D01*
X106910000Y-125682380D01*
X107100476Y-125682380D01*
X107195714Y-125634761D01*
X107243333Y-125587142D01*
X107290952Y-125491904D01*
X107290952Y-125301428D01*
X107243333Y-125206190D01*
X107195714Y-125158571D01*
X107100476Y-125110952D01*
X108195714Y-124682380D02*
X107719523Y-124682380D01*
X107671904Y-125158571D01*
X107719523Y-125110952D01*
X107814761Y-125063333D01*
X108052857Y-125063333D01*
X108148095Y-125110952D01*
X108195714Y-125158571D01*
X108243333Y-125253809D01*
X108243333Y-125491904D01*
X108195714Y-125587142D01*
X108148095Y-125634761D01*
X108052857Y-125682380D01*
X107814761Y-125682380D01*
X107719523Y-125634761D01*
X107671904Y-125587142D01*
X108576666Y-124682380D02*
X109243333Y-124682380D01*
X108814761Y-125682380D01*
X110052857Y-125015714D02*
X110052857Y-125682380D01*
X109814761Y-124634761D02*
X109576666Y-125349047D01*
X110195714Y-125349047D01*
X110433809Y-124682380D02*
X111005238Y-124682380D01*
X110719523Y-125682380D02*
X110719523Y-124682380D01*
X96972380Y-118848095D02*
X95972380Y-118848095D01*
X95972380Y-118467142D01*
X96020000Y-118371904D01*
X96067619Y-118324285D01*
X96162857Y-118276666D01*
X96305714Y-118276666D01*
X96400952Y-118324285D01*
X96448571Y-118371904D01*
X96496190Y-118467142D01*
X96496190Y-118848095D01*
X95972380Y-117943333D02*
X95972380Y-117276666D01*
X96972380Y-117705238D01*
X99512380Y-118848095D02*
X98512380Y-118848095D01*
X98512380Y-118467142D01*
X98560000Y-118371904D01*
X98607619Y-118324285D01*
X98702857Y-118276666D01*
X98845714Y-118276666D01*
X98940952Y-118324285D01*
X98988571Y-118371904D01*
X99036190Y-118467142D01*
X99036190Y-118848095D01*
X98512380Y-117419523D02*
X98512380Y-117610000D01*
X98560000Y-117705238D01*
X98607619Y-117752857D01*
X98750476Y-117848095D01*
X98940952Y-117895714D01*
X99321904Y-117895714D01*
X99417142Y-117848095D01*
X99464761Y-117800476D01*
X99512380Y-117705238D01*
X99512380Y-117514761D01*
X99464761Y-117419523D01*
X99417142Y-117371904D01*
X99321904Y-117324285D01*
X99083809Y-117324285D01*
X98988571Y-117371904D01*
X98940952Y-117419523D01*
X98893333Y-117514761D01*
X98893333Y-117705238D01*
X98940952Y-117800476D01*
X98988571Y-117848095D01*
X99083809Y-117895714D01*
X102052380Y-118848095D02*
X101052380Y-118848095D01*
X101052380Y-118467142D01*
X101100000Y-118371904D01*
X101147619Y-118324285D01*
X101242857Y-118276666D01*
X101385714Y-118276666D01*
X101480952Y-118324285D01*
X101528571Y-118371904D01*
X101576190Y-118467142D01*
X101576190Y-118848095D01*
X101052380Y-117371904D02*
X101052380Y-117848095D01*
X101528571Y-117895714D01*
X101480952Y-117848095D01*
X101433333Y-117752857D01*
X101433333Y-117514761D01*
X101480952Y-117419523D01*
X101528571Y-117371904D01*
X101623809Y-117324285D01*
X101861904Y-117324285D01*
X101957142Y-117371904D01*
X102004761Y-117419523D01*
X102052380Y-117514761D01*
X102052380Y-117752857D01*
X102004761Y-117848095D01*
X101957142Y-117895714D01*
X104592380Y-118848095D02*
X103592380Y-118848095D01*
X103592380Y-118467142D01*
X103640000Y-118371904D01*
X103687619Y-118324285D01*
X103782857Y-118276666D01*
X103925714Y-118276666D01*
X104020952Y-118324285D01*
X104068571Y-118371904D01*
X104116190Y-118467142D01*
X104116190Y-118848095D01*
X103925714Y-117419523D02*
X104592380Y-117419523D01*
X103544761Y-117657619D02*
X104259047Y-117895714D01*
X104259047Y-117276666D01*
X107132380Y-118848095D02*
X106132380Y-118848095D01*
X106132380Y-118467142D01*
X106180000Y-118371904D01*
X106227619Y-118324285D01*
X106322857Y-118276666D01*
X106465714Y-118276666D01*
X106560952Y-118324285D01*
X106608571Y-118371904D01*
X106656190Y-118467142D01*
X106656190Y-118848095D01*
X106132380Y-117943333D02*
X106132380Y-117324285D01*
X106513333Y-117657619D01*
X106513333Y-117514761D01*
X106560952Y-117419523D01*
X106608571Y-117371904D01*
X106703809Y-117324285D01*
X106941904Y-117324285D01*
X107037142Y-117371904D01*
X107084761Y-117419523D01*
X107132380Y-117514761D01*
X107132380Y-117800476D01*
X107084761Y-117895714D01*
X107037142Y-117943333D01*
X109672380Y-118848095D02*
X108672380Y-118848095D01*
X108672380Y-118467142D01*
X108720000Y-118371904D01*
X108767619Y-118324285D01*
X108862857Y-118276666D01*
X109005714Y-118276666D01*
X109100952Y-118324285D01*
X109148571Y-118371904D01*
X109196190Y-118467142D01*
X109196190Y-118848095D01*
X108767619Y-117895714D02*
X108720000Y-117848095D01*
X108672380Y-117752857D01*
X108672380Y-117514761D01*
X108720000Y-117419523D01*
X108767619Y-117371904D01*
X108862857Y-117324285D01*
X108958095Y-117324285D01*
X109100952Y-117371904D01*
X109672380Y-117943333D01*
X109672380Y-117324285D01*
X112212380Y-118848095D02*
X111212380Y-118848095D01*
X111212380Y-118467142D01*
X111260000Y-118371904D01*
X111307619Y-118324285D01*
X111402857Y-118276666D01*
X111545714Y-118276666D01*
X111640952Y-118324285D01*
X111688571Y-118371904D01*
X111736190Y-118467142D01*
X111736190Y-118848095D01*
X112212380Y-117324285D02*
X112212380Y-117895714D01*
X112212380Y-117610000D02*
X111212380Y-117610000D01*
X111355238Y-117705238D01*
X111450476Y-117800476D01*
X111498095Y-117895714D01*
X114752380Y-118848095D02*
X113752380Y-118848095D01*
X113752380Y-118467142D01*
X113800000Y-118371904D01*
X113847619Y-118324285D01*
X113942857Y-118276666D01*
X114085714Y-118276666D01*
X114180952Y-118324285D01*
X114228571Y-118371904D01*
X114276190Y-118467142D01*
X114276190Y-118848095D01*
X113752380Y-117657619D02*
X113752380Y-117562380D01*
X113800000Y-117467142D01*
X113847619Y-117419523D01*
X113942857Y-117371904D01*
X114133333Y-117324285D01*
X114371428Y-117324285D01*
X114561904Y-117371904D01*
X114657142Y-117419523D01*
X114704761Y-117467142D01*
X114752380Y-117562380D01*
X114752380Y-117657619D01*
X114704761Y-117752857D01*
X114657142Y-117800476D01*
X114561904Y-117848095D01*
X114371428Y-117895714D01*
X114133333Y-117895714D01*
X113942857Y-117848095D01*
X113847619Y-117800476D01*
X113800000Y-117752857D01*
X113752380Y-117657619D01*
X114752380Y-134254761D02*
X113752380Y-134254761D01*
X114752380Y-133778571D02*
X113752380Y-133778571D01*
X114752380Y-133207142D01*
X113752380Y-133207142D01*
X113752380Y-132873809D02*
X113752380Y-132302380D01*
X114752380Y-132588095D02*
X113752380Y-132588095D01*
X111926666Y-134064285D02*
X111926666Y-133588095D01*
X112212380Y-134159523D02*
X111212380Y-133826190D01*
X112212380Y-133492857D01*
X111307619Y-133207142D02*
X111260000Y-133159523D01*
X111212380Y-133064285D01*
X111212380Y-132826190D01*
X111260000Y-132730952D01*
X111307619Y-132683333D01*
X111402857Y-132635714D01*
X111498095Y-132635714D01*
X111640952Y-132683333D01*
X112212380Y-133254761D01*
X112212380Y-132635714D01*
X109386666Y-134064285D02*
X109386666Y-133588095D01*
X109672380Y-134159523D02*
X108672380Y-133826190D01*
X109672380Y-133492857D01*
X109672380Y-132635714D02*
X109672380Y-133207142D01*
X109672380Y-132921428D02*
X108672380Y-132921428D01*
X108815238Y-133016666D01*
X108910476Y-133111904D01*
X108958095Y-133207142D01*
X106846666Y-134064285D02*
X106846666Y-133588095D01*
X107132380Y-134159523D02*
X106132380Y-133826190D01*
X107132380Y-133492857D01*
X106132380Y-132969047D02*
X106132380Y-132873809D01*
X106180000Y-132778571D01*
X106227619Y-132730952D01*
X106322857Y-132683333D01*
X106513333Y-132635714D01*
X106751428Y-132635714D01*
X106941904Y-132683333D01*
X107037142Y-132730952D01*
X107084761Y-132778571D01*
X107132380Y-132873809D01*
X107132380Y-132969047D01*
X107084761Y-133064285D01*
X107037142Y-133111904D01*
X106941904Y-133159523D01*
X106751428Y-133207142D01*
X106513333Y-133207142D01*
X106322857Y-133159523D01*
X106227619Y-133111904D01*
X106180000Y-133064285D01*
X106132380Y-132969047D01*
X104544761Y-134564285D02*
X104592380Y-134421428D01*
X104592380Y-134183333D01*
X104544761Y-134088095D01*
X104497142Y-134040476D01*
X104401904Y-133992857D01*
X104306666Y-133992857D01*
X104211428Y-134040476D01*
X104163809Y-134088095D01*
X104116190Y-134183333D01*
X104068571Y-134373809D01*
X104020952Y-134469047D01*
X103973333Y-134516666D01*
X103878095Y-134564285D01*
X103782857Y-134564285D01*
X103687619Y-134516666D01*
X103640000Y-134469047D01*
X103592380Y-134373809D01*
X103592380Y-134135714D01*
X103640000Y-133992857D01*
X104592380Y-133564285D02*
X103592380Y-133564285D01*
X103592380Y-133326190D01*
X103640000Y-133183333D01*
X103735238Y-133088095D01*
X103830476Y-133040476D01*
X104020952Y-132992857D01*
X104163809Y-132992857D01*
X104354285Y-133040476D01*
X104449523Y-133088095D01*
X104544761Y-133183333D01*
X104592380Y-133326190D01*
X104592380Y-133564285D01*
X104306666Y-132611904D02*
X104306666Y-132135714D01*
X104592380Y-132707142D02*
X103592380Y-132373809D01*
X104592380Y-132040476D01*
X102004761Y-134540476D02*
X102052380Y-134397619D01*
X102052380Y-134159523D01*
X102004761Y-134064285D01*
X101957142Y-134016666D01*
X101861904Y-133969047D01*
X101766666Y-133969047D01*
X101671428Y-134016666D01*
X101623809Y-134064285D01*
X101576190Y-134159523D01*
X101528571Y-134350000D01*
X101480952Y-134445238D01*
X101433333Y-134492857D01*
X101338095Y-134540476D01*
X101242857Y-134540476D01*
X101147619Y-134492857D01*
X101100000Y-134445238D01*
X101052380Y-134350000D01*
X101052380Y-134111904D01*
X101100000Y-133969047D01*
X101957142Y-132969047D02*
X102004761Y-133016666D01*
X102052380Y-133159523D01*
X102052380Y-133254761D01*
X102004761Y-133397619D01*
X101909523Y-133492857D01*
X101814285Y-133540476D01*
X101623809Y-133588095D01*
X101480952Y-133588095D01*
X101290476Y-133540476D01*
X101195238Y-133492857D01*
X101100000Y-133397619D01*
X101052380Y-133254761D01*
X101052380Y-133159523D01*
X101100000Y-133016666D01*
X101147619Y-132969047D01*
X102052380Y-132064285D02*
X102052380Y-132540476D01*
X101052380Y-132540476D01*
X98560000Y-134111904D02*
X98512380Y-134207142D01*
X98512380Y-134350000D01*
X98560000Y-134492857D01*
X98655238Y-134588095D01*
X98750476Y-134635714D01*
X98940952Y-134683333D01*
X99083809Y-134683333D01*
X99274285Y-134635714D01*
X99369523Y-134588095D01*
X99464761Y-134492857D01*
X99512380Y-134350000D01*
X99512380Y-134254761D01*
X99464761Y-134111904D01*
X99417142Y-134064285D01*
X99083809Y-134064285D01*
X99083809Y-134254761D01*
X99512380Y-133635714D02*
X98512380Y-133635714D01*
X99512380Y-133064285D01*
X98512380Y-133064285D01*
X99512380Y-132588095D02*
X98512380Y-132588095D01*
X98512380Y-132350000D01*
X98560000Y-132207142D01*
X98655238Y-132111904D01*
X98750476Y-132064285D01*
X98940952Y-132016666D01*
X99083809Y-132016666D01*
X99274285Y-132064285D01*
X99369523Y-132111904D01*
X99464761Y-132207142D01*
X99512380Y-132350000D01*
X99512380Y-132588095D01*
X95972380Y-134683333D02*
X96972380Y-134350000D01*
X95972380Y-134016666D01*
X96877142Y-133111904D02*
X96924761Y-133159523D01*
X96972380Y-133302380D01*
X96972380Y-133397619D01*
X96924761Y-133540476D01*
X96829523Y-133635714D01*
X96734285Y-133683333D01*
X96543809Y-133730952D01*
X96400952Y-133730952D01*
X96210476Y-133683333D01*
X96115238Y-133635714D01*
X96020000Y-133540476D01*
X95972380Y-133397619D01*
X95972380Y-133302380D01*
X96020000Y-133159523D01*
X96067619Y-133111904D01*
X96877142Y-132111904D02*
X96924761Y-132159523D01*
X96972380Y-132302380D01*
X96972380Y-132397619D01*
X96924761Y-132540476D01*
X96829523Y-132635714D01*
X96734285Y-132683333D01*
X96543809Y-132730952D01*
X96400952Y-132730952D01*
X96210476Y-132683333D01*
X96115238Y-132635714D01*
X96020000Y-132540476D01*
X95972380Y-132397619D01*
X95972380Y-132302380D01*
X96020000Y-132159523D01*
X96067619Y-132111904D01*
%TO.C,H4*%
X146558095Y-128332380D02*
X146558095Y-127332380D01*
X146558095Y-127808571D02*
X147129523Y-127808571D01*
X147129523Y-128332380D02*
X147129523Y-127332380D01*
X148034285Y-127665714D02*
X148034285Y-128332380D01*
X147796190Y-127284761D02*
X147558095Y-127999047D01*
X148177142Y-127999047D01*
%TO.C,H3*%
X146558095Y-44512380D02*
X146558095Y-43512380D01*
X146558095Y-43988571D02*
X147129523Y-43988571D01*
X147129523Y-44512380D02*
X147129523Y-43512380D01*
X147510476Y-43512380D02*
X148129523Y-43512380D01*
X147796190Y-43893333D01*
X147939047Y-43893333D01*
X148034285Y-43940952D01*
X148081904Y-43988571D01*
X148129523Y-44083809D01*
X148129523Y-44321904D01*
X148081904Y-44417142D01*
X148034285Y-44464761D01*
X147939047Y-44512380D01*
X147653333Y-44512380D01*
X147558095Y-44464761D01*
X147510476Y-44417142D01*
%TO.C,H2*%
X62878095Y-128332380D02*
X62878095Y-127332380D01*
X62878095Y-127808571D02*
X63449523Y-127808571D01*
X63449523Y-128332380D02*
X63449523Y-127332380D01*
X63878095Y-127427619D02*
X63925714Y-127380000D01*
X64020952Y-127332380D01*
X64259047Y-127332380D01*
X64354285Y-127380000D01*
X64401904Y-127427619D01*
X64449523Y-127522857D01*
X64449523Y-127618095D01*
X64401904Y-127760952D01*
X63830476Y-128332380D01*
X64449523Y-128332380D01*
%TO.C,H1*%
X62878095Y-44512380D02*
X62878095Y-43512380D01*
X62878095Y-43988571D02*
X63449523Y-43988571D01*
X63449523Y-44512380D02*
X63449523Y-43512380D01*
X64449523Y-44512380D02*
X63878095Y-44512380D01*
X64163809Y-44512380D02*
X64163809Y-43512380D01*
X64068571Y-43655238D01*
X63973333Y-43750476D01*
X63878095Y-43798095D01*
%TO.C,J9*%
X152636666Y-75882380D02*
X152636666Y-76596666D01*
X152589047Y-76739523D01*
X152493809Y-76834761D01*
X152350952Y-76882380D01*
X152255714Y-76882380D01*
X153160476Y-76882380D02*
X153350952Y-76882380D01*
X153446190Y-76834761D01*
X153493809Y-76787142D01*
X153589047Y-76644285D01*
X153636666Y-76453809D01*
X153636666Y-76072857D01*
X153589047Y-75977619D01*
X153541428Y-75930000D01*
X153446190Y-75882380D01*
X153255714Y-75882380D01*
X153160476Y-75930000D01*
X153112857Y-75977619D01*
X153065238Y-76072857D01*
X153065238Y-76310952D01*
X153112857Y-76406190D01*
X153160476Y-76453809D01*
X153255714Y-76501428D01*
X153446190Y-76501428D01*
X153541428Y-76453809D01*
X153589047Y-76406190D01*
X153636666Y-76310952D01*
%TO.C,J8*%
X152636666Y-98742380D02*
X152636666Y-99456666D01*
X152589047Y-99599523D01*
X152493809Y-99694761D01*
X152350952Y-99742380D01*
X152255714Y-99742380D01*
X153255714Y-99170952D02*
X153160476Y-99123333D01*
X153112857Y-99075714D01*
X153065238Y-98980476D01*
X153065238Y-98932857D01*
X153112857Y-98837619D01*
X153160476Y-98790000D01*
X153255714Y-98742380D01*
X153446190Y-98742380D01*
X153541428Y-98790000D01*
X153589047Y-98837619D01*
X153636666Y-98932857D01*
X153636666Y-98980476D01*
X153589047Y-99075714D01*
X153541428Y-99123333D01*
X153446190Y-99170952D01*
X153255714Y-99170952D01*
X153160476Y-99218571D01*
X153112857Y-99266190D01*
X153065238Y-99361428D01*
X153065238Y-99551904D01*
X153112857Y-99647142D01*
X153160476Y-99694761D01*
X153255714Y-99742380D01*
X153446190Y-99742380D01*
X153541428Y-99694761D01*
X153589047Y-99647142D01*
X153636666Y-99551904D01*
X153636666Y-99361428D01*
X153589047Y-99266190D01*
X153541428Y-99218571D01*
X153446190Y-99170952D01*
%TO.C,J7*%
X152636666Y-121602380D02*
X152636666Y-122316666D01*
X152589047Y-122459523D01*
X152493809Y-122554761D01*
X152350952Y-122602380D01*
X152255714Y-122602380D01*
X153017619Y-121602380D02*
X153684285Y-121602380D01*
X153255714Y-122602380D01*
%TO.C,J3*%
X57511666Y-75382380D02*
X57511666Y-76096666D01*
X57464047Y-76239523D01*
X57368809Y-76334761D01*
X57225952Y-76382380D01*
X57130714Y-76382380D01*
X57892619Y-75382380D02*
X58511666Y-75382380D01*
X58178333Y-75763333D01*
X58321190Y-75763333D01*
X58416428Y-75810952D01*
X58464047Y-75858571D01*
X58511666Y-75953809D01*
X58511666Y-76191904D01*
X58464047Y-76287142D01*
X58416428Y-76334761D01*
X58321190Y-76382380D01*
X58035476Y-76382380D01*
X57940238Y-76334761D01*
X57892619Y-76287142D01*
%TO.C,J2*%
X57511666Y-98242380D02*
X57511666Y-98956666D01*
X57464047Y-99099523D01*
X57368809Y-99194761D01*
X57225952Y-99242380D01*
X57130714Y-99242380D01*
X57940238Y-98337619D02*
X57987857Y-98290000D01*
X58083095Y-98242380D01*
X58321190Y-98242380D01*
X58416428Y-98290000D01*
X58464047Y-98337619D01*
X58511666Y-98432857D01*
X58511666Y-98528095D01*
X58464047Y-98670952D01*
X57892619Y-99242380D01*
X58511666Y-99242380D01*
%TO.C,J1*%
X57511666Y-121102380D02*
X57511666Y-121816666D01*
X57464047Y-121959523D01*
X57368809Y-122054761D01*
X57225952Y-122102380D01*
X57130714Y-122102380D01*
X58511666Y-122102380D02*
X57940238Y-122102380D01*
X58225952Y-122102380D02*
X58225952Y-121102380D01*
X58130714Y-121245238D01*
X58035476Y-121340476D01*
X57940238Y-121388095D01*
%TD*%
M02*
