M48
; DRILL file {KiCad (6.0.5)} date vr 08 jul 2022 15:37:04 CEST
; FORMAT={-:-/ absolute / inch / decimal}
; #@! TF.CreationDate,2022-07-08T15:37:04+02:00
; #@! TF.GenerationSoftware,Kicad,Pcbnew,(6.0.5)
; #@! TF.FileFunction,Plated,1,2,PTH
FMAT,2
INCH
; #@! TA.AperFunction,Plated,PTH,ViaDrill
T1C0.0157
; #@! TA.AperFunction,Plated,PTH,ComponentDrill
T2C0.0197
; #@! TA.AperFunction,Plated,PTH,ComponentDrill
T3C0.0300
; #@! TA.AperFunction,Plated,PTH,ComponentDrill
T4C0.0315
; #@! TA.AperFunction,Plated,PTH,ComponentDrill
T5C0.0394
; #@! TA.AperFunction,Plated,PTH,ComponentDrill
T6C0.1260
%
G90
G05
T1
X2.7488Y-4.3
X2.8Y-4.55
X2.8472Y-4.1528
X2.9528Y-4.2528
X3.0Y-3.25
X3.05Y-4.55
X3.1Y-4.5
X3.15Y-4.5
X3.199Y-4.399
X3.25Y-2.25
X3.3Y-4.4
X3.35Y-2.25
X3.4Y-3.2
X3.55Y-2.25
X3.6Y-4.2
X3.75Y-4.5
X3.8Y-4.4
X3.851Y-4.399
X3.9Y-4.5
X4.299Y-4.399
X4.4Y-4.5
X4.45Y-3.8
X4.551Y-4.399
X4.5785Y-3.25
X4.6Y-4.95
X4.65Y-3.8
X4.65Y-4.5
X4.75Y-4.6
X4.85Y-3.2
T2
X2.3555Y-1.9
X2.3555Y-5.2
X2.3832Y-1.8332
X2.3832Y-1.9668
X2.3832Y-5.1332
X2.3832Y-5.2668
X2.45Y-1.8055
X2.45Y-1.9945
X2.45Y-5.1055
X2.45Y-5.2945
X2.5168Y-1.8332
X2.5168Y-1.9668
X2.5168Y-5.1332
X2.5168Y-5.2668
X2.5445Y-1.9
X2.5445Y-5.2
X5.2841Y-5.199
X5.2896Y-1.899
X5.3117Y-5.1322
X5.3117Y-5.2658
X5.3172Y-1.8322
X5.3172Y-1.9658
X5.3785Y-5.1045
X5.3785Y-5.2935
X5.3841Y-1.8045
X5.3841Y-1.9935
X5.4454Y-5.1322
X5.4454Y-5.2658
X5.4509Y-1.8322
X5.4509Y-1.9658
X5.473Y-5.199
X5.4785Y-1.899
T3
X2.8Y-3.95
X2.9Y-3.95
X2.9Y-5.3
X3.0Y-3.95
X3.0Y-5.3
X3.1Y-3.95
X3.1Y-5.3
X3.2Y-3.95
X3.2Y-5.3
X3.3Y-2.1
X3.3Y-3.95
X3.4Y-2.1
X3.4Y-3.95
X3.5Y-2.1
X3.5Y-3.95
X3.55Y-5.3
X3.6Y-2.1
X3.65Y-5.3
X3.7Y-3.95
X3.75Y-5.3
X3.8Y-3.95
X3.85Y-5.3
X3.9Y-3.95
X4.0Y-3.95
X4.1Y-3.95
X4.1Y-5.3
X4.2Y-5.3
X4.25Y-2.1
X4.3Y-5.3
X4.35Y-2.1
X4.35Y-3.95
X4.4Y-5.3
X4.45Y-2.1
X4.45Y-3.95
X4.5Y-5.3
X4.55Y-2.1
X4.55Y-3.95
X4.6Y-5.3
X4.65Y-2.1
X4.65Y-3.95
X4.75Y-2.1
X4.75Y-3.95
T4
X4.8004Y-4.9504
X4.8004Y-5.0504
X4.8004Y-5.1504
X4.8004Y-5.2504
X5.1004Y-4.9504
X5.1004Y-5.0504
X5.1004Y-5.1504
X5.1004Y-5.2504
T5
X2.4Y-2.4
X2.4Y-2.5
X2.4Y-2.6
X2.4Y-2.7
X2.4Y-2.8
X2.4Y-2.9
X2.4Y-3.3
X2.4Y-3.4
X2.4Y-3.5
X2.4Y-3.6
X2.4Y-3.7
X2.4Y-3.8
X2.4Y-4.2
X2.4Y-4.3
X2.4Y-4.4
X2.4Y-4.5
X2.4Y-4.6
X2.4Y-4.7
X2.5Y-2.4
X2.5Y-2.5
X2.5Y-2.6
X2.5Y-2.7
X2.5Y-2.8
X2.5Y-2.9
X2.5Y-3.3
X2.5Y-3.4
X2.5Y-3.5
X2.5Y-3.6
X2.5Y-3.7
X2.5Y-3.8
X2.5Y-4.2
X2.5Y-4.3
X2.5Y-4.4
X2.5Y-4.5
X2.5Y-4.6
X2.5Y-4.7
X2.8Y-3.7
X2.8Y-3.8
X2.9Y-3.7
X2.9Y-3.8
X3.0Y-3.7
X3.0Y-3.8
X3.3006Y-3.7
X3.3006Y-3.8
X3.4006Y-3.7
X3.4006Y-3.8
X3.5006Y-3.7
X3.5006Y-3.8
X5.0785Y-2.399
X5.0785Y-2.499
X5.0785Y-2.599
X5.0785Y-2.699
X5.0785Y-2.799
X5.0785Y-2.899
X5.0785Y-3.299
X5.0785Y-3.399
X5.0785Y-3.499
X5.0785Y-3.599
X5.0785Y-3.699
X5.0785Y-3.799
X5.0785Y-4.199
X5.0785Y-4.299
X5.0785Y-4.399
X5.0785Y-4.499
X5.0785Y-4.599
X5.0785Y-4.699
X5.1785Y-2.399
X5.1785Y-2.499
X5.1785Y-2.599
X5.1785Y-2.699
X5.1785Y-2.799
X5.1785Y-2.899
X5.1785Y-3.299
X5.1785Y-3.399
X5.1785Y-3.499
X5.1785Y-3.599
X5.1785Y-3.699
X5.1785Y-3.799
X5.1785Y-4.199
X5.1785Y-4.299
X5.1785Y-4.399
X5.1785Y-4.499
X5.1785Y-4.599
X5.1785Y-4.699
T6
X2.45Y-1.9
X2.45Y-5.2
X5.3785Y-5.199
X5.3841Y-1.899
T0
M30
