%TF.GenerationSoftware,KiCad,Pcbnew,(6.0.5)*%
%TF.CreationDate,2022-07-08T15:37:02+02:00*%
%TF.ProjectId,i2c_modules,6932635f-6d6f-4647-956c-65732e6b6963,rev?*%
%TF.SameCoordinates,Original*%
%TF.FileFunction,Legend,Top*%
%TF.FilePolarity,Positive*%
%FSLAX46Y46*%
G04 Gerber Fmt 4.6, Leading zero omitted, Abs format (unit mm)*
G04 Created by KiCad (PCBNEW (6.0.5)) date 2022-07-08 15:37:02*
%MOMM*%
%LPD*%
G01*
G04 APERTURE LIST*
%ADD10C,0.120000*%
%ADD11C,0.150000*%
G04 APERTURE END LIST*
D10*
X86360000Y-53340000D02*
X86360000Y-61230000D01*
X83820000Y-53340000D02*
X83820000Y-56150000D01*
D11*
X73995595Y-47102380D02*
X73995595Y-46102380D01*
X74376547Y-46102380D01*
X74471785Y-46150000D01*
X74519404Y-46197619D01*
X74567023Y-46292857D01*
X74567023Y-46435714D01*
X74519404Y-46530952D01*
X74471785Y-46578571D01*
X74376547Y-46626190D01*
X73995595Y-46626190D01*
X74995595Y-47102380D02*
X74995595Y-46102380D01*
X75328928Y-46816666D01*
X75662261Y-46102380D01*
X75662261Y-47102380D01*
X76328928Y-46102380D02*
X76519404Y-46102380D01*
X76614642Y-46150000D01*
X76709880Y-46245238D01*
X76757500Y-46435714D01*
X76757500Y-46769047D01*
X76709880Y-46959523D01*
X76614642Y-47054761D01*
X76519404Y-47102380D01*
X76328928Y-47102380D01*
X76233690Y-47054761D01*
X76138452Y-46959523D01*
X76090833Y-46769047D01*
X76090833Y-46435714D01*
X76138452Y-46245238D01*
X76233690Y-46150000D01*
X76328928Y-46102380D01*
X77186071Y-47102380D02*
X77186071Y-46102380D01*
X77424166Y-46102380D01*
X77567023Y-46150000D01*
X77662261Y-46245238D01*
X77709880Y-46340476D01*
X77757500Y-46530952D01*
X77757500Y-46673809D01*
X77709880Y-46864285D01*
X77662261Y-46959523D01*
X77567023Y-47054761D01*
X77424166Y-47102380D01*
X77186071Y-47102380D01*
X79281309Y-46578571D02*
X79424166Y-46626190D01*
X79471785Y-46673809D01*
X79519404Y-46769047D01*
X79519404Y-46911904D01*
X79471785Y-47007142D01*
X79424166Y-47054761D01*
X79328928Y-47102380D01*
X78947976Y-47102380D01*
X78947976Y-46102380D01*
X79281309Y-46102380D01*
X79376547Y-46150000D01*
X79424166Y-46197619D01*
X79471785Y-46292857D01*
X79471785Y-46388095D01*
X79424166Y-46483333D01*
X79376547Y-46530952D01*
X79281309Y-46578571D01*
X78947976Y-46578571D01*
X80138452Y-46102380D02*
X80328928Y-46102380D01*
X80424166Y-46150000D01*
X80519404Y-46245238D01*
X80567023Y-46435714D01*
X80567023Y-46769047D01*
X80519404Y-46959523D01*
X80424166Y-47054761D01*
X80328928Y-47102380D01*
X80138452Y-47102380D01*
X80043214Y-47054761D01*
X79947976Y-46959523D01*
X79900357Y-46769047D01*
X79900357Y-46435714D01*
X79947976Y-46245238D01*
X80043214Y-46150000D01*
X80138452Y-46102380D01*
X80947976Y-46816666D02*
X81424166Y-46816666D01*
X80852738Y-47102380D02*
X81186071Y-46102380D01*
X81519404Y-47102380D01*
X82424166Y-47102380D02*
X82090833Y-46626190D01*
X81852738Y-47102380D02*
X81852738Y-46102380D01*
X82233690Y-46102380D01*
X82328928Y-46150000D01*
X82376547Y-46197619D01*
X82424166Y-46292857D01*
X82424166Y-46435714D01*
X82376547Y-46530952D01*
X82328928Y-46578571D01*
X82233690Y-46626190D01*
X81852738Y-46626190D01*
X82852738Y-47102380D02*
X82852738Y-46102380D01*
X83090833Y-46102380D01*
X83233690Y-46150000D01*
X83328928Y-46245238D01*
X83376547Y-46340476D01*
X83424166Y-46530952D01*
X83424166Y-46673809D01*
X83376547Y-46864285D01*
X83328928Y-46959523D01*
X83233690Y-47054761D01*
X83090833Y-47102380D01*
X82852738Y-47102380D01*
X84947976Y-46578571D02*
X84614642Y-46578571D01*
X84614642Y-47102380D02*
X84614642Y-46102380D01*
X85090833Y-46102380D01*
X85662261Y-46102380D02*
X85852738Y-46102380D01*
X85947976Y-46150000D01*
X86043214Y-46245238D01*
X86090833Y-46435714D01*
X86090833Y-46769047D01*
X86043214Y-46959523D01*
X85947976Y-47054761D01*
X85852738Y-47102380D01*
X85662261Y-47102380D01*
X85567023Y-47054761D01*
X85471785Y-46959523D01*
X85424166Y-46769047D01*
X85424166Y-46435714D01*
X85471785Y-46245238D01*
X85567023Y-46150000D01*
X85662261Y-46102380D01*
X87090833Y-47102380D02*
X86757500Y-46626190D01*
X86519404Y-47102380D02*
X86519404Y-46102380D01*
X86900357Y-46102380D01*
X86995595Y-46150000D01*
X87043214Y-46197619D01*
X87090833Y-46292857D01*
X87090833Y-46435714D01*
X87043214Y-46530952D01*
X86995595Y-46578571D01*
X86900357Y-46626190D01*
X86519404Y-46626190D01*
X88281309Y-47102380D02*
X88281309Y-46102380D01*
X88709880Y-45864285D02*
X88805119Y-45816666D01*
X88947976Y-45816666D01*
X89043214Y-45864285D01*
X89090833Y-45959523D01*
X89090833Y-46054761D01*
X89043214Y-46150000D01*
X88709880Y-46483333D01*
X89090833Y-46483333D01*
X90090833Y-47007142D02*
X90043214Y-47054761D01*
X89900357Y-47102380D01*
X89805119Y-47102380D01*
X89662261Y-47054761D01*
X89567023Y-46959523D01*
X89519404Y-46864285D01*
X89471785Y-46673809D01*
X89471785Y-46530952D01*
X89519404Y-46340476D01*
X89567023Y-46245238D01*
X89662261Y-46150000D01*
X89805119Y-46102380D01*
X89900357Y-46102380D01*
X90043214Y-46150000D01*
X90090833Y-46197619D01*
X91281309Y-47102380D02*
X91281309Y-46102380D01*
X91614642Y-46816666D01*
X91947976Y-46102380D01*
X91947976Y-47102380D01*
X92614642Y-46102380D02*
X92805119Y-46102380D01*
X92900357Y-46150000D01*
X92995595Y-46245238D01*
X93043214Y-46435714D01*
X93043214Y-46769047D01*
X92995595Y-46959523D01*
X92900357Y-47054761D01*
X92805119Y-47102380D01*
X92614642Y-47102380D01*
X92519404Y-47054761D01*
X92424166Y-46959523D01*
X92376547Y-46769047D01*
X92376547Y-46435714D01*
X92424166Y-46245238D01*
X92519404Y-46150000D01*
X92614642Y-46102380D01*
X93471785Y-47102380D02*
X93471785Y-46102380D01*
X93709880Y-46102380D01*
X93852738Y-46150000D01*
X93947976Y-46245238D01*
X93995595Y-46340476D01*
X94043214Y-46530952D01*
X94043214Y-46673809D01*
X93995595Y-46864285D01*
X93947976Y-46959523D01*
X93852738Y-47054761D01*
X93709880Y-47102380D01*
X93471785Y-47102380D01*
X94471785Y-46102380D02*
X94471785Y-46911904D01*
X94519404Y-47007142D01*
X94567023Y-47054761D01*
X94662261Y-47102380D01*
X94852738Y-47102380D01*
X94947976Y-47054761D01*
X94995595Y-47007142D01*
X95043214Y-46911904D01*
X95043214Y-46102380D01*
X95995595Y-47102380D02*
X95519404Y-47102380D01*
X95519404Y-46102380D01*
X96328928Y-46578571D02*
X96662261Y-46578571D01*
X96805119Y-47102380D02*
X96328928Y-47102380D01*
X96328928Y-46102380D01*
X96805119Y-46102380D01*
X97186071Y-47054761D02*
X97328928Y-47102380D01*
X97567023Y-47102380D01*
X97662261Y-47054761D01*
X97709880Y-47007142D01*
X97757500Y-46911904D01*
X97757500Y-46816666D01*
X97709880Y-46721428D01*
X97662261Y-46673809D01*
X97567023Y-46626190D01*
X97376547Y-46578571D01*
X97281309Y-46530952D01*
X97233690Y-46483333D01*
X97186071Y-46388095D01*
X97186071Y-46292857D01*
X97233690Y-46197619D01*
X97281309Y-46150000D01*
X97376547Y-46102380D01*
X97614642Y-46102380D01*
X97757500Y-46150000D01*
X73852738Y-47712380D02*
X74186071Y-48712380D01*
X74519404Y-47712380D01*
X74852738Y-48188571D02*
X75186071Y-48188571D01*
X75328928Y-48712380D02*
X74852738Y-48712380D01*
X74852738Y-47712380D01*
X75328928Y-47712380D01*
X76328928Y-48712380D02*
X75995595Y-48236190D01*
X75757500Y-48712380D02*
X75757500Y-47712380D01*
X76138452Y-47712380D01*
X76233690Y-47760000D01*
X76281309Y-47807619D01*
X76328928Y-47902857D01*
X76328928Y-48045714D01*
X76281309Y-48140952D01*
X76233690Y-48188571D01*
X76138452Y-48236190D01*
X75757500Y-48236190D01*
X76709880Y-48664761D02*
X76852738Y-48712380D01*
X77090833Y-48712380D01*
X77186071Y-48664761D01*
X77233690Y-48617142D01*
X77281309Y-48521904D01*
X77281309Y-48426666D01*
X77233690Y-48331428D01*
X77186071Y-48283809D01*
X77090833Y-48236190D01*
X76900357Y-48188571D01*
X76805119Y-48140952D01*
X76757500Y-48093333D01*
X76709880Y-47998095D01*
X76709880Y-47902857D01*
X76757500Y-47807619D01*
X76805119Y-47760000D01*
X76900357Y-47712380D01*
X77138452Y-47712380D01*
X77281309Y-47760000D01*
X77709880Y-48712380D02*
X77709880Y-47712380D01*
X78376547Y-47712380D02*
X78567023Y-47712380D01*
X78662261Y-47760000D01*
X78757500Y-47855238D01*
X78805119Y-48045714D01*
X78805119Y-48379047D01*
X78757500Y-48569523D01*
X78662261Y-48664761D01*
X78567023Y-48712380D01*
X78376547Y-48712380D01*
X78281309Y-48664761D01*
X78186071Y-48569523D01*
X78138452Y-48379047D01*
X78138452Y-48045714D01*
X78186071Y-47855238D01*
X78281309Y-47760000D01*
X78376547Y-47712380D01*
X79233690Y-48712380D02*
X79233690Y-47712380D01*
X79805119Y-48712380D01*
X79805119Y-47712380D01*
X81233690Y-47712380D02*
X81328928Y-47712380D01*
X81424166Y-47760000D01*
X81471785Y-47807619D01*
X81519404Y-47902857D01*
X81567023Y-48093333D01*
X81567023Y-48331428D01*
X81519404Y-48521904D01*
X81471785Y-48617142D01*
X81424166Y-48664761D01*
X81328928Y-48712380D01*
X81233690Y-48712380D01*
X81138452Y-48664761D01*
X81090833Y-48617142D01*
X81043214Y-48521904D01*
X80995595Y-48331428D01*
X80995595Y-48093333D01*
X81043214Y-47902857D01*
X81090833Y-47807619D01*
X81138452Y-47760000D01*
X81233690Y-47712380D01*
X81995595Y-48617142D02*
X82043214Y-48664761D01*
X81995595Y-48712380D01*
X81947976Y-48664761D01*
X81995595Y-48617142D01*
X81995595Y-48712380D01*
X82424166Y-47807619D02*
X82471785Y-47760000D01*
X82567023Y-47712380D01*
X82805119Y-47712380D01*
X82900357Y-47760000D01*
X82947976Y-47807619D01*
X82995595Y-47902857D01*
X82995595Y-47998095D01*
X82947976Y-48140952D01*
X82376547Y-48712380D01*
X82995595Y-48712380D01*
X73995595Y-50322380D02*
X73995595Y-49322380D01*
X74424166Y-50322380D02*
X74424166Y-49798571D01*
X74376547Y-49703333D01*
X74281309Y-49655714D01*
X74138452Y-49655714D01*
X74043214Y-49703333D01*
X73995595Y-49750952D01*
X74757500Y-49655714D02*
X75138452Y-49655714D01*
X74900357Y-49322380D02*
X74900357Y-50179523D01*
X74947976Y-50274761D01*
X75043214Y-50322380D01*
X75138452Y-50322380D01*
X75328928Y-49655714D02*
X75709880Y-49655714D01*
X75471785Y-49322380D02*
X75471785Y-50179523D01*
X75519404Y-50274761D01*
X75614642Y-50322380D01*
X75709880Y-50322380D01*
X76043214Y-49655714D02*
X76043214Y-50655714D01*
X76043214Y-49703333D02*
X76138452Y-49655714D01*
X76328928Y-49655714D01*
X76424166Y-49703333D01*
X76471785Y-49750952D01*
X76519404Y-49846190D01*
X76519404Y-50131904D01*
X76471785Y-50227142D01*
X76424166Y-50274761D01*
X76328928Y-50322380D01*
X76138452Y-50322380D01*
X76043214Y-50274761D01*
X76900357Y-50274761D02*
X76995595Y-50322380D01*
X77186071Y-50322380D01*
X77281309Y-50274761D01*
X77328928Y-50179523D01*
X77328928Y-50131904D01*
X77281309Y-50036666D01*
X77186071Y-49989047D01*
X77043214Y-49989047D01*
X76947976Y-49941428D01*
X76900357Y-49846190D01*
X76900357Y-49798571D01*
X76947976Y-49703333D01*
X77043214Y-49655714D01*
X77186071Y-49655714D01*
X77281309Y-49703333D01*
X77757500Y-50227142D02*
X77805119Y-50274761D01*
X77757500Y-50322380D01*
X77709880Y-50274761D01*
X77757500Y-50227142D01*
X77757500Y-50322380D01*
X77757500Y-49703333D02*
X77805119Y-49750952D01*
X77757500Y-49798571D01*
X77709880Y-49750952D01*
X77757500Y-49703333D01*
X77757500Y-49798571D01*
X78947976Y-49274761D02*
X78090833Y-50560476D01*
X79995595Y-49274761D02*
X79138452Y-50560476D01*
X80233690Y-49655714D02*
X80424166Y-50322380D01*
X80614642Y-49846190D01*
X80805119Y-50322380D01*
X80995595Y-49655714D01*
X81281309Y-49655714D02*
X81471785Y-50322380D01*
X81662261Y-49846190D01*
X81852738Y-50322380D01*
X82043214Y-49655714D01*
X82328928Y-49655714D02*
X82519404Y-50322380D01*
X82709880Y-49846190D01*
X82900357Y-50322380D01*
X83090833Y-49655714D01*
X83471785Y-50227142D02*
X83519404Y-50274761D01*
X83471785Y-50322380D01*
X83424166Y-50274761D01*
X83471785Y-50227142D01*
X83471785Y-50322380D01*
X83947976Y-50322380D02*
X83947976Y-49322380D01*
X83947976Y-49703333D02*
X84043214Y-49655714D01*
X84233690Y-49655714D01*
X84328928Y-49703333D01*
X84376547Y-49750952D01*
X84424166Y-49846190D01*
X84424166Y-50131904D01*
X84376547Y-50227142D01*
X84328928Y-50274761D01*
X84233690Y-50322380D01*
X84043214Y-50322380D01*
X83947976Y-50274761D01*
X84995595Y-50322380D02*
X84900357Y-50274761D01*
X84852738Y-50179523D01*
X84852738Y-49322380D01*
X85805119Y-50322380D02*
X85805119Y-49798571D01*
X85757500Y-49703333D01*
X85662261Y-49655714D01*
X85471785Y-49655714D01*
X85376547Y-49703333D01*
X85805119Y-50274761D02*
X85709880Y-50322380D01*
X85471785Y-50322380D01*
X85376547Y-50274761D01*
X85328928Y-50179523D01*
X85328928Y-50084285D01*
X85376547Y-49989047D01*
X85471785Y-49941428D01*
X85709880Y-49941428D01*
X85805119Y-49893809D01*
X86709880Y-50322380D02*
X86709880Y-49798571D01*
X86662261Y-49703333D01*
X86567023Y-49655714D01*
X86376547Y-49655714D01*
X86281309Y-49703333D01*
X86709880Y-50274761D02*
X86614642Y-50322380D01*
X86376547Y-50322380D01*
X86281309Y-50274761D01*
X86233690Y-50179523D01*
X86233690Y-50084285D01*
X86281309Y-49989047D01*
X86376547Y-49941428D01*
X86614642Y-49941428D01*
X86709880Y-49893809D01*
X87043214Y-49655714D02*
X87424166Y-49655714D01*
X87186071Y-49322380D02*
X87186071Y-50179523D01*
X87233690Y-50274761D01*
X87328928Y-50322380D01*
X87424166Y-50322380D01*
X87709880Y-50274761D02*
X87805119Y-50322380D01*
X87995595Y-50322380D01*
X88090833Y-50274761D01*
X88138452Y-50179523D01*
X88138452Y-50131904D01*
X88090833Y-50036666D01*
X87995595Y-49989047D01*
X87852738Y-49989047D01*
X87757500Y-49941428D01*
X87709880Y-49846190D01*
X87709880Y-49798571D01*
X87757500Y-49703333D01*
X87852738Y-49655714D01*
X87995595Y-49655714D01*
X88090833Y-49703333D01*
X88995595Y-50274761D02*
X88900357Y-50322380D01*
X88709880Y-50322380D01*
X88614642Y-50274761D01*
X88567023Y-50227142D01*
X88519404Y-50131904D01*
X88519404Y-49846190D01*
X88567023Y-49750952D01*
X88614642Y-49703333D01*
X88709880Y-49655714D01*
X88900357Y-49655714D01*
X88995595Y-49703333D01*
X89424166Y-50322380D02*
X89424166Y-49322380D01*
X89852738Y-50322380D02*
X89852738Y-49798571D01*
X89805119Y-49703333D01*
X89709880Y-49655714D01*
X89567023Y-49655714D01*
X89471785Y-49703333D01*
X89424166Y-49750952D01*
X90757500Y-50322380D02*
X90757500Y-49798571D01*
X90709880Y-49703333D01*
X90614642Y-49655714D01*
X90424166Y-49655714D01*
X90328928Y-49703333D01*
X90757500Y-50274761D02*
X90662261Y-50322380D01*
X90424166Y-50322380D01*
X90328928Y-50274761D01*
X90281309Y-50179523D01*
X90281309Y-50084285D01*
X90328928Y-49989047D01*
X90424166Y-49941428D01*
X90662261Y-49941428D01*
X90757500Y-49893809D01*
X91662261Y-50322380D02*
X91662261Y-49798571D01*
X91614642Y-49703333D01*
X91519404Y-49655714D01*
X91328928Y-49655714D01*
X91233690Y-49703333D01*
X91662261Y-50274761D02*
X91567023Y-50322380D01*
X91328928Y-50322380D01*
X91233690Y-50274761D01*
X91186071Y-50179523D01*
X91186071Y-50084285D01*
X91233690Y-49989047D01*
X91328928Y-49941428D01*
X91567023Y-49941428D01*
X91662261Y-49893809D01*
X92138452Y-49655714D02*
X92138452Y-50655714D01*
X92138452Y-49703333D02*
X92233690Y-49655714D01*
X92424166Y-49655714D01*
X92519404Y-49703333D01*
X92567023Y-49750952D01*
X92614642Y-49846190D01*
X92614642Y-50131904D01*
X92567023Y-50227142D01*
X92519404Y-50274761D01*
X92424166Y-50322380D01*
X92233690Y-50322380D01*
X92138452Y-50274761D01*
X93043214Y-50227142D02*
X93090833Y-50274761D01*
X93043214Y-50322380D01*
X92995595Y-50274761D01*
X93043214Y-50227142D01*
X93043214Y-50322380D01*
X93519404Y-50322380D02*
X93519404Y-49322380D01*
X93519404Y-49703333D02*
X93614642Y-49655714D01*
X93805119Y-49655714D01*
X93900357Y-49703333D01*
X93947976Y-49750952D01*
X93995595Y-49846190D01*
X93995595Y-50131904D01*
X93947976Y-50227142D01*
X93900357Y-50274761D01*
X93805119Y-50322380D01*
X93614642Y-50322380D01*
X93519404Y-50274761D01*
X94805119Y-50274761D02*
X94709880Y-50322380D01*
X94519404Y-50322380D01*
X94424166Y-50274761D01*
X94376547Y-50179523D01*
X94376547Y-49798571D01*
X94424166Y-49703333D01*
X94519404Y-49655714D01*
X94709880Y-49655714D01*
X94805119Y-49703333D01*
X94852738Y-49798571D01*
X94852738Y-49893809D01*
X94376547Y-49989047D01*
X88836666Y-61682380D02*
X89170000Y-62682380D01*
X89503333Y-61682380D01*
X90408095Y-62587142D02*
X90360476Y-62634761D01*
X90217619Y-62682380D01*
X90122380Y-62682380D01*
X89979523Y-62634761D01*
X89884285Y-62539523D01*
X89836666Y-62444285D01*
X89789047Y-62253809D01*
X89789047Y-62110952D01*
X89836666Y-61920476D01*
X89884285Y-61825238D01*
X89979523Y-61730000D01*
X90122380Y-61682380D01*
X90217619Y-61682380D01*
X90360476Y-61730000D01*
X90408095Y-61777619D01*
X91408095Y-62587142D02*
X91360476Y-62634761D01*
X91217619Y-62682380D01*
X91122380Y-62682380D01*
X90979523Y-62634761D01*
X90884285Y-62539523D01*
X90836666Y-62444285D01*
X90789047Y-62253809D01*
X90789047Y-62110952D01*
X90836666Y-61920476D01*
X90884285Y-61825238D01*
X90979523Y-61730000D01*
X91122380Y-61682380D01*
X91217619Y-61682380D01*
X91360476Y-61730000D01*
X91408095Y-61777619D01*
X88352380Y-91199642D02*
X88352380Y-90532976D01*
X89352380Y-90961547D01*
X88352380Y-89675833D02*
X88352380Y-90152023D01*
X88828571Y-90199642D01*
X88780952Y-90152023D01*
X88733333Y-90056785D01*
X88733333Y-89818690D01*
X88780952Y-89723452D01*
X88828571Y-89675833D01*
X88923809Y-89628214D01*
X89161904Y-89628214D01*
X89257142Y-89675833D01*
X89304761Y-89723452D01*
X89352380Y-89818690D01*
X89352380Y-90056785D01*
X89304761Y-90152023D01*
X89257142Y-90199642D01*
X88828571Y-88866309D02*
X88876190Y-88723452D01*
X88923809Y-88675833D01*
X89019047Y-88628214D01*
X89161904Y-88628214D01*
X89257142Y-88675833D01*
X89304761Y-88723452D01*
X89352380Y-88818690D01*
X89352380Y-89199642D01*
X88352380Y-89199642D01*
X88352380Y-88866309D01*
X88400000Y-88771071D01*
X88447619Y-88723452D01*
X88542857Y-88675833D01*
X88638095Y-88675833D01*
X88733333Y-88723452D01*
X88780952Y-88771071D01*
X88828571Y-88866309D01*
X88828571Y-89199642D01*
X88352380Y-87247261D02*
X88352380Y-87056785D01*
X88400000Y-86961547D01*
X88495238Y-86866309D01*
X88685714Y-86818690D01*
X89019047Y-86818690D01*
X89209523Y-86866309D01*
X89304761Y-86961547D01*
X89352380Y-87056785D01*
X89352380Y-87247261D01*
X89304761Y-87342500D01*
X89209523Y-87437738D01*
X89019047Y-87485357D01*
X88685714Y-87485357D01*
X88495238Y-87437738D01*
X88400000Y-87342500D01*
X88352380Y-87247261D01*
X89304761Y-86437738D02*
X89352380Y-86294880D01*
X89352380Y-86056785D01*
X89304761Y-85961547D01*
X89257142Y-85913928D01*
X89161904Y-85866309D01*
X89066666Y-85866309D01*
X88971428Y-85913928D01*
X88923809Y-85961547D01*
X88876190Y-86056785D01*
X88828571Y-86247261D01*
X88780952Y-86342500D01*
X88733333Y-86390119D01*
X88638095Y-86437738D01*
X88542857Y-86437738D01*
X88447619Y-86390119D01*
X88400000Y-86342500D01*
X88352380Y-86247261D01*
X88352380Y-86009166D01*
X88400000Y-85866309D01*
X79248095Y-56650000D02*
X79152857Y-56602380D01*
X79010000Y-56602380D01*
X78867142Y-56650000D01*
X78771904Y-56745238D01*
X78724285Y-56840476D01*
X78676666Y-57030952D01*
X78676666Y-57173809D01*
X78724285Y-57364285D01*
X78771904Y-57459523D01*
X78867142Y-57554761D01*
X79010000Y-57602380D01*
X79105238Y-57602380D01*
X79248095Y-57554761D01*
X79295714Y-57507142D01*
X79295714Y-57173809D01*
X79105238Y-57173809D01*
X79724285Y-57602380D02*
X79724285Y-56602380D01*
X80295714Y-57602380D01*
X80295714Y-56602380D01*
X80771904Y-57602380D02*
X80771904Y-56602380D01*
X81010000Y-56602380D01*
X81152857Y-56650000D01*
X81248095Y-56745238D01*
X81295714Y-56840476D01*
X81343333Y-57030952D01*
X81343333Y-57173809D01*
X81295714Y-57364285D01*
X81248095Y-57459523D01*
X81152857Y-57554761D01*
X81010000Y-57602380D01*
X80771904Y-57602380D01*
X73540952Y-90961547D02*
X73493333Y-91056785D01*
X73445714Y-91104404D01*
X73350476Y-91152023D01*
X73302857Y-91152023D01*
X73207619Y-91104404D01*
X73160000Y-91056785D01*
X73112380Y-90961547D01*
X73112380Y-90771071D01*
X73160000Y-90675833D01*
X73207619Y-90628214D01*
X73302857Y-90580595D01*
X73350476Y-90580595D01*
X73445714Y-90628214D01*
X73493333Y-90675833D01*
X73540952Y-90771071D01*
X73540952Y-90961547D01*
X73588571Y-91056785D01*
X73636190Y-91104404D01*
X73731428Y-91152023D01*
X73921904Y-91152023D01*
X74017142Y-91104404D01*
X74064761Y-91056785D01*
X74112380Y-90961547D01*
X74112380Y-90771071D01*
X74064761Y-90675833D01*
X74017142Y-90628214D01*
X73921904Y-90580595D01*
X73731428Y-90580595D01*
X73636190Y-90628214D01*
X73588571Y-90675833D01*
X73540952Y-90771071D01*
X74112380Y-89628214D02*
X74112380Y-90199642D01*
X74112380Y-89913928D02*
X73112380Y-89913928D01*
X73255238Y-90009166D01*
X73350476Y-90104404D01*
X73398095Y-90199642D01*
X74112380Y-88675833D02*
X74112380Y-89247261D01*
X74112380Y-88961547D02*
X73112380Y-88961547D01*
X73255238Y-89056785D01*
X73350476Y-89152023D01*
X73398095Y-89247261D01*
X73112380Y-87580595D02*
X74112380Y-87342500D01*
X73398095Y-87152023D01*
X74112380Y-86961547D01*
X73112380Y-86723452D01*
X73826666Y-86390119D02*
X73826666Y-85913928D01*
X74112380Y-86485357D02*
X73112380Y-86152023D01*
X74112380Y-85818690D01*
X74112380Y-85485357D02*
X73112380Y-85485357D01*
X74112380Y-84913928D02*
X73540952Y-85342500D01*
X73112380Y-84913928D02*
X73683809Y-85485357D01*
X73588571Y-84485357D02*
X73588571Y-84152023D01*
X74112380Y-84009166D02*
X74112380Y-84485357D01*
X73112380Y-84485357D01*
X73112380Y-84009166D01*
X86255952Y-90961547D02*
X86208333Y-91056785D01*
X86160714Y-91104404D01*
X86065476Y-91152023D01*
X86017857Y-91152023D01*
X85922619Y-91104404D01*
X85875000Y-91056785D01*
X85827380Y-90961547D01*
X85827380Y-90771071D01*
X85875000Y-90675833D01*
X85922619Y-90628214D01*
X86017857Y-90580595D01*
X86065476Y-90580595D01*
X86160714Y-90628214D01*
X86208333Y-90675833D01*
X86255952Y-90771071D01*
X86255952Y-90961547D01*
X86303571Y-91056785D01*
X86351190Y-91104404D01*
X86446428Y-91152023D01*
X86636904Y-91152023D01*
X86732142Y-91104404D01*
X86779761Y-91056785D01*
X86827380Y-90961547D01*
X86827380Y-90771071D01*
X86779761Y-90675833D01*
X86732142Y-90628214D01*
X86636904Y-90580595D01*
X86446428Y-90580595D01*
X86351190Y-90628214D01*
X86303571Y-90675833D01*
X86255952Y-90771071D01*
X85827380Y-89675833D02*
X85827380Y-90152023D01*
X86303571Y-90199642D01*
X86255952Y-90152023D01*
X86208333Y-90056785D01*
X86208333Y-89818690D01*
X86255952Y-89723452D01*
X86303571Y-89675833D01*
X86398809Y-89628214D01*
X86636904Y-89628214D01*
X86732142Y-89675833D01*
X86779761Y-89723452D01*
X86827380Y-89818690D01*
X86827380Y-90056785D01*
X86779761Y-90152023D01*
X86732142Y-90199642D01*
X85827380Y-89294880D02*
X85827380Y-88675833D01*
X86208333Y-89009166D01*
X86208333Y-88866309D01*
X86255952Y-88771071D01*
X86303571Y-88723452D01*
X86398809Y-88675833D01*
X86636904Y-88675833D01*
X86732142Y-88723452D01*
X86779761Y-88771071D01*
X86827380Y-88866309D01*
X86827380Y-89152023D01*
X86779761Y-89247261D01*
X86732142Y-89294880D01*
X85827380Y-87818690D02*
X85827380Y-88009166D01*
X85875000Y-88104404D01*
X85922619Y-88152023D01*
X86065476Y-88247261D01*
X86255952Y-88294880D01*
X86636904Y-88294880D01*
X86732142Y-88247261D01*
X86779761Y-88199642D01*
X86827380Y-88104404D01*
X86827380Y-87913928D01*
X86779761Y-87818690D01*
X86732142Y-87771071D01*
X86636904Y-87723452D01*
X86398809Y-87723452D01*
X86303571Y-87771071D01*
X86255952Y-87818690D01*
X86208333Y-87913928D01*
X86208333Y-88104404D01*
X86255952Y-88199642D01*
X86303571Y-88247261D01*
X86398809Y-88294880D01*
X86827380Y-86532976D02*
X85827380Y-86532976D01*
X86827380Y-86056785D02*
X85827380Y-86056785D01*
X86827380Y-85485357D01*
X85827380Y-85485357D01*
X85827380Y-85152023D02*
X85827380Y-84580595D01*
X86827380Y-84866309D02*
X85827380Y-84866309D01*
X86296666Y-56602380D02*
X86630000Y-57602380D01*
X86963333Y-56602380D01*
X87868095Y-57507142D02*
X87820476Y-57554761D01*
X87677619Y-57602380D01*
X87582380Y-57602380D01*
X87439523Y-57554761D01*
X87344285Y-57459523D01*
X87296666Y-57364285D01*
X87249047Y-57173809D01*
X87249047Y-57030952D01*
X87296666Y-56840476D01*
X87344285Y-56745238D01*
X87439523Y-56650000D01*
X87582380Y-56602380D01*
X87677619Y-56602380D01*
X87820476Y-56650000D01*
X87868095Y-56697619D01*
X88868095Y-57507142D02*
X88820476Y-57554761D01*
X88677619Y-57602380D01*
X88582380Y-57602380D01*
X88439523Y-57554761D01*
X88344285Y-57459523D01*
X88296666Y-57364285D01*
X88249047Y-57173809D01*
X88249047Y-57030952D01*
X88296666Y-56840476D01*
X88344285Y-56745238D01*
X88439523Y-56650000D01*
X88582380Y-56602380D01*
X88677619Y-56602380D01*
X88820476Y-56650000D01*
X88868095Y-56697619D01*
X71000952Y-90961547D02*
X70953333Y-91056785D01*
X70905714Y-91104404D01*
X70810476Y-91152023D01*
X70762857Y-91152023D01*
X70667619Y-91104404D01*
X70620000Y-91056785D01*
X70572380Y-90961547D01*
X70572380Y-90771071D01*
X70620000Y-90675833D01*
X70667619Y-90628214D01*
X70762857Y-90580595D01*
X70810476Y-90580595D01*
X70905714Y-90628214D01*
X70953333Y-90675833D01*
X71000952Y-90771071D01*
X71000952Y-90961547D01*
X71048571Y-91056785D01*
X71096190Y-91104404D01*
X71191428Y-91152023D01*
X71381904Y-91152023D01*
X71477142Y-91104404D01*
X71524761Y-91056785D01*
X71572380Y-90961547D01*
X71572380Y-90771071D01*
X71524761Y-90675833D01*
X71477142Y-90628214D01*
X71381904Y-90580595D01*
X71191428Y-90580595D01*
X71096190Y-90628214D01*
X71048571Y-90675833D01*
X71000952Y-90771071D01*
X71572380Y-89628214D02*
X71572380Y-90199642D01*
X71572380Y-89913928D02*
X70572380Y-89913928D01*
X70715238Y-90009166D01*
X70810476Y-90104404D01*
X70858095Y-90199642D01*
X71572380Y-88675833D02*
X71572380Y-89247261D01*
X71572380Y-88961547D02*
X70572380Y-88961547D01*
X70715238Y-89056785D01*
X70810476Y-89152023D01*
X70858095Y-89247261D01*
X71572380Y-86913928D02*
X71096190Y-87247261D01*
X71572380Y-87485357D02*
X70572380Y-87485357D01*
X70572380Y-87104404D01*
X70620000Y-87009166D01*
X70667619Y-86961547D01*
X70762857Y-86913928D01*
X70905714Y-86913928D01*
X71000952Y-86961547D01*
X71048571Y-87009166D01*
X71096190Y-87104404D01*
X71096190Y-87485357D01*
X71524761Y-86532976D02*
X71572380Y-86390119D01*
X71572380Y-86152023D01*
X71524761Y-86056785D01*
X71477142Y-86009166D01*
X71381904Y-85961547D01*
X71286666Y-85961547D01*
X71191428Y-86009166D01*
X71143809Y-86056785D01*
X71096190Y-86152023D01*
X71048571Y-86342500D01*
X71000952Y-86437738D01*
X70953333Y-86485357D01*
X70858095Y-86532976D01*
X70762857Y-86532976D01*
X70667619Y-86485357D01*
X70620000Y-86437738D01*
X70572380Y-86342500D01*
X70572380Y-86104404D01*
X70620000Y-85961547D01*
X70572380Y-85675833D02*
X70572380Y-85104404D01*
X71572380Y-85390119D02*
X70572380Y-85390119D01*
X76080952Y-90939523D02*
X76033333Y-91034761D01*
X75985714Y-91082380D01*
X75890476Y-91130000D01*
X75842857Y-91130000D01*
X75747619Y-91082380D01*
X75700000Y-91034761D01*
X75652380Y-90939523D01*
X75652380Y-90749047D01*
X75700000Y-90653809D01*
X75747619Y-90606190D01*
X75842857Y-90558571D01*
X75890476Y-90558571D01*
X75985714Y-90606190D01*
X76033333Y-90653809D01*
X76080952Y-90749047D01*
X76080952Y-90939523D01*
X76128571Y-91034761D01*
X76176190Y-91082380D01*
X76271428Y-91130000D01*
X76461904Y-91130000D01*
X76557142Y-91082380D01*
X76604761Y-91034761D01*
X76652380Y-90939523D01*
X76652380Y-90749047D01*
X76604761Y-90653809D01*
X76557142Y-90606190D01*
X76461904Y-90558571D01*
X76271428Y-90558571D01*
X76176190Y-90606190D01*
X76128571Y-90653809D01*
X76080952Y-90749047D01*
X75652380Y-89653809D02*
X75652380Y-90130000D01*
X76128571Y-90177619D01*
X76080952Y-90130000D01*
X76033333Y-90034761D01*
X76033333Y-89796666D01*
X76080952Y-89701428D01*
X76128571Y-89653809D01*
X76223809Y-89606190D01*
X76461904Y-89606190D01*
X76557142Y-89653809D01*
X76604761Y-89701428D01*
X76652380Y-89796666D01*
X76652380Y-90034761D01*
X76604761Y-90130000D01*
X76557142Y-90177619D01*
X75652380Y-88749047D02*
X75652380Y-88939523D01*
X75700000Y-89034761D01*
X75747619Y-89082380D01*
X75890476Y-89177619D01*
X76080952Y-89225238D01*
X76461904Y-89225238D01*
X76557142Y-89177619D01*
X76604761Y-89130000D01*
X76652380Y-89034761D01*
X76652380Y-88844285D01*
X76604761Y-88749047D01*
X76557142Y-88701428D01*
X76461904Y-88653809D01*
X76223809Y-88653809D01*
X76128571Y-88701428D01*
X76080952Y-88749047D01*
X76033333Y-88844285D01*
X76033333Y-89034761D01*
X76080952Y-89130000D01*
X76128571Y-89177619D01*
X76223809Y-89225238D01*
X75652380Y-88320476D02*
X75652380Y-87701428D01*
X76033333Y-88034761D01*
X76033333Y-87891904D01*
X76080952Y-87796666D01*
X76128571Y-87749047D01*
X76223809Y-87701428D01*
X76461904Y-87701428D01*
X76557142Y-87749047D01*
X76604761Y-87796666D01*
X76652380Y-87891904D01*
X76652380Y-88177619D01*
X76604761Y-88272857D01*
X76557142Y-88320476D01*
X76557142Y-85939523D02*
X76604761Y-85987142D01*
X76652380Y-86130000D01*
X76652380Y-86225238D01*
X76604761Y-86368095D01*
X76509523Y-86463333D01*
X76414285Y-86510952D01*
X76223809Y-86558571D01*
X76080952Y-86558571D01*
X75890476Y-86510952D01*
X75795238Y-86463333D01*
X75700000Y-86368095D01*
X75652380Y-86225238D01*
X75652380Y-86130000D01*
X75700000Y-85987142D01*
X75747619Y-85939523D01*
X76652380Y-85034761D02*
X76652380Y-85510952D01*
X75652380Y-85510952D01*
X76652380Y-84701428D02*
X75652380Y-84701428D01*
X76652380Y-84130000D02*
X76080952Y-84558571D01*
X75652380Y-84130000D02*
X76223809Y-84701428D01*
X83700952Y-90961547D02*
X83653333Y-91056785D01*
X83605714Y-91104404D01*
X83510476Y-91152023D01*
X83462857Y-91152023D01*
X83367619Y-91104404D01*
X83320000Y-91056785D01*
X83272380Y-90961547D01*
X83272380Y-90771071D01*
X83320000Y-90675833D01*
X83367619Y-90628214D01*
X83462857Y-90580595D01*
X83510476Y-90580595D01*
X83605714Y-90628214D01*
X83653333Y-90675833D01*
X83700952Y-90771071D01*
X83700952Y-90961547D01*
X83748571Y-91056785D01*
X83796190Y-91104404D01*
X83891428Y-91152023D01*
X84081904Y-91152023D01*
X84177142Y-91104404D01*
X84224761Y-91056785D01*
X84272380Y-90961547D01*
X84272380Y-90771071D01*
X84224761Y-90675833D01*
X84177142Y-90628214D01*
X84081904Y-90580595D01*
X83891428Y-90580595D01*
X83796190Y-90628214D01*
X83748571Y-90675833D01*
X83700952Y-90771071D01*
X84272380Y-89628214D02*
X84272380Y-90199642D01*
X84272380Y-89913928D02*
X83272380Y-89913928D01*
X83415238Y-90009166D01*
X83510476Y-90104404D01*
X83558095Y-90199642D01*
X84272380Y-88675833D02*
X84272380Y-89247261D01*
X84272380Y-88961547D02*
X83272380Y-88961547D01*
X83415238Y-89056785D01*
X83510476Y-89152023D01*
X83558095Y-89247261D01*
X84272380Y-87485357D02*
X83272380Y-87485357D01*
X84272380Y-87009166D02*
X83272380Y-87009166D01*
X84272380Y-86437738D01*
X83272380Y-86437738D01*
X83272380Y-86104404D02*
X83272380Y-85532976D01*
X84272380Y-85818690D02*
X83272380Y-85818690D01*
X81788095Y-61730000D02*
X81692857Y-61682380D01*
X81550000Y-61682380D01*
X81407142Y-61730000D01*
X81311904Y-61825238D01*
X81264285Y-61920476D01*
X81216666Y-62110952D01*
X81216666Y-62253809D01*
X81264285Y-62444285D01*
X81311904Y-62539523D01*
X81407142Y-62634761D01*
X81550000Y-62682380D01*
X81645238Y-62682380D01*
X81788095Y-62634761D01*
X81835714Y-62587142D01*
X81835714Y-62253809D01*
X81645238Y-62253809D01*
X82264285Y-62682380D02*
X82264285Y-61682380D01*
X82835714Y-62682380D01*
X82835714Y-61682380D01*
X83311904Y-62682380D02*
X83311904Y-61682380D01*
X83550000Y-61682380D01*
X83692857Y-61730000D01*
X83788095Y-61825238D01*
X83835714Y-61920476D01*
X83883333Y-62110952D01*
X83883333Y-62253809D01*
X83835714Y-62444285D01*
X83788095Y-62539523D01*
X83692857Y-62634761D01*
X83550000Y-62682380D01*
X83311904Y-62682380D01*
%TO.C,U1*%
X94893333Y-105862380D02*
X94893333Y-104862380D01*
X95226666Y-105576666D01*
X95560000Y-104862380D01*
X95560000Y-105862380D01*
X96226666Y-104862380D02*
X96417142Y-104862380D01*
X96512380Y-104910000D01*
X96607619Y-105005238D01*
X96655238Y-105195714D01*
X96655238Y-105529047D01*
X96607619Y-105719523D01*
X96512380Y-105814761D01*
X96417142Y-105862380D01*
X96226666Y-105862380D01*
X96131428Y-105814761D01*
X96036190Y-105719523D01*
X95988571Y-105529047D01*
X95988571Y-105195714D01*
X96036190Y-105005238D01*
X96131428Y-104910000D01*
X96226666Y-104862380D01*
X97083809Y-105862380D02*
X97083809Y-104862380D01*
X97321904Y-104862380D01*
X97464761Y-104910000D01*
X97560000Y-105005238D01*
X97607619Y-105100476D01*
X97655238Y-105290952D01*
X97655238Y-105433809D01*
X97607619Y-105624285D01*
X97560000Y-105719523D01*
X97464761Y-105814761D01*
X97321904Y-105862380D01*
X97083809Y-105862380D01*
X97845714Y-105957619D02*
X98607619Y-105957619D01*
X99321904Y-105862380D02*
X98845714Y-105862380D01*
X98845714Y-104862380D01*
X99655238Y-105862380D02*
X99655238Y-104862380D01*
X99988571Y-105576666D01*
X100321904Y-104862380D01*
X100321904Y-105862380D01*
X100702857Y-104862380D02*
X101369523Y-104862380D01*
X100940952Y-105862380D01*
X102226666Y-104862380D02*
X101750476Y-104862380D01*
X101702857Y-105338571D01*
X101750476Y-105290952D01*
X101845714Y-105243333D01*
X102083809Y-105243333D01*
X102179047Y-105290952D01*
X102226666Y-105338571D01*
X102274285Y-105433809D01*
X102274285Y-105671904D01*
X102226666Y-105767142D01*
X102179047Y-105814761D01*
X102083809Y-105862380D01*
X101845714Y-105862380D01*
X101750476Y-105814761D01*
X101702857Y-105767142D01*
X103036190Y-105338571D02*
X103179047Y-105386190D01*
X103226666Y-105433809D01*
X103274285Y-105529047D01*
X103274285Y-105671904D01*
X103226666Y-105767142D01*
X103179047Y-105814761D01*
X103083809Y-105862380D01*
X102702857Y-105862380D01*
X102702857Y-104862380D01*
X103036190Y-104862380D01*
X103131428Y-104910000D01*
X103179047Y-104957619D01*
X103226666Y-105052857D01*
X103226666Y-105148095D01*
X103179047Y-105243333D01*
X103131428Y-105290952D01*
X103036190Y-105338571D01*
X102702857Y-105338571D01*
X99464761Y-104084285D02*
X99512380Y-103941428D01*
X99512380Y-103703333D01*
X99464761Y-103608095D01*
X99417142Y-103560476D01*
X99321904Y-103512857D01*
X99226666Y-103512857D01*
X99131428Y-103560476D01*
X99083809Y-103608095D01*
X99036190Y-103703333D01*
X98988571Y-103893809D01*
X98940952Y-103989047D01*
X98893333Y-104036666D01*
X98798095Y-104084285D01*
X98702857Y-104084285D01*
X98607619Y-104036666D01*
X98560000Y-103989047D01*
X98512380Y-103893809D01*
X98512380Y-103655714D01*
X98560000Y-103512857D01*
X99512380Y-103084285D02*
X98512380Y-103084285D01*
X98512380Y-102846190D01*
X98560000Y-102703333D01*
X98655238Y-102608095D01*
X98750476Y-102560476D01*
X98940952Y-102512857D01*
X99083809Y-102512857D01*
X99274285Y-102560476D01*
X99369523Y-102608095D01*
X99464761Y-102703333D01*
X99512380Y-102846190D01*
X99512380Y-103084285D01*
X99226666Y-102131904D02*
X99226666Y-101655714D01*
X99512380Y-102227142D02*
X98512380Y-101893809D01*
X99512380Y-101560476D01*
X103592380Y-104203333D02*
X104592380Y-103870000D01*
X103592380Y-103536666D01*
X104497142Y-102631904D02*
X104544761Y-102679523D01*
X104592380Y-102822380D01*
X104592380Y-102917619D01*
X104544761Y-103060476D01*
X104449523Y-103155714D01*
X104354285Y-103203333D01*
X104163809Y-103250952D01*
X104020952Y-103250952D01*
X103830476Y-103203333D01*
X103735238Y-103155714D01*
X103640000Y-103060476D01*
X103592380Y-102917619D01*
X103592380Y-102822380D01*
X103640000Y-102679523D01*
X103687619Y-102631904D01*
X104497142Y-101631904D02*
X104544761Y-101679523D01*
X104592380Y-101822380D01*
X104592380Y-101917619D01*
X104544761Y-102060476D01*
X104449523Y-102155714D01*
X104354285Y-102203333D01*
X104163809Y-102250952D01*
X104020952Y-102250952D01*
X103830476Y-102203333D01*
X103735238Y-102155714D01*
X103640000Y-102060476D01*
X103592380Y-101917619D01*
X103592380Y-101822380D01*
X103640000Y-101679523D01*
X103687619Y-101631904D01*
X97345714Y-116022380D02*
X96869523Y-116022380D01*
X96869523Y-115022380D01*
X97679047Y-116022380D02*
X97679047Y-115022380D01*
X98012380Y-115736666D01*
X98345714Y-115022380D01*
X98345714Y-116022380D01*
X98726666Y-115022380D02*
X99393333Y-115022380D01*
X98964761Y-116022380D01*
X100250476Y-115022380D02*
X99774285Y-115022380D01*
X99726666Y-115498571D01*
X99774285Y-115450952D01*
X99869523Y-115403333D01*
X100107619Y-115403333D01*
X100202857Y-115450952D01*
X100250476Y-115498571D01*
X100298095Y-115593809D01*
X100298095Y-115831904D01*
X100250476Y-115927142D01*
X100202857Y-115974761D01*
X100107619Y-116022380D01*
X99869523Y-116022380D01*
X99774285Y-115974761D01*
X99726666Y-115927142D01*
X101060000Y-115498571D02*
X101202857Y-115546190D01*
X101250476Y-115593809D01*
X101298095Y-115689047D01*
X101298095Y-115831904D01*
X101250476Y-115927142D01*
X101202857Y-115974761D01*
X101107619Y-116022380D01*
X100726666Y-116022380D01*
X100726666Y-115022380D01*
X101060000Y-115022380D01*
X101155238Y-115070000D01*
X101202857Y-115117619D01*
X101250476Y-115212857D01*
X101250476Y-115308095D01*
X101202857Y-115403333D01*
X101155238Y-115450952D01*
X101060000Y-115498571D01*
X100726666Y-115498571D01*
X93432380Y-103441428D02*
X93432380Y-103250952D01*
X93480000Y-103155714D01*
X93575238Y-103060476D01*
X93765714Y-103012857D01*
X94099047Y-103012857D01*
X94289523Y-103060476D01*
X94384761Y-103155714D01*
X94432380Y-103250952D01*
X94432380Y-103441428D01*
X94384761Y-103536666D01*
X94289523Y-103631904D01*
X94099047Y-103679523D01*
X93765714Y-103679523D01*
X93575238Y-103631904D01*
X93480000Y-103536666D01*
X93432380Y-103441428D01*
X94384761Y-102631904D02*
X94432380Y-102489047D01*
X94432380Y-102250952D01*
X94384761Y-102155714D01*
X94337142Y-102108095D01*
X94241904Y-102060476D01*
X94146666Y-102060476D01*
X94051428Y-102108095D01*
X94003809Y-102155714D01*
X93956190Y-102250952D01*
X93908571Y-102441428D01*
X93860952Y-102536666D01*
X93813333Y-102584285D01*
X93718095Y-102631904D01*
X93622857Y-102631904D01*
X93527619Y-102584285D01*
X93480000Y-102536666D01*
X93432380Y-102441428D01*
X93432380Y-102203333D01*
X93480000Y-102060476D01*
X101100000Y-103631904D02*
X101052380Y-103727142D01*
X101052380Y-103870000D01*
X101100000Y-104012857D01*
X101195238Y-104108095D01*
X101290476Y-104155714D01*
X101480952Y-104203333D01*
X101623809Y-104203333D01*
X101814285Y-104155714D01*
X101909523Y-104108095D01*
X102004761Y-104012857D01*
X102052380Y-103870000D01*
X102052380Y-103774761D01*
X102004761Y-103631904D01*
X101957142Y-103584285D01*
X101623809Y-103584285D01*
X101623809Y-103774761D01*
X102052380Y-103155714D02*
X101052380Y-103155714D01*
X102052380Y-102584285D01*
X101052380Y-102584285D01*
X102052380Y-102108095D02*
X101052380Y-102108095D01*
X101052380Y-101870000D01*
X101100000Y-101727142D01*
X101195238Y-101631904D01*
X101290476Y-101584285D01*
X101480952Y-101536666D01*
X101623809Y-101536666D01*
X101814285Y-101584285D01*
X101909523Y-101631904D01*
X102004761Y-101727142D01*
X102052380Y-101870000D01*
X102052380Y-102108095D01*
X96321904Y-114752380D02*
X96321904Y-113752380D01*
X96655238Y-114466666D01*
X96988571Y-113752380D01*
X96988571Y-114752380D01*
X97655238Y-113752380D02*
X97845714Y-113752380D01*
X97940952Y-113800000D01*
X98036190Y-113895238D01*
X98083809Y-114085714D01*
X98083809Y-114419047D01*
X98036190Y-114609523D01*
X97940952Y-114704761D01*
X97845714Y-114752380D01*
X97655238Y-114752380D01*
X97560000Y-114704761D01*
X97464761Y-114609523D01*
X97417142Y-114419047D01*
X97417142Y-114085714D01*
X97464761Y-113895238D01*
X97560000Y-113800000D01*
X97655238Y-113752380D01*
X98512380Y-114752380D02*
X98512380Y-113752380D01*
X98750476Y-113752380D01*
X98893333Y-113800000D01*
X98988571Y-113895238D01*
X99036190Y-113990476D01*
X99083809Y-114180952D01*
X99083809Y-114323809D01*
X99036190Y-114514285D01*
X98988571Y-114609523D01*
X98893333Y-114704761D01*
X98750476Y-114752380D01*
X98512380Y-114752380D01*
X99512380Y-113752380D02*
X99512380Y-114561904D01*
X99560000Y-114657142D01*
X99607619Y-114704761D01*
X99702857Y-114752380D01*
X99893333Y-114752380D01*
X99988571Y-114704761D01*
X100036190Y-114657142D01*
X100083809Y-114561904D01*
X100083809Y-113752380D01*
X101036190Y-114752380D02*
X100560000Y-114752380D01*
X100560000Y-113752380D01*
X101369523Y-114228571D02*
X101702857Y-114228571D01*
X101845714Y-114752380D02*
X101369523Y-114752380D01*
X101369523Y-113752380D01*
X101845714Y-113752380D01*
X96924761Y-104060476D02*
X96972380Y-103917619D01*
X96972380Y-103679523D01*
X96924761Y-103584285D01*
X96877142Y-103536666D01*
X96781904Y-103489047D01*
X96686666Y-103489047D01*
X96591428Y-103536666D01*
X96543809Y-103584285D01*
X96496190Y-103679523D01*
X96448571Y-103870000D01*
X96400952Y-103965238D01*
X96353333Y-104012857D01*
X96258095Y-104060476D01*
X96162857Y-104060476D01*
X96067619Y-104012857D01*
X96020000Y-103965238D01*
X95972380Y-103870000D01*
X95972380Y-103631904D01*
X96020000Y-103489047D01*
X96877142Y-102489047D02*
X96924761Y-102536666D01*
X96972380Y-102679523D01*
X96972380Y-102774761D01*
X96924761Y-102917619D01*
X96829523Y-103012857D01*
X96734285Y-103060476D01*
X96543809Y-103108095D01*
X96400952Y-103108095D01*
X96210476Y-103060476D01*
X96115238Y-103012857D01*
X96020000Y-102917619D01*
X95972380Y-102774761D01*
X95972380Y-102679523D01*
X96020000Y-102536666D01*
X96067619Y-102489047D01*
X96972380Y-101584285D02*
X96972380Y-102060476D01*
X95972380Y-102060476D01*
%TO.C,U2*%
X110903333Y-105862380D02*
X110903333Y-104862380D01*
X111236666Y-105576666D01*
X111570000Y-104862380D01*
X111570000Y-105862380D01*
X112236666Y-104862380D02*
X112427142Y-104862380D01*
X112522380Y-104910000D01*
X112617619Y-105005238D01*
X112665238Y-105195714D01*
X112665238Y-105529047D01*
X112617619Y-105719523D01*
X112522380Y-105814761D01*
X112427142Y-105862380D01*
X112236666Y-105862380D01*
X112141428Y-105814761D01*
X112046190Y-105719523D01*
X111998571Y-105529047D01*
X111998571Y-105195714D01*
X112046190Y-105005238D01*
X112141428Y-104910000D01*
X112236666Y-104862380D01*
X113093809Y-105862380D02*
X113093809Y-104862380D01*
X113331904Y-104862380D01*
X113474761Y-104910000D01*
X113570000Y-105005238D01*
X113617619Y-105100476D01*
X113665238Y-105290952D01*
X113665238Y-105433809D01*
X113617619Y-105624285D01*
X113570000Y-105719523D01*
X113474761Y-105814761D01*
X113331904Y-105862380D01*
X113093809Y-105862380D01*
X113855714Y-105957619D02*
X114617619Y-105957619D01*
X115189047Y-105338571D02*
X115331904Y-105386190D01*
X115379523Y-105433809D01*
X115427142Y-105529047D01*
X115427142Y-105671904D01*
X115379523Y-105767142D01*
X115331904Y-105814761D01*
X115236666Y-105862380D01*
X114855714Y-105862380D01*
X114855714Y-104862380D01*
X115189047Y-104862380D01*
X115284285Y-104910000D01*
X115331904Y-104957619D01*
X115379523Y-105052857D01*
X115379523Y-105148095D01*
X115331904Y-105243333D01*
X115284285Y-105290952D01*
X115189047Y-105338571D01*
X114855714Y-105338571D01*
X115855714Y-105862380D02*
X115855714Y-104862380D01*
X115855714Y-105338571D02*
X116427142Y-105338571D01*
X116427142Y-105862380D02*
X116427142Y-104862380D01*
X117427142Y-105862380D02*
X116855714Y-105862380D01*
X117141428Y-105862380D02*
X117141428Y-104862380D01*
X117046190Y-105005238D01*
X116950952Y-105100476D01*
X116855714Y-105148095D01*
X117760476Y-104862380D02*
X118427142Y-104862380D01*
X117998571Y-105862380D01*
X119284285Y-104862380D02*
X118808095Y-104862380D01*
X118760476Y-105338571D01*
X118808095Y-105290952D01*
X118903333Y-105243333D01*
X119141428Y-105243333D01*
X119236666Y-105290952D01*
X119284285Y-105338571D01*
X119331904Y-105433809D01*
X119331904Y-105671904D01*
X119284285Y-105767142D01*
X119236666Y-105814761D01*
X119141428Y-105862380D01*
X118903333Y-105862380D01*
X118808095Y-105814761D01*
X118760476Y-105767142D01*
X119950952Y-104862380D02*
X120046190Y-104862380D01*
X120141428Y-104910000D01*
X120189047Y-104957619D01*
X120236666Y-105052857D01*
X120284285Y-105243333D01*
X120284285Y-105481428D01*
X120236666Y-105671904D01*
X120189047Y-105767142D01*
X120141428Y-105814761D01*
X120046190Y-105862380D01*
X119950952Y-105862380D01*
X119855714Y-105814761D01*
X119808095Y-105767142D01*
X119760476Y-105671904D01*
X119712857Y-105481428D01*
X119712857Y-105243333D01*
X119760476Y-105052857D01*
X119808095Y-104957619D01*
X119855714Y-104910000D01*
X119950952Y-104862380D01*
X112530000Y-103983214D02*
X112482380Y-104078452D01*
X112482380Y-104221309D01*
X112530000Y-104364166D01*
X112625238Y-104459404D01*
X112720476Y-104507023D01*
X112910952Y-104554642D01*
X113053809Y-104554642D01*
X113244285Y-104507023D01*
X113339523Y-104459404D01*
X113434761Y-104364166D01*
X113482380Y-104221309D01*
X113482380Y-104126071D01*
X113434761Y-103983214D01*
X113387142Y-103935595D01*
X113053809Y-103935595D01*
X113053809Y-104126071D01*
X113482380Y-103507023D02*
X112482380Y-103507023D01*
X113482380Y-102935595D01*
X112482380Y-102935595D01*
X113482380Y-102459404D02*
X112482380Y-102459404D01*
X112482380Y-102221309D01*
X112530000Y-102078452D01*
X112625238Y-101983214D01*
X112720476Y-101935595D01*
X112910952Y-101887976D01*
X113053809Y-101887976D01*
X113244285Y-101935595D01*
X113339523Y-101983214D01*
X113434761Y-102078452D01*
X113482380Y-102221309D01*
X113482380Y-102459404D01*
X120816666Y-105364166D02*
X120816666Y-104887976D01*
X121102380Y-105459404D02*
X120102380Y-105126071D01*
X121102380Y-104792738D01*
X121102380Y-104459404D02*
X120102380Y-104459404D01*
X120102380Y-104221309D01*
X120150000Y-104078452D01*
X120245238Y-103983214D01*
X120340476Y-103935595D01*
X120530952Y-103887976D01*
X120673809Y-103887976D01*
X120864285Y-103935595D01*
X120959523Y-103983214D01*
X121054761Y-104078452D01*
X121102380Y-104221309D01*
X121102380Y-104459404D01*
X121102380Y-103459404D02*
X120102380Y-103459404D01*
X120102380Y-103221309D01*
X120150000Y-103078452D01*
X120245238Y-102983214D01*
X120340476Y-102935595D01*
X120530952Y-102887976D01*
X120673809Y-102887976D01*
X120864285Y-102935595D01*
X120959523Y-102983214D01*
X121054761Y-103078452D01*
X121102380Y-103221309D01*
X121102380Y-103459404D01*
X121102380Y-101887976D02*
X120626190Y-102221309D01*
X121102380Y-102459404D02*
X120102380Y-102459404D01*
X120102380Y-102078452D01*
X120150000Y-101983214D01*
X120197619Y-101935595D01*
X120292857Y-101887976D01*
X120435714Y-101887976D01*
X120530952Y-101935595D01*
X120578571Y-101983214D01*
X120626190Y-102078452D01*
X120626190Y-102459404D01*
X109942380Y-104459404D02*
X110942380Y-104126071D01*
X109942380Y-103792738D01*
X110847142Y-102887976D02*
X110894761Y-102935595D01*
X110942380Y-103078452D01*
X110942380Y-103173690D01*
X110894761Y-103316547D01*
X110799523Y-103411785D01*
X110704285Y-103459404D01*
X110513809Y-103507023D01*
X110370952Y-103507023D01*
X110180476Y-103459404D01*
X110085238Y-103411785D01*
X109990000Y-103316547D01*
X109942380Y-103173690D01*
X109942380Y-103078452D01*
X109990000Y-102935595D01*
X110037619Y-102887976D01*
X110847142Y-101887976D02*
X110894761Y-101935595D01*
X110942380Y-102078452D01*
X110942380Y-102173690D01*
X110894761Y-102316547D01*
X110799523Y-102411785D01*
X110704285Y-102459404D01*
X110513809Y-102507023D01*
X110370952Y-102507023D01*
X110180476Y-102459404D01*
X110085238Y-102411785D01*
X109990000Y-102316547D01*
X109942380Y-102173690D01*
X109942380Y-102078452D01*
X109990000Y-101935595D01*
X110037619Y-101887976D01*
X115974761Y-104268928D02*
X116022380Y-104126071D01*
X116022380Y-103887976D01*
X115974761Y-103792738D01*
X115927142Y-103745119D01*
X115831904Y-103697500D01*
X115736666Y-103697500D01*
X115641428Y-103745119D01*
X115593809Y-103792738D01*
X115546190Y-103887976D01*
X115498571Y-104078452D01*
X115450952Y-104173690D01*
X115403333Y-104221309D01*
X115308095Y-104268928D01*
X115212857Y-104268928D01*
X115117619Y-104221309D01*
X115070000Y-104173690D01*
X115022380Y-104078452D01*
X115022380Y-103840357D01*
X115070000Y-103697500D01*
X115927142Y-102697500D02*
X115974761Y-102745119D01*
X116022380Y-102887976D01*
X116022380Y-102983214D01*
X115974761Y-103126071D01*
X115879523Y-103221309D01*
X115784285Y-103268928D01*
X115593809Y-103316547D01*
X115450952Y-103316547D01*
X115260476Y-103268928D01*
X115165238Y-103221309D01*
X115070000Y-103126071D01*
X115022380Y-102983214D01*
X115022380Y-102887976D01*
X115070000Y-102745119D01*
X115117619Y-102697500D01*
X116022380Y-101792738D02*
X116022380Y-102268928D01*
X115022380Y-102268928D01*
X118514761Y-104316547D02*
X118562380Y-104173690D01*
X118562380Y-103935595D01*
X118514761Y-103840357D01*
X118467142Y-103792738D01*
X118371904Y-103745119D01*
X118276666Y-103745119D01*
X118181428Y-103792738D01*
X118133809Y-103840357D01*
X118086190Y-103935595D01*
X118038571Y-104126071D01*
X117990952Y-104221309D01*
X117943333Y-104268928D01*
X117848095Y-104316547D01*
X117752857Y-104316547D01*
X117657619Y-104268928D01*
X117610000Y-104221309D01*
X117562380Y-104126071D01*
X117562380Y-103887976D01*
X117610000Y-103745119D01*
X118562380Y-103316547D02*
X117562380Y-103316547D01*
X117562380Y-103078452D01*
X117610000Y-102935595D01*
X117705238Y-102840357D01*
X117800476Y-102792738D01*
X117990952Y-102745119D01*
X118133809Y-102745119D01*
X118324285Y-102792738D01*
X118419523Y-102840357D01*
X118514761Y-102935595D01*
X118562380Y-103078452D01*
X118562380Y-103316547D01*
X118276666Y-102364166D02*
X118276666Y-101887976D01*
X118562380Y-102459404D02*
X117562380Y-102126071D01*
X118562380Y-101792738D01*
%TO.C,U3*%
X76708095Y-121372380D02*
X76708095Y-122181904D01*
X76755714Y-122277142D01*
X76803333Y-122324761D01*
X76898571Y-122372380D01*
X77089047Y-122372380D01*
X77184285Y-122324761D01*
X77231904Y-122277142D01*
X77279523Y-122181904D01*
X77279523Y-121372380D01*
X77660476Y-121372380D02*
X78279523Y-121372380D01*
X77946190Y-121753333D01*
X78089047Y-121753333D01*
X78184285Y-121800952D01*
X78231904Y-121848571D01*
X78279523Y-121943809D01*
X78279523Y-122181904D01*
X78231904Y-122277142D01*
X78184285Y-122324761D01*
X78089047Y-122372380D01*
X77803333Y-122372380D01*
X77708095Y-122324761D01*
X77660476Y-122277142D01*
X72422380Y-126452380D02*
X72993809Y-126452380D01*
X72708095Y-127452380D02*
X72708095Y-126452380D01*
X73327142Y-126928571D02*
X73660476Y-126928571D01*
X73803333Y-127452380D02*
X73327142Y-127452380D01*
X73327142Y-126452380D01*
X73803333Y-126452380D01*
X74231904Y-127452380D02*
X74231904Y-126452380D01*
X74565238Y-127166666D01*
X74898571Y-126452380D01*
X74898571Y-127452380D01*
X75374761Y-127452380D02*
X75374761Y-126452380D01*
X75755714Y-126452380D01*
X75850952Y-126500000D01*
X75898571Y-126547619D01*
X75946190Y-126642857D01*
X75946190Y-126785714D01*
X75898571Y-126880952D01*
X75850952Y-126928571D01*
X75755714Y-126976190D01*
X75374761Y-126976190D01*
X76374761Y-126928571D02*
X76708095Y-126928571D01*
X76850952Y-127452380D02*
X76374761Y-127452380D01*
X76374761Y-126452380D01*
X76850952Y-126452380D01*
X77850952Y-127452380D02*
X77517619Y-126976190D01*
X77279523Y-127452380D02*
X77279523Y-126452380D01*
X77660476Y-126452380D01*
X77755714Y-126500000D01*
X77803333Y-126547619D01*
X77850952Y-126642857D01*
X77850952Y-126785714D01*
X77803333Y-126880952D01*
X77755714Y-126928571D01*
X77660476Y-126976190D01*
X77279523Y-126976190D01*
X78231904Y-127166666D02*
X78708095Y-127166666D01*
X78136666Y-127452380D02*
X78470000Y-126452380D01*
X78803333Y-127452380D01*
X78993809Y-126452380D02*
X79565238Y-126452380D01*
X79279523Y-127452380D02*
X79279523Y-126452380D01*
X79898571Y-126452380D02*
X79898571Y-127261904D01*
X79946190Y-127357142D01*
X79993809Y-127404761D01*
X80089047Y-127452380D01*
X80279523Y-127452380D01*
X80374761Y-127404761D01*
X80422380Y-127357142D01*
X80470000Y-127261904D01*
X80470000Y-126452380D01*
X81517619Y-127452380D02*
X81184285Y-126976190D01*
X80946190Y-127452380D02*
X80946190Y-126452380D01*
X81327142Y-126452380D01*
X81422380Y-126500000D01*
X81470000Y-126547619D01*
X81517619Y-126642857D01*
X81517619Y-126785714D01*
X81470000Y-126880952D01*
X81422380Y-126928571D01*
X81327142Y-126976190D01*
X80946190Y-126976190D01*
X81946190Y-126928571D02*
X82279523Y-126928571D01*
X82422380Y-127452380D02*
X81946190Y-127452380D01*
X81946190Y-126452380D01*
X82422380Y-126452380D01*
X81684761Y-133062023D02*
X81732380Y-132919166D01*
X81732380Y-132681071D01*
X81684761Y-132585833D01*
X81637142Y-132538214D01*
X81541904Y-132490595D01*
X81446666Y-132490595D01*
X81351428Y-132538214D01*
X81303809Y-132585833D01*
X81256190Y-132681071D01*
X81208571Y-132871547D01*
X81160952Y-132966785D01*
X81113333Y-133014404D01*
X81018095Y-133062023D01*
X80922857Y-133062023D01*
X80827619Y-133014404D01*
X80780000Y-132966785D01*
X80732380Y-132871547D01*
X80732380Y-132633452D01*
X80780000Y-132490595D01*
X81637142Y-131490595D02*
X81684761Y-131538214D01*
X81732380Y-131681071D01*
X81732380Y-131776309D01*
X81684761Y-131919166D01*
X81589523Y-132014404D01*
X81494285Y-132062023D01*
X81303809Y-132109642D01*
X81160952Y-132109642D01*
X80970476Y-132062023D01*
X80875238Y-132014404D01*
X80780000Y-131919166D01*
X80732380Y-131776309D01*
X80732380Y-131681071D01*
X80780000Y-131538214D01*
X80827619Y-131490595D01*
X81732380Y-130585833D02*
X81732380Y-131062023D01*
X80732380Y-131062023D01*
X79144761Y-133062023D02*
X79192380Y-132919166D01*
X79192380Y-132681071D01*
X79144761Y-132585833D01*
X79097142Y-132538214D01*
X79001904Y-132490595D01*
X78906666Y-132490595D01*
X78811428Y-132538214D01*
X78763809Y-132585833D01*
X78716190Y-132681071D01*
X78668571Y-132871547D01*
X78620952Y-132966785D01*
X78573333Y-133014404D01*
X78478095Y-133062023D01*
X78382857Y-133062023D01*
X78287619Y-133014404D01*
X78240000Y-132966785D01*
X78192380Y-132871547D01*
X78192380Y-132633452D01*
X78240000Y-132490595D01*
X79192380Y-132062023D02*
X78192380Y-132062023D01*
X78192380Y-131823928D01*
X78240000Y-131681071D01*
X78335238Y-131585833D01*
X78430476Y-131538214D01*
X78620952Y-131490595D01*
X78763809Y-131490595D01*
X78954285Y-131538214D01*
X79049523Y-131585833D01*
X79144761Y-131681071D01*
X79192380Y-131823928D01*
X79192380Y-132062023D01*
X78906666Y-131109642D02*
X78906666Y-130633452D01*
X79192380Y-131204880D02*
X78192380Y-130871547D01*
X79192380Y-130538214D01*
X74708095Y-128674761D02*
X74850952Y-128722380D01*
X75089047Y-128722380D01*
X75184285Y-128674761D01*
X75231904Y-128627142D01*
X75279523Y-128531904D01*
X75279523Y-128436666D01*
X75231904Y-128341428D01*
X75184285Y-128293809D01*
X75089047Y-128246190D01*
X74898571Y-128198571D01*
X74803333Y-128150952D01*
X74755714Y-128103333D01*
X74708095Y-128008095D01*
X74708095Y-127912857D01*
X74755714Y-127817619D01*
X74803333Y-127770000D01*
X74898571Y-127722380D01*
X75136666Y-127722380D01*
X75279523Y-127770000D01*
X75708095Y-128198571D02*
X76041428Y-128198571D01*
X76184285Y-128722380D02*
X75708095Y-128722380D01*
X75708095Y-127722380D01*
X76184285Y-127722380D01*
X76612857Y-128722380D02*
X76612857Y-127722380D01*
X77184285Y-128722380D01*
X77184285Y-127722380D01*
X77612857Y-128674761D02*
X77755714Y-128722380D01*
X77993809Y-128722380D01*
X78089047Y-128674761D01*
X78136666Y-128627142D01*
X78184285Y-128531904D01*
X78184285Y-128436666D01*
X78136666Y-128341428D01*
X78089047Y-128293809D01*
X77993809Y-128246190D01*
X77803333Y-128198571D01*
X77708095Y-128150952D01*
X77660476Y-128103333D01*
X77612857Y-128008095D01*
X77612857Y-127912857D01*
X77660476Y-127817619D01*
X77708095Y-127770000D01*
X77803333Y-127722380D01*
X78041428Y-127722380D01*
X78184285Y-127770000D01*
X78803333Y-127722380D02*
X78993809Y-127722380D01*
X79089047Y-127770000D01*
X79184285Y-127865238D01*
X79231904Y-128055714D01*
X79231904Y-128389047D01*
X79184285Y-128579523D01*
X79089047Y-128674761D01*
X78993809Y-128722380D01*
X78803333Y-128722380D01*
X78708095Y-128674761D01*
X78612857Y-128579523D01*
X78565238Y-128389047D01*
X78565238Y-128055714D01*
X78612857Y-127865238D01*
X78708095Y-127770000D01*
X78803333Y-127722380D01*
X80231904Y-128722380D02*
X79898571Y-128246190D01*
X79660476Y-128722380D02*
X79660476Y-127722380D01*
X80041428Y-127722380D01*
X80136666Y-127770000D01*
X80184285Y-127817619D01*
X80231904Y-127912857D01*
X80231904Y-128055714D01*
X80184285Y-128150952D01*
X80136666Y-128198571D01*
X80041428Y-128246190D01*
X79660476Y-128246190D01*
X73160000Y-132490595D02*
X73112380Y-132585833D01*
X73112380Y-132728690D01*
X73160000Y-132871547D01*
X73255238Y-132966785D01*
X73350476Y-133014404D01*
X73540952Y-133062023D01*
X73683809Y-133062023D01*
X73874285Y-133014404D01*
X73969523Y-132966785D01*
X74064761Y-132871547D01*
X74112380Y-132728690D01*
X74112380Y-132633452D01*
X74064761Y-132490595D01*
X74017142Y-132442976D01*
X73683809Y-132442976D01*
X73683809Y-132633452D01*
X74112380Y-132014404D02*
X73112380Y-132014404D01*
X74112380Y-131442976D01*
X73112380Y-131442976D01*
X74112380Y-130966785D02*
X73112380Y-130966785D01*
X73112380Y-130728690D01*
X73160000Y-130585833D01*
X73255238Y-130490595D01*
X73350476Y-130442976D01*
X73540952Y-130395357D01*
X73683809Y-130395357D01*
X73874285Y-130442976D01*
X73969523Y-130490595D01*
X74064761Y-130585833D01*
X74112380Y-130728690D01*
X74112380Y-130966785D01*
X75652380Y-133157261D02*
X76652380Y-132823928D01*
X75652380Y-132490595D01*
X76557142Y-131585833D02*
X76604761Y-131633452D01*
X76652380Y-131776309D01*
X76652380Y-131871547D01*
X76604761Y-132014404D01*
X76509523Y-132109642D01*
X76414285Y-132157261D01*
X76223809Y-132204880D01*
X76080952Y-132204880D01*
X75890476Y-132157261D01*
X75795238Y-132109642D01*
X75700000Y-132014404D01*
X75652380Y-131871547D01*
X75652380Y-131776309D01*
X75700000Y-131633452D01*
X75747619Y-131585833D01*
X76557142Y-130585833D02*
X76604761Y-130633452D01*
X76652380Y-130776309D01*
X76652380Y-130871547D01*
X76604761Y-131014404D01*
X76509523Y-131109642D01*
X76414285Y-131157261D01*
X76223809Y-131204880D01*
X76080952Y-131204880D01*
X75890476Y-131157261D01*
X75795238Y-131109642D01*
X75700000Y-131014404D01*
X75652380Y-130871547D01*
X75652380Y-130776309D01*
X75700000Y-130633452D01*
X75747619Y-130585833D01*
X74303333Y-126182380D02*
X74303333Y-125182380D01*
X74303333Y-125658571D02*
X74874761Y-125658571D01*
X74874761Y-126182380D02*
X74874761Y-125182380D01*
X75350952Y-125182380D02*
X75350952Y-125991904D01*
X75398571Y-126087142D01*
X75446190Y-126134761D01*
X75541428Y-126182380D01*
X75731904Y-126182380D01*
X75827142Y-126134761D01*
X75874761Y-126087142D01*
X75922380Y-125991904D01*
X75922380Y-125182380D01*
X76398571Y-126182380D02*
X76398571Y-125182380D01*
X76731904Y-125896666D01*
X77065238Y-125182380D01*
X77065238Y-126182380D01*
X77541428Y-126182380D02*
X77541428Y-125182380D01*
X78017619Y-126182380D02*
X78017619Y-125182380D01*
X78255714Y-125182380D01*
X78398571Y-125230000D01*
X78493809Y-125325238D01*
X78541428Y-125420476D01*
X78589047Y-125610952D01*
X78589047Y-125753809D01*
X78541428Y-125944285D01*
X78493809Y-126039523D01*
X78398571Y-126134761D01*
X78255714Y-126182380D01*
X78017619Y-126182380D01*
X79017619Y-126182380D02*
X79017619Y-125182380D01*
X79350952Y-125182380D02*
X79922380Y-125182380D01*
X79636666Y-126182380D02*
X79636666Y-125182380D01*
X80446190Y-125706190D02*
X80446190Y-126182380D01*
X80112857Y-125182380D02*
X80446190Y-125706190D01*
X80779523Y-125182380D01*
%TO.C,U4*%
X89908571Y-127452380D02*
X89908571Y-126452380D01*
X90241904Y-127166666D01*
X90575238Y-126452380D01*
X90575238Y-127452380D01*
X91241904Y-126452380D02*
X91432380Y-126452380D01*
X91527619Y-126500000D01*
X91622857Y-126595238D01*
X91670476Y-126785714D01*
X91670476Y-127119047D01*
X91622857Y-127309523D01*
X91527619Y-127404761D01*
X91432380Y-127452380D01*
X91241904Y-127452380D01*
X91146666Y-127404761D01*
X91051428Y-127309523D01*
X91003809Y-127119047D01*
X91003809Y-126785714D01*
X91051428Y-126595238D01*
X91146666Y-126500000D01*
X91241904Y-126452380D01*
X92099047Y-127452380D02*
X92099047Y-126452380D01*
X92337142Y-126452380D01*
X92480000Y-126500000D01*
X92575238Y-126595238D01*
X92622857Y-126690476D01*
X92670476Y-126880952D01*
X92670476Y-127023809D01*
X92622857Y-127214285D01*
X92575238Y-127309523D01*
X92480000Y-127404761D01*
X92337142Y-127452380D01*
X92099047Y-127452380D01*
X92860952Y-127547619D02*
X93622857Y-127547619D01*
X93813333Y-127404761D02*
X93956190Y-127452380D01*
X94194285Y-127452380D01*
X94289523Y-127404761D01*
X94337142Y-127357142D01*
X94384761Y-127261904D01*
X94384761Y-127166666D01*
X94337142Y-127071428D01*
X94289523Y-127023809D01*
X94194285Y-126976190D01*
X94003809Y-126928571D01*
X93908571Y-126880952D01*
X93860952Y-126833333D01*
X93813333Y-126738095D01*
X93813333Y-126642857D01*
X93860952Y-126547619D01*
X93908571Y-126500000D01*
X94003809Y-126452380D01*
X94241904Y-126452380D01*
X94384761Y-126500000D01*
X94813333Y-127452380D02*
X94813333Y-126452380D01*
X94813333Y-126928571D02*
X95384761Y-126928571D01*
X95384761Y-127452380D02*
X95384761Y-126452380D01*
X95718095Y-126452380D02*
X96289523Y-126452380D01*
X96003809Y-127452380D02*
X96003809Y-126452380D01*
X96527619Y-126452380D02*
X97146666Y-126452380D01*
X96813333Y-126833333D01*
X96956190Y-126833333D01*
X97051428Y-126880952D01*
X97099047Y-126928571D01*
X97146666Y-127023809D01*
X97146666Y-127261904D01*
X97099047Y-127357142D01*
X97051428Y-127404761D01*
X96956190Y-127452380D01*
X96670476Y-127452380D01*
X96575238Y-127404761D01*
X96527619Y-127357142D01*
X97480000Y-126452380D02*
X98146666Y-127452380D01*
X98146666Y-126452380D02*
X97480000Y-127452380D01*
X95654761Y-133062023D02*
X95702380Y-132919166D01*
X95702380Y-132681071D01*
X95654761Y-132585833D01*
X95607142Y-132538214D01*
X95511904Y-132490595D01*
X95416666Y-132490595D01*
X95321428Y-132538214D01*
X95273809Y-132585833D01*
X95226190Y-132681071D01*
X95178571Y-132871547D01*
X95130952Y-132966785D01*
X95083333Y-133014404D01*
X94988095Y-133062023D01*
X94892857Y-133062023D01*
X94797619Y-133014404D01*
X94750000Y-132966785D01*
X94702380Y-132871547D01*
X94702380Y-132633452D01*
X94750000Y-132490595D01*
X95702380Y-132062023D02*
X94702380Y-132062023D01*
X94702380Y-131823928D01*
X94750000Y-131681071D01*
X94845238Y-131585833D01*
X94940476Y-131538214D01*
X95130952Y-131490595D01*
X95273809Y-131490595D01*
X95464285Y-131538214D01*
X95559523Y-131585833D01*
X95654761Y-131681071D01*
X95702380Y-131823928D01*
X95702380Y-132062023D01*
X95416666Y-131109642D02*
X95416666Y-130633452D01*
X95702380Y-131204880D02*
X94702380Y-130871547D01*
X95702380Y-130538214D01*
X89622380Y-133157261D02*
X90622380Y-132823928D01*
X89622380Y-132490595D01*
X90527142Y-131585833D02*
X90574761Y-131633452D01*
X90622380Y-131776309D01*
X90622380Y-131871547D01*
X90574761Y-132014404D01*
X90479523Y-132109642D01*
X90384285Y-132157261D01*
X90193809Y-132204880D01*
X90050952Y-132204880D01*
X89860476Y-132157261D01*
X89765238Y-132109642D01*
X89670000Y-132014404D01*
X89622380Y-131871547D01*
X89622380Y-131776309D01*
X89670000Y-131633452D01*
X89717619Y-131585833D01*
X90527142Y-130585833D02*
X90574761Y-130633452D01*
X90622380Y-130776309D01*
X90622380Y-130871547D01*
X90574761Y-131014404D01*
X90479523Y-131109642D01*
X90384285Y-131157261D01*
X90193809Y-131204880D01*
X90050952Y-131204880D01*
X89860476Y-131157261D01*
X89765238Y-131109642D01*
X89670000Y-131014404D01*
X89622380Y-130871547D01*
X89622380Y-130776309D01*
X89670000Y-130633452D01*
X89717619Y-130585833D01*
X98194761Y-133062023D02*
X98242380Y-132919166D01*
X98242380Y-132681071D01*
X98194761Y-132585833D01*
X98147142Y-132538214D01*
X98051904Y-132490595D01*
X97956666Y-132490595D01*
X97861428Y-132538214D01*
X97813809Y-132585833D01*
X97766190Y-132681071D01*
X97718571Y-132871547D01*
X97670952Y-132966785D01*
X97623333Y-133014404D01*
X97528095Y-133062023D01*
X97432857Y-133062023D01*
X97337619Y-133014404D01*
X97290000Y-132966785D01*
X97242380Y-132871547D01*
X97242380Y-132633452D01*
X97290000Y-132490595D01*
X98147142Y-131490595D02*
X98194761Y-131538214D01*
X98242380Y-131681071D01*
X98242380Y-131776309D01*
X98194761Y-131919166D01*
X98099523Y-132014404D01*
X98004285Y-132062023D01*
X97813809Y-132109642D01*
X97670952Y-132109642D01*
X97480476Y-132062023D01*
X97385238Y-132014404D01*
X97290000Y-131919166D01*
X97242380Y-131776309D01*
X97242380Y-131681071D01*
X97290000Y-131538214D01*
X97337619Y-131490595D01*
X98242380Y-130585833D02*
X98242380Y-131062023D01*
X97242380Y-131062023D01*
X92210000Y-132490595D02*
X92162380Y-132585833D01*
X92162380Y-132728690D01*
X92210000Y-132871547D01*
X92305238Y-132966785D01*
X92400476Y-133014404D01*
X92590952Y-133062023D01*
X92733809Y-133062023D01*
X92924285Y-133014404D01*
X93019523Y-132966785D01*
X93114761Y-132871547D01*
X93162380Y-132728690D01*
X93162380Y-132633452D01*
X93114761Y-132490595D01*
X93067142Y-132442976D01*
X92733809Y-132442976D01*
X92733809Y-132633452D01*
X93162380Y-132014404D02*
X92162380Y-132014404D01*
X93162380Y-131442976D01*
X92162380Y-131442976D01*
X93162380Y-130966785D02*
X92162380Y-130966785D01*
X92162380Y-130728690D01*
X92210000Y-130585833D01*
X92305238Y-130490595D01*
X92400476Y-130442976D01*
X92590952Y-130395357D01*
X92733809Y-130395357D01*
X92924285Y-130442976D01*
X93019523Y-130490595D01*
X93114761Y-130585833D01*
X93162380Y-130728690D01*
X93162380Y-130966785D01*
%TO.C,U5*%
X109228571Y-74612380D02*
X109228571Y-73612380D01*
X109561904Y-74326666D01*
X109895238Y-73612380D01*
X109895238Y-74612380D01*
X110561904Y-73612380D02*
X110752380Y-73612380D01*
X110847619Y-73660000D01*
X110942857Y-73755238D01*
X110990476Y-73945714D01*
X110990476Y-74279047D01*
X110942857Y-74469523D01*
X110847619Y-74564761D01*
X110752380Y-74612380D01*
X110561904Y-74612380D01*
X110466666Y-74564761D01*
X110371428Y-74469523D01*
X110323809Y-74279047D01*
X110323809Y-73945714D01*
X110371428Y-73755238D01*
X110466666Y-73660000D01*
X110561904Y-73612380D01*
X111419047Y-74612380D02*
X111419047Y-73612380D01*
X111657142Y-73612380D01*
X111800000Y-73660000D01*
X111895238Y-73755238D01*
X111942857Y-73850476D01*
X111990476Y-74040952D01*
X111990476Y-74183809D01*
X111942857Y-74374285D01*
X111895238Y-74469523D01*
X111800000Y-74564761D01*
X111657142Y-74612380D01*
X111419047Y-74612380D01*
X112180952Y-74707619D02*
X112942857Y-74707619D01*
X113180952Y-74612380D02*
X113180952Y-73612380D01*
X113561904Y-73612380D01*
X113657142Y-73660000D01*
X113704761Y-73707619D01*
X113752380Y-73802857D01*
X113752380Y-73945714D01*
X113704761Y-74040952D01*
X113657142Y-74088571D01*
X113561904Y-74136190D01*
X113180952Y-74136190D01*
X114752380Y-74517142D02*
X114704761Y-74564761D01*
X114561904Y-74612380D01*
X114466666Y-74612380D01*
X114323809Y-74564761D01*
X114228571Y-74469523D01*
X114180952Y-74374285D01*
X114133333Y-74183809D01*
X114133333Y-74040952D01*
X114180952Y-73850476D01*
X114228571Y-73755238D01*
X114323809Y-73660000D01*
X114466666Y-73612380D01*
X114561904Y-73612380D01*
X114704761Y-73660000D01*
X114752380Y-73707619D01*
X115514285Y-74088571D02*
X115180952Y-74088571D01*
X115180952Y-74612380D02*
X115180952Y-73612380D01*
X115657142Y-73612380D01*
X116180952Y-74040952D02*
X116085714Y-73993333D01*
X116038095Y-73945714D01*
X115990476Y-73850476D01*
X115990476Y-73802857D01*
X116038095Y-73707619D01*
X116085714Y-73660000D01*
X116180952Y-73612380D01*
X116371428Y-73612380D01*
X116466666Y-73660000D01*
X116514285Y-73707619D01*
X116561904Y-73802857D01*
X116561904Y-73850476D01*
X116514285Y-73945714D01*
X116466666Y-73993333D01*
X116371428Y-74040952D01*
X116180952Y-74040952D01*
X116085714Y-74088571D01*
X116038095Y-74136190D01*
X115990476Y-74231428D01*
X115990476Y-74421904D01*
X116038095Y-74517142D01*
X116085714Y-74564761D01*
X116180952Y-74612380D01*
X116371428Y-74612380D01*
X116466666Y-74564761D01*
X116514285Y-74517142D01*
X116561904Y-74421904D01*
X116561904Y-74231428D01*
X116514285Y-74136190D01*
X116466666Y-74088571D01*
X116371428Y-74040952D01*
X117466666Y-73612380D02*
X116990476Y-73612380D01*
X116942857Y-74088571D01*
X116990476Y-74040952D01*
X117085714Y-73993333D01*
X117323809Y-73993333D01*
X117419047Y-74040952D01*
X117466666Y-74088571D01*
X117514285Y-74183809D01*
X117514285Y-74421904D01*
X117466666Y-74517142D01*
X117419047Y-74564761D01*
X117323809Y-74612380D01*
X117085714Y-74612380D01*
X116990476Y-74564761D01*
X116942857Y-74517142D01*
X118371428Y-73612380D02*
X118180952Y-73612380D01*
X118085714Y-73660000D01*
X118038095Y-73707619D01*
X117942857Y-73850476D01*
X117895238Y-74040952D01*
X117895238Y-74421904D01*
X117942857Y-74517142D01*
X117990476Y-74564761D01*
X118085714Y-74612380D01*
X118276190Y-74612380D01*
X118371428Y-74564761D01*
X118419047Y-74517142D01*
X118466666Y-74421904D01*
X118466666Y-74183809D01*
X118419047Y-74088571D01*
X118371428Y-74040952D01*
X118276190Y-73993333D01*
X118085714Y-73993333D01*
X117990476Y-74040952D01*
X117942857Y-74088571D01*
X117895238Y-74183809D01*
X118800000Y-73612380D02*
X119419047Y-73612380D01*
X119085714Y-73993333D01*
X119228571Y-73993333D01*
X119323809Y-74040952D01*
X119371428Y-74088571D01*
X119419047Y-74183809D01*
X119419047Y-74421904D01*
X119371428Y-74517142D01*
X119323809Y-74564761D01*
X119228571Y-74612380D01*
X118942857Y-74612380D01*
X118847619Y-74564761D01*
X118800000Y-74517142D01*
X115974761Y-57070476D02*
X116022380Y-56927619D01*
X116022380Y-56689523D01*
X115974761Y-56594285D01*
X115927142Y-56546666D01*
X115831904Y-56499047D01*
X115736666Y-56499047D01*
X115641428Y-56546666D01*
X115593809Y-56594285D01*
X115546190Y-56689523D01*
X115498571Y-56880000D01*
X115450952Y-56975238D01*
X115403333Y-57022857D01*
X115308095Y-57070476D01*
X115212857Y-57070476D01*
X115117619Y-57022857D01*
X115070000Y-56975238D01*
X115022380Y-56880000D01*
X115022380Y-56641904D01*
X115070000Y-56499047D01*
X115927142Y-55499047D02*
X115974761Y-55546666D01*
X116022380Y-55689523D01*
X116022380Y-55784761D01*
X115974761Y-55927619D01*
X115879523Y-56022857D01*
X115784285Y-56070476D01*
X115593809Y-56118095D01*
X115450952Y-56118095D01*
X115260476Y-56070476D01*
X115165238Y-56022857D01*
X115070000Y-55927619D01*
X115022380Y-55784761D01*
X115022380Y-55689523D01*
X115070000Y-55546666D01*
X115117619Y-55499047D01*
X116022380Y-54594285D02*
X116022380Y-55070476D01*
X115022380Y-55070476D01*
X118467142Y-56475238D02*
X118514761Y-56522857D01*
X118562380Y-56665714D01*
X118562380Y-56760952D01*
X118514761Y-56903809D01*
X118419523Y-56999047D01*
X118324285Y-57046666D01*
X118133809Y-57094285D01*
X117990952Y-57094285D01*
X117800476Y-57046666D01*
X117705238Y-56999047D01*
X117610000Y-56903809D01*
X117562380Y-56760952D01*
X117562380Y-56665714D01*
X117610000Y-56522857D01*
X117657619Y-56475238D01*
X117562380Y-55856190D02*
X117562380Y-55665714D01*
X117610000Y-55570476D01*
X117705238Y-55475238D01*
X117895714Y-55427619D01*
X118229047Y-55427619D01*
X118419523Y-55475238D01*
X118514761Y-55570476D01*
X118562380Y-55665714D01*
X118562380Y-55856190D01*
X118514761Y-55951428D01*
X118419523Y-56046666D01*
X118229047Y-56094285D01*
X117895714Y-56094285D01*
X117705238Y-56046666D01*
X117610000Y-55951428D01*
X117562380Y-55856190D01*
X117562380Y-55141904D02*
X117562380Y-54570476D01*
X118562380Y-54856190D02*
X117562380Y-54856190D01*
X109990000Y-56641904D02*
X109942380Y-56737142D01*
X109942380Y-56880000D01*
X109990000Y-57022857D01*
X110085238Y-57118095D01*
X110180476Y-57165714D01*
X110370952Y-57213333D01*
X110513809Y-57213333D01*
X110704285Y-57165714D01*
X110799523Y-57118095D01*
X110894761Y-57022857D01*
X110942380Y-56880000D01*
X110942380Y-56784761D01*
X110894761Y-56641904D01*
X110847142Y-56594285D01*
X110513809Y-56594285D01*
X110513809Y-56784761D01*
X110942380Y-56165714D02*
X109942380Y-56165714D01*
X110942380Y-55594285D01*
X109942380Y-55594285D01*
X110942380Y-55118095D02*
X109942380Y-55118095D01*
X109942380Y-54880000D01*
X109990000Y-54737142D01*
X110085238Y-54641904D01*
X110180476Y-54594285D01*
X110370952Y-54546666D01*
X110513809Y-54546666D01*
X110704285Y-54594285D01*
X110799523Y-54641904D01*
X110894761Y-54737142D01*
X110942380Y-54880000D01*
X110942380Y-55118095D01*
X107402380Y-57213333D02*
X108402380Y-56880000D01*
X107402380Y-56546666D01*
X108307142Y-55641904D02*
X108354761Y-55689523D01*
X108402380Y-55832380D01*
X108402380Y-55927619D01*
X108354761Y-56070476D01*
X108259523Y-56165714D01*
X108164285Y-56213333D01*
X107973809Y-56260952D01*
X107830952Y-56260952D01*
X107640476Y-56213333D01*
X107545238Y-56165714D01*
X107450000Y-56070476D01*
X107402380Y-55927619D01*
X107402380Y-55832380D01*
X107450000Y-55689523D01*
X107497619Y-55641904D01*
X108307142Y-54641904D02*
X108354761Y-54689523D01*
X108402380Y-54832380D01*
X108402380Y-54927619D01*
X108354761Y-55070476D01*
X108259523Y-55165714D01*
X108164285Y-55213333D01*
X107973809Y-55260952D01*
X107830952Y-55260952D01*
X107640476Y-55213333D01*
X107545238Y-55165714D01*
X107450000Y-55070476D01*
X107402380Y-54927619D01*
X107402380Y-54832380D01*
X107450000Y-54689523D01*
X107497619Y-54641904D01*
X113434761Y-57094285D02*
X113482380Y-56951428D01*
X113482380Y-56713333D01*
X113434761Y-56618095D01*
X113387142Y-56570476D01*
X113291904Y-56522857D01*
X113196666Y-56522857D01*
X113101428Y-56570476D01*
X113053809Y-56618095D01*
X113006190Y-56713333D01*
X112958571Y-56903809D01*
X112910952Y-56999047D01*
X112863333Y-57046666D01*
X112768095Y-57094285D01*
X112672857Y-57094285D01*
X112577619Y-57046666D01*
X112530000Y-56999047D01*
X112482380Y-56903809D01*
X112482380Y-56665714D01*
X112530000Y-56522857D01*
X113482380Y-56094285D02*
X112482380Y-56094285D01*
X112482380Y-55856190D01*
X112530000Y-55713333D01*
X112625238Y-55618095D01*
X112720476Y-55570476D01*
X112910952Y-55522857D01*
X113053809Y-55522857D01*
X113244285Y-55570476D01*
X113339523Y-55618095D01*
X113434761Y-55713333D01*
X113482380Y-55856190D01*
X113482380Y-56094285D01*
X113196666Y-55141904D02*
X113196666Y-54665714D01*
X113482380Y-55237142D02*
X112482380Y-54903809D01*
X113482380Y-54570476D01*
X121102380Y-56784761D02*
X120102380Y-56784761D01*
X121102380Y-56308571D02*
X120102380Y-56308571D01*
X121102380Y-55737142D01*
X120102380Y-55737142D01*
X120102380Y-55403809D02*
X120102380Y-54832380D01*
X121102380Y-55118095D02*
X120102380Y-55118095D01*
%TO.C,U9*%
X103211904Y-124912380D02*
X103211904Y-123912380D01*
X103545238Y-124626666D01*
X103878571Y-123912380D01*
X103878571Y-124912380D01*
X104545238Y-123912380D02*
X104735714Y-123912380D01*
X104830952Y-123960000D01*
X104926190Y-124055238D01*
X104973809Y-124245714D01*
X104973809Y-124579047D01*
X104926190Y-124769523D01*
X104830952Y-124864761D01*
X104735714Y-124912380D01*
X104545238Y-124912380D01*
X104450000Y-124864761D01*
X104354761Y-124769523D01*
X104307142Y-124579047D01*
X104307142Y-124245714D01*
X104354761Y-124055238D01*
X104450000Y-123960000D01*
X104545238Y-123912380D01*
X105402380Y-124912380D02*
X105402380Y-123912380D01*
X105640476Y-123912380D01*
X105783333Y-123960000D01*
X105878571Y-124055238D01*
X105926190Y-124150476D01*
X105973809Y-124340952D01*
X105973809Y-124483809D01*
X105926190Y-124674285D01*
X105878571Y-124769523D01*
X105783333Y-124864761D01*
X105640476Y-124912380D01*
X105402380Y-124912380D01*
X106164285Y-125007619D02*
X106926190Y-125007619D01*
X107497619Y-124388571D02*
X107640476Y-124436190D01*
X107688095Y-124483809D01*
X107735714Y-124579047D01*
X107735714Y-124721904D01*
X107688095Y-124817142D01*
X107640476Y-124864761D01*
X107545238Y-124912380D01*
X107164285Y-124912380D01*
X107164285Y-123912380D01*
X107497619Y-123912380D01*
X107592857Y-123960000D01*
X107640476Y-124007619D01*
X107688095Y-124102857D01*
X107688095Y-124198095D01*
X107640476Y-124293333D01*
X107592857Y-124340952D01*
X107497619Y-124388571D01*
X107164285Y-124388571D01*
X108164285Y-124912380D02*
X108164285Y-123912380D01*
X108497619Y-124626666D01*
X108830952Y-123912380D01*
X108830952Y-124912380D01*
X109307142Y-124912380D02*
X109307142Y-123912380D01*
X109688095Y-123912380D01*
X109783333Y-123960000D01*
X109830952Y-124007619D01*
X109878571Y-124102857D01*
X109878571Y-124245714D01*
X109830952Y-124340952D01*
X109783333Y-124388571D01*
X109688095Y-124436190D01*
X109307142Y-124436190D01*
X110259523Y-124007619D02*
X110307142Y-123960000D01*
X110402380Y-123912380D01*
X110640476Y-123912380D01*
X110735714Y-123960000D01*
X110783333Y-124007619D01*
X110830952Y-124102857D01*
X110830952Y-124198095D01*
X110783333Y-124340952D01*
X110211904Y-124912380D01*
X110830952Y-124912380D01*
X111402380Y-124340952D02*
X111307142Y-124293333D01*
X111259523Y-124245714D01*
X111211904Y-124150476D01*
X111211904Y-124102857D01*
X111259523Y-124007619D01*
X111307142Y-123960000D01*
X111402380Y-123912380D01*
X111592857Y-123912380D01*
X111688095Y-123960000D01*
X111735714Y-124007619D01*
X111783333Y-124102857D01*
X111783333Y-124150476D01*
X111735714Y-124245714D01*
X111688095Y-124293333D01*
X111592857Y-124340952D01*
X111402380Y-124340952D01*
X111307142Y-124388571D01*
X111259523Y-124436190D01*
X111211904Y-124531428D01*
X111211904Y-124721904D01*
X111259523Y-124817142D01*
X111307142Y-124864761D01*
X111402380Y-124912380D01*
X111592857Y-124912380D01*
X111688095Y-124864761D01*
X111735714Y-124817142D01*
X111783333Y-124721904D01*
X111783333Y-124531428D01*
X111735714Y-124436190D01*
X111688095Y-124388571D01*
X111592857Y-124340952D01*
X112402380Y-123912380D02*
X112497619Y-123912380D01*
X112592857Y-123960000D01*
X112640476Y-124007619D01*
X112688095Y-124102857D01*
X112735714Y-124293333D01*
X112735714Y-124531428D01*
X112688095Y-124721904D01*
X112640476Y-124817142D01*
X112592857Y-124864761D01*
X112497619Y-124912380D01*
X112402380Y-124912380D01*
X112307142Y-124864761D01*
X112259523Y-124817142D01*
X112211904Y-124721904D01*
X112164285Y-124531428D01*
X112164285Y-124293333D01*
X112211904Y-124102857D01*
X112259523Y-124007619D01*
X112307142Y-123960000D01*
X112402380Y-123912380D01*
X114657142Y-132442976D02*
X114704761Y-132490595D01*
X114752380Y-132633452D01*
X114752380Y-132728690D01*
X114704761Y-132871547D01*
X114609523Y-132966785D01*
X114514285Y-133014404D01*
X114323809Y-133062023D01*
X114180952Y-133062023D01*
X113990476Y-133014404D01*
X113895238Y-132966785D01*
X113800000Y-132871547D01*
X113752380Y-132728690D01*
X113752380Y-132633452D01*
X113800000Y-132490595D01*
X113847619Y-132442976D01*
X114704761Y-132062023D02*
X114752380Y-131919166D01*
X114752380Y-131681071D01*
X114704761Y-131585833D01*
X114657142Y-131538214D01*
X114561904Y-131490595D01*
X114466666Y-131490595D01*
X114371428Y-131538214D01*
X114323809Y-131585833D01*
X114276190Y-131681071D01*
X114228571Y-131871547D01*
X114180952Y-131966785D01*
X114133333Y-132014404D01*
X114038095Y-132062023D01*
X113942857Y-132062023D01*
X113847619Y-132014404D01*
X113800000Y-131966785D01*
X113752380Y-131871547D01*
X113752380Y-131633452D01*
X113800000Y-131490595D01*
X114228571Y-130728690D02*
X114276190Y-130585833D01*
X114323809Y-130538214D01*
X114419047Y-130490595D01*
X114561904Y-130490595D01*
X114657142Y-130538214D01*
X114704761Y-130585833D01*
X114752380Y-130681071D01*
X114752380Y-131062023D01*
X113752380Y-131062023D01*
X113752380Y-130728690D01*
X113800000Y-130633452D01*
X113847619Y-130585833D01*
X113942857Y-130538214D01*
X114038095Y-130538214D01*
X114133333Y-130585833D01*
X114180952Y-130633452D01*
X114228571Y-130728690D01*
X114228571Y-131062023D01*
X109624761Y-133062023D02*
X109672380Y-132919166D01*
X109672380Y-132681071D01*
X109624761Y-132585833D01*
X109577142Y-132538214D01*
X109481904Y-132490595D01*
X109386666Y-132490595D01*
X109291428Y-132538214D01*
X109243809Y-132585833D01*
X109196190Y-132681071D01*
X109148571Y-132871547D01*
X109100952Y-132966785D01*
X109053333Y-133014404D01*
X108958095Y-133062023D01*
X108862857Y-133062023D01*
X108767619Y-133014404D01*
X108720000Y-132966785D01*
X108672380Y-132871547D01*
X108672380Y-132633452D01*
X108720000Y-132490595D01*
X109577142Y-131490595D02*
X109624761Y-131538214D01*
X109672380Y-131681071D01*
X109672380Y-131776309D01*
X109624761Y-131919166D01*
X109529523Y-132014404D01*
X109434285Y-132062023D01*
X109243809Y-132109642D01*
X109100952Y-132109642D01*
X108910476Y-132062023D01*
X108815238Y-132014404D01*
X108720000Y-131919166D01*
X108672380Y-131776309D01*
X108672380Y-131681071D01*
X108720000Y-131538214D01*
X108767619Y-131490595D01*
X109672380Y-130585833D02*
X109672380Y-131062023D01*
X108672380Y-131062023D01*
X103592380Y-133157261D02*
X104592380Y-132823928D01*
X103592380Y-132490595D01*
X104497142Y-131585833D02*
X104544761Y-131633452D01*
X104592380Y-131776309D01*
X104592380Y-131871547D01*
X104544761Y-132014404D01*
X104449523Y-132109642D01*
X104354285Y-132157261D01*
X104163809Y-132204880D01*
X104020952Y-132204880D01*
X103830476Y-132157261D01*
X103735238Y-132109642D01*
X103640000Y-132014404D01*
X103592380Y-131871547D01*
X103592380Y-131776309D01*
X103640000Y-131633452D01*
X103687619Y-131585833D01*
X104497142Y-130585833D02*
X104544761Y-130633452D01*
X104592380Y-130776309D01*
X104592380Y-130871547D01*
X104544761Y-131014404D01*
X104449523Y-131109642D01*
X104354285Y-131157261D01*
X104163809Y-131204880D01*
X104020952Y-131204880D01*
X103830476Y-131157261D01*
X103735238Y-131109642D01*
X103640000Y-131014404D01*
X103592380Y-130871547D01*
X103592380Y-130776309D01*
X103640000Y-130633452D01*
X103687619Y-130585833D01*
X106180000Y-132490595D02*
X106132380Y-132585833D01*
X106132380Y-132728690D01*
X106180000Y-132871547D01*
X106275238Y-132966785D01*
X106370476Y-133014404D01*
X106560952Y-133062023D01*
X106703809Y-133062023D01*
X106894285Y-133014404D01*
X106989523Y-132966785D01*
X107084761Y-132871547D01*
X107132380Y-132728690D01*
X107132380Y-132633452D01*
X107084761Y-132490595D01*
X107037142Y-132442976D01*
X106703809Y-132442976D01*
X106703809Y-132633452D01*
X107132380Y-132014404D02*
X106132380Y-132014404D01*
X107132380Y-131442976D01*
X106132380Y-131442976D01*
X107132380Y-130966785D02*
X106132380Y-130966785D01*
X106132380Y-130728690D01*
X106180000Y-130585833D01*
X106275238Y-130490595D01*
X106370476Y-130442976D01*
X106560952Y-130395357D01*
X106703809Y-130395357D01*
X106894285Y-130442976D01*
X106989523Y-130490595D01*
X107084761Y-130585833D01*
X107132380Y-130728690D01*
X107132380Y-130966785D01*
X112164761Y-133062023D02*
X112212380Y-132919166D01*
X112212380Y-132681071D01*
X112164761Y-132585833D01*
X112117142Y-132538214D01*
X112021904Y-132490595D01*
X111926666Y-132490595D01*
X111831428Y-132538214D01*
X111783809Y-132585833D01*
X111736190Y-132681071D01*
X111688571Y-132871547D01*
X111640952Y-132966785D01*
X111593333Y-133014404D01*
X111498095Y-133062023D01*
X111402857Y-133062023D01*
X111307619Y-133014404D01*
X111260000Y-132966785D01*
X111212380Y-132871547D01*
X111212380Y-132633452D01*
X111260000Y-132490595D01*
X112212380Y-132062023D02*
X111212380Y-132062023D01*
X111212380Y-131823928D01*
X111260000Y-131681071D01*
X111355238Y-131585833D01*
X111450476Y-131538214D01*
X111640952Y-131490595D01*
X111783809Y-131490595D01*
X111974285Y-131538214D01*
X112069523Y-131585833D01*
X112164761Y-131681071D01*
X112212380Y-131823928D01*
X112212380Y-132062023D01*
X111926666Y-131109642D02*
X111926666Y-130633452D01*
X112212380Y-131204880D02*
X111212380Y-130871547D01*
X112212380Y-130538214D01*
X117244761Y-133062023D02*
X117292380Y-132919166D01*
X117292380Y-132681071D01*
X117244761Y-132585833D01*
X117197142Y-132538214D01*
X117101904Y-132490595D01*
X117006666Y-132490595D01*
X116911428Y-132538214D01*
X116863809Y-132585833D01*
X116816190Y-132681071D01*
X116768571Y-132871547D01*
X116720952Y-132966785D01*
X116673333Y-133014404D01*
X116578095Y-133062023D01*
X116482857Y-133062023D01*
X116387619Y-133014404D01*
X116340000Y-132966785D01*
X116292380Y-132871547D01*
X116292380Y-132633452D01*
X116340000Y-132490595D01*
X117292380Y-132062023D02*
X116292380Y-132062023D01*
X116292380Y-131823928D01*
X116340000Y-131681071D01*
X116435238Y-131585833D01*
X116530476Y-131538214D01*
X116720952Y-131490595D01*
X116863809Y-131490595D01*
X117054285Y-131538214D01*
X117149523Y-131585833D01*
X117244761Y-131681071D01*
X117292380Y-131823928D01*
X117292380Y-132062023D01*
X116292380Y-130871547D02*
X116292380Y-130681071D01*
X116340000Y-130585833D01*
X116435238Y-130490595D01*
X116625714Y-130442976D01*
X116959047Y-130442976D01*
X117149523Y-130490595D01*
X117244761Y-130585833D01*
X117292380Y-130681071D01*
X117292380Y-130871547D01*
X117244761Y-130966785D01*
X117149523Y-131062023D01*
X116959047Y-131109642D01*
X116625714Y-131109642D01*
X116435238Y-131062023D01*
X116340000Y-130966785D01*
X116292380Y-130871547D01*
%TO.C,U6*%
X73748095Y-105862380D02*
X73748095Y-104862380D01*
X74081428Y-105576666D01*
X74414761Y-104862380D01*
X74414761Y-105862380D01*
X75081428Y-104862380D02*
X75271904Y-104862380D01*
X75367142Y-104910000D01*
X75462380Y-105005238D01*
X75510000Y-105195714D01*
X75510000Y-105529047D01*
X75462380Y-105719523D01*
X75367142Y-105814761D01*
X75271904Y-105862380D01*
X75081428Y-105862380D01*
X74986190Y-105814761D01*
X74890952Y-105719523D01*
X74843333Y-105529047D01*
X74843333Y-105195714D01*
X74890952Y-105005238D01*
X74986190Y-104910000D01*
X75081428Y-104862380D01*
X75938571Y-105862380D02*
X75938571Y-104862380D01*
X76176666Y-104862380D01*
X76319523Y-104910000D01*
X76414761Y-105005238D01*
X76462380Y-105100476D01*
X76510000Y-105290952D01*
X76510000Y-105433809D01*
X76462380Y-105624285D01*
X76414761Y-105719523D01*
X76319523Y-105814761D01*
X76176666Y-105862380D01*
X75938571Y-105862380D01*
X76700476Y-105957619D02*
X77462380Y-105957619D01*
X78271904Y-105767142D02*
X78224285Y-105814761D01*
X78081428Y-105862380D01*
X77986190Y-105862380D01*
X77843333Y-105814761D01*
X77748095Y-105719523D01*
X77700476Y-105624285D01*
X77652857Y-105433809D01*
X77652857Y-105290952D01*
X77700476Y-105100476D01*
X77748095Y-105005238D01*
X77843333Y-104910000D01*
X77986190Y-104862380D01*
X78081428Y-104862380D01*
X78224285Y-104910000D01*
X78271904Y-104957619D01*
X78986190Y-104862380D02*
X78986190Y-105576666D01*
X78938571Y-105719523D01*
X78843333Y-105814761D01*
X78700476Y-105862380D01*
X78605238Y-105862380D01*
X80033809Y-105767142D02*
X79986190Y-105814761D01*
X79843333Y-105862380D01*
X79748095Y-105862380D01*
X79605238Y-105814761D01*
X79510000Y-105719523D01*
X79462380Y-105624285D01*
X79414761Y-105433809D01*
X79414761Y-105290952D01*
X79462380Y-105100476D01*
X79510000Y-105005238D01*
X79605238Y-104910000D01*
X79748095Y-104862380D01*
X79843333Y-104862380D01*
X79986190Y-104910000D01*
X80033809Y-104957619D01*
X80462380Y-105862380D02*
X80462380Y-104862380D01*
X80795714Y-105576666D01*
X81129047Y-104862380D01*
X81129047Y-105862380D01*
X81605238Y-104862380D02*
X81605238Y-105671904D01*
X81652857Y-105767142D01*
X81700476Y-105814761D01*
X81795714Y-105862380D01*
X81986190Y-105862380D01*
X82081428Y-105814761D01*
X82129047Y-105767142D01*
X82176666Y-105671904D01*
X82176666Y-104862380D01*
X82652857Y-105481428D02*
X83414761Y-105481428D01*
X84033809Y-105290952D02*
X83938571Y-105243333D01*
X83890952Y-105195714D01*
X83843333Y-105100476D01*
X83843333Y-105052857D01*
X83890952Y-104957619D01*
X83938571Y-104910000D01*
X84033809Y-104862380D01*
X84224285Y-104862380D01*
X84319523Y-104910000D01*
X84367142Y-104957619D01*
X84414761Y-105052857D01*
X84414761Y-105100476D01*
X84367142Y-105195714D01*
X84319523Y-105243333D01*
X84224285Y-105290952D01*
X84033809Y-105290952D01*
X83938571Y-105338571D01*
X83890952Y-105386190D01*
X83843333Y-105481428D01*
X83843333Y-105671904D01*
X83890952Y-105767142D01*
X83938571Y-105814761D01*
X84033809Y-105862380D01*
X84224285Y-105862380D01*
X84319523Y-105814761D01*
X84367142Y-105767142D01*
X84414761Y-105671904D01*
X84414761Y-105481428D01*
X84367142Y-105386190D01*
X84319523Y-105338571D01*
X84224285Y-105290952D01*
X85367142Y-105862380D02*
X84795714Y-105862380D01*
X85081428Y-105862380D02*
X85081428Y-104862380D01*
X84986190Y-105005238D01*
X84890952Y-105100476D01*
X84795714Y-105148095D01*
X86319523Y-105862380D02*
X85748095Y-105862380D01*
X86033809Y-105862380D02*
X86033809Y-104862380D01*
X85938571Y-105005238D01*
X85843333Y-105100476D01*
X85748095Y-105148095D01*
X74112380Y-103602261D02*
X73636190Y-103935595D01*
X74112380Y-104173690D02*
X73112380Y-104173690D01*
X73112380Y-103792738D01*
X73160000Y-103697500D01*
X73207619Y-103649880D01*
X73302857Y-103602261D01*
X73445714Y-103602261D01*
X73540952Y-103649880D01*
X73588571Y-103697500D01*
X73636190Y-103792738D01*
X73636190Y-104173690D01*
X74064761Y-103221309D02*
X74112380Y-103078452D01*
X74112380Y-102840357D01*
X74064761Y-102745119D01*
X74017142Y-102697500D01*
X73921904Y-102649880D01*
X73826666Y-102649880D01*
X73731428Y-102697500D01*
X73683809Y-102745119D01*
X73636190Y-102840357D01*
X73588571Y-103030833D01*
X73540952Y-103126071D01*
X73493333Y-103173690D01*
X73398095Y-103221309D01*
X73302857Y-103221309D01*
X73207619Y-103173690D01*
X73160000Y-103126071D01*
X73112380Y-103030833D01*
X73112380Y-102792738D01*
X73160000Y-102649880D01*
X73112380Y-102364166D02*
X73112380Y-101792738D01*
X74112380Y-102078452D02*
X73112380Y-102078452D01*
X76652380Y-103745119D02*
X75652380Y-103745119D01*
X76652380Y-103268928D02*
X75652380Y-103268928D01*
X76652380Y-102697500D01*
X75652380Y-102697500D01*
X75652380Y-102364166D02*
X75652380Y-101792738D01*
X76652380Y-102078452D02*
X75652380Y-102078452D01*
X88352380Y-104459404D02*
X89352380Y-104126071D01*
X88352380Y-103792738D01*
X89257142Y-102887976D02*
X89304761Y-102935595D01*
X89352380Y-103078452D01*
X89352380Y-103173690D01*
X89304761Y-103316547D01*
X89209523Y-103411785D01*
X89114285Y-103459404D01*
X88923809Y-103507023D01*
X88780952Y-103507023D01*
X88590476Y-103459404D01*
X88495238Y-103411785D01*
X88400000Y-103316547D01*
X88352380Y-103173690D01*
X88352380Y-103078452D01*
X88400000Y-102935595D01*
X88447619Y-102887976D01*
X89257142Y-101887976D02*
X89304761Y-101935595D01*
X89352380Y-102078452D01*
X89352380Y-102173690D01*
X89304761Y-102316547D01*
X89209523Y-102411785D01*
X89114285Y-102459404D01*
X88923809Y-102507023D01*
X88780952Y-102507023D01*
X88590476Y-102459404D01*
X88495238Y-102411785D01*
X88400000Y-102316547D01*
X88352380Y-102173690D01*
X88352380Y-102078452D01*
X88400000Y-101935595D01*
X88447619Y-101887976D01*
X85860000Y-103983214D02*
X85812380Y-104078452D01*
X85812380Y-104221309D01*
X85860000Y-104364166D01*
X85955238Y-104459404D01*
X86050476Y-104507023D01*
X86240952Y-104554642D01*
X86383809Y-104554642D01*
X86574285Y-104507023D01*
X86669523Y-104459404D01*
X86764761Y-104364166D01*
X86812380Y-104221309D01*
X86812380Y-104126071D01*
X86764761Y-103983214D01*
X86717142Y-103935595D01*
X86383809Y-103935595D01*
X86383809Y-104126071D01*
X86812380Y-103507023D02*
X85812380Y-103507023D01*
X86812380Y-102935595D01*
X85812380Y-102935595D01*
X86812380Y-102459404D02*
X85812380Y-102459404D01*
X85812380Y-102221309D01*
X85860000Y-102078452D01*
X85955238Y-101983214D01*
X86050476Y-101935595D01*
X86240952Y-101887976D01*
X86383809Y-101887976D01*
X86574285Y-101935595D01*
X86669523Y-101983214D01*
X86764761Y-102078452D01*
X86812380Y-102221309D01*
X86812380Y-102459404D01*
X81684761Y-104316547D02*
X81732380Y-104173690D01*
X81732380Y-103935595D01*
X81684761Y-103840357D01*
X81637142Y-103792738D01*
X81541904Y-103745119D01*
X81446666Y-103745119D01*
X81351428Y-103792738D01*
X81303809Y-103840357D01*
X81256190Y-103935595D01*
X81208571Y-104126071D01*
X81160952Y-104221309D01*
X81113333Y-104268928D01*
X81018095Y-104316547D01*
X80922857Y-104316547D01*
X80827619Y-104268928D01*
X80780000Y-104221309D01*
X80732380Y-104126071D01*
X80732380Y-103887976D01*
X80780000Y-103745119D01*
X81732380Y-103316547D02*
X80732380Y-103316547D01*
X80732380Y-103078452D01*
X80780000Y-102935595D01*
X80875238Y-102840357D01*
X80970476Y-102792738D01*
X81160952Y-102745119D01*
X81303809Y-102745119D01*
X81494285Y-102792738D01*
X81589523Y-102840357D01*
X81684761Y-102935595D01*
X81732380Y-103078452D01*
X81732380Y-103316547D01*
X81446666Y-102364166D02*
X81446666Y-101887976D01*
X81732380Y-102459404D02*
X80732380Y-102126071D01*
X81732380Y-101792738D01*
X84224761Y-104268928D02*
X84272380Y-104126071D01*
X84272380Y-103887976D01*
X84224761Y-103792738D01*
X84177142Y-103745119D01*
X84081904Y-103697500D01*
X83986666Y-103697500D01*
X83891428Y-103745119D01*
X83843809Y-103792738D01*
X83796190Y-103887976D01*
X83748571Y-104078452D01*
X83700952Y-104173690D01*
X83653333Y-104221309D01*
X83558095Y-104268928D01*
X83462857Y-104268928D01*
X83367619Y-104221309D01*
X83320000Y-104173690D01*
X83272380Y-104078452D01*
X83272380Y-103840357D01*
X83320000Y-103697500D01*
X84177142Y-102697500D02*
X84224761Y-102745119D01*
X84272380Y-102887976D01*
X84272380Y-102983214D01*
X84224761Y-103126071D01*
X84129523Y-103221309D01*
X84034285Y-103268928D01*
X83843809Y-103316547D01*
X83700952Y-103316547D01*
X83510476Y-103268928D01*
X83415238Y-103221309D01*
X83320000Y-103126071D01*
X83272380Y-102983214D01*
X83272380Y-102887976D01*
X83320000Y-102745119D01*
X83367619Y-102697500D01*
X84272380Y-101792738D02*
X84272380Y-102268928D01*
X83272380Y-102268928D01*
X78192380Y-104554642D02*
X79192380Y-104316547D01*
X78478095Y-104126071D01*
X79192380Y-103935595D01*
X78192380Y-103697500D01*
X78906666Y-103364166D02*
X78906666Y-102887976D01*
X79192380Y-103459404D02*
X78192380Y-103126071D01*
X79192380Y-102792738D01*
X79192380Y-102459404D02*
X78192380Y-102459404D01*
X79192380Y-101887976D02*
X78620952Y-102316547D01*
X78192380Y-101887976D02*
X78763809Y-102459404D01*
X71286666Y-104364166D02*
X71286666Y-103887976D01*
X71572380Y-104459404D02*
X70572380Y-104126071D01*
X71572380Y-103792738D01*
X71572380Y-103459404D02*
X70572380Y-103459404D01*
X70572380Y-103221309D01*
X70620000Y-103078452D01*
X70715238Y-102983214D01*
X70810476Y-102935595D01*
X71000952Y-102887976D01*
X71143809Y-102887976D01*
X71334285Y-102935595D01*
X71429523Y-102983214D01*
X71524761Y-103078452D01*
X71572380Y-103221309D01*
X71572380Y-103459404D01*
X71572380Y-102459404D02*
X70572380Y-102459404D01*
X70572380Y-102221309D01*
X70620000Y-102078452D01*
X70715238Y-101983214D01*
X70810476Y-101935595D01*
X71000952Y-101887976D01*
X71143809Y-101887976D01*
X71334285Y-101935595D01*
X71429523Y-101983214D01*
X71524761Y-102078452D01*
X71572380Y-102221309D01*
X71572380Y-102459404D01*
%TO.C,J1*%
X57511666Y-121102380D02*
X57511666Y-121816666D01*
X57464047Y-121959523D01*
X57368809Y-122054761D01*
X57225952Y-122102380D01*
X57130714Y-122102380D01*
X58511666Y-122102380D02*
X57940238Y-122102380D01*
X58225952Y-122102380D02*
X58225952Y-121102380D01*
X58130714Y-121245238D01*
X58035476Y-121340476D01*
X57940238Y-121388095D01*
%TO.C,J2*%
X57511666Y-98242380D02*
X57511666Y-98956666D01*
X57464047Y-99099523D01*
X57368809Y-99194761D01*
X57225952Y-99242380D01*
X57130714Y-99242380D01*
X57940238Y-98337619D02*
X57987857Y-98290000D01*
X58083095Y-98242380D01*
X58321190Y-98242380D01*
X58416428Y-98290000D01*
X58464047Y-98337619D01*
X58511666Y-98432857D01*
X58511666Y-98528095D01*
X58464047Y-98670952D01*
X57892619Y-99242380D01*
X58511666Y-99242380D01*
%TO.C,J3*%
X57511666Y-75382380D02*
X57511666Y-76096666D01*
X57464047Y-76239523D01*
X57368809Y-76334761D01*
X57225952Y-76382380D01*
X57130714Y-76382380D01*
X57892619Y-75382380D02*
X58511666Y-75382380D01*
X58178333Y-75763333D01*
X58321190Y-75763333D01*
X58416428Y-75810952D01*
X58464047Y-75858571D01*
X58511666Y-75953809D01*
X58511666Y-76191904D01*
X58464047Y-76287142D01*
X58416428Y-76334761D01*
X58321190Y-76382380D01*
X58035476Y-76382380D01*
X57940238Y-76334761D01*
X57892619Y-76287142D01*
%TO.C,U7*%
X124978095Y-122862380D02*
X124978095Y-123671904D01*
X125025714Y-123767142D01*
X125073333Y-123814761D01*
X125168571Y-123862380D01*
X125359047Y-123862380D01*
X125454285Y-123814761D01*
X125501904Y-123767142D01*
X125549523Y-123671904D01*
X125549523Y-122862380D01*
X125930476Y-122862380D02*
X126597142Y-122862380D01*
X126168571Y-123862380D01*
%TO.C,R1*%
X117943333Y-62682380D02*
X117610000Y-62206190D01*
X117371904Y-62682380D02*
X117371904Y-61682380D01*
X117752857Y-61682380D01*
X117848095Y-61730000D01*
X117895714Y-61777619D01*
X117943333Y-61872857D01*
X117943333Y-62015714D01*
X117895714Y-62110952D01*
X117848095Y-62158571D01*
X117752857Y-62206190D01*
X117371904Y-62206190D01*
X118895714Y-62682380D02*
X118324285Y-62682380D01*
X118610000Y-62682380D02*
X118610000Y-61682380D01*
X118514761Y-61825238D01*
X118419523Y-61920476D01*
X118324285Y-61968095D01*
%TO.C,R2*%
X114133333Y-129992380D02*
X113800000Y-129516190D01*
X113561904Y-129992380D02*
X113561904Y-128992380D01*
X113942857Y-128992380D01*
X114038095Y-129040000D01*
X114085714Y-129087619D01*
X114133333Y-129182857D01*
X114133333Y-129325714D01*
X114085714Y-129420952D01*
X114038095Y-129468571D01*
X113942857Y-129516190D01*
X113561904Y-129516190D01*
X114514285Y-129087619D02*
X114561904Y-129040000D01*
X114657142Y-128992380D01*
X114895238Y-128992380D01*
X114990476Y-129040000D01*
X115038095Y-129087619D01*
X115085714Y-129182857D01*
X115085714Y-129278095D01*
X115038095Y-129420952D01*
X114466666Y-129992380D01*
X115085714Y-129992380D01*
%TO.C,R3*%
X120483333Y-62682380D02*
X120150000Y-62206190D01*
X119911904Y-62682380D02*
X119911904Y-61682380D01*
X120292857Y-61682380D01*
X120388095Y-61730000D01*
X120435714Y-61777619D01*
X120483333Y-61872857D01*
X120483333Y-62015714D01*
X120435714Y-62110952D01*
X120388095Y-62158571D01*
X120292857Y-62206190D01*
X119911904Y-62206190D01*
X120816666Y-61682380D02*
X121435714Y-61682380D01*
X121102380Y-62063333D01*
X121245238Y-62063333D01*
X121340476Y-62110952D01*
X121388095Y-62158571D01*
X121435714Y-62253809D01*
X121435714Y-62491904D01*
X121388095Y-62587142D01*
X121340476Y-62634761D01*
X121245238Y-62682380D01*
X120959523Y-62682380D01*
X120864285Y-62634761D01*
X120816666Y-62587142D01*
%TO.C,R4*%
X120483333Y-110942380D02*
X120150000Y-110466190D01*
X119911904Y-110942380D02*
X119911904Y-109942380D01*
X120292857Y-109942380D01*
X120388095Y-109990000D01*
X120435714Y-110037619D01*
X120483333Y-110132857D01*
X120483333Y-110275714D01*
X120435714Y-110370952D01*
X120388095Y-110418571D01*
X120292857Y-110466190D01*
X119911904Y-110466190D01*
X121340476Y-110275714D02*
X121340476Y-110942380D01*
X121102380Y-109894761D02*
X120864285Y-110609047D01*
X121483333Y-110609047D01*
%TO.C,R5*%
X70953333Y-110942380D02*
X70620000Y-110466190D01*
X70381904Y-110942380D02*
X70381904Y-109942380D01*
X70762857Y-109942380D01*
X70858095Y-109990000D01*
X70905714Y-110037619D01*
X70953333Y-110132857D01*
X70953333Y-110275714D01*
X70905714Y-110370952D01*
X70858095Y-110418571D01*
X70762857Y-110466190D01*
X70381904Y-110466190D01*
X71858095Y-109942380D02*
X71381904Y-109942380D01*
X71334285Y-110418571D01*
X71381904Y-110370952D01*
X71477142Y-110323333D01*
X71715238Y-110323333D01*
X71810476Y-110370952D01*
X71858095Y-110418571D01*
X71905714Y-110513809D01*
X71905714Y-110751904D01*
X71858095Y-110847142D01*
X71810476Y-110894761D01*
X71715238Y-110942380D01*
X71477142Y-110942380D01*
X71381904Y-110894761D01*
X71334285Y-110847142D01*
%TO.C,R6*%
X93813333Y-110942380D02*
X93480000Y-110466190D01*
X93241904Y-110942380D02*
X93241904Y-109942380D01*
X93622857Y-109942380D01*
X93718095Y-109990000D01*
X93765714Y-110037619D01*
X93813333Y-110132857D01*
X93813333Y-110275714D01*
X93765714Y-110370952D01*
X93718095Y-110418571D01*
X93622857Y-110466190D01*
X93241904Y-110466190D01*
X94670476Y-109942380D02*
X94480000Y-109942380D01*
X94384761Y-109990000D01*
X94337142Y-110037619D01*
X94241904Y-110180476D01*
X94194285Y-110370952D01*
X94194285Y-110751904D01*
X94241904Y-110847142D01*
X94289523Y-110894761D01*
X94384761Y-110942380D01*
X94575238Y-110942380D01*
X94670476Y-110894761D01*
X94718095Y-110847142D01*
X94765714Y-110751904D01*
X94765714Y-110513809D01*
X94718095Y-110418571D01*
X94670476Y-110370952D01*
X94575238Y-110323333D01*
X94384761Y-110323333D01*
X94289523Y-110370952D01*
X94241904Y-110418571D01*
X94194285Y-110513809D01*
%TO.C,R7*%
X73493333Y-110942380D02*
X73160000Y-110466190D01*
X72921904Y-110942380D02*
X72921904Y-109942380D01*
X73302857Y-109942380D01*
X73398095Y-109990000D01*
X73445714Y-110037619D01*
X73493333Y-110132857D01*
X73493333Y-110275714D01*
X73445714Y-110370952D01*
X73398095Y-110418571D01*
X73302857Y-110466190D01*
X72921904Y-110466190D01*
X73826666Y-109942380D02*
X74493333Y-109942380D01*
X74064761Y-110942380D01*
%TO.C,R8*%
X76033333Y-110942380D02*
X75700000Y-110466190D01*
X75461904Y-110942380D02*
X75461904Y-109942380D01*
X75842857Y-109942380D01*
X75938095Y-109990000D01*
X75985714Y-110037619D01*
X76033333Y-110132857D01*
X76033333Y-110275714D01*
X75985714Y-110370952D01*
X75938095Y-110418571D01*
X75842857Y-110466190D01*
X75461904Y-110466190D01*
X76604761Y-110370952D02*
X76509523Y-110323333D01*
X76461904Y-110275714D01*
X76414285Y-110180476D01*
X76414285Y-110132857D01*
X76461904Y-110037619D01*
X76509523Y-109990000D01*
X76604761Y-109942380D01*
X76795238Y-109942380D01*
X76890476Y-109990000D01*
X76938095Y-110037619D01*
X76985714Y-110132857D01*
X76985714Y-110180476D01*
X76938095Y-110275714D01*
X76890476Y-110323333D01*
X76795238Y-110370952D01*
X76604761Y-110370952D01*
X76509523Y-110418571D01*
X76461904Y-110466190D01*
X76414285Y-110561428D01*
X76414285Y-110751904D01*
X76461904Y-110847142D01*
X76509523Y-110894761D01*
X76604761Y-110942380D01*
X76795238Y-110942380D01*
X76890476Y-110894761D01*
X76938095Y-110847142D01*
X76985714Y-110751904D01*
X76985714Y-110561428D01*
X76938095Y-110466190D01*
X76890476Y-110418571D01*
X76795238Y-110370952D01*
%TO.C,R9*%
X116673333Y-129992380D02*
X116340000Y-129516190D01*
X116101904Y-129992380D02*
X116101904Y-128992380D01*
X116482857Y-128992380D01*
X116578095Y-129040000D01*
X116625714Y-129087619D01*
X116673333Y-129182857D01*
X116673333Y-129325714D01*
X116625714Y-129420952D01*
X116578095Y-129468571D01*
X116482857Y-129516190D01*
X116101904Y-129516190D01*
X117149523Y-129992380D02*
X117340000Y-129992380D01*
X117435238Y-129944761D01*
X117482857Y-129897142D01*
X117578095Y-129754285D01*
X117625714Y-129563809D01*
X117625714Y-129182857D01*
X117578095Y-129087619D01*
X117530476Y-129040000D01*
X117435238Y-128992380D01*
X117244761Y-128992380D01*
X117149523Y-129040000D01*
X117101904Y-129087619D01*
X117054285Y-129182857D01*
X117054285Y-129420952D01*
X117101904Y-129516190D01*
X117149523Y-129563809D01*
X117244761Y-129611428D01*
X117435238Y-129611428D01*
X117530476Y-129563809D01*
X117578095Y-129516190D01*
X117625714Y-129420952D01*
%TO.C,R10*%
X78097142Y-110942380D02*
X77763809Y-110466190D01*
X77525714Y-110942380D02*
X77525714Y-109942380D01*
X77906666Y-109942380D01*
X78001904Y-109990000D01*
X78049523Y-110037619D01*
X78097142Y-110132857D01*
X78097142Y-110275714D01*
X78049523Y-110370952D01*
X78001904Y-110418571D01*
X77906666Y-110466190D01*
X77525714Y-110466190D01*
X79049523Y-110942380D02*
X78478095Y-110942380D01*
X78763809Y-110942380D02*
X78763809Y-109942380D01*
X78668571Y-110085238D01*
X78573333Y-110180476D01*
X78478095Y-110228095D01*
X79668571Y-109942380D02*
X79763809Y-109942380D01*
X79859047Y-109990000D01*
X79906666Y-110037619D01*
X79954285Y-110132857D01*
X80001904Y-110323333D01*
X80001904Y-110561428D01*
X79954285Y-110751904D01*
X79906666Y-110847142D01*
X79859047Y-110894761D01*
X79763809Y-110942380D01*
X79668571Y-110942380D01*
X79573333Y-110894761D01*
X79525714Y-110847142D01*
X79478095Y-110751904D01*
X79430476Y-110561428D01*
X79430476Y-110323333D01*
X79478095Y-110132857D01*
X79525714Y-110037619D01*
X79573333Y-109990000D01*
X79668571Y-109942380D01*
%TO.C,J4*%
X134311666Y-121577380D02*
X134311666Y-122291666D01*
X134264047Y-122434523D01*
X134168809Y-122529761D01*
X134025952Y-122577380D01*
X133930714Y-122577380D01*
X135216428Y-121910714D02*
X135216428Y-122577380D01*
X134978333Y-121529761D02*
X134740238Y-122244047D01*
X135359285Y-122244047D01*
%TO.C,J5*%
X134311666Y-98717380D02*
X134311666Y-99431666D01*
X134264047Y-99574523D01*
X134168809Y-99669761D01*
X134025952Y-99717380D01*
X133930714Y-99717380D01*
X135264047Y-98717380D02*
X134787857Y-98717380D01*
X134740238Y-99193571D01*
X134787857Y-99145952D01*
X134883095Y-99098333D01*
X135121190Y-99098333D01*
X135216428Y-99145952D01*
X135264047Y-99193571D01*
X135311666Y-99288809D01*
X135311666Y-99526904D01*
X135264047Y-99622142D01*
X135216428Y-99669761D01*
X135121190Y-99717380D01*
X134883095Y-99717380D01*
X134787857Y-99669761D01*
X134740238Y-99622142D01*
%TO.C,J6*%
X134311666Y-75857380D02*
X134311666Y-76571666D01*
X134264047Y-76714523D01*
X134168809Y-76809761D01*
X134025952Y-76857380D01*
X133930714Y-76857380D01*
X135216428Y-75857380D02*
X135025952Y-75857380D01*
X134930714Y-75905000D01*
X134883095Y-75952619D01*
X134787857Y-76095476D01*
X134740238Y-76285952D01*
X134740238Y-76666904D01*
X134787857Y-76762142D01*
X134835476Y-76809761D01*
X134930714Y-76857380D01*
X135121190Y-76857380D01*
X135216428Y-76809761D01*
X135264047Y-76762142D01*
X135311666Y-76666904D01*
X135311666Y-76428809D01*
X135264047Y-76333571D01*
X135216428Y-76285952D01*
X135121190Y-76238333D01*
X134930714Y-76238333D01*
X134835476Y-76285952D01*
X134787857Y-76333571D01*
X134740238Y-76428809D01*
%TO.C,U8*%
X86868095Y-68532380D02*
X86868095Y-69341904D01*
X86915714Y-69437142D01*
X86963333Y-69484761D01*
X87058571Y-69532380D01*
X87249047Y-69532380D01*
X87344285Y-69484761D01*
X87391904Y-69437142D01*
X87439523Y-69341904D01*
X87439523Y-68532380D01*
X88058571Y-68960952D02*
X87963333Y-68913333D01*
X87915714Y-68865714D01*
X87868095Y-68770476D01*
X87868095Y-68722857D01*
X87915714Y-68627619D01*
X87963333Y-68580000D01*
X88058571Y-68532380D01*
X88249047Y-68532380D01*
X88344285Y-68580000D01*
X88391904Y-68627619D01*
X88439523Y-68722857D01*
X88439523Y-68770476D01*
X88391904Y-68865714D01*
X88344285Y-68913333D01*
X88249047Y-68960952D01*
X88058571Y-68960952D01*
X87963333Y-69008571D01*
X87915714Y-69056190D01*
X87868095Y-69151428D01*
X87868095Y-69341904D01*
X87915714Y-69437142D01*
X87963333Y-69484761D01*
X88058571Y-69532380D01*
X88249047Y-69532380D01*
X88344285Y-69484761D01*
X88391904Y-69437142D01*
X88439523Y-69341904D01*
X88439523Y-69151428D01*
X88391904Y-69056190D01*
X88344285Y-69008571D01*
X88249047Y-68960952D01*
%TO.C,JP1*%
X82986666Y-58402380D02*
X82986666Y-59116666D01*
X82939047Y-59259523D01*
X82843809Y-59354761D01*
X82700952Y-59402380D01*
X82605714Y-59402380D01*
X83462857Y-59402380D02*
X83462857Y-58402380D01*
X83843809Y-58402380D01*
X83939047Y-58450000D01*
X83986666Y-58497619D01*
X84034285Y-58592857D01*
X84034285Y-58735714D01*
X83986666Y-58830952D01*
X83939047Y-58878571D01*
X83843809Y-58926190D01*
X83462857Y-58926190D01*
X84986666Y-59402380D02*
X84415238Y-59402380D01*
X84700952Y-59402380D02*
X84700952Y-58402380D01*
X84605714Y-58545238D01*
X84510476Y-58640476D01*
X84415238Y-58688095D01*
%TO.C,J8*%
X68242380Y-95583333D02*
X68956666Y-95583333D01*
X69099523Y-95630952D01*
X69194761Y-95726190D01*
X69242380Y-95869047D01*
X69242380Y-95964285D01*
X68670952Y-94964285D02*
X68623333Y-95059523D01*
X68575714Y-95107142D01*
X68480476Y-95154761D01*
X68432857Y-95154761D01*
X68337619Y-95107142D01*
X68290000Y-95059523D01*
X68242380Y-94964285D01*
X68242380Y-94773809D01*
X68290000Y-94678571D01*
X68337619Y-94630952D01*
X68432857Y-94583333D01*
X68480476Y-94583333D01*
X68575714Y-94630952D01*
X68623333Y-94678571D01*
X68670952Y-94773809D01*
X68670952Y-94964285D01*
X68718571Y-95059523D01*
X68766190Y-95107142D01*
X68861428Y-95154761D01*
X69051904Y-95154761D01*
X69147142Y-95107142D01*
X69194761Y-95059523D01*
X69242380Y-94964285D01*
X69242380Y-94773809D01*
X69194761Y-94678571D01*
X69147142Y-94630952D01*
X69051904Y-94583333D01*
X68861428Y-94583333D01*
X68766190Y-94630952D01*
X68718571Y-94678571D01*
X68670952Y-94773809D01*
%TO.C,JP2*%
X85526666Y-63482380D02*
X85526666Y-64196666D01*
X85479047Y-64339523D01*
X85383809Y-64434761D01*
X85240952Y-64482380D01*
X85145714Y-64482380D01*
X86002857Y-64482380D02*
X86002857Y-63482380D01*
X86383809Y-63482380D01*
X86479047Y-63530000D01*
X86526666Y-63577619D01*
X86574285Y-63672857D01*
X86574285Y-63815714D01*
X86526666Y-63910952D01*
X86479047Y-63958571D01*
X86383809Y-64006190D01*
X86002857Y-64006190D01*
X86955238Y-63577619D02*
X87002857Y-63530000D01*
X87098095Y-63482380D01*
X87336190Y-63482380D01*
X87431428Y-63530000D01*
X87479047Y-63577619D01*
X87526666Y-63672857D01*
X87526666Y-63768095D01*
X87479047Y-63910952D01*
X86907619Y-64482380D01*
X87526666Y-64482380D01*
%TO.C,J7*%
X80957380Y-95583333D02*
X81671666Y-95583333D01*
X81814523Y-95630952D01*
X81909761Y-95726190D01*
X81957380Y-95869047D01*
X81957380Y-95964285D01*
X80957380Y-95202380D02*
X80957380Y-94535714D01*
X81957380Y-94964285D01*
D10*
%TO.C,U1*%
X92456000Y-98950000D02*
X105664000Y-98950000D01*
X105664000Y-119270000D02*
X92456000Y-119270000D01*
X92456000Y-119270000D02*
X92456000Y-98950000D01*
X105664000Y-98950000D02*
X105664000Y-119270000D01*
%TO.C,U2*%
X107950000Y-119380000D02*
X123190000Y-119380000D01*
X107950000Y-99060000D02*
X123190000Y-99060000D01*
X123190000Y-119380000D02*
X123190000Y-99060000D01*
X107950000Y-119380000D02*
X107950000Y-99060000D01*
%TO.C,U3*%
X69850000Y-120650000D02*
X69850000Y-135890000D01*
X85090000Y-120650000D02*
X69850000Y-120650000D01*
X69850000Y-135890000D02*
X85090000Y-135890000D01*
X85090000Y-135890000D02*
X85090000Y-120650000D01*
%TO.C,U4*%
X100330000Y-123190000D02*
X100330000Y-135890000D01*
X87630000Y-123190000D02*
X100330000Y-123190000D01*
X87630000Y-135890000D02*
X87630000Y-123190000D01*
X100330000Y-135890000D02*
X93980000Y-135890000D01*
X93980000Y-135890000D02*
X87630000Y-135890000D01*
%TO.C,U5*%
X106800000Y-95160000D02*
X121800000Y-95160000D01*
X121800000Y-95160000D02*
X121800000Y-52160000D01*
X106800000Y-52160000D02*
X106800000Y-95160000D01*
X121800000Y-52160000D02*
X106800000Y-52160000D01*
%TO.C,U9*%
X102870000Y-123190000D02*
X102870000Y-135890000D01*
X102870000Y-135890000D02*
X118110000Y-135890000D01*
X118110000Y-123190000D02*
X102870000Y-123190000D01*
X118110000Y-135890000D02*
X118110000Y-123190000D01*
%TO.C,U6*%
X90170000Y-114300000D02*
X69850000Y-114300000D01*
X69850000Y-114300000D02*
X69850000Y-99060000D01*
X69850000Y-99060000D02*
X90170000Y-99060000D01*
X90170000Y-99060000D02*
X90170000Y-114300000D01*
%TO.C,J1*%
X50860000Y-119000000D02*
X56860000Y-119000000D01*
X50860000Y-114680000D02*
X50860000Y-113920000D01*
X56860000Y-107060000D02*
X50860000Y-107060000D01*
X56860000Y-119580000D02*
X50860000Y-119580000D01*
X56860000Y-109600000D02*
X50860000Y-109600000D01*
X59520000Y-105350000D02*
X56860000Y-105350000D01*
X64770000Y-120650000D02*
X63500000Y-120650000D01*
X59917071Y-111380000D02*
X59520000Y-111380000D01*
X56860000Y-117220000D02*
X50860000Y-117220000D01*
X50860000Y-117220000D02*
X50860000Y-116460000D01*
X56860000Y-105350000D02*
X56860000Y-120710000D01*
X62457071Y-114680000D02*
X62002929Y-114680000D01*
X59917071Y-113920000D02*
X59520000Y-113920000D01*
X59520000Y-118110000D02*
X56860000Y-118110000D01*
X50860000Y-116460000D02*
X56860000Y-116460000D01*
X56860000Y-119460000D02*
X50860000Y-119460000D01*
X59520000Y-110490000D02*
X56860000Y-110490000D01*
X50860000Y-107060000D02*
X50860000Y-106300000D01*
X59917071Y-119760000D02*
X59520000Y-119760000D01*
X50860000Y-106300000D02*
X56860000Y-106300000D01*
X59917071Y-117220000D02*
X59520000Y-117220000D01*
X59917071Y-106300000D02*
X59520000Y-106300000D01*
X59520000Y-113030000D02*
X56860000Y-113030000D01*
X62390000Y-119760000D02*
X62002929Y-119760000D01*
X62457071Y-116460000D02*
X62002929Y-116460000D01*
X59917071Y-112140000D02*
X59520000Y-112140000D01*
X62457071Y-107060000D02*
X62002929Y-107060000D01*
X50860000Y-119760000D02*
X50860000Y-119000000D01*
X50860000Y-111380000D02*
X56860000Y-111380000D01*
X59520000Y-115570000D02*
X56860000Y-115570000D01*
X59917071Y-119000000D02*
X59520000Y-119000000D01*
X50860000Y-108840000D02*
X56860000Y-108840000D01*
X56860000Y-119220000D02*
X50860000Y-119220000D01*
X59917071Y-109600000D02*
X59520000Y-109600000D01*
X62390000Y-119000000D02*
X62002929Y-119000000D01*
X59917071Y-108840000D02*
X59520000Y-108840000D01*
X62457071Y-106300000D02*
X62002929Y-106300000D01*
X64770000Y-119380000D02*
X64770000Y-120650000D01*
X59520000Y-120710000D02*
X59520000Y-105350000D01*
X62457071Y-113920000D02*
X62002929Y-113920000D01*
X50860000Y-109600000D02*
X50860000Y-108840000D01*
X50860000Y-113920000D02*
X56860000Y-113920000D01*
X62457071Y-117220000D02*
X62002929Y-117220000D01*
X56860000Y-114680000D02*
X50860000Y-114680000D01*
X59917071Y-107060000D02*
X59520000Y-107060000D01*
X62457071Y-109600000D02*
X62002929Y-109600000D01*
X62457071Y-111380000D02*
X62002929Y-111380000D01*
X59917071Y-116460000D02*
X59520000Y-116460000D01*
X56860000Y-120710000D02*
X59520000Y-120710000D01*
X62457071Y-108840000D02*
X62002929Y-108840000D01*
X56860000Y-119760000D02*
X50860000Y-119760000D01*
X56860000Y-119100000D02*
X50860000Y-119100000D01*
X50860000Y-112140000D02*
X50860000Y-111380000D01*
X56860000Y-119700000D02*
X50860000Y-119700000D01*
X59917071Y-114680000D02*
X59520000Y-114680000D01*
X56860000Y-119340000D02*
X50860000Y-119340000D01*
X56860000Y-112140000D02*
X50860000Y-112140000D01*
X59520000Y-107950000D02*
X56860000Y-107950000D01*
X62457071Y-112140000D02*
X62002929Y-112140000D01*
%TO.C,J2*%
X56860000Y-96480000D02*
X50860000Y-96480000D01*
X50860000Y-89280000D02*
X50860000Y-88520000D01*
X50860000Y-93600000D02*
X56860000Y-93600000D01*
X59917071Y-91820000D02*
X59520000Y-91820000D01*
X62457071Y-93600000D02*
X62002929Y-93600000D01*
X50860000Y-96140000D02*
X56860000Y-96140000D01*
X50860000Y-86740000D02*
X50860000Y-85980000D01*
X62457071Y-83440000D02*
X62002929Y-83440000D01*
X59917071Y-85980000D02*
X59520000Y-85980000D01*
X59917071Y-96140000D02*
X59520000Y-96140000D01*
X59520000Y-95250000D02*
X56860000Y-95250000D01*
X50860000Y-94360000D02*
X50860000Y-93600000D01*
X50860000Y-84200000D02*
X50860000Y-83440000D01*
X59917071Y-93600000D02*
X59520000Y-93600000D01*
X62457071Y-91820000D02*
X62002929Y-91820000D01*
X56860000Y-89280000D02*
X50860000Y-89280000D01*
X62390000Y-96900000D02*
X62002929Y-96900000D01*
X59520000Y-87630000D02*
X56860000Y-87630000D01*
X59917071Y-96900000D02*
X59520000Y-96900000D01*
X50860000Y-83440000D02*
X56860000Y-83440000D01*
X56860000Y-96360000D02*
X50860000Y-96360000D01*
X56860000Y-82490000D02*
X56860000Y-97850000D01*
X62457071Y-85980000D02*
X62002929Y-85980000D01*
X64770000Y-97790000D02*
X63500000Y-97790000D01*
X59520000Y-85090000D02*
X56860000Y-85090000D01*
X59917071Y-89280000D02*
X59520000Y-89280000D01*
X62457071Y-94360000D02*
X62002929Y-94360000D01*
X59917071Y-83440000D02*
X59520000Y-83440000D01*
X62457071Y-84200000D02*
X62002929Y-84200000D01*
X56860000Y-86740000D02*
X50860000Y-86740000D01*
X56860000Y-91820000D02*
X50860000Y-91820000D01*
X62457071Y-91060000D02*
X62002929Y-91060000D01*
X56860000Y-94360000D02*
X50860000Y-94360000D01*
X59520000Y-90170000D02*
X56860000Y-90170000D01*
X59917071Y-94360000D02*
X59520000Y-94360000D01*
X56860000Y-96840000D02*
X50860000Y-96840000D01*
X56860000Y-97850000D02*
X59520000Y-97850000D01*
X56860000Y-96720000D02*
X50860000Y-96720000D01*
X50860000Y-88520000D02*
X56860000Y-88520000D01*
X62457071Y-89280000D02*
X62002929Y-89280000D01*
X59520000Y-97850000D02*
X59520000Y-82490000D01*
X59917071Y-88520000D02*
X59520000Y-88520000D01*
X50860000Y-96900000D02*
X50860000Y-96140000D01*
X62457071Y-86740000D02*
X62002929Y-86740000D01*
X56860000Y-96600000D02*
X50860000Y-96600000D01*
X59917071Y-86740000D02*
X59520000Y-86740000D01*
X50860000Y-85980000D02*
X56860000Y-85980000D01*
X59917071Y-91060000D02*
X59520000Y-91060000D01*
X64770000Y-96520000D02*
X64770000Y-97790000D01*
X59917071Y-84200000D02*
X59520000Y-84200000D01*
X50860000Y-91820000D02*
X50860000Y-91060000D01*
X50860000Y-91060000D02*
X56860000Y-91060000D01*
X59520000Y-92710000D02*
X56860000Y-92710000D01*
X59520000Y-82490000D02*
X56860000Y-82490000D01*
X62390000Y-96140000D02*
X62002929Y-96140000D01*
X56860000Y-84200000D02*
X50860000Y-84200000D01*
X62457071Y-88520000D02*
X62002929Y-88520000D01*
X56860000Y-96240000D02*
X50860000Y-96240000D01*
X56860000Y-96900000D02*
X50860000Y-96900000D01*
%TO.C,J3*%
X50860000Y-66420000D02*
X50860000Y-65660000D01*
X50860000Y-65660000D02*
X56860000Y-65660000D01*
X56860000Y-74040000D02*
X50860000Y-74040000D01*
X50860000Y-63880000D02*
X50860000Y-63120000D01*
X59520000Y-74990000D02*
X59520000Y-59630000D01*
X64770000Y-74930000D02*
X63500000Y-74930000D01*
X50860000Y-60580000D02*
X56860000Y-60580000D01*
X62390000Y-74040000D02*
X62002929Y-74040000D01*
X59917071Y-60580000D02*
X59520000Y-60580000D01*
X56860000Y-73380000D02*
X50860000Y-73380000D01*
X59917071Y-74040000D02*
X59520000Y-74040000D01*
X56860000Y-73620000D02*
X50860000Y-73620000D01*
X59520000Y-72390000D02*
X56860000Y-72390000D01*
X50860000Y-61340000D02*
X50860000Y-60580000D01*
X62457071Y-61340000D02*
X62002929Y-61340000D01*
X59917071Y-63120000D02*
X59520000Y-63120000D01*
X62457071Y-66420000D02*
X62002929Y-66420000D01*
X56860000Y-74990000D02*
X59520000Y-74990000D01*
X64770000Y-73660000D02*
X64770000Y-74930000D01*
X62457071Y-68960000D02*
X62002929Y-68960000D01*
X59520000Y-62230000D02*
X56860000Y-62230000D01*
X59520000Y-59630000D02*
X56860000Y-59630000D01*
X56860000Y-73860000D02*
X50860000Y-73860000D01*
X56860000Y-73980000D02*
X50860000Y-73980000D01*
X59917071Y-61340000D02*
X59520000Y-61340000D01*
X59520000Y-64770000D02*
X56860000Y-64770000D01*
X59917071Y-73280000D02*
X59520000Y-73280000D01*
X56860000Y-59630000D02*
X56860000Y-74990000D01*
X56860000Y-71500000D02*
X50860000Y-71500000D01*
X59520000Y-69850000D02*
X56860000Y-69850000D01*
X56860000Y-61340000D02*
X50860000Y-61340000D01*
X59917071Y-70740000D02*
X59520000Y-70740000D01*
X50860000Y-68200000D02*
X56860000Y-68200000D01*
X56860000Y-63880000D02*
X50860000Y-63880000D01*
X50860000Y-63120000D02*
X56860000Y-63120000D01*
X59917071Y-63880000D02*
X59520000Y-63880000D01*
X50860000Y-71500000D02*
X50860000Y-70740000D01*
X62457071Y-71500000D02*
X62002929Y-71500000D01*
X59917071Y-68200000D02*
X59520000Y-68200000D01*
X62457071Y-60580000D02*
X62002929Y-60580000D01*
X50860000Y-73280000D02*
X56860000Y-73280000D01*
X50860000Y-70740000D02*
X56860000Y-70740000D01*
X56860000Y-68960000D02*
X50860000Y-68960000D01*
X62390000Y-73280000D02*
X62002929Y-73280000D01*
X59917071Y-68960000D02*
X59520000Y-68960000D01*
X62457071Y-63120000D02*
X62002929Y-63120000D01*
X62457071Y-65660000D02*
X62002929Y-65660000D01*
X50860000Y-68960000D02*
X50860000Y-68200000D01*
X50860000Y-74040000D02*
X50860000Y-73280000D01*
X56860000Y-73740000D02*
X50860000Y-73740000D01*
X62457071Y-70740000D02*
X62002929Y-70740000D01*
X59917071Y-66420000D02*
X59520000Y-66420000D01*
X62457071Y-63880000D02*
X62002929Y-63880000D01*
X62457071Y-68200000D02*
X62002929Y-68200000D01*
X59520000Y-67310000D02*
X56860000Y-67310000D01*
X59917071Y-65660000D02*
X59520000Y-65660000D01*
X56860000Y-73500000D02*
X50860000Y-73500000D01*
X59917071Y-71500000D02*
X59520000Y-71500000D01*
X56860000Y-66420000D02*
X50860000Y-66420000D01*
%TO.C,U7*%
X123090000Y-134690000D02*
X128390000Y-134690000D01*
X130880000Y-134750000D02*
X130880000Y-124350000D01*
X124740000Y-124410000D02*
X123090000Y-124410000D01*
X123090000Y-124410000D02*
X123090000Y-134690000D01*
X120600000Y-124350000D02*
X120600000Y-134750000D01*
X128390000Y-134690000D02*
X128390000Y-124410000D01*
X120600000Y-134750000D02*
X130880000Y-134750000D01*
X128390000Y-124410000D02*
X126740000Y-124410000D01*
X130880000Y-124350000D02*
X120600000Y-124350000D01*
X124740000Y-124410000D02*
G75*
G03*
X126740000Y-124410000I1000000J0D01*
G01*
%TO.C,R1*%
X117375000Y-59917064D02*
X117375000Y-59462936D01*
X118845000Y-59917064D02*
X118845000Y-59462936D01*
%TO.C,R2*%
X115035000Y-126772936D02*
X115035000Y-127227064D01*
X113565000Y-126772936D02*
X113565000Y-127227064D01*
%TO.C,R3*%
X119915000Y-59917064D02*
X119915000Y-59462936D01*
X121385000Y-59917064D02*
X121385000Y-59462936D01*
%TO.C,R4*%
X119915000Y-108177064D02*
X119915000Y-107722936D01*
X121385000Y-108177064D02*
X121385000Y-107722936D01*
%TO.C,R5*%
X70385000Y-108177064D02*
X70385000Y-107722936D01*
X71855000Y-108177064D02*
X71855000Y-107722936D01*
%TO.C,R6*%
X93245000Y-108177064D02*
X93245000Y-107722936D01*
X94715000Y-108177064D02*
X94715000Y-107722936D01*
%TO.C,R7*%
X74395000Y-108177064D02*
X74395000Y-107722936D01*
X72925000Y-108177064D02*
X72925000Y-107722936D01*
%TO.C,R8*%
X76935000Y-108177064D02*
X76935000Y-107722936D01*
X75465000Y-108177064D02*
X75465000Y-107722936D01*
%TO.C,R9*%
X117575000Y-126772936D02*
X117575000Y-127227064D01*
X116105000Y-126772936D02*
X116105000Y-127227064D01*
%TO.C,R10*%
X79475000Y-108177064D02*
X79475000Y-107722936D01*
X78005000Y-108177064D02*
X78005000Y-107722936D01*
%TO.C,J4*%
X141625000Y-119029765D02*
X132995000Y-119029765D01*
X141625000Y-115545000D02*
X132995000Y-115545000D01*
X141625000Y-119620240D02*
X132995000Y-119620240D01*
X130485000Y-118995000D02*
X130105000Y-118995000D01*
X130485000Y-111375000D02*
X130045000Y-111375000D01*
X141625000Y-120210715D02*
X132995000Y-120210715D01*
X141625000Y-119502145D02*
X132995000Y-119502145D01*
X132995000Y-114635000D02*
X132585000Y-114635000D01*
X132995000Y-109555000D02*
X132585000Y-109555000D01*
X130485000Y-114635000D02*
X130045000Y-114635000D01*
X141625000Y-120328810D02*
X132995000Y-120328810D01*
X141625000Y-118203100D02*
X132995000Y-118203100D01*
X141625000Y-107925000D02*
X132995000Y-107925000D01*
X130485000Y-116455000D02*
X130045000Y-116455000D01*
X141625000Y-119384050D02*
X132995000Y-119384050D01*
X130485000Y-119715000D02*
X130105000Y-119715000D01*
X141625000Y-120446905D02*
X132995000Y-120446905D01*
X130485000Y-109555000D02*
X130045000Y-109555000D01*
X141625000Y-120685000D02*
X141625000Y-105325000D01*
X132995000Y-118995000D02*
X132585000Y-118995000D01*
X141625000Y-120685000D02*
X132995000Y-120685000D01*
X130485000Y-107015000D02*
X130045000Y-107015000D01*
X141625000Y-118321195D02*
X132995000Y-118321195D01*
X128995000Y-120685000D02*
X127885000Y-120685000D01*
X141625000Y-118557385D02*
X132995000Y-118557385D01*
X127885000Y-120685000D02*
X127885000Y-119355000D01*
X130485000Y-113915000D02*
X130045000Y-113915000D01*
X141625000Y-119856430D02*
X132995000Y-119856430D01*
X132995000Y-116455000D02*
X132585000Y-116455000D01*
X130485000Y-106295000D02*
X130045000Y-106295000D01*
X132995000Y-111375000D02*
X132585000Y-111375000D01*
X141625000Y-110465000D02*
X132995000Y-110465000D01*
X132995000Y-108835000D02*
X132585000Y-108835000D01*
X141625000Y-113005000D02*
X132995000Y-113005000D01*
X141625000Y-118439290D02*
X132995000Y-118439290D01*
X141625000Y-120565000D02*
X132995000Y-120565000D01*
X132995000Y-106295000D02*
X132585000Y-106295000D01*
X132995000Y-120685000D02*
X132995000Y-105325000D01*
X141625000Y-118911670D02*
X132995000Y-118911670D01*
X141625000Y-119265955D02*
X132995000Y-119265955D01*
X141625000Y-119147860D02*
X132995000Y-119147860D01*
X141625000Y-118675480D02*
X132995000Y-118675480D01*
X141625000Y-120092620D02*
X132995000Y-120092620D01*
X141625000Y-118085000D02*
X132995000Y-118085000D01*
X141625000Y-119738335D02*
X132995000Y-119738335D01*
X132995000Y-107015000D02*
X132585000Y-107015000D01*
X130485000Y-112095000D02*
X130045000Y-112095000D01*
X132995000Y-112095000D02*
X132585000Y-112095000D01*
X132995000Y-119715000D02*
X132585000Y-119715000D01*
X141625000Y-105325000D02*
X132995000Y-105325000D01*
X132995000Y-113915000D02*
X132585000Y-113915000D01*
X141625000Y-119974525D02*
X132995000Y-119974525D01*
X130485000Y-117175000D02*
X130045000Y-117175000D01*
X132995000Y-117175000D02*
X132585000Y-117175000D01*
X141625000Y-118793575D02*
X132995000Y-118793575D01*
X130485000Y-108835000D02*
X130045000Y-108835000D01*
%TO.C,J5*%
X141625000Y-97586905D02*
X132995000Y-97586905D01*
X141625000Y-97350715D02*
X132995000Y-97350715D01*
X141625000Y-95579290D02*
X132995000Y-95579290D01*
X141625000Y-95343100D02*
X132995000Y-95343100D01*
X141625000Y-97825000D02*
X132995000Y-97825000D01*
X132995000Y-84155000D02*
X132585000Y-84155000D01*
X141625000Y-96996430D02*
X132995000Y-96996430D01*
X130485000Y-91055000D02*
X130045000Y-91055000D01*
X130485000Y-93595000D02*
X130045000Y-93595000D01*
X141625000Y-95697385D02*
X132995000Y-95697385D01*
X130485000Y-96135000D02*
X130105000Y-96135000D01*
X141625000Y-96878335D02*
X132995000Y-96878335D01*
X141625000Y-96642145D02*
X132995000Y-96642145D01*
X141625000Y-95225000D02*
X132995000Y-95225000D01*
X132995000Y-96855000D02*
X132585000Y-96855000D01*
X132995000Y-94315000D02*
X132585000Y-94315000D01*
X141625000Y-97114525D02*
X132995000Y-97114525D01*
X141625000Y-92685000D02*
X132995000Y-92685000D01*
X132995000Y-96135000D02*
X132585000Y-96135000D01*
X127885000Y-97825000D02*
X127885000Y-96495000D01*
X141625000Y-87605000D02*
X132995000Y-87605000D01*
X130485000Y-94315000D02*
X130045000Y-94315000D01*
X132995000Y-89235000D02*
X132585000Y-89235000D01*
X141625000Y-97705000D02*
X132995000Y-97705000D01*
X132995000Y-91055000D02*
X132585000Y-91055000D01*
X141625000Y-97825000D02*
X141625000Y-82465000D01*
X132995000Y-97825000D02*
X132995000Y-82465000D01*
X130485000Y-85975000D02*
X130045000Y-85975000D01*
X130485000Y-86695000D02*
X130045000Y-86695000D01*
X141625000Y-96760240D02*
X132995000Y-96760240D01*
X132995000Y-93595000D02*
X132585000Y-93595000D01*
X132995000Y-91775000D02*
X132585000Y-91775000D01*
X141625000Y-97468810D02*
X132995000Y-97468810D01*
X128995000Y-97825000D02*
X127885000Y-97825000D01*
X132995000Y-83435000D02*
X132585000Y-83435000D01*
X132995000Y-88515000D02*
X132585000Y-88515000D01*
X141625000Y-82465000D02*
X132995000Y-82465000D01*
X130485000Y-89235000D02*
X130045000Y-89235000D01*
X141625000Y-95461195D02*
X132995000Y-95461195D01*
X141625000Y-96524050D02*
X132995000Y-96524050D01*
X141625000Y-96405955D02*
X132995000Y-96405955D01*
X130485000Y-83435000D02*
X130045000Y-83435000D01*
X141625000Y-90145000D02*
X132995000Y-90145000D01*
X141625000Y-85065000D02*
X132995000Y-85065000D01*
X141625000Y-96169765D02*
X132995000Y-96169765D01*
X141625000Y-97232620D02*
X132995000Y-97232620D01*
X141625000Y-95933575D02*
X132995000Y-95933575D01*
X141625000Y-95815480D02*
X132995000Y-95815480D01*
X141625000Y-96051670D02*
X132995000Y-96051670D01*
X130485000Y-91775000D02*
X130045000Y-91775000D01*
X130485000Y-88515000D02*
X130045000Y-88515000D01*
X132995000Y-86695000D02*
X132585000Y-86695000D01*
X130485000Y-84155000D02*
X130045000Y-84155000D01*
X132995000Y-85975000D02*
X132585000Y-85975000D01*
X141625000Y-96287860D02*
X132995000Y-96287860D01*
X130485000Y-96855000D02*
X130105000Y-96855000D01*
%TO.C,J6*%
X132995000Y-71455000D02*
X132585000Y-71455000D01*
X127885000Y-74965000D02*
X127885000Y-73635000D01*
X130485000Y-66375000D02*
X130045000Y-66375000D01*
X141625000Y-72601195D02*
X132995000Y-72601195D01*
X141625000Y-59605000D02*
X132995000Y-59605000D01*
X141625000Y-62205000D02*
X132995000Y-62205000D01*
X141625000Y-73427860D02*
X132995000Y-73427860D01*
X130485000Y-70735000D02*
X130045000Y-70735000D01*
X141625000Y-74372620D02*
X132995000Y-74372620D01*
X141625000Y-74965000D02*
X141625000Y-59605000D01*
X141625000Y-74608810D02*
X132995000Y-74608810D01*
X132995000Y-74965000D02*
X132995000Y-59605000D01*
X132995000Y-66375000D02*
X132585000Y-66375000D01*
X130485000Y-71455000D02*
X130045000Y-71455000D01*
X132995000Y-65655000D02*
X132585000Y-65655000D01*
X141625000Y-74490715D02*
X132995000Y-74490715D01*
X132995000Y-68195000D02*
X132585000Y-68195000D01*
X141625000Y-73073575D02*
X132995000Y-73073575D01*
X130485000Y-60575000D02*
X130045000Y-60575000D01*
X141625000Y-74726905D02*
X132995000Y-74726905D01*
X130485000Y-63115000D02*
X130045000Y-63115000D01*
X130485000Y-63835000D02*
X130045000Y-63835000D01*
X132995000Y-73995000D02*
X132585000Y-73995000D01*
X130485000Y-65655000D02*
X130045000Y-65655000D01*
X141625000Y-73309765D02*
X132995000Y-73309765D01*
X141625000Y-73782145D02*
X132995000Y-73782145D01*
X132995000Y-73275000D02*
X132585000Y-73275000D01*
X141625000Y-67285000D02*
X132995000Y-67285000D01*
X132995000Y-68915000D02*
X132585000Y-68915000D01*
X130485000Y-73995000D02*
X130105000Y-73995000D01*
X128995000Y-74965000D02*
X127885000Y-74965000D01*
X132995000Y-61295000D02*
X132585000Y-61295000D01*
X141625000Y-72719290D02*
X132995000Y-72719290D01*
X130485000Y-61295000D02*
X130045000Y-61295000D01*
X141625000Y-74136430D02*
X132995000Y-74136430D01*
X141625000Y-74965000D02*
X132995000Y-74965000D01*
X132995000Y-70735000D02*
X132585000Y-70735000D01*
X141625000Y-72483100D02*
X132995000Y-72483100D01*
X141625000Y-72837385D02*
X132995000Y-72837385D01*
X141625000Y-73191670D02*
X132995000Y-73191670D01*
X132995000Y-60575000D02*
X132585000Y-60575000D01*
X141625000Y-72365000D02*
X132995000Y-72365000D01*
X130485000Y-68915000D02*
X130045000Y-68915000D01*
X130485000Y-73275000D02*
X130105000Y-73275000D01*
X141625000Y-74845000D02*
X132995000Y-74845000D01*
X141625000Y-74018335D02*
X132995000Y-74018335D01*
X132995000Y-63115000D02*
X132585000Y-63115000D01*
X141625000Y-73545955D02*
X132995000Y-73545955D01*
X132995000Y-63835000D02*
X132585000Y-63835000D01*
X141625000Y-69825000D02*
X132995000Y-69825000D01*
X141625000Y-73664050D02*
X132995000Y-73664050D01*
X141625000Y-73900240D02*
X132995000Y-73900240D01*
X130485000Y-68195000D02*
X130045000Y-68195000D01*
X141625000Y-74254525D02*
X132995000Y-74254525D01*
X141625000Y-72955480D02*
X132995000Y-72955480D01*
X141625000Y-64745000D02*
X132995000Y-64745000D01*
%TO.C,U8*%
X69630000Y-52070000D02*
X105410000Y-52070000D01*
X69850000Y-83580000D02*
X105410000Y-83580000D01*
X105410000Y-52070000D02*
X105410000Y-83580000D01*
X69850000Y-83580000D02*
X69630000Y-52070000D01*
%TO.C,JP1*%
X85870000Y-56850000D02*
X85870000Y-57450000D01*
X82420000Y-56150000D02*
X85220000Y-56150000D01*
X81770000Y-57450000D02*
X81770000Y-56850000D01*
X85020000Y-55950000D02*
X84720000Y-55650000D01*
X85220000Y-58150000D02*
X82420000Y-58150000D01*
X85020000Y-55950000D02*
X85320000Y-55650000D01*
X85320000Y-55650000D02*
X84720000Y-55650000D01*
X85870000Y-56850000D02*
G75*
G03*
X85170000Y-56150000I-699999J1D01*
G01*
X82470000Y-56150000D02*
G75*
G03*
X81770000Y-56850000I0J-700000D01*
G01*
X81770000Y-57450000D02*
G75*
G03*
X82470000Y-58150000I700000J0D01*
G01*
X85170000Y-58150000D02*
G75*
G03*
X85870000Y-57450000I1J699999D01*
G01*
%TO.C,J8*%
X77530000Y-97850000D02*
X77530000Y-92650000D01*
X69790000Y-92650000D02*
X77530000Y-92650000D01*
X72390000Y-97850000D02*
X77530000Y-97850000D01*
X71120000Y-97850000D02*
X69790000Y-97850000D01*
X69790000Y-97850000D02*
X69790000Y-96520000D01*
X72390000Y-95250000D02*
X69790000Y-95250000D01*
X69790000Y-95250000D02*
X69790000Y-92650000D01*
X72390000Y-97850000D02*
X72390000Y-95250000D01*
%TO.C,JP2*%
X84310000Y-62530000D02*
X84310000Y-61930000D01*
X88410000Y-61930000D02*
X88410000Y-62530000D01*
X84960000Y-61230000D02*
X87760000Y-61230000D01*
X87560000Y-61030000D02*
X87860000Y-60730000D01*
X87860000Y-60730000D02*
X87260000Y-60730000D01*
X87560000Y-61030000D02*
X87260000Y-60730000D01*
X87760000Y-63230000D02*
X84960000Y-63230000D01*
X88410000Y-61930000D02*
G75*
G03*
X87710000Y-61230000I-699999J1D01*
G01*
X85010000Y-61230000D02*
G75*
G03*
X84310000Y-61930000I0J-700000D01*
G01*
X87710000Y-63230000D02*
G75*
G03*
X88410000Y-62530000I1J699999D01*
G01*
X84310000Y-62530000D02*
G75*
G03*
X85010000Y-63230000I700000J0D01*
G01*
%TO.C,J7*%
X90245000Y-97850000D02*
X90245000Y-92650000D01*
X85105000Y-97850000D02*
X85105000Y-95250000D01*
X85105000Y-97850000D02*
X90245000Y-97850000D01*
X82505000Y-97850000D02*
X82505000Y-96520000D01*
X82505000Y-92650000D02*
X90245000Y-92650000D01*
X85105000Y-95250000D02*
X82505000Y-95250000D01*
X82505000Y-95250000D02*
X82505000Y-92650000D01*
X83835000Y-97850000D02*
X82505000Y-97850000D01*
%TD*%
M02*
