%TF.GenerationSoftware,KiCad,Pcbnew,(6.0.5)*%
%TF.CreationDate,2022-07-15T12:31:06+02:00*%
%TF.ProjectId,i2c_modules,6932635f-6d6f-4647-956c-65732e6b6963,rev?*%
%TF.SameCoordinates,Original*%
%TF.FileFunction,Soldermask,Top*%
%TF.FilePolarity,Negative*%
%FSLAX46Y46*%
G04 Gerber Fmt 4.6, Leading zero omitted, Abs format (unit mm)*
G04 Created by KiCad (PCBNEW (6.0.5)) date 2022-07-15 12:31:06*
%MOMM*%
%LPD*%
G01*
G04 APERTURE LIST*
G04 Aperture macros list*
%AMRoundRect*
0 Rectangle with rounded corners*
0 $1 Rounding radius*
0 $2 $3 $4 $5 $6 $7 $8 $9 X,Y pos of 4 corners*
0 Add a 4 corners polygon primitive as box body*
4,1,4,$2,$3,$4,$5,$6,$7,$8,$9,$2,$3,0*
0 Add four circle primitives for the rounded corners*
1,1,$1+$1,$2,$3*
1,1,$1+$1,$4,$5*
1,1,$1+$1,$6,$7*
1,1,$1+$1,$8,$9*
0 Add four rect primitives between the rounded corners*
20,1,$1+$1,$2,$3,$4,$5,0*
20,1,$1+$1,$4,$5,$6,$7,0*
20,1,$1+$1,$6,$7,$8,$9,0*
20,1,$1+$1,$8,$9,$2,$3,0*%
%AMFreePoly0*
4,1,22,0.550000,-0.750000,0.000000,-0.750000,0.000000,-0.745033,-0.079941,-0.743568,-0.215256,-0.701293,-0.333266,-0.622738,-0.424486,-0.514219,-0.481581,-0.384460,-0.499164,-0.250000,-0.500000,-0.250000,-0.500000,0.250000,-0.499164,0.250000,-0.499963,0.256109,-0.478152,0.396186,-0.417904,0.524511,-0.324060,0.630769,-0.204165,0.706417,-0.067858,0.745374,0.000000,0.744959,0.000000,0.750000,
0.550000,0.750000,0.550000,-0.750000,0.550000,-0.750000,$1*%
%AMFreePoly1*
4,1,20,0.000000,0.744959,0.073905,0.744508,0.209726,0.703889,0.328688,0.626782,0.421226,0.519385,0.479903,0.390333,0.500000,0.250000,0.500000,-0.250000,0.499851,-0.262216,0.476331,-0.402017,0.414519,-0.529596,0.319384,-0.634700,0.198574,-0.708877,0.061801,-0.746166,0.000000,-0.745033,0.000000,-0.750000,-0.550000,-0.750000,-0.550000,0.750000,0.000000,0.750000,0.000000,0.744959,
0.000000,0.744959,$1*%
G04 Aperture macros list end*
%ADD10C,1.524000*%
%ADD11C,3.000000*%
%ADD12R,1.700000X1.700000*%
%ADD13O,1.700000X1.700000*%
%ADD14R,1.600000X1.600000*%
%ADD15O,1.600000X1.600000*%
%ADD16RoundRect,0.250000X0.450000X-0.350000X0.450000X0.350000X-0.450000X0.350000X-0.450000X-0.350000X0*%
%ADD17RoundRect,0.250000X-0.450000X0.350000X-0.450000X-0.350000X0.450000X-0.350000X0.450000X0.350000X0*%
%ADD18C,0.800000*%
%ADD19C,6.400000*%
%ADD20FreePoly0,180.000000*%
%ADD21R,1.000000X1.500000*%
%ADD22FreePoly1,180.000000*%
G04 APERTURE END LIST*
D10*
%TO.C,U1*%
X104140000Y-100330000D03*
X101600000Y-100330000D03*
X99060000Y-100330000D03*
X96520000Y-100330000D03*
X93980000Y-100330000D03*
%TD*%
%TO.C,U2*%
X120650000Y-100330000D03*
X118110000Y-100330000D03*
X115570000Y-100330000D03*
X113030000Y-100330000D03*
X110490000Y-100330000D03*
%TD*%
%TO.C,U3*%
X73660000Y-134620000D03*
X76200000Y-134620000D03*
X78740000Y-134620000D03*
X81280000Y-134620000D03*
%TD*%
%TO.C,U4*%
X99060000Y-124460000D03*
X88900000Y-124460000D03*
X90170000Y-134620000D03*
X92710000Y-134620000D03*
X95250000Y-134620000D03*
X97790000Y-134620000D03*
%TD*%
D11*
%TO.C,U5*%
X119380000Y-92710000D03*
X109220000Y-92710000D03*
D10*
X120650000Y-53340000D03*
X118110000Y-53340000D03*
X115570000Y-53340000D03*
X113030000Y-53340000D03*
X110490000Y-53340000D03*
X107950000Y-53340000D03*
%TD*%
%TO.C,U9*%
X104140000Y-134620000D03*
X106680000Y-134620000D03*
X109220000Y-134620000D03*
X111760000Y-134620000D03*
X114300000Y-134620000D03*
X116840000Y-134620000D03*
%TD*%
%TO.C,U6*%
X88900000Y-100330000D03*
X86360000Y-100330000D03*
X83820000Y-100330000D03*
X81280000Y-100330000D03*
X78740000Y-100330000D03*
X76200000Y-100330000D03*
X73660000Y-100330000D03*
X71120000Y-100330000D03*
%TD*%
D12*
%TO.C,J1*%
X63500000Y-119380000D03*
D13*
X60960000Y-119380000D03*
X63500000Y-116840000D03*
X60960000Y-116840000D03*
X63500000Y-114300000D03*
X60960000Y-114300000D03*
X63500000Y-111760000D03*
X60960000Y-111760000D03*
X63500000Y-109220000D03*
X60960000Y-109220000D03*
X63500000Y-106680000D03*
X60960000Y-106680000D03*
%TD*%
D12*
%TO.C,J2*%
X63500000Y-96520000D03*
D13*
X60960000Y-96520000D03*
X63500000Y-93980000D03*
X60960000Y-93980000D03*
X63500000Y-91440000D03*
X60960000Y-91440000D03*
X63500000Y-88900000D03*
X60960000Y-88900000D03*
X63500000Y-86360000D03*
X60960000Y-86360000D03*
X63500000Y-83820000D03*
X60960000Y-83820000D03*
%TD*%
D12*
%TO.C,J3*%
X63500000Y-73660000D03*
D13*
X60960000Y-73660000D03*
X63500000Y-71120000D03*
X60960000Y-71120000D03*
X63500000Y-68580000D03*
X60960000Y-68580000D03*
X63500000Y-66040000D03*
X60960000Y-66040000D03*
X63500000Y-63500000D03*
X60960000Y-63500000D03*
X63500000Y-60960000D03*
X60960000Y-60960000D03*
%TD*%
D14*
%TO.C,U7*%
X121930000Y-125740000D03*
D15*
X121930000Y-128280000D03*
X121930000Y-130820000D03*
X121930000Y-133360000D03*
X129550000Y-133360000D03*
X129550000Y-130820000D03*
X129550000Y-128280000D03*
X129550000Y-125740000D03*
%TD*%
D16*
%TO.C,R1*%
X118110000Y-60690000D03*
X118110000Y-58690000D03*
%TD*%
D17*
%TO.C,R2*%
X114300000Y-126000000D03*
X114300000Y-128000000D03*
%TD*%
D16*
%TO.C,R3*%
X120650000Y-60690000D03*
X120650000Y-58690000D03*
%TD*%
%TO.C,R4*%
X120650000Y-108950000D03*
X120650000Y-106950000D03*
%TD*%
%TO.C,R5*%
X71120000Y-108950000D03*
X71120000Y-106950000D03*
%TD*%
%TO.C,R6*%
X93980000Y-108950000D03*
X93980000Y-106950000D03*
%TD*%
%TO.C,R7*%
X73660000Y-108950000D03*
X73660000Y-106950000D03*
%TD*%
%TO.C,R8*%
X76200000Y-108950000D03*
X76200000Y-106950000D03*
%TD*%
D17*
%TO.C,R9*%
X116840000Y-126000000D03*
X116840000Y-128000000D03*
%TD*%
D16*
%TO.C,R10*%
X78740000Y-108950000D03*
X78740000Y-106950000D03*
%TD*%
D12*
%TO.C,J4*%
X128995000Y-119355000D03*
D13*
X131535000Y-119355000D03*
X128995000Y-116815000D03*
X131535000Y-116815000D03*
X128995000Y-114275000D03*
X131535000Y-114275000D03*
X128995000Y-111735000D03*
X131535000Y-111735000D03*
X128995000Y-109195000D03*
X131535000Y-109195000D03*
X128995000Y-106655000D03*
X131535000Y-106655000D03*
%TD*%
D12*
%TO.C,J5*%
X128995000Y-96495000D03*
D13*
X131535000Y-96495000D03*
X128995000Y-93955000D03*
X131535000Y-93955000D03*
X128995000Y-91415000D03*
X131535000Y-91415000D03*
X128995000Y-88875000D03*
X131535000Y-88875000D03*
X128995000Y-86335000D03*
X131535000Y-86335000D03*
X128995000Y-83795000D03*
X131535000Y-83795000D03*
%TD*%
D12*
%TO.C,J6*%
X128995000Y-73635000D03*
D13*
X131535000Y-73635000D03*
X128995000Y-71095000D03*
X131535000Y-71095000D03*
X128995000Y-68555000D03*
X131535000Y-68555000D03*
X128995000Y-66015000D03*
X131535000Y-66015000D03*
X128995000Y-63475000D03*
X131535000Y-63475000D03*
X128995000Y-60935000D03*
X131535000Y-60935000D03*
%TD*%
D18*
%TO.C,H1*%
X62230000Y-45860000D03*
X63927056Y-46562944D03*
X63927056Y-49957056D03*
X59830000Y-48260000D03*
X64630000Y-48260000D03*
D19*
X62230000Y-48260000D03*
D18*
X62230000Y-50660000D03*
X60532944Y-46562944D03*
X60532944Y-49957056D03*
%TD*%
%TO.C,H2*%
X60532944Y-130382944D03*
X62230000Y-134480000D03*
X64630000Y-132080000D03*
X63927056Y-133777056D03*
D19*
X62230000Y-132080000D03*
D18*
X60532944Y-133777056D03*
X63927056Y-130382944D03*
X62230000Y-129680000D03*
X59830000Y-132080000D03*
%TD*%
%TO.C,H3*%
X136755000Y-50635000D03*
X136755000Y-45835000D03*
X138452056Y-49932056D03*
X134355000Y-48235000D03*
X138452056Y-46537944D03*
X135057944Y-46537944D03*
X135057944Y-49932056D03*
X139155000Y-48235000D03*
D19*
X136755000Y-48235000D03*
%TD*%
D18*
%TO.C,H4*%
X134215000Y-132055000D03*
X138312056Y-133752056D03*
X139015000Y-132055000D03*
X134917944Y-133752056D03*
X134917944Y-130357944D03*
X138312056Y-130357944D03*
X136615000Y-129655000D03*
D19*
X136615000Y-132055000D03*
D18*
X136615000Y-134455000D03*
%TD*%
D10*
%TO.C,U8*%
X83820000Y-53340000D03*
X86360000Y-53340000D03*
X88900000Y-53340000D03*
X91440000Y-53340000D03*
%TD*%
D20*
%TO.C,JP1*%
X85120000Y-57150000D03*
D21*
X83820000Y-57150000D03*
D22*
X82520000Y-57150000D03*
%TD*%
D12*
%TO.C,J8*%
X71120000Y-96520000D03*
D13*
X71120000Y-93980000D03*
X73660000Y-96520000D03*
X73660000Y-93980000D03*
X76200000Y-96520000D03*
X76200000Y-93980000D03*
%TD*%
D20*
%TO.C,JP2*%
X87660000Y-62230000D03*
D21*
X86360000Y-62230000D03*
D22*
X85060000Y-62230000D03*
%TD*%
D12*
%TO.C,J7*%
X83835000Y-96520000D03*
D13*
X83835000Y-93980000D03*
X86375000Y-96520000D03*
X86375000Y-93980000D03*
X88915000Y-96520000D03*
X88915000Y-93980000D03*
%TD*%
M02*
