%TF.GenerationSoftware,KiCad,Pcbnew,7.0.4*%
%TF.CreationDate,2023-05-26T13:48:29+02:00*%
%TF.ProjectId,pmod_e103bt53_baseboard,706d6f64-5f65-4313-9033-627435335f62,rev?*%
%TF.SameCoordinates,Original*%
%TF.FileFunction,Copper,L1,Top*%
%TF.FilePolarity,Positive*%
%FSLAX46Y46*%
G04 Gerber Fmt 4.6, Leading zero omitted, Abs format (unit mm)*
G04 Created by KiCad (PCBNEW 7.0.4) date 2023-05-26 13:48:29*
%MOMM*%
%LPD*%
G01*
G04 APERTURE LIST*
G04 Aperture macros list*
%AMRoundRect*
0 Rectangle with rounded corners*
0 $1 Rounding radius*
0 $2 $3 $4 $5 $6 $7 $8 $9 X,Y pos of 4 corners*
0 Add a 4 corners polygon primitive as box body*
4,1,4,$2,$3,$4,$5,$6,$7,$8,$9,$2,$3,0*
0 Add four circle primitives for the rounded corners*
1,1,$1+$1,$2,$3*
1,1,$1+$1,$4,$5*
1,1,$1+$1,$6,$7*
1,1,$1+$1,$8,$9*
0 Add four rect primitives between the rounded corners*
20,1,$1+$1,$2,$3,$4,$5,0*
20,1,$1+$1,$4,$5,$6,$7,0*
20,1,$1+$1,$6,$7,$8,$9,0*
20,1,$1+$1,$8,$9,$2,$3,0*%
G04 Aperture macros list end*
%TA.AperFunction,SMDPad,CuDef*%
%ADD10RoundRect,0.250000X-0.450000X0.262500X-0.450000X-0.262500X0.450000X-0.262500X0.450000X0.262500X0*%
%TD*%
%TA.AperFunction,SMDPad,CuDef*%
%ADD11RoundRect,0.250000X-0.475000X0.250000X-0.475000X-0.250000X0.475000X-0.250000X0.475000X0.250000X0*%
%TD*%
%TA.AperFunction,SMDPad,CuDef*%
%ADD12R,1.400000X1.600000*%
%TD*%
%TA.AperFunction,ComponentPad*%
%ADD13R,1.700000X1.700000*%
%TD*%
%TA.AperFunction,ComponentPad*%
%ADD14O,1.700000X1.700000*%
%TD*%
%TA.AperFunction,ComponentPad*%
%ADD15C,0.800000*%
%TD*%
%TA.AperFunction,ComponentPad*%
%ADD16C,6.400000*%
%TD*%
%TA.AperFunction,SMDPad,CuDef*%
%ADD17RoundRect,0.250000X0.250000X0.475000X-0.250000X0.475000X-0.250000X-0.475000X0.250000X-0.475000X0*%
%TD*%
%TA.AperFunction,ComponentPad*%
%ADD18R,1.000000X1.000000*%
%TD*%
%TA.AperFunction,ComponentPad*%
%ADD19O,1.000000X1.000000*%
%TD*%
%TA.AperFunction,SMDPad,CuDef*%
%ADD20RoundRect,0.150000X0.587500X0.150000X-0.587500X0.150000X-0.587500X-0.150000X0.587500X-0.150000X0*%
%TD*%
%TA.AperFunction,SMDPad,CuDef*%
%ADD21RoundRect,0.250000X-0.250000X-0.475000X0.250000X-0.475000X0.250000X0.475000X-0.250000X0.475000X0*%
%TD*%
%TA.AperFunction,SMDPad,CuDef*%
%ADD22R,1.400000X0.400000*%
%TD*%
%TA.AperFunction,ComponentPad*%
%ADD23O,1.850000X1.050000*%
%TD*%
%TA.AperFunction,SMDPad,CuDef*%
%ADD24RoundRect,0.250000X-0.500000X-0.250000X0.500000X-0.250000X0.500000X0.250000X-0.500000X0.250000X0*%
%TD*%
%TA.AperFunction,SMDPad,CuDef*%
%ADD25RoundRect,0.200000X-0.200000X-0.500000X0.200000X-0.500000X0.200000X0.500000X-0.200000X0.500000X0*%
%TD*%
%TA.AperFunction,ViaPad*%
%ADD26C,0.800000*%
%TD*%
%TA.AperFunction,Conductor*%
%ADD27C,0.250000*%
%TD*%
G04 APERTURE END LIST*
D10*
%TO.P,R1,1*%
%TO.N,VDD*%
X53975000Y-59770000D03*
%TO.P,R1,2*%
%TO.N,nRST*%
X53975000Y-61595000D03*
%TD*%
D11*
%TO.P,C4,1*%
%TO.N,nRST*%
X53975000Y-54295000D03*
%TO.P,C4,2*%
%TO.N,GND*%
X53975000Y-56195000D03*
%TD*%
D12*
%TO.P,SW1,1,1*%
%TO.N,nRST*%
X50625000Y-61595000D03*
X50625000Y-54395000D03*
%TO.P,SW1,2,2*%
%TO.N,GND*%
X47625000Y-61595000D03*
X47625000Y-54395000D03*
%TD*%
D13*
%TO.P,PMOD2,1,Pin_1*%
%TO.N,VCC*%
X96520000Y-30480000D03*
D14*
%TO.P,PMOD2,2,Pin_2*%
X96520000Y-27940000D03*
%TO.P,PMOD2,3,Pin_3*%
%TO.N,GND*%
X93980000Y-30480000D03*
%TO.P,PMOD2,4,Pin_4*%
X93980000Y-27940000D03*
%TO.P,PMOD2,5,Pin_5*%
%TO.N,PMOD_UART_RTS*%
X91440000Y-30480000D03*
%TO.P,PMOD2,6,Pin_6*%
%TO.N,PMOD_UART_GPIO4*%
X91440000Y-27940000D03*
%TO.P,PMOD2,7,Pin_7*%
%TO.N,PMOD_UART_RXD*%
X88900000Y-30480000D03*
%TO.P,PMOD2,8,Pin_8*%
%TO.N,PMOD_UART_GPIO3*%
X88900000Y-27940000D03*
%TO.P,PMOD2,9,Pin_9*%
%TO.N,PMOD_UART_TXD*%
X86360000Y-30480000D03*
%TO.P,PMOD2,10,Pin_10*%
%TO.N,PMOD_UART_GPIO2_RESET*%
X86360000Y-27940000D03*
%TO.P,PMOD2,11,Pin_11*%
%TO.N,PMOD_UART_CTS*%
X83820000Y-30480000D03*
%TO.P,PMOD2,12,Pin_12*%
%TO.N,PMOD_UART_GPIO1_INT*%
X83820000Y-27940000D03*
%TD*%
D13*
%TO.P,PMOD3,1,Pin_1*%
%TO.N,VCC*%
X119380000Y-30480000D03*
D14*
%TO.P,PMOD3,2,Pin_2*%
X119380000Y-27940000D03*
%TO.P,PMOD3,3,Pin_3*%
%TO.N,GND*%
X116840000Y-30480000D03*
%TO.P,PMOD3,4,Pin_4*%
X116840000Y-27940000D03*
%TO.P,PMOD3,5,Pin_5*%
%TO.N,PMOD_I2C_SDA*%
X114300000Y-30480000D03*
%TO.P,PMOD3,6,Pin_6*%
%TO.N,PMOD_I2C_GPIO4*%
X114300000Y-27940000D03*
%TO.P,PMOD3,7,Pin_7*%
%TO.N,PMOD_I2C_SCL*%
X111760000Y-30480000D03*
%TO.P,PMOD3,8,Pin_8*%
%TO.N,PMOD_I2C_GPIO3*%
X111760000Y-27940000D03*
%TO.P,PMOD3,9,Pin_9*%
%TO.N,PMOD_I2C_RESET*%
X109220000Y-30480000D03*
%TO.P,PMOD3,10,Pin_10*%
%TO.N,PMOD_I2C_GPIO2*%
X109220000Y-27940000D03*
%TO.P,PMOD3,11,Pin_11*%
%TO.N,PMOD_I2C_INT*%
X106680000Y-30480000D03*
%TO.P,PMOD3,12,Pin_12*%
%TO.N,PMOD_I2C_GPIO1*%
X106680000Y-27940000D03*
%TD*%
D13*
%TO.P,PMOD1,1,Pin_1*%
%TO.N,VCC*%
X73660000Y-30480000D03*
D14*
%TO.P,PMOD1,2,Pin_2*%
X73660000Y-27940000D03*
%TO.P,PMOD1,3,Pin_3*%
%TO.N,GND*%
X71120000Y-30480000D03*
%TO.P,PMOD1,4,Pin_4*%
X71120000Y-27940000D03*
%TO.P,PMOD1,5,Pin_5*%
%TO.N,PMOD_SPI_SCK*%
X68580000Y-30480000D03*
%TO.P,PMOD1,6,Pin_6*%
%TO.N,PMOD_SPI_GPIO4_CS3*%
X68580000Y-27940000D03*
%TO.P,PMOD1,7,Pin_7*%
%TO.N,PMOD_SPI_MISO*%
X66040000Y-30480000D03*
%TO.P,PMOD1,8,Pin_8*%
%TO.N,PMOD_SPI_GPIO3_CS2*%
X66040000Y-27940000D03*
%TO.P,PMOD1,9,Pin_9*%
%TO.N,PMOD_SPI_MOSI*%
X63500000Y-30480000D03*
%TO.P,PMOD1,10,Pin_10*%
%TO.N,PMOD_SPI_GPIO2_RESET*%
X63500000Y-27940000D03*
%TO.P,PMOD1,11,Pin_11*%
%TO.N,PMOD_SPI_CS*%
X60960000Y-30480000D03*
%TO.P,PMOD1,12,Pin_12*%
%TO.N,PMOD_SPI_GPIO1_INT*%
X60960000Y-27940000D03*
%TD*%
D15*
%TO.P,H3,1*%
%TO.N,N/C*%
X48400000Y-68580000D03*
X49102944Y-66882944D03*
X49102944Y-70277056D03*
X50800000Y-66180000D03*
D16*
X50800000Y-68580000D03*
D15*
X50800000Y-70980000D03*
X52497056Y-66882944D03*
X52497056Y-70277056D03*
X53200000Y-68580000D03*
%TD*%
%TO.P,H1,1*%
%TO.N,N/C*%
X48400000Y-22860000D03*
X49102944Y-21162944D03*
X49102944Y-24557056D03*
X50800000Y-20460000D03*
D16*
X50800000Y-22860000D03*
D15*
X50800000Y-25260000D03*
X52497056Y-21162944D03*
X52497056Y-24557056D03*
X53200000Y-22860000D03*
%TD*%
D17*
%TO.P,C1,1*%
%TO.N,GND*%
X55875000Y-40640000D03*
%TO.P,C1,2*%
%TO.N,VBUS*%
X53975000Y-40640000D03*
%TD*%
D15*
%TO.P,H4,1*%
%TO.N,N/C*%
X127140000Y-68580000D03*
X127842944Y-66882944D03*
X127842944Y-70277056D03*
X129540000Y-66180000D03*
D16*
X129540000Y-68580000D03*
D15*
X129540000Y-70980000D03*
X131237056Y-66882944D03*
X131237056Y-70277056D03*
X131940000Y-68580000D03*
%TD*%
D18*
%TO.P,J2,1,Pin_1*%
%TO.N,VCC*%
X49530000Y-39370000D03*
D19*
%TO.P,J2,2,Pin_2*%
%TO.N,SWDIO*%
X48260000Y-39370000D03*
%TO.P,J2,3,Pin_3*%
%TO.N,GND*%
X49530000Y-38100000D03*
%TO.P,J2,4,Pin_4*%
%TO.N,SWDCLK*%
X48260000Y-38100000D03*
%TO.P,J2,5,Pin_5*%
%TO.N,GND*%
X49530000Y-36830000D03*
%TO.P,J2,6,Pin_6*%
%TO.N,unconnected-(J2-Pin_6-Pad6)*%
X48260000Y-36830000D03*
%TO.P,J2,7,Pin_7*%
%TO.N,unconnected-(J2-Pin_7-Pad7)*%
X49530000Y-35560000D03*
%TO.P,J2,8,Pin_8*%
%TO.N,unconnected-(J2-Pin_8-Pad8)*%
X48260000Y-35560000D03*
%TO.P,J2,9,Pin_9*%
%TO.N,GND*%
X49530000Y-34290000D03*
%TO.P,J2,10,Pin_10*%
%TO.N,nRST*%
X48260000Y-34290000D03*
%TD*%
D20*
%TO.P,U2,1,GND*%
%TO.N,GND*%
X55850000Y-38415000D03*
%TO.P,U2,2,VO*%
%TO.N,VCC*%
X55850000Y-36515000D03*
%TO.P,U2,3,VI*%
%TO.N,VBUS*%
X53975000Y-37465000D03*
%TD*%
D21*
%TO.P,C3,1*%
%TO.N,GND*%
X86680000Y-52070000D03*
%TO.P,C3,2*%
%TO.N,VCC*%
X88580000Y-52070000D03*
%TD*%
D22*
%TO.P,J1,1,VBUS*%
%TO.N,VBUS*%
X49940000Y-45055000D03*
%TO.P,J1,2,D-*%
%TO.N,USB_D-*%
X49940000Y-45705000D03*
%TO.P,J1,3,D+*%
%TO.N,USB_D+*%
X49940000Y-46355000D03*
%TO.P,J1,4,ID*%
%TO.N,unconnected-(J1-ID-Pad4)*%
X49940000Y-47005000D03*
%TO.P,J1,5,GND*%
%TO.N,GND*%
X49940000Y-47655000D03*
D23*
%TO.P,J1,6,Shield*%
X50440000Y-42780000D03*
X46990000Y-42780000D03*
X50440000Y-49905000D03*
X46990000Y-49930000D03*
%TD*%
D21*
%TO.P,C2,1*%
%TO.N,GND*%
X53975000Y-34290000D03*
%TO.P,C2,2*%
%TO.N,VCC*%
X55875000Y-34290000D03*
%TD*%
D15*
%TO.P,H2,1*%
%TO.N,N/C*%
X127140000Y-22860000D03*
X127842944Y-21162944D03*
X127842944Y-24557056D03*
X129540000Y-20460000D03*
D16*
X129540000Y-22860000D03*
D15*
X129540000Y-25260000D03*
X131237056Y-21162944D03*
X131237056Y-24557056D03*
X131940000Y-22860000D03*
%TD*%
D24*
%TO.P,U1,1,GND*%
%TO.N,GND*%
X96520000Y-66040000D03*
%TO.P,U1,2,PB02*%
%TO.N,PMOD_I2C_SDA*%
X96520000Y-64770000D03*
%TO.P,U1,3,PB01*%
%TO.N,PMOD_I2C_SCL*%
X96520000Y-63500000D03*
%TO.P,U1,4,PB00*%
%TO.N,PMOD_I2C_RESET*%
X96520000Y-62230000D03*
%TO.P,U1,5,PA00*%
%TO.N,PMOD_I2C_INT*%
X96520000Y-60960000D03*
%TO.P,U1,6,PA01/SWCLK*%
%TO.N,SWDCLK*%
X96520000Y-59690000D03*
%TO.P,U1,7,PA02/SWDIO*%
%TO.N,SWDIO*%
X96520000Y-58420000D03*
%TO.P,U1,8,PA03*%
%TO.N,PMOD_UART_RTS*%
X96520000Y-57150000D03*
%TO.P,U1,9,GND*%
%TO.N,GND*%
X96520000Y-55880000D03*
D25*
%TO.P,U1,10,GND*%
X93870000Y-53960000D03*
%TO.P,U1,11,PA04*%
%TO.N,PMOD_UART_RXD*%
X92770000Y-53960000D03*
%TO.P,U1,12,PA05*%
%TO.N,PMOD_UART_TXD*%
X91670000Y-53960000D03*
%TO.P,U1,13,PA06*%
%TO.N,PMOD_UART_CTS*%
X90570000Y-53960000D03*
%TO.P,U1,14,VCC*%
%TO.N,VCC*%
X89470000Y-53960000D03*
%TO.P,U1,15,VCC*%
X88370000Y-53960000D03*
%TO.P,U1,16,GND*%
%TO.N,GND*%
X87270000Y-53960000D03*
%TO.P,U1,17,GND*%
X86170000Y-53960000D03*
D24*
%TO.P,U1,18,PD01*%
%TO.N,PMOD_SPI_SCK*%
X83520000Y-55880000D03*
%TO.P,U1,19,PD00*%
%TO.N,PMOD_SPI_GPIO4_CS3*%
X83520000Y-57150000D03*
%TO.P,U1,20,PC00*%
%TO.N,PMOD_SPI_MISO*%
X83520000Y-58420000D03*
%TO.P,U1,21,PC01*%
%TO.N,PMOD_SPI_GPIO3_CS2*%
X83520000Y-59690000D03*
%TO.P,U1,22,PC02*%
%TO.N,PMOD_SPI_MOSI*%
X83520000Y-60960000D03*
%TO.P,U1,23,PC03*%
%TO.N,PMOD_SPI_GPIO2_RESET*%
X83520000Y-62230000D03*
%TO.P,U1,24,PC04*%
%TO.N,PMOD_SPI_CS*%
X83520000Y-63500000D03*
%TO.P,U1,25,PC05*%
%TO.N,PMOD_SPI_GPIO1_INT*%
X83520000Y-64770000D03*
%TO.P,U1,26,nRST*%
%TO.N,nRST*%
X83520000Y-66040000D03*
%TD*%
D26*
%TO.N,nRST*%
X58420000Y-42545000D03*
%TO.N,GND*%
X77470000Y-25400000D03*
X78740000Y-40640000D03*
X85725000Y-58420000D03*
X93980000Y-55880000D03*
X93980000Y-64770000D03*
X80010000Y-27940000D03*
X110490000Y-51435000D03*
X74930000Y-62230000D03*
X77470000Y-27940000D03*
X78105000Y-46355000D03*
X85725000Y-59690000D03*
X80010000Y-57150000D03*
X85725000Y-55880000D03*
X73660000Y-63500000D03*
X76200000Y-60960000D03*
X80010000Y-41910000D03*
X78740000Y-58420000D03*
X85725000Y-62230000D03*
X77470000Y-39370000D03*
X78740000Y-27940000D03*
X93980000Y-63500000D03*
X85725000Y-57150000D03*
X76835000Y-45085000D03*
X85725000Y-63500000D03*
X78740000Y-25400000D03*
X107950000Y-51435000D03*
X113030000Y-51435000D03*
X77470000Y-59690000D03*
X93980000Y-57150000D03*
X93980000Y-60960000D03*
X93980000Y-62230000D03*
X79375000Y-47625000D03*
X85725000Y-64770000D03*
X85725000Y-60960000D03*
X81280000Y-55880000D03*
X80010000Y-25400000D03*
%TO.N,SWDIO*%
X93980000Y-58420000D03*
%TO.N,SWDCLK*%
X93980000Y-59690000D03*
%TO.N,nRST*%
X81915000Y-66040000D03*
%TD*%
D27*
%TO.N,nRST*%
X53975000Y-54295000D02*
X53975000Y-46990000D01*
X53975000Y-46990000D02*
X58420000Y-42545000D01*
X50625000Y-61595000D02*
X50625000Y-54395000D01*
X50625000Y-61595000D02*
X53975000Y-61595000D01*
X50625000Y-54395000D02*
X53875000Y-54395000D01*
X53875000Y-54395000D02*
X53975000Y-54295000D01*
%TO.N,GND*%
X49530000Y-34290000D02*
X50355000Y-35115000D01*
X86680000Y-51435000D02*
X86170000Y-51945000D01*
X50355000Y-36005000D02*
X49530000Y-36830000D01*
X49530000Y-38100000D02*
X49530000Y-36830000D01*
X86170000Y-51945000D02*
X86170000Y-53960000D01*
X49940000Y-47655000D02*
X49940000Y-49405000D01*
X87270000Y-52025000D02*
X86680000Y-51435000D01*
X50355000Y-35115000D02*
X50355000Y-36005000D01*
X49940000Y-49405000D02*
X50440000Y-49905000D01*
X87270000Y-53960000D02*
X87270000Y-52025000D01*
%TO.N,PMOD_UART_RTS*%
X97790000Y-57150000D02*
X96520000Y-57150000D01*
X100330000Y-41910000D02*
X91440000Y-33020000D01*
X100330000Y-54610000D02*
X97790000Y-57150000D01*
X91440000Y-33020000D02*
X91440000Y-30480000D01*
X100330000Y-54610000D02*
X100330000Y-41910000D01*
%TO.N,PMOD_UART_RXD*%
X88900000Y-30480000D02*
X88900000Y-33020000D01*
X88900000Y-33020000D02*
X92770000Y-36890000D01*
X92770000Y-36890000D02*
X92770000Y-53960000D01*
%TO.N,PMOD_UART_TXD*%
X86360000Y-30480000D02*
X86360000Y-31682081D01*
X86360000Y-31682081D02*
X91670000Y-36992081D01*
X91670000Y-36992081D02*
X91670000Y-53960000D01*
%TO.N,PMOD_UART_CTS*%
X90570000Y-37230000D02*
X90570000Y-53960000D01*
X83820000Y-30480000D02*
X90570000Y-37230000D01*
%TO.N,VCC*%
X55850000Y-36515000D02*
X55850000Y-34315000D01*
X118205000Y-26765000D02*
X119380000Y-27940000D01*
X88580000Y-52070000D02*
X73660000Y-37150000D01*
X73660000Y-27940000D02*
X74835000Y-26765000D01*
X51435000Y-39370000D02*
X52070000Y-38735000D01*
X88370000Y-53960000D02*
X89470000Y-53960000D01*
X95345000Y-26765000D02*
X96520000Y-27940000D01*
X57150000Y-33015000D02*
X57150000Y-29210000D01*
X49530000Y-39370000D02*
X51435000Y-39370000D01*
X88370000Y-52280000D02*
X88580000Y-52070000D01*
X59595000Y-26765000D02*
X57150000Y-29210000D01*
X53020000Y-36515000D02*
X55850000Y-36515000D01*
X88370000Y-53960000D02*
X88370000Y-52280000D01*
X73660000Y-37150000D02*
X73660000Y-30480000D01*
X74835000Y-26765000D02*
X95345000Y-26765000D01*
X96520000Y-27940000D02*
X97695000Y-26765000D01*
X72485000Y-26765000D02*
X59595000Y-26765000D01*
X55850000Y-34315000D02*
X55875000Y-34290000D01*
X119380000Y-27940000D02*
X119380000Y-30480000D01*
X52070000Y-37465000D02*
X53020000Y-36515000D01*
X97695000Y-26765000D02*
X118205000Y-26765000D01*
X73660000Y-27940000D02*
X72485000Y-26765000D01*
X96520000Y-27940000D02*
X96520000Y-30480000D01*
X55875000Y-34290000D02*
X57150000Y-33015000D01*
X73660000Y-30480000D02*
X73660000Y-27940000D01*
X52070000Y-38735000D02*
X52070000Y-37465000D01*
%TO.N,PMOD_SPI_SCK*%
X68580000Y-30480000D02*
X68580000Y-41910000D01*
X68580000Y-41910000D02*
X82550000Y-55880000D01*
X82550000Y-55880000D02*
X83520000Y-55880000D01*
%TO.N,PMOD_SPI_MOSI*%
X63500000Y-46990000D02*
X77470000Y-60960000D01*
X63500000Y-30480000D02*
X63500000Y-46990000D01*
X77470000Y-60960000D02*
X83520000Y-60960000D01*
%TO.N,PMOD_SPI_MISO*%
X66040000Y-44450000D02*
X80010000Y-58420000D01*
X66040000Y-30480000D02*
X66040000Y-44450000D01*
X80010000Y-58420000D02*
X83520000Y-58420000D01*
%TO.N,PMOD_SPI_GPIO4_CS3*%
X67310000Y-43180000D02*
X81280000Y-57150000D01*
X68580000Y-27940000D02*
X67310000Y-29210000D01*
X67310000Y-29210000D02*
X67310000Y-43180000D01*
X81280000Y-57150000D02*
X83520000Y-57150000D01*
%TO.N,PMOD_SPI_GPIO3_CS2*%
X64865000Y-45815000D02*
X78740000Y-59690000D01*
X78740000Y-59690000D02*
X83520000Y-59690000D01*
X64865000Y-29115000D02*
X64865000Y-45815000D01*
X66040000Y-27940000D02*
X64865000Y-29115000D01*
%TO.N,PMOD_SPI_GPIO2_RESET*%
X62325000Y-29115000D02*
X62325000Y-48355000D01*
X63500000Y-27940000D02*
X62325000Y-29115000D01*
X76200000Y-62230000D02*
X83520000Y-62230000D01*
X62325000Y-48355000D02*
X76200000Y-62230000D01*
%TO.N,PMOD_SPI_GPIO1_INT*%
X60960000Y-27940000D02*
X59690000Y-29210000D01*
X73660000Y-64770000D02*
X83520000Y-64770000D01*
X59690000Y-29210000D02*
X59690000Y-50800000D01*
X59690000Y-50800000D02*
X73660000Y-64770000D01*
%TO.N,PMOD_SPI_CS*%
X60960000Y-49530000D02*
X74930000Y-63500000D01*
X74930000Y-63500000D02*
X83520000Y-63500000D01*
X60960000Y-30480000D02*
X60960000Y-49530000D01*
%TO.N,PMOD_I2C_SDA*%
X114300000Y-30480000D02*
X114300000Y-52070000D01*
X101600000Y-64770000D02*
X96520000Y-64770000D01*
X114300000Y-52070000D02*
X101600000Y-64770000D01*
%TO.N,PMOD_I2C_SCL*%
X111760000Y-30480000D02*
X111760000Y-52070000D01*
X100330000Y-63500000D02*
X96520000Y-63500000D01*
X111760000Y-52070000D02*
X100330000Y-63500000D01*
%TO.N,PMOD_I2C_RESET*%
X99060000Y-62230000D02*
X96520000Y-62230000D01*
X109220000Y-30480000D02*
X109220000Y-52070000D01*
X109220000Y-52070000D02*
X99060000Y-62230000D01*
%TO.N,PMOD_I2C_INT*%
X97790000Y-60960000D02*
X96520000Y-60960000D01*
X106680000Y-30480000D02*
X106680000Y-52070000D01*
X106680000Y-52070000D02*
X97790000Y-60960000D01*
%TO.N,VBUS*%
X52100000Y-45055000D02*
X53975000Y-43180000D01*
X49940000Y-45055000D02*
X52100000Y-45055000D01*
X53975000Y-40640000D02*
X53975000Y-37465000D01*
X53975000Y-43180000D02*
X53975000Y-40640000D01*
%TO.N,SWDIO*%
X96520000Y-58420000D02*
X93980000Y-58420000D01*
%TO.N,SWDCLK*%
X96520000Y-59690000D02*
X93980000Y-59690000D01*
%TO.N,nRST*%
X83520000Y-66040000D02*
X81915000Y-66040000D01*
%TD*%
%TA.AperFunction,Conductor*%
%TO.N,GND*%
G36*
X60532012Y-49998370D02*
G01*
X60538595Y-50004499D01*
X74422753Y-63888657D01*
X74432720Y-63901097D01*
X74432947Y-63900910D01*
X74437999Y-63907017D01*
X74450387Y-63918650D01*
X74486352Y-63979862D01*
X74483515Y-64050802D01*
X74442774Y-64108946D01*
X74377066Y-64135835D01*
X74364134Y-64136500D01*
X73974595Y-64136500D01*
X73906474Y-64116498D01*
X73885500Y-64099595D01*
X60360405Y-50574500D01*
X60326379Y-50512188D01*
X60323500Y-50485405D01*
X60323500Y-50093594D01*
X60343502Y-50025473D01*
X60397158Y-49978980D01*
X60467432Y-49968876D01*
X60532012Y-49998370D01*
G37*
%TD.AperFunction*%
%TA.AperFunction,Conductor*%
G36*
X113113225Y-31155669D02*
G01*
X113135480Y-31181353D01*
X113168607Y-31232058D01*
X113224275Y-31317265D01*
X113224279Y-31317270D01*
X113376762Y-31482908D01*
X113391535Y-31494406D01*
X113554424Y-31621189D01*
X113600471Y-31646108D01*
X113650859Y-31696118D01*
X113666500Y-31756920D01*
X113666500Y-51755405D01*
X113646498Y-51823526D01*
X113629595Y-51844500D01*
X101374500Y-64099595D01*
X101312188Y-64133621D01*
X101285405Y-64136500D01*
X100893593Y-64136500D01*
X100825472Y-64116498D01*
X100778979Y-64062842D01*
X100768875Y-63992568D01*
X100798369Y-63927988D01*
X100804498Y-63921405D01*
X106305904Y-58419999D01*
X112148660Y-52577243D01*
X112161098Y-52567280D01*
X112160910Y-52567053D01*
X112167016Y-52562001D01*
X112167015Y-52562001D01*
X112167018Y-52562000D01*
X112214337Y-52511608D01*
X112215651Y-52510252D01*
X112236135Y-52489770D01*
X112240445Y-52484212D01*
X112244283Y-52479720D01*
X112276586Y-52445321D01*
X112286346Y-52427565D01*
X112297195Y-52411050D01*
X112309614Y-52395041D01*
X112328363Y-52351710D01*
X112330960Y-52346412D01*
X112353695Y-52305060D01*
X112358733Y-52285434D01*
X112365137Y-52266732D01*
X112365138Y-52266730D01*
X112373181Y-52248145D01*
X112380561Y-52201547D01*
X112381762Y-52195740D01*
X112393500Y-52150030D01*
X112393500Y-52129775D01*
X112395051Y-52110063D01*
X112398220Y-52090057D01*
X112393778Y-52043069D01*
X112393500Y-52037170D01*
X112393500Y-31756920D01*
X112413502Y-31688799D01*
X112459527Y-31646108D01*
X112505576Y-31621189D01*
X112683240Y-31482906D01*
X112835722Y-31317268D01*
X112924518Y-31181354D01*
X112978520Y-31135268D01*
X113048868Y-31125692D01*
X113113225Y-31155669D01*
G37*
%TD.AperFunction*%
%TA.AperFunction,Conductor*%
G36*
X61802012Y-48726560D02*
G01*
X61819067Y-48744567D01*
X61820454Y-48746356D01*
X61820458Y-48746362D01*
X61820462Y-48746366D01*
X61820466Y-48746371D01*
X61834779Y-48760684D01*
X61847617Y-48775714D01*
X61857156Y-48788843D01*
X61859528Y-48792107D01*
X61887794Y-48815491D01*
X61895886Y-48822185D01*
X61900267Y-48826171D01*
X68805044Y-55730948D01*
X75692753Y-62618657D01*
X75702720Y-62631097D01*
X75702947Y-62630910D01*
X75707999Y-62637017D01*
X75720387Y-62648650D01*
X75756352Y-62709862D01*
X75753515Y-62780802D01*
X75712774Y-62838946D01*
X75647066Y-62865835D01*
X75634134Y-62866500D01*
X75244595Y-62866500D01*
X75176474Y-62846498D01*
X75155500Y-62829595D01*
X61630405Y-49304499D01*
X61596379Y-49242187D01*
X61593500Y-49215404D01*
X61593500Y-48821784D01*
X61613502Y-48753663D01*
X61667158Y-48707170D01*
X61737432Y-48697066D01*
X61802012Y-48726560D01*
G37*
%TD.AperFunction*%
%TA.AperFunction,Conductor*%
G36*
X110573225Y-31155669D02*
G01*
X110595480Y-31181353D01*
X110628607Y-31232058D01*
X110684275Y-31317265D01*
X110684279Y-31317270D01*
X110836762Y-31482908D01*
X110851535Y-31494406D01*
X111014424Y-31621189D01*
X111060471Y-31646108D01*
X111110859Y-31696118D01*
X111126500Y-31756920D01*
X111126500Y-51755404D01*
X111106498Y-51823525D01*
X111089595Y-51844499D01*
X100104500Y-62829595D01*
X100042188Y-62863621D01*
X100015405Y-62866500D01*
X99623593Y-62866500D01*
X99555472Y-62846498D01*
X99508979Y-62792842D01*
X99498875Y-62722568D01*
X99528369Y-62657988D01*
X99534498Y-62651405D01*
X104570433Y-57615470D01*
X109608660Y-52577243D01*
X109621098Y-52567280D01*
X109620910Y-52567053D01*
X109627016Y-52562001D01*
X109627015Y-52562001D01*
X109627018Y-52562000D01*
X109674337Y-52511608D01*
X109675651Y-52510252D01*
X109696135Y-52489770D01*
X109700445Y-52484212D01*
X109704283Y-52479720D01*
X109736586Y-52445321D01*
X109746346Y-52427565D01*
X109757195Y-52411050D01*
X109769614Y-52395041D01*
X109788363Y-52351710D01*
X109790960Y-52346412D01*
X109813695Y-52305060D01*
X109818733Y-52285434D01*
X109825137Y-52266732D01*
X109825138Y-52266730D01*
X109833181Y-52248145D01*
X109840561Y-52201547D01*
X109841762Y-52195740D01*
X109853500Y-52150030D01*
X109853500Y-52129775D01*
X109855051Y-52110063D01*
X109858220Y-52090057D01*
X109853778Y-52043069D01*
X109853500Y-52037170D01*
X109853500Y-31756919D01*
X109873502Y-31688799D01*
X109919527Y-31646108D01*
X109965576Y-31621189D01*
X110143240Y-31482906D01*
X110295722Y-31317268D01*
X110384518Y-31181354D01*
X110438520Y-31135268D01*
X110508868Y-31125692D01*
X110573225Y-31155669D01*
G37*
%TD.AperFunction*%
%TA.AperFunction,Conductor*%
G36*
X63167012Y-47553370D02*
G01*
X63173595Y-47559499D01*
X76962753Y-61348657D01*
X76972720Y-61361097D01*
X76972947Y-61360910D01*
X76977999Y-61367017D01*
X76990387Y-61378650D01*
X77026352Y-61439862D01*
X77023515Y-61510802D01*
X76982774Y-61568946D01*
X76917066Y-61595835D01*
X76904134Y-61596500D01*
X76514595Y-61596500D01*
X76446474Y-61576498D01*
X76425500Y-61559595D01*
X62995405Y-48129499D01*
X62961379Y-48067187D01*
X62958500Y-48040404D01*
X62958500Y-47648594D01*
X62978502Y-47580473D01*
X63032158Y-47533980D01*
X63102432Y-47523876D01*
X63167012Y-47553370D01*
G37*
%TD.AperFunction*%
%TA.AperFunction,Conductor*%
G36*
X108033225Y-31155669D02*
G01*
X108055480Y-31181353D01*
X108088607Y-31232058D01*
X108144275Y-31317265D01*
X108144279Y-31317270D01*
X108296762Y-31482908D01*
X108311535Y-31494406D01*
X108474424Y-31621189D01*
X108520471Y-31646108D01*
X108570859Y-31696118D01*
X108586500Y-31756920D01*
X108586500Y-51755404D01*
X108566498Y-51823525D01*
X108549595Y-51844499D01*
X98834500Y-61559595D01*
X98772188Y-61593621D01*
X98745405Y-61596500D01*
X98353593Y-61596500D01*
X98285472Y-61576498D01*
X98238979Y-61522842D01*
X98228875Y-61452568D01*
X98258369Y-61387988D01*
X98264498Y-61381405D01*
X102602274Y-57043629D01*
X107068657Y-52577245D01*
X107081092Y-52567284D01*
X107080905Y-52567057D01*
X107087016Y-52562001D01*
X107087015Y-52562001D01*
X107087018Y-52562000D01*
X107134352Y-52511592D01*
X107135684Y-52510219D01*
X107156135Y-52489769D01*
X107160437Y-52484221D01*
X107164267Y-52479735D01*
X107196586Y-52445321D01*
X107206345Y-52427567D01*
X107217204Y-52411038D01*
X107217208Y-52411033D01*
X107229614Y-52395040D01*
X107248354Y-52351732D01*
X107250965Y-52346404D01*
X107273694Y-52305061D01*
X107273695Y-52305060D01*
X107278733Y-52285435D01*
X107285138Y-52266730D01*
X107285402Y-52266121D01*
X107293181Y-52248145D01*
X107300561Y-52201547D01*
X107301762Y-52195740D01*
X107313500Y-52150030D01*
X107313500Y-52129775D01*
X107315051Y-52110063D01*
X107318220Y-52090057D01*
X107313778Y-52043069D01*
X107313500Y-52037170D01*
X107313500Y-31756919D01*
X107333502Y-31688799D01*
X107379527Y-31646108D01*
X107425576Y-31621189D01*
X107603240Y-31482906D01*
X107755722Y-31317268D01*
X107844518Y-31181354D01*
X107898520Y-31135268D01*
X107968868Y-31125692D01*
X108033225Y-31155669D01*
G37*
%TD.AperFunction*%
%TA.AperFunction,Conductor*%
G36*
X64342012Y-46186560D02*
G01*
X64359067Y-46204567D01*
X64360454Y-46206356D01*
X64360458Y-46206362D01*
X64360462Y-46206366D01*
X64360466Y-46206371D01*
X64374779Y-46220684D01*
X64387617Y-46235714D01*
X64397156Y-46248843D01*
X64399528Y-46252107D01*
X64427794Y-46275491D01*
X64435886Y-46282185D01*
X64440267Y-46286171D01*
X71361572Y-53207476D01*
X78232753Y-60078657D01*
X78242720Y-60091097D01*
X78242947Y-60090910D01*
X78247999Y-60097017D01*
X78260387Y-60108650D01*
X78296352Y-60169862D01*
X78293515Y-60240802D01*
X78252774Y-60298946D01*
X78187066Y-60325835D01*
X78174134Y-60326500D01*
X77784595Y-60326500D01*
X77716474Y-60306498D01*
X77695500Y-60289595D01*
X64170405Y-46764500D01*
X64136379Y-46702188D01*
X64133500Y-46675405D01*
X64133500Y-46281784D01*
X64153502Y-46213663D01*
X64207158Y-46167170D01*
X64277432Y-46157066D01*
X64342012Y-46186560D01*
G37*
%TD.AperFunction*%
%TA.AperFunction,Conductor*%
G36*
X105321981Y-27418502D02*
G01*
X105368474Y-27472158D01*
X105378578Y-27542432D01*
X105376004Y-27555431D01*
X105335437Y-27715624D01*
X105335437Y-27715627D01*
X105335436Y-27715632D01*
X105316844Y-27940000D01*
X105335436Y-28164368D01*
X105335436Y-28164370D01*
X105335437Y-28164375D01*
X105390702Y-28382612D01*
X105390703Y-28382613D01*
X105390704Y-28382616D01*
X105409155Y-28424680D01*
X105481141Y-28588793D01*
X105604275Y-28777265D01*
X105604279Y-28777270D01*
X105756762Y-28942908D01*
X105797917Y-28974940D01*
X105934424Y-29081189D01*
X105967676Y-29099184D01*
X105967680Y-29099186D01*
X106018071Y-29149200D01*
X106033423Y-29218516D01*
X106008862Y-29285129D01*
X105967680Y-29320813D01*
X105934426Y-29338810D01*
X105934424Y-29338811D01*
X105756762Y-29477091D01*
X105604279Y-29642729D01*
X105604275Y-29642734D01*
X105481141Y-29831206D01*
X105390703Y-30037386D01*
X105390702Y-30037387D01*
X105335437Y-30255624D01*
X105335436Y-30255630D01*
X105335436Y-30255632D01*
X105316844Y-30480000D01*
X105334232Y-30689844D01*
X105335437Y-30704375D01*
X105390702Y-30922612D01*
X105390703Y-30922613D01*
X105481141Y-31128793D01*
X105604275Y-31317265D01*
X105604279Y-31317270D01*
X105756762Y-31482908D01*
X105771535Y-31494406D01*
X105934424Y-31621189D01*
X105980471Y-31646108D01*
X106030859Y-31696118D01*
X106046500Y-31756920D01*
X106046500Y-51755404D01*
X106026498Y-51823525D01*
X106009595Y-51844499D01*
X97993594Y-59860499D01*
X97931282Y-59894525D01*
X97860467Y-59889460D01*
X97803631Y-59846913D01*
X97778820Y-59780393D01*
X97778499Y-59771421D01*
X97778499Y-59389456D01*
X97767887Y-59285574D01*
X97767886Y-59285570D01*
X97767886Y-59285568D01*
X97734482Y-59184762D01*
X97712115Y-59117262D01*
X97712110Y-59117255D01*
X97709010Y-59110602D01*
X97711330Y-59109520D01*
X97695774Y-59052670D01*
X97711134Y-59000381D01*
X97709012Y-58999392D01*
X97712113Y-58992741D01*
X97712115Y-58992738D01*
X97767887Y-58824426D01*
X97778500Y-58720545D01*
X97778499Y-58119456D01*
X97767887Y-58015574D01*
X97767886Y-58015570D01*
X97767886Y-58015568D01*
X97745216Y-57947155D01*
X97742775Y-57876200D01*
X97779083Y-57815190D01*
X97842612Y-57783495D01*
X97860854Y-57781585D01*
X97889889Y-57780673D01*
X97909347Y-57775019D01*
X97928694Y-57771013D01*
X97948797Y-57768474D01*
X97992679Y-57751099D01*
X97998274Y-57749183D01*
X98026816Y-57740891D01*
X98043591Y-57736019D01*
X98043595Y-57736017D01*
X98061026Y-57725708D01*
X98078780Y-57717009D01*
X98097617Y-57709552D01*
X98135786Y-57681818D01*
X98140744Y-57678562D01*
X98181362Y-57654542D01*
X98195685Y-57640218D01*
X98210724Y-57627374D01*
X98212431Y-57626134D01*
X98227107Y-57615472D01*
X98257193Y-57579103D01*
X98261161Y-57574741D01*
X100718657Y-55117245D01*
X100731092Y-55107284D01*
X100730905Y-55107057D01*
X100737016Y-55102001D01*
X100737015Y-55102001D01*
X100737018Y-55102000D01*
X100784352Y-55051592D01*
X100785667Y-55050235D01*
X100806134Y-55029770D01*
X100810429Y-55024232D01*
X100814271Y-55019731D01*
X100846586Y-54985321D01*
X100856345Y-54967567D01*
X100867197Y-54951046D01*
X100879613Y-54935041D01*
X100898347Y-54891748D01*
X100900961Y-54886412D01*
X100923694Y-54845061D01*
X100923695Y-54845060D01*
X100928733Y-54825435D01*
X100935138Y-54806730D01*
X100943181Y-54788145D01*
X100950563Y-54741525D01*
X100951761Y-54735744D01*
X100963500Y-54690030D01*
X100963500Y-54669769D01*
X100965051Y-54650058D01*
X100968219Y-54630056D01*
X100963780Y-54583089D01*
X100963500Y-54577157D01*
X100963500Y-41993854D01*
X100965249Y-41978012D01*
X100964956Y-41977985D01*
X100965702Y-41970092D01*
X100963531Y-41901011D01*
X100963500Y-41899032D01*
X100963500Y-41870150D01*
X100963500Y-41870144D01*
X100962620Y-41863182D01*
X100962156Y-41857293D01*
X100960674Y-41810111D01*
X100955020Y-41790652D01*
X100951012Y-41771297D01*
X100948474Y-41751203D01*
X100931103Y-41707329D01*
X100929189Y-41701740D01*
X100916019Y-41656407D01*
X100905703Y-41638964D01*
X100897005Y-41621209D01*
X100889552Y-41602383D01*
X100861818Y-41564210D01*
X100858558Y-41559247D01*
X100849849Y-41544521D01*
X100834542Y-41518638D01*
X100820214Y-41504310D01*
X100807384Y-41489289D01*
X100795472Y-41472893D01*
X100795469Y-41472891D01*
X100795469Y-41472890D01*
X100759107Y-41442808D01*
X100754726Y-41438822D01*
X92110404Y-32794499D01*
X92076379Y-32732188D01*
X92073500Y-32705405D01*
X92073500Y-31756920D01*
X92093502Y-31688799D01*
X92139527Y-31646108D01*
X92185576Y-31621189D01*
X92363240Y-31482906D01*
X92515722Y-31317268D01*
X92604816Y-31180898D01*
X92658819Y-31134810D01*
X92729167Y-31125235D01*
X92793524Y-31155212D01*
X92815782Y-31180898D01*
X92904674Y-31316958D01*
X93057097Y-31482534D01*
X93234698Y-31620767D01*
X93234699Y-31620768D01*
X93432628Y-31727882D01*
X93432630Y-31727883D01*
X93645483Y-31800955D01*
X93645492Y-31800957D01*
X93726000Y-31814391D01*
X93726000Y-30913674D01*
X93837685Y-30964680D01*
X93944237Y-30980000D01*
X94015763Y-30980000D01*
X94122315Y-30964680D01*
X94234000Y-30913674D01*
X94234000Y-31814390D01*
X94314507Y-31800957D01*
X94314516Y-31800955D01*
X94527369Y-31727883D01*
X94527371Y-31727882D01*
X94725300Y-31620768D01*
X94725301Y-31620767D01*
X94902905Y-31482532D01*
X94964047Y-31416113D01*
X95024899Y-31379541D01*
X95095863Y-31381674D01*
X95154409Y-31421835D01*
X95174804Y-31457415D01*
X95219111Y-31576204D01*
X95219112Y-31576207D01*
X95306738Y-31693261D01*
X95423792Y-31780887D01*
X95423794Y-31780888D01*
X95423796Y-31780889D01*
X95477600Y-31800957D01*
X95560795Y-31831988D01*
X95560803Y-31831990D01*
X95621350Y-31838499D01*
X95621355Y-31838499D01*
X95621362Y-31838500D01*
X95621368Y-31838500D01*
X97418632Y-31838500D01*
X97418638Y-31838500D01*
X97418645Y-31838499D01*
X97418649Y-31838499D01*
X97479196Y-31831990D01*
X97479199Y-31831989D01*
X97479201Y-31831989D01*
X97616204Y-31780889D01*
X97619782Y-31778211D01*
X97733261Y-31693261D01*
X97820887Y-31576207D01*
X97820887Y-31576206D01*
X97820889Y-31576204D01*
X97871989Y-31439201D01*
X97878500Y-31378638D01*
X97878500Y-29581362D01*
X97876141Y-29559419D01*
X97871990Y-29520803D01*
X97871988Y-29520795D01*
X97820889Y-29383797D01*
X97820887Y-29383792D01*
X97733261Y-29266738D01*
X97616207Y-29179112D01*
X97616203Y-29179110D01*
X97501192Y-29136213D01*
X97444356Y-29093667D01*
X97419546Y-29027146D01*
X97434638Y-28957772D01*
X97452525Y-28932820D01*
X97595714Y-28777277D01*
X97595724Y-28777265D01*
X97634442Y-28718002D01*
X97718860Y-28588791D01*
X97809296Y-28382616D01*
X97864564Y-28164368D01*
X97883156Y-27940000D01*
X97864564Y-27715632D01*
X97836817Y-27606063D01*
X97839483Y-27535119D01*
X97869864Y-27486039D01*
X97920501Y-27435403D01*
X97982815Y-27401379D01*
X98009596Y-27398500D01*
X105253860Y-27398500D01*
X105321981Y-27418502D01*
G37*
%TD.AperFunction*%
%TA.AperFunction,Conductor*%
G36*
X65707011Y-45013369D02*
G01*
X65713594Y-45019499D01*
X79502753Y-58808657D01*
X79512720Y-58821097D01*
X79512947Y-58820910D01*
X79517999Y-58827017D01*
X79530387Y-58838650D01*
X79566352Y-58899862D01*
X79563515Y-58970802D01*
X79522774Y-59028946D01*
X79457066Y-59055835D01*
X79444134Y-59056500D01*
X79054595Y-59056500D01*
X78986474Y-59036498D01*
X78965500Y-59019595D01*
X65535405Y-45589500D01*
X65501379Y-45527188D01*
X65498500Y-45500405D01*
X65498500Y-45364201D01*
X65498500Y-45108590D01*
X65518501Y-45040474D01*
X65572156Y-44993981D01*
X65642430Y-44983876D01*
X65707011Y-45013369D01*
G37*
%TD.AperFunction*%
%TA.AperFunction,Conductor*%
G36*
X66882012Y-43648370D02*
G01*
X66888595Y-43654499D01*
X80772753Y-57538657D01*
X80782720Y-57551097D01*
X80782947Y-57550910D01*
X80787999Y-57557017D01*
X80800387Y-57568650D01*
X80836352Y-57629862D01*
X80833515Y-57700802D01*
X80792774Y-57758946D01*
X80727066Y-57785835D01*
X80714134Y-57786500D01*
X80324595Y-57786500D01*
X80256474Y-57766498D01*
X80235500Y-57749595D01*
X66710405Y-44224500D01*
X66676379Y-44162188D01*
X66673500Y-44135405D01*
X66673500Y-43743594D01*
X66693502Y-43675473D01*
X66747158Y-43628980D01*
X66817432Y-43618876D01*
X66882012Y-43648370D01*
G37*
%TD.AperFunction*%
%TA.AperFunction,Conductor*%
G36*
X68152012Y-42378370D02*
G01*
X68158595Y-42384499D01*
X82042753Y-56268657D01*
X82052720Y-56281097D01*
X82052947Y-56280910D01*
X82057999Y-56287017D01*
X82070387Y-56298650D01*
X82106352Y-56359862D01*
X82103515Y-56430802D01*
X82062774Y-56488946D01*
X81997066Y-56515835D01*
X81984134Y-56516500D01*
X81594595Y-56516500D01*
X81526474Y-56496498D01*
X81505500Y-56479595D01*
X67980405Y-42954500D01*
X67946379Y-42892188D01*
X67943500Y-42865405D01*
X67943500Y-42473594D01*
X67963502Y-42405473D01*
X68017158Y-42358980D01*
X68087432Y-42348876D01*
X68152012Y-42378370D01*
G37*
%TD.AperFunction*%
%TA.AperFunction,Conductor*%
G36*
X82461981Y-27418502D02*
G01*
X82508474Y-27472158D01*
X82518578Y-27542432D01*
X82516004Y-27555431D01*
X82475437Y-27715624D01*
X82475437Y-27715627D01*
X82475436Y-27715632D01*
X82456844Y-27940000D01*
X82475436Y-28164368D01*
X82475436Y-28164370D01*
X82475437Y-28164375D01*
X82530702Y-28382612D01*
X82530703Y-28382613D01*
X82530704Y-28382616D01*
X82549155Y-28424680D01*
X82621141Y-28588793D01*
X82744275Y-28777265D01*
X82744279Y-28777270D01*
X82896762Y-28942908D01*
X82937917Y-28974940D01*
X83074424Y-29081189D01*
X83107676Y-29099184D01*
X83107680Y-29099186D01*
X83158071Y-29149200D01*
X83173423Y-29218516D01*
X83148862Y-29285129D01*
X83107680Y-29320813D01*
X83074426Y-29338810D01*
X83074424Y-29338811D01*
X82896762Y-29477091D01*
X82744279Y-29642729D01*
X82744275Y-29642734D01*
X82621141Y-29831206D01*
X82530703Y-30037386D01*
X82530702Y-30037387D01*
X82475437Y-30255624D01*
X82475436Y-30255630D01*
X82475436Y-30255632D01*
X82456844Y-30480000D01*
X82474232Y-30689844D01*
X82475437Y-30704375D01*
X82530702Y-30922612D01*
X82530703Y-30922613D01*
X82621141Y-31128793D01*
X82744275Y-31317265D01*
X82744279Y-31317270D01*
X82896762Y-31482908D01*
X82911535Y-31494406D01*
X83074424Y-31621189D01*
X83272426Y-31728342D01*
X83272427Y-31728342D01*
X83272428Y-31728343D01*
X83355671Y-31756920D01*
X83485365Y-31801444D01*
X83707431Y-31838500D01*
X83707435Y-31838500D01*
X83932565Y-31838500D01*
X83932569Y-31838500D01*
X84154635Y-31801444D01*
X84154651Y-31801438D01*
X84157751Y-31800654D01*
X84159072Y-31800703D01*
X84159777Y-31800586D01*
X84159801Y-31800730D01*
X84228698Y-31803311D01*
X84277795Y-31833699D01*
X89899595Y-37455499D01*
X89933621Y-37517811D01*
X89936500Y-37544594D01*
X89936500Y-52632544D01*
X89916498Y-52700665D01*
X89862842Y-52747158D01*
X89799099Y-52758027D01*
X89732767Y-52752000D01*
X89727265Y-52751500D01*
X89727264Y-52751500D01*
X89712096Y-52751500D01*
X89643975Y-52731498D01*
X89597482Y-52677842D01*
X89586748Y-52612694D01*
X89586794Y-52612239D01*
X89588500Y-52595545D01*
X89588499Y-51544456D01*
X89577887Y-51440574D01*
X89522115Y-51272262D01*
X89429030Y-51121348D01*
X89429029Y-51121347D01*
X89429024Y-51121341D01*
X89303658Y-50995975D01*
X89303652Y-50995970D01*
X89250199Y-50963000D01*
X89152738Y-50902885D01*
X89068582Y-50874998D01*
X88984427Y-50847113D01*
X88984420Y-50847112D01*
X88880553Y-50836500D01*
X88294595Y-50836500D01*
X88226474Y-50816498D01*
X88205500Y-50799595D01*
X74330405Y-36924500D01*
X74296379Y-36862188D01*
X74293500Y-36835405D01*
X74293500Y-31964500D01*
X74313502Y-31896379D01*
X74367158Y-31849886D01*
X74419500Y-31838500D01*
X74558632Y-31838500D01*
X74558638Y-31838500D01*
X74558645Y-31838499D01*
X74558649Y-31838499D01*
X74619196Y-31831990D01*
X74619199Y-31831989D01*
X74619201Y-31831989D01*
X74756204Y-31780889D01*
X74759782Y-31778211D01*
X74873261Y-31693261D01*
X74960887Y-31576207D01*
X74960887Y-31576206D01*
X74960889Y-31576204D01*
X75011989Y-31439201D01*
X75018500Y-31378638D01*
X75018500Y-29581362D01*
X75016141Y-29559419D01*
X75011990Y-29520803D01*
X75011988Y-29520795D01*
X74960889Y-29383797D01*
X74960887Y-29383792D01*
X74873261Y-29266738D01*
X74756207Y-29179112D01*
X74756203Y-29179110D01*
X74641192Y-29136213D01*
X74584356Y-29093667D01*
X74559546Y-29027146D01*
X74574638Y-28957772D01*
X74592525Y-28932820D01*
X74735714Y-28777277D01*
X74735724Y-28777265D01*
X74774442Y-28718002D01*
X74858860Y-28588791D01*
X74949296Y-28382616D01*
X75004564Y-28164368D01*
X75023156Y-27940000D01*
X75004564Y-27715632D01*
X74976817Y-27606063D01*
X74979483Y-27535119D01*
X75009864Y-27486039D01*
X75060501Y-27435403D01*
X75122815Y-27401379D01*
X75149596Y-27398500D01*
X82393860Y-27398500D01*
X82461981Y-27418502D01*
G37*
%TD.AperFunction*%
%TA.AperFunction,Conductor*%
G36*
X71374000Y-30046325D02*
G01*
X71262315Y-29995320D01*
X71155763Y-29980000D01*
X71084237Y-29980000D01*
X70977685Y-29995320D01*
X70866000Y-30046325D01*
X70866000Y-28373674D01*
X70977685Y-28424680D01*
X71084237Y-28440000D01*
X71155763Y-28440000D01*
X71262315Y-28424680D01*
X71374000Y-28373674D01*
X71374000Y-30046325D01*
G37*
%TD.AperFunction*%
%TA.AperFunction,Conductor*%
G36*
X94234000Y-30046325D02*
G01*
X94122315Y-29995320D01*
X94015763Y-29980000D01*
X93944237Y-29980000D01*
X93837685Y-29995320D01*
X93726000Y-30046325D01*
X93726000Y-28373674D01*
X93837685Y-28424680D01*
X93944237Y-28440000D01*
X94015763Y-28440000D01*
X94122315Y-28424680D01*
X94234000Y-28373674D01*
X94234000Y-30046325D01*
G37*
%TD.AperFunction*%
%TA.AperFunction,Conductor*%
G36*
X117094000Y-30046325D02*
G01*
X116982315Y-29995320D01*
X116875763Y-29980000D01*
X116804237Y-29980000D01*
X116697685Y-29995320D01*
X116586000Y-30046325D01*
X116586000Y-28373674D01*
X116697685Y-28424680D01*
X116804237Y-28440000D01*
X116875763Y-28440000D01*
X116982315Y-28424680D01*
X117094000Y-28373674D01*
X117094000Y-30046325D01*
G37*
%TD.AperFunction*%
%TA.AperFunction,Conductor*%
G36*
X134536621Y-17825502D02*
G01*
X134583114Y-17879158D01*
X134594500Y-17931500D01*
X134594500Y-67184000D01*
X134574498Y-67252121D01*
X134520842Y-67298614D01*
X134468500Y-67310000D01*
X133111430Y-67310000D01*
X133043309Y-67289998D01*
X132996816Y-67236342D01*
X132993799Y-67229154D01*
X132932536Y-67069556D01*
X132932532Y-67069548D01*
X132932532Y-67069547D01*
X132756062Y-66723206D01*
X132544357Y-66397207D01*
X132544354Y-66397203D01*
X132544352Y-66397200D01*
X132299746Y-66095137D01*
X132299732Y-66095122D01*
X132024877Y-65820267D01*
X132024862Y-65820253D01*
X131722802Y-65575649D01*
X131722785Y-65575637D01*
X131396795Y-65363938D01*
X131050451Y-65187467D01*
X131050443Y-65187463D01*
X130687568Y-65048168D01*
X130312097Y-64947561D01*
X129928167Y-64886752D01*
X129540006Y-64866411D01*
X129539994Y-64866411D01*
X129151832Y-64886752D01*
X128767902Y-64947561D01*
X128392431Y-65048168D01*
X128029556Y-65187463D01*
X128029548Y-65187467D01*
X127683205Y-65363938D01*
X127357203Y-65575645D01*
X127357200Y-65575647D01*
X127055137Y-65820253D01*
X127055122Y-65820267D01*
X126780267Y-66095122D01*
X126780253Y-66095137D01*
X126535647Y-66397200D01*
X126535645Y-66397203D01*
X126323938Y-66723205D01*
X126147467Y-67069548D01*
X126147463Y-67069556D01*
X126086201Y-67229154D01*
X126043116Y-67285582D01*
X125976363Y-67309759D01*
X125968570Y-67310000D01*
X54371430Y-67310000D01*
X54303309Y-67289998D01*
X54256816Y-67236342D01*
X54253799Y-67229154D01*
X54192536Y-67069556D01*
X54192532Y-67069548D01*
X54192532Y-67069547D01*
X54016062Y-66723206D01*
X53804357Y-66397207D01*
X53804354Y-66397203D01*
X53804352Y-66397200D01*
X53559746Y-66095137D01*
X53559732Y-66095122D01*
X53284877Y-65820267D01*
X53284862Y-65820253D01*
X52982802Y-65575649D01*
X52982785Y-65575637D01*
X52656795Y-65363938D01*
X52310451Y-65187467D01*
X52310443Y-65187463D01*
X51947568Y-65048168D01*
X51572097Y-64947561D01*
X51188167Y-64886752D01*
X50800006Y-64866411D01*
X50799994Y-64866411D01*
X50411832Y-64886752D01*
X50027902Y-64947561D01*
X49652431Y-65048168D01*
X49289556Y-65187463D01*
X49289548Y-65187467D01*
X48943205Y-65363938D01*
X48617203Y-65575645D01*
X48617200Y-65575647D01*
X48315137Y-65820253D01*
X48315122Y-65820267D01*
X48040267Y-66095122D01*
X48040253Y-66095137D01*
X47795647Y-66397200D01*
X47795645Y-66397203D01*
X47583938Y-66723205D01*
X47407467Y-67069548D01*
X47407463Y-67069556D01*
X47346201Y-67229154D01*
X47303116Y-67285582D01*
X47236363Y-67309759D01*
X47228570Y-67310000D01*
X45871500Y-67310000D01*
X45803379Y-67289998D01*
X45756886Y-67236342D01*
X45745500Y-67184000D01*
X45745500Y-61849000D01*
X46417000Y-61849000D01*
X46417000Y-62443597D01*
X46423505Y-62504093D01*
X46474555Y-62640964D01*
X46474555Y-62640965D01*
X46562095Y-62757904D01*
X46679034Y-62845444D01*
X46815906Y-62896494D01*
X46876402Y-62902999D01*
X46876415Y-62903000D01*
X47371000Y-62903000D01*
X47371000Y-61849000D01*
X47879000Y-61849000D01*
X47879000Y-62903000D01*
X48373585Y-62903000D01*
X48373597Y-62902999D01*
X48434093Y-62896494D01*
X48570964Y-62845444D01*
X48570965Y-62845444D01*
X48687904Y-62757904D01*
X48775444Y-62640965D01*
X48775444Y-62640964D01*
X48826494Y-62504093D01*
X48832999Y-62443597D01*
X48833000Y-62443585D01*
X48833000Y-61849000D01*
X47879000Y-61849000D01*
X47371000Y-61849000D01*
X46417000Y-61849000D01*
X45745500Y-61849000D01*
X45745500Y-61341000D01*
X46417000Y-61341000D01*
X47371000Y-61341000D01*
X47371000Y-60287000D01*
X47879000Y-60287000D01*
X47879000Y-61341000D01*
X48833000Y-61341000D01*
X48833000Y-60746414D01*
X48832999Y-60746402D01*
X48826494Y-60685906D01*
X48775444Y-60549035D01*
X48775444Y-60549034D01*
X48687904Y-60432095D01*
X48570965Y-60344555D01*
X48434093Y-60293505D01*
X48373597Y-60287000D01*
X47879000Y-60287000D01*
X47371000Y-60287000D01*
X46876402Y-60287000D01*
X46815906Y-60293505D01*
X46679035Y-60344555D01*
X46679034Y-60344555D01*
X46562095Y-60432095D01*
X46474555Y-60549034D01*
X46474555Y-60549035D01*
X46423505Y-60685906D01*
X46417000Y-60746402D01*
X46417000Y-61341000D01*
X45745500Y-61341000D01*
X45745500Y-54649000D01*
X46417000Y-54649000D01*
X46417000Y-55243597D01*
X46423505Y-55304093D01*
X46474555Y-55440964D01*
X46474555Y-55440965D01*
X46562095Y-55557904D01*
X46679034Y-55645444D01*
X46815906Y-55696494D01*
X46876402Y-55702999D01*
X46876415Y-55703000D01*
X47371000Y-55703000D01*
X47371000Y-54649000D01*
X47879000Y-54649000D01*
X47879000Y-55703000D01*
X48373585Y-55703000D01*
X48373597Y-55702999D01*
X48434093Y-55696494D01*
X48570964Y-55645444D01*
X48570965Y-55645444D01*
X48687904Y-55557904D01*
X48775444Y-55440965D01*
X48775444Y-55440964D01*
X48826494Y-55304093D01*
X48832999Y-55243597D01*
X48833000Y-55243585D01*
X48833000Y-54649000D01*
X47879000Y-54649000D01*
X47371000Y-54649000D01*
X46417000Y-54649000D01*
X45745500Y-54649000D01*
X45745500Y-54141000D01*
X46417000Y-54141000D01*
X47371000Y-54141000D01*
X47371000Y-53087000D01*
X47879000Y-53087000D01*
X47879000Y-54141000D01*
X48833000Y-54141000D01*
X48833000Y-53546414D01*
X48832999Y-53546402D01*
X48826494Y-53485906D01*
X48775444Y-53349035D01*
X48775443Y-53349033D01*
X48687904Y-53232095D01*
X48570965Y-53144555D01*
X48434093Y-53093505D01*
X48373597Y-53087000D01*
X47879000Y-53087000D01*
X47371000Y-53087000D01*
X46876402Y-53087000D01*
X46815906Y-53093505D01*
X46679035Y-53144555D01*
X46679034Y-53144555D01*
X46562095Y-53232095D01*
X46474557Y-53349033D01*
X46474555Y-53349035D01*
X46423505Y-53485906D01*
X46417000Y-53546402D01*
X46417000Y-54141000D01*
X45745500Y-54141000D01*
X45745500Y-50839674D01*
X45765502Y-50771553D01*
X45819158Y-50725060D01*
X45889432Y-50714956D01*
X45951435Y-50742276D01*
X46013318Y-50793063D01*
X46192774Y-50888984D01*
X46387503Y-50948054D01*
X46539248Y-50962999D01*
X46539264Y-50963000D01*
X46736000Y-50963000D01*
X46736000Y-50184000D01*
X47244000Y-50184000D01*
X47244000Y-50963000D01*
X47440736Y-50963000D01*
X47440751Y-50962999D01*
X47592496Y-50948054D01*
X47787225Y-50888984D01*
X47966681Y-50793063D01*
X48123974Y-50663974D01*
X48253063Y-50506681D01*
X48348984Y-50327226D01*
X48392431Y-50184000D01*
X47244000Y-50184000D01*
X46736000Y-50184000D01*
X46736000Y-50159000D01*
X49037569Y-50159000D01*
X49081015Y-50302226D01*
X49176936Y-50481681D01*
X49306025Y-50638974D01*
X49463318Y-50768063D01*
X49642774Y-50863984D01*
X49837503Y-50923054D01*
X49989248Y-50937999D01*
X49989264Y-50938000D01*
X50186000Y-50938000D01*
X50186000Y-50159000D01*
X50694000Y-50159000D01*
X50694000Y-50938000D01*
X50890736Y-50938000D01*
X50890751Y-50937999D01*
X51042496Y-50923054D01*
X51237225Y-50863984D01*
X51416681Y-50768063D01*
X51573974Y-50638974D01*
X51703063Y-50481681D01*
X51798984Y-50302226D01*
X51842431Y-50159000D01*
X50694000Y-50159000D01*
X50186000Y-50159000D01*
X49037569Y-50159000D01*
X46736000Y-50159000D01*
X46736000Y-50155000D01*
X47413650Y-50155000D01*
X47483560Y-50140140D01*
X47560943Y-50083918D01*
X47608769Y-50001082D01*
X47616340Y-49929044D01*
X49811233Y-49929044D01*
X49840791Y-50020013D01*
X49904794Y-50091096D01*
X49992175Y-50130000D01*
X50863650Y-50130000D01*
X50933560Y-50115140D01*
X51010943Y-50058918D01*
X51058769Y-49976082D01*
X51068767Y-49880956D01*
X51039209Y-49789987D01*
X50975206Y-49718904D01*
X50887825Y-49680000D01*
X50016350Y-49680000D01*
X49946440Y-49694860D01*
X49869057Y-49751082D01*
X49821231Y-49833918D01*
X49811233Y-49929044D01*
X47616340Y-49929044D01*
X47618767Y-49905956D01*
X47589209Y-49814987D01*
X47525206Y-49743904D01*
X47437825Y-49705000D01*
X46736000Y-49705000D01*
X46736000Y-48897000D01*
X47244000Y-48897000D01*
X47244000Y-49676000D01*
X48392431Y-49676000D01*
X48348984Y-49532773D01*
X48253063Y-49353318D01*
X48123974Y-49196025D01*
X47966681Y-49066936D01*
X47787225Y-48971015D01*
X47592496Y-48911945D01*
X47440751Y-48897000D01*
X47244000Y-48897000D01*
X46736000Y-48897000D01*
X46539248Y-48897000D01*
X46387503Y-48911945D01*
X46192774Y-48971015D01*
X46013318Y-49066936D01*
X45951434Y-49117724D01*
X45886087Y-49145478D01*
X45816108Y-49133496D01*
X45763717Y-49085584D01*
X45745500Y-49020325D01*
X45745500Y-43689674D01*
X45765502Y-43621553D01*
X45819158Y-43575060D01*
X45889432Y-43564956D01*
X45951435Y-43592276D01*
X46013318Y-43643063D01*
X46192774Y-43738984D01*
X46387503Y-43798054D01*
X46539248Y-43812999D01*
X46539264Y-43813000D01*
X46736000Y-43813000D01*
X46736000Y-43034000D01*
X47244000Y-43034000D01*
X47244000Y-43813000D01*
X47440736Y-43813000D01*
X47440751Y-43812999D01*
X47592496Y-43798054D01*
X47787225Y-43738984D01*
X47966681Y-43643063D01*
X48123974Y-43513974D01*
X48253063Y-43356681D01*
X48348984Y-43177226D01*
X48392431Y-43034000D01*
X47244000Y-43034000D01*
X46736000Y-43034000D01*
X46736000Y-43005000D01*
X47413650Y-43005000D01*
X47483560Y-42990140D01*
X47560943Y-42933918D01*
X47608769Y-42851082D01*
X47613713Y-42804044D01*
X49811233Y-42804044D01*
X49840791Y-42895013D01*
X49904794Y-42966096D01*
X49992175Y-43005000D01*
X50863650Y-43005000D01*
X50933560Y-42990140D01*
X51010943Y-42933918D01*
X51058769Y-42851082D01*
X51068767Y-42755956D01*
X51039209Y-42664987D01*
X50975206Y-42593904D01*
X50887825Y-42555000D01*
X50016350Y-42555000D01*
X49946440Y-42569860D01*
X49869057Y-42626082D01*
X49821231Y-42708918D01*
X49811233Y-42804044D01*
X47613713Y-42804044D01*
X47618767Y-42755956D01*
X47589209Y-42664987D01*
X47525206Y-42593904D01*
X47437825Y-42555000D01*
X46736000Y-42555000D01*
X46736000Y-41747000D01*
X47244000Y-41747000D01*
X47244000Y-42526000D01*
X48392431Y-42526000D01*
X49037569Y-42526000D01*
X50186000Y-42526000D01*
X50186000Y-41747000D01*
X50694000Y-41747000D01*
X50694000Y-42526000D01*
X51842431Y-42526000D01*
X51798984Y-42382773D01*
X51703063Y-42203318D01*
X51573974Y-42046025D01*
X51416681Y-41916936D01*
X51237225Y-41821015D01*
X51042496Y-41761945D01*
X50890751Y-41747000D01*
X50694000Y-41747000D01*
X50186000Y-41747000D01*
X49989248Y-41747000D01*
X49837503Y-41761945D01*
X49642774Y-41821015D01*
X49463318Y-41916936D01*
X49306025Y-42046025D01*
X49176936Y-42203318D01*
X49081015Y-42382773D01*
X49037569Y-42526000D01*
X48392431Y-42526000D01*
X48348984Y-42382773D01*
X48253063Y-42203318D01*
X48123974Y-42046025D01*
X47966681Y-41916936D01*
X47787225Y-41821015D01*
X47592496Y-41761945D01*
X47440751Y-41747000D01*
X47244000Y-41747000D01*
X46736000Y-41747000D01*
X46539248Y-41747000D01*
X46387503Y-41761945D01*
X46192774Y-41821015D01*
X46013318Y-41916936D01*
X45951434Y-41967724D01*
X45886087Y-41995478D01*
X45816108Y-41983496D01*
X45763717Y-41935584D01*
X45745500Y-41870325D01*
X45745500Y-39370003D01*
X47246620Y-39370003D01*
X47266090Y-39567694D01*
X47266091Y-39567700D01*
X47266092Y-39567701D01*
X47323759Y-39757804D01*
X47417405Y-39933004D01*
X47543432Y-40086568D01*
X47696996Y-40212595D01*
X47872196Y-40306241D01*
X48062299Y-40363908D01*
X48062303Y-40363908D01*
X48062305Y-40363909D01*
X48259997Y-40383380D01*
X48260000Y-40383380D01*
X48260003Y-40383380D01*
X48457694Y-40363909D01*
X48457695Y-40363908D01*
X48457701Y-40363908D01*
X48647804Y-40306241D01*
X48647805Y-40306240D01*
X48653522Y-40303873D01*
X48654319Y-40305798D01*
X48714502Y-40293260D01*
X48779916Y-40317985D01*
X48783793Y-40320887D01*
X48783796Y-40320889D01*
X48842875Y-40342924D01*
X48920795Y-40371988D01*
X48920803Y-40371990D01*
X48981350Y-40378499D01*
X48981355Y-40378499D01*
X48981362Y-40378500D01*
X48981368Y-40378500D01*
X50078632Y-40378500D01*
X50078638Y-40378500D01*
X50078645Y-40378499D01*
X50078649Y-40378499D01*
X50139196Y-40371990D01*
X50139199Y-40371989D01*
X50139201Y-40371989D01*
X50276204Y-40320889D01*
X50280084Y-40317985D01*
X50393261Y-40233261D01*
X50480887Y-40116207D01*
X50480887Y-40116206D01*
X50480889Y-40116204D01*
X50492353Y-40085466D01*
X50534901Y-40028631D01*
X50601422Y-40003821D01*
X50610409Y-40003500D01*
X51351147Y-40003500D01*
X51366988Y-40005249D01*
X51367016Y-40004956D01*
X51374901Y-40005700D01*
X51374909Y-40005702D01*
X51436208Y-40003775D01*
X51443976Y-40003531D01*
X51445955Y-40003500D01*
X51474851Y-40003500D01*
X51474856Y-40003500D01*
X51481818Y-40002619D01*
X51487719Y-40002154D01*
X51534889Y-40000673D01*
X51554347Y-39995019D01*
X51573694Y-39991013D01*
X51593797Y-39988474D01*
X51637679Y-39971099D01*
X51643274Y-39969183D01*
X51671816Y-39960891D01*
X51688591Y-39956019D01*
X51688595Y-39956017D01*
X51706026Y-39945708D01*
X51723780Y-39937009D01*
X51742617Y-39929552D01*
X51780786Y-39901818D01*
X51785744Y-39898562D01*
X51826362Y-39874542D01*
X51840685Y-39860218D01*
X51855724Y-39847374D01*
X51872107Y-39835472D01*
X51902193Y-39799103D01*
X51906161Y-39794741D01*
X52458657Y-39242245D01*
X52471092Y-39232284D01*
X52470905Y-39232057D01*
X52477016Y-39227001D01*
X52477015Y-39227001D01*
X52477018Y-39227000D01*
X52524352Y-39176592D01*
X52525667Y-39175235D01*
X52546135Y-39154769D01*
X52550437Y-39149221D01*
X52554267Y-39144735D01*
X52586586Y-39110321D01*
X52596345Y-39092567D01*
X52607204Y-39076038D01*
X52619614Y-39060040D01*
X52638354Y-39016732D01*
X52640965Y-39011404D01*
X52657023Y-38982196D01*
X52663695Y-38970060D01*
X52668733Y-38950435D01*
X52675138Y-38931730D01*
X52683181Y-38913145D01*
X52690561Y-38866547D01*
X52691762Y-38860740D01*
X52703500Y-38815030D01*
X52703500Y-38794774D01*
X52705051Y-38775063D01*
X52708220Y-38755057D01*
X52704575Y-38716498D01*
X52703780Y-38708080D01*
X52703500Y-38702148D01*
X52703500Y-38166451D01*
X52723502Y-38098330D01*
X52777158Y-38051837D01*
X52847432Y-38041733D01*
X52912012Y-38071227D01*
X52918595Y-38077356D01*
X52980689Y-38139450D01*
X52980696Y-38139455D01*
X53123895Y-38224143D01*
X53123896Y-38224143D01*
X53123899Y-38224145D01*
X53250654Y-38260970D01*
X53310488Y-38299181D01*
X53340166Y-38363677D01*
X53341500Y-38381966D01*
X53341500Y-39440040D01*
X53321498Y-39508161D01*
X53281649Y-39547280D01*
X53251346Y-39565971D01*
X53251341Y-39565975D01*
X53125975Y-39691341D01*
X53125970Y-39691347D01*
X53032885Y-39842262D01*
X52977113Y-40010572D01*
X52977112Y-40010579D01*
X52966500Y-40114446D01*
X52966500Y-41165544D01*
X52977112Y-41269425D01*
X53032885Y-41437738D01*
X53125970Y-41588652D01*
X53125975Y-41588658D01*
X53251341Y-41714024D01*
X53251345Y-41714027D01*
X53251348Y-41714030D01*
X53251350Y-41714031D01*
X53281646Y-41732718D01*
X53329125Y-41785504D01*
X53341500Y-41839959D01*
X53341500Y-42865405D01*
X53321498Y-42933526D01*
X53304595Y-42954500D01*
X51874500Y-44384595D01*
X51812188Y-44418621D01*
X51785405Y-44421500D01*
X50950210Y-44421500D01*
X50889831Y-44406091D01*
X50886204Y-44404111D01*
X50749204Y-44353011D01*
X50749196Y-44353009D01*
X50688649Y-44346500D01*
X50688638Y-44346500D01*
X49809846Y-44346500D01*
X49741725Y-44326498D01*
X49695232Y-44272842D01*
X49684924Y-44236947D01*
X49680687Y-44204765D01*
X49622698Y-44064768D01*
X49622698Y-44064767D01*
X49622693Y-44064760D01*
X49529511Y-43943323D01*
X49503910Y-43877103D01*
X49518175Y-43807554D01*
X49567776Y-43756758D01*
X49636965Y-43740842D01*
X49666049Y-43746044D01*
X49837505Y-43798054D01*
X49989248Y-43812999D01*
X49989264Y-43813000D01*
X50186000Y-43813000D01*
X50186000Y-43034000D01*
X50694000Y-43034000D01*
X50694000Y-43813000D01*
X50890736Y-43813000D01*
X50890751Y-43812999D01*
X51042496Y-43798054D01*
X51237225Y-43738984D01*
X51416681Y-43643063D01*
X51573974Y-43513974D01*
X51703063Y-43356681D01*
X51798984Y-43177226D01*
X51842431Y-43034000D01*
X50694000Y-43034000D01*
X50186000Y-43034000D01*
X49037569Y-43034000D01*
X49081015Y-43177226D01*
X49176936Y-43356681D01*
X49306025Y-43513975D01*
X49379596Y-43574354D01*
X49419565Y-43633032D01*
X49421465Y-43704003D01*
X49384694Y-43764735D01*
X49320925Y-43795946D01*
X49278608Y-43793993D01*
X49278424Y-43795391D01*
X49157722Y-43779500D01*
X49157720Y-43779500D01*
X49082280Y-43779500D01*
X49082277Y-43779500D01*
X48969765Y-43794312D01*
X48829768Y-43852301D01*
X48829760Y-43852306D01*
X48709548Y-43944548D01*
X48617306Y-44064760D01*
X48617301Y-44064768D01*
X48559312Y-44204765D01*
X48539534Y-44354999D01*
X48539534Y-44355000D01*
X48559312Y-44505234D01*
X48617301Y-44645231D01*
X48617306Y-44645239D01*
X48705462Y-44760125D01*
X48731063Y-44826345D01*
X48731500Y-44836829D01*
X48731500Y-45303649D01*
X48738261Y-45366531D01*
X48738261Y-45393467D01*
X48731500Y-45456350D01*
X48731500Y-45953649D01*
X48738261Y-46016532D01*
X48738261Y-46043468D01*
X48731500Y-46106350D01*
X48731500Y-46603649D01*
X48738261Y-46666531D01*
X48738261Y-46693467D01*
X48731500Y-46756350D01*
X48731500Y-47253632D01*
X48731501Y-47253652D01*
X48738513Y-47318884D01*
X48738513Y-47345818D01*
X48732001Y-47406394D01*
X48732000Y-47406414D01*
X48732000Y-47455001D01*
X48733294Y-47456295D01*
X48797003Y-47475002D01*
X48829750Y-47505491D01*
X48876738Y-47568261D01*
X48927144Y-47605994D01*
X48969691Y-47662829D01*
X48974756Y-47733645D01*
X48940730Y-47795957D01*
X48899854Y-47823270D01*
X48846407Y-47845409D01*
X48798190Y-47855000D01*
X48732000Y-47855000D01*
X48732000Y-47872518D01*
X48711998Y-47940639D01*
X48705963Y-47949222D01*
X48617303Y-48064765D01*
X48617301Y-48064768D01*
X48559312Y-48204765D01*
X48539534Y-48354999D01*
X48539534Y-48355000D01*
X48559312Y-48505234D01*
X48617301Y-48645231D01*
X48617306Y-48645239D01*
X48709548Y-48765451D01*
X48793459Y-48829838D01*
X48829767Y-48857698D01*
X48969764Y-48915687D01*
X49082280Y-48930500D01*
X49082287Y-48930500D01*
X49157713Y-48930500D01*
X49157720Y-48930500D01*
X49245986Y-48918879D01*
X49316133Y-48929818D01*
X49369232Y-48976946D01*
X49388422Y-49045300D01*
X49367611Y-49113178D01*
X49342367Y-49141198D01*
X49306026Y-49171023D01*
X49176936Y-49328318D01*
X49081015Y-49507773D01*
X49037569Y-49651000D01*
X50186000Y-49651000D01*
X50186000Y-48872000D01*
X50694000Y-48872000D01*
X50694000Y-49651000D01*
X51842431Y-49651000D01*
X51798984Y-49507773D01*
X51703063Y-49328318D01*
X51573974Y-49171025D01*
X51416681Y-49041936D01*
X51237225Y-48946015D01*
X51042496Y-48886945D01*
X50890751Y-48872000D01*
X50694000Y-48872000D01*
X50186000Y-48872000D01*
X49989248Y-48872000D01*
X49837503Y-48886945D01*
X49691051Y-48931370D01*
X49620057Y-48932003D01*
X49559991Y-48894153D01*
X49529923Y-48829838D01*
X49539400Y-48759477D01*
X49554509Y-48734097D01*
X49622698Y-48645233D01*
X49680687Y-48505236D01*
X49687676Y-48452145D01*
X49716398Y-48387219D01*
X49723503Y-48379496D01*
X49740000Y-48362999D01*
X49740000Y-47839500D01*
X49760002Y-47771379D01*
X49813658Y-47724886D01*
X49866000Y-47713500D01*
X50014000Y-47713500D01*
X50082121Y-47733502D01*
X50128614Y-47787158D01*
X50140000Y-47839500D01*
X50140000Y-48363000D01*
X50688585Y-48363000D01*
X50688597Y-48362999D01*
X50749093Y-48356494D01*
X50885964Y-48305444D01*
X50885965Y-48305444D01*
X51002904Y-48217904D01*
X51090444Y-48100965D01*
X51090444Y-48100964D01*
X51141494Y-47964093D01*
X51147999Y-47903597D01*
X51148000Y-47903585D01*
X51148000Y-47855000D01*
X50998793Y-47855000D01*
X50930672Y-47834998D01*
X50884179Y-47781342D01*
X50874075Y-47711068D01*
X50903569Y-47646488D01*
X50923284Y-47628132D01*
X51003261Y-47568261D01*
X51014408Y-47553370D01*
X51050250Y-47505490D01*
X51107085Y-47462944D01*
X51147314Y-47455686D01*
X51148000Y-47455000D01*
X51148000Y-47406414D01*
X51147999Y-47406404D01*
X51141485Y-47345821D01*
X51141485Y-47318880D01*
X51141987Y-47314204D01*
X51141989Y-47314201D01*
X51148500Y-47253638D01*
X51148500Y-46756362D01*
X51141989Y-46695799D01*
X51141988Y-46695798D01*
X51141738Y-46693465D01*
X51141738Y-46666525D01*
X51141987Y-46664205D01*
X51141989Y-46664201D01*
X51148500Y-46603638D01*
X51148500Y-46106362D01*
X51144440Y-46068593D01*
X51141739Y-46043467D01*
X51141739Y-46016531D01*
X51148499Y-45953649D01*
X51148500Y-45953632D01*
X51148500Y-45814500D01*
X51168502Y-45746379D01*
X51222158Y-45699886D01*
X51274500Y-45688500D01*
X52016147Y-45688500D01*
X52031988Y-45690249D01*
X52032016Y-45689956D01*
X52039901Y-45690700D01*
X52039909Y-45690702D01*
X52101208Y-45688775D01*
X52108976Y-45688531D01*
X52110955Y-45688500D01*
X52139851Y-45688500D01*
X52139856Y-45688500D01*
X52146818Y-45687619D01*
X52152719Y-45687154D01*
X52199889Y-45685673D01*
X52219347Y-45680019D01*
X52238694Y-45676013D01*
X52258797Y-45673474D01*
X52302679Y-45656099D01*
X52308274Y-45654183D01*
X52336816Y-45645891D01*
X52353591Y-45641019D01*
X52353595Y-45641017D01*
X52371026Y-45630708D01*
X52388780Y-45622009D01*
X52407617Y-45614552D01*
X52445786Y-45586818D01*
X52450744Y-45583562D01*
X52491362Y-45559542D01*
X52505685Y-45545218D01*
X52520724Y-45532374D01*
X52537107Y-45520472D01*
X52567193Y-45484103D01*
X52571161Y-45479741D01*
X54363657Y-43687245D01*
X54376092Y-43677284D01*
X54375905Y-43677057D01*
X54382016Y-43672001D01*
X54382015Y-43672001D01*
X54382018Y-43672000D01*
X54429352Y-43621592D01*
X54430667Y-43620235D01*
X54451134Y-43599770D01*
X54455429Y-43594232D01*
X54459271Y-43589731D01*
X54491586Y-43555321D01*
X54501345Y-43537567D01*
X54512197Y-43521046D01*
X54524613Y-43505041D01*
X54543347Y-43461748D01*
X54545961Y-43456412D01*
X54568694Y-43415061D01*
X54568695Y-43415060D01*
X54573733Y-43395435D01*
X54580138Y-43376730D01*
X54588181Y-43358145D01*
X54595563Y-43311525D01*
X54596761Y-43305744D01*
X54608500Y-43260030D01*
X54608500Y-43239769D01*
X54610051Y-43220058D01*
X54613219Y-43200056D01*
X54608780Y-43153089D01*
X54608500Y-43147157D01*
X54608500Y-41839959D01*
X54628502Y-41771838D01*
X54668354Y-41732718D01*
X54671845Y-41730564D01*
X54698652Y-41714030D01*
X54824030Y-41588652D01*
X54824037Y-41588639D01*
X54826478Y-41585554D01*
X54828709Y-41583973D01*
X54829220Y-41583463D01*
X54829307Y-41583550D01*
X54884416Y-41544521D01*
X54955340Y-41541324D01*
X55016734Y-41576980D01*
X55024161Y-41585551D01*
X55026369Y-41588344D01*
X55151654Y-41713629D01*
X55151660Y-41713634D01*
X55302474Y-41806657D01*
X55470678Y-41862393D01*
X55470681Y-41862394D01*
X55574483Y-41872999D01*
X55574483Y-41873000D01*
X55621000Y-41873000D01*
X55621000Y-40894000D01*
X56129000Y-40894000D01*
X56129000Y-41873000D01*
X56175517Y-41873000D01*
X56175516Y-41872999D01*
X56279318Y-41862394D01*
X56279321Y-41862393D01*
X56447525Y-41806657D01*
X56598339Y-41713634D01*
X56598345Y-41713629D01*
X56723629Y-41588345D01*
X56723634Y-41588339D01*
X56816657Y-41437525D01*
X56872393Y-41269321D01*
X56872394Y-41269318D01*
X56882999Y-41165516D01*
X56883000Y-41165516D01*
X56883000Y-40894000D01*
X56129000Y-40894000D01*
X55621000Y-40894000D01*
X55621000Y-40512000D01*
X55641002Y-40443879D01*
X55694658Y-40397386D01*
X55747000Y-40386000D01*
X56883000Y-40386000D01*
X56883000Y-40114483D01*
X56872394Y-40010681D01*
X56872393Y-40010678D01*
X56816657Y-39842474D01*
X56723634Y-39691660D01*
X56723629Y-39691654D01*
X56598345Y-39566370D01*
X56598339Y-39566365D01*
X56447524Y-39473342D01*
X56433225Y-39468604D01*
X56374853Y-39428190D01*
X56347597Y-39362634D01*
X56360110Y-39292749D01*
X56408419Y-39240723D01*
X56472857Y-39222999D01*
X56503956Y-39222999D01*
X56541250Y-39220065D01*
X56700900Y-39173681D01*
X56844001Y-39089051D01*
X56844003Y-39089050D01*
X56961550Y-38971503D01*
X56961551Y-38971501D01*
X57046181Y-38828401D01*
X57092493Y-38669000D01*
X55722000Y-38669000D01*
X55653879Y-38648998D01*
X55607386Y-38595342D01*
X55596000Y-38543000D01*
X55596000Y-37607000D01*
X56104000Y-37607000D01*
X56104000Y-38161000D01*
X57092492Y-38161000D01*
X57046181Y-38001598D01*
X56961551Y-37858498D01*
X56961550Y-37858496D01*
X56844003Y-37740949D01*
X56844001Y-37740948D01*
X56700901Y-37656318D01*
X56541248Y-37609934D01*
X56541250Y-37609934D01*
X56503956Y-37607000D01*
X56104000Y-37607000D01*
X55596000Y-37607000D01*
X55347000Y-37607000D01*
X55278879Y-37586998D01*
X55232386Y-37533342D01*
X55221000Y-37481000D01*
X55221000Y-37449500D01*
X55241002Y-37381379D01*
X55294658Y-37334886D01*
X55347000Y-37323500D01*
X56504011Y-37323500D01*
X56504011Y-37323499D01*
X56541331Y-37320562D01*
X56701101Y-37274145D01*
X56701103Y-37274143D01*
X56701105Y-37274143D01*
X56821853Y-37202732D01*
X56844307Y-37189453D01*
X56961953Y-37071807D01*
X57019885Y-36973849D01*
X57046643Y-36928605D01*
X57046643Y-36928603D01*
X57046645Y-36928601D01*
X57093062Y-36768831D01*
X57095999Y-36731511D01*
X57096000Y-36731511D01*
X57096000Y-36298489D01*
X57095999Y-36298488D01*
X57093520Y-36266996D01*
X57093062Y-36261169D01*
X57046645Y-36101399D01*
X57046643Y-36101397D01*
X57046643Y-36101394D01*
X56961955Y-35958196D01*
X56961950Y-35958189D01*
X56844310Y-35840549D01*
X56844303Y-35840544D01*
X56701105Y-35755856D01*
X56661305Y-35744293D01*
X56574344Y-35719029D01*
X56514511Y-35680817D01*
X56484833Y-35616321D01*
X56483499Y-35598041D01*
X56483499Y-35505378D01*
X56503501Y-35437258D01*
X56543352Y-35398138D01*
X56598652Y-35364030D01*
X56724030Y-35238652D01*
X56817115Y-35087738D01*
X56872887Y-34919426D01*
X56883500Y-34815545D01*
X56883499Y-34229592D01*
X56903501Y-34161472D01*
X56920399Y-34140503D01*
X57538657Y-33522245D01*
X57551092Y-33512284D01*
X57550905Y-33512057D01*
X57557016Y-33507001D01*
X57557015Y-33507001D01*
X57557018Y-33507000D01*
X57604352Y-33456592D01*
X57605667Y-33455235D01*
X57626134Y-33434770D01*
X57630429Y-33429232D01*
X57634271Y-33424731D01*
X57666586Y-33390321D01*
X57676345Y-33372567D01*
X57687197Y-33356046D01*
X57699613Y-33340041D01*
X57718347Y-33296748D01*
X57720961Y-33291412D01*
X57743694Y-33250061D01*
X57743695Y-33250060D01*
X57748733Y-33230435D01*
X57755138Y-33211730D01*
X57763181Y-33193145D01*
X57768637Y-33158697D01*
X57770561Y-33146547D01*
X57771762Y-33140740D01*
X57783500Y-33095030D01*
X57783500Y-33074774D01*
X57785051Y-33055063D01*
X57788220Y-33035057D01*
X57785629Y-33007651D01*
X57783780Y-32988080D01*
X57783500Y-32982148D01*
X57783500Y-29524593D01*
X57803502Y-29456472D01*
X57820400Y-29435503D01*
X59383131Y-27872771D01*
X59445441Y-27838748D01*
X59516256Y-27843812D01*
X59573092Y-27886359D01*
X59597794Y-27951463D01*
X59615436Y-28164369D01*
X59643182Y-28273935D01*
X59640514Y-28344882D01*
X59610132Y-28393961D01*
X59301336Y-28702757D01*
X59288901Y-28712721D01*
X59289089Y-28712948D01*
X59282979Y-28718002D01*
X59235694Y-28768355D01*
X59234319Y-28769774D01*
X59213863Y-28790231D01*
X59209560Y-28795777D01*
X59205714Y-28800279D01*
X59173417Y-28834674D01*
X59173411Y-28834683D01*
X59163651Y-28852435D01*
X59152803Y-28868950D01*
X59140386Y-28884958D01*
X59121645Y-28928264D01*
X59119034Y-28933594D01*
X59096305Y-28974939D01*
X59096303Y-28974944D01*
X59091267Y-28994559D01*
X59084864Y-29013262D01*
X59076819Y-29031852D01*
X59069437Y-29078456D01*
X59068233Y-29084268D01*
X59056500Y-29129968D01*
X59056500Y-29150223D01*
X59054949Y-29169933D01*
X59051780Y-29189942D01*
X59051780Y-29189943D01*
X59056220Y-29236917D01*
X59056500Y-29242850D01*
X59056500Y-41639888D01*
X59036498Y-41708009D01*
X58982842Y-41754502D01*
X58912568Y-41764606D01*
X58879251Y-41754995D01*
X58876753Y-41753882D01*
X58876752Y-41753882D01*
X58702288Y-41676206D01*
X58515487Y-41636500D01*
X58324513Y-41636500D01*
X58137711Y-41676206D01*
X57963247Y-41753882D01*
X57808744Y-41866135D01*
X57680965Y-42008048D01*
X57680958Y-42008058D01*
X57585476Y-42173438D01*
X57585473Y-42173445D01*
X57526457Y-42355072D01*
X57509092Y-42520292D01*
X57482079Y-42585949D01*
X57472877Y-42596216D01*
X53586336Y-46482757D01*
X53573901Y-46492721D01*
X53574089Y-46492948D01*
X53567979Y-46498002D01*
X53520694Y-46548355D01*
X53519319Y-46549774D01*
X53498863Y-46570231D01*
X53494560Y-46575777D01*
X53490714Y-46580279D01*
X53458417Y-46614674D01*
X53458411Y-46614683D01*
X53448651Y-46632435D01*
X53437803Y-46648950D01*
X53425386Y-46664958D01*
X53406645Y-46708264D01*
X53404034Y-46713594D01*
X53381305Y-46754939D01*
X53381303Y-46754944D01*
X53376267Y-46774559D01*
X53369864Y-46793262D01*
X53361819Y-46811852D01*
X53354437Y-46858456D01*
X53353233Y-46864268D01*
X53341499Y-46909969D01*
X53341499Y-46930231D01*
X53339948Y-46949933D01*
X53336780Y-46969938D01*
X53336780Y-46969944D01*
X53341220Y-47016917D01*
X53341500Y-47022850D01*
X53341500Y-53207476D01*
X53321498Y-53275597D01*
X53267842Y-53322090D01*
X53255134Y-53327080D01*
X53177264Y-53352884D01*
X53026347Y-53445970D01*
X53026341Y-53445975D01*
X52900975Y-53571341D01*
X52900970Y-53571347D01*
X52820601Y-53701647D01*
X52767815Y-53749125D01*
X52713360Y-53761500D01*
X51959500Y-53761500D01*
X51891379Y-53741498D01*
X51844886Y-53687842D01*
X51833500Y-53635500D01*
X51833500Y-53546367D01*
X51833499Y-53546350D01*
X51826990Y-53485803D01*
X51826988Y-53485795D01*
X51796023Y-53402777D01*
X51775889Y-53348796D01*
X51775888Y-53348794D01*
X51775887Y-53348792D01*
X51688261Y-53231738D01*
X51571207Y-53144112D01*
X51571202Y-53144110D01*
X51434204Y-53093011D01*
X51434196Y-53093009D01*
X51373649Y-53086500D01*
X51373638Y-53086500D01*
X49876362Y-53086500D01*
X49876350Y-53086500D01*
X49815803Y-53093009D01*
X49815795Y-53093011D01*
X49678797Y-53144110D01*
X49678792Y-53144112D01*
X49561738Y-53231738D01*
X49474112Y-53348792D01*
X49474110Y-53348797D01*
X49423011Y-53485795D01*
X49423009Y-53485803D01*
X49416500Y-53546350D01*
X49416500Y-55243649D01*
X49423009Y-55304196D01*
X49423011Y-55304204D01*
X49474110Y-55441202D01*
X49474112Y-55441207D01*
X49561738Y-55558261D01*
X49678792Y-55645887D01*
X49678794Y-55645888D01*
X49678796Y-55645889D01*
X49737875Y-55667924D01*
X49815795Y-55696988D01*
X49815803Y-55696990D01*
X49878967Y-55703780D01*
X49944560Y-55730948D01*
X49985051Y-55789266D01*
X49991500Y-55829058D01*
X49991500Y-60160941D01*
X49971498Y-60229062D01*
X49917842Y-60275555D01*
X49878969Y-60286219D01*
X49815802Y-60293010D01*
X49815795Y-60293011D01*
X49678797Y-60344110D01*
X49678792Y-60344112D01*
X49561738Y-60431738D01*
X49474112Y-60548792D01*
X49474110Y-60548797D01*
X49423011Y-60685795D01*
X49423009Y-60685803D01*
X49416500Y-60746350D01*
X49416500Y-62443649D01*
X49423009Y-62504196D01*
X49423011Y-62504204D01*
X49474110Y-62641202D01*
X49474112Y-62641207D01*
X49561738Y-62758261D01*
X49678792Y-62845887D01*
X49678794Y-62845888D01*
X49678796Y-62845889D01*
X49730034Y-62865000D01*
X49815795Y-62896988D01*
X49815803Y-62896990D01*
X49876350Y-62903499D01*
X49876355Y-62903499D01*
X49876362Y-62903500D01*
X49876368Y-62903500D01*
X51373632Y-62903500D01*
X51373638Y-62903500D01*
X51373645Y-62903499D01*
X51373649Y-62903499D01*
X51434196Y-62896990D01*
X51434199Y-62896989D01*
X51434201Y-62896989D01*
X51571204Y-62845889D01*
X51571799Y-62845444D01*
X51688261Y-62758261D01*
X51775887Y-62641207D01*
X51775887Y-62641206D01*
X51775889Y-62641204D01*
X51826989Y-62504201D01*
X51833500Y-62443638D01*
X51833500Y-62354500D01*
X51853502Y-62286379D01*
X51907158Y-62239886D01*
X51959500Y-62228500D01*
X52792330Y-62228500D01*
X52860451Y-62248502D01*
X52899570Y-62288352D01*
X52925968Y-62331149D01*
X52925975Y-62331158D01*
X53051341Y-62456524D01*
X53051347Y-62456529D01*
X53051348Y-62456530D01*
X53202262Y-62549615D01*
X53370574Y-62605387D01*
X53474455Y-62616000D01*
X54475544Y-62615999D01*
X54579426Y-62605387D01*
X54747738Y-62549615D01*
X54898652Y-62456530D01*
X55024030Y-62331152D01*
X55117115Y-62180238D01*
X55172887Y-62011926D01*
X55183500Y-61908045D01*
X55183499Y-61281956D01*
X55172887Y-61178074D01*
X55117115Y-61009762D01*
X55024030Y-60858848D01*
X55024029Y-60858847D01*
X55024024Y-60858841D01*
X54936778Y-60771595D01*
X54902752Y-60709283D01*
X54907817Y-60638468D01*
X54936778Y-60593405D01*
X55024024Y-60506158D01*
X55024030Y-60506152D01*
X55117115Y-60355238D01*
X55172887Y-60186926D01*
X55183500Y-60083045D01*
X55183499Y-59456956D01*
X55176603Y-59389455D01*
X55172887Y-59353074D01*
X55150518Y-59285568D01*
X55117115Y-59184762D01*
X55024030Y-59033848D01*
X55024029Y-59033847D01*
X55024024Y-59033841D01*
X54898658Y-58908475D01*
X54898652Y-58908470D01*
X54785456Y-58838650D01*
X54747738Y-58815385D01*
X54663581Y-58787499D01*
X54579427Y-58759613D01*
X54579420Y-58759612D01*
X54475553Y-58749000D01*
X53474455Y-58749000D01*
X53370574Y-58759612D01*
X53202261Y-58815385D01*
X53051347Y-58908470D01*
X53051341Y-58908475D01*
X52925975Y-59033841D01*
X52925970Y-59033847D01*
X52832885Y-59184762D01*
X52777113Y-59353072D01*
X52777112Y-59353079D01*
X52766500Y-59456946D01*
X52766500Y-60083044D01*
X52777112Y-60186925D01*
X52832885Y-60355238D01*
X52925970Y-60506152D01*
X52925975Y-60506158D01*
X53013222Y-60593405D01*
X53047248Y-60655717D01*
X53042183Y-60726532D01*
X53013222Y-60771595D01*
X52925975Y-60858841D01*
X52925968Y-60858850D01*
X52899570Y-60901648D01*
X52846784Y-60949126D01*
X52792330Y-60961500D01*
X51959500Y-60961500D01*
X51891379Y-60941498D01*
X51844886Y-60887842D01*
X51833500Y-60835500D01*
X51833500Y-60746367D01*
X51833499Y-60746350D01*
X51826990Y-60685803D01*
X51826988Y-60685795D01*
X51779618Y-60558794D01*
X51775889Y-60548796D01*
X51775888Y-60548794D01*
X51775887Y-60548792D01*
X51688261Y-60431738D01*
X51571207Y-60344112D01*
X51571202Y-60344110D01*
X51434204Y-60293011D01*
X51434197Y-60293010D01*
X51371031Y-60286219D01*
X51305439Y-60259050D01*
X51264948Y-60200732D01*
X51258500Y-60160941D01*
X51258500Y-56449000D01*
X52742000Y-56449000D01*
X52742000Y-56495516D01*
X52752605Y-56599318D01*
X52752606Y-56599321D01*
X52808342Y-56767525D01*
X52901365Y-56918339D01*
X52901370Y-56918345D01*
X53026654Y-57043629D01*
X53026660Y-57043634D01*
X53177474Y-57136657D01*
X53345678Y-57192393D01*
X53345681Y-57192394D01*
X53449483Y-57202999D01*
X53449483Y-57203000D01*
X53721000Y-57203000D01*
X53721000Y-56449000D01*
X54229000Y-56449000D01*
X54229000Y-57203000D01*
X54500517Y-57203000D01*
X54500516Y-57202999D01*
X54604318Y-57192394D01*
X54604321Y-57192393D01*
X54772525Y-57136657D01*
X54923339Y-57043634D01*
X54923345Y-57043629D01*
X55048629Y-56918345D01*
X55048634Y-56918339D01*
X55141657Y-56767525D01*
X55197393Y-56599321D01*
X55197394Y-56599318D01*
X55207999Y-56495516D01*
X55208000Y-56495516D01*
X55208000Y-56449000D01*
X54229000Y-56449000D01*
X53721000Y-56449000D01*
X52742000Y-56449000D01*
X51258500Y-56449000D01*
X51258500Y-55829058D01*
X51278502Y-55760937D01*
X51332158Y-55714444D01*
X51371033Y-55703780D01*
X51434196Y-55696990D01*
X51434199Y-55696989D01*
X51434201Y-55696989D01*
X51571204Y-55645889D01*
X51571799Y-55645444D01*
X51688261Y-55558261D01*
X51775887Y-55441207D01*
X51775887Y-55441206D01*
X51775889Y-55441204D01*
X51826989Y-55304201D01*
X51827065Y-55303500D01*
X51833499Y-55243649D01*
X51833500Y-55243632D01*
X51833500Y-55154500D01*
X51853502Y-55086379D01*
X51907158Y-55039886D01*
X51959500Y-55028500D01*
X52858628Y-55028500D01*
X52926749Y-55048502D01*
X52947718Y-55065400D01*
X52989375Y-55107057D01*
X53026350Y-55144032D01*
X53029450Y-55146483D01*
X53031024Y-55148706D01*
X53031538Y-55149220D01*
X53031450Y-55149307D01*
X53070481Y-55204422D01*
X53073673Y-55275347D01*
X53038014Y-55336739D01*
X53029454Y-55344157D01*
X53026654Y-55346370D01*
X52901370Y-55471654D01*
X52901365Y-55471660D01*
X52808342Y-55622474D01*
X52752606Y-55790678D01*
X52752605Y-55790681D01*
X52742000Y-55894483D01*
X52742000Y-55941000D01*
X55208000Y-55941000D01*
X55208000Y-55894483D01*
X55197394Y-55790681D01*
X55197393Y-55790678D01*
X55141657Y-55622474D01*
X55048634Y-55471660D01*
X55048629Y-55471654D01*
X54923344Y-55346369D01*
X54920551Y-55344161D01*
X54919131Y-55342156D01*
X54918150Y-55341175D01*
X54918317Y-55341007D01*
X54879519Y-55286222D01*
X54876325Y-55215298D01*
X54911983Y-55153905D01*
X54920554Y-55146478D01*
X54923639Y-55144037D01*
X54923652Y-55144030D01*
X55049030Y-55018652D01*
X55142115Y-54867738D01*
X55197887Y-54699426D01*
X55208500Y-54595545D01*
X55208499Y-53994456D01*
X55197887Y-53890574D01*
X55142115Y-53722262D01*
X55049030Y-53571348D01*
X55049029Y-53571347D01*
X55049024Y-53571341D01*
X54923658Y-53445975D01*
X54923652Y-53445970D01*
X54923651Y-53445970D01*
X54772738Y-53352885D01*
X54772735Y-53352884D01*
X54694866Y-53327080D01*
X54636495Y-53286666D01*
X54609240Y-53221109D01*
X54608500Y-53207476D01*
X54608500Y-47304593D01*
X54628502Y-47236472D01*
X54645400Y-47215503D01*
X58370499Y-43490405D01*
X58432811Y-43456379D01*
X58459594Y-43453500D01*
X58515487Y-43453500D01*
X58702288Y-43413794D01*
X58876752Y-43336118D01*
X58876756Y-43336114D01*
X58879251Y-43335004D01*
X58949618Y-43325570D01*
X59013915Y-43355676D01*
X59051728Y-43415765D01*
X59056500Y-43450111D01*
X59056499Y-50716146D01*
X59054751Y-50731988D01*
X59055044Y-50732016D01*
X59054298Y-50739908D01*
X59056469Y-50808974D01*
X59056500Y-50810953D01*
X59056500Y-50839851D01*
X59056501Y-50839872D01*
X59057378Y-50846820D01*
X59057844Y-50852732D01*
X59059326Y-50899888D01*
X59059327Y-50899893D01*
X59064977Y-50919339D01*
X59068986Y-50938697D01*
X59071525Y-50958793D01*
X59071526Y-50958799D01*
X59088893Y-51002662D01*
X59090816Y-51008279D01*
X59103982Y-51053593D01*
X59114294Y-51071031D01*
X59122988Y-51088779D01*
X59130444Y-51107609D01*
X59130450Y-51107620D01*
X59158177Y-51145783D01*
X59161437Y-51150746D01*
X59185460Y-51191365D01*
X59199779Y-51205684D01*
X59212617Y-51220714D01*
X59222156Y-51233843D01*
X59224528Y-51237107D01*
X59252794Y-51260491D01*
X59260886Y-51267185D01*
X59265267Y-51271171D01*
X66224168Y-58230072D01*
X73152753Y-65158657D01*
X73162720Y-65171097D01*
X73162947Y-65170910D01*
X73167999Y-65177017D01*
X73218388Y-65224335D01*
X73219777Y-65225681D01*
X73229566Y-65235470D01*
X73240226Y-65246131D01*
X73245768Y-65250430D01*
X73250281Y-65254285D01*
X73284679Y-65286586D01*
X73284680Y-65286586D01*
X73284682Y-65286588D01*
X73302429Y-65296344D01*
X73318959Y-65307202D01*
X73334959Y-65319613D01*
X73357925Y-65329551D01*
X73378251Y-65338347D01*
X73383585Y-65340959D01*
X73424940Y-65363695D01*
X73444562Y-65368733D01*
X73463263Y-65375135D01*
X73481855Y-65383181D01*
X73528470Y-65390563D01*
X73534242Y-65391758D01*
X73579970Y-65403500D01*
X73600231Y-65403500D01*
X73619939Y-65405050D01*
X73639943Y-65408219D01*
X73674464Y-65404956D01*
X73686910Y-65403780D01*
X73692842Y-65403500D01*
X81015200Y-65403500D01*
X81083321Y-65423502D01*
X81129814Y-65477158D01*
X81139918Y-65547432D01*
X81124319Y-65592500D01*
X81080476Y-65668438D01*
X81080473Y-65668445D01*
X81021457Y-65850072D01*
X81001496Y-66040000D01*
X81021457Y-66229927D01*
X81042276Y-66294000D01*
X81080473Y-66411556D01*
X81080476Y-66411561D01*
X81175958Y-66576941D01*
X81175965Y-66576951D01*
X81303744Y-66718864D01*
X81303747Y-66718866D01*
X81458248Y-66831118D01*
X81632712Y-66908794D01*
X81819513Y-66948500D01*
X82010487Y-66948500D01*
X82197288Y-66908794D01*
X82371752Y-66831118D01*
X82371755Y-66831115D01*
X82373378Y-66830393D01*
X82443745Y-66820959D01*
X82508042Y-66851065D01*
X82513722Y-66856405D01*
X82546341Y-66889024D01*
X82546347Y-66889029D01*
X82546348Y-66889030D01*
X82697262Y-66982115D01*
X82865574Y-67037887D01*
X82969455Y-67048500D01*
X84070544Y-67048499D01*
X84174426Y-67037887D01*
X84342738Y-66982115D01*
X84493652Y-66889030D01*
X84619030Y-66763652D01*
X84712115Y-66612738D01*
X84767887Y-66444426D01*
X84778500Y-66340545D01*
X84778500Y-66294000D01*
X95262000Y-66294000D01*
X95262000Y-66340516D01*
X95272605Y-66444318D01*
X95272606Y-66444321D01*
X95328342Y-66612525D01*
X95421365Y-66763339D01*
X95421370Y-66763345D01*
X95546654Y-66888629D01*
X95546660Y-66888634D01*
X95697474Y-66981657D01*
X95865678Y-67037393D01*
X95865681Y-67037394D01*
X95969483Y-67047999D01*
X95969483Y-67048000D01*
X96266000Y-67048000D01*
X96266000Y-66294000D01*
X96774000Y-66294000D01*
X96774000Y-67048000D01*
X97070517Y-67048000D01*
X97070516Y-67047999D01*
X97174318Y-67037394D01*
X97174321Y-67037393D01*
X97342525Y-66981657D01*
X97493339Y-66888634D01*
X97493345Y-66888629D01*
X97618629Y-66763345D01*
X97618634Y-66763339D01*
X97711657Y-66612525D01*
X97767393Y-66444321D01*
X97767394Y-66444318D01*
X97777999Y-66340516D01*
X97778000Y-66340516D01*
X97778000Y-66294000D01*
X96774000Y-66294000D01*
X96266000Y-66294000D01*
X95262000Y-66294000D01*
X84778500Y-66294000D01*
X84778499Y-65739456D01*
X84767887Y-65635574D01*
X84712115Y-65467262D01*
X84712112Y-65467258D01*
X84712112Y-65467256D01*
X84709014Y-65460612D01*
X84711336Y-65459528D01*
X84695772Y-65402695D01*
X84711134Y-65350376D01*
X84709014Y-65349388D01*
X84712113Y-65342741D01*
X84712112Y-65342741D01*
X84712115Y-65342738D01*
X84767887Y-65174426D01*
X84778500Y-65070545D01*
X84778499Y-64469456D01*
X84767887Y-64365574D01*
X84712115Y-64197262D01*
X84712112Y-64197258D01*
X84712112Y-64197256D01*
X84709014Y-64190612D01*
X84711336Y-64189528D01*
X84695772Y-64132695D01*
X84711134Y-64080376D01*
X84709014Y-64079388D01*
X84712113Y-64072741D01*
X84712112Y-64072741D01*
X84712115Y-64072738D01*
X84767887Y-63904426D01*
X84778500Y-63800545D01*
X84778499Y-63199456D01*
X84767887Y-63095574D01*
X84712115Y-62927262D01*
X84712112Y-62927258D01*
X84712112Y-62927256D01*
X84709014Y-62920612D01*
X84711336Y-62919528D01*
X84695772Y-62862695D01*
X84711134Y-62810376D01*
X84709014Y-62809388D01*
X84712113Y-62802741D01*
X84712112Y-62802741D01*
X84712115Y-62802738D01*
X84767887Y-62634426D01*
X84778500Y-62530545D01*
X84778499Y-61929456D01*
X84767887Y-61825574D01*
X84712115Y-61657262D01*
X84712112Y-61657258D01*
X84712112Y-61657256D01*
X84709014Y-61650612D01*
X84711336Y-61649528D01*
X84695772Y-61592695D01*
X84711134Y-61540376D01*
X84709014Y-61539388D01*
X84712113Y-61532741D01*
X84712112Y-61532741D01*
X84712115Y-61532738D01*
X84767887Y-61364426D01*
X84778500Y-61260545D01*
X84778499Y-60659456D01*
X84767887Y-60555574D01*
X84767886Y-60555570D01*
X84767886Y-60555568D01*
X84738680Y-60467432D01*
X84712115Y-60387262D01*
X84712110Y-60387255D01*
X84709010Y-60380602D01*
X84711330Y-60379520D01*
X84695774Y-60322670D01*
X84711134Y-60270381D01*
X84709012Y-60269392D01*
X84712110Y-60262744D01*
X84712115Y-60262738D01*
X84767887Y-60094426D01*
X84778500Y-59990545D01*
X84778499Y-59389456D01*
X84767887Y-59285574D01*
X84712115Y-59117262D01*
X84712112Y-59117258D01*
X84712112Y-59117256D01*
X84709014Y-59110612D01*
X84711336Y-59109528D01*
X84695772Y-59052695D01*
X84711134Y-59000376D01*
X84709014Y-58999388D01*
X84712113Y-58992741D01*
X84712112Y-58992741D01*
X84712115Y-58992738D01*
X84767887Y-58824426D01*
X84778500Y-58720545D01*
X84778499Y-58119456D01*
X84767887Y-58015574D01*
X84712115Y-57847262D01*
X84712112Y-57847258D01*
X84712112Y-57847256D01*
X84709014Y-57840612D01*
X84711336Y-57839528D01*
X84695772Y-57782695D01*
X84711134Y-57730376D01*
X84709014Y-57729388D01*
X84712113Y-57722741D01*
X84712112Y-57722741D01*
X84712115Y-57722738D01*
X84767887Y-57554426D01*
X84778500Y-57450545D01*
X84778499Y-56849456D01*
X84767887Y-56745574D01*
X84712115Y-56577262D01*
X84712112Y-56577258D01*
X84712112Y-56577256D01*
X84709014Y-56570612D01*
X84711336Y-56569528D01*
X84695772Y-56512695D01*
X84711134Y-56460376D01*
X84709014Y-56459388D01*
X84712113Y-56452741D01*
X84712112Y-56452741D01*
X84712115Y-56452738D01*
X84767887Y-56284426D01*
X84778500Y-56180545D01*
X84778499Y-55626000D01*
X95262000Y-55626000D01*
X96266000Y-55626000D01*
X96266000Y-54872000D01*
X96774000Y-54872000D01*
X96774000Y-55626000D01*
X97778000Y-55626000D01*
X97778000Y-55579483D01*
X97767394Y-55475681D01*
X97767393Y-55475678D01*
X97711657Y-55307474D01*
X97618634Y-55156660D01*
X97618629Y-55156654D01*
X97493345Y-55031370D01*
X97493339Y-55031365D01*
X97342525Y-54938342D01*
X97174321Y-54882606D01*
X97174318Y-54882605D01*
X97070516Y-54872000D01*
X96774000Y-54872000D01*
X96266000Y-54872000D01*
X95969483Y-54872000D01*
X95865681Y-54882605D01*
X95865678Y-54882606D01*
X95697474Y-54938342D01*
X95546660Y-55031365D01*
X95546654Y-55031370D01*
X95421370Y-55156654D01*
X95421365Y-55156660D01*
X95328342Y-55307474D01*
X95272606Y-55475678D01*
X95272605Y-55475681D01*
X95262000Y-55579483D01*
X95262000Y-55626000D01*
X84778499Y-55626000D01*
X84778499Y-55579456D01*
X84767887Y-55475574D01*
X84712115Y-55307262D01*
X84619030Y-55156348D01*
X84619029Y-55156347D01*
X84619024Y-55156341D01*
X84493658Y-55030975D01*
X84493652Y-55030970D01*
X84491711Y-55029773D01*
X84342738Y-54937885D01*
X84258582Y-54909998D01*
X84174427Y-54882113D01*
X84174420Y-54882112D01*
X84070553Y-54871500D01*
X82969455Y-54871500D01*
X82865574Y-54882112D01*
X82739710Y-54923819D01*
X82697262Y-54937885D01*
X82697260Y-54937885D01*
X82697260Y-54937886D01*
X82662391Y-54959393D01*
X82593911Y-54978129D01*
X82526173Y-54956868D01*
X82507151Y-54941246D01*
X81779905Y-54214000D01*
X85262001Y-54214000D01*
X85262001Y-54517221D01*
X85268481Y-54588553D01*
X85319633Y-54752706D01*
X85408578Y-54899840D01*
X85408586Y-54899850D01*
X85530149Y-55021413D01*
X85530159Y-55021421D01*
X85677293Y-55110366D01*
X85841446Y-55161518D01*
X85912781Y-55167999D01*
X85915999Y-55167999D01*
X85916000Y-55167998D01*
X85916000Y-54214000D01*
X86424000Y-54214000D01*
X86424000Y-55167999D01*
X86427222Y-55167999D01*
X86498553Y-55161518D01*
X86662703Y-55110366D01*
X86668285Y-55107855D01*
X86738613Y-55098137D01*
X86771706Y-55107852D01*
X86777291Y-55110365D01*
X86941446Y-55161518D01*
X87012781Y-55167999D01*
X87015999Y-55167999D01*
X87016000Y-55167998D01*
X87016000Y-54214000D01*
X86424000Y-54214000D01*
X85916000Y-54214000D01*
X85262001Y-54214000D01*
X81779905Y-54214000D01*
X69250405Y-41684500D01*
X69216379Y-41622188D01*
X69213500Y-41595405D01*
X69213500Y-31756920D01*
X69233502Y-31688799D01*
X69279527Y-31646108D01*
X69325576Y-31621189D01*
X69503240Y-31482906D01*
X69655722Y-31317268D01*
X69744816Y-31180898D01*
X69798819Y-31134810D01*
X69869167Y-31125235D01*
X69933524Y-31155212D01*
X69955782Y-31180898D01*
X70044674Y-31316958D01*
X70197097Y-31482534D01*
X70374698Y-31620767D01*
X70374699Y-31620768D01*
X70572628Y-31727882D01*
X70572630Y-31727883D01*
X70785483Y-31800955D01*
X70785492Y-31800957D01*
X70866000Y-31814391D01*
X70866000Y-30913674D01*
X70977685Y-30964680D01*
X71084237Y-30980000D01*
X71155763Y-30980000D01*
X71262315Y-30964680D01*
X71374000Y-30913674D01*
X71374000Y-31814390D01*
X71454507Y-31800957D01*
X71454516Y-31800955D01*
X71667369Y-31727883D01*
X71667371Y-31727882D01*
X71865300Y-31620768D01*
X71865301Y-31620767D01*
X72042905Y-31482532D01*
X72104047Y-31416113D01*
X72164899Y-31379541D01*
X72235863Y-31381674D01*
X72294409Y-31421835D01*
X72314804Y-31457415D01*
X72359111Y-31576204D01*
X72359112Y-31576207D01*
X72446738Y-31693261D01*
X72563792Y-31780887D01*
X72563794Y-31780888D01*
X72563796Y-31780889D01*
X72617600Y-31800957D01*
X72700795Y-31831988D01*
X72700803Y-31831990D01*
X72761350Y-31838499D01*
X72761355Y-31838499D01*
X72761362Y-31838500D01*
X72900500Y-31838500D01*
X72968621Y-31858502D01*
X73015114Y-31912158D01*
X73026500Y-31964500D01*
X73026500Y-37066146D01*
X73024751Y-37081988D01*
X73025044Y-37082016D01*
X73024298Y-37089908D01*
X73026469Y-37158974D01*
X73026500Y-37160953D01*
X73026500Y-37189851D01*
X73026501Y-37189872D01*
X73027378Y-37196820D01*
X73027844Y-37202732D01*
X73029326Y-37249888D01*
X73029327Y-37249893D01*
X73034977Y-37269339D01*
X73038986Y-37288697D01*
X73041525Y-37308793D01*
X73041526Y-37308799D01*
X73058893Y-37352662D01*
X73060816Y-37358279D01*
X73073982Y-37403593D01*
X73084294Y-37421031D01*
X73092988Y-37438779D01*
X73100444Y-37457609D01*
X73100450Y-37457620D01*
X73128177Y-37495783D01*
X73131437Y-37500746D01*
X73155460Y-37541365D01*
X73169779Y-37555684D01*
X73182617Y-37570714D01*
X73192156Y-37583843D01*
X73194528Y-37587107D01*
X73218575Y-37607000D01*
X73230886Y-37617185D01*
X73235267Y-37621171D01*
X79776284Y-44162188D01*
X86270956Y-50656860D01*
X86304982Y-50719172D01*
X86299917Y-50789987D01*
X86257370Y-50846823D01*
X86221494Y-50865559D01*
X86107478Y-50903340D01*
X85956660Y-50996365D01*
X85956654Y-50996370D01*
X85831370Y-51121654D01*
X85831365Y-51121660D01*
X85738342Y-51272474D01*
X85682606Y-51440678D01*
X85682605Y-51440681D01*
X85672000Y-51544483D01*
X85672000Y-51816000D01*
X86808000Y-51816000D01*
X86876121Y-51836002D01*
X86922614Y-51889658D01*
X86934000Y-51942000D01*
X86934000Y-52198000D01*
X86913998Y-52266121D01*
X86860342Y-52312614D01*
X86808000Y-52324000D01*
X85672000Y-52324000D01*
X85672000Y-52595516D01*
X85682605Y-52699318D01*
X85684047Y-52706053D01*
X85681058Y-52706692D01*
X85682919Y-52764316D01*
X85646482Y-52825249D01*
X85626125Y-52840565D01*
X85530162Y-52898576D01*
X85530149Y-52898586D01*
X85408586Y-53020149D01*
X85408578Y-53020159D01*
X85319633Y-53167293D01*
X85268481Y-53331446D01*
X85268481Y-53331447D01*
X85262000Y-53402777D01*
X85262000Y-53706000D01*
X87335500Y-53706000D01*
X87403621Y-53726002D01*
X87450114Y-53779658D01*
X87461500Y-53832000D01*
X87461500Y-54517261D01*
X87467986Y-54588645D01*
X87467986Y-54588647D01*
X87467987Y-54588649D01*
X87518294Y-54750093D01*
X87518295Y-54750094D01*
X87524000Y-54787579D01*
X87524000Y-55167999D01*
X87527222Y-55167999D01*
X87598553Y-55161518D01*
X87762707Y-55110365D01*
X87767668Y-55108133D01*
X87837996Y-55098412D01*
X87871106Y-55108135D01*
X87877084Y-55110825D01*
X87877087Y-55110827D01*
X88041351Y-55162013D01*
X88112735Y-55168500D01*
X88627264Y-55168499D01*
X88698649Y-55162013D01*
X88862913Y-55110827D01*
X88862917Y-55110824D01*
X88868288Y-55108408D01*
X88938617Y-55098690D01*
X88971712Y-55108408D01*
X88977083Y-55110825D01*
X88977084Y-55110825D01*
X88977087Y-55110827D01*
X89141351Y-55162013D01*
X89212735Y-55168500D01*
X89727264Y-55168499D01*
X89798649Y-55162013D01*
X89962913Y-55110827D01*
X89962917Y-55110824D01*
X89968288Y-55108408D01*
X90038617Y-55098690D01*
X90071712Y-55108408D01*
X90077083Y-55110825D01*
X90077084Y-55110825D01*
X90077087Y-55110827D01*
X90241351Y-55162013D01*
X90312735Y-55168500D01*
X90827264Y-55168499D01*
X90898649Y-55162013D01*
X91062913Y-55110827D01*
X91062917Y-55110824D01*
X91068288Y-55108408D01*
X91138617Y-55098690D01*
X91171712Y-55108408D01*
X91177083Y-55110825D01*
X91177084Y-55110825D01*
X91177087Y-55110827D01*
X91341351Y-55162013D01*
X91412735Y-55168500D01*
X91927264Y-55168499D01*
X91998649Y-55162013D01*
X92162913Y-55110827D01*
X92162917Y-55110824D01*
X92168288Y-55108408D01*
X92238617Y-55098690D01*
X92271712Y-55108408D01*
X92277083Y-55110825D01*
X92277084Y-55110825D01*
X92277087Y-55110827D01*
X92441351Y-55162013D01*
X92512735Y-55168500D01*
X93027264Y-55168499D01*
X93098649Y-55162013D01*
X93262913Y-55110827D01*
X93262922Y-55110821D01*
X93268897Y-55108133D01*
X93339225Y-55098412D01*
X93372327Y-55108131D01*
X93377292Y-55110365D01*
X93541446Y-55161518D01*
X93612781Y-55167999D01*
X93615999Y-55167999D01*
X93615999Y-54787579D01*
X93621702Y-54750103D01*
X93672013Y-54588649D01*
X93678500Y-54517265D01*
X93678500Y-54214000D01*
X94124000Y-54214000D01*
X94124000Y-55167999D01*
X94127222Y-55167999D01*
X94198553Y-55161518D01*
X94362706Y-55110366D01*
X94509840Y-55021421D01*
X94509850Y-55021413D01*
X94631413Y-54899850D01*
X94631421Y-54899840D01*
X94720366Y-54752706D01*
X94771518Y-54588553D01*
X94771518Y-54588552D01*
X94778000Y-54517222D01*
X94778000Y-54214000D01*
X94124000Y-54214000D01*
X93678500Y-54214000D01*
X93678499Y-53402736D01*
X93672013Y-53331351D01*
X93633413Y-53207476D01*
X93621705Y-53169902D01*
X93616000Y-53132418D01*
X93616000Y-52752000D01*
X94124000Y-52752000D01*
X94124000Y-53706000D01*
X94777999Y-53706000D01*
X94777999Y-53402778D01*
X94771518Y-53331446D01*
X94720366Y-53167293D01*
X94631421Y-53020159D01*
X94631413Y-53020149D01*
X94509850Y-52898586D01*
X94509840Y-52898578D01*
X94362706Y-52809633D01*
X94198552Y-52758481D01*
X94127223Y-52752000D01*
X94124000Y-52752000D01*
X93616000Y-52752000D01*
X93612766Y-52752001D01*
X93540900Y-52758530D01*
X93471249Y-52744773D01*
X93420092Y-52695544D01*
X93403500Y-52633047D01*
X93403500Y-36973849D01*
X93405249Y-36958012D01*
X93404955Y-36957985D01*
X93405701Y-36950092D01*
X93403531Y-36881042D01*
X93403500Y-36879063D01*
X93403500Y-36850151D01*
X93403500Y-36850144D01*
X93402620Y-36843185D01*
X93402155Y-36837280D01*
X93400673Y-36790110D01*
X93395022Y-36770663D01*
X93391012Y-36751300D01*
X93388474Y-36731203D01*
X93371100Y-36687323D01*
X93369184Y-36681725D01*
X93356018Y-36636406D01*
X93345700Y-36618961D01*
X93337005Y-36601209D01*
X93329553Y-36582385D01*
X93329550Y-36582379D01*
X93301818Y-36544210D01*
X93298562Y-36539253D01*
X93274542Y-36498637D01*
X93274540Y-36498635D01*
X93274540Y-36498634D01*
X93260218Y-36484312D01*
X93247377Y-36469279D01*
X93235471Y-36452892D01*
X93222775Y-36442389D01*
X93199108Y-36422810D01*
X93194736Y-36418831D01*
X89570405Y-32794499D01*
X89536379Y-32732187D01*
X89533500Y-32705404D01*
X89533500Y-31756920D01*
X89553502Y-31688799D01*
X89599527Y-31646108D01*
X89645576Y-31621189D01*
X89823240Y-31482906D01*
X89975722Y-31317268D01*
X90064518Y-31181354D01*
X90118520Y-31135268D01*
X90188868Y-31125692D01*
X90253225Y-31155669D01*
X90275480Y-31181353D01*
X90308607Y-31232058D01*
X90364275Y-31317265D01*
X90364279Y-31317270D01*
X90516762Y-31482908D01*
X90531535Y-31494406D01*
X90694424Y-31621189D01*
X90740471Y-31646108D01*
X90790859Y-31696118D01*
X90806500Y-31756920D01*
X90806500Y-32936146D01*
X90804751Y-32951988D01*
X90805044Y-32952016D01*
X90804298Y-32959908D01*
X90806469Y-33028974D01*
X90806500Y-33030953D01*
X90806500Y-33059851D01*
X90806501Y-33059872D01*
X90807378Y-33066820D01*
X90807844Y-33072732D01*
X90809326Y-33119888D01*
X90809327Y-33119893D01*
X90814977Y-33139339D01*
X90818986Y-33158697D01*
X90821525Y-33178793D01*
X90821526Y-33178799D01*
X90838893Y-33222662D01*
X90840816Y-33228279D01*
X90853982Y-33273593D01*
X90864294Y-33291031D01*
X90872988Y-33308779D01*
X90880444Y-33327609D01*
X90880450Y-33327620D01*
X90908177Y-33365783D01*
X90911437Y-33370746D01*
X90935460Y-33411365D01*
X90949779Y-33425684D01*
X90962617Y-33440714D01*
X90972156Y-33453843D01*
X90974528Y-33457107D01*
X91002794Y-33480491D01*
X91010886Y-33487185D01*
X91015267Y-33491171D01*
X95370096Y-37845999D01*
X99659595Y-42135498D01*
X99693621Y-42197810D01*
X99696500Y-42224593D01*
X99696500Y-54295403D01*
X99676498Y-54363524D01*
X99659595Y-54384498D01*
X97933142Y-56110951D01*
X97870830Y-56144977D01*
X97800015Y-56139912D01*
X97790816Y-56134000D01*
X95262000Y-56134000D01*
X95262000Y-56180516D01*
X95272605Y-56284318D01*
X95272606Y-56284321D01*
X95328344Y-56452531D01*
X95331444Y-56459178D01*
X95329044Y-56460296D01*
X95344520Y-56516858D01*
X95329009Y-56569683D01*
X95330988Y-56570606D01*
X95327888Y-56577254D01*
X95272113Y-56745573D01*
X95272112Y-56745579D01*
X95261500Y-56849446D01*
X95261500Y-57450544D01*
X95272113Y-57554426D01*
X95294129Y-57620868D01*
X95296569Y-57691822D01*
X95260260Y-57752832D01*
X95196731Y-57784528D01*
X95174524Y-57786500D01*
X94688200Y-57786500D01*
X94620079Y-57766498D01*
X94594563Y-57744810D01*
X94591252Y-57741133D01*
X94436752Y-57628882D01*
X94262288Y-57551206D01*
X94075487Y-57511500D01*
X93884513Y-57511500D01*
X93697711Y-57551206D01*
X93523247Y-57628882D01*
X93368744Y-57741135D01*
X93240965Y-57883048D01*
X93240958Y-57883058D01*
X93145476Y-58048438D01*
X93145473Y-58048445D01*
X93086457Y-58230072D01*
X93066496Y-58419999D01*
X93086457Y-58609927D01*
X93116526Y-58702470D01*
X93145473Y-58791556D01*
X93145476Y-58791561D01*
X93240957Y-58956940D01*
X93240958Y-58956942D01*
X93240960Y-58956944D01*
X93252367Y-58969613D01*
X93253337Y-58970690D01*
X93284054Y-59034698D01*
X93275289Y-59105152D01*
X93253337Y-59139310D01*
X93240957Y-59153059D01*
X93145476Y-59318438D01*
X93145473Y-59318445D01*
X93086457Y-59500072D01*
X93066496Y-59689999D01*
X93086457Y-59879927D01*
X93116526Y-59972470D01*
X93145473Y-60061556D01*
X93161026Y-60088495D01*
X93240958Y-60226941D01*
X93240965Y-60226951D01*
X93368744Y-60368864D01*
X93368747Y-60368866D01*
X93523248Y-60481118D01*
X93697712Y-60558794D01*
X93884513Y-60598500D01*
X94075487Y-60598500D01*
X94262288Y-60558794D01*
X94436752Y-60481118D01*
X94591253Y-60368866D01*
X94594562Y-60365190D01*
X94655009Y-60327950D01*
X94688200Y-60323500D01*
X95174525Y-60323500D01*
X95242646Y-60343502D01*
X95289139Y-60397158D01*
X95299243Y-60467432D01*
X95294132Y-60489121D01*
X95272113Y-60555574D01*
X95272112Y-60555576D01*
X95272113Y-60555576D01*
X95272112Y-60555579D01*
X95261500Y-60659446D01*
X95261500Y-61260544D01*
X95272113Y-61364427D01*
X95272113Y-61364431D01*
X95327885Y-61532740D01*
X95330988Y-61539394D01*
X95328673Y-61540472D01*
X95344225Y-61597367D01*
X95328880Y-61649623D01*
X95330988Y-61650606D01*
X95327888Y-61657254D01*
X95272113Y-61825573D01*
X95272112Y-61825579D01*
X95261500Y-61929446D01*
X95261500Y-62530544D01*
X95272112Y-62634425D01*
X95327887Y-62802743D01*
X95330986Y-62809388D01*
X95328665Y-62810470D01*
X95344227Y-62867318D01*
X95328876Y-62919621D01*
X95330988Y-62920606D01*
X95327888Y-62927254D01*
X95272113Y-63095573D01*
X95272112Y-63095579D01*
X95261500Y-63199446D01*
X95261500Y-63800544D01*
X95272113Y-63904427D01*
X95272113Y-63904431D01*
X95327885Y-64072740D01*
X95330988Y-64079394D01*
X95328673Y-64080472D01*
X95344225Y-64137367D01*
X95328880Y-64189623D01*
X95330988Y-64190606D01*
X95327888Y-64197254D01*
X95272113Y-64365573D01*
X95272112Y-64365579D01*
X95261500Y-64469446D01*
X95261500Y-65070544D01*
X95272113Y-65174427D01*
X95272113Y-65174431D01*
X95309278Y-65286586D01*
X95325985Y-65337005D01*
X95327885Y-65342737D01*
X95330990Y-65349398D01*
X95328812Y-65350413D01*
X95344521Y-65407793D01*
X95329259Y-65459804D01*
X95331444Y-65460823D01*
X95328341Y-65467476D01*
X95272607Y-65635669D01*
X95272605Y-65635681D01*
X95262000Y-65739483D01*
X95262000Y-65786000D01*
X97778000Y-65786000D01*
X97778000Y-65739483D01*
X97767394Y-65635681D01*
X97767392Y-65635669D01*
X97745344Y-65569133D01*
X97742903Y-65498178D01*
X97779211Y-65437168D01*
X97842740Y-65405473D01*
X97864948Y-65403500D01*
X101516147Y-65403500D01*
X101531988Y-65405249D01*
X101532016Y-65404956D01*
X101539901Y-65405700D01*
X101539909Y-65405702D01*
X101601208Y-65403775D01*
X101608976Y-65403531D01*
X101610955Y-65403500D01*
X101639851Y-65403500D01*
X101639856Y-65403500D01*
X101646818Y-65402619D01*
X101652719Y-65402154D01*
X101699889Y-65400673D01*
X101719347Y-65395019D01*
X101738694Y-65391013D01*
X101758797Y-65388474D01*
X101802679Y-65371099D01*
X101808274Y-65369183D01*
X101836816Y-65360891D01*
X101853591Y-65356019D01*
X101853595Y-65356017D01*
X101871026Y-65345708D01*
X101888780Y-65337009D01*
X101907617Y-65329552D01*
X101945786Y-65301818D01*
X101950744Y-65298562D01*
X101991362Y-65274542D01*
X102005685Y-65260218D01*
X102020724Y-65247374D01*
X102022435Y-65246131D01*
X102037107Y-65235472D01*
X102067193Y-65199103D01*
X102071161Y-65194741D01*
X114688657Y-52577245D01*
X114701092Y-52567284D01*
X114700905Y-52567057D01*
X114707016Y-52562001D01*
X114707015Y-52562001D01*
X114707018Y-52562000D01*
X114754352Y-52511592D01*
X114755684Y-52510219D01*
X114776134Y-52489770D01*
X114780429Y-52484232D01*
X114784271Y-52479731D01*
X114816586Y-52445321D01*
X114826345Y-52427567D01*
X114837197Y-52411046D01*
X114849613Y-52395041D01*
X114868351Y-52351739D01*
X114870961Y-52346412D01*
X114893694Y-52305061D01*
X114893695Y-52305060D01*
X114898733Y-52285435D01*
X114905138Y-52266730D01*
X114905402Y-52266121D01*
X114913181Y-52248145D01*
X114920561Y-52201547D01*
X114921762Y-52195740D01*
X114933500Y-52150030D01*
X114933500Y-52129775D01*
X114935051Y-52110063D01*
X114938220Y-52090057D01*
X114933780Y-52043082D01*
X114933780Y-52043080D01*
X114933500Y-52037148D01*
X114933500Y-31756920D01*
X114953502Y-31688799D01*
X114999527Y-31646108D01*
X115045576Y-31621189D01*
X115223240Y-31482906D01*
X115375722Y-31317268D01*
X115464816Y-31180898D01*
X115518819Y-31134810D01*
X115589167Y-31125235D01*
X115653524Y-31155212D01*
X115675782Y-31180898D01*
X115764674Y-31316958D01*
X115917097Y-31482534D01*
X116094698Y-31620767D01*
X116094699Y-31620768D01*
X116292628Y-31727882D01*
X116292630Y-31727883D01*
X116505483Y-31800955D01*
X116505492Y-31800957D01*
X116586000Y-31814391D01*
X116586000Y-30913674D01*
X116697685Y-30964680D01*
X116804237Y-30980000D01*
X116875763Y-30980000D01*
X116982315Y-30964680D01*
X117094000Y-30913674D01*
X117094000Y-31814390D01*
X117174507Y-31800957D01*
X117174516Y-31800955D01*
X117387369Y-31727883D01*
X117387371Y-31727882D01*
X117585300Y-31620768D01*
X117585301Y-31620767D01*
X117762905Y-31482532D01*
X117824047Y-31416113D01*
X117884899Y-31379541D01*
X117955863Y-31381674D01*
X118014409Y-31421835D01*
X118034804Y-31457415D01*
X118079111Y-31576204D01*
X118079112Y-31576207D01*
X118166738Y-31693261D01*
X118283792Y-31780887D01*
X118283794Y-31780888D01*
X118283796Y-31780889D01*
X118337600Y-31800957D01*
X118420795Y-31831988D01*
X118420803Y-31831990D01*
X118481350Y-31838499D01*
X118481355Y-31838499D01*
X118481362Y-31838500D01*
X118481368Y-31838500D01*
X120278632Y-31838500D01*
X120278638Y-31838500D01*
X120278645Y-31838499D01*
X120278649Y-31838499D01*
X120339196Y-31831990D01*
X120339199Y-31831989D01*
X120339201Y-31831989D01*
X120476204Y-31780889D01*
X120479782Y-31778211D01*
X120593261Y-31693261D01*
X120680887Y-31576207D01*
X120680887Y-31576206D01*
X120680889Y-31576204D01*
X120731989Y-31439201D01*
X120738500Y-31378638D01*
X120738500Y-29581362D01*
X120736141Y-29559419D01*
X120731990Y-29520803D01*
X120731988Y-29520795D01*
X120680889Y-29383797D01*
X120680887Y-29383792D01*
X120593261Y-29266738D01*
X120476207Y-29179112D01*
X120476203Y-29179110D01*
X120361192Y-29136213D01*
X120304356Y-29093667D01*
X120279546Y-29027146D01*
X120294638Y-28957772D01*
X120312525Y-28932820D01*
X120455714Y-28777277D01*
X120455724Y-28777265D01*
X120494442Y-28718002D01*
X120578860Y-28588791D01*
X120669296Y-28382616D01*
X120724564Y-28164368D01*
X120743156Y-27940000D01*
X120724564Y-27715632D01*
X120722125Y-27706002D01*
X120669297Y-27497387D01*
X120669296Y-27497386D01*
X120669296Y-27497384D01*
X120578860Y-27291209D01*
X120572140Y-27280924D01*
X120455724Y-27102734D01*
X120455720Y-27102729D01*
X120303237Y-26937091D01*
X120221382Y-26873381D01*
X120125576Y-26798811D01*
X119927574Y-26691658D01*
X119927572Y-26691657D01*
X119927571Y-26691656D01*
X119714639Y-26618557D01*
X119714630Y-26618555D01*
X119670476Y-26611187D01*
X119492569Y-26581500D01*
X119267431Y-26581500D01*
X119156496Y-26600011D01*
X119045355Y-26618557D01*
X119042213Y-26619353D01*
X119040889Y-26619303D01*
X119040224Y-26619414D01*
X119040201Y-26619277D01*
X118971267Y-26616675D01*
X118922204Y-26586299D01*
X118712244Y-26376339D01*
X118702279Y-26363901D01*
X118702052Y-26364090D01*
X118697001Y-26357984D01*
X118697000Y-26357982D01*
X118646625Y-26310677D01*
X118645236Y-26309331D01*
X118634990Y-26299085D01*
X118624776Y-26288870D01*
X118624772Y-26288866D01*
X118619225Y-26284563D01*
X118614717Y-26280712D01*
X118580325Y-26248417D01*
X118580319Y-26248413D01*
X118562563Y-26238651D01*
X118546047Y-26227802D01*
X118530041Y-26215386D01*
X118499289Y-26202078D01*
X118486740Y-26196648D01*
X118481408Y-26194036D01*
X118440061Y-26171305D01*
X118420436Y-26166266D01*
X118401736Y-26159864D01*
X118383145Y-26151819D01*
X118383143Y-26151818D01*
X118383142Y-26151818D01*
X118336542Y-26144437D01*
X118330729Y-26143233D01*
X118285030Y-26131500D01*
X118264776Y-26131500D01*
X118245066Y-26129949D01*
X118225057Y-26126780D01*
X118225056Y-26126780D01*
X118178083Y-26131220D01*
X118172150Y-26131500D01*
X97778853Y-26131500D01*
X97763011Y-26129750D01*
X97762984Y-26130044D01*
X97755091Y-26129297D01*
X97686012Y-26131469D01*
X97684033Y-26131500D01*
X97655144Y-26131500D01*
X97655140Y-26131500D01*
X97655129Y-26131501D01*
X97648190Y-26132377D01*
X97642277Y-26132843D01*
X97595114Y-26134325D01*
X97595107Y-26134327D01*
X97575649Y-26139979D01*
X97556304Y-26143985D01*
X97536206Y-26146525D01*
X97536197Y-26146527D01*
X97492331Y-26163894D01*
X97486716Y-26165817D01*
X97441408Y-26178981D01*
X97423964Y-26189297D01*
X97406218Y-26197990D01*
X97387382Y-26205448D01*
X97349209Y-26233181D01*
X97344248Y-26236440D01*
X97303638Y-26260458D01*
X97289311Y-26274784D01*
X97274285Y-26287617D01*
X97257895Y-26299525D01*
X97257893Y-26299527D01*
X97227808Y-26335892D01*
X97223812Y-26340283D01*
X96977794Y-26586300D01*
X96915482Y-26620326D01*
X96859781Y-26619382D01*
X96859776Y-26619414D01*
X96859563Y-26619378D01*
X96857764Y-26619348D01*
X96854642Y-26618557D01*
X96809968Y-26611102D01*
X96632569Y-26581500D01*
X96407431Y-26581500D01*
X96296496Y-26600011D01*
X96185355Y-26618557D01*
X96182213Y-26619353D01*
X96180889Y-26619303D01*
X96180224Y-26619414D01*
X96180201Y-26619277D01*
X96111267Y-26616675D01*
X96062204Y-26586299D01*
X95852244Y-26376339D01*
X95842279Y-26363901D01*
X95842052Y-26364090D01*
X95837001Y-26357984D01*
X95837000Y-26357982D01*
X95786625Y-26310677D01*
X95785236Y-26309331D01*
X95774990Y-26299085D01*
X95764776Y-26288870D01*
X95764772Y-26288866D01*
X95759225Y-26284563D01*
X95754717Y-26280712D01*
X95720325Y-26248417D01*
X95720319Y-26248413D01*
X95702563Y-26238651D01*
X95686047Y-26227802D01*
X95670041Y-26215386D01*
X95639289Y-26202078D01*
X95626740Y-26196648D01*
X95621408Y-26194036D01*
X95580061Y-26171305D01*
X95560436Y-26166266D01*
X95541736Y-26159864D01*
X95523145Y-26151819D01*
X95523143Y-26151818D01*
X95523142Y-26151818D01*
X95476542Y-26144437D01*
X95470729Y-26143233D01*
X95425030Y-26131500D01*
X95404776Y-26131500D01*
X95385066Y-26129949D01*
X95365057Y-26126780D01*
X95365056Y-26126780D01*
X95318083Y-26131220D01*
X95312150Y-26131500D01*
X74918853Y-26131500D01*
X74903011Y-26129750D01*
X74902984Y-26130044D01*
X74895091Y-26129297D01*
X74826012Y-26131469D01*
X74824033Y-26131500D01*
X74795144Y-26131500D01*
X74795140Y-26131500D01*
X74795129Y-26131501D01*
X74788190Y-26132377D01*
X74782277Y-26132843D01*
X74735114Y-26134325D01*
X74735107Y-26134327D01*
X74715649Y-26139979D01*
X74696304Y-26143985D01*
X74676206Y-26146525D01*
X74676197Y-26146527D01*
X74632331Y-26163894D01*
X74626716Y-26165817D01*
X74581408Y-26178981D01*
X74563964Y-26189297D01*
X74546218Y-26197990D01*
X74527382Y-26205448D01*
X74489209Y-26233181D01*
X74484248Y-26236440D01*
X74443638Y-26260458D01*
X74429311Y-26274784D01*
X74414285Y-26287617D01*
X74397895Y-26299525D01*
X74397893Y-26299527D01*
X74367808Y-26335892D01*
X74363812Y-26340283D01*
X74117794Y-26586300D01*
X74055482Y-26620326D01*
X73999781Y-26619382D01*
X73999776Y-26619414D01*
X73999563Y-26619378D01*
X73997764Y-26619348D01*
X73994642Y-26618557D01*
X73949968Y-26611102D01*
X73772569Y-26581500D01*
X73547431Y-26581500D01*
X73436496Y-26600011D01*
X73325355Y-26618557D01*
X73322213Y-26619353D01*
X73320889Y-26619303D01*
X73320224Y-26619414D01*
X73320201Y-26619277D01*
X73251267Y-26616675D01*
X73202204Y-26586299D01*
X72992244Y-26376339D01*
X72982279Y-26363901D01*
X72982052Y-26364090D01*
X72977001Y-26357984D01*
X72977000Y-26357982D01*
X72926625Y-26310677D01*
X72925236Y-26309331D01*
X72914990Y-26299085D01*
X72904776Y-26288870D01*
X72904772Y-26288866D01*
X72899225Y-26284563D01*
X72894717Y-26280712D01*
X72860325Y-26248417D01*
X72860319Y-26248413D01*
X72842563Y-26238651D01*
X72826047Y-26227802D01*
X72810041Y-26215386D01*
X72779289Y-26202078D01*
X72766740Y-26196648D01*
X72761408Y-26194036D01*
X72720061Y-26171305D01*
X72700436Y-26166266D01*
X72681736Y-26159864D01*
X72663145Y-26151819D01*
X72663143Y-26151818D01*
X72663142Y-26151818D01*
X72616542Y-26144437D01*
X72610729Y-26143233D01*
X72565030Y-26131500D01*
X72544776Y-26131500D01*
X72525066Y-26129949D01*
X72505057Y-26126780D01*
X72505056Y-26126780D01*
X72458083Y-26131220D01*
X72452150Y-26131500D01*
X59678853Y-26131500D01*
X59663011Y-26129750D01*
X59662984Y-26130044D01*
X59655091Y-26129298D01*
X59586024Y-26131469D01*
X59584045Y-26131500D01*
X59555144Y-26131500D01*
X59555140Y-26131500D01*
X59555130Y-26131501D01*
X59548179Y-26132379D01*
X59542267Y-26132844D01*
X59495112Y-26134326D01*
X59495110Y-26134327D01*
X59475655Y-26139978D01*
X59456302Y-26143986D01*
X59436210Y-26146524D01*
X59436202Y-26146526D01*
X59392336Y-26163893D01*
X59386721Y-26165816D01*
X59341407Y-26178982D01*
X59341402Y-26178984D01*
X59323963Y-26189297D01*
X59306218Y-26197990D01*
X59287380Y-26205449D01*
X59273704Y-26215386D01*
X59249212Y-26233180D01*
X59244261Y-26236433D01*
X59203640Y-26260455D01*
X59189307Y-26274787D01*
X59174281Y-26287620D01*
X59157895Y-26299526D01*
X59157894Y-26299526D01*
X59127818Y-26335880D01*
X59123823Y-26340271D01*
X56761336Y-28702757D01*
X56748901Y-28712721D01*
X56749089Y-28712948D01*
X56742979Y-28718002D01*
X56695694Y-28768355D01*
X56694319Y-28769774D01*
X56673863Y-28790231D01*
X56669560Y-28795777D01*
X56665714Y-28800279D01*
X56633417Y-28834674D01*
X56633411Y-28834683D01*
X56623651Y-28852435D01*
X56612803Y-28868950D01*
X56600386Y-28884958D01*
X56581645Y-28928264D01*
X56579034Y-28933594D01*
X56556305Y-28974939D01*
X56556303Y-28974944D01*
X56551267Y-28994559D01*
X56544864Y-29013262D01*
X56536819Y-29031852D01*
X56529437Y-29078456D01*
X56528233Y-29084268D01*
X56516500Y-29129968D01*
X56516500Y-29150223D01*
X56514949Y-29169933D01*
X56511780Y-29189942D01*
X56511780Y-29189943D01*
X56516220Y-29236917D01*
X56516500Y-29242850D01*
X56516500Y-32700403D01*
X56496498Y-32768524D01*
X56479595Y-32789498D01*
X56249498Y-33019595D01*
X56187186Y-33053621D01*
X56160403Y-33056500D01*
X55574455Y-33056500D01*
X55470574Y-33067112D01*
X55302261Y-33122885D01*
X55151347Y-33215970D01*
X55151341Y-33215975D01*
X55025971Y-33341345D01*
X55023511Y-33344457D01*
X55021281Y-33346035D01*
X55020780Y-33346537D01*
X55020694Y-33346451D01*
X54965568Y-33385483D01*
X54894643Y-33388671D01*
X54833254Y-33353008D01*
X54825837Y-33344446D01*
X54823632Y-33341657D01*
X54698345Y-33216370D01*
X54698339Y-33216365D01*
X54547525Y-33123342D01*
X54379321Y-33067606D01*
X54379318Y-33067605D01*
X54275516Y-33057000D01*
X54229000Y-33057000D01*
X54229000Y-35523000D01*
X54275517Y-35523000D01*
X54275516Y-35522999D01*
X54379318Y-35512394D01*
X54379321Y-35512393D01*
X54547525Y-35456657D01*
X54698339Y-35363634D01*
X54698345Y-35363629D01*
X54823624Y-35238350D01*
X54825832Y-35235558D01*
X54827837Y-35234137D01*
X54828825Y-35233150D01*
X54828993Y-35233318D01*
X54883768Y-35194522D01*
X54954693Y-35191323D01*
X55016088Y-35226976D01*
X55023515Y-35235547D01*
X55025974Y-35238657D01*
X55151341Y-35364024D01*
X55151347Y-35364029D01*
X55151348Y-35364030D01*
X55156647Y-35367298D01*
X55204125Y-35420084D01*
X55216500Y-35474539D01*
X55216500Y-35598033D01*
X55196498Y-35666154D01*
X55142842Y-35712647D01*
X55125653Y-35719030D01*
X54998894Y-35755856D01*
X54855696Y-35840544D01*
X54855689Y-35840549D01*
X54851644Y-35844595D01*
X54789332Y-35878621D01*
X54762549Y-35881500D01*
X53103853Y-35881500D01*
X53088011Y-35879750D01*
X53087984Y-35880044D01*
X53080091Y-35879297D01*
X53011012Y-35881469D01*
X53009033Y-35881500D01*
X52980144Y-35881500D01*
X52980140Y-35881500D01*
X52980129Y-35881501D01*
X52973190Y-35882377D01*
X52967277Y-35882843D01*
X52920114Y-35884325D01*
X52920107Y-35884327D01*
X52900649Y-35889979D01*
X52881304Y-35893985D01*
X52861206Y-35896525D01*
X52861197Y-35896527D01*
X52817331Y-35913894D01*
X52811716Y-35915817D01*
X52766408Y-35928981D01*
X52748964Y-35939297D01*
X52731218Y-35947990D01*
X52712382Y-35955448D01*
X52674209Y-35983181D01*
X52669248Y-35986440D01*
X52628638Y-36010458D01*
X52614311Y-36024784D01*
X52599285Y-36037617D01*
X52582895Y-36049525D01*
X52582893Y-36049527D01*
X52552808Y-36085892D01*
X52548812Y-36090283D01*
X51681340Y-36957754D01*
X51668903Y-36967719D01*
X51669091Y-36967946D01*
X51662981Y-36972999D01*
X51615693Y-37023355D01*
X51614319Y-37024774D01*
X51593863Y-37045231D01*
X51589560Y-37050777D01*
X51585714Y-37055279D01*
X51553417Y-37089674D01*
X51553411Y-37089683D01*
X51543651Y-37107435D01*
X51532803Y-37123950D01*
X51520386Y-37139958D01*
X51501645Y-37183264D01*
X51499034Y-37188594D01*
X51476305Y-37229939D01*
X51476303Y-37229944D01*
X51471267Y-37249559D01*
X51464864Y-37268262D01*
X51456819Y-37286852D01*
X51449437Y-37333456D01*
X51448233Y-37339268D01*
X51436500Y-37384968D01*
X51436500Y-37405223D01*
X51434949Y-37424933D01*
X51431780Y-37444942D01*
X51431780Y-37444943D01*
X51436220Y-37491917D01*
X51436500Y-37497850D01*
X51436499Y-38420405D01*
X51416497Y-38488526D01*
X51399595Y-38509499D01*
X51209498Y-38699596D01*
X51147189Y-38733620D01*
X51120405Y-38736500D01*
X50610409Y-38736500D01*
X50542288Y-38716498D01*
X50495795Y-38662842D01*
X50492354Y-38654534D01*
X50480889Y-38623796D01*
X50477654Y-38619475D01*
X50452843Y-38552955D01*
X50465373Y-38494143D01*
X50463407Y-38493329D01*
X50465777Y-38487606D01*
X50506307Y-38354000D01*
X49740059Y-38354000D01*
X49742129Y-38352805D01*
X49815801Y-38265007D01*
X49855000Y-38157306D01*
X49855000Y-38042694D01*
X49815801Y-37934993D01*
X49742129Y-37847195D01*
X49642871Y-37789888D01*
X49558436Y-37775000D01*
X49501564Y-37775000D01*
X49417129Y-37789888D01*
X49317871Y-37847195D01*
X49276000Y-37897094D01*
X49276000Y-37032905D01*
X49317871Y-37082805D01*
X49417129Y-37140112D01*
X49501564Y-37155000D01*
X49558436Y-37155000D01*
X49642871Y-37140112D01*
X49740059Y-37084000D01*
X49784000Y-37084000D01*
X49784000Y-37846000D01*
X50506307Y-37846000D01*
X50506307Y-37845999D01*
X50465776Y-37712389D01*
X50465775Y-37712387D01*
X50372175Y-37537276D01*
X50370659Y-37535006D01*
X50370229Y-37533634D01*
X50369258Y-37531817D01*
X50369602Y-37531632D01*
X50349441Y-37467254D01*
X50368221Y-37398787D01*
X50370659Y-37394994D01*
X50372175Y-37392723D01*
X50465775Y-37217612D01*
X50465776Y-37217610D01*
X50506307Y-37084000D01*
X49784000Y-37084000D01*
X49740059Y-37084000D01*
X49742129Y-37082805D01*
X49815801Y-36995007D01*
X49855000Y-36887306D01*
X49855000Y-36772694D01*
X49815801Y-36664993D01*
X49742129Y-36577195D01*
X49740059Y-36576000D01*
X50506307Y-36576000D01*
X50506307Y-36575999D01*
X50465776Y-36442389D01*
X50465775Y-36442387D01*
X50372175Y-36267274D01*
X50370960Y-36265456D01*
X50370616Y-36264357D01*
X50369258Y-36261817D01*
X50369739Y-36261559D01*
X50349744Y-36197704D01*
X50368526Y-36129236D01*
X50370964Y-36125443D01*
X50372585Y-36123014D01*
X50372595Y-36123004D01*
X50466241Y-35947804D01*
X50523908Y-35757701D01*
X50528346Y-35712647D01*
X50543380Y-35560003D01*
X50543380Y-35559996D01*
X50523909Y-35362305D01*
X50523908Y-35362303D01*
X50523908Y-35362299D01*
X50466241Y-35172196D01*
X50372595Y-34996996D01*
X50372589Y-34996989D01*
X50370960Y-34994550D01*
X50370496Y-34993070D01*
X50369677Y-34991537D01*
X50369967Y-34991381D01*
X50349744Y-34926797D01*
X50368526Y-34858330D01*
X50370964Y-34854536D01*
X50372179Y-34852716D01*
X50465775Y-34677612D01*
X50465776Y-34677610D01*
X50506307Y-34544000D01*
X52967000Y-34544000D01*
X52967000Y-34815516D01*
X52977605Y-34919318D01*
X52977606Y-34919321D01*
X53033342Y-35087525D01*
X53126365Y-35238339D01*
X53126370Y-35238345D01*
X53251654Y-35363629D01*
X53251660Y-35363634D01*
X53402474Y-35456657D01*
X53570678Y-35512393D01*
X53570681Y-35512394D01*
X53674483Y-35522999D01*
X53674483Y-35523000D01*
X53721000Y-35523000D01*
X53721000Y-34544000D01*
X52967000Y-34544000D01*
X50506307Y-34544000D01*
X49740059Y-34544000D01*
X49742129Y-34542805D01*
X49815801Y-34455007D01*
X49855000Y-34347306D01*
X49855000Y-34232694D01*
X49815801Y-34124993D01*
X49742129Y-34037195D01*
X49642871Y-33979888D01*
X49558436Y-33965000D01*
X49501564Y-33965000D01*
X49417129Y-33979888D01*
X49317871Y-34037195D01*
X49276000Y-34087094D01*
X49276000Y-33313693D01*
X49275999Y-33313692D01*
X49784000Y-33313692D01*
X49784000Y-34036000D01*
X50506307Y-34036000D01*
X52967000Y-34036000D01*
X53721000Y-34036000D01*
X53721000Y-33057000D01*
X53674483Y-33057000D01*
X53570681Y-33067605D01*
X53570678Y-33067606D01*
X53402474Y-33123342D01*
X53251660Y-33216365D01*
X53251654Y-33216370D01*
X53126370Y-33341654D01*
X53126365Y-33341660D01*
X53033342Y-33492474D01*
X52977606Y-33660678D01*
X52977605Y-33660681D01*
X52967000Y-33764483D01*
X52967000Y-34036000D01*
X50506307Y-34036000D01*
X50506307Y-34035999D01*
X50465776Y-33902389D01*
X50465775Y-33902387D01*
X50372175Y-33727275D01*
X50246211Y-33573788D01*
X50092724Y-33447824D01*
X49917612Y-33354224D01*
X49917610Y-33354223D01*
X49784000Y-33313692D01*
X49275999Y-33313692D01*
X49142389Y-33354223D01*
X49142387Y-33354224D01*
X48967271Y-33447826D01*
X48965446Y-33449046D01*
X48964345Y-33449390D01*
X48961817Y-33450742D01*
X48961560Y-33450262D01*
X48897691Y-33470255D01*
X48829226Y-33451466D01*
X48825453Y-33449041D01*
X48823007Y-33447406D01*
X48647804Y-33353759D01*
X48515724Y-33313693D01*
X48457701Y-33296092D01*
X48457700Y-33296091D01*
X48457694Y-33296090D01*
X48260003Y-33276620D01*
X48259997Y-33276620D01*
X48062305Y-33296090D01*
X47872195Y-33353759D01*
X47696995Y-33447405D01*
X47543432Y-33573432D01*
X47417405Y-33726995D01*
X47323759Y-33902195D01*
X47266090Y-34092305D01*
X47246620Y-34289996D01*
X47246620Y-34290003D01*
X47266090Y-34487694D01*
X47323759Y-34677804D01*
X47417407Y-34853008D01*
X47418740Y-34855003D01*
X47419116Y-34856206D01*
X47420323Y-34858463D01*
X47419894Y-34858691D01*
X47439952Y-34922757D01*
X47421166Y-34991223D01*
X47418740Y-34994997D01*
X47417407Y-34996991D01*
X47323759Y-35172195D01*
X47266090Y-35362305D01*
X47246620Y-35559996D01*
X47246620Y-35560003D01*
X47266090Y-35757694D01*
X47266091Y-35757700D01*
X47266092Y-35757701D01*
X47323759Y-35947804D01*
X47417405Y-36123004D01*
X47417408Y-36123008D01*
X47418736Y-36124995D01*
X47419113Y-36126199D01*
X47420323Y-36128463D01*
X47419893Y-36128692D01*
X47439952Y-36192748D01*
X47421170Y-36261215D01*
X47418745Y-36264989D01*
X47417408Y-36266989D01*
X47323759Y-36442195D01*
X47266090Y-36632305D01*
X47246620Y-36829996D01*
X47246620Y-36830003D01*
X47266090Y-37027694D01*
X47266091Y-37027700D01*
X47266092Y-37027701D01*
X47313281Y-37183264D01*
X47323759Y-37217804D01*
X47417407Y-37393008D01*
X47418740Y-37395003D01*
X47419116Y-37396206D01*
X47420323Y-37398463D01*
X47419894Y-37398691D01*
X47439952Y-37462757D01*
X47421166Y-37531223D01*
X47418740Y-37534997D01*
X47417407Y-37536991D01*
X47323759Y-37712195D01*
X47266090Y-37902305D01*
X47246620Y-38099996D01*
X47246620Y-38100003D01*
X47266090Y-38297694D01*
X47266091Y-38297700D01*
X47266092Y-38297701D01*
X47300191Y-38410112D01*
X47323759Y-38487804D01*
X47417407Y-38663008D01*
X47418740Y-38665003D01*
X47419116Y-38666206D01*
X47420323Y-38668463D01*
X47419894Y-38668691D01*
X47439952Y-38732757D01*
X47421166Y-38801223D01*
X47418740Y-38804997D01*
X47417407Y-38806991D01*
X47323759Y-38982195D01*
X47266090Y-39172305D01*
X47246620Y-39369996D01*
X47246620Y-39370003D01*
X45745500Y-39370003D01*
X45745500Y-22860006D01*
X47086411Y-22860006D01*
X47106752Y-23248167D01*
X47167561Y-23632097D01*
X47268168Y-24007568D01*
X47407463Y-24370443D01*
X47407467Y-24370451D01*
X47583938Y-24716795D01*
X47795637Y-25042785D01*
X47795649Y-25042802D01*
X48040253Y-25344862D01*
X48040267Y-25344877D01*
X48315122Y-25619732D01*
X48315137Y-25619746D01*
X48617197Y-25864350D01*
X48617214Y-25864362D01*
X48801185Y-25983833D01*
X48943205Y-26076062D01*
X49289547Y-26252532D01*
X49289551Y-26252533D01*
X49289556Y-26252536D01*
X49652431Y-26391831D01*
X49652436Y-26391832D01*
X49652438Y-26391833D01*
X50027901Y-26492438D01*
X50411824Y-26553246D01*
X50411826Y-26553246D01*
X50411832Y-26553247D01*
X50799994Y-26573589D01*
X50800000Y-26573589D01*
X50800006Y-26573589D01*
X51188167Y-26553247D01*
X51188171Y-26553246D01*
X51188176Y-26553246D01*
X51572099Y-26492438D01*
X51947562Y-26391833D01*
X51947565Y-26391831D01*
X51947568Y-26391831D01*
X52310443Y-26252536D01*
X52310444Y-26252535D01*
X52310453Y-26252532D01*
X52656795Y-26076062D01*
X52982793Y-25864357D01*
X52982802Y-25864350D01*
X53284862Y-25619746D01*
X53284867Y-25619740D01*
X53284876Y-25619734D01*
X53559734Y-25344876D01*
X53559740Y-25344867D01*
X53559746Y-25344862D01*
X53804350Y-25042802D01*
X53804351Y-25042799D01*
X53804357Y-25042793D01*
X54016062Y-24716795D01*
X54192532Y-24370453D01*
X54331833Y-24007562D01*
X54432438Y-23632099D01*
X54493246Y-23248176D01*
X54493246Y-23248171D01*
X54493247Y-23248167D01*
X54513589Y-22860006D01*
X125826411Y-22860006D01*
X125846752Y-23248167D01*
X125907561Y-23632097D01*
X126008168Y-24007568D01*
X126147463Y-24370443D01*
X126147467Y-24370451D01*
X126323938Y-24716795D01*
X126535637Y-25042785D01*
X126535649Y-25042802D01*
X126780253Y-25344862D01*
X126780267Y-25344877D01*
X127055122Y-25619732D01*
X127055137Y-25619746D01*
X127357197Y-25864350D01*
X127357214Y-25864362D01*
X127541185Y-25983833D01*
X127683205Y-26076062D01*
X128029547Y-26252532D01*
X128029551Y-26252533D01*
X128029556Y-26252536D01*
X128392431Y-26391831D01*
X128392436Y-26391832D01*
X128392438Y-26391833D01*
X128767901Y-26492438D01*
X129151824Y-26553246D01*
X129151826Y-26553246D01*
X129151832Y-26553247D01*
X129539994Y-26573589D01*
X129540000Y-26573589D01*
X129540006Y-26573589D01*
X129928167Y-26553247D01*
X129928171Y-26553246D01*
X129928176Y-26553246D01*
X130312099Y-26492438D01*
X130687562Y-26391833D01*
X130687565Y-26391831D01*
X130687568Y-26391831D01*
X131050443Y-26252536D01*
X131050444Y-26252535D01*
X131050453Y-26252532D01*
X131396795Y-26076062D01*
X131722793Y-25864357D01*
X131722802Y-25864350D01*
X132024862Y-25619746D01*
X132024867Y-25619740D01*
X132024876Y-25619734D01*
X132299734Y-25344876D01*
X132299740Y-25344867D01*
X132299746Y-25344862D01*
X132544350Y-25042802D01*
X132544351Y-25042799D01*
X132544357Y-25042793D01*
X132756062Y-24716795D01*
X132932532Y-24370453D01*
X133071833Y-24007562D01*
X133172438Y-23632099D01*
X133233246Y-23248176D01*
X133233246Y-23248171D01*
X133233247Y-23248167D01*
X133253589Y-22860006D01*
X133253589Y-22859993D01*
X133233247Y-22471832D01*
X133172438Y-22087902D01*
X133071831Y-21712431D01*
X132932536Y-21349556D01*
X132932532Y-21349548D01*
X132932532Y-21349547D01*
X132756062Y-21003206D01*
X132544357Y-20677207D01*
X132544354Y-20677203D01*
X132544352Y-20677200D01*
X132299746Y-20375137D01*
X132299732Y-20375122D01*
X132024877Y-20100267D01*
X132024862Y-20100253D01*
X131722802Y-19855649D01*
X131722785Y-19855637D01*
X131396795Y-19643938D01*
X131050451Y-19467467D01*
X131050443Y-19467463D01*
X130687568Y-19328168D01*
X130312097Y-19227561D01*
X129928167Y-19166752D01*
X129540006Y-19146411D01*
X129539994Y-19146411D01*
X129151832Y-19166752D01*
X128767902Y-19227561D01*
X128392431Y-19328168D01*
X128029556Y-19467463D01*
X128029548Y-19467467D01*
X127683205Y-19643938D01*
X127357203Y-19855645D01*
X127357200Y-19855647D01*
X127055137Y-20100253D01*
X127055122Y-20100267D01*
X126780267Y-20375122D01*
X126780253Y-20375137D01*
X126535647Y-20677200D01*
X126535645Y-20677203D01*
X126323938Y-21003205D01*
X126147467Y-21349548D01*
X126147463Y-21349556D01*
X126008168Y-21712431D01*
X125907561Y-22087902D01*
X125846752Y-22471832D01*
X125826411Y-22859993D01*
X125826411Y-22860006D01*
X54513589Y-22860006D01*
X54513589Y-22859993D01*
X54493247Y-22471832D01*
X54432438Y-22087902D01*
X54331831Y-21712431D01*
X54192536Y-21349556D01*
X54192532Y-21349548D01*
X54192532Y-21349547D01*
X54016062Y-21003206D01*
X53804357Y-20677207D01*
X53804354Y-20677203D01*
X53804352Y-20677200D01*
X53559746Y-20375137D01*
X53559732Y-20375122D01*
X53284877Y-20100267D01*
X53284862Y-20100253D01*
X52982802Y-19855649D01*
X52982785Y-19855637D01*
X52656795Y-19643938D01*
X52310451Y-19467467D01*
X52310443Y-19467463D01*
X51947568Y-19328168D01*
X51572097Y-19227561D01*
X51188167Y-19166752D01*
X50800006Y-19146411D01*
X50799994Y-19146411D01*
X50411832Y-19166752D01*
X50027902Y-19227561D01*
X49652431Y-19328168D01*
X49289556Y-19467463D01*
X49289548Y-19467467D01*
X48943205Y-19643938D01*
X48617203Y-19855645D01*
X48617200Y-19855647D01*
X48315137Y-20100253D01*
X48315122Y-20100267D01*
X48040267Y-20375122D01*
X48040253Y-20375137D01*
X47795647Y-20677200D01*
X47795645Y-20677203D01*
X47583938Y-21003205D01*
X47407467Y-21349548D01*
X47407463Y-21349556D01*
X47268168Y-21712431D01*
X47167561Y-22087902D01*
X47106752Y-22471832D01*
X47086411Y-22859993D01*
X47086411Y-22860006D01*
X45745500Y-22860006D01*
X45745500Y-17931500D01*
X45765502Y-17863379D01*
X45819158Y-17816886D01*
X45871500Y-17805500D01*
X134468500Y-17805500D01*
X134536621Y-17825502D01*
G37*
%TD.AperFunction*%
%TD*%
M02*
