%TF.GenerationSoftware,KiCad,Pcbnew,7.0.4*%
%TF.CreationDate,2023-05-26T13:48:30+02:00*%
%TF.ProjectId,pmod_e103bt53_baseboard,706d6f64-5f65-4313-9033-627435335f62,rev?*%
%TF.SameCoordinates,Original*%
%TF.FileFunction,Paste,Top*%
%TF.FilePolarity,Positive*%
%FSLAX46Y46*%
G04 Gerber Fmt 4.6, Leading zero omitted, Abs format (unit mm)*
G04 Created by KiCad (PCBNEW 7.0.4) date 2023-05-26 13:48:30*
%MOMM*%
%LPD*%
G01*
G04 APERTURE LIST*
G04 Aperture macros list*
%AMRoundRect*
0 Rectangle with rounded corners*
0 $1 Rounding radius*
0 $2 $3 $4 $5 $6 $7 $8 $9 X,Y pos of 4 corners*
0 Add a 4 corners polygon primitive as box body*
4,1,4,$2,$3,$4,$5,$6,$7,$8,$9,$2,$3,0*
0 Add four circle primitives for the rounded corners*
1,1,$1+$1,$2,$3*
1,1,$1+$1,$4,$5*
1,1,$1+$1,$6,$7*
1,1,$1+$1,$8,$9*
0 Add four rect primitives between the rounded corners*
20,1,$1+$1,$2,$3,$4,$5,0*
20,1,$1+$1,$4,$5,$6,$7,0*
20,1,$1+$1,$6,$7,$8,$9,0*
20,1,$1+$1,$8,$9,$2,$3,0*%
G04 Aperture macros list end*
%ADD10RoundRect,0.250000X-0.450000X0.262500X-0.450000X-0.262500X0.450000X-0.262500X0.450000X0.262500X0*%
%ADD11RoundRect,0.250000X-0.475000X0.250000X-0.475000X-0.250000X0.475000X-0.250000X0.475000X0.250000X0*%
%ADD12R,1.400000X1.600000*%
%ADD13RoundRect,0.250000X0.250000X0.475000X-0.250000X0.475000X-0.250000X-0.475000X0.250000X-0.475000X0*%
%ADD14RoundRect,0.150000X0.587500X0.150000X-0.587500X0.150000X-0.587500X-0.150000X0.587500X-0.150000X0*%
%ADD15RoundRect,0.250000X-0.250000X-0.475000X0.250000X-0.475000X0.250000X0.475000X-0.250000X0.475000X0*%
%ADD16R,1.400000X0.400000*%
%ADD17RoundRect,0.250000X-0.500000X-0.250000X0.500000X-0.250000X0.500000X0.250000X-0.500000X0.250000X0*%
%ADD18RoundRect,0.200000X-0.200000X-0.500000X0.200000X-0.500000X0.200000X0.500000X-0.200000X0.500000X0*%
G04 APERTURE END LIST*
D10*
%TO.C,R1*%
X53975000Y-59770000D03*
X53975000Y-61595000D03*
%TD*%
D11*
%TO.C,C4*%
X53975000Y-54295000D03*
X53975000Y-56195000D03*
%TD*%
D12*
%TO.C,SW1*%
X50625000Y-61595000D03*
X50625000Y-54395000D03*
X47625000Y-61595000D03*
X47625000Y-54395000D03*
%TD*%
D13*
%TO.C,C1*%
X55875000Y-40640000D03*
X53975000Y-40640000D03*
%TD*%
D14*
%TO.C,U2*%
X55850000Y-38415000D03*
X55850000Y-36515000D03*
X53975000Y-37465000D03*
%TD*%
D15*
%TO.C,C3*%
X86680000Y-52070000D03*
X88580000Y-52070000D03*
%TD*%
D16*
%TO.C,J1*%
X49940000Y-45055000D03*
X49940000Y-45705000D03*
X49940000Y-46355000D03*
X49940000Y-47005000D03*
X49940000Y-47655000D03*
%TD*%
D15*
%TO.C,C2*%
X53975000Y-34290000D03*
X55875000Y-34290000D03*
%TD*%
D17*
%TO.C,U1*%
X96520000Y-66040000D03*
X96520000Y-64770000D03*
X96520000Y-63500000D03*
X96520000Y-62230000D03*
X96520000Y-60960000D03*
X96520000Y-59690000D03*
X96520000Y-58420000D03*
X96520000Y-57150000D03*
X96520000Y-55880000D03*
D18*
X93870000Y-53960000D03*
X92770000Y-53960000D03*
X91670000Y-53960000D03*
X90570000Y-53960000D03*
X89470000Y-53960000D03*
X88370000Y-53960000D03*
X87270000Y-53960000D03*
X86170000Y-53960000D03*
D17*
X83520000Y-55880000D03*
X83520000Y-57150000D03*
X83520000Y-58420000D03*
X83520000Y-59690000D03*
X83520000Y-60960000D03*
X83520000Y-62230000D03*
X83520000Y-63500000D03*
X83520000Y-64770000D03*
X83520000Y-66040000D03*
%TD*%
M02*
