%TF.GenerationSoftware,KiCad,Pcbnew,7.0.4*%
%TF.CreationDate,2023-05-26T13:48:30+02:00*%
%TF.ProjectId,pmod_e103bt53_baseboard,706d6f64-5f65-4313-9033-627435335f62,rev?*%
%TF.SameCoordinates,Original*%
%TF.FileFunction,Copper,L2,Bot*%
%TF.FilePolarity,Positive*%
%FSLAX46Y46*%
G04 Gerber Fmt 4.6, Leading zero omitted, Abs format (unit mm)*
G04 Created by KiCad (PCBNEW 7.0.4) date 2023-05-26 13:48:30*
%MOMM*%
%LPD*%
G01*
G04 APERTURE LIST*
%TA.AperFunction,ComponentPad*%
%ADD10R,1.700000X1.700000*%
%TD*%
%TA.AperFunction,ComponentPad*%
%ADD11O,1.700000X1.700000*%
%TD*%
%TA.AperFunction,ComponentPad*%
%ADD12C,0.800000*%
%TD*%
%TA.AperFunction,ComponentPad*%
%ADD13C,6.400000*%
%TD*%
%TA.AperFunction,ComponentPad*%
%ADD14R,1.000000X1.000000*%
%TD*%
%TA.AperFunction,ComponentPad*%
%ADD15O,1.000000X1.000000*%
%TD*%
%TA.AperFunction,ComponentPad*%
%ADD16O,1.850000X1.050000*%
%TD*%
%TA.AperFunction,ViaPad*%
%ADD17C,0.800000*%
%TD*%
%TA.AperFunction,Conductor*%
%ADD18C,0.250000*%
%TD*%
G04 APERTURE END LIST*
D10*
%TO.P,PMOD2,1,Pin_1*%
%TO.N,VCC*%
X96520000Y-30480000D03*
D11*
%TO.P,PMOD2,2,Pin_2*%
X96520000Y-27940000D03*
%TO.P,PMOD2,3,Pin_3*%
%TO.N,GND*%
X93980000Y-30480000D03*
%TO.P,PMOD2,4,Pin_4*%
X93980000Y-27940000D03*
%TO.P,PMOD2,5,Pin_5*%
%TO.N,PMOD_UART_RTS*%
X91440000Y-30480000D03*
%TO.P,PMOD2,6,Pin_6*%
%TO.N,PMOD_UART_GPIO4*%
X91440000Y-27940000D03*
%TO.P,PMOD2,7,Pin_7*%
%TO.N,PMOD_UART_RXD*%
X88900000Y-30480000D03*
%TO.P,PMOD2,8,Pin_8*%
%TO.N,PMOD_UART_GPIO3*%
X88900000Y-27940000D03*
%TO.P,PMOD2,9,Pin_9*%
%TO.N,PMOD_UART_TXD*%
X86360000Y-30480000D03*
%TO.P,PMOD2,10,Pin_10*%
%TO.N,PMOD_UART_GPIO2_RESET*%
X86360000Y-27940000D03*
%TO.P,PMOD2,11,Pin_11*%
%TO.N,PMOD_UART_CTS*%
X83820000Y-30480000D03*
%TO.P,PMOD2,12,Pin_12*%
%TO.N,PMOD_UART_GPIO1_INT*%
X83820000Y-27940000D03*
%TD*%
D10*
%TO.P,PMOD3,1,Pin_1*%
%TO.N,VCC*%
X119380000Y-30480000D03*
D11*
%TO.P,PMOD3,2,Pin_2*%
X119380000Y-27940000D03*
%TO.P,PMOD3,3,Pin_3*%
%TO.N,GND*%
X116840000Y-30480000D03*
%TO.P,PMOD3,4,Pin_4*%
X116840000Y-27940000D03*
%TO.P,PMOD3,5,Pin_5*%
%TO.N,PMOD_I2C_SDA*%
X114300000Y-30480000D03*
%TO.P,PMOD3,6,Pin_6*%
%TO.N,PMOD_I2C_GPIO4*%
X114300000Y-27940000D03*
%TO.P,PMOD3,7,Pin_7*%
%TO.N,PMOD_I2C_SCL*%
X111760000Y-30480000D03*
%TO.P,PMOD3,8,Pin_8*%
%TO.N,PMOD_I2C_GPIO3*%
X111760000Y-27940000D03*
%TO.P,PMOD3,9,Pin_9*%
%TO.N,PMOD_I2C_RESET*%
X109220000Y-30480000D03*
%TO.P,PMOD3,10,Pin_10*%
%TO.N,PMOD_I2C_GPIO2*%
X109220000Y-27940000D03*
%TO.P,PMOD3,11,Pin_11*%
%TO.N,PMOD_I2C_INT*%
X106680000Y-30480000D03*
%TO.P,PMOD3,12,Pin_12*%
%TO.N,PMOD_I2C_GPIO1*%
X106680000Y-27940000D03*
%TD*%
D10*
%TO.P,PMOD1,1,Pin_1*%
%TO.N,VCC*%
X73660000Y-30480000D03*
D11*
%TO.P,PMOD1,2,Pin_2*%
X73660000Y-27940000D03*
%TO.P,PMOD1,3,Pin_3*%
%TO.N,GND*%
X71120000Y-30480000D03*
%TO.P,PMOD1,4,Pin_4*%
X71120000Y-27940000D03*
%TO.P,PMOD1,5,Pin_5*%
%TO.N,PMOD_SPI_SCK*%
X68580000Y-30480000D03*
%TO.P,PMOD1,6,Pin_6*%
%TO.N,PMOD_SPI_GPIO4_CS3*%
X68580000Y-27940000D03*
%TO.P,PMOD1,7,Pin_7*%
%TO.N,PMOD_SPI_MISO*%
X66040000Y-30480000D03*
%TO.P,PMOD1,8,Pin_8*%
%TO.N,PMOD_SPI_GPIO3_CS2*%
X66040000Y-27940000D03*
%TO.P,PMOD1,9,Pin_9*%
%TO.N,PMOD_SPI_MOSI*%
X63500000Y-30480000D03*
%TO.P,PMOD1,10,Pin_10*%
%TO.N,PMOD_SPI_GPIO2_RESET*%
X63500000Y-27940000D03*
%TO.P,PMOD1,11,Pin_11*%
%TO.N,PMOD_SPI_CS*%
X60960000Y-30480000D03*
%TO.P,PMOD1,12,Pin_12*%
%TO.N,PMOD_SPI_GPIO1_INT*%
X60960000Y-27940000D03*
%TD*%
D12*
%TO.P,H3,1*%
%TO.N,N/C*%
X48400000Y-68580000D03*
X49102944Y-66882944D03*
X49102944Y-70277056D03*
X50800000Y-66180000D03*
D13*
X50800000Y-68580000D03*
D12*
X50800000Y-70980000D03*
X52497056Y-66882944D03*
X52497056Y-70277056D03*
X53200000Y-68580000D03*
%TD*%
%TO.P,H1,1*%
%TO.N,N/C*%
X48400000Y-22860000D03*
X49102944Y-21162944D03*
X49102944Y-24557056D03*
X50800000Y-20460000D03*
D13*
X50800000Y-22860000D03*
D12*
X50800000Y-25260000D03*
X52497056Y-21162944D03*
X52497056Y-24557056D03*
X53200000Y-22860000D03*
%TD*%
%TO.P,H4,1*%
%TO.N,N/C*%
X127140000Y-68580000D03*
X127842944Y-66882944D03*
X127842944Y-70277056D03*
X129540000Y-66180000D03*
D13*
X129540000Y-68580000D03*
D12*
X129540000Y-70980000D03*
X131237056Y-66882944D03*
X131237056Y-70277056D03*
X131940000Y-68580000D03*
%TD*%
D14*
%TO.P,J2,1,Pin_1*%
%TO.N,VCC*%
X49530000Y-39370000D03*
D15*
%TO.P,J2,2,Pin_2*%
%TO.N,SWDIO*%
X48260000Y-39370000D03*
%TO.P,J2,3,Pin_3*%
%TO.N,GND*%
X49530000Y-38100000D03*
%TO.P,J2,4,Pin_4*%
%TO.N,SWDCLK*%
X48260000Y-38100000D03*
%TO.P,J2,5,Pin_5*%
%TO.N,GND*%
X49530000Y-36830000D03*
%TO.P,J2,6,Pin_6*%
%TO.N,unconnected-(J2-Pin_6-Pad6)*%
X48260000Y-36830000D03*
%TO.P,J2,7,Pin_7*%
%TO.N,unconnected-(J2-Pin_7-Pad7)*%
X49530000Y-35560000D03*
%TO.P,J2,8,Pin_8*%
%TO.N,unconnected-(J2-Pin_8-Pad8)*%
X48260000Y-35560000D03*
%TO.P,J2,9,Pin_9*%
%TO.N,GND*%
X49530000Y-34290000D03*
%TO.P,J2,10,Pin_10*%
%TO.N,nRST*%
X48260000Y-34290000D03*
%TD*%
D16*
%TO.P,J1,6,Shield*%
%TO.N,GND*%
X50440000Y-42780000D03*
X46990000Y-42780000D03*
X50440000Y-49905000D03*
X46990000Y-49930000D03*
%TD*%
D12*
%TO.P,H2,1*%
%TO.N,N/C*%
X127140000Y-22860000D03*
X127842944Y-21162944D03*
X127842944Y-24557056D03*
X129540000Y-20460000D03*
D13*
X129540000Y-22860000D03*
D12*
X129540000Y-25260000D03*
X131237056Y-21162944D03*
X131237056Y-24557056D03*
X131940000Y-22860000D03*
%TD*%
D17*
%TO.N,nRST*%
X58420000Y-42545000D03*
%TO.N,GND*%
X77470000Y-25400000D03*
X78740000Y-40640000D03*
X85725000Y-58420000D03*
X93980000Y-55880000D03*
X93980000Y-64770000D03*
X80010000Y-27940000D03*
X110490000Y-51435000D03*
X74930000Y-62230000D03*
X77470000Y-27940000D03*
X78105000Y-46355000D03*
X85725000Y-59690000D03*
X80010000Y-57150000D03*
X85725000Y-55880000D03*
X73660000Y-63500000D03*
X76200000Y-60960000D03*
X80010000Y-41910000D03*
X78740000Y-58420000D03*
X85725000Y-62230000D03*
X77470000Y-39370000D03*
X78740000Y-27940000D03*
X93980000Y-63500000D03*
X85725000Y-57150000D03*
X76835000Y-45085000D03*
X85725000Y-63500000D03*
X78740000Y-25400000D03*
X107950000Y-51435000D03*
X113030000Y-51435000D03*
X77470000Y-59690000D03*
X93980000Y-57150000D03*
X93980000Y-60960000D03*
X93980000Y-62230000D03*
X79375000Y-47625000D03*
X85725000Y-64770000D03*
X85725000Y-60960000D03*
X81280000Y-55880000D03*
X80010000Y-25400000D03*
%TO.N,SWDIO*%
X93980000Y-58420000D03*
%TO.N,SWDCLK*%
X93980000Y-59690000D03*
%TO.N,nRST*%
X81915000Y-66040000D03*
%TD*%
D18*
%TO.N,nRST*%
X60960000Y-45085000D02*
X58420000Y-42545000D01*
X58420000Y-42545000D02*
X57415000Y-41540000D01*
%TO.N,GND*%
X50800000Y-49530000D02*
X52070000Y-49530000D01*
%TO.N,SWDIO*%
X48260000Y-40077106D02*
X48822894Y-40640000D01*
X48260000Y-39370000D02*
X48260000Y-40077106D01*
X76200000Y-40640000D02*
X85090000Y-49530000D01*
X48822894Y-40640000D02*
X64135000Y-40640000D01*
X64135000Y-40640000D02*
X76200000Y-40640000D01*
X93980000Y-58420000D02*
X85090000Y-49530000D01*
%TO.N,SWDCLK*%
X75380000Y-41090000D02*
X93980000Y-59690000D01*
X47435000Y-39888502D02*
X48636498Y-41090000D01*
X47435000Y-38925000D02*
X47435000Y-39888502D01*
X48260000Y-38100000D02*
X47435000Y-38925000D01*
X48636498Y-41090000D02*
X75380000Y-41090000D01*
%TO.N,nRST*%
X57415000Y-41540000D02*
X48450102Y-41540000D01*
X46985000Y-35565000D02*
X48260000Y-34290000D01*
X77470000Y-66040000D02*
X60960000Y-49530000D01*
X81915000Y-66040000D02*
X77470000Y-66040000D01*
X46985000Y-40074898D02*
X46985000Y-35565000D01*
X60960000Y-49530000D02*
X60960000Y-45085000D01*
X48450102Y-41540000D02*
X46985000Y-40074898D01*
%TD*%
%TA.AperFunction,Conductor*%
%TO.N,GND*%
G36*
X71374000Y-30046325D02*
G01*
X71262315Y-29995320D01*
X71155763Y-29980000D01*
X71084237Y-29980000D01*
X70977685Y-29995320D01*
X70866000Y-30046325D01*
X70866000Y-28373674D01*
X70977685Y-28424680D01*
X71084237Y-28440000D01*
X71155763Y-28440000D01*
X71262315Y-28424680D01*
X71374000Y-28373674D01*
X71374000Y-30046325D01*
G37*
%TD.AperFunction*%
%TA.AperFunction,Conductor*%
G36*
X94234000Y-30046325D02*
G01*
X94122315Y-29995320D01*
X94015763Y-29980000D01*
X93944237Y-29980000D01*
X93837685Y-29995320D01*
X93726000Y-30046325D01*
X93726000Y-28373674D01*
X93837685Y-28424680D01*
X93944237Y-28440000D01*
X94015763Y-28440000D01*
X94122315Y-28424680D01*
X94234000Y-28373674D01*
X94234000Y-30046325D01*
G37*
%TD.AperFunction*%
%TA.AperFunction,Conductor*%
G36*
X117094000Y-30046325D02*
G01*
X116982315Y-29995320D01*
X116875763Y-29980000D01*
X116804237Y-29980000D01*
X116697685Y-29995320D01*
X116585999Y-30046325D01*
X116585999Y-28373674D01*
X116697685Y-28424680D01*
X116804237Y-28440000D01*
X116875763Y-28440000D01*
X116982315Y-28424680D01*
X117094000Y-28373674D01*
X117094000Y-30046325D01*
G37*
%TD.AperFunction*%
%TA.AperFunction,Conductor*%
G36*
X134536621Y-17825502D02*
G01*
X134583114Y-17879158D01*
X134594500Y-17931500D01*
X134594500Y-67184000D01*
X134574498Y-67252121D01*
X134520842Y-67298614D01*
X134468500Y-67310000D01*
X133111430Y-67310000D01*
X133043309Y-67289998D01*
X132996816Y-67236342D01*
X132993799Y-67229154D01*
X132932536Y-67069556D01*
X132932532Y-67069548D01*
X132932532Y-67069547D01*
X132756062Y-66723206D01*
X132544357Y-66397207D01*
X132544354Y-66397203D01*
X132544352Y-66397200D01*
X132299746Y-66095137D01*
X132299732Y-66095122D01*
X132024877Y-65820267D01*
X132024862Y-65820253D01*
X131722802Y-65575649D01*
X131722785Y-65575637D01*
X131396795Y-65363938D01*
X131050451Y-65187467D01*
X131050443Y-65187463D01*
X130687568Y-65048168D01*
X130312097Y-64947561D01*
X129928167Y-64886752D01*
X129540006Y-64866411D01*
X129539994Y-64866411D01*
X129151832Y-64886752D01*
X128767902Y-64947561D01*
X128392431Y-65048168D01*
X128029556Y-65187463D01*
X128029548Y-65187467D01*
X127683205Y-65363938D01*
X127357203Y-65575645D01*
X127357200Y-65575647D01*
X127055137Y-65820253D01*
X127055122Y-65820267D01*
X126780267Y-66095122D01*
X126780253Y-66095137D01*
X126535647Y-66397200D01*
X126535645Y-66397203D01*
X126323938Y-66723205D01*
X126147467Y-67069548D01*
X126147463Y-67069556D01*
X126086201Y-67229154D01*
X126043116Y-67285582D01*
X125976363Y-67309759D01*
X125968570Y-67310000D01*
X54371430Y-67310000D01*
X54303309Y-67289998D01*
X54256816Y-67236342D01*
X54253799Y-67229154D01*
X54192536Y-67069556D01*
X54192532Y-67069548D01*
X54192532Y-67069547D01*
X54016062Y-66723206D01*
X53804357Y-66397207D01*
X53804354Y-66397203D01*
X53804352Y-66397200D01*
X53559746Y-66095137D01*
X53559732Y-66095122D01*
X53284877Y-65820267D01*
X53284862Y-65820253D01*
X52982802Y-65575649D01*
X52982785Y-65575637D01*
X52656795Y-65363938D01*
X52310451Y-65187467D01*
X52310443Y-65187463D01*
X51947568Y-65048168D01*
X51572097Y-64947561D01*
X51188167Y-64886752D01*
X50800006Y-64866411D01*
X50799994Y-64866411D01*
X50411832Y-64886752D01*
X50027902Y-64947561D01*
X49652431Y-65048168D01*
X49289556Y-65187463D01*
X49289548Y-65187467D01*
X48943205Y-65363938D01*
X48617203Y-65575645D01*
X48617200Y-65575647D01*
X48315137Y-65820253D01*
X48315122Y-65820267D01*
X48040267Y-66095122D01*
X48040253Y-66095137D01*
X47795647Y-66397200D01*
X47795645Y-66397203D01*
X47583938Y-66723205D01*
X47407467Y-67069548D01*
X47407463Y-67069556D01*
X47346201Y-67229154D01*
X47303116Y-67285582D01*
X47236363Y-67309759D01*
X47228570Y-67310000D01*
X45871500Y-67310000D01*
X45803379Y-67289998D01*
X45756886Y-67236342D01*
X45745500Y-67184000D01*
X45745500Y-50839674D01*
X45765502Y-50771553D01*
X45819158Y-50725060D01*
X45889432Y-50714956D01*
X45951435Y-50742276D01*
X46013318Y-50793063D01*
X46192774Y-50888984D01*
X46387503Y-50948054D01*
X46539248Y-50962999D01*
X46539264Y-50963000D01*
X46736000Y-50963000D01*
X46736000Y-50184000D01*
X47244000Y-50184000D01*
X47244000Y-50963000D01*
X47440736Y-50963000D01*
X47440751Y-50962999D01*
X47592496Y-50948054D01*
X47787225Y-50888984D01*
X47966681Y-50793063D01*
X48123974Y-50663974D01*
X48253063Y-50506681D01*
X48348984Y-50327226D01*
X48392431Y-50184000D01*
X47244000Y-50184000D01*
X46736000Y-50184000D01*
X46736000Y-50159000D01*
X49037569Y-50159000D01*
X49081015Y-50302226D01*
X49176936Y-50481681D01*
X49306025Y-50638974D01*
X49463318Y-50768063D01*
X49642774Y-50863984D01*
X49837503Y-50923054D01*
X49989248Y-50937999D01*
X49989264Y-50938000D01*
X50186000Y-50938000D01*
X50186000Y-50159000D01*
X50694000Y-50159000D01*
X50694000Y-50938000D01*
X50890736Y-50938000D01*
X50890751Y-50937999D01*
X51042496Y-50923054D01*
X51237225Y-50863984D01*
X51416681Y-50768063D01*
X51573974Y-50638974D01*
X51703063Y-50481681D01*
X51798984Y-50302226D01*
X51842431Y-50159000D01*
X50694000Y-50159000D01*
X50186000Y-50159000D01*
X49037569Y-50159000D01*
X46736000Y-50159000D01*
X46736000Y-50155000D01*
X47413650Y-50155000D01*
X47483560Y-50140140D01*
X47560943Y-50083918D01*
X47608769Y-50001082D01*
X47616340Y-49929044D01*
X49811233Y-49929044D01*
X49840791Y-50020013D01*
X49904794Y-50091096D01*
X49992175Y-50130000D01*
X50863650Y-50130000D01*
X50933560Y-50115140D01*
X51010943Y-50058918D01*
X51058769Y-49976082D01*
X51068767Y-49880956D01*
X51039209Y-49789987D01*
X50975206Y-49718904D01*
X50887825Y-49680000D01*
X50016350Y-49680000D01*
X49946440Y-49694860D01*
X49869057Y-49751082D01*
X49821231Y-49833918D01*
X49811233Y-49929044D01*
X47616340Y-49929044D01*
X47618767Y-49905956D01*
X47589209Y-49814987D01*
X47525206Y-49743904D01*
X47437825Y-49705000D01*
X46736000Y-49705000D01*
X46736000Y-48897000D01*
X47244000Y-48897000D01*
X47244000Y-49676000D01*
X48392431Y-49676000D01*
X48348984Y-49532773D01*
X48253063Y-49353318D01*
X48123974Y-49196025D01*
X47966681Y-49066936D01*
X47787225Y-48971015D01*
X47592496Y-48911945D01*
X47440751Y-48897000D01*
X47244000Y-48897000D01*
X46736000Y-48897000D01*
X46539248Y-48897000D01*
X46387503Y-48911945D01*
X46192774Y-48971015D01*
X46013318Y-49066936D01*
X45951434Y-49117724D01*
X45886087Y-49145478D01*
X45816108Y-49133496D01*
X45763717Y-49085584D01*
X45745500Y-49020325D01*
X45745500Y-48355000D01*
X48539534Y-48355000D01*
X48559312Y-48505234D01*
X48617301Y-48645231D01*
X48617306Y-48645239D01*
X48709548Y-48765451D01*
X48793459Y-48829838D01*
X48829767Y-48857698D01*
X48969764Y-48915687D01*
X49082280Y-48930500D01*
X49082287Y-48930500D01*
X49157713Y-48930500D01*
X49157720Y-48930500D01*
X49245986Y-48918879D01*
X49316133Y-48929818D01*
X49369232Y-48976946D01*
X49388422Y-49045300D01*
X49367611Y-49113178D01*
X49342367Y-49141198D01*
X49306026Y-49171023D01*
X49176936Y-49328318D01*
X49081015Y-49507773D01*
X49037569Y-49651000D01*
X50186000Y-49651000D01*
X50186000Y-48872000D01*
X50694000Y-48872000D01*
X50694000Y-49651000D01*
X51842431Y-49651000D01*
X51798984Y-49507773D01*
X51703063Y-49328318D01*
X51573974Y-49171025D01*
X51416681Y-49041936D01*
X51237225Y-48946015D01*
X51042496Y-48886945D01*
X50890751Y-48872000D01*
X50694000Y-48872000D01*
X50186000Y-48872000D01*
X49989248Y-48872000D01*
X49837503Y-48886945D01*
X49691051Y-48931370D01*
X49620057Y-48932003D01*
X49559991Y-48894153D01*
X49529923Y-48829838D01*
X49539400Y-48759477D01*
X49554509Y-48734097D01*
X49622698Y-48645233D01*
X49680687Y-48505236D01*
X49700466Y-48355000D01*
X49680687Y-48204764D01*
X49622698Y-48064767D01*
X49622693Y-48064760D01*
X49530451Y-47944548D01*
X49410239Y-47852306D01*
X49410231Y-47852301D01*
X49270234Y-47794312D01*
X49157722Y-47779500D01*
X49157720Y-47779500D01*
X49082280Y-47779500D01*
X49082277Y-47779500D01*
X48969765Y-47794312D01*
X48829768Y-47852301D01*
X48829760Y-47852306D01*
X48709548Y-47944548D01*
X48617306Y-48064760D01*
X48617301Y-48064768D01*
X48559312Y-48204765D01*
X48539534Y-48354999D01*
X48539534Y-48355000D01*
X45745500Y-48355000D01*
X45745500Y-44355000D01*
X48539534Y-44355000D01*
X48559312Y-44505234D01*
X48617301Y-44645231D01*
X48617306Y-44645239D01*
X48709548Y-44765451D01*
X48829760Y-44857693D01*
X48829767Y-44857698D01*
X48969764Y-44915687D01*
X49082280Y-44930500D01*
X49082287Y-44930500D01*
X49157713Y-44930500D01*
X49157720Y-44930500D01*
X49270236Y-44915687D01*
X49410233Y-44857698D01*
X49530451Y-44765451D01*
X49622698Y-44645233D01*
X49680687Y-44505236D01*
X49700466Y-44355000D01*
X49680687Y-44204764D01*
X49622698Y-44064767D01*
X49622693Y-44064760D01*
X49529511Y-43943323D01*
X49503910Y-43877103D01*
X49518175Y-43807554D01*
X49567776Y-43756758D01*
X49636965Y-43740842D01*
X49666049Y-43746044D01*
X49837505Y-43798054D01*
X49989248Y-43812999D01*
X49989264Y-43813000D01*
X50186000Y-43813000D01*
X50186000Y-43034000D01*
X50694000Y-43034000D01*
X50694000Y-43813000D01*
X50890736Y-43813000D01*
X50890751Y-43812999D01*
X51042496Y-43798054D01*
X51237225Y-43738984D01*
X51416681Y-43643063D01*
X51573974Y-43513974D01*
X51703063Y-43356681D01*
X51798984Y-43177226D01*
X51842431Y-43034000D01*
X50694000Y-43034000D01*
X50186000Y-43034000D01*
X49037569Y-43034000D01*
X49081015Y-43177226D01*
X49176936Y-43356681D01*
X49306025Y-43513975D01*
X49379596Y-43574354D01*
X49419565Y-43633032D01*
X49421465Y-43704003D01*
X49384694Y-43764735D01*
X49320925Y-43795946D01*
X49278608Y-43793993D01*
X49278424Y-43795391D01*
X49157722Y-43779500D01*
X49157720Y-43779500D01*
X49082280Y-43779500D01*
X49082277Y-43779500D01*
X48969765Y-43794312D01*
X48829768Y-43852301D01*
X48829760Y-43852306D01*
X48709548Y-43944548D01*
X48617306Y-44064760D01*
X48617301Y-44064768D01*
X48559312Y-44204765D01*
X48539534Y-44354999D01*
X48539534Y-44355000D01*
X45745500Y-44355000D01*
X45745500Y-43689674D01*
X45765502Y-43621553D01*
X45819158Y-43575060D01*
X45889432Y-43564956D01*
X45951435Y-43592276D01*
X46013318Y-43643063D01*
X46192774Y-43738984D01*
X46387503Y-43798054D01*
X46539248Y-43812999D01*
X46539264Y-43813000D01*
X46736000Y-43813000D01*
X46736000Y-43034000D01*
X47244000Y-43034000D01*
X47244000Y-43813000D01*
X47440736Y-43813000D01*
X47440751Y-43812999D01*
X47592496Y-43798054D01*
X47787225Y-43738984D01*
X47966681Y-43643063D01*
X48123974Y-43513974D01*
X48253063Y-43356681D01*
X48348984Y-43177226D01*
X48392431Y-43034000D01*
X47244000Y-43034000D01*
X46736000Y-43034000D01*
X46736000Y-43005000D01*
X47413650Y-43005000D01*
X47483560Y-42990140D01*
X47560943Y-42933918D01*
X47608769Y-42851082D01*
X47613713Y-42804044D01*
X49811233Y-42804044D01*
X49840791Y-42895013D01*
X49904794Y-42966096D01*
X49992175Y-43005000D01*
X50863650Y-43005000D01*
X50933560Y-42990140D01*
X51010943Y-42933918D01*
X51058769Y-42851082D01*
X51068767Y-42755956D01*
X51039209Y-42664987D01*
X50975206Y-42593904D01*
X50887825Y-42555000D01*
X50016350Y-42555000D01*
X49946440Y-42569860D01*
X49869057Y-42626082D01*
X49821231Y-42708918D01*
X49811233Y-42804044D01*
X47613713Y-42804044D01*
X47618767Y-42755956D01*
X47589209Y-42664987D01*
X47525206Y-42593904D01*
X47437825Y-42555000D01*
X46736000Y-42555000D01*
X46736000Y-41747000D01*
X46539248Y-41747000D01*
X46387503Y-41761945D01*
X46192774Y-41821015D01*
X46013318Y-41916936D01*
X45951434Y-41967724D01*
X45886087Y-41995478D01*
X45816108Y-41983496D01*
X45763717Y-41935584D01*
X45745500Y-41870325D01*
X45745500Y-35544943D01*
X46346780Y-35544943D01*
X46351220Y-35591917D01*
X46351500Y-35597850D01*
X46351500Y-39991044D01*
X46349751Y-40006886D01*
X46350044Y-40006914D01*
X46349298Y-40014806D01*
X46351469Y-40083872D01*
X46351500Y-40085851D01*
X46351500Y-40114749D01*
X46351501Y-40114770D01*
X46352378Y-40121718D01*
X46352844Y-40127630D01*
X46354326Y-40174786D01*
X46354327Y-40174791D01*
X46359977Y-40194237D01*
X46363986Y-40213595D01*
X46366525Y-40233691D01*
X46366526Y-40233697D01*
X46383893Y-40277560D01*
X46385816Y-40283177D01*
X46398982Y-40328491D01*
X46409294Y-40345929D01*
X46417988Y-40363677D01*
X46425444Y-40382507D01*
X46425450Y-40382518D01*
X46453177Y-40420681D01*
X46456437Y-40425644D01*
X46480460Y-40466263D01*
X46494779Y-40480582D01*
X46507617Y-40495612D01*
X46517156Y-40508741D01*
X46519528Y-40512005D01*
X46547794Y-40535389D01*
X46555886Y-40542083D01*
X46560267Y-40546069D01*
X47547203Y-41533006D01*
X47581229Y-41595317D01*
X47576164Y-41666132D01*
X47533617Y-41722968D01*
X47467097Y-41747779D01*
X47445772Y-41747495D01*
X47440745Y-41747000D01*
X47244000Y-41747000D01*
X47244000Y-42526000D01*
X48392431Y-42526000D01*
X48348985Y-42382776D01*
X48338077Y-42362370D01*
X48323604Y-42292864D01*
X48349006Y-42226567D01*
X48406218Y-42184528D01*
X48437340Y-42177530D01*
X48450026Y-42176331D01*
X48477020Y-42173780D01*
X48482952Y-42173500D01*
X48982656Y-42173500D01*
X49050777Y-42193502D01*
X49097270Y-42247158D01*
X49107374Y-42317432D01*
X49093779Y-42358895D01*
X49081015Y-42382774D01*
X49037569Y-42526000D01*
X51842431Y-42526000D01*
X51798984Y-42382774D01*
X51786221Y-42358895D01*
X51771750Y-42289388D01*
X51797155Y-42223092D01*
X51854368Y-42181055D01*
X51897344Y-42173500D01*
X57100406Y-42173500D01*
X57168527Y-42193502D01*
X57189501Y-42210405D01*
X57472877Y-42493781D01*
X57506903Y-42556093D01*
X57509092Y-42569705D01*
X57526457Y-42734927D01*
X57533290Y-42755956D01*
X57585473Y-42916556D01*
X57585476Y-42916561D01*
X57680958Y-43081941D01*
X57680965Y-43081951D01*
X57808744Y-43223864D01*
X57808747Y-43223866D01*
X57963248Y-43336118D01*
X58137712Y-43413794D01*
X58324513Y-43453500D01*
X58380406Y-43453500D01*
X58448527Y-43473502D01*
X58469501Y-43490405D01*
X60289595Y-45310499D01*
X60323621Y-45372811D01*
X60326500Y-45399594D01*
X60326500Y-49446146D01*
X60324751Y-49461988D01*
X60325044Y-49462016D01*
X60324298Y-49469908D01*
X60326469Y-49538974D01*
X60326500Y-49540953D01*
X60326500Y-49569851D01*
X60326501Y-49569872D01*
X60327378Y-49576820D01*
X60327844Y-49582732D01*
X60329326Y-49629888D01*
X60329327Y-49629893D01*
X60334977Y-49649339D01*
X60338986Y-49668697D01*
X60341525Y-49688793D01*
X60341526Y-49688799D01*
X60358893Y-49732662D01*
X60360816Y-49738279D01*
X60373982Y-49783593D01*
X60384294Y-49801031D01*
X60392988Y-49818779D01*
X60400444Y-49837609D01*
X60400450Y-49837620D01*
X60428177Y-49875783D01*
X60431437Y-49880746D01*
X60455460Y-49921365D01*
X60469779Y-49935684D01*
X60482617Y-49950714D01*
X60485037Y-49954044D01*
X60494528Y-49967107D01*
X60505377Y-49976082D01*
X60530886Y-49997185D01*
X60535267Y-50001171D01*
X75400506Y-64866411D01*
X76962755Y-66428660D01*
X76972720Y-66441097D01*
X76972947Y-66440910D01*
X76977999Y-66447017D01*
X77028371Y-66494319D01*
X77029760Y-66495665D01*
X77040008Y-66505913D01*
X77050224Y-66516130D01*
X77050228Y-66516133D01*
X77050230Y-66516135D01*
X77055782Y-66520442D01*
X77060269Y-66524273D01*
X77082959Y-66545581D01*
X77094677Y-66556585D01*
X77094679Y-66556586D01*
X77112428Y-66566343D01*
X77128953Y-66577198D01*
X77144959Y-66589614D01*
X77186686Y-66607670D01*
X77188262Y-66608352D01*
X77193583Y-66610958D01*
X77234940Y-66633695D01*
X77234948Y-66633697D01*
X77254558Y-66638732D01*
X77273267Y-66645137D01*
X77291855Y-66653181D01*
X77338477Y-66660564D01*
X77344262Y-66661763D01*
X77389970Y-66673500D01*
X77410224Y-66673500D01*
X77429934Y-66675051D01*
X77432141Y-66675400D01*
X77449943Y-66678220D01*
X77483870Y-66675012D01*
X77496917Y-66673780D01*
X77502850Y-66673500D01*
X81206800Y-66673500D01*
X81274921Y-66693502D01*
X81300437Y-66715190D01*
X81303747Y-66718866D01*
X81458248Y-66831118D01*
X81632712Y-66908794D01*
X81819513Y-66948500D01*
X82010487Y-66948500D01*
X82197288Y-66908794D01*
X82371752Y-66831118D01*
X82526253Y-66718866D01*
X82567101Y-66673500D01*
X82654034Y-66576951D01*
X82654035Y-66576949D01*
X82654040Y-66576944D01*
X82749527Y-66411556D01*
X82808542Y-66229928D01*
X82828504Y-66040000D01*
X82808542Y-65850072D01*
X82749527Y-65668444D01*
X82654040Y-65503056D01*
X82654038Y-65503054D01*
X82654034Y-65503048D01*
X82526255Y-65361135D01*
X82371752Y-65248882D01*
X82197288Y-65171206D01*
X82010487Y-65131500D01*
X81819513Y-65131500D01*
X81632711Y-65171206D01*
X81458247Y-65248882D01*
X81303747Y-65361133D01*
X81300437Y-65364810D01*
X81239991Y-65402050D01*
X81206800Y-65406500D01*
X77784594Y-65406500D01*
X77716473Y-65386498D01*
X77695499Y-65369595D01*
X61630405Y-49304500D01*
X61596379Y-49242188D01*
X61593500Y-49215405D01*
X61593500Y-45168849D01*
X61595249Y-45153012D01*
X61594955Y-45152985D01*
X61595701Y-45145092D01*
X61593531Y-45076042D01*
X61593500Y-45074063D01*
X61593500Y-45045151D01*
X61593500Y-45045144D01*
X61592620Y-45038185D01*
X61592155Y-45032280D01*
X61590673Y-44985110D01*
X61585022Y-44965663D01*
X61581012Y-44946300D01*
X61578474Y-44926203D01*
X61561100Y-44882323D01*
X61559184Y-44876725D01*
X61546018Y-44831406D01*
X61535700Y-44813961D01*
X61527005Y-44796209D01*
X61519553Y-44777385D01*
X61519550Y-44777379D01*
X61491818Y-44739210D01*
X61488562Y-44734253D01*
X61464542Y-44693637D01*
X61464540Y-44693635D01*
X61464540Y-44693634D01*
X61450218Y-44679312D01*
X61437377Y-44664279D01*
X61425471Y-44647892D01*
X61418029Y-44641735D01*
X61389108Y-44617810D01*
X61384736Y-44613831D01*
X59367121Y-42596216D01*
X59333095Y-42533904D01*
X59330908Y-42520306D01*
X59313542Y-42355072D01*
X59254527Y-42173444D01*
X59159040Y-42008056D01*
X59092189Y-41933810D01*
X59061472Y-41869802D01*
X59070237Y-41799349D01*
X59115700Y-41744818D01*
X59183428Y-41723523D01*
X59185826Y-41723500D01*
X75065406Y-41723500D01*
X75133527Y-41743502D01*
X75154501Y-41760405D01*
X93032877Y-59638781D01*
X93066903Y-59701093D01*
X93069092Y-59714705D01*
X93086457Y-59879927D01*
X93116526Y-59972470D01*
X93145473Y-60061556D01*
X93145476Y-60061561D01*
X93240958Y-60226941D01*
X93240965Y-60226951D01*
X93368744Y-60368864D01*
X93368747Y-60368866D01*
X93523248Y-60481118D01*
X93697712Y-60558794D01*
X93884513Y-60598500D01*
X94075487Y-60598500D01*
X94262288Y-60558794D01*
X94436752Y-60481118D01*
X94591253Y-60368866D01*
X94719040Y-60226944D01*
X94814527Y-60061556D01*
X94873542Y-59879928D01*
X94893504Y-59690000D01*
X94873542Y-59500072D01*
X94814527Y-59318444D01*
X94719040Y-59153056D01*
X94706664Y-59139311D01*
X94675946Y-59075306D01*
X94684708Y-59004852D01*
X94706663Y-58970689D01*
X94719040Y-58956944D01*
X94814527Y-58791556D01*
X94873542Y-58609928D01*
X94893504Y-58420000D01*
X94873542Y-58230072D01*
X94814527Y-58048444D01*
X94719040Y-57883056D01*
X94719038Y-57883054D01*
X94719034Y-57883048D01*
X94591255Y-57741135D01*
X94436752Y-57628882D01*
X94262288Y-57551206D01*
X94075487Y-57511500D01*
X94019594Y-57511500D01*
X93951473Y-57491498D01*
X93930499Y-57474595D01*
X85508514Y-49052608D01*
X85508475Y-49052571D01*
X76707244Y-40251339D01*
X76697279Y-40238901D01*
X76697052Y-40239090D01*
X76692001Y-40232984D01*
X76692000Y-40232982D01*
X76641626Y-40185678D01*
X76640237Y-40184332D01*
X76629990Y-40174085D01*
X76619776Y-40163870D01*
X76619772Y-40163866D01*
X76614225Y-40159563D01*
X76609717Y-40155712D01*
X76575325Y-40123417D01*
X76575319Y-40123413D01*
X76557563Y-40113651D01*
X76541047Y-40102802D01*
X76525041Y-40090386D01*
X76494289Y-40077078D01*
X76481740Y-40071648D01*
X76476408Y-40069036D01*
X76435061Y-40046305D01*
X76415436Y-40041266D01*
X76396736Y-40034864D01*
X76378145Y-40026819D01*
X76378143Y-40026818D01*
X76378142Y-40026818D01*
X76331542Y-40019437D01*
X76325729Y-40018233D01*
X76280030Y-40006500D01*
X76259776Y-40006500D01*
X76240066Y-40004949D01*
X76220057Y-40001780D01*
X76220056Y-40001780D01*
X76173083Y-40006220D01*
X76167150Y-40006500D01*
X50664500Y-40006500D01*
X50596379Y-39986498D01*
X50549886Y-39932842D01*
X50538500Y-39880500D01*
X50538500Y-38821367D01*
X50538499Y-38821350D01*
X50531990Y-38760803D01*
X50531988Y-38760795D01*
X50480889Y-38623797D01*
X50480889Y-38623796D01*
X50477657Y-38619478D01*
X50452844Y-38552962D01*
X50465373Y-38494143D01*
X50463407Y-38493329D01*
X50465777Y-38487606D01*
X50506307Y-38354000D01*
X49740059Y-38354000D01*
X49742129Y-38352805D01*
X49815801Y-38265007D01*
X49855000Y-38157306D01*
X49855000Y-38042694D01*
X49815801Y-37934993D01*
X49742129Y-37847195D01*
X49642871Y-37789888D01*
X49558436Y-37775000D01*
X49501564Y-37775000D01*
X49417129Y-37789888D01*
X49317871Y-37847195D01*
X49276000Y-37897094D01*
X49276000Y-37032905D01*
X49317871Y-37082805D01*
X49417129Y-37140112D01*
X49501564Y-37155000D01*
X49558436Y-37155000D01*
X49642871Y-37140112D01*
X49740059Y-37084000D01*
X49784000Y-37084000D01*
X49784000Y-37846000D01*
X50506307Y-37846000D01*
X50506307Y-37845999D01*
X50465776Y-37712389D01*
X50465775Y-37712387D01*
X50372175Y-37537276D01*
X50370659Y-37535006D01*
X50370229Y-37533634D01*
X50369258Y-37531817D01*
X50369602Y-37531632D01*
X50349441Y-37467254D01*
X50368221Y-37398787D01*
X50370659Y-37394994D01*
X50372175Y-37392723D01*
X50465775Y-37217612D01*
X50465776Y-37217610D01*
X50506307Y-37084000D01*
X49784000Y-37084000D01*
X49740059Y-37084000D01*
X49742129Y-37082805D01*
X49815801Y-36995007D01*
X49855000Y-36887306D01*
X49855000Y-36772694D01*
X49815801Y-36664993D01*
X49742129Y-36577195D01*
X49740059Y-36576000D01*
X50506307Y-36576000D01*
X50506307Y-36575999D01*
X50465776Y-36442389D01*
X50465775Y-36442387D01*
X50372175Y-36267274D01*
X50370960Y-36265456D01*
X50370616Y-36264357D01*
X50369258Y-36261817D01*
X50369739Y-36261559D01*
X50349744Y-36197704D01*
X50368526Y-36129236D01*
X50370964Y-36125443D01*
X50372585Y-36123014D01*
X50372595Y-36123004D01*
X50466241Y-35947804D01*
X50523908Y-35757701D01*
X50540237Y-35591917D01*
X50543380Y-35560003D01*
X50543380Y-35559996D01*
X50523909Y-35362305D01*
X50523908Y-35362303D01*
X50523908Y-35362299D01*
X50466241Y-35172196D01*
X50372595Y-34996996D01*
X50372589Y-34996989D01*
X50370960Y-34994550D01*
X50370496Y-34993070D01*
X50369677Y-34991537D01*
X50369967Y-34991381D01*
X50349744Y-34926797D01*
X50368526Y-34858330D01*
X50370964Y-34854536D01*
X50372179Y-34852716D01*
X50465775Y-34677612D01*
X50465776Y-34677610D01*
X50506307Y-34544000D01*
X49740059Y-34544000D01*
X49742129Y-34542805D01*
X49815801Y-34455007D01*
X49855000Y-34347306D01*
X49855000Y-34232694D01*
X49815801Y-34124993D01*
X49742129Y-34037195D01*
X49642871Y-33979888D01*
X49558436Y-33965000D01*
X49501564Y-33965000D01*
X49417129Y-33979888D01*
X49317871Y-34037195D01*
X49276000Y-34087094D01*
X49276000Y-33313693D01*
X49275999Y-33313692D01*
X49784000Y-33313692D01*
X49784000Y-34036000D01*
X50506307Y-34036000D01*
X50506307Y-34035999D01*
X50465776Y-33902389D01*
X50465775Y-33902387D01*
X50372175Y-33727275D01*
X50246211Y-33573788D01*
X50092724Y-33447824D01*
X49917612Y-33354224D01*
X49917610Y-33354223D01*
X49784000Y-33313692D01*
X49275999Y-33313692D01*
X49142389Y-33354223D01*
X49142387Y-33354224D01*
X48967271Y-33447826D01*
X48965446Y-33449046D01*
X48964345Y-33449390D01*
X48961817Y-33450742D01*
X48961560Y-33450262D01*
X48897691Y-33470255D01*
X48829226Y-33451466D01*
X48825453Y-33449041D01*
X48823007Y-33447406D01*
X48647804Y-33353759D01*
X48515724Y-33313693D01*
X48457701Y-33296092D01*
X48457700Y-33296091D01*
X48457694Y-33296090D01*
X48260003Y-33276620D01*
X48259997Y-33276620D01*
X48062305Y-33296090D01*
X47872195Y-33353759D01*
X47696995Y-33447405D01*
X47543432Y-33573432D01*
X47417405Y-33726995D01*
X47323759Y-33902195D01*
X47266090Y-34092305D01*
X47246620Y-34289996D01*
X47246620Y-34290003D01*
X47251311Y-34337636D01*
X47238082Y-34407389D01*
X47215013Y-34439080D01*
X46596336Y-35057757D01*
X46583901Y-35067721D01*
X46584089Y-35067948D01*
X46577979Y-35073002D01*
X46530694Y-35123355D01*
X46529319Y-35124774D01*
X46508863Y-35145231D01*
X46504560Y-35150777D01*
X46500714Y-35155279D01*
X46468417Y-35189674D01*
X46468411Y-35189683D01*
X46458651Y-35207435D01*
X46447803Y-35223950D01*
X46435386Y-35239958D01*
X46416645Y-35283264D01*
X46414034Y-35288594D01*
X46391305Y-35329939D01*
X46391303Y-35329944D01*
X46386267Y-35349559D01*
X46379864Y-35368262D01*
X46371819Y-35386852D01*
X46364437Y-35433456D01*
X46363233Y-35439268D01*
X46351500Y-35484968D01*
X46351500Y-35505223D01*
X46349949Y-35524933D01*
X46346780Y-35544942D01*
X46346780Y-35544943D01*
X45745500Y-35544943D01*
X45745500Y-30480000D01*
X59596844Y-30480000D01*
X59614232Y-30689844D01*
X59615437Y-30704375D01*
X59670702Y-30922612D01*
X59670703Y-30922613D01*
X59761141Y-31128793D01*
X59884275Y-31317265D01*
X59884279Y-31317270D01*
X60036762Y-31482908D01*
X60091331Y-31525381D01*
X60214424Y-31621189D01*
X60412426Y-31728342D01*
X60412427Y-31728342D01*
X60412428Y-31728343D01*
X60524227Y-31766723D01*
X60625365Y-31801444D01*
X60847431Y-31838500D01*
X60847435Y-31838500D01*
X61072565Y-31838500D01*
X61072569Y-31838500D01*
X61294635Y-31801444D01*
X61507574Y-31728342D01*
X61705576Y-31621189D01*
X61883240Y-31482906D01*
X62035722Y-31317268D01*
X62124518Y-31181354D01*
X62178520Y-31135268D01*
X62248868Y-31125692D01*
X62313225Y-31155669D01*
X62335480Y-31181353D01*
X62368607Y-31232058D01*
X62424275Y-31317265D01*
X62424279Y-31317270D01*
X62576762Y-31482908D01*
X62631331Y-31525381D01*
X62754424Y-31621189D01*
X62952426Y-31728342D01*
X62952427Y-31728342D01*
X62952428Y-31728343D01*
X63064227Y-31766723D01*
X63165365Y-31801444D01*
X63387431Y-31838500D01*
X63387435Y-31838500D01*
X63612565Y-31838500D01*
X63612569Y-31838500D01*
X63834635Y-31801444D01*
X64047574Y-31728342D01*
X64245576Y-31621189D01*
X64423240Y-31482906D01*
X64575722Y-31317268D01*
X64664519Y-31181353D01*
X64718518Y-31135268D01*
X64788866Y-31125692D01*
X64853224Y-31155668D01*
X64875482Y-31181356D01*
X64964275Y-31317265D01*
X64964279Y-31317270D01*
X65116762Y-31482908D01*
X65171331Y-31525381D01*
X65294424Y-31621189D01*
X65492426Y-31728342D01*
X65492427Y-31728342D01*
X65492428Y-31728343D01*
X65604227Y-31766723D01*
X65705365Y-31801444D01*
X65927431Y-31838500D01*
X65927435Y-31838500D01*
X66152565Y-31838500D01*
X66152569Y-31838500D01*
X66374635Y-31801444D01*
X66587574Y-31728342D01*
X66785576Y-31621189D01*
X66963240Y-31482906D01*
X67115722Y-31317268D01*
X67204518Y-31181354D01*
X67258520Y-31135268D01*
X67328868Y-31125692D01*
X67393225Y-31155669D01*
X67415480Y-31181353D01*
X67448607Y-31232058D01*
X67504275Y-31317265D01*
X67504279Y-31317270D01*
X67656762Y-31482908D01*
X67711331Y-31525381D01*
X67834424Y-31621189D01*
X68032426Y-31728342D01*
X68032427Y-31728342D01*
X68032428Y-31728343D01*
X68144227Y-31766723D01*
X68245365Y-31801444D01*
X68467431Y-31838500D01*
X68467435Y-31838500D01*
X68692565Y-31838500D01*
X68692569Y-31838500D01*
X68914635Y-31801444D01*
X69127574Y-31728342D01*
X69325576Y-31621189D01*
X69503240Y-31482906D01*
X69655722Y-31317268D01*
X69744816Y-31180898D01*
X69798819Y-31134810D01*
X69869167Y-31125235D01*
X69933524Y-31155212D01*
X69955782Y-31180898D01*
X70044674Y-31316958D01*
X70197097Y-31482534D01*
X70374698Y-31620767D01*
X70374699Y-31620768D01*
X70572628Y-31727882D01*
X70572630Y-31727883D01*
X70785483Y-31800955D01*
X70785492Y-31800957D01*
X70866000Y-31814391D01*
X70866000Y-30913674D01*
X70977685Y-30964680D01*
X71084237Y-30980000D01*
X71155763Y-30980000D01*
X71262315Y-30964680D01*
X71374000Y-30913674D01*
X71374000Y-31814390D01*
X71454507Y-31800957D01*
X71454516Y-31800955D01*
X71667369Y-31727883D01*
X71667371Y-31727882D01*
X71865300Y-31620768D01*
X71865301Y-31620767D01*
X72042905Y-31482532D01*
X72104047Y-31416113D01*
X72164899Y-31379541D01*
X72235863Y-31381674D01*
X72294409Y-31421835D01*
X72314804Y-31457415D01*
X72359111Y-31576204D01*
X72359112Y-31576207D01*
X72446738Y-31693261D01*
X72563792Y-31780887D01*
X72563794Y-31780888D01*
X72563796Y-31780889D01*
X72617600Y-31800957D01*
X72700795Y-31831988D01*
X72700803Y-31831990D01*
X72761350Y-31838499D01*
X72761355Y-31838499D01*
X72761362Y-31838500D01*
X72761368Y-31838500D01*
X74558632Y-31838500D01*
X74558638Y-31838500D01*
X74558645Y-31838499D01*
X74558649Y-31838499D01*
X74619196Y-31831990D01*
X74619199Y-31831989D01*
X74619201Y-31831989D01*
X74756204Y-31780889D01*
X74826399Y-31728342D01*
X74873261Y-31693261D01*
X74960887Y-31576207D01*
X74960887Y-31576206D01*
X74960889Y-31576204D01*
X75011989Y-31439201D01*
X75018500Y-31378638D01*
X75018500Y-30480000D01*
X82456844Y-30480000D01*
X82474232Y-30689844D01*
X82475437Y-30704375D01*
X82530702Y-30922612D01*
X82530703Y-30922613D01*
X82621141Y-31128793D01*
X82744275Y-31317265D01*
X82744279Y-31317270D01*
X82896762Y-31482908D01*
X82951331Y-31525381D01*
X83074424Y-31621189D01*
X83272426Y-31728342D01*
X83272427Y-31728342D01*
X83272428Y-31728343D01*
X83384227Y-31766723D01*
X83485365Y-31801444D01*
X83707431Y-31838500D01*
X83707435Y-31838500D01*
X83932565Y-31838500D01*
X83932569Y-31838500D01*
X84154635Y-31801444D01*
X84367574Y-31728342D01*
X84565576Y-31621189D01*
X84743240Y-31482906D01*
X84895722Y-31317268D01*
X84984518Y-31181354D01*
X85038520Y-31135268D01*
X85108868Y-31125692D01*
X85173225Y-31155669D01*
X85195480Y-31181353D01*
X85228607Y-31232058D01*
X85284275Y-31317265D01*
X85284279Y-31317270D01*
X85436762Y-31482908D01*
X85491331Y-31525381D01*
X85614424Y-31621189D01*
X85812426Y-31728342D01*
X85812427Y-31728342D01*
X85812428Y-31728343D01*
X85924227Y-31766723D01*
X86025365Y-31801444D01*
X86247431Y-31838500D01*
X86247435Y-31838500D01*
X86472565Y-31838500D01*
X86472569Y-31838500D01*
X86694635Y-31801444D01*
X86907574Y-31728342D01*
X87105576Y-31621189D01*
X87283240Y-31482906D01*
X87435722Y-31317268D01*
X87524518Y-31181354D01*
X87578520Y-31135268D01*
X87648868Y-31125692D01*
X87713225Y-31155669D01*
X87735480Y-31181353D01*
X87768607Y-31232058D01*
X87824275Y-31317265D01*
X87824279Y-31317270D01*
X87976762Y-31482908D01*
X88031331Y-31525381D01*
X88154424Y-31621189D01*
X88352426Y-31728342D01*
X88352427Y-31728342D01*
X88352428Y-31728343D01*
X88464227Y-31766723D01*
X88565365Y-31801444D01*
X88787431Y-31838500D01*
X88787435Y-31838500D01*
X89012565Y-31838500D01*
X89012569Y-31838500D01*
X89234635Y-31801444D01*
X89447574Y-31728342D01*
X89645576Y-31621189D01*
X89823240Y-31482906D01*
X89975722Y-31317268D01*
X90064518Y-31181354D01*
X90118520Y-31135268D01*
X90188868Y-31125692D01*
X90253225Y-31155669D01*
X90275480Y-31181353D01*
X90308607Y-31232058D01*
X90364275Y-31317265D01*
X90364279Y-31317270D01*
X90516762Y-31482908D01*
X90571331Y-31525381D01*
X90694424Y-31621189D01*
X90892426Y-31728342D01*
X90892427Y-31728342D01*
X90892428Y-31728343D01*
X91004227Y-31766723D01*
X91105365Y-31801444D01*
X91327431Y-31838500D01*
X91327435Y-31838500D01*
X91552565Y-31838500D01*
X91552569Y-31838500D01*
X91774635Y-31801444D01*
X91987574Y-31728342D01*
X92185576Y-31621189D01*
X92363240Y-31482906D01*
X92515722Y-31317268D01*
X92604816Y-31180898D01*
X92658819Y-31134810D01*
X92729167Y-31125235D01*
X92793524Y-31155212D01*
X92815782Y-31180898D01*
X92904674Y-31316958D01*
X93057097Y-31482534D01*
X93234698Y-31620767D01*
X93234699Y-31620768D01*
X93432628Y-31727882D01*
X93432630Y-31727883D01*
X93645483Y-31800955D01*
X93645492Y-31800957D01*
X93726000Y-31814391D01*
X93726000Y-30913674D01*
X93837685Y-30964680D01*
X93944237Y-30980000D01*
X94015763Y-30980000D01*
X94122315Y-30964680D01*
X94234000Y-30913674D01*
X94234000Y-31814391D01*
X94314507Y-31800957D01*
X94314516Y-31800955D01*
X94527369Y-31727883D01*
X94527371Y-31727882D01*
X94725300Y-31620768D01*
X94725301Y-31620767D01*
X94902905Y-31482532D01*
X94964047Y-31416113D01*
X95024899Y-31379541D01*
X95095863Y-31381674D01*
X95154409Y-31421835D01*
X95174804Y-31457415D01*
X95219111Y-31576204D01*
X95219112Y-31576207D01*
X95306738Y-31693261D01*
X95423792Y-31780887D01*
X95423794Y-31780888D01*
X95423796Y-31780889D01*
X95477600Y-31800957D01*
X95560795Y-31831988D01*
X95560803Y-31831990D01*
X95621350Y-31838499D01*
X95621355Y-31838499D01*
X95621362Y-31838500D01*
X95621368Y-31838500D01*
X97418632Y-31838500D01*
X97418638Y-31838500D01*
X97418645Y-31838499D01*
X97418649Y-31838499D01*
X97479196Y-31831990D01*
X97479199Y-31831989D01*
X97479201Y-31831989D01*
X97616204Y-31780889D01*
X97686399Y-31728342D01*
X97733261Y-31693261D01*
X97820887Y-31576207D01*
X97820887Y-31576206D01*
X97820889Y-31576204D01*
X97871989Y-31439201D01*
X97878500Y-31378638D01*
X97878500Y-30480000D01*
X105316844Y-30480000D01*
X105334232Y-30689844D01*
X105335437Y-30704375D01*
X105390702Y-30922612D01*
X105390703Y-30922613D01*
X105481141Y-31128793D01*
X105604275Y-31317265D01*
X105604279Y-31317270D01*
X105756762Y-31482908D01*
X105811331Y-31525381D01*
X105934424Y-31621189D01*
X106132426Y-31728342D01*
X106132427Y-31728342D01*
X106132428Y-31728343D01*
X106244227Y-31766723D01*
X106345365Y-31801444D01*
X106567431Y-31838500D01*
X106567435Y-31838500D01*
X106792565Y-31838500D01*
X106792569Y-31838500D01*
X107014635Y-31801444D01*
X107227574Y-31728342D01*
X107425576Y-31621189D01*
X107603240Y-31482906D01*
X107755722Y-31317268D01*
X107844518Y-31181354D01*
X107898520Y-31135268D01*
X107968868Y-31125692D01*
X108033225Y-31155669D01*
X108055480Y-31181353D01*
X108088607Y-31232058D01*
X108144275Y-31317265D01*
X108144279Y-31317270D01*
X108296762Y-31482908D01*
X108351331Y-31525381D01*
X108474424Y-31621189D01*
X108672426Y-31728342D01*
X108672427Y-31728342D01*
X108672428Y-31728343D01*
X108784227Y-31766723D01*
X108885365Y-31801444D01*
X109107431Y-31838500D01*
X109107435Y-31838500D01*
X109332565Y-31838500D01*
X109332569Y-31838500D01*
X109554635Y-31801444D01*
X109767574Y-31728342D01*
X109965576Y-31621189D01*
X110143240Y-31482906D01*
X110295722Y-31317268D01*
X110384518Y-31181354D01*
X110438520Y-31135268D01*
X110508868Y-31125692D01*
X110573225Y-31155669D01*
X110595480Y-31181353D01*
X110628607Y-31232058D01*
X110684275Y-31317265D01*
X110684279Y-31317270D01*
X110836762Y-31482908D01*
X110891331Y-31525381D01*
X111014424Y-31621189D01*
X111212426Y-31728342D01*
X111212427Y-31728342D01*
X111212428Y-31728343D01*
X111324227Y-31766723D01*
X111425365Y-31801444D01*
X111647431Y-31838500D01*
X111647435Y-31838500D01*
X111872565Y-31838500D01*
X111872569Y-31838500D01*
X112094635Y-31801444D01*
X112307574Y-31728342D01*
X112505576Y-31621189D01*
X112683240Y-31482906D01*
X112835722Y-31317268D01*
X112924518Y-31181354D01*
X112978520Y-31135268D01*
X113048868Y-31125692D01*
X113113225Y-31155669D01*
X113135480Y-31181353D01*
X113168607Y-31232058D01*
X113224275Y-31317265D01*
X113224279Y-31317270D01*
X113376762Y-31482908D01*
X113431331Y-31525381D01*
X113554424Y-31621189D01*
X113752426Y-31728342D01*
X113752427Y-31728342D01*
X113752428Y-31728343D01*
X113864227Y-31766723D01*
X113965365Y-31801444D01*
X114187431Y-31838500D01*
X114187435Y-31838500D01*
X114412565Y-31838500D01*
X114412569Y-31838500D01*
X114634635Y-31801444D01*
X114847574Y-31728342D01*
X115045576Y-31621189D01*
X115223240Y-31482906D01*
X115375722Y-31317268D01*
X115464816Y-31180898D01*
X115518819Y-31134810D01*
X115589167Y-31125235D01*
X115653524Y-31155212D01*
X115675782Y-31180898D01*
X115764674Y-31316958D01*
X115917097Y-31482534D01*
X116094698Y-31620767D01*
X116094699Y-31620768D01*
X116292628Y-31727882D01*
X116292630Y-31727883D01*
X116505483Y-31800955D01*
X116505492Y-31800957D01*
X116586000Y-31814391D01*
X116585999Y-30913674D01*
X116697685Y-30964680D01*
X116804237Y-30980000D01*
X116875763Y-30980000D01*
X116982315Y-30964680D01*
X117094000Y-30913674D01*
X117094000Y-31814390D01*
X117174507Y-31800957D01*
X117174516Y-31800955D01*
X117387369Y-31727883D01*
X117387371Y-31727882D01*
X117585300Y-31620768D01*
X117585301Y-31620767D01*
X117762905Y-31482532D01*
X117824047Y-31416113D01*
X117884899Y-31379541D01*
X117955863Y-31381674D01*
X118014409Y-31421835D01*
X118034804Y-31457415D01*
X118079111Y-31576204D01*
X118079112Y-31576207D01*
X118166738Y-31693261D01*
X118283792Y-31780887D01*
X118283794Y-31780888D01*
X118283796Y-31780889D01*
X118337600Y-31800957D01*
X118420795Y-31831988D01*
X118420803Y-31831990D01*
X118481350Y-31838499D01*
X118481355Y-31838499D01*
X118481362Y-31838500D01*
X118481368Y-31838500D01*
X120278632Y-31838500D01*
X120278638Y-31838500D01*
X120278645Y-31838499D01*
X120278649Y-31838499D01*
X120339196Y-31831990D01*
X120339199Y-31831989D01*
X120339201Y-31831989D01*
X120476204Y-31780889D01*
X120546399Y-31728342D01*
X120593261Y-31693261D01*
X120680887Y-31576207D01*
X120680887Y-31576206D01*
X120680889Y-31576204D01*
X120731989Y-31439201D01*
X120738500Y-31378638D01*
X120738500Y-29581362D01*
X120736141Y-29559419D01*
X120731990Y-29520803D01*
X120731988Y-29520795D01*
X120680889Y-29383797D01*
X120680887Y-29383792D01*
X120593261Y-29266738D01*
X120476207Y-29179112D01*
X120476203Y-29179110D01*
X120361192Y-29136213D01*
X120304356Y-29093667D01*
X120279546Y-29027146D01*
X120294638Y-28957772D01*
X120312525Y-28932820D01*
X120455714Y-28777277D01*
X120455724Y-28777265D01*
X120462441Y-28766983D01*
X120578860Y-28588791D01*
X120669296Y-28382616D01*
X120724564Y-28164368D01*
X120743156Y-27940000D01*
X120724564Y-27715632D01*
X120669296Y-27497384D01*
X120578860Y-27291209D01*
X120561597Y-27264786D01*
X120455724Y-27102734D01*
X120455720Y-27102729D01*
X120339570Y-26976558D01*
X120303240Y-26937094D01*
X120303239Y-26937093D01*
X120303237Y-26937091D01*
X120221382Y-26873381D01*
X120125576Y-26798811D01*
X119927574Y-26691658D01*
X119927572Y-26691657D01*
X119927571Y-26691656D01*
X119714639Y-26618557D01*
X119714630Y-26618555D01*
X119637029Y-26605606D01*
X119492569Y-26581500D01*
X119267431Y-26581500D01*
X119122971Y-26605606D01*
X119045369Y-26618555D01*
X119045360Y-26618557D01*
X118832428Y-26691656D01*
X118832426Y-26691658D01*
X118634426Y-26798810D01*
X118634424Y-26798811D01*
X118456762Y-26937091D01*
X118304279Y-27102729D01*
X118215183Y-27239101D01*
X118161179Y-27285189D01*
X118090831Y-27294764D01*
X118026474Y-27264786D01*
X118004217Y-27239100D01*
X117915327Y-27103044D01*
X117762902Y-26937465D01*
X117585301Y-26799232D01*
X117585300Y-26799231D01*
X117387371Y-26692117D01*
X117387369Y-26692116D01*
X117174512Y-26619043D01*
X117174501Y-26619040D01*
X117094000Y-26605606D01*
X117094000Y-27506325D01*
X116982315Y-27455320D01*
X116875763Y-27440000D01*
X116804237Y-27440000D01*
X116697685Y-27455320D01*
X116585999Y-27506325D01*
X116585999Y-26605606D01*
X116505498Y-26619040D01*
X116505487Y-26619043D01*
X116292630Y-26692116D01*
X116292628Y-26692117D01*
X116094699Y-26799231D01*
X116094698Y-26799232D01*
X115917097Y-26937465D01*
X115764670Y-27103045D01*
X115675780Y-27239101D01*
X115621776Y-27285189D01*
X115551428Y-27294764D01*
X115487071Y-27264786D01*
X115464816Y-27239101D01*
X115425884Y-27179511D01*
X115375724Y-27102734D01*
X115375720Y-27102729D01*
X115259570Y-26976558D01*
X115223240Y-26937094D01*
X115223239Y-26937093D01*
X115223237Y-26937091D01*
X115141382Y-26873381D01*
X115045576Y-26798811D01*
X114847574Y-26691658D01*
X114847572Y-26691657D01*
X114847571Y-26691656D01*
X114634639Y-26618557D01*
X114634630Y-26618555D01*
X114557029Y-26605606D01*
X114412569Y-26581500D01*
X114187431Y-26581500D01*
X114042971Y-26605606D01*
X113965369Y-26618555D01*
X113965360Y-26618557D01*
X113752428Y-26691656D01*
X113752426Y-26691658D01*
X113554426Y-26798810D01*
X113554424Y-26798811D01*
X113376762Y-26937091D01*
X113224279Y-27102729D01*
X113135483Y-27238643D01*
X113081479Y-27284731D01*
X113011131Y-27294306D01*
X112946774Y-27264329D01*
X112924517Y-27238643D01*
X112835720Y-27102729D01*
X112719570Y-26976558D01*
X112683240Y-26937094D01*
X112683239Y-26937093D01*
X112683237Y-26937091D01*
X112601382Y-26873381D01*
X112505576Y-26798811D01*
X112307574Y-26691658D01*
X112307572Y-26691657D01*
X112307571Y-26691656D01*
X112094639Y-26618557D01*
X112094630Y-26618555D01*
X112017029Y-26605606D01*
X111872569Y-26581500D01*
X111647431Y-26581500D01*
X111502971Y-26605606D01*
X111425369Y-26618555D01*
X111425360Y-26618557D01*
X111212428Y-26691656D01*
X111212426Y-26691658D01*
X111014426Y-26798810D01*
X111014424Y-26798811D01*
X110836762Y-26937091D01*
X110684279Y-27102729D01*
X110684279Y-27102730D01*
X110595482Y-27238643D01*
X110541478Y-27284731D01*
X110471130Y-27294306D01*
X110406773Y-27264328D01*
X110384516Y-27238642D01*
X110295724Y-27102734D01*
X110295720Y-27102729D01*
X110179570Y-26976558D01*
X110143240Y-26937094D01*
X110143239Y-26937093D01*
X110143237Y-26937091D01*
X110061382Y-26873381D01*
X109965576Y-26798811D01*
X109767574Y-26691658D01*
X109767572Y-26691657D01*
X109767571Y-26691656D01*
X109554639Y-26618557D01*
X109554630Y-26618555D01*
X109477029Y-26605606D01*
X109332569Y-26581500D01*
X109107431Y-26581500D01*
X108962971Y-26605606D01*
X108885369Y-26618555D01*
X108885360Y-26618557D01*
X108672428Y-26691656D01*
X108672426Y-26691658D01*
X108474426Y-26798810D01*
X108474424Y-26798811D01*
X108296762Y-26937091D01*
X108144279Y-27102729D01*
X108055483Y-27238643D01*
X108001479Y-27284731D01*
X107931131Y-27294306D01*
X107866774Y-27264329D01*
X107844517Y-27238643D01*
X107755720Y-27102729D01*
X107639570Y-26976558D01*
X107603240Y-26937094D01*
X107603239Y-26937093D01*
X107603237Y-26937091D01*
X107521382Y-26873381D01*
X107425576Y-26798811D01*
X107227574Y-26691658D01*
X107227572Y-26691657D01*
X107227571Y-26691656D01*
X107014639Y-26618557D01*
X107014630Y-26618555D01*
X106937029Y-26605606D01*
X106792569Y-26581500D01*
X106567431Y-26581500D01*
X106422971Y-26605606D01*
X106345369Y-26618555D01*
X106345360Y-26618557D01*
X106132428Y-26691656D01*
X106132426Y-26691658D01*
X105934426Y-26798810D01*
X105934424Y-26798811D01*
X105756762Y-26937091D01*
X105604279Y-27102729D01*
X105604275Y-27102734D01*
X105481141Y-27291206D01*
X105390703Y-27497386D01*
X105390702Y-27497387D01*
X105335437Y-27715624D01*
X105335436Y-27715630D01*
X105335436Y-27715632D01*
X105316844Y-27940000D01*
X105334232Y-28149844D01*
X105335437Y-28164375D01*
X105390702Y-28382612D01*
X105390703Y-28382613D01*
X105481141Y-28588793D01*
X105604275Y-28777265D01*
X105604279Y-28777270D01*
X105756762Y-28942908D01*
X105811331Y-28985381D01*
X105934424Y-29081189D01*
X105967676Y-29099184D01*
X105967680Y-29099186D01*
X106018071Y-29149200D01*
X106033423Y-29218516D01*
X106008862Y-29285129D01*
X105967680Y-29320813D01*
X105934426Y-29338810D01*
X105934424Y-29338811D01*
X105756762Y-29477091D01*
X105604279Y-29642729D01*
X105604275Y-29642734D01*
X105481141Y-29831206D01*
X105390703Y-30037386D01*
X105390702Y-30037387D01*
X105335437Y-30255624D01*
X105335436Y-30255630D01*
X105335436Y-30255632D01*
X105316844Y-30480000D01*
X97878500Y-30480000D01*
X97878500Y-29581362D01*
X97876141Y-29559419D01*
X97871990Y-29520803D01*
X97871988Y-29520795D01*
X97820889Y-29383797D01*
X97820887Y-29383792D01*
X97733261Y-29266738D01*
X97616207Y-29179112D01*
X97616203Y-29179110D01*
X97501192Y-29136213D01*
X97444356Y-29093667D01*
X97419546Y-29027146D01*
X97434638Y-28957772D01*
X97452525Y-28932820D01*
X97595714Y-28777277D01*
X97595724Y-28777265D01*
X97602441Y-28766983D01*
X97718860Y-28588791D01*
X97809296Y-28382616D01*
X97864564Y-28164368D01*
X97883156Y-27940000D01*
X97864564Y-27715632D01*
X97809296Y-27497384D01*
X97718860Y-27291209D01*
X97701597Y-27264786D01*
X97595724Y-27102734D01*
X97595720Y-27102729D01*
X97479570Y-26976558D01*
X97443240Y-26937094D01*
X97443239Y-26937093D01*
X97443237Y-26937091D01*
X97361382Y-26873381D01*
X97265576Y-26798811D01*
X97067574Y-26691658D01*
X97067572Y-26691657D01*
X97067571Y-26691656D01*
X96854639Y-26618557D01*
X96854630Y-26618555D01*
X96777029Y-26605606D01*
X96632569Y-26581500D01*
X96407431Y-26581500D01*
X96262971Y-26605606D01*
X96185369Y-26618555D01*
X96185360Y-26618557D01*
X95972428Y-26691656D01*
X95972426Y-26691658D01*
X95774426Y-26798810D01*
X95774424Y-26798811D01*
X95596762Y-26937091D01*
X95444279Y-27102729D01*
X95355183Y-27239101D01*
X95301179Y-27285189D01*
X95230831Y-27294764D01*
X95166474Y-27264786D01*
X95144217Y-27239100D01*
X95055327Y-27103044D01*
X94902902Y-26937465D01*
X94725301Y-26799232D01*
X94725300Y-26799231D01*
X94527371Y-26692117D01*
X94527369Y-26692116D01*
X94314512Y-26619043D01*
X94314501Y-26619040D01*
X94234000Y-26605606D01*
X94234000Y-27506325D01*
X94122315Y-27455320D01*
X94015763Y-27440000D01*
X93944237Y-27440000D01*
X93837685Y-27455320D01*
X93726000Y-27506325D01*
X93726000Y-26605607D01*
X93725999Y-26605606D01*
X93645498Y-26619040D01*
X93645487Y-26619043D01*
X93432630Y-26692116D01*
X93432628Y-26692117D01*
X93234699Y-26799231D01*
X93234698Y-26799232D01*
X93057097Y-26937465D01*
X92904670Y-27103045D01*
X92815780Y-27239101D01*
X92761776Y-27285189D01*
X92691428Y-27294764D01*
X92627071Y-27264786D01*
X92604816Y-27239101D01*
X92565884Y-27179511D01*
X92515724Y-27102734D01*
X92515720Y-27102729D01*
X92399570Y-26976558D01*
X92363240Y-26937094D01*
X92363239Y-26937093D01*
X92363237Y-26937091D01*
X92281382Y-26873381D01*
X92185576Y-26798811D01*
X91987574Y-26691658D01*
X91987572Y-26691657D01*
X91987571Y-26691656D01*
X91774639Y-26618557D01*
X91774630Y-26618555D01*
X91697029Y-26605606D01*
X91552569Y-26581500D01*
X91327431Y-26581500D01*
X91182971Y-26605606D01*
X91105369Y-26618555D01*
X91105360Y-26618557D01*
X90892428Y-26691656D01*
X90892426Y-26691658D01*
X90694426Y-26798810D01*
X90694424Y-26798811D01*
X90516762Y-26937091D01*
X90364279Y-27102729D01*
X90364279Y-27102730D01*
X90275482Y-27238643D01*
X90221478Y-27284731D01*
X90151130Y-27294306D01*
X90086773Y-27264328D01*
X90064516Y-27238642D01*
X89975724Y-27102734D01*
X89975720Y-27102729D01*
X89859570Y-26976558D01*
X89823240Y-26937094D01*
X89823239Y-26937093D01*
X89823237Y-26937091D01*
X89741382Y-26873381D01*
X89645576Y-26798811D01*
X89447574Y-26691658D01*
X89447572Y-26691657D01*
X89447571Y-26691656D01*
X89234639Y-26618557D01*
X89234630Y-26618555D01*
X89157029Y-26605606D01*
X89012569Y-26581500D01*
X88787431Y-26581500D01*
X88642971Y-26605606D01*
X88565369Y-26618555D01*
X88565360Y-26618557D01*
X88352428Y-26691656D01*
X88352426Y-26691658D01*
X88154426Y-26798810D01*
X88154424Y-26798811D01*
X87976762Y-26937091D01*
X87824279Y-27102729D01*
X87735483Y-27238643D01*
X87681479Y-27284731D01*
X87611131Y-27294306D01*
X87546774Y-27264329D01*
X87524517Y-27238643D01*
X87435720Y-27102729D01*
X87319570Y-26976558D01*
X87283240Y-26937094D01*
X87283239Y-26937093D01*
X87283237Y-26937091D01*
X87201382Y-26873381D01*
X87105576Y-26798811D01*
X86907574Y-26691658D01*
X86907572Y-26691657D01*
X86907571Y-26691656D01*
X86694639Y-26618557D01*
X86694630Y-26618555D01*
X86617029Y-26605606D01*
X86472569Y-26581500D01*
X86247431Y-26581500D01*
X86102971Y-26605606D01*
X86025369Y-26618555D01*
X86025360Y-26618557D01*
X85812428Y-26691656D01*
X85812426Y-26691658D01*
X85614426Y-26798810D01*
X85614424Y-26798811D01*
X85436762Y-26937091D01*
X85284279Y-27102729D01*
X85195483Y-27238643D01*
X85141479Y-27284731D01*
X85071131Y-27294306D01*
X85006774Y-27264329D01*
X84984517Y-27238643D01*
X84895720Y-27102729D01*
X84779570Y-26976558D01*
X84743240Y-26937094D01*
X84743239Y-26937093D01*
X84743237Y-26937091D01*
X84661382Y-26873381D01*
X84565576Y-26798811D01*
X84367574Y-26691658D01*
X84367572Y-26691657D01*
X84367571Y-26691656D01*
X84154639Y-26618557D01*
X84154630Y-26618555D01*
X84077029Y-26605606D01*
X83932569Y-26581500D01*
X83707431Y-26581500D01*
X83562971Y-26605606D01*
X83485369Y-26618555D01*
X83485360Y-26618557D01*
X83272428Y-26691656D01*
X83272426Y-26691658D01*
X83074426Y-26798810D01*
X83074424Y-26798811D01*
X82896762Y-26937091D01*
X82744279Y-27102729D01*
X82744275Y-27102734D01*
X82621141Y-27291206D01*
X82530703Y-27497386D01*
X82530702Y-27497387D01*
X82475437Y-27715624D01*
X82475436Y-27715630D01*
X82475436Y-27715632D01*
X82456844Y-27940000D01*
X82474232Y-28149844D01*
X82475437Y-28164375D01*
X82530702Y-28382612D01*
X82530703Y-28382613D01*
X82621141Y-28588793D01*
X82744275Y-28777265D01*
X82744279Y-28777270D01*
X82896762Y-28942908D01*
X82951331Y-28985381D01*
X83074424Y-29081189D01*
X83107676Y-29099184D01*
X83107680Y-29099186D01*
X83158071Y-29149200D01*
X83173423Y-29218516D01*
X83148862Y-29285129D01*
X83107680Y-29320813D01*
X83074426Y-29338810D01*
X83074424Y-29338811D01*
X82896762Y-29477091D01*
X82744279Y-29642729D01*
X82744275Y-29642734D01*
X82621141Y-29831206D01*
X82530703Y-30037386D01*
X82530702Y-30037387D01*
X82475437Y-30255624D01*
X82475436Y-30255630D01*
X82475436Y-30255632D01*
X82456844Y-30480000D01*
X75018500Y-30480000D01*
X75018500Y-29581362D01*
X75016141Y-29559419D01*
X75011990Y-29520803D01*
X75011988Y-29520795D01*
X74960889Y-29383797D01*
X74960887Y-29383792D01*
X74873261Y-29266738D01*
X74756207Y-29179112D01*
X74756203Y-29179110D01*
X74641192Y-29136213D01*
X74584356Y-29093667D01*
X74559546Y-29027146D01*
X74574638Y-28957772D01*
X74592525Y-28932820D01*
X74735714Y-28777277D01*
X74735724Y-28777265D01*
X74742441Y-28766983D01*
X74858860Y-28588791D01*
X74949296Y-28382616D01*
X75004564Y-28164368D01*
X75023156Y-27940000D01*
X75004564Y-27715632D01*
X74949296Y-27497384D01*
X74858860Y-27291209D01*
X74841597Y-27264786D01*
X74735724Y-27102734D01*
X74735720Y-27102729D01*
X74619570Y-26976558D01*
X74583240Y-26937094D01*
X74583239Y-26937093D01*
X74583237Y-26937091D01*
X74501382Y-26873381D01*
X74405576Y-26798811D01*
X74207574Y-26691658D01*
X74207572Y-26691657D01*
X74207571Y-26691656D01*
X73994639Y-26618557D01*
X73994630Y-26618555D01*
X73917029Y-26605606D01*
X73772569Y-26581500D01*
X73547431Y-26581500D01*
X73402971Y-26605606D01*
X73325369Y-26618555D01*
X73325360Y-26618557D01*
X73112428Y-26691656D01*
X73112426Y-26691658D01*
X72914426Y-26798810D01*
X72914424Y-26798811D01*
X72736762Y-26937091D01*
X72584279Y-27102729D01*
X72495183Y-27239101D01*
X72441179Y-27285189D01*
X72370831Y-27294764D01*
X72306474Y-27264786D01*
X72284217Y-27239100D01*
X72195327Y-27103044D01*
X72042902Y-26937465D01*
X71865301Y-26799232D01*
X71865300Y-26799231D01*
X71667371Y-26692117D01*
X71667369Y-26692116D01*
X71454512Y-26619043D01*
X71454501Y-26619040D01*
X71374000Y-26605606D01*
X71374000Y-27506325D01*
X71262315Y-27455320D01*
X71155763Y-27440000D01*
X71084237Y-27440000D01*
X70977685Y-27455320D01*
X70866000Y-27506325D01*
X70866000Y-26605607D01*
X70865999Y-26605606D01*
X70785498Y-26619040D01*
X70785487Y-26619043D01*
X70572630Y-26692116D01*
X70572628Y-26692117D01*
X70374699Y-26799231D01*
X70374698Y-26799232D01*
X70197097Y-26937465D01*
X70044670Y-27103045D01*
X69955780Y-27239101D01*
X69901776Y-27285189D01*
X69831428Y-27294764D01*
X69767071Y-27264786D01*
X69744816Y-27239101D01*
X69705884Y-27179511D01*
X69655724Y-27102734D01*
X69655720Y-27102729D01*
X69539570Y-26976558D01*
X69503240Y-26937094D01*
X69503239Y-26937093D01*
X69503237Y-26937091D01*
X69421382Y-26873381D01*
X69325576Y-26798811D01*
X69127574Y-26691658D01*
X69127572Y-26691657D01*
X69127571Y-26691656D01*
X68914639Y-26618557D01*
X68914630Y-26618555D01*
X68837029Y-26605606D01*
X68692569Y-26581500D01*
X68467431Y-26581500D01*
X68322971Y-26605606D01*
X68245369Y-26618555D01*
X68245360Y-26618557D01*
X68032428Y-26691656D01*
X68032426Y-26691658D01*
X67834426Y-26798810D01*
X67834424Y-26798811D01*
X67656762Y-26937091D01*
X67504279Y-27102729D01*
X67415483Y-27238643D01*
X67361479Y-27284731D01*
X67291131Y-27294306D01*
X67226774Y-27264329D01*
X67204517Y-27238643D01*
X67115720Y-27102729D01*
X66999570Y-26976558D01*
X66963240Y-26937094D01*
X66963239Y-26937093D01*
X66963237Y-26937091D01*
X66881382Y-26873381D01*
X66785576Y-26798811D01*
X66587574Y-26691658D01*
X66587572Y-26691657D01*
X66587571Y-26691656D01*
X66374639Y-26618557D01*
X66374630Y-26618555D01*
X66297029Y-26605606D01*
X66152569Y-26581500D01*
X65927431Y-26581500D01*
X65782971Y-26605606D01*
X65705369Y-26618555D01*
X65705360Y-26618557D01*
X65492428Y-26691656D01*
X65492426Y-26691658D01*
X65294426Y-26798810D01*
X65294424Y-26798811D01*
X65116762Y-26937091D01*
X64964279Y-27102729D01*
X64875483Y-27238643D01*
X64821479Y-27284731D01*
X64751131Y-27294306D01*
X64686774Y-27264329D01*
X64664517Y-27238643D01*
X64575720Y-27102729D01*
X64459570Y-26976559D01*
X64423240Y-26937094D01*
X64423239Y-26937093D01*
X64423237Y-26937091D01*
X64341382Y-26873381D01*
X64245576Y-26798811D01*
X64047574Y-26691658D01*
X64047572Y-26691657D01*
X64047571Y-26691656D01*
X63834639Y-26618557D01*
X63834630Y-26618555D01*
X63757029Y-26605606D01*
X63612569Y-26581500D01*
X63387431Y-26581500D01*
X63242971Y-26605606D01*
X63165369Y-26618555D01*
X63165360Y-26618557D01*
X62952428Y-26691656D01*
X62952426Y-26691658D01*
X62754426Y-26798810D01*
X62754424Y-26798811D01*
X62576762Y-26937091D01*
X62424279Y-27102729D01*
X62335483Y-27238643D01*
X62281479Y-27284731D01*
X62211131Y-27294306D01*
X62146774Y-27264329D01*
X62124517Y-27238643D01*
X62035720Y-27102729D01*
X61919570Y-26976559D01*
X61883240Y-26937094D01*
X61883239Y-26937093D01*
X61883237Y-26937091D01*
X61801382Y-26873381D01*
X61705576Y-26798811D01*
X61507574Y-26691658D01*
X61507572Y-26691657D01*
X61507571Y-26691656D01*
X61294639Y-26618557D01*
X61294630Y-26618555D01*
X61217029Y-26605606D01*
X61072569Y-26581500D01*
X60847431Y-26581500D01*
X60702971Y-26605606D01*
X60625369Y-26618555D01*
X60625360Y-26618557D01*
X60412428Y-26691656D01*
X60412426Y-26691658D01*
X60214426Y-26798810D01*
X60214424Y-26798811D01*
X60036762Y-26937091D01*
X59884279Y-27102729D01*
X59884275Y-27102734D01*
X59761141Y-27291206D01*
X59670703Y-27497386D01*
X59670702Y-27497387D01*
X59615437Y-27715624D01*
X59615436Y-27715630D01*
X59615436Y-27715632D01*
X59596844Y-27940000D01*
X59614232Y-28149844D01*
X59615437Y-28164375D01*
X59670702Y-28382612D01*
X59670703Y-28382613D01*
X59761141Y-28588793D01*
X59884275Y-28777265D01*
X59884279Y-28777270D01*
X60036762Y-28942908D01*
X60091331Y-28985381D01*
X60214424Y-29081189D01*
X60247676Y-29099184D01*
X60247680Y-29099186D01*
X60298071Y-29149200D01*
X60313423Y-29218516D01*
X60288862Y-29285129D01*
X60247680Y-29320813D01*
X60214426Y-29338810D01*
X60214424Y-29338811D01*
X60036762Y-29477091D01*
X59884279Y-29642729D01*
X59884275Y-29642734D01*
X59761141Y-29831206D01*
X59670703Y-30037386D01*
X59670702Y-30037387D01*
X59615437Y-30255624D01*
X59615436Y-30255630D01*
X59615436Y-30255632D01*
X59596844Y-30480000D01*
X45745500Y-30480000D01*
X45745500Y-22860006D01*
X47086411Y-22860006D01*
X47106752Y-23248167D01*
X47167561Y-23632097D01*
X47268168Y-24007568D01*
X47407463Y-24370443D01*
X47407467Y-24370451D01*
X47583938Y-24716795D01*
X47795637Y-25042785D01*
X47795649Y-25042802D01*
X48040253Y-25344862D01*
X48040267Y-25344877D01*
X48315122Y-25619732D01*
X48315137Y-25619746D01*
X48617197Y-25864350D01*
X48617214Y-25864362D01*
X48801185Y-25983833D01*
X48943205Y-26076062D01*
X49289547Y-26252532D01*
X49289551Y-26252533D01*
X49289556Y-26252536D01*
X49652431Y-26391831D01*
X49652436Y-26391832D01*
X49652438Y-26391833D01*
X50027901Y-26492438D01*
X50411824Y-26553246D01*
X50411826Y-26553246D01*
X50411832Y-26553247D01*
X50799994Y-26573589D01*
X50800000Y-26573589D01*
X50800006Y-26573589D01*
X51188167Y-26553247D01*
X51188171Y-26553246D01*
X51188176Y-26553246D01*
X51572099Y-26492438D01*
X51947562Y-26391833D01*
X51947565Y-26391831D01*
X51947568Y-26391831D01*
X52310443Y-26252536D01*
X52310444Y-26252535D01*
X52310453Y-26252532D01*
X52656795Y-26076062D01*
X52982793Y-25864357D01*
X52982802Y-25864350D01*
X53284862Y-25619746D01*
X53284867Y-25619740D01*
X53284876Y-25619734D01*
X53559734Y-25344876D01*
X53559740Y-25344867D01*
X53559746Y-25344862D01*
X53804350Y-25042802D01*
X53804351Y-25042799D01*
X53804357Y-25042793D01*
X54016062Y-24716795D01*
X54192532Y-24370453D01*
X54331833Y-24007562D01*
X54432438Y-23632099D01*
X54493246Y-23248176D01*
X54493246Y-23248171D01*
X54493247Y-23248167D01*
X54513589Y-22860006D01*
X125826411Y-22860006D01*
X125846752Y-23248167D01*
X125907561Y-23632097D01*
X126008168Y-24007568D01*
X126147463Y-24370443D01*
X126147467Y-24370451D01*
X126323938Y-24716795D01*
X126535637Y-25042785D01*
X126535649Y-25042802D01*
X126780253Y-25344862D01*
X126780267Y-25344877D01*
X127055122Y-25619732D01*
X127055137Y-25619746D01*
X127357197Y-25864350D01*
X127357214Y-25864362D01*
X127541185Y-25983833D01*
X127683205Y-26076062D01*
X128029547Y-26252532D01*
X128029551Y-26252533D01*
X128029556Y-26252536D01*
X128392431Y-26391831D01*
X128392436Y-26391832D01*
X128392438Y-26391833D01*
X128767901Y-26492438D01*
X129151824Y-26553246D01*
X129151826Y-26553246D01*
X129151832Y-26553247D01*
X129539994Y-26573589D01*
X129540000Y-26573589D01*
X129540006Y-26573589D01*
X129928167Y-26553247D01*
X129928171Y-26553246D01*
X129928176Y-26553246D01*
X130312099Y-26492438D01*
X130687562Y-26391833D01*
X130687565Y-26391831D01*
X130687568Y-26391831D01*
X131050443Y-26252536D01*
X131050444Y-26252535D01*
X131050453Y-26252532D01*
X131396795Y-26076062D01*
X131722793Y-25864357D01*
X131722802Y-25864350D01*
X132024862Y-25619746D01*
X132024867Y-25619740D01*
X132024876Y-25619734D01*
X132299734Y-25344876D01*
X132299740Y-25344867D01*
X132299746Y-25344862D01*
X132544350Y-25042802D01*
X132544351Y-25042799D01*
X132544357Y-25042793D01*
X132756062Y-24716795D01*
X132932532Y-24370453D01*
X133071833Y-24007562D01*
X133172438Y-23632099D01*
X133233246Y-23248176D01*
X133233246Y-23248171D01*
X133233247Y-23248167D01*
X133253589Y-22860006D01*
X133253589Y-22859993D01*
X133233247Y-22471832D01*
X133172438Y-22087902D01*
X133071831Y-21712431D01*
X132932536Y-21349556D01*
X132932532Y-21349548D01*
X132932532Y-21349547D01*
X132756062Y-21003206D01*
X132544357Y-20677207D01*
X132544354Y-20677203D01*
X132544352Y-20677200D01*
X132299746Y-20375137D01*
X132299732Y-20375122D01*
X132024877Y-20100267D01*
X132024862Y-20100253D01*
X131722802Y-19855649D01*
X131722785Y-19855637D01*
X131396795Y-19643938D01*
X131050451Y-19467467D01*
X131050443Y-19467463D01*
X130687568Y-19328168D01*
X130312097Y-19227561D01*
X129928167Y-19166752D01*
X129540006Y-19146411D01*
X129539994Y-19146411D01*
X129151832Y-19166752D01*
X128767902Y-19227561D01*
X128392431Y-19328168D01*
X128029556Y-19467463D01*
X128029548Y-19467467D01*
X127683205Y-19643938D01*
X127357203Y-19855645D01*
X127357200Y-19855647D01*
X127055137Y-20100253D01*
X127055122Y-20100267D01*
X126780267Y-20375122D01*
X126780253Y-20375137D01*
X126535647Y-20677200D01*
X126535645Y-20677203D01*
X126323938Y-21003205D01*
X126147467Y-21349548D01*
X126147463Y-21349556D01*
X126008168Y-21712431D01*
X125907561Y-22087902D01*
X125846752Y-22471832D01*
X125826411Y-22859993D01*
X125826411Y-22860006D01*
X54513589Y-22860006D01*
X54513589Y-22859993D01*
X54493247Y-22471832D01*
X54432438Y-22087902D01*
X54331831Y-21712431D01*
X54192536Y-21349556D01*
X54192532Y-21349548D01*
X54192532Y-21349547D01*
X54016062Y-21003206D01*
X53804357Y-20677207D01*
X53804354Y-20677203D01*
X53804352Y-20677200D01*
X53559746Y-20375137D01*
X53559732Y-20375122D01*
X53284877Y-20100267D01*
X53284862Y-20100253D01*
X52982802Y-19855649D01*
X52982785Y-19855637D01*
X52656795Y-19643938D01*
X52310451Y-19467467D01*
X52310443Y-19467463D01*
X51947568Y-19328168D01*
X51572097Y-19227561D01*
X51188167Y-19166752D01*
X50800006Y-19146411D01*
X50799994Y-19146411D01*
X50411832Y-19166752D01*
X50027902Y-19227561D01*
X49652431Y-19328168D01*
X49289556Y-19467463D01*
X49289548Y-19467467D01*
X48943205Y-19643938D01*
X48617203Y-19855645D01*
X48617200Y-19855647D01*
X48315137Y-20100253D01*
X48315122Y-20100267D01*
X48040267Y-20375122D01*
X48040253Y-20375137D01*
X47795647Y-20677200D01*
X47795645Y-20677203D01*
X47583938Y-21003205D01*
X47407467Y-21349548D01*
X47407463Y-21349556D01*
X47268168Y-21712431D01*
X47167561Y-22087902D01*
X47106752Y-22471832D01*
X47086411Y-22859993D01*
X47086411Y-22860006D01*
X45745500Y-22860006D01*
X45745500Y-17931500D01*
X45765502Y-17863379D01*
X45819158Y-17816886D01*
X45871500Y-17805500D01*
X134468500Y-17805500D01*
X134536621Y-17825502D01*
G37*
%TD.AperFunction*%
%TD*%
M02*
