%TF.GenerationSoftware,KiCad,Pcbnew,(6.0.5)*%
%TF.CreationDate,2022-07-10T15:10:32+02:00*%
%TF.ProjectId,pmod_bs3_baseboard,706d6f64-5f62-4733-935f-62617365626f,rev?*%
%TF.SameCoordinates,Original*%
%TF.FileFunction,Copper,L2,Bot*%
%TF.FilePolarity,Positive*%
%FSLAX46Y46*%
G04 Gerber Fmt 4.6, Leading zero omitted, Abs format (unit mm)*
G04 Created by KiCad (PCBNEW (6.0.5)) date 2022-07-10 15:10:32*
%MOMM*%
%LPD*%
G01*
G04 APERTURE LIST*
%TA.AperFunction,ComponentPad*%
%ADD10R,1.700000X1.700000*%
%TD*%
%TA.AperFunction,ComponentPad*%
%ADD11O,1.700000X1.700000*%
%TD*%
%TA.AperFunction,ComponentPad*%
%ADD12C,0.800000*%
%TD*%
%TA.AperFunction,ComponentPad*%
%ADD13C,6.400000*%
%TD*%
%TA.AperFunction,ComponentPad*%
%ADD14C,1.524000*%
%TD*%
%TA.AperFunction,ViaPad*%
%ADD15C,0.800000*%
%TD*%
%TA.AperFunction,Conductor*%
%ADD16C,0.250000*%
%TD*%
G04 APERTURE END LIST*
D10*
%TO.P,PMOD2,1,Pin_1*%
%TO.N,3V3*%
X83820000Y-30480000D03*
D11*
%TO.P,PMOD2,2,Pin_2*%
X83820000Y-27940000D03*
%TO.P,PMOD2,3,Pin_3*%
%TO.N,GND*%
X81280000Y-30480000D03*
%TO.P,PMOD2,4,Pin_4*%
X81280000Y-27940000D03*
%TO.P,PMOD2,5,Pin_5*%
%TO.N,A5*%
X78740000Y-30480000D03*
%TO.P,PMOD2,6,Pin_6*%
%TO.N,B0*%
X78740000Y-27940000D03*
%TO.P,PMOD2,7,Pin_7*%
%TO.N,A6*%
X76200000Y-30480000D03*
%TO.P,PMOD2,8,Pin_8*%
%TO.N,B1*%
X76200000Y-27940000D03*
%TO.P,PMOD2,9,Pin_9*%
%TO.N,A7*%
X73660000Y-30480000D03*
%TO.P,PMOD2,10,Pin_10*%
%TO.N,B10*%
X73660000Y-27940000D03*
%TO.P,PMOD2,11,Pin_11*%
%TO.N,A4*%
X71120000Y-30480000D03*
%TO.P,PMOD2,12,Pin_12*%
%TO.N,B11*%
X71120000Y-27940000D03*
%TD*%
D10*
%TO.P,PMOD3,1,Pin_1*%
%TO.N,3V3*%
X106680000Y-30480000D03*
D11*
%TO.P,PMOD3,2,Pin_2*%
X106680000Y-27940000D03*
%TO.P,PMOD3,3,Pin_3*%
%TO.N,GND*%
X104140000Y-30480000D03*
%TO.P,PMOD3,4,Pin_4*%
X104140000Y-27940000D03*
%TO.P,PMOD3,5,Pin_5*%
%TO.N,A1*%
X101600000Y-30480000D03*
%TO.P,PMOD3,6,Pin_6*%
%TO.N,B9*%
X101600000Y-27940000D03*
%TO.P,PMOD3,7,Pin_7*%
%TO.N,A3*%
X99060000Y-30480000D03*
%TO.P,PMOD3,8,Pin_8*%
%TO.N,B8*%
X99060000Y-27940000D03*
%TO.P,PMOD3,9,Pin_9*%
%TO.N,A2*%
X96520000Y-30480000D03*
%TO.P,PMOD3,10,Pin_10*%
%TO.N,B12*%
X96520000Y-27940000D03*
%TO.P,PMOD3,11,Pin_11*%
%TO.N,A0*%
X93980000Y-30480000D03*
%TO.P,PMOD3,12,Pin_12*%
%TO.N,PMOD_UART_GPIO1_INT*%
X93980000Y-27940000D03*
%TD*%
D10*
%TO.P,PMOD1,1,Pin_1*%
%TO.N,3V3*%
X129540000Y-30480000D03*
D11*
%TO.P,PMOD1,2,Pin_2*%
X129540000Y-27940000D03*
%TO.P,PMOD1,3,Pin_3*%
%TO.N,GND*%
X127000000Y-30480000D03*
%TO.P,PMOD1,4,Pin_4*%
X127000000Y-27940000D03*
%TO.P,PMOD1,5,Pin_5*%
%TO.N,B7*%
X124460000Y-30480000D03*
%TO.P,PMOD1,6,Pin_6*%
%TO.N,A8*%
X124460000Y-27940000D03*
%TO.P,PMOD1,7,Pin_7*%
%TO.N,B6*%
X121920000Y-30480000D03*
%TO.P,PMOD1,8,Pin_8*%
%TO.N,B15*%
X121920000Y-27940000D03*
%TO.P,PMOD1,9,Pin_9*%
%TO.N,B5*%
X119380000Y-30480000D03*
%TO.P,PMOD1,10,Pin_10*%
%TO.N,B14*%
X119380000Y-27940000D03*
%TO.P,PMOD1,11,Pin_11*%
%TO.N,B4*%
X116840000Y-30480000D03*
%TO.P,PMOD1,12,Pin_12*%
%TO.N,B13*%
X116840000Y-27940000D03*
%TD*%
D12*
%TO.P,H1,1*%
%TO.N,N/C*%
X58420000Y-20460000D03*
X56722944Y-21162944D03*
X56722944Y-24557056D03*
X60820000Y-22860000D03*
D13*
X58420000Y-22860000D03*
D12*
X60117056Y-24557056D03*
X58420000Y-25260000D03*
X60117056Y-21162944D03*
X56020000Y-22860000D03*
%TD*%
%TO.P,H2,1*%
%TO.N,N/C*%
X140267056Y-21162944D03*
X136170000Y-22860000D03*
X136872944Y-21162944D03*
X138570000Y-20460000D03*
X140970000Y-22860000D03*
D13*
X138570000Y-22860000D03*
D12*
X138570000Y-25260000D03*
X140267056Y-24557056D03*
X136872944Y-24557056D03*
%TD*%
D13*
%TO.P,H3,1*%
%TO.N,N/C*%
X58560000Y-81280000D03*
D12*
X56160000Y-81280000D03*
X56862944Y-82977056D03*
X60257056Y-79582944D03*
X58560000Y-83680000D03*
X60960000Y-81280000D03*
X60257056Y-82977056D03*
X58560000Y-78880000D03*
X56862944Y-79582944D03*
%TD*%
%TO.P,H4,1*%
%TO.N,N/C*%
X138570000Y-78880000D03*
X136872944Y-79582944D03*
X136170000Y-81280000D03*
D13*
X138570000Y-81280000D03*
D12*
X140267056Y-82977056D03*
X140970000Y-81280000D03*
X138570000Y-83680000D03*
X136872944Y-82977056D03*
X140267056Y-79582944D03*
%TD*%
D10*
%TO.P,J5,1,Pin_1*%
%TO.N,GND*%
X124460000Y-81280000D03*
D11*
%TO.P,J5,2,Pin_2*%
%TO.N,A9*%
X127000000Y-81280000D03*
%TO.P,J5,3,Pin_3*%
%TO.N,A10*%
X129540000Y-81280000D03*
%TO.P,J5,4,Pin_4*%
%TO.N,3V3*%
X132080000Y-81280000D03*
%TD*%
D14*
%TO.P,U1,1,GND*%
%TO.N,GND*%
X66040000Y-81280000D03*
%TO.P,U1,2,GND*%
X68580000Y-81280000D03*
%TO.P,U1,3,VDD*%
%TO.N,3V3*%
X71120000Y-81280000D03*
%TO.P,U1,4,VDD*%
X73660000Y-81280000D03*
%TO.P,U1,5,PB15*%
%TO.N,B15*%
X76200000Y-81280000D03*
%TO.P,U1,6,PA8*%
%TO.N,A8*%
X78740000Y-81280000D03*
%TO.P,U1,7,PA9*%
%TO.N,A9*%
X81280000Y-81280000D03*
%TO.P,U1,8,PA10*%
%TO.N,A10*%
X83820000Y-81280000D03*
%TO.P,U1,9,PA11*%
%TO.N,A11*%
X86360000Y-81280000D03*
%TO.P,U1,10,PA12*%
%TO.N,A12*%
X88900000Y-81280000D03*
%TO.P,U1,11,PA13*%
%TO.N,unconnected-(U1-Pad11)*%
X91440000Y-81280000D03*
%TO.P,U1,12,PA14*%
%TO.N,unconnected-(U1-Pad12)*%
X93980000Y-81280000D03*
%TO.P,U1,13,PA15*%
%TO.N,A15*%
X96520000Y-81280000D03*
%TO.P,U1,14,PB3*%
%TO.N,B3*%
X99060000Y-81280000D03*
%TO.P,U1,15,PB4*%
%TO.N,B4*%
X101600000Y-81280000D03*
%TO.P,U1,16,PB5*%
%TO.N,B5*%
X104140000Y-81280000D03*
%TO.P,U1,17,PB6*%
%TO.N,B6*%
X106680000Y-81280000D03*
%TO.P,U1,18,PB7*%
%TO.N,B7*%
X109220000Y-81280000D03*
%TO.P,U1,19,PB8*%
%TO.N,B8*%
X111760000Y-81280000D03*
%TO.P,U1,20,PB9*%
%TO.N,B9*%
X114300000Y-81280000D03*
%TO.P,U1,21,PA0*%
%TO.N,A0*%
X114300000Y-53340000D03*
%TO.P,U1,22,PA1*%
%TO.N,A1*%
X111760000Y-53340000D03*
%TO.P,U1,23,PA2*%
%TO.N,A2*%
X109220000Y-53340000D03*
%TO.P,U1,24,PA3*%
%TO.N,A3*%
X106680000Y-53340000D03*
%TO.P,U1,25,PA4*%
%TO.N,A4*%
X104140000Y-53340000D03*
%TO.P,U1,26,PA5*%
%TO.N,A5*%
X101600000Y-53340000D03*
%TO.P,U1,27,PA6*%
%TO.N,A6*%
X99060000Y-53340000D03*
%TO.P,U1,28,PA7*%
%TO.N,A7*%
X96520000Y-53340000D03*
%TO.P,U1,29,PB0*%
%TO.N,B0*%
X93980000Y-53340000D03*
%TO.P,U1,30,PB1*%
%TO.N,B1*%
X91440000Y-53340000D03*
%TO.P,U1,31,PB2*%
%TO.N,PMOD_UART_GPIO1_INT*%
X88900000Y-53340000D03*
%TO.P,U1,32,PB10*%
%TO.N,B10*%
X86360000Y-53340000D03*
%TO.P,U1,33,PB11*%
%TO.N,B11*%
X83820000Y-53340000D03*
%TO.P,U1,34,PB12*%
%TO.N,B12*%
X81280000Y-53340000D03*
%TO.P,U1,35,PB13*%
%TO.N,B13*%
X78740000Y-53340000D03*
%TO.P,U1,36,PB15*%
%TO.N,B14*%
X76200000Y-53340000D03*
%TO.P,U1,37,VDD*%
%TO.N,3V3*%
X73660000Y-53340000D03*
%TO.P,U1,38,VDD*%
X71120000Y-53340000D03*
%TO.P,U1,39,GND*%
%TO.N,GND*%
X68580000Y-53340000D03*
%TO.P,U1,40,GND*%
X66040000Y-53340000D03*
%TD*%
D15*
%TO.N,B12*%
X97790000Y-36830000D03*
X81280000Y-36830000D03*
%TO.N,B13*%
X78740000Y-57150000D03*
X118110000Y-57150000D03*
%TO.N,B14*%
X76200000Y-55880000D03*
X120650000Y-55880000D03*
%TO.N,B15*%
X76200000Y-71120000D03*
X123190000Y-71120000D03*
%TO.N,A8*%
X125730000Y-73660000D03*
X78740000Y-73660000D03*
%TO.N,B4*%
X116840000Y-66040000D03*
X101600000Y-66040000D03*
%TO.N,B5*%
X104140000Y-64770000D03*
X119380000Y-64770000D03*
%TO.N,B6*%
X106680000Y-69850000D03*
X121920000Y-69850000D03*
%TO.N,B7*%
X124460000Y-72390000D03*
X109220000Y-72390000D03*
%TO.N,B8*%
X100330000Y-67310000D03*
X111760000Y-67310000D03*
%TO.N,B9*%
X114300000Y-68580000D03*
X102870000Y-68580000D03*
%TO.N,GND*%
X124460000Y-85090000D03*
%TO.N,A0*%
X114300000Y-39370000D03*
X93980000Y-39370000D03*
%TO.N,A1*%
X101600000Y-35560000D03*
X111760000Y-35560000D03*
%TO.N,A2*%
X96520000Y-38100000D03*
X109220000Y-38100000D03*
%TO.N,A3*%
X99060000Y-36830000D03*
X106680000Y-36830000D03*
%TO.N,A4*%
X104140000Y-49530000D03*
X71120000Y-49530000D03*
%TO.N,A5*%
X101600000Y-41910000D03*
X78740000Y-41910000D03*
%TO.N,A6*%
X99060000Y-44450000D03*
X76200000Y-44450000D03*
%TO.N,A7*%
X96520000Y-46990000D03*
X73660000Y-46990000D03*
%TO.N,B0*%
X93980000Y-40640000D03*
X80010000Y-40640000D03*
%TO.N,B1*%
X77470000Y-43180000D03*
X91440000Y-43180000D03*
%TO.N,B10*%
X74930000Y-45720000D03*
X86360000Y-45720000D03*
%TO.N,B11*%
X83820000Y-48260000D03*
X72390000Y-48260000D03*
%TO.N,PMOD_UART_GPIO1_INT*%
X95250000Y-38100000D03*
X88900000Y-38100000D03*
%TD*%
D16*
%TO.N,B12*%
X97790000Y-36830000D02*
X81280000Y-36830000D01*
%TO.N,B13*%
X118110000Y-57150000D02*
X78740000Y-57150000D01*
%TO.N,B14*%
X120650000Y-55880000D02*
X76200000Y-55880000D01*
%TO.N,B15*%
X123190000Y-71120000D02*
X76200000Y-71120000D01*
%TO.N,A8*%
X125730000Y-73660000D02*
X78740000Y-73660000D01*
%TO.N,A9*%
X125825489Y-80105489D02*
X82454511Y-80105489D01*
X82454511Y-80105489D02*
X81280000Y-81280000D01*
X127000000Y-81280000D02*
X125825489Y-80105489D01*
%TO.N,A10*%
X83820000Y-81280000D02*
X85090000Y-82550000D01*
X128270000Y-82550000D02*
X129540000Y-81280000D01*
X85090000Y-82550000D02*
X128270000Y-82550000D01*
%TO.N,B4*%
X116840000Y-66040000D02*
X101600000Y-66040000D01*
%TO.N,B5*%
X119380000Y-64770000D02*
X104140000Y-64770000D01*
%TO.N,B6*%
X121920000Y-69850000D02*
X106680000Y-69850000D01*
%TO.N,B7*%
X124460000Y-72390000D02*
X109220000Y-72390000D01*
%TO.N,B8*%
X100330000Y-67310000D02*
X111760000Y-67310000D01*
%TO.N,B9*%
X102870000Y-68580000D02*
X114300000Y-68580000D01*
%TO.N,A0*%
X93980000Y-39370000D02*
X114300000Y-39370000D01*
%TO.N,A1*%
X101600000Y-35560000D02*
X111760000Y-35560000D01*
%TO.N,A2*%
X96520000Y-38100000D02*
X109220000Y-38100000D01*
%TO.N,A3*%
X99060000Y-36830000D02*
X106680000Y-36830000D01*
%TO.N,A4*%
X71120000Y-49530000D02*
X104140000Y-49530000D01*
%TO.N,A5*%
X78740000Y-41910000D02*
X101600000Y-41910000D01*
%TO.N,A6*%
X76200000Y-44450000D02*
X99060000Y-44450000D01*
%TO.N,A7*%
X73660000Y-46990000D02*
X96520000Y-46990000D01*
%TO.N,B0*%
X80010000Y-40640000D02*
X93980000Y-40640000D01*
%TO.N,B1*%
X77470000Y-43180000D02*
X91440000Y-43180000D01*
%TO.N,B10*%
X74930000Y-45720000D02*
X86360000Y-45720000D01*
%TO.N,B11*%
X72390000Y-48260000D02*
X83820000Y-48260000D01*
%TO.N,PMOD_UART_GPIO1_INT*%
X95250000Y-38100000D02*
X88900000Y-38100000D01*
%TD*%
%TA.AperFunction,Conductor*%
%TO.N,GND*%
G36*
X142943621Y-18308502D02*
G01*
X142990114Y-18362158D01*
X143001500Y-18414500D01*
X143001500Y-85725500D01*
X142981498Y-85793621D01*
X142927842Y-85840114D01*
X142875500Y-85851500D01*
X53974500Y-85851500D01*
X53906379Y-85831498D01*
X53859886Y-85777842D01*
X53848500Y-85725500D01*
X53848500Y-81280000D01*
X54846411Y-81280000D01*
X54866754Y-81668176D01*
X54867267Y-81671416D01*
X54867268Y-81671424D01*
X54888747Y-81807035D01*
X54927562Y-82052099D01*
X55028167Y-82427562D01*
X55029352Y-82430650D01*
X55029353Y-82430652D01*
X55058540Y-82506686D01*
X55167468Y-82790453D01*
X55168966Y-82793393D01*
X55341487Y-83131983D01*
X55343938Y-83136794D01*
X55345734Y-83139560D01*
X55345736Y-83139563D01*
X55373941Y-83182995D01*
X55555643Y-83462793D01*
X55800266Y-83764876D01*
X56075124Y-84039734D01*
X56377207Y-84284357D01*
X56703205Y-84496062D01*
X56706139Y-84497557D01*
X56706146Y-84497561D01*
X57046607Y-84671034D01*
X57049547Y-84672532D01*
X57412438Y-84811833D01*
X57787901Y-84912438D01*
X57991793Y-84944732D01*
X58168576Y-84972732D01*
X58168584Y-84972733D01*
X58171824Y-84973246D01*
X58560000Y-84993589D01*
X58948176Y-84973246D01*
X58951416Y-84972733D01*
X58951424Y-84972732D01*
X59128207Y-84944732D01*
X59332099Y-84912438D01*
X59707562Y-84811833D01*
X60070453Y-84672532D01*
X60073393Y-84671034D01*
X60413854Y-84497561D01*
X60413861Y-84497557D01*
X60416795Y-84496062D01*
X60742793Y-84284357D01*
X61044876Y-84039734D01*
X61319734Y-83764876D01*
X61564357Y-83462793D01*
X61746059Y-83182995D01*
X61774264Y-83139563D01*
X61774266Y-83139560D01*
X61776062Y-83136794D01*
X61778514Y-83131983D01*
X61951034Y-82793393D01*
X61952532Y-82790453D01*
X62061460Y-82506686D01*
X62090647Y-82430652D01*
X62090648Y-82430650D01*
X62091833Y-82427562D01*
X62115623Y-82338777D01*
X65345777Y-82338777D01*
X65355074Y-82350793D01*
X65398069Y-82380898D01*
X65407555Y-82386376D01*
X65598993Y-82475645D01*
X65609285Y-82479391D01*
X65813309Y-82534059D01*
X65824104Y-82535962D01*
X66034525Y-82554372D01*
X66045475Y-82554372D01*
X66255896Y-82535962D01*
X66266691Y-82534059D01*
X66470715Y-82479391D01*
X66481007Y-82475645D01*
X66672445Y-82386376D01*
X66681931Y-82380898D01*
X66725764Y-82350207D01*
X66734139Y-82339729D01*
X66733639Y-82338777D01*
X67885777Y-82338777D01*
X67895074Y-82350793D01*
X67938069Y-82380898D01*
X67947555Y-82386376D01*
X68138993Y-82475645D01*
X68149285Y-82479391D01*
X68353309Y-82534059D01*
X68364104Y-82535962D01*
X68574525Y-82554372D01*
X68585475Y-82554372D01*
X68795896Y-82535962D01*
X68806691Y-82534059D01*
X69010715Y-82479391D01*
X69021007Y-82475645D01*
X69212445Y-82386376D01*
X69221931Y-82380898D01*
X69265764Y-82350207D01*
X69274139Y-82339729D01*
X69267071Y-82326281D01*
X68592812Y-81652022D01*
X68578868Y-81644408D01*
X68577035Y-81644539D01*
X68570420Y-81648790D01*
X67892207Y-82327003D01*
X67885777Y-82338777D01*
X66733639Y-82338777D01*
X66727071Y-82326281D01*
X66052812Y-81652022D01*
X66038868Y-81644408D01*
X66037035Y-81644539D01*
X66030420Y-81648790D01*
X65352207Y-82327003D01*
X65345777Y-82338777D01*
X62115623Y-82338777D01*
X62192438Y-82052099D01*
X62231253Y-81807035D01*
X62252732Y-81671424D01*
X62252733Y-81671416D01*
X62253246Y-81668176D01*
X62273302Y-81285475D01*
X64765628Y-81285475D01*
X64784038Y-81495896D01*
X64785941Y-81506691D01*
X64840609Y-81710715D01*
X64844355Y-81721007D01*
X64933623Y-81912441D01*
X64939103Y-81921932D01*
X64969794Y-81965765D01*
X64980271Y-81974140D01*
X64993718Y-81967072D01*
X65667978Y-81292812D01*
X65674356Y-81281132D01*
X66404408Y-81281132D01*
X66404539Y-81282965D01*
X66408790Y-81289580D01*
X67087003Y-81967793D01*
X67098777Y-81974223D01*
X67110793Y-81964926D01*
X67140897Y-81921932D01*
X67146377Y-81912441D01*
X67195805Y-81806443D01*
X67242722Y-81753158D01*
X67311000Y-81733697D01*
X67378960Y-81754239D01*
X67424195Y-81806443D01*
X67473623Y-81912441D01*
X67479103Y-81921932D01*
X67509794Y-81965765D01*
X67520271Y-81974140D01*
X67533718Y-81967072D01*
X68207978Y-81292812D01*
X68214356Y-81281132D01*
X68944408Y-81281132D01*
X68944539Y-81282965D01*
X68948790Y-81289580D01*
X69627003Y-81967793D01*
X69638777Y-81974223D01*
X69650793Y-81964926D01*
X69680897Y-81921932D01*
X69686377Y-81912441D01*
X69735529Y-81807035D01*
X69782447Y-81753750D01*
X69850724Y-81734289D01*
X69918684Y-81754831D01*
X69963919Y-81807035D01*
X70013186Y-81912689D01*
X70013189Y-81912694D01*
X70015512Y-81917676D01*
X70018668Y-81922183D01*
X70018669Y-81922185D01*
X70111869Y-82055288D01*
X70143023Y-82099781D01*
X70300219Y-82256977D01*
X70304727Y-82260134D01*
X70304730Y-82260136D01*
X70380495Y-82313187D01*
X70482323Y-82384488D01*
X70487305Y-82386811D01*
X70487310Y-82386814D01*
X70677810Y-82475645D01*
X70683804Y-82478440D01*
X70689112Y-82479862D01*
X70689114Y-82479863D01*
X70754949Y-82497503D01*
X70898537Y-82535978D01*
X71120000Y-82555353D01*
X71341463Y-82535978D01*
X71485051Y-82497503D01*
X71550886Y-82479863D01*
X71550888Y-82479862D01*
X71556196Y-82478440D01*
X71562190Y-82475645D01*
X71752690Y-82386814D01*
X71752695Y-82386811D01*
X71757677Y-82384488D01*
X71859505Y-82313187D01*
X71935270Y-82260136D01*
X71935273Y-82260134D01*
X71939781Y-82256977D01*
X72096977Y-82099781D01*
X72128132Y-82055288D01*
X72221331Y-81922185D01*
X72221332Y-81922183D01*
X72224488Y-81917676D01*
X72226811Y-81912694D01*
X72226814Y-81912689D01*
X72275805Y-81807627D01*
X72322723Y-81754342D01*
X72391000Y-81734881D01*
X72458960Y-81755423D01*
X72504195Y-81807627D01*
X72553186Y-81912689D01*
X72553189Y-81912694D01*
X72555512Y-81917676D01*
X72558668Y-81922183D01*
X72558669Y-81922185D01*
X72651869Y-82055288D01*
X72683023Y-82099781D01*
X72840219Y-82256977D01*
X72844727Y-82260134D01*
X72844730Y-82260136D01*
X72920495Y-82313187D01*
X73022323Y-82384488D01*
X73027305Y-82386811D01*
X73027310Y-82386814D01*
X73217810Y-82475645D01*
X73223804Y-82478440D01*
X73229112Y-82479862D01*
X73229114Y-82479863D01*
X73294949Y-82497503D01*
X73438537Y-82535978D01*
X73660000Y-82555353D01*
X73881463Y-82535978D01*
X74025051Y-82497503D01*
X74090886Y-82479863D01*
X74090888Y-82479862D01*
X74096196Y-82478440D01*
X74102190Y-82475645D01*
X74292690Y-82386814D01*
X74292695Y-82386811D01*
X74297677Y-82384488D01*
X74399505Y-82313187D01*
X74475270Y-82260136D01*
X74475273Y-82260134D01*
X74479781Y-82256977D01*
X74636977Y-82099781D01*
X74668132Y-82055288D01*
X74761331Y-81922185D01*
X74761332Y-81922183D01*
X74764488Y-81917676D01*
X74766811Y-81912694D01*
X74766814Y-81912689D01*
X74815805Y-81807627D01*
X74862723Y-81754342D01*
X74931000Y-81734881D01*
X74998960Y-81755423D01*
X75044195Y-81807627D01*
X75093186Y-81912689D01*
X75093189Y-81912694D01*
X75095512Y-81917676D01*
X75098668Y-81922183D01*
X75098669Y-81922185D01*
X75191869Y-82055288D01*
X75223023Y-82099781D01*
X75380219Y-82256977D01*
X75384727Y-82260134D01*
X75384730Y-82260136D01*
X75460495Y-82313187D01*
X75562323Y-82384488D01*
X75567305Y-82386811D01*
X75567310Y-82386814D01*
X75757810Y-82475645D01*
X75763804Y-82478440D01*
X75769112Y-82479862D01*
X75769114Y-82479863D01*
X75834949Y-82497503D01*
X75978537Y-82535978D01*
X76200000Y-82555353D01*
X76421463Y-82535978D01*
X76565051Y-82497503D01*
X76630886Y-82479863D01*
X76630888Y-82479862D01*
X76636196Y-82478440D01*
X76642190Y-82475645D01*
X76832690Y-82386814D01*
X76832695Y-82386811D01*
X76837677Y-82384488D01*
X76939505Y-82313187D01*
X77015270Y-82260136D01*
X77015273Y-82260134D01*
X77019781Y-82256977D01*
X77176977Y-82099781D01*
X77208132Y-82055288D01*
X77301331Y-81922185D01*
X77301332Y-81922183D01*
X77304488Y-81917676D01*
X77306811Y-81912694D01*
X77306814Y-81912689D01*
X77355805Y-81807627D01*
X77402723Y-81754342D01*
X77471000Y-81734881D01*
X77538960Y-81755423D01*
X77584195Y-81807627D01*
X77633186Y-81912689D01*
X77633189Y-81912694D01*
X77635512Y-81917676D01*
X77638668Y-81922183D01*
X77638669Y-81922185D01*
X77731869Y-82055288D01*
X77763023Y-82099781D01*
X77920219Y-82256977D01*
X77924727Y-82260134D01*
X77924730Y-82260136D01*
X78000495Y-82313187D01*
X78102323Y-82384488D01*
X78107305Y-82386811D01*
X78107310Y-82386814D01*
X78297810Y-82475645D01*
X78303804Y-82478440D01*
X78309112Y-82479862D01*
X78309114Y-82479863D01*
X78374949Y-82497503D01*
X78518537Y-82535978D01*
X78740000Y-82555353D01*
X78961463Y-82535978D01*
X79105051Y-82497503D01*
X79170886Y-82479863D01*
X79170888Y-82479862D01*
X79176196Y-82478440D01*
X79182190Y-82475645D01*
X79372690Y-82386814D01*
X79372695Y-82386811D01*
X79377677Y-82384488D01*
X79479505Y-82313187D01*
X79555270Y-82260136D01*
X79555273Y-82260134D01*
X79559781Y-82256977D01*
X79716977Y-82099781D01*
X79748132Y-82055288D01*
X79841331Y-81922185D01*
X79841332Y-81922183D01*
X79844488Y-81917676D01*
X79846811Y-81912694D01*
X79846814Y-81912689D01*
X79895805Y-81807627D01*
X79942723Y-81754342D01*
X80011000Y-81734881D01*
X80078960Y-81755423D01*
X80124195Y-81807627D01*
X80173186Y-81912689D01*
X80173189Y-81912694D01*
X80175512Y-81917676D01*
X80178668Y-81922183D01*
X80178669Y-81922185D01*
X80271869Y-82055288D01*
X80303023Y-82099781D01*
X80460219Y-82256977D01*
X80464727Y-82260134D01*
X80464730Y-82260136D01*
X80540495Y-82313187D01*
X80642323Y-82384488D01*
X80647305Y-82386811D01*
X80647310Y-82386814D01*
X80837810Y-82475645D01*
X80843804Y-82478440D01*
X80849112Y-82479862D01*
X80849114Y-82479863D01*
X80914949Y-82497503D01*
X81058537Y-82535978D01*
X81280000Y-82555353D01*
X81501463Y-82535978D01*
X81645051Y-82497503D01*
X81710886Y-82479863D01*
X81710888Y-82479862D01*
X81716196Y-82478440D01*
X81722190Y-82475645D01*
X81912690Y-82386814D01*
X81912695Y-82386811D01*
X81917677Y-82384488D01*
X82019505Y-82313187D01*
X82095270Y-82260136D01*
X82095273Y-82260134D01*
X82099781Y-82256977D01*
X82256977Y-82099781D01*
X82288132Y-82055288D01*
X82381331Y-81922185D01*
X82381332Y-81922183D01*
X82384488Y-81917676D01*
X82386811Y-81912694D01*
X82386814Y-81912689D01*
X82435805Y-81807627D01*
X82482723Y-81754342D01*
X82551000Y-81734881D01*
X82618960Y-81755423D01*
X82664195Y-81807627D01*
X82713186Y-81912689D01*
X82713189Y-81912694D01*
X82715512Y-81917676D01*
X82718668Y-81922183D01*
X82718669Y-81922185D01*
X82811869Y-82055288D01*
X82843023Y-82099781D01*
X83000219Y-82256977D01*
X83004727Y-82260134D01*
X83004730Y-82260136D01*
X83080495Y-82313187D01*
X83182323Y-82384488D01*
X83187305Y-82386811D01*
X83187310Y-82386814D01*
X83377810Y-82475645D01*
X83383804Y-82478440D01*
X83389112Y-82479862D01*
X83389114Y-82479863D01*
X83454949Y-82497503D01*
X83598537Y-82535978D01*
X83820000Y-82555353D01*
X84041463Y-82535978D01*
X84057642Y-82531643D01*
X84080516Y-82525514D01*
X84151493Y-82527204D01*
X84202222Y-82558126D01*
X84586343Y-82942247D01*
X84593887Y-82950537D01*
X84598000Y-82957018D01*
X84603777Y-82962443D01*
X84647667Y-83003658D01*
X84650509Y-83006413D01*
X84670230Y-83026134D01*
X84673425Y-83028612D01*
X84682447Y-83036318D01*
X84714679Y-83066586D01*
X84721628Y-83070406D01*
X84732432Y-83076346D01*
X84748956Y-83087199D01*
X84764959Y-83099613D01*
X84805543Y-83117176D01*
X84816173Y-83122383D01*
X84854940Y-83143695D01*
X84862617Y-83145666D01*
X84862622Y-83145668D01*
X84874558Y-83148732D01*
X84893266Y-83155137D01*
X84911855Y-83163181D01*
X84919683Y-83164421D01*
X84919690Y-83164423D01*
X84955524Y-83170099D01*
X84967144Y-83172505D01*
X84998959Y-83180673D01*
X85009970Y-83183500D01*
X85030224Y-83183500D01*
X85049934Y-83185051D01*
X85069943Y-83188220D01*
X85077835Y-83187474D01*
X85096580Y-83185702D01*
X85113962Y-83184059D01*
X85125819Y-83183500D01*
X128191233Y-83183500D01*
X128202416Y-83184027D01*
X128209909Y-83185702D01*
X128217835Y-83185453D01*
X128217836Y-83185453D01*
X128277986Y-83183562D01*
X128281945Y-83183500D01*
X128309856Y-83183500D01*
X128313791Y-83183003D01*
X128313856Y-83182995D01*
X128325693Y-83182062D01*
X128357951Y-83181048D01*
X128361970Y-83180922D01*
X128369889Y-83180673D01*
X128389343Y-83175021D01*
X128408700Y-83171013D01*
X128420930Y-83169468D01*
X128420931Y-83169468D01*
X128428797Y-83168474D01*
X128436168Y-83165555D01*
X128436170Y-83165555D01*
X128469912Y-83152196D01*
X128481142Y-83148351D01*
X128515983Y-83138229D01*
X128515984Y-83138229D01*
X128523593Y-83136018D01*
X128530412Y-83131985D01*
X128530417Y-83131983D01*
X128541028Y-83125707D01*
X128558776Y-83117012D01*
X128577617Y-83109552D01*
X128597987Y-83094753D01*
X128613387Y-83083564D01*
X128623307Y-83077048D01*
X128654535Y-83058580D01*
X128654538Y-83058578D01*
X128661362Y-83054542D01*
X128675683Y-83040221D01*
X128690717Y-83027380D01*
X128692432Y-83026134D01*
X128707107Y-83015472D01*
X128735298Y-82981395D01*
X128743288Y-82972616D01*
X129084549Y-82631355D01*
X129146861Y-82597329D01*
X129198762Y-82596979D01*
X129378597Y-82633567D01*
X129383772Y-82633757D01*
X129383774Y-82633757D01*
X129596673Y-82641564D01*
X129596677Y-82641564D01*
X129601837Y-82641753D01*
X129606957Y-82641097D01*
X129606959Y-82641097D01*
X129818288Y-82614025D01*
X129818289Y-82614025D01*
X129823416Y-82613368D01*
X129828366Y-82611883D01*
X130032429Y-82550661D01*
X130032434Y-82550659D01*
X130037384Y-82549174D01*
X130237994Y-82450896D01*
X130419860Y-82321173D01*
X130578096Y-82163489D01*
X130708453Y-81982077D01*
X130709776Y-81983028D01*
X130756645Y-81939857D01*
X130826580Y-81927625D01*
X130892026Y-81955144D01*
X130919875Y-81986994D01*
X130979987Y-82085088D01*
X131126250Y-82253938D01*
X131298126Y-82396632D01*
X131491000Y-82509338D01*
X131495825Y-82511180D01*
X131495826Y-82511181D01*
X131537786Y-82527204D01*
X131699692Y-82589030D01*
X131704760Y-82590061D01*
X131704763Y-82590062D01*
X131812017Y-82611883D01*
X131918597Y-82633567D01*
X131923772Y-82633757D01*
X131923774Y-82633757D01*
X132136673Y-82641564D01*
X132136677Y-82641564D01*
X132141837Y-82641753D01*
X132146957Y-82641097D01*
X132146959Y-82641097D01*
X132358288Y-82614025D01*
X132358289Y-82614025D01*
X132363416Y-82613368D01*
X132368366Y-82611883D01*
X132572429Y-82550661D01*
X132572434Y-82550659D01*
X132577384Y-82549174D01*
X132777994Y-82450896D01*
X132959860Y-82321173D01*
X133118096Y-82163489D01*
X133248453Y-81982077D01*
X133256930Y-81964926D01*
X133345136Y-81786453D01*
X133345137Y-81786451D01*
X133347430Y-81781811D01*
X133412370Y-81568069D01*
X133441529Y-81346590D01*
X133443156Y-81280000D01*
X134856411Y-81280000D01*
X134876754Y-81668176D01*
X134877267Y-81671416D01*
X134877268Y-81671424D01*
X134898747Y-81807035D01*
X134937562Y-82052099D01*
X135038167Y-82427562D01*
X135039352Y-82430650D01*
X135039353Y-82430652D01*
X135068540Y-82506686D01*
X135177468Y-82790453D01*
X135178966Y-82793393D01*
X135351487Y-83131983D01*
X135353938Y-83136794D01*
X135355734Y-83139560D01*
X135355736Y-83139563D01*
X135383941Y-83182995D01*
X135565643Y-83462793D01*
X135810266Y-83764876D01*
X136085124Y-84039734D01*
X136387207Y-84284357D01*
X136713205Y-84496062D01*
X136716139Y-84497557D01*
X136716146Y-84497561D01*
X137056607Y-84671034D01*
X137059547Y-84672532D01*
X137422438Y-84811833D01*
X137797901Y-84912438D01*
X138001793Y-84944732D01*
X138178576Y-84972732D01*
X138178584Y-84972733D01*
X138181824Y-84973246D01*
X138570000Y-84993589D01*
X138958176Y-84973246D01*
X138961416Y-84972733D01*
X138961424Y-84972732D01*
X139138207Y-84944732D01*
X139342099Y-84912438D01*
X139717562Y-84811833D01*
X140080453Y-84672532D01*
X140083393Y-84671034D01*
X140423854Y-84497561D01*
X140423861Y-84497557D01*
X140426795Y-84496062D01*
X140752793Y-84284357D01*
X141054876Y-84039734D01*
X141329734Y-83764876D01*
X141574357Y-83462793D01*
X141756059Y-83182995D01*
X141784264Y-83139563D01*
X141784266Y-83139560D01*
X141786062Y-83136794D01*
X141788514Y-83131983D01*
X141961034Y-82793393D01*
X141962532Y-82790453D01*
X142071460Y-82506686D01*
X142100647Y-82430652D01*
X142100648Y-82430650D01*
X142101833Y-82427562D01*
X142202438Y-82052099D01*
X142241253Y-81807035D01*
X142262732Y-81671424D01*
X142262733Y-81671416D01*
X142263246Y-81668176D01*
X142283589Y-81280000D01*
X142263246Y-80891824D01*
X142256509Y-80849285D01*
X142224558Y-80647559D01*
X142202438Y-80507901D01*
X142101833Y-80132438D01*
X142083195Y-80083883D01*
X142033320Y-79953955D01*
X141962532Y-79769547D01*
X141901877Y-79650505D01*
X141787561Y-79426147D01*
X141787557Y-79426140D01*
X141786062Y-79423206D01*
X141574357Y-79097207D01*
X141329734Y-78795124D01*
X141054876Y-78520266D01*
X140752793Y-78275643D01*
X140426795Y-78063938D01*
X140423861Y-78062443D01*
X140423854Y-78062439D01*
X140083393Y-77888966D01*
X140080453Y-77887468D01*
X139717562Y-77748167D01*
X139342099Y-77647562D01*
X139138207Y-77615268D01*
X138961424Y-77587268D01*
X138961416Y-77587267D01*
X138958176Y-77586754D01*
X138570000Y-77566411D01*
X138181824Y-77586754D01*
X138178584Y-77587267D01*
X138178576Y-77587268D01*
X138001793Y-77615268D01*
X137797901Y-77647562D01*
X137422438Y-77748167D01*
X137059547Y-77887468D01*
X137056607Y-77888966D01*
X136716147Y-78062439D01*
X136716140Y-78062443D01*
X136713206Y-78063938D01*
X136387207Y-78275643D01*
X136085124Y-78520266D01*
X135810266Y-78795124D01*
X135565643Y-79097207D01*
X135353938Y-79423206D01*
X135352443Y-79426140D01*
X135352439Y-79426147D01*
X135238123Y-79650505D01*
X135177468Y-79769547D01*
X135106680Y-79953955D01*
X135056806Y-80083883D01*
X135038167Y-80132438D01*
X134937562Y-80507901D01*
X134915442Y-80647559D01*
X134883492Y-80849285D01*
X134876754Y-80891824D01*
X134856411Y-81280000D01*
X133443156Y-81280000D01*
X133424852Y-81057361D01*
X133370431Y-80840702D01*
X133281354Y-80635840D01*
X133198587Y-80507901D01*
X133162822Y-80452617D01*
X133162820Y-80452614D01*
X133160014Y-80448277D01*
X133009670Y-80283051D01*
X133005619Y-80279852D01*
X133005615Y-80279848D01*
X132838414Y-80147800D01*
X132838410Y-80147798D01*
X132834359Y-80144598D01*
X132818114Y-80135630D01*
X132782136Y-80115769D01*
X132638789Y-80036638D01*
X132633920Y-80034914D01*
X132633916Y-80034912D01*
X132433087Y-79963795D01*
X132433083Y-79963794D01*
X132428212Y-79962069D01*
X132423119Y-79961162D01*
X132423116Y-79961161D01*
X132213373Y-79923800D01*
X132213367Y-79923799D01*
X132208284Y-79922894D01*
X132134452Y-79921992D01*
X131990081Y-79920228D01*
X131990079Y-79920228D01*
X131984911Y-79920165D01*
X131764091Y-79953955D01*
X131551756Y-80023357D01*
X131353607Y-80126507D01*
X131349474Y-80129610D01*
X131349471Y-80129612D01*
X131211775Y-80232997D01*
X131174965Y-80260635D01*
X131020629Y-80422138D01*
X130913201Y-80579621D01*
X130858293Y-80624621D01*
X130787768Y-80632792D01*
X130724021Y-80601538D01*
X130703324Y-80577054D01*
X130622822Y-80452617D01*
X130622820Y-80452614D01*
X130620014Y-80448277D01*
X130469670Y-80283051D01*
X130465619Y-80279852D01*
X130465615Y-80279848D01*
X130298414Y-80147800D01*
X130298410Y-80147798D01*
X130294359Y-80144598D01*
X130278114Y-80135630D01*
X130242136Y-80115769D01*
X130098789Y-80036638D01*
X130093920Y-80034914D01*
X130093916Y-80034912D01*
X129893087Y-79963795D01*
X129893083Y-79963794D01*
X129888212Y-79962069D01*
X129883119Y-79961162D01*
X129883116Y-79961161D01*
X129673373Y-79923800D01*
X129673367Y-79923799D01*
X129668284Y-79922894D01*
X129594452Y-79921992D01*
X129450081Y-79920228D01*
X129450079Y-79920228D01*
X129444911Y-79920165D01*
X129224091Y-79953955D01*
X129011756Y-80023357D01*
X128813607Y-80126507D01*
X128809474Y-80129610D01*
X128809471Y-80129612D01*
X128671775Y-80232997D01*
X128634965Y-80260635D01*
X128480629Y-80422138D01*
X128373201Y-80579621D01*
X128318293Y-80624621D01*
X128247768Y-80632792D01*
X128184021Y-80601538D01*
X128163324Y-80577054D01*
X128082822Y-80452617D01*
X128082820Y-80452614D01*
X128080014Y-80448277D01*
X127929670Y-80283051D01*
X127925619Y-80279852D01*
X127925615Y-80279848D01*
X127758414Y-80147800D01*
X127758410Y-80147798D01*
X127754359Y-80144598D01*
X127738114Y-80135630D01*
X127702136Y-80115769D01*
X127558789Y-80036638D01*
X127553920Y-80034914D01*
X127553916Y-80034912D01*
X127353087Y-79963795D01*
X127353083Y-79963794D01*
X127348212Y-79962069D01*
X127343119Y-79961162D01*
X127343116Y-79961161D01*
X127133373Y-79923800D01*
X127133367Y-79923799D01*
X127128284Y-79922894D01*
X127054452Y-79921992D01*
X126910081Y-79920228D01*
X126910079Y-79920228D01*
X126904911Y-79920165D01*
X126684091Y-79953955D01*
X126671532Y-79958060D01*
X126600568Y-79960210D01*
X126543294Y-79927389D01*
X126329141Y-79713236D01*
X126321601Y-79704950D01*
X126317489Y-79698471D01*
X126267837Y-79651845D01*
X126264996Y-79649091D01*
X126245259Y-79629354D01*
X126242062Y-79626874D01*
X126233040Y-79619169D01*
X126219605Y-79606553D01*
X126200810Y-79588903D01*
X126193864Y-79585084D01*
X126193861Y-79585082D01*
X126183055Y-79579141D01*
X126166536Y-79568290D01*
X126166072Y-79567930D01*
X126150530Y-79555875D01*
X126143261Y-79552730D01*
X126143257Y-79552727D01*
X126109952Y-79538315D01*
X126099302Y-79533098D01*
X126060549Y-79511794D01*
X126040926Y-79506756D01*
X126022223Y-79500352D01*
X126010909Y-79495456D01*
X126010908Y-79495456D01*
X126003634Y-79492308D01*
X125995811Y-79491069D01*
X125995801Y-79491066D01*
X125959965Y-79485390D01*
X125948345Y-79482984D01*
X125913200Y-79473961D01*
X125913199Y-79473961D01*
X125905519Y-79471989D01*
X125885265Y-79471989D01*
X125865554Y-79470438D01*
X125863023Y-79470037D01*
X125845546Y-79467269D01*
X125837654Y-79468015D01*
X125801528Y-79471430D01*
X125789670Y-79471989D01*
X82533274Y-79471989D01*
X82522090Y-79471462D01*
X82514602Y-79469788D01*
X82506679Y-79470037D01*
X82446544Y-79471927D01*
X82442586Y-79471989D01*
X82414655Y-79471989D01*
X82410740Y-79472484D01*
X82410736Y-79472484D01*
X82410678Y-79472492D01*
X82410649Y-79472495D01*
X82398807Y-79473428D01*
X82354621Y-79474816D01*
X82337255Y-79479861D01*
X82335169Y-79480467D01*
X82315817Y-79484475D01*
X82303579Y-79486021D01*
X82303577Y-79486022D01*
X82295714Y-79487015D01*
X82254597Y-79503295D01*
X82243396Y-79507130D01*
X82200917Y-79519471D01*
X82194098Y-79523504D01*
X82194093Y-79523506D01*
X82183482Y-79529782D01*
X82165732Y-79538479D01*
X82146894Y-79545937D01*
X82140478Y-79550598D01*
X82140477Y-79550599D01*
X82111136Y-79571917D01*
X82101212Y-79578436D01*
X82069971Y-79596911D01*
X82069966Y-79596915D01*
X82063148Y-79600947D01*
X82048824Y-79615271D01*
X82033792Y-79628110D01*
X82017404Y-79640017D01*
X81989223Y-79674082D01*
X81981233Y-79682862D01*
X81662221Y-80001874D01*
X81599909Y-80035900D01*
X81540514Y-80034485D01*
X81506783Y-80025447D01*
X81506777Y-80025446D01*
X81501463Y-80024022D01*
X81280000Y-80004647D01*
X81058537Y-80024022D01*
X81002128Y-80039137D01*
X80849114Y-80080137D01*
X80849112Y-80080138D01*
X80843804Y-80081560D01*
X80838823Y-80083882D01*
X80838822Y-80083883D01*
X80647311Y-80173186D01*
X80647306Y-80173189D01*
X80642324Y-80175512D01*
X80637817Y-80178668D01*
X80637815Y-80178669D01*
X80464730Y-80299864D01*
X80464727Y-80299866D01*
X80460219Y-80303023D01*
X80303023Y-80460219D01*
X80299866Y-80464727D01*
X80299864Y-80464730D01*
X80182186Y-80632792D01*
X80175512Y-80642324D01*
X80173189Y-80647306D01*
X80173186Y-80647311D01*
X80124195Y-80752373D01*
X80077277Y-80805658D01*
X80009000Y-80825119D01*
X79941040Y-80804577D01*
X79895805Y-80752373D01*
X79846814Y-80647311D01*
X79846811Y-80647306D01*
X79844488Y-80642324D01*
X79837814Y-80632792D01*
X79720136Y-80464730D01*
X79720134Y-80464727D01*
X79716977Y-80460219D01*
X79559781Y-80303023D01*
X79555273Y-80299866D01*
X79555270Y-80299864D01*
X79479505Y-80246813D01*
X79377677Y-80175512D01*
X79372695Y-80173189D01*
X79372690Y-80173186D01*
X79181178Y-80083883D01*
X79181177Y-80083882D01*
X79176196Y-80081560D01*
X79170888Y-80080138D01*
X79170886Y-80080137D01*
X79017872Y-80039137D01*
X78961463Y-80024022D01*
X78740000Y-80004647D01*
X78518537Y-80024022D01*
X78462128Y-80039137D01*
X78309114Y-80080137D01*
X78309112Y-80080138D01*
X78303804Y-80081560D01*
X78298823Y-80083882D01*
X78298822Y-80083883D01*
X78107311Y-80173186D01*
X78107306Y-80173189D01*
X78102324Y-80175512D01*
X78097817Y-80178668D01*
X78097815Y-80178669D01*
X77924730Y-80299864D01*
X77924727Y-80299866D01*
X77920219Y-80303023D01*
X77763023Y-80460219D01*
X77759866Y-80464727D01*
X77759864Y-80464730D01*
X77642186Y-80632792D01*
X77635512Y-80642324D01*
X77633189Y-80647306D01*
X77633186Y-80647311D01*
X77584195Y-80752373D01*
X77537277Y-80805658D01*
X77469000Y-80825119D01*
X77401040Y-80804577D01*
X77355805Y-80752373D01*
X77306814Y-80647311D01*
X77306811Y-80647306D01*
X77304488Y-80642324D01*
X77297814Y-80632792D01*
X77180136Y-80464730D01*
X77180134Y-80464727D01*
X77176977Y-80460219D01*
X77019781Y-80303023D01*
X77015273Y-80299866D01*
X77015270Y-80299864D01*
X76939505Y-80246813D01*
X76837677Y-80175512D01*
X76832695Y-80173189D01*
X76832690Y-80173186D01*
X76641178Y-80083883D01*
X76641177Y-80083882D01*
X76636196Y-80081560D01*
X76630888Y-80080138D01*
X76630886Y-80080137D01*
X76477872Y-80039137D01*
X76421463Y-80024022D01*
X76200000Y-80004647D01*
X75978537Y-80024022D01*
X75922128Y-80039137D01*
X75769114Y-80080137D01*
X75769112Y-80080138D01*
X75763804Y-80081560D01*
X75758823Y-80083882D01*
X75758822Y-80083883D01*
X75567311Y-80173186D01*
X75567306Y-80173189D01*
X75562324Y-80175512D01*
X75557817Y-80178668D01*
X75557815Y-80178669D01*
X75384730Y-80299864D01*
X75384727Y-80299866D01*
X75380219Y-80303023D01*
X75223023Y-80460219D01*
X75219866Y-80464727D01*
X75219864Y-80464730D01*
X75102186Y-80632792D01*
X75095512Y-80642324D01*
X75093189Y-80647306D01*
X75093186Y-80647311D01*
X75044195Y-80752373D01*
X74997277Y-80805658D01*
X74929000Y-80825119D01*
X74861040Y-80804577D01*
X74815805Y-80752373D01*
X74766814Y-80647311D01*
X74766811Y-80647306D01*
X74764488Y-80642324D01*
X74757814Y-80632792D01*
X74640136Y-80464730D01*
X74640134Y-80464727D01*
X74636977Y-80460219D01*
X74479781Y-80303023D01*
X74475273Y-80299866D01*
X74475270Y-80299864D01*
X74399505Y-80246813D01*
X74297677Y-80175512D01*
X74292695Y-80173189D01*
X74292690Y-80173186D01*
X74101178Y-80083883D01*
X74101177Y-80083882D01*
X74096196Y-80081560D01*
X74090888Y-80080138D01*
X74090886Y-80080137D01*
X73937872Y-80039137D01*
X73881463Y-80024022D01*
X73660000Y-80004647D01*
X73438537Y-80024022D01*
X73382128Y-80039137D01*
X73229114Y-80080137D01*
X73229112Y-80080138D01*
X73223804Y-80081560D01*
X73218823Y-80083882D01*
X73218822Y-80083883D01*
X73027311Y-80173186D01*
X73027306Y-80173189D01*
X73022324Y-80175512D01*
X73017817Y-80178668D01*
X73017815Y-80178669D01*
X72844730Y-80299864D01*
X72844727Y-80299866D01*
X72840219Y-80303023D01*
X72683023Y-80460219D01*
X72679866Y-80464727D01*
X72679864Y-80464730D01*
X72562186Y-80632792D01*
X72555512Y-80642324D01*
X72553189Y-80647306D01*
X72553186Y-80647311D01*
X72504195Y-80752373D01*
X72457277Y-80805658D01*
X72389000Y-80825119D01*
X72321040Y-80804577D01*
X72275805Y-80752373D01*
X72226814Y-80647311D01*
X72226811Y-80647306D01*
X72224488Y-80642324D01*
X72217814Y-80632792D01*
X72100136Y-80464730D01*
X72100134Y-80464727D01*
X72096977Y-80460219D01*
X71939781Y-80303023D01*
X71935273Y-80299866D01*
X71935270Y-80299864D01*
X71859505Y-80246813D01*
X71757677Y-80175512D01*
X71752695Y-80173189D01*
X71752690Y-80173186D01*
X71561178Y-80083883D01*
X71561177Y-80083882D01*
X71556196Y-80081560D01*
X71550888Y-80080138D01*
X71550886Y-80080137D01*
X71397872Y-80039137D01*
X71341463Y-80024022D01*
X71120000Y-80004647D01*
X70898537Y-80024022D01*
X70842128Y-80039137D01*
X70689114Y-80080137D01*
X70689112Y-80080138D01*
X70683804Y-80081560D01*
X70678823Y-80083882D01*
X70678822Y-80083883D01*
X70487311Y-80173186D01*
X70487306Y-80173189D01*
X70482324Y-80175512D01*
X70477817Y-80178668D01*
X70477815Y-80178669D01*
X70304730Y-80299864D01*
X70304727Y-80299866D01*
X70300219Y-80303023D01*
X70143023Y-80460219D01*
X70139866Y-80464727D01*
X70139864Y-80464730D01*
X70022186Y-80632792D01*
X70015512Y-80642324D01*
X70013189Y-80647306D01*
X70013186Y-80647311D01*
X69963919Y-80752965D01*
X69917001Y-80806250D01*
X69848724Y-80825711D01*
X69780764Y-80805169D01*
X69735529Y-80752965D01*
X69686377Y-80647559D01*
X69680897Y-80638068D01*
X69650206Y-80594235D01*
X69639729Y-80585860D01*
X69626282Y-80592928D01*
X68952022Y-81267188D01*
X68944408Y-81281132D01*
X68214356Y-81281132D01*
X68215592Y-81278868D01*
X68215461Y-81277035D01*
X68211210Y-81270420D01*
X67532997Y-80592207D01*
X67521223Y-80585777D01*
X67509207Y-80595074D01*
X67479103Y-80638068D01*
X67473623Y-80647559D01*
X67424195Y-80753557D01*
X67377278Y-80806842D01*
X67309000Y-80826303D01*
X67241040Y-80805761D01*
X67195805Y-80753557D01*
X67146377Y-80647559D01*
X67140897Y-80638068D01*
X67110206Y-80594235D01*
X67099729Y-80585860D01*
X67086282Y-80592928D01*
X66412022Y-81267188D01*
X66404408Y-81281132D01*
X65674356Y-81281132D01*
X65675592Y-81278868D01*
X65675461Y-81277035D01*
X65671210Y-81270420D01*
X64992997Y-80592207D01*
X64981223Y-80585777D01*
X64969207Y-80595074D01*
X64939103Y-80638068D01*
X64933623Y-80647559D01*
X64844355Y-80838993D01*
X64840609Y-80849285D01*
X64785941Y-81053309D01*
X64784038Y-81064104D01*
X64765628Y-81274525D01*
X64765628Y-81285475D01*
X62273302Y-81285475D01*
X62273589Y-81280000D01*
X62253246Y-80891824D01*
X62246509Y-80849285D01*
X62214558Y-80647559D01*
X62192438Y-80507901D01*
X62115368Y-80220271D01*
X65345860Y-80220271D01*
X65352928Y-80233718D01*
X66027188Y-80907978D01*
X66041132Y-80915592D01*
X66042965Y-80915461D01*
X66049580Y-80911210D01*
X66727793Y-80232997D01*
X66734223Y-80221223D01*
X66733486Y-80220271D01*
X67885860Y-80220271D01*
X67892928Y-80233718D01*
X68567188Y-80907978D01*
X68581132Y-80915592D01*
X68582965Y-80915461D01*
X68589580Y-80911210D01*
X69267793Y-80232997D01*
X69274223Y-80221223D01*
X69264926Y-80209207D01*
X69221931Y-80179102D01*
X69212445Y-80173624D01*
X69021007Y-80084355D01*
X69010715Y-80080609D01*
X68806691Y-80025941D01*
X68795896Y-80024038D01*
X68585475Y-80005628D01*
X68574525Y-80005628D01*
X68364104Y-80024038D01*
X68353309Y-80025941D01*
X68149285Y-80080609D01*
X68138993Y-80084355D01*
X67947559Y-80173623D01*
X67938068Y-80179103D01*
X67894235Y-80209794D01*
X67885860Y-80220271D01*
X66733486Y-80220271D01*
X66724926Y-80209207D01*
X66681931Y-80179102D01*
X66672445Y-80173624D01*
X66481007Y-80084355D01*
X66470715Y-80080609D01*
X66266691Y-80025941D01*
X66255896Y-80024038D01*
X66045475Y-80005628D01*
X66034525Y-80005628D01*
X65824104Y-80024038D01*
X65813309Y-80025941D01*
X65609285Y-80080609D01*
X65598993Y-80084355D01*
X65407559Y-80173623D01*
X65398068Y-80179103D01*
X65354235Y-80209794D01*
X65345860Y-80220271D01*
X62115368Y-80220271D01*
X62091833Y-80132438D01*
X62073195Y-80083883D01*
X62023320Y-79953955D01*
X61952532Y-79769547D01*
X61891877Y-79650505D01*
X61777561Y-79426147D01*
X61777557Y-79426140D01*
X61776062Y-79423206D01*
X61564357Y-79097207D01*
X61319734Y-78795124D01*
X61044876Y-78520266D01*
X60742793Y-78275643D01*
X60416795Y-78063938D01*
X60413861Y-78062443D01*
X60413854Y-78062439D01*
X60073393Y-77888966D01*
X60070453Y-77887468D01*
X59707562Y-77748167D01*
X59332099Y-77647562D01*
X59128207Y-77615268D01*
X58951424Y-77587268D01*
X58951416Y-77587267D01*
X58948176Y-77586754D01*
X58560000Y-77566411D01*
X58171824Y-77586754D01*
X58168584Y-77587267D01*
X58168576Y-77587268D01*
X57991793Y-77615268D01*
X57787901Y-77647562D01*
X57412438Y-77748167D01*
X57049547Y-77887468D01*
X57046607Y-77888966D01*
X56706147Y-78062439D01*
X56706140Y-78062443D01*
X56703206Y-78063938D01*
X56377207Y-78275643D01*
X56075124Y-78520266D01*
X55800266Y-78795124D01*
X55555643Y-79097207D01*
X55343938Y-79423206D01*
X55342443Y-79426140D01*
X55342439Y-79426147D01*
X55228123Y-79650505D01*
X55167468Y-79769547D01*
X55096680Y-79953955D01*
X55046806Y-80083883D01*
X55028167Y-80132438D01*
X54927562Y-80507901D01*
X54905442Y-80647559D01*
X54873492Y-80849285D01*
X54866754Y-80891824D01*
X54846411Y-81280000D01*
X53848500Y-81280000D01*
X53848500Y-71120000D01*
X75286496Y-71120000D01*
X75306458Y-71309928D01*
X75365473Y-71491556D01*
X75460960Y-71656944D01*
X75465378Y-71661851D01*
X75465379Y-71661852D01*
X75551905Y-71757949D01*
X75588747Y-71798866D01*
X75743248Y-71911118D01*
X75749276Y-71913802D01*
X75749278Y-71913803D01*
X75813733Y-71942500D01*
X75917712Y-71988794D01*
X76011112Y-72008647D01*
X76098056Y-72027128D01*
X76098061Y-72027128D01*
X76104513Y-72028500D01*
X76295487Y-72028500D01*
X76301939Y-72027128D01*
X76301944Y-72027128D01*
X76388888Y-72008647D01*
X76482288Y-71988794D01*
X76586267Y-71942500D01*
X76650722Y-71913803D01*
X76650724Y-71913802D01*
X76656752Y-71911118D01*
X76743423Y-71848148D01*
X76789671Y-71814546D01*
X76811253Y-71798866D01*
X76815668Y-71793963D01*
X76820580Y-71789540D01*
X76821705Y-71790789D01*
X76875014Y-71757949D01*
X76908200Y-71753500D01*
X108320200Y-71753500D01*
X108388321Y-71773502D01*
X108434814Y-71827158D01*
X108444918Y-71897432D01*
X108429319Y-71942500D01*
X108402591Y-71988794D01*
X108385473Y-72018444D01*
X108326458Y-72200072D01*
X108306496Y-72390000D01*
X108326458Y-72579928D01*
X108385473Y-72761556D01*
X108388776Y-72767278D01*
X108388777Y-72767279D01*
X108429319Y-72837500D01*
X108446057Y-72906496D01*
X108422836Y-72973587D01*
X108367029Y-73017474D01*
X108320200Y-73026500D01*
X79448200Y-73026500D01*
X79380079Y-73006498D01*
X79360853Y-72990157D01*
X79360580Y-72990460D01*
X79355668Y-72986037D01*
X79351253Y-72981134D01*
X79196752Y-72868882D01*
X79190724Y-72866198D01*
X79190722Y-72866197D01*
X79028319Y-72793891D01*
X79028318Y-72793891D01*
X79022288Y-72791206D01*
X78909721Y-72767279D01*
X78841944Y-72752872D01*
X78841939Y-72752872D01*
X78835487Y-72751500D01*
X78644513Y-72751500D01*
X78638061Y-72752872D01*
X78638056Y-72752872D01*
X78570279Y-72767279D01*
X78457712Y-72791206D01*
X78451682Y-72793891D01*
X78451681Y-72793891D01*
X78289278Y-72866197D01*
X78289276Y-72866198D01*
X78283248Y-72868882D01*
X78128747Y-72981134D01*
X78124326Y-72986044D01*
X78124325Y-72986045D01*
X78090601Y-73023500D01*
X78000960Y-73123056D01*
X77905473Y-73288444D01*
X77846458Y-73470072D01*
X77826496Y-73660000D01*
X77846458Y-73849928D01*
X77905473Y-74031556D01*
X78000960Y-74196944D01*
X78128747Y-74338866D01*
X78283248Y-74451118D01*
X78289276Y-74453802D01*
X78289278Y-74453803D01*
X78451681Y-74526109D01*
X78457712Y-74528794D01*
X78551113Y-74548647D01*
X78638056Y-74567128D01*
X78638061Y-74567128D01*
X78644513Y-74568500D01*
X78835487Y-74568500D01*
X78841939Y-74567128D01*
X78841944Y-74567128D01*
X78928887Y-74548647D01*
X79022288Y-74528794D01*
X79028319Y-74526109D01*
X79190722Y-74453803D01*
X79190724Y-74453802D01*
X79196752Y-74451118D01*
X79351253Y-74338866D01*
X79355668Y-74333963D01*
X79360580Y-74329540D01*
X79361705Y-74330789D01*
X79415014Y-74297949D01*
X79448200Y-74293500D01*
X125021800Y-74293500D01*
X125089921Y-74313502D01*
X125109147Y-74329843D01*
X125109420Y-74329540D01*
X125114332Y-74333963D01*
X125118747Y-74338866D01*
X125273248Y-74451118D01*
X125279276Y-74453802D01*
X125279278Y-74453803D01*
X125441681Y-74526109D01*
X125447712Y-74528794D01*
X125541113Y-74548647D01*
X125628056Y-74567128D01*
X125628061Y-74567128D01*
X125634513Y-74568500D01*
X125825487Y-74568500D01*
X125831939Y-74567128D01*
X125831944Y-74567128D01*
X125918887Y-74548647D01*
X126012288Y-74528794D01*
X126018319Y-74526109D01*
X126180722Y-74453803D01*
X126180724Y-74453802D01*
X126186752Y-74451118D01*
X126341253Y-74338866D01*
X126469040Y-74196944D01*
X126564527Y-74031556D01*
X126623542Y-73849928D01*
X126643504Y-73660000D01*
X126623542Y-73470072D01*
X126564527Y-73288444D01*
X126469040Y-73123056D01*
X126379400Y-73023500D01*
X126345675Y-72986045D01*
X126345674Y-72986044D01*
X126341253Y-72981134D01*
X126186752Y-72868882D01*
X126180724Y-72866198D01*
X126180722Y-72866197D01*
X126018319Y-72793891D01*
X126018318Y-72793891D01*
X126012288Y-72791206D01*
X125899721Y-72767279D01*
X125831944Y-72752872D01*
X125831939Y-72752872D01*
X125825487Y-72751500D01*
X125634513Y-72751500D01*
X125628061Y-72752872D01*
X125628056Y-72752872D01*
X125486284Y-72783007D01*
X125415493Y-72777605D01*
X125358861Y-72734788D01*
X125334367Y-72668150D01*
X125340254Y-72620824D01*
X125351502Y-72586206D01*
X125353542Y-72579928D01*
X125373504Y-72390000D01*
X125353542Y-72200072D01*
X125294527Y-72018444D01*
X125199040Y-71853056D01*
X125175722Y-71827158D01*
X125075675Y-71716045D01*
X125075674Y-71716044D01*
X125071253Y-71711134D01*
X124916752Y-71598882D01*
X124910724Y-71596198D01*
X124910722Y-71596197D01*
X124748319Y-71523891D01*
X124748318Y-71523891D01*
X124742288Y-71521206D01*
X124629721Y-71497279D01*
X124561944Y-71482872D01*
X124561939Y-71482872D01*
X124555487Y-71481500D01*
X124364513Y-71481500D01*
X124358061Y-71482872D01*
X124358056Y-71482872D01*
X124216284Y-71513007D01*
X124145493Y-71507605D01*
X124088861Y-71464788D01*
X124064367Y-71398150D01*
X124070254Y-71350824D01*
X124081502Y-71316206D01*
X124083542Y-71309928D01*
X124103504Y-71120000D01*
X124083542Y-70930072D01*
X124024527Y-70748444D01*
X123929040Y-70583056D01*
X123839400Y-70483500D01*
X123805675Y-70446045D01*
X123805674Y-70446044D01*
X123801253Y-70441134D01*
X123646752Y-70328882D01*
X123640724Y-70326198D01*
X123640722Y-70326197D01*
X123478319Y-70253891D01*
X123478318Y-70253891D01*
X123472288Y-70251206D01*
X123359721Y-70227279D01*
X123291944Y-70212872D01*
X123291939Y-70212872D01*
X123285487Y-70211500D01*
X123094513Y-70211500D01*
X123088061Y-70212872D01*
X123088056Y-70212872D01*
X122946284Y-70243007D01*
X122875493Y-70237605D01*
X122818861Y-70194788D01*
X122794367Y-70128150D01*
X122800254Y-70080824D01*
X122811502Y-70046206D01*
X122813542Y-70039928D01*
X122833504Y-69850000D01*
X122813542Y-69660072D01*
X122754527Y-69478444D01*
X122659040Y-69313056D01*
X122635722Y-69287158D01*
X122535675Y-69176045D01*
X122535674Y-69176044D01*
X122531253Y-69171134D01*
X122376752Y-69058882D01*
X122370724Y-69056198D01*
X122370722Y-69056197D01*
X122208319Y-68983891D01*
X122208318Y-68983891D01*
X122202288Y-68981206D01*
X122089721Y-68957279D01*
X122021944Y-68942872D01*
X122021939Y-68942872D01*
X122015487Y-68941500D01*
X121824513Y-68941500D01*
X121818061Y-68942872D01*
X121818056Y-68942872D01*
X121750279Y-68957279D01*
X121637712Y-68981206D01*
X121631682Y-68983891D01*
X121631681Y-68983891D01*
X121469278Y-69056197D01*
X121469276Y-69056198D01*
X121463248Y-69058882D01*
X121457907Y-69062762D01*
X121457906Y-69062763D01*
X121347687Y-69142842D01*
X121308747Y-69171134D01*
X121304332Y-69176037D01*
X121299420Y-69180460D01*
X121298295Y-69179211D01*
X121244986Y-69212051D01*
X121211800Y-69216500D01*
X115199800Y-69216500D01*
X115131679Y-69196498D01*
X115085186Y-69142842D01*
X115075082Y-69072568D01*
X115090681Y-69027500D01*
X115131223Y-68957279D01*
X115131224Y-68957278D01*
X115134527Y-68951556D01*
X115193542Y-68769928D01*
X115213504Y-68580000D01*
X115193542Y-68390072D01*
X115134527Y-68208444D01*
X115039040Y-68043056D01*
X115015722Y-68017158D01*
X114915675Y-67906045D01*
X114915674Y-67906044D01*
X114911253Y-67901134D01*
X114756752Y-67788882D01*
X114750724Y-67786198D01*
X114750722Y-67786197D01*
X114588319Y-67713891D01*
X114588318Y-67713891D01*
X114582288Y-67711206D01*
X114469721Y-67687279D01*
X114401944Y-67672872D01*
X114401939Y-67672872D01*
X114395487Y-67671500D01*
X114204513Y-67671500D01*
X114198061Y-67672872D01*
X114198056Y-67672872D01*
X114130279Y-67687279D01*
X114017712Y-67711206D01*
X114011682Y-67713891D01*
X114011681Y-67713891D01*
X113849278Y-67786197D01*
X113849276Y-67786198D01*
X113843248Y-67788882D01*
X113837907Y-67792762D01*
X113837906Y-67792763D01*
X113727687Y-67872842D01*
X113688747Y-67901134D01*
X113684332Y-67906037D01*
X113679420Y-67910460D01*
X113678295Y-67909211D01*
X113624986Y-67942051D01*
X113591800Y-67946500D01*
X112659800Y-67946500D01*
X112591679Y-67926498D01*
X112545186Y-67872842D01*
X112535082Y-67802568D01*
X112550681Y-67757500D01*
X112591223Y-67687279D01*
X112591224Y-67687278D01*
X112594527Y-67681556D01*
X112653542Y-67499928D01*
X112673504Y-67310000D01*
X112653542Y-67120072D01*
X112594527Y-66938444D01*
X112577409Y-66908794D01*
X112550681Y-66862500D01*
X112533943Y-66793504D01*
X112557164Y-66726413D01*
X112612971Y-66682526D01*
X112659800Y-66673500D01*
X116131800Y-66673500D01*
X116199921Y-66693502D01*
X116219147Y-66709843D01*
X116219420Y-66709540D01*
X116224332Y-66713963D01*
X116228747Y-66718866D01*
X116239135Y-66726413D01*
X116296578Y-66768148D01*
X116383248Y-66831118D01*
X116389276Y-66833802D01*
X116389278Y-66833803D01*
X116453733Y-66862500D01*
X116557712Y-66908794D01*
X116651112Y-66928647D01*
X116738056Y-66947128D01*
X116738061Y-66947128D01*
X116744513Y-66948500D01*
X116935487Y-66948500D01*
X116941939Y-66947128D01*
X116941944Y-66947128D01*
X117028888Y-66928647D01*
X117122288Y-66908794D01*
X117226267Y-66862500D01*
X117290722Y-66833803D01*
X117290724Y-66833802D01*
X117296752Y-66831118D01*
X117451253Y-66718866D01*
X117483974Y-66682526D01*
X117574621Y-66581852D01*
X117574622Y-66581851D01*
X117579040Y-66576944D01*
X117674527Y-66411556D01*
X117733542Y-66229928D01*
X117753504Y-66040000D01*
X117733542Y-65850072D01*
X117674527Y-65668444D01*
X117657409Y-65638794D01*
X117630681Y-65592500D01*
X117613943Y-65523504D01*
X117637164Y-65456413D01*
X117692971Y-65412526D01*
X117739800Y-65403500D01*
X118671800Y-65403500D01*
X118739921Y-65423502D01*
X118759147Y-65439843D01*
X118759420Y-65439540D01*
X118764332Y-65443963D01*
X118768747Y-65448866D01*
X118779135Y-65456413D01*
X118836578Y-65498148D01*
X118923248Y-65561118D01*
X118929276Y-65563802D01*
X118929278Y-65563803D01*
X118993733Y-65592500D01*
X119097712Y-65638794D01*
X119191112Y-65658647D01*
X119278056Y-65677128D01*
X119278061Y-65677128D01*
X119284513Y-65678500D01*
X119475487Y-65678500D01*
X119481939Y-65677128D01*
X119481944Y-65677128D01*
X119568888Y-65658647D01*
X119662288Y-65638794D01*
X119766267Y-65592500D01*
X119830722Y-65563803D01*
X119830724Y-65563802D01*
X119836752Y-65561118D01*
X119991253Y-65448866D01*
X120023974Y-65412526D01*
X120114621Y-65311852D01*
X120114622Y-65311851D01*
X120119040Y-65306944D01*
X120214527Y-65141556D01*
X120273542Y-64959928D01*
X120293504Y-64770000D01*
X120273542Y-64580072D01*
X120214527Y-64398444D01*
X120119040Y-64233056D01*
X119991253Y-64091134D01*
X119836752Y-63978882D01*
X119830724Y-63976198D01*
X119830722Y-63976197D01*
X119668319Y-63903891D01*
X119668318Y-63903891D01*
X119662288Y-63901206D01*
X119568888Y-63881353D01*
X119481944Y-63862872D01*
X119481939Y-63862872D01*
X119475487Y-63861500D01*
X119284513Y-63861500D01*
X119278061Y-63862872D01*
X119278056Y-63862872D01*
X119191112Y-63881353D01*
X119097712Y-63901206D01*
X119091682Y-63903891D01*
X119091681Y-63903891D01*
X118929278Y-63976197D01*
X118929276Y-63976198D01*
X118923248Y-63978882D01*
X118768747Y-64091134D01*
X118764332Y-64096037D01*
X118759420Y-64100460D01*
X118758295Y-64099211D01*
X118704986Y-64132051D01*
X118671800Y-64136500D01*
X104848200Y-64136500D01*
X104780079Y-64116498D01*
X104760853Y-64100157D01*
X104760580Y-64100460D01*
X104755668Y-64096037D01*
X104751253Y-64091134D01*
X104596752Y-63978882D01*
X104590724Y-63976198D01*
X104590722Y-63976197D01*
X104428319Y-63903891D01*
X104428318Y-63903891D01*
X104422288Y-63901206D01*
X104328888Y-63881353D01*
X104241944Y-63862872D01*
X104241939Y-63862872D01*
X104235487Y-63861500D01*
X104044513Y-63861500D01*
X104038061Y-63862872D01*
X104038056Y-63862872D01*
X103951112Y-63881353D01*
X103857712Y-63901206D01*
X103851682Y-63903891D01*
X103851681Y-63903891D01*
X103689278Y-63976197D01*
X103689276Y-63976198D01*
X103683248Y-63978882D01*
X103528747Y-64091134D01*
X103400960Y-64233056D01*
X103305473Y-64398444D01*
X103246458Y-64580072D01*
X103226496Y-64770000D01*
X103246458Y-64959928D01*
X103305473Y-65141556D01*
X103308776Y-65147278D01*
X103308777Y-65147279D01*
X103349319Y-65217500D01*
X103366057Y-65286496D01*
X103342836Y-65353587D01*
X103287029Y-65397474D01*
X103240200Y-65406500D01*
X102308200Y-65406500D01*
X102240079Y-65386498D01*
X102220853Y-65370157D01*
X102220580Y-65370460D01*
X102215668Y-65366037D01*
X102211253Y-65361134D01*
X102189671Y-65345454D01*
X102062094Y-65252763D01*
X102062093Y-65252762D01*
X102056752Y-65248882D01*
X102050724Y-65246198D01*
X102050722Y-65246197D01*
X101888319Y-65173891D01*
X101888318Y-65173891D01*
X101882288Y-65171206D01*
X101769721Y-65147279D01*
X101701944Y-65132872D01*
X101701939Y-65132872D01*
X101695487Y-65131500D01*
X101504513Y-65131500D01*
X101498061Y-65132872D01*
X101498056Y-65132872D01*
X101430279Y-65147279D01*
X101317712Y-65171206D01*
X101311682Y-65173891D01*
X101311681Y-65173891D01*
X101149278Y-65246197D01*
X101149276Y-65246198D01*
X101143248Y-65248882D01*
X100988747Y-65361134D01*
X100984326Y-65366044D01*
X100984325Y-65366045D01*
X100906257Y-65452749D01*
X100860960Y-65503056D01*
X100765473Y-65668444D01*
X100706458Y-65850072D01*
X100686496Y-66040000D01*
X100706458Y-66229928D01*
X100708498Y-66236206D01*
X100719746Y-66270824D01*
X100721774Y-66341791D01*
X100685111Y-66402589D01*
X100621399Y-66433915D01*
X100573716Y-66433007D01*
X100431944Y-66402872D01*
X100431939Y-66402872D01*
X100425487Y-66401500D01*
X100234513Y-66401500D01*
X100228061Y-66402872D01*
X100228056Y-66402872D01*
X100160279Y-66417279D01*
X100047712Y-66441206D01*
X100041682Y-66443891D01*
X100041681Y-66443891D01*
X99879278Y-66516197D01*
X99879276Y-66516198D01*
X99873248Y-66518882D01*
X99718747Y-66631134D01*
X99714326Y-66636044D01*
X99714325Y-66636045D01*
X99636257Y-66722749D01*
X99590960Y-66773056D01*
X99495473Y-66938444D01*
X99436458Y-67120072D01*
X99416496Y-67310000D01*
X99436458Y-67499928D01*
X99495473Y-67681556D01*
X99590960Y-67846944D01*
X99595378Y-67851851D01*
X99595379Y-67851852D01*
X99681905Y-67947949D01*
X99718747Y-67988866D01*
X99873248Y-68101118D01*
X99879276Y-68103802D01*
X99879278Y-68103803D01*
X99943733Y-68132500D01*
X100047712Y-68178794D01*
X100141112Y-68198647D01*
X100228056Y-68217128D01*
X100228061Y-68217128D01*
X100234513Y-68218500D01*
X100425487Y-68218500D01*
X100431939Y-68217128D01*
X100431944Y-68217128D01*
X100518888Y-68198647D01*
X100612288Y-68178794D01*
X100716267Y-68132500D01*
X100780722Y-68103803D01*
X100780724Y-68103802D01*
X100786752Y-68101118D01*
X100873423Y-68038148D01*
X100919671Y-68004546D01*
X100941253Y-67988866D01*
X100945668Y-67983963D01*
X100950580Y-67979540D01*
X100951705Y-67980789D01*
X101005014Y-67947949D01*
X101038200Y-67943500D01*
X101970200Y-67943500D01*
X102038321Y-67963502D01*
X102084814Y-68017158D01*
X102094918Y-68087432D01*
X102079319Y-68132500D01*
X102052591Y-68178794D01*
X102035473Y-68208444D01*
X101976458Y-68390072D01*
X101956496Y-68580000D01*
X101976458Y-68769928D01*
X102035473Y-68951556D01*
X102130960Y-69116944D01*
X102135378Y-69121851D01*
X102135379Y-69121852D01*
X102221905Y-69217949D01*
X102258747Y-69258866D01*
X102413248Y-69371118D01*
X102419276Y-69373802D01*
X102419278Y-69373803D01*
X102483733Y-69402500D01*
X102587712Y-69448794D01*
X102681112Y-69468647D01*
X102768056Y-69487128D01*
X102768061Y-69487128D01*
X102774513Y-69488500D01*
X102965487Y-69488500D01*
X102971939Y-69487128D01*
X102971944Y-69487128D01*
X103058888Y-69468647D01*
X103152288Y-69448794D01*
X103256267Y-69402500D01*
X103320722Y-69373803D01*
X103320724Y-69373802D01*
X103326752Y-69371118D01*
X103413423Y-69308148D01*
X103459671Y-69274546D01*
X103481253Y-69258866D01*
X103485668Y-69253963D01*
X103490580Y-69249540D01*
X103491705Y-69250789D01*
X103545014Y-69217949D01*
X103578200Y-69213500D01*
X105780200Y-69213500D01*
X105848321Y-69233502D01*
X105894814Y-69287158D01*
X105904918Y-69357432D01*
X105889319Y-69402500D01*
X105862591Y-69448794D01*
X105845473Y-69478444D01*
X105786458Y-69660072D01*
X105766496Y-69850000D01*
X105786458Y-70039928D01*
X105845473Y-70221556D01*
X105848776Y-70227278D01*
X105848777Y-70227279D01*
X105889319Y-70297500D01*
X105906057Y-70366496D01*
X105882836Y-70433587D01*
X105827029Y-70477474D01*
X105780200Y-70486500D01*
X76908200Y-70486500D01*
X76840079Y-70466498D01*
X76820853Y-70450157D01*
X76820580Y-70450460D01*
X76815668Y-70446037D01*
X76811253Y-70441134D01*
X76656752Y-70328882D01*
X76650724Y-70326198D01*
X76650722Y-70326197D01*
X76488319Y-70253891D01*
X76488318Y-70253891D01*
X76482288Y-70251206D01*
X76369721Y-70227279D01*
X76301944Y-70212872D01*
X76301939Y-70212872D01*
X76295487Y-70211500D01*
X76104513Y-70211500D01*
X76098061Y-70212872D01*
X76098056Y-70212872D01*
X76030279Y-70227279D01*
X75917712Y-70251206D01*
X75911682Y-70253891D01*
X75911681Y-70253891D01*
X75749278Y-70326197D01*
X75749276Y-70326198D01*
X75743248Y-70328882D01*
X75588747Y-70441134D01*
X75584326Y-70446044D01*
X75584325Y-70446045D01*
X75550601Y-70483500D01*
X75460960Y-70583056D01*
X75365473Y-70748444D01*
X75306458Y-70930072D01*
X75286496Y-71120000D01*
X53848500Y-71120000D01*
X53848500Y-55880000D01*
X75286496Y-55880000D01*
X75306458Y-56069928D01*
X75365473Y-56251556D01*
X75460960Y-56416944D01*
X75465378Y-56421851D01*
X75465379Y-56421852D01*
X75551905Y-56517949D01*
X75588747Y-56558866D01*
X75743248Y-56671118D01*
X75749276Y-56673802D01*
X75749278Y-56673803D01*
X75813733Y-56702500D01*
X75917712Y-56748794D01*
X76011112Y-56768647D01*
X76098056Y-56787128D01*
X76098061Y-56787128D01*
X76104513Y-56788500D01*
X76295487Y-56788500D01*
X76301939Y-56787128D01*
X76301944Y-56787128D01*
X76388887Y-56768647D01*
X76482288Y-56748794D01*
X76586267Y-56702500D01*
X76650722Y-56673803D01*
X76650724Y-56673802D01*
X76656752Y-56671118D01*
X76811253Y-56558866D01*
X76815668Y-56553963D01*
X76820580Y-56549540D01*
X76821705Y-56550789D01*
X76875014Y-56517949D01*
X76908200Y-56513500D01*
X77840200Y-56513500D01*
X77908321Y-56533502D01*
X77954814Y-56587158D01*
X77964918Y-56657432D01*
X77949319Y-56702500D01*
X77922591Y-56748794D01*
X77905473Y-56778444D01*
X77846458Y-56960072D01*
X77826496Y-57150000D01*
X77846458Y-57339928D01*
X77905473Y-57521556D01*
X78000960Y-57686944D01*
X78128747Y-57828866D01*
X78283248Y-57941118D01*
X78289276Y-57943802D01*
X78289278Y-57943803D01*
X78451681Y-58016109D01*
X78457712Y-58018794D01*
X78551112Y-58038647D01*
X78638056Y-58057128D01*
X78638061Y-58057128D01*
X78644513Y-58058500D01*
X78835487Y-58058500D01*
X78841939Y-58057128D01*
X78841944Y-58057128D01*
X78928888Y-58038647D01*
X79022288Y-58018794D01*
X79028319Y-58016109D01*
X79190722Y-57943803D01*
X79190724Y-57943802D01*
X79196752Y-57941118D01*
X79351253Y-57828866D01*
X79355668Y-57823963D01*
X79360580Y-57819540D01*
X79361705Y-57820789D01*
X79415014Y-57787949D01*
X79448200Y-57783500D01*
X117401800Y-57783500D01*
X117469921Y-57803502D01*
X117489147Y-57819843D01*
X117489420Y-57819540D01*
X117494332Y-57823963D01*
X117498747Y-57828866D01*
X117653248Y-57941118D01*
X117659276Y-57943802D01*
X117659278Y-57943803D01*
X117821681Y-58016109D01*
X117827712Y-58018794D01*
X117921112Y-58038647D01*
X118008056Y-58057128D01*
X118008061Y-58057128D01*
X118014513Y-58058500D01*
X118205487Y-58058500D01*
X118211939Y-58057128D01*
X118211944Y-58057128D01*
X118298888Y-58038647D01*
X118392288Y-58018794D01*
X118398319Y-58016109D01*
X118560722Y-57943803D01*
X118560724Y-57943802D01*
X118566752Y-57941118D01*
X118721253Y-57828866D01*
X118849040Y-57686944D01*
X118944527Y-57521556D01*
X119003542Y-57339928D01*
X119023504Y-57150000D01*
X119003542Y-56960072D01*
X118944527Y-56778444D01*
X118927409Y-56748794D01*
X118900681Y-56702500D01*
X118883943Y-56633504D01*
X118907164Y-56566413D01*
X118962971Y-56522526D01*
X119009800Y-56513500D01*
X119941800Y-56513500D01*
X120009921Y-56533502D01*
X120029147Y-56549843D01*
X120029420Y-56549540D01*
X120034332Y-56553963D01*
X120038747Y-56558866D01*
X120193248Y-56671118D01*
X120199276Y-56673802D01*
X120199278Y-56673803D01*
X120263733Y-56702500D01*
X120367712Y-56748794D01*
X120461112Y-56768647D01*
X120548056Y-56787128D01*
X120548061Y-56787128D01*
X120554513Y-56788500D01*
X120745487Y-56788500D01*
X120751939Y-56787128D01*
X120751944Y-56787128D01*
X120838887Y-56768647D01*
X120932288Y-56748794D01*
X121036267Y-56702500D01*
X121100722Y-56673803D01*
X121100724Y-56673802D01*
X121106752Y-56671118D01*
X121261253Y-56558866D01*
X121298095Y-56517949D01*
X121384621Y-56421852D01*
X121384622Y-56421851D01*
X121389040Y-56416944D01*
X121484527Y-56251556D01*
X121543542Y-56069928D01*
X121563504Y-55880000D01*
X121543542Y-55690072D01*
X121484527Y-55508444D01*
X121389040Y-55343056D01*
X121261253Y-55201134D01*
X121106752Y-55088882D01*
X121100724Y-55086198D01*
X121100722Y-55086197D01*
X120938319Y-55013891D01*
X120938318Y-55013891D01*
X120932288Y-55011206D01*
X120838887Y-54991353D01*
X120751944Y-54972872D01*
X120751939Y-54972872D01*
X120745487Y-54971500D01*
X120554513Y-54971500D01*
X120548061Y-54972872D01*
X120548056Y-54972872D01*
X120461113Y-54991353D01*
X120367712Y-55011206D01*
X120361682Y-55013891D01*
X120361681Y-55013891D01*
X120199278Y-55086197D01*
X120199276Y-55086198D01*
X120193248Y-55088882D01*
X120038747Y-55201134D01*
X120034332Y-55206037D01*
X120029420Y-55210460D01*
X120028295Y-55209211D01*
X119974986Y-55242051D01*
X119941800Y-55246500D01*
X76908200Y-55246500D01*
X76840079Y-55226498D01*
X76820853Y-55210157D01*
X76820580Y-55210460D01*
X76815668Y-55206037D01*
X76811253Y-55201134D01*
X76656752Y-55088882D01*
X76650724Y-55086198D01*
X76650722Y-55086197D01*
X76488319Y-55013891D01*
X76488318Y-55013891D01*
X76482288Y-55011206D01*
X76388887Y-54991353D01*
X76301944Y-54972872D01*
X76301939Y-54972872D01*
X76295487Y-54971500D01*
X76104513Y-54971500D01*
X76098061Y-54972872D01*
X76098056Y-54972872D01*
X76011113Y-54991353D01*
X75917712Y-55011206D01*
X75911682Y-55013891D01*
X75911681Y-55013891D01*
X75749278Y-55086197D01*
X75749276Y-55086198D01*
X75743248Y-55088882D01*
X75588747Y-55201134D01*
X75460960Y-55343056D01*
X75365473Y-55508444D01*
X75306458Y-55690072D01*
X75286496Y-55880000D01*
X53848500Y-55880000D01*
X53848500Y-54398777D01*
X65345777Y-54398777D01*
X65355074Y-54410793D01*
X65398069Y-54440898D01*
X65407555Y-54446376D01*
X65598993Y-54535645D01*
X65609285Y-54539391D01*
X65813309Y-54594059D01*
X65824104Y-54595962D01*
X66034525Y-54614372D01*
X66045475Y-54614372D01*
X66255896Y-54595962D01*
X66266691Y-54594059D01*
X66470715Y-54539391D01*
X66481007Y-54535645D01*
X66672445Y-54446376D01*
X66681931Y-54440898D01*
X66725764Y-54410207D01*
X66734139Y-54399729D01*
X66733639Y-54398777D01*
X67885777Y-54398777D01*
X67895074Y-54410793D01*
X67938069Y-54440898D01*
X67947555Y-54446376D01*
X68138993Y-54535645D01*
X68149285Y-54539391D01*
X68353309Y-54594059D01*
X68364104Y-54595962D01*
X68574525Y-54614372D01*
X68585475Y-54614372D01*
X68795896Y-54595962D01*
X68806691Y-54594059D01*
X69010715Y-54539391D01*
X69021007Y-54535645D01*
X69212445Y-54446376D01*
X69221931Y-54440898D01*
X69265764Y-54410207D01*
X69274139Y-54399729D01*
X69267071Y-54386281D01*
X68592812Y-53712022D01*
X68578868Y-53704408D01*
X68577035Y-53704539D01*
X68570420Y-53708790D01*
X67892207Y-54387003D01*
X67885777Y-54398777D01*
X66733639Y-54398777D01*
X66727071Y-54386281D01*
X66052812Y-53712022D01*
X66038868Y-53704408D01*
X66037035Y-53704539D01*
X66030420Y-53708790D01*
X65352207Y-54387003D01*
X65345777Y-54398777D01*
X53848500Y-54398777D01*
X53848500Y-53345475D01*
X64765628Y-53345475D01*
X64784038Y-53555896D01*
X64785941Y-53566691D01*
X64840609Y-53770715D01*
X64844355Y-53781007D01*
X64933623Y-53972441D01*
X64939103Y-53981932D01*
X64969794Y-54025765D01*
X64980271Y-54034140D01*
X64993718Y-54027072D01*
X65667978Y-53352812D01*
X65674356Y-53341132D01*
X66404408Y-53341132D01*
X66404539Y-53342965D01*
X66408790Y-53349580D01*
X67087003Y-54027793D01*
X67098777Y-54034223D01*
X67110793Y-54024926D01*
X67140897Y-53981932D01*
X67146377Y-53972441D01*
X67195805Y-53866443D01*
X67242722Y-53813158D01*
X67311000Y-53793697D01*
X67378960Y-53814239D01*
X67424195Y-53866443D01*
X67473623Y-53972441D01*
X67479103Y-53981932D01*
X67509794Y-54025765D01*
X67520271Y-54034140D01*
X67533718Y-54027072D01*
X68207978Y-53352812D01*
X68214356Y-53341132D01*
X68944408Y-53341132D01*
X68944539Y-53342965D01*
X68948790Y-53349580D01*
X69627003Y-54027793D01*
X69638777Y-54034223D01*
X69650793Y-54024926D01*
X69680897Y-53981932D01*
X69686377Y-53972441D01*
X69735529Y-53867035D01*
X69782447Y-53813750D01*
X69850724Y-53794289D01*
X69918684Y-53814831D01*
X69963919Y-53867035D01*
X70013186Y-53972689D01*
X70013189Y-53972694D01*
X70015512Y-53977676D01*
X70018668Y-53982183D01*
X70018669Y-53982185D01*
X70055107Y-54034223D01*
X70143023Y-54159781D01*
X70300219Y-54316977D01*
X70304727Y-54320134D01*
X70304730Y-54320136D01*
X70380495Y-54373187D01*
X70482323Y-54444488D01*
X70487305Y-54446811D01*
X70487310Y-54446814D01*
X70677810Y-54535645D01*
X70683804Y-54538440D01*
X70689112Y-54539862D01*
X70689114Y-54539863D01*
X70754949Y-54557503D01*
X70898537Y-54595978D01*
X71120000Y-54615353D01*
X71341463Y-54595978D01*
X71485051Y-54557503D01*
X71550886Y-54539863D01*
X71550888Y-54539862D01*
X71556196Y-54538440D01*
X71562190Y-54535645D01*
X71752690Y-54446814D01*
X71752695Y-54446811D01*
X71757677Y-54444488D01*
X71859505Y-54373187D01*
X71935270Y-54320136D01*
X71935273Y-54320134D01*
X71939781Y-54316977D01*
X72096977Y-54159781D01*
X72184894Y-54034223D01*
X72221331Y-53982185D01*
X72221332Y-53982183D01*
X72224488Y-53977676D01*
X72226811Y-53972694D01*
X72226814Y-53972689D01*
X72275805Y-53867627D01*
X72322723Y-53814342D01*
X72391000Y-53794881D01*
X72458960Y-53815423D01*
X72504195Y-53867627D01*
X72553186Y-53972689D01*
X72553189Y-53972694D01*
X72555512Y-53977676D01*
X72558668Y-53982183D01*
X72558669Y-53982185D01*
X72595107Y-54034223D01*
X72683023Y-54159781D01*
X72840219Y-54316977D01*
X72844727Y-54320134D01*
X72844730Y-54320136D01*
X72920495Y-54373187D01*
X73022323Y-54444488D01*
X73027305Y-54446811D01*
X73027310Y-54446814D01*
X73217810Y-54535645D01*
X73223804Y-54538440D01*
X73229112Y-54539862D01*
X73229114Y-54539863D01*
X73294949Y-54557503D01*
X73438537Y-54595978D01*
X73660000Y-54615353D01*
X73881463Y-54595978D01*
X74025051Y-54557503D01*
X74090886Y-54539863D01*
X74090888Y-54539862D01*
X74096196Y-54538440D01*
X74102190Y-54535645D01*
X74292690Y-54446814D01*
X74292695Y-54446811D01*
X74297677Y-54444488D01*
X74399505Y-54373187D01*
X74475270Y-54320136D01*
X74475273Y-54320134D01*
X74479781Y-54316977D01*
X74636977Y-54159781D01*
X74724894Y-54034223D01*
X74761331Y-53982185D01*
X74761332Y-53982183D01*
X74764488Y-53977676D01*
X74766811Y-53972694D01*
X74766814Y-53972689D01*
X74815805Y-53867627D01*
X74862723Y-53814342D01*
X74931000Y-53794881D01*
X74998960Y-53815423D01*
X75044195Y-53867627D01*
X75093186Y-53972689D01*
X75093189Y-53972694D01*
X75095512Y-53977676D01*
X75098668Y-53982183D01*
X75098669Y-53982185D01*
X75135107Y-54034223D01*
X75223023Y-54159781D01*
X75380219Y-54316977D01*
X75384727Y-54320134D01*
X75384730Y-54320136D01*
X75460495Y-54373187D01*
X75562323Y-54444488D01*
X75567305Y-54446811D01*
X75567310Y-54446814D01*
X75757810Y-54535645D01*
X75763804Y-54538440D01*
X75769112Y-54539862D01*
X75769114Y-54539863D01*
X75834949Y-54557503D01*
X75978537Y-54595978D01*
X76200000Y-54615353D01*
X76421463Y-54595978D01*
X76565051Y-54557503D01*
X76630886Y-54539863D01*
X76630888Y-54539862D01*
X76636196Y-54538440D01*
X76642190Y-54535645D01*
X76832690Y-54446814D01*
X76832695Y-54446811D01*
X76837677Y-54444488D01*
X76939505Y-54373187D01*
X77015270Y-54320136D01*
X77015273Y-54320134D01*
X77019781Y-54316977D01*
X77176977Y-54159781D01*
X77264894Y-54034223D01*
X77301331Y-53982185D01*
X77301332Y-53982183D01*
X77304488Y-53977676D01*
X77306811Y-53972694D01*
X77306814Y-53972689D01*
X77355805Y-53867627D01*
X77402723Y-53814342D01*
X77471000Y-53794881D01*
X77538960Y-53815423D01*
X77584195Y-53867627D01*
X77633186Y-53972689D01*
X77633189Y-53972694D01*
X77635512Y-53977676D01*
X77638668Y-53982183D01*
X77638669Y-53982185D01*
X77675107Y-54034223D01*
X77763023Y-54159781D01*
X77920219Y-54316977D01*
X77924727Y-54320134D01*
X77924730Y-54320136D01*
X78000495Y-54373187D01*
X78102323Y-54444488D01*
X78107305Y-54446811D01*
X78107310Y-54446814D01*
X78297810Y-54535645D01*
X78303804Y-54538440D01*
X78309112Y-54539862D01*
X78309114Y-54539863D01*
X78374949Y-54557503D01*
X78518537Y-54595978D01*
X78740000Y-54615353D01*
X78961463Y-54595978D01*
X79105051Y-54557503D01*
X79170886Y-54539863D01*
X79170888Y-54539862D01*
X79176196Y-54538440D01*
X79182190Y-54535645D01*
X79372690Y-54446814D01*
X79372695Y-54446811D01*
X79377677Y-54444488D01*
X79479505Y-54373187D01*
X79555270Y-54320136D01*
X79555273Y-54320134D01*
X79559781Y-54316977D01*
X79716977Y-54159781D01*
X79804894Y-54034223D01*
X79841331Y-53982185D01*
X79841332Y-53982183D01*
X79844488Y-53977676D01*
X79846811Y-53972694D01*
X79846814Y-53972689D01*
X79895805Y-53867627D01*
X79942723Y-53814342D01*
X80011000Y-53794881D01*
X80078960Y-53815423D01*
X80124195Y-53867627D01*
X80173186Y-53972689D01*
X80173189Y-53972694D01*
X80175512Y-53977676D01*
X80178668Y-53982183D01*
X80178669Y-53982185D01*
X80215107Y-54034223D01*
X80303023Y-54159781D01*
X80460219Y-54316977D01*
X80464727Y-54320134D01*
X80464730Y-54320136D01*
X80540495Y-54373187D01*
X80642323Y-54444488D01*
X80647305Y-54446811D01*
X80647310Y-54446814D01*
X80837810Y-54535645D01*
X80843804Y-54538440D01*
X80849112Y-54539862D01*
X80849114Y-54539863D01*
X80914949Y-54557503D01*
X81058537Y-54595978D01*
X81280000Y-54615353D01*
X81501463Y-54595978D01*
X81645051Y-54557503D01*
X81710886Y-54539863D01*
X81710888Y-54539862D01*
X81716196Y-54538440D01*
X81722190Y-54535645D01*
X81912690Y-54446814D01*
X81912695Y-54446811D01*
X81917677Y-54444488D01*
X82019505Y-54373187D01*
X82095270Y-54320136D01*
X82095273Y-54320134D01*
X82099781Y-54316977D01*
X82256977Y-54159781D01*
X82344894Y-54034223D01*
X82381331Y-53982185D01*
X82381332Y-53982183D01*
X82384488Y-53977676D01*
X82386811Y-53972694D01*
X82386814Y-53972689D01*
X82435805Y-53867627D01*
X82482723Y-53814342D01*
X82551000Y-53794881D01*
X82618960Y-53815423D01*
X82664195Y-53867627D01*
X82713186Y-53972689D01*
X82713189Y-53972694D01*
X82715512Y-53977676D01*
X82718668Y-53982183D01*
X82718669Y-53982185D01*
X82755107Y-54034223D01*
X82843023Y-54159781D01*
X83000219Y-54316977D01*
X83004727Y-54320134D01*
X83004730Y-54320136D01*
X83080495Y-54373187D01*
X83182323Y-54444488D01*
X83187305Y-54446811D01*
X83187310Y-54446814D01*
X83377810Y-54535645D01*
X83383804Y-54538440D01*
X83389112Y-54539862D01*
X83389114Y-54539863D01*
X83454949Y-54557503D01*
X83598537Y-54595978D01*
X83820000Y-54615353D01*
X84041463Y-54595978D01*
X84185051Y-54557503D01*
X84250886Y-54539863D01*
X84250888Y-54539862D01*
X84256196Y-54538440D01*
X84262190Y-54535645D01*
X84452690Y-54446814D01*
X84452695Y-54446811D01*
X84457677Y-54444488D01*
X84559505Y-54373187D01*
X84635270Y-54320136D01*
X84635273Y-54320134D01*
X84639781Y-54316977D01*
X84796977Y-54159781D01*
X84884894Y-54034223D01*
X84921331Y-53982185D01*
X84921332Y-53982183D01*
X84924488Y-53977676D01*
X84926811Y-53972694D01*
X84926814Y-53972689D01*
X84975805Y-53867627D01*
X85022723Y-53814342D01*
X85091000Y-53794881D01*
X85158960Y-53815423D01*
X85204195Y-53867627D01*
X85253186Y-53972689D01*
X85253189Y-53972694D01*
X85255512Y-53977676D01*
X85258668Y-53982183D01*
X85258669Y-53982185D01*
X85295107Y-54034223D01*
X85383023Y-54159781D01*
X85540219Y-54316977D01*
X85544727Y-54320134D01*
X85544730Y-54320136D01*
X85620495Y-54373187D01*
X85722323Y-54444488D01*
X85727305Y-54446811D01*
X85727310Y-54446814D01*
X85917810Y-54535645D01*
X85923804Y-54538440D01*
X85929112Y-54539862D01*
X85929114Y-54539863D01*
X85994949Y-54557503D01*
X86138537Y-54595978D01*
X86360000Y-54615353D01*
X86581463Y-54595978D01*
X86725051Y-54557503D01*
X86790886Y-54539863D01*
X86790888Y-54539862D01*
X86796196Y-54538440D01*
X86802190Y-54535645D01*
X86992690Y-54446814D01*
X86992695Y-54446811D01*
X86997677Y-54444488D01*
X87099505Y-54373187D01*
X87175270Y-54320136D01*
X87175273Y-54320134D01*
X87179781Y-54316977D01*
X87336977Y-54159781D01*
X87424894Y-54034223D01*
X87461331Y-53982185D01*
X87461332Y-53982183D01*
X87464488Y-53977676D01*
X87466811Y-53972694D01*
X87466814Y-53972689D01*
X87515805Y-53867627D01*
X87562723Y-53814342D01*
X87631000Y-53794881D01*
X87698960Y-53815423D01*
X87744195Y-53867627D01*
X87793186Y-53972689D01*
X87793189Y-53972694D01*
X87795512Y-53977676D01*
X87798668Y-53982183D01*
X87798669Y-53982185D01*
X87835107Y-54034223D01*
X87923023Y-54159781D01*
X88080219Y-54316977D01*
X88084727Y-54320134D01*
X88084730Y-54320136D01*
X88160495Y-54373187D01*
X88262323Y-54444488D01*
X88267305Y-54446811D01*
X88267310Y-54446814D01*
X88457810Y-54535645D01*
X88463804Y-54538440D01*
X88469112Y-54539862D01*
X88469114Y-54539863D01*
X88534949Y-54557503D01*
X88678537Y-54595978D01*
X88900000Y-54615353D01*
X89121463Y-54595978D01*
X89265051Y-54557503D01*
X89330886Y-54539863D01*
X89330888Y-54539862D01*
X89336196Y-54538440D01*
X89342190Y-54535645D01*
X89532690Y-54446814D01*
X89532695Y-54446811D01*
X89537677Y-54444488D01*
X89639505Y-54373187D01*
X89715270Y-54320136D01*
X89715273Y-54320134D01*
X89719781Y-54316977D01*
X89876977Y-54159781D01*
X89964894Y-54034223D01*
X90001331Y-53982185D01*
X90001332Y-53982183D01*
X90004488Y-53977676D01*
X90006811Y-53972694D01*
X90006814Y-53972689D01*
X90055805Y-53867627D01*
X90102723Y-53814342D01*
X90171000Y-53794881D01*
X90238960Y-53815423D01*
X90284195Y-53867627D01*
X90333186Y-53972689D01*
X90333189Y-53972694D01*
X90335512Y-53977676D01*
X90338668Y-53982183D01*
X90338669Y-53982185D01*
X90375107Y-54034223D01*
X90463023Y-54159781D01*
X90620219Y-54316977D01*
X90624727Y-54320134D01*
X90624730Y-54320136D01*
X90700495Y-54373187D01*
X90802323Y-54444488D01*
X90807305Y-54446811D01*
X90807310Y-54446814D01*
X90997810Y-54535645D01*
X91003804Y-54538440D01*
X91009112Y-54539862D01*
X91009114Y-54539863D01*
X91074949Y-54557503D01*
X91218537Y-54595978D01*
X91440000Y-54615353D01*
X91661463Y-54595978D01*
X91805051Y-54557503D01*
X91870886Y-54539863D01*
X91870888Y-54539862D01*
X91876196Y-54538440D01*
X91882190Y-54535645D01*
X92072690Y-54446814D01*
X92072695Y-54446811D01*
X92077677Y-54444488D01*
X92179505Y-54373187D01*
X92255270Y-54320136D01*
X92255273Y-54320134D01*
X92259781Y-54316977D01*
X92416977Y-54159781D01*
X92504894Y-54034223D01*
X92541331Y-53982185D01*
X92541332Y-53982183D01*
X92544488Y-53977676D01*
X92546811Y-53972694D01*
X92546814Y-53972689D01*
X92595805Y-53867627D01*
X92642723Y-53814342D01*
X92711000Y-53794881D01*
X92778960Y-53815423D01*
X92824195Y-53867627D01*
X92873186Y-53972689D01*
X92873189Y-53972694D01*
X92875512Y-53977676D01*
X92878668Y-53982183D01*
X92878669Y-53982185D01*
X92915107Y-54034223D01*
X93003023Y-54159781D01*
X93160219Y-54316977D01*
X93164727Y-54320134D01*
X93164730Y-54320136D01*
X93240495Y-54373187D01*
X93342323Y-54444488D01*
X93347305Y-54446811D01*
X93347310Y-54446814D01*
X93537810Y-54535645D01*
X93543804Y-54538440D01*
X93549112Y-54539862D01*
X93549114Y-54539863D01*
X93614949Y-54557503D01*
X93758537Y-54595978D01*
X93980000Y-54615353D01*
X94201463Y-54595978D01*
X94345051Y-54557503D01*
X94410886Y-54539863D01*
X94410888Y-54539862D01*
X94416196Y-54538440D01*
X94422190Y-54535645D01*
X94612690Y-54446814D01*
X94612695Y-54446811D01*
X94617677Y-54444488D01*
X94719505Y-54373187D01*
X94795270Y-54320136D01*
X94795273Y-54320134D01*
X94799781Y-54316977D01*
X94956977Y-54159781D01*
X95044894Y-54034223D01*
X95081331Y-53982185D01*
X95081332Y-53982183D01*
X95084488Y-53977676D01*
X95086811Y-53972694D01*
X95086814Y-53972689D01*
X95135805Y-53867627D01*
X95182723Y-53814342D01*
X95251000Y-53794881D01*
X95318960Y-53815423D01*
X95364195Y-53867627D01*
X95413186Y-53972689D01*
X95413189Y-53972694D01*
X95415512Y-53977676D01*
X95418668Y-53982183D01*
X95418669Y-53982185D01*
X95455107Y-54034223D01*
X95543023Y-54159781D01*
X95700219Y-54316977D01*
X95704727Y-54320134D01*
X95704730Y-54320136D01*
X95780495Y-54373187D01*
X95882323Y-54444488D01*
X95887305Y-54446811D01*
X95887310Y-54446814D01*
X96077810Y-54535645D01*
X96083804Y-54538440D01*
X96089112Y-54539862D01*
X96089114Y-54539863D01*
X96154949Y-54557503D01*
X96298537Y-54595978D01*
X96520000Y-54615353D01*
X96741463Y-54595978D01*
X96885051Y-54557503D01*
X96950886Y-54539863D01*
X96950888Y-54539862D01*
X96956196Y-54538440D01*
X96962190Y-54535645D01*
X97152690Y-54446814D01*
X97152695Y-54446811D01*
X97157677Y-54444488D01*
X97259505Y-54373187D01*
X97335270Y-54320136D01*
X97335273Y-54320134D01*
X97339781Y-54316977D01*
X97496977Y-54159781D01*
X97584894Y-54034223D01*
X97621331Y-53982185D01*
X97621332Y-53982183D01*
X97624488Y-53977676D01*
X97626811Y-53972694D01*
X97626814Y-53972689D01*
X97675805Y-53867627D01*
X97722723Y-53814342D01*
X97791000Y-53794881D01*
X97858960Y-53815423D01*
X97904195Y-53867627D01*
X97953186Y-53972689D01*
X97953189Y-53972694D01*
X97955512Y-53977676D01*
X97958668Y-53982183D01*
X97958669Y-53982185D01*
X97995107Y-54034223D01*
X98083023Y-54159781D01*
X98240219Y-54316977D01*
X98244727Y-54320134D01*
X98244730Y-54320136D01*
X98320495Y-54373187D01*
X98422323Y-54444488D01*
X98427305Y-54446811D01*
X98427310Y-54446814D01*
X98617810Y-54535645D01*
X98623804Y-54538440D01*
X98629112Y-54539862D01*
X98629114Y-54539863D01*
X98694949Y-54557503D01*
X98838537Y-54595978D01*
X99060000Y-54615353D01*
X99281463Y-54595978D01*
X99425051Y-54557503D01*
X99490886Y-54539863D01*
X99490888Y-54539862D01*
X99496196Y-54538440D01*
X99502190Y-54535645D01*
X99692690Y-54446814D01*
X99692695Y-54446811D01*
X99697677Y-54444488D01*
X99799505Y-54373187D01*
X99875270Y-54320136D01*
X99875273Y-54320134D01*
X99879781Y-54316977D01*
X100036977Y-54159781D01*
X100124894Y-54034223D01*
X100161331Y-53982185D01*
X100161332Y-53982183D01*
X100164488Y-53977676D01*
X100166811Y-53972694D01*
X100166814Y-53972689D01*
X100215805Y-53867627D01*
X100262723Y-53814342D01*
X100331000Y-53794881D01*
X100398960Y-53815423D01*
X100444195Y-53867627D01*
X100493186Y-53972689D01*
X100493189Y-53972694D01*
X100495512Y-53977676D01*
X100498668Y-53982183D01*
X100498669Y-53982185D01*
X100535107Y-54034223D01*
X100623023Y-54159781D01*
X100780219Y-54316977D01*
X100784727Y-54320134D01*
X100784730Y-54320136D01*
X100860495Y-54373187D01*
X100962323Y-54444488D01*
X100967305Y-54446811D01*
X100967310Y-54446814D01*
X101157810Y-54535645D01*
X101163804Y-54538440D01*
X101169112Y-54539862D01*
X101169114Y-54539863D01*
X101234949Y-54557503D01*
X101378537Y-54595978D01*
X101600000Y-54615353D01*
X101821463Y-54595978D01*
X101965051Y-54557503D01*
X102030886Y-54539863D01*
X102030888Y-54539862D01*
X102036196Y-54538440D01*
X102042190Y-54535645D01*
X102232690Y-54446814D01*
X102232695Y-54446811D01*
X102237677Y-54444488D01*
X102339505Y-54373187D01*
X102415270Y-54320136D01*
X102415273Y-54320134D01*
X102419781Y-54316977D01*
X102576977Y-54159781D01*
X102664894Y-54034223D01*
X102701331Y-53982185D01*
X102701332Y-53982183D01*
X102704488Y-53977676D01*
X102706811Y-53972694D01*
X102706814Y-53972689D01*
X102755805Y-53867627D01*
X102802723Y-53814342D01*
X102871000Y-53794881D01*
X102938960Y-53815423D01*
X102984195Y-53867627D01*
X103033186Y-53972689D01*
X103033189Y-53972694D01*
X103035512Y-53977676D01*
X103038668Y-53982183D01*
X103038669Y-53982185D01*
X103075107Y-54034223D01*
X103163023Y-54159781D01*
X103320219Y-54316977D01*
X103324727Y-54320134D01*
X103324730Y-54320136D01*
X103400495Y-54373187D01*
X103502323Y-54444488D01*
X103507305Y-54446811D01*
X103507310Y-54446814D01*
X103697810Y-54535645D01*
X103703804Y-54538440D01*
X103709112Y-54539862D01*
X103709114Y-54539863D01*
X103774949Y-54557503D01*
X103918537Y-54595978D01*
X104140000Y-54615353D01*
X104361463Y-54595978D01*
X104505051Y-54557503D01*
X104570886Y-54539863D01*
X104570888Y-54539862D01*
X104576196Y-54538440D01*
X104582190Y-54535645D01*
X104772690Y-54446814D01*
X104772695Y-54446811D01*
X104777677Y-54444488D01*
X104879505Y-54373187D01*
X104955270Y-54320136D01*
X104955273Y-54320134D01*
X104959781Y-54316977D01*
X105116977Y-54159781D01*
X105204894Y-54034223D01*
X105241331Y-53982185D01*
X105241332Y-53982183D01*
X105244488Y-53977676D01*
X105246811Y-53972694D01*
X105246814Y-53972689D01*
X105295805Y-53867627D01*
X105342723Y-53814342D01*
X105411000Y-53794881D01*
X105478960Y-53815423D01*
X105524195Y-53867627D01*
X105573186Y-53972689D01*
X105573189Y-53972694D01*
X105575512Y-53977676D01*
X105578668Y-53982183D01*
X105578669Y-53982185D01*
X105615107Y-54034223D01*
X105703023Y-54159781D01*
X105860219Y-54316977D01*
X105864727Y-54320134D01*
X105864730Y-54320136D01*
X105940495Y-54373187D01*
X106042323Y-54444488D01*
X106047305Y-54446811D01*
X106047310Y-54446814D01*
X106237810Y-54535645D01*
X106243804Y-54538440D01*
X106249112Y-54539862D01*
X106249114Y-54539863D01*
X106314949Y-54557503D01*
X106458537Y-54595978D01*
X106680000Y-54615353D01*
X106901463Y-54595978D01*
X107045051Y-54557503D01*
X107110886Y-54539863D01*
X107110888Y-54539862D01*
X107116196Y-54538440D01*
X107122190Y-54535645D01*
X107312690Y-54446814D01*
X107312695Y-54446811D01*
X107317677Y-54444488D01*
X107419505Y-54373187D01*
X107495270Y-54320136D01*
X107495273Y-54320134D01*
X107499781Y-54316977D01*
X107656977Y-54159781D01*
X107744894Y-54034223D01*
X107781331Y-53982185D01*
X107781332Y-53982183D01*
X107784488Y-53977676D01*
X107786811Y-53972694D01*
X107786814Y-53972689D01*
X107835805Y-53867627D01*
X107882723Y-53814342D01*
X107951000Y-53794881D01*
X108018960Y-53815423D01*
X108064195Y-53867627D01*
X108113186Y-53972689D01*
X108113189Y-53972694D01*
X108115512Y-53977676D01*
X108118668Y-53982183D01*
X108118669Y-53982185D01*
X108155107Y-54034223D01*
X108243023Y-54159781D01*
X108400219Y-54316977D01*
X108404727Y-54320134D01*
X108404730Y-54320136D01*
X108480495Y-54373187D01*
X108582323Y-54444488D01*
X108587305Y-54446811D01*
X108587310Y-54446814D01*
X108777810Y-54535645D01*
X108783804Y-54538440D01*
X108789112Y-54539862D01*
X108789114Y-54539863D01*
X108854949Y-54557503D01*
X108998537Y-54595978D01*
X109220000Y-54615353D01*
X109441463Y-54595978D01*
X109585051Y-54557503D01*
X109650886Y-54539863D01*
X109650888Y-54539862D01*
X109656196Y-54538440D01*
X109662190Y-54535645D01*
X109852690Y-54446814D01*
X109852695Y-54446811D01*
X109857677Y-54444488D01*
X109959505Y-54373187D01*
X110035270Y-54320136D01*
X110035273Y-54320134D01*
X110039781Y-54316977D01*
X110196977Y-54159781D01*
X110284894Y-54034223D01*
X110321331Y-53982185D01*
X110321332Y-53982183D01*
X110324488Y-53977676D01*
X110326811Y-53972694D01*
X110326814Y-53972689D01*
X110375805Y-53867627D01*
X110422723Y-53814342D01*
X110491000Y-53794881D01*
X110558960Y-53815423D01*
X110604195Y-53867627D01*
X110653186Y-53972689D01*
X110653189Y-53972694D01*
X110655512Y-53977676D01*
X110658668Y-53982183D01*
X110658669Y-53982185D01*
X110695107Y-54034223D01*
X110783023Y-54159781D01*
X110940219Y-54316977D01*
X110944727Y-54320134D01*
X110944730Y-54320136D01*
X111020495Y-54373187D01*
X111122323Y-54444488D01*
X111127305Y-54446811D01*
X111127310Y-54446814D01*
X111317810Y-54535645D01*
X111323804Y-54538440D01*
X111329112Y-54539862D01*
X111329114Y-54539863D01*
X111394949Y-54557503D01*
X111538537Y-54595978D01*
X111760000Y-54615353D01*
X111981463Y-54595978D01*
X112125051Y-54557503D01*
X112190886Y-54539863D01*
X112190888Y-54539862D01*
X112196196Y-54538440D01*
X112202190Y-54535645D01*
X112392690Y-54446814D01*
X112392695Y-54446811D01*
X112397677Y-54444488D01*
X112499505Y-54373187D01*
X112575270Y-54320136D01*
X112575273Y-54320134D01*
X112579781Y-54316977D01*
X112736977Y-54159781D01*
X112824894Y-54034223D01*
X112861331Y-53982185D01*
X112861332Y-53982183D01*
X112864488Y-53977676D01*
X112866811Y-53972694D01*
X112866814Y-53972689D01*
X112915805Y-53867627D01*
X112962723Y-53814342D01*
X113031000Y-53794881D01*
X113098960Y-53815423D01*
X113144195Y-53867627D01*
X113193186Y-53972689D01*
X113193189Y-53972694D01*
X113195512Y-53977676D01*
X113198668Y-53982183D01*
X113198669Y-53982185D01*
X113235107Y-54034223D01*
X113323023Y-54159781D01*
X113480219Y-54316977D01*
X113484727Y-54320134D01*
X113484730Y-54320136D01*
X113560495Y-54373187D01*
X113662323Y-54444488D01*
X113667305Y-54446811D01*
X113667310Y-54446814D01*
X113857810Y-54535645D01*
X113863804Y-54538440D01*
X113869112Y-54539862D01*
X113869114Y-54539863D01*
X113934949Y-54557503D01*
X114078537Y-54595978D01*
X114300000Y-54615353D01*
X114521463Y-54595978D01*
X114665051Y-54557503D01*
X114730886Y-54539863D01*
X114730888Y-54539862D01*
X114736196Y-54538440D01*
X114742190Y-54535645D01*
X114932690Y-54446814D01*
X114932695Y-54446811D01*
X114937677Y-54444488D01*
X115039505Y-54373187D01*
X115115270Y-54320136D01*
X115115273Y-54320134D01*
X115119781Y-54316977D01*
X115276977Y-54159781D01*
X115364894Y-54034223D01*
X115401331Y-53982185D01*
X115401332Y-53982183D01*
X115404488Y-53977676D01*
X115406811Y-53972694D01*
X115406814Y-53972689D01*
X115496117Y-53781178D01*
X115496118Y-53781177D01*
X115498440Y-53776196D01*
X115555978Y-53561463D01*
X115575353Y-53340000D01*
X115555978Y-53118537D01*
X115498440Y-52903804D01*
X115455805Y-52812373D01*
X115406814Y-52707311D01*
X115406811Y-52707306D01*
X115404488Y-52702324D01*
X115401331Y-52697815D01*
X115280136Y-52524730D01*
X115280134Y-52524727D01*
X115276977Y-52520219D01*
X115119781Y-52363023D01*
X115115273Y-52359866D01*
X115115270Y-52359864D01*
X115039505Y-52306813D01*
X114937677Y-52235512D01*
X114932695Y-52233189D01*
X114932690Y-52233186D01*
X114741178Y-52143883D01*
X114741177Y-52143882D01*
X114736196Y-52141560D01*
X114730888Y-52140138D01*
X114730886Y-52140137D01*
X114665051Y-52122497D01*
X114521463Y-52084022D01*
X114300000Y-52064647D01*
X114078537Y-52084022D01*
X113934949Y-52122497D01*
X113869114Y-52140137D01*
X113869112Y-52140138D01*
X113863804Y-52141560D01*
X113858823Y-52143882D01*
X113858822Y-52143883D01*
X113667311Y-52233186D01*
X113667306Y-52233189D01*
X113662324Y-52235512D01*
X113657817Y-52238668D01*
X113657815Y-52238669D01*
X113484730Y-52359864D01*
X113484727Y-52359866D01*
X113480219Y-52363023D01*
X113323023Y-52520219D01*
X113319866Y-52524727D01*
X113319864Y-52524730D01*
X113198669Y-52697815D01*
X113195512Y-52702324D01*
X113193189Y-52707306D01*
X113193186Y-52707311D01*
X113144195Y-52812373D01*
X113097277Y-52865658D01*
X113029000Y-52885119D01*
X112961040Y-52864577D01*
X112915805Y-52812373D01*
X112866814Y-52707311D01*
X112866811Y-52707306D01*
X112864488Y-52702324D01*
X112861331Y-52697815D01*
X112740136Y-52524730D01*
X112740134Y-52524727D01*
X112736977Y-52520219D01*
X112579781Y-52363023D01*
X112575273Y-52359866D01*
X112575270Y-52359864D01*
X112499505Y-52306813D01*
X112397677Y-52235512D01*
X112392695Y-52233189D01*
X112392690Y-52233186D01*
X112201178Y-52143883D01*
X112201177Y-52143882D01*
X112196196Y-52141560D01*
X112190888Y-52140138D01*
X112190886Y-52140137D01*
X112125051Y-52122497D01*
X111981463Y-52084022D01*
X111760000Y-52064647D01*
X111538537Y-52084022D01*
X111394949Y-52122497D01*
X111329114Y-52140137D01*
X111329112Y-52140138D01*
X111323804Y-52141560D01*
X111318823Y-52143882D01*
X111318822Y-52143883D01*
X111127311Y-52233186D01*
X111127306Y-52233189D01*
X111122324Y-52235512D01*
X111117817Y-52238668D01*
X111117815Y-52238669D01*
X110944730Y-52359864D01*
X110944727Y-52359866D01*
X110940219Y-52363023D01*
X110783023Y-52520219D01*
X110779866Y-52524727D01*
X110779864Y-52524730D01*
X110658669Y-52697815D01*
X110655512Y-52702324D01*
X110653189Y-52707306D01*
X110653186Y-52707311D01*
X110604195Y-52812373D01*
X110557277Y-52865658D01*
X110489000Y-52885119D01*
X110421040Y-52864577D01*
X110375805Y-52812373D01*
X110326814Y-52707311D01*
X110326811Y-52707306D01*
X110324488Y-52702324D01*
X110321331Y-52697815D01*
X110200136Y-52524730D01*
X110200134Y-52524727D01*
X110196977Y-52520219D01*
X110039781Y-52363023D01*
X110035273Y-52359866D01*
X110035270Y-52359864D01*
X109959505Y-52306813D01*
X109857677Y-52235512D01*
X109852695Y-52233189D01*
X109852690Y-52233186D01*
X109661178Y-52143883D01*
X109661177Y-52143882D01*
X109656196Y-52141560D01*
X109650888Y-52140138D01*
X109650886Y-52140137D01*
X109585051Y-52122497D01*
X109441463Y-52084022D01*
X109220000Y-52064647D01*
X108998537Y-52084022D01*
X108854949Y-52122497D01*
X108789114Y-52140137D01*
X108789112Y-52140138D01*
X108783804Y-52141560D01*
X108778823Y-52143882D01*
X108778822Y-52143883D01*
X108587311Y-52233186D01*
X108587306Y-52233189D01*
X108582324Y-52235512D01*
X108577817Y-52238668D01*
X108577815Y-52238669D01*
X108404730Y-52359864D01*
X108404727Y-52359866D01*
X108400219Y-52363023D01*
X108243023Y-52520219D01*
X108239866Y-52524727D01*
X108239864Y-52524730D01*
X108118669Y-52697815D01*
X108115512Y-52702324D01*
X108113189Y-52707306D01*
X108113186Y-52707311D01*
X108064195Y-52812373D01*
X108017277Y-52865658D01*
X107949000Y-52885119D01*
X107881040Y-52864577D01*
X107835805Y-52812373D01*
X107786814Y-52707311D01*
X107786811Y-52707306D01*
X107784488Y-52702324D01*
X107781331Y-52697815D01*
X107660136Y-52524730D01*
X107660134Y-52524727D01*
X107656977Y-52520219D01*
X107499781Y-52363023D01*
X107495273Y-52359866D01*
X107495270Y-52359864D01*
X107419505Y-52306813D01*
X107317677Y-52235512D01*
X107312695Y-52233189D01*
X107312690Y-52233186D01*
X107121178Y-52143883D01*
X107121177Y-52143882D01*
X107116196Y-52141560D01*
X107110888Y-52140138D01*
X107110886Y-52140137D01*
X107045051Y-52122497D01*
X106901463Y-52084022D01*
X106680000Y-52064647D01*
X106458537Y-52084022D01*
X106314949Y-52122497D01*
X106249114Y-52140137D01*
X106249112Y-52140138D01*
X106243804Y-52141560D01*
X106238823Y-52143882D01*
X106238822Y-52143883D01*
X106047311Y-52233186D01*
X106047306Y-52233189D01*
X106042324Y-52235512D01*
X106037817Y-52238668D01*
X106037815Y-52238669D01*
X105864730Y-52359864D01*
X105864727Y-52359866D01*
X105860219Y-52363023D01*
X105703023Y-52520219D01*
X105699866Y-52524727D01*
X105699864Y-52524730D01*
X105578669Y-52697815D01*
X105575512Y-52702324D01*
X105573189Y-52707306D01*
X105573186Y-52707311D01*
X105524195Y-52812373D01*
X105477277Y-52865658D01*
X105409000Y-52885119D01*
X105341040Y-52864577D01*
X105295805Y-52812373D01*
X105246814Y-52707311D01*
X105246811Y-52707306D01*
X105244488Y-52702324D01*
X105241331Y-52697815D01*
X105120136Y-52524730D01*
X105120134Y-52524727D01*
X105116977Y-52520219D01*
X104959781Y-52363023D01*
X104955273Y-52359866D01*
X104955270Y-52359864D01*
X104879505Y-52306813D01*
X104777677Y-52235512D01*
X104772695Y-52233189D01*
X104772690Y-52233186D01*
X104581178Y-52143883D01*
X104581177Y-52143882D01*
X104576196Y-52141560D01*
X104570888Y-52140138D01*
X104570886Y-52140137D01*
X104505051Y-52122497D01*
X104361463Y-52084022D01*
X104140000Y-52064647D01*
X103918537Y-52084022D01*
X103774949Y-52122497D01*
X103709114Y-52140137D01*
X103709112Y-52140138D01*
X103703804Y-52141560D01*
X103698823Y-52143882D01*
X103698822Y-52143883D01*
X103507311Y-52233186D01*
X103507306Y-52233189D01*
X103502324Y-52235512D01*
X103497817Y-52238668D01*
X103497815Y-52238669D01*
X103324730Y-52359864D01*
X103324727Y-52359866D01*
X103320219Y-52363023D01*
X103163023Y-52520219D01*
X103159866Y-52524727D01*
X103159864Y-52524730D01*
X103038669Y-52697815D01*
X103035512Y-52702324D01*
X103033189Y-52707306D01*
X103033186Y-52707311D01*
X102984195Y-52812373D01*
X102937277Y-52865658D01*
X102869000Y-52885119D01*
X102801040Y-52864577D01*
X102755805Y-52812373D01*
X102706814Y-52707311D01*
X102706811Y-52707306D01*
X102704488Y-52702324D01*
X102701331Y-52697815D01*
X102580136Y-52524730D01*
X102580134Y-52524727D01*
X102576977Y-52520219D01*
X102419781Y-52363023D01*
X102415273Y-52359866D01*
X102415270Y-52359864D01*
X102339505Y-52306813D01*
X102237677Y-52235512D01*
X102232695Y-52233189D01*
X102232690Y-52233186D01*
X102041178Y-52143883D01*
X102041177Y-52143882D01*
X102036196Y-52141560D01*
X102030888Y-52140138D01*
X102030886Y-52140137D01*
X101965051Y-52122497D01*
X101821463Y-52084022D01*
X101600000Y-52064647D01*
X101378537Y-52084022D01*
X101234949Y-52122497D01*
X101169114Y-52140137D01*
X101169112Y-52140138D01*
X101163804Y-52141560D01*
X101158823Y-52143882D01*
X101158822Y-52143883D01*
X100967311Y-52233186D01*
X100967306Y-52233189D01*
X100962324Y-52235512D01*
X100957817Y-52238668D01*
X100957815Y-52238669D01*
X100784730Y-52359864D01*
X100784727Y-52359866D01*
X100780219Y-52363023D01*
X100623023Y-52520219D01*
X100619866Y-52524727D01*
X100619864Y-52524730D01*
X100498669Y-52697815D01*
X100495512Y-52702324D01*
X100493189Y-52707306D01*
X100493186Y-52707311D01*
X100444195Y-52812373D01*
X100397277Y-52865658D01*
X100329000Y-52885119D01*
X100261040Y-52864577D01*
X100215805Y-52812373D01*
X100166814Y-52707311D01*
X100166811Y-52707306D01*
X100164488Y-52702324D01*
X100161331Y-52697815D01*
X100040136Y-52524730D01*
X100040134Y-52524727D01*
X100036977Y-52520219D01*
X99879781Y-52363023D01*
X99875273Y-52359866D01*
X99875270Y-52359864D01*
X99799505Y-52306813D01*
X99697677Y-52235512D01*
X99692695Y-52233189D01*
X99692690Y-52233186D01*
X99501178Y-52143883D01*
X99501177Y-52143882D01*
X99496196Y-52141560D01*
X99490888Y-52140138D01*
X99490886Y-52140137D01*
X99425051Y-52122497D01*
X99281463Y-52084022D01*
X99060000Y-52064647D01*
X98838537Y-52084022D01*
X98694949Y-52122497D01*
X98629114Y-52140137D01*
X98629112Y-52140138D01*
X98623804Y-52141560D01*
X98618823Y-52143882D01*
X98618822Y-52143883D01*
X98427311Y-52233186D01*
X98427306Y-52233189D01*
X98422324Y-52235512D01*
X98417817Y-52238668D01*
X98417815Y-52238669D01*
X98244730Y-52359864D01*
X98244727Y-52359866D01*
X98240219Y-52363023D01*
X98083023Y-52520219D01*
X98079866Y-52524727D01*
X98079864Y-52524730D01*
X97958669Y-52697815D01*
X97955512Y-52702324D01*
X97953189Y-52707306D01*
X97953186Y-52707311D01*
X97904195Y-52812373D01*
X97857277Y-52865658D01*
X97789000Y-52885119D01*
X97721040Y-52864577D01*
X97675805Y-52812373D01*
X97626814Y-52707311D01*
X97626811Y-52707306D01*
X97624488Y-52702324D01*
X97621331Y-52697815D01*
X97500136Y-52524730D01*
X97500134Y-52524727D01*
X97496977Y-52520219D01*
X97339781Y-52363023D01*
X97335273Y-52359866D01*
X97335270Y-52359864D01*
X97259505Y-52306813D01*
X97157677Y-52235512D01*
X97152695Y-52233189D01*
X97152690Y-52233186D01*
X96961178Y-52143883D01*
X96961177Y-52143882D01*
X96956196Y-52141560D01*
X96950888Y-52140138D01*
X96950886Y-52140137D01*
X96885051Y-52122497D01*
X96741463Y-52084022D01*
X96520000Y-52064647D01*
X96298537Y-52084022D01*
X96154949Y-52122497D01*
X96089114Y-52140137D01*
X96089112Y-52140138D01*
X96083804Y-52141560D01*
X96078823Y-52143882D01*
X96078822Y-52143883D01*
X95887311Y-52233186D01*
X95887306Y-52233189D01*
X95882324Y-52235512D01*
X95877817Y-52238668D01*
X95877815Y-52238669D01*
X95704730Y-52359864D01*
X95704727Y-52359866D01*
X95700219Y-52363023D01*
X95543023Y-52520219D01*
X95539866Y-52524727D01*
X95539864Y-52524730D01*
X95418669Y-52697815D01*
X95415512Y-52702324D01*
X95413189Y-52707306D01*
X95413186Y-52707311D01*
X95364195Y-52812373D01*
X95317277Y-52865658D01*
X95249000Y-52885119D01*
X95181040Y-52864577D01*
X95135805Y-52812373D01*
X95086814Y-52707311D01*
X95086811Y-52707306D01*
X95084488Y-52702324D01*
X95081331Y-52697815D01*
X94960136Y-52524730D01*
X94960134Y-52524727D01*
X94956977Y-52520219D01*
X94799781Y-52363023D01*
X94795273Y-52359866D01*
X94795270Y-52359864D01*
X94719505Y-52306813D01*
X94617677Y-52235512D01*
X94612695Y-52233189D01*
X94612690Y-52233186D01*
X94421178Y-52143883D01*
X94421177Y-52143882D01*
X94416196Y-52141560D01*
X94410888Y-52140138D01*
X94410886Y-52140137D01*
X94345051Y-52122497D01*
X94201463Y-52084022D01*
X93980000Y-52064647D01*
X93758537Y-52084022D01*
X93614949Y-52122497D01*
X93549114Y-52140137D01*
X93549112Y-52140138D01*
X93543804Y-52141560D01*
X93538823Y-52143882D01*
X93538822Y-52143883D01*
X93347311Y-52233186D01*
X93347306Y-52233189D01*
X93342324Y-52235512D01*
X93337817Y-52238668D01*
X93337815Y-52238669D01*
X93164730Y-52359864D01*
X93164727Y-52359866D01*
X93160219Y-52363023D01*
X93003023Y-52520219D01*
X92999866Y-52524727D01*
X92999864Y-52524730D01*
X92878669Y-52697815D01*
X92875512Y-52702324D01*
X92873189Y-52707306D01*
X92873186Y-52707311D01*
X92824195Y-52812373D01*
X92777277Y-52865658D01*
X92709000Y-52885119D01*
X92641040Y-52864577D01*
X92595805Y-52812373D01*
X92546814Y-52707311D01*
X92546811Y-52707306D01*
X92544488Y-52702324D01*
X92541331Y-52697815D01*
X92420136Y-52524730D01*
X92420134Y-52524727D01*
X92416977Y-52520219D01*
X92259781Y-52363023D01*
X92255273Y-52359866D01*
X92255270Y-52359864D01*
X92179505Y-52306813D01*
X92077677Y-52235512D01*
X92072695Y-52233189D01*
X92072690Y-52233186D01*
X91881178Y-52143883D01*
X91881177Y-52143882D01*
X91876196Y-52141560D01*
X91870888Y-52140138D01*
X91870886Y-52140137D01*
X91805051Y-52122497D01*
X91661463Y-52084022D01*
X91440000Y-52064647D01*
X91218537Y-52084022D01*
X91074949Y-52122497D01*
X91009114Y-52140137D01*
X91009112Y-52140138D01*
X91003804Y-52141560D01*
X90998823Y-52143882D01*
X90998822Y-52143883D01*
X90807311Y-52233186D01*
X90807306Y-52233189D01*
X90802324Y-52235512D01*
X90797817Y-52238668D01*
X90797815Y-52238669D01*
X90624730Y-52359864D01*
X90624727Y-52359866D01*
X90620219Y-52363023D01*
X90463023Y-52520219D01*
X90459866Y-52524727D01*
X90459864Y-52524730D01*
X90338669Y-52697815D01*
X90335512Y-52702324D01*
X90333189Y-52707306D01*
X90333186Y-52707311D01*
X90284195Y-52812373D01*
X90237277Y-52865658D01*
X90169000Y-52885119D01*
X90101040Y-52864577D01*
X90055805Y-52812373D01*
X90006814Y-52707311D01*
X90006811Y-52707306D01*
X90004488Y-52702324D01*
X90001331Y-52697815D01*
X89880136Y-52524730D01*
X89880134Y-52524727D01*
X89876977Y-52520219D01*
X89719781Y-52363023D01*
X89715273Y-52359866D01*
X89715270Y-52359864D01*
X89639505Y-52306813D01*
X89537677Y-52235512D01*
X89532695Y-52233189D01*
X89532690Y-52233186D01*
X89341178Y-52143883D01*
X89341177Y-52143882D01*
X89336196Y-52141560D01*
X89330888Y-52140138D01*
X89330886Y-52140137D01*
X89265051Y-52122497D01*
X89121463Y-52084022D01*
X88900000Y-52064647D01*
X88678537Y-52084022D01*
X88534949Y-52122497D01*
X88469114Y-52140137D01*
X88469112Y-52140138D01*
X88463804Y-52141560D01*
X88458823Y-52143882D01*
X88458822Y-52143883D01*
X88267311Y-52233186D01*
X88267306Y-52233189D01*
X88262324Y-52235512D01*
X88257817Y-52238668D01*
X88257815Y-52238669D01*
X88084730Y-52359864D01*
X88084727Y-52359866D01*
X88080219Y-52363023D01*
X87923023Y-52520219D01*
X87919866Y-52524727D01*
X87919864Y-52524730D01*
X87798669Y-52697815D01*
X87795512Y-52702324D01*
X87793189Y-52707306D01*
X87793186Y-52707311D01*
X87744195Y-52812373D01*
X87697277Y-52865658D01*
X87629000Y-52885119D01*
X87561040Y-52864577D01*
X87515805Y-52812373D01*
X87466814Y-52707311D01*
X87466811Y-52707306D01*
X87464488Y-52702324D01*
X87461331Y-52697815D01*
X87340136Y-52524730D01*
X87340134Y-52524727D01*
X87336977Y-52520219D01*
X87179781Y-52363023D01*
X87175273Y-52359866D01*
X87175270Y-52359864D01*
X87099505Y-52306813D01*
X86997677Y-52235512D01*
X86992695Y-52233189D01*
X86992690Y-52233186D01*
X86801178Y-52143883D01*
X86801177Y-52143882D01*
X86796196Y-52141560D01*
X86790888Y-52140138D01*
X86790886Y-52140137D01*
X86725051Y-52122497D01*
X86581463Y-52084022D01*
X86360000Y-52064647D01*
X86138537Y-52084022D01*
X85994949Y-52122497D01*
X85929114Y-52140137D01*
X85929112Y-52140138D01*
X85923804Y-52141560D01*
X85918823Y-52143882D01*
X85918822Y-52143883D01*
X85727311Y-52233186D01*
X85727306Y-52233189D01*
X85722324Y-52235512D01*
X85717817Y-52238668D01*
X85717815Y-52238669D01*
X85544730Y-52359864D01*
X85544727Y-52359866D01*
X85540219Y-52363023D01*
X85383023Y-52520219D01*
X85379866Y-52524727D01*
X85379864Y-52524730D01*
X85258669Y-52697815D01*
X85255512Y-52702324D01*
X85253189Y-52707306D01*
X85253186Y-52707311D01*
X85204195Y-52812373D01*
X85157277Y-52865658D01*
X85089000Y-52885119D01*
X85021040Y-52864577D01*
X84975805Y-52812373D01*
X84926814Y-52707311D01*
X84926811Y-52707306D01*
X84924488Y-52702324D01*
X84921331Y-52697815D01*
X84800136Y-52524730D01*
X84800134Y-52524727D01*
X84796977Y-52520219D01*
X84639781Y-52363023D01*
X84635273Y-52359866D01*
X84635270Y-52359864D01*
X84559505Y-52306813D01*
X84457677Y-52235512D01*
X84452695Y-52233189D01*
X84452690Y-52233186D01*
X84261178Y-52143883D01*
X84261177Y-52143882D01*
X84256196Y-52141560D01*
X84250888Y-52140138D01*
X84250886Y-52140137D01*
X84185051Y-52122497D01*
X84041463Y-52084022D01*
X83820000Y-52064647D01*
X83598537Y-52084022D01*
X83454949Y-52122497D01*
X83389114Y-52140137D01*
X83389112Y-52140138D01*
X83383804Y-52141560D01*
X83378823Y-52143882D01*
X83378822Y-52143883D01*
X83187311Y-52233186D01*
X83187306Y-52233189D01*
X83182324Y-52235512D01*
X83177817Y-52238668D01*
X83177815Y-52238669D01*
X83004730Y-52359864D01*
X83004727Y-52359866D01*
X83000219Y-52363023D01*
X82843023Y-52520219D01*
X82839866Y-52524727D01*
X82839864Y-52524730D01*
X82718669Y-52697815D01*
X82715512Y-52702324D01*
X82713189Y-52707306D01*
X82713186Y-52707311D01*
X82664195Y-52812373D01*
X82617277Y-52865658D01*
X82549000Y-52885119D01*
X82481040Y-52864577D01*
X82435805Y-52812373D01*
X82386814Y-52707311D01*
X82386811Y-52707306D01*
X82384488Y-52702324D01*
X82381331Y-52697815D01*
X82260136Y-52524730D01*
X82260134Y-52524727D01*
X82256977Y-52520219D01*
X82099781Y-52363023D01*
X82095273Y-52359866D01*
X82095270Y-52359864D01*
X82019505Y-52306813D01*
X81917677Y-52235512D01*
X81912695Y-52233189D01*
X81912690Y-52233186D01*
X81721178Y-52143883D01*
X81721177Y-52143882D01*
X81716196Y-52141560D01*
X81710888Y-52140138D01*
X81710886Y-52140137D01*
X81645051Y-52122497D01*
X81501463Y-52084022D01*
X81280000Y-52064647D01*
X81058537Y-52084022D01*
X80914949Y-52122497D01*
X80849114Y-52140137D01*
X80849112Y-52140138D01*
X80843804Y-52141560D01*
X80838823Y-52143882D01*
X80838822Y-52143883D01*
X80647311Y-52233186D01*
X80647306Y-52233189D01*
X80642324Y-52235512D01*
X80637817Y-52238668D01*
X80637815Y-52238669D01*
X80464730Y-52359864D01*
X80464727Y-52359866D01*
X80460219Y-52363023D01*
X80303023Y-52520219D01*
X80299866Y-52524727D01*
X80299864Y-52524730D01*
X80178669Y-52697815D01*
X80175512Y-52702324D01*
X80173189Y-52707306D01*
X80173186Y-52707311D01*
X80124195Y-52812373D01*
X80077277Y-52865658D01*
X80009000Y-52885119D01*
X79941040Y-52864577D01*
X79895805Y-52812373D01*
X79846814Y-52707311D01*
X79846811Y-52707306D01*
X79844488Y-52702324D01*
X79841331Y-52697815D01*
X79720136Y-52524730D01*
X79720134Y-52524727D01*
X79716977Y-52520219D01*
X79559781Y-52363023D01*
X79555273Y-52359866D01*
X79555270Y-52359864D01*
X79479505Y-52306813D01*
X79377677Y-52235512D01*
X79372695Y-52233189D01*
X79372690Y-52233186D01*
X79181178Y-52143883D01*
X79181177Y-52143882D01*
X79176196Y-52141560D01*
X79170888Y-52140138D01*
X79170886Y-52140137D01*
X79105051Y-52122497D01*
X78961463Y-52084022D01*
X78740000Y-52064647D01*
X78518537Y-52084022D01*
X78374949Y-52122497D01*
X78309114Y-52140137D01*
X78309112Y-52140138D01*
X78303804Y-52141560D01*
X78298823Y-52143882D01*
X78298822Y-52143883D01*
X78107311Y-52233186D01*
X78107306Y-52233189D01*
X78102324Y-52235512D01*
X78097817Y-52238668D01*
X78097815Y-52238669D01*
X77924730Y-52359864D01*
X77924727Y-52359866D01*
X77920219Y-52363023D01*
X77763023Y-52520219D01*
X77759866Y-52524727D01*
X77759864Y-52524730D01*
X77638669Y-52697815D01*
X77635512Y-52702324D01*
X77633189Y-52707306D01*
X77633186Y-52707311D01*
X77584195Y-52812373D01*
X77537277Y-52865658D01*
X77469000Y-52885119D01*
X77401040Y-52864577D01*
X77355805Y-52812373D01*
X77306814Y-52707311D01*
X77306811Y-52707306D01*
X77304488Y-52702324D01*
X77301331Y-52697815D01*
X77180136Y-52524730D01*
X77180134Y-52524727D01*
X77176977Y-52520219D01*
X77019781Y-52363023D01*
X77015273Y-52359866D01*
X77015270Y-52359864D01*
X76939505Y-52306813D01*
X76837677Y-52235512D01*
X76832695Y-52233189D01*
X76832690Y-52233186D01*
X76641178Y-52143883D01*
X76641177Y-52143882D01*
X76636196Y-52141560D01*
X76630888Y-52140138D01*
X76630886Y-52140137D01*
X76565051Y-52122497D01*
X76421463Y-52084022D01*
X76200000Y-52064647D01*
X75978537Y-52084022D01*
X75834949Y-52122497D01*
X75769114Y-52140137D01*
X75769112Y-52140138D01*
X75763804Y-52141560D01*
X75758823Y-52143882D01*
X75758822Y-52143883D01*
X75567311Y-52233186D01*
X75567306Y-52233189D01*
X75562324Y-52235512D01*
X75557817Y-52238668D01*
X75557815Y-52238669D01*
X75384730Y-52359864D01*
X75384727Y-52359866D01*
X75380219Y-52363023D01*
X75223023Y-52520219D01*
X75219866Y-52524727D01*
X75219864Y-52524730D01*
X75098669Y-52697815D01*
X75095512Y-52702324D01*
X75093189Y-52707306D01*
X75093186Y-52707311D01*
X75044195Y-52812373D01*
X74997277Y-52865658D01*
X74929000Y-52885119D01*
X74861040Y-52864577D01*
X74815805Y-52812373D01*
X74766814Y-52707311D01*
X74766811Y-52707306D01*
X74764488Y-52702324D01*
X74761331Y-52697815D01*
X74640136Y-52524730D01*
X74640134Y-52524727D01*
X74636977Y-52520219D01*
X74479781Y-52363023D01*
X74475273Y-52359866D01*
X74475270Y-52359864D01*
X74399505Y-52306813D01*
X74297677Y-52235512D01*
X74292695Y-52233189D01*
X74292690Y-52233186D01*
X74101178Y-52143883D01*
X74101177Y-52143882D01*
X74096196Y-52141560D01*
X74090888Y-52140138D01*
X74090886Y-52140137D01*
X74025051Y-52122497D01*
X73881463Y-52084022D01*
X73660000Y-52064647D01*
X73438537Y-52084022D01*
X73294949Y-52122497D01*
X73229114Y-52140137D01*
X73229112Y-52140138D01*
X73223804Y-52141560D01*
X73218823Y-52143882D01*
X73218822Y-52143883D01*
X73027311Y-52233186D01*
X73027306Y-52233189D01*
X73022324Y-52235512D01*
X73017817Y-52238668D01*
X73017815Y-52238669D01*
X72844730Y-52359864D01*
X72844727Y-52359866D01*
X72840219Y-52363023D01*
X72683023Y-52520219D01*
X72679866Y-52524727D01*
X72679864Y-52524730D01*
X72558669Y-52697815D01*
X72555512Y-52702324D01*
X72553189Y-52707306D01*
X72553186Y-52707311D01*
X72504195Y-52812373D01*
X72457277Y-52865658D01*
X72389000Y-52885119D01*
X72321040Y-52864577D01*
X72275805Y-52812373D01*
X72226814Y-52707311D01*
X72226811Y-52707306D01*
X72224488Y-52702324D01*
X72221331Y-52697815D01*
X72100136Y-52524730D01*
X72100134Y-52524727D01*
X72096977Y-52520219D01*
X71939781Y-52363023D01*
X71935273Y-52359866D01*
X71935270Y-52359864D01*
X71859505Y-52306813D01*
X71757677Y-52235512D01*
X71752695Y-52233189D01*
X71752690Y-52233186D01*
X71561178Y-52143883D01*
X71561177Y-52143882D01*
X71556196Y-52141560D01*
X71550888Y-52140138D01*
X71550886Y-52140137D01*
X71485051Y-52122497D01*
X71341463Y-52084022D01*
X71120000Y-52064647D01*
X70898537Y-52084022D01*
X70754949Y-52122497D01*
X70689114Y-52140137D01*
X70689112Y-52140138D01*
X70683804Y-52141560D01*
X70678823Y-52143882D01*
X70678822Y-52143883D01*
X70487311Y-52233186D01*
X70487306Y-52233189D01*
X70482324Y-52235512D01*
X70477817Y-52238668D01*
X70477815Y-52238669D01*
X70304730Y-52359864D01*
X70304727Y-52359866D01*
X70300219Y-52363023D01*
X70143023Y-52520219D01*
X70139866Y-52524727D01*
X70139864Y-52524730D01*
X70018669Y-52697815D01*
X70015512Y-52702324D01*
X70013189Y-52707306D01*
X70013186Y-52707311D01*
X69963919Y-52812965D01*
X69917001Y-52866250D01*
X69848724Y-52885711D01*
X69780764Y-52865169D01*
X69735529Y-52812965D01*
X69686377Y-52707559D01*
X69680897Y-52698068D01*
X69650206Y-52654235D01*
X69639729Y-52645860D01*
X69626282Y-52652928D01*
X68952022Y-53327188D01*
X68944408Y-53341132D01*
X68214356Y-53341132D01*
X68215592Y-53338868D01*
X68215461Y-53337035D01*
X68211210Y-53330420D01*
X67532997Y-52652207D01*
X67521223Y-52645777D01*
X67509207Y-52655074D01*
X67479103Y-52698068D01*
X67473623Y-52707559D01*
X67424195Y-52813557D01*
X67377278Y-52866842D01*
X67309000Y-52886303D01*
X67241040Y-52865761D01*
X67195805Y-52813557D01*
X67146377Y-52707559D01*
X67140897Y-52698068D01*
X67110206Y-52654235D01*
X67099729Y-52645860D01*
X67086282Y-52652928D01*
X66412022Y-53327188D01*
X66404408Y-53341132D01*
X65674356Y-53341132D01*
X65675592Y-53338868D01*
X65675461Y-53337035D01*
X65671210Y-53330420D01*
X64992997Y-52652207D01*
X64981223Y-52645777D01*
X64969207Y-52655074D01*
X64939103Y-52698068D01*
X64933623Y-52707559D01*
X64844355Y-52898993D01*
X64840609Y-52909285D01*
X64785941Y-53113309D01*
X64784038Y-53124104D01*
X64765628Y-53334525D01*
X64765628Y-53345475D01*
X53848500Y-53345475D01*
X53848500Y-52280271D01*
X65345860Y-52280271D01*
X65352928Y-52293718D01*
X66027188Y-52967978D01*
X66041132Y-52975592D01*
X66042965Y-52975461D01*
X66049580Y-52971210D01*
X66727793Y-52292997D01*
X66734223Y-52281223D01*
X66733486Y-52280271D01*
X67885860Y-52280271D01*
X67892928Y-52293718D01*
X68567188Y-52967978D01*
X68581132Y-52975592D01*
X68582965Y-52975461D01*
X68589580Y-52971210D01*
X69267793Y-52292997D01*
X69274223Y-52281223D01*
X69264926Y-52269207D01*
X69221931Y-52239102D01*
X69212445Y-52233624D01*
X69021007Y-52144355D01*
X69010715Y-52140609D01*
X68806691Y-52085941D01*
X68795896Y-52084038D01*
X68585475Y-52065628D01*
X68574525Y-52065628D01*
X68364104Y-52084038D01*
X68353309Y-52085941D01*
X68149285Y-52140609D01*
X68138993Y-52144355D01*
X67947559Y-52233623D01*
X67938068Y-52239103D01*
X67894235Y-52269794D01*
X67885860Y-52280271D01*
X66733486Y-52280271D01*
X66724926Y-52269207D01*
X66681931Y-52239102D01*
X66672445Y-52233624D01*
X66481007Y-52144355D01*
X66470715Y-52140609D01*
X66266691Y-52085941D01*
X66255896Y-52084038D01*
X66045475Y-52065628D01*
X66034525Y-52065628D01*
X65824104Y-52084038D01*
X65813309Y-52085941D01*
X65609285Y-52140609D01*
X65598993Y-52144355D01*
X65407559Y-52233623D01*
X65398068Y-52239103D01*
X65354235Y-52269794D01*
X65345860Y-52280271D01*
X53848500Y-52280271D01*
X53848500Y-49530000D01*
X70206496Y-49530000D01*
X70226458Y-49719928D01*
X70285473Y-49901556D01*
X70380960Y-50066944D01*
X70508747Y-50208866D01*
X70663248Y-50321118D01*
X70669276Y-50323802D01*
X70669278Y-50323803D01*
X70831681Y-50396109D01*
X70837712Y-50398794D01*
X70931113Y-50418647D01*
X71018056Y-50437128D01*
X71018061Y-50437128D01*
X71024513Y-50438500D01*
X71215487Y-50438500D01*
X71221939Y-50437128D01*
X71221944Y-50437128D01*
X71308888Y-50418647D01*
X71402288Y-50398794D01*
X71408319Y-50396109D01*
X71570722Y-50323803D01*
X71570724Y-50323802D01*
X71576752Y-50321118D01*
X71731253Y-50208866D01*
X71735668Y-50203963D01*
X71740580Y-50199540D01*
X71741705Y-50200789D01*
X71795014Y-50167949D01*
X71828200Y-50163500D01*
X103431800Y-50163500D01*
X103499921Y-50183502D01*
X103519147Y-50199843D01*
X103519420Y-50199540D01*
X103524332Y-50203963D01*
X103528747Y-50208866D01*
X103683248Y-50321118D01*
X103689276Y-50323802D01*
X103689278Y-50323803D01*
X103851681Y-50396109D01*
X103857712Y-50398794D01*
X103951113Y-50418647D01*
X104038056Y-50437128D01*
X104038061Y-50437128D01*
X104044513Y-50438500D01*
X104235487Y-50438500D01*
X104241939Y-50437128D01*
X104241944Y-50437128D01*
X104328888Y-50418647D01*
X104422288Y-50398794D01*
X104428319Y-50396109D01*
X104590722Y-50323803D01*
X104590724Y-50323802D01*
X104596752Y-50321118D01*
X104751253Y-50208866D01*
X104879040Y-50066944D01*
X104974527Y-49901556D01*
X105033542Y-49719928D01*
X105053504Y-49530000D01*
X105033542Y-49340072D01*
X104974527Y-49158444D01*
X104879040Y-48993056D01*
X104789400Y-48893500D01*
X104755675Y-48856045D01*
X104755674Y-48856044D01*
X104751253Y-48851134D01*
X104596752Y-48738882D01*
X104590724Y-48736198D01*
X104590722Y-48736197D01*
X104428319Y-48663891D01*
X104428318Y-48663891D01*
X104422288Y-48661206D01*
X104309721Y-48637279D01*
X104241944Y-48622872D01*
X104241939Y-48622872D01*
X104235487Y-48621500D01*
X104044513Y-48621500D01*
X104038061Y-48622872D01*
X104038056Y-48622872D01*
X103970279Y-48637279D01*
X103857712Y-48661206D01*
X103851682Y-48663891D01*
X103851681Y-48663891D01*
X103689278Y-48736197D01*
X103689276Y-48736198D01*
X103683248Y-48738882D01*
X103528747Y-48851134D01*
X103524332Y-48856037D01*
X103519420Y-48860460D01*
X103518295Y-48859211D01*
X103464986Y-48892051D01*
X103431800Y-48896500D01*
X84719800Y-48896500D01*
X84651679Y-48876498D01*
X84605186Y-48822842D01*
X84595082Y-48752568D01*
X84610681Y-48707500D01*
X84651223Y-48637279D01*
X84651224Y-48637278D01*
X84654527Y-48631556D01*
X84713542Y-48449928D01*
X84733504Y-48260000D01*
X84713542Y-48070072D01*
X84654527Y-47888444D01*
X84637409Y-47858794D01*
X84610681Y-47812500D01*
X84593943Y-47743504D01*
X84617164Y-47676413D01*
X84672971Y-47632526D01*
X84719800Y-47623500D01*
X95811800Y-47623500D01*
X95879921Y-47643502D01*
X95899147Y-47659843D01*
X95899420Y-47659540D01*
X95904332Y-47663963D01*
X95908747Y-47668866D01*
X95919135Y-47676413D01*
X95976578Y-47718148D01*
X96063248Y-47781118D01*
X96069276Y-47783802D01*
X96069278Y-47783803D01*
X96133733Y-47812500D01*
X96237712Y-47858794D01*
X96331112Y-47878647D01*
X96418056Y-47897128D01*
X96418061Y-47897128D01*
X96424513Y-47898500D01*
X96615487Y-47898500D01*
X96621939Y-47897128D01*
X96621944Y-47897128D01*
X96708888Y-47878647D01*
X96802288Y-47858794D01*
X96906267Y-47812500D01*
X96970722Y-47783803D01*
X96970724Y-47783802D01*
X96976752Y-47781118D01*
X97131253Y-47668866D01*
X97163974Y-47632526D01*
X97254621Y-47531852D01*
X97254622Y-47531851D01*
X97259040Y-47526944D01*
X97354527Y-47361556D01*
X97413542Y-47179928D01*
X97433504Y-46990000D01*
X97413542Y-46800072D01*
X97354527Y-46618444D01*
X97259040Y-46453056D01*
X97169400Y-46353500D01*
X97135675Y-46316045D01*
X97135674Y-46316044D01*
X97131253Y-46311134D01*
X96976752Y-46198882D01*
X96970724Y-46196198D01*
X96970722Y-46196197D01*
X96808319Y-46123891D01*
X96808318Y-46123891D01*
X96802288Y-46121206D01*
X96689721Y-46097279D01*
X96621944Y-46082872D01*
X96621939Y-46082872D01*
X96615487Y-46081500D01*
X96424513Y-46081500D01*
X96418061Y-46082872D01*
X96418056Y-46082872D01*
X96350279Y-46097279D01*
X96237712Y-46121206D01*
X96231682Y-46123891D01*
X96231681Y-46123891D01*
X96069278Y-46196197D01*
X96069276Y-46196198D01*
X96063248Y-46198882D01*
X95908747Y-46311134D01*
X95904332Y-46316037D01*
X95899420Y-46320460D01*
X95898295Y-46319211D01*
X95844986Y-46352051D01*
X95811800Y-46356500D01*
X87259800Y-46356500D01*
X87191679Y-46336498D01*
X87145186Y-46282842D01*
X87135082Y-46212568D01*
X87150681Y-46167500D01*
X87191223Y-46097279D01*
X87191224Y-46097278D01*
X87194527Y-46091556D01*
X87253542Y-45909928D01*
X87273504Y-45720000D01*
X87253542Y-45530072D01*
X87194527Y-45348444D01*
X87177409Y-45318794D01*
X87150681Y-45272500D01*
X87133943Y-45203504D01*
X87157164Y-45136413D01*
X87212971Y-45092526D01*
X87259800Y-45083500D01*
X98351800Y-45083500D01*
X98419921Y-45103502D01*
X98439147Y-45119843D01*
X98439420Y-45119540D01*
X98444332Y-45123963D01*
X98448747Y-45128866D01*
X98459135Y-45136413D01*
X98516578Y-45178148D01*
X98603248Y-45241118D01*
X98609276Y-45243802D01*
X98609278Y-45243803D01*
X98673733Y-45272500D01*
X98777712Y-45318794D01*
X98871112Y-45338647D01*
X98958056Y-45357128D01*
X98958061Y-45357128D01*
X98964513Y-45358500D01*
X99155487Y-45358500D01*
X99161939Y-45357128D01*
X99161944Y-45357128D01*
X99248888Y-45338647D01*
X99342288Y-45318794D01*
X99446267Y-45272500D01*
X99510722Y-45243803D01*
X99510724Y-45243802D01*
X99516752Y-45241118D01*
X99671253Y-45128866D01*
X99703974Y-45092526D01*
X99794621Y-44991852D01*
X99794622Y-44991851D01*
X99799040Y-44986944D01*
X99894527Y-44821556D01*
X99953542Y-44639928D01*
X99973504Y-44450000D01*
X99953542Y-44260072D01*
X99894527Y-44078444D01*
X99799040Y-43913056D01*
X99709400Y-43813500D01*
X99675675Y-43776045D01*
X99675674Y-43776044D01*
X99671253Y-43771134D01*
X99516752Y-43658882D01*
X99510724Y-43656198D01*
X99510722Y-43656197D01*
X99348319Y-43583891D01*
X99348318Y-43583891D01*
X99342288Y-43581206D01*
X99229721Y-43557279D01*
X99161944Y-43542872D01*
X99161939Y-43542872D01*
X99155487Y-43541500D01*
X98964513Y-43541500D01*
X98958061Y-43542872D01*
X98958056Y-43542872D01*
X98890279Y-43557279D01*
X98777712Y-43581206D01*
X98771682Y-43583891D01*
X98771681Y-43583891D01*
X98609278Y-43656197D01*
X98609276Y-43656198D01*
X98603248Y-43658882D01*
X98448747Y-43771134D01*
X98444332Y-43776037D01*
X98439420Y-43780460D01*
X98438295Y-43779211D01*
X98384986Y-43812051D01*
X98351800Y-43816500D01*
X92339800Y-43816500D01*
X92271679Y-43796498D01*
X92225186Y-43742842D01*
X92215082Y-43672568D01*
X92230681Y-43627500D01*
X92271223Y-43557279D01*
X92271224Y-43557278D01*
X92274527Y-43551556D01*
X92333542Y-43369928D01*
X92353504Y-43180000D01*
X92333542Y-42990072D01*
X92274527Y-42808444D01*
X92257409Y-42778794D01*
X92230681Y-42732500D01*
X92213943Y-42663504D01*
X92237164Y-42596413D01*
X92292971Y-42552526D01*
X92339800Y-42543500D01*
X100891800Y-42543500D01*
X100959921Y-42563502D01*
X100979147Y-42579843D01*
X100979420Y-42579540D01*
X100984332Y-42583963D01*
X100988747Y-42588866D01*
X100999135Y-42596413D01*
X101056578Y-42638148D01*
X101143248Y-42701118D01*
X101149276Y-42703802D01*
X101149278Y-42703803D01*
X101213733Y-42732500D01*
X101317712Y-42778794D01*
X101411113Y-42798647D01*
X101498056Y-42817128D01*
X101498061Y-42817128D01*
X101504513Y-42818500D01*
X101695487Y-42818500D01*
X101701939Y-42817128D01*
X101701944Y-42817128D01*
X101788887Y-42798647D01*
X101882288Y-42778794D01*
X101986267Y-42732500D01*
X102050722Y-42703803D01*
X102050724Y-42703802D01*
X102056752Y-42701118D01*
X102211253Y-42588866D01*
X102243974Y-42552526D01*
X102334621Y-42451852D01*
X102334622Y-42451851D01*
X102339040Y-42446944D01*
X102434527Y-42281556D01*
X102493542Y-42099928D01*
X102513504Y-41910000D01*
X102493542Y-41720072D01*
X102434527Y-41538444D01*
X102339040Y-41373056D01*
X102249400Y-41273500D01*
X102215675Y-41236045D01*
X102215674Y-41236044D01*
X102211253Y-41231134D01*
X102056752Y-41118882D01*
X102050724Y-41116198D01*
X102050722Y-41116197D01*
X101888319Y-41043891D01*
X101888318Y-41043891D01*
X101882288Y-41041206D01*
X101769721Y-41017279D01*
X101701944Y-41002872D01*
X101701939Y-41002872D01*
X101695487Y-41001500D01*
X101504513Y-41001500D01*
X101498061Y-41002872D01*
X101498056Y-41002872D01*
X101430279Y-41017279D01*
X101317712Y-41041206D01*
X101311682Y-41043891D01*
X101311681Y-41043891D01*
X101149278Y-41116197D01*
X101149276Y-41116198D01*
X101143248Y-41118882D01*
X100988747Y-41231134D01*
X100984332Y-41236037D01*
X100979420Y-41240460D01*
X100978295Y-41239211D01*
X100924986Y-41272051D01*
X100891800Y-41276500D01*
X94879800Y-41276500D01*
X94811679Y-41256498D01*
X94765186Y-41202842D01*
X94755082Y-41132568D01*
X94770681Y-41087500D01*
X94811223Y-41017279D01*
X94811224Y-41017278D01*
X94814527Y-41011556D01*
X94873542Y-40829928D01*
X94893504Y-40640000D01*
X94873542Y-40450072D01*
X94814527Y-40268444D01*
X94797409Y-40238794D01*
X94770681Y-40192500D01*
X94753943Y-40123504D01*
X94777164Y-40056413D01*
X94832971Y-40012526D01*
X94879800Y-40003500D01*
X113591800Y-40003500D01*
X113659921Y-40023502D01*
X113679147Y-40039843D01*
X113679420Y-40039540D01*
X113684332Y-40043963D01*
X113688747Y-40048866D01*
X113699135Y-40056413D01*
X113756578Y-40098148D01*
X113843248Y-40161118D01*
X113849276Y-40163802D01*
X113849278Y-40163803D01*
X113913733Y-40192500D01*
X114017712Y-40238794D01*
X114111112Y-40258647D01*
X114198056Y-40277128D01*
X114198061Y-40277128D01*
X114204513Y-40278500D01*
X114395487Y-40278500D01*
X114401939Y-40277128D01*
X114401944Y-40277128D01*
X114488888Y-40258647D01*
X114582288Y-40238794D01*
X114686267Y-40192500D01*
X114750722Y-40163803D01*
X114750724Y-40163802D01*
X114756752Y-40161118D01*
X114911253Y-40048866D01*
X114943974Y-40012526D01*
X115034621Y-39911852D01*
X115034622Y-39911851D01*
X115039040Y-39906944D01*
X115134527Y-39741556D01*
X115193542Y-39559928D01*
X115213504Y-39370000D01*
X115193542Y-39180072D01*
X115134527Y-38998444D01*
X115039040Y-38833056D01*
X115015722Y-38807158D01*
X114915675Y-38696045D01*
X114915674Y-38696044D01*
X114911253Y-38691134D01*
X114756752Y-38578882D01*
X114750724Y-38576198D01*
X114750722Y-38576197D01*
X114588319Y-38503891D01*
X114588318Y-38503891D01*
X114582288Y-38501206D01*
X114469721Y-38477279D01*
X114401944Y-38462872D01*
X114401939Y-38462872D01*
X114395487Y-38461500D01*
X114204513Y-38461500D01*
X114198061Y-38462872D01*
X114198056Y-38462872D01*
X114130279Y-38477279D01*
X114017712Y-38501206D01*
X114011682Y-38503891D01*
X114011681Y-38503891D01*
X113849278Y-38576197D01*
X113849276Y-38576198D01*
X113843248Y-38578882D01*
X113837907Y-38582762D01*
X113837906Y-38582763D01*
X113727687Y-38662842D01*
X113688747Y-38691134D01*
X113684332Y-38696037D01*
X113679420Y-38700460D01*
X113678295Y-38699211D01*
X113624986Y-38732051D01*
X113591800Y-38736500D01*
X110119800Y-38736500D01*
X110051679Y-38716498D01*
X110005186Y-38662842D01*
X109995082Y-38592568D01*
X110010681Y-38547500D01*
X110051223Y-38477279D01*
X110051224Y-38477278D01*
X110054527Y-38471556D01*
X110113542Y-38289928D01*
X110133504Y-38100000D01*
X110113542Y-37910072D01*
X110054527Y-37728444D01*
X109959040Y-37563056D01*
X109935722Y-37537158D01*
X109835675Y-37426045D01*
X109835674Y-37426044D01*
X109831253Y-37421134D01*
X109676752Y-37308882D01*
X109670724Y-37306198D01*
X109670722Y-37306197D01*
X109508319Y-37233891D01*
X109508318Y-37233891D01*
X109502288Y-37231206D01*
X109389721Y-37207279D01*
X109321944Y-37192872D01*
X109321939Y-37192872D01*
X109315487Y-37191500D01*
X109124513Y-37191500D01*
X109118061Y-37192872D01*
X109118056Y-37192872D01*
X109050279Y-37207279D01*
X108937712Y-37231206D01*
X108931682Y-37233891D01*
X108931681Y-37233891D01*
X108769278Y-37306197D01*
X108769276Y-37306198D01*
X108763248Y-37308882D01*
X108757907Y-37312762D01*
X108757906Y-37312763D01*
X108647687Y-37392842D01*
X108608747Y-37421134D01*
X108604332Y-37426037D01*
X108599420Y-37430460D01*
X108598295Y-37429211D01*
X108544986Y-37462051D01*
X108511800Y-37466500D01*
X107579800Y-37466500D01*
X107511679Y-37446498D01*
X107465186Y-37392842D01*
X107455082Y-37322568D01*
X107470681Y-37277500D01*
X107511223Y-37207279D01*
X107511224Y-37207278D01*
X107514527Y-37201556D01*
X107573542Y-37019928D01*
X107593504Y-36830000D01*
X107573542Y-36640072D01*
X107514527Y-36458444D01*
X107497409Y-36428794D01*
X107470681Y-36382500D01*
X107453943Y-36313504D01*
X107477164Y-36246413D01*
X107532971Y-36202526D01*
X107579800Y-36193500D01*
X111051800Y-36193500D01*
X111119921Y-36213502D01*
X111139147Y-36229843D01*
X111139420Y-36229540D01*
X111144332Y-36233963D01*
X111148747Y-36238866D01*
X111159135Y-36246413D01*
X111216578Y-36288148D01*
X111303248Y-36351118D01*
X111309276Y-36353802D01*
X111309278Y-36353803D01*
X111373733Y-36382500D01*
X111477712Y-36428794D01*
X111571113Y-36448647D01*
X111658056Y-36467128D01*
X111658061Y-36467128D01*
X111664513Y-36468500D01*
X111855487Y-36468500D01*
X111861939Y-36467128D01*
X111861944Y-36467128D01*
X111948887Y-36448647D01*
X112042288Y-36428794D01*
X112146267Y-36382500D01*
X112210722Y-36353803D01*
X112210724Y-36353802D01*
X112216752Y-36351118D01*
X112371253Y-36238866D01*
X112403974Y-36202526D01*
X112494621Y-36101852D01*
X112494622Y-36101851D01*
X112499040Y-36096944D01*
X112594527Y-35931556D01*
X112653542Y-35749928D01*
X112673504Y-35560000D01*
X112653542Y-35370072D01*
X112594527Y-35188444D01*
X112499040Y-35023056D01*
X112371253Y-34881134D01*
X112216752Y-34768882D01*
X112210724Y-34766198D01*
X112210722Y-34766197D01*
X112048319Y-34693891D01*
X112048318Y-34693891D01*
X112042288Y-34691206D01*
X111948888Y-34671353D01*
X111861944Y-34652872D01*
X111861939Y-34652872D01*
X111855487Y-34651500D01*
X111664513Y-34651500D01*
X111658061Y-34652872D01*
X111658056Y-34652872D01*
X111571113Y-34671353D01*
X111477712Y-34691206D01*
X111471682Y-34693891D01*
X111471681Y-34693891D01*
X111309278Y-34766197D01*
X111309276Y-34766198D01*
X111303248Y-34768882D01*
X111148747Y-34881134D01*
X111144332Y-34886037D01*
X111139420Y-34890460D01*
X111138295Y-34889211D01*
X111084986Y-34922051D01*
X111051800Y-34926500D01*
X102308200Y-34926500D01*
X102240079Y-34906498D01*
X102220853Y-34890157D01*
X102220580Y-34890460D01*
X102215668Y-34886037D01*
X102211253Y-34881134D01*
X102056752Y-34768882D01*
X102050724Y-34766198D01*
X102050722Y-34766197D01*
X101888319Y-34693891D01*
X101888318Y-34693891D01*
X101882288Y-34691206D01*
X101788888Y-34671353D01*
X101701944Y-34652872D01*
X101701939Y-34652872D01*
X101695487Y-34651500D01*
X101504513Y-34651500D01*
X101498061Y-34652872D01*
X101498056Y-34652872D01*
X101411112Y-34671353D01*
X101317712Y-34691206D01*
X101311682Y-34693891D01*
X101311681Y-34693891D01*
X101149278Y-34766197D01*
X101149276Y-34766198D01*
X101143248Y-34768882D01*
X100988747Y-34881134D01*
X100860960Y-35023056D01*
X100765473Y-35188444D01*
X100706458Y-35370072D01*
X100686496Y-35560000D01*
X100706458Y-35749928D01*
X100765473Y-35931556D01*
X100768776Y-35937278D01*
X100768777Y-35937279D01*
X100809319Y-36007500D01*
X100826057Y-36076496D01*
X100802836Y-36143587D01*
X100747029Y-36187474D01*
X100700200Y-36196500D01*
X99768200Y-36196500D01*
X99700079Y-36176498D01*
X99680853Y-36160157D01*
X99680580Y-36160460D01*
X99675668Y-36156037D01*
X99671253Y-36151134D01*
X99620940Y-36114579D01*
X99522094Y-36042763D01*
X99522093Y-36042762D01*
X99516752Y-36038882D01*
X99510724Y-36036198D01*
X99510722Y-36036197D01*
X99348319Y-35963891D01*
X99348318Y-35963891D01*
X99342288Y-35961206D01*
X99229721Y-35937279D01*
X99161944Y-35922872D01*
X99161939Y-35922872D01*
X99155487Y-35921500D01*
X98964513Y-35921500D01*
X98958061Y-35922872D01*
X98958056Y-35922872D01*
X98890279Y-35937279D01*
X98777712Y-35961206D01*
X98771682Y-35963891D01*
X98771681Y-35963891D01*
X98609278Y-36036197D01*
X98609276Y-36036198D01*
X98603248Y-36038882D01*
X98499060Y-36114579D01*
X98432194Y-36138437D01*
X98363042Y-36122357D01*
X98350944Y-36114582D01*
X98246752Y-36038882D01*
X98240724Y-36036198D01*
X98240722Y-36036197D01*
X98078319Y-35963891D01*
X98078318Y-35963891D01*
X98072288Y-35961206D01*
X97959721Y-35937279D01*
X97891944Y-35922872D01*
X97891939Y-35922872D01*
X97885487Y-35921500D01*
X97694513Y-35921500D01*
X97688061Y-35922872D01*
X97688056Y-35922872D01*
X97620279Y-35937279D01*
X97507712Y-35961206D01*
X97501682Y-35963891D01*
X97501681Y-35963891D01*
X97339278Y-36036197D01*
X97339276Y-36036198D01*
X97333248Y-36038882D01*
X97327907Y-36042762D01*
X97327906Y-36042763D01*
X97229060Y-36114579D01*
X97178747Y-36151134D01*
X97174332Y-36156037D01*
X97169420Y-36160460D01*
X97168295Y-36159211D01*
X97114986Y-36192051D01*
X97081800Y-36196500D01*
X81988200Y-36196500D01*
X81920079Y-36176498D01*
X81900853Y-36160157D01*
X81900580Y-36160460D01*
X81895668Y-36156037D01*
X81891253Y-36151134D01*
X81840940Y-36114579D01*
X81742094Y-36042763D01*
X81742093Y-36042762D01*
X81736752Y-36038882D01*
X81730724Y-36036198D01*
X81730722Y-36036197D01*
X81568319Y-35963891D01*
X81568318Y-35963891D01*
X81562288Y-35961206D01*
X81449721Y-35937279D01*
X81381944Y-35922872D01*
X81381939Y-35922872D01*
X81375487Y-35921500D01*
X81184513Y-35921500D01*
X81178061Y-35922872D01*
X81178056Y-35922872D01*
X81110279Y-35937279D01*
X80997712Y-35961206D01*
X80991682Y-35963891D01*
X80991681Y-35963891D01*
X80829278Y-36036197D01*
X80829276Y-36036198D01*
X80823248Y-36038882D01*
X80668747Y-36151134D01*
X80664326Y-36156044D01*
X80664325Y-36156045D01*
X80586257Y-36242749D01*
X80540960Y-36293056D01*
X80445473Y-36458444D01*
X80386458Y-36640072D01*
X80366496Y-36830000D01*
X80386458Y-37019928D01*
X80445473Y-37201556D01*
X80540960Y-37366944D01*
X80545378Y-37371851D01*
X80545379Y-37371852D01*
X80631905Y-37467949D01*
X80668747Y-37508866D01*
X80823248Y-37621118D01*
X80829276Y-37623802D01*
X80829278Y-37623803D01*
X80893733Y-37652500D01*
X80997712Y-37698794D01*
X81091113Y-37718647D01*
X81178056Y-37737128D01*
X81178061Y-37737128D01*
X81184513Y-37738500D01*
X81375487Y-37738500D01*
X81381939Y-37737128D01*
X81381944Y-37737128D01*
X81468887Y-37718647D01*
X81562288Y-37698794D01*
X81666267Y-37652500D01*
X81730722Y-37623803D01*
X81730724Y-37623802D01*
X81736752Y-37621118D01*
X81823423Y-37558148D01*
X81869671Y-37524546D01*
X81891253Y-37508866D01*
X81895668Y-37503963D01*
X81900580Y-37499540D01*
X81901705Y-37500789D01*
X81955014Y-37467949D01*
X81988200Y-37463500D01*
X88000200Y-37463500D01*
X88068321Y-37483502D01*
X88114814Y-37537158D01*
X88124918Y-37607432D01*
X88109319Y-37652500D01*
X88082591Y-37698794D01*
X88065473Y-37728444D01*
X88006458Y-37910072D01*
X87986496Y-38100000D01*
X88006458Y-38289928D01*
X88065473Y-38471556D01*
X88160960Y-38636944D01*
X88165378Y-38641851D01*
X88165379Y-38641852D01*
X88251905Y-38737949D01*
X88288747Y-38778866D01*
X88443248Y-38891118D01*
X88449276Y-38893802D01*
X88449278Y-38893803D01*
X88513733Y-38922500D01*
X88617712Y-38968794D01*
X88711112Y-38988647D01*
X88798056Y-39007128D01*
X88798061Y-39007128D01*
X88804513Y-39008500D01*
X88995487Y-39008500D01*
X89001939Y-39007128D01*
X89001944Y-39007128D01*
X89088887Y-38988647D01*
X89182288Y-38968794D01*
X89286267Y-38922500D01*
X89350722Y-38893803D01*
X89350724Y-38893802D01*
X89356752Y-38891118D01*
X89443423Y-38828148D01*
X89489671Y-38794546D01*
X89511253Y-38778866D01*
X89515668Y-38773963D01*
X89520580Y-38769540D01*
X89521705Y-38770789D01*
X89575014Y-38737949D01*
X89608200Y-38733500D01*
X93080200Y-38733500D01*
X93148321Y-38753502D01*
X93194814Y-38807158D01*
X93204918Y-38877432D01*
X93189319Y-38922500D01*
X93162591Y-38968794D01*
X93145473Y-38998444D01*
X93086458Y-39180072D01*
X93066496Y-39370000D01*
X93086458Y-39559928D01*
X93145473Y-39741556D01*
X93148776Y-39747278D01*
X93148777Y-39747279D01*
X93189319Y-39817500D01*
X93206057Y-39886496D01*
X93182836Y-39953587D01*
X93127029Y-39997474D01*
X93080200Y-40006500D01*
X80718200Y-40006500D01*
X80650079Y-39986498D01*
X80630853Y-39970157D01*
X80630580Y-39970460D01*
X80625668Y-39966037D01*
X80621253Y-39961134D01*
X80599671Y-39945454D01*
X80472094Y-39852763D01*
X80472093Y-39852762D01*
X80466752Y-39848882D01*
X80460724Y-39846198D01*
X80460722Y-39846197D01*
X80298319Y-39773891D01*
X80298318Y-39773891D01*
X80292288Y-39771206D01*
X80179721Y-39747279D01*
X80111944Y-39732872D01*
X80111939Y-39732872D01*
X80105487Y-39731500D01*
X79914513Y-39731500D01*
X79908061Y-39732872D01*
X79908056Y-39732872D01*
X79840279Y-39747279D01*
X79727712Y-39771206D01*
X79721682Y-39773891D01*
X79721681Y-39773891D01*
X79559278Y-39846197D01*
X79559276Y-39846198D01*
X79553248Y-39848882D01*
X79398747Y-39961134D01*
X79394326Y-39966044D01*
X79394325Y-39966045D01*
X79316257Y-40052749D01*
X79270960Y-40103056D01*
X79175473Y-40268444D01*
X79116458Y-40450072D01*
X79096496Y-40640000D01*
X79116458Y-40829928D01*
X79118498Y-40836206D01*
X79129746Y-40870824D01*
X79131774Y-40941791D01*
X79095111Y-41002589D01*
X79031399Y-41033915D01*
X78983716Y-41033007D01*
X78841944Y-41002872D01*
X78841939Y-41002872D01*
X78835487Y-41001500D01*
X78644513Y-41001500D01*
X78638061Y-41002872D01*
X78638056Y-41002872D01*
X78570279Y-41017279D01*
X78457712Y-41041206D01*
X78451682Y-41043891D01*
X78451681Y-41043891D01*
X78289278Y-41116197D01*
X78289276Y-41116198D01*
X78283248Y-41118882D01*
X78128747Y-41231134D01*
X78124326Y-41236044D01*
X78124325Y-41236045D01*
X78090601Y-41273500D01*
X78000960Y-41373056D01*
X77905473Y-41538444D01*
X77846458Y-41720072D01*
X77826496Y-41910000D01*
X77846458Y-42099928D01*
X77848498Y-42106206D01*
X77859746Y-42140824D01*
X77861774Y-42211791D01*
X77825111Y-42272589D01*
X77761399Y-42303915D01*
X77713716Y-42303007D01*
X77571944Y-42272872D01*
X77571939Y-42272872D01*
X77565487Y-42271500D01*
X77374513Y-42271500D01*
X77368061Y-42272872D01*
X77368056Y-42272872D01*
X77300279Y-42287279D01*
X77187712Y-42311206D01*
X77181682Y-42313891D01*
X77181681Y-42313891D01*
X77019278Y-42386197D01*
X77019276Y-42386198D01*
X77013248Y-42388882D01*
X76858747Y-42501134D01*
X76854326Y-42506044D01*
X76854325Y-42506045D01*
X76776257Y-42592749D01*
X76730960Y-42643056D01*
X76635473Y-42808444D01*
X76576458Y-42990072D01*
X76556496Y-43180000D01*
X76576458Y-43369928D01*
X76578498Y-43376206D01*
X76589746Y-43410824D01*
X76591774Y-43481791D01*
X76555111Y-43542589D01*
X76491399Y-43573915D01*
X76443716Y-43573007D01*
X76301944Y-43542872D01*
X76301939Y-43542872D01*
X76295487Y-43541500D01*
X76104513Y-43541500D01*
X76098061Y-43542872D01*
X76098056Y-43542872D01*
X76030279Y-43557279D01*
X75917712Y-43581206D01*
X75911682Y-43583891D01*
X75911681Y-43583891D01*
X75749278Y-43656197D01*
X75749276Y-43656198D01*
X75743248Y-43658882D01*
X75588747Y-43771134D01*
X75584326Y-43776044D01*
X75584325Y-43776045D01*
X75550601Y-43813500D01*
X75460960Y-43913056D01*
X75365473Y-44078444D01*
X75306458Y-44260072D01*
X75286496Y-44450000D01*
X75306458Y-44639928D01*
X75308498Y-44646206D01*
X75319746Y-44680824D01*
X75321774Y-44751791D01*
X75285111Y-44812589D01*
X75221399Y-44843915D01*
X75173716Y-44843007D01*
X75031944Y-44812872D01*
X75031939Y-44812872D01*
X75025487Y-44811500D01*
X74834513Y-44811500D01*
X74828061Y-44812872D01*
X74828056Y-44812872D01*
X74760279Y-44827279D01*
X74647712Y-44851206D01*
X74641682Y-44853891D01*
X74641681Y-44853891D01*
X74479278Y-44926197D01*
X74479276Y-44926198D01*
X74473248Y-44928882D01*
X74318747Y-45041134D01*
X74314326Y-45046044D01*
X74314325Y-45046045D01*
X74236257Y-45132749D01*
X74190960Y-45183056D01*
X74095473Y-45348444D01*
X74036458Y-45530072D01*
X74016496Y-45720000D01*
X74036458Y-45909928D01*
X74038498Y-45916206D01*
X74049746Y-45950824D01*
X74051774Y-46021791D01*
X74015111Y-46082589D01*
X73951399Y-46113915D01*
X73903716Y-46113007D01*
X73761944Y-46082872D01*
X73761939Y-46082872D01*
X73755487Y-46081500D01*
X73564513Y-46081500D01*
X73558061Y-46082872D01*
X73558056Y-46082872D01*
X73490279Y-46097279D01*
X73377712Y-46121206D01*
X73371682Y-46123891D01*
X73371681Y-46123891D01*
X73209278Y-46196197D01*
X73209276Y-46196198D01*
X73203248Y-46198882D01*
X73048747Y-46311134D01*
X73044326Y-46316044D01*
X73044325Y-46316045D01*
X73010601Y-46353500D01*
X72920960Y-46453056D01*
X72825473Y-46618444D01*
X72766458Y-46800072D01*
X72746496Y-46990000D01*
X72766458Y-47179928D01*
X72768498Y-47186206D01*
X72779746Y-47220824D01*
X72781774Y-47291791D01*
X72745111Y-47352589D01*
X72681399Y-47383915D01*
X72633716Y-47383007D01*
X72491944Y-47352872D01*
X72491939Y-47352872D01*
X72485487Y-47351500D01*
X72294513Y-47351500D01*
X72288061Y-47352872D01*
X72288056Y-47352872D01*
X72220279Y-47367279D01*
X72107712Y-47391206D01*
X72101682Y-47393891D01*
X72101681Y-47393891D01*
X71939278Y-47466197D01*
X71939276Y-47466198D01*
X71933248Y-47468882D01*
X71778747Y-47581134D01*
X71774326Y-47586044D01*
X71774325Y-47586045D01*
X71696257Y-47672749D01*
X71650960Y-47723056D01*
X71555473Y-47888444D01*
X71496458Y-48070072D01*
X71476496Y-48260000D01*
X71496458Y-48449928D01*
X71498498Y-48456206D01*
X71509746Y-48490824D01*
X71511774Y-48561791D01*
X71475111Y-48622589D01*
X71411399Y-48653915D01*
X71363716Y-48653007D01*
X71221944Y-48622872D01*
X71221939Y-48622872D01*
X71215487Y-48621500D01*
X71024513Y-48621500D01*
X71018061Y-48622872D01*
X71018056Y-48622872D01*
X70950279Y-48637279D01*
X70837712Y-48661206D01*
X70831682Y-48663891D01*
X70831681Y-48663891D01*
X70669278Y-48736197D01*
X70669276Y-48736198D01*
X70663248Y-48738882D01*
X70508747Y-48851134D01*
X70504326Y-48856044D01*
X70504325Y-48856045D01*
X70470601Y-48893500D01*
X70380960Y-48993056D01*
X70285473Y-49158444D01*
X70226458Y-49340072D01*
X70206496Y-49530000D01*
X53848500Y-49530000D01*
X53848500Y-30446695D01*
X69757251Y-30446695D01*
X69770110Y-30669715D01*
X69771247Y-30674761D01*
X69771248Y-30674767D01*
X69792275Y-30768069D01*
X69819222Y-30887639D01*
X69903266Y-31094616D01*
X69954942Y-31178944D01*
X70017291Y-31280688D01*
X70019987Y-31285088D01*
X70166250Y-31453938D01*
X70338126Y-31596632D01*
X70531000Y-31709338D01*
X70739692Y-31789030D01*
X70744760Y-31790061D01*
X70744763Y-31790062D01*
X70839862Y-31809410D01*
X70958597Y-31833567D01*
X70963772Y-31833757D01*
X70963774Y-31833757D01*
X71176673Y-31841564D01*
X71176677Y-31841564D01*
X71181837Y-31841753D01*
X71186957Y-31841097D01*
X71186959Y-31841097D01*
X71398288Y-31814025D01*
X71398289Y-31814025D01*
X71403416Y-31813368D01*
X71408366Y-31811883D01*
X71612429Y-31750661D01*
X71612434Y-31750659D01*
X71617384Y-31749174D01*
X71817994Y-31650896D01*
X71999860Y-31521173D01*
X72158096Y-31363489D01*
X72217594Y-31280689D01*
X72288453Y-31182077D01*
X72289776Y-31183028D01*
X72336645Y-31139857D01*
X72406580Y-31127625D01*
X72472026Y-31155144D01*
X72499875Y-31186994D01*
X72559987Y-31285088D01*
X72706250Y-31453938D01*
X72878126Y-31596632D01*
X73071000Y-31709338D01*
X73279692Y-31789030D01*
X73284760Y-31790061D01*
X73284763Y-31790062D01*
X73379862Y-31809410D01*
X73498597Y-31833567D01*
X73503772Y-31833757D01*
X73503774Y-31833757D01*
X73716673Y-31841564D01*
X73716677Y-31841564D01*
X73721837Y-31841753D01*
X73726957Y-31841097D01*
X73726959Y-31841097D01*
X73938288Y-31814025D01*
X73938289Y-31814025D01*
X73943416Y-31813368D01*
X73948366Y-31811883D01*
X74152429Y-31750661D01*
X74152434Y-31750659D01*
X74157384Y-31749174D01*
X74357994Y-31650896D01*
X74539860Y-31521173D01*
X74698096Y-31363489D01*
X74757594Y-31280689D01*
X74828453Y-31182077D01*
X74829776Y-31183028D01*
X74876645Y-31139857D01*
X74946580Y-31127625D01*
X75012026Y-31155144D01*
X75039875Y-31186994D01*
X75099987Y-31285088D01*
X75246250Y-31453938D01*
X75418126Y-31596632D01*
X75611000Y-31709338D01*
X75819692Y-31789030D01*
X75824760Y-31790061D01*
X75824763Y-31790062D01*
X75919862Y-31809410D01*
X76038597Y-31833567D01*
X76043772Y-31833757D01*
X76043774Y-31833757D01*
X76256673Y-31841564D01*
X76256677Y-31841564D01*
X76261837Y-31841753D01*
X76266957Y-31841097D01*
X76266959Y-31841097D01*
X76478288Y-31814025D01*
X76478289Y-31814025D01*
X76483416Y-31813368D01*
X76488366Y-31811883D01*
X76692429Y-31750661D01*
X76692434Y-31750659D01*
X76697384Y-31749174D01*
X76897994Y-31650896D01*
X77079860Y-31521173D01*
X77238096Y-31363489D01*
X77297594Y-31280689D01*
X77368453Y-31182077D01*
X77369776Y-31183028D01*
X77416645Y-31139857D01*
X77486580Y-31127625D01*
X77552026Y-31155144D01*
X77579875Y-31186994D01*
X77639987Y-31285088D01*
X77786250Y-31453938D01*
X77958126Y-31596632D01*
X78151000Y-31709338D01*
X78359692Y-31789030D01*
X78364760Y-31790061D01*
X78364763Y-31790062D01*
X78459862Y-31809410D01*
X78578597Y-31833567D01*
X78583772Y-31833757D01*
X78583774Y-31833757D01*
X78796673Y-31841564D01*
X78796677Y-31841564D01*
X78801837Y-31841753D01*
X78806957Y-31841097D01*
X78806959Y-31841097D01*
X79018288Y-31814025D01*
X79018289Y-31814025D01*
X79023416Y-31813368D01*
X79028366Y-31811883D01*
X79232429Y-31750661D01*
X79232434Y-31750659D01*
X79237384Y-31749174D01*
X79437994Y-31650896D01*
X79619860Y-31521173D01*
X79778096Y-31363489D01*
X79837594Y-31280689D01*
X79908453Y-31182077D01*
X79909640Y-31182930D01*
X79956960Y-31139362D01*
X80026897Y-31127145D01*
X80092338Y-31154678D01*
X80120166Y-31186511D01*
X80177694Y-31280388D01*
X80183777Y-31288699D01*
X80323213Y-31449667D01*
X80330580Y-31456883D01*
X80494434Y-31592916D01*
X80502881Y-31598831D01*
X80686756Y-31706279D01*
X80696042Y-31710729D01*
X80895001Y-31786703D01*
X80904899Y-31789579D01*
X81008250Y-31810606D01*
X81022299Y-31809410D01*
X81026000Y-31799065D01*
X81026000Y-31798517D01*
X81534000Y-31798517D01*
X81538064Y-31812359D01*
X81551478Y-31814393D01*
X81558184Y-31813534D01*
X81568262Y-31811392D01*
X81772255Y-31750191D01*
X81781842Y-31746433D01*
X81973095Y-31652739D01*
X81981945Y-31647464D01*
X82155328Y-31523792D01*
X82163193Y-31517145D01*
X82267897Y-31412805D01*
X82330268Y-31378889D01*
X82401075Y-31384077D01*
X82457837Y-31426723D01*
X82474819Y-31457826D01*
X82519385Y-31576705D01*
X82606739Y-31693261D01*
X82723295Y-31780615D01*
X82859684Y-31831745D01*
X82921866Y-31838500D01*
X84718134Y-31838500D01*
X84780316Y-31831745D01*
X84916705Y-31780615D01*
X85033261Y-31693261D01*
X85120615Y-31576705D01*
X85171745Y-31440316D01*
X85178500Y-31378134D01*
X85178500Y-30446695D01*
X92617251Y-30446695D01*
X92630110Y-30669715D01*
X92631247Y-30674761D01*
X92631248Y-30674767D01*
X92652275Y-30768069D01*
X92679222Y-30887639D01*
X92763266Y-31094616D01*
X92814942Y-31178944D01*
X92877291Y-31280688D01*
X92879987Y-31285088D01*
X93026250Y-31453938D01*
X93198126Y-31596632D01*
X93391000Y-31709338D01*
X93599692Y-31789030D01*
X93604760Y-31790061D01*
X93604763Y-31790062D01*
X93699862Y-31809410D01*
X93818597Y-31833567D01*
X93823772Y-31833757D01*
X93823774Y-31833757D01*
X94036673Y-31841564D01*
X94036677Y-31841564D01*
X94041837Y-31841753D01*
X94046957Y-31841097D01*
X94046959Y-31841097D01*
X94258288Y-31814025D01*
X94258289Y-31814025D01*
X94263416Y-31813368D01*
X94268366Y-31811883D01*
X94472429Y-31750661D01*
X94472434Y-31750659D01*
X94477384Y-31749174D01*
X94677994Y-31650896D01*
X94859860Y-31521173D01*
X95018096Y-31363489D01*
X95077594Y-31280689D01*
X95148453Y-31182077D01*
X95149776Y-31183028D01*
X95196645Y-31139857D01*
X95266580Y-31127625D01*
X95332026Y-31155144D01*
X95359875Y-31186994D01*
X95419987Y-31285088D01*
X95566250Y-31453938D01*
X95738126Y-31596632D01*
X95931000Y-31709338D01*
X96139692Y-31789030D01*
X96144760Y-31790061D01*
X96144763Y-31790062D01*
X96239862Y-31809410D01*
X96358597Y-31833567D01*
X96363772Y-31833757D01*
X96363774Y-31833757D01*
X96576673Y-31841564D01*
X96576677Y-31841564D01*
X96581837Y-31841753D01*
X96586957Y-31841097D01*
X96586959Y-31841097D01*
X96798288Y-31814025D01*
X96798289Y-31814025D01*
X96803416Y-31813368D01*
X96808366Y-31811883D01*
X97012429Y-31750661D01*
X97012434Y-31750659D01*
X97017384Y-31749174D01*
X97217994Y-31650896D01*
X97399860Y-31521173D01*
X97558096Y-31363489D01*
X97617594Y-31280689D01*
X97688453Y-31182077D01*
X97689776Y-31183028D01*
X97736645Y-31139857D01*
X97806580Y-31127625D01*
X97872026Y-31155144D01*
X97899875Y-31186994D01*
X97959987Y-31285088D01*
X98106250Y-31453938D01*
X98278126Y-31596632D01*
X98471000Y-31709338D01*
X98679692Y-31789030D01*
X98684760Y-31790061D01*
X98684763Y-31790062D01*
X98779862Y-31809410D01*
X98898597Y-31833567D01*
X98903772Y-31833757D01*
X98903774Y-31833757D01*
X99116673Y-31841564D01*
X99116677Y-31841564D01*
X99121837Y-31841753D01*
X99126957Y-31841097D01*
X99126959Y-31841097D01*
X99338288Y-31814025D01*
X99338289Y-31814025D01*
X99343416Y-31813368D01*
X99348366Y-31811883D01*
X99552429Y-31750661D01*
X99552434Y-31750659D01*
X99557384Y-31749174D01*
X99757994Y-31650896D01*
X99939860Y-31521173D01*
X100098096Y-31363489D01*
X100157594Y-31280689D01*
X100228453Y-31182077D01*
X100229776Y-31183028D01*
X100276645Y-31139857D01*
X100346580Y-31127625D01*
X100412026Y-31155144D01*
X100439875Y-31186994D01*
X100499987Y-31285088D01*
X100646250Y-31453938D01*
X100818126Y-31596632D01*
X101011000Y-31709338D01*
X101219692Y-31789030D01*
X101224760Y-31790061D01*
X101224763Y-31790062D01*
X101319862Y-31809410D01*
X101438597Y-31833567D01*
X101443772Y-31833757D01*
X101443774Y-31833757D01*
X101656673Y-31841564D01*
X101656677Y-31841564D01*
X101661837Y-31841753D01*
X101666957Y-31841097D01*
X101666959Y-31841097D01*
X101878288Y-31814025D01*
X101878289Y-31814025D01*
X101883416Y-31813368D01*
X101888366Y-31811883D01*
X102092429Y-31750661D01*
X102092434Y-31750659D01*
X102097384Y-31749174D01*
X102297994Y-31650896D01*
X102479860Y-31521173D01*
X102638096Y-31363489D01*
X102697594Y-31280689D01*
X102768453Y-31182077D01*
X102769640Y-31182930D01*
X102816960Y-31139362D01*
X102886897Y-31127145D01*
X102952338Y-31154678D01*
X102980166Y-31186511D01*
X103037694Y-31280388D01*
X103043777Y-31288699D01*
X103183213Y-31449667D01*
X103190580Y-31456883D01*
X103354434Y-31592916D01*
X103362881Y-31598831D01*
X103546756Y-31706279D01*
X103556042Y-31710729D01*
X103755001Y-31786703D01*
X103764899Y-31789579D01*
X103868250Y-31810606D01*
X103882299Y-31809410D01*
X103886000Y-31799065D01*
X103886000Y-31798517D01*
X104394000Y-31798517D01*
X104398064Y-31812359D01*
X104411478Y-31814393D01*
X104418184Y-31813534D01*
X104428262Y-31811392D01*
X104632255Y-31750191D01*
X104641842Y-31746433D01*
X104833095Y-31652739D01*
X104841945Y-31647464D01*
X105015328Y-31523792D01*
X105023193Y-31517145D01*
X105127897Y-31412805D01*
X105190268Y-31378889D01*
X105261075Y-31384077D01*
X105317837Y-31426723D01*
X105334819Y-31457826D01*
X105379385Y-31576705D01*
X105466739Y-31693261D01*
X105583295Y-31780615D01*
X105719684Y-31831745D01*
X105781866Y-31838500D01*
X107578134Y-31838500D01*
X107640316Y-31831745D01*
X107776705Y-31780615D01*
X107893261Y-31693261D01*
X107980615Y-31576705D01*
X108031745Y-31440316D01*
X108038500Y-31378134D01*
X108038500Y-30446695D01*
X115477251Y-30446695D01*
X115490110Y-30669715D01*
X115491247Y-30674761D01*
X115491248Y-30674767D01*
X115512275Y-30768069D01*
X115539222Y-30887639D01*
X115623266Y-31094616D01*
X115674942Y-31178944D01*
X115737291Y-31280688D01*
X115739987Y-31285088D01*
X115886250Y-31453938D01*
X116058126Y-31596632D01*
X116251000Y-31709338D01*
X116459692Y-31789030D01*
X116464760Y-31790061D01*
X116464763Y-31790062D01*
X116559862Y-31809410D01*
X116678597Y-31833567D01*
X116683772Y-31833757D01*
X116683774Y-31833757D01*
X116896673Y-31841564D01*
X116896677Y-31841564D01*
X116901837Y-31841753D01*
X116906957Y-31841097D01*
X116906959Y-31841097D01*
X117118288Y-31814025D01*
X117118289Y-31814025D01*
X117123416Y-31813368D01*
X117128366Y-31811883D01*
X117332429Y-31750661D01*
X117332434Y-31750659D01*
X117337384Y-31749174D01*
X117537994Y-31650896D01*
X117719860Y-31521173D01*
X117878096Y-31363489D01*
X117937594Y-31280689D01*
X118008453Y-31182077D01*
X118009776Y-31183028D01*
X118056645Y-31139857D01*
X118126580Y-31127625D01*
X118192026Y-31155144D01*
X118219875Y-31186994D01*
X118279987Y-31285088D01*
X118426250Y-31453938D01*
X118598126Y-31596632D01*
X118791000Y-31709338D01*
X118999692Y-31789030D01*
X119004760Y-31790061D01*
X119004763Y-31790062D01*
X119099862Y-31809410D01*
X119218597Y-31833567D01*
X119223772Y-31833757D01*
X119223774Y-31833757D01*
X119436673Y-31841564D01*
X119436677Y-31841564D01*
X119441837Y-31841753D01*
X119446957Y-31841097D01*
X119446959Y-31841097D01*
X119658288Y-31814025D01*
X119658289Y-31814025D01*
X119663416Y-31813368D01*
X119668366Y-31811883D01*
X119872429Y-31750661D01*
X119872434Y-31750659D01*
X119877384Y-31749174D01*
X120077994Y-31650896D01*
X120259860Y-31521173D01*
X120418096Y-31363489D01*
X120477594Y-31280689D01*
X120548453Y-31182077D01*
X120549776Y-31183028D01*
X120596645Y-31139857D01*
X120666580Y-31127625D01*
X120732026Y-31155144D01*
X120759875Y-31186994D01*
X120819987Y-31285088D01*
X120966250Y-31453938D01*
X121138126Y-31596632D01*
X121331000Y-31709338D01*
X121539692Y-31789030D01*
X121544760Y-31790061D01*
X121544763Y-31790062D01*
X121639862Y-31809410D01*
X121758597Y-31833567D01*
X121763772Y-31833757D01*
X121763774Y-31833757D01*
X121976673Y-31841564D01*
X121976677Y-31841564D01*
X121981837Y-31841753D01*
X121986957Y-31841097D01*
X121986959Y-31841097D01*
X122198288Y-31814025D01*
X122198289Y-31814025D01*
X122203416Y-31813368D01*
X122208366Y-31811883D01*
X122412429Y-31750661D01*
X122412434Y-31750659D01*
X122417384Y-31749174D01*
X122617994Y-31650896D01*
X122799860Y-31521173D01*
X122958096Y-31363489D01*
X123017594Y-31280689D01*
X123088453Y-31182077D01*
X123089776Y-31183028D01*
X123136645Y-31139857D01*
X123206580Y-31127625D01*
X123272026Y-31155144D01*
X123299875Y-31186994D01*
X123359987Y-31285088D01*
X123506250Y-31453938D01*
X123678126Y-31596632D01*
X123871000Y-31709338D01*
X124079692Y-31789030D01*
X124084760Y-31790061D01*
X124084763Y-31790062D01*
X124179862Y-31809410D01*
X124298597Y-31833567D01*
X124303772Y-31833757D01*
X124303774Y-31833757D01*
X124516673Y-31841564D01*
X124516677Y-31841564D01*
X124521837Y-31841753D01*
X124526957Y-31841097D01*
X124526959Y-31841097D01*
X124738288Y-31814025D01*
X124738289Y-31814025D01*
X124743416Y-31813368D01*
X124748366Y-31811883D01*
X124952429Y-31750661D01*
X124952434Y-31750659D01*
X124957384Y-31749174D01*
X125157994Y-31650896D01*
X125339860Y-31521173D01*
X125498096Y-31363489D01*
X125557594Y-31280689D01*
X125628453Y-31182077D01*
X125629640Y-31182930D01*
X125676960Y-31139362D01*
X125746897Y-31127145D01*
X125812338Y-31154678D01*
X125840166Y-31186511D01*
X125897694Y-31280388D01*
X125903777Y-31288699D01*
X126043213Y-31449667D01*
X126050580Y-31456883D01*
X126214434Y-31592916D01*
X126222881Y-31598831D01*
X126406756Y-31706279D01*
X126416042Y-31710729D01*
X126615001Y-31786703D01*
X126624899Y-31789579D01*
X126728250Y-31810606D01*
X126742299Y-31809410D01*
X126746000Y-31799065D01*
X126746000Y-31798517D01*
X127254000Y-31798517D01*
X127258064Y-31812359D01*
X127271478Y-31814393D01*
X127278184Y-31813534D01*
X127288262Y-31811392D01*
X127492255Y-31750191D01*
X127501842Y-31746433D01*
X127693095Y-31652739D01*
X127701945Y-31647464D01*
X127875328Y-31523792D01*
X127883193Y-31517145D01*
X127987897Y-31412805D01*
X128050268Y-31378889D01*
X128121075Y-31384077D01*
X128177837Y-31426723D01*
X128194819Y-31457826D01*
X128239385Y-31576705D01*
X128326739Y-31693261D01*
X128443295Y-31780615D01*
X128579684Y-31831745D01*
X128641866Y-31838500D01*
X130438134Y-31838500D01*
X130500316Y-31831745D01*
X130636705Y-31780615D01*
X130753261Y-31693261D01*
X130840615Y-31576705D01*
X130891745Y-31440316D01*
X130898500Y-31378134D01*
X130898500Y-29581866D01*
X130891745Y-29519684D01*
X130840615Y-29383295D01*
X130753261Y-29266739D01*
X130636705Y-29179385D01*
X130561362Y-29151140D01*
X130518203Y-29134960D01*
X130461439Y-29092318D01*
X130436739Y-29025756D01*
X130451947Y-28956408D01*
X130473493Y-28927727D01*
X130574435Y-28827137D01*
X130578096Y-28823489D01*
X130637594Y-28740689D01*
X130705435Y-28646277D01*
X130708453Y-28642077D01*
X130721995Y-28614678D01*
X130805136Y-28446453D01*
X130805137Y-28446451D01*
X130807430Y-28441811D01*
X130872370Y-28228069D01*
X130901529Y-28006590D01*
X130903156Y-27940000D01*
X130884852Y-27717361D01*
X130830431Y-27500702D01*
X130741354Y-27295840D01*
X130620014Y-27108277D01*
X130469670Y-26943051D01*
X130465619Y-26939852D01*
X130465615Y-26939848D01*
X130298414Y-26807800D01*
X130298410Y-26807798D01*
X130294359Y-26804598D01*
X130258028Y-26784542D01*
X130242136Y-26775769D01*
X130098789Y-26696638D01*
X130093920Y-26694914D01*
X130093916Y-26694912D01*
X129893087Y-26623795D01*
X129893083Y-26623794D01*
X129888212Y-26622069D01*
X129883119Y-26621162D01*
X129883116Y-26621161D01*
X129673373Y-26583800D01*
X129673367Y-26583799D01*
X129668284Y-26582894D01*
X129594452Y-26581992D01*
X129450081Y-26580228D01*
X129450079Y-26580228D01*
X129444911Y-26580165D01*
X129224091Y-26613955D01*
X129011756Y-26683357D01*
X128813607Y-26786507D01*
X128809474Y-26789610D01*
X128809471Y-26789612D01*
X128785247Y-26807800D01*
X128634965Y-26920635D01*
X128480629Y-27082138D01*
X128373204Y-27239618D01*
X128372898Y-27240066D01*
X128317987Y-27285069D01*
X128247462Y-27293240D01*
X128183715Y-27261986D01*
X128163018Y-27237502D01*
X128082426Y-27112926D01*
X128076136Y-27104757D01*
X127932806Y-26947240D01*
X127925273Y-26940215D01*
X127758139Y-26808222D01*
X127749552Y-26802517D01*
X127563117Y-26699599D01*
X127553705Y-26695369D01*
X127352959Y-26624280D01*
X127342988Y-26621646D01*
X127271837Y-26608972D01*
X127258540Y-26610432D01*
X127254000Y-26624989D01*
X127254000Y-31798517D01*
X126746000Y-31798517D01*
X126746000Y-26623102D01*
X126742082Y-26609758D01*
X126727806Y-26607771D01*
X126689324Y-26613660D01*
X126679288Y-26616051D01*
X126476868Y-26682212D01*
X126467359Y-26686209D01*
X126278463Y-26784542D01*
X126269738Y-26790036D01*
X126099433Y-26917905D01*
X126091726Y-26924748D01*
X125944590Y-27078717D01*
X125938109Y-27086722D01*
X125833498Y-27240074D01*
X125778587Y-27285076D01*
X125708062Y-27293247D01*
X125644315Y-27261993D01*
X125623618Y-27237509D01*
X125542822Y-27112617D01*
X125542820Y-27112614D01*
X125540014Y-27108277D01*
X125389670Y-26943051D01*
X125385619Y-26939852D01*
X125385615Y-26939848D01*
X125218414Y-26807800D01*
X125218410Y-26807798D01*
X125214359Y-26804598D01*
X125178028Y-26784542D01*
X125162136Y-26775769D01*
X125018789Y-26696638D01*
X125013920Y-26694914D01*
X125013916Y-26694912D01*
X124813087Y-26623795D01*
X124813083Y-26623794D01*
X124808212Y-26622069D01*
X124803119Y-26621162D01*
X124803116Y-26621161D01*
X124593373Y-26583800D01*
X124593367Y-26583799D01*
X124588284Y-26582894D01*
X124514452Y-26581992D01*
X124370081Y-26580228D01*
X124370079Y-26580228D01*
X124364911Y-26580165D01*
X124144091Y-26613955D01*
X123931756Y-26683357D01*
X123733607Y-26786507D01*
X123729474Y-26789610D01*
X123729471Y-26789612D01*
X123705247Y-26807800D01*
X123554965Y-26920635D01*
X123400629Y-27082138D01*
X123293201Y-27239621D01*
X123238293Y-27284621D01*
X123167768Y-27292792D01*
X123104021Y-27261538D01*
X123083324Y-27237054D01*
X123002822Y-27112617D01*
X123002820Y-27112614D01*
X123000014Y-27108277D01*
X122849670Y-26943051D01*
X122845619Y-26939852D01*
X122845615Y-26939848D01*
X122678414Y-26807800D01*
X122678410Y-26807798D01*
X122674359Y-26804598D01*
X122638028Y-26784542D01*
X122622136Y-26775769D01*
X122478789Y-26696638D01*
X122473920Y-26694914D01*
X122473916Y-26694912D01*
X122273087Y-26623795D01*
X122273083Y-26623794D01*
X122268212Y-26622069D01*
X122263119Y-26621162D01*
X122263116Y-26621161D01*
X122053373Y-26583800D01*
X122053367Y-26583799D01*
X122048284Y-26582894D01*
X121974452Y-26581992D01*
X121830081Y-26580228D01*
X121830079Y-26580228D01*
X121824911Y-26580165D01*
X121604091Y-26613955D01*
X121391756Y-26683357D01*
X121193607Y-26786507D01*
X121189474Y-26789610D01*
X121189471Y-26789612D01*
X121165247Y-26807800D01*
X121014965Y-26920635D01*
X120860629Y-27082138D01*
X120753201Y-27239621D01*
X120698293Y-27284621D01*
X120627768Y-27292792D01*
X120564021Y-27261538D01*
X120543324Y-27237054D01*
X120462822Y-27112617D01*
X120462820Y-27112614D01*
X120460014Y-27108277D01*
X120309670Y-26943051D01*
X120305619Y-26939852D01*
X120305615Y-26939848D01*
X120138414Y-26807800D01*
X120138410Y-26807798D01*
X120134359Y-26804598D01*
X120098028Y-26784542D01*
X120082136Y-26775769D01*
X119938789Y-26696638D01*
X119933920Y-26694914D01*
X119933916Y-26694912D01*
X119733087Y-26623795D01*
X119733083Y-26623794D01*
X119728212Y-26622069D01*
X119723119Y-26621162D01*
X119723116Y-26621161D01*
X119513373Y-26583800D01*
X119513367Y-26583799D01*
X119508284Y-26582894D01*
X119434452Y-26581992D01*
X119290081Y-26580228D01*
X119290079Y-26580228D01*
X119284911Y-26580165D01*
X119064091Y-26613955D01*
X118851756Y-26683357D01*
X118653607Y-26786507D01*
X118649474Y-26789610D01*
X118649471Y-26789612D01*
X118625247Y-26807800D01*
X118474965Y-26920635D01*
X118320629Y-27082138D01*
X118213201Y-27239621D01*
X118158293Y-27284621D01*
X118087768Y-27292792D01*
X118024021Y-27261538D01*
X118003324Y-27237054D01*
X117922822Y-27112617D01*
X117922820Y-27112614D01*
X117920014Y-27108277D01*
X117769670Y-26943051D01*
X117765619Y-26939852D01*
X117765615Y-26939848D01*
X117598414Y-26807800D01*
X117598410Y-26807798D01*
X117594359Y-26804598D01*
X117558028Y-26784542D01*
X117542136Y-26775769D01*
X117398789Y-26696638D01*
X117393920Y-26694914D01*
X117393916Y-26694912D01*
X117193087Y-26623795D01*
X117193083Y-26623794D01*
X117188212Y-26622069D01*
X117183119Y-26621162D01*
X117183116Y-26621161D01*
X116973373Y-26583800D01*
X116973367Y-26583799D01*
X116968284Y-26582894D01*
X116894452Y-26581992D01*
X116750081Y-26580228D01*
X116750079Y-26580228D01*
X116744911Y-26580165D01*
X116524091Y-26613955D01*
X116311756Y-26683357D01*
X116113607Y-26786507D01*
X116109474Y-26789610D01*
X116109471Y-26789612D01*
X116085247Y-26807800D01*
X115934965Y-26920635D01*
X115780629Y-27082138D01*
X115654743Y-27266680D01*
X115560688Y-27469305D01*
X115500989Y-27684570D01*
X115477251Y-27906695D01*
X115477548Y-27911848D01*
X115477548Y-27911851D01*
X115483011Y-28006590D01*
X115490110Y-28129715D01*
X115491247Y-28134761D01*
X115491248Y-28134767D01*
X115511119Y-28222939D01*
X115539222Y-28347639D01*
X115623266Y-28554616D01*
X115674019Y-28637438D01*
X115737291Y-28740688D01*
X115739987Y-28745088D01*
X115886250Y-28913938D01*
X116058126Y-29056632D01*
X116119196Y-29092318D01*
X116131445Y-29099476D01*
X116180169Y-29151114D01*
X116193240Y-29220897D01*
X116166509Y-29286669D01*
X116126055Y-29320027D01*
X116113607Y-29326507D01*
X116109474Y-29329610D01*
X116109471Y-29329612D01*
X116026771Y-29391705D01*
X115934965Y-29460635D01*
X115780629Y-29622138D01*
X115654743Y-29806680D01*
X115560688Y-30009305D01*
X115500989Y-30224570D01*
X115477251Y-30446695D01*
X108038500Y-30446695D01*
X108038500Y-29581866D01*
X108031745Y-29519684D01*
X107980615Y-29383295D01*
X107893261Y-29266739D01*
X107776705Y-29179385D01*
X107701362Y-29151140D01*
X107658203Y-29134960D01*
X107601439Y-29092318D01*
X107576739Y-29025756D01*
X107591947Y-28956408D01*
X107613493Y-28927727D01*
X107714435Y-28827137D01*
X107718096Y-28823489D01*
X107777594Y-28740689D01*
X107845435Y-28646277D01*
X107848453Y-28642077D01*
X107861995Y-28614678D01*
X107945136Y-28446453D01*
X107945137Y-28446451D01*
X107947430Y-28441811D01*
X108012370Y-28228069D01*
X108041529Y-28006590D01*
X108043156Y-27940000D01*
X108024852Y-27717361D01*
X107970431Y-27500702D01*
X107881354Y-27295840D01*
X107760014Y-27108277D01*
X107609670Y-26943051D01*
X107605619Y-26939852D01*
X107605615Y-26939848D01*
X107438414Y-26807800D01*
X107438410Y-26807798D01*
X107434359Y-26804598D01*
X107398028Y-26784542D01*
X107382136Y-26775769D01*
X107238789Y-26696638D01*
X107233920Y-26694914D01*
X107233916Y-26694912D01*
X107033087Y-26623795D01*
X107033083Y-26623794D01*
X107028212Y-26622069D01*
X107023119Y-26621162D01*
X107023116Y-26621161D01*
X106813373Y-26583800D01*
X106813367Y-26583799D01*
X106808284Y-26582894D01*
X106734452Y-26581992D01*
X106590081Y-26580228D01*
X106590079Y-26580228D01*
X106584911Y-26580165D01*
X106364091Y-26613955D01*
X106151756Y-26683357D01*
X105953607Y-26786507D01*
X105949474Y-26789610D01*
X105949471Y-26789612D01*
X105925247Y-26807800D01*
X105774965Y-26920635D01*
X105620629Y-27082138D01*
X105513204Y-27239618D01*
X105512898Y-27240066D01*
X105457987Y-27285069D01*
X105387462Y-27293240D01*
X105323715Y-27261986D01*
X105303018Y-27237502D01*
X105222426Y-27112926D01*
X105216136Y-27104757D01*
X105072806Y-26947240D01*
X105065273Y-26940215D01*
X104898139Y-26808222D01*
X104889552Y-26802517D01*
X104703117Y-26699599D01*
X104693705Y-26695369D01*
X104492959Y-26624280D01*
X104482988Y-26621646D01*
X104411837Y-26608972D01*
X104398540Y-26610432D01*
X104394000Y-26624989D01*
X104394000Y-31798517D01*
X103886000Y-31798517D01*
X103886000Y-26623102D01*
X103882082Y-26609758D01*
X103867806Y-26607771D01*
X103829324Y-26613660D01*
X103819288Y-26616051D01*
X103616868Y-26682212D01*
X103607359Y-26686209D01*
X103418463Y-26784542D01*
X103409738Y-26790036D01*
X103239433Y-26917905D01*
X103231726Y-26924748D01*
X103084590Y-27078717D01*
X103078109Y-27086722D01*
X102973498Y-27240074D01*
X102918587Y-27285076D01*
X102848062Y-27293247D01*
X102784315Y-27261993D01*
X102763618Y-27237509D01*
X102682822Y-27112617D01*
X102682820Y-27112614D01*
X102680014Y-27108277D01*
X102529670Y-26943051D01*
X102525619Y-26939852D01*
X102525615Y-26939848D01*
X102358414Y-26807800D01*
X102358410Y-26807798D01*
X102354359Y-26804598D01*
X102318028Y-26784542D01*
X102302136Y-26775769D01*
X102158789Y-26696638D01*
X102153920Y-26694914D01*
X102153916Y-26694912D01*
X101953087Y-26623795D01*
X101953083Y-26623794D01*
X101948212Y-26622069D01*
X101943119Y-26621162D01*
X101943116Y-26621161D01*
X101733373Y-26583800D01*
X101733367Y-26583799D01*
X101728284Y-26582894D01*
X101654452Y-26581992D01*
X101510081Y-26580228D01*
X101510079Y-26580228D01*
X101504911Y-26580165D01*
X101284091Y-26613955D01*
X101071756Y-26683357D01*
X100873607Y-26786507D01*
X100869474Y-26789610D01*
X100869471Y-26789612D01*
X100845247Y-26807800D01*
X100694965Y-26920635D01*
X100540629Y-27082138D01*
X100433201Y-27239621D01*
X100378293Y-27284621D01*
X100307768Y-27292792D01*
X100244021Y-27261538D01*
X100223324Y-27237054D01*
X100142822Y-27112617D01*
X100142820Y-27112614D01*
X100140014Y-27108277D01*
X99989670Y-26943051D01*
X99985619Y-26939852D01*
X99985615Y-26939848D01*
X99818414Y-26807800D01*
X99818410Y-26807798D01*
X99814359Y-26804598D01*
X99778028Y-26784542D01*
X99762136Y-26775769D01*
X99618789Y-26696638D01*
X99613920Y-26694914D01*
X99613916Y-26694912D01*
X99413087Y-26623795D01*
X99413083Y-26623794D01*
X99408212Y-26622069D01*
X99403119Y-26621162D01*
X99403116Y-26621161D01*
X99193373Y-26583800D01*
X99193367Y-26583799D01*
X99188284Y-26582894D01*
X99114452Y-26581992D01*
X98970081Y-26580228D01*
X98970079Y-26580228D01*
X98964911Y-26580165D01*
X98744091Y-26613955D01*
X98531756Y-26683357D01*
X98333607Y-26786507D01*
X98329474Y-26789610D01*
X98329471Y-26789612D01*
X98305247Y-26807800D01*
X98154965Y-26920635D01*
X98000629Y-27082138D01*
X97893201Y-27239621D01*
X97838293Y-27284621D01*
X97767768Y-27292792D01*
X97704021Y-27261538D01*
X97683324Y-27237054D01*
X97602822Y-27112617D01*
X97602820Y-27112614D01*
X97600014Y-27108277D01*
X97449670Y-26943051D01*
X97445619Y-26939852D01*
X97445615Y-26939848D01*
X97278414Y-26807800D01*
X97278410Y-26807798D01*
X97274359Y-26804598D01*
X97238028Y-26784542D01*
X97222136Y-26775769D01*
X97078789Y-26696638D01*
X97073920Y-26694914D01*
X97073916Y-26694912D01*
X96873087Y-26623795D01*
X96873083Y-26623794D01*
X96868212Y-26622069D01*
X96863119Y-26621162D01*
X96863116Y-26621161D01*
X96653373Y-26583800D01*
X96653367Y-26583799D01*
X96648284Y-26582894D01*
X96574452Y-26581992D01*
X96430081Y-26580228D01*
X96430079Y-26580228D01*
X96424911Y-26580165D01*
X96204091Y-26613955D01*
X95991756Y-26683357D01*
X95793607Y-26786507D01*
X95789474Y-26789610D01*
X95789471Y-26789612D01*
X95765247Y-26807800D01*
X95614965Y-26920635D01*
X95460629Y-27082138D01*
X95353201Y-27239621D01*
X95298293Y-27284621D01*
X95227768Y-27292792D01*
X95164021Y-27261538D01*
X95143324Y-27237054D01*
X95062822Y-27112617D01*
X95062820Y-27112614D01*
X95060014Y-27108277D01*
X94909670Y-26943051D01*
X94905619Y-26939852D01*
X94905615Y-26939848D01*
X94738414Y-26807800D01*
X94738410Y-26807798D01*
X94734359Y-26804598D01*
X94698028Y-26784542D01*
X94682136Y-26775769D01*
X94538789Y-26696638D01*
X94533920Y-26694914D01*
X94533916Y-26694912D01*
X94333087Y-26623795D01*
X94333083Y-26623794D01*
X94328212Y-26622069D01*
X94323119Y-26621162D01*
X94323116Y-26621161D01*
X94113373Y-26583800D01*
X94113367Y-26583799D01*
X94108284Y-26582894D01*
X94034452Y-26581992D01*
X93890081Y-26580228D01*
X93890079Y-26580228D01*
X93884911Y-26580165D01*
X93664091Y-26613955D01*
X93451756Y-26683357D01*
X93253607Y-26786507D01*
X93249474Y-26789610D01*
X93249471Y-26789612D01*
X93225247Y-26807800D01*
X93074965Y-26920635D01*
X92920629Y-27082138D01*
X92794743Y-27266680D01*
X92700688Y-27469305D01*
X92640989Y-27684570D01*
X92617251Y-27906695D01*
X92617548Y-27911848D01*
X92617548Y-27911851D01*
X92623011Y-28006590D01*
X92630110Y-28129715D01*
X92631247Y-28134761D01*
X92631248Y-28134767D01*
X92651119Y-28222939D01*
X92679222Y-28347639D01*
X92763266Y-28554616D01*
X92814019Y-28637438D01*
X92877291Y-28740688D01*
X92879987Y-28745088D01*
X93026250Y-28913938D01*
X93198126Y-29056632D01*
X93259196Y-29092318D01*
X93271445Y-29099476D01*
X93320169Y-29151114D01*
X93333240Y-29220897D01*
X93306509Y-29286669D01*
X93266055Y-29320027D01*
X93253607Y-29326507D01*
X93249474Y-29329610D01*
X93249471Y-29329612D01*
X93166771Y-29391705D01*
X93074965Y-29460635D01*
X92920629Y-29622138D01*
X92794743Y-29806680D01*
X92700688Y-30009305D01*
X92640989Y-30224570D01*
X92617251Y-30446695D01*
X85178500Y-30446695D01*
X85178500Y-29581866D01*
X85171745Y-29519684D01*
X85120615Y-29383295D01*
X85033261Y-29266739D01*
X84916705Y-29179385D01*
X84841362Y-29151140D01*
X84798203Y-29134960D01*
X84741439Y-29092318D01*
X84716739Y-29025756D01*
X84731947Y-28956408D01*
X84753493Y-28927727D01*
X84854435Y-28827137D01*
X84858096Y-28823489D01*
X84917594Y-28740689D01*
X84985435Y-28646277D01*
X84988453Y-28642077D01*
X85001995Y-28614678D01*
X85085136Y-28446453D01*
X85085137Y-28446451D01*
X85087430Y-28441811D01*
X85152370Y-28228069D01*
X85181529Y-28006590D01*
X85183156Y-27940000D01*
X85164852Y-27717361D01*
X85110431Y-27500702D01*
X85021354Y-27295840D01*
X84900014Y-27108277D01*
X84749670Y-26943051D01*
X84745619Y-26939852D01*
X84745615Y-26939848D01*
X84578414Y-26807800D01*
X84578410Y-26807798D01*
X84574359Y-26804598D01*
X84538028Y-26784542D01*
X84522136Y-26775769D01*
X84378789Y-26696638D01*
X84373920Y-26694914D01*
X84373916Y-26694912D01*
X84173087Y-26623795D01*
X84173083Y-26623794D01*
X84168212Y-26622069D01*
X84163119Y-26621162D01*
X84163116Y-26621161D01*
X83953373Y-26583800D01*
X83953367Y-26583799D01*
X83948284Y-26582894D01*
X83874452Y-26581992D01*
X83730081Y-26580228D01*
X83730079Y-26580228D01*
X83724911Y-26580165D01*
X83504091Y-26613955D01*
X83291756Y-26683357D01*
X83093607Y-26786507D01*
X83089474Y-26789610D01*
X83089471Y-26789612D01*
X83065247Y-26807800D01*
X82914965Y-26920635D01*
X82760629Y-27082138D01*
X82653204Y-27239618D01*
X82652898Y-27240066D01*
X82597987Y-27285069D01*
X82527462Y-27293240D01*
X82463715Y-27261986D01*
X82443018Y-27237502D01*
X82362426Y-27112926D01*
X82356136Y-27104757D01*
X82212806Y-26947240D01*
X82205273Y-26940215D01*
X82038139Y-26808222D01*
X82029552Y-26802517D01*
X81843117Y-26699599D01*
X81833705Y-26695369D01*
X81632959Y-26624280D01*
X81622988Y-26621646D01*
X81551837Y-26608972D01*
X81538540Y-26610432D01*
X81534000Y-26624989D01*
X81534000Y-31798517D01*
X81026000Y-31798517D01*
X81026000Y-26623102D01*
X81022082Y-26609758D01*
X81007806Y-26607771D01*
X80969324Y-26613660D01*
X80959288Y-26616051D01*
X80756868Y-26682212D01*
X80747359Y-26686209D01*
X80558463Y-26784542D01*
X80549738Y-26790036D01*
X80379433Y-26917905D01*
X80371726Y-26924748D01*
X80224590Y-27078717D01*
X80218109Y-27086722D01*
X80113498Y-27240074D01*
X80058587Y-27285076D01*
X79988062Y-27293247D01*
X79924315Y-27261993D01*
X79903618Y-27237509D01*
X79822822Y-27112617D01*
X79822820Y-27112614D01*
X79820014Y-27108277D01*
X79669670Y-26943051D01*
X79665619Y-26939852D01*
X79665615Y-26939848D01*
X79498414Y-26807800D01*
X79498410Y-26807798D01*
X79494359Y-26804598D01*
X79458028Y-26784542D01*
X79442136Y-26775769D01*
X79298789Y-26696638D01*
X79293920Y-26694914D01*
X79293916Y-26694912D01*
X79093087Y-26623795D01*
X79093083Y-26623794D01*
X79088212Y-26622069D01*
X79083119Y-26621162D01*
X79083116Y-26621161D01*
X78873373Y-26583800D01*
X78873367Y-26583799D01*
X78868284Y-26582894D01*
X78794452Y-26581992D01*
X78650081Y-26580228D01*
X78650079Y-26580228D01*
X78644911Y-26580165D01*
X78424091Y-26613955D01*
X78211756Y-26683357D01*
X78013607Y-26786507D01*
X78009474Y-26789610D01*
X78009471Y-26789612D01*
X77985247Y-26807800D01*
X77834965Y-26920635D01*
X77680629Y-27082138D01*
X77573201Y-27239621D01*
X77518293Y-27284621D01*
X77447768Y-27292792D01*
X77384021Y-27261538D01*
X77363324Y-27237054D01*
X77282822Y-27112617D01*
X77282820Y-27112614D01*
X77280014Y-27108277D01*
X77129670Y-26943051D01*
X77125619Y-26939852D01*
X77125615Y-26939848D01*
X76958414Y-26807800D01*
X76958410Y-26807798D01*
X76954359Y-26804598D01*
X76918028Y-26784542D01*
X76902136Y-26775769D01*
X76758789Y-26696638D01*
X76753920Y-26694914D01*
X76753916Y-26694912D01*
X76553087Y-26623795D01*
X76553083Y-26623794D01*
X76548212Y-26622069D01*
X76543119Y-26621162D01*
X76543116Y-26621161D01*
X76333373Y-26583800D01*
X76333367Y-26583799D01*
X76328284Y-26582894D01*
X76254452Y-26581992D01*
X76110081Y-26580228D01*
X76110079Y-26580228D01*
X76104911Y-26580165D01*
X75884091Y-26613955D01*
X75671756Y-26683357D01*
X75473607Y-26786507D01*
X75469474Y-26789610D01*
X75469471Y-26789612D01*
X75445247Y-26807800D01*
X75294965Y-26920635D01*
X75140629Y-27082138D01*
X75033201Y-27239621D01*
X74978293Y-27284621D01*
X74907768Y-27292792D01*
X74844021Y-27261538D01*
X74823324Y-27237054D01*
X74742822Y-27112617D01*
X74742820Y-27112614D01*
X74740014Y-27108277D01*
X74589670Y-26943051D01*
X74585619Y-26939852D01*
X74585615Y-26939848D01*
X74418414Y-26807800D01*
X74418410Y-26807798D01*
X74414359Y-26804598D01*
X74378028Y-26784542D01*
X74362136Y-26775769D01*
X74218789Y-26696638D01*
X74213920Y-26694914D01*
X74213916Y-26694912D01*
X74013087Y-26623795D01*
X74013083Y-26623794D01*
X74008212Y-26622069D01*
X74003119Y-26621162D01*
X74003116Y-26621161D01*
X73793373Y-26583800D01*
X73793367Y-26583799D01*
X73788284Y-26582894D01*
X73714452Y-26581992D01*
X73570081Y-26580228D01*
X73570079Y-26580228D01*
X73564911Y-26580165D01*
X73344091Y-26613955D01*
X73131756Y-26683357D01*
X72933607Y-26786507D01*
X72929474Y-26789610D01*
X72929471Y-26789612D01*
X72905247Y-26807800D01*
X72754965Y-26920635D01*
X72600629Y-27082138D01*
X72493201Y-27239621D01*
X72438293Y-27284621D01*
X72367768Y-27292792D01*
X72304021Y-27261538D01*
X72283324Y-27237054D01*
X72202822Y-27112617D01*
X72202820Y-27112614D01*
X72200014Y-27108277D01*
X72049670Y-26943051D01*
X72045619Y-26939852D01*
X72045615Y-26939848D01*
X71878414Y-26807800D01*
X71878410Y-26807798D01*
X71874359Y-26804598D01*
X71838028Y-26784542D01*
X71822136Y-26775769D01*
X71678789Y-26696638D01*
X71673920Y-26694914D01*
X71673916Y-26694912D01*
X71473087Y-26623795D01*
X71473083Y-26623794D01*
X71468212Y-26622069D01*
X71463119Y-26621162D01*
X71463116Y-26621161D01*
X71253373Y-26583800D01*
X71253367Y-26583799D01*
X71248284Y-26582894D01*
X71174452Y-26581992D01*
X71030081Y-26580228D01*
X71030079Y-26580228D01*
X71024911Y-26580165D01*
X70804091Y-26613955D01*
X70591756Y-26683357D01*
X70393607Y-26786507D01*
X70389474Y-26789610D01*
X70389471Y-26789612D01*
X70365247Y-26807800D01*
X70214965Y-26920635D01*
X70060629Y-27082138D01*
X69934743Y-27266680D01*
X69840688Y-27469305D01*
X69780989Y-27684570D01*
X69757251Y-27906695D01*
X69757548Y-27911848D01*
X69757548Y-27911851D01*
X69763011Y-28006590D01*
X69770110Y-28129715D01*
X69771247Y-28134761D01*
X69771248Y-28134767D01*
X69791119Y-28222939D01*
X69819222Y-28347639D01*
X69903266Y-28554616D01*
X69954019Y-28637438D01*
X70017291Y-28740688D01*
X70019987Y-28745088D01*
X70166250Y-28913938D01*
X70338126Y-29056632D01*
X70399196Y-29092318D01*
X70411445Y-29099476D01*
X70460169Y-29151114D01*
X70473240Y-29220897D01*
X70446509Y-29286669D01*
X70406055Y-29320027D01*
X70393607Y-29326507D01*
X70389474Y-29329610D01*
X70389471Y-29329612D01*
X70306771Y-29391705D01*
X70214965Y-29460635D01*
X70060629Y-29622138D01*
X69934743Y-29806680D01*
X69840688Y-30009305D01*
X69780989Y-30224570D01*
X69757251Y-30446695D01*
X53848500Y-30446695D01*
X53848500Y-22860000D01*
X54706411Y-22860000D01*
X54726754Y-23248176D01*
X54787562Y-23632099D01*
X54888167Y-24007562D01*
X55027468Y-24370453D01*
X55203938Y-24716794D01*
X55415643Y-25042793D01*
X55660266Y-25344876D01*
X55935124Y-25619734D01*
X56237207Y-25864357D01*
X56563205Y-26076062D01*
X56566139Y-26077557D01*
X56566146Y-26077561D01*
X56906607Y-26251034D01*
X56909547Y-26252532D01*
X57272438Y-26391833D01*
X57647901Y-26492438D01*
X57851793Y-26524732D01*
X58028576Y-26552732D01*
X58028584Y-26552733D01*
X58031824Y-26553246D01*
X58420000Y-26573589D01*
X58808176Y-26553246D01*
X58811416Y-26552733D01*
X58811424Y-26552732D01*
X58988207Y-26524732D01*
X59192099Y-26492438D01*
X59567562Y-26391833D01*
X59930453Y-26252532D01*
X59933393Y-26251034D01*
X60273854Y-26077561D01*
X60273861Y-26077557D01*
X60276795Y-26076062D01*
X60602793Y-25864357D01*
X60904876Y-25619734D01*
X61179734Y-25344876D01*
X61424357Y-25042793D01*
X61636062Y-24716794D01*
X61812532Y-24370453D01*
X61951833Y-24007562D01*
X62052438Y-23632099D01*
X62113246Y-23248176D01*
X62133589Y-22860000D01*
X134856411Y-22860000D01*
X134876754Y-23248176D01*
X134937562Y-23632099D01*
X135038167Y-24007562D01*
X135177468Y-24370453D01*
X135353938Y-24716794D01*
X135565643Y-25042793D01*
X135810266Y-25344876D01*
X136085124Y-25619734D01*
X136387207Y-25864357D01*
X136713205Y-26076062D01*
X136716139Y-26077557D01*
X136716146Y-26077561D01*
X137056607Y-26251034D01*
X137059547Y-26252532D01*
X137422438Y-26391833D01*
X137797901Y-26492438D01*
X138001793Y-26524732D01*
X138178576Y-26552732D01*
X138178584Y-26552733D01*
X138181824Y-26553246D01*
X138570000Y-26573589D01*
X138958176Y-26553246D01*
X138961416Y-26552733D01*
X138961424Y-26552732D01*
X139138207Y-26524732D01*
X139342099Y-26492438D01*
X139717562Y-26391833D01*
X140080453Y-26252532D01*
X140083393Y-26251034D01*
X140423854Y-26077561D01*
X140423861Y-26077557D01*
X140426795Y-26076062D01*
X140752793Y-25864357D01*
X141054876Y-25619734D01*
X141329734Y-25344876D01*
X141574357Y-25042793D01*
X141786062Y-24716794D01*
X141962532Y-24370453D01*
X142101833Y-24007562D01*
X142202438Y-23632099D01*
X142263246Y-23248176D01*
X142283589Y-22860000D01*
X142263246Y-22471824D01*
X142202438Y-22087901D01*
X142101833Y-21712438D01*
X141962532Y-21349547D01*
X141786062Y-21003206D01*
X141574357Y-20677207D01*
X141329734Y-20375124D01*
X141054876Y-20100266D01*
X140752793Y-19855643D01*
X140426795Y-19643938D01*
X140423861Y-19642443D01*
X140423854Y-19642439D01*
X140083393Y-19468966D01*
X140080453Y-19467468D01*
X139717562Y-19328167D01*
X139342099Y-19227562D01*
X139138207Y-19195268D01*
X138961424Y-19167268D01*
X138961416Y-19167267D01*
X138958176Y-19166754D01*
X138570000Y-19146411D01*
X138181824Y-19166754D01*
X138178584Y-19167267D01*
X138178576Y-19167268D01*
X138001793Y-19195268D01*
X137797901Y-19227562D01*
X137422438Y-19328167D01*
X137059547Y-19467468D01*
X137056607Y-19468966D01*
X136716147Y-19642439D01*
X136716140Y-19642443D01*
X136713206Y-19643938D01*
X136387207Y-19855643D01*
X136085124Y-20100266D01*
X135810266Y-20375124D01*
X135565643Y-20677207D01*
X135353938Y-21003206D01*
X135177468Y-21349547D01*
X135038167Y-21712438D01*
X134937562Y-22087901D01*
X134876754Y-22471824D01*
X134856411Y-22860000D01*
X62133589Y-22860000D01*
X62113246Y-22471824D01*
X62052438Y-22087901D01*
X61951833Y-21712438D01*
X61812532Y-21349547D01*
X61636062Y-21003206D01*
X61424357Y-20677207D01*
X61179734Y-20375124D01*
X60904876Y-20100266D01*
X60602793Y-19855643D01*
X60276795Y-19643938D01*
X60273861Y-19642443D01*
X60273854Y-19642439D01*
X59933393Y-19468966D01*
X59930453Y-19467468D01*
X59567562Y-19328167D01*
X59192099Y-19227562D01*
X58988207Y-19195268D01*
X58811424Y-19167268D01*
X58811416Y-19167267D01*
X58808176Y-19166754D01*
X58420000Y-19146411D01*
X58031824Y-19166754D01*
X58028584Y-19167267D01*
X58028576Y-19167268D01*
X57851793Y-19195268D01*
X57647901Y-19227562D01*
X57272438Y-19328167D01*
X56909547Y-19467468D01*
X56906607Y-19468966D01*
X56566147Y-19642439D01*
X56566140Y-19642443D01*
X56563206Y-19643938D01*
X56237207Y-19855643D01*
X55935124Y-20100266D01*
X55660266Y-20375124D01*
X55415643Y-20677207D01*
X55203938Y-21003206D01*
X55027468Y-21349547D01*
X54888167Y-21712438D01*
X54787562Y-22087901D01*
X54726754Y-22471824D01*
X54706411Y-22860000D01*
X53848500Y-22860000D01*
X53848500Y-18414500D01*
X53868502Y-18346379D01*
X53922158Y-18299886D01*
X53974500Y-18288500D01*
X142875500Y-18288500D01*
X142943621Y-18308502D01*
G37*
%TD.AperFunction*%
%TA.AperFunction,Conductor*%
G36*
X123044121Y-80758991D02*
G01*
X123090614Y-80812647D01*
X123102000Y-80864989D01*
X123102000Y-81007885D01*
X123106475Y-81023124D01*
X123107865Y-81024329D01*
X123115548Y-81026000D01*
X124588000Y-81026000D01*
X124656121Y-81046002D01*
X124702614Y-81099658D01*
X124714000Y-81152000D01*
X124714000Y-81408000D01*
X124693998Y-81476121D01*
X124640342Y-81522614D01*
X124588000Y-81534000D01*
X123120116Y-81534000D01*
X123104877Y-81538475D01*
X123103672Y-81539865D01*
X123102001Y-81547548D01*
X123102001Y-81790500D01*
X123081999Y-81858621D01*
X123028343Y-81905114D01*
X122976001Y-81916500D01*
X115602817Y-81916500D01*
X115534696Y-81896498D01*
X115488203Y-81842842D01*
X115478099Y-81772568D01*
X115488623Y-81737249D01*
X115496115Y-81721183D01*
X115496117Y-81721178D01*
X115498440Y-81716196D01*
X115555978Y-81501463D01*
X115575353Y-81280000D01*
X115555978Y-81058537D01*
X115512855Y-80897600D01*
X115514545Y-80826624D01*
X115554339Y-80767828D01*
X115619603Y-80739880D01*
X115634562Y-80738989D01*
X122976000Y-80738989D01*
X123044121Y-80758991D01*
G37*
%TD.AperFunction*%
%TD*%
M02*
