M48
; DRILL file {KiCad (6.0.5)} date zo 29 mei 2022 15:22:16 CEST
; FORMAT={-:-/ absolute / inch / decimal}
; #@! TF.CreationDate,2022-05-29T15:22:16+02:00
; #@! TF.GenerationSoftware,Kicad,Pcbnew,(6.0.5)
; #@! TF.FileFunction,Plated,1,2,PTH
FMAT,2
INCH
; #@! TA.AperFunction,Plated,PTH,ComponentDrill
T1C0.0236
; #@! TA.AperFunction,Plated,PTH,ComponentDrill
T2C0.0394
; #@! TA.AperFunction,Plated,PTH,ComponentDrill
T3C0.1693
%
G90
G05
T1
X1.873Y-0.9
X1.873Y-1.9
X1.9102Y-0.8102
X1.9102Y-0.9898
X1.9102Y-1.8102
X1.9102Y-1.9898
X2.0Y-0.773
X2.0Y-1.027
X2.0Y-1.773
X2.0Y-2.027
X2.0898Y-0.8102
X2.0898Y-0.9898
X2.0898Y-1.8102
X2.0898Y-1.9898
X2.127Y-0.9
X2.127Y-1.9
X4.973Y-0.9
X4.973Y-1.9
X5.0102Y-0.8102
X5.0102Y-0.9898
X5.0102Y-1.8102
X5.0102Y-1.9898
X5.1Y-0.773
X5.1Y-1.027
X5.1Y-1.773
X5.1Y-2.027
X5.1898Y-0.8102
X5.1898Y-0.9898
X5.1898Y-1.8102
X5.1898Y-1.9898
X5.227Y-0.9
X5.227Y-1.9
T2
X2.4Y-1.1
X2.4Y-1.2
X2.4Y-1.7
X2.4Y-1.8
X2.5Y-1.1
X2.5Y-1.2
X2.5Y-1.7
X2.5Y-1.8
X2.6Y-1.1
X2.6Y-1.2
X2.6Y-1.7
X2.6Y-1.8
X2.7Y-1.1
X2.7Y-1.2
X2.7Y-1.7
X2.7Y-1.8
X2.8Y-1.1
X2.8Y-1.2
X2.9Y-1.1
X2.9Y-1.2
X3.3Y-1.1
X3.3Y-1.2
X3.3Y-1.7
X3.3Y-1.8
X3.4Y-1.1
X3.4Y-1.2
X3.4Y-1.7
X3.4Y-1.8
X3.5Y-1.1
X3.5Y-1.2
X3.5Y-1.7
X3.5Y-1.8
X3.5Y-2.0
X3.6Y-1.1
X3.6Y-1.2
X3.6Y-1.7
X3.6Y-1.8
X3.6Y-2.0
X3.7Y-1.1
X3.7Y-1.2
X3.8Y-1.1
X3.8Y-1.2
X4.2Y-1.1
X4.2Y-1.2
X4.2Y-1.7
X4.2Y-1.8
X4.3Y-1.1
X4.3Y-1.2
X4.3Y-1.7
X4.3Y-1.8
X4.4Y-1.1
X4.4Y-1.2
X4.4Y-1.7
X4.4Y-1.8
X4.5Y-1.1
X4.5Y-1.2
X4.5Y-1.7
X4.5Y-1.8
X4.6Y-1.1
X4.6Y-1.2
X4.7Y-1.1
X4.7Y-1.2
T3
X2.0Y-0.9
X2.0Y-1.9
X5.1Y-0.9
X5.1Y-1.9
T0
M30
