%TF.GenerationSoftware,KiCad,Pcbnew,(6.0.5)*%
%TF.CreationDate,2022-05-29T15:22:12+02:00*%
%TF.ProjectId,pmod_master,706d6f64-5f6d-4617-9374-65722e6b6963,rev?*%
%TF.SameCoordinates,Original*%
%TF.FileFunction,Legend,Top*%
%TF.FilePolarity,Positive*%
%FSLAX46Y46*%
G04 Gerber Fmt 4.6, Leading zero omitted, Abs format (unit mm)*
G04 Created by KiCad (PCBNEW (6.0.5)) date 2022-05-29 15:22:12*
%MOMM*%
%LPD*%
G01*
G04 APERTURE LIST*
%ADD10C,0.120000*%
%ADD11C,0.150000*%
G04 APERTURE END LIST*
D10*
X81915000Y-33020000D02*
X98425000Y-33020000D01*
X98425000Y-33020000D02*
X98425000Y-41275000D01*
X98425000Y-41275000D02*
X81915000Y-41275000D01*
X81915000Y-41275000D02*
X81915000Y-33020000D01*
X59055000Y-33020000D02*
X75565000Y-33020000D01*
X75565000Y-33020000D02*
X75565000Y-41275000D01*
X75565000Y-41275000D02*
X59055000Y-41275000D01*
X59055000Y-41275000D02*
X59055000Y-33020000D01*
X104140000Y-33020000D02*
X121285000Y-33020000D01*
X121285000Y-33020000D02*
X121285000Y-41275000D01*
X121285000Y-41275000D02*
X104140000Y-41275000D01*
X104140000Y-41275000D02*
X104140000Y-33020000D01*
D11*
X107132380Y-39639761D02*
X106132380Y-39639761D01*
X107132380Y-39163571D02*
X106132380Y-39163571D01*
X107132380Y-38592142D01*
X106132380Y-38592142D01*
X106132380Y-38258809D02*
X106132380Y-37687380D01*
X107132380Y-37973095D02*
X106132380Y-37973095D01*
X94488095Y-50300000D02*
X94392857Y-50252380D01*
X94250000Y-50252380D01*
X94107142Y-50300000D01*
X94011904Y-50395238D01*
X93964285Y-50490476D01*
X93916666Y-50680952D01*
X93916666Y-50823809D01*
X93964285Y-51014285D01*
X94011904Y-51109523D01*
X94107142Y-51204761D01*
X94250000Y-51252380D01*
X94345238Y-51252380D01*
X94488095Y-51204761D01*
X94535714Y-51157142D01*
X94535714Y-50823809D01*
X94345238Y-50823809D01*
X94964285Y-51252380D02*
X94964285Y-50252380D01*
X95535714Y-51252380D01*
X95535714Y-50252380D01*
X96011904Y-51252380D02*
X96011904Y-50252380D01*
X96250000Y-50252380D01*
X96392857Y-50300000D01*
X96488095Y-50395238D01*
X96535714Y-50490476D01*
X96583333Y-50680952D01*
X96583333Y-50823809D01*
X96535714Y-51014285D01*
X96488095Y-51109523D01*
X96392857Y-51204761D01*
X96250000Y-51252380D01*
X96011904Y-51252380D01*
X61412380Y-35829761D02*
X60412380Y-35829761D01*
X61412380Y-35353571D02*
X60412380Y-35353571D01*
X61412380Y-34782142D01*
X60412380Y-34782142D01*
X60412380Y-34448809D02*
X60412380Y-33877380D01*
X61412380Y-34163095D02*
X60412380Y-34163095D01*
X70620000Y-35686904D02*
X70572380Y-35782142D01*
X70572380Y-35925000D01*
X70620000Y-36067857D01*
X70715238Y-36163095D01*
X70810476Y-36210714D01*
X71000952Y-36258333D01*
X71143809Y-36258333D01*
X71334285Y-36210714D01*
X71429523Y-36163095D01*
X71524761Y-36067857D01*
X71572380Y-35925000D01*
X71572380Y-35829761D01*
X71524761Y-35686904D01*
X71477142Y-35639285D01*
X71143809Y-35639285D01*
X71143809Y-35829761D01*
X71572380Y-35210714D02*
X70572380Y-35210714D01*
X71572380Y-34639285D01*
X70572380Y-34639285D01*
X71572380Y-34163095D02*
X70572380Y-34163095D01*
X70572380Y-33925000D01*
X70620000Y-33782142D01*
X70715238Y-33686904D01*
X70810476Y-33639285D01*
X71000952Y-33591666D01*
X71143809Y-33591666D01*
X71334285Y-33639285D01*
X71429523Y-33686904D01*
X71524761Y-33782142D01*
X71572380Y-33925000D01*
X71572380Y-34163095D01*
X93480000Y-39496904D02*
X93432380Y-39592142D01*
X93432380Y-39735000D01*
X93480000Y-39877857D01*
X93575238Y-39973095D01*
X93670476Y-40020714D01*
X93860952Y-40068333D01*
X94003809Y-40068333D01*
X94194285Y-40020714D01*
X94289523Y-39973095D01*
X94384761Y-39877857D01*
X94432380Y-39735000D01*
X94432380Y-39639761D01*
X94384761Y-39496904D01*
X94337142Y-39449285D01*
X94003809Y-39449285D01*
X94003809Y-39639761D01*
X94432380Y-39020714D02*
X93432380Y-39020714D01*
X94432380Y-38449285D01*
X93432380Y-38449285D01*
X94432380Y-37973095D02*
X93432380Y-37973095D01*
X93432380Y-37735000D01*
X93480000Y-37592142D01*
X93575238Y-37496904D01*
X93670476Y-37449285D01*
X93860952Y-37401666D01*
X94003809Y-37401666D01*
X94194285Y-37449285D01*
X94289523Y-37496904D01*
X94384761Y-37592142D01*
X94432380Y-37735000D01*
X94432380Y-37973095D01*
X85812380Y-39996904D02*
X85812380Y-39425476D01*
X86812380Y-39711190D02*
X85812380Y-39711190D01*
X85812380Y-39187380D02*
X86812380Y-38520714D01*
X85812380Y-38520714D02*
X86812380Y-39187380D01*
X86812380Y-38139761D02*
X85812380Y-38139761D01*
X85812380Y-37901666D01*
X85860000Y-37758809D01*
X85955238Y-37663571D01*
X86050476Y-37615952D01*
X86240952Y-37568333D01*
X86383809Y-37568333D01*
X86574285Y-37615952D01*
X86669523Y-37663571D01*
X86764761Y-37758809D01*
X86812380Y-37901666D01*
X86812380Y-38139761D01*
X91892380Y-39282619D02*
X91416190Y-39615952D01*
X91892380Y-39854047D02*
X90892380Y-39854047D01*
X90892380Y-39473095D01*
X90940000Y-39377857D01*
X90987619Y-39330238D01*
X91082857Y-39282619D01*
X91225714Y-39282619D01*
X91320952Y-39330238D01*
X91368571Y-39377857D01*
X91416190Y-39473095D01*
X91416190Y-39854047D01*
X90892380Y-38996904D02*
X90892380Y-38425476D01*
X91892380Y-38711190D02*
X90892380Y-38711190D01*
X91844761Y-38139761D02*
X91892380Y-37996904D01*
X91892380Y-37758809D01*
X91844761Y-37663571D01*
X91797142Y-37615952D01*
X91701904Y-37568333D01*
X91606666Y-37568333D01*
X91511428Y-37615952D01*
X91463809Y-37663571D01*
X91416190Y-37758809D01*
X91368571Y-37949285D01*
X91320952Y-38044523D01*
X91273333Y-38092142D01*
X91178095Y-38139761D01*
X91082857Y-38139761D01*
X90987619Y-38092142D01*
X90940000Y-38044523D01*
X90892380Y-37949285D01*
X90892380Y-37711190D01*
X90940000Y-37568333D01*
X118832380Y-40068333D02*
X119832380Y-39735000D01*
X118832380Y-39401666D01*
X119737142Y-38496904D02*
X119784761Y-38544523D01*
X119832380Y-38687380D01*
X119832380Y-38782619D01*
X119784761Y-38925476D01*
X119689523Y-39020714D01*
X119594285Y-39068333D01*
X119403809Y-39115952D01*
X119260952Y-39115952D01*
X119070476Y-39068333D01*
X118975238Y-39020714D01*
X118880000Y-38925476D01*
X118832380Y-38782619D01*
X118832380Y-38687380D01*
X118880000Y-38544523D01*
X118927619Y-38496904D01*
X119737142Y-37496904D02*
X119784761Y-37544523D01*
X119832380Y-37687380D01*
X119832380Y-37782619D01*
X119784761Y-37925476D01*
X119689523Y-38020714D01*
X119594285Y-38068333D01*
X119403809Y-38115952D01*
X119260952Y-38115952D01*
X119070476Y-38068333D01*
X118975238Y-38020714D01*
X118880000Y-37925476D01*
X118832380Y-37782619D01*
X118832380Y-37687380D01*
X118880000Y-37544523D01*
X118927619Y-37496904D01*
X107132380Y-35925000D02*
X106132380Y-35925000D01*
X106132380Y-35258333D02*
X106132380Y-35067857D01*
X106180000Y-34972619D01*
X106275238Y-34877380D01*
X106465714Y-34829761D01*
X106799047Y-34829761D01*
X106989523Y-34877380D01*
X107084761Y-34972619D01*
X107132380Y-35067857D01*
X107132380Y-35258333D01*
X107084761Y-35353571D01*
X106989523Y-35448809D01*
X106799047Y-35496428D01*
X106465714Y-35496428D01*
X106275238Y-35448809D01*
X106180000Y-35353571D01*
X106132380Y-35258333D01*
X107132380Y-33877380D02*
X107132380Y-34448809D01*
X107132380Y-34163095D02*
X106132380Y-34163095D01*
X106275238Y-34258333D01*
X106370476Y-34353571D01*
X106418095Y-34448809D01*
X102879047Y-49177380D02*
X102879047Y-48177380D01*
X103260000Y-48177380D01*
X103355238Y-48225000D01*
X103402857Y-48272619D01*
X103450476Y-48367857D01*
X103450476Y-48510714D01*
X103402857Y-48605952D01*
X103355238Y-48653571D01*
X103260000Y-48701190D01*
X102879047Y-48701190D01*
X103879047Y-49177380D02*
X103879047Y-48177380D01*
X104212380Y-48891666D01*
X104545714Y-48177380D01*
X104545714Y-49177380D01*
X105212380Y-48177380D02*
X105402857Y-48177380D01*
X105498095Y-48225000D01*
X105593333Y-48320238D01*
X105640952Y-48510714D01*
X105640952Y-48844047D01*
X105593333Y-49034523D01*
X105498095Y-49129761D01*
X105402857Y-49177380D01*
X105212380Y-49177380D01*
X105117142Y-49129761D01*
X105021904Y-49034523D01*
X104974285Y-48844047D01*
X104974285Y-48510714D01*
X105021904Y-48320238D01*
X105117142Y-48225000D01*
X105212380Y-48177380D01*
X106069523Y-49177380D02*
X106069523Y-48177380D01*
X106307619Y-48177380D01*
X106450476Y-48225000D01*
X106545714Y-48320238D01*
X106593333Y-48415476D01*
X106640952Y-48605952D01*
X106640952Y-48748809D01*
X106593333Y-48939285D01*
X106545714Y-49034523D01*
X106450476Y-49129761D01*
X106307619Y-49177380D01*
X106069523Y-49177380D01*
X108164761Y-48653571D02*
X108307619Y-48701190D01*
X108355238Y-48748809D01*
X108402857Y-48844047D01*
X108402857Y-48986904D01*
X108355238Y-49082142D01*
X108307619Y-49129761D01*
X108212380Y-49177380D01*
X107831428Y-49177380D01*
X107831428Y-48177380D01*
X108164761Y-48177380D01*
X108260000Y-48225000D01*
X108307619Y-48272619D01*
X108355238Y-48367857D01*
X108355238Y-48463095D01*
X108307619Y-48558333D01*
X108260000Y-48605952D01*
X108164761Y-48653571D01*
X107831428Y-48653571D01*
X108783809Y-48891666D02*
X109260000Y-48891666D01*
X108688571Y-49177380D02*
X109021904Y-48177380D01*
X109355238Y-49177380D01*
X109640952Y-49129761D02*
X109783809Y-49177380D01*
X110021904Y-49177380D01*
X110117142Y-49129761D01*
X110164761Y-49082142D01*
X110212380Y-48986904D01*
X110212380Y-48891666D01*
X110164761Y-48796428D01*
X110117142Y-48748809D01*
X110021904Y-48701190D01*
X109831428Y-48653571D01*
X109736190Y-48605952D01*
X109688571Y-48558333D01*
X109640952Y-48463095D01*
X109640952Y-48367857D01*
X109688571Y-48272619D01*
X109736190Y-48225000D01*
X109831428Y-48177380D01*
X110069523Y-48177380D01*
X110212380Y-48225000D01*
X110640952Y-48653571D02*
X110974285Y-48653571D01*
X111117142Y-49177380D02*
X110640952Y-49177380D01*
X110640952Y-48177380D01*
X111117142Y-48177380D01*
X112640952Y-48653571D02*
X112783809Y-48701190D01*
X112831428Y-48748809D01*
X112879047Y-48844047D01*
X112879047Y-48986904D01*
X112831428Y-49082142D01*
X112783809Y-49129761D01*
X112688571Y-49177380D01*
X112307619Y-49177380D01*
X112307619Y-48177380D01*
X112640952Y-48177380D01*
X112736190Y-48225000D01*
X112783809Y-48272619D01*
X112831428Y-48367857D01*
X112831428Y-48463095D01*
X112783809Y-48558333D01*
X112736190Y-48605952D01*
X112640952Y-48653571D01*
X112307619Y-48653571D01*
X113498095Y-48177380D02*
X113688571Y-48177380D01*
X113783809Y-48225000D01*
X113879047Y-48320238D01*
X113926666Y-48510714D01*
X113926666Y-48844047D01*
X113879047Y-49034523D01*
X113783809Y-49129761D01*
X113688571Y-49177380D01*
X113498095Y-49177380D01*
X113402857Y-49129761D01*
X113307619Y-49034523D01*
X113260000Y-48844047D01*
X113260000Y-48510714D01*
X113307619Y-48320238D01*
X113402857Y-48225000D01*
X113498095Y-48177380D01*
X114307619Y-48891666D02*
X114783809Y-48891666D01*
X114212380Y-49177380D02*
X114545714Y-48177380D01*
X114879047Y-49177380D01*
X115783809Y-49177380D02*
X115450476Y-48701190D01*
X115212380Y-49177380D02*
X115212380Y-48177380D01*
X115593333Y-48177380D01*
X115688571Y-48225000D01*
X115736190Y-48272619D01*
X115783809Y-48367857D01*
X115783809Y-48510714D01*
X115736190Y-48605952D01*
X115688571Y-48653571D01*
X115593333Y-48701190D01*
X115212380Y-48701190D01*
X116212380Y-49177380D02*
X116212380Y-48177380D01*
X116450476Y-48177380D01*
X116593333Y-48225000D01*
X116688571Y-48320238D01*
X116736190Y-48415476D01*
X116783809Y-48605952D01*
X116783809Y-48748809D01*
X116736190Y-48939285D01*
X116688571Y-49034523D01*
X116593333Y-49129761D01*
X116450476Y-49177380D01*
X116212380Y-49177380D01*
X117879047Y-48510714D02*
X118117142Y-49177380D01*
X118355238Y-48510714D01*
X118926666Y-48177380D02*
X119021904Y-48177380D01*
X119117142Y-48225000D01*
X119164761Y-48272619D01*
X119212380Y-48367857D01*
X119260000Y-48558333D01*
X119260000Y-48796428D01*
X119212380Y-48986904D01*
X119164761Y-49082142D01*
X119117142Y-49129761D01*
X119021904Y-49177380D01*
X118926666Y-49177380D01*
X118831428Y-49129761D01*
X118783809Y-49082142D01*
X118736190Y-48986904D01*
X118688571Y-48796428D01*
X118688571Y-48558333D01*
X118736190Y-48367857D01*
X118783809Y-48272619D01*
X118831428Y-48225000D01*
X118926666Y-48177380D01*
X119688571Y-49082142D02*
X119736190Y-49129761D01*
X119688571Y-49177380D01*
X119640952Y-49129761D01*
X119688571Y-49082142D01*
X119688571Y-49177380D01*
X120688571Y-49177380D02*
X120117142Y-49177380D01*
X120402857Y-49177380D02*
X120402857Y-48177380D01*
X120307619Y-48320238D01*
X120212380Y-48415476D01*
X120117142Y-48463095D01*
X101355238Y-50787380D02*
X101355238Y-49787380D01*
X101783809Y-50787380D02*
X101783809Y-50263571D01*
X101736190Y-50168333D01*
X101640952Y-50120714D01*
X101498095Y-50120714D01*
X101402857Y-50168333D01*
X101355238Y-50215952D01*
X102117142Y-50120714D02*
X102498095Y-50120714D01*
X102260000Y-49787380D02*
X102260000Y-50644523D01*
X102307619Y-50739761D01*
X102402857Y-50787380D01*
X102498095Y-50787380D01*
X102688571Y-50120714D02*
X103069523Y-50120714D01*
X102831428Y-49787380D02*
X102831428Y-50644523D01*
X102879047Y-50739761D01*
X102974285Y-50787380D01*
X103069523Y-50787380D01*
X103402857Y-50120714D02*
X103402857Y-51120714D01*
X103402857Y-50168333D02*
X103498095Y-50120714D01*
X103688571Y-50120714D01*
X103783809Y-50168333D01*
X103831428Y-50215952D01*
X103879047Y-50311190D01*
X103879047Y-50596904D01*
X103831428Y-50692142D01*
X103783809Y-50739761D01*
X103688571Y-50787380D01*
X103498095Y-50787380D01*
X103402857Y-50739761D01*
X104260000Y-50739761D02*
X104355238Y-50787380D01*
X104545714Y-50787380D01*
X104640952Y-50739761D01*
X104688571Y-50644523D01*
X104688571Y-50596904D01*
X104640952Y-50501666D01*
X104545714Y-50454047D01*
X104402857Y-50454047D01*
X104307619Y-50406428D01*
X104260000Y-50311190D01*
X104260000Y-50263571D01*
X104307619Y-50168333D01*
X104402857Y-50120714D01*
X104545714Y-50120714D01*
X104640952Y-50168333D01*
X105117142Y-50692142D02*
X105164761Y-50739761D01*
X105117142Y-50787380D01*
X105069523Y-50739761D01*
X105117142Y-50692142D01*
X105117142Y-50787380D01*
X105117142Y-50168333D02*
X105164761Y-50215952D01*
X105117142Y-50263571D01*
X105069523Y-50215952D01*
X105117142Y-50168333D01*
X105117142Y-50263571D01*
X106307619Y-49739761D02*
X105450476Y-51025476D01*
X107355238Y-49739761D02*
X106498095Y-51025476D01*
X107593333Y-50120714D02*
X107783809Y-50787380D01*
X107974285Y-50311190D01*
X108164761Y-50787380D01*
X108355238Y-50120714D01*
X108640952Y-50120714D02*
X108831428Y-50787380D01*
X109021904Y-50311190D01*
X109212380Y-50787380D01*
X109402857Y-50120714D01*
X109688571Y-50120714D02*
X109879047Y-50787380D01*
X110069523Y-50311190D01*
X110260000Y-50787380D01*
X110450476Y-50120714D01*
X110831428Y-50692142D02*
X110879047Y-50739761D01*
X110831428Y-50787380D01*
X110783809Y-50739761D01*
X110831428Y-50692142D01*
X110831428Y-50787380D01*
X111307619Y-50787380D02*
X111307619Y-49787380D01*
X111307619Y-50168333D02*
X111402857Y-50120714D01*
X111593333Y-50120714D01*
X111688571Y-50168333D01*
X111736190Y-50215952D01*
X111783809Y-50311190D01*
X111783809Y-50596904D01*
X111736190Y-50692142D01*
X111688571Y-50739761D01*
X111593333Y-50787380D01*
X111402857Y-50787380D01*
X111307619Y-50739761D01*
X112355238Y-50787380D02*
X112260000Y-50739761D01*
X112212380Y-50644523D01*
X112212380Y-49787380D01*
X113164761Y-50787380D02*
X113164761Y-50263571D01*
X113117142Y-50168333D01*
X113021904Y-50120714D01*
X112831428Y-50120714D01*
X112736190Y-50168333D01*
X113164761Y-50739761D02*
X113069523Y-50787380D01*
X112831428Y-50787380D01*
X112736190Y-50739761D01*
X112688571Y-50644523D01*
X112688571Y-50549285D01*
X112736190Y-50454047D01*
X112831428Y-50406428D01*
X113069523Y-50406428D01*
X113164761Y-50358809D01*
X114069523Y-50787380D02*
X114069523Y-50263571D01*
X114021904Y-50168333D01*
X113926666Y-50120714D01*
X113736190Y-50120714D01*
X113640952Y-50168333D01*
X114069523Y-50739761D02*
X113974285Y-50787380D01*
X113736190Y-50787380D01*
X113640952Y-50739761D01*
X113593333Y-50644523D01*
X113593333Y-50549285D01*
X113640952Y-50454047D01*
X113736190Y-50406428D01*
X113974285Y-50406428D01*
X114069523Y-50358809D01*
X114402857Y-50120714D02*
X114783809Y-50120714D01*
X114545714Y-49787380D02*
X114545714Y-50644523D01*
X114593333Y-50739761D01*
X114688571Y-50787380D01*
X114783809Y-50787380D01*
X115069523Y-50739761D02*
X115164761Y-50787380D01*
X115355238Y-50787380D01*
X115450476Y-50739761D01*
X115498095Y-50644523D01*
X115498095Y-50596904D01*
X115450476Y-50501666D01*
X115355238Y-50454047D01*
X115212380Y-50454047D01*
X115117142Y-50406428D01*
X115069523Y-50311190D01*
X115069523Y-50263571D01*
X115117142Y-50168333D01*
X115212380Y-50120714D01*
X115355238Y-50120714D01*
X115450476Y-50168333D01*
X116355238Y-50739761D02*
X116260000Y-50787380D01*
X116069523Y-50787380D01*
X115974285Y-50739761D01*
X115926666Y-50692142D01*
X115879047Y-50596904D01*
X115879047Y-50311190D01*
X115926666Y-50215952D01*
X115974285Y-50168333D01*
X116069523Y-50120714D01*
X116260000Y-50120714D01*
X116355238Y-50168333D01*
X116783809Y-50787380D02*
X116783809Y-49787380D01*
X117212380Y-50787380D02*
X117212380Y-50263571D01*
X117164761Y-50168333D01*
X117069523Y-50120714D01*
X116926666Y-50120714D01*
X116831428Y-50168333D01*
X116783809Y-50215952D01*
X118117142Y-50787380D02*
X118117142Y-50263571D01*
X118069523Y-50168333D01*
X117974285Y-50120714D01*
X117783809Y-50120714D01*
X117688571Y-50168333D01*
X118117142Y-50739761D02*
X118021904Y-50787380D01*
X117783809Y-50787380D01*
X117688571Y-50739761D01*
X117640952Y-50644523D01*
X117640952Y-50549285D01*
X117688571Y-50454047D01*
X117783809Y-50406428D01*
X118021904Y-50406428D01*
X118117142Y-50358809D01*
X119021904Y-50787380D02*
X119021904Y-50263571D01*
X118974285Y-50168333D01*
X118879047Y-50120714D01*
X118688571Y-50120714D01*
X118593333Y-50168333D01*
X119021904Y-50739761D02*
X118926666Y-50787380D01*
X118688571Y-50787380D01*
X118593333Y-50739761D01*
X118545714Y-50644523D01*
X118545714Y-50549285D01*
X118593333Y-50454047D01*
X118688571Y-50406428D01*
X118926666Y-50406428D01*
X119021904Y-50358809D01*
X119498095Y-50120714D02*
X119498095Y-51120714D01*
X119498095Y-50168333D02*
X119593333Y-50120714D01*
X119783809Y-50120714D01*
X119879047Y-50168333D01*
X119926666Y-50215952D01*
X119974285Y-50311190D01*
X119974285Y-50596904D01*
X119926666Y-50692142D01*
X119879047Y-50739761D01*
X119783809Y-50787380D01*
X119593333Y-50787380D01*
X119498095Y-50739761D01*
X120402857Y-50692142D02*
X120450476Y-50739761D01*
X120402857Y-50787380D01*
X120355238Y-50739761D01*
X120402857Y-50692142D01*
X120402857Y-50787380D01*
X120879047Y-50787380D02*
X120879047Y-49787380D01*
X120879047Y-50168333D02*
X120974285Y-50120714D01*
X121164761Y-50120714D01*
X121260000Y-50168333D01*
X121307619Y-50215952D01*
X121355238Y-50311190D01*
X121355238Y-50596904D01*
X121307619Y-50692142D01*
X121260000Y-50739761D01*
X121164761Y-50787380D01*
X120974285Y-50787380D01*
X120879047Y-50739761D01*
X122164761Y-50739761D02*
X122069523Y-50787380D01*
X121879047Y-50787380D01*
X121783809Y-50739761D01*
X121736190Y-50644523D01*
X121736190Y-50263571D01*
X121783809Y-50168333D01*
X121879047Y-50120714D01*
X122069523Y-50120714D01*
X122164761Y-50168333D01*
X122212380Y-50263571D01*
X122212380Y-50358809D01*
X121736190Y-50454047D01*
X84177142Y-39282619D02*
X84224761Y-39330238D01*
X84272380Y-39473095D01*
X84272380Y-39568333D01*
X84224761Y-39711190D01*
X84129523Y-39806428D01*
X84034285Y-39854047D01*
X83843809Y-39901666D01*
X83700952Y-39901666D01*
X83510476Y-39854047D01*
X83415238Y-39806428D01*
X83320000Y-39711190D01*
X83272380Y-39568333D01*
X83272380Y-39473095D01*
X83320000Y-39330238D01*
X83367619Y-39282619D01*
X83272380Y-38996904D02*
X83272380Y-38425476D01*
X84272380Y-38711190D02*
X83272380Y-38711190D01*
X84224761Y-38139761D02*
X84272380Y-37996904D01*
X84272380Y-37758809D01*
X84224761Y-37663571D01*
X84177142Y-37615952D01*
X84081904Y-37568333D01*
X83986666Y-37568333D01*
X83891428Y-37615952D01*
X83843809Y-37663571D01*
X83796190Y-37758809D01*
X83748571Y-37949285D01*
X83700952Y-38044523D01*
X83653333Y-38092142D01*
X83558095Y-38139761D01*
X83462857Y-38139761D01*
X83367619Y-38092142D01*
X83320000Y-38044523D01*
X83272380Y-37949285D01*
X83272380Y-37711190D01*
X83320000Y-37568333D01*
X84272380Y-35925000D02*
X83272380Y-35925000D01*
X83272380Y-35258333D02*
X83272380Y-35067857D01*
X83320000Y-34972619D01*
X83415238Y-34877380D01*
X83605714Y-34829761D01*
X83939047Y-34829761D01*
X84129523Y-34877380D01*
X84224761Y-34972619D01*
X84272380Y-35067857D01*
X84272380Y-35258333D01*
X84224761Y-35353571D01*
X84129523Y-35448809D01*
X83939047Y-35496428D01*
X83605714Y-35496428D01*
X83415238Y-35448809D01*
X83320000Y-35353571D01*
X83272380Y-35258333D01*
X84272380Y-33877380D02*
X84272380Y-34448809D01*
X84272380Y-34163095D02*
X83272380Y-34163095D01*
X83415238Y-34258333D01*
X83510476Y-34353571D01*
X83558095Y-34448809D01*
X61317142Y-38901666D02*
X61364761Y-38949285D01*
X61412380Y-39092142D01*
X61412380Y-39187380D01*
X61364761Y-39330238D01*
X61269523Y-39425476D01*
X61174285Y-39473095D01*
X60983809Y-39520714D01*
X60840952Y-39520714D01*
X60650476Y-39473095D01*
X60555238Y-39425476D01*
X60460000Y-39330238D01*
X60412380Y-39187380D01*
X60412380Y-39092142D01*
X60460000Y-38949285D01*
X60507619Y-38901666D01*
X61364761Y-38520714D02*
X61412380Y-38377857D01*
X61412380Y-38139761D01*
X61364761Y-38044523D01*
X61317142Y-37996904D01*
X61221904Y-37949285D01*
X61126666Y-37949285D01*
X61031428Y-37996904D01*
X60983809Y-38044523D01*
X60936190Y-38139761D01*
X60888571Y-38330238D01*
X60840952Y-38425476D01*
X60793333Y-38473095D01*
X60698095Y-38520714D01*
X60602857Y-38520714D01*
X60507619Y-38473095D01*
X60460000Y-38425476D01*
X60412380Y-38330238D01*
X60412380Y-38092142D01*
X60460000Y-37949285D01*
X66492380Y-40306428D02*
X65492380Y-40306428D01*
X66206666Y-39973095D01*
X65492380Y-39639761D01*
X66492380Y-39639761D01*
X66492380Y-39163571D02*
X65492380Y-39163571D01*
X66444761Y-38735000D02*
X66492380Y-38592142D01*
X66492380Y-38354047D01*
X66444761Y-38258809D01*
X66397142Y-38211190D01*
X66301904Y-38163571D01*
X66206666Y-38163571D01*
X66111428Y-38211190D01*
X66063809Y-38258809D01*
X66016190Y-38354047D01*
X65968571Y-38544523D01*
X65920952Y-38639761D01*
X65873333Y-38687380D01*
X65778095Y-38735000D01*
X65682857Y-38735000D01*
X65587619Y-38687380D01*
X65540000Y-38639761D01*
X65492380Y-38544523D01*
X65492380Y-38306428D01*
X65540000Y-38163571D01*
X65492380Y-37544523D02*
X65492380Y-37354047D01*
X65540000Y-37258809D01*
X65635238Y-37163571D01*
X65825714Y-37115952D01*
X66159047Y-37115952D01*
X66349523Y-37163571D01*
X66444761Y-37258809D01*
X66492380Y-37354047D01*
X66492380Y-37544523D01*
X66444761Y-37639761D01*
X66349523Y-37735000D01*
X66159047Y-37782619D01*
X65825714Y-37782619D01*
X65635238Y-37735000D01*
X65540000Y-37639761D01*
X65492380Y-37544523D01*
X68984761Y-40020714D02*
X69032380Y-39877857D01*
X69032380Y-39639761D01*
X68984761Y-39544523D01*
X68937142Y-39496904D01*
X68841904Y-39449285D01*
X68746666Y-39449285D01*
X68651428Y-39496904D01*
X68603809Y-39544523D01*
X68556190Y-39639761D01*
X68508571Y-39830238D01*
X68460952Y-39925476D01*
X68413333Y-39973095D01*
X68318095Y-40020714D01*
X68222857Y-40020714D01*
X68127619Y-39973095D01*
X68080000Y-39925476D01*
X68032380Y-39830238D01*
X68032380Y-39592142D01*
X68080000Y-39449285D01*
X68937142Y-38449285D02*
X68984761Y-38496904D01*
X69032380Y-38639761D01*
X69032380Y-38735000D01*
X68984761Y-38877857D01*
X68889523Y-38973095D01*
X68794285Y-39020714D01*
X68603809Y-39068333D01*
X68460952Y-39068333D01*
X68270476Y-39020714D01*
X68175238Y-38973095D01*
X68080000Y-38877857D01*
X68032380Y-38735000D01*
X68032380Y-38639761D01*
X68080000Y-38496904D01*
X68127619Y-38449285D01*
X69032380Y-38020714D02*
X68032380Y-38020714D01*
X69032380Y-37449285D02*
X68460952Y-37877857D01*
X68032380Y-37449285D02*
X68603809Y-38020714D01*
X70620000Y-39496904D02*
X70572380Y-39592142D01*
X70572380Y-39735000D01*
X70620000Y-39877857D01*
X70715238Y-39973095D01*
X70810476Y-40020714D01*
X71000952Y-40068333D01*
X71143809Y-40068333D01*
X71334285Y-40020714D01*
X71429523Y-39973095D01*
X71524761Y-39877857D01*
X71572380Y-39735000D01*
X71572380Y-39639761D01*
X71524761Y-39496904D01*
X71477142Y-39449285D01*
X71143809Y-39449285D01*
X71143809Y-39639761D01*
X71572380Y-39020714D02*
X70572380Y-39020714D01*
X71572380Y-38449285D01*
X70572380Y-38449285D01*
X71572380Y-37973095D02*
X70572380Y-37973095D01*
X70572380Y-37735000D01*
X70620000Y-37592142D01*
X70715238Y-37496904D01*
X70810476Y-37449285D01*
X71000952Y-37401666D01*
X71143809Y-37401666D01*
X71334285Y-37449285D01*
X71429523Y-37496904D01*
X71524761Y-37592142D01*
X71572380Y-37735000D01*
X71572380Y-37973095D01*
X83756666Y-50252380D02*
X84090000Y-51252380D01*
X84423333Y-50252380D01*
X85328095Y-51157142D02*
X85280476Y-51204761D01*
X85137619Y-51252380D01*
X85042380Y-51252380D01*
X84899523Y-51204761D01*
X84804285Y-51109523D01*
X84756666Y-51014285D01*
X84709047Y-50823809D01*
X84709047Y-50680952D01*
X84756666Y-50490476D01*
X84804285Y-50395238D01*
X84899523Y-50300000D01*
X85042380Y-50252380D01*
X85137619Y-50252380D01*
X85280476Y-50300000D01*
X85328095Y-50347619D01*
X86328095Y-51157142D02*
X86280476Y-51204761D01*
X86137619Y-51252380D01*
X86042380Y-51252380D01*
X85899523Y-51204761D01*
X85804285Y-51109523D01*
X85756666Y-51014285D01*
X85709047Y-50823809D01*
X85709047Y-50680952D01*
X85756666Y-50490476D01*
X85804285Y-50395238D01*
X85899523Y-50300000D01*
X86042380Y-50252380D01*
X86137619Y-50252380D01*
X86280476Y-50300000D01*
X86328095Y-50347619D01*
X116340000Y-39496904D02*
X116292380Y-39592142D01*
X116292380Y-39735000D01*
X116340000Y-39877857D01*
X116435238Y-39973095D01*
X116530476Y-40020714D01*
X116720952Y-40068333D01*
X116863809Y-40068333D01*
X117054285Y-40020714D01*
X117149523Y-39973095D01*
X117244761Y-39877857D01*
X117292380Y-39735000D01*
X117292380Y-39639761D01*
X117244761Y-39496904D01*
X117197142Y-39449285D01*
X116863809Y-39449285D01*
X116863809Y-39639761D01*
X117292380Y-39020714D02*
X116292380Y-39020714D01*
X117292380Y-38449285D01*
X116292380Y-38449285D01*
X117292380Y-37973095D02*
X116292380Y-37973095D01*
X116292380Y-37735000D01*
X116340000Y-37592142D01*
X116435238Y-37496904D01*
X116530476Y-37449285D01*
X116720952Y-37401666D01*
X116863809Y-37401666D01*
X117054285Y-37449285D01*
X117149523Y-37496904D01*
X117244761Y-37592142D01*
X117292380Y-37735000D01*
X117292380Y-37973095D01*
X73112380Y-40068333D02*
X74112380Y-39735000D01*
X73112380Y-39401666D01*
X74017142Y-38496904D02*
X74064761Y-38544523D01*
X74112380Y-38687380D01*
X74112380Y-38782619D01*
X74064761Y-38925476D01*
X73969523Y-39020714D01*
X73874285Y-39068333D01*
X73683809Y-39115952D01*
X73540952Y-39115952D01*
X73350476Y-39068333D01*
X73255238Y-39020714D01*
X73160000Y-38925476D01*
X73112380Y-38782619D01*
X73112380Y-38687380D01*
X73160000Y-38544523D01*
X73207619Y-38496904D01*
X74017142Y-37496904D02*
X74064761Y-37544523D01*
X74112380Y-37687380D01*
X74112380Y-37782619D01*
X74064761Y-37925476D01*
X73969523Y-38020714D01*
X73874285Y-38068333D01*
X73683809Y-38115952D01*
X73540952Y-38115952D01*
X73350476Y-38068333D01*
X73255238Y-38020714D01*
X73160000Y-37925476D01*
X73112380Y-37782619D01*
X73112380Y-37687380D01*
X73160000Y-37544523D01*
X73207619Y-37496904D01*
X116340000Y-35686904D02*
X116292380Y-35782142D01*
X116292380Y-35925000D01*
X116340000Y-36067857D01*
X116435238Y-36163095D01*
X116530476Y-36210714D01*
X116720952Y-36258333D01*
X116863809Y-36258333D01*
X117054285Y-36210714D01*
X117149523Y-36163095D01*
X117244761Y-36067857D01*
X117292380Y-35925000D01*
X117292380Y-35829761D01*
X117244761Y-35686904D01*
X117197142Y-35639285D01*
X116863809Y-35639285D01*
X116863809Y-35829761D01*
X117292380Y-35210714D02*
X116292380Y-35210714D01*
X117292380Y-34639285D01*
X116292380Y-34639285D01*
X117292380Y-34163095D02*
X116292380Y-34163095D01*
X116292380Y-33925000D01*
X116340000Y-33782142D01*
X116435238Y-33686904D01*
X116530476Y-33639285D01*
X116720952Y-33591666D01*
X116863809Y-33591666D01*
X117054285Y-33639285D01*
X117149523Y-33686904D01*
X117244761Y-33782142D01*
X117292380Y-33925000D01*
X117292380Y-34163095D01*
X63952380Y-40306428D02*
X62952380Y-40306428D01*
X63666666Y-39973095D01*
X62952380Y-39639761D01*
X63952380Y-39639761D01*
X62952380Y-38973095D02*
X62952380Y-38782619D01*
X63000000Y-38687380D01*
X63095238Y-38592142D01*
X63285714Y-38544523D01*
X63619047Y-38544523D01*
X63809523Y-38592142D01*
X63904761Y-38687380D01*
X63952380Y-38782619D01*
X63952380Y-38973095D01*
X63904761Y-39068333D01*
X63809523Y-39163571D01*
X63619047Y-39211190D01*
X63285714Y-39211190D01*
X63095238Y-39163571D01*
X63000000Y-39068333D01*
X62952380Y-38973095D01*
X63904761Y-38163571D02*
X63952380Y-38020714D01*
X63952380Y-37782619D01*
X63904761Y-37687380D01*
X63857142Y-37639761D01*
X63761904Y-37592142D01*
X63666666Y-37592142D01*
X63571428Y-37639761D01*
X63523809Y-37687380D01*
X63476190Y-37782619D01*
X63428571Y-37973095D01*
X63380952Y-38068333D01*
X63333333Y-38115952D01*
X63238095Y-38163571D01*
X63142857Y-38163571D01*
X63047619Y-38115952D01*
X63000000Y-38068333D01*
X62952380Y-37973095D01*
X62952380Y-37735000D01*
X63000000Y-37592142D01*
X63952380Y-37163571D02*
X62952380Y-37163571D01*
X91892380Y-35925000D02*
X90892380Y-35925000D01*
X90892380Y-35258333D02*
X90892380Y-35067857D01*
X90940000Y-34972619D01*
X91035238Y-34877380D01*
X91225714Y-34829761D01*
X91559047Y-34829761D01*
X91749523Y-34877380D01*
X91844761Y-34972619D01*
X91892380Y-35067857D01*
X91892380Y-35258333D01*
X91844761Y-35353571D01*
X91749523Y-35448809D01*
X91559047Y-35496428D01*
X91225714Y-35496428D01*
X91035238Y-35448809D01*
X90940000Y-35353571D01*
X90892380Y-35258333D01*
X91225714Y-33972619D02*
X91892380Y-33972619D01*
X90844761Y-34210714D02*
X91559047Y-34448809D01*
X91559047Y-33829761D01*
X89352380Y-35925000D02*
X88352380Y-35925000D01*
X88352380Y-35258333D02*
X88352380Y-35067857D01*
X88400000Y-34972619D01*
X88495238Y-34877380D01*
X88685714Y-34829761D01*
X89019047Y-34829761D01*
X89209523Y-34877380D01*
X89304761Y-34972619D01*
X89352380Y-35067857D01*
X89352380Y-35258333D01*
X89304761Y-35353571D01*
X89209523Y-35448809D01*
X89019047Y-35496428D01*
X88685714Y-35496428D01*
X88495238Y-35448809D01*
X88400000Y-35353571D01*
X88352380Y-35258333D01*
X88352380Y-34496428D02*
X88352380Y-33877380D01*
X88733333Y-34210714D01*
X88733333Y-34067857D01*
X88780952Y-33972619D01*
X88828571Y-33925000D01*
X88923809Y-33877380D01*
X89161904Y-33877380D01*
X89257142Y-33925000D01*
X89304761Y-33972619D01*
X89352380Y-34067857D01*
X89352380Y-34353571D01*
X89304761Y-34448809D01*
X89257142Y-34496428D01*
X95972380Y-36258333D02*
X96972380Y-35925000D01*
X95972380Y-35591666D01*
X96877142Y-34686904D02*
X96924761Y-34734523D01*
X96972380Y-34877380D01*
X96972380Y-34972619D01*
X96924761Y-35115476D01*
X96829523Y-35210714D01*
X96734285Y-35258333D01*
X96543809Y-35305952D01*
X96400952Y-35305952D01*
X96210476Y-35258333D01*
X96115238Y-35210714D01*
X96020000Y-35115476D01*
X95972380Y-34972619D01*
X95972380Y-34877380D01*
X96020000Y-34734523D01*
X96067619Y-34686904D01*
X96877142Y-33686904D02*
X96924761Y-33734523D01*
X96972380Y-33877380D01*
X96972380Y-33972619D01*
X96924761Y-34115476D01*
X96829523Y-34210714D01*
X96734285Y-34258333D01*
X96543809Y-34305952D01*
X96400952Y-34305952D01*
X96210476Y-34258333D01*
X96115238Y-34210714D01*
X96020000Y-34115476D01*
X95972380Y-33972619D01*
X95972380Y-33877380D01*
X96020000Y-33734523D01*
X96067619Y-33686904D01*
X114752380Y-35925000D02*
X113752380Y-35925000D01*
X113752380Y-35258333D02*
X113752380Y-35067857D01*
X113800000Y-34972619D01*
X113895238Y-34877380D01*
X114085714Y-34829761D01*
X114419047Y-34829761D01*
X114609523Y-34877380D01*
X114704761Y-34972619D01*
X114752380Y-35067857D01*
X114752380Y-35258333D01*
X114704761Y-35353571D01*
X114609523Y-35448809D01*
X114419047Y-35496428D01*
X114085714Y-35496428D01*
X113895238Y-35448809D01*
X113800000Y-35353571D01*
X113752380Y-35258333D01*
X114085714Y-33972619D02*
X114752380Y-33972619D01*
X113704761Y-34210714D02*
X114419047Y-34448809D01*
X114419047Y-33829761D01*
X114704761Y-39949285D02*
X114752380Y-39806428D01*
X114752380Y-39568333D01*
X114704761Y-39473095D01*
X114657142Y-39425476D01*
X114561904Y-39377857D01*
X114466666Y-39377857D01*
X114371428Y-39425476D01*
X114323809Y-39473095D01*
X114276190Y-39568333D01*
X114228571Y-39758809D01*
X114180952Y-39854047D01*
X114133333Y-39901666D01*
X114038095Y-39949285D01*
X113942857Y-39949285D01*
X113847619Y-39901666D01*
X113800000Y-39854047D01*
X113752380Y-39758809D01*
X113752380Y-39520714D01*
X113800000Y-39377857D01*
X114752380Y-38949285D02*
X113752380Y-38949285D01*
X113752380Y-38711190D01*
X113800000Y-38568333D01*
X113895238Y-38473095D01*
X113990476Y-38425476D01*
X114180952Y-38377857D01*
X114323809Y-38377857D01*
X114514285Y-38425476D01*
X114609523Y-38473095D01*
X114704761Y-38568333D01*
X114752380Y-38711190D01*
X114752380Y-38949285D01*
X114466666Y-37996904D02*
X114466666Y-37520714D01*
X114752380Y-38092142D02*
X113752380Y-37758809D01*
X114752380Y-37425476D01*
X68937142Y-35567857D02*
X68984761Y-35615476D01*
X69032380Y-35758333D01*
X69032380Y-35853571D01*
X68984761Y-35996428D01*
X68889523Y-36091666D01*
X68794285Y-36139285D01*
X68603809Y-36186904D01*
X68460952Y-36186904D01*
X68270476Y-36139285D01*
X68175238Y-36091666D01*
X68080000Y-35996428D01*
X68032380Y-35853571D01*
X68032380Y-35758333D01*
X68080000Y-35615476D01*
X68127619Y-35567857D01*
X68984761Y-35186904D02*
X69032380Y-35044047D01*
X69032380Y-34805952D01*
X68984761Y-34710714D01*
X68937142Y-34663095D01*
X68841904Y-34615476D01*
X68746666Y-34615476D01*
X68651428Y-34663095D01*
X68603809Y-34710714D01*
X68556190Y-34805952D01*
X68508571Y-34996428D01*
X68460952Y-35091666D01*
X68413333Y-35139285D01*
X68318095Y-35186904D01*
X68222857Y-35186904D01*
X68127619Y-35139285D01*
X68080000Y-35091666D01*
X68032380Y-34996428D01*
X68032380Y-34758333D01*
X68080000Y-34615476D01*
X68032380Y-34282142D02*
X68032380Y-33663095D01*
X68413333Y-33996428D01*
X68413333Y-33853571D01*
X68460952Y-33758333D01*
X68508571Y-33710714D01*
X68603809Y-33663095D01*
X68841904Y-33663095D01*
X68937142Y-33710714D01*
X68984761Y-33758333D01*
X69032380Y-33853571D01*
X69032380Y-34139285D01*
X68984761Y-34234523D01*
X68937142Y-34282142D01*
X89352380Y-39401666D02*
X88876190Y-39735000D01*
X89352380Y-39973095D02*
X88352380Y-39973095D01*
X88352380Y-39592142D01*
X88400000Y-39496904D01*
X88447619Y-39449285D01*
X88542857Y-39401666D01*
X88685714Y-39401666D01*
X88780952Y-39449285D01*
X88828571Y-39496904D01*
X88876190Y-39592142D01*
X88876190Y-39973095D01*
X88352380Y-39068333D02*
X89352380Y-38401666D01*
X88352380Y-38401666D02*
X89352380Y-39068333D01*
X89352380Y-38020714D02*
X88352380Y-38020714D01*
X88352380Y-37782619D01*
X88400000Y-37639761D01*
X88495238Y-37544523D01*
X88590476Y-37496904D01*
X88780952Y-37449285D01*
X88923809Y-37449285D01*
X89114285Y-37496904D01*
X89209523Y-37544523D01*
X89304761Y-37639761D01*
X89352380Y-37782619D01*
X89352380Y-38020714D01*
X86812380Y-35925000D02*
X85812380Y-35925000D01*
X85812380Y-35258333D02*
X85812380Y-35067857D01*
X85860000Y-34972619D01*
X85955238Y-34877380D01*
X86145714Y-34829761D01*
X86479047Y-34829761D01*
X86669523Y-34877380D01*
X86764761Y-34972619D01*
X86812380Y-35067857D01*
X86812380Y-35258333D01*
X86764761Y-35353571D01*
X86669523Y-35448809D01*
X86479047Y-35496428D01*
X86145714Y-35496428D01*
X85955238Y-35448809D01*
X85860000Y-35353571D01*
X85812380Y-35258333D01*
X85907619Y-34448809D02*
X85860000Y-34401190D01*
X85812380Y-34305952D01*
X85812380Y-34067857D01*
X85860000Y-33972619D01*
X85907619Y-33925000D01*
X86002857Y-33877380D01*
X86098095Y-33877380D01*
X86240952Y-33925000D01*
X86812380Y-34496428D01*
X86812380Y-33877380D01*
X112212380Y-35925000D02*
X111212380Y-35925000D01*
X111212380Y-35258333D02*
X111212380Y-35067857D01*
X111260000Y-34972619D01*
X111355238Y-34877380D01*
X111545714Y-34829761D01*
X111879047Y-34829761D01*
X112069523Y-34877380D01*
X112164761Y-34972619D01*
X112212380Y-35067857D01*
X112212380Y-35258333D01*
X112164761Y-35353571D01*
X112069523Y-35448809D01*
X111879047Y-35496428D01*
X111545714Y-35496428D01*
X111355238Y-35448809D01*
X111260000Y-35353571D01*
X111212380Y-35258333D01*
X111212380Y-34496428D02*
X111212380Y-33877380D01*
X111593333Y-34210714D01*
X111593333Y-34067857D01*
X111640952Y-33972619D01*
X111688571Y-33925000D01*
X111783809Y-33877380D01*
X112021904Y-33877380D01*
X112117142Y-33925000D01*
X112164761Y-33972619D01*
X112212380Y-34067857D01*
X112212380Y-34353571D01*
X112164761Y-34448809D01*
X112117142Y-34496428D01*
X109672380Y-39282619D02*
X109196190Y-39615952D01*
X109672380Y-39854047D02*
X108672380Y-39854047D01*
X108672380Y-39473095D01*
X108720000Y-39377857D01*
X108767619Y-39330238D01*
X108862857Y-39282619D01*
X109005714Y-39282619D01*
X109100952Y-39330238D01*
X109148571Y-39377857D01*
X109196190Y-39473095D01*
X109196190Y-39854047D01*
X109624761Y-38901666D02*
X109672380Y-38758809D01*
X109672380Y-38520714D01*
X109624761Y-38425476D01*
X109577142Y-38377857D01*
X109481904Y-38330238D01*
X109386666Y-38330238D01*
X109291428Y-38377857D01*
X109243809Y-38425476D01*
X109196190Y-38520714D01*
X109148571Y-38711190D01*
X109100952Y-38806428D01*
X109053333Y-38854047D01*
X108958095Y-38901666D01*
X108862857Y-38901666D01*
X108767619Y-38854047D01*
X108720000Y-38806428D01*
X108672380Y-38711190D01*
X108672380Y-38473095D01*
X108720000Y-38330238D01*
X108672380Y-38044523D02*
X108672380Y-37473095D01*
X109672380Y-37758809D02*
X108672380Y-37758809D01*
X118832380Y-36258333D02*
X119832380Y-35925000D01*
X118832380Y-35591666D01*
X119737142Y-34686904D02*
X119784761Y-34734523D01*
X119832380Y-34877380D01*
X119832380Y-34972619D01*
X119784761Y-35115476D01*
X119689523Y-35210714D01*
X119594285Y-35258333D01*
X119403809Y-35305952D01*
X119260952Y-35305952D01*
X119070476Y-35258333D01*
X118975238Y-35210714D01*
X118880000Y-35115476D01*
X118832380Y-34972619D01*
X118832380Y-34877380D01*
X118880000Y-34734523D01*
X118927619Y-34686904D01*
X119737142Y-33686904D02*
X119784761Y-33734523D01*
X119832380Y-33877380D01*
X119832380Y-33972619D01*
X119784761Y-34115476D01*
X119689523Y-34210714D01*
X119594285Y-34258333D01*
X119403809Y-34305952D01*
X119260952Y-34305952D01*
X119070476Y-34258333D01*
X118975238Y-34210714D01*
X118880000Y-34115476D01*
X118832380Y-33972619D01*
X118832380Y-33877380D01*
X118880000Y-33734523D01*
X118927619Y-33686904D01*
X66397142Y-35567857D02*
X66444761Y-35615476D01*
X66492380Y-35758333D01*
X66492380Y-35853571D01*
X66444761Y-35996428D01*
X66349523Y-36091666D01*
X66254285Y-36139285D01*
X66063809Y-36186904D01*
X65920952Y-36186904D01*
X65730476Y-36139285D01*
X65635238Y-36091666D01*
X65540000Y-35996428D01*
X65492380Y-35853571D01*
X65492380Y-35758333D01*
X65540000Y-35615476D01*
X65587619Y-35567857D01*
X66444761Y-35186904D02*
X66492380Y-35044047D01*
X66492380Y-34805952D01*
X66444761Y-34710714D01*
X66397142Y-34663095D01*
X66301904Y-34615476D01*
X66206666Y-34615476D01*
X66111428Y-34663095D01*
X66063809Y-34710714D01*
X66016190Y-34805952D01*
X65968571Y-34996428D01*
X65920952Y-35091666D01*
X65873333Y-35139285D01*
X65778095Y-35186904D01*
X65682857Y-35186904D01*
X65587619Y-35139285D01*
X65540000Y-35091666D01*
X65492380Y-34996428D01*
X65492380Y-34758333D01*
X65540000Y-34615476D01*
X65587619Y-34234523D02*
X65540000Y-34186904D01*
X65492380Y-34091666D01*
X65492380Y-33853571D01*
X65540000Y-33758333D01*
X65587619Y-33710714D01*
X65682857Y-33663095D01*
X65778095Y-33663095D01*
X65920952Y-33710714D01*
X66492380Y-34282142D01*
X66492380Y-33663095D01*
X112164761Y-39925476D02*
X112212380Y-39782619D01*
X112212380Y-39544523D01*
X112164761Y-39449285D01*
X112117142Y-39401666D01*
X112021904Y-39354047D01*
X111926666Y-39354047D01*
X111831428Y-39401666D01*
X111783809Y-39449285D01*
X111736190Y-39544523D01*
X111688571Y-39735000D01*
X111640952Y-39830238D01*
X111593333Y-39877857D01*
X111498095Y-39925476D01*
X111402857Y-39925476D01*
X111307619Y-39877857D01*
X111260000Y-39830238D01*
X111212380Y-39735000D01*
X111212380Y-39496904D01*
X111260000Y-39354047D01*
X112117142Y-38354047D02*
X112164761Y-38401666D01*
X112212380Y-38544523D01*
X112212380Y-38639761D01*
X112164761Y-38782619D01*
X112069523Y-38877857D01*
X111974285Y-38925476D01*
X111783809Y-38973095D01*
X111640952Y-38973095D01*
X111450476Y-38925476D01*
X111355238Y-38877857D01*
X111260000Y-38782619D01*
X111212380Y-38639761D01*
X111212380Y-38544523D01*
X111260000Y-38401666D01*
X111307619Y-38354047D01*
X112212380Y-37449285D02*
X112212380Y-37925476D01*
X111212380Y-37925476D01*
X109672380Y-35925000D02*
X108672380Y-35925000D01*
X108672380Y-35258333D02*
X108672380Y-35067857D01*
X108720000Y-34972619D01*
X108815238Y-34877380D01*
X109005714Y-34829761D01*
X109339047Y-34829761D01*
X109529523Y-34877380D01*
X109624761Y-34972619D01*
X109672380Y-35067857D01*
X109672380Y-35258333D01*
X109624761Y-35353571D01*
X109529523Y-35448809D01*
X109339047Y-35496428D01*
X109005714Y-35496428D01*
X108815238Y-35448809D01*
X108720000Y-35353571D01*
X108672380Y-35258333D01*
X108767619Y-34448809D02*
X108720000Y-34401190D01*
X108672380Y-34305952D01*
X108672380Y-34067857D01*
X108720000Y-33972619D01*
X108767619Y-33925000D01*
X108862857Y-33877380D01*
X108958095Y-33877380D01*
X109100952Y-33925000D01*
X109672380Y-34496428D01*
X109672380Y-33877380D01*
X63952380Y-35472619D02*
X63476190Y-35805952D01*
X63952380Y-36044047D02*
X62952380Y-36044047D01*
X62952380Y-35663095D01*
X63000000Y-35567857D01*
X63047619Y-35520238D01*
X63142857Y-35472619D01*
X63285714Y-35472619D01*
X63380952Y-35520238D01*
X63428571Y-35567857D01*
X63476190Y-35663095D01*
X63476190Y-36044047D01*
X63904761Y-35091666D02*
X63952380Y-34948809D01*
X63952380Y-34710714D01*
X63904761Y-34615476D01*
X63857142Y-34567857D01*
X63761904Y-34520238D01*
X63666666Y-34520238D01*
X63571428Y-34567857D01*
X63523809Y-34615476D01*
X63476190Y-34710714D01*
X63428571Y-34901190D01*
X63380952Y-34996428D01*
X63333333Y-35044047D01*
X63238095Y-35091666D01*
X63142857Y-35091666D01*
X63047619Y-35044047D01*
X63000000Y-34996428D01*
X62952380Y-34901190D01*
X62952380Y-34663095D01*
X63000000Y-34520238D01*
X62952380Y-34234523D02*
X62952380Y-33663095D01*
X63952380Y-33948809D02*
X62952380Y-33948809D01*
X95972380Y-40068333D02*
X96972380Y-39735000D01*
X95972380Y-39401666D01*
X96877142Y-38496904D02*
X96924761Y-38544523D01*
X96972380Y-38687380D01*
X96972380Y-38782619D01*
X96924761Y-38925476D01*
X96829523Y-39020714D01*
X96734285Y-39068333D01*
X96543809Y-39115952D01*
X96400952Y-39115952D01*
X96210476Y-39068333D01*
X96115238Y-39020714D01*
X96020000Y-38925476D01*
X95972380Y-38782619D01*
X95972380Y-38687380D01*
X96020000Y-38544523D01*
X96067619Y-38496904D01*
X96877142Y-37496904D02*
X96924761Y-37544523D01*
X96972380Y-37687380D01*
X96972380Y-37782619D01*
X96924761Y-37925476D01*
X96829523Y-38020714D01*
X96734285Y-38068333D01*
X96543809Y-38115952D01*
X96400952Y-38115952D01*
X96210476Y-38068333D01*
X96115238Y-38020714D01*
X96020000Y-37925476D01*
X95972380Y-37782619D01*
X95972380Y-37687380D01*
X96020000Y-37544523D01*
X96067619Y-37496904D01*
X73112380Y-36258333D02*
X74112380Y-35925000D01*
X73112380Y-35591666D01*
X74017142Y-34686904D02*
X74064761Y-34734523D01*
X74112380Y-34877380D01*
X74112380Y-34972619D01*
X74064761Y-35115476D01*
X73969523Y-35210714D01*
X73874285Y-35258333D01*
X73683809Y-35305952D01*
X73540952Y-35305952D01*
X73350476Y-35258333D01*
X73255238Y-35210714D01*
X73160000Y-35115476D01*
X73112380Y-34972619D01*
X73112380Y-34877380D01*
X73160000Y-34734523D01*
X73207619Y-34686904D01*
X74017142Y-33686904D02*
X74064761Y-33734523D01*
X74112380Y-33877380D01*
X74112380Y-33972619D01*
X74064761Y-34115476D01*
X73969523Y-34210714D01*
X73874285Y-34258333D01*
X73683809Y-34305952D01*
X73540952Y-34305952D01*
X73350476Y-34258333D01*
X73255238Y-34210714D01*
X73160000Y-34115476D01*
X73112380Y-33972619D01*
X73112380Y-33877380D01*
X73160000Y-33734523D01*
X73207619Y-33686904D01*
X93480000Y-35686904D02*
X93432380Y-35782142D01*
X93432380Y-35925000D01*
X93480000Y-36067857D01*
X93575238Y-36163095D01*
X93670476Y-36210714D01*
X93860952Y-36258333D01*
X94003809Y-36258333D01*
X94194285Y-36210714D01*
X94289523Y-36163095D01*
X94384761Y-36067857D01*
X94432380Y-35925000D01*
X94432380Y-35829761D01*
X94384761Y-35686904D01*
X94337142Y-35639285D01*
X94003809Y-35639285D01*
X94003809Y-35829761D01*
X94432380Y-35210714D02*
X93432380Y-35210714D01*
X94432380Y-34639285D01*
X93432380Y-34639285D01*
X94432380Y-34163095D02*
X93432380Y-34163095D01*
X93432380Y-33925000D01*
X93480000Y-33782142D01*
X93575238Y-33686904D01*
X93670476Y-33639285D01*
X93860952Y-33591666D01*
X94003809Y-33591666D01*
X94194285Y-33639285D01*
X94289523Y-33686904D01*
X94384761Y-33782142D01*
X94432380Y-33925000D01*
X94432380Y-34163095D01*
%TO.C,PMOD2*%
X99742380Y-27163333D02*
X98742380Y-27163333D01*
X98742380Y-26782380D01*
X98790000Y-26687142D01*
X98837619Y-26639523D01*
X98932857Y-26591904D01*
X99075714Y-26591904D01*
X99170952Y-26639523D01*
X99218571Y-26687142D01*
X99266190Y-26782380D01*
X99266190Y-27163333D01*
X99742380Y-26163333D02*
X98742380Y-26163333D01*
X99456666Y-25830000D01*
X98742380Y-25496666D01*
X99742380Y-25496666D01*
X98742380Y-24830000D02*
X98742380Y-24639523D01*
X98790000Y-24544285D01*
X98885238Y-24449047D01*
X99075714Y-24401428D01*
X99409047Y-24401428D01*
X99599523Y-24449047D01*
X99694761Y-24544285D01*
X99742380Y-24639523D01*
X99742380Y-24830000D01*
X99694761Y-24925238D01*
X99599523Y-25020476D01*
X99409047Y-25068095D01*
X99075714Y-25068095D01*
X98885238Y-25020476D01*
X98790000Y-24925238D01*
X98742380Y-24830000D01*
X99742380Y-23972857D02*
X98742380Y-23972857D01*
X98742380Y-23734761D01*
X98790000Y-23591904D01*
X98885238Y-23496666D01*
X98980476Y-23449047D01*
X99170952Y-23401428D01*
X99313809Y-23401428D01*
X99504285Y-23449047D01*
X99599523Y-23496666D01*
X99694761Y-23591904D01*
X99742380Y-23734761D01*
X99742380Y-23972857D01*
X98837619Y-23020476D02*
X98790000Y-22972857D01*
X98742380Y-22877619D01*
X98742380Y-22639523D01*
X98790000Y-22544285D01*
X98837619Y-22496666D01*
X98932857Y-22449047D01*
X99028095Y-22449047D01*
X99170952Y-22496666D01*
X99742380Y-23068095D01*
X99742380Y-22449047D01*
%TO.C,PMOD3*%
X122602380Y-27163333D02*
X121602380Y-27163333D01*
X121602380Y-26782380D01*
X121650000Y-26687142D01*
X121697619Y-26639523D01*
X121792857Y-26591904D01*
X121935714Y-26591904D01*
X122030952Y-26639523D01*
X122078571Y-26687142D01*
X122126190Y-26782380D01*
X122126190Y-27163333D01*
X122602380Y-26163333D02*
X121602380Y-26163333D01*
X122316666Y-25830000D01*
X121602380Y-25496666D01*
X122602380Y-25496666D01*
X121602380Y-24830000D02*
X121602380Y-24639523D01*
X121650000Y-24544285D01*
X121745238Y-24449047D01*
X121935714Y-24401428D01*
X122269047Y-24401428D01*
X122459523Y-24449047D01*
X122554761Y-24544285D01*
X122602380Y-24639523D01*
X122602380Y-24830000D01*
X122554761Y-24925238D01*
X122459523Y-25020476D01*
X122269047Y-25068095D01*
X121935714Y-25068095D01*
X121745238Y-25020476D01*
X121650000Y-24925238D01*
X121602380Y-24830000D01*
X122602380Y-23972857D02*
X121602380Y-23972857D01*
X121602380Y-23734761D01*
X121650000Y-23591904D01*
X121745238Y-23496666D01*
X121840476Y-23449047D01*
X122030952Y-23401428D01*
X122173809Y-23401428D01*
X122364285Y-23449047D01*
X122459523Y-23496666D01*
X122554761Y-23591904D01*
X122602380Y-23734761D01*
X122602380Y-23972857D01*
X121602380Y-23068095D02*
X121602380Y-22449047D01*
X121983333Y-22782380D01*
X121983333Y-22639523D01*
X122030952Y-22544285D01*
X122078571Y-22496666D01*
X122173809Y-22449047D01*
X122411904Y-22449047D01*
X122507142Y-22496666D01*
X122554761Y-22544285D01*
X122602380Y-22639523D01*
X122602380Y-22925238D01*
X122554761Y-23020476D01*
X122507142Y-23068095D01*
%TO.C,PMOD1*%
X76882380Y-27163333D02*
X75882380Y-27163333D01*
X75882380Y-26782380D01*
X75930000Y-26687142D01*
X75977619Y-26639523D01*
X76072857Y-26591904D01*
X76215714Y-26591904D01*
X76310952Y-26639523D01*
X76358571Y-26687142D01*
X76406190Y-26782380D01*
X76406190Y-27163333D01*
X76882380Y-26163333D02*
X75882380Y-26163333D01*
X76596666Y-25830000D01*
X75882380Y-25496666D01*
X76882380Y-25496666D01*
X75882380Y-24830000D02*
X75882380Y-24639523D01*
X75930000Y-24544285D01*
X76025238Y-24449047D01*
X76215714Y-24401428D01*
X76549047Y-24401428D01*
X76739523Y-24449047D01*
X76834761Y-24544285D01*
X76882380Y-24639523D01*
X76882380Y-24830000D01*
X76834761Y-24925238D01*
X76739523Y-25020476D01*
X76549047Y-25068095D01*
X76215714Y-25068095D01*
X76025238Y-25020476D01*
X75930000Y-24925238D01*
X75882380Y-24830000D01*
X76882380Y-23972857D02*
X75882380Y-23972857D01*
X75882380Y-23734761D01*
X75930000Y-23591904D01*
X76025238Y-23496666D01*
X76120476Y-23449047D01*
X76310952Y-23401428D01*
X76453809Y-23401428D01*
X76644285Y-23449047D01*
X76739523Y-23496666D01*
X76834761Y-23591904D01*
X76882380Y-23734761D01*
X76882380Y-23972857D01*
X76882380Y-22449047D02*
X76882380Y-23020476D01*
X76882380Y-22734761D02*
X75882380Y-22734761D01*
X76025238Y-22830000D01*
X76120476Y-22925238D01*
X76168095Y-23020476D01*
D10*
%TO.C,PMOD2*%
X86000000Y-28990000D02*
X86000000Y-29430000D01*
X97850000Y-17850000D02*
X82490000Y-17850000D01*
X91080000Y-28990000D02*
X91080000Y-29430000D01*
X88540000Y-26480000D02*
X88540000Y-26890000D01*
X94340000Y-26480000D02*
X94340000Y-26890000D01*
X96903335Y-17850000D02*
X96903335Y-26480000D01*
X97850000Y-17850000D02*
X97850000Y-26480000D01*
X96667145Y-17850000D02*
X96667145Y-26480000D01*
X97257620Y-17850000D02*
X97257620Y-26480000D01*
X97493810Y-17850000D02*
X97493810Y-26480000D01*
X96160000Y-28990000D02*
X96160000Y-29370000D01*
X93620000Y-28990000D02*
X93620000Y-29430000D01*
X95958575Y-17850000D02*
X95958575Y-26480000D01*
X83460000Y-28990000D02*
X83460000Y-29430000D01*
X84180000Y-28990000D02*
X84180000Y-29430000D01*
X85090000Y-17850000D02*
X85090000Y-26480000D01*
X91080000Y-26480000D02*
X91080000Y-26890000D01*
X97021430Y-17850000D02*
X97021430Y-26480000D01*
X97850000Y-30480000D02*
X97850000Y-31590000D01*
X95368100Y-17850000D02*
X95368100Y-26480000D01*
X97730000Y-17850000D02*
X97730000Y-26480000D01*
X91800000Y-26480000D02*
X91800000Y-26890000D01*
X96312860Y-17850000D02*
X96312860Y-26480000D01*
X89260000Y-26480000D02*
X89260000Y-26890000D01*
X83460000Y-26480000D02*
X83460000Y-26890000D01*
X96194765Y-17850000D02*
X96194765Y-26480000D01*
X96160000Y-26480000D02*
X96160000Y-26890000D01*
X96880000Y-28990000D02*
X96880000Y-29370000D01*
X86720000Y-28990000D02*
X86720000Y-29430000D01*
X97375715Y-17850000D02*
X97375715Y-26480000D01*
X95486195Y-17850000D02*
X95486195Y-26480000D01*
X96880000Y-26480000D02*
X96880000Y-26890000D01*
X96549050Y-17850000D02*
X96549050Y-26480000D01*
X90170000Y-17850000D02*
X90170000Y-26480000D01*
X97850000Y-26480000D02*
X82490000Y-26480000D01*
X88540000Y-28990000D02*
X88540000Y-29430000D01*
X94340000Y-28990000D02*
X94340000Y-29430000D01*
X86000000Y-26480000D02*
X86000000Y-26890000D01*
X93620000Y-26480000D02*
X93620000Y-26890000D01*
X82490000Y-17850000D02*
X82490000Y-26480000D01*
X91800000Y-28990000D02*
X91800000Y-29430000D01*
X96785240Y-17850000D02*
X96785240Y-26480000D01*
X84180000Y-26480000D02*
X84180000Y-26890000D01*
X96430955Y-17850000D02*
X96430955Y-26480000D01*
X95722385Y-17850000D02*
X95722385Y-26480000D01*
X95250000Y-17850000D02*
X95250000Y-26480000D01*
X96076670Y-17850000D02*
X96076670Y-26480000D01*
X86720000Y-26480000D02*
X86720000Y-26890000D01*
X87630000Y-17850000D02*
X87630000Y-26480000D01*
X97850000Y-31590000D02*
X96520000Y-31590000D01*
X95604290Y-17850000D02*
X95604290Y-26480000D01*
X97139525Y-17850000D02*
X97139525Y-26480000D01*
X92710000Y-17850000D02*
X92710000Y-26480000D01*
X89260000Y-28990000D02*
X89260000Y-29430000D01*
X97611905Y-17850000D02*
X97611905Y-26480000D01*
X95840480Y-17850000D02*
X95840480Y-26480000D01*
%TO.C,PMOD3*%
X118818575Y-17850000D02*
X118818575Y-26480000D01*
X117200000Y-26480000D02*
X117200000Y-26890000D01*
X114660000Y-28990000D02*
X114660000Y-29430000D01*
X119740000Y-28990000D02*
X119740000Y-29370000D01*
X110490000Y-17850000D02*
X110490000Y-26480000D01*
X112120000Y-28990000D02*
X112120000Y-29430000D01*
X119409050Y-17850000D02*
X119409050Y-26480000D01*
X119054765Y-17850000D02*
X119054765Y-26480000D01*
X119020000Y-26480000D02*
X119020000Y-26890000D01*
X113030000Y-17850000D02*
X113030000Y-26480000D01*
X111400000Y-26480000D02*
X111400000Y-26890000D01*
X107950000Y-17850000D02*
X107950000Y-26480000D01*
X120235715Y-17850000D02*
X120235715Y-26480000D01*
X116480000Y-28990000D02*
X116480000Y-29430000D01*
X108860000Y-26480000D02*
X108860000Y-26890000D01*
X107040000Y-26480000D02*
X107040000Y-26890000D01*
X119763335Y-17850000D02*
X119763335Y-26480000D01*
X118346195Y-17850000D02*
X118346195Y-26480000D01*
X113940000Y-26480000D02*
X113940000Y-26890000D01*
X119881430Y-17850000D02*
X119881430Y-26480000D01*
X118110000Y-17850000D02*
X118110000Y-26480000D01*
X119020000Y-28990000D02*
X119020000Y-29370000D01*
X120710000Y-26480000D02*
X105350000Y-26480000D01*
X119290955Y-17850000D02*
X119290955Y-26480000D01*
X119999525Y-17850000D02*
X119999525Y-26480000D01*
X105350000Y-17850000D02*
X105350000Y-26480000D01*
X120710000Y-17850000D02*
X120710000Y-26480000D01*
X119172860Y-17850000D02*
X119172860Y-26480000D01*
X120710000Y-31590000D02*
X119380000Y-31590000D01*
X120353810Y-17850000D02*
X120353810Y-26480000D01*
X106320000Y-28990000D02*
X106320000Y-29430000D01*
X113940000Y-28990000D02*
X113940000Y-29430000D01*
X119527145Y-17850000D02*
X119527145Y-26480000D01*
X119740000Y-26480000D02*
X119740000Y-26890000D01*
X118228100Y-17850000D02*
X118228100Y-26480000D01*
X120117620Y-17850000D02*
X120117620Y-26480000D01*
X118700480Y-17850000D02*
X118700480Y-26480000D01*
X118464290Y-17850000D02*
X118464290Y-26480000D01*
X117200000Y-28990000D02*
X117200000Y-29430000D01*
X109580000Y-26480000D02*
X109580000Y-26890000D01*
X106320000Y-26480000D02*
X106320000Y-26890000D01*
X112120000Y-26480000D02*
X112120000Y-26890000D01*
X119645240Y-17850000D02*
X119645240Y-26480000D01*
X118582385Y-17850000D02*
X118582385Y-26480000D01*
X120710000Y-30480000D02*
X120710000Y-31590000D01*
X118936670Y-17850000D02*
X118936670Y-26480000D01*
X114660000Y-26480000D02*
X114660000Y-26890000D01*
X107040000Y-28990000D02*
X107040000Y-29430000D01*
X120590000Y-17850000D02*
X120590000Y-26480000D01*
X120710000Y-17850000D02*
X105350000Y-17850000D01*
X120471905Y-17850000D02*
X120471905Y-26480000D01*
X109580000Y-28990000D02*
X109580000Y-29430000D01*
X115570000Y-17850000D02*
X115570000Y-26480000D01*
X108860000Y-28990000D02*
X108860000Y-29430000D01*
X116480000Y-26480000D02*
X116480000Y-26890000D01*
X111400000Y-28990000D02*
X111400000Y-29430000D01*
%TO.C,PMOD1*%
X73216670Y-17850000D02*
X73216670Y-26480000D01*
X66400000Y-26480000D02*
X66400000Y-26890000D01*
X63140000Y-26480000D02*
X63140000Y-26890000D01*
X74990000Y-30480000D02*
X74990000Y-31590000D01*
X64770000Y-17850000D02*
X64770000Y-26480000D01*
X73925240Y-17850000D02*
X73925240Y-26480000D01*
X60600000Y-26480000D02*
X60600000Y-26890000D01*
X73452860Y-17850000D02*
X73452860Y-26480000D01*
X70760000Y-26480000D02*
X70760000Y-26890000D01*
X73098575Y-17850000D02*
X73098575Y-26480000D01*
X74990000Y-17850000D02*
X59630000Y-17850000D01*
X74161430Y-17850000D02*
X74161430Y-26480000D01*
X74043335Y-17850000D02*
X74043335Y-26480000D01*
X68220000Y-28990000D02*
X68220000Y-29430000D01*
X63860000Y-26480000D02*
X63860000Y-26890000D01*
X72980480Y-17850000D02*
X72980480Y-26480000D01*
X74990000Y-26480000D02*
X59630000Y-26480000D01*
X65680000Y-26480000D02*
X65680000Y-26890000D01*
X73689050Y-17850000D02*
X73689050Y-26480000D01*
X72508100Y-17850000D02*
X72508100Y-26480000D01*
X68940000Y-26480000D02*
X68940000Y-26890000D01*
X74279525Y-17850000D02*
X74279525Y-26480000D01*
X65680000Y-28990000D02*
X65680000Y-29430000D01*
X74515715Y-17850000D02*
X74515715Y-26480000D01*
X68940000Y-28990000D02*
X68940000Y-29430000D01*
X72390000Y-17850000D02*
X72390000Y-26480000D01*
X74870000Y-17850000D02*
X74870000Y-26480000D01*
X66400000Y-28990000D02*
X66400000Y-29430000D01*
X74020000Y-26480000D02*
X74020000Y-26890000D01*
X73300000Y-28990000D02*
X73300000Y-29370000D01*
X67310000Y-17850000D02*
X67310000Y-26480000D01*
X73570955Y-17850000D02*
X73570955Y-26480000D01*
X60600000Y-28990000D02*
X60600000Y-29430000D01*
X73807145Y-17850000D02*
X73807145Y-26480000D01*
X71480000Y-28990000D02*
X71480000Y-29430000D01*
X74751905Y-17850000D02*
X74751905Y-26480000D01*
X62230000Y-17850000D02*
X62230000Y-26480000D01*
X71480000Y-26480000D02*
X71480000Y-26890000D01*
X68220000Y-26480000D02*
X68220000Y-26890000D01*
X73334765Y-17850000D02*
X73334765Y-26480000D01*
X69850000Y-17850000D02*
X69850000Y-26480000D01*
X74990000Y-31590000D02*
X73660000Y-31590000D01*
X59630000Y-17850000D02*
X59630000Y-26480000D01*
X74020000Y-28990000D02*
X74020000Y-29370000D01*
X72744290Y-17850000D02*
X72744290Y-26480000D01*
X74397620Y-17850000D02*
X74397620Y-26480000D01*
X61320000Y-26480000D02*
X61320000Y-26890000D01*
X61320000Y-28990000D02*
X61320000Y-29430000D01*
X72862385Y-17850000D02*
X72862385Y-26480000D01*
X70760000Y-28990000D02*
X70760000Y-29430000D01*
X63140000Y-28990000D02*
X63140000Y-29430000D01*
X74633810Y-17850000D02*
X74633810Y-26480000D01*
X63860000Y-28990000D02*
X63860000Y-29430000D01*
X74990000Y-17850000D02*
X74990000Y-26480000D01*
X73300000Y-26480000D02*
X73300000Y-26890000D01*
X72626195Y-17850000D02*
X72626195Y-26480000D01*
%TO.C,J4*%
X59630000Y-44450000D02*
X59630000Y-41850000D01*
X59630000Y-41850000D02*
X69910000Y-41850000D01*
X62230000Y-44450000D02*
X59630000Y-44450000D01*
X69910000Y-47050000D02*
X69910000Y-41850000D01*
X62230000Y-47050000D02*
X62230000Y-44450000D01*
X60960000Y-47050000D02*
X59630000Y-47050000D01*
X59630000Y-47050000D02*
X59630000Y-45720000D01*
X62230000Y-47050000D02*
X69910000Y-47050000D01*
%TO.C,J5*%
X82490000Y-47050000D02*
X82490000Y-45720000D01*
X82490000Y-44450000D02*
X82490000Y-41850000D01*
X83820000Y-47050000D02*
X82490000Y-47050000D01*
X85090000Y-47050000D02*
X92770000Y-47050000D01*
X85090000Y-47050000D02*
X85090000Y-44450000D01*
X85090000Y-44450000D02*
X82490000Y-44450000D01*
X92770000Y-47050000D02*
X92770000Y-41850000D01*
X82490000Y-41850000D02*
X92770000Y-41850000D01*
%TO.C,J6*%
X105350000Y-44450000D02*
X105350000Y-41850000D01*
X105350000Y-47050000D02*
X105350000Y-45720000D01*
X105350000Y-41850000D02*
X115630000Y-41850000D01*
X106680000Y-47050000D02*
X105350000Y-47050000D01*
X107950000Y-44450000D02*
X105350000Y-44450000D01*
X107950000Y-47050000D02*
X115630000Y-47050000D01*
X107950000Y-47050000D02*
X107950000Y-44450000D01*
X115630000Y-47050000D02*
X115630000Y-41850000D01*
%TO.C,J1*%
X88900000Y-52130000D02*
X87570000Y-52130000D01*
X90170000Y-49470000D02*
X92770000Y-49470000D01*
X92770000Y-52130000D02*
X92770000Y-49470000D01*
X90170000Y-52130000D02*
X90170000Y-49470000D01*
X87570000Y-52130000D02*
X87570000Y-50800000D01*
X90170000Y-52130000D02*
X92770000Y-52130000D01*
%TD*%
M02*
