%TF.GenerationSoftware,KiCad,Pcbnew,(6.0.5)*%
%TF.CreationDate,2022-05-29T15:22:12+02:00*%
%TF.ProjectId,pmod_master,706d6f64-5f6d-4617-9374-65722e6b6963,rev?*%
%TF.SameCoordinates,Original*%
%TF.FileFunction,Soldermask,Bot*%
%TF.FilePolarity,Negative*%
%FSLAX46Y46*%
G04 Gerber Fmt 4.6, Leading zero omitted, Abs format (unit mm)*
G04 Created by KiCad (PCBNEW (6.0.5)) date 2022-05-29 15:22:12*
%MOMM*%
%LPD*%
G01*
G04 APERTURE LIST*
%ADD10R,1.700000X1.700000*%
%ADD11O,1.700000X1.700000*%
%ADD12C,0.900000*%
%ADD13C,8.600000*%
G04 APERTURE END LIST*
D10*
%TO.C,PMOD2*%
X96520000Y-30480000D03*
D11*
X96520000Y-27940000D03*
X93980000Y-30480000D03*
X93980000Y-27940000D03*
X91440000Y-30480000D03*
X91440000Y-27940000D03*
X88900000Y-30480000D03*
X88900000Y-27940000D03*
X86360000Y-30480000D03*
X86360000Y-27940000D03*
X83820000Y-30480000D03*
X83820000Y-27940000D03*
%TD*%
D10*
%TO.C,PMOD3*%
X119380000Y-30480000D03*
D11*
X119380000Y-27940000D03*
X116840000Y-30480000D03*
X116840000Y-27940000D03*
X114300000Y-30480000D03*
X114300000Y-27940000D03*
X111760000Y-30480000D03*
X111760000Y-27940000D03*
X109220000Y-30480000D03*
X109220000Y-27940000D03*
X106680000Y-30480000D03*
X106680000Y-27940000D03*
%TD*%
D10*
%TO.C,PMOD1*%
X73660000Y-30480000D03*
D11*
X73660000Y-27940000D03*
X71120000Y-30480000D03*
X71120000Y-27940000D03*
X68580000Y-30480000D03*
X68580000Y-27940000D03*
X66040000Y-30480000D03*
X66040000Y-27940000D03*
X63500000Y-30480000D03*
X63500000Y-27940000D03*
X60960000Y-30480000D03*
X60960000Y-27940000D03*
%TD*%
D10*
%TO.C,J4*%
X60960000Y-45720000D03*
D11*
X60960000Y-43180000D03*
X63500000Y-45720000D03*
X63500000Y-43180000D03*
X66040000Y-45720000D03*
X66040000Y-43180000D03*
X68580000Y-45720000D03*
X68580000Y-43180000D03*
%TD*%
D10*
%TO.C,J5*%
X83820000Y-45720000D03*
D11*
X83820000Y-43180000D03*
X86360000Y-45720000D03*
X86360000Y-43180000D03*
X88900000Y-45720000D03*
X88900000Y-43180000D03*
X91440000Y-45720000D03*
X91440000Y-43180000D03*
%TD*%
D10*
%TO.C,J6*%
X106680000Y-45720000D03*
D11*
X106680000Y-43180000D03*
X109220000Y-45720000D03*
X109220000Y-43180000D03*
X111760000Y-45720000D03*
X111760000Y-43180000D03*
X114300000Y-45720000D03*
X114300000Y-43180000D03*
%TD*%
D12*
%TO.C,H3*%
X53080419Y-45979581D03*
X47575000Y-48260000D03*
X54025000Y-48260000D03*
X53080419Y-50540419D03*
X48519581Y-50540419D03*
X50800000Y-45035000D03*
X48519581Y-45979581D03*
X50800000Y-51485000D03*
D13*
X50800000Y-48260000D03*
%TD*%
D12*
%TO.C,H1*%
X50800000Y-26085000D03*
X47575000Y-22860000D03*
X48519581Y-20579581D03*
X54025000Y-22860000D03*
D13*
X50800000Y-22860000D03*
D12*
X50800000Y-19635000D03*
X48519581Y-25140419D03*
X53080419Y-25140419D03*
X53080419Y-20579581D03*
%TD*%
D10*
%TO.C,J1*%
X88900000Y-50800000D03*
D11*
X91440000Y-50800000D03*
%TD*%
D12*
%TO.C,H4*%
X129540000Y-51485000D03*
X131820419Y-45979581D03*
X129540000Y-45035000D03*
D13*
X129540000Y-48260000D03*
D12*
X127259581Y-50540419D03*
X126315000Y-48260000D03*
X132765000Y-48260000D03*
X127259581Y-45979581D03*
X131820419Y-50540419D03*
%TD*%
%TO.C,H2*%
X129540000Y-26085000D03*
X132765000Y-22860000D03*
D13*
X129540000Y-22860000D03*
D12*
X131820419Y-20579581D03*
X127259581Y-25140419D03*
X126315000Y-22860000D03*
X127259581Y-20579581D03*
X131820419Y-25140419D03*
X129540000Y-19635000D03*
%TD*%
M02*
