%TF.GenerationSoftware,KiCad,Pcbnew,7.0.1*%
%TF.CreationDate,2023-03-26T17:19:44+02:00*%
%TF.ProjectId,RA01_868_PMOD,52413031-5f38-4363-985f-504d4f442e6b,rev?*%
%TF.SameCoordinates,Original*%
%TF.FileFunction,Copper,L2,Bot*%
%TF.FilePolarity,Positive*%
%FSLAX46Y46*%
G04 Gerber Fmt 4.6, Leading zero omitted, Abs format (unit mm)*
G04 Created by KiCad (PCBNEW 7.0.1) date 2023-03-26 17:19:44*
%MOMM*%
%LPD*%
G01*
G04 APERTURE LIST*
%TA.AperFunction,EtchedComponent*%
%ADD10C,1.000000*%
%TD*%
%TA.AperFunction,ComponentPad*%
%ADD11R,1.700000X1.700000*%
%TD*%
%TA.AperFunction,ComponentPad*%
%ADD12O,1.700000X1.700000*%
%TD*%
%TA.AperFunction,ComponentPad*%
%ADD13C,1.000000*%
%TD*%
%TA.AperFunction,ViaPad*%
%ADD14C,0.800000*%
%TD*%
%TA.AperFunction,Conductor*%
%ADD15C,0.250000*%
%TD*%
G04 APERTURE END LIST*
D10*
%TO.C,AE1*%
X105960000Y-58530000D02*
X106960000Y-57530000D01*
X106960000Y-57530000D02*
X109960000Y-57530000D01*
X109960000Y-57530000D02*
X110960000Y-56530000D01*
X105960000Y-56530000D02*
X106960000Y-55530000D01*
X106960000Y-55530000D02*
X109960000Y-55530000D01*
X109960000Y-55530000D02*
X110960000Y-54530000D01*
X105960000Y-54530000D02*
X106960000Y-53530000D01*
X106960000Y-53530000D02*
X109960000Y-53530000D01*
X109960000Y-53530000D02*
X110960000Y-52530000D01*
X105960000Y-52530000D02*
X106960000Y-51530000D01*
X106960000Y-51530000D02*
X109960000Y-51530000D01*
X109960000Y-51530000D02*
X110960000Y-50530000D01*
X105960000Y-50530000D02*
X106960000Y-49530000D01*
X106960000Y-49530000D02*
X109960000Y-49530000D01*
X109960000Y-49530000D02*
X110960000Y-48530000D01*
X105960000Y-48530000D02*
X106960000Y-47530000D01*
X106960000Y-47530000D02*
X109960000Y-47530000D01*
X109960000Y-47530000D02*
X110960000Y-46530000D01*
X105960000Y-46530000D02*
X106960000Y-45530000D01*
X106960000Y-45530000D02*
X109960000Y-45530000D01*
X109960000Y-45530000D02*
X110960000Y-44530000D01*
X105960000Y-44530000D02*
X106960000Y-43530000D01*
X106960000Y-43530000D02*
X109960000Y-43530000D01*
X109960000Y-43530000D02*
X110960000Y-42530000D01*
X105960000Y-42530000D02*
X106960000Y-41530000D01*
X106960000Y-41530000D02*
X109960000Y-41530000D01*
X109960000Y-41530000D02*
X110960000Y-40530000D01*
%TD*%
D11*
%TO.P,J1,1,Pin_1*%
%TO.N,VCC*%
X149860000Y-43180000D03*
D12*
%TO.P,J1,2,Pin_2*%
X152400000Y-43180000D03*
%TO.P,J1,3,Pin_3*%
%TO.N,GND*%
X149860000Y-45720000D03*
%TO.P,J1,4,Pin_4*%
X152400000Y-45720000D03*
%TO.P,J1,5,Pin_5*%
%TO.N,SCK*%
X149860000Y-48260000D03*
%TO.P,J1,6,Pin_6*%
%TO.N,unconnected-(J1-Pin_6-Pad6)*%
X152400000Y-48260000D03*
%TO.P,J1,7,Pin_7*%
%TO.N,MISO*%
X149860000Y-50800000D03*
%TO.P,J1,8,Pin_8*%
%TO.N,unconnected-(J1-Pin_8-Pad8)*%
X152400000Y-50800000D03*
%TO.P,J1,9,Pin_9*%
%TO.N,MOSI*%
X149860000Y-53340000D03*
%TO.P,J1,10,Pin_10*%
%TO.N,nRESET*%
X152400000Y-53340000D03*
%TO.P,J1,11,Pin_11*%
%TO.N,nCS*%
X149860000Y-55880000D03*
%TO.P,J1,12,Pin_12*%
%TO.N,DIO0*%
X152400000Y-55880000D03*
%TD*%
D13*
%TO.P,AE1,*%
%TO.N,*%
X105960000Y-58530000D03*
X105960000Y-56530000D03*
X110960000Y-56530000D03*
X105960000Y-54530000D03*
X110960000Y-54530000D03*
X105960000Y-52530000D03*
X110960000Y-52530000D03*
X105960000Y-50530000D03*
X110960000Y-50530000D03*
X105960000Y-48530000D03*
X110960000Y-48530000D03*
X105960000Y-46530000D03*
X110960000Y-46530000D03*
X105960000Y-44530000D03*
X110960000Y-44530000D03*
X105960000Y-42530000D03*
X110960000Y-42530000D03*
X105960000Y-40530000D03*
X110960000Y-40530000D03*
%TD*%
D14*
%TO.N,nRESET*%
X130810000Y-50800000D03*
%TO.N,nCS*%
X140970000Y-55880000D03*
%TO.N,MOSI*%
X140970000Y-53340000D03*
%TD*%
D15*
%TO.N,nRESET*%
X151130000Y-54610000D02*
X152400000Y-53340000D01*
X151130000Y-56271701D02*
X151130000Y-54610000D01*
X130810000Y-50800000D02*
X137065000Y-57055000D01*
X137065000Y-57055000D02*
X150346701Y-57055000D01*
X150346701Y-57055000D02*
X151130000Y-56271701D01*
%TO.N,nCS*%
X149860000Y-55880000D02*
X140970000Y-55880000D01*
%TO.N,MOSI*%
X149860000Y-53340000D02*
X140970000Y-53340000D01*
%TD*%
%TA.AperFunction,Conductor*%
%TO.N,GND*%
G36*
X156121500Y-38142381D02*
G01*
X156167619Y-38188500D01*
X156184500Y-38251500D01*
X156184500Y-60808500D01*
X156167619Y-60871500D01*
X156121500Y-60917619D01*
X156058500Y-60934500D01*
X104291500Y-60934500D01*
X104228500Y-60917619D01*
X104182381Y-60871500D01*
X104165500Y-60808500D01*
X104165500Y-58529999D01*
X104954658Y-58529999D01*
X104954678Y-58530194D01*
X104954920Y-58552089D01*
X104954662Y-58555471D01*
X104965491Y-58640504D01*
X104965893Y-58644070D01*
X104973976Y-58726136D01*
X104975074Y-58729756D01*
X104979485Y-58750391D01*
X104980368Y-58757323D01*
X105006940Y-58835062D01*
X105008286Y-58839238D01*
X105031186Y-58914727D01*
X105034662Y-58921231D01*
X105042761Y-58939860D01*
X105046183Y-58949872D01*
X105086025Y-59017553D01*
X105088563Y-59022074D01*
X105124091Y-59088539D01*
X105131045Y-59097014D01*
X105142223Y-59113021D01*
X105149405Y-59125221D01*
X105149409Y-59125225D01*
X105149410Y-59125227D01*
X105199704Y-59180894D01*
X105203569Y-59185382D01*
X105249117Y-59240883D01*
X105249119Y-59240885D01*
X105260360Y-59250111D01*
X105273913Y-59263034D01*
X105282204Y-59272210D01*
X105285821Y-59276213D01*
X105331020Y-59309403D01*
X105343389Y-59318486D01*
X105348735Y-59322638D01*
X105401462Y-59365910D01*
X105417456Y-59374459D01*
X105432631Y-59384017D01*
X105446054Y-59393874D01*
X105449833Y-59396649D01*
X105511491Y-59424980D01*
X105518268Y-59428344D01*
X105575273Y-59458814D01*
X105596063Y-59465120D01*
X105612077Y-59471195D01*
X105634732Y-59481605D01*
X105697364Y-59496139D01*
X105705409Y-59498290D01*
X105763868Y-59516024D01*
X105780865Y-59517697D01*
X105789038Y-59518503D01*
X105805172Y-59521157D01*
X105832946Y-59527603D01*
X105893669Y-59529141D01*
X105902779Y-59529705D01*
X105950458Y-59534401D01*
X105959998Y-59535341D01*
X105959998Y-59535340D01*
X105960000Y-59535341D01*
X105988740Y-59532509D01*
X106004272Y-59531943D01*
X106036363Y-59532757D01*
X106081865Y-59524601D01*
X106092602Y-59522677D01*
X106102481Y-59521308D01*
X106130961Y-59518503D01*
X106156132Y-59516024D01*
X106173689Y-59510697D01*
X106187200Y-59506599D01*
X106201555Y-59503148D01*
X106236650Y-59496859D01*
X106238465Y-59496134D01*
X106286396Y-59476987D01*
X106296530Y-59473433D01*
X106344727Y-59458814D01*
X106376522Y-59441818D01*
X106389156Y-59435940D01*
X106425617Y-59421377D01*
X106467355Y-59393867D01*
X106477280Y-59387961D01*
X106518538Y-59365910D01*
X106549164Y-59340774D01*
X106559755Y-59332971D01*
X106595519Y-59309402D01*
X106628344Y-59276575D01*
X106637475Y-59268299D01*
X106670883Y-59240883D01*
X106698299Y-59207475D01*
X106706574Y-59198345D01*
X107337516Y-58567404D01*
X107378394Y-58540091D01*
X107426612Y-58530500D01*
X109945672Y-58530500D01*
X109948862Y-58530539D01*
X110036363Y-58532757D01*
X110094354Y-58522362D01*
X110103833Y-58521034D01*
X110139656Y-58517390D01*
X110162438Y-58515074D01*
X110191349Y-58506002D01*
X110206824Y-58502204D01*
X110236653Y-58496858D01*
X110291356Y-58475006D01*
X110300374Y-58471796D01*
X110314086Y-58467493D01*
X110356588Y-58454159D01*
X110383089Y-58439448D01*
X110397477Y-58432616D01*
X110425617Y-58421377D01*
X110474830Y-58388942D01*
X110482966Y-58384013D01*
X110534502Y-58355409D01*
X110557493Y-58335670D01*
X110570216Y-58326077D01*
X110595519Y-58309402D01*
X110637197Y-58267722D01*
X110644178Y-58261253D01*
X110688895Y-58222866D01*
X110707440Y-58198905D01*
X110717975Y-58186944D01*
X111628340Y-57276579D01*
X111637469Y-57268303D01*
X111670883Y-57240883D01*
X111698270Y-57207510D01*
X111700597Y-57204945D01*
X111703341Y-57201580D01*
X111734558Y-57163294D01*
X111795910Y-57088538D01*
X111795912Y-57088532D01*
X111798959Y-57084821D01*
X111844337Y-56997949D01*
X111844897Y-56996888D01*
X111888814Y-56914727D01*
X111888815Y-56914721D01*
X111891821Y-56909099D01*
X111893009Y-56906192D01*
X111893907Y-56903051D01*
X111893909Y-56903049D01*
X111919469Y-56813715D01*
X111919992Y-56811940D01*
X111946024Y-56726132D01*
X111946024Y-56726126D01*
X111946868Y-56723346D01*
X111949874Y-56707581D01*
X111949886Y-56707420D01*
X111949887Y-56707418D01*
X111956670Y-56618327D01*
X111956897Y-56615724D01*
X111965341Y-56530000D01*
X111965322Y-56529817D01*
X111965080Y-56507892D01*
X111965337Y-56504523D01*
X111954509Y-56419505D01*
X111954108Y-56415950D01*
X111947867Y-56352582D01*
X111946024Y-56333868D01*
X111944926Y-56330250D01*
X111940511Y-56309591D01*
X111939630Y-56302672D01*
X111939629Y-56302671D01*
X111913048Y-56224907D01*
X111911718Y-56220781D01*
X111891412Y-56153840D01*
X111888814Y-56145273D01*
X111885339Y-56138773D01*
X111877235Y-56120130D01*
X111873816Y-56110128D01*
X111873816Y-56110127D01*
X111833947Y-56042400D01*
X111831429Y-56037915D01*
X111795910Y-55971462D01*
X111788962Y-55962996D01*
X111777779Y-55946984D01*
X111770591Y-55934773D01*
X111770590Y-55934772D01*
X111770589Y-55934770D01*
X111720312Y-55879121D01*
X111716408Y-55874588D01*
X111670882Y-55819116D01*
X111659645Y-55809894D01*
X111646083Y-55796962D01*
X111634179Y-55783786D01*
X111633659Y-55783404D01*
X111576601Y-55741506D01*
X111571252Y-55737352D01*
X111518539Y-55694091D01*
X111518538Y-55694090D01*
X111502536Y-55685537D01*
X111487365Y-55675979D01*
X111470167Y-55663351D01*
X111470166Y-55663350D01*
X111459840Y-55655768D01*
X111461350Y-55653711D01*
X111431004Y-55629603D01*
X111406614Y-55574706D01*
X111410415Y-55514754D01*
X111441540Y-55463379D01*
X111628340Y-55276579D01*
X111637469Y-55268303D01*
X111670883Y-55240883D01*
X111698270Y-55207510D01*
X111700597Y-55204945D01*
X111703341Y-55201580D01*
X111734558Y-55163294D01*
X111795910Y-55088538D01*
X111795912Y-55088532D01*
X111798959Y-55084821D01*
X111844337Y-54997949D01*
X111844897Y-54996888D01*
X111888814Y-54914727D01*
X111888815Y-54914721D01*
X111891821Y-54909099D01*
X111893009Y-54906192D01*
X111893907Y-54903051D01*
X111893909Y-54903049D01*
X111919469Y-54813715D01*
X111919992Y-54811940D01*
X111946024Y-54726132D01*
X111946024Y-54726126D01*
X111946868Y-54723346D01*
X111949874Y-54707581D01*
X111949886Y-54707420D01*
X111949887Y-54707418D01*
X111956670Y-54618327D01*
X111956897Y-54615724D01*
X111965341Y-54530000D01*
X111965322Y-54529817D01*
X111965080Y-54507892D01*
X111965164Y-54506787D01*
X111965337Y-54504523D01*
X111954509Y-54419505D01*
X111954108Y-54415950D01*
X111947867Y-54352582D01*
X111946024Y-54333868D01*
X111944926Y-54330250D01*
X111940511Y-54309591D01*
X111939630Y-54302672D01*
X111920988Y-54248136D01*
X111913048Y-54224907D01*
X111911718Y-54220781D01*
X111905761Y-54201144D01*
X111888814Y-54145273D01*
X111885339Y-54138773D01*
X111877235Y-54120130D01*
X111873816Y-54110128D01*
X111873816Y-54110127D01*
X111833947Y-54042400D01*
X111831429Y-54037915D01*
X111795910Y-53971462D01*
X111788962Y-53962996D01*
X111777779Y-53946984D01*
X111770591Y-53934773D01*
X111770590Y-53934772D01*
X111770589Y-53934770D01*
X111720312Y-53879121D01*
X111716408Y-53874588D01*
X111670882Y-53819116D01*
X111659645Y-53809894D01*
X111646083Y-53796962D01*
X111634179Y-53783786D01*
X111633659Y-53783404D01*
X111576601Y-53741506D01*
X111571252Y-53737352D01*
X111518539Y-53694091D01*
X111518538Y-53694090D01*
X111502536Y-53685537D01*
X111487365Y-53675979D01*
X111470167Y-53663351D01*
X111470166Y-53663350D01*
X111459840Y-53655768D01*
X111461350Y-53653711D01*
X111431004Y-53629603D01*
X111406614Y-53574706D01*
X111410415Y-53514754D01*
X111441540Y-53463379D01*
X111628340Y-53276579D01*
X111637469Y-53268303D01*
X111670883Y-53240883D01*
X111698270Y-53207510D01*
X111700597Y-53204945D01*
X111703341Y-53201580D01*
X111734558Y-53163294D01*
X111795910Y-53088538D01*
X111795912Y-53088532D01*
X111798959Y-53084821D01*
X111844337Y-52997949D01*
X111844897Y-52996888D01*
X111858352Y-52971716D01*
X111888814Y-52914727D01*
X111888815Y-52914721D01*
X111891821Y-52909099D01*
X111893009Y-52906192D01*
X111893907Y-52903051D01*
X111893909Y-52903049D01*
X111919469Y-52813715D01*
X111919992Y-52811940D01*
X111946024Y-52726132D01*
X111946024Y-52726126D01*
X111946868Y-52723346D01*
X111949874Y-52707581D01*
X111949886Y-52707420D01*
X111949887Y-52707418D01*
X111956670Y-52618327D01*
X111956897Y-52615724D01*
X111965341Y-52530000D01*
X111965322Y-52529817D01*
X111965080Y-52507892D01*
X111965337Y-52504523D01*
X111954509Y-52419505D01*
X111954108Y-52415950D01*
X111947867Y-52352582D01*
X111946024Y-52333868D01*
X111944926Y-52330250D01*
X111940511Y-52309591D01*
X111939630Y-52302672D01*
X111913063Y-52224950D01*
X111911715Y-52220770D01*
X111897289Y-52173213D01*
X111888814Y-52145273D01*
X111885339Y-52138773D01*
X111877235Y-52120130D01*
X111873816Y-52110128D01*
X111873816Y-52110127D01*
X111833947Y-52042400D01*
X111831429Y-52037915D01*
X111795910Y-51971462D01*
X111788962Y-51962996D01*
X111777779Y-51946984D01*
X111770591Y-51934773D01*
X111770590Y-51934772D01*
X111770589Y-51934770D01*
X111720312Y-51879121D01*
X111716408Y-51874588D01*
X111670882Y-51819116D01*
X111659645Y-51809894D01*
X111646083Y-51796962D01*
X111634179Y-51783786D01*
X111633659Y-51783404D01*
X111576601Y-51741506D01*
X111571252Y-51737352D01*
X111526348Y-51700500D01*
X111518538Y-51694090D01*
X111502536Y-51685537D01*
X111487365Y-51675979D01*
X111470167Y-51663351D01*
X111470166Y-51663350D01*
X111459840Y-51655768D01*
X111461350Y-51653711D01*
X111431004Y-51629603D01*
X111406614Y-51574706D01*
X111410415Y-51514754D01*
X111441540Y-51463379D01*
X111628340Y-51276579D01*
X111637469Y-51268303D01*
X111670883Y-51240883D01*
X111698270Y-51207510D01*
X111700597Y-51204945D01*
X111703341Y-51201580D01*
X111734558Y-51163294D01*
X111795910Y-51088538D01*
X111795912Y-51088532D01*
X111798959Y-51084821D01*
X111844337Y-50997949D01*
X111844897Y-50996888D01*
X111888814Y-50914727D01*
X111888815Y-50914721D01*
X111891821Y-50909099D01*
X111893009Y-50906192D01*
X111893907Y-50903051D01*
X111893909Y-50903049D01*
X111919469Y-50813715D01*
X111919992Y-50811940D01*
X111923614Y-50800000D01*
X129904540Y-50800000D01*
X129924325Y-50988257D01*
X129982820Y-51168283D01*
X130077465Y-51332214D01*
X130077467Y-51332216D01*
X130204129Y-51472888D01*
X130357270Y-51584151D01*
X130357271Y-51584151D01*
X130357272Y-51584152D01*
X130530192Y-51661142D01*
X130530197Y-51661144D01*
X130715354Y-51700500D01*
X130773720Y-51700500D01*
X130821938Y-51710091D01*
X130862815Y-51737405D01*
X136564039Y-57438630D01*
X136576972Y-57454771D01*
X136579213Y-57456875D01*
X136579214Y-57456877D01*
X136581277Y-57458814D01*
X136628206Y-57502884D01*
X136631017Y-57505608D01*
X136650528Y-57525119D01*
X136650529Y-57525120D01*
X136653628Y-57527524D01*
X136662650Y-57535230D01*
X136694418Y-57565062D01*
X136711832Y-57574635D01*
X136728355Y-57585488D01*
X136744064Y-57597673D01*
X136784066Y-57614983D01*
X136794711Y-57620198D01*
X136800721Y-57623502D01*
X136832909Y-57641198D01*
X136852148Y-57646137D01*
X136870861Y-57652544D01*
X136889101Y-57660437D01*
X136889102Y-57660437D01*
X136889104Y-57660438D01*
X136932155Y-57667256D01*
X136943766Y-57669661D01*
X136985981Y-57680500D01*
X137005856Y-57680500D01*
X137025564Y-57682050D01*
X137045196Y-57685160D01*
X137088579Y-57681058D01*
X137100437Y-57680500D01*
X150263736Y-57680500D01*
X150284293Y-57682769D01*
X150287365Y-57682672D01*
X150287368Y-57682673D01*
X150354542Y-57680561D01*
X150358500Y-57680500D01*
X150386047Y-57680500D01*
X150386051Y-57680500D01*
X150389942Y-57680008D01*
X150401769Y-57679077D01*
X150445328Y-57677709D01*
X150464416Y-57672162D01*
X150483775Y-57668154D01*
X150503493Y-57665664D01*
X150544017Y-57649618D01*
X150555225Y-57645780D01*
X150597091Y-57633618D01*
X150614194Y-57623502D01*
X150631955Y-57614802D01*
X150650430Y-57607487D01*
X150650429Y-57607487D01*
X150650433Y-57607486D01*
X150685702Y-57581860D01*
X150695590Y-57575365D01*
X150733121Y-57553170D01*
X150747170Y-57539120D01*
X150762210Y-57526275D01*
X150767453Y-57522465D01*
X150778288Y-57514594D01*
X150806081Y-57480996D01*
X150814050Y-57472239D01*
X151359261Y-56927028D01*
X151408721Y-56896520D01*
X151466615Y-56891455D01*
X151520625Y-56912912D01*
X151559111Y-56939860D01*
X151722170Y-57054035D01*
X151830566Y-57104581D01*
X151936336Y-57153903D01*
X152019881Y-57176288D01*
X152164592Y-57215063D01*
X152400000Y-57235659D01*
X152635408Y-57215063D01*
X152863663Y-57153903D01*
X153077830Y-57054035D01*
X153271401Y-56918495D01*
X153438495Y-56751401D01*
X153574035Y-56557830D01*
X153673903Y-56343663D01*
X153735063Y-56115408D01*
X153755659Y-55880000D01*
X153735063Y-55644592D01*
X153673903Y-55416337D01*
X153574035Y-55202171D01*
X153438495Y-55008599D01*
X153438494Y-55008598D01*
X153438492Y-55008595D01*
X153271404Y-54841507D01*
X153088181Y-54713212D01*
X153048688Y-54668179D01*
X153034452Y-54609999D01*
X153048689Y-54551818D01*
X153088180Y-54506787D01*
X153271401Y-54378495D01*
X153438495Y-54211401D01*
X153574035Y-54017830D01*
X153673903Y-53803663D01*
X153735063Y-53575408D01*
X153755659Y-53340000D01*
X153735063Y-53104592D01*
X153673903Y-52876337D01*
X153574035Y-52662171D01*
X153438495Y-52468599D01*
X153438494Y-52468598D01*
X153438492Y-52468595D01*
X153271404Y-52301507D01*
X153088181Y-52173213D01*
X153048689Y-52128180D01*
X153034452Y-52070000D01*
X153048689Y-52011820D01*
X153088181Y-51966787D01*
X153104412Y-51955422D01*
X153271401Y-51838495D01*
X153438495Y-51671401D01*
X153574035Y-51477830D01*
X153673903Y-51263663D01*
X153735063Y-51035408D01*
X153755659Y-50800000D01*
X153735063Y-50564592D01*
X153673903Y-50336337D01*
X153574035Y-50122171D01*
X153438495Y-49928599D01*
X153438494Y-49928598D01*
X153438492Y-49928595D01*
X153271404Y-49761507D01*
X153088181Y-49633213D01*
X153048689Y-49588180D01*
X153034452Y-49530000D01*
X153048689Y-49471820D01*
X153088181Y-49426787D01*
X153271401Y-49298495D01*
X153438495Y-49131401D01*
X153574035Y-48937830D01*
X153673903Y-48723663D01*
X153735063Y-48495408D01*
X153755659Y-48260000D01*
X153735063Y-48024592D01*
X153673903Y-47796337D01*
X153574035Y-47582171D01*
X153438495Y-47388599D01*
X153438494Y-47388598D01*
X153438492Y-47388595D01*
X153271404Y-47221507D01*
X153092882Y-47096504D01*
X153051765Y-47048239D01*
X153039361Y-46986060D01*
X153058809Y-46925712D01*
X153105185Y-46882477D01*
X153145298Y-46860769D01*
X153322903Y-46722533D01*
X153475321Y-46556962D01*
X153598419Y-46368548D01*
X153688822Y-46162451D01*
X153736544Y-45974000D01*
X148523455Y-45974000D01*
X148571177Y-46162451D01*
X148661580Y-46368548D01*
X148784678Y-46556962D01*
X148937096Y-46722533D01*
X149114701Y-46860769D01*
X149154815Y-46882477D01*
X149201191Y-46925712D01*
X149220639Y-46986060D01*
X149208235Y-47048239D01*
X149167118Y-47096504D01*
X148988595Y-47221507D01*
X148821507Y-47388595D01*
X148685965Y-47582170D01*
X148586096Y-47796337D01*
X148524937Y-48024590D01*
X148504341Y-48259999D01*
X148524937Y-48495409D01*
X148586096Y-48723663D01*
X148685965Y-48937830D01*
X148821507Y-49131404D01*
X148988595Y-49298492D01*
X148988598Y-49298494D01*
X148988599Y-49298495D01*
X149171819Y-49426787D01*
X149211311Y-49471820D01*
X149225548Y-49530000D01*
X149211311Y-49588180D01*
X149171819Y-49633213D01*
X148988595Y-49761507D01*
X148821507Y-49928595D01*
X148685965Y-50122170D01*
X148586096Y-50336337D01*
X148524937Y-50564590D01*
X148504341Y-50800000D01*
X148524937Y-51035409D01*
X148586096Y-51263663D01*
X148685965Y-51477830D01*
X148821507Y-51671404D01*
X148988595Y-51838492D01*
X149171819Y-51966787D01*
X149211311Y-52011820D01*
X149225548Y-52070000D01*
X149211311Y-52128180D01*
X149171819Y-52173213D01*
X148988595Y-52301507D01*
X148821507Y-52468595D01*
X148686945Y-52660771D01*
X148641912Y-52700263D01*
X148583732Y-52714500D01*
X141674638Y-52714500D01*
X141623389Y-52703606D01*
X141581001Y-52672810D01*
X141575869Y-52667110D01*
X141422727Y-52555847D01*
X141249807Y-52478857D01*
X141249803Y-52478856D01*
X141064646Y-52439500D01*
X140875354Y-52439500D01*
X140738472Y-52468595D01*
X140690192Y-52478857D01*
X140517272Y-52555847D01*
X140364129Y-52667111D01*
X140237465Y-52807785D01*
X140142820Y-52971716D01*
X140084325Y-53151742D01*
X140064540Y-53340000D01*
X140084325Y-53528257D01*
X140142820Y-53708283D01*
X140237465Y-53872214D01*
X140326826Y-53971459D01*
X140364129Y-54012888D01*
X140517270Y-54124151D01*
X140517271Y-54124151D01*
X140517272Y-54124152D01*
X140690192Y-54201142D01*
X140690197Y-54201144D01*
X140875354Y-54240500D01*
X141064644Y-54240500D01*
X141064646Y-54240500D01*
X141249803Y-54201144D01*
X141422730Y-54124151D01*
X141575871Y-54012888D01*
X141581002Y-54007189D01*
X141623389Y-53976394D01*
X141674638Y-53965500D01*
X148583731Y-53965500D01*
X148641911Y-53979737D01*
X148686944Y-54019229D01*
X148821507Y-54211404D01*
X148988595Y-54378492D01*
X148988598Y-54378494D01*
X148988599Y-54378495D01*
X149171819Y-54506787D01*
X149211311Y-54551820D01*
X149225548Y-54610000D01*
X149211311Y-54668180D01*
X149171819Y-54713213D01*
X148988595Y-54841507D01*
X148821507Y-55008595D01*
X148686945Y-55200771D01*
X148641912Y-55240263D01*
X148583732Y-55254500D01*
X141674638Y-55254500D01*
X141623389Y-55243606D01*
X141581001Y-55212810D01*
X141575869Y-55207110D01*
X141446365Y-55113021D01*
X141422730Y-55095849D01*
X141422729Y-55095848D01*
X141422727Y-55095847D01*
X141249807Y-55018857D01*
X141249803Y-55018856D01*
X141064646Y-54979500D01*
X140875354Y-54979500D01*
X140788558Y-54997949D01*
X140690192Y-55018857D01*
X140517272Y-55095847D01*
X140364129Y-55207111D01*
X140237465Y-55347785D01*
X140142820Y-55511716D01*
X140084325Y-55691742D01*
X140064540Y-55880000D01*
X140084325Y-56068257D01*
X140146913Y-56260879D01*
X140144036Y-56261813D01*
X140155208Y-56303491D01*
X140138330Y-56366495D01*
X140092211Y-56412618D01*
X140029208Y-56429500D01*
X137376280Y-56429500D01*
X137328062Y-56419909D01*
X137287185Y-56392595D01*
X131749461Y-50854870D01*
X131724830Y-50820019D01*
X131713247Y-50778949D01*
X131695674Y-50611744D01*
X131695674Y-50611742D01*
X131637179Y-50431716D01*
X131542534Y-50267785D01*
X131415870Y-50127111D01*
X131262727Y-50015847D01*
X131089807Y-49938857D01*
X131089803Y-49938856D01*
X130904646Y-49899500D01*
X130715354Y-49899500D01*
X130578472Y-49928595D01*
X130530192Y-49938857D01*
X130357272Y-50015847D01*
X130204129Y-50127111D01*
X130077465Y-50267785D01*
X129982820Y-50431716D01*
X129924325Y-50611742D01*
X129904540Y-50800000D01*
X111923614Y-50800000D01*
X111946024Y-50726132D01*
X111946024Y-50726126D01*
X111946868Y-50723346D01*
X111949874Y-50707581D01*
X111949886Y-50707420D01*
X111949887Y-50707418D01*
X111956670Y-50618327D01*
X111956897Y-50615724D01*
X111965341Y-50530000D01*
X111965322Y-50529817D01*
X111965080Y-50507892D01*
X111965337Y-50504523D01*
X111954509Y-50419505D01*
X111954108Y-50415950D01*
X111947867Y-50352582D01*
X111946024Y-50333868D01*
X111944926Y-50330250D01*
X111940511Y-50309591D01*
X111939630Y-50302672D01*
X111913048Y-50224907D01*
X111911718Y-50220781D01*
X111891412Y-50153840D01*
X111888814Y-50145273D01*
X111885339Y-50138773D01*
X111877235Y-50120130D01*
X111873816Y-50110128D01*
X111873816Y-50110127D01*
X111833947Y-50042400D01*
X111831429Y-50037915D01*
X111795910Y-49971462D01*
X111788962Y-49962996D01*
X111777779Y-49946984D01*
X111770591Y-49934773D01*
X111770590Y-49934772D01*
X111770589Y-49934770D01*
X111720312Y-49879121D01*
X111716408Y-49874588D01*
X111670882Y-49819116D01*
X111659645Y-49809894D01*
X111646083Y-49796962D01*
X111634179Y-49783786D01*
X111633659Y-49783404D01*
X111576601Y-49741506D01*
X111571252Y-49737352D01*
X111518539Y-49694091D01*
X111518538Y-49694090D01*
X111502536Y-49685537D01*
X111487365Y-49675979D01*
X111470167Y-49663351D01*
X111470166Y-49663350D01*
X111459840Y-49655768D01*
X111461350Y-49653711D01*
X111431004Y-49629603D01*
X111406614Y-49574706D01*
X111410415Y-49514754D01*
X111441540Y-49463379D01*
X111628340Y-49276579D01*
X111637469Y-49268303D01*
X111670883Y-49240883D01*
X111698270Y-49207510D01*
X111700597Y-49204945D01*
X111703341Y-49201580D01*
X111734558Y-49163294D01*
X111795910Y-49088538D01*
X111795912Y-49088532D01*
X111798959Y-49084821D01*
X111844337Y-48997949D01*
X111844897Y-48996888D01*
X111888814Y-48914727D01*
X111888815Y-48914721D01*
X111891821Y-48909099D01*
X111893009Y-48906192D01*
X111893907Y-48903051D01*
X111893909Y-48903049D01*
X111919469Y-48813715D01*
X111919992Y-48811940D01*
X111946024Y-48726132D01*
X111946024Y-48726126D01*
X111946868Y-48723346D01*
X111949874Y-48707581D01*
X111949886Y-48707420D01*
X111949887Y-48707418D01*
X111956670Y-48618327D01*
X111956897Y-48615724D01*
X111965341Y-48530000D01*
X111965322Y-48529817D01*
X111965080Y-48507892D01*
X111965337Y-48504523D01*
X111954509Y-48419505D01*
X111954108Y-48415950D01*
X111947867Y-48352582D01*
X111946024Y-48333868D01*
X111944926Y-48330250D01*
X111940511Y-48309591D01*
X111939630Y-48302672D01*
X111939629Y-48302671D01*
X111913048Y-48224907D01*
X111911718Y-48220781D01*
X111891412Y-48153840D01*
X111888814Y-48145273D01*
X111885339Y-48138773D01*
X111877235Y-48120130D01*
X111873816Y-48110128D01*
X111873816Y-48110127D01*
X111833947Y-48042400D01*
X111831429Y-48037915D01*
X111795910Y-47971462D01*
X111788962Y-47962996D01*
X111777779Y-47946984D01*
X111770591Y-47934773D01*
X111770590Y-47934772D01*
X111770589Y-47934770D01*
X111720312Y-47879121D01*
X111716408Y-47874588D01*
X111670882Y-47819116D01*
X111659645Y-47809894D01*
X111646083Y-47796962D01*
X111634179Y-47783786D01*
X111633659Y-47783404D01*
X111576601Y-47741506D01*
X111571252Y-47737352D01*
X111518539Y-47694091D01*
X111518538Y-47694090D01*
X111502536Y-47685537D01*
X111487365Y-47675979D01*
X111470167Y-47663351D01*
X111470166Y-47663350D01*
X111459840Y-47655768D01*
X111461350Y-47653711D01*
X111431004Y-47629603D01*
X111406614Y-47574706D01*
X111410415Y-47514754D01*
X111441540Y-47463379D01*
X111628340Y-47276579D01*
X111637469Y-47268303D01*
X111670883Y-47240883D01*
X111698270Y-47207510D01*
X111700597Y-47204945D01*
X111703341Y-47201580D01*
X111734558Y-47163294D01*
X111795910Y-47088538D01*
X111795912Y-47088532D01*
X111798959Y-47084821D01*
X111844337Y-46997949D01*
X111844897Y-46996888D01*
X111850685Y-46986060D01*
X111888814Y-46914727D01*
X111888815Y-46914721D01*
X111891821Y-46909099D01*
X111893009Y-46906192D01*
X111893907Y-46903051D01*
X111893909Y-46903049D01*
X111919469Y-46813715D01*
X111919992Y-46811940D01*
X111946024Y-46726132D01*
X111946024Y-46726126D01*
X111946868Y-46723346D01*
X111949874Y-46707581D01*
X111949886Y-46707420D01*
X111949887Y-46707418D01*
X111956670Y-46618327D01*
X111956897Y-46615724D01*
X111965341Y-46530000D01*
X111965322Y-46529817D01*
X111965080Y-46507892D01*
X111965337Y-46504523D01*
X111954509Y-46419505D01*
X111954108Y-46415950D01*
X111950424Y-46378541D01*
X111946024Y-46333868D01*
X111944926Y-46330250D01*
X111940511Y-46309591D01*
X111939630Y-46302672D01*
X111920988Y-46248136D01*
X111913048Y-46224907D01*
X111911718Y-46220781D01*
X111894024Y-46162451D01*
X111888814Y-46145273D01*
X111885339Y-46138773D01*
X111877235Y-46120130D01*
X111873816Y-46110128D01*
X111873816Y-46110127D01*
X111833947Y-46042400D01*
X111831429Y-46037915D01*
X111795910Y-45971462D01*
X111788962Y-45962996D01*
X111777779Y-45946984D01*
X111770591Y-45934773D01*
X111770590Y-45934772D01*
X111770589Y-45934770D01*
X111720312Y-45879121D01*
X111716408Y-45874588D01*
X111670882Y-45819116D01*
X111659645Y-45809894D01*
X111646083Y-45796962D01*
X111634179Y-45783786D01*
X111633659Y-45783404D01*
X111576601Y-45741506D01*
X111571252Y-45737352D01*
X111518539Y-45694091D01*
X111518538Y-45694090D01*
X111502536Y-45685537D01*
X111487365Y-45675979D01*
X111470167Y-45663351D01*
X111470166Y-45663350D01*
X111459840Y-45655768D01*
X111461350Y-45653711D01*
X111431004Y-45629603D01*
X111406614Y-45574706D01*
X111410415Y-45514754D01*
X111441540Y-45463379D01*
X111628340Y-45276579D01*
X111637469Y-45268303D01*
X111670883Y-45240883D01*
X111698270Y-45207510D01*
X111700597Y-45204945D01*
X111703341Y-45201580D01*
X111734558Y-45163294D01*
X111795910Y-45088538D01*
X111795912Y-45088532D01*
X111798959Y-45084821D01*
X111803231Y-45076644D01*
X111844337Y-44997949D01*
X111844897Y-44996888D01*
X111888814Y-44914727D01*
X111888815Y-44914721D01*
X111891821Y-44909099D01*
X111893009Y-44906192D01*
X111893907Y-44903051D01*
X111893909Y-44903049D01*
X111919469Y-44813715D01*
X111919992Y-44811940D01*
X111946024Y-44726132D01*
X111946024Y-44726126D01*
X111946868Y-44723346D01*
X111949874Y-44707581D01*
X111949886Y-44707420D01*
X111949887Y-44707418D01*
X111956670Y-44618327D01*
X111956897Y-44615724D01*
X111965341Y-44530000D01*
X111965322Y-44529817D01*
X111965080Y-44507892D01*
X111965337Y-44504523D01*
X111954509Y-44419505D01*
X111954108Y-44415950D01*
X111946024Y-44333868D01*
X111944926Y-44330250D01*
X111940511Y-44309591D01*
X111939630Y-44302672D01*
X111939629Y-44302671D01*
X111913048Y-44224907D01*
X111911718Y-44220781D01*
X111891412Y-44153840D01*
X111888814Y-44145273D01*
X111885339Y-44138773D01*
X111877235Y-44120130D01*
X111873816Y-44110128D01*
X111873816Y-44110127D01*
X111854830Y-44077874D01*
X148509500Y-44077874D01*
X148515908Y-44137481D01*
X148566204Y-44272331D01*
X148652453Y-44387546D01*
X148724669Y-44441606D01*
X148767669Y-44473796D01*
X148885164Y-44517618D01*
X148935497Y-44552181D01*
X148963671Y-44606351D01*
X148963070Y-44667407D01*
X148933833Y-44721011D01*
X148784676Y-44883040D01*
X148661580Y-45071451D01*
X148571177Y-45277548D01*
X148523455Y-45465999D01*
X148523456Y-45466000D01*
X153736544Y-45466000D01*
X153736544Y-45465999D01*
X153688822Y-45277548D01*
X153598419Y-45071451D01*
X153475321Y-44883037D01*
X153322903Y-44717466D01*
X153145302Y-44579233D01*
X153105183Y-44557522D01*
X153058808Y-44514285D01*
X153039361Y-44453938D01*
X153051766Y-44391759D01*
X153092881Y-44343496D01*
X153271401Y-44218495D01*
X153438495Y-44051401D01*
X153574035Y-43857830D01*
X153673903Y-43643663D01*
X153735063Y-43415408D01*
X153755659Y-43180000D01*
X153735063Y-42944592D01*
X153673903Y-42716337D01*
X153574035Y-42502171D01*
X153438495Y-42308599D01*
X153438494Y-42308598D01*
X153438492Y-42308595D01*
X153271404Y-42141507D01*
X153077830Y-42005965D01*
X152863663Y-41906096D01*
X152635409Y-41844937D01*
X152517704Y-41834639D01*
X152400000Y-41824341D01*
X152399999Y-41824341D01*
X152164590Y-41844937D01*
X151936337Y-41906096D01*
X151722170Y-42005965D01*
X151528598Y-42141505D01*
X151408873Y-42261230D01*
X151355276Y-42293030D01*
X151292994Y-42295254D01*
X151237265Y-42267358D01*
X151201722Y-42216166D01*
X151178476Y-42153840D01*
X151153796Y-42087669D01*
X151116522Y-42037877D01*
X151067546Y-41972453D01*
X150952331Y-41886204D01*
X150877838Y-41858420D01*
X150817483Y-41835909D01*
X150757872Y-41829500D01*
X148962125Y-41829500D01*
X148902518Y-41835908D01*
X148767668Y-41886204D01*
X148652453Y-41972453D01*
X148566204Y-42087668D01*
X148515909Y-42222517D01*
X148509500Y-42282127D01*
X148509500Y-44077874D01*
X111854830Y-44077874D01*
X111833947Y-44042400D01*
X111831429Y-44037915D01*
X111795910Y-43971462D01*
X111788962Y-43962996D01*
X111777779Y-43946984D01*
X111770591Y-43934773D01*
X111770590Y-43934772D01*
X111770589Y-43934770D01*
X111720312Y-43879121D01*
X111716408Y-43874588D01*
X111670882Y-43819116D01*
X111659645Y-43809894D01*
X111646083Y-43796962D01*
X111634179Y-43783786D01*
X111633659Y-43783404D01*
X111576601Y-43741506D01*
X111571252Y-43737352D01*
X111518539Y-43694091D01*
X111518538Y-43694090D01*
X111502536Y-43685537D01*
X111487365Y-43675979D01*
X111470167Y-43663351D01*
X111470166Y-43663350D01*
X111459840Y-43655768D01*
X111461350Y-43653711D01*
X111431004Y-43629603D01*
X111406614Y-43574706D01*
X111410415Y-43514754D01*
X111441540Y-43463379D01*
X111628340Y-43276579D01*
X111637469Y-43268303D01*
X111670883Y-43240883D01*
X111698270Y-43207510D01*
X111700597Y-43204945D01*
X111703341Y-43201580D01*
X111734558Y-43163294D01*
X111795910Y-43088538D01*
X111795912Y-43088532D01*
X111798959Y-43084821D01*
X111844337Y-42997949D01*
X111844897Y-42996888D01*
X111888814Y-42914727D01*
X111888815Y-42914721D01*
X111891821Y-42909099D01*
X111893009Y-42906192D01*
X111893907Y-42903051D01*
X111893909Y-42903049D01*
X111919469Y-42813715D01*
X111919992Y-42811940D01*
X111946024Y-42726132D01*
X111946024Y-42726126D01*
X111946868Y-42723346D01*
X111949874Y-42707581D01*
X111949886Y-42707420D01*
X111949887Y-42707418D01*
X111956670Y-42618327D01*
X111956897Y-42615724D01*
X111965341Y-42530000D01*
X111965322Y-42529817D01*
X111965080Y-42507892D01*
X111965337Y-42504523D01*
X111954509Y-42419505D01*
X111954108Y-42415950D01*
X111947867Y-42352582D01*
X111946024Y-42333868D01*
X111944926Y-42330250D01*
X111940511Y-42309591D01*
X111939630Y-42302672D01*
X111936334Y-42293030D01*
X111913048Y-42224907D01*
X111911718Y-42220781D01*
X111910318Y-42216166D01*
X111888814Y-42145273D01*
X111885339Y-42138773D01*
X111877235Y-42120130D01*
X111873816Y-42110128D01*
X111873816Y-42110127D01*
X111833947Y-42042400D01*
X111831429Y-42037915D01*
X111795910Y-41971462D01*
X111788962Y-41962996D01*
X111777779Y-41946984D01*
X111770591Y-41934773D01*
X111770590Y-41934772D01*
X111770589Y-41934770D01*
X111720312Y-41879121D01*
X111716408Y-41874588D01*
X111670882Y-41819116D01*
X111659645Y-41809894D01*
X111646083Y-41796962D01*
X111634179Y-41783786D01*
X111633659Y-41783404D01*
X111576601Y-41741506D01*
X111571252Y-41737352D01*
X111518539Y-41694091D01*
X111518538Y-41694090D01*
X111502536Y-41685537D01*
X111487365Y-41675979D01*
X111470167Y-41663351D01*
X111470166Y-41663350D01*
X111459840Y-41655768D01*
X111461350Y-41653711D01*
X111431004Y-41629603D01*
X111406614Y-41574706D01*
X111410415Y-41514754D01*
X111441540Y-41463379D01*
X111628340Y-41276579D01*
X111637469Y-41268303D01*
X111670883Y-41240883D01*
X111698270Y-41207510D01*
X111700597Y-41204945D01*
X111703341Y-41201580D01*
X111734558Y-41163294D01*
X111795910Y-41088538D01*
X111795912Y-41088532D01*
X111798959Y-41084821D01*
X111844337Y-40997949D01*
X111844897Y-40996888D01*
X111888814Y-40914727D01*
X111888815Y-40914721D01*
X111891821Y-40909099D01*
X111893009Y-40906192D01*
X111893907Y-40903051D01*
X111893909Y-40903049D01*
X111919469Y-40813715D01*
X111919992Y-40811940D01*
X111946024Y-40726132D01*
X111946024Y-40726126D01*
X111946868Y-40723346D01*
X111949874Y-40707581D01*
X111949886Y-40707420D01*
X111949887Y-40707418D01*
X111956670Y-40618327D01*
X111956897Y-40615724D01*
X111965341Y-40530000D01*
X111965322Y-40529817D01*
X111965080Y-40507892D01*
X111965337Y-40504523D01*
X111954509Y-40419505D01*
X111954108Y-40415950D01*
X111946024Y-40333870D01*
X111946024Y-40333868D01*
X111944926Y-40330250D01*
X111940511Y-40309591D01*
X111939630Y-40302672D01*
X111913048Y-40224907D01*
X111911718Y-40220781D01*
X111888813Y-40145271D01*
X111885341Y-40138776D01*
X111877235Y-40120130D01*
X111873816Y-40110128D01*
X111873816Y-40110127D01*
X111833947Y-40042400D01*
X111831429Y-40037915D01*
X111795910Y-39971462D01*
X111788962Y-39962996D01*
X111777779Y-39946984D01*
X111770591Y-39934773D01*
X111770590Y-39934772D01*
X111770589Y-39934770D01*
X111720312Y-39879121D01*
X111716408Y-39874588D01*
X111681221Y-39831714D01*
X111670883Y-39819117D01*
X111659645Y-39809894D01*
X111646083Y-39796962D01*
X111634179Y-39783786D01*
X111588982Y-39750598D01*
X111576601Y-39741506D01*
X111571252Y-39737352D01*
X111518539Y-39694091D01*
X111518538Y-39694090D01*
X111502536Y-39685537D01*
X111487365Y-39675979D01*
X111473952Y-39666130D01*
X111470165Y-39663349D01*
X111408520Y-39635025D01*
X111401732Y-39631655D01*
X111344730Y-39601187D01*
X111344723Y-39601185D01*
X111323949Y-39594882D01*
X111307929Y-39588804D01*
X111285270Y-39578394D01*
X111222654Y-39563863D01*
X111214563Y-39561700D01*
X111156130Y-39543975D01*
X111130954Y-39541495D01*
X111114829Y-39538841D01*
X111087058Y-39532397D01*
X111034909Y-39531075D01*
X111026346Y-39530857D01*
X111017194Y-39530291D01*
X111010073Y-39529589D01*
X110959998Y-39524658D01*
X110931262Y-39527488D01*
X110915727Y-39528055D01*
X110883636Y-39527242D01*
X110827396Y-39537322D01*
X110817520Y-39538691D01*
X110763869Y-39543975D01*
X110732794Y-39553401D01*
X110718454Y-39556848D01*
X110683350Y-39563140D01*
X110633611Y-39583007D01*
X110623454Y-39586568D01*
X110575275Y-39601184D01*
X110543486Y-39618175D01*
X110530836Y-39624060D01*
X110494384Y-39638621D01*
X110465972Y-39657345D01*
X110456861Y-39663351D01*
X110452644Y-39666130D01*
X110442707Y-39672043D01*
X110401462Y-39694089D01*
X110370831Y-39719227D01*
X110360240Y-39727030D01*
X110324481Y-39750598D01*
X110291667Y-39783411D01*
X110282513Y-39791708D01*
X110249114Y-39819119D01*
X110221709Y-39852511D01*
X110213409Y-39861669D01*
X109582485Y-40492595D01*
X109541607Y-40519909D01*
X109493389Y-40529500D01*
X107079492Y-40529500D01*
X107020096Y-40514622D01*
X106974727Y-40473502D01*
X106954099Y-40415850D01*
X106946024Y-40333867D01*
X106917419Y-40239570D01*
X106888814Y-40145273D01*
X106795910Y-39971462D01*
X106765800Y-39934773D01*
X106670883Y-39819116D01*
X106518537Y-39694089D01*
X106344725Y-39601185D01*
X106156132Y-39543975D01*
X105960000Y-39524658D01*
X105763867Y-39543975D01*
X105575274Y-39601185D01*
X105401462Y-39694089D01*
X105249116Y-39819116D01*
X105124089Y-39971462D01*
X105031185Y-40145274D01*
X104973975Y-40333867D01*
X104954658Y-40530000D01*
X104973975Y-40726132D01*
X105031185Y-40914725D01*
X105124089Y-41088537D01*
X105249116Y-41240883D01*
X105401459Y-41365908D01*
X105401460Y-41365908D01*
X105401462Y-41365910D01*
X105452157Y-41393007D01*
X105495775Y-41431575D01*
X105517396Y-41485639D01*
X105512401Y-41543652D01*
X105481855Y-41593223D01*
X105291674Y-41783404D01*
X105282516Y-41791705D01*
X105249120Y-41819114D01*
X105249118Y-41819115D01*
X105249117Y-41819117D01*
X105235336Y-41835909D01*
X105221693Y-41852532D01*
X105219362Y-41855104D01*
X105185690Y-41896398D01*
X105185442Y-41896702D01*
X105121042Y-41975175D01*
X105075678Y-42062019D01*
X105075120Y-42063074D01*
X105028200Y-42150857D01*
X105026981Y-42153840D01*
X105000546Y-42246224D01*
X104999982Y-42248136D01*
X104973137Y-42336630D01*
X104970124Y-42352424D01*
X104963333Y-42441606D01*
X104963090Y-42444386D01*
X104954659Y-42529997D01*
X104954678Y-42530194D01*
X104954920Y-42552089D01*
X104954662Y-42555471D01*
X104965491Y-42640504D01*
X104965893Y-42644070D01*
X104973976Y-42726136D01*
X104975074Y-42729756D01*
X104979485Y-42750391D01*
X104980368Y-42757323D01*
X105006940Y-42835062D01*
X105008286Y-42839238D01*
X105031186Y-42914727D01*
X105034662Y-42921231D01*
X105042761Y-42939860D01*
X105046183Y-42949872D01*
X105086025Y-43017553D01*
X105088563Y-43022074D01*
X105111230Y-43064480D01*
X105123336Y-43087128D01*
X105124091Y-43088539D01*
X105131045Y-43097014D01*
X105142223Y-43113021D01*
X105149405Y-43125221D01*
X105149409Y-43125225D01*
X105149410Y-43125227D01*
X105199704Y-43180894D01*
X105203569Y-43185382D01*
X105249115Y-43240880D01*
X105249119Y-43240885D01*
X105260360Y-43250111D01*
X105273913Y-43263034D01*
X105282204Y-43272210D01*
X105285821Y-43276213D01*
X105342964Y-43318174D01*
X105343389Y-43318486D01*
X105348735Y-43322638D01*
X105401462Y-43365910D01*
X105417456Y-43374459D01*
X105432632Y-43384018D01*
X105460160Y-43404232D01*
X105458649Y-43406289D01*
X105488993Y-43430395D01*
X105513384Y-43485292D01*
X105509583Y-43545244D01*
X105478456Y-43596622D01*
X105291674Y-43783404D01*
X105282516Y-43791705D01*
X105249120Y-43819114D01*
X105249118Y-43819115D01*
X105249117Y-43819117D01*
X105244565Y-43824664D01*
X105221693Y-43852532D01*
X105219362Y-43855104D01*
X105185690Y-43896398D01*
X105185442Y-43896702D01*
X105121042Y-43975175D01*
X105075678Y-44062019D01*
X105075120Y-44063074D01*
X105028200Y-44150857D01*
X105026981Y-44153840D01*
X105000546Y-44246224D01*
X104999982Y-44248136D01*
X104973137Y-44336630D01*
X104970124Y-44352424D01*
X104963333Y-44441606D01*
X104963090Y-44444386D01*
X104954659Y-44529997D01*
X104954678Y-44530194D01*
X104954920Y-44552089D01*
X104954662Y-44555471D01*
X104965491Y-44640504D01*
X104965893Y-44644070D01*
X104973976Y-44726136D01*
X104975074Y-44729756D01*
X104979485Y-44750391D01*
X104980368Y-44757323D01*
X105006940Y-44835062D01*
X105008286Y-44839238D01*
X105031186Y-44914727D01*
X105034662Y-44921231D01*
X105042761Y-44939860D01*
X105046183Y-44949872D01*
X105086025Y-45017553D01*
X105088563Y-45022074D01*
X105109615Y-45061458D01*
X105123336Y-45087128D01*
X105124091Y-45088539D01*
X105131045Y-45097014D01*
X105142223Y-45113021D01*
X105149405Y-45125221D01*
X105149409Y-45125225D01*
X105149410Y-45125227D01*
X105199704Y-45180894D01*
X105203569Y-45185382D01*
X105249115Y-45240880D01*
X105249119Y-45240885D01*
X105260360Y-45250111D01*
X105273913Y-45263034D01*
X105282204Y-45272210D01*
X105285821Y-45276213D01*
X105342964Y-45318174D01*
X105343389Y-45318486D01*
X105348735Y-45322638D01*
X105401462Y-45365910D01*
X105417456Y-45374459D01*
X105432632Y-45384018D01*
X105460160Y-45404232D01*
X105458649Y-45406289D01*
X105488993Y-45430395D01*
X105513384Y-45485292D01*
X105509583Y-45545244D01*
X105478456Y-45596622D01*
X105291674Y-45783404D01*
X105282516Y-45791705D01*
X105249120Y-45819114D01*
X105249118Y-45819115D01*
X105249117Y-45819117D01*
X105223298Y-45850575D01*
X105221693Y-45852532D01*
X105219362Y-45855104D01*
X105185690Y-45896398D01*
X105185442Y-45896702D01*
X105121042Y-45975175D01*
X105075678Y-46062019D01*
X105075120Y-46063074D01*
X105028200Y-46150857D01*
X105026981Y-46153840D01*
X105000546Y-46246224D01*
X104999982Y-46248136D01*
X104973137Y-46336630D01*
X104970124Y-46352424D01*
X104963333Y-46441606D01*
X104963090Y-46444386D01*
X104954659Y-46529997D01*
X104954678Y-46530194D01*
X104954920Y-46552089D01*
X104954662Y-46555471D01*
X104965491Y-46640504D01*
X104965893Y-46644070D01*
X104973976Y-46726136D01*
X104975074Y-46729756D01*
X104979485Y-46750391D01*
X104980368Y-46757323D01*
X105006940Y-46835062D01*
X105008284Y-46839232D01*
X105021403Y-46882477D01*
X105031186Y-46914727D01*
X105034662Y-46921231D01*
X105042761Y-46939860D01*
X105046183Y-46949872D01*
X105086025Y-47017553D01*
X105088563Y-47022074D01*
X105102549Y-47048239D01*
X105123336Y-47087128D01*
X105124091Y-47088539D01*
X105131045Y-47097014D01*
X105142223Y-47113021D01*
X105149405Y-47125221D01*
X105149409Y-47125225D01*
X105149410Y-47125227D01*
X105199704Y-47180894D01*
X105203569Y-47185382D01*
X105233216Y-47221507D01*
X105249119Y-47240885D01*
X105260360Y-47250111D01*
X105273913Y-47263034D01*
X105282204Y-47272210D01*
X105285821Y-47276213D01*
X105342964Y-47318174D01*
X105343389Y-47318486D01*
X105348735Y-47322638D01*
X105401462Y-47365910D01*
X105417456Y-47374459D01*
X105432631Y-47384017D01*
X105438870Y-47388599D01*
X105460160Y-47404232D01*
X105458649Y-47406289D01*
X105488993Y-47430395D01*
X105513384Y-47485292D01*
X105509583Y-47545244D01*
X105478456Y-47596622D01*
X105291674Y-47783404D01*
X105282516Y-47791705D01*
X105249120Y-47819114D01*
X105249118Y-47819115D01*
X105249117Y-47819117D01*
X105223298Y-47850575D01*
X105221693Y-47852532D01*
X105219362Y-47855104D01*
X105185690Y-47896398D01*
X105185442Y-47896702D01*
X105121042Y-47975175D01*
X105075678Y-48062019D01*
X105075120Y-48063074D01*
X105028200Y-48150857D01*
X105026981Y-48153840D01*
X105000546Y-48246224D01*
X104999982Y-48248136D01*
X104973137Y-48336630D01*
X104970124Y-48352424D01*
X104963333Y-48441606D01*
X104963090Y-48444386D01*
X104954659Y-48529997D01*
X104954678Y-48530194D01*
X104954920Y-48552089D01*
X104954662Y-48555471D01*
X104965491Y-48640504D01*
X104965893Y-48644070D01*
X104973976Y-48726136D01*
X104975074Y-48729756D01*
X104979485Y-48750391D01*
X104980368Y-48757323D01*
X105006940Y-48835062D01*
X105008286Y-48839238D01*
X105031186Y-48914727D01*
X105034662Y-48921231D01*
X105042761Y-48939860D01*
X105046183Y-48949872D01*
X105086025Y-49017553D01*
X105088563Y-49022074D01*
X105111230Y-49064480D01*
X105123336Y-49087128D01*
X105124091Y-49088539D01*
X105131045Y-49097014D01*
X105142223Y-49113021D01*
X105149405Y-49125221D01*
X105149409Y-49125225D01*
X105149410Y-49125227D01*
X105199704Y-49180894D01*
X105203569Y-49185382D01*
X105249115Y-49240880D01*
X105249119Y-49240885D01*
X105260360Y-49250111D01*
X105273913Y-49263034D01*
X105282204Y-49272210D01*
X105285821Y-49276213D01*
X105316161Y-49298492D01*
X105343389Y-49318486D01*
X105348735Y-49322638D01*
X105401462Y-49365910D01*
X105417456Y-49374459D01*
X105432632Y-49384018D01*
X105460160Y-49404232D01*
X105458649Y-49406289D01*
X105488993Y-49430395D01*
X105513384Y-49485292D01*
X105509583Y-49545244D01*
X105478456Y-49596622D01*
X105291674Y-49783404D01*
X105282516Y-49791705D01*
X105249120Y-49819114D01*
X105249118Y-49819115D01*
X105249117Y-49819117D01*
X105223298Y-49850575D01*
X105221693Y-49852532D01*
X105219362Y-49855104D01*
X105185690Y-49896398D01*
X105185442Y-49896702D01*
X105121042Y-49975175D01*
X105075678Y-50062019D01*
X105075120Y-50063074D01*
X105028200Y-50150857D01*
X105026981Y-50153840D01*
X105000546Y-50246224D01*
X104999982Y-50248136D01*
X104973137Y-50336630D01*
X104970124Y-50352424D01*
X104963333Y-50441606D01*
X104963090Y-50444386D01*
X104954659Y-50529997D01*
X104954678Y-50530194D01*
X104954920Y-50552089D01*
X104954662Y-50555471D01*
X104965491Y-50640504D01*
X104965893Y-50644070D01*
X104973976Y-50726136D01*
X104975074Y-50729756D01*
X104979485Y-50750391D01*
X104980368Y-50757323D01*
X105006940Y-50835062D01*
X105008286Y-50839238D01*
X105031186Y-50914727D01*
X105034662Y-50921231D01*
X105042761Y-50939860D01*
X105046183Y-50949872D01*
X105086025Y-51017553D01*
X105088563Y-51022074D01*
X105111230Y-51064480D01*
X105123336Y-51087128D01*
X105124091Y-51088539D01*
X105131045Y-51097014D01*
X105142223Y-51113021D01*
X105149405Y-51125221D01*
X105149409Y-51125225D01*
X105149410Y-51125227D01*
X105199704Y-51180894D01*
X105203569Y-51185382D01*
X105249115Y-51240880D01*
X105249119Y-51240885D01*
X105260360Y-51250111D01*
X105273913Y-51263034D01*
X105282204Y-51272210D01*
X105285821Y-51276213D01*
X105342964Y-51318174D01*
X105343389Y-51318486D01*
X105348735Y-51322638D01*
X105401462Y-51365910D01*
X105417456Y-51374459D01*
X105432632Y-51384018D01*
X105460160Y-51404232D01*
X105458649Y-51406289D01*
X105488993Y-51430395D01*
X105513384Y-51485292D01*
X105509583Y-51545244D01*
X105478456Y-51596622D01*
X105291674Y-51783404D01*
X105282516Y-51791705D01*
X105249120Y-51819114D01*
X105249118Y-51819115D01*
X105249117Y-51819117D01*
X105223298Y-51850575D01*
X105221693Y-51852532D01*
X105219362Y-51855104D01*
X105185690Y-51896398D01*
X105185442Y-51896702D01*
X105121042Y-51975175D01*
X105075678Y-52062019D01*
X105075120Y-52063074D01*
X105028200Y-52150857D01*
X105026981Y-52153840D01*
X105000546Y-52246224D01*
X104999982Y-52248136D01*
X104973137Y-52336630D01*
X104970124Y-52352424D01*
X104963333Y-52441606D01*
X104963090Y-52444386D01*
X104954659Y-52529997D01*
X104954678Y-52530194D01*
X104954920Y-52552089D01*
X104954662Y-52555471D01*
X104965491Y-52640504D01*
X104965893Y-52644070D01*
X104973976Y-52726136D01*
X104975074Y-52729756D01*
X104979485Y-52750391D01*
X104980368Y-52757323D01*
X105006940Y-52835062D01*
X105008286Y-52839238D01*
X105031186Y-52914727D01*
X105034662Y-52921231D01*
X105042761Y-52939860D01*
X105046183Y-52949872D01*
X105086025Y-53017553D01*
X105088563Y-53022074D01*
X105111230Y-53064480D01*
X105123336Y-53087128D01*
X105124091Y-53088539D01*
X105131045Y-53097014D01*
X105142223Y-53113021D01*
X105149405Y-53125221D01*
X105149409Y-53125225D01*
X105149410Y-53125227D01*
X105199704Y-53180894D01*
X105203569Y-53185382D01*
X105249115Y-53240880D01*
X105249119Y-53240885D01*
X105260360Y-53250111D01*
X105273913Y-53263034D01*
X105282204Y-53272210D01*
X105285821Y-53276213D01*
X105342964Y-53318174D01*
X105343389Y-53318486D01*
X105348735Y-53322638D01*
X105401462Y-53365910D01*
X105417456Y-53374459D01*
X105432632Y-53384018D01*
X105460160Y-53404232D01*
X105458649Y-53406289D01*
X105488993Y-53430395D01*
X105513384Y-53485292D01*
X105509583Y-53545244D01*
X105478456Y-53596622D01*
X105291674Y-53783404D01*
X105282516Y-53791705D01*
X105249120Y-53819114D01*
X105249118Y-53819115D01*
X105249117Y-53819117D01*
X105223298Y-53850575D01*
X105221693Y-53852532D01*
X105219362Y-53855104D01*
X105185690Y-53896398D01*
X105185442Y-53896702D01*
X105121042Y-53975175D01*
X105075678Y-54062019D01*
X105075120Y-54063074D01*
X105028200Y-54150857D01*
X105026981Y-54153840D01*
X105000546Y-54246224D01*
X104999982Y-54248136D01*
X104973137Y-54336630D01*
X104970124Y-54352424D01*
X104963333Y-54441606D01*
X104963090Y-54444386D01*
X104954659Y-54529997D01*
X104954678Y-54530194D01*
X104954920Y-54552089D01*
X104954662Y-54555471D01*
X104965491Y-54640504D01*
X104965893Y-54644070D01*
X104973976Y-54726136D01*
X104975074Y-54729756D01*
X104979485Y-54750391D01*
X104980368Y-54757323D01*
X105006940Y-54835062D01*
X105008286Y-54839238D01*
X105031186Y-54914727D01*
X105034662Y-54921231D01*
X105042761Y-54939860D01*
X105046183Y-54949872D01*
X105086025Y-55017553D01*
X105088563Y-55022074D01*
X105111230Y-55064480D01*
X105123336Y-55087128D01*
X105124091Y-55088539D01*
X105131045Y-55097014D01*
X105142223Y-55113021D01*
X105149405Y-55125221D01*
X105149409Y-55125225D01*
X105149410Y-55125227D01*
X105199704Y-55180894D01*
X105203569Y-55185382D01*
X105249115Y-55240880D01*
X105249119Y-55240885D01*
X105260360Y-55250111D01*
X105273913Y-55263034D01*
X105282204Y-55272210D01*
X105285821Y-55276213D01*
X105342964Y-55318174D01*
X105343389Y-55318486D01*
X105348735Y-55322638D01*
X105401462Y-55365910D01*
X105417456Y-55374459D01*
X105432632Y-55384018D01*
X105460160Y-55404232D01*
X105458649Y-55406289D01*
X105488993Y-55430395D01*
X105513384Y-55485292D01*
X105509583Y-55545244D01*
X105478456Y-55596622D01*
X105291674Y-55783404D01*
X105282516Y-55791705D01*
X105249120Y-55819114D01*
X105249118Y-55819115D01*
X105249117Y-55819117D01*
X105223298Y-55850575D01*
X105221693Y-55852532D01*
X105219362Y-55855104D01*
X105185690Y-55896398D01*
X105185442Y-55896702D01*
X105121042Y-55975175D01*
X105075678Y-56062019D01*
X105075120Y-56063074D01*
X105028200Y-56150857D01*
X105026981Y-56153840D01*
X105000546Y-56246224D01*
X104999982Y-56248136D01*
X104973137Y-56336630D01*
X104970124Y-56352424D01*
X104963333Y-56441606D01*
X104963090Y-56444386D01*
X104954659Y-56529997D01*
X104954678Y-56530194D01*
X104954920Y-56552089D01*
X104954662Y-56555471D01*
X104965491Y-56640504D01*
X104965893Y-56644070D01*
X104973976Y-56726136D01*
X104975074Y-56729756D01*
X104979485Y-56750391D01*
X104980368Y-56757323D01*
X105006940Y-56835062D01*
X105008286Y-56839238D01*
X105031186Y-56914727D01*
X105034662Y-56921231D01*
X105042761Y-56939860D01*
X105046183Y-56949872D01*
X105086025Y-57017553D01*
X105088563Y-57022074D01*
X105111230Y-57064480D01*
X105123336Y-57087128D01*
X105124091Y-57088539D01*
X105131045Y-57097014D01*
X105142223Y-57113021D01*
X105149405Y-57125221D01*
X105149409Y-57125225D01*
X105149410Y-57125227D01*
X105199704Y-57180894D01*
X105203569Y-57185382D01*
X105244829Y-57235658D01*
X105249119Y-57240885D01*
X105260360Y-57250111D01*
X105273913Y-57263034D01*
X105282204Y-57272210D01*
X105285821Y-57276213D01*
X105342964Y-57318174D01*
X105343389Y-57318486D01*
X105348735Y-57322638D01*
X105401462Y-57365910D01*
X105417456Y-57374459D01*
X105432632Y-57384018D01*
X105460160Y-57404232D01*
X105458649Y-57406289D01*
X105488993Y-57430395D01*
X105513384Y-57485292D01*
X105509583Y-57545244D01*
X105478456Y-57596622D01*
X105291674Y-57783404D01*
X105282516Y-57791705D01*
X105249120Y-57819114D01*
X105249118Y-57819115D01*
X105249117Y-57819117D01*
X105223298Y-57850575D01*
X105221693Y-57852532D01*
X105219362Y-57855104D01*
X105185690Y-57896398D01*
X105185442Y-57896702D01*
X105121042Y-57975175D01*
X105075678Y-58062019D01*
X105075120Y-58063074D01*
X105028200Y-58150857D01*
X105026981Y-58153840D01*
X105000546Y-58246224D01*
X104999982Y-58248136D01*
X104973137Y-58336630D01*
X104970124Y-58352424D01*
X104963333Y-58441606D01*
X104963090Y-58444386D01*
X104954658Y-58529999D01*
X104165500Y-58529999D01*
X104165500Y-38251500D01*
X104182381Y-38188500D01*
X104228500Y-38142381D01*
X104291500Y-38125500D01*
X156058500Y-38125500D01*
X156121500Y-38142381D01*
G37*
%TD.AperFunction*%
%TD*%
M02*
