%TF.GenerationSoftware,KiCad,Pcbnew,7.0.10*%
%TF.CreationDate,2024-01-17T19:36:25+01:00*%
%TF.ProjectId,RFM69HW_868,52464d36-3948-4575-9f38-36382e6b6963,rev?*%
%TF.SameCoordinates,Original*%
%TF.FileFunction,Copper,L1,Top*%
%TF.FilePolarity,Positive*%
%FSLAX46Y46*%
G04 Gerber Fmt 4.6, Leading zero omitted, Abs format (unit mm)*
G04 Created by KiCad (PCBNEW 7.0.10) date 2024-01-17 19:36:25*
%MOMM*%
%LPD*%
G01*
G04 APERTURE LIST*
G04 Aperture macros list*
%AMRoundRect*
0 Rectangle with rounded corners*
0 $1 Rounding radius*
0 $2 $3 $4 $5 $6 $7 $8 $9 X,Y pos of 4 corners*
0 Add a 4 corners polygon primitive as box body*
4,1,4,$2,$3,$4,$5,$6,$7,$8,$9,$2,$3,0*
0 Add four circle primitives for the rounded corners*
1,1,$1+$1,$2,$3*
1,1,$1+$1,$4,$5*
1,1,$1+$1,$6,$7*
1,1,$1+$1,$8,$9*
0 Add four rect primitives between the rounded corners*
20,1,$1+$1,$2,$3,$4,$5,0*
20,1,$1+$1,$4,$5,$6,$7,0*
20,1,$1+$1,$6,$7,$8,$9,0*
20,1,$1+$1,$8,$9,$2,$3,0*%
%AMOutline4P*
0 Free polygon, 4 corners , with rotation*
0 The origin of the aperture is its center*
0 number of corners: always 4*
0 $1 to $8 corner X, Y*
0 $9 Rotation angle, in degrees counterclockwise*
0 create outline with 4 corners*
4,1,4,$1,$2,$3,$4,$5,$6,$7,$8,$1,$2,$9*%
G04 Aperture macros list end*
%TA.AperFunction,EtchedComponent*%
%ADD10C,1.000000*%
%TD*%
%TA.AperFunction,ComponentPad*%
%ADD11R,1.700000X1.700000*%
%TD*%
%TA.AperFunction,ComponentPad*%
%ADD12O,1.700000X1.700000*%
%TD*%
%TA.AperFunction,SMDPad,CuDef*%
%ADD13RoundRect,0.250000X-0.262500X-0.450000X0.262500X-0.450000X0.262500X0.450000X-0.262500X0.450000X0*%
%TD*%
%TA.AperFunction,SMDPad,CuDef*%
%ADD14RoundRect,0.250000X0.250000X0.475000X-0.250000X0.475000X-0.250000X-0.475000X0.250000X-0.475000X0*%
%TD*%
%TA.AperFunction,SMDPad,CuDef*%
%ADD15RoundRect,0.250000X-0.450000X0.262500X-0.450000X-0.262500X0.450000X-0.262500X0.450000X0.262500X0*%
%TD*%
%TA.AperFunction,SMDPad,CuDef*%
%ADD16R,2.500000X1.000000*%
%TD*%
%TA.AperFunction,ComponentPad*%
%ADD17C,1.000000*%
%TD*%
%TA.AperFunction,SMDPad,CuDef*%
%ADD18Outline4P,-0.350000X-0.400000X0.350000X-0.400000X0.050000X0.400000X-0.050000X0.400000X270.000000*%
%TD*%
%TA.AperFunction,ViaPad*%
%ADD19C,0.800000*%
%TD*%
%TA.AperFunction,Conductor*%
%ADD20C,1.000000*%
%TD*%
%TA.AperFunction,Conductor*%
%ADD21C,0.250000*%
%TD*%
G04 APERTURE END LIST*
D10*
%TO.C,AE1*%
X116960000Y-58530000D02*
X105960000Y-58530000D01*
X105960000Y-56530000D02*
X110960000Y-56530000D01*
X105960000Y-54530000D02*
X110960000Y-54530000D01*
X105960000Y-52530000D02*
X110960000Y-52530000D01*
X105960000Y-50530000D02*
X110960000Y-50530000D01*
X105960000Y-48530000D02*
X110960000Y-48530000D01*
X105960000Y-46530000D02*
X110960000Y-46530000D01*
X105960000Y-44530000D02*
X110960000Y-44530000D01*
X105960000Y-42530000D02*
X110960000Y-42530000D01*
X105960000Y-40530000D02*
X110960000Y-40530000D01*
%TD*%
D11*
%TO.P,J1,1,Pin_1*%
%TO.N,VCC*%
X149860000Y-43180000D03*
D12*
%TO.P,J1,2,Pin_2*%
X152400000Y-43180000D03*
%TO.P,J1,3,Pin_3*%
%TO.N,GND*%
X149860000Y-45720000D03*
%TO.P,J1,4,Pin_4*%
X152400000Y-45720000D03*
%TO.P,J1,5,Pin_5*%
%TO.N,SCK*%
X149860000Y-48260000D03*
%TO.P,J1,6,Pin_6*%
%TO.N,unconnected-(J1-Pin_6-Pad6)*%
X152400000Y-48260000D03*
%TO.P,J1,7,Pin_7*%
%TO.N,MISO*%
X149860000Y-50800000D03*
%TO.P,J1,8,Pin_8*%
%TO.N,nCS2*%
X152400000Y-50800000D03*
%TO.P,J1,9,Pin_9*%
%TO.N,MOSI*%
X149860000Y-53340000D03*
%TO.P,J1,10,Pin_10*%
%TO.N,nRESET*%
X152400000Y-53340000D03*
%TO.P,J1,11,Pin_11*%
%TO.N,nCS*%
X149860000Y-55880000D03*
%TO.P,J1,12,Pin_12*%
%TO.N,DIO0*%
X152400000Y-55880000D03*
%TD*%
D13*
%TO.P,M3,1*%
%TO.N,Net-(AE1-A)*%
X121920000Y-54610000D03*
%TO.P,M3,2*%
%TO.N,GND*%
X123745000Y-54610000D03*
%TD*%
D14*
%TO.P,C1,1*%
%TO.N,VCC*%
X144780000Y-40005000D03*
%TO.P,C1,2*%
%TO.N,GND*%
X142880000Y-40005000D03*
%TD*%
D13*
%TO.P,M1,1*%
%TO.N,Net-(U1-ANA)*%
X121832500Y-48260000D03*
%TO.P,M1,2*%
%TO.N,GND*%
X123657500Y-48260000D03*
%TD*%
D15*
%TO.P,M2,1*%
%TO.N,Net-(U1-ANA)*%
X121920000Y-50522500D03*
%TO.P,M2,2*%
%TO.N,Net-(AE1-A)*%
X121920000Y-52347500D03*
%TD*%
D16*
%TO.P,U1,1,RESET*%
%TO.N,nRESET*%
X144565000Y-56545000D03*
%TO.P,U1,2,DIO0*%
%TO.N,DIO0*%
X144565000Y-54545000D03*
%TO.P,U1,3,DIO1*%
%TO.N,unconnected-(U1-DIO1-Pad3)*%
X144565000Y-52545000D03*
%TO.P,U1,4,DIO2*%
%TO.N,unconnected-(U1-DIO2-Pad4)*%
X144565000Y-50545000D03*
%TO.P,U1,5,DIO3*%
%TO.N,unconnected-(U1-DIO3-Pad5)*%
X144565000Y-48545000D03*
%TO.P,U1,6,DIO4*%
%TO.N,unconnected-(U1-DIO4-Pad6)*%
X144565000Y-46545000D03*
%TO.P,U1,7,DIO5*%
%TO.N,unconnected-(U1-DIO5-Pad7)*%
X144565000Y-44545000D03*
%TO.P,U1,8,3.3V*%
%TO.N,VCC*%
X144565000Y-42545000D03*
%TO.P,U1,9,GND*%
%TO.N,GND*%
X126365000Y-42545000D03*
%TO.P,U1,10,ANA*%
%TO.N,Net-(U1-ANA)*%
X126365000Y-44545000D03*
%TO.P,U1,11,GND*%
%TO.N,GND*%
X126365000Y-46545000D03*
%TO.P,U1,12,SCK*%
%TO.N,SCK*%
X126365000Y-48545000D03*
%TO.P,U1,13,MISO*%
%TO.N,MOSI*%
X126365000Y-50545000D03*
%TO.P,U1,14,MOSI*%
%TO.N,MISO*%
X126365000Y-52545000D03*
%TO.P,U1,15,NSS*%
%TO.N,nCS*%
X126365000Y-54545000D03*
%TO.P,U1,16,NC*%
%TO.N,unconnected-(U1-NC-Pad16)*%
X126365000Y-56545000D03*
%TD*%
D17*
%TO.P,AE1,*%
%TO.N,*%
X105960000Y-58530000D03*
X105960000Y-56530000D03*
X110960000Y-56530000D03*
X105960000Y-54530000D03*
X110960000Y-54530000D03*
X105960000Y-52530000D03*
X110960000Y-52530000D03*
X105960000Y-50530000D03*
X110960000Y-50530000D03*
X105960000Y-48530000D03*
X110960000Y-48530000D03*
X105960000Y-46530000D03*
X110960000Y-46530000D03*
X105960000Y-44530000D03*
X110960000Y-44530000D03*
X105960000Y-42530000D03*
X110960000Y-42530000D03*
X105960000Y-40530000D03*
X110960000Y-40530000D03*
D18*
%TO.P,AE1,1,A*%
%TO.N,Net-(AE1-A)*%
X117660000Y-58530000D03*
%TD*%
D19*
%TO.N,GND*%
X132715000Y-38735000D03*
X136525000Y-38735000D03*
X146685000Y-60325000D03*
X149225000Y-38735000D03*
X123825000Y-60325000D03*
X139065000Y-38735000D03*
X155575000Y-50165000D03*
X129540000Y-48895000D03*
X126365000Y-38735000D03*
X130175000Y-38735000D03*
X129540000Y-50800000D03*
X133985000Y-60325000D03*
X135255000Y-38735000D03*
X147955000Y-38735000D03*
X144145000Y-60325000D03*
X137795000Y-60325000D03*
X126365000Y-60325000D03*
X128905000Y-38735000D03*
X147955000Y-60325000D03*
X137795000Y-38735000D03*
X131445000Y-38735000D03*
X149225000Y-60325000D03*
X146685000Y-38735000D03*
X142875000Y-60325000D03*
X130175000Y-60325000D03*
X155575000Y-40005000D03*
X122555000Y-38735000D03*
X121285000Y-60325000D03*
X144145000Y-38735000D03*
X154305000Y-60325000D03*
X150495000Y-60325000D03*
X127635000Y-38735000D03*
X131445000Y-60325000D03*
X140335000Y-38735000D03*
X155575000Y-43815000D03*
X127635000Y-60325000D03*
X155575000Y-53975000D03*
X142875000Y-38735000D03*
X155575000Y-45085000D03*
X125095000Y-38735000D03*
X155575000Y-59055000D03*
X122555000Y-60325000D03*
X155575000Y-60325000D03*
X155575000Y-41275000D03*
X155575000Y-47625000D03*
X136525000Y-60325000D03*
X121285000Y-38735000D03*
X154305000Y-38735000D03*
X155575000Y-52705000D03*
X125095000Y-60325000D03*
X128905000Y-60325000D03*
X151765000Y-38735000D03*
X133985000Y-38735000D03*
X120015000Y-38735000D03*
X155575000Y-56515000D03*
X118745000Y-38735000D03*
X118745000Y-60325000D03*
X141605000Y-38735000D03*
X153035000Y-60325000D03*
X151765000Y-60325000D03*
X155575000Y-42545000D03*
X155575000Y-46355000D03*
X155575000Y-48895000D03*
X141605000Y-60325000D03*
X145415000Y-60325000D03*
X155575000Y-51435000D03*
X120015000Y-60325000D03*
X123825000Y-38735000D03*
X135255000Y-60325000D03*
X155575000Y-57785000D03*
X155575000Y-38735000D03*
X139065000Y-60325000D03*
X140335000Y-60325000D03*
X155575000Y-55245000D03*
X150495000Y-38735000D03*
X132715000Y-60325000D03*
X153035000Y-38735000D03*
X145415000Y-38735000D03*
%TO.N,SCK*%
X140970000Y-47720000D03*
%TO.N,MOSI*%
X133985000Y-49625000D03*
%TO.N,MISO*%
X140970000Y-51720000D03*
%TO.N,VCC*%
X144565000Y-42545000D03*
X143510000Y-58420000D03*
X138430000Y-45720000D03*
%TD*%
D20*
%TO.N,GND*%
X126350000Y-42545000D02*
X126365000Y-42530000D01*
D21*
%TO.N,DIO0*%
X144565000Y-54545000D02*
X151065000Y-54545000D01*
X151065000Y-54545000D02*
X152400000Y-55880000D01*
%TO.N,nRESET*%
X153670000Y-56271701D02*
X153670000Y-54610000D01*
X153670000Y-54610000D02*
X152400000Y-53340000D01*
X144565000Y-56545000D02*
X145075000Y-57055000D01*
X152886701Y-57055000D02*
X153670000Y-56271701D01*
X145075000Y-57055000D02*
X152886701Y-57055000D01*
%TO.N,nCS*%
X149350000Y-55370000D02*
X149860000Y-55880000D01*
X127190000Y-55370000D02*
X149350000Y-55370000D01*
X126365000Y-54545000D02*
X127190000Y-55370000D01*
%TO.N,SCK*%
X140970000Y-47720000D02*
X149320000Y-47720000D01*
X149320000Y-47720000D02*
X149860000Y-48260000D01*
X127190000Y-47720000D02*
X140970000Y-47720000D01*
X126365000Y-48545000D02*
X127190000Y-47720000D01*
%TO.N,MOSI*%
X133985000Y-49625000D02*
X150346701Y-49625000D01*
X126365000Y-50545000D02*
X127285000Y-49625000D01*
X150346701Y-49625000D02*
X151035000Y-50313299D01*
X151035000Y-52165000D02*
X149860000Y-53340000D01*
X151035000Y-50313299D02*
X151035000Y-52165000D01*
X127285000Y-49625000D02*
X133985000Y-49625000D01*
%TO.N,MISO*%
X148940000Y-51720000D02*
X149860000Y-50800000D01*
X127190000Y-51720000D02*
X140970000Y-51720000D01*
X140970000Y-51720000D02*
X148940000Y-51720000D01*
X126365000Y-52545000D02*
X127190000Y-51720000D01*
%TO.N,VCC*%
X154305000Y-57150000D02*
X153035000Y-58420000D01*
X149860000Y-43180000D02*
X149860000Y-41275000D01*
X153670000Y-43180000D02*
X154305000Y-43815000D01*
X152400000Y-43180000D02*
X149860000Y-43180000D01*
X144780000Y-40005000D02*
X144780000Y-42330000D01*
X144780000Y-42330000D02*
X144565000Y-42545000D01*
X152400000Y-43180000D02*
X153670000Y-43180000D01*
X143510000Y-42545000D02*
X140335000Y-45720000D01*
X144565000Y-42545000D02*
X143510000Y-42545000D01*
X153035000Y-58420000D02*
X143510000Y-58420000D01*
X149860000Y-41275000D02*
X148590000Y-40005000D01*
X154305000Y-43815000D02*
X154305000Y-57150000D01*
X140335000Y-45720000D02*
X138430000Y-45720000D01*
X148590000Y-40005000D02*
X144780000Y-40005000D01*
D20*
%TO.N,Net-(AE1-A)*%
X115000000Y-58530000D02*
X119905000Y-58530000D01*
X119905000Y-58530000D02*
X121920000Y-56515000D01*
X121920000Y-56515000D02*
X121920000Y-52895000D01*
%TO.N,Net-(U1-ANA)*%
X123730000Y-44545000D02*
X121920000Y-46355000D01*
X126365000Y-44545000D02*
X123730000Y-44545000D01*
X121920000Y-50522500D02*
X121920000Y-46355000D01*
%TD*%
%TA.AperFunction,Conductor*%
%TO.N,GND*%
G36*
X133487221Y-49969407D02*
G01*
X133507570Y-49989231D01*
X133556718Y-50053282D01*
X133682159Y-50149536D01*
X133682160Y-50149536D01*
X133682161Y-50149537D01*
X133801474Y-50198958D01*
X133828238Y-50210044D01*
X133945809Y-50225522D01*
X133984999Y-50230682D01*
X133985000Y-50230682D01*
X133985001Y-50230682D01*
X134016352Y-50226554D01*
X134141762Y-50210044D01*
X134287841Y-50149536D01*
X134413282Y-50053282D01*
X134462428Y-49989232D01*
X134512852Y-49954577D01*
X134540970Y-49950500D01*
X143015500Y-49950500D01*
X143073691Y-49969407D01*
X143109655Y-50018907D01*
X143114500Y-50049500D01*
X143114500Y-51064746D01*
X143114501Y-51064758D01*
X143126132Y-51123227D01*
X143126134Y-51123233D01*
X143170445Y-51189548D01*
X143170448Y-51189552D01*
X143203301Y-51211504D01*
X143205817Y-51213185D01*
X143243696Y-51261235D01*
X143246098Y-51322373D01*
X143212105Y-51373247D01*
X143154701Y-51394424D01*
X143150815Y-51394500D01*
X141525970Y-51394500D01*
X141467779Y-51375593D01*
X141447428Y-51355767D01*
X141426255Y-51328174D01*
X141398282Y-51291718D01*
X141398277Y-51291714D01*
X141398276Y-51291713D01*
X141298831Y-51215407D01*
X141272841Y-51195464D01*
X141272840Y-51195463D01*
X141272838Y-51195462D01*
X141126766Y-51134957D01*
X141126758Y-51134955D01*
X140970001Y-51114318D01*
X140969999Y-51114318D01*
X140813241Y-51134955D01*
X140813233Y-51134957D01*
X140667161Y-51195462D01*
X140667160Y-51195462D01*
X140541723Y-51291713D01*
X140541714Y-51291722D01*
X140492572Y-51355767D01*
X140442148Y-51390423D01*
X140414030Y-51394500D01*
X127779185Y-51394500D01*
X127720994Y-51375593D01*
X127685030Y-51326093D01*
X127685030Y-51264907D01*
X127720994Y-51215407D01*
X127724183Y-51213185D01*
X127726699Y-51211504D01*
X127759552Y-51189552D01*
X127803867Y-51123231D01*
X127815500Y-51064748D01*
X127815500Y-50049500D01*
X127834407Y-49991309D01*
X127883907Y-49955345D01*
X127914500Y-49950500D01*
X133429030Y-49950500D01*
X133487221Y-49969407D01*
G37*
%TD.AperFunction*%
%TA.AperFunction,Conductor*%
G36*
X140472221Y-48064407D02*
G01*
X140492570Y-48084231D01*
X140541718Y-48148282D01*
X140667159Y-48244536D01*
X140667160Y-48244536D01*
X140667161Y-48244537D01*
X140813233Y-48305042D01*
X140813238Y-48305044D01*
X140930809Y-48320522D01*
X140969999Y-48325682D01*
X140970000Y-48325682D01*
X140970001Y-48325682D01*
X141001352Y-48321554D01*
X141126762Y-48305044D01*
X141272841Y-48244536D01*
X141398282Y-48148282D01*
X141447428Y-48084232D01*
X141497852Y-48049577D01*
X141525970Y-48045500D01*
X143015500Y-48045500D01*
X143073691Y-48064407D01*
X143109655Y-48113907D01*
X143114500Y-48144500D01*
X143114500Y-49064746D01*
X143114501Y-49064758D01*
X143126132Y-49123227D01*
X143126133Y-49123231D01*
X143141012Y-49145499D01*
X143157621Y-49204385D01*
X143136444Y-49261789D01*
X143085571Y-49295783D01*
X143058697Y-49299500D01*
X134540970Y-49299500D01*
X134482779Y-49280593D01*
X134462428Y-49260767D01*
X134450713Y-49245500D01*
X134413282Y-49196718D01*
X134413277Y-49196714D01*
X134413276Y-49196713D01*
X134317514Y-49123233D01*
X134287841Y-49100464D01*
X134287840Y-49100463D01*
X134287838Y-49100462D01*
X134141766Y-49039957D01*
X134141758Y-49039955D01*
X133985001Y-49019318D01*
X133984999Y-49019318D01*
X133828241Y-49039955D01*
X133828233Y-49039957D01*
X133682161Y-49100462D01*
X133682160Y-49100462D01*
X133556723Y-49196713D01*
X133556714Y-49196722D01*
X133507572Y-49260767D01*
X133457148Y-49295423D01*
X133429030Y-49299500D01*
X127871303Y-49299500D01*
X127813112Y-49280593D01*
X127777148Y-49231093D01*
X127777148Y-49169907D01*
X127788985Y-49145502D01*
X127803867Y-49123231D01*
X127815500Y-49064748D01*
X127815500Y-48144500D01*
X127834407Y-48086309D01*
X127883907Y-48050345D01*
X127914500Y-48045500D01*
X140414030Y-48045500D01*
X140472221Y-48064407D01*
G37*
%TD.AperFunction*%
%TA.AperFunction,Conductor*%
G36*
X156143691Y-38144407D02*
G01*
X156179655Y-38193907D01*
X156184500Y-38224500D01*
X156184500Y-60835500D01*
X156165593Y-60893691D01*
X156116093Y-60929655D01*
X156085500Y-60934500D01*
X118209000Y-60934500D01*
X118150809Y-60915593D01*
X118114845Y-60866093D01*
X118110000Y-60835500D01*
X118110000Y-59329500D01*
X118128907Y-59271309D01*
X118178407Y-59235345D01*
X118209000Y-59230500D01*
X119880845Y-59230500D01*
X119886822Y-59230680D01*
X119916656Y-59232485D01*
X119947605Y-59234358D01*
X119947605Y-59234357D01*
X119947606Y-59234358D01*
X120007539Y-59223374D01*
X120013419Y-59222479D01*
X120073872Y-59215140D01*
X120085462Y-59210744D01*
X120102725Y-59205931D01*
X120114932Y-59203695D01*
X120170487Y-59178690D01*
X120176003Y-59176407D01*
X120177896Y-59175689D01*
X120232930Y-59154818D01*
X120243142Y-59147768D01*
X120258750Y-59138965D01*
X120270057Y-59133878D01*
X120270057Y-59133877D01*
X120270059Y-59133877D01*
X120317995Y-59096321D01*
X120322813Y-59092775D01*
X120372929Y-59058183D01*
X120413312Y-59012598D01*
X120417378Y-59008277D01*
X122360909Y-57064746D01*
X124914500Y-57064746D01*
X124914501Y-57064758D01*
X124926132Y-57123227D01*
X124926134Y-57123233D01*
X124937406Y-57140102D01*
X124970448Y-57189552D01*
X125036769Y-57233867D01*
X125081231Y-57242711D01*
X125095241Y-57245498D01*
X125095246Y-57245498D01*
X125095252Y-57245500D01*
X125095253Y-57245500D01*
X127634747Y-57245500D01*
X127634748Y-57245500D01*
X127693231Y-57233867D01*
X127759552Y-57189552D01*
X127803867Y-57123231D01*
X127815500Y-57064748D01*
X127815500Y-56025252D01*
X127803867Y-55966769D01*
X127759552Y-55900448D01*
X127724182Y-55876814D01*
X127686304Y-55828765D01*
X127683902Y-55767627D01*
X127717895Y-55716753D01*
X127775299Y-55695576D01*
X127779185Y-55695500D01*
X143150815Y-55695500D01*
X143209006Y-55714407D01*
X143244970Y-55763907D01*
X143244970Y-55825093D01*
X143209006Y-55874593D01*
X143205817Y-55876815D01*
X143170450Y-55900446D01*
X143170445Y-55900451D01*
X143126134Y-55966766D01*
X143126132Y-55966772D01*
X143114501Y-56025241D01*
X143114500Y-56025253D01*
X143114500Y-57064746D01*
X143114501Y-57064758D01*
X143126132Y-57123227D01*
X143126134Y-57123233D01*
X143137406Y-57140102D01*
X143170448Y-57189552D01*
X143236769Y-57233867D01*
X143281231Y-57242711D01*
X143295241Y-57245498D01*
X143295246Y-57245498D01*
X143295252Y-57245500D01*
X144763774Y-57245500D01*
X144821965Y-57264407D01*
X144839612Y-57280864D01*
X144847013Y-57289684D01*
X144862545Y-57308194D01*
X144896209Y-57327630D01*
X144903482Y-57332264D01*
X144924173Y-57346752D01*
X144935316Y-57354554D01*
X144936767Y-57354942D01*
X144960659Y-57364840D01*
X144961954Y-57365588D01*
X145000220Y-57372335D01*
X145008652Y-57374204D01*
X145046193Y-57384264D01*
X145084905Y-57380876D01*
X145093534Y-57380500D01*
X152868167Y-57380500D01*
X152876795Y-57380876D01*
X152915508Y-57384264D01*
X152953055Y-57374202D01*
X152961485Y-57372334D01*
X152999746Y-57365588D01*
X153001046Y-57364838D01*
X153024937Y-57354942D01*
X153025165Y-57354880D01*
X153026385Y-57354554D01*
X153058234Y-57332251D01*
X153065480Y-57327635D01*
X153099156Y-57308194D01*
X153124144Y-57278413D01*
X153129955Y-57272070D01*
X153810496Y-56591530D01*
X153865013Y-56563753D01*
X153925445Y-56573324D01*
X153968710Y-56616589D01*
X153979500Y-56661534D01*
X153979500Y-56974165D01*
X153960593Y-57032356D01*
X153950504Y-57044169D01*
X152929170Y-58065504D01*
X152874653Y-58093281D01*
X152859166Y-58094500D01*
X144065970Y-58094500D01*
X144007779Y-58075593D01*
X143987428Y-58055767D01*
X143938285Y-57991722D01*
X143938282Y-57991718D01*
X143938277Y-57991714D01*
X143938276Y-57991713D01*
X143867104Y-57937101D01*
X143812841Y-57895464D01*
X143812840Y-57895463D01*
X143812838Y-57895462D01*
X143666766Y-57834957D01*
X143666758Y-57834955D01*
X143510001Y-57814318D01*
X143509999Y-57814318D01*
X143353241Y-57834955D01*
X143353233Y-57834957D01*
X143207161Y-57895462D01*
X143207160Y-57895462D01*
X143081723Y-57991713D01*
X143081713Y-57991723D01*
X142985462Y-58117160D01*
X142985462Y-58117161D01*
X142924957Y-58263233D01*
X142924955Y-58263241D01*
X142904318Y-58419999D01*
X142904318Y-58420000D01*
X142924955Y-58576758D01*
X142924957Y-58576766D01*
X142985462Y-58722838D01*
X142985462Y-58722839D01*
X143081713Y-58848276D01*
X143081718Y-58848282D01*
X143207159Y-58944536D01*
X143353238Y-59005044D01*
X143470809Y-59020522D01*
X143509999Y-59025682D01*
X143510000Y-59025682D01*
X143510001Y-59025682D01*
X143541352Y-59021554D01*
X143666762Y-59005044D01*
X143812841Y-58944536D01*
X143938282Y-58848282D01*
X143987428Y-58784232D01*
X144037852Y-58749577D01*
X144065970Y-58745500D01*
X153016466Y-58745500D01*
X153025094Y-58745876D01*
X153063807Y-58749264D01*
X153101354Y-58739202D01*
X153109784Y-58737334D01*
X153148045Y-58730588D01*
X153149345Y-58729838D01*
X153173236Y-58719942D01*
X153173464Y-58719880D01*
X153174684Y-58719554D01*
X153206533Y-58697251D01*
X153213779Y-58692635D01*
X153247455Y-58673194D01*
X153272443Y-58643413D01*
X153278254Y-58637070D01*
X154522072Y-57393253D01*
X154528431Y-57387428D01*
X154532203Y-57384263D01*
X154558194Y-57362455D01*
X154577624Y-57328799D01*
X154582252Y-57321532D01*
X154604554Y-57289684D01*
X154604942Y-57288236D01*
X154614838Y-57264345D01*
X154615586Y-57263048D01*
X154615585Y-57263048D01*
X154615588Y-57263045D01*
X154622341Y-57224743D01*
X154624198Y-57216366D01*
X154634263Y-57178807D01*
X154630877Y-57140102D01*
X154630500Y-57131474D01*
X154630500Y-43833533D01*
X154630877Y-43824904D01*
X154634264Y-43786193D01*
X154624204Y-43748652D01*
X154622335Y-43740220D01*
X154615588Y-43701954D01*
X154614840Y-43700659D01*
X154604942Y-43676767D01*
X154604554Y-43675316D01*
X154582264Y-43643482D01*
X154577630Y-43636209D01*
X154558194Y-43602545D01*
X154536038Y-43583954D01*
X154528428Y-43577568D01*
X154522060Y-43571734D01*
X153913268Y-42962942D01*
X153907434Y-42956574D01*
X153882456Y-42926806D01*
X153848795Y-42907372D01*
X153841512Y-42902732D01*
X153809685Y-42880446D01*
X153809679Y-42880443D01*
X153808224Y-42880054D01*
X153784348Y-42870164D01*
X153783045Y-42869411D01*
X153744779Y-42862664D01*
X153736350Y-42860795D01*
X153711448Y-42854123D01*
X153698807Y-42850736D01*
X153698806Y-42850736D01*
X153698805Y-42850736D01*
X153660095Y-42854123D01*
X153651466Y-42854500D01*
X153472454Y-42854500D01*
X153414263Y-42835593D01*
X153378299Y-42786093D01*
X153377732Y-42784290D01*
X153375232Y-42776046D01*
X153277685Y-42593550D01*
X153146410Y-42433590D01*
X152996123Y-42310253D01*
X152986452Y-42302316D01*
X152803954Y-42204768D01*
X152605934Y-42144699D01*
X152605929Y-42144698D01*
X152400003Y-42124417D01*
X152399997Y-42124417D01*
X152194070Y-42144698D01*
X152194065Y-42144699D01*
X151996045Y-42204768D01*
X151813547Y-42302316D01*
X151653595Y-42433585D01*
X151653585Y-42433595D01*
X151522316Y-42593547D01*
X151424769Y-42776043D01*
X151424768Y-42776045D01*
X151424768Y-42776046D01*
X151422282Y-42784241D01*
X151387297Y-42834436D01*
X151329488Y-42854481D01*
X151327546Y-42854500D01*
X151009500Y-42854500D01*
X150951309Y-42835593D01*
X150915345Y-42786093D01*
X150910500Y-42755500D01*
X150910500Y-42310253D01*
X150910498Y-42310241D01*
X150907711Y-42296231D01*
X150898867Y-42251769D01*
X150854552Y-42185448D01*
X150854548Y-42185445D01*
X150788233Y-42141134D01*
X150788231Y-42141133D01*
X150788228Y-42141132D01*
X150788227Y-42141132D01*
X150729758Y-42129501D01*
X150729748Y-42129500D01*
X150729747Y-42129500D01*
X150284500Y-42129500D01*
X150226309Y-42110593D01*
X150190345Y-42061093D01*
X150185500Y-42030500D01*
X150185500Y-41293524D01*
X150185877Y-41284895D01*
X150189263Y-41246193D01*
X150179201Y-41208642D01*
X150177335Y-41200224D01*
X150170588Y-41161954D01*
X150169840Y-41160659D01*
X150159942Y-41136767D01*
X150159554Y-41135316D01*
X150137257Y-41103473D01*
X150132626Y-41096203D01*
X150113194Y-41062545D01*
X150083434Y-41037573D01*
X150077066Y-41031739D01*
X148833268Y-39787942D01*
X148827434Y-39781574D01*
X148802456Y-39751806D01*
X148768795Y-39732372D01*
X148761512Y-39727732D01*
X148729685Y-39705446D01*
X148729679Y-39705443D01*
X148728224Y-39705054D01*
X148704348Y-39695164D01*
X148703045Y-39694411D01*
X148664779Y-39687664D01*
X148656350Y-39685795D01*
X148631448Y-39679123D01*
X148618807Y-39675736D01*
X148618806Y-39675736D01*
X148618805Y-39675736D01*
X148580095Y-39679123D01*
X148571466Y-39679500D01*
X145579500Y-39679500D01*
X145521309Y-39660593D01*
X145485345Y-39611093D01*
X145480500Y-39580500D01*
X145480500Y-39475727D01*
X145480499Y-39475725D01*
X145477646Y-39445305D01*
X145477646Y-39445301D01*
X145432793Y-39317118D01*
X145352413Y-39208207D01*
X145352154Y-39207855D01*
X145352152Y-39207853D01*
X145352150Y-39207850D01*
X145352146Y-39207847D01*
X145352144Y-39207845D01*
X145242883Y-39127207D01*
X145114703Y-39082355D01*
X145114694Y-39082353D01*
X145084274Y-39079500D01*
X145084266Y-39079500D01*
X144475734Y-39079500D01*
X144475725Y-39079500D01*
X144445305Y-39082353D01*
X144445296Y-39082355D01*
X144317116Y-39127207D01*
X144207855Y-39207845D01*
X144207845Y-39207855D01*
X144127207Y-39317116D01*
X144082355Y-39445296D01*
X144082353Y-39445305D01*
X144079500Y-39475725D01*
X144079500Y-40534274D01*
X144082353Y-40564694D01*
X144082355Y-40564703D01*
X144127207Y-40692883D01*
X144207845Y-40802144D01*
X144207847Y-40802146D01*
X144207850Y-40802150D01*
X144207853Y-40802152D01*
X144207855Y-40802154D01*
X144317116Y-40882792D01*
X144317117Y-40882792D01*
X144317118Y-40882793D01*
X144367013Y-40900252D01*
X144388198Y-40907665D01*
X144436878Y-40944730D01*
X144454500Y-41001109D01*
X144454500Y-41745500D01*
X144435593Y-41803691D01*
X144386093Y-41839655D01*
X144355500Y-41844500D01*
X143295252Y-41844500D01*
X143295251Y-41844500D01*
X143295241Y-41844501D01*
X143236772Y-41856132D01*
X143236766Y-41856134D01*
X143170451Y-41900445D01*
X143170445Y-41900451D01*
X143126134Y-41966766D01*
X143126132Y-41966772D01*
X143114501Y-42025241D01*
X143114500Y-42025253D01*
X143114500Y-42439166D01*
X143095593Y-42497357D01*
X143085504Y-42509170D01*
X140229170Y-45365504D01*
X140174653Y-45393281D01*
X140159166Y-45394500D01*
X138985970Y-45394500D01*
X138927779Y-45375593D01*
X138907428Y-45355767D01*
X138858285Y-45291722D01*
X138858282Y-45291718D01*
X138858277Y-45291714D01*
X138858276Y-45291713D01*
X138732838Y-45195462D01*
X138586766Y-45134957D01*
X138586758Y-45134955D01*
X138430001Y-45114318D01*
X138429999Y-45114318D01*
X138273241Y-45134955D01*
X138273233Y-45134957D01*
X138127161Y-45195462D01*
X138127160Y-45195462D01*
X138001723Y-45291713D01*
X138001713Y-45291723D01*
X137905462Y-45417160D01*
X137905462Y-45417161D01*
X137844957Y-45563233D01*
X137844955Y-45563241D01*
X137824318Y-45719999D01*
X137824318Y-45720000D01*
X137844955Y-45876758D01*
X137844957Y-45876766D01*
X137905462Y-46022838D01*
X137905462Y-46022839D01*
X137999256Y-46145074D01*
X138001718Y-46148282D01*
X138127159Y-46244536D01*
X138127160Y-46244536D01*
X138127161Y-46244537D01*
X138139232Y-46249537D01*
X138273238Y-46305044D01*
X138390809Y-46320522D01*
X138429999Y-46325682D01*
X138430000Y-46325682D01*
X138430001Y-46325682D01*
X138461352Y-46321554D01*
X138586762Y-46305044D01*
X138732841Y-46244536D01*
X138858282Y-46148282D01*
X138907428Y-46084232D01*
X138957852Y-46049577D01*
X138985970Y-46045500D01*
X140316466Y-46045500D01*
X140325094Y-46045876D01*
X140363807Y-46049264D01*
X140401354Y-46039202D01*
X140409784Y-46037334D01*
X140448045Y-46030588D01*
X140449345Y-46029838D01*
X140473236Y-46019942D01*
X140473464Y-46019880D01*
X140474684Y-46019554D01*
X140506533Y-45997251D01*
X140513779Y-45992635D01*
X140547455Y-45973194D01*
X140572443Y-45943413D01*
X140578254Y-45937070D01*
X140695324Y-45820000D01*
X148814767Y-45820000D01*
X148825190Y-45925831D01*
X148825191Y-45925836D01*
X148885232Y-46123762D01*
X148885234Y-46123767D01*
X148982724Y-46306160D01*
X148982731Y-46306170D01*
X149113940Y-46466050D01*
X149113949Y-46466059D01*
X149273829Y-46597268D01*
X149273839Y-46597275D01*
X149456232Y-46694765D01*
X149456237Y-46694767D01*
X149654166Y-46754808D01*
X149759998Y-46765231D01*
X149760000Y-46765230D01*
X149760000Y-46210764D01*
X149824237Y-46220000D01*
X149895763Y-46220000D01*
X149960000Y-46210764D01*
X149960000Y-46765230D01*
X149960001Y-46765231D01*
X150065833Y-46754808D01*
X150263762Y-46694767D01*
X150263767Y-46694765D01*
X150446160Y-46597275D01*
X150446170Y-46597268D01*
X150606050Y-46466059D01*
X150606059Y-46466050D01*
X150737268Y-46306170D01*
X150737275Y-46306160D01*
X150834765Y-46123767D01*
X150834767Y-46123762D01*
X150894808Y-45925836D01*
X150894809Y-45925831D01*
X150905232Y-45820000D01*
X151354767Y-45820000D01*
X151365190Y-45925831D01*
X151365191Y-45925836D01*
X151425232Y-46123762D01*
X151425234Y-46123767D01*
X151522724Y-46306160D01*
X151522731Y-46306170D01*
X151653940Y-46466050D01*
X151653949Y-46466059D01*
X151813829Y-46597268D01*
X151813839Y-46597275D01*
X151996232Y-46694765D01*
X151996237Y-46694767D01*
X152194166Y-46754808D01*
X152299998Y-46765231D01*
X152300000Y-46765230D01*
X152300000Y-46210764D01*
X152364237Y-46220000D01*
X152435763Y-46220000D01*
X152500000Y-46210764D01*
X152500000Y-46765230D01*
X152500001Y-46765231D01*
X152605833Y-46754808D01*
X152803762Y-46694767D01*
X152803767Y-46694765D01*
X152986160Y-46597275D01*
X152986170Y-46597268D01*
X153146050Y-46466059D01*
X153146059Y-46466050D01*
X153277268Y-46306170D01*
X153277275Y-46306160D01*
X153374765Y-46123767D01*
X153374767Y-46123762D01*
X153434808Y-45925836D01*
X153434809Y-45925831D01*
X153445232Y-45820000D01*
X152891746Y-45820000D01*
X152900000Y-45791889D01*
X152900000Y-45648111D01*
X152891746Y-45620000D01*
X153445232Y-45620000D01*
X153445232Y-45619999D01*
X153434809Y-45514168D01*
X153434808Y-45514163D01*
X153374767Y-45316237D01*
X153374765Y-45316232D01*
X153277275Y-45133839D01*
X153277268Y-45133829D01*
X153146059Y-44973949D01*
X153146050Y-44973940D01*
X152986170Y-44842731D01*
X152986160Y-44842724D01*
X152803767Y-44745234D01*
X152803762Y-44745232D01*
X152605836Y-44685191D01*
X152605831Y-44685190D01*
X152500000Y-44674767D01*
X152500000Y-45229235D01*
X152435763Y-45220000D01*
X152364237Y-45220000D01*
X152300000Y-45229235D01*
X152300000Y-44674767D01*
X152299999Y-44674767D01*
X152194168Y-44685190D01*
X152194163Y-44685191D01*
X151996237Y-44745232D01*
X151996232Y-44745234D01*
X151813839Y-44842724D01*
X151813829Y-44842731D01*
X151653949Y-44973940D01*
X151653940Y-44973949D01*
X151522731Y-45133829D01*
X151522724Y-45133839D01*
X151425234Y-45316232D01*
X151425232Y-45316237D01*
X151365191Y-45514163D01*
X151365190Y-45514168D01*
X151354767Y-45619999D01*
X151354768Y-45620000D01*
X151908254Y-45620000D01*
X151900000Y-45648111D01*
X151900000Y-45791889D01*
X151908254Y-45820000D01*
X151354767Y-45820000D01*
X150905232Y-45820000D01*
X150351746Y-45820000D01*
X150360000Y-45791889D01*
X150360000Y-45648111D01*
X150351746Y-45620000D01*
X150905232Y-45620000D01*
X150905232Y-45619999D01*
X150894809Y-45514168D01*
X150894808Y-45514163D01*
X150834767Y-45316237D01*
X150834765Y-45316232D01*
X150737275Y-45133839D01*
X150737268Y-45133829D01*
X150606059Y-44973949D01*
X150606050Y-44973940D01*
X150446170Y-44842731D01*
X150446160Y-44842724D01*
X150263767Y-44745234D01*
X150263762Y-44745232D01*
X150065836Y-44685191D01*
X150065831Y-44685190D01*
X149960000Y-44674767D01*
X149960000Y-45229235D01*
X149895763Y-45220000D01*
X149824237Y-45220000D01*
X149760000Y-45229235D01*
X149760000Y-44674767D01*
X149759999Y-44674767D01*
X149654168Y-44685190D01*
X149654163Y-44685191D01*
X149456237Y-44745232D01*
X149456232Y-44745234D01*
X149273839Y-44842724D01*
X149273829Y-44842731D01*
X149113949Y-44973940D01*
X149113940Y-44973949D01*
X148982731Y-45133829D01*
X148982724Y-45133839D01*
X148885234Y-45316232D01*
X148885232Y-45316237D01*
X148825191Y-45514163D01*
X148825190Y-45514168D01*
X148814767Y-45619999D01*
X148814768Y-45620000D01*
X149368254Y-45620000D01*
X149360000Y-45648111D01*
X149360000Y-45791889D01*
X149368254Y-45820000D01*
X148814767Y-45820000D01*
X140695324Y-45820000D01*
X141450578Y-45064746D01*
X143114500Y-45064746D01*
X143114501Y-45064758D01*
X143126132Y-45123227D01*
X143126134Y-45123233D01*
X143133968Y-45134957D01*
X143170448Y-45189552D01*
X143236769Y-45233867D01*
X143281231Y-45242711D01*
X143295241Y-45245498D01*
X143295246Y-45245498D01*
X143295252Y-45245500D01*
X143295253Y-45245500D01*
X145834747Y-45245500D01*
X145834748Y-45245500D01*
X145893231Y-45233867D01*
X145959552Y-45189552D01*
X146003867Y-45123231D01*
X146015500Y-45064748D01*
X146015500Y-44025252D01*
X146003867Y-43966769D01*
X145959552Y-43900448D01*
X145956764Y-43898585D01*
X145893233Y-43856134D01*
X145893231Y-43856133D01*
X145893228Y-43856132D01*
X145893227Y-43856132D01*
X145834758Y-43844501D01*
X145834748Y-43844500D01*
X143295252Y-43844500D01*
X143295251Y-43844500D01*
X143295241Y-43844501D01*
X143236772Y-43856132D01*
X143236766Y-43856134D01*
X143170451Y-43900445D01*
X143170445Y-43900451D01*
X143126134Y-43966766D01*
X143126132Y-43966772D01*
X143114501Y-44025241D01*
X143114500Y-44025253D01*
X143114500Y-45064746D01*
X141450578Y-45064746D01*
X143240829Y-43274496D01*
X143295346Y-43246719D01*
X143310833Y-43245500D01*
X145834747Y-43245500D01*
X145834748Y-43245500D01*
X145893231Y-43233867D01*
X145959552Y-43189552D01*
X146003867Y-43123231D01*
X146015500Y-43064748D01*
X146015500Y-42025252D01*
X146003867Y-41966769D01*
X145959552Y-41900448D01*
X145959548Y-41900445D01*
X145893233Y-41856134D01*
X145893231Y-41856133D01*
X145893228Y-41856132D01*
X145893227Y-41856132D01*
X145834758Y-41844501D01*
X145834748Y-41844500D01*
X145834747Y-41844500D01*
X145204500Y-41844500D01*
X145146309Y-41825593D01*
X145110345Y-41776093D01*
X145105500Y-41745500D01*
X145105500Y-41001109D01*
X145124407Y-40942918D01*
X145171802Y-40907665D01*
X145183452Y-40903588D01*
X145242882Y-40882793D01*
X145352150Y-40802150D01*
X145432793Y-40692882D01*
X145477646Y-40564699D01*
X145480499Y-40534273D01*
X145480500Y-40534273D01*
X145480500Y-40429500D01*
X145499407Y-40371309D01*
X145548907Y-40335345D01*
X145579500Y-40330500D01*
X148414166Y-40330500D01*
X148472357Y-40349407D01*
X148484170Y-40359496D01*
X149505504Y-41380830D01*
X149533281Y-41435347D01*
X149534500Y-41450834D01*
X149534500Y-42030500D01*
X149515593Y-42088691D01*
X149466093Y-42124655D01*
X149435500Y-42129500D01*
X148990252Y-42129500D01*
X148990251Y-42129500D01*
X148990241Y-42129501D01*
X148931772Y-42141132D01*
X148931766Y-42141134D01*
X148865451Y-42185445D01*
X148865445Y-42185451D01*
X148821134Y-42251766D01*
X148821132Y-42251772D01*
X148809501Y-42310241D01*
X148809500Y-42310253D01*
X148809500Y-44049746D01*
X148809501Y-44049758D01*
X148821132Y-44108227D01*
X148821134Y-44108233D01*
X148865445Y-44174548D01*
X148865448Y-44174552D01*
X148931769Y-44218867D01*
X148976231Y-44227711D01*
X148990241Y-44230498D01*
X148990246Y-44230498D01*
X148990252Y-44230500D01*
X148990253Y-44230500D01*
X150729747Y-44230500D01*
X150729748Y-44230500D01*
X150788231Y-44218867D01*
X150854552Y-44174552D01*
X150898867Y-44108231D01*
X150910500Y-44049748D01*
X150910500Y-43604500D01*
X150929407Y-43546309D01*
X150978907Y-43510345D01*
X151009500Y-43505500D01*
X151327546Y-43505500D01*
X151385737Y-43524407D01*
X151421701Y-43573907D01*
X151422267Y-43575709D01*
X151422831Y-43577568D01*
X151424769Y-43583956D01*
X151522316Y-43766452D01*
X151632286Y-43900451D01*
X151653590Y-43926410D01*
X151653595Y-43926414D01*
X151813547Y-44057683D01*
X151813548Y-44057683D01*
X151813550Y-44057685D01*
X151996046Y-44155232D01*
X152133997Y-44197078D01*
X152194065Y-44215300D01*
X152194070Y-44215301D01*
X152399997Y-44235583D01*
X152400000Y-44235583D01*
X152400003Y-44235583D01*
X152605929Y-44215301D01*
X152605934Y-44215300D01*
X152803954Y-44155232D01*
X152986450Y-44057685D01*
X153146410Y-43926410D01*
X153277685Y-43766450D01*
X153375232Y-43583954D01*
X153377717Y-43575758D01*
X153412703Y-43525564D01*
X153470512Y-43505519D01*
X153472454Y-43505500D01*
X153494166Y-43505500D01*
X153552357Y-43524407D01*
X153564170Y-43534496D01*
X153950504Y-43920830D01*
X153978281Y-43975347D01*
X153979500Y-43990834D01*
X153979500Y-54220165D01*
X153960593Y-54278356D01*
X153911093Y-54314320D01*
X153849907Y-54314320D01*
X153810496Y-54290169D01*
X153388502Y-53868175D01*
X153360725Y-53813658D01*
X153370296Y-53753226D01*
X153371154Y-53751582D01*
X153375232Y-53743954D01*
X153435300Y-53545934D01*
X153435301Y-53545929D01*
X153455583Y-53340003D01*
X153455583Y-53339996D01*
X153435301Y-53134070D01*
X153435300Y-53134065D01*
X153405251Y-53035007D01*
X153375232Y-52936046D01*
X153277685Y-52753550D01*
X153229383Y-52694694D01*
X153146414Y-52593595D01*
X153146410Y-52593590D01*
X153146404Y-52593585D01*
X152986452Y-52462316D01*
X152803954Y-52364768D01*
X152605934Y-52304699D01*
X152605929Y-52304698D01*
X152400003Y-52284417D01*
X152399997Y-52284417D01*
X152194070Y-52304698D01*
X152194065Y-52304699D01*
X151996045Y-52364768D01*
X151813547Y-52462316D01*
X151653595Y-52593585D01*
X151653585Y-52593595D01*
X151522316Y-52753547D01*
X151424768Y-52936045D01*
X151364699Y-53134065D01*
X151364698Y-53134070D01*
X151344417Y-53339996D01*
X151344417Y-53340003D01*
X151364698Y-53545929D01*
X151364699Y-53545934D01*
X151424768Y-53743954D01*
X151522316Y-53926452D01*
X151653585Y-54086404D01*
X151653590Y-54086410D01*
X151653595Y-54086414D01*
X151813547Y-54217683D01*
X151813548Y-54217683D01*
X151813550Y-54217685D01*
X151996046Y-54315232D01*
X152133997Y-54357078D01*
X152194065Y-54375300D01*
X152194070Y-54375301D01*
X152399997Y-54395583D01*
X152400000Y-54395583D01*
X152400003Y-54395583D01*
X152605929Y-54375301D01*
X152605934Y-54375300D01*
X152803954Y-54315232D01*
X152811503Y-54311196D01*
X152871733Y-54300439D01*
X152926786Y-54327139D01*
X152928175Y-54328502D01*
X153315503Y-54715829D01*
X153343281Y-54770346D01*
X153344500Y-54785833D01*
X153344500Y-55098277D01*
X153325593Y-55156468D01*
X153276093Y-55192432D01*
X153214907Y-55192432D01*
X153168972Y-55161082D01*
X153146414Y-55133595D01*
X153146410Y-55133590D01*
X153133790Y-55123233D01*
X152986452Y-55002316D01*
X152803954Y-54904768D01*
X152605934Y-54844699D01*
X152605929Y-54844698D01*
X152400003Y-54824417D01*
X152399997Y-54824417D01*
X152194070Y-54844698D01*
X152194065Y-54844699D01*
X151996052Y-54904766D01*
X151996049Y-54904767D01*
X151996046Y-54904768D01*
X151996044Y-54904768D01*
X151996041Y-54904770D01*
X151988489Y-54908807D01*
X151928255Y-54919558D01*
X151873206Y-54892852D01*
X151871823Y-54891497D01*
X151308268Y-54327942D01*
X151302434Y-54321574D01*
X151277456Y-54291806D01*
X151243795Y-54272372D01*
X151236512Y-54267732D01*
X151204685Y-54245446D01*
X151204679Y-54245443D01*
X151203224Y-54245054D01*
X151179348Y-54235164D01*
X151178045Y-54234411D01*
X151139779Y-54227664D01*
X151131350Y-54225795D01*
X151106448Y-54219123D01*
X151093807Y-54215736D01*
X151093806Y-54215736D01*
X151093805Y-54215736D01*
X151055095Y-54219123D01*
X151046466Y-54219500D01*
X150706504Y-54219500D01*
X150648313Y-54200593D01*
X150612349Y-54151093D01*
X150612349Y-54089907D01*
X150629976Y-54057695D01*
X150656610Y-54025241D01*
X150737685Y-53926450D01*
X150835232Y-53743954D01*
X150895300Y-53545934D01*
X150895301Y-53545929D01*
X150915583Y-53340003D01*
X150915583Y-53339996D01*
X150895301Y-53134070D01*
X150895300Y-53134065D01*
X150865251Y-53035007D01*
X150835232Y-52936046D01*
X150833150Y-52932150D01*
X150831195Y-52928493D01*
X150820440Y-52868261D01*
X150847142Y-52813210D01*
X150848453Y-52811871D01*
X151252066Y-52408258D01*
X151258425Y-52402433D01*
X151288194Y-52377455D01*
X151307635Y-52343779D01*
X151312251Y-52336533D01*
X151334554Y-52304684D01*
X151334942Y-52303236D01*
X151344838Y-52279345D01*
X151345588Y-52278045D01*
X151352334Y-52239784D01*
X151354204Y-52231348D01*
X151364264Y-52193806D01*
X151360877Y-52155094D01*
X151360500Y-52146465D01*
X151360500Y-51465964D01*
X151379407Y-51407773D01*
X151428907Y-51371809D01*
X151490093Y-51371809D01*
X151536027Y-51403158D01*
X151653590Y-51546410D01*
X151653595Y-51546414D01*
X151813547Y-51677683D01*
X151813548Y-51677683D01*
X151813550Y-51677685D01*
X151996046Y-51775232D01*
X152128803Y-51815503D01*
X152194065Y-51835300D01*
X152194070Y-51835301D01*
X152399997Y-51855583D01*
X152400000Y-51855583D01*
X152400003Y-51855583D01*
X152605929Y-51835301D01*
X152605934Y-51835300D01*
X152803954Y-51775232D01*
X152986450Y-51677685D01*
X153146410Y-51546410D01*
X153277685Y-51386450D01*
X153375232Y-51203954D01*
X153435300Y-51005934D01*
X153435301Y-51005929D01*
X153455583Y-50800003D01*
X153455583Y-50799996D01*
X153435301Y-50594070D01*
X153435300Y-50594065D01*
X153417078Y-50533997D01*
X153375232Y-50396046D01*
X153277685Y-50213550D01*
X153274806Y-50210042D01*
X153146414Y-50053595D01*
X153146410Y-50053590D01*
X153111880Y-50025252D01*
X152986452Y-49922316D01*
X152803954Y-49824768D01*
X152605934Y-49764699D01*
X152605929Y-49764698D01*
X152400003Y-49744417D01*
X152399997Y-49744417D01*
X152194070Y-49764698D01*
X152194065Y-49764699D01*
X151996045Y-49824768D01*
X151813547Y-49922316D01*
X151653595Y-50053585D01*
X151653585Y-50053595D01*
X151522316Y-50213547D01*
X151519616Y-50217590D01*
X151517480Y-50216163D01*
X151480416Y-50251762D01*
X151419803Y-50260112D01*
X151365858Y-50231240D01*
X151350887Y-50207207D01*
X151349925Y-50207763D01*
X151344840Y-50198958D01*
X151334942Y-50175066D01*
X151334554Y-50173615D01*
X151326752Y-50162472D01*
X151312264Y-50141781D01*
X151307630Y-50134508D01*
X151288194Y-50100844D01*
X151258428Y-50075867D01*
X151252060Y-50070033D01*
X150589969Y-49407942D01*
X150584135Y-49401574D01*
X150559157Y-49371806D01*
X150525496Y-49352372D01*
X150518213Y-49347732D01*
X150486386Y-49325446D01*
X150486380Y-49325443D01*
X150484925Y-49325054D01*
X150461049Y-49315164D01*
X150452245Y-49310081D01*
X150453472Y-49307955D01*
X150415258Y-49278096D01*
X150398396Y-49219280D01*
X150419326Y-49161786D01*
X150443307Y-49141726D01*
X150442410Y-49140384D01*
X150446445Y-49137687D01*
X150446450Y-49137685D01*
X150606410Y-49006410D01*
X150737685Y-48846450D01*
X150835232Y-48663954D01*
X150895300Y-48465934D01*
X150895301Y-48465929D01*
X150915583Y-48260003D01*
X151344417Y-48260003D01*
X151364698Y-48465929D01*
X151364699Y-48465934D01*
X151424768Y-48663954D01*
X151522316Y-48846452D01*
X151643189Y-48993736D01*
X151653590Y-49006410D01*
X151653595Y-49006414D01*
X151813547Y-49137683D01*
X151813548Y-49137683D01*
X151813550Y-49137685D01*
X151996046Y-49235232D01*
X152133997Y-49277078D01*
X152194065Y-49295300D01*
X152194070Y-49295301D01*
X152399997Y-49315583D01*
X152400000Y-49315583D01*
X152400003Y-49315583D01*
X152605929Y-49295301D01*
X152605934Y-49295300D01*
X152643584Y-49283879D01*
X152803954Y-49235232D01*
X152986450Y-49137685D01*
X153146410Y-49006410D01*
X153277685Y-48846450D01*
X153375232Y-48663954D01*
X153435300Y-48465934D01*
X153435301Y-48465929D01*
X153455583Y-48260003D01*
X153455583Y-48259996D01*
X153435301Y-48054070D01*
X153435300Y-48054065D01*
X153408818Y-47966766D01*
X153375232Y-47856046D01*
X153277685Y-47673550D01*
X153146410Y-47513590D01*
X153115481Y-47488207D01*
X152986452Y-47382316D01*
X152803954Y-47284768D01*
X152605934Y-47224699D01*
X152605929Y-47224698D01*
X152400003Y-47204417D01*
X152399997Y-47204417D01*
X152194070Y-47224698D01*
X152194065Y-47224699D01*
X151996045Y-47284768D01*
X151813547Y-47382316D01*
X151653595Y-47513585D01*
X151653585Y-47513595D01*
X151522316Y-47673547D01*
X151424768Y-47856045D01*
X151364699Y-48054065D01*
X151364698Y-48054070D01*
X151344417Y-48259996D01*
X151344417Y-48260003D01*
X150915583Y-48260003D01*
X150915583Y-48259996D01*
X150895301Y-48054070D01*
X150895300Y-48054065D01*
X150868818Y-47966766D01*
X150835232Y-47856046D01*
X150737685Y-47673550D01*
X150606410Y-47513590D01*
X150575481Y-47488207D01*
X150446452Y-47382316D01*
X150263954Y-47284768D01*
X150065934Y-47224699D01*
X150065929Y-47224698D01*
X149860003Y-47204417D01*
X149859997Y-47204417D01*
X149654070Y-47224698D01*
X149654065Y-47224699D01*
X149456045Y-47284768D01*
X149272624Y-47382810D01*
X149225955Y-47394500D01*
X145979185Y-47394500D01*
X145920994Y-47375593D01*
X145885030Y-47326093D01*
X145885030Y-47264907D01*
X145920994Y-47215407D01*
X145924183Y-47213185D01*
X145937305Y-47204417D01*
X145959552Y-47189552D01*
X146003867Y-47123231D01*
X146015500Y-47064748D01*
X146015500Y-46025252D01*
X146015020Y-46022841D01*
X146008477Y-45989944D01*
X146003867Y-45966769D01*
X145959552Y-45900448D01*
X145959548Y-45900445D01*
X145893233Y-45856134D01*
X145893231Y-45856133D01*
X145893228Y-45856132D01*
X145893227Y-45856132D01*
X145834758Y-45844501D01*
X145834748Y-45844500D01*
X143295252Y-45844500D01*
X143295251Y-45844500D01*
X143295241Y-45844501D01*
X143236772Y-45856132D01*
X143236766Y-45856134D01*
X143170451Y-45900445D01*
X143170445Y-45900451D01*
X143126134Y-45966766D01*
X143126132Y-45966772D01*
X143114501Y-46025241D01*
X143114500Y-46025253D01*
X143114500Y-47064746D01*
X143114501Y-47064758D01*
X143126132Y-47123227D01*
X143126134Y-47123233D01*
X143133968Y-47134957D01*
X143170448Y-47189552D01*
X143179293Y-47195462D01*
X143205817Y-47213185D01*
X143243696Y-47261235D01*
X143246098Y-47322373D01*
X143212105Y-47373247D01*
X143154701Y-47394424D01*
X143150815Y-47394500D01*
X141525970Y-47394500D01*
X141467779Y-47375593D01*
X141447428Y-47355767D01*
X141398285Y-47291722D01*
X141398282Y-47291718D01*
X141398277Y-47291714D01*
X141398276Y-47291713D01*
X141310941Y-47224699D01*
X141272841Y-47195464D01*
X141272840Y-47195463D01*
X141272838Y-47195462D01*
X141126766Y-47134957D01*
X141126758Y-47134955D01*
X140970001Y-47114318D01*
X140969999Y-47114318D01*
X140813241Y-47134955D01*
X140813233Y-47134957D01*
X140667161Y-47195462D01*
X140667160Y-47195462D01*
X140541723Y-47291713D01*
X140541714Y-47291722D01*
X140492572Y-47355767D01*
X140442148Y-47390423D01*
X140414030Y-47394500D01*
X127778286Y-47394500D01*
X127720095Y-47375593D01*
X127684131Y-47326093D01*
X127684131Y-47264907D01*
X127720095Y-47215407D01*
X127723284Y-47213185D01*
X127759189Y-47189193D01*
X127759193Y-47189189D01*
X127803396Y-47123036D01*
X127814999Y-47064700D01*
X127815000Y-47064697D01*
X127815000Y-46645001D01*
X127814999Y-46645000D01*
X126465001Y-46645000D01*
X126465000Y-46645001D01*
X126465000Y-47244999D01*
X126465001Y-47245000D01*
X126986891Y-47245000D01*
X127045082Y-47263907D01*
X127081046Y-47313407D01*
X127081046Y-47374593D01*
X127045082Y-47424093D01*
X127043671Y-47425099D01*
X127018483Y-47442734D01*
X127011207Y-47447369D01*
X126977545Y-47466805D01*
X126952568Y-47496571D01*
X126946735Y-47502936D01*
X126634170Y-47815503D01*
X126579653Y-47843281D01*
X126564166Y-47844500D01*
X125095252Y-47844500D01*
X125095251Y-47844500D01*
X125095241Y-47844501D01*
X125036772Y-47856132D01*
X125036766Y-47856134D01*
X124970451Y-47900445D01*
X124970445Y-47900451D01*
X124926134Y-47966766D01*
X124926132Y-47966772D01*
X124914501Y-48025241D01*
X124914500Y-48025253D01*
X124914500Y-49064746D01*
X124914501Y-49064758D01*
X124926132Y-49123227D01*
X124926134Y-49123233D01*
X124970445Y-49189548D01*
X124970448Y-49189552D01*
X125036769Y-49233867D01*
X125081231Y-49242711D01*
X125095241Y-49245498D01*
X125095246Y-49245498D01*
X125095252Y-49245500D01*
X125095253Y-49245500D01*
X126965165Y-49245500D01*
X127023356Y-49264407D01*
X127059320Y-49313907D01*
X127059320Y-49375093D01*
X127035169Y-49414503D01*
X126634170Y-49815503D01*
X126579653Y-49843281D01*
X126564166Y-49844500D01*
X125095252Y-49844500D01*
X125095251Y-49844500D01*
X125095241Y-49844501D01*
X125036772Y-49856132D01*
X125036766Y-49856134D01*
X124970451Y-49900445D01*
X124970445Y-49900451D01*
X124926134Y-49966766D01*
X124926132Y-49966772D01*
X124914501Y-50025241D01*
X124914500Y-50025253D01*
X124914500Y-51064746D01*
X124914501Y-51064758D01*
X124926132Y-51123227D01*
X124926134Y-51123233D01*
X124970445Y-51189548D01*
X124970448Y-51189552D01*
X125036769Y-51233867D01*
X125081231Y-51242711D01*
X125095241Y-51245498D01*
X125095246Y-51245498D01*
X125095252Y-51245500D01*
X125095253Y-51245500D01*
X126986177Y-51245500D01*
X127044368Y-51264407D01*
X127080332Y-51313907D01*
X127080332Y-51375093D01*
X127044368Y-51424593D01*
X127042989Y-51425576D01*
X127033743Y-51432049D01*
X127018483Y-51442734D01*
X127011207Y-51447369D01*
X126977545Y-51466805D01*
X126952568Y-51496571D01*
X126946735Y-51502936D01*
X126634170Y-51815503D01*
X126579653Y-51843281D01*
X126564166Y-51844500D01*
X125095252Y-51844500D01*
X125095251Y-51844500D01*
X125095241Y-51844501D01*
X125036772Y-51856132D01*
X125036766Y-51856134D01*
X124970451Y-51900445D01*
X124970445Y-51900451D01*
X124926134Y-51966766D01*
X124926132Y-51966772D01*
X124914501Y-52025241D01*
X124914500Y-52025253D01*
X124914500Y-53064746D01*
X124914501Y-53064758D01*
X124926132Y-53123227D01*
X124926134Y-53123233D01*
X124970445Y-53189548D01*
X124970448Y-53189552D01*
X125036769Y-53233867D01*
X125081231Y-53242711D01*
X125095241Y-53245498D01*
X125095246Y-53245498D01*
X125095252Y-53245500D01*
X125095253Y-53245500D01*
X127634747Y-53245500D01*
X127634748Y-53245500D01*
X127693231Y-53233867D01*
X127759552Y-53189552D01*
X127803867Y-53123231D01*
X127815500Y-53064748D01*
X127815500Y-52144500D01*
X127834407Y-52086309D01*
X127883907Y-52050345D01*
X127914500Y-52045500D01*
X140414030Y-52045500D01*
X140472221Y-52064407D01*
X140492570Y-52084231D01*
X140541718Y-52148282D01*
X140541722Y-52148285D01*
X140541723Y-52148286D01*
X140571082Y-52170813D01*
X140667159Y-52244536D01*
X140667160Y-52244536D01*
X140667161Y-52244537D01*
X140813233Y-52305042D01*
X140813238Y-52305044D01*
X140930809Y-52320522D01*
X140969999Y-52325682D01*
X140970000Y-52325682D01*
X140970001Y-52325682D01*
X141001352Y-52321554D01*
X141126762Y-52305044D01*
X141272841Y-52244536D01*
X141398282Y-52148282D01*
X141447428Y-52084232D01*
X141497852Y-52049577D01*
X141525970Y-52045500D01*
X143015500Y-52045500D01*
X143073691Y-52064407D01*
X143109655Y-52113907D01*
X143114500Y-52144500D01*
X143114500Y-53064746D01*
X143114501Y-53064758D01*
X143126132Y-53123227D01*
X143126134Y-53123233D01*
X143170445Y-53189548D01*
X143170448Y-53189552D01*
X143236769Y-53233867D01*
X143281231Y-53242711D01*
X143295241Y-53245498D01*
X143295246Y-53245498D01*
X143295252Y-53245500D01*
X143295253Y-53245500D01*
X145834747Y-53245500D01*
X145834748Y-53245500D01*
X145893231Y-53233867D01*
X145959552Y-53189552D01*
X146003867Y-53123231D01*
X146015500Y-53064748D01*
X146015500Y-52144500D01*
X146034407Y-52086309D01*
X146083907Y-52050345D01*
X146114500Y-52045500D01*
X148921466Y-52045500D01*
X148930094Y-52045876D01*
X148968807Y-52049264D01*
X149006354Y-52039202D01*
X149014784Y-52037334D01*
X149053045Y-52030588D01*
X149054345Y-52029838D01*
X149078236Y-52019942D01*
X149078464Y-52019880D01*
X149079684Y-52019554D01*
X149111533Y-51997251D01*
X149118779Y-51992635D01*
X149152455Y-51973194D01*
X149177443Y-51943413D01*
X149183254Y-51937070D01*
X149331824Y-51788500D01*
X149386339Y-51760725D01*
X149446771Y-51770296D01*
X149448493Y-51771195D01*
X149456046Y-51775232D01*
X149567841Y-51809144D01*
X149654065Y-51835300D01*
X149654070Y-51835301D01*
X149859997Y-51855583D01*
X149860000Y-51855583D01*
X149860003Y-51855583D01*
X150065929Y-51835301D01*
X150065934Y-51835300D01*
X150263954Y-51775232D01*
X150446450Y-51677685D01*
X150547697Y-51594594D01*
X150604671Y-51572295D01*
X150663874Y-51587743D01*
X150702690Y-51635040D01*
X150709500Y-51671123D01*
X150709500Y-51989166D01*
X150690593Y-52047357D01*
X150680503Y-52059170D01*
X150388175Y-52351497D01*
X150333659Y-52379274D01*
X150273227Y-52369703D01*
X150271504Y-52368803D01*
X150263959Y-52364770D01*
X150263954Y-52364768D01*
X150065934Y-52304699D01*
X150065929Y-52304698D01*
X149860003Y-52284417D01*
X149859997Y-52284417D01*
X149654070Y-52304698D01*
X149654065Y-52304699D01*
X149456045Y-52364768D01*
X149273547Y-52462316D01*
X149113595Y-52593585D01*
X149113585Y-52593595D01*
X148982316Y-52753547D01*
X148884768Y-52936045D01*
X148824699Y-53134065D01*
X148824698Y-53134070D01*
X148804417Y-53339996D01*
X148804417Y-53340003D01*
X148824698Y-53545929D01*
X148824699Y-53545934D01*
X148884768Y-53743954D01*
X148982316Y-53926452D01*
X149090024Y-54057695D01*
X149112324Y-54114672D01*
X149096875Y-54173875D01*
X149049578Y-54212690D01*
X149013496Y-54219500D01*
X146114500Y-54219500D01*
X146056309Y-54200593D01*
X146020345Y-54151093D01*
X146015500Y-54120500D01*
X146015500Y-54025253D01*
X146015498Y-54025241D01*
X146012711Y-54011231D01*
X146003867Y-53966769D01*
X145959552Y-53900448D01*
X145911253Y-53868175D01*
X145893233Y-53856134D01*
X145893231Y-53856133D01*
X145893228Y-53856132D01*
X145893227Y-53856132D01*
X145834758Y-53844501D01*
X145834748Y-53844500D01*
X143295252Y-53844500D01*
X143295251Y-53844500D01*
X143295241Y-53844501D01*
X143236772Y-53856132D01*
X143236766Y-53856134D01*
X143170451Y-53900445D01*
X143170445Y-53900451D01*
X143126134Y-53966766D01*
X143126132Y-53966772D01*
X143114501Y-54025241D01*
X143114500Y-54025253D01*
X143114500Y-54945500D01*
X143095593Y-55003691D01*
X143046093Y-55039655D01*
X143015500Y-55044500D01*
X127914500Y-55044500D01*
X127856309Y-55025593D01*
X127820345Y-54976093D01*
X127815500Y-54945500D01*
X127815500Y-54025253D01*
X127815498Y-54025241D01*
X127812711Y-54011231D01*
X127803867Y-53966769D01*
X127759552Y-53900448D01*
X127711253Y-53868175D01*
X127693233Y-53856134D01*
X127693231Y-53856133D01*
X127693228Y-53856132D01*
X127693227Y-53856132D01*
X127634758Y-53844501D01*
X127634748Y-53844500D01*
X125095252Y-53844500D01*
X125095251Y-53844500D01*
X125095241Y-53844501D01*
X125036772Y-53856132D01*
X125036766Y-53856134D01*
X124970451Y-53900445D01*
X124970445Y-53900451D01*
X124926134Y-53966766D01*
X124926132Y-53966772D01*
X124914501Y-54025241D01*
X124914500Y-54025253D01*
X124914500Y-55064746D01*
X124914501Y-55064758D01*
X124926132Y-55123227D01*
X124926134Y-55123233D01*
X124958897Y-55172265D01*
X124970448Y-55189552D01*
X125036769Y-55233867D01*
X125081231Y-55242711D01*
X125095241Y-55245498D01*
X125095246Y-55245498D01*
X125095252Y-55245500D01*
X126564165Y-55245500D01*
X126622356Y-55264407D01*
X126634169Y-55274496D01*
X126946741Y-55587068D01*
X126952565Y-55593424D01*
X126977545Y-55623194D01*
X127011208Y-55642629D01*
X127018487Y-55647267D01*
X127042961Y-55664404D01*
X127079783Y-55713269D01*
X127080851Y-55774445D01*
X127045756Y-55824565D01*
X126987904Y-55844485D01*
X126986177Y-55844500D01*
X125095252Y-55844500D01*
X125095251Y-55844500D01*
X125095241Y-55844501D01*
X125036772Y-55856132D01*
X125036766Y-55856134D01*
X124970451Y-55900445D01*
X124970445Y-55900451D01*
X124926134Y-55966766D01*
X124926132Y-55966772D01*
X124914501Y-56025241D01*
X124914500Y-56025253D01*
X124914500Y-57064746D01*
X122360909Y-57064746D01*
X122398277Y-57027378D01*
X122402598Y-57023312D01*
X122448183Y-56982929D01*
X122482782Y-56932802D01*
X122486324Y-56927990D01*
X122523873Y-56880062D01*
X122523872Y-56880062D01*
X122523877Y-56880057D01*
X122528967Y-56868745D01*
X122537766Y-56853144D01*
X122544818Y-56842930D01*
X122566412Y-56785988D01*
X122568702Y-56780461D01*
X122593694Y-56724932D01*
X122593695Y-56724930D01*
X122595929Y-56712736D01*
X122600743Y-56695465D01*
X122605140Y-56683872D01*
X122612483Y-56623388D01*
X122613373Y-56617542D01*
X122624357Y-56557606D01*
X122620680Y-56496832D01*
X122620500Y-56490856D01*
X122620500Y-55189085D01*
X122626057Y-55156385D01*
X122630144Y-55144704D01*
X122630146Y-55144699D01*
X122632999Y-55114273D01*
X122633000Y-55114273D01*
X122633000Y-55114203D01*
X123032501Y-55114203D01*
X123035350Y-55144600D01*
X123035350Y-55144602D01*
X123080154Y-55272647D01*
X123160707Y-55381790D01*
X123160709Y-55381792D01*
X123269852Y-55462345D01*
X123397898Y-55507149D01*
X123428289Y-55509999D01*
X123644998Y-55509999D01*
X123645000Y-55509998D01*
X123845000Y-55509998D01*
X123845001Y-55509999D01*
X124061703Y-55509999D01*
X124092100Y-55507149D01*
X124092102Y-55507149D01*
X124220147Y-55462345D01*
X124329290Y-55381792D01*
X124329292Y-55381790D01*
X124409845Y-55272647D01*
X124454649Y-55144601D01*
X124457499Y-55114211D01*
X124457500Y-55114210D01*
X124457500Y-54710001D01*
X124457499Y-54710000D01*
X123845001Y-54710000D01*
X123845000Y-54710001D01*
X123845000Y-55509998D01*
X123645000Y-55509998D01*
X123645000Y-54710001D01*
X123644999Y-54710000D01*
X123032502Y-54710000D01*
X123032501Y-54710001D01*
X123032501Y-55114203D01*
X122633000Y-55114203D01*
X122633000Y-54509999D01*
X123032500Y-54509999D01*
X123032501Y-54510000D01*
X123644999Y-54510000D01*
X123645000Y-54509999D01*
X123845000Y-54509999D01*
X123845001Y-54510000D01*
X124457498Y-54510000D01*
X124457499Y-54509999D01*
X124457499Y-54105796D01*
X124454649Y-54075399D01*
X124454649Y-54075397D01*
X124409845Y-53947352D01*
X124329292Y-53838209D01*
X124329290Y-53838207D01*
X124220147Y-53757654D01*
X124092101Y-53712850D01*
X124061711Y-53710000D01*
X123845001Y-53710000D01*
X123845000Y-53710001D01*
X123845000Y-54509999D01*
X123645000Y-54509999D01*
X123645000Y-53710001D01*
X123644999Y-53710000D01*
X123428296Y-53710000D01*
X123397899Y-53712850D01*
X123397897Y-53712850D01*
X123269852Y-53757654D01*
X123160709Y-53838207D01*
X123160707Y-53838209D01*
X123080154Y-53947352D01*
X123035350Y-54075398D01*
X123032500Y-54105788D01*
X123032500Y-54509999D01*
X122633000Y-54509999D01*
X122633000Y-54105727D01*
X122632999Y-54105725D01*
X122630146Y-54075301D01*
X122626055Y-54063608D01*
X122620500Y-54030913D01*
X122620500Y-53035007D01*
X122639407Y-52976816D01*
X122660713Y-52955351D01*
X122692150Y-52932150D01*
X122692150Y-52932148D01*
X122692152Y-52932148D01*
X122772792Y-52822883D01*
X122772791Y-52822883D01*
X122772793Y-52822882D01*
X122817646Y-52694699D01*
X122820499Y-52664273D01*
X122820500Y-52664273D01*
X122820500Y-52030727D01*
X122820499Y-52030725D01*
X122819488Y-52019942D01*
X122817646Y-52000301D01*
X122772793Y-51872118D01*
X122760996Y-51856134D01*
X122692154Y-51762855D01*
X122692152Y-51762853D01*
X122692150Y-51762850D01*
X122692146Y-51762847D01*
X122692144Y-51762845D01*
X122582883Y-51682207D01*
X122454703Y-51637355D01*
X122454694Y-51637353D01*
X122424274Y-51634500D01*
X122424266Y-51634500D01*
X121415734Y-51634500D01*
X121415725Y-51634500D01*
X121385305Y-51637353D01*
X121385296Y-51637355D01*
X121257116Y-51682207D01*
X121147855Y-51762845D01*
X121147845Y-51762855D01*
X121067207Y-51872116D01*
X121022355Y-52000296D01*
X121022353Y-52000305D01*
X121019500Y-52030725D01*
X121019500Y-52664274D01*
X121022353Y-52694694D01*
X121022355Y-52694703D01*
X121067207Y-52822883D01*
X121147847Y-52932148D01*
X121179287Y-52955351D01*
X121214880Y-53005118D01*
X121219500Y-53035007D01*
X121219500Y-54030913D01*
X121213945Y-54063608D01*
X121209853Y-54075301D01*
X121207000Y-54105725D01*
X121207000Y-55114274D01*
X121209853Y-55144694D01*
X121209855Y-55144704D01*
X121213943Y-55156385D01*
X121219500Y-55189085D01*
X121219500Y-56183835D01*
X121200593Y-56242026D01*
X121190504Y-56253839D01*
X119643839Y-57800504D01*
X119589322Y-57828281D01*
X119573835Y-57829500D01*
X118209000Y-57829500D01*
X118150809Y-57810593D01*
X118114845Y-57761093D01*
X118110000Y-57730500D01*
X118110000Y-50839274D01*
X121019500Y-50839274D01*
X121022353Y-50869694D01*
X121022355Y-50869703D01*
X121067207Y-50997883D01*
X121147845Y-51107144D01*
X121147847Y-51107146D01*
X121147850Y-51107150D01*
X121147853Y-51107152D01*
X121147855Y-51107154D01*
X121257116Y-51187792D01*
X121257117Y-51187792D01*
X121257118Y-51187793D01*
X121385301Y-51232646D01*
X121415725Y-51235499D01*
X121415727Y-51235500D01*
X121415734Y-51235500D01*
X122424273Y-51235500D01*
X122424273Y-51235499D01*
X122454699Y-51232646D01*
X122582882Y-51187793D01*
X122692150Y-51107150D01*
X122772793Y-50997882D01*
X122817646Y-50869699D01*
X122820499Y-50839273D01*
X122820500Y-50839273D01*
X122820500Y-50205727D01*
X122820499Y-50205725D01*
X122819986Y-50200254D01*
X122817646Y-50175301D01*
X122772793Y-50047118D01*
X122756655Y-50025252D01*
X122692150Y-49937850D01*
X122660712Y-49914648D01*
X122625119Y-49864880D01*
X122620500Y-49834992D01*
X122620500Y-48764203D01*
X122945001Y-48764203D01*
X122947850Y-48794600D01*
X122947850Y-48794602D01*
X122992654Y-48922647D01*
X123073207Y-49031790D01*
X123073209Y-49031792D01*
X123182352Y-49112345D01*
X123310398Y-49157149D01*
X123340789Y-49159999D01*
X123557498Y-49159999D01*
X123557500Y-49159998D01*
X123757500Y-49159998D01*
X123757501Y-49159999D01*
X123974203Y-49159999D01*
X124004600Y-49157149D01*
X124004602Y-49157149D01*
X124132647Y-49112345D01*
X124241790Y-49031792D01*
X124241792Y-49031790D01*
X124322345Y-48922647D01*
X124367149Y-48794601D01*
X124369999Y-48764211D01*
X124370000Y-48764210D01*
X124370000Y-48360001D01*
X124369999Y-48360000D01*
X123757501Y-48360000D01*
X123757500Y-48360001D01*
X123757500Y-49159998D01*
X123557500Y-49159998D01*
X123557500Y-48360001D01*
X123557499Y-48360000D01*
X122945002Y-48360000D01*
X122945001Y-48360001D01*
X122945001Y-48764203D01*
X122620500Y-48764203D01*
X122620500Y-48159999D01*
X122945000Y-48159999D01*
X122945001Y-48160000D01*
X123557499Y-48160000D01*
X123557500Y-48159999D01*
X123757500Y-48159999D01*
X123757501Y-48160000D01*
X124369998Y-48160000D01*
X124369999Y-48159999D01*
X124369999Y-47755796D01*
X124367149Y-47725399D01*
X124367149Y-47725397D01*
X124322345Y-47597352D01*
X124241792Y-47488209D01*
X124241790Y-47488207D01*
X124132647Y-47407654D01*
X124004601Y-47362850D01*
X123974211Y-47360000D01*
X123757501Y-47360000D01*
X123757500Y-47360001D01*
X123757500Y-48159999D01*
X123557500Y-48159999D01*
X123557500Y-47360001D01*
X123557499Y-47360000D01*
X123340796Y-47360000D01*
X123310399Y-47362850D01*
X123310397Y-47362850D01*
X123182352Y-47407654D01*
X123073209Y-47488207D01*
X123073207Y-47488209D01*
X122992654Y-47597352D01*
X122947850Y-47725398D01*
X122945000Y-47755788D01*
X122945000Y-48159999D01*
X122620500Y-48159999D01*
X122620500Y-47064700D01*
X124915000Y-47064700D01*
X124926603Y-47123036D01*
X124970806Y-47189189D01*
X124970810Y-47189193D01*
X125036963Y-47233396D01*
X125095299Y-47244999D01*
X125095303Y-47245000D01*
X126264999Y-47245000D01*
X126265000Y-47244999D01*
X126265000Y-46645001D01*
X126264999Y-46645000D01*
X124915001Y-46645000D01*
X124915000Y-46645001D01*
X124915000Y-47064700D01*
X122620500Y-47064700D01*
X122620500Y-46686164D01*
X122639407Y-46627973D01*
X122649496Y-46616160D01*
X122820657Y-46444999D01*
X124915000Y-46444999D01*
X124915001Y-46445000D01*
X126264999Y-46445000D01*
X126265000Y-46444999D01*
X126465000Y-46444999D01*
X126465001Y-46445000D01*
X127814999Y-46445000D01*
X127815000Y-46444999D01*
X127815000Y-46025302D01*
X127814999Y-46025299D01*
X127803396Y-45966963D01*
X127759193Y-45900810D01*
X127759189Y-45900806D01*
X127693036Y-45856603D01*
X127634700Y-45845000D01*
X126465001Y-45845000D01*
X126465000Y-45845001D01*
X126465000Y-46444999D01*
X126265000Y-46444999D01*
X126265000Y-45845001D01*
X126264999Y-45845000D01*
X125095299Y-45845000D01*
X125036963Y-45856603D01*
X124970810Y-45900806D01*
X124970806Y-45900810D01*
X124926603Y-45966963D01*
X124915000Y-46025299D01*
X124915000Y-46444999D01*
X122820657Y-46444999D01*
X123991160Y-45274496D01*
X124045677Y-45246719D01*
X124061164Y-45245500D01*
X127634747Y-45245500D01*
X127634748Y-45245500D01*
X127693231Y-45233867D01*
X127759552Y-45189552D01*
X127803867Y-45123231D01*
X127815500Y-45064748D01*
X127815500Y-44025252D01*
X127803867Y-43966769D01*
X127759552Y-43900448D01*
X127756764Y-43898585D01*
X127693233Y-43856134D01*
X127693231Y-43856133D01*
X127693228Y-43856132D01*
X127693227Y-43856132D01*
X127634758Y-43844501D01*
X127634748Y-43844500D01*
X127634747Y-43844500D01*
X123754155Y-43844500D01*
X123748177Y-43844319D01*
X123745007Y-43844127D01*
X123687395Y-43840641D01*
X123627470Y-43851622D01*
X123621562Y-43852521D01*
X123561126Y-43859860D01*
X123549529Y-43864258D01*
X123532282Y-43869066D01*
X123520067Y-43871305D01*
X123464534Y-43896298D01*
X123459013Y-43898585D01*
X123402070Y-43920181D01*
X123391852Y-43927234D01*
X123376261Y-43936027D01*
X123364948Y-43941119D01*
X123364944Y-43941122D01*
X123317003Y-43978680D01*
X123312190Y-43982221D01*
X123262071Y-44016816D01*
X123221688Y-44062398D01*
X123217591Y-44066751D01*
X121441743Y-45842598D01*
X121437390Y-45846695D01*
X121391816Y-45887071D01*
X121357224Y-45937186D01*
X121353690Y-45941988D01*
X121329244Y-45973194D01*
X121316121Y-45989944D01*
X121316120Y-45989944D01*
X121311028Y-46001259D01*
X121302230Y-46016858D01*
X121295181Y-46027070D01*
X121295180Y-46027071D01*
X121273593Y-46083993D01*
X121271306Y-46089515D01*
X121246305Y-46145066D01*
X121246302Y-46145074D01*
X121244065Y-46157282D01*
X121239258Y-46174527D01*
X121234860Y-46186125D01*
X121227521Y-46246561D01*
X121226622Y-46252469D01*
X121215641Y-46312395D01*
X121219319Y-46373175D01*
X121219500Y-46379154D01*
X121219500Y-47493686D01*
X121200593Y-47551877D01*
X121200155Y-47552474D01*
X121167207Y-47597116D01*
X121122355Y-47725296D01*
X121122353Y-47725305D01*
X121119500Y-47755725D01*
X121119500Y-48764274D01*
X121122353Y-48794694D01*
X121122355Y-48794703D01*
X121167206Y-48922881D01*
X121167207Y-48922882D01*
X121200154Y-48967524D01*
X121219497Y-49025570D01*
X121219500Y-49026312D01*
X121219500Y-49834992D01*
X121200593Y-49893183D01*
X121179288Y-49914648D01*
X121147849Y-49937850D01*
X121067207Y-50047116D01*
X121022355Y-50175296D01*
X121022353Y-50175305D01*
X121019500Y-50205725D01*
X121019500Y-50839274D01*
X118110000Y-50839274D01*
X118110000Y-43064700D01*
X124915000Y-43064700D01*
X124926603Y-43123036D01*
X124970806Y-43189189D01*
X124970810Y-43189193D01*
X125036963Y-43233396D01*
X125095299Y-43244999D01*
X125095303Y-43245000D01*
X126264999Y-43245000D01*
X126265000Y-43244999D01*
X126465000Y-43244999D01*
X126465001Y-43245000D01*
X127634697Y-43245000D01*
X127634700Y-43244999D01*
X127693036Y-43233396D01*
X127759189Y-43189193D01*
X127759193Y-43189189D01*
X127803396Y-43123036D01*
X127814999Y-43064700D01*
X127815000Y-43064697D01*
X127815000Y-42645001D01*
X127814999Y-42645000D01*
X126465001Y-42645000D01*
X126465000Y-42645001D01*
X126465000Y-43244999D01*
X126265000Y-43244999D01*
X126265000Y-42645001D01*
X126264999Y-42645000D01*
X124915001Y-42645000D01*
X124915000Y-42645001D01*
X124915000Y-43064700D01*
X118110000Y-43064700D01*
X118110000Y-42444999D01*
X124915000Y-42444999D01*
X124915001Y-42445000D01*
X126264999Y-42445000D01*
X126265000Y-42444999D01*
X126465000Y-42444999D01*
X126465001Y-42445000D01*
X127814999Y-42445000D01*
X127815000Y-42444999D01*
X127815000Y-42025302D01*
X127814999Y-42025299D01*
X127803396Y-41966963D01*
X127759193Y-41900810D01*
X127759189Y-41900806D01*
X127693036Y-41856603D01*
X127634700Y-41845000D01*
X126465001Y-41845000D01*
X126465000Y-41845001D01*
X126465000Y-42444999D01*
X126265000Y-42444999D01*
X126265000Y-41845001D01*
X126264999Y-41845000D01*
X125095299Y-41845000D01*
X125036963Y-41856603D01*
X124970810Y-41900806D01*
X124970806Y-41900810D01*
X124926603Y-41966963D01*
X124915000Y-42025299D01*
X124915000Y-42444999D01*
X118110000Y-42444999D01*
X118110000Y-40534203D01*
X142180001Y-40534203D01*
X142182850Y-40564600D01*
X142182850Y-40564602D01*
X142227654Y-40692647D01*
X142308207Y-40801790D01*
X142308209Y-40801792D01*
X142417352Y-40882345D01*
X142545398Y-40927149D01*
X142575789Y-40929999D01*
X142779998Y-40929999D01*
X142780000Y-40929998D01*
X142980000Y-40929998D01*
X142980001Y-40929999D01*
X143184203Y-40929999D01*
X143214600Y-40927149D01*
X143214602Y-40927149D01*
X143342647Y-40882345D01*
X143451790Y-40801792D01*
X143451792Y-40801790D01*
X143532345Y-40692647D01*
X143577149Y-40564601D01*
X143579999Y-40534211D01*
X143580000Y-40534210D01*
X143580000Y-40105001D01*
X143579999Y-40105000D01*
X142980001Y-40105000D01*
X142980000Y-40105001D01*
X142980000Y-40929998D01*
X142780000Y-40929998D01*
X142780000Y-40105001D01*
X142779999Y-40105000D01*
X142180002Y-40105000D01*
X142180001Y-40105001D01*
X142180001Y-40534203D01*
X118110000Y-40534203D01*
X118110000Y-39904999D01*
X142180000Y-39904999D01*
X142180001Y-39905000D01*
X142779999Y-39905000D01*
X142780000Y-39904999D01*
X142980000Y-39904999D01*
X142980001Y-39905000D01*
X143579998Y-39905000D01*
X143579999Y-39904999D01*
X143579999Y-39475796D01*
X143577149Y-39445399D01*
X143577149Y-39445397D01*
X143532345Y-39317352D01*
X143451792Y-39208209D01*
X143451790Y-39208207D01*
X143342647Y-39127654D01*
X143214601Y-39082850D01*
X143184211Y-39080000D01*
X142980001Y-39080000D01*
X142980000Y-39080001D01*
X142980000Y-39904999D01*
X142780000Y-39904999D01*
X142780000Y-39080001D01*
X142779999Y-39080000D01*
X142575796Y-39080000D01*
X142545399Y-39082850D01*
X142545397Y-39082850D01*
X142417352Y-39127654D01*
X142308209Y-39208207D01*
X142308207Y-39208209D01*
X142227654Y-39317352D01*
X142182850Y-39445398D01*
X142180000Y-39475788D01*
X142180000Y-39904999D01*
X118110000Y-39904999D01*
X118110000Y-38224500D01*
X118128907Y-38166309D01*
X118178407Y-38130345D01*
X118209000Y-38125500D01*
X156085500Y-38125500D01*
X156143691Y-38144407D01*
G37*
%TD.AperFunction*%
%TD*%
M02*
