%TF.GenerationSoftware,KiCad,Pcbnew,7.0.1*%
%TF.CreationDate,2023-03-26T17:18:11+02:00*%
%TF.ProjectId,AS4432_ANT_PMOD,41533434-3332-45f4-914e-545f504d4f44,rev?*%
%TF.SameCoordinates,Original*%
%TF.FileFunction,Copper,L1,Top*%
%TF.FilePolarity,Positive*%
%FSLAX46Y46*%
G04 Gerber Fmt 4.6, Leading zero omitted, Abs format (unit mm)*
G04 Created by KiCad (PCBNEW 7.0.1) date 2023-03-26 17:18:11*
%MOMM*%
%LPD*%
G01*
G04 APERTURE LIST*
G04 Aperture macros list*
%AMRoundRect*
0 Rectangle with rounded corners*
0 $1 Rounding radius*
0 $2 $3 $4 $5 $6 $7 $8 $9 X,Y pos of 4 corners*
0 Add a 4 corners polygon primitive as box body*
4,1,4,$2,$3,$4,$5,$6,$7,$8,$9,$2,$3,0*
0 Add four circle primitives for the rounded corners*
1,1,$1+$1,$2,$3*
1,1,$1+$1,$4,$5*
1,1,$1+$1,$6,$7*
1,1,$1+$1,$8,$9*
0 Add four rect primitives between the rounded corners*
20,1,$1+$1,$2,$3,$4,$5,0*
20,1,$1+$1,$4,$5,$6,$7,0*
20,1,$1+$1,$6,$7,$8,$9,0*
20,1,$1+$1,$8,$9,$2,$3,0*%
G04 Aperture macros list end*
%TA.AperFunction,ComponentPad*%
%ADD10R,1.700000X1.700000*%
%TD*%
%TA.AperFunction,ComponentPad*%
%ADD11O,1.700000X1.700000*%
%TD*%
%TA.AperFunction,SMDPad,CuDef*%
%ADD12RoundRect,0.250000X0.750000X0.250000X-0.750000X0.250000X-0.750000X-0.250000X0.750000X-0.250000X0*%
%TD*%
%TA.AperFunction,SMDPad,CuDef*%
%ADD13RoundRect,0.250000X0.337500X0.475000X-0.337500X0.475000X-0.337500X-0.475000X0.337500X-0.475000X0*%
%TD*%
%TA.AperFunction,SMDPad,CuDef*%
%ADD14RoundRect,0.250000X-0.337500X-0.475000X0.337500X-0.475000X0.337500X0.475000X-0.337500X0.475000X0*%
%TD*%
%TA.AperFunction,Conductor*%
%ADD15C,0.250000*%
%TD*%
%TA.AperFunction,Conductor*%
%ADD16C,0.350000*%
%TD*%
G04 APERTURE END LIST*
D10*
%TO.P,J1,1,Pin_1*%
%TO.N,VCC*%
X149860000Y-43180000D03*
D11*
%TO.P,J1,2,Pin_2*%
X152400000Y-43180000D03*
%TO.P,J1,3,Pin_3*%
%TO.N,GND*%
X149860000Y-45720000D03*
%TO.P,J1,4,Pin_4*%
X152400000Y-45720000D03*
%TO.P,J1,5,Pin_5*%
%TO.N,SCK*%
X149860000Y-48260000D03*
%TO.P,J1,6,Pin_6*%
%TO.N,unconnected-(J1-Pin_6-Pad6)*%
X152400000Y-48260000D03*
%TO.P,J1,7,Pin_7*%
%TO.N,MISO*%
X149860000Y-50800000D03*
%TO.P,J1,8,Pin_8*%
%TO.N,unconnected-(J1-Pin_8-Pad8)*%
X152400000Y-50800000D03*
%TO.P,J1,9,Pin_9*%
%TO.N,MOSI*%
X149860000Y-53340000D03*
%TO.P,J1,10,Pin_10*%
%TO.N,nRESET*%
X152400000Y-53340000D03*
%TO.P,J1,11,Pin_11*%
%TO.N,nCS*%
X149860000Y-55880000D03*
%TO.P,J1,12,Pin_12*%
%TO.N,IRQ*%
X152400000Y-55880000D03*
%TD*%
D12*
%TO.P,U1,1,GND*%
%TO.N,GND*%
X143826500Y-44450000D03*
%TO.P,U1,2,DIO0*%
%TO.N,unconnected-(U1-DIO0-Pad2)*%
X143826500Y-45720000D03*
%TO.P,U1,3,DIO1*%
%TO.N,unconnected-(U1-DIO1-Pad3)*%
X143826500Y-46990000D03*
%TO.P,U1,4,DIO2*%
%TO.N,unconnected-(U1-DIO2-Pad4)*%
X143826500Y-48260000D03*
%TO.P,U1,5,3.3V*%
%TO.N,VCC*%
X143826500Y-49530000D03*
%TO.P,U1,6,MISO*%
%TO.N,MISO*%
X143826500Y-50800000D03*
%TO.P,U1,7,MOSI*%
%TO.N,MOSI*%
X143826500Y-52070000D03*
%TO.P,U1,8,SCK*%
%TO.N,SCK*%
X143826500Y-53340000D03*
%TO.P,U1,9,NSS*%
%TO.N,nCS*%
X143826500Y-54610000D03*
%TO.P,U1,10,IRQ*%
%TO.N,IRQ*%
X143826500Y-55880000D03*
%TO.P,U1,11,SDN*%
%TO.N,nRESET*%
X143826500Y-57150000D03*
%TO.P,U1,12,GND*%
%TO.N,GND*%
X143826500Y-58420000D03*
%TO.P,U1,13,ANT*%
%TO.N,Net-(J2-Pin_1)*%
X127826500Y-58420000D03*
%TO.P,U1,14,GND*%
%TO.N,GND*%
X127826500Y-57150000D03*
%TD*%
D13*
%TO.P,C1,1*%
%TO.N,VCC*%
X141775000Y-40640000D03*
%TO.P,C1,2*%
%TO.N,GND*%
X139700000Y-40640000D03*
%TD*%
D14*
%TO.P,C2,1*%
%TO.N,VCC*%
X143742500Y-40640000D03*
%TO.P,C2,2*%
%TO.N,GND*%
X145817500Y-40640000D03*
%TD*%
D10*
%TO.P,J2,1,Pin_1*%
%TO.N,Net-(J2-Pin_1)*%
X124460000Y-58420000D03*
%TD*%
D15*
%TO.N,nRESET*%
X143826500Y-57150000D02*
X147953604Y-57150000D01*
X152341701Y-57600000D02*
X153230850Y-56710850D01*
X152791701Y-57150000D02*
X153670000Y-56271701D01*
X153670000Y-54610000D02*
X152400000Y-53340000D01*
X153670000Y-56271701D02*
X153670000Y-54610000D01*
X147953604Y-57150000D02*
X148403604Y-57600000D01*
X148403604Y-57600000D02*
X152341701Y-57600000D01*
%TO.N,nCS*%
X148590000Y-54610000D02*
X143826500Y-54610000D01*
X149860000Y-55880000D02*
X148590000Y-54610000D01*
%TO.N,SCK*%
X149468299Y-54610000D02*
X150251701Y-54610000D01*
X150251701Y-54610000D02*
X151035000Y-53826701D01*
X151035000Y-53826701D02*
X151035000Y-49435000D01*
X143826500Y-53340000D02*
X148198299Y-53340000D01*
X151035000Y-49435000D02*
X149860000Y-48260000D01*
X148198299Y-53340000D02*
X149468299Y-54610000D01*
%TO.N,MOSI*%
X143826500Y-52070000D02*
X148590000Y-52070000D01*
X148590000Y-52070000D02*
X149860000Y-53340000D01*
%TO.N,MISO*%
X143826500Y-50800000D02*
X149860000Y-50800000D01*
%TO.N,VCC*%
X143283327Y-49530000D02*
X141775000Y-48021673D01*
X143742500Y-40407500D02*
X144780000Y-39370000D01*
X141775000Y-40640000D02*
X143742500Y-40640000D01*
X141775000Y-48021673D02*
X141775000Y-40640000D01*
X147320000Y-39370000D02*
X149860000Y-41910000D01*
X149860000Y-43180000D02*
X152400000Y-43180000D01*
X144780000Y-39370000D02*
X147320000Y-39370000D01*
X143742500Y-40640000D02*
X143742500Y-40407500D01*
X143826500Y-49530000D02*
X143283327Y-49530000D01*
X149860000Y-41910000D02*
X149860000Y-43180000D01*
D16*
%TO.N,Net-(J2-Pin_1)*%
X127826500Y-58420000D02*
X124460000Y-58420000D01*
D15*
%TO.N,IRQ*%
X147320000Y-55880000D02*
X143826500Y-55880000D01*
X152400000Y-55880000D02*
X151130000Y-57150000D01*
X148590000Y-57150000D02*
X147320000Y-55880000D01*
X151130000Y-57150000D02*
X148590000Y-57150000D01*
%TD*%
%TA.AperFunction,Conductor*%
%TO.N,GND*%
G36*
X156121500Y-38142381D02*
G01*
X156167619Y-38188500D01*
X156184500Y-38251500D01*
X156184500Y-60808500D01*
X156167619Y-60871500D01*
X156121500Y-60917619D01*
X156058500Y-60934500D01*
X122071500Y-60934500D01*
X122008500Y-60917619D01*
X121962381Y-60871500D01*
X121945500Y-60808500D01*
X121945500Y-59317874D01*
X123109500Y-59317874D01*
X123115908Y-59377481D01*
X123166204Y-59512331D01*
X123252453Y-59627546D01*
X123338703Y-59692112D01*
X123367669Y-59713796D01*
X123502517Y-59764091D01*
X123562127Y-59770500D01*
X125357872Y-59770499D01*
X125357874Y-59770499D01*
X125387677Y-59767295D01*
X125417483Y-59764091D01*
X125552331Y-59713796D01*
X125667546Y-59627546D01*
X125753796Y-59512331D01*
X125804091Y-59377483D01*
X125810500Y-59317873D01*
X125810500Y-59221500D01*
X125827381Y-59158500D01*
X125873500Y-59112381D01*
X125936500Y-59095500D01*
X126388441Y-59095500D01*
X126436659Y-59105091D01*
X126477536Y-59132404D01*
X126483787Y-59138655D01*
X126483788Y-59138656D01*
X126607844Y-59262712D01*
X126757166Y-59354814D01*
X126757168Y-59354815D01*
X126923698Y-59409998D01*
X126923700Y-59409998D01*
X126923703Y-59409999D01*
X127026491Y-59420500D01*
X128626508Y-59420499D01*
X128729297Y-59409999D01*
X128895834Y-59354814D01*
X129045156Y-59262712D01*
X129169212Y-59138656D01*
X129261314Y-58989334D01*
X129316499Y-58822797D01*
X129327000Y-58720009D01*
X129327000Y-58674000D01*
X142318500Y-58674000D01*
X142318500Y-58720503D01*
X142329106Y-58824328D01*
X142384840Y-58992522D01*
X142477867Y-59143342D01*
X142603157Y-59268632D01*
X142753977Y-59361659D01*
X142922171Y-59417393D01*
X143025997Y-59428000D01*
X143572500Y-59428000D01*
X143572500Y-58674000D01*
X144080500Y-58674000D01*
X144080500Y-59428000D01*
X144627003Y-59428000D01*
X144730828Y-59417393D01*
X144899022Y-59361659D01*
X145049842Y-59268632D01*
X145175132Y-59143342D01*
X145268159Y-58992522D01*
X145323893Y-58824328D01*
X145334500Y-58720503D01*
X145334500Y-58674000D01*
X144080500Y-58674000D01*
X143572500Y-58674000D01*
X142318500Y-58674000D01*
X129327000Y-58674000D01*
X129326999Y-58119992D01*
X129316499Y-58017203D01*
X129315991Y-58015671D01*
X129256682Y-57836687D01*
X129259613Y-57835715D01*
X129247257Y-57792141D01*
X129266017Y-57725994D01*
X129268159Y-57722520D01*
X129323893Y-57554328D01*
X129334500Y-57450503D01*
X129334500Y-57404000D01*
X126318500Y-57404000D01*
X126318500Y-57450503D01*
X126329106Y-57554325D01*
X126337239Y-57578868D01*
X126342167Y-57637668D01*
X126319785Y-57692264D01*
X126275000Y-57730684D01*
X126217634Y-57744500D01*
X125936499Y-57744500D01*
X125873499Y-57727619D01*
X125827380Y-57681500D01*
X125810499Y-57618500D01*
X125810499Y-57522125D01*
X125804091Y-57462518D01*
X125788047Y-57419501D01*
X125753796Y-57327669D01*
X125732112Y-57298702D01*
X125667546Y-57212453D01*
X125552331Y-57126204D01*
X125417483Y-57075909D01*
X125357872Y-57069500D01*
X123562125Y-57069500D01*
X123502518Y-57075908D01*
X123367668Y-57126204D01*
X123252453Y-57212453D01*
X123166204Y-57327668D01*
X123115909Y-57462517D01*
X123109500Y-57522127D01*
X123109500Y-59317874D01*
X121945500Y-59317874D01*
X121945500Y-56896000D01*
X126318500Y-56896000D01*
X127572500Y-56896000D01*
X127572500Y-56142000D01*
X128080500Y-56142000D01*
X128080500Y-56896000D01*
X129334500Y-56896000D01*
X129334500Y-56849497D01*
X129323893Y-56745671D01*
X129268159Y-56577477D01*
X129175132Y-56426657D01*
X129049842Y-56301367D01*
X128899022Y-56208340D01*
X128730828Y-56152606D01*
X128627003Y-56142000D01*
X128080500Y-56142000D01*
X127572500Y-56142000D01*
X127025997Y-56142000D01*
X126922171Y-56152606D01*
X126753977Y-56208340D01*
X126603157Y-56301367D01*
X126477867Y-56426657D01*
X126384840Y-56577477D01*
X126329106Y-56745671D01*
X126318500Y-56849497D01*
X126318500Y-56896000D01*
X121945500Y-56896000D01*
X121945500Y-40894000D01*
X138604500Y-40894000D01*
X138604500Y-41165503D01*
X138615106Y-41269328D01*
X138670840Y-41437522D01*
X138763867Y-41588342D01*
X138889157Y-41713632D01*
X139039977Y-41806659D01*
X139208171Y-41862393D01*
X139311997Y-41873000D01*
X139446000Y-41873000D01*
X139954000Y-41873000D01*
X140088003Y-41873000D01*
X140191828Y-41862393D01*
X140360022Y-41806659D01*
X140510842Y-41713632D01*
X140646549Y-41577926D01*
X140647274Y-41578651D01*
X140680498Y-41546845D01*
X140741907Y-41530868D01*
X140803315Y-41546846D01*
X140832668Y-41574947D01*
X140834374Y-41573242D01*
X140844788Y-41583655D01*
X140844788Y-41583656D01*
X140968844Y-41707712D01*
X141089648Y-41782224D01*
X141133524Y-41828058D01*
X141149500Y-41889464D01*
X141149500Y-47938708D01*
X141147230Y-47959265D01*
X141149438Y-48029514D01*
X141149500Y-48033472D01*
X141149500Y-48061021D01*
X141149991Y-48064910D01*
X141150921Y-48076733D01*
X141152290Y-48120299D01*
X141157835Y-48139384D01*
X141161843Y-48158741D01*
X141164334Y-48178463D01*
X141180377Y-48218982D01*
X141184221Y-48230209D01*
X141196382Y-48272064D01*
X141206499Y-48289172D01*
X141215194Y-48306919D01*
X141222514Y-48325405D01*
X141248129Y-48360662D01*
X141254645Y-48370581D01*
X141276831Y-48408095D01*
X141290879Y-48422143D01*
X141303719Y-48437176D01*
X141315403Y-48453258D01*
X141348981Y-48481035D01*
X141357763Y-48489026D01*
X142289096Y-49420360D01*
X142316409Y-49461237D01*
X142326000Y-49509455D01*
X142326000Y-49830004D01*
X142336501Y-49932800D01*
X142396318Y-50113313D01*
X142395561Y-50113563D01*
X142410148Y-50164996D01*
X142395562Y-50216437D01*
X142396318Y-50216688D01*
X142336501Y-50397203D01*
X142326000Y-50499995D01*
X142326000Y-51100004D01*
X142336501Y-51202800D01*
X142396318Y-51383313D01*
X142395561Y-51383563D01*
X142410148Y-51434996D01*
X142395562Y-51486437D01*
X142396318Y-51486688D01*
X142336501Y-51667203D01*
X142326000Y-51769995D01*
X142326000Y-52370004D01*
X142336501Y-52472800D01*
X142396318Y-52653313D01*
X142395561Y-52653563D01*
X142410148Y-52704994D01*
X142395562Y-52756436D01*
X142396318Y-52756687D01*
X142336501Y-52937198D01*
X142326000Y-53039995D01*
X142326000Y-53640004D01*
X142336501Y-53742800D01*
X142396318Y-53923313D01*
X142395562Y-53923563D01*
X142410148Y-53975000D01*
X142395562Y-54026436D01*
X142396318Y-54026687D01*
X142336501Y-54207198D01*
X142334828Y-54223579D01*
X142326381Y-54306268D01*
X142326000Y-54309995D01*
X142326000Y-54910004D01*
X142336501Y-55012800D01*
X142396318Y-55193313D01*
X142395561Y-55193563D01*
X142410148Y-55244996D01*
X142395562Y-55296437D01*
X142396318Y-55296688D01*
X142391686Y-55310665D01*
X142391686Y-55310666D01*
X142359444Y-55407967D01*
X142336501Y-55477203D01*
X142326000Y-55579995D01*
X142326000Y-56180004D01*
X142336501Y-56282800D01*
X142396318Y-56463313D01*
X142395561Y-56463563D01*
X142410148Y-56514996D01*
X142395562Y-56566437D01*
X142396318Y-56566688D01*
X142391686Y-56580665D01*
X142391686Y-56580666D01*
X142336501Y-56747203D01*
X142326051Y-56849497D01*
X142326000Y-56849995D01*
X142326000Y-57450004D01*
X142336501Y-57552800D01*
X142396318Y-57733313D01*
X142393387Y-57734284D01*
X142405742Y-57777856D01*
X142386988Y-57843994D01*
X142384843Y-57847472D01*
X142329106Y-58015671D01*
X142318500Y-58119497D01*
X142318500Y-58166000D01*
X145334500Y-58166000D01*
X145334500Y-58119497D01*
X145323893Y-58015672D01*
X145299193Y-57941133D01*
X145294263Y-57882333D01*
X145316646Y-57827736D01*
X145361431Y-57789317D01*
X145418797Y-57775500D01*
X147642324Y-57775500D01*
X147690542Y-57785091D01*
X147731419Y-57812405D01*
X147902640Y-57983626D01*
X147915575Y-57999772D01*
X147966810Y-58047884D01*
X147969621Y-58050608D01*
X147989132Y-58070119D01*
X147989133Y-58070120D01*
X147992232Y-58072524D01*
X148001254Y-58080230D01*
X148033022Y-58110062D01*
X148050437Y-58119636D01*
X148066964Y-58130492D01*
X148082668Y-58142673D01*
X148122661Y-58159979D01*
X148133312Y-58165196D01*
X148171512Y-58186197D01*
X148190776Y-58191143D01*
X148209457Y-58197539D01*
X148227708Y-58205437D01*
X148270759Y-58212255D01*
X148282351Y-58214655D01*
X148324585Y-58225500D01*
X148344460Y-58225500D01*
X148364170Y-58227050D01*
X148383800Y-58230160D01*
X148427183Y-58226058D01*
X148439041Y-58225500D01*
X152258737Y-58225500D01*
X152279294Y-58227769D01*
X152282366Y-58227672D01*
X152282369Y-58227673D01*
X152349543Y-58225561D01*
X152353501Y-58225500D01*
X152381047Y-58225500D01*
X152381051Y-58225500D01*
X152384942Y-58225008D01*
X152396769Y-58224077D01*
X152440329Y-58222709D01*
X152459423Y-58217161D01*
X152478771Y-58213154D01*
X152498493Y-58210664D01*
X152539022Y-58194616D01*
X152550238Y-58190776D01*
X152592091Y-58178618D01*
X152609202Y-58168497D01*
X152626947Y-58159803D01*
X152645433Y-58152486D01*
X152680700Y-58126862D01*
X152690601Y-58120358D01*
X152728122Y-58098170D01*
X152742181Y-58084110D01*
X152757210Y-58071274D01*
X152773288Y-58059594D01*
X152801077Y-58026001D01*
X152809035Y-58017255D01*
X153640761Y-57185530D01*
X154053636Y-56772654D01*
X154069768Y-56759732D01*
X154071874Y-56757488D01*
X154071877Y-56757487D01*
X154117903Y-56708473D01*
X154120593Y-56705697D01*
X154140120Y-56686172D01*
X154142532Y-56683061D01*
X154150219Y-56674061D01*
X154180062Y-56642283D01*
X154189638Y-56624861D01*
X154200496Y-56608334D01*
X154212673Y-56592637D01*
X154229979Y-56552641D01*
X154235195Y-56541993D01*
X154256197Y-56503793D01*
X154261139Y-56484542D01*
X154267545Y-56465834D01*
X154275437Y-56447597D01*
X154278753Y-56426657D01*
X154282255Y-56404544D01*
X154284653Y-56392961D01*
X154295500Y-56350720D01*
X154295500Y-56330845D01*
X154297051Y-56311134D01*
X154300160Y-56291505D01*
X154296058Y-56248121D01*
X154295500Y-56236264D01*
X154295500Y-54692961D01*
X154297768Y-54672408D01*
X154297671Y-54669334D01*
X154297672Y-54669332D01*
X154295562Y-54602176D01*
X154295500Y-54598219D01*
X154295500Y-54570651D01*
X154295010Y-54566774D01*
X154294077Y-54554930D01*
X154292709Y-54511373D01*
X154287162Y-54492283D01*
X154283154Y-54472928D01*
X154280664Y-54453208D01*
X154264614Y-54412671D01*
X154260780Y-54401473D01*
X154248618Y-54359610D01*
X154246790Y-54356520D01*
X154238501Y-54342504D01*
X154229800Y-54324743D01*
X154224948Y-54312487D01*
X154222486Y-54306268D01*
X154196871Y-54271012D01*
X154190353Y-54261089D01*
X154168171Y-54223580D01*
X154168170Y-54223579D01*
X154154111Y-54209520D01*
X154141275Y-54194491D01*
X154129593Y-54178412D01*
X154096014Y-54150633D01*
X154087235Y-54142644D01*
X153741054Y-53796463D01*
X153708442Y-53739979D01*
X153708442Y-53674760D01*
X153735063Y-53575408D01*
X153755659Y-53340000D01*
X153735063Y-53104592D01*
X153673903Y-52876337D01*
X153574035Y-52662171D01*
X153438495Y-52468599D01*
X153438494Y-52468598D01*
X153438492Y-52468595D01*
X153271404Y-52301507D01*
X153088181Y-52173213D01*
X153048689Y-52128180D01*
X153034452Y-52070000D01*
X153048689Y-52011820D01*
X153088181Y-51966787D01*
X153139500Y-51930853D01*
X153271401Y-51838495D01*
X153438495Y-51671401D01*
X153574035Y-51477830D01*
X153673903Y-51263663D01*
X153735063Y-51035408D01*
X153755659Y-50800000D01*
X153735063Y-50564592D01*
X153673903Y-50336337D01*
X153574035Y-50122171D01*
X153438495Y-49928599D01*
X153438494Y-49928598D01*
X153438492Y-49928595D01*
X153271404Y-49761507D01*
X153088181Y-49633213D01*
X153048689Y-49588180D01*
X153034452Y-49530000D01*
X153048689Y-49471820D01*
X153088181Y-49426787D01*
X153271401Y-49298495D01*
X153438495Y-49131401D01*
X153574035Y-48937830D01*
X153673903Y-48723663D01*
X153735063Y-48495408D01*
X153755659Y-48260000D01*
X153735063Y-48024592D01*
X153673903Y-47796337D01*
X153574035Y-47582171D01*
X153438495Y-47388599D01*
X153438494Y-47388598D01*
X153438492Y-47388595D01*
X153271404Y-47221507D01*
X153092882Y-47096504D01*
X153051765Y-47048239D01*
X153039361Y-46986060D01*
X153058809Y-46925712D01*
X153105185Y-46882477D01*
X153145298Y-46860769D01*
X153322903Y-46722533D01*
X153475321Y-46556962D01*
X153598419Y-46368548D01*
X153688822Y-46162451D01*
X153736544Y-45974000D01*
X148523455Y-45974000D01*
X148571177Y-46162451D01*
X148661580Y-46368548D01*
X148784678Y-46556962D01*
X148937096Y-46722533D01*
X149114701Y-46860769D01*
X149154815Y-46882477D01*
X149201191Y-46925712D01*
X149220639Y-46986060D01*
X149208235Y-47048239D01*
X149167118Y-47096504D01*
X148988595Y-47221507D01*
X148821507Y-47388595D01*
X148685965Y-47582170D01*
X148586096Y-47796337D01*
X148524937Y-48024590D01*
X148507930Y-48218982D01*
X148504341Y-48260000D01*
X148506893Y-48289172D01*
X148524937Y-48495409D01*
X148586096Y-48723663D01*
X148685965Y-48937830D01*
X148821507Y-49131404D01*
X148988595Y-49298492D01*
X148988598Y-49298494D01*
X148988599Y-49298495D01*
X149171819Y-49426787D01*
X149211311Y-49471820D01*
X149225548Y-49530000D01*
X149211311Y-49588180D01*
X149171819Y-49633213D01*
X148988595Y-49761507D01*
X148821507Y-49928595D01*
X148686945Y-50120771D01*
X148641912Y-50160263D01*
X148583732Y-50174500D01*
X145410896Y-50174500D01*
X145353530Y-50160683D01*
X145308745Y-50122264D01*
X145286362Y-50067667D01*
X145291292Y-50008867D01*
X145316498Y-49932800D01*
X145316497Y-49932800D01*
X145316499Y-49932797D01*
X145327000Y-49830009D01*
X145326999Y-49229992D01*
X145316499Y-49127203D01*
X145261314Y-48960666D01*
X145256682Y-48946687D01*
X145257438Y-48946436D01*
X145242851Y-48894998D01*
X145257439Y-48843564D01*
X145256682Y-48843314D01*
X145316498Y-48662801D01*
X145316498Y-48662799D01*
X145316499Y-48662797D01*
X145327000Y-48560009D01*
X145326999Y-47959992D01*
X145316499Y-47857203D01*
X145293556Y-47787967D01*
X145256682Y-47676687D01*
X145257438Y-47676436D01*
X145242851Y-47624994D01*
X145257438Y-47573563D01*
X145256682Y-47573313D01*
X145316498Y-47392801D01*
X145316498Y-47392799D01*
X145316499Y-47392797D01*
X145327000Y-47290009D01*
X145326999Y-46689992D01*
X145316499Y-46587203D01*
X145306477Y-46556960D01*
X145256682Y-46406687D01*
X145257438Y-46406436D01*
X145242851Y-46355000D01*
X145257438Y-46303563D01*
X145256682Y-46303313D01*
X145316498Y-46122801D01*
X145316498Y-46122799D01*
X145316499Y-46122797D01*
X145327000Y-46020009D01*
X145326999Y-45419992D01*
X145316499Y-45317203D01*
X145261314Y-45150666D01*
X145256682Y-45136687D01*
X145259613Y-45135715D01*
X145247257Y-45092141D01*
X145266017Y-45025994D01*
X145268159Y-45022520D01*
X145323893Y-44854328D01*
X145334500Y-44750503D01*
X145334500Y-44704000D01*
X143698500Y-44704000D01*
X143635500Y-44687119D01*
X143589381Y-44641000D01*
X143572500Y-44578000D01*
X143572500Y-43442000D01*
X144080500Y-43442000D01*
X144080500Y-44196000D01*
X145334500Y-44196000D01*
X145334500Y-44149497D01*
X145323893Y-44045671D01*
X145268159Y-43877477D01*
X145175132Y-43726657D01*
X145049842Y-43601367D01*
X144899022Y-43508340D01*
X144730828Y-43452606D01*
X144627003Y-43442000D01*
X144080500Y-43442000D01*
X143572500Y-43442000D01*
X143025997Y-43442000D01*
X142922171Y-43452606D01*
X142753975Y-43508341D01*
X142592646Y-43607850D01*
X142529248Y-43626579D01*
X142465093Y-43610633D01*
X142417842Y-43564401D01*
X142400500Y-43500609D01*
X142400500Y-41889464D01*
X142416476Y-41828058D01*
X142460351Y-41782224D01*
X142581156Y-41707712D01*
X142669655Y-41619213D01*
X142726139Y-41586601D01*
X142791361Y-41586601D01*
X142847845Y-41619213D01*
X142936344Y-41707712D01*
X143072445Y-41791659D01*
X143085668Y-41799815D01*
X143252198Y-41854998D01*
X143252200Y-41854998D01*
X143252203Y-41854999D01*
X143354991Y-41865500D01*
X144130008Y-41865499D01*
X144232797Y-41854999D01*
X144399334Y-41799814D01*
X144548656Y-41707712D01*
X144672712Y-41583656D01*
X144672712Y-41583655D01*
X144683126Y-41573242D01*
X144684832Y-41574948D01*
X144714171Y-41546853D01*
X144775579Y-41530868D01*
X144836991Y-41546840D01*
X144870225Y-41578651D01*
X144870951Y-41577926D01*
X145006657Y-41713632D01*
X145157477Y-41806659D01*
X145325671Y-41862393D01*
X145429497Y-41873000D01*
X145563500Y-41873000D01*
X145563500Y-40894000D01*
X146071500Y-40894000D01*
X146071500Y-41873000D01*
X146205503Y-41873000D01*
X146309328Y-41862393D01*
X146477522Y-41806659D01*
X146628342Y-41713632D01*
X146753632Y-41588342D01*
X146846659Y-41437522D01*
X146902393Y-41269328D01*
X146913000Y-41165503D01*
X146913000Y-40894000D01*
X146071500Y-40894000D01*
X145563500Y-40894000D01*
X145563500Y-40512000D01*
X145580381Y-40449000D01*
X145626500Y-40402881D01*
X145689500Y-40386000D01*
X146913000Y-40386000D01*
X146913000Y-40151780D01*
X146926733Y-40094577D01*
X146964939Y-40049844D01*
X147019289Y-40027331D01*
X147077936Y-40031947D01*
X147128095Y-40062685D01*
X148770042Y-41704633D01*
X148804067Y-41766944D01*
X148799003Y-41837760D01*
X148756457Y-41894595D01*
X148652454Y-41972452D01*
X148566204Y-42087668D01*
X148515909Y-42222517D01*
X148509500Y-42282127D01*
X148509500Y-44077874D01*
X148515908Y-44137481D01*
X148566204Y-44272331D01*
X148652453Y-44387546D01*
X148738702Y-44452112D01*
X148767669Y-44473796D01*
X148885164Y-44517618D01*
X148935497Y-44552181D01*
X148963671Y-44606351D01*
X148963070Y-44667407D01*
X148933833Y-44721011D01*
X148784676Y-44883040D01*
X148661580Y-45071451D01*
X148571177Y-45277548D01*
X148523455Y-45465999D01*
X148523456Y-45466000D01*
X153736544Y-45466000D01*
X153736544Y-45465999D01*
X153688822Y-45277548D01*
X153598419Y-45071451D01*
X153475321Y-44883037D01*
X153322903Y-44717466D01*
X153145302Y-44579233D01*
X153105183Y-44557522D01*
X153058808Y-44514285D01*
X153039361Y-44453938D01*
X153051766Y-44391759D01*
X153092881Y-44343496D01*
X153271401Y-44218495D01*
X153438495Y-44051401D01*
X153574035Y-43857830D01*
X153673903Y-43643663D01*
X153735063Y-43415408D01*
X153755659Y-43180000D01*
X153735063Y-42944592D01*
X153673903Y-42716337D01*
X153574035Y-42502171D01*
X153438495Y-42308599D01*
X153438494Y-42308598D01*
X153438492Y-42308595D01*
X153271404Y-42141507D01*
X153077830Y-42005965D01*
X152863663Y-41906096D01*
X152635409Y-41844937D01*
X152458966Y-41829500D01*
X152400000Y-41824341D01*
X152399999Y-41824341D01*
X152164590Y-41844937D01*
X151936337Y-41906096D01*
X151722170Y-42005965D01*
X151528598Y-42141505D01*
X151408873Y-42261230D01*
X151355276Y-42293030D01*
X151292994Y-42295254D01*
X151237265Y-42267358D01*
X151201722Y-42216166D01*
X151173876Y-42141507D01*
X151153796Y-42087669D01*
X151132112Y-42058703D01*
X151067546Y-41972453D01*
X150952331Y-41886204D01*
X150916929Y-41873000D01*
X150817483Y-41835909D01*
X150757873Y-41829500D01*
X150757872Y-41829500D01*
X150586500Y-41829500D01*
X150537674Y-41819655D01*
X150496477Y-41791659D01*
X150469349Y-41749886D01*
X150462320Y-41732135D01*
X150454617Y-41712678D01*
X150450773Y-41701451D01*
X150438617Y-41659611D01*
X150438617Y-41659610D01*
X150428498Y-41642499D01*
X150419804Y-41624753D01*
X150412486Y-41606268D01*
X150412485Y-41606265D01*
X150386873Y-41571014D01*
X150380356Y-41561092D01*
X150358172Y-41523582D01*
X150358171Y-41523581D01*
X150358170Y-41523579D01*
X150344111Y-41509520D01*
X150331275Y-41494491D01*
X150319593Y-41478412D01*
X150286014Y-41450633D01*
X150277235Y-41442644D01*
X147820960Y-38986369D01*
X147808029Y-38970229D01*
X147756775Y-38922097D01*
X147753934Y-38919343D01*
X147734471Y-38899880D01*
X147731371Y-38897475D01*
X147722353Y-38889773D01*
X147718217Y-38885889D01*
X147690582Y-38859938D01*
X147687788Y-38858402D01*
X147673157Y-38850358D01*
X147656633Y-38839503D01*
X147640934Y-38827325D01*
X147600931Y-38810014D01*
X147590285Y-38804799D01*
X147552092Y-38783803D01*
X147552089Y-38783802D01*
X147532846Y-38778861D01*
X147514144Y-38772458D01*
X147495896Y-38764561D01*
X147452855Y-38757744D01*
X147441236Y-38755338D01*
X147399021Y-38744500D01*
X147399019Y-38744500D01*
X147379144Y-38744500D01*
X147359435Y-38742949D01*
X147339804Y-38739840D01*
X147339803Y-38739840D01*
X147296421Y-38743941D01*
X147284563Y-38744500D01*
X144862965Y-38744500D01*
X144842406Y-38742230D01*
X144772145Y-38744438D01*
X144768188Y-38744500D01*
X144740647Y-38744500D01*
X144736756Y-38744991D01*
X144724942Y-38745920D01*
X144681372Y-38747289D01*
X144662277Y-38752837D01*
X144642922Y-38756845D01*
X144623210Y-38759335D01*
X144613083Y-38763344D01*
X144582676Y-38775382D01*
X144571461Y-38779222D01*
X144529609Y-38791381D01*
X144512495Y-38801502D01*
X144494753Y-38810194D01*
X144476267Y-38817514D01*
X144441014Y-38843126D01*
X144431099Y-38849639D01*
X144393580Y-38871829D01*
X144379519Y-38885889D01*
X144364494Y-38898721D01*
X144348412Y-38910405D01*
X144320630Y-38943988D01*
X144312642Y-38952766D01*
X143887813Y-39377595D01*
X143846936Y-39404909D01*
X143798718Y-39414500D01*
X143354995Y-39414500D01*
X143252199Y-39425001D01*
X143085668Y-39480184D01*
X142986118Y-39541587D01*
X142936344Y-39572288D01*
X142936343Y-39572289D01*
X142847845Y-39660787D01*
X142791361Y-39693398D01*
X142726139Y-39693398D01*
X142669655Y-39660787D01*
X142581156Y-39572288D01*
X142431834Y-39480186D01*
X142431831Y-39480184D01*
X142265301Y-39425001D01*
X142219613Y-39420333D01*
X142162509Y-39414500D01*
X142162504Y-39414500D01*
X141387495Y-39414500D01*
X141284699Y-39425001D01*
X141118168Y-39480184D01*
X140968841Y-39572290D01*
X140834374Y-39706758D01*
X140832668Y-39705052D01*
X140803309Y-39733157D01*
X140741904Y-39749131D01*
X140680500Y-39733155D01*
X140647274Y-39701348D01*
X140646549Y-39702074D01*
X140510842Y-39566367D01*
X140360022Y-39473340D01*
X140191828Y-39417606D01*
X140088003Y-39407000D01*
X139954000Y-39407000D01*
X139954000Y-41873000D01*
X139446000Y-41873000D01*
X139446000Y-40894000D01*
X138604500Y-40894000D01*
X121945500Y-40894000D01*
X121945500Y-40386000D01*
X138604500Y-40386000D01*
X139446000Y-40386000D01*
X139446000Y-39407000D01*
X139311997Y-39407000D01*
X139208171Y-39417606D01*
X139039977Y-39473340D01*
X138889157Y-39566367D01*
X138763867Y-39691657D01*
X138670840Y-39842477D01*
X138615106Y-40010671D01*
X138604500Y-40114497D01*
X138604500Y-40386000D01*
X121945500Y-40386000D01*
X121945500Y-38251500D01*
X121962381Y-38188500D01*
X122008500Y-38142381D01*
X122071500Y-38125500D01*
X156058500Y-38125500D01*
X156121500Y-38142381D01*
G37*
%TD.AperFunction*%
%TD*%
M02*
