%TF.GenerationSoftware,KiCad,Pcbnew,7.0.10*%
%TF.CreationDate,2024-01-03T13:13:52+01:00*%
%TF.ProjectId,slimme_meter_pmod,736c696d-6d65-45f6-9d65-7465725f706d,rev?*%
%TF.SameCoordinates,Original*%
%TF.FileFunction,Legend,Top*%
%TF.FilePolarity,Positive*%
%FSLAX46Y46*%
G04 Gerber Fmt 4.6, Leading zero omitted, Abs format (unit mm)*
G04 Created by KiCad (PCBNEW 7.0.10) date 2024-01-03 13:13:52*
%MOMM*%
%LPD*%
G01*
G04 APERTURE LIST*
%ADD10C,0.150000*%
%ADD11C,0.120000*%
G04 APERTURE END LIST*
D10*
X116541779Y-69379819D02*
X116541779Y-68379819D01*
X116541779Y-68379819D02*
X116779874Y-68379819D01*
X116779874Y-68379819D02*
X116922731Y-68427438D01*
X116922731Y-68427438D02*
X117017969Y-68522676D01*
X117017969Y-68522676D02*
X117065588Y-68617914D01*
X117065588Y-68617914D02*
X117113207Y-68808390D01*
X117113207Y-68808390D02*
X117113207Y-68951247D01*
X117113207Y-68951247D02*
X117065588Y-69141723D01*
X117065588Y-69141723D02*
X117017969Y-69236961D01*
X117017969Y-69236961D02*
X116922731Y-69332200D01*
X116922731Y-69332200D02*
X116779874Y-69379819D01*
X116779874Y-69379819D02*
X116541779Y-69379819D01*
X117494160Y-69332200D02*
X117637017Y-69379819D01*
X117637017Y-69379819D02*
X117875112Y-69379819D01*
X117875112Y-69379819D02*
X117970350Y-69332200D01*
X117970350Y-69332200D02*
X118017969Y-69284580D01*
X118017969Y-69284580D02*
X118065588Y-69189342D01*
X118065588Y-69189342D02*
X118065588Y-69094104D01*
X118065588Y-69094104D02*
X118017969Y-68998866D01*
X118017969Y-68998866D02*
X117970350Y-68951247D01*
X117970350Y-68951247D02*
X117875112Y-68903628D01*
X117875112Y-68903628D02*
X117684636Y-68856009D01*
X117684636Y-68856009D02*
X117589398Y-68808390D01*
X117589398Y-68808390D02*
X117541779Y-68760771D01*
X117541779Y-68760771D02*
X117494160Y-68665533D01*
X117494160Y-68665533D02*
X117494160Y-68570295D01*
X117494160Y-68570295D02*
X117541779Y-68475057D01*
X117541779Y-68475057D02*
X117589398Y-68427438D01*
X117589398Y-68427438D02*
X117684636Y-68379819D01*
X117684636Y-68379819D02*
X117922731Y-68379819D01*
X117922731Y-68379819D02*
X118065588Y-68427438D01*
X118494160Y-69379819D02*
X118494160Y-68379819D01*
X118494160Y-68379819D02*
X118827493Y-69094104D01*
X118827493Y-69094104D02*
X119160826Y-68379819D01*
X119160826Y-68379819D02*
X119160826Y-69379819D01*
X120208445Y-69379819D02*
X119875112Y-68903628D01*
X119637017Y-69379819D02*
X119637017Y-68379819D01*
X119637017Y-68379819D02*
X120017969Y-68379819D01*
X120017969Y-68379819D02*
X120113207Y-68427438D01*
X120113207Y-68427438D02*
X120160826Y-68475057D01*
X120160826Y-68475057D02*
X120208445Y-68570295D01*
X120208445Y-68570295D02*
X120208445Y-68713152D01*
X120208445Y-68713152D02*
X120160826Y-68808390D01*
X120160826Y-68808390D02*
X120113207Y-68856009D01*
X120113207Y-68856009D02*
X120017969Y-68903628D01*
X120017969Y-68903628D02*
X119637017Y-68903628D01*
X116541779Y-70989819D02*
X116541779Y-69989819D01*
X116541779Y-69989819D02*
X116922731Y-69989819D01*
X116922731Y-69989819D02*
X117017969Y-70037438D01*
X117017969Y-70037438D02*
X117065588Y-70085057D01*
X117065588Y-70085057D02*
X117113207Y-70180295D01*
X117113207Y-70180295D02*
X117113207Y-70323152D01*
X117113207Y-70323152D02*
X117065588Y-70418390D01*
X117065588Y-70418390D02*
X117017969Y-70466009D01*
X117017969Y-70466009D02*
X116922731Y-70513628D01*
X116922731Y-70513628D02*
X116541779Y-70513628D01*
X117541779Y-70989819D02*
X117541779Y-69989819D01*
X117541779Y-69989819D02*
X117875112Y-70704104D01*
X117875112Y-70704104D02*
X118208445Y-69989819D01*
X118208445Y-69989819D02*
X118208445Y-70989819D01*
X118875112Y-69989819D02*
X119065588Y-69989819D01*
X119065588Y-69989819D02*
X119160826Y-70037438D01*
X119160826Y-70037438D02*
X119256064Y-70132676D01*
X119256064Y-70132676D02*
X119303683Y-70323152D01*
X119303683Y-70323152D02*
X119303683Y-70656485D01*
X119303683Y-70656485D02*
X119256064Y-70846961D01*
X119256064Y-70846961D02*
X119160826Y-70942200D01*
X119160826Y-70942200D02*
X119065588Y-70989819D01*
X119065588Y-70989819D02*
X118875112Y-70989819D01*
X118875112Y-70989819D02*
X118779874Y-70942200D01*
X118779874Y-70942200D02*
X118684636Y-70846961D01*
X118684636Y-70846961D02*
X118637017Y-70656485D01*
X118637017Y-70656485D02*
X118637017Y-70323152D01*
X118637017Y-70323152D02*
X118684636Y-70132676D01*
X118684636Y-70132676D02*
X118779874Y-70037438D01*
X118779874Y-70037438D02*
X118875112Y-69989819D01*
X119732255Y-70989819D02*
X119732255Y-69989819D01*
X119732255Y-69989819D02*
X119970350Y-69989819D01*
X119970350Y-69989819D02*
X120113207Y-70037438D01*
X120113207Y-70037438D02*
X120208445Y-70132676D01*
X120208445Y-70132676D02*
X120256064Y-70227914D01*
X120256064Y-70227914D02*
X120303683Y-70418390D01*
X120303683Y-70418390D02*
X120303683Y-70561247D01*
X120303683Y-70561247D02*
X120256064Y-70751723D01*
X120256064Y-70751723D02*
X120208445Y-70846961D01*
X120208445Y-70846961D02*
X120113207Y-70942200D01*
X120113207Y-70942200D02*
X119970350Y-70989819D01*
X119970350Y-70989819D02*
X119732255Y-70989819D01*
X121398922Y-70323152D02*
X121637017Y-70989819D01*
X121637017Y-70989819D02*
X121875112Y-70323152D01*
X122446541Y-69989819D02*
X122541779Y-69989819D01*
X122541779Y-69989819D02*
X122637017Y-70037438D01*
X122637017Y-70037438D02*
X122684636Y-70085057D01*
X122684636Y-70085057D02*
X122732255Y-70180295D01*
X122732255Y-70180295D02*
X122779874Y-70370771D01*
X122779874Y-70370771D02*
X122779874Y-70608866D01*
X122779874Y-70608866D02*
X122732255Y-70799342D01*
X122732255Y-70799342D02*
X122684636Y-70894580D01*
X122684636Y-70894580D02*
X122637017Y-70942200D01*
X122637017Y-70942200D02*
X122541779Y-70989819D01*
X122541779Y-70989819D02*
X122446541Y-70989819D01*
X122446541Y-70989819D02*
X122351303Y-70942200D01*
X122351303Y-70942200D02*
X122303684Y-70894580D01*
X122303684Y-70894580D02*
X122256065Y-70799342D01*
X122256065Y-70799342D02*
X122208446Y-70608866D01*
X122208446Y-70608866D02*
X122208446Y-70370771D01*
X122208446Y-70370771D02*
X122256065Y-70180295D01*
X122256065Y-70180295D02*
X122303684Y-70085057D01*
X122303684Y-70085057D02*
X122351303Y-70037438D01*
X122351303Y-70037438D02*
X122446541Y-69989819D01*
X123208446Y-70894580D02*
X123256065Y-70942200D01*
X123256065Y-70942200D02*
X123208446Y-70989819D01*
X123208446Y-70989819D02*
X123160827Y-70942200D01*
X123160827Y-70942200D02*
X123208446Y-70894580D01*
X123208446Y-70894580D02*
X123208446Y-70989819D01*
X123589398Y-69989819D02*
X124208445Y-69989819D01*
X124208445Y-69989819D02*
X123875112Y-70370771D01*
X123875112Y-70370771D02*
X124017969Y-70370771D01*
X124017969Y-70370771D02*
X124113207Y-70418390D01*
X124113207Y-70418390D02*
X124160826Y-70466009D01*
X124160826Y-70466009D02*
X124208445Y-70561247D01*
X124208445Y-70561247D02*
X124208445Y-70799342D01*
X124208445Y-70799342D02*
X124160826Y-70894580D01*
X124160826Y-70894580D02*
X124113207Y-70942200D01*
X124113207Y-70942200D02*
X124017969Y-70989819D01*
X124017969Y-70989819D02*
X123732255Y-70989819D01*
X123732255Y-70989819D02*
X123637017Y-70942200D01*
X123637017Y-70942200D02*
X123589398Y-70894580D01*
X128758333Y-63689580D02*
X128710714Y-63737200D01*
X128710714Y-63737200D02*
X128567857Y-63784819D01*
X128567857Y-63784819D02*
X128472619Y-63784819D01*
X128472619Y-63784819D02*
X128329762Y-63737200D01*
X128329762Y-63737200D02*
X128234524Y-63641961D01*
X128234524Y-63641961D02*
X128186905Y-63546723D01*
X128186905Y-63546723D02*
X128139286Y-63356247D01*
X128139286Y-63356247D02*
X128139286Y-63213390D01*
X128139286Y-63213390D02*
X128186905Y-63022914D01*
X128186905Y-63022914D02*
X128234524Y-62927676D01*
X128234524Y-62927676D02*
X128329762Y-62832438D01*
X128329762Y-62832438D02*
X128472619Y-62784819D01*
X128472619Y-62784819D02*
X128567857Y-62784819D01*
X128567857Y-62784819D02*
X128710714Y-62832438D01*
X128710714Y-62832438D02*
X128758333Y-62880057D01*
X129139286Y-62880057D02*
X129186905Y-62832438D01*
X129186905Y-62832438D02*
X129282143Y-62784819D01*
X129282143Y-62784819D02*
X129520238Y-62784819D01*
X129520238Y-62784819D02*
X129615476Y-62832438D01*
X129615476Y-62832438D02*
X129663095Y-62880057D01*
X129663095Y-62880057D02*
X129710714Y-62975295D01*
X129710714Y-62975295D02*
X129710714Y-63070533D01*
X129710714Y-63070533D02*
X129663095Y-63213390D01*
X129663095Y-63213390D02*
X129091667Y-63784819D01*
X129091667Y-63784819D02*
X129710714Y-63784819D01*
X120523095Y-56354819D02*
X120523095Y-57164342D01*
X120523095Y-57164342D02*
X120570714Y-57259580D01*
X120570714Y-57259580D02*
X120618333Y-57307200D01*
X120618333Y-57307200D02*
X120713571Y-57354819D01*
X120713571Y-57354819D02*
X120904047Y-57354819D01*
X120904047Y-57354819D02*
X120999285Y-57307200D01*
X120999285Y-57307200D02*
X121046904Y-57259580D01*
X121046904Y-57259580D02*
X121094523Y-57164342D01*
X121094523Y-57164342D02*
X121094523Y-56354819D01*
X122094523Y-57354819D02*
X121523095Y-57354819D01*
X121808809Y-57354819D02*
X121808809Y-56354819D01*
X121808809Y-56354819D02*
X121713571Y-56497676D01*
X121713571Y-56497676D02*
X121618333Y-56592914D01*
X121618333Y-56592914D02*
X121523095Y-56640533D01*
X115474761Y-57450057D02*
X115379523Y-57402438D01*
X115379523Y-57402438D02*
X115284285Y-57307200D01*
X115284285Y-57307200D02*
X115141428Y-57164342D01*
X115141428Y-57164342D02*
X115046190Y-57116723D01*
X115046190Y-57116723D02*
X114950952Y-57116723D01*
X114998571Y-57354819D02*
X114903333Y-57307200D01*
X114903333Y-57307200D02*
X114808095Y-57211961D01*
X114808095Y-57211961D02*
X114760476Y-57021485D01*
X114760476Y-57021485D02*
X114760476Y-56688152D01*
X114760476Y-56688152D02*
X114808095Y-56497676D01*
X114808095Y-56497676D02*
X114903333Y-56402438D01*
X114903333Y-56402438D02*
X114998571Y-56354819D01*
X114998571Y-56354819D02*
X115189047Y-56354819D01*
X115189047Y-56354819D02*
X115284285Y-56402438D01*
X115284285Y-56402438D02*
X115379523Y-56497676D01*
X115379523Y-56497676D02*
X115427142Y-56688152D01*
X115427142Y-56688152D02*
X115427142Y-57021485D01*
X115427142Y-57021485D02*
X115379523Y-57211961D01*
X115379523Y-57211961D02*
X115284285Y-57307200D01*
X115284285Y-57307200D02*
X115189047Y-57354819D01*
X115189047Y-57354819D02*
X114998571Y-57354819D01*
X115760476Y-56354819D02*
X116379523Y-56354819D01*
X116379523Y-56354819D02*
X116046190Y-56735771D01*
X116046190Y-56735771D02*
X116189047Y-56735771D01*
X116189047Y-56735771D02*
X116284285Y-56783390D01*
X116284285Y-56783390D02*
X116331904Y-56831009D01*
X116331904Y-56831009D02*
X116379523Y-56926247D01*
X116379523Y-56926247D02*
X116379523Y-57164342D01*
X116379523Y-57164342D02*
X116331904Y-57259580D01*
X116331904Y-57259580D02*
X116284285Y-57307200D01*
X116284285Y-57307200D02*
X116189047Y-57354819D01*
X116189047Y-57354819D02*
X115903333Y-57354819D01*
X115903333Y-57354819D02*
X115808095Y-57307200D01*
X115808095Y-57307200D02*
X115760476Y-57259580D01*
X121078333Y-67669580D02*
X121030714Y-67717200D01*
X121030714Y-67717200D02*
X120887857Y-67764819D01*
X120887857Y-67764819D02*
X120792619Y-67764819D01*
X120792619Y-67764819D02*
X120649762Y-67717200D01*
X120649762Y-67717200D02*
X120554524Y-67621961D01*
X120554524Y-67621961D02*
X120506905Y-67526723D01*
X120506905Y-67526723D02*
X120459286Y-67336247D01*
X120459286Y-67336247D02*
X120459286Y-67193390D01*
X120459286Y-67193390D02*
X120506905Y-67002914D01*
X120506905Y-67002914D02*
X120554524Y-66907676D01*
X120554524Y-66907676D02*
X120649762Y-66812438D01*
X120649762Y-66812438D02*
X120792619Y-66764819D01*
X120792619Y-66764819D02*
X120887857Y-66764819D01*
X120887857Y-66764819D02*
X121030714Y-66812438D01*
X121030714Y-66812438D02*
X121078333Y-66860057D01*
X122030714Y-67764819D02*
X121459286Y-67764819D01*
X121745000Y-67764819D02*
X121745000Y-66764819D01*
X121745000Y-66764819D02*
X121649762Y-66907676D01*
X121649762Y-66907676D02*
X121554524Y-67002914D01*
X121554524Y-67002914D02*
X121459286Y-67050533D01*
X104044761Y-57450057D02*
X103949523Y-57402438D01*
X103949523Y-57402438D02*
X103854285Y-57307200D01*
X103854285Y-57307200D02*
X103711428Y-57164342D01*
X103711428Y-57164342D02*
X103616190Y-57116723D01*
X103616190Y-57116723D02*
X103520952Y-57116723D01*
X103568571Y-57354819D02*
X103473333Y-57307200D01*
X103473333Y-57307200D02*
X103378095Y-57211961D01*
X103378095Y-57211961D02*
X103330476Y-57021485D01*
X103330476Y-57021485D02*
X103330476Y-56688152D01*
X103330476Y-56688152D02*
X103378095Y-56497676D01*
X103378095Y-56497676D02*
X103473333Y-56402438D01*
X103473333Y-56402438D02*
X103568571Y-56354819D01*
X103568571Y-56354819D02*
X103759047Y-56354819D01*
X103759047Y-56354819D02*
X103854285Y-56402438D01*
X103854285Y-56402438D02*
X103949523Y-56497676D01*
X103949523Y-56497676D02*
X103997142Y-56688152D01*
X103997142Y-56688152D02*
X103997142Y-57021485D01*
X103997142Y-57021485D02*
X103949523Y-57211961D01*
X103949523Y-57211961D02*
X103854285Y-57307200D01*
X103854285Y-57307200D02*
X103759047Y-57354819D01*
X103759047Y-57354819D02*
X103568571Y-57354819D01*
X104949523Y-57354819D02*
X104378095Y-57354819D01*
X104663809Y-57354819D02*
X104663809Y-56354819D01*
X104663809Y-56354819D02*
X104568571Y-56497676D01*
X104568571Y-56497676D02*
X104473333Y-56592914D01*
X104473333Y-56592914D02*
X104378095Y-56640533D01*
X109759761Y-57450057D02*
X109664523Y-57402438D01*
X109664523Y-57402438D02*
X109569285Y-57307200D01*
X109569285Y-57307200D02*
X109426428Y-57164342D01*
X109426428Y-57164342D02*
X109331190Y-57116723D01*
X109331190Y-57116723D02*
X109235952Y-57116723D01*
X109283571Y-57354819D02*
X109188333Y-57307200D01*
X109188333Y-57307200D02*
X109093095Y-57211961D01*
X109093095Y-57211961D02*
X109045476Y-57021485D01*
X109045476Y-57021485D02*
X109045476Y-56688152D01*
X109045476Y-56688152D02*
X109093095Y-56497676D01*
X109093095Y-56497676D02*
X109188333Y-56402438D01*
X109188333Y-56402438D02*
X109283571Y-56354819D01*
X109283571Y-56354819D02*
X109474047Y-56354819D01*
X109474047Y-56354819D02*
X109569285Y-56402438D01*
X109569285Y-56402438D02*
X109664523Y-56497676D01*
X109664523Y-56497676D02*
X109712142Y-56688152D01*
X109712142Y-56688152D02*
X109712142Y-57021485D01*
X109712142Y-57021485D02*
X109664523Y-57211961D01*
X109664523Y-57211961D02*
X109569285Y-57307200D01*
X109569285Y-57307200D02*
X109474047Y-57354819D01*
X109474047Y-57354819D02*
X109283571Y-57354819D01*
X110093095Y-56450057D02*
X110140714Y-56402438D01*
X110140714Y-56402438D02*
X110235952Y-56354819D01*
X110235952Y-56354819D02*
X110474047Y-56354819D01*
X110474047Y-56354819D02*
X110569285Y-56402438D01*
X110569285Y-56402438D02*
X110616904Y-56450057D01*
X110616904Y-56450057D02*
X110664523Y-56545295D01*
X110664523Y-56545295D02*
X110664523Y-56640533D01*
X110664523Y-56640533D02*
X110616904Y-56783390D01*
X110616904Y-56783390D02*
X110045476Y-57354819D01*
X110045476Y-57354819D02*
X110664523Y-57354819D01*
X94281666Y-70304819D02*
X94281666Y-71019104D01*
X94281666Y-71019104D02*
X94234047Y-71161961D01*
X94234047Y-71161961D02*
X94138809Y-71257200D01*
X94138809Y-71257200D02*
X93995952Y-71304819D01*
X93995952Y-71304819D02*
X93900714Y-71304819D01*
X94710238Y-70400057D02*
X94757857Y-70352438D01*
X94757857Y-70352438D02*
X94853095Y-70304819D01*
X94853095Y-70304819D02*
X95091190Y-70304819D01*
X95091190Y-70304819D02*
X95186428Y-70352438D01*
X95186428Y-70352438D02*
X95234047Y-70400057D01*
X95234047Y-70400057D02*
X95281666Y-70495295D01*
X95281666Y-70495295D02*
X95281666Y-70590533D01*
X95281666Y-70590533D02*
X95234047Y-70733390D01*
X95234047Y-70733390D02*
X94662619Y-71304819D01*
X94662619Y-71304819D02*
X95281666Y-71304819D01*
X106513333Y-59509819D02*
X106180000Y-59033628D01*
X105941905Y-59509819D02*
X105941905Y-58509819D01*
X105941905Y-58509819D02*
X106322857Y-58509819D01*
X106322857Y-58509819D02*
X106418095Y-58557438D01*
X106418095Y-58557438D02*
X106465714Y-58605057D01*
X106465714Y-58605057D02*
X106513333Y-58700295D01*
X106513333Y-58700295D02*
X106513333Y-58843152D01*
X106513333Y-58843152D02*
X106465714Y-58938390D01*
X106465714Y-58938390D02*
X106418095Y-58986009D01*
X106418095Y-58986009D02*
X106322857Y-59033628D01*
X106322857Y-59033628D02*
X105941905Y-59033628D01*
X106894286Y-58605057D02*
X106941905Y-58557438D01*
X106941905Y-58557438D02*
X107037143Y-58509819D01*
X107037143Y-58509819D02*
X107275238Y-58509819D01*
X107275238Y-58509819D02*
X107370476Y-58557438D01*
X107370476Y-58557438D02*
X107418095Y-58605057D01*
X107418095Y-58605057D02*
X107465714Y-58700295D01*
X107465714Y-58700295D02*
X107465714Y-58795533D01*
X107465714Y-58795533D02*
X107418095Y-58938390D01*
X107418095Y-58938390D02*
X106846667Y-59509819D01*
X106846667Y-59509819D02*
X107465714Y-59509819D01*
X110323333Y-59509819D02*
X109990000Y-59033628D01*
X109751905Y-59509819D02*
X109751905Y-58509819D01*
X109751905Y-58509819D02*
X110132857Y-58509819D01*
X110132857Y-58509819D02*
X110228095Y-58557438D01*
X110228095Y-58557438D02*
X110275714Y-58605057D01*
X110275714Y-58605057D02*
X110323333Y-58700295D01*
X110323333Y-58700295D02*
X110323333Y-58843152D01*
X110323333Y-58843152D02*
X110275714Y-58938390D01*
X110275714Y-58938390D02*
X110228095Y-58986009D01*
X110228095Y-58986009D02*
X110132857Y-59033628D01*
X110132857Y-59033628D02*
X109751905Y-59033628D01*
X110656667Y-58509819D02*
X111275714Y-58509819D01*
X111275714Y-58509819D02*
X110942381Y-58890771D01*
X110942381Y-58890771D02*
X111085238Y-58890771D01*
X111085238Y-58890771D02*
X111180476Y-58938390D01*
X111180476Y-58938390D02*
X111228095Y-58986009D01*
X111228095Y-58986009D02*
X111275714Y-59081247D01*
X111275714Y-59081247D02*
X111275714Y-59319342D01*
X111275714Y-59319342D02*
X111228095Y-59414580D01*
X111228095Y-59414580D02*
X111180476Y-59462200D01*
X111180476Y-59462200D02*
X111085238Y-59509819D01*
X111085238Y-59509819D02*
X110799524Y-59509819D01*
X110799524Y-59509819D02*
X110704286Y-59462200D01*
X110704286Y-59462200D02*
X110656667Y-59414580D01*
X130071905Y-60144819D02*
X130071905Y-59144819D01*
X130071905Y-59144819D02*
X130310000Y-59144819D01*
X130310000Y-59144819D02*
X130452857Y-59192438D01*
X130452857Y-59192438D02*
X130548095Y-59287676D01*
X130548095Y-59287676D02*
X130595714Y-59382914D01*
X130595714Y-59382914D02*
X130643333Y-59573390D01*
X130643333Y-59573390D02*
X130643333Y-59716247D01*
X130643333Y-59716247D02*
X130595714Y-59906723D01*
X130595714Y-59906723D02*
X130548095Y-60001961D01*
X130548095Y-60001961D02*
X130452857Y-60097200D01*
X130452857Y-60097200D02*
X130310000Y-60144819D01*
X130310000Y-60144819D02*
X130071905Y-60144819D01*
X131024286Y-59240057D02*
X131071905Y-59192438D01*
X131071905Y-59192438D02*
X131167143Y-59144819D01*
X131167143Y-59144819D02*
X131405238Y-59144819D01*
X131405238Y-59144819D02*
X131500476Y-59192438D01*
X131500476Y-59192438D02*
X131548095Y-59240057D01*
X131548095Y-59240057D02*
X131595714Y-59335295D01*
X131595714Y-59335295D02*
X131595714Y-59430533D01*
X131595714Y-59430533D02*
X131548095Y-59573390D01*
X131548095Y-59573390D02*
X130976667Y-60144819D01*
X130976667Y-60144819D02*
X131595714Y-60144819D01*
X129879104Y-55588094D02*
X129879104Y-55111904D01*
X130164819Y-55683332D02*
X129164819Y-55349999D01*
X129164819Y-55349999D02*
X130164819Y-55016666D01*
X114133333Y-59509819D02*
X113800000Y-59033628D01*
X113561905Y-59509819D02*
X113561905Y-58509819D01*
X113561905Y-58509819D02*
X113942857Y-58509819D01*
X113942857Y-58509819D02*
X114038095Y-58557438D01*
X114038095Y-58557438D02*
X114085714Y-58605057D01*
X114085714Y-58605057D02*
X114133333Y-58700295D01*
X114133333Y-58700295D02*
X114133333Y-58843152D01*
X114133333Y-58843152D02*
X114085714Y-58938390D01*
X114085714Y-58938390D02*
X114038095Y-58986009D01*
X114038095Y-58986009D02*
X113942857Y-59033628D01*
X113942857Y-59033628D02*
X113561905Y-59033628D01*
X114990476Y-58843152D02*
X114990476Y-59509819D01*
X114752381Y-58462200D02*
X114514286Y-59176485D01*
X114514286Y-59176485D02*
X115133333Y-59176485D01*
X125626905Y-60144819D02*
X125626905Y-59144819D01*
X125626905Y-59144819D02*
X125865000Y-59144819D01*
X125865000Y-59144819D02*
X126007857Y-59192438D01*
X126007857Y-59192438D02*
X126103095Y-59287676D01*
X126103095Y-59287676D02*
X126150714Y-59382914D01*
X126150714Y-59382914D02*
X126198333Y-59573390D01*
X126198333Y-59573390D02*
X126198333Y-59716247D01*
X126198333Y-59716247D02*
X126150714Y-59906723D01*
X126150714Y-59906723D02*
X126103095Y-60001961D01*
X126103095Y-60001961D02*
X126007857Y-60097200D01*
X126007857Y-60097200D02*
X125865000Y-60144819D01*
X125865000Y-60144819D02*
X125626905Y-60144819D01*
X127150714Y-60144819D02*
X126579286Y-60144819D01*
X126865000Y-60144819D02*
X126865000Y-59144819D01*
X126865000Y-59144819D02*
X126769762Y-59287676D01*
X126769762Y-59287676D02*
X126674524Y-59382914D01*
X126674524Y-59382914D02*
X126579286Y-59430533D01*
X125434104Y-55588094D02*
X125434104Y-55111904D01*
X125719819Y-55683332D02*
X124719819Y-55349999D01*
X124719819Y-55349999D02*
X125719819Y-55016666D01*
X102703333Y-59509819D02*
X102370000Y-59033628D01*
X102131905Y-59509819D02*
X102131905Y-58509819D01*
X102131905Y-58509819D02*
X102512857Y-58509819D01*
X102512857Y-58509819D02*
X102608095Y-58557438D01*
X102608095Y-58557438D02*
X102655714Y-58605057D01*
X102655714Y-58605057D02*
X102703333Y-58700295D01*
X102703333Y-58700295D02*
X102703333Y-58843152D01*
X102703333Y-58843152D02*
X102655714Y-58938390D01*
X102655714Y-58938390D02*
X102608095Y-58986009D01*
X102608095Y-58986009D02*
X102512857Y-59033628D01*
X102512857Y-59033628D02*
X102131905Y-59033628D01*
X103655714Y-59509819D02*
X103084286Y-59509819D01*
X103370000Y-59509819D02*
X103370000Y-58509819D01*
X103370000Y-58509819D02*
X103274762Y-58652676D01*
X103274762Y-58652676D02*
X103179524Y-58747914D01*
X103179524Y-58747914D02*
X103084286Y-58795533D01*
X136191666Y-68034819D02*
X136191666Y-68749104D01*
X136191666Y-68749104D02*
X136144047Y-68891961D01*
X136144047Y-68891961D02*
X136048809Y-68987200D01*
X136048809Y-68987200D02*
X135905952Y-69034819D01*
X135905952Y-69034819D02*
X135810714Y-69034819D01*
X137191666Y-69034819D02*
X136620238Y-69034819D01*
X136905952Y-69034819D02*
X136905952Y-68034819D01*
X136905952Y-68034819D02*
X136810714Y-68177676D01*
X136810714Y-68177676D02*
X136715476Y-68272914D01*
X136715476Y-68272914D02*
X136620238Y-68320533D01*
D11*
%TO.C,C2*%
X132966000Y-67812000D02*
X132966000Y-69348000D01*
X124915302Y-65865000D02*
X124915302Y-66665000D01*
X132846000Y-67351000D02*
X132846000Y-69809000D01*
X129926000Y-64623000D02*
X129926000Y-67540000D01*
X130966000Y-65040000D02*
X130966000Y-67540000D01*
X130326000Y-64745000D02*
X130326000Y-67540000D01*
X131726000Y-65597000D02*
X131726000Y-71563000D01*
X129686000Y-69620000D02*
X129686000Y-72590000D01*
X130286000Y-64730000D02*
X130286000Y-67540000D01*
X130406000Y-64775000D02*
X130406000Y-67540000D01*
X132206000Y-66126000D02*
X132206000Y-71034000D01*
X132326000Y-66293000D02*
X132326000Y-70867000D01*
X132406000Y-66414000D02*
X132406000Y-70746000D01*
X131126000Y-65136000D02*
X131126000Y-67540000D01*
X129285000Y-69620000D02*
X129285000Y-72645000D01*
X130006000Y-64644000D02*
X130006000Y-67540000D01*
X132686000Y-66935000D02*
X132686000Y-70225000D01*
X129726000Y-64578000D02*
X129726000Y-67540000D01*
X129165000Y-64506000D02*
X129165000Y-67540000D01*
X130846000Y-64974000D02*
X130846000Y-67540000D01*
X130846000Y-69620000D02*
X130846000Y-72186000D01*
X132166000Y-66075000D02*
X132166000Y-71085000D01*
X129766000Y-64586000D02*
X129766000Y-67540000D01*
X130806000Y-69620000D02*
X130806000Y-72207000D01*
X130606000Y-69620000D02*
X130606000Y-72302000D01*
X131686000Y-65561000D02*
X131686000Y-71599000D01*
X130886000Y-64996000D02*
X130886000Y-67540000D01*
X130926000Y-65018000D02*
X130926000Y-67540000D01*
X129085000Y-64503000D02*
X129085000Y-72657000D01*
X129846000Y-69620000D02*
X129846000Y-72556000D01*
X130326000Y-69620000D02*
X130326000Y-72415000D01*
X130206000Y-64703000D02*
X130206000Y-67540000D01*
X129565000Y-64550000D02*
X129565000Y-67540000D01*
X131526000Y-65424000D02*
X131526000Y-71736000D01*
X129926000Y-69620000D02*
X129926000Y-72537000D01*
X129525000Y-69620000D02*
X129525000Y-72617000D01*
X129365000Y-69620000D02*
X129365000Y-72637000D01*
X132726000Y-67028000D02*
X132726000Y-70132000D01*
X129726000Y-69620000D02*
X129726000Y-72582000D01*
X131446000Y-65360000D02*
X131446000Y-71800000D01*
X129205000Y-69620000D02*
X129205000Y-72651000D01*
X132566000Y-66690000D02*
X132566000Y-70470000D01*
X129405000Y-64528000D02*
X129405000Y-67540000D01*
X131966000Y-65839000D02*
X131966000Y-71321000D01*
X131886000Y-65754000D02*
X131886000Y-71406000D01*
X131086000Y-65111000D02*
X131086000Y-67540000D01*
X132766000Y-67127000D02*
X132766000Y-70033000D01*
X131366000Y-65300000D02*
X131366000Y-71860000D01*
X131646000Y-65525000D02*
X131646000Y-71635000D01*
X132806000Y-67234000D02*
X132806000Y-69926000D01*
X131606000Y-65490000D02*
X131606000Y-71670000D01*
X130606000Y-64858000D02*
X130606000Y-67540000D01*
X129806000Y-64595000D02*
X129806000Y-67540000D01*
X130526000Y-64823000D02*
X130526000Y-67540000D01*
X129205000Y-64509000D02*
X129205000Y-67540000D01*
X132926000Y-67632000D02*
X132926000Y-69528000D01*
X129686000Y-64570000D02*
X129686000Y-67540000D01*
X130086000Y-64666000D02*
X130086000Y-67540000D01*
X129646000Y-69620000D02*
X129646000Y-72597000D01*
X129485000Y-64538000D02*
X129485000Y-67540000D01*
X128965000Y-64500000D02*
X128965000Y-72660000D01*
X130926000Y-69620000D02*
X130926000Y-72142000D01*
X129165000Y-69620000D02*
X129165000Y-72654000D01*
X131566000Y-65456000D02*
X131566000Y-71704000D01*
X130446000Y-64790000D02*
X130446000Y-67540000D01*
X131086000Y-69620000D02*
X131086000Y-72049000D01*
X132046000Y-65929000D02*
X132046000Y-71231000D01*
X128925000Y-64500000D02*
X128925000Y-72660000D01*
X130366000Y-64759000D02*
X130366000Y-67540000D01*
X131006000Y-69620000D02*
X131006000Y-72097000D01*
X129405000Y-69620000D02*
X129405000Y-72632000D01*
X131246000Y-65215000D02*
X131246000Y-71945000D01*
X129886000Y-69620000D02*
X129886000Y-72547000D01*
X130646000Y-64876000D02*
X130646000Y-67540000D01*
X129485000Y-69620000D02*
X129485000Y-72622000D01*
X131286000Y-65242000D02*
X131286000Y-71918000D01*
X129125000Y-64504000D02*
X129125000Y-72656000D01*
X130766000Y-64933000D02*
X130766000Y-67540000D01*
X131326000Y-65271000D02*
X131326000Y-71889000D01*
X130046000Y-69620000D02*
X130046000Y-72505000D01*
X130246000Y-64717000D02*
X130246000Y-67540000D01*
X132086000Y-65976000D02*
X132086000Y-71184000D01*
X129646000Y-64563000D02*
X129646000Y-67540000D01*
X131126000Y-69620000D02*
X131126000Y-72024000D01*
X130126000Y-69620000D02*
X130126000Y-72482000D01*
X131486000Y-65391000D02*
X131486000Y-71769000D01*
X130406000Y-69620000D02*
X130406000Y-72385000D01*
X129245000Y-64512000D02*
X129245000Y-67540000D01*
X132446000Y-66478000D02*
X132446000Y-70682000D01*
X131046000Y-69620000D02*
X131046000Y-72073000D01*
X130686000Y-64894000D02*
X130686000Y-67540000D01*
X129365000Y-64523000D02*
X129365000Y-67540000D01*
X130206000Y-69620000D02*
X130206000Y-72457000D01*
X129605000Y-64556000D02*
X129605000Y-67540000D01*
X132486000Y-66546000D02*
X132486000Y-70614000D01*
X131006000Y-65063000D02*
X131006000Y-67540000D01*
X129325000Y-64519000D02*
X129325000Y-67540000D01*
X130526000Y-69620000D02*
X130526000Y-72337000D01*
X130766000Y-69620000D02*
X130766000Y-72227000D01*
X133006000Y-68047000D02*
X133006000Y-69113000D01*
X130366000Y-69620000D02*
X130366000Y-72401000D01*
X130806000Y-64953000D02*
X130806000Y-67540000D01*
X131406000Y-65330000D02*
X131406000Y-71830000D01*
X129525000Y-64543000D02*
X129525000Y-67540000D01*
X130166000Y-69620000D02*
X130166000Y-72469000D01*
X130646000Y-69620000D02*
X130646000Y-72284000D01*
X132286000Y-66235000D02*
X132286000Y-70925000D01*
X130486000Y-64806000D02*
X130486000Y-67540000D01*
X131806000Y-65673000D02*
X131806000Y-71487000D01*
X132006000Y-65883000D02*
X132006000Y-71277000D01*
X129966000Y-69620000D02*
X129966000Y-72527000D01*
X130886000Y-69620000D02*
X130886000Y-72164000D01*
X129806000Y-69620000D02*
X129806000Y-72565000D01*
X129285000Y-64515000D02*
X129285000Y-67540000D01*
X132526000Y-66616000D02*
X132526000Y-70544000D01*
X130046000Y-64655000D02*
X130046000Y-67540000D01*
X130166000Y-64691000D02*
X130166000Y-67540000D01*
X131766000Y-65635000D02*
X131766000Y-71525000D01*
X131206000Y-69620000D02*
X131206000Y-71972000D01*
X132126000Y-66024000D02*
X132126000Y-71136000D01*
X130726000Y-64914000D02*
X130726000Y-67540000D01*
X130566000Y-64840000D02*
X130566000Y-67540000D01*
X130126000Y-64678000D02*
X130126000Y-67540000D01*
X129245000Y-69620000D02*
X129245000Y-72648000D01*
X129766000Y-69620000D02*
X129766000Y-72574000D01*
X129846000Y-64604000D02*
X129846000Y-67540000D01*
X129445000Y-69620000D02*
X129445000Y-72628000D01*
X130286000Y-69620000D02*
X130286000Y-72430000D01*
X132366000Y-66352000D02*
X132366000Y-70808000D01*
X129445000Y-64532000D02*
X129445000Y-67540000D01*
X130566000Y-69620000D02*
X130566000Y-72320000D01*
X130246000Y-69620000D02*
X130246000Y-72443000D01*
X129886000Y-64613000D02*
X129886000Y-67540000D01*
X130086000Y-69620000D02*
X130086000Y-72494000D01*
X130686000Y-69620000D02*
X130686000Y-72266000D01*
X132886000Y-67482000D02*
X132886000Y-69678000D01*
X131206000Y-65188000D02*
X131206000Y-67540000D01*
X132606000Y-66767000D02*
X132606000Y-70393000D01*
X124515302Y-66265000D02*
X125315302Y-66265000D01*
X131046000Y-65087000D02*
X131046000Y-67540000D01*
X129045000Y-64501000D02*
X129045000Y-72659000D01*
X130966000Y-69620000D02*
X130966000Y-72120000D01*
X131166000Y-69620000D02*
X131166000Y-71998000D01*
X129325000Y-69620000D02*
X129325000Y-72641000D01*
X130726000Y-69620000D02*
X130726000Y-72246000D01*
X129565000Y-69620000D02*
X129565000Y-72610000D01*
X129005000Y-64500000D02*
X129005000Y-72660000D01*
X130006000Y-69620000D02*
X130006000Y-72516000D01*
X131846000Y-65713000D02*
X131846000Y-71447000D01*
X131926000Y-65796000D02*
X131926000Y-71364000D01*
X129966000Y-64633000D02*
X129966000Y-67540000D01*
X132246000Y-66180000D02*
X132246000Y-70980000D01*
X130486000Y-69620000D02*
X130486000Y-72354000D01*
X129605000Y-69620000D02*
X129605000Y-72604000D01*
X131166000Y-65162000D02*
X131166000Y-67540000D01*
X132646000Y-66849000D02*
X132646000Y-70311000D01*
X130446000Y-69620000D02*
X130446000Y-72370000D01*
X133045000Y-68580000D02*
G75*
G03*
X124805000Y-68580000I-4120000J0D01*
G01*
X124805000Y-68580000D02*
G75*
G03*
X133045000Y-68580000I4120000J0D01*
G01*
%TO.C,U1*%
X123085000Y-51490000D02*
X119485000Y-51490000D01*
X119446522Y-51501522D02*
G75*
G03*
X121285000Y-55940000I1838478J-1838478D01*
G01*
X121285000Y-55940000D02*
G75*
G03*
X123123478Y-51501522I0J2600000D01*
G01*
%TO.C,Q3*%
X117370000Y-51490000D02*
X113770000Y-51490000D01*
X113731522Y-51501522D02*
G75*
G03*
X115570000Y-55940000I1838478J-1838478D01*
G01*
X115570000Y-55940000D02*
G75*
G03*
X117408478Y-51501522I0J2600000D01*
G01*
%TO.C,C1*%
X116855302Y-59915000D02*
X117655302Y-59915000D01*
X117255302Y-59515000D02*
X117255302Y-60315000D01*
X121265000Y-58150000D02*
X121265000Y-66310000D01*
X121305000Y-58150000D02*
X121305000Y-66310000D01*
X121345000Y-58150000D02*
X121345000Y-66310000D01*
X121385000Y-58151000D02*
X121385000Y-66309000D01*
X121425000Y-58153000D02*
X121425000Y-66307000D01*
X121465000Y-58154000D02*
X121465000Y-66306000D01*
X121505000Y-58156000D02*
X121505000Y-61190000D01*
X121505000Y-63270000D02*
X121505000Y-66304000D01*
X121545000Y-58159000D02*
X121545000Y-61190000D01*
X121545000Y-63270000D02*
X121545000Y-66301000D01*
X121585000Y-58162000D02*
X121585000Y-61190000D01*
X121585000Y-63270000D02*
X121585000Y-66298000D01*
X121625000Y-58165000D02*
X121625000Y-61190000D01*
X121625000Y-63270000D02*
X121625000Y-66295000D01*
X121665000Y-58169000D02*
X121665000Y-61190000D01*
X121665000Y-63270000D02*
X121665000Y-66291000D01*
X121705000Y-58173000D02*
X121705000Y-61190000D01*
X121705000Y-63270000D02*
X121705000Y-66287000D01*
X121745000Y-58178000D02*
X121745000Y-61190000D01*
X121745000Y-63270000D02*
X121745000Y-66282000D01*
X121785000Y-58182000D02*
X121785000Y-61190000D01*
X121785000Y-63270000D02*
X121785000Y-66278000D01*
X121825000Y-58188000D02*
X121825000Y-61190000D01*
X121825000Y-63270000D02*
X121825000Y-66272000D01*
X121865000Y-58193000D02*
X121865000Y-61190000D01*
X121865000Y-63270000D02*
X121865000Y-66267000D01*
X121905000Y-58200000D02*
X121905000Y-61190000D01*
X121905000Y-63270000D02*
X121905000Y-66260000D01*
X121945000Y-58206000D02*
X121945000Y-61190000D01*
X121945000Y-63270000D02*
X121945000Y-66254000D01*
X121986000Y-58213000D02*
X121986000Y-61190000D01*
X121986000Y-63270000D02*
X121986000Y-66247000D01*
X122026000Y-58220000D02*
X122026000Y-61190000D01*
X122026000Y-63270000D02*
X122026000Y-66240000D01*
X122066000Y-58228000D02*
X122066000Y-61190000D01*
X122066000Y-63270000D02*
X122066000Y-66232000D01*
X122106000Y-58236000D02*
X122106000Y-61190000D01*
X122106000Y-63270000D02*
X122106000Y-66224000D01*
X122146000Y-58245000D02*
X122146000Y-61190000D01*
X122146000Y-63270000D02*
X122146000Y-66215000D01*
X122186000Y-58254000D02*
X122186000Y-61190000D01*
X122186000Y-63270000D02*
X122186000Y-66206000D01*
X122226000Y-58263000D02*
X122226000Y-61190000D01*
X122226000Y-63270000D02*
X122226000Y-66197000D01*
X122266000Y-58273000D02*
X122266000Y-61190000D01*
X122266000Y-63270000D02*
X122266000Y-66187000D01*
X122306000Y-58283000D02*
X122306000Y-61190000D01*
X122306000Y-63270000D02*
X122306000Y-66177000D01*
X122346000Y-58294000D02*
X122346000Y-61190000D01*
X122346000Y-63270000D02*
X122346000Y-66166000D01*
X122386000Y-58305000D02*
X122386000Y-61190000D01*
X122386000Y-63270000D02*
X122386000Y-66155000D01*
X122426000Y-58316000D02*
X122426000Y-61190000D01*
X122426000Y-63270000D02*
X122426000Y-66144000D01*
X122466000Y-58328000D02*
X122466000Y-61190000D01*
X122466000Y-63270000D02*
X122466000Y-66132000D01*
X122506000Y-58341000D02*
X122506000Y-61190000D01*
X122506000Y-63270000D02*
X122506000Y-66119000D01*
X122546000Y-58353000D02*
X122546000Y-61190000D01*
X122546000Y-63270000D02*
X122546000Y-66107000D01*
X122586000Y-58367000D02*
X122586000Y-61190000D01*
X122586000Y-63270000D02*
X122586000Y-66093000D01*
X122626000Y-58380000D02*
X122626000Y-61190000D01*
X122626000Y-63270000D02*
X122626000Y-66080000D01*
X122666000Y-58395000D02*
X122666000Y-61190000D01*
X122666000Y-63270000D02*
X122666000Y-66065000D01*
X122706000Y-58409000D02*
X122706000Y-61190000D01*
X122706000Y-63270000D02*
X122706000Y-66051000D01*
X122746000Y-58425000D02*
X122746000Y-61190000D01*
X122746000Y-63270000D02*
X122746000Y-66035000D01*
X122786000Y-58440000D02*
X122786000Y-61190000D01*
X122786000Y-63270000D02*
X122786000Y-66020000D01*
X122826000Y-58456000D02*
X122826000Y-61190000D01*
X122826000Y-63270000D02*
X122826000Y-66004000D01*
X122866000Y-58473000D02*
X122866000Y-61190000D01*
X122866000Y-63270000D02*
X122866000Y-65987000D01*
X122906000Y-58490000D02*
X122906000Y-61190000D01*
X122906000Y-63270000D02*
X122906000Y-65970000D01*
X122946000Y-58508000D02*
X122946000Y-61190000D01*
X122946000Y-63270000D02*
X122946000Y-65952000D01*
X122986000Y-58526000D02*
X122986000Y-61190000D01*
X122986000Y-63270000D02*
X122986000Y-65934000D01*
X123026000Y-58544000D02*
X123026000Y-61190000D01*
X123026000Y-63270000D02*
X123026000Y-65916000D01*
X123066000Y-58564000D02*
X123066000Y-61190000D01*
X123066000Y-63270000D02*
X123066000Y-65896000D01*
X123106000Y-58583000D02*
X123106000Y-61190000D01*
X123106000Y-63270000D02*
X123106000Y-65877000D01*
X123146000Y-58603000D02*
X123146000Y-61190000D01*
X123146000Y-63270000D02*
X123146000Y-65857000D01*
X123186000Y-58624000D02*
X123186000Y-61190000D01*
X123186000Y-63270000D02*
X123186000Y-65836000D01*
X123226000Y-58646000D02*
X123226000Y-61190000D01*
X123226000Y-63270000D02*
X123226000Y-65814000D01*
X123266000Y-58668000D02*
X123266000Y-61190000D01*
X123266000Y-63270000D02*
X123266000Y-65792000D01*
X123306000Y-58690000D02*
X123306000Y-61190000D01*
X123306000Y-63270000D02*
X123306000Y-65770000D01*
X123346000Y-58713000D02*
X123346000Y-61190000D01*
X123346000Y-63270000D02*
X123346000Y-65747000D01*
X123386000Y-58737000D02*
X123386000Y-61190000D01*
X123386000Y-63270000D02*
X123386000Y-65723000D01*
X123426000Y-58761000D02*
X123426000Y-61190000D01*
X123426000Y-63270000D02*
X123426000Y-65699000D01*
X123466000Y-58786000D02*
X123466000Y-61190000D01*
X123466000Y-63270000D02*
X123466000Y-65674000D01*
X123506000Y-58812000D02*
X123506000Y-61190000D01*
X123506000Y-63270000D02*
X123506000Y-65648000D01*
X123546000Y-58838000D02*
X123546000Y-61190000D01*
X123546000Y-63270000D02*
X123546000Y-65622000D01*
X123586000Y-58865000D02*
X123586000Y-65595000D01*
X123626000Y-58892000D02*
X123626000Y-65568000D01*
X123666000Y-58921000D02*
X123666000Y-65539000D01*
X123706000Y-58950000D02*
X123706000Y-65510000D01*
X123746000Y-58980000D02*
X123746000Y-65480000D01*
X123786000Y-59010000D02*
X123786000Y-65450000D01*
X123826000Y-59041000D02*
X123826000Y-65419000D01*
X123866000Y-59074000D02*
X123866000Y-65386000D01*
X123906000Y-59106000D02*
X123906000Y-65354000D01*
X123946000Y-59140000D02*
X123946000Y-65320000D01*
X123986000Y-59175000D02*
X123986000Y-65285000D01*
X124026000Y-59211000D02*
X124026000Y-65249000D01*
X124066000Y-59247000D02*
X124066000Y-65213000D01*
X124106000Y-59285000D02*
X124106000Y-65175000D01*
X124146000Y-59323000D02*
X124146000Y-65137000D01*
X124186000Y-59363000D02*
X124186000Y-65097000D01*
X124226000Y-59404000D02*
X124226000Y-65056000D01*
X124266000Y-59446000D02*
X124266000Y-65014000D01*
X124306000Y-59489000D02*
X124306000Y-64971000D01*
X124346000Y-59533000D02*
X124346000Y-64927000D01*
X124386000Y-59579000D02*
X124386000Y-64881000D01*
X124426000Y-59626000D02*
X124426000Y-64834000D01*
X124466000Y-59674000D02*
X124466000Y-64786000D01*
X124506000Y-59725000D02*
X124506000Y-64735000D01*
X124546000Y-59776000D02*
X124546000Y-64684000D01*
X124586000Y-59830000D02*
X124586000Y-64630000D01*
X124626000Y-59885000D02*
X124626000Y-64575000D01*
X124666000Y-59943000D02*
X124666000Y-64517000D01*
X124706000Y-60002000D02*
X124706000Y-64458000D01*
X124746000Y-60064000D02*
X124746000Y-64396000D01*
X124786000Y-60128000D02*
X124786000Y-64332000D01*
X124826000Y-60196000D02*
X124826000Y-64264000D01*
X124866000Y-60266000D02*
X124866000Y-64194000D01*
X124906000Y-60340000D02*
X124906000Y-64120000D01*
X124946000Y-60417000D02*
X124946000Y-64043000D01*
X124986000Y-60499000D02*
X124986000Y-63961000D01*
X125026000Y-60585000D02*
X125026000Y-63875000D01*
X125066000Y-60678000D02*
X125066000Y-63782000D01*
X125106000Y-60777000D02*
X125106000Y-63683000D01*
X125146000Y-60884000D02*
X125146000Y-63576000D01*
X125186000Y-61001000D02*
X125186000Y-63459000D01*
X125226000Y-61132000D02*
X125226000Y-63328000D01*
X125266000Y-61282000D02*
X125266000Y-63178000D01*
X125306000Y-61462000D02*
X125306000Y-62998000D01*
X125346000Y-61697000D02*
X125346000Y-62763000D01*
X125385000Y-62230000D02*
G75*
G03*
X117145000Y-62230000I-4120000J0D01*
G01*
X117145000Y-62230000D02*
G75*
G03*
X125385000Y-62230000I4120000J0D01*
G01*
%TO.C,Q1*%
X105940000Y-51490000D02*
X102340000Y-51490000D01*
X104140000Y-55940000D02*
G75*
G03*
X105978478Y-51501522I0J2600000D01*
G01*
X102301522Y-51501522D02*
G75*
G03*
X104140000Y-55940000I1838478J-1838478D01*
G01*
%TO.C,Q2*%
X111655000Y-51490000D02*
X108055000Y-51490000D01*
X109855000Y-55940000D02*
G75*
G03*
X111693478Y-51501522I0J2600000D01*
G01*
X108016522Y-51501522D02*
G75*
G03*
X109855000Y-55940000I1838478J-1838478D01*
G01*
%TO.C,J2*%
X100330000Y-69850000D02*
X99060000Y-69850000D01*
X100330000Y-68580000D02*
X100330000Y-69850000D01*
X98017071Y-66420000D02*
X97562929Y-66420000D01*
X98017071Y-65660000D02*
X97562929Y-65660000D01*
X98017071Y-63880000D02*
X97562929Y-63880000D01*
X98017071Y-63120000D02*
X97562929Y-63120000D01*
X98017071Y-61340000D02*
X97562929Y-61340000D01*
X98017071Y-60580000D02*
X97562929Y-60580000D01*
X98017071Y-58800000D02*
X97562929Y-58800000D01*
X98017071Y-58040000D02*
X97562929Y-58040000D01*
X98017071Y-56260000D02*
X97562929Y-56260000D01*
X98017071Y-55500000D02*
X97562929Y-55500000D01*
X97950000Y-68960000D02*
X97562929Y-68960000D01*
X97950000Y-68200000D02*
X97562929Y-68200000D01*
X95477071Y-68960000D02*
X95080000Y-68960000D01*
X95477071Y-68200000D02*
X95080000Y-68200000D01*
X95477071Y-66420000D02*
X95080000Y-66420000D01*
X95477071Y-65660000D02*
X95080000Y-65660000D01*
X95477071Y-63880000D02*
X95080000Y-63880000D01*
X95477071Y-63120000D02*
X95080000Y-63120000D01*
X95477071Y-61340000D02*
X95080000Y-61340000D01*
X95477071Y-60580000D02*
X95080000Y-60580000D01*
X95477071Y-58800000D02*
X95080000Y-58800000D01*
X95477071Y-58040000D02*
X95080000Y-58040000D01*
X95477071Y-56260000D02*
X95080000Y-56260000D01*
X95477071Y-55500000D02*
X95080000Y-55500000D01*
X95080000Y-69910000D02*
X95080000Y-54550000D01*
X95080000Y-67310000D02*
X92420000Y-67310000D01*
X95080000Y-64770000D02*
X92420000Y-64770000D01*
X95080000Y-62230000D02*
X92420000Y-62230000D01*
X95080000Y-59690000D02*
X92420000Y-59690000D01*
X95080000Y-57150000D02*
X92420000Y-57150000D01*
X95080000Y-54550000D02*
X92420000Y-54550000D01*
X92420000Y-69910000D02*
X95080000Y-69910000D01*
X92420000Y-68960000D02*
X86420000Y-68960000D01*
X92420000Y-68900000D02*
X86420000Y-68900000D01*
X92420000Y-68780000D02*
X86420000Y-68780000D01*
X92420000Y-68660000D02*
X86420000Y-68660000D01*
X92420000Y-68540000D02*
X86420000Y-68540000D01*
X92420000Y-68420000D02*
X86420000Y-68420000D01*
X92420000Y-68300000D02*
X86420000Y-68300000D01*
X92420000Y-66420000D02*
X86420000Y-66420000D01*
X92420000Y-63880000D02*
X86420000Y-63880000D01*
X92420000Y-61340000D02*
X86420000Y-61340000D01*
X92420000Y-58800000D02*
X86420000Y-58800000D01*
X92420000Y-56260000D02*
X86420000Y-56260000D01*
X92420000Y-54550000D02*
X92420000Y-69910000D01*
X86420000Y-68960000D02*
X86420000Y-68200000D01*
X86420000Y-68200000D02*
X92420000Y-68200000D01*
X86420000Y-66420000D02*
X86420000Y-65660000D01*
X86420000Y-65660000D02*
X92420000Y-65660000D01*
X86420000Y-63880000D02*
X86420000Y-63120000D01*
X86420000Y-63120000D02*
X92420000Y-63120000D01*
X86420000Y-61340000D02*
X86420000Y-60580000D01*
X86420000Y-60580000D02*
X92420000Y-60580000D01*
X86420000Y-58800000D02*
X86420000Y-58040000D01*
X86420000Y-58040000D02*
X92420000Y-58040000D01*
X86420000Y-56260000D02*
X86420000Y-55500000D01*
X86420000Y-55500000D02*
X92420000Y-55500000D01*
%TO.C,R2*%
X106680000Y-62000000D02*
X106680000Y-62770000D01*
X108050000Y-62770000D02*
X105310000Y-62770000D01*
X105310000Y-62770000D02*
X105310000Y-69310000D01*
X108050000Y-69310000D02*
X108050000Y-62770000D01*
X105310000Y-69310000D02*
X108050000Y-69310000D01*
X106680000Y-70080000D02*
X106680000Y-69310000D01*
%TO.C,R3*%
X110490000Y-62000000D02*
X110490000Y-62770000D01*
X111860000Y-62770000D02*
X109120000Y-62770000D01*
X109120000Y-62770000D02*
X109120000Y-69310000D01*
X111860000Y-69310000D02*
X111860000Y-62770000D01*
X109120000Y-69310000D02*
X111860000Y-69310000D01*
X110490000Y-70080000D02*
X110490000Y-69310000D01*
%TO.C,D2*%
X130810000Y-55090635D02*
X130810000Y-55750000D01*
X132560635Y-53340000D02*
G75*
G03*
X129059365Y-53340000I-1750635J0D01*
G01*
X129059365Y-53340000D02*
G75*
G03*
X132560635Y-53340000I1750635J0D01*
G01*
%TO.C,R4*%
X114300000Y-62000000D02*
X114300000Y-62770000D01*
X115670000Y-62770000D02*
X112930000Y-62770000D01*
X112930000Y-62770000D02*
X112930000Y-69310000D01*
X115670000Y-69310000D02*
X115670000Y-62770000D01*
X112930000Y-69310000D02*
X115670000Y-69310000D01*
X114300000Y-70080000D02*
X114300000Y-69310000D01*
%TO.C,D1*%
X126365000Y-55090635D02*
X126365000Y-55750000D01*
X128115635Y-53340000D02*
G75*
G03*
X124614365Y-53340000I-1750635J0D01*
G01*
X124614365Y-53340000D02*
G75*
G03*
X128115635Y-53340000I1750635J0D01*
G01*
%TO.C,R1*%
X102870000Y-70080000D02*
X102870000Y-69310000D01*
X101500000Y-69310000D02*
X104240000Y-69310000D01*
X104240000Y-69310000D02*
X104240000Y-62770000D01*
X101500000Y-62770000D02*
X101500000Y-69310000D01*
X104240000Y-62770000D02*
X101500000Y-62770000D01*
X102870000Y-62000000D02*
X102870000Y-62770000D01*
%TO.C,J1*%
X144860000Y-55310000D02*
X144860000Y-67310000D01*
X139860000Y-55310000D02*
X144860000Y-55310000D01*
X133860000Y-55310000D02*
X139860000Y-55310000D01*
X144860000Y-67310000D02*
X139860000Y-67310000D01*
X139860000Y-67310000D02*
X133860000Y-67310000D01*
X133860000Y-67310000D02*
X133860000Y-55310000D01*
%TD*%
M02*
