M48
; DRILL file {KiCad 7.0.10} date wo 03 jan 2024 13:13:54 CET
; FORMAT={-:-/ absolute / inch / decimal}
; #@! TF.CreationDate,2024-01-03T13:13:54+01:00
; #@! TF.GenerationSoftware,Kicad,Pcbnew,7.0.10
; #@! TF.FileFunction,Plated,1,2,PTH
FMAT,2
INCH
; #@! TA.AperFunction,Plated,PTH,ViaDrill
T1C0.0157
; #@! TA.AperFunction,Plated,PTH,ComponentDrill
T2C0.0295
; #@! TA.AperFunction,Plated,PTH,ComponentDrill
T3C0.0315
; #@! TA.AperFunction,Plated,PTH,ComponentDrill
T4C0.0394
; #@! TA.AperFunction,Plated,PTH,ComponentDrill
T5C0.0433
%
G90
G05
T1
X3.9Y-2.05
X4.1Y-2.725
X4.2215Y-2.3492
X4.6Y-2.25
X4.825Y-2.35
X5.025Y-2.35
X5.025Y-2.85
X5.3Y-2.1
X5.4Y-2.025
X5.4Y-2.075
T2
X4.05Y-2.1
X4.1Y-2.1
X4.15Y-2.1
X4.275Y-2.1
X4.325Y-2.1
X4.375Y-2.1
X4.5Y-2.1
X4.55Y-2.1
X4.6Y-2.1
X4.725Y-2.1
X4.775Y-2.1
X4.825Y-2.1
T3
X4.05Y-2.4
X4.05Y-2.8
X4.2Y-2.4
X4.2Y-2.8
X4.35Y-2.4
X4.35Y-2.8
X4.5Y-2.4
X4.5Y-2.8
X4.725Y-2.45
X4.8234Y-2.45
X5.0266Y-2.7
X5.125Y-2.7
X5.3094Y-2.2933
X5.3094Y-2.3736
X5.3094Y-2.4539
X5.4094Y-2.3335
X5.4094Y-2.4138
X5.4094Y-2.4941
T4
X3.8Y-2.2
X3.8Y-2.3
X3.8Y-2.4
X3.8Y-2.5
X3.8Y-2.6
X3.8Y-2.7
X3.9Y-2.2
X3.9Y-2.3
X3.9Y-2.4
X3.9Y-2.5
X3.9Y-2.6
X3.9Y-2.7
T5
X4.975Y-2.1
X4.975Y-2.25
X5.15Y-2.1
X5.15Y-2.25
M30
