%TF.GenerationSoftware,KiCad,Pcbnew,7.0.10*%
%TF.CreationDate,2024-01-03T13:13:51+01:00*%
%TF.ProjectId,slimme_meter_pmod,736c696d-6d65-45f6-9d65-7465725f706d,rev?*%
%TF.SameCoordinates,Original*%
%TF.FileFunction,Copper,L2,Bot*%
%TF.FilePolarity,Positive*%
%FSLAX46Y46*%
G04 Gerber Fmt 4.6, Leading zero omitted, Abs format (unit mm)*
G04 Created by KiCad (PCBNEW 7.0.10) date 2024-01-03 13:13:51*
%MOMM*%
%LPD*%
G01*
G04 APERTURE LIST*
%TA.AperFunction,ComponentPad*%
%ADD10R,1.600000X1.600000*%
%TD*%
%TA.AperFunction,ComponentPad*%
%ADD11C,1.600000*%
%TD*%
%TA.AperFunction,ComponentPad*%
%ADD12R,1.050000X1.500000*%
%TD*%
%TA.AperFunction,ComponentPad*%
%ADD13O,1.050000X1.500000*%
%TD*%
%TA.AperFunction,ComponentPad*%
%ADD14R,1.700000X1.700000*%
%TD*%
%TA.AperFunction,ComponentPad*%
%ADD15O,1.700000X1.700000*%
%TD*%
%TA.AperFunction,ComponentPad*%
%ADD16O,1.600000X1.600000*%
%TD*%
%TA.AperFunction,ComponentPad*%
%ADD17R,2.200000X2.200000*%
%TD*%
%TA.AperFunction,ComponentPad*%
%ADD18O,2.200000X2.200000*%
%TD*%
%TA.AperFunction,ComponentPad*%
%ADD19C,1.300000*%
%TD*%
%TA.AperFunction,ViaPad*%
%ADD20C,0.800000*%
%TD*%
%TA.AperFunction,Conductor*%
%ADD21C,0.250000*%
%TD*%
G04 APERTURE END LIST*
D10*
%TO.P,C2,1*%
%TO.N,VCC*%
X127675000Y-68580000D03*
D11*
%TO.P,C2,2*%
%TO.N,GND*%
X130175000Y-68580000D03*
%TD*%
D12*
%TO.P,U1,1,VO*%
%TO.N,VCC*%
X122555000Y-53340000D03*
D13*
%TO.P,U1,2,GND*%
%TO.N,GND*%
X121285000Y-53340000D03*
%TO.P,U1,3,VI*%
%TO.N,+5V*%
X120015000Y-53340000D03*
%TD*%
D12*
%TO.P,Q3,1,D*%
%TO.N,Net-(D1-A)*%
X116840000Y-53340000D03*
D13*
%TO.P,Q3,2,G*%
%TO.N,Net-(Q1-D)*%
X115570000Y-53340000D03*
%TO.P,Q3,3,S*%
%TO.N,+5V*%
X114300000Y-53340000D03*
%TD*%
D10*
%TO.P,C1,1*%
%TO.N,+5V*%
X120015000Y-62230000D03*
D11*
%TO.P,C1,2*%
%TO.N,GND*%
X122515000Y-62230000D03*
%TD*%
D12*
%TO.P,Q1,1,S*%
%TO.N,GND*%
X105410000Y-53340000D03*
D13*
%TO.P,Q1,2,G*%
%TO.N,CTS*%
X104140000Y-53340000D03*
%TO.P,Q1,3,D*%
%TO.N,Net-(Q1-D)*%
X102870000Y-53340000D03*
%TD*%
D12*
%TO.P,Q2,1,S*%
%TO.N,GND*%
X111125000Y-53340000D03*
D13*
%TO.P,Q2,2,G*%
%TO.N,~{SM_DATA}*%
X109855000Y-53340000D03*
%TO.P,Q2,3,D*%
%TO.N,MCU_DATA*%
X108585000Y-53340000D03*
%TD*%
D14*
%TO.P,J2,1,Pin_1*%
%TO.N,VCC*%
X99060000Y-68580000D03*
D15*
%TO.P,J2,2,Pin_2*%
X96520000Y-68580000D03*
%TO.P,J2,3,Pin_3*%
%TO.N,GND*%
X99060000Y-66040000D03*
%TO.P,J2,4,Pin_4*%
X96520000Y-66040000D03*
%TO.P,J2,5,Pin_5*%
%TO.N,RTS*%
X99060000Y-63500000D03*
%TO.P,J2,6,Pin_6*%
%TO.N,unconnected-(J2-Pin_6-Pad6)*%
X96520000Y-63500000D03*
%TO.P,J2,7,Pin_7*%
%TO.N,MCU_DATA*%
X99060000Y-60960000D03*
%TO.P,J2,8,Pin_8*%
%TO.N,unconnected-(J2-Pin_8-Pad8)*%
X96520000Y-60960000D03*
%TO.P,J2,9,Pin_9*%
%TO.N,TXD*%
X99060000Y-58420000D03*
%TO.P,J2,10,Pin_10*%
%TO.N,unconnected-(J2-Pin_10-Pad10)*%
X96520000Y-58420000D03*
%TO.P,J2,11,Pin_11*%
%TO.N,CTS*%
X99060000Y-55880000D03*
%TO.P,J2,12,Pin_12*%
%TO.N,unconnected-(J2-Pin_12-Pad12)*%
X96520000Y-55880000D03*
%TD*%
D11*
%TO.P,R2,1*%
%TO.N,+5V*%
X106680000Y-60960000D03*
D16*
%TO.P,R2,2*%
%TO.N,~{SM_DATA}*%
X106680000Y-71120000D03*
%TD*%
D11*
%TO.P,R3,1*%
%TO.N,GND*%
X110490000Y-60960000D03*
D16*
%TO.P,R3,2*%
%TO.N,CTS*%
X110490000Y-71120000D03*
%TD*%
D17*
%TO.P,D2,1,K*%
%TO.N,Net-(D2-K)*%
X130810000Y-53340000D03*
D18*
%TO.P,D2,2,A*%
%TO.N,+5V*%
X130810000Y-57150000D03*
%TD*%
D11*
%TO.P,R4,1*%
%TO.N,+5V*%
X114300000Y-60960000D03*
D16*
%TO.P,R4,2*%
%TO.N,Net-(Q1-D)*%
X114300000Y-71120000D03*
%TD*%
D17*
%TO.P,D1,1,K*%
%TO.N,SM_DATA_REQUEST*%
X126365000Y-53340000D03*
D18*
%TO.P,D1,2,A*%
%TO.N,Net-(D1-A)*%
X126365000Y-57150000D03*
%TD*%
D11*
%TO.P,R1,1*%
%TO.N,VCC*%
X102870000Y-71120000D03*
D16*
%TO.P,R1,2*%
%TO.N,MCU_DATA*%
X102870000Y-60960000D03*
%TD*%
D19*
%TO.P,J1,1*%
%TO.N,Net-(D2-K)*%
X134860000Y-58250000D03*
%TO.P,J1,2*%
%TO.N,SM_DATA_REQUEST*%
X137400000Y-59270000D03*
%TO.P,J1,3*%
%TO.N,GND*%
X134860000Y-60290000D03*
%TO.P,J1,4*%
%TO.N,unconnected-(J1-Pad4)*%
X137400000Y-61310000D03*
%TO.P,J1,5*%
%TO.N,~{SM_DATA}*%
X134860000Y-62330000D03*
%TO.P,J1,6*%
%TO.N,GND*%
X137400000Y-63350000D03*
%TD*%
D20*
%TO.N,Net-(D2-K)*%
X134620000Y-53340000D03*
%TO.N,CTS*%
X104140000Y-69215000D03*
%TO.N,~{SM_DATA}*%
X137160000Y-51435000D03*
%TO.N,SM_DATA_REQUEST*%
X137160000Y-52705000D03*
%TO.N,Net-(D1-A)*%
X116840000Y-57150000D03*
%TO.N,CTS*%
X99060000Y-52070000D03*
%TO.N,MCU_DATA*%
X107225000Y-59670893D03*
%TO.N,VCC*%
X127635000Y-72390000D03*
X127635000Y-59690000D03*
X122555000Y-59690000D03*
%TD*%
D21*
%TO.N,Net-(D2-K)*%
X134620000Y-53340000D02*
X134860000Y-53580000D01*
X134860000Y-53580000D02*
X134860000Y-58250000D01*
%TO.N,GND*%
X121285000Y-53340000D02*
X121285000Y-61000000D01*
X121285000Y-61000000D02*
X122515000Y-62230000D01*
X111125000Y-53340000D02*
X111125000Y-60325000D01*
X111125000Y-60325000D02*
X110490000Y-60960000D01*
%TO.N,Net-(Q1-D)*%
X115570000Y-53340000D02*
X115570000Y-69850000D01*
X115570000Y-69850000D02*
X114300000Y-71120000D01*
%TO.N,+5V*%
X120015000Y-62230000D02*
X120015000Y-53340000D01*
%TO.N,CTS*%
X104140000Y-53340000D02*
X104140000Y-69215000D01*
%TO.N,~{SM_DATA}*%
X135835000Y-61355000D02*
X134860000Y-62330000D01*
X137160000Y-51435000D02*
X135835000Y-52760000D01*
X135835000Y-52760000D02*
X135835000Y-61355000D01*
%TO.N,SM_DATA_REQUEST*%
X137400000Y-52945000D02*
X137160000Y-52705000D01*
X137400000Y-59270000D02*
X137400000Y-52945000D01*
%TO.N,Net-(D1-A)*%
X116840000Y-57150000D02*
X116840000Y-53340000D01*
%TO.N,CTS*%
X99060000Y-52070000D02*
X99060000Y-55880000D01*
%TO.N,MCU_DATA*%
X107225000Y-54700000D02*
X107225000Y-59670893D01*
X108585000Y-53340000D02*
X107225000Y-54700000D01*
%TO.N,~{SM_DATA}*%
X107950000Y-69850000D02*
X107950000Y-56515000D01*
X106680000Y-71120000D02*
X107950000Y-69850000D01*
X107950000Y-56515000D02*
X109855000Y-54610000D01*
X109855000Y-54610000D02*
X109855000Y-53340000D01*
%TO.N,VCC*%
X127675000Y-72350000D02*
X127675000Y-68580000D01*
X127635000Y-72390000D02*
X127675000Y-72350000D01*
X127635000Y-59690000D02*
X127675000Y-59730000D01*
X127675000Y-59730000D02*
X127675000Y-68580000D01*
X122555000Y-59690000D02*
X122555000Y-53340000D01*
%TD*%
%TA.AperFunction,Conductor*%
%TO.N,GND*%
G36*
X98600507Y-65830156D02*
G01*
X98560000Y-65968111D01*
X98560000Y-66111889D01*
X98600507Y-66249844D01*
X98626314Y-66290000D01*
X96953686Y-66290000D01*
X96979493Y-66249844D01*
X97020000Y-66111889D01*
X97020000Y-65968111D01*
X96979493Y-65830156D01*
X96953686Y-65790000D01*
X98626314Y-65790000D01*
X98600507Y-65830156D01*
G37*
%TD.AperFunction*%
%TA.AperFunction,Conductor*%
G36*
X136338786Y-50820185D02*
G01*
X136384541Y-50872989D01*
X136394485Y-50942147D01*
X136379134Y-50986500D01*
X136332821Y-51066715D01*
X136332818Y-51066722D01*
X136286636Y-51208857D01*
X136274326Y-51246744D01*
X136270216Y-51285849D01*
X136256679Y-51414649D01*
X136230094Y-51479263D01*
X136221039Y-51489368D01*
X135451208Y-52259199D01*
X135438951Y-52269020D01*
X135439134Y-52269241D01*
X135433122Y-52274214D01*
X135387098Y-52323223D01*
X135384391Y-52326016D01*
X135364889Y-52345517D01*
X135364875Y-52345534D01*
X135362407Y-52348715D01*
X135354843Y-52357570D01*
X135324937Y-52389418D01*
X135324936Y-52389420D01*
X135315284Y-52406976D01*
X135304610Y-52423226D01*
X135292329Y-52439061D01*
X135292324Y-52439068D01*
X135274975Y-52479158D01*
X135269837Y-52489646D01*
X135255330Y-52516034D01*
X135205784Y-52565298D01*
X135137468Y-52579954D01*
X135078749Y-52558432D01*
X135078363Y-52559101D01*
X135074519Y-52556882D01*
X135073777Y-52556610D01*
X135072729Y-52555848D01*
X134899807Y-52478857D01*
X134899802Y-52478855D01*
X134754001Y-52447865D01*
X134714646Y-52439500D01*
X134525354Y-52439500D01*
X134492897Y-52446398D01*
X134340197Y-52478855D01*
X134340192Y-52478857D01*
X134167270Y-52555848D01*
X134167265Y-52555851D01*
X134014129Y-52667111D01*
X133887466Y-52807785D01*
X133792821Y-52971715D01*
X133792818Y-52971722D01*
X133740722Y-53132059D01*
X133734326Y-53151744D01*
X133714540Y-53340000D01*
X133734326Y-53528256D01*
X133734327Y-53528259D01*
X133792818Y-53708277D01*
X133792821Y-53708284D01*
X133887467Y-53872216D01*
X133965915Y-53959341D01*
X134014129Y-54012888D01*
X134167261Y-54124145D01*
X134167264Y-54124147D01*
X134167270Y-54124151D01*
X134167276Y-54124153D01*
X134172494Y-54127166D01*
X134220712Y-54177730D01*
X134234500Y-54234557D01*
X134234500Y-57215041D01*
X134214815Y-57282080D01*
X134175780Y-57320466D01*
X134163702Y-57327944D01*
X134006127Y-57471593D01*
X133877632Y-57641746D01*
X133782596Y-57832605D01*
X133782596Y-57832607D01*
X133731798Y-58011142D01*
X133724244Y-58037690D01*
X133704571Y-58250000D01*
X133724244Y-58462310D01*
X133780989Y-58661746D01*
X133782596Y-58667392D01*
X133782596Y-58667394D01*
X133877632Y-58858253D01*
X133997598Y-59017112D01*
X134006128Y-59028407D01*
X134163698Y-59172052D01*
X134186656Y-59186267D01*
X134233291Y-59238295D01*
X134244552Y-59305983D01*
X134242991Y-59319438D01*
X134815599Y-59892046D01*
X134734852Y-59904835D01*
X134621955Y-59962359D01*
X134532359Y-60051955D01*
X134474835Y-60164852D01*
X134462046Y-60245598D01*
X133886836Y-59670388D01*
X133878059Y-59682010D01*
X133783066Y-59872783D01*
X133783058Y-59872803D01*
X133724738Y-60077780D01*
X133724737Y-60077783D01*
X133705073Y-60289999D01*
X133705073Y-60290000D01*
X133724737Y-60502216D01*
X133724738Y-60502219D01*
X133783058Y-60707196D01*
X133783064Y-60707211D01*
X133878061Y-60897991D01*
X133878064Y-60897996D01*
X133886836Y-60909610D01*
X134462046Y-60334400D01*
X134474835Y-60415148D01*
X134532359Y-60528045D01*
X134621955Y-60617641D01*
X134734852Y-60675165D01*
X134815597Y-60687953D01*
X134242991Y-61260559D01*
X134244553Y-61274015D01*
X134232725Y-61342876D01*
X134186658Y-61393731D01*
X134163701Y-61407945D01*
X134006127Y-61551593D01*
X133877632Y-61721746D01*
X133782596Y-61912605D01*
X133782596Y-61912607D01*
X133724244Y-62117689D01*
X133712389Y-62245633D01*
X133704571Y-62330000D01*
X133724244Y-62542310D01*
X133781063Y-62742006D01*
X133782596Y-62747392D01*
X133782596Y-62747394D01*
X133877632Y-62938253D01*
X133983072Y-63077876D01*
X134006128Y-63108407D01*
X134163698Y-63252052D01*
X134344981Y-63364298D01*
X134543802Y-63441321D01*
X134753390Y-63480500D01*
X134753392Y-63480500D01*
X134966608Y-63480500D01*
X134966610Y-63480500D01*
X135176198Y-63441321D01*
X135375019Y-63364298D01*
X135556302Y-63252052D01*
X135713872Y-63108407D01*
X135842366Y-62938255D01*
X135845091Y-62932783D01*
X135937403Y-62747394D01*
X135937403Y-62747393D01*
X135937405Y-62747389D01*
X135995756Y-62542310D01*
X136015429Y-62330000D01*
X135997831Y-62140087D01*
X136011246Y-62071521D01*
X136033618Y-62040971D01*
X136208913Y-61865676D01*
X136270234Y-61832193D01*
X136339926Y-61837177D01*
X136395859Y-61879049D01*
X136407593Y-61898089D01*
X136417634Y-61918255D01*
X136545398Y-62087441D01*
X136546128Y-62088407D01*
X136703698Y-62232052D01*
X136725632Y-62245633D01*
X136726656Y-62246267D01*
X136773291Y-62298295D01*
X136784552Y-62365983D01*
X136782991Y-62379438D01*
X137355599Y-62952046D01*
X137274852Y-62964835D01*
X137161955Y-63022359D01*
X137072359Y-63111955D01*
X137014835Y-63224852D01*
X137002046Y-63305598D01*
X136426836Y-62730388D01*
X136418059Y-62742010D01*
X136323066Y-62932783D01*
X136323058Y-62932803D01*
X136264738Y-63137780D01*
X136264737Y-63137783D01*
X136245073Y-63349999D01*
X136245073Y-63350000D01*
X136264737Y-63562216D01*
X136264738Y-63562219D01*
X136323058Y-63767196D01*
X136323064Y-63767211D01*
X136418061Y-63957991D01*
X136418064Y-63957996D01*
X136426836Y-63969610D01*
X137002046Y-63394400D01*
X137014835Y-63475148D01*
X137072359Y-63588045D01*
X137161955Y-63677641D01*
X137274852Y-63735165D01*
X137355599Y-63747953D01*
X136782991Y-64320559D01*
X136885204Y-64383847D01*
X136885208Y-64383849D01*
X137083936Y-64460836D01*
X137083941Y-64460837D01*
X137293439Y-64500000D01*
X137506561Y-64500000D01*
X137716058Y-64460837D01*
X137716063Y-64460836D01*
X137914791Y-64383849D01*
X137914798Y-64383846D01*
X138017006Y-64320560D01*
X138017006Y-64320559D01*
X137444401Y-63747953D01*
X137525148Y-63735165D01*
X137638045Y-63677641D01*
X137727641Y-63588045D01*
X137785165Y-63475148D01*
X137797953Y-63394400D01*
X138373162Y-63969609D01*
X138373163Y-63969609D01*
X138381940Y-63957988D01*
X138381942Y-63957985D01*
X138476933Y-63767216D01*
X138476941Y-63767196D01*
X138535261Y-63562219D01*
X138535262Y-63562216D01*
X138554927Y-63350000D01*
X138554927Y-63349999D01*
X138535262Y-63137783D01*
X138535261Y-63137780D01*
X138476941Y-62932803D01*
X138476933Y-62932783D01*
X138381942Y-62742014D01*
X138381937Y-62742006D01*
X138373163Y-62730389D01*
X138373162Y-62730389D01*
X137797953Y-63305598D01*
X137785165Y-63224852D01*
X137727641Y-63111955D01*
X137638045Y-63022359D01*
X137525148Y-62964835D01*
X137444401Y-62952046D01*
X138017007Y-62379439D01*
X138015446Y-62365984D01*
X138027274Y-62297123D01*
X138073342Y-62246268D01*
X138096302Y-62232052D01*
X138253872Y-62088407D01*
X138382366Y-61918255D01*
X138418284Y-61846121D01*
X138477403Y-61727394D01*
X138477403Y-61727393D01*
X138477405Y-61727389D01*
X138535756Y-61522310D01*
X138555429Y-61310000D01*
X138535756Y-61097690D01*
X138477405Y-60892611D01*
X138477403Y-60892606D01*
X138477403Y-60892605D01*
X138382367Y-60701746D01*
X138253872Y-60531593D01*
X138206017Y-60487967D01*
X138096302Y-60387948D01*
X138096300Y-60387946D01*
X138092065Y-60384086D01*
X138093143Y-60382902D01*
X138055998Y-60332845D01*
X138051307Y-60263133D01*
X138085049Y-60201951D01*
X138093005Y-60195056D01*
X138096296Y-60192055D01*
X138096302Y-60192052D01*
X138253872Y-60048407D01*
X138382366Y-59878255D01*
X138425527Y-59791575D01*
X138477403Y-59687394D01*
X138477403Y-59687393D01*
X138477405Y-59687389D01*
X138535756Y-59482310D01*
X138555429Y-59270000D01*
X138535756Y-59057690D01*
X138477405Y-58852611D01*
X138477403Y-58852606D01*
X138477403Y-58852605D01*
X138382367Y-58661746D01*
X138253872Y-58491593D01*
X138206970Y-58448836D01*
X138096302Y-58347948D01*
X138096300Y-58347946D01*
X138096297Y-58347944D01*
X138084220Y-58340466D01*
X138037586Y-58288438D01*
X138025500Y-58235041D01*
X138025500Y-55250346D01*
X138295702Y-55250346D01*
X138305819Y-55488528D01*
X138305819Y-55488532D01*
X138356045Y-55721580D01*
X138444935Y-55942788D01*
X138444936Y-55942790D01*
X138569931Y-56145795D01*
X138727436Y-56324755D01*
X138912920Y-56474523D01*
X139121046Y-56590790D01*
X139246951Y-56635275D01*
X139345829Y-56670211D01*
X139580790Y-56710499D01*
X139580798Y-56710499D01*
X139580800Y-56710500D01*
X139580801Y-56710500D01*
X139759496Y-56710500D01*
X139759497Y-56710500D01*
X139759498Y-56710499D01*
X139759515Y-56710499D01*
X139937536Y-56695347D01*
X139937539Y-56695346D01*
X139937541Y-56695346D01*
X140168249Y-56635275D01*
X140339567Y-56557834D01*
X140385480Y-56537080D01*
X140385481Y-56537078D01*
X140385486Y-56537077D01*
X140583003Y-56403579D01*
X140755118Y-56238621D01*
X140896879Y-56046947D01*
X141004207Y-55834074D01*
X141074016Y-55606123D01*
X141104298Y-55369654D01*
X141094180Y-55131468D01*
X141043954Y-54898419D01*
X140955064Y-54677210D01*
X140830069Y-54474205D01*
X140672564Y-54295245D01*
X140487080Y-54145477D01*
X140373130Y-54081820D01*
X140278955Y-54029210D01*
X140054170Y-53949788D01*
X139819209Y-53909500D01*
X139819200Y-53909500D01*
X139640503Y-53909500D01*
X139640484Y-53909500D01*
X139462463Y-53924652D01*
X139231751Y-53984724D01*
X139014519Y-54082919D01*
X139014511Y-54082924D01*
X138817006Y-54216413D01*
X138816997Y-54216421D01*
X138644881Y-54381379D01*
X138503123Y-54573050D01*
X138503120Y-54573054D01*
X138395796Y-54785920D01*
X138395793Y-54785926D01*
X138325983Y-55013878D01*
X138295702Y-55250346D01*
X138025500Y-55250346D01*
X138025500Y-53027737D01*
X138027224Y-53012123D01*
X138026938Y-53012096D01*
X138027671Y-53004335D01*
X138027672Y-53004332D01*
X138026756Y-52975196D01*
X138032765Y-52932984D01*
X138038944Y-52913967D01*
X138045674Y-52893256D01*
X138065460Y-52705000D01*
X138045674Y-52516744D01*
X137987179Y-52336716D01*
X137892533Y-52172784D01*
X137874693Y-52152971D01*
X137844464Y-52089981D01*
X137853089Y-52020646D01*
X137874694Y-51987028D01*
X137892533Y-51967216D01*
X137987179Y-51803284D01*
X138045674Y-51623256D01*
X138065460Y-51435000D01*
X138045674Y-51246744D01*
X137987179Y-51066716D01*
X137940865Y-50986498D01*
X137924393Y-50918600D01*
X137947246Y-50852573D01*
X138002167Y-50809382D01*
X138048253Y-50800500D01*
X144655500Y-50800500D01*
X144722539Y-50820185D01*
X144768294Y-50872989D01*
X144779500Y-50924500D01*
X144779500Y-73535500D01*
X144759815Y-73602539D01*
X144707011Y-73648294D01*
X144655500Y-73659500D01*
X92834500Y-73659500D01*
X92767461Y-73639815D01*
X92721706Y-73587011D01*
X92710500Y-73535500D01*
X92710500Y-71120001D01*
X101564532Y-71120001D01*
X101584364Y-71346686D01*
X101584366Y-71346697D01*
X101643258Y-71566488D01*
X101643261Y-71566497D01*
X101739431Y-71772732D01*
X101739432Y-71772734D01*
X101869954Y-71959141D01*
X102030858Y-72120045D01*
X102030861Y-72120047D01*
X102217266Y-72250568D01*
X102423504Y-72346739D01*
X102643308Y-72405635D01*
X102805230Y-72419801D01*
X102869998Y-72425468D01*
X102870000Y-72425468D01*
X102870002Y-72425468D01*
X102926673Y-72420509D01*
X103096692Y-72405635D01*
X103316496Y-72346739D01*
X103522734Y-72250568D01*
X103709139Y-72120047D01*
X103870047Y-71959139D01*
X104000568Y-71772734D01*
X104096739Y-71566496D01*
X104155635Y-71346692D01*
X104175468Y-71120001D01*
X105374532Y-71120001D01*
X105394364Y-71346686D01*
X105394366Y-71346697D01*
X105453258Y-71566488D01*
X105453261Y-71566497D01*
X105549431Y-71772732D01*
X105549432Y-71772734D01*
X105679954Y-71959141D01*
X105840858Y-72120045D01*
X105840861Y-72120047D01*
X106027266Y-72250568D01*
X106233504Y-72346739D01*
X106453308Y-72405635D01*
X106615230Y-72419801D01*
X106679998Y-72425468D01*
X106680000Y-72425468D01*
X106680002Y-72425468D01*
X106736673Y-72420509D01*
X106906692Y-72405635D01*
X107126496Y-72346739D01*
X107332734Y-72250568D01*
X107519139Y-72120047D01*
X107680047Y-71959139D01*
X107810568Y-71772734D01*
X107906739Y-71566496D01*
X107965635Y-71346692D01*
X107985468Y-71120001D01*
X109184532Y-71120001D01*
X109204364Y-71346686D01*
X109204366Y-71346697D01*
X109263258Y-71566488D01*
X109263261Y-71566497D01*
X109359431Y-71772732D01*
X109359432Y-71772734D01*
X109489954Y-71959141D01*
X109650858Y-72120045D01*
X109650861Y-72120047D01*
X109837266Y-72250568D01*
X110043504Y-72346739D01*
X110263308Y-72405635D01*
X110425230Y-72419801D01*
X110489998Y-72425468D01*
X110490000Y-72425468D01*
X110490002Y-72425468D01*
X110546673Y-72420509D01*
X110716692Y-72405635D01*
X110936496Y-72346739D01*
X111142734Y-72250568D01*
X111329139Y-72120047D01*
X111490047Y-71959139D01*
X111620568Y-71772734D01*
X111716739Y-71566496D01*
X111775635Y-71346692D01*
X111795468Y-71120001D01*
X112994532Y-71120001D01*
X113014364Y-71346686D01*
X113014366Y-71346697D01*
X113073258Y-71566488D01*
X113073261Y-71566497D01*
X113169431Y-71772732D01*
X113169432Y-71772734D01*
X113299954Y-71959141D01*
X113460858Y-72120045D01*
X113460861Y-72120047D01*
X113647266Y-72250568D01*
X113853504Y-72346739D01*
X114073308Y-72405635D01*
X114235230Y-72419801D01*
X114299998Y-72425468D01*
X114300000Y-72425468D01*
X114300002Y-72425468D01*
X114356673Y-72420509D01*
X114526692Y-72405635D01*
X114746496Y-72346739D01*
X114952734Y-72250568D01*
X115139139Y-72120047D01*
X115300047Y-71959139D01*
X115430568Y-71772734D01*
X115526739Y-71566496D01*
X115585635Y-71346692D01*
X115605468Y-71120000D01*
X115585635Y-70893308D01*
X115567318Y-70824948D01*
X115568981Y-70755103D01*
X115599410Y-70705179D01*
X115953788Y-70350801D01*
X115966042Y-70340986D01*
X115965859Y-70340764D01*
X115971868Y-70335791D01*
X115971877Y-70335786D01*
X116017949Y-70286722D01*
X116020566Y-70284023D01*
X116040120Y-70264471D01*
X116042576Y-70261303D01*
X116050156Y-70252427D01*
X116080062Y-70220582D01*
X116089713Y-70203024D01*
X116100396Y-70186761D01*
X116112673Y-70170936D01*
X116130021Y-70130844D01*
X116135151Y-70120371D01*
X116156197Y-70082092D01*
X116161180Y-70062680D01*
X116167481Y-70044280D01*
X116175437Y-70025896D01*
X116182270Y-69982748D01*
X116184633Y-69971338D01*
X116195500Y-69929019D01*
X116195500Y-69908983D01*
X116197027Y-69889582D01*
X116200160Y-69869804D01*
X116196050Y-69826324D01*
X116195500Y-69814655D01*
X116195500Y-69427870D01*
X126374500Y-69427870D01*
X126374501Y-69427876D01*
X126380908Y-69487483D01*
X126431202Y-69622328D01*
X126431206Y-69622335D01*
X126517452Y-69737544D01*
X126517455Y-69737547D01*
X126632664Y-69823793D01*
X126632671Y-69823797D01*
X126677618Y-69840561D01*
X126767517Y-69874091D01*
X126827127Y-69880500D01*
X126925500Y-69880499D01*
X126992538Y-69900183D01*
X127038294Y-69952986D01*
X127049500Y-70004499D01*
X127049500Y-71646888D01*
X127029815Y-71713927D01*
X127017650Y-71729860D01*
X126902466Y-71857785D01*
X126807821Y-72021715D01*
X126807818Y-72021722D01*
X126749327Y-72201740D01*
X126749326Y-72201744D01*
X126729540Y-72390000D01*
X126749326Y-72578256D01*
X126749327Y-72578259D01*
X126807818Y-72758277D01*
X126807821Y-72758284D01*
X126902467Y-72922216D01*
X127029129Y-73062888D01*
X127182265Y-73174148D01*
X127182270Y-73174151D01*
X127355192Y-73251142D01*
X127355197Y-73251144D01*
X127540354Y-73290500D01*
X127540355Y-73290500D01*
X127729644Y-73290500D01*
X127729646Y-73290500D01*
X127914803Y-73251144D01*
X128087730Y-73174151D01*
X128240871Y-73062888D01*
X128367533Y-72922216D01*
X128462179Y-72758284D01*
X128520674Y-72578256D01*
X128540460Y-72390000D01*
X128520674Y-72201744D01*
X128462179Y-72021716D01*
X128367533Y-71857784D01*
X128332350Y-71818709D01*
X128302120Y-71755717D01*
X128300500Y-71735737D01*
X128300500Y-70004499D01*
X128320185Y-69937460D01*
X128372989Y-69891705D01*
X128424500Y-69880499D01*
X128522871Y-69880499D01*
X128522872Y-69880499D01*
X128582483Y-69874091D01*
X128717331Y-69823796D01*
X128832546Y-69737546D01*
X128918796Y-69622331D01*
X128969091Y-69487483D01*
X128975500Y-69427873D01*
X128975499Y-69427845D01*
X128975678Y-69424547D01*
X128977183Y-69424627D01*
X128995112Y-69363326D01*
X129047868Y-69317514D01*
X129091465Y-69309981D01*
X129777046Y-68624400D01*
X129789835Y-68705148D01*
X129847359Y-68818045D01*
X129936955Y-68907641D01*
X130049852Y-68965165D01*
X130130599Y-68977953D01*
X129449526Y-69659025D01*
X129522513Y-69710132D01*
X129522521Y-69710136D01*
X129728668Y-69806264D01*
X129728682Y-69806269D01*
X129948389Y-69865139D01*
X129948400Y-69865141D01*
X130174998Y-69884966D01*
X130175002Y-69884966D01*
X130401599Y-69865141D01*
X130401610Y-69865139D01*
X130621317Y-69806269D01*
X130621331Y-69806264D01*
X130827478Y-69710136D01*
X130900471Y-69659024D01*
X130219400Y-68977953D01*
X130300148Y-68965165D01*
X130413045Y-68907641D01*
X130502641Y-68818045D01*
X130560165Y-68705148D01*
X130572953Y-68624400D01*
X131254024Y-69305471D01*
X131305136Y-69232478D01*
X131401264Y-69026331D01*
X131401269Y-69026317D01*
X131460139Y-68806610D01*
X131460141Y-68806599D01*
X131479966Y-68580002D01*
X131479966Y-68579997D01*
X131460141Y-68353400D01*
X131460139Y-68353389D01*
X131401269Y-68133682D01*
X131401264Y-68133668D01*
X131305136Y-67927521D01*
X131305132Y-67927513D01*
X131254025Y-67854526D01*
X130572953Y-68535598D01*
X130560165Y-68454852D01*
X130502641Y-68341955D01*
X130413045Y-68252359D01*
X130300148Y-68194835D01*
X130219401Y-68182046D01*
X130900472Y-67500974D01*
X130827478Y-67449863D01*
X130621331Y-67353735D01*
X130621317Y-67353730D01*
X130401610Y-67294860D01*
X130401599Y-67294858D01*
X130175002Y-67275034D01*
X130174998Y-67275034D01*
X129948400Y-67294858D01*
X129948389Y-67294860D01*
X129728682Y-67353730D01*
X129728673Y-67353734D01*
X129522516Y-67449866D01*
X129522512Y-67449868D01*
X129449526Y-67500973D01*
X129449526Y-67500974D01*
X130130599Y-68182046D01*
X130049852Y-68194835D01*
X129936955Y-68252359D01*
X129847359Y-68341955D01*
X129789835Y-68454852D01*
X129777046Y-68535598D01*
X129090799Y-67849351D01*
X129041805Y-67839505D01*
X128991622Y-67790889D01*
X128976981Y-67735366D01*
X128975900Y-67735423D01*
X128975854Y-67735429D01*
X128975853Y-67735426D01*
X128975676Y-67735436D01*
X128975499Y-67732135D01*
X128975499Y-67732128D01*
X128969091Y-67672517D01*
X128950442Y-67622517D01*
X128918797Y-67537671D01*
X128918793Y-67537664D01*
X128832547Y-67422455D01*
X128832544Y-67422452D01*
X128717335Y-67336206D01*
X128717328Y-67336202D01*
X128582482Y-67285908D01*
X128582483Y-67285908D01*
X128522883Y-67279501D01*
X128522881Y-67279500D01*
X128522873Y-67279500D01*
X128522865Y-67279500D01*
X128424500Y-67279500D01*
X128357461Y-67259815D01*
X128349256Y-67250346D01*
X138295702Y-67250346D01*
X138305819Y-67488528D01*
X138305819Y-67488532D01*
X138356045Y-67721580D01*
X138409468Y-67854526D01*
X138444936Y-67942790D01*
X138569931Y-68145795D01*
X138727436Y-68324755D01*
X138912920Y-68474523D01*
X139121046Y-68590790D01*
X139246951Y-68635275D01*
X139345829Y-68670211D01*
X139580790Y-68710499D01*
X139580798Y-68710499D01*
X139580800Y-68710500D01*
X139580801Y-68710500D01*
X139759496Y-68710500D01*
X139759497Y-68710500D01*
X139759498Y-68710499D01*
X139759515Y-68710499D01*
X139937536Y-68695347D01*
X139937539Y-68695346D01*
X139937541Y-68695346D01*
X140168249Y-68635275D01*
X140326121Y-68563912D01*
X140385480Y-68537080D01*
X140385481Y-68537078D01*
X140385486Y-68537077D01*
X140583003Y-68403579D01*
X140755118Y-68238621D01*
X140896879Y-68046947D01*
X141004207Y-67834074D01*
X141074016Y-67606123D01*
X141104298Y-67369654D01*
X141103747Y-67356692D01*
X141094180Y-67131471D01*
X141094180Y-67131467D01*
X141043954Y-66898419D01*
X140955064Y-66677211D01*
X140955064Y-66677210D01*
X140830069Y-66474205D01*
X140672564Y-66295245D01*
X140487080Y-66145477D01*
X140373130Y-66081820D01*
X140278955Y-66029210D01*
X140054170Y-65949788D01*
X139819209Y-65909500D01*
X139819200Y-65909500D01*
X139640503Y-65909500D01*
X139640484Y-65909500D01*
X139462463Y-65924652D01*
X139231751Y-65984724D01*
X139014519Y-66082919D01*
X139014511Y-66082924D01*
X138817006Y-66216413D01*
X138816997Y-66216421D01*
X138644881Y-66381379D01*
X138503123Y-66573050D01*
X138503120Y-66573054D01*
X138395796Y-66785920D01*
X138395793Y-66785926D01*
X138325983Y-67013878D01*
X138295702Y-67250346D01*
X128349256Y-67250346D01*
X128311706Y-67207011D01*
X128300500Y-67155500D01*
X128300500Y-60344262D01*
X128320185Y-60277223D01*
X128332351Y-60261289D01*
X128367533Y-60222216D01*
X128462179Y-60058284D01*
X128520674Y-59878256D01*
X128540460Y-59690000D01*
X128520674Y-59501744D01*
X128462179Y-59321716D01*
X128367533Y-59157784D01*
X128240871Y-59017112D01*
X128240870Y-59017111D01*
X128087734Y-58905851D01*
X128087729Y-58905848D01*
X127914807Y-58828857D01*
X127914802Y-58828855D01*
X127769001Y-58797865D01*
X127729646Y-58789500D01*
X127540354Y-58789500D01*
X127507897Y-58796398D01*
X127355197Y-58828855D01*
X127355192Y-58828857D01*
X127182270Y-58905848D01*
X127182265Y-58905851D01*
X127029129Y-59017111D01*
X126902466Y-59157785D01*
X126807821Y-59321715D01*
X126807818Y-59321722D01*
X126755534Y-59482637D01*
X126749326Y-59501744D01*
X126729540Y-59690000D01*
X126749326Y-59878256D01*
X126749327Y-59878259D01*
X126807818Y-60058277D01*
X126807821Y-60058284D01*
X126902467Y-60222216D01*
X127012358Y-60344262D01*
X127017650Y-60350139D01*
X127047880Y-60413130D01*
X127049500Y-60433111D01*
X127049500Y-67155500D01*
X127029815Y-67222539D01*
X126977011Y-67268294D01*
X126925501Y-67279500D01*
X126827130Y-67279500D01*
X126827123Y-67279501D01*
X126767516Y-67285908D01*
X126632671Y-67336202D01*
X126632664Y-67336206D01*
X126517455Y-67422452D01*
X126517452Y-67422455D01*
X126431206Y-67537664D01*
X126431202Y-67537671D01*
X126380908Y-67672517D01*
X126375634Y-67721580D01*
X126374501Y-67732123D01*
X126374500Y-67732135D01*
X126374500Y-69427870D01*
X116195500Y-69427870D01*
X116195500Y-63077870D01*
X118714500Y-63077870D01*
X118714501Y-63077876D01*
X118720908Y-63137483D01*
X118771202Y-63272328D01*
X118771206Y-63272335D01*
X118857452Y-63387544D01*
X118857455Y-63387547D01*
X118972664Y-63473793D01*
X118972671Y-63473797D01*
X119107517Y-63524091D01*
X119107516Y-63524091D01*
X119114444Y-63524835D01*
X119167127Y-63530500D01*
X120862872Y-63530499D01*
X120922483Y-63524091D01*
X121057331Y-63473796D01*
X121172546Y-63387546D01*
X121258796Y-63272331D01*
X121309091Y-63137483D01*
X121315500Y-63077873D01*
X121315499Y-63077845D01*
X121315678Y-63074547D01*
X121317183Y-63074627D01*
X121335112Y-63013326D01*
X121387868Y-62967514D01*
X121431465Y-62959981D01*
X122117046Y-62274400D01*
X122129835Y-62355148D01*
X122187359Y-62468045D01*
X122276955Y-62557641D01*
X122389852Y-62615165D01*
X122470599Y-62627953D01*
X121789526Y-63309025D01*
X121862513Y-63360132D01*
X121862521Y-63360136D01*
X122068668Y-63456264D01*
X122068682Y-63456269D01*
X122288389Y-63515139D01*
X122288400Y-63515141D01*
X122514998Y-63534966D01*
X122515002Y-63534966D01*
X122741599Y-63515141D01*
X122741610Y-63515139D01*
X122961317Y-63456269D01*
X122961331Y-63456264D01*
X123167478Y-63360136D01*
X123240471Y-63309024D01*
X122559400Y-62627953D01*
X122640148Y-62615165D01*
X122753045Y-62557641D01*
X122842641Y-62468045D01*
X122900165Y-62355148D01*
X122912953Y-62274400D01*
X123594024Y-62955471D01*
X123645136Y-62882478D01*
X123741264Y-62676331D01*
X123741269Y-62676317D01*
X123800139Y-62456610D01*
X123800141Y-62456599D01*
X123819966Y-62230002D01*
X123819966Y-62229997D01*
X123800141Y-62003400D01*
X123800139Y-62003389D01*
X123741269Y-61783682D01*
X123741264Y-61783668D01*
X123645136Y-61577521D01*
X123645132Y-61577513D01*
X123594025Y-61504526D01*
X122912953Y-62185598D01*
X122900165Y-62104852D01*
X122842641Y-61991955D01*
X122753045Y-61902359D01*
X122640148Y-61844835D01*
X122559401Y-61832046D01*
X123240472Y-61150974D01*
X123167478Y-61099863D01*
X122961331Y-61003735D01*
X122961317Y-61003730D01*
X122741610Y-60944860D01*
X122741599Y-60944858D01*
X122515002Y-60925034D01*
X122514998Y-60925034D01*
X122288400Y-60944858D01*
X122288389Y-60944860D01*
X122068682Y-61003730D01*
X122068673Y-61003734D01*
X121862516Y-61099866D01*
X121862512Y-61099868D01*
X121789526Y-61150973D01*
X121789526Y-61150974D01*
X122470599Y-61832046D01*
X122389852Y-61844835D01*
X122276955Y-61902359D01*
X122187359Y-61991955D01*
X122129835Y-62104852D01*
X122117046Y-62185598D01*
X121430799Y-61499351D01*
X121381805Y-61489505D01*
X121331622Y-61440889D01*
X121316981Y-61385366D01*
X121315900Y-61385423D01*
X121315854Y-61385429D01*
X121315853Y-61385426D01*
X121315676Y-61385436D01*
X121315499Y-61382135D01*
X121315499Y-61382128D01*
X121309091Y-61322517D01*
X121304422Y-61310000D01*
X121258797Y-61187671D01*
X121258793Y-61187664D01*
X121172547Y-61072455D01*
X121172544Y-61072452D01*
X121057335Y-60986206D01*
X121057328Y-60986202D01*
X120922482Y-60935908D01*
X120922483Y-60935908D01*
X120862883Y-60929501D01*
X120862881Y-60929500D01*
X120862873Y-60929500D01*
X120862865Y-60929500D01*
X120764500Y-60929500D01*
X120697461Y-60909815D01*
X120651706Y-60857011D01*
X120640500Y-60805500D01*
X120640500Y-54589625D01*
X120660185Y-54522586D01*
X120712989Y-54476831D01*
X120782147Y-54466887D01*
X120822954Y-54480267D01*
X120890848Y-54516557D01*
X121035000Y-54560285D01*
X121035000Y-53677314D01*
X121035597Y-53665160D01*
X121039628Y-53624220D01*
X121104052Y-53674363D01*
X121222424Y-53715000D01*
X121316073Y-53715000D01*
X121408446Y-53699586D01*
X121518514Y-53640019D01*
X121529500Y-53628085D01*
X121529500Y-54137870D01*
X121529501Y-54137874D01*
X121534290Y-54182421D01*
X121535000Y-54195675D01*
X121535000Y-54560285D01*
X121679928Y-54516322D01*
X121749795Y-54515699D01*
X121779435Y-54530371D01*
X121779886Y-54529546D01*
X121787669Y-54533796D01*
X121848833Y-54556608D01*
X121904766Y-54598478D01*
X121929184Y-54663942D01*
X121929500Y-54672790D01*
X121929500Y-58991312D01*
X121909815Y-59058351D01*
X121897650Y-59074284D01*
X121822466Y-59157784D01*
X121727821Y-59321715D01*
X121727818Y-59321722D01*
X121675534Y-59482637D01*
X121669326Y-59501744D01*
X121649540Y-59690000D01*
X121669326Y-59878256D01*
X121669327Y-59878259D01*
X121727818Y-60058277D01*
X121727821Y-60058284D01*
X121822467Y-60222216D01*
X121932358Y-60344262D01*
X121949129Y-60362888D01*
X122102265Y-60474148D01*
X122102270Y-60474151D01*
X122275192Y-60551142D01*
X122275197Y-60551144D01*
X122460354Y-60590500D01*
X122460355Y-60590500D01*
X122649644Y-60590500D01*
X122649646Y-60590500D01*
X122834803Y-60551144D01*
X123007730Y-60474151D01*
X123160871Y-60362888D01*
X123287533Y-60222216D01*
X123382179Y-60058284D01*
X123440674Y-59878256D01*
X123460460Y-59690000D01*
X123440674Y-59501744D01*
X123382179Y-59321716D01*
X123287533Y-59157784D01*
X123270329Y-59138677D01*
X123212350Y-59074284D01*
X123182120Y-59011292D01*
X123180500Y-58991312D01*
X123180500Y-57150000D01*
X124759551Y-57150000D01*
X124779317Y-57401151D01*
X124838126Y-57646110D01*
X124934533Y-57878859D01*
X125066160Y-58093653D01*
X125066161Y-58093656D01*
X125066164Y-58093659D01*
X125229776Y-58285224D01*
X125367528Y-58402875D01*
X125421343Y-58448838D01*
X125421346Y-58448839D01*
X125636140Y-58580466D01*
X125868889Y-58676873D01*
X126113852Y-58735683D01*
X126365000Y-58755449D01*
X126616148Y-58735683D01*
X126861111Y-58676873D01*
X127093859Y-58580466D01*
X127308659Y-58448836D01*
X127500224Y-58285224D01*
X127663836Y-58093659D01*
X127795466Y-57878859D01*
X127891873Y-57646111D01*
X127950683Y-57401148D01*
X127970449Y-57150000D01*
X129204551Y-57150000D01*
X129224317Y-57401151D01*
X129283126Y-57646110D01*
X129379533Y-57878859D01*
X129511160Y-58093653D01*
X129511161Y-58093656D01*
X129511164Y-58093659D01*
X129674776Y-58285224D01*
X129812528Y-58402875D01*
X129866343Y-58448838D01*
X129866346Y-58448839D01*
X130081140Y-58580466D01*
X130313889Y-58676873D01*
X130558852Y-58735683D01*
X130810000Y-58755449D01*
X131061148Y-58735683D01*
X131306111Y-58676873D01*
X131538859Y-58580466D01*
X131753659Y-58448836D01*
X131945224Y-58285224D01*
X132108836Y-58093659D01*
X132240466Y-57878859D01*
X132336873Y-57646111D01*
X132395683Y-57401148D01*
X132415449Y-57150000D01*
X132395683Y-56898852D01*
X132336873Y-56653889D01*
X132292410Y-56546546D01*
X132240466Y-56421140D01*
X132108839Y-56206346D01*
X132108838Y-56206343D01*
X132031172Y-56115408D01*
X131945224Y-56014776D01*
X131787422Y-55880000D01*
X131753656Y-55851161D01*
X131753653Y-55851160D01*
X131538859Y-55719533D01*
X131306110Y-55623126D01*
X131061151Y-55564317D01*
X130810000Y-55544551D01*
X130558848Y-55564317D01*
X130313889Y-55623126D01*
X130081140Y-55719533D01*
X129866346Y-55851160D01*
X129866343Y-55851161D01*
X129674776Y-56014776D01*
X129511161Y-56206343D01*
X129511160Y-56206346D01*
X129379533Y-56421140D01*
X129283126Y-56653889D01*
X129224317Y-56898848D01*
X129204551Y-57150000D01*
X127970449Y-57150000D01*
X127950683Y-56898852D01*
X127891873Y-56653889D01*
X127847410Y-56546546D01*
X127795466Y-56421140D01*
X127663839Y-56206346D01*
X127663838Y-56206343D01*
X127586172Y-56115408D01*
X127500224Y-56014776D01*
X127342422Y-55880000D01*
X127308656Y-55851161D01*
X127308653Y-55851160D01*
X127093859Y-55719533D01*
X126861110Y-55623126D01*
X126616151Y-55564317D01*
X126365000Y-55544551D01*
X126113848Y-55564317D01*
X125868889Y-55623126D01*
X125636140Y-55719533D01*
X125421346Y-55851160D01*
X125421343Y-55851161D01*
X125229776Y-56014776D01*
X125066161Y-56206343D01*
X125066160Y-56206346D01*
X124934533Y-56421140D01*
X124838126Y-56653889D01*
X124779317Y-56898848D01*
X124759551Y-57150000D01*
X123180500Y-57150000D01*
X123180500Y-54672790D01*
X123200185Y-54605751D01*
X123252989Y-54559996D01*
X123261146Y-54556616D01*
X123322331Y-54533796D01*
X123383680Y-54487870D01*
X124764500Y-54487870D01*
X124764501Y-54487876D01*
X124770908Y-54547483D01*
X124821202Y-54682328D01*
X124821206Y-54682335D01*
X124907452Y-54797544D01*
X124907455Y-54797547D01*
X125022664Y-54883793D01*
X125022671Y-54883797D01*
X125157517Y-54934091D01*
X125157516Y-54934091D01*
X125164444Y-54934835D01*
X125217127Y-54940500D01*
X127512872Y-54940499D01*
X127572483Y-54934091D01*
X127707331Y-54883796D01*
X127822546Y-54797546D01*
X127908796Y-54682331D01*
X127959091Y-54547483D01*
X127965500Y-54487873D01*
X127965500Y-54487870D01*
X129209500Y-54487870D01*
X129209501Y-54487876D01*
X129215908Y-54547483D01*
X129266202Y-54682328D01*
X129266206Y-54682335D01*
X129352452Y-54797544D01*
X129352455Y-54797547D01*
X129467664Y-54883793D01*
X129467671Y-54883797D01*
X129602517Y-54934091D01*
X129602516Y-54934091D01*
X129609444Y-54934835D01*
X129662127Y-54940500D01*
X131957872Y-54940499D01*
X132017483Y-54934091D01*
X132152331Y-54883796D01*
X132267546Y-54797546D01*
X132353796Y-54682331D01*
X132404091Y-54547483D01*
X132410500Y-54487873D01*
X132410499Y-52192128D01*
X132404091Y-52132517D01*
X132399315Y-52119713D01*
X132353797Y-51997671D01*
X132353793Y-51997664D01*
X132267547Y-51882455D01*
X132267544Y-51882452D01*
X132152335Y-51796206D01*
X132152328Y-51796202D01*
X132017482Y-51745908D01*
X132017483Y-51745908D01*
X131957883Y-51739501D01*
X131957881Y-51739500D01*
X131957873Y-51739500D01*
X131957864Y-51739500D01*
X129662129Y-51739500D01*
X129662123Y-51739501D01*
X129602516Y-51745908D01*
X129467671Y-51796202D01*
X129467664Y-51796206D01*
X129352455Y-51882452D01*
X129352452Y-51882455D01*
X129266206Y-51997664D01*
X129266202Y-51997671D01*
X129215908Y-52132517D01*
X129209753Y-52189771D01*
X129209501Y-52192123D01*
X129209500Y-52192135D01*
X129209500Y-54487870D01*
X127965500Y-54487870D01*
X127965499Y-52192128D01*
X127959091Y-52132517D01*
X127954315Y-52119713D01*
X127908797Y-51997671D01*
X127908793Y-51997664D01*
X127822547Y-51882455D01*
X127822544Y-51882452D01*
X127707335Y-51796206D01*
X127707328Y-51796202D01*
X127572482Y-51745908D01*
X127572483Y-51745908D01*
X127512883Y-51739501D01*
X127512881Y-51739500D01*
X127512873Y-51739500D01*
X127512864Y-51739500D01*
X125217129Y-51739500D01*
X125217123Y-51739501D01*
X125157516Y-51745908D01*
X125022671Y-51796202D01*
X125022664Y-51796206D01*
X124907455Y-51882452D01*
X124907452Y-51882455D01*
X124821206Y-51997664D01*
X124821202Y-51997671D01*
X124770908Y-52132517D01*
X124764753Y-52189771D01*
X124764501Y-52192123D01*
X124764500Y-52192135D01*
X124764500Y-54487870D01*
X123383680Y-54487870D01*
X123437546Y-54447546D01*
X123523796Y-54332331D01*
X123574091Y-54197483D01*
X123580500Y-54137873D01*
X123580499Y-52542128D01*
X123574091Y-52482517D01*
X123572838Y-52479158D01*
X123523797Y-52347671D01*
X123523793Y-52347664D01*
X123437547Y-52232455D01*
X123437544Y-52232452D01*
X123322335Y-52146206D01*
X123322328Y-52146202D01*
X123187482Y-52095908D01*
X123187483Y-52095908D01*
X123127883Y-52089501D01*
X123127881Y-52089500D01*
X123127873Y-52089500D01*
X123127864Y-52089500D01*
X121982129Y-52089500D01*
X121982123Y-52089501D01*
X121922516Y-52095908D01*
X121787671Y-52146202D01*
X121779886Y-52150454D01*
X121778838Y-52148535D01*
X121724754Y-52168701D01*
X121679928Y-52163677D01*
X121535000Y-52119713D01*
X121535000Y-52484329D01*
X121534289Y-52497584D01*
X121529501Y-52542123D01*
X121529500Y-52542136D01*
X121529500Y-53055101D01*
X121465948Y-53005637D01*
X121347576Y-52965000D01*
X121253927Y-52965000D01*
X121161554Y-52980414D01*
X121051486Y-53039981D01*
X121039369Y-53053142D01*
X121035597Y-53014837D01*
X121035000Y-53002684D01*
X121035000Y-52119712D01*
X120890849Y-52163441D01*
X120708983Y-52260651D01*
X120640580Y-52274893D01*
X120592077Y-52260651D01*
X120409345Y-52162978D01*
X120216031Y-52104337D01*
X120015000Y-52084538D01*
X119813968Y-52104337D01*
X119620654Y-52162978D01*
X119442511Y-52258198D01*
X119442504Y-52258203D01*
X119286352Y-52386352D01*
X119158203Y-52542504D01*
X119158198Y-52542511D01*
X119062978Y-52720654D01*
X119004337Y-52913968D01*
X118989500Y-53064623D01*
X118989500Y-53615376D01*
X119004337Y-53766031D01*
X119062978Y-53959345D01*
X119158198Y-54137488D01*
X119158201Y-54137492D01*
X119158202Y-54137494D01*
X119171817Y-54154084D01*
X119286352Y-54293646D01*
X119344164Y-54341091D01*
X119383499Y-54398837D01*
X119389500Y-54436945D01*
X119389500Y-60805500D01*
X119369815Y-60872539D01*
X119317011Y-60918294D01*
X119265501Y-60929500D01*
X119167130Y-60929500D01*
X119167123Y-60929501D01*
X119107516Y-60935908D01*
X118972671Y-60986202D01*
X118972664Y-60986206D01*
X118857455Y-61072452D01*
X118857452Y-61072455D01*
X118771206Y-61187664D01*
X118771202Y-61187671D01*
X118720908Y-61322517D01*
X118716879Y-61360000D01*
X118714501Y-61382123D01*
X118714500Y-61382135D01*
X118714500Y-63077870D01*
X116195500Y-63077870D01*
X116195500Y-58038185D01*
X116215185Y-57971146D01*
X116267989Y-57925391D01*
X116337147Y-57915447D01*
X116380373Y-57933087D01*
X116381637Y-57930899D01*
X116387270Y-57934151D01*
X116560192Y-58011142D01*
X116560197Y-58011144D01*
X116745354Y-58050500D01*
X116745355Y-58050500D01*
X116934644Y-58050500D01*
X116934646Y-58050500D01*
X117119803Y-58011144D01*
X117292730Y-57934151D01*
X117445871Y-57822888D01*
X117572533Y-57682216D01*
X117667179Y-57518284D01*
X117725674Y-57338256D01*
X117745460Y-57150000D01*
X117725674Y-56961744D01*
X117667179Y-56781716D01*
X117572533Y-56617784D01*
X117497350Y-56534284D01*
X117467120Y-56471292D01*
X117465500Y-56451312D01*
X117465500Y-54672790D01*
X117485185Y-54605751D01*
X117537989Y-54559996D01*
X117546146Y-54556616D01*
X117607331Y-54533796D01*
X117722546Y-54447546D01*
X117808796Y-54332331D01*
X117859091Y-54197483D01*
X117865500Y-54137873D01*
X117865499Y-52542128D01*
X117859091Y-52482517D01*
X117857838Y-52479158D01*
X117808797Y-52347671D01*
X117808793Y-52347664D01*
X117722547Y-52232455D01*
X117722544Y-52232452D01*
X117607335Y-52146206D01*
X117607328Y-52146202D01*
X117472482Y-52095908D01*
X117472483Y-52095908D01*
X117412883Y-52089501D01*
X117412881Y-52089500D01*
X117412873Y-52089500D01*
X117412864Y-52089500D01*
X116267129Y-52089500D01*
X116267123Y-52089501D01*
X116207516Y-52095908D01*
X116072671Y-52146202D01*
X116064890Y-52150452D01*
X116063759Y-52148381D01*
X116010239Y-52168331D01*
X115965424Y-52163306D01*
X115964343Y-52162978D01*
X115964341Y-52162977D01*
X115821715Y-52119712D01*
X115771031Y-52104337D01*
X115570000Y-52084538D01*
X115368968Y-52104337D01*
X115175654Y-52162978D01*
X114993453Y-52260367D01*
X114925050Y-52274609D01*
X114876547Y-52260367D01*
X114694345Y-52162978D01*
X114501031Y-52104337D01*
X114300000Y-52084538D01*
X114098968Y-52104337D01*
X113905654Y-52162978D01*
X113727511Y-52258198D01*
X113727504Y-52258203D01*
X113571352Y-52386352D01*
X113443203Y-52542504D01*
X113443198Y-52542511D01*
X113347978Y-52720654D01*
X113289337Y-52913968D01*
X113274500Y-53064623D01*
X113274500Y-53615376D01*
X113289337Y-53766031D01*
X113347978Y-53959345D01*
X113443198Y-54137488D01*
X113443201Y-54137492D01*
X113443202Y-54137494D01*
X113456817Y-54154084D01*
X113571352Y-54293647D01*
X113664999Y-54370500D01*
X113727506Y-54421798D01*
X113727509Y-54421799D01*
X113727511Y-54421801D01*
X113905654Y-54517021D01*
X113905656Y-54517021D01*
X113905659Y-54517023D01*
X114098967Y-54575662D01*
X114300000Y-54595462D01*
X114501033Y-54575662D01*
X114694341Y-54517023D01*
X114762048Y-54480832D01*
X114830448Y-54466591D01*
X114895692Y-54491590D01*
X114937063Y-54547895D01*
X114944500Y-54590191D01*
X114944500Y-59630950D01*
X114924815Y-59697989D01*
X114872011Y-59743744D01*
X114802853Y-59753688D01*
X114768099Y-59743334D01*
X114746498Y-59733262D01*
X114746488Y-59733258D01*
X114526697Y-59674366D01*
X114526693Y-59674365D01*
X114526692Y-59674365D01*
X114526691Y-59674364D01*
X114526686Y-59674364D01*
X114300002Y-59654532D01*
X114299998Y-59654532D01*
X114073313Y-59674364D01*
X114073302Y-59674366D01*
X113853511Y-59733258D01*
X113853502Y-59733261D01*
X113647267Y-59829431D01*
X113647265Y-59829432D01*
X113460858Y-59959954D01*
X113299954Y-60120858D01*
X113169432Y-60307265D01*
X113169431Y-60307267D01*
X113073261Y-60513502D01*
X113073258Y-60513511D01*
X113014366Y-60733302D01*
X113014364Y-60733313D01*
X112994532Y-60959998D01*
X112994532Y-60960001D01*
X113014364Y-61186686D01*
X113014366Y-61186697D01*
X113073258Y-61406488D01*
X113073261Y-61406497D01*
X113169431Y-61612732D01*
X113169432Y-61612734D01*
X113299954Y-61799141D01*
X113460858Y-61960045D01*
X113460861Y-61960047D01*
X113647266Y-62090568D01*
X113853504Y-62186739D01*
X114073308Y-62245635D01*
X114235230Y-62259801D01*
X114299998Y-62265468D01*
X114300000Y-62265468D01*
X114300002Y-62265468D01*
X114356673Y-62260509D01*
X114526692Y-62245635D01*
X114746496Y-62186739D01*
X114768093Y-62176667D01*
X114837169Y-62166173D01*
X114900954Y-62194691D01*
X114939195Y-62253167D01*
X114944500Y-62289048D01*
X114944500Y-69539546D01*
X114924815Y-69606585D01*
X114908181Y-69627227D01*
X114714821Y-69820586D01*
X114653498Y-69854071D01*
X114595048Y-69852680D01*
X114526697Y-69834366D01*
X114526693Y-69834365D01*
X114526692Y-69834365D01*
X114402470Y-69823497D01*
X114300001Y-69814532D01*
X114299998Y-69814532D01*
X114073313Y-69834364D01*
X114073302Y-69834366D01*
X113853511Y-69893258D01*
X113853502Y-69893261D01*
X113647267Y-69989431D01*
X113647265Y-69989432D01*
X113460858Y-70119954D01*
X113299954Y-70280858D01*
X113169432Y-70467265D01*
X113169431Y-70467267D01*
X113073261Y-70673502D01*
X113073258Y-70673511D01*
X113014366Y-70893302D01*
X113014364Y-70893313D01*
X112994532Y-71119998D01*
X112994532Y-71120001D01*
X111795468Y-71120001D01*
X111795468Y-71120000D01*
X111775635Y-70893308D01*
X111716739Y-70673504D01*
X111620568Y-70467266D01*
X111490047Y-70280861D01*
X111490045Y-70280858D01*
X111329141Y-70119954D01*
X111142734Y-69989432D01*
X111142732Y-69989431D01*
X110936497Y-69893261D01*
X110936488Y-69893258D01*
X110716697Y-69834366D01*
X110716693Y-69834365D01*
X110716692Y-69834365D01*
X110716691Y-69834364D01*
X110716686Y-69834364D01*
X110490002Y-69814532D01*
X110489998Y-69814532D01*
X110263313Y-69834364D01*
X110263302Y-69834366D01*
X110043511Y-69893258D01*
X110043502Y-69893261D01*
X109837267Y-69989431D01*
X109837265Y-69989432D01*
X109650858Y-70119954D01*
X109489954Y-70280858D01*
X109359432Y-70467265D01*
X109359431Y-70467267D01*
X109263261Y-70673502D01*
X109263258Y-70673511D01*
X109204366Y-70893302D01*
X109204364Y-70893313D01*
X109184532Y-71119998D01*
X109184532Y-71120001D01*
X107985468Y-71120001D01*
X107985468Y-71120000D01*
X107965635Y-70893308D01*
X107947318Y-70824948D01*
X107948981Y-70755103D01*
X107979410Y-70705179D01*
X108333788Y-70350801D01*
X108346042Y-70340986D01*
X108345859Y-70340764D01*
X108351868Y-70335791D01*
X108351877Y-70335786D01*
X108397949Y-70286722D01*
X108400566Y-70284023D01*
X108420120Y-70264471D01*
X108422576Y-70261303D01*
X108430156Y-70252427D01*
X108460062Y-70220582D01*
X108469713Y-70203024D01*
X108480396Y-70186761D01*
X108492673Y-70170936D01*
X108510021Y-70130844D01*
X108515151Y-70120371D01*
X108536197Y-70082092D01*
X108541180Y-70062680D01*
X108547481Y-70044280D01*
X108555437Y-70025896D01*
X108562270Y-69982748D01*
X108564633Y-69971338D01*
X108575500Y-69929019D01*
X108575500Y-69908983D01*
X108577027Y-69889582D01*
X108580160Y-69869804D01*
X108576050Y-69826324D01*
X108575500Y-69814655D01*
X108575500Y-60960002D01*
X109185034Y-60960002D01*
X109204858Y-61186599D01*
X109204860Y-61186610D01*
X109263730Y-61406317D01*
X109263735Y-61406331D01*
X109359863Y-61612478D01*
X109410974Y-61685472D01*
X110092046Y-61004400D01*
X110104835Y-61085148D01*
X110162359Y-61198045D01*
X110251955Y-61287641D01*
X110364852Y-61345165D01*
X110445599Y-61357953D01*
X109764526Y-62039025D01*
X109837513Y-62090132D01*
X109837521Y-62090136D01*
X110043668Y-62186264D01*
X110043682Y-62186269D01*
X110263389Y-62245139D01*
X110263400Y-62245141D01*
X110489998Y-62264966D01*
X110490002Y-62264966D01*
X110716599Y-62245141D01*
X110716610Y-62245139D01*
X110936317Y-62186269D01*
X110936331Y-62186264D01*
X111142478Y-62090136D01*
X111215471Y-62039024D01*
X110534400Y-61357953D01*
X110615148Y-61345165D01*
X110728045Y-61287641D01*
X110817641Y-61198045D01*
X110875165Y-61085148D01*
X110887953Y-61004400D01*
X111569024Y-61685471D01*
X111620136Y-61612478D01*
X111716264Y-61406331D01*
X111716269Y-61406317D01*
X111775139Y-61186610D01*
X111775141Y-61186599D01*
X111794966Y-60960002D01*
X111794966Y-60959997D01*
X111775141Y-60733400D01*
X111775139Y-60733389D01*
X111716269Y-60513682D01*
X111716264Y-60513668D01*
X111620136Y-60307521D01*
X111620132Y-60307513D01*
X111569025Y-60234526D01*
X110887953Y-60915598D01*
X110875165Y-60834852D01*
X110817641Y-60721955D01*
X110728045Y-60632359D01*
X110615148Y-60574835D01*
X110534401Y-60562046D01*
X111215472Y-59880974D01*
X111142478Y-59829863D01*
X110936331Y-59733735D01*
X110936317Y-59733730D01*
X110716610Y-59674860D01*
X110716599Y-59674858D01*
X110490002Y-59655034D01*
X110489998Y-59655034D01*
X110263400Y-59674858D01*
X110263389Y-59674860D01*
X110043682Y-59733730D01*
X110043673Y-59733734D01*
X109837516Y-59829866D01*
X109837512Y-59829868D01*
X109764526Y-59880973D01*
X109764526Y-59880974D01*
X110445599Y-60562046D01*
X110364852Y-60574835D01*
X110251955Y-60632359D01*
X110162359Y-60721955D01*
X110104835Y-60834852D01*
X110092046Y-60915598D01*
X109410974Y-60234526D01*
X109410973Y-60234526D01*
X109359868Y-60307512D01*
X109359866Y-60307516D01*
X109263734Y-60513673D01*
X109263730Y-60513682D01*
X109204860Y-60733389D01*
X109204858Y-60733400D01*
X109185034Y-60959997D01*
X109185034Y-60960002D01*
X108575500Y-60960002D01*
X108575500Y-56825452D01*
X108595185Y-56758413D01*
X108611819Y-56737771D01*
X109406802Y-55942788D01*
X110238788Y-55110801D01*
X110251042Y-55100986D01*
X110250859Y-55100764D01*
X110256868Y-55095791D01*
X110256877Y-55095786D01*
X110302949Y-55046722D01*
X110305566Y-55044023D01*
X110325120Y-55024471D01*
X110327576Y-55021303D01*
X110335156Y-55012427D01*
X110365062Y-54980582D01*
X110374715Y-54963020D01*
X110385389Y-54946770D01*
X110397673Y-54930936D01*
X110415019Y-54890850D01*
X110420157Y-54880362D01*
X110441196Y-54842093D01*
X110441197Y-54842092D01*
X110446177Y-54822691D01*
X110452478Y-54804288D01*
X110460438Y-54785896D01*
X110467272Y-54742741D01*
X110469634Y-54731335D01*
X110480500Y-54689019D01*
X110480500Y-54689017D01*
X110482004Y-54683160D01*
X110517743Y-54623123D01*
X110580268Y-54591939D01*
X110602108Y-54590000D01*
X110875000Y-54590000D01*
X110875000Y-53677314D01*
X110875597Y-53665160D01*
X110879628Y-53624220D01*
X110944052Y-53674363D01*
X111062424Y-53715000D01*
X111156073Y-53715000D01*
X111248446Y-53699586D01*
X111358514Y-53640019D01*
X111375000Y-53622110D01*
X111375000Y-54590000D01*
X111697828Y-54590000D01*
X111697844Y-54589999D01*
X111757372Y-54583598D01*
X111757379Y-54583596D01*
X111892086Y-54533354D01*
X111892093Y-54533350D01*
X112007187Y-54447190D01*
X112007190Y-54447187D01*
X112093350Y-54332093D01*
X112093354Y-54332086D01*
X112143596Y-54197379D01*
X112143598Y-54197372D01*
X112149999Y-54137844D01*
X112150000Y-54137827D01*
X112150000Y-53590000D01*
X111404560Y-53590000D01*
X111443278Y-53547941D01*
X111493551Y-53433330D01*
X111503886Y-53308605D01*
X111473163Y-53187281D01*
X111409606Y-53090000D01*
X112150000Y-53090000D01*
X112150000Y-52542172D01*
X112149999Y-52542155D01*
X112143598Y-52482627D01*
X112143596Y-52482620D01*
X112093354Y-52347913D01*
X112093350Y-52347906D01*
X112007190Y-52232812D01*
X112007187Y-52232809D01*
X111892093Y-52146649D01*
X111892086Y-52146645D01*
X111757379Y-52096403D01*
X111757372Y-52096401D01*
X111697844Y-52090000D01*
X111375000Y-52090000D01*
X111375000Y-53059382D01*
X111305948Y-53005637D01*
X111187576Y-52965000D01*
X111093927Y-52965000D01*
X111001554Y-52980414D01*
X110891486Y-53039981D01*
X110879369Y-53053142D01*
X110875597Y-53014837D01*
X110875000Y-53002684D01*
X110875000Y-52090000D01*
X110552155Y-52090000D01*
X110492627Y-52096401D01*
X110492620Y-52096403D01*
X110357913Y-52146645D01*
X110350132Y-52150895D01*
X110348940Y-52148713D01*
X110295842Y-52168510D01*
X110251018Y-52163486D01*
X110249342Y-52162977D01*
X110249341Y-52162977D01*
X110148924Y-52132516D01*
X110056031Y-52104337D01*
X109855000Y-52084538D01*
X109653968Y-52104337D01*
X109460654Y-52162978D01*
X109278453Y-52260367D01*
X109210050Y-52274609D01*
X109161547Y-52260367D01*
X108979345Y-52162978D01*
X108786031Y-52104337D01*
X108585000Y-52084538D01*
X108383968Y-52104337D01*
X108190654Y-52162978D01*
X108012511Y-52258198D01*
X108012504Y-52258203D01*
X107856352Y-52386352D01*
X107728203Y-52542504D01*
X107728198Y-52542511D01*
X107632978Y-52720654D01*
X107574337Y-52913968D01*
X107559500Y-53064623D01*
X107559500Y-53429546D01*
X107539815Y-53496585D01*
X107523181Y-53517227D01*
X106841208Y-54199199D01*
X106828951Y-54209020D01*
X106829134Y-54209241D01*
X106823122Y-54214214D01*
X106777098Y-54263223D01*
X106774391Y-54266016D01*
X106754889Y-54285517D01*
X106754875Y-54285534D01*
X106752407Y-54288715D01*
X106744843Y-54297570D01*
X106714937Y-54329418D01*
X106714936Y-54329420D01*
X106705284Y-54346976D01*
X106694610Y-54363226D01*
X106682329Y-54379061D01*
X106682324Y-54379068D01*
X106664975Y-54419158D01*
X106659838Y-54429644D01*
X106638803Y-54467906D01*
X106633822Y-54487307D01*
X106627521Y-54505710D01*
X106619562Y-54524102D01*
X106619561Y-54524105D01*
X106612728Y-54567243D01*
X106610360Y-54578674D01*
X106599501Y-54620971D01*
X106599500Y-54620982D01*
X106599500Y-54641016D01*
X106597973Y-54660415D01*
X106594840Y-54680194D01*
X106594840Y-54680195D01*
X106598950Y-54723674D01*
X106599500Y-54735343D01*
X106599500Y-58972205D01*
X106579815Y-59039244D01*
X106567650Y-59055177D01*
X106492466Y-59138677D01*
X106397821Y-59302608D01*
X106397818Y-59302615D01*
X106347171Y-59458493D01*
X106339326Y-59482637D01*
X106337318Y-59501744D01*
X106324196Y-59626591D01*
X106297611Y-59691206D01*
X106240314Y-59731190D01*
X106233784Y-59733158D01*
X106233504Y-59733260D01*
X106027267Y-59829431D01*
X106027265Y-59829432D01*
X105840858Y-59959954D01*
X105679954Y-60120858D01*
X105549432Y-60307265D01*
X105549431Y-60307267D01*
X105453261Y-60513502D01*
X105453258Y-60513511D01*
X105394366Y-60733302D01*
X105394364Y-60733313D01*
X105374532Y-60959998D01*
X105374532Y-60960001D01*
X105394364Y-61186686D01*
X105394366Y-61186697D01*
X105453258Y-61406488D01*
X105453261Y-61406497D01*
X105549431Y-61612732D01*
X105549432Y-61612734D01*
X105679954Y-61799141D01*
X105840858Y-61960045D01*
X105840861Y-61960047D01*
X106027266Y-62090568D01*
X106233504Y-62186739D01*
X106453308Y-62245635D01*
X106615230Y-62259801D01*
X106679998Y-62265468D01*
X106680000Y-62265468D01*
X106680002Y-62265468D01*
X106736673Y-62260509D01*
X106906692Y-62245635D01*
X107126496Y-62186739D01*
X107148093Y-62176667D01*
X107217169Y-62166173D01*
X107280954Y-62194691D01*
X107319195Y-62253167D01*
X107324500Y-62289048D01*
X107324500Y-69539546D01*
X107304815Y-69606585D01*
X107288181Y-69627227D01*
X107094821Y-69820586D01*
X107033498Y-69854071D01*
X106975048Y-69852680D01*
X106906697Y-69834366D01*
X106906693Y-69834365D01*
X106906692Y-69834365D01*
X106782470Y-69823497D01*
X106680001Y-69814532D01*
X106679998Y-69814532D01*
X106453313Y-69834364D01*
X106453302Y-69834366D01*
X106233511Y-69893258D01*
X106233502Y-69893261D01*
X106027267Y-69989431D01*
X106027265Y-69989432D01*
X105840858Y-70119954D01*
X105679954Y-70280858D01*
X105549432Y-70467265D01*
X105549431Y-70467267D01*
X105453261Y-70673502D01*
X105453258Y-70673511D01*
X105394366Y-70893302D01*
X105394364Y-70893313D01*
X105374532Y-71119998D01*
X105374532Y-71120001D01*
X104175468Y-71120001D01*
X104175468Y-71120000D01*
X104155635Y-70893308D01*
X104096739Y-70673504D01*
X104000568Y-70467266D01*
X103883916Y-70300668D01*
X103861589Y-70234462D01*
X103878599Y-70166694D01*
X103929548Y-70118882D01*
X103998258Y-70106204D01*
X104011256Y-70108252D01*
X104045354Y-70115500D01*
X104045356Y-70115500D01*
X104234644Y-70115500D01*
X104234646Y-70115500D01*
X104419803Y-70076144D01*
X104592730Y-69999151D01*
X104745871Y-69887888D01*
X104872533Y-69747216D01*
X104967179Y-69583284D01*
X105025674Y-69403256D01*
X105045460Y-69215000D01*
X105025674Y-69026744D01*
X104967179Y-68846716D01*
X104872533Y-68682784D01*
X104829756Y-68635275D01*
X104797350Y-68599284D01*
X104767120Y-68536292D01*
X104765500Y-68516312D01*
X104765500Y-54714000D01*
X104785185Y-54646961D01*
X104837989Y-54601206D01*
X104889500Y-54590000D01*
X105160000Y-54590000D01*
X105160000Y-53677314D01*
X105160597Y-53665160D01*
X105164628Y-53624220D01*
X105229052Y-53674363D01*
X105347424Y-53715000D01*
X105441073Y-53715000D01*
X105533446Y-53699586D01*
X105643514Y-53640019D01*
X105660000Y-53622110D01*
X105660000Y-54590000D01*
X105982828Y-54590000D01*
X105982844Y-54589999D01*
X106042372Y-54583598D01*
X106042379Y-54583596D01*
X106177086Y-54533354D01*
X106177093Y-54533350D01*
X106292187Y-54447190D01*
X106292190Y-54447187D01*
X106378350Y-54332093D01*
X106378354Y-54332086D01*
X106428596Y-54197379D01*
X106428598Y-54197372D01*
X106434999Y-54137844D01*
X106435000Y-54137827D01*
X106435000Y-53590000D01*
X105689560Y-53590000D01*
X105728278Y-53547941D01*
X105778551Y-53433330D01*
X105788886Y-53308605D01*
X105758163Y-53187281D01*
X105694606Y-53090000D01*
X106435000Y-53090000D01*
X106435000Y-52542172D01*
X106434999Y-52542155D01*
X106428598Y-52482627D01*
X106428596Y-52482620D01*
X106378354Y-52347913D01*
X106378350Y-52347906D01*
X106292190Y-52232812D01*
X106292187Y-52232809D01*
X106177093Y-52146649D01*
X106177086Y-52146645D01*
X106042379Y-52096403D01*
X106042372Y-52096401D01*
X105982844Y-52090000D01*
X105660000Y-52090000D01*
X105660000Y-53059382D01*
X105590948Y-53005637D01*
X105472576Y-52965000D01*
X105378927Y-52965000D01*
X105286554Y-52980414D01*
X105176486Y-53039981D01*
X105164369Y-53053142D01*
X105160597Y-53014837D01*
X105160000Y-53002684D01*
X105160000Y-52090000D01*
X104837155Y-52090000D01*
X104777627Y-52096401D01*
X104777620Y-52096403D01*
X104642913Y-52146645D01*
X104635132Y-52150895D01*
X104633940Y-52148713D01*
X104580842Y-52168510D01*
X104536018Y-52163486D01*
X104534342Y-52162977D01*
X104534341Y-52162977D01*
X104433924Y-52132516D01*
X104341031Y-52104337D01*
X104140000Y-52084538D01*
X103938968Y-52104337D01*
X103745654Y-52162978D01*
X103563453Y-52260367D01*
X103495050Y-52274609D01*
X103446547Y-52260367D01*
X103264345Y-52162978D01*
X103071031Y-52104337D01*
X102870000Y-52084538D01*
X102668968Y-52104337D01*
X102475654Y-52162978D01*
X102297511Y-52258198D01*
X102297504Y-52258203D01*
X102141352Y-52386352D01*
X102013203Y-52542504D01*
X102013198Y-52542511D01*
X101917978Y-52720654D01*
X101859337Y-52913968D01*
X101844500Y-53064623D01*
X101844500Y-53615376D01*
X101859337Y-53766031D01*
X101917978Y-53959345D01*
X102013198Y-54137488D01*
X102013201Y-54137492D01*
X102013202Y-54137494D01*
X102026817Y-54154084D01*
X102141352Y-54293647D01*
X102234999Y-54370500D01*
X102297506Y-54421798D01*
X102297509Y-54421799D01*
X102297511Y-54421801D01*
X102475654Y-54517021D01*
X102475656Y-54517021D01*
X102475659Y-54517023D01*
X102668967Y-54575662D01*
X102870000Y-54595462D01*
X103071033Y-54575662D01*
X103264341Y-54517023D01*
X103332048Y-54480832D01*
X103400448Y-54466591D01*
X103465692Y-54491590D01*
X103507063Y-54547895D01*
X103514500Y-54590191D01*
X103514500Y-59630950D01*
X103494815Y-59697989D01*
X103442011Y-59743744D01*
X103372853Y-59753688D01*
X103338099Y-59743334D01*
X103316498Y-59733262D01*
X103316488Y-59733258D01*
X103096697Y-59674366D01*
X103096693Y-59674365D01*
X103096692Y-59674365D01*
X103096691Y-59674364D01*
X103096686Y-59674364D01*
X102870002Y-59654532D01*
X102869998Y-59654532D01*
X102643313Y-59674364D01*
X102643302Y-59674366D01*
X102423511Y-59733258D01*
X102423502Y-59733261D01*
X102217267Y-59829431D01*
X102217265Y-59829432D01*
X102030858Y-59959954D01*
X101869954Y-60120858D01*
X101739432Y-60307265D01*
X101739431Y-60307267D01*
X101643261Y-60513502D01*
X101643258Y-60513511D01*
X101584366Y-60733302D01*
X101584364Y-60733313D01*
X101564532Y-60959998D01*
X101564532Y-60960001D01*
X101584364Y-61186686D01*
X101584366Y-61186697D01*
X101643258Y-61406488D01*
X101643261Y-61406497D01*
X101739431Y-61612732D01*
X101739432Y-61612734D01*
X101869954Y-61799141D01*
X102030858Y-61960045D01*
X102030861Y-61960047D01*
X102217266Y-62090568D01*
X102423504Y-62186739D01*
X102643308Y-62245635D01*
X102805230Y-62259801D01*
X102869998Y-62265468D01*
X102870000Y-62265468D01*
X102870002Y-62265468D01*
X102926673Y-62260509D01*
X103096692Y-62245635D01*
X103316496Y-62186739D01*
X103338093Y-62176667D01*
X103407169Y-62166173D01*
X103470954Y-62194691D01*
X103509195Y-62253167D01*
X103514500Y-62289048D01*
X103514500Y-68516312D01*
X103494815Y-68583351D01*
X103482650Y-68599284D01*
X103407466Y-68682784D01*
X103312821Y-68846715D01*
X103312818Y-68846722D01*
X103254460Y-69026331D01*
X103254326Y-69026744D01*
X103234540Y-69215000D01*
X103254326Y-69403256D01*
X103254327Y-69403259D01*
X103312818Y-69583277D01*
X103312821Y-69583284D01*
X103374185Y-69689570D01*
X103390658Y-69757471D01*
X103367805Y-69823497D01*
X103312884Y-69866688D01*
X103243330Y-69873329D01*
X103234705Y-69871345D01*
X103096697Y-69834366D01*
X103096693Y-69834365D01*
X103096692Y-69834365D01*
X103096691Y-69834364D01*
X103096686Y-69834364D01*
X102870002Y-69814532D01*
X102869998Y-69814532D01*
X102643313Y-69834364D01*
X102643302Y-69834366D01*
X102423511Y-69893258D01*
X102423502Y-69893261D01*
X102217267Y-69989431D01*
X102217265Y-69989432D01*
X102030858Y-70119954D01*
X101869954Y-70280858D01*
X101739432Y-70467265D01*
X101739431Y-70467267D01*
X101643261Y-70673502D01*
X101643258Y-70673511D01*
X101584366Y-70893302D01*
X101584364Y-70893313D01*
X101564532Y-71119998D01*
X101564532Y-71120001D01*
X92710500Y-71120001D01*
X92710500Y-68580000D01*
X95164341Y-68580000D01*
X95184936Y-68815403D01*
X95184938Y-68815413D01*
X95246094Y-69043655D01*
X95246096Y-69043659D01*
X95246097Y-69043663D01*
X95325993Y-69215000D01*
X95345965Y-69257830D01*
X95345967Y-69257834D01*
X95387756Y-69317514D01*
X95481505Y-69451401D01*
X95648599Y-69618495D01*
X95745384Y-69686265D01*
X95842165Y-69754032D01*
X95842167Y-69754033D01*
X95842170Y-69754035D01*
X96056337Y-69853903D01*
X96284592Y-69915063D01*
X96461034Y-69930500D01*
X96519999Y-69935659D01*
X96520000Y-69935659D01*
X96520001Y-69935659D01*
X96578966Y-69930500D01*
X96755408Y-69915063D01*
X96983663Y-69853903D01*
X97197830Y-69754035D01*
X97391401Y-69618495D01*
X97513329Y-69496566D01*
X97574648Y-69463084D01*
X97644340Y-69468068D01*
X97700274Y-69509939D01*
X97717189Y-69540917D01*
X97766202Y-69672328D01*
X97766206Y-69672335D01*
X97852452Y-69787544D01*
X97852455Y-69787547D01*
X97967664Y-69873793D01*
X97967671Y-69873797D01*
X98102517Y-69924091D01*
X98102516Y-69924091D01*
X98109444Y-69924835D01*
X98162127Y-69930500D01*
X99957872Y-69930499D01*
X100017483Y-69924091D01*
X100152331Y-69873796D01*
X100267546Y-69787546D01*
X100353796Y-69672331D01*
X100404091Y-69537483D01*
X100410500Y-69477873D01*
X100410499Y-67682128D01*
X100404091Y-67622517D01*
X100402810Y-67619083D01*
X100353797Y-67487671D01*
X100353793Y-67487664D01*
X100267547Y-67372455D01*
X100267544Y-67372452D01*
X100152335Y-67286206D01*
X100152328Y-67286202D01*
X100020401Y-67236997D01*
X99964467Y-67195126D01*
X99940050Y-67129662D01*
X99954902Y-67061389D01*
X99976053Y-67033133D01*
X100098108Y-66911078D01*
X100233600Y-66717578D01*
X100333429Y-66503492D01*
X100333432Y-66503486D01*
X100390636Y-66290000D01*
X99493686Y-66290000D01*
X99519493Y-66249844D01*
X99560000Y-66111889D01*
X99560000Y-65968111D01*
X99519493Y-65830156D01*
X99493686Y-65790000D01*
X100390636Y-65790000D01*
X100390635Y-65789999D01*
X100333432Y-65576513D01*
X100333429Y-65576507D01*
X100233600Y-65362422D01*
X100233599Y-65362420D01*
X100098113Y-65168926D01*
X100098108Y-65168920D01*
X99931078Y-65001890D01*
X99745405Y-64871879D01*
X99701780Y-64817302D01*
X99694588Y-64747804D01*
X99726110Y-64685449D01*
X99745406Y-64668730D01*
X99931401Y-64538495D01*
X100098495Y-64371401D01*
X100234035Y-64177830D01*
X100333903Y-63963663D01*
X100395063Y-63735408D01*
X100415659Y-63500000D01*
X100413366Y-63473797D01*
X100395740Y-63272331D01*
X100395063Y-63264592D01*
X100333903Y-63036337D01*
X100234035Y-62822171D01*
X100228425Y-62814158D01*
X100098494Y-62628597D01*
X99931402Y-62461506D01*
X99931396Y-62461501D01*
X99745842Y-62331575D01*
X99702217Y-62276998D01*
X99695023Y-62207500D01*
X99726546Y-62145145D01*
X99745842Y-62128425D01*
X99779508Y-62104852D01*
X99931401Y-61998495D01*
X100098495Y-61831401D01*
X100234035Y-61637830D01*
X100333903Y-61423663D01*
X100395063Y-61195408D01*
X100415659Y-60960000D01*
X100395063Y-60724592D01*
X100333903Y-60496337D01*
X100234035Y-60282171D01*
X100230571Y-60277223D01*
X100098494Y-60088597D01*
X99931402Y-59921506D01*
X99931396Y-59921501D01*
X99745842Y-59791575D01*
X99702217Y-59736998D01*
X99695023Y-59667500D01*
X99726546Y-59605145D01*
X99745842Y-59588425D01*
X99869635Y-59501744D01*
X99931401Y-59458495D01*
X100098495Y-59291401D01*
X100234035Y-59097830D01*
X100333903Y-58883663D01*
X100395063Y-58655408D01*
X100415659Y-58420000D01*
X100395063Y-58184592D01*
X100333903Y-57956337D01*
X100234035Y-57742171D01*
X100228425Y-57734158D01*
X100098494Y-57548597D01*
X99931402Y-57381506D01*
X99931396Y-57381501D01*
X99745842Y-57251575D01*
X99702217Y-57196998D01*
X99695023Y-57127500D01*
X99726546Y-57065145D01*
X99745842Y-57048425D01*
X99869635Y-56961744D01*
X99931401Y-56918495D01*
X100098495Y-56751401D01*
X100234035Y-56557830D01*
X100333903Y-56343663D01*
X100395063Y-56115408D01*
X100415659Y-55880000D01*
X100395063Y-55644592D01*
X100348626Y-55471285D01*
X100333905Y-55416344D01*
X100333904Y-55416343D01*
X100333903Y-55416337D01*
X100234035Y-55202171D01*
X100228425Y-55194158D01*
X100098494Y-55008597D01*
X99931402Y-54841506D01*
X99931401Y-54841505D01*
X99790384Y-54742764D01*
X99738376Y-54706347D01*
X99694751Y-54651770D01*
X99685500Y-54604772D01*
X99685500Y-52768687D01*
X99705185Y-52701648D01*
X99717350Y-52685715D01*
X99735891Y-52665122D01*
X99792533Y-52602216D01*
X99887179Y-52438284D01*
X99945674Y-52258256D01*
X99965460Y-52070000D01*
X99945674Y-51881744D01*
X99887179Y-51701716D01*
X99792533Y-51537784D01*
X99665871Y-51397112D01*
X99665870Y-51397111D01*
X99512734Y-51285851D01*
X99512729Y-51285848D01*
X99339807Y-51208857D01*
X99339802Y-51208855D01*
X99194001Y-51177865D01*
X99154646Y-51169500D01*
X98965354Y-51169500D01*
X98932897Y-51176398D01*
X98780197Y-51208855D01*
X98780192Y-51208857D01*
X98607270Y-51285848D01*
X98607265Y-51285851D01*
X98454129Y-51397111D01*
X98327466Y-51537785D01*
X98232821Y-51701715D01*
X98232818Y-51701722D01*
X98199819Y-51803284D01*
X98174326Y-51881744D01*
X98154540Y-52070000D01*
X98174326Y-52258256D01*
X98174327Y-52258259D01*
X98232818Y-52438277D01*
X98232821Y-52438284D01*
X98327467Y-52602216D01*
X98355202Y-52633018D01*
X98402650Y-52685715D01*
X98432880Y-52748706D01*
X98434500Y-52768687D01*
X98434500Y-54604773D01*
X98414815Y-54671812D01*
X98381623Y-54706348D01*
X98188597Y-54841505D01*
X98021505Y-55008597D01*
X97891575Y-55194158D01*
X97836998Y-55237783D01*
X97767500Y-55244977D01*
X97705145Y-55213454D01*
X97688425Y-55194158D01*
X97558494Y-55008597D01*
X97391402Y-54841506D01*
X97391395Y-54841501D01*
X97364547Y-54822702D01*
X97312026Y-54785926D01*
X97197834Y-54705967D01*
X97197830Y-54705965D01*
X97161489Y-54689019D01*
X96983663Y-54606097D01*
X96983659Y-54606096D01*
X96983655Y-54606094D01*
X96755413Y-54544938D01*
X96755403Y-54544936D01*
X96520001Y-54524341D01*
X96519999Y-54524341D01*
X96284596Y-54544936D01*
X96284586Y-54544938D01*
X96056344Y-54606094D01*
X96056335Y-54606098D01*
X95842171Y-54705964D01*
X95842169Y-54705965D01*
X95648597Y-54841505D01*
X95481505Y-55008597D01*
X95345965Y-55202169D01*
X95345964Y-55202171D01*
X95246098Y-55416335D01*
X95246094Y-55416344D01*
X95184938Y-55644586D01*
X95184936Y-55644596D01*
X95164341Y-55879999D01*
X95164341Y-55880000D01*
X95184936Y-56115403D01*
X95184938Y-56115413D01*
X95246094Y-56343655D01*
X95246096Y-56343659D01*
X95246097Y-56343663D01*
X95282226Y-56421141D01*
X95345965Y-56557830D01*
X95345967Y-56557834D01*
X95452865Y-56710499D01*
X95481501Y-56751396D01*
X95481506Y-56751402D01*
X95648597Y-56918493D01*
X95648603Y-56918498D01*
X95834158Y-57048425D01*
X95877783Y-57103002D01*
X95884977Y-57172500D01*
X95853454Y-57234855D01*
X95834158Y-57251575D01*
X95648597Y-57381505D01*
X95481505Y-57548597D01*
X95345965Y-57742169D01*
X95345964Y-57742171D01*
X95246098Y-57956335D01*
X95246094Y-57956344D01*
X95184938Y-58184586D01*
X95184936Y-58184596D01*
X95164341Y-58419999D01*
X95164341Y-58420000D01*
X95184936Y-58655403D01*
X95184938Y-58655413D01*
X95246094Y-58883655D01*
X95246096Y-58883659D01*
X95246097Y-58883663D01*
X95318491Y-59038912D01*
X95345965Y-59097830D01*
X95345967Y-59097834D01*
X95407889Y-59186267D01*
X95481501Y-59291396D01*
X95481506Y-59291402D01*
X95648597Y-59458493D01*
X95648603Y-59458498D01*
X95834158Y-59588425D01*
X95877783Y-59643002D01*
X95884977Y-59712500D01*
X95853454Y-59774855D01*
X95834158Y-59791575D01*
X95648597Y-59921505D01*
X95481505Y-60088597D01*
X95345965Y-60282169D01*
X95345964Y-60282171D01*
X95246098Y-60496335D01*
X95246094Y-60496344D01*
X95184938Y-60724586D01*
X95184936Y-60724596D01*
X95164341Y-60959999D01*
X95164341Y-60960000D01*
X95184936Y-61195403D01*
X95184938Y-61195413D01*
X95246094Y-61423655D01*
X95246096Y-61423659D01*
X95246097Y-61423663D01*
X95326004Y-61595023D01*
X95345965Y-61637830D01*
X95345967Y-61637834D01*
X95408675Y-61727389D01*
X95481501Y-61831396D01*
X95481506Y-61831402D01*
X95648597Y-61998493D01*
X95648603Y-61998498D01*
X95834158Y-62128425D01*
X95877783Y-62183002D01*
X95884977Y-62252500D01*
X95853454Y-62314855D01*
X95834158Y-62331575D01*
X95648597Y-62461505D01*
X95481505Y-62628597D01*
X95345965Y-62822169D01*
X95345964Y-62822171D01*
X95246098Y-63036335D01*
X95246094Y-63036344D01*
X95184938Y-63264586D01*
X95184936Y-63264596D01*
X95164341Y-63499999D01*
X95164341Y-63500000D01*
X95184936Y-63735403D01*
X95184938Y-63735413D01*
X95246094Y-63963655D01*
X95246096Y-63963659D01*
X95246097Y-63963663D01*
X95250000Y-63972032D01*
X95345965Y-64177830D01*
X95345967Y-64177834D01*
X95445905Y-64320559D01*
X95481501Y-64371396D01*
X95481506Y-64371402D01*
X95648597Y-64538493D01*
X95648603Y-64538498D01*
X95834594Y-64668730D01*
X95878219Y-64723307D01*
X95885413Y-64792805D01*
X95853890Y-64855160D01*
X95834595Y-64871880D01*
X95648922Y-65001890D01*
X95648920Y-65001891D01*
X95481891Y-65168920D01*
X95481886Y-65168926D01*
X95346400Y-65362420D01*
X95346399Y-65362422D01*
X95246570Y-65576507D01*
X95246567Y-65576513D01*
X95189364Y-65789999D01*
X95189364Y-65790000D01*
X96086314Y-65790000D01*
X96060507Y-65830156D01*
X96020000Y-65968111D01*
X96020000Y-66111889D01*
X96060507Y-66249844D01*
X96086314Y-66290000D01*
X95189364Y-66290000D01*
X95246567Y-66503486D01*
X95246570Y-66503492D01*
X95346399Y-66717578D01*
X95481894Y-66911082D01*
X95648917Y-67078105D01*
X95834595Y-67208119D01*
X95878219Y-67262696D01*
X95885412Y-67332195D01*
X95853890Y-67394549D01*
X95834595Y-67411269D01*
X95648594Y-67541508D01*
X95481505Y-67708597D01*
X95345965Y-67902169D01*
X95345964Y-67902171D01*
X95246098Y-68116335D01*
X95246094Y-68116344D01*
X95184938Y-68344586D01*
X95184936Y-68344596D01*
X95164341Y-68579999D01*
X95164341Y-68580000D01*
X92710500Y-68580000D01*
X92710500Y-50924500D01*
X92730185Y-50857461D01*
X92782989Y-50811706D01*
X92834500Y-50800500D01*
X136271747Y-50800500D01*
X136338786Y-50820185D01*
G37*
%TD.AperFunction*%
%TD*%
M02*
