%TF.GenerationSoftware,KiCad,Pcbnew,(6.0.10)*%
%TF.CreationDate,2023-01-05T13:42:57+01:00*%
%TF.ProjectId,pmod_hk-w806_baseboard,706d6f64-5f68-46b2-9d77-3830365f6261,rev?*%
%TF.SameCoordinates,Original*%
%TF.FileFunction,Copper,L1,Top*%
%TF.FilePolarity,Positive*%
%FSLAX46Y46*%
G04 Gerber Fmt 4.6, Leading zero omitted, Abs format (unit mm)*
G04 Created by KiCad (PCBNEW (6.0.10)) date 2023-01-05 13:42:57*
%MOMM*%
%LPD*%
G01*
G04 APERTURE LIST*
%TA.AperFunction,ComponentPad*%
%ADD10R,1.700000X1.700000*%
%TD*%
%TA.AperFunction,ComponentPad*%
%ADD11O,1.700000X1.700000*%
%TD*%
%TA.AperFunction,ComponentPad*%
%ADD12C,0.800000*%
%TD*%
%TA.AperFunction,ComponentPad*%
%ADD13C,6.400000*%
%TD*%
%TA.AperFunction,ComponentPad*%
%ADD14R,1.000000X1.000000*%
%TD*%
%TA.AperFunction,ComponentPad*%
%ADD15O,1.000000X1.000000*%
%TD*%
%TA.AperFunction,ComponentPad*%
%ADD16C,1.524000*%
%TD*%
%TA.AperFunction,ViaPad*%
%ADD17C,0.800000*%
%TD*%
%TA.AperFunction,Conductor*%
%ADD18C,0.250000*%
%TD*%
G04 APERTURE END LIST*
D10*
%TO.P,PMOD2,1,Pin_1*%
%TO.N,VCC*%
X96520000Y-30480000D03*
D11*
%TO.P,PMOD2,2,Pin_2*%
X96520000Y-27940000D03*
%TO.P,PMOD2,3,Pin_3*%
%TO.N,GND*%
X93980000Y-30480000D03*
%TO.P,PMOD2,4,Pin_4*%
X93980000Y-27940000D03*
%TO.P,PMOD2,5,Pin_5*%
%TO.N,PMOD_UART_RTS*%
X91440000Y-30480000D03*
%TO.P,PMOD2,6,Pin_6*%
%TO.N,PMOD_UART_GPIO4*%
X91440000Y-27940000D03*
%TO.P,PMOD2,7,Pin_7*%
%TO.N,PMOD_UART_RXD*%
X88900000Y-30480000D03*
%TO.P,PMOD2,8,Pin_8*%
%TO.N,PMOD_UART_GPIO3*%
X88900000Y-27940000D03*
%TO.P,PMOD2,9,Pin_9*%
%TO.N,PMOD_UART_TXD*%
X86360000Y-30480000D03*
%TO.P,PMOD2,10,Pin_10*%
%TO.N,PMOD_UART_GPIO2_RESET*%
X86360000Y-27940000D03*
%TO.P,PMOD2,11,Pin_11*%
%TO.N,PMOD_UART_CTS*%
X83820000Y-30480000D03*
%TO.P,PMOD2,12,Pin_12*%
%TO.N,PMOD_UART_GPIO1_INT*%
X83820000Y-27940000D03*
%TD*%
D10*
%TO.P,PMOD3,1,Pin_1*%
%TO.N,VCC*%
X119380000Y-30480000D03*
D11*
%TO.P,PMOD3,2,Pin_2*%
X119380000Y-27940000D03*
%TO.P,PMOD3,3,Pin_3*%
%TO.N,GND*%
X116840000Y-30480000D03*
%TO.P,PMOD3,4,Pin_4*%
X116840000Y-27940000D03*
%TO.P,PMOD3,5,Pin_5*%
%TO.N,PMOD_I2C_SDA*%
X114300000Y-30480000D03*
%TO.P,PMOD3,6,Pin_6*%
%TO.N,PMOD_I2C_GPIO4*%
X114300000Y-27940000D03*
%TO.P,PMOD3,7,Pin_7*%
%TO.N,PMOD_I2C_SCL*%
X111760000Y-30480000D03*
%TO.P,PMOD3,8,Pin_8*%
%TO.N,PMOD_I2C_GPIO3*%
X111760000Y-27940000D03*
%TO.P,PMOD3,9,Pin_9*%
%TO.N,PMOD_I2C_RESET*%
X109220000Y-30480000D03*
%TO.P,PMOD3,10,Pin_10*%
%TO.N,PMOD_I2C_GPIO2*%
X109220000Y-27940000D03*
%TO.P,PMOD3,11,Pin_11*%
%TO.N,PMOD_I2C_INT*%
X106680000Y-30480000D03*
%TO.P,PMOD3,12,Pin_12*%
%TO.N,PMOD_I2C_GPIO1*%
X106680000Y-27940000D03*
%TD*%
D10*
%TO.P,PMOD1,1,Pin_1*%
%TO.N,VCC*%
X73660000Y-30480000D03*
D11*
%TO.P,PMOD1,2,Pin_2*%
X73660000Y-27940000D03*
%TO.P,PMOD1,3,Pin_3*%
%TO.N,GND*%
X71120000Y-30480000D03*
%TO.P,PMOD1,4,Pin_4*%
X71120000Y-27940000D03*
%TO.P,PMOD1,5,Pin_5*%
%TO.N,PMOD_SPI_SCK*%
X68580000Y-30480000D03*
%TO.P,PMOD1,6,Pin_6*%
%TO.N,PMOD_SPI_GPIO4_CS3*%
X68580000Y-27940000D03*
%TO.P,PMOD1,7,Pin_7*%
%TO.N,PMOD_SPI_MISO*%
X66040000Y-30480000D03*
%TO.P,PMOD1,8,Pin_8*%
%TO.N,PMOD_SPI_GPIO3_CS2*%
X66040000Y-27940000D03*
%TO.P,PMOD1,9,Pin_9*%
%TO.N,PMOD_SPI_MOSI*%
X63500000Y-30480000D03*
%TO.P,PMOD1,10,Pin_10*%
%TO.N,PMOD_SPI_GPIO2_RESET*%
X63500000Y-27940000D03*
%TO.P,PMOD1,11,Pin_11*%
%TO.N,PMOD_SPI_CS*%
X60960000Y-30480000D03*
%TO.P,PMOD1,12,Pin_12*%
%TO.N,PMOD_SPI_GPIO1_INT*%
X60960000Y-27940000D03*
%TD*%
D12*
%TO.P,H3,1*%
%TO.N,N/C*%
X52497056Y-88057056D03*
X49102944Y-84662944D03*
X50800000Y-83960000D03*
X48400000Y-86360000D03*
X52497056Y-84662944D03*
X49102944Y-88057056D03*
X53200000Y-86360000D03*
D13*
X50800000Y-86360000D03*
D12*
X50800000Y-88760000D03*
%TD*%
%TO.P,H1,1*%
%TO.N,N/C*%
X50800000Y-20460000D03*
X52497056Y-24557056D03*
X50800000Y-25260000D03*
X53200000Y-22860000D03*
X48400000Y-22860000D03*
X52497056Y-21162944D03*
X49102944Y-24557056D03*
D13*
X50800000Y-22860000D03*
D12*
X49102944Y-21162944D03*
%TD*%
D10*
%TO.P,J1,1,Pin_1*%
%TO.N,PMOD_I2C_SDA*%
X130795000Y-35555000D03*
D11*
%TO.P,J1,2,Pin_2*%
%TO.N,PMOD_I2C_SCL*%
X130795000Y-38095000D03*
%TO.P,J1,3,Pin_3*%
%TO.N,PA4*%
X128255000Y-35555000D03*
%TO.P,J1,4,Pin_4*%
%TO.N,PA1*%
X128255000Y-38095000D03*
%TO.P,J1,5,Pin_5*%
%TO.N,TMS*%
X125715000Y-35555000D03*
%TO.P,J1,6,Pin_6*%
%TO.N,TCK*%
X125715000Y-38095000D03*
%TD*%
D12*
%TO.P,H4,1*%
%TO.N,N/C*%
X131237056Y-84662944D03*
X127842944Y-88057056D03*
D13*
X129540000Y-86360000D03*
D12*
X127140000Y-86360000D03*
X129540000Y-88760000D03*
X131237056Y-88057056D03*
X127842944Y-84662944D03*
X131940000Y-86360000D03*
X129540000Y-83960000D03*
%TD*%
%TO.P,H2,1*%
%TO.N,N/C*%
X131237056Y-21162944D03*
X131237056Y-24557056D03*
X127842944Y-21162944D03*
D13*
X129540000Y-22860000D03*
D12*
X129540000Y-25260000D03*
X131940000Y-22860000D03*
X129540000Y-20460000D03*
X127140000Y-22860000D03*
X127842944Y-24557056D03*
%TD*%
D14*
%TO.P,J3,1,Pin_1*%
%TO.N,VCC*%
X127770000Y-73660000D03*
D15*
%TO.P,J3,2,Pin_2*%
%TO.N,TMS*%
X129040000Y-73660000D03*
%TO.P,J3,3,Pin_3*%
%TO.N,GND*%
X127770000Y-74930000D03*
%TO.P,J3,4,Pin_4*%
%TO.N,TCK*%
X129040000Y-74930000D03*
%TO.P,J3,5,Pin_5*%
%TO.N,GND*%
X127770000Y-76200000D03*
%TO.P,J3,6,Pin_6*%
%TO.N,unconnected-(J3-Pad6)*%
X129040000Y-76200000D03*
%TO.P,J3,7,Pin_7*%
%TO.N,unconnected-(J3-Pad7)*%
X127770000Y-77470000D03*
%TO.P,J3,8,Pin_8*%
%TO.N,unconnected-(J3-Pad8)*%
X129040000Y-77470000D03*
%TO.P,J3,9,Pin_9*%
%TO.N,GND*%
X127770000Y-78740000D03*
%TO.P,J3,10,Pin_10*%
%TO.N,~{RST}*%
X129040000Y-78740000D03*
%TD*%
D10*
%TO.P,J4,1,Pin_1*%
%TO.N,VCC*%
X128270000Y-44450000D03*
D11*
%TO.P,J4,2,Pin_2*%
%TO.N,TCK*%
X128270000Y-46990000D03*
%TO.P,J4,3,Pin_3*%
%TO.N,GND*%
X128270000Y-49530000D03*
%TO.P,J4,4,Pin_4*%
%TO.N,TMS*%
X128270000Y-52070000D03*
%TD*%
D10*
%TO.P,J2,1,Pin_1*%
%TO.N,VCC*%
X50800000Y-30480000D03*
D11*
%TO.P,J2,2,Pin_2*%
%TO.N,GND*%
X50800000Y-33020000D03*
%TD*%
D16*
%TO.P,U1,1,VCC*%
%TO.N,VCC*%
X54610000Y-80010000D03*
%TO.P,U1,2,PA0*%
%TO.N,unconnected-(U1-Pad2)*%
X57150000Y-80010000D03*
%TO.P,U1,3,PA1*%
%TO.N,PA1*%
X59690000Y-80010000D03*
%TO.P,U1,4,PA2*%
%TO.N,PMOD_UART_RTS*%
X62230000Y-80010000D03*
%TO.P,U1,5,PA3*%
%TO.N,PMOD_UART_CTS*%
X64770000Y-80010000D03*
%TO.P,U1,6,PA4*%
%TO.N,PA4*%
X67310000Y-80010000D03*
%TO.P,U1,7,PA5*%
%TO.N,PMOD_I2C_GPIO4*%
X69850000Y-80010000D03*
%TO.P,U1,8,PA6*%
%TO.N,PMOD_I2C_GPIO3*%
X72390000Y-80010000D03*
%TO.P,U1,9,PA7*%
%TO.N,PMOD_I2C_GPIO2*%
X74930000Y-80010000D03*
%TO.P,U1,10,PA8*%
%TO.N,PMOD_I2C_GPIO1*%
X77470000Y-80010000D03*
%TO.P,U1,11,PA9*%
%TO.N,PMOD_UART_GPIO4*%
X80010000Y-80010000D03*
%TO.P,U1,12,PA10*%
%TO.N,PMOD_UART_GPIO3*%
X82550000Y-80010000D03*
%TO.P,U1,13,PA11*%
%TO.N,PMOD_UART_GPIO2_RESET*%
X85090000Y-80010000D03*
%TO.P,U1,14,PA12*%
%TO.N,PMOD_UART_GPIO1_INT*%
X87630000Y-80010000D03*
%TO.P,U1,15,PA13*%
%TO.N,PMOD_I2C_INT*%
X90170000Y-80010000D03*
%TO.P,U1,16,PA14*%
%TO.N,PMOD_I2C_RESET*%
X92710000Y-80010000D03*
%TO.P,U1,17,PA15*%
%TO.N,unconnected-(U1-Pad17)*%
X95250000Y-80010000D03*
%TO.P,U1,18,LED/PB0*%
%TO.N,unconnected-(U1-Pad18)*%
X97790000Y-80010000D03*
%TO.P,U1,19,LED/PB1*%
%TO.N,unconnected-(U1-Pad19)*%
X100330000Y-80010000D03*
%TO.P,U1,20,LED/PB2*%
%TO.N,unconnected-(U1-Pad20)*%
X102870000Y-80010000D03*
%TO.P,U1,21,LED/PB3*%
%TO.N,unconnected-(U1-Pad21)*%
X105410000Y-80010000D03*
%TO.P,U1,22,PB27*%
%TO.N,unconnected-(U1-Pad22)*%
X107950000Y-80010000D03*
%TO.P,U1,23,PB4*%
%TO.N,unconnected-(U1-Pad23)*%
X110490000Y-80010000D03*
%TO.P,U1,24,GND*%
%TO.N,GND*%
X113030000Y-80010000D03*
%TO.P,U1,25,GND*%
X113030000Y-57150000D03*
%TO.P,U1,26,PB5*%
%TO.N,unconnected-(U1-Pad26)*%
X110490000Y-57150000D03*
%TO.P,U1,27,PB6*%
%TO.N,PMOD_UART_TXD*%
X107950000Y-57150000D03*
%TO.P,U1,28,PB7*%
%TO.N,PMOD_UART_RXD*%
X105410000Y-57150000D03*
%TO.P,U1,29,LED/PB8*%
%TO.N,unconnected-(U1-Pad29)*%
X102870000Y-57150000D03*
%TO.P,U1,30,LED/PB9*%
%TO.N,unconnected-(U1-Pad30)*%
X100330000Y-57150000D03*
%TO.P,U1,31,PB12*%
%TO.N,PMOD_SPI_CS*%
X97790000Y-57150000D03*
%TO.P,U1,32,PB13*%
%TO.N,PMOD_SPI_GPIO3_CS2*%
X95250000Y-57150000D03*
%TO.P,U1,33,PB14*%
%TO.N,PMOD_SPI_GPIO4_CS3*%
X92710000Y-57150000D03*
%TO.P,U1,34,PB15*%
%TO.N,unconnected-(U1-Pad34)*%
X90170000Y-57150000D03*
%TO.P,U1,35,PB10*%
%TO.N,PMOD_SPI_GPIO1_INT*%
X87630000Y-57150000D03*
%TO.P,U1,36,PB11*%
%TO.N,PMOD_SPI_GPIO2_RESET*%
X85090000Y-57150000D03*
%TO.P,U1,37,PB16*%
%TO.N,unconnected-(U1-Pad37)*%
X82550000Y-57150000D03*
%TO.P,U1,38,PB17*%
%TO.N,unconnected-(U1-Pad38)*%
X80010000Y-57150000D03*
%TO.P,U1,39,PB18*%
%TO.N,unconnected-(U1-Pad39)*%
X77470000Y-57150000D03*
%TO.P,U1,40,PB26*%
%TO.N,PMOD_SPI_MOSI*%
X74930000Y-57150000D03*
%TO.P,U1,41,PB25*%
%TO.N,PMOD_SPI_MISO*%
X72390000Y-57150000D03*
%TO.P,U1,42,PB24*%
%TO.N,PMOD_SPI_SCK*%
X69850000Y-57150000D03*
%TO.P,U1,43,PB22*%
%TO.N,unconnected-(U1-Pad43)*%
X67310000Y-57150000D03*
%TO.P,U1,44,PB21*%
%TO.N,unconnected-(U1-Pad44)*%
X64770000Y-57150000D03*
%TO.P,U1,45,RX0/PB20*%
%TO.N,unconnected-(U1-Pad45)*%
X62230000Y-57150000D03*
%TO.P,U1,46,TX0/PB19*%
%TO.N,unconnected-(U1-Pad46)*%
X59690000Y-57150000D03*
%TO.P,U1,47,WAKEUP*%
%TO.N,unconnected-(U1-Pad47)*%
X57150000Y-57150000D03*
%TO.P,U1,48,RESET*%
%TO.N,~{RST}*%
X54610000Y-57150000D03*
%TD*%
D17*
%TO.N,PMOD_UART_GPIO4*%
X91440000Y-25400000D03*
X78740000Y-25400000D03*
%TO.N,PMOD_UART_GPIO1_INT*%
X87630000Y-43180000D03*
X82550000Y-43180000D03*
%TO.N,PMOD_UART_RTS*%
X91440000Y-40640000D03*
X58420000Y-40640000D03*
%TO.N,PMOD_UART_RXD*%
X105410000Y-45720000D03*
X88900000Y-45720000D03*
%TO.N,PMOD_UART_TXD*%
X107950000Y-44450000D03*
X86360000Y-44450000D03*
%TO.N,PMOD_UART_CTS*%
X64770000Y-59690000D03*
X83820000Y-59690000D03*
%TO.N,PMOD_SPI_MOSI*%
X63500000Y-53340000D03*
X74930000Y-53340000D03*
%TO.N,PMOD_SPI_MISO*%
X66040000Y-54610000D03*
X72390000Y-54610000D03*
%TO.N,PMOD_SPI_GPIO4_CS3*%
X92710000Y-48260000D03*
X67310000Y-48260000D03*
%TO.N,PMOD_SPI_GPIO3_CS2*%
X64770000Y-46990000D03*
X95250000Y-46990000D03*
%TO.N,PMOD_SPI_GPIO2_RESET*%
X85090000Y-52070000D03*
X62230000Y-52070000D03*
%TO.N,PMOD_SPI_GPIO1_INT*%
X59690000Y-50800000D03*
X87630000Y-50800000D03*
%TO.N,PMOD_SPI_CS*%
X97790000Y-49530000D03*
X60960000Y-49530000D03*
%TO.N,PMOD_I2C_RESET*%
X109220000Y-43180000D03*
X93980000Y-43180000D03*
%TO.N,PMOD_I2C_INT*%
X91440000Y-41910000D03*
X106680000Y-41910000D03*
%TO.N,PMOD_I2C_GPIO4*%
X68580000Y-44450000D03*
X80010000Y-44450000D03*
X80010000Y-20320000D03*
X114300000Y-20320000D03*
%TO.N,PMOD_I2C_GPIO3*%
X72390000Y-21590000D03*
X111760000Y-21590000D03*
%TO.N,PMOD_I2C_GPIO2*%
X77470000Y-22860000D03*
X77470000Y-45720000D03*
X73660000Y-45720000D03*
X109220000Y-22860000D03*
%TO.N,PMOD_I2C_GPIO1*%
X76200000Y-24130000D03*
X106680000Y-24130000D03*
%TO.N,PA4*%
X67310000Y-82550000D03*
X99060000Y-82550000D03*
X99060000Y-33020000D03*
%TO.N,PA1*%
X101600000Y-40640000D03*
X101600000Y-83820000D03*
X59690000Y-83820000D03*
%TO.N,~{RST}*%
X54610000Y-60960000D03*
X130810000Y-60960000D03*
%TD*%
D18*
%TO.N,PMOD_UART_GPIO4*%
X78740000Y-25400000D02*
X78740000Y-78740000D01*
X78740000Y-78740000D02*
X80010000Y-80010000D01*
X91440000Y-27940000D02*
X91440000Y-25400000D01*
%TO.N,PMOD_UART_GPIO3*%
X81280000Y-27940000D02*
X82550000Y-26670000D01*
X81280000Y-78740000D02*
X81280000Y-27940000D01*
X87630000Y-26670000D02*
X88900000Y-27940000D01*
X82550000Y-80010000D02*
X81280000Y-78740000D01*
X82550000Y-26670000D02*
X87630000Y-26670000D01*
%TO.N,PMOD_UART_GPIO2_RESET*%
X85090000Y-45720000D02*
X85090000Y-29210000D01*
X86360000Y-78740000D02*
X86360000Y-46990000D01*
X85090000Y-29210000D02*
X86360000Y-27940000D01*
X85090000Y-80010000D02*
X86360000Y-78740000D01*
X86360000Y-46990000D02*
X85090000Y-45720000D01*
%TO.N,PMOD_UART_GPIO1_INT*%
X87630000Y-80010000D02*
X88900000Y-78740000D01*
X88900000Y-78740000D02*
X88900000Y-46745305D01*
X88900000Y-46745305D02*
X87630000Y-45475305D01*
X87630000Y-45475305D02*
X87630000Y-43180000D01*
X82550000Y-29210000D02*
X83820000Y-27940000D01*
X82550000Y-43180000D02*
X82550000Y-29210000D01*
%TO.N,PMOD_UART_RTS*%
X58420000Y-76200000D02*
X58420000Y-40640000D01*
X62230000Y-80010000D02*
X60960000Y-78740000D01*
X91440000Y-40640000D02*
X91440000Y-30480000D01*
X60960000Y-78740000D02*
X58420000Y-76200000D01*
%TO.N,PMOD_UART_RXD*%
X105410000Y-57150000D02*
X105410000Y-45720000D01*
X88900000Y-45720000D02*
X88900000Y-30480000D01*
%TO.N,PMOD_UART_TXD*%
X86360000Y-44450000D02*
X86360000Y-30480000D01*
X107950000Y-57150000D02*
X107950000Y-44450000D01*
%TO.N,PMOD_UART_CTS*%
X64770000Y-59690000D02*
X64770000Y-80010000D01*
X83820000Y-30480000D02*
X83820000Y-59690000D01*
%TO.N,PMOD_SPI_SCK*%
X69850000Y-31750000D02*
X68580000Y-30480000D01*
X69850000Y-57150000D02*
X69850000Y-31750000D01*
%TO.N,PMOD_SPI_MOSI*%
X74930000Y-57150000D02*
X74930000Y-53340000D01*
X63500000Y-53340000D02*
X63500000Y-30480000D01*
%TO.N,PMOD_SPI_MISO*%
X66040000Y-54610000D02*
X66040000Y-30480000D01*
X72390000Y-57150000D02*
X72390000Y-54610000D01*
%TO.N,PMOD_SPI_GPIO4_CS3*%
X67310000Y-48260000D02*
X67310000Y-29210000D01*
X67310000Y-29210000D02*
X68580000Y-27940000D01*
X92710000Y-57150000D02*
X92710000Y-48260000D01*
%TO.N,PMOD_SPI_GPIO3_CS2*%
X64770000Y-29210000D02*
X66040000Y-27940000D01*
X64770000Y-46990000D02*
X64770000Y-29210000D01*
X95250000Y-57150000D02*
X95250000Y-46990000D01*
%TO.N,PMOD_SPI_GPIO2_RESET*%
X85090000Y-57150000D02*
X85090000Y-52070000D01*
X62230000Y-52070000D02*
X62230000Y-29210000D01*
X62230000Y-29210000D02*
X63500000Y-27940000D01*
%TO.N,PMOD_SPI_GPIO1_INT*%
X59690000Y-29210000D02*
X60960000Y-27940000D01*
X59690000Y-50800000D02*
X59690000Y-29210000D01*
X87630000Y-57150000D02*
X87630000Y-50800000D01*
%TO.N,PMOD_SPI_CS*%
X60960000Y-30480000D02*
X60960000Y-49530000D01*
X97790000Y-49530000D02*
X97790000Y-57150000D01*
%TO.N,PMOD_I2C_SDA*%
X130795000Y-35555000D02*
X126990000Y-31750000D01*
X126990000Y-31750000D02*
X115570000Y-31750000D01*
X115570000Y-31750000D02*
X114300000Y-30480000D01*
%TO.N,PMOD_I2C_SCL*%
X111760000Y-30480000D02*
X114300000Y-33020000D01*
X129620000Y-35258299D02*
X129620000Y-36920000D01*
X114300000Y-33020000D02*
X127381701Y-33020000D01*
X129620000Y-36920000D02*
X130795000Y-38095000D01*
X127381701Y-33020000D02*
X129620000Y-35258299D01*
%TO.N,PMOD_I2C_RESET*%
X93980000Y-78740000D02*
X93980000Y-43180000D01*
X92710000Y-80010000D02*
X93980000Y-78740000D01*
X109220000Y-43180000D02*
X109220000Y-30480000D01*
%TO.N,PMOD_I2C_INT*%
X91440000Y-78740000D02*
X91440000Y-41910000D01*
X106680000Y-41910000D02*
X106680000Y-30480000D01*
X90170000Y-80010000D02*
X91440000Y-78740000D01*
%TO.N,PMOD_I2C_GPIO4*%
X68580000Y-45720000D02*
X68580000Y-44450000D01*
X80010000Y-44450000D02*
X80010000Y-20320000D01*
X69850000Y-80010000D02*
X68580000Y-78740000D01*
X68580000Y-78740000D02*
X68580000Y-45720000D01*
X114300000Y-20320000D02*
X114300000Y-27940000D01*
%TO.N,PMOD_I2C_GPIO3*%
X111760000Y-27940000D02*
X111760000Y-21590000D01*
X72390000Y-52070000D02*
X71120000Y-53340000D01*
X72390000Y-21590000D02*
X72390000Y-52070000D01*
X71120000Y-53340000D02*
X71120000Y-78740000D01*
X71120000Y-78740000D02*
X72390000Y-80010000D01*
%TO.N,PMOD_I2C_GPIO2*%
X77470000Y-45720000D02*
X77470000Y-22860000D01*
X74930000Y-80010000D02*
X73660000Y-78740000D01*
X109220000Y-22860000D02*
X109220000Y-27940000D01*
X73660000Y-78740000D02*
X73660000Y-45720000D01*
%TO.N,PMOD_I2C_GPIO1*%
X76200000Y-78740000D02*
X76200000Y-24130000D01*
X77470000Y-80010000D02*
X76200000Y-78740000D01*
X106680000Y-24130000D02*
X106680000Y-27940000D01*
%TO.N,PA4*%
X99060000Y-82550000D02*
X99060000Y-33020000D01*
X67310000Y-80010000D02*
X67310000Y-82550000D01*
%TO.N,PA1*%
X59690000Y-80010000D02*
X59690000Y-83820000D01*
X101600000Y-83820000D02*
X101600000Y-40640000D01*
%TO.N,TMS*%
X124540000Y-48340000D02*
X128270000Y-52070000D01*
X124540000Y-36730000D02*
X124540000Y-48340000D01*
X129040000Y-52840000D02*
X129040000Y-73660000D01*
X128270000Y-52070000D02*
X129040000Y-52840000D01*
X125715000Y-35555000D02*
X124540000Y-36730000D01*
%TO.N,TCK*%
X125715000Y-44435000D02*
X128270000Y-46990000D01*
X129865000Y-74105000D02*
X129865000Y-48585000D01*
X129040000Y-74930000D02*
X129865000Y-74105000D01*
X129865000Y-48585000D02*
X128270000Y-46990000D01*
X125715000Y-38095000D02*
X125715000Y-44435000D01*
%TO.N,~{RST}*%
X130810000Y-76970000D02*
X129040000Y-78740000D01*
X130810000Y-60960000D02*
X130810000Y-76970000D01*
X54610000Y-57150000D02*
X54610000Y-60960000D01*
%TD*%
%TA.AperFunction,Conductor*%
%TO.N,VCC*%
G36*
X134053621Y-18308502D02*
G01*
X134100114Y-18362158D01*
X134111500Y-18414500D01*
X134111500Y-90805500D01*
X134091498Y-90873621D01*
X134037842Y-90920114D01*
X133985500Y-90931500D01*
X46354500Y-90931500D01*
X46286379Y-90911498D01*
X46239886Y-90857842D01*
X46228500Y-90805500D01*
X46228500Y-86360000D01*
X47086411Y-86360000D01*
X47106754Y-86748176D01*
X47167562Y-87132099D01*
X47268167Y-87507562D01*
X47407468Y-87870453D01*
X47583938Y-88216794D01*
X47795643Y-88542793D01*
X48040266Y-88844876D01*
X48315124Y-89119734D01*
X48617207Y-89364357D01*
X48943205Y-89576062D01*
X48946139Y-89577557D01*
X48946146Y-89577561D01*
X49286607Y-89751034D01*
X49289547Y-89752532D01*
X49652438Y-89891833D01*
X50027901Y-89992438D01*
X50231793Y-90024732D01*
X50408576Y-90052732D01*
X50408584Y-90052733D01*
X50411824Y-90053246D01*
X50800000Y-90073589D01*
X51188176Y-90053246D01*
X51191416Y-90052733D01*
X51191424Y-90052732D01*
X51368207Y-90024732D01*
X51572099Y-89992438D01*
X51947562Y-89891833D01*
X52310453Y-89752532D01*
X52313393Y-89751034D01*
X52653854Y-89577561D01*
X52653861Y-89577557D01*
X52656795Y-89576062D01*
X52982793Y-89364357D01*
X53284876Y-89119734D01*
X53559734Y-88844876D01*
X53804357Y-88542793D01*
X54016062Y-88216794D01*
X54192532Y-87870453D01*
X54331833Y-87507562D01*
X54432438Y-87132099D01*
X54493246Y-86748176D01*
X54513589Y-86360000D01*
X125826411Y-86360000D01*
X125846754Y-86748176D01*
X125907562Y-87132099D01*
X126008167Y-87507562D01*
X126147468Y-87870453D01*
X126323938Y-88216794D01*
X126535643Y-88542793D01*
X126780266Y-88844876D01*
X127055124Y-89119734D01*
X127357207Y-89364357D01*
X127683205Y-89576062D01*
X127686139Y-89577557D01*
X127686146Y-89577561D01*
X128026607Y-89751034D01*
X128029547Y-89752532D01*
X128392438Y-89891833D01*
X128767901Y-89992438D01*
X128971793Y-90024732D01*
X129148576Y-90052732D01*
X129148584Y-90052733D01*
X129151824Y-90053246D01*
X129540000Y-90073589D01*
X129928176Y-90053246D01*
X129931416Y-90052733D01*
X129931424Y-90052732D01*
X130108207Y-90024732D01*
X130312099Y-89992438D01*
X130687562Y-89891833D01*
X131050453Y-89752532D01*
X131053393Y-89751034D01*
X131393854Y-89577561D01*
X131393861Y-89577557D01*
X131396795Y-89576062D01*
X131722793Y-89364357D01*
X132024876Y-89119734D01*
X132299734Y-88844876D01*
X132544357Y-88542793D01*
X132756062Y-88216794D01*
X132932532Y-87870453D01*
X133071833Y-87507562D01*
X133172438Y-87132099D01*
X133233246Y-86748176D01*
X133253589Y-86360000D01*
X133233246Y-85971824D01*
X133172438Y-85587901D01*
X133071833Y-85212438D01*
X132932532Y-84849547D01*
X132756062Y-84503206D01*
X132750055Y-84493955D01*
X132546152Y-84179971D01*
X132546152Y-84179970D01*
X132544357Y-84177207D01*
X132299734Y-83875124D01*
X132024876Y-83600266D01*
X131722793Y-83355643D01*
X131694450Y-83337237D01*
X131399564Y-83145736D01*
X131399561Y-83145734D01*
X131396795Y-83143938D01*
X131393861Y-83142443D01*
X131393854Y-83142439D01*
X131053393Y-82968966D01*
X131050453Y-82967468D01*
X130687562Y-82828167D01*
X130312099Y-82727562D01*
X130108207Y-82695268D01*
X129931424Y-82667268D01*
X129931416Y-82667267D01*
X129928176Y-82666754D01*
X129540000Y-82646411D01*
X129151824Y-82666754D01*
X129148584Y-82667267D01*
X129148576Y-82667268D01*
X128971793Y-82695268D01*
X128767901Y-82727562D01*
X128392438Y-82828167D01*
X128029547Y-82967468D01*
X128026607Y-82968966D01*
X127686147Y-83142439D01*
X127686140Y-83142443D01*
X127683206Y-83143938D01*
X127680440Y-83145734D01*
X127680437Y-83145736D01*
X127546448Y-83232749D01*
X127357207Y-83355643D01*
X127055124Y-83600266D01*
X126780266Y-83875124D01*
X126535643Y-84177207D01*
X126533848Y-84179970D01*
X126533848Y-84179971D01*
X126329946Y-84493955D01*
X126323938Y-84503206D01*
X126147468Y-84849547D01*
X126008167Y-85212438D01*
X125907562Y-85587901D01*
X125846754Y-85971824D01*
X125826411Y-86360000D01*
X54513589Y-86360000D01*
X54493246Y-85971824D01*
X54432438Y-85587901D01*
X54331833Y-85212438D01*
X54192532Y-84849547D01*
X54016062Y-84503206D01*
X54010055Y-84493955D01*
X53806152Y-84179971D01*
X53806152Y-84179970D01*
X53804357Y-84177207D01*
X53559734Y-83875124D01*
X53284876Y-83600266D01*
X52982793Y-83355643D01*
X52954450Y-83337237D01*
X52659564Y-83145736D01*
X52659561Y-83145734D01*
X52656795Y-83143938D01*
X52653861Y-83142443D01*
X52653854Y-83142439D01*
X52313393Y-82968966D01*
X52310453Y-82967468D01*
X51947562Y-82828167D01*
X51572099Y-82727562D01*
X51368207Y-82695268D01*
X51191424Y-82667268D01*
X51191416Y-82667267D01*
X51188176Y-82666754D01*
X50800000Y-82646411D01*
X50411824Y-82666754D01*
X50408584Y-82667267D01*
X50408576Y-82667268D01*
X50231793Y-82695268D01*
X50027901Y-82727562D01*
X49652438Y-82828167D01*
X49289547Y-82967468D01*
X49286607Y-82968966D01*
X48946147Y-83142439D01*
X48946140Y-83142443D01*
X48943206Y-83143938D01*
X48940440Y-83145734D01*
X48940437Y-83145736D01*
X48806448Y-83232749D01*
X48617207Y-83355643D01*
X48315124Y-83600266D01*
X48040266Y-83875124D01*
X47795643Y-84177207D01*
X47793848Y-84179970D01*
X47793848Y-84179971D01*
X47589946Y-84493955D01*
X47583938Y-84503206D01*
X47407468Y-84849547D01*
X47268167Y-85212438D01*
X47167562Y-85587901D01*
X47106754Y-85971824D01*
X47086411Y-86360000D01*
X46228500Y-86360000D01*
X46228500Y-81068777D01*
X53915777Y-81068777D01*
X53925074Y-81080793D01*
X53968069Y-81110898D01*
X53977555Y-81116376D01*
X54168993Y-81205645D01*
X54179285Y-81209391D01*
X54383309Y-81264059D01*
X54394104Y-81265962D01*
X54604525Y-81284372D01*
X54615475Y-81284372D01*
X54825896Y-81265962D01*
X54836691Y-81264059D01*
X55040715Y-81209391D01*
X55051007Y-81205645D01*
X55242445Y-81116376D01*
X55251931Y-81110898D01*
X55295764Y-81080207D01*
X55304139Y-81069729D01*
X55297071Y-81056281D01*
X54622812Y-80382022D01*
X54608868Y-80374408D01*
X54607035Y-80374539D01*
X54600420Y-80378790D01*
X53922207Y-81057003D01*
X53915777Y-81068777D01*
X46228500Y-81068777D01*
X46228500Y-80015475D01*
X53335628Y-80015475D01*
X53354038Y-80225896D01*
X53355941Y-80236691D01*
X53410609Y-80440715D01*
X53414355Y-80451007D01*
X53503623Y-80642441D01*
X53509103Y-80651932D01*
X53539794Y-80695765D01*
X53550271Y-80704140D01*
X53563718Y-80697072D01*
X54237978Y-80022812D01*
X54245592Y-80008868D01*
X54245461Y-80007035D01*
X54241210Y-80000420D01*
X53562997Y-79322207D01*
X53551223Y-79315777D01*
X53539207Y-79325074D01*
X53509103Y-79368068D01*
X53503623Y-79377559D01*
X53414355Y-79568993D01*
X53410609Y-79579285D01*
X53355941Y-79783309D01*
X53354038Y-79794104D01*
X53335628Y-80004525D01*
X53335628Y-80015475D01*
X46228500Y-80015475D01*
X46228500Y-78950271D01*
X53915860Y-78950271D01*
X53922928Y-78963718D01*
X54597188Y-79637978D01*
X54611132Y-79645592D01*
X54612965Y-79645461D01*
X54619580Y-79641210D01*
X55297793Y-78962997D01*
X55304223Y-78951223D01*
X55294926Y-78939207D01*
X55251931Y-78909102D01*
X55242445Y-78903624D01*
X55051007Y-78814355D01*
X55040715Y-78810609D01*
X54836691Y-78755941D01*
X54825896Y-78754038D01*
X54615475Y-78735628D01*
X54604525Y-78735628D01*
X54394104Y-78754038D01*
X54383309Y-78755941D01*
X54179285Y-78810609D01*
X54168993Y-78814355D01*
X53977559Y-78903623D01*
X53968068Y-78909103D01*
X53924235Y-78939794D01*
X53915860Y-78950271D01*
X46228500Y-78950271D01*
X46228500Y-57150000D01*
X53334647Y-57150000D01*
X53354022Y-57371463D01*
X53411560Y-57586196D01*
X53413882Y-57591177D01*
X53413883Y-57591178D01*
X53503186Y-57782689D01*
X53503189Y-57782694D01*
X53505512Y-57787676D01*
X53633023Y-57969781D01*
X53790219Y-58126977D01*
X53794727Y-58130134D01*
X53794730Y-58130136D01*
X53922771Y-58219791D01*
X53967099Y-58275248D01*
X53976500Y-58323004D01*
X53976500Y-60257476D01*
X53956498Y-60325597D01*
X53944142Y-60341779D01*
X53870960Y-60423056D01*
X53775473Y-60588444D01*
X53716458Y-60770072D01*
X53696496Y-60960000D01*
X53716458Y-61149928D01*
X53775473Y-61331556D01*
X53870960Y-61496944D01*
X53998747Y-61638866D01*
X54153248Y-61751118D01*
X54159276Y-61753802D01*
X54159278Y-61753803D01*
X54321681Y-61826109D01*
X54327712Y-61828794D01*
X54421113Y-61848647D01*
X54508056Y-61867128D01*
X54508061Y-61867128D01*
X54514513Y-61868500D01*
X54705487Y-61868500D01*
X54711939Y-61867128D01*
X54711944Y-61867128D01*
X54798887Y-61848647D01*
X54892288Y-61828794D01*
X54898319Y-61826109D01*
X55060722Y-61753803D01*
X55060724Y-61753802D01*
X55066752Y-61751118D01*
X55221253Y-61638866D01*
X55349040Y-61496944D01*
X55444527Y-61331556D01*
X55503542Y-61149928D01*
X55523504Y-60960000D01*
X55503542Y-60770072D01*
X55444527Y-60588444D01*
X55349040Y-60423056D01*
X55275863Y-60341785D01*
X55245147Y-60277779D01*
X55243500Y-60257476D01*
X55243500Y-58323004D01*
X55263502Y-58254883D01*
X55297229Y-58219791D01*
X55425270Y-58130136D01*
X55425273Y-58130134D01*
X55429781Y-58126977D01*
X55586977Y-57969781D01*
X55714488Y-57787676D01*
X55716811Y-57782694D01*
X55716814Y-57782689D01*
X55765805Y-57677627D01*
X55812723Y-57624342D01*
X55881000Y-57604881D01*
X55948960Y-57625423D01*
X55994195Y-57677627D01*
X56043186Y-57782689D01*
X56043189Y-57782694D01*
X56045512Y-57787676D01*
X56173023Y-57969781D01*
X56330219Y-58126977D01*
X56334727Y-58130134D01*
X56334730Y-58130136D01*
X56410495Y-58183187D01*
X56512323Y-58254488D01*
X56517305Y-58256811D01*
X56517310Y-58256814D01*
X56692751Y-58338623D01*
X56713804Y-58348440D01*
X56719112Y-58349862D01*
X56719114Y-58349863D01*
X56745526Y-58356940D01*
X56928537Y-58405978D01*
X57150000Y-58425353D01*
X57371463Y-58405978D01*
X57554474Y-58356940D01*
X57580886Y-58349863D01*
X57580888Y-58349862D01*
X57586196Y-58348440D01*
X57591178Y-58346117D01*
X57591183Y-58346115D01*
X57607249Y-58338623D01*
X57677440Y-58327961D01*
X57742253Y-58356940D01*
X57781110Y-58416359D01*
X57786500Y-58452817D01*
X57786500Y-76121233D01*
X57785973Y-76132416D01*
X57784298Y-76139909D01*
X57784547Y-76147835D01*
X57784547Y-76147836D01*
X57786438Y-76207986D01*
X57786500Y-76211945D01*
X57786500Y-76239856D01*
X57786997Y-76243790D01*
X57786997Y-76243791D01*
X57787005Y-76243856D01*
X57787938Y-76255693D01*
X57789327Y-76299889D01*
X57794978Y-76319339D01*
X57798987Y-76338700D01*
X57801526Y-76358797D01*
X57804445Y-76366168D01*
X57804445Y-76366170D01*
X57817804Y-76399912D01*
X57821649Y-76411142D01*
X57833982Y-76453593D01*
X57838015Y-76460412D01*
X57838017Y-76460417D01*
X57844293Y-76471028D01*
X57852988Y-76488776D01*
X57860448Y-76507617D01*
X57865110Y-76514033D01*
X57865110Y-76514034D01*
X57886436Y-76543387D01*
X57892952Y-76553307D01*
X57915458Y-76591362D01*
X57929779Y-76605683D01*
X57942619Y-76620716D01*
X57954528Y-76637107D01*
X57960634Y-76642158D01*
X57988605Y-76665298D01*
X57997384Y-76673288D01*
X59849309Y-78525213D01*
X59883335Y-78587525D01*
X59878270Y-78658340D01*
X59835723Y-78715176D01*
X59769203Y-78739987D01*
X59749233Y-78739829D01*
X59695475Y-78735126D01*
X59690000Y-78734647D01*
X59468537Y-78754022D01*
X59372124Y-78779856D01*
X59259114Y-78810137D01*
X59259112Y-78810138D01*
X59253804Y-78811560D01*
X59248823Y-78813882D01*
X59248822Y-78813883D01*
X59057311Y-78903186D01*
X59057306Y-78903189D01*
X59052324Y-78905512D01*
X59047817Y-78908668D01*
X59047815Y-78908669D01*
X58874730Y-79029864D01*
X58874727Y-79029866D01*
X58870219Y-79033023D01*
X58713023Y-79190219D01*
X58709866Y-79194727D01*
X58709864Y-79194730D01*
X58588669Y-79367815D01*
X58585512Y-79372324D01*
X58583189Y-79377306D01*
X58583186Y-79377311D01*
X58534195Y-79482373D01*
X58487277Y-79535658D01*
X58419000Y-79555119D01*
X58351040Y-79534577D01*
X58305805Y-79482373D01*
X58256814Y-79377311D01*
X58256811Y-79377306D01*
X58254488Y-79372324D01*
X58251331Y-79367815D01*
X58130136Y-79194730D01*
X58130134Y-79194727D01*
X58126977Y-79190219D01*
X57969781Y-79033023D01*
X57965273Y-79029866D01*
X57965270Y-79029864D01*
X57871939Y-78964513D01*
X57787677Y-78905512D01*
X57782695Y-78903189D01*
X57782690Y-78903186D01*
X57591178Y-78813883D01*
X57591177Y-78813882D01*
X57586196Y-78811560D01*
X57580888Y-78810138D01*
X57580886Y-78810137D01*
X57467876Y-78779856D01*
X57371463Y-78754022D01*
X57150000Y-78734647D01*
X56928537Y-78754022D01*
X56832124Y-78779856D01*
X56719114Y-78810137D01*
X56719112Y-78810138D01*
X56713804Y-78811560D01*
X56708823Y-78813882D01*
X56708822Y-78813883D01*
X56517311Y-78903186D01*
X56517306Y-78903189D01*
X56512324Y-78905512D01*
X56507817Y-78908668D01*
X56507815Y-78908669D01*
X56334730Y-79029864D01*
X56334727Y-79029866D01*
X56330219Y-79033023D01*
X56173023Y-79190219D01*
X56169866Y-79194727D01*
X56169864Y-79194730D01*
X56048669Y-79367815D01*
X56045512Y-79372324D01*
X56043189Y-79377306D01*
X56043186Y-79377311D01*
X55993919Y-79482965D01*
X55947001Y-79536250D01*
X55878724Y-79555711D01*
X55810764Y-79535169D01*
X55765529Y-79482965D01*
X55716377Y-79377559D01*
X55710897Y-79368068D01*
X55680206Y-79324235D01*
X55669729Y-79315860D01*
X55656282Y-79322928D01*
X54982022Y-79997188D01*
X54974408Y-80011132D01*
X54974539Y-80012965D01*
X54978790Y-80019580D01*
X55657003Y-80697793D01*
X55668777Y-80704223D01*
X55680793Y-80694926D01*
X55710897Y-80651932D01*
X55716377Y-80642441D01*
X55765529Y-80537035D01*
X55812447Y-80483750D01*
X55880724Y-80464289D01*
X55948684Y-80484831D01*
X55993919Y-80537035D01*
X56043186Y-80642689D01*
X56043189Y-80642694D01*
X56045512Y-80647676D01*
X56048668Y-80652183D01*
X56048669Y-80652185D01*
X56085107Y-80704223D01*
X56173023Y-80829781D01*
X56330219Y-80986977D01*
X56334727Y-80990134D01*
X56334730Y-80990136D01*
X56410495Y-81043187D01*
X56512323Y-81114488D01*
X56517305Y-81116811D01*
X56517310Y-81116814D01*
X56692751Y-81198623D01*
X56713804Y-81208440D01*
X56719112Y-81209862D01*
X56719114Y-81209863D01*
X56745526Y-81216940D01*
X56928537Y-81265978D01*
X57150000Y-81285353D01*
X57371463Y-81265978D01*
X57554474Y-81216940D01*
X57580886Y-81209863D01*
X57580888Y-81209862D01*
X57586196Y-81208440D01*
X57607249Y-81198623D01*
X57782690Y-81116814D01*
X57782695Y-81116811D01*
X57787677Y-81114488D01*
X57889505Y-81043187D01*
X57965270Y-80990136D01*
X57965273Y-80990134D01*
X57969781Y-80986977D01*
X58126977Y-80829781D01*
X58214894Y-80704223D01*
X58251331Y-80652185D01*
X58251332Y-80652183D01*
X58254488Y-80647676D01*
X58256811Y-80642694D01*
X58256814Y-80642689D01*
X58305805Y-80537627D01*
X58352723Y-80484342D01*
X58421000Y-80464881D01*
X58488960Y-80485423D01*
X58534195Y-80537627D01*
X58583186Y-80642689D01*
X58583189Y-80642694D01*
X58585512Y-80647676D01*
X58588668Y-80652183D01*
X58588669Y-80652185D01*
X58625107Y-80704223D01*
X58713023Y-80829781D01*
X58870219Y-80986977D01*
X58874727Y-80990134D01*
X58874730Y-80990136D01*
X59002771Y-81079791D01*
X59047099Y-81135248D01*
X59056500Y-81183004D01*
X59056500Y-83117476D01*
X59036498Y-83185597D01*
X59024142Y-83201779D01*
X58950960Y-83283056D01*
X58855473Y-83448444D01*
X58796458Y-83630072D01*
X58776496Y-83820000D01*
X58796458Y-84009928D01*
X58855473Y-84191556D01*
X58950960Y-84356944D01*
X59078747Y-84498866D01*
X59233248Y-84611118D01*
X59239276Y-84613802D01*
X59239278Y-84613803D01*
X59401681Y-84686109D01*
X59407712Y-84688794D01*
X59501113Y-84708647D01*
X59588056Y-84727128D01*
X59588061Y-84727128D01*
X59594513Y-84728500D01*
X59785487Y-84728500D01*
X59791939Y-84727128D01*
X59791944Y-84727128D01*
X59878887Y-84708647D01*
X59972288Y-84688794D01*
X59978319Y-84686109D01*
X60140722Y-84613803D01*
X60140724Y-84613802D01*
X60146752Y-84611118D01*
X60301253Y-84498866D01*
X60429040Y-84356944D01*
X60524527Y-84191556D01*
X60583542Y-84009928D01*
X60603504Y-83820000D01*
X60583542Y-83630072D01*
X60524527Y-83448444D01*
X60429040Y-83283056D01*
X60355863Y-83201785D01*
X60325147Y-83137779D01*
X60323500Y-83117476D01*
X60323500Y-81183004D01*
X60343502Y-81114883D01*
X60377229Y-81079791D01*
X60505270Y-80990136D01*
X60505273Y-80990134D01*
X60509781Y-80986977D01*
X60666977Y-80829781D01*
X60754894Y-80704223D01*
X60791331Y-80652185D01*
X60791332Y-80652183D01*
X60794488Y-80647676D01*
X60796811Y-80642694D01*
X60796814Y-80642689D01*
X60845805Y-80537627D01*
X60892723Y-80484342D01*
X60961000Y-80464881D01*
X61028960Y-80485423D01*
X61074195Y-80537627D01*
X61123186Y-80642689D01*
X61123189Y-80642694D01*
X61125512Y-80647676D01*
X61128668Y-80652183D01*
X61128669Y-80652185D01*
X61165107Y-80704223D01*
X61253023Y-80829781D01*
X61410219Y-80986977D01*
X61414727Y-80990134D01*
X61414730Y-80990136D01*
X61490495Y-81043187D01*
X61592323Y-81114488D01*
X61597305Y-81116811D01*
X61597310Y-81116814D01*
X61772751Y-81198623D01*
X61793804Y-81208440D01*
X61799112Y-81209862D01*
X61799114Y-81209863D01*
X61825526Y-81216940D01*
X62008537Y-81265978D01*
X62230000Y-81285353D01*
X62451463Y-81265978D01*
X62634474Y-81216940D01*
X62660886Y-81209863D01*
X62660888Y-81209862D01*
X62666196Y-81208440D01*
X62687249Y-81198623D01*
X62862690Y-81116814D01*
X62862695Y-81116811D01*
X62867677Y-81114488D01*
X62969505Y-81043187D01*
X63045270Y-80990136D01*
X63045273Y-80990134D01*
X63049781Y-80986977D01*
X63206977Y-80829781D01*
X63294894Y-80704223D01*
X63331331Y-80652185D01*
X63331332Y-80652183D01*
X63334488Y-80647676D01*
X63336811Y-80642694D01*
X63336814Y-80642689D01*
X63385805Y-80537627D01*
X63432723Y-80484342D01*
X63501000Y-80464881D01*
X63568960Y-80485423D01*
X63614195Y-80537627D01*
X63663186Y-80642689D01*
X63663189Y-80642694D01*
X63665512Y-80647676D01*
X63668668Y-80652183D01*
X63668669Y-80652185D01*
X63705107Y-80704223D01*
X63793023Y-80829781D01*
X63950219Y-80986977D01*
X63954727Y-80990134D01*
X63954730Y-80990136D01*
X64030495Y-81043187D01*
X64132323Y-81114488D01*
X64137305Y-81116811D01*
X64137310Y-81116814D01*
X64312751Y-81198623D01*
X64333804Y-81208440D01*
X64339112Y-81209862D01*
X64339114Y-81209863D01*
X64365526Y-81216940D01*
X64548537Y-81265978D01*
X64770000Y-81285353D01*
X64991463Y-81265978D01*
X65174474Y-81216940D01*
X65200886Y-81209863D01*
X65200888Y-81209862D01*
X65206196Y-81208440D01*
X65227249Y-81198623D01*
X65402690Y-81116814D01*
X65402695Y-81116811D01*
X65407677Y-81114488D01*
X65509505Y-81043187D01*
X65585270Y-80990136D01*
X65585273Y-80990134D01*
X65589781Y-80986977D01*
X65746977Y-80829781D01*
X65834894Y-80704223D01*
X65871331Y-80652185D01*
X65871332Y-80652183D01*
X65874488Y-80647676D01*
X65876811Y-80642694D01*
X65876814Y-80642689D01*
X65925805Y-80537627D01*
X65972723Y-80484342D01*
X66041000Y-80464881D01*
X66108960Y-80485423D01*
X66154195Y-80537627D01*
X66203186Y-80642689D01*
X66203189Y-80642694D01*
X66205512Y-80647676D01*
X66208668Y-80652183D01*
X66208669Y-80652185D01*
X66245107Y-80704223D01*
X66333023Y-80829781D01*
X66490219Y-80986977D01*
X66494727Y-80990134D01*
X66494730Y-80990136D01*
X66622771Y-81079791D01*
X66667099Y-81135248D01*
X66676500Y-81183004D01*
X66676500Y-81847476D01*
X66656498Y-81915597D01*
X66644142Y-81931779D01*
X66570960Y-82013056D01*
X66475473Y-82178444D01*
X66416458Y-82360072D01*
X66396496Y-82550000D01*
X66416458Y-82739928D01*
X66475473Y-82921556D01*
X66570960Y-83086944D01*
X66575378Y-83091851D01*
X66575379Y-83091852D01*
X66623896Y-83145736D01*
X66698747Y-83228866D01*
X66853248Y-83341118D01*
X66859276Y-83343802D01*
X66859278Y-83343803D01*
X66890532Y-83357718D01*
X67027712Y-83418794D01*
X67121112Y-83438647D01*
X67208056Y-83457128D01*
X67208061Y-83457128D01*
X67214513Y-83458500D01*
X67405487Y-83458500D01*
X67411939Y-83457128D01*
X67411944Y-83457128D01*
X67498888Y-83438647D01*
X67592288Y-83418794D01*
X67729468Y-83357718D01*
X67760722Y-83343803D01*
X67760724Y-83343802D01*
X67766752Y-83341118D01*
X67921253Y-83228866D01*
X67996104Y-83145736D01*
X68044621Y-83091852D01*
X68044622Y-83091851D01*
X68049040Y-83086944D01*
X68144527Y-82921556D01*
X68203542Y-82739928D01*
X68223504Y-82550000D01*
X68203542Y-82360072D01*
X68144527Y-82178444D01*
X68049040Y-82013056D01*
X67975863Y-81931785D01*
X67945147Y-81867779D01*
X67943500Y-81847476D01*
X67943500Y-81183004D01*
X67963502Y-81114883D01*
X67997229Y-81079791D01*
X68125270Y-80990136D01*
X68125273Y-80990134D01*
X68129781Y-80986977D01*
X68286977Y-80829781D01*
X68374894Y-80704223D01*
X68411331Y-80652185D01*
X68411332Y-80652183D01*
X68414488Y-80647676D01*
X68416811Y-80642694D01*
X68416814Y-80642689D01*
X68465805Y-80537627D01*
X68512723Y-80484342D01*
X68581000Y-80464881D01*
X68648960Y-80485423D01*
X68694195Y-80537627D01*
X68743186Y-80642689D01*
X68743189Y-80642694D01*
X68745512Y-80647676D01*
X68748668Y-80652183D01*
X68748669Y-80652185D01*
X68785107Y-80704223D01*
X68873023Y-80829781D01*
X69030219Y-80986977D01*
X69034727Y-80990134D01*
X69034730Y-80990136D01*
X69110495Y-81043187D01*
X69212323Y-81114488D01*
X69217305Y-81116811D01*
X69217310Y-81116814D01*
X69392751Y-81198623D01*
X69413804Y-81208440D01*
X69419112Y-81209862D01*
X69419114Y-81209863D01*
X69445526Y-81216940D01*
X69628537Y-81265978D01*
X69850000Y-81285353D01*
X70071463Y-81265978D01*
X70254474Y-81216940D01*
X70280886Y-81209863D01*
X70280888Y-81209862D01*
X70286196Y-81208440D01*
X70307249Y-81198623D01*
X70482690Y-81116814D01*
X70482695Y-81116811D01*
X70487677Y-81114488D01*
X70589505Y-81043187D01*
X70665270Y-80990136D01*
X70665273Y-80990134D01*
X70669781Y-80986977D01*
X70826977Y-80829781D01*
X70914894Y-80704223D01*
X70951331Y-80652185D01*
X70951332Y-80652183D01*
X70954488Y-80647676D01*
X70956811Y-80642694D01*
X70956814Y-80642689D01*
X71005805Y-80537627D01*
X71052723Y-80484342D01*
X71121000Y-80464881D01*
X71188960Y-80485423D01*
X71234195Y-80537627D01*
X71283186Y-80642689D01*
X71283189Y-80642694D01*
X71285512Y-80647676D01*
X71288668Y-80652183D01*
X71288669Y-80652185D01*
X71325107Y-80704223D01*
X71413023Y-80829781D01*
X71570219Y-80986977D01*
X71574727Y-80990134D01*
X71574730Y-80990136D01*
X71650495Y-81043187D01*
X71752323Y-81114488D01*
X71757305Y-81116811D01*
X71757310Y-81116814D01*
X71932751Y-81198623D01*
X71953804Y-81208440D01*
X71959112Y-81209862D01*
X71959114Y-81209863D01*
X71985526Y-81216940D01*
X72168537Y-81265978D01*
X72390000Y-81285353D01*
X72611463Y-81265978D01*
X72794474Y-81216940D01*
X72820886Y-81209863D01*
X72820888Y-81209862D01*
X72826196Y-81208440D01*
X72847249Y-81198623D01*
X73022690Y-81116814D01*
X73022695Y-81116811D01*
X73027677Y-81114488D01*
X73129505Y-81043187D01*
X73205270Y-80990136D01*
X73205273Y-80990134D01*
X73209781Y-80986977D01*
X73366977Y-80829781D01*
X73454894Y-80704223D01*
X73491331Y-80652185D01*
X73491332Y-80652183D01*
X73494488Y-80647676D01*
X73496811Y-80642694D01*
X73496814Y-80642689D01*
X73545805Y-80537627D01*
X73592723Y-80484342D01*
X73661000Y-80464881D01*
X73728960Y-80485423D01*
X73774195Y-80537627D01*
X73823186Y-80642689D01*
X73823189Y-80642694D01*
X73825512Y-80647676D01*
X73828668Y-80652183D01*
X73828669Y-80652185D01*
X73865107Y-80704223D01*
X73953023Y-80829781D01*
X74110219Y-80986977D01*
X74114727Y-80990134D01*
X74114730Y-80990136D01*
X74190495Y-81043187D01*
X74292323Y-81114488D01*
X74297305Y-81116811D01*
X74297310Y-81116814D01*
X74472751Y-81198623D01*
X74493804Y-81208440D01*
X74499112Y-81209862D01*
X74499114Y-81209863D01*
X74525526Y-81216940D01*
X74708537Y-81265978D01*
X74930000Y-81285353D01*
X75151463Y-81265978D01*
X75334474Y-81216940D01*
X75360886Y-81209863D01*
X75360888Y-81209862D01*
X75366196Y-81208440D01*
X75387249Y-81198623D01*
X75562690Y-81116814D01*
X75562695Y-81116811D01*
X75567677Y-81114488D01*
X75669505Y-81043187D01*
X75745270Y-80990136D01*
X75745273Y-80990134D01*
X75749781Y-80986977D01*
X75906977Y-80829781D01*
X75994894Y-80704223D01*
X76031331Y-80652185D01*
X76031332Y-80652183D01*
X76034488Y-80647676D01*
X76036811Y-80642694D01*
X76036814Y-80642689D01*
X76085805Y-80537627D01*
X76132723Y-80484342D01*
X76201000Y-80464881D01*
X76268960Y-80485423D01*
X76314195Y-80537627D01*
X76363186Y-80642689D01*
X76363189Y-80642694D01*
X76365512Y-80647676D01*
X76368668Y-80652183D01*
X76368669Y-80652185D01*
X76405107Y-80704223D01*
X76493023Y-80829781D01*
X76650219Y-80986977D01*
X76654727Y-80990134D01*
X76654730Y-80990136D01*
X76730495Y-81043187D01*
X76832323Y-81114488D01*
X76837305Y-81116811D01*
X76837310Y-81116814D01*
X77012751Y-81198623D01*
X77033804Y-81208440D01*
X77039112Y-81209862D01*
X77039114Y-81209863D01*
X77065526Y-81216940D01*
X77248537Y-81265978D01*
X77470000Y-81285353D01*
X77691463Y-81265978D01*
X77874474Y-81216940D01*
X77900886Y-81209863D01*
X77900888Y-81209862D01*
X77906196Y-81208440D01*
X77927249Y-81198623D01*
X78102690Y-81116814D01*
X78102695Y-81116811D01*
X78107677Y-81114488D01*
X78209505Y-81043187D01*
X78285270Y-80990136D01*
X78285273Y-80990134D01*
X78289781Y-80986977D01*
X78446977Y-80829781D01*
X78534894Y-80704223D01*
X78571331Y-80652185D01*
X78571332Y-80652183D01*
X78574488Y-80647676D01*
X78576811Y-80642694D01*
X78576814Y-80642689D01*
X78625805Y-80537627D01*
X78672723Y-80484342D01*
X78741000Y-80464881D01*
X78808960Y-80485423D01*
X78854195Y-80537627D01*
X78903186Y-80642689D01*
X78903189Y-80642694D01*
X78905512Y-80647676D01*
X78908668Y-80652183D01*
X78908669Y-80652185D01*
X78945107Y-80704223D01*
X79033023Y-80829781D01*
X79190219Y-80986977D01*
X79194727Y-80990134D01*
X79194730Y-80990136D01*
X79270495Y-81043187D01*
X79372323Y-81114488D01*
X79377305Y-81116811D01*
X79377310Y-81116814D01*
X79552751Y-81198623D01*
X79573804Y-81208440D01*
X79579112Y-81209862D01*
X79579114Y-81209863D01*
X79605526Y-81216940D01*
X79788537Y-81265978D01*
X80010000Y-81285353D01*
X80231463Y-81265978D01*
X80414474Y-81216940D01*
X80440886Y-81209863D01*
X80440888Y-81209862D01*
X80446196Y-81208440D01*
X80467249Y-81198623D01*
X80642690Y-81116814D01*
X80642695Y-81116811D01*
X80647677Y-81114488D01*
X80749505Y-81043187D01*
X80825270Y-80990136D01*
X80825273Y-80990134D01*
X80829781Y-80986977D01*
X80986977Y-80829781D01*
X81074894Y-80704223D01*
X81111331Y-80652185D01*
X81111332Y-80652183D01*
X81114488Y-80647676D01*
X81116811Y-80642694D01*
X81116814Y-80642689D01*
X81165805Y-80537627D01*
X81212723Y-80484342D01*
X81281000Y-80464881D01*
X81348960Y-80485423D01*
X81394195Y-80537627D01*
X81443186Y-80642689D01*
X81443189Y-80642694D01*
X81445512Y-80647676D01*
X81448668Y-80652183D01*
X81448669Y-80652185D01*
X81485107Y-80704223D01*
X81573023Y-80829781D01*
X81730219Y-80986977D01*
X81734727Y-80990134D01*
X81734730Y-80990136D01*
X81810495Y-81043187D01*
X81912323Y-81114488D01*
X81917305Y-81116811D01*
X81917310Y-81116814D01*
X82092751Y-81198623D01*
X82113804Y-81208440D01*
X82119112Y-81209862D01*
X82119114Y-81209863D01*
X82145526Y-81216940D01*
X82328537Y-81265978D01*
X82550000Y-81285353D01*
X82771463Y-81265978D01*
X82954474Y-81216940D01*
X82980886Y-81209863D01*
X82980888Y-81209862D01*
X82986196Y-81208440D01*
X83007249Y-81198623D01*
X83182690Y-81116814D01*
X83182695Y-81116811D01*
X83187677Y-81114488D01*
X83289505Y-81043187D01*
X83365270Y-80990136D01*
X83365273Y-80990134D01*
X83369781Y-80986977D01*
X83526977Y-80829781D01*
X83614894Y-80704223D01*
X83651331Y-80652185D01*
X83651332Y-80652183D01*
X83654488Y-80647676D01*
X83656811Y-80642694D01*
X83656814Y-80642689D01*
X83705805Y-80537627D01*
X83752723Y-80484342D01*
X83821000Y-80464881D01*
X83888960Y-80485423D01*
X83934195Y-80537627D01*
X83983186Y-80642689D01*
X83983189Y-80642694D01*
X83985512Y-80647676D01*
X83988668Y-80652183D01*
X83988669Y-80652185D01*
X84025107Y-80704223D01*
X84113023Y-80829781D01*
X84270219Y-80986977D01*
X84274727Y-80990134D01*
X84274730Y-80990136D01*
X84350495Y-81043187D01*
X84452323Y-81114488D01*
X84457305Y-81116811D01*
X84457310Y-81116814D01*
X84632751Y-81198623D01*
X84653804Y-81208440D01*
X84659112Y-81209862D01*
X84659114Y-81209863D01*
X84685526Y-81216940D01*
X84868537Y-81265978D01*
X85090000Y-81285353D01*
X85311463Y-81265978D01*
X85494474Y-81216940D01*
X85520886Y-81209863D01*
X85520888Y-81209862D01*
X85526196Y-81208440D01*
X85547249Y-81198623D01*
X85722690Y-81116814D01*
X85722695Y-81116811D01*
X85727677Y-81114488D01*
X85829505Y-81043187D01*
X85905270Y-80990136D01*
X85905273Y-80990134D01*
X85909781Y-80986977D01*
X86066977Y-80829781D01*
X86154894Y-80704223D01*
X86191331Y-80652185D01*
X86191332Y-80652183D01*
X86194488Y-80647676D01*
X86196811Y-80642694D01*
X86196814Y-80642689D01*
X86245805Y-80537627D01*
X86292723Y-80484342D01*
X86361000Y-80464881D01*
X86428960Y-80485423D01*
X86474195Y-80537627D01*
X86523186Y-80642689D01*
X86523189Y-80642694D01*
X86525512Y-80647676D01*
X86528668Y-80652183D01*
X86528669Y-80652185D01*
X86565107Y-80704223D01*
X86653023Y-80829781D01*
X86810219Y-80986977D01*
X86814727Y-80990134D01*
X86814730Y-80990136D01*
X86890495Y-81043187D01*
X86992323Y-81114488D01*
X86997305Y-81116811D01*
X86997310Y-81116814D01*
X87172751Y-81198623D01*
X87193804Y-81208440D01*
X87199112Y-81209862D01*
X87199114Y-81209863D01*
X87225526Y-81216940D01*
X87408537Y-81265978D01*
X87630000Y-81285353D01*
X87851463Y-81265978D01*
X88034474Y-81216940D01*
X88060886Y-81209863D01*
X88060888Y-81209862D01*
X88066196Y-81208440D01*
X88087249Y-81198623D01*
X88262690Y-81116814D01*
X88262695Y-81116811D01*
X88267677Y-81114488D01*
X88369505Y-81043187D01*
X88445270Y-80990136D01*
X88445273Y-80990134D01*
X88449781Y-80986977D01*
X88606977Y-80829781D01*
X88694894Y-80704223D01*
X88731331Y-80652185D01*
X88731332Y-80652183D01*
X88734488Y-80647676D01*
X88736811Y-80642694D01*
X88736814Y-80642689D01*
X88785805Y-80537627D01*
X88832723Y-80484342D01*
X88901000Y-80464881D01*
X88968960Y-80485423D01*
X89014195Y-80537627D01*
X89063186Y-80642689D01*
X89063189Y-80642694D01*
X89065512Y-80647676D01*
X89068668Y-80652183D01*
X89068669Y-80652185D01*
X89105107Y-80704223D01*
X89193023Y-80829781D01*
X89350219Y-80986977D01*
X89354727Y-80990134D01*
X89354730Y-80990136D01*
X89430495Y-81043187D01*
X89532323Y-81114488D01*
X89537305Y-81116811D01*
X89537310Y-81116814D01*
X89712751Y-81198623D01*
X89733804Y-81208440D01*
X89739112Y-81209862D01*
X89739114Y-81209863D01*
X89765526Y-81216940D01*
X89948537Y-81265978D01*
X90170000Y-81285353D01*
X90391463Y-81265978D01*
X90574474Y-81216940D01*
X90600886Y-81209863D01*
X90600888Y-81209862D01*
X90606196Y-81208440D01*
X90627249Y-81198623D01*
X90802690Y-81116814D01*
X90802695Y-81116811D01*
X90807677Y-81114488D01*
X90909505Y-81043187D01*
X90985270Y-80990136D01*
X90985273Y-80990134D01*
X90989781Y-80986977D01*
X91146977Y-80829781D01*
X91234894Y-80704223D01*
X91271331Y-80652185D01*
X91271332Y-80652183D01*
X91274488Y-80647676D01*
X91276811Y-80642694D01*
X91276814Y-80642689D01*
X91325805Y-80537627D01*
X91372723Y-80484342D01*
X91441000Y-80464881D01*
X91508960Y-80485423D01*
X91554195Y-80537627D01*
X91603186Y-80642689D01*
X91603189Y-80642694D01*
X91605512Y-80647676D01*
X91608668Y-80652183D01*
X91608669Y-80652185D01*
X91645107Y-80704223D01*
X91733023Y-80829781D01*
X91890219Y-80986977D01*
X91894727Y-80990134D01*
X91894730Y-80990136D01*
X91970495Y-81043187D01*
X92072323Y-81114488D01*
X92077305Y-81116811D01*
X92077310Y-81116814D01*
X92252751Y-81198623D01*
X92273804Y-81208440D01*
X92279112Y-81209862D01*
X92279114Y-81209863D01*
X92305526Y-81216940D01*
X92488537Y-81265978D01*
X92710000Y-81285353D01*
X92931463Y-81265978D01*
X93114474Y-81216940D01*
X93140886Y-81209863D01*
X93140888Y-81209862D01*
X93146196Y-81208440D01*
X93167249Y-81198623D01*
X93342690Y-81116814D01*
X93342695Y-81116811D01*
X93347677Y-81114488D01*
X93449505Y-81043187D01*
X93525270Y-80990136D01*
X93525273Y-80990134D01*
X93529781Y-80986977D01*
X93686977Y-80829781D01*
X93774894Y-80704223D01*
X93811331Y-80652185D01*
X93811332Y-80652183D01*
X93814488Y-80647676D01*
X93816811Y-80642694D01*
X93816814Y-80642689D01*
X93865805Y-80537627D01*
X93912723Y-80484342D01*
X93981000Y-80464881D01*
X94048960Y-80485423D01*
X94094195Y-80537627D01*
X94143186Y-80642689D01*
X94143189Y-80642694D01*
X94145512Y-80647676D01*
X94148668Y-80652183D01*
X94148669Y-80652185D01*
X94185107Y-80704223D01*
X94273023Y-80829781D01*
X94430219Y-80986977D01*
X94434727Y-80990134D01*
X94434730Y-80990136D01*
X94510495Y-81043187D01*
X94612323Y-81114488D01*
X94617305Y-81116811D01*
X94617310Y-81116814D01*
X94792751Y-81198623D01*
X94813804Y-81208440D01*
X94819112Y-81209862D01*
X94819114Y-81209863D01*
X94845526Y-81216940D01*
X95028537Y-81265978D01*
X95250000Y-81285353D01*
X95471463Y-81265978D01*
X95654474Y-81216940D01*
X95680886Y-81209863D01*
X95680888Y-81209862D01*
X95686196Y-81208440D01*
X95707249Y-81198623D01*
X95882690Y-81116814D01*
X95882695Y-81116811D01*
X95887677Y-81114488D01*
X95989505Y-81043187D01*
X96065270Y-80990136D01*
X96065273Y-80990134D01*
X96069781Y-80986977D01*
X96226977Y-80829781D01*
X96314894Y-80704223D01*
X96351331Y-80652185D01*
X96351332Y-80652183D01*
X96354488Y-80647676D01*
X96356811Y-80642694D01*
X96356814Y-80642689D01*
X96405805Y-80537627D01*
X96452723Y-80484342D01*
X96521000Y-80464881D01*
X96588960Y-80485423D01*
X96634195Y-80537627D01*
X96683186Y-80642689D01*
X96683189Y-80642694D01*
X96685512Y-80647676D01*
X96688668Y-80652183D01*
X96688669Y-80652185D01*
X96725107Y-80704223D01*
X96813023Y-80829781D01*
X96970219Y-80986977D01*
X96974727Y-80990134D01*
X96974730Y-80990136D01*
X97050495Y-81043187D01*
X97152323Y-81114488D01*
X97157305Y-81116811D01*
X97157310Y-81116814D01*
X97332751Y-81198623D01*
X97353804Y-81208440D01*
X97359112Y-81209862D01*
X97359114Y-81209863D01*
X97385526Y-81216940D01*
X97568537Y-81265978D01*
X97790000Y-81285353D01*
X98011463Y-81265978D01*
X98194474Y-81216940D01*
X98220886Y-81209863D01*
X98220888Y-81209862D01*
X98226196Y-81208440D01*
X98231178Y-81206117D01*
X98231183Y-81206115D01*
X98247249Y-81198623D01*
X98317440Y-81187961D01*
X98382253Y-81216940D01*
X98421110Y-81276359D01*
X98426500Y-81312817D01*
X98426500Y-81847476D01*
X98406498Y-81915597D01*
X98394142Y-81931779D01*
X98320960Y-82013056D01*
X98225473Y-82178444D01*
X98166458Y-82360072D01*
X98146496Y-82550000D01*
X98166458Y-82739928D01*
X98225473Y-82921556D01*
X98320960Y-83086944D01*
X98325378Y-83091851D01*
X98325379Y-83091852D01*
X98373896Y-83145736D01*
X98448747Y-83228866D01*
X98603248Y-83341118D01*
X98609276Y-83343802D01*
X98609278Y-83343803D01*
X98640532Y-83357718D01*
X98777712Y-83418794D01*
X98871112Y-83438647D01*
X98958056Y-83457128D01*
X98958061Y-83457128D01*
X98964513Y-83458500D01*
X99155487Y-83458500D01*
X99161939Y-83457128D01*
X99161944Y-83457128D01*
X99248888Y-83438647D01*
X99342288Y-83418794D01*
X99479468Y-83357718D01*
X99510722Y-83343803D01*
X99510724Y-83343802D01*
X99516752Y-83341118D01*
X99671253Y-83228866D01*
X99746104Y-83145736D01*
X99794621Y-83091852D01*
X99794622Y-83091851D01*
X99799040Y-83086944D01*
X99894527Y-82921556D01*
X99953542Y-82739928D01*
X99973504Y-82550000D01*
X99953542Y-82360072D01*
X99894527Y-82178444D01*
X99799040Y-82013056D01*
X99725863Y-81931785D01*
X99695147Y-81867779D01*
X99693500Y-81847476D01*
X99693500Y-81312817D01*
X99713502Y-81244696D01*
X99767158Y-81198203D01*
X99837432Y-81188099D01*
X99872751Y-81198623D01*
X99888817Y-81206115D01*
X99888822Y-81206117D01*
X99893804Y-81208440D01*
X99899112Y-81209862D01*
X99899114Y-81209863D01*
X99925526Y-81216940D01*
X100108537Y-81265978D01*
X100330000Y-81285353D01*
X100551463Y-81265978D01*
X100734474Y-81216940D01*
X100760886Y-81209863D01*
X100760888Y-81209862D01*
X100766196Y-81208440D01*
X100771178Y-81206117D01*
X100771183Y-81206115D01*
X100787249Y-81198623D01*
X100857440Y-81187961D01*
X100922253Y-81216940D01*
X100961110Y-81276359D01*
X100966500Y-81312817D01*
X100966500Y-83117476D01*
X100946498Y-83185597D01*
X100934142Y-83201779D01*
X100860960Y-83283056D01*
X100765473Y-83448444D01*
X100706458Y-83630072D01*
X100686496Y-83820000D01*
X100706458Y-84009928D01*
X100765473Y-84191556D01*
X100860960Y-84356944D01*
X100988747Y-84498866D01*
X101143248Y-84611118D01*
X101149276Y-84613802D01*
X101149278Y-84613803D01*
X101311681Y-84686109D01*
X101317712Y-84688794D01*
X101411113Y-84708647D01*
X101498056Y-84727128D01*
X101498061Y-84727128D01*
X101504513Y-84728500D01*
X101695487Y-84728500D01*
X101701939Y-84727128D01*
X101701944Y-84727128D01*
X101788887Y-84708647D01*
X101882288Y-84688794D01*
X101888319Y-84686109D01*
X102050722Y-84613803D01*
X102050724Y-84613802D01*
X102056752Y-84611118D01*
X102211253Y-84498866D01*
X102339040Y-84356944D01*
X102434527Y-84191556D01*
X102493542Y-84009928D01*
X102513504Y-83820000D01*
X102493542Y-83630072D01*
X102434527Y-83448444D01*
X102339040Y-83283056D01*
X102265863Y-83201785D01*
X102235147Y-83137779D01*
X102233500Y-83117476D01*
X102233500Y-81312817D01*
X102253502Y-81244696D01*
X102307158Y-81198203D01*
X102377432Y-81188099D01*
X102412751Y-81198623D01*
X102428817Y-81206115D01*
X102428822Y-81206117D01*
X102433804Y-81208440D01*
X102439112Y-81209862D01*
X102439114Y-81209863D01*
X102465526Y-81216940D01*
X102648537Y-81265978D01*
X102870000Y-81285353D01*
X103091463Y-81265978D01*
X103274474Y-81216940D01*
X103300886Y-81209863D01*
X103300888Y-81209862D01*
X103306196Y-81208440D01*
X103327249Y-81198623D01*
X103502690Y-81116814D01*
X103502695Y-81116811D01*
X103507677Y-81114488D01*
X103609505Y-81043187D01*
X103685270Y-80990136D01*
X103685273Y-80990134D01*
X103689781Y-80986977D01*
X103846977Y-80829781D01*
X103934894Y-80704223D01*
X103971331Y-80652185D01*
X103971332Y-80652183D01*
X103974488Y-80647676D01*
X103976811Y-80642694D01*
X103976814Y-80642689D01*
X104025805Y-80537627D01*
X104072723Y-80484342D01*
X104141000Y-80464881D01*
X104208960Y-80485423D01*
X104254195Y-80537627D01*
X104303186Y-80642689D01*
X104303189Y-80642694D01*
X104305512Y-80647676D01*
X104308668Y-80652183D01*
X104308669Y-80652185D01*
X104345107Y-80704223D01*
X104433023Y-80829781D01*
X104590219Y-80986977D01*
X104594727Y-80990134D01*
X104594730Y-80990136D01*
X104670495Y-81043187D01*
X104772323Y-81114488D01*
X104777305Y-81116811D01*
X104777310Y-81116814D01*
X104952751Y-81198623D01*
X104973804Y-81208440D01*
X104979112Y-81209862D01*
X104979114Y-81209863D01*
X105005526Y-81216940D01*
X105188537Y-81265978D01*
X105410000Y-81285353D01*
X105631463Y-81265978D01*
X105814474Y-81216940D01*
X105840886Y-81209863D01*
X105840888Y-81209862D01*
X105846196Y-81208440D01*
X105867249Y-81198623D01*
X106042690Y-81116814D01*
X106042695Y-81116811D01*
X106047677Y-81114488D01*
X106149505Y-81043187D01*
X106225270Y-80990136D01*
X106225273Y-80990134D01*
X106229781Y-80986977D01*
X106386977Y-80829781D01*
X106474894Y-80704223D01*
X106511331Y-80652185D01*
X106511332Y-80652183D01*
X106514488Y-80647676D01*
X106516811Y-80642694D01*
X106516814Y-80642689D01*
X106565805Y-80537627D01*
X106612723Y-80484342D01*
X106681000Y-80464881D01*
X106748960Y-80485423D01*
X106794195Y-80537627D01*
X106843186Y-80642689D01*
X106843189Y-80642694D01*
X106845512Y-80647676D01*
X106848668Y-80652183D01*
X106848669Y-80652185D01*
X106885107Y-80704223D01*
X106973023Y-80829781D01*
X107130219Y-80986977D01*
X107134727Y-80990134D01*
X107134730Y-80990136D01*
X107210495Y-81043187D01*
X107312323Y-81114488D01*
X107317305Y-81116811D01*
X107317310Y-81116814D01*
X107492751Y-81198623D01*
X107513804Y-81208440D01*
X107519112Y-81209862D01*
X107519114Y-81209863D01*
X107545526Y-81216940D01*
X107728537Y-81265978D01*
X107950000Y-81285353D01*
X108171463Y-81265978D01*
X108354474Y-81216940D01*
X108380886Y-81209863D01*
X108380888Y-81209862D01*
X108386196Y-81208440D01*
X108407249Y-81198623D01*
X108582690Y-81116814D01*
X108582695Y-81116811D01*
X108587677Y-81114488D01*
X108689505Y-81043187D01*
X108765270Y-80990136D01*
X108765273Y-80990134D01*
X108769781Y-80986977D01*
X108926977Y-80829781D01*
X109014894Y-80704223D01*
X109051331Y-80652185D01*
X109051332Y-80652183D01*
X109054488Y-80647676D01*
X109056811Y-80642694D01*
X109056814Y-80642689D01*
X109105805Y-80537627D01*
X109152723Y-80484342D01*
X109221000Y-80464881D01*
X109288960Y-80485423D01*
X109334195Y-80537627D01*
X109383186Y-80642689D01*
X109383189Y-80642694D01*
X109385512Y-80647676D01*
X109388668Y-80652183D01*
X109388669Y-80652185D01*
X109425107Y-80704223D01*
X109513023Y-80829781D01*
X109670219Y-80986977D01*
X109674727Y-80990134D01*
X109674730Y-80990136D01*
X109750495Y-81043187D01*
X109852323Y-81114488D01*
X109857305Y-81116811D01*
X109857310Y-81116814D01*
X110032751Y-81198623D01*
X110053804Y-81208440D01*
X110059112Y-81209862D01*
X110059114Y-81209863D01*
X110085526Y-81216940D01*
X110268537Y-81265978D01*
X110490000Y-81285353D01*
X110711463Y-81265978D01*
X110894474Y-81216940D01*
X110920886Y-81209863D01*
X110920888Y-81209862D01*
X110926196Y-81208440D01*
X110947249Y-81198623D01*
X111122690Y-81116814D01*
X111122695Y-81116811D01*
X111127677Y-81114488D01*
X111229505Y-81043187D01*
X111305270Y-80990136D01*
X111305273Y-80990134D01*
X111309781Y-80986977D01*
X111466977Y-80829781D01*
X111554894Y-80704223D01*
X111591331Y-80652185D01*
X111591332Y-80652183D01*
X111594488Y-80647676D01*
X111596811Y-80642694D01*
X111596814Y-80642689D01*
X111645805Y-80537627D01*
X111692723Y-80484342D01*
X111761000Y-80464881D01*
X111828960Y-80485423D01*
X111874195Y-80537627D01*
X111923186Y-80642689D01*
X111923189Y-80642694D01*
X111925512Y-80647676D01*
X111928668Y-80652183D01*
X111928669Y-80652185D01*
X111965107Y-80704223D01*
X112053023Y-80829781D01*
X112210219Y-80986977D01*
X112214727Y-80990134D01*
X112214730Y-80990136D01*
X112290495Y-81043187D01*
X112392323Y-81114488D01*
X112397305Y-81116811D01*
X112397310Y-81116814D01*
X112572751Y-81198623D01*
X112593804Y-81208440D01*
X112599112Y-81209862D01*
X112599114Y-81209863D01*
X112625526Y-81216940D01*
X112808537Y-81265978D01*
X113030000Y-81285353D01*
X113251463Y-81265978D01*
X113434474Y-81216940D01*
X113460886Y-81209863D01*
X113460888Y-81209862D01*
X113466196Y-81208440D01*
X113487249Y-81198623D01*
X113662690Y-81116814D01*
X113662695Y-81116811D01*
X113667677Y-81114488D01*
X113769505Y-81043187D01*
X113845270Y-80990136D01*
X113845273Y-80990134D01*
X113849781Y-80986977D01*
X114006977Y-80829781D01*
X114094894Y-80704223D01*
X114131331Y-80652185D01*
X114131332Y-80652183D01*
X114134488Y-80647676D01*
X114136811Y-80642694D01*
X114136814Y-80642689D01*
X114226117Y-80451178D01*
X114226118Y-80451177D01*
X114228440Y-80446196D01*
X114285978Y-80231463D01*
X114305353Y-80010000D01*
X114285978Y-79788537D01*
X114228440Y-79573804D01*
X114225800Y-79568143D01*
X114136814Y-79377311D01*
X114136811Y-79377306D01*
X114134488Y-79372324D01*
X114131331Y-79367815D01*
X114010136Y-79194730D01*
X114010134Y-79194727D01*
X114006977Y-79190219D01*
X113849781Y-79033023D01*
X113845273Y-79029866D01*
X113845270Y-79029864D01*
X113751939Y-78964513D01*
X113667677Y-78905512D01*
X113662695Y-78903189D01*
X113662690Y-78903186D01*
X113471178Y-78813883D01*
X113471177Y-78813882D01*
X113466196Y-78811560D01*
X113460888Y-78810138D01*
X113460886Y-78810137D01*
X113347876Y-78779856D01*
X113251463Y-78754022D01*
X113030000Y-78734647D01*
X112808537Y-78754022D01*
X112712124Y-78779856D01*
X112599114Y-78810137D01*
X112599112Y-78810138D01*
X112593804Y-78811560D01*
X112588823Y-78813882D01*
X112588822Y-78813883D01*
X112397311Y-78903186D01*
X112397306Y-78903189D01*
X112392324Y-78905512D01*
X112387817Y-78908668D01*
X112387815Y-78908669D01*
X112214730Y-79029864D01*
X112214727Y-79029866D01*
X112210219Y-79033023D01*
X112053023Y-79190219D01*
X112049866Y-79194727D01*
X112049864Y-79194730D01*
X111928669Y-79367815D01*
X111925512Y-79372324D01*
X111923189Y-79377306D01*
X111923186Y-79377311D01*
X111874195Y-79482373D01*
X111827277Y-79535658D01*
X111759000Y-79555119D01*
X111691040Y-79534577D01*
X111645805Y-79482373D01*
X111596814Y-79377311D01*
X111596811Y-79377306D01*
X111594488Y-79372324D01*
X111591331Y-79367815D01*
X111470136Y-79194730D01*
X111470134Y-79194727D01*
X111466977Y-79190219D01*
X111309781Y-79033023D01*
X111305273Y-79029866D01*
X111305270Y-79029864D01*
X111211939Y-78964513D01*
X111127677Y-78905512D01*
X111122695Y-78903189D01*
X111122690Y-78903186D01*
X110931178Y-78813883D01*
X110931177Y-78813882D01*
X110926196Y-78811560D01*
X110920888Y-78810138D01*
X110920886Y-78810137D01*
X110807876Y-78779856D01*
X110711463Y-78754022D01*
X110490000Y-78734647D01*
X110268537Y-78754022D01*
X110172124Y-78779856D01*
X110059114Y-78810137D01*
X110059112Y-78810138D01*
X110053804Y-78811560D01*
X110048823Y-78813882D01*
X110048822Y-78813883D01*
X109857311Y-78903186D01*
X109857306Y-78903189D01*
X109852324Y-78905512D01*
X109847817Y-78908668D01*
X109847815Y-78908669D01*
X109674730Y-79029864D01*
X109674727Y-79029866D01*
X109670219Y-79033023D01*
X109513023Y-79190219D01*
X109509866Y-79194727D01*
X109509864Y-79194730D01*
X109388669Y-79367815D01*
X109385512Y-79372324D01*
X109383189Y-79377306D01*
X109383186Y-79377311D01*
X109334195Y-79482373D01*
X109287277Y-79535658D01*
X109219000Y-79555119D01*
X109151040Y-79534577D01*
X109105805Y-79482373D01*
X109056814Y-79377311D01*
X109056811Y-79377306D01*
X109054488Y-79372324D01*
X109051331Y-79367815D01*
X108930136Y-79194730D01*
X108930134Y-79194727D01*
X108926977Y-79190219D01*
X108769781Y-79033023D01*
X108765273Y-79029866D01*
X108765270Y-79029864D01*
X108671939Y-78964513D01*
X108587677Y-78905512D01*
X108582695Y-78903189D01*
X108582690Y-78903186D01*
X108391178Y-78813883D01*
X108391177Y-78813882D01*
X108386196Y-78811560D01*
X108380888Y-78810138D01*
X108380886Y-78810137D01*
X108267876Y-78779856D01*
X108171463Y-78754022D01*
X107950000Y-78734647D01*
X107728537Y-78754022D01*
X107632124Y-78779856D01*
X107519114Y-78810137D01*
X107519112Y-78810138D01*
X107513804Y-78811560D01*
X107508823Y-78813882D01*
X107508822Y-78813883D01*
X107317311Y-78903186D01*
X107317306Y-78903189D01*
X107312324Y-78905512D01*
X107307817Y-78908668D01*
X107307815Y-78908669D01*
X107134730Y-79029864D01*
X107134727Y-79029866D01*
X107130219Y-79033023D01*
X106973023Y-79190219D01*
X106969866Y-79194727D01*
X106969864Y-79194730D01*
X106848669Y-79367815D01*
X106845512Y-79372324D01*
X106843189Y-79377306D01*
X106843186Y-79377311D01*
X106794195Y-79482373D01*
X106747277Y-79535658D01*
X106679000Y-79555119D01*
X106611040Y-79534577D01*
X106565805Y-79482373D01*
X106516814Y-79377311D01*
X106516811Y-79377306D01*
X106514488Y-79372324D01*
X106511331Y-79367815D01*
X106390136Y-79194730D01*
X106390134Y-79194727D01*
X106386977Y-79190219D01*
X106229781Y-79033023D01*
X106225273Y-79029866D01*
X106225270Y-79029864D01*
X106131939Y-78964513D01*
X106047677Y-78905512D01*
X106042695Y-78903189D01*
X106042690Y-78903186D01*
X105851178Y-78813883D01*
X105851177Y-78813882D01*
X105846196Y-78811560D01*
X105840888Y-78810138D01*
X105840886Y-78810137D01*
X105727876Y-78779856D01*
X105631463Y-78754022D01*
X105410000Y-78734647D01*
X105188537Y-78754022D01*
X105092124Y-78779856D01*
X104979114Y-78810137D01*
X104979112Y-78810138D01*
X104973804Y-78811560D01*
X104968823Y-78813882D01*
X104968822Y-78813883D01*
X104777311Y-78903186D01*
X104777306Y-78903189D01*
X104772324Y-78905512D01*
X104767817Y-78908668D01*
X104767815Y-78908669D01*
X104594730Y-79029864D01*
X104594727Y-79029866D01*
X104590219Y-79033023D01*
X104433023Y-79190219D01*
X104429866Y-79194727D01*
X104429864Y-79194730D01*
X104308669Y-79367815D01*
X104305512Y-79372324D01*
X104303189Y-79377306D01*
X104303186Y-79377311D01*
X104254195Y-79482373D01*
X104207277Y-79535658D01*
X104139000Y-79555119D01*
X104071040Y-79534577D01*
X104025805Y-79482373D01*
X103976814Y-79377311D01*
X103976811Y-79377306D01*
X103974488Y-79372324D01*
X103971331Y-79367815D01*
X103850136Y-79194730D01*
X103850134Y-79194727D01*
X103846977Y-79190219D01*
X103689781Y-79033023D01*
X103685273Y-79029866D01*
X103685270Y-79029864D01*
X103591939Y-78964513D01*
X103507677Y-78905512D01*
X103502695Y-78903189D01*
X103502690Y-78903186D01*
X103311178Y-78813883D01*
X103311177Y-78813882D01*
X103306196Y-78811560D01*
X103300888Y-78810138D01*
X103300886Y-78810137D01*
X103187876Y-78779856D01*
X103091463Y-78754022D01*
X102870000Y-78734647D01*
X102648537Y-78754022D01*
X102552124Y-78779856D01*
X102439114Y-78810137D01*
X102439112Y-78810138D01*
X102433804Y-78811560D01*
X102428822Y-78813883D01*
X102428817Y-78813885D01*
X102412751Y-78821377D01*
X102342560Y-78832039D01*
X102277747Y-78803060D01*
X102238890Y-78743641D01*
X102233500Y-78707183D01*
X102233500Y-73387885D01*
X126762000Y-73387885D01*
X126766475Y-73403124D01*
X126767865Y-73404329D01*
X126775548Y-73406000D01*
X127497885Y-73406000D01*
X127513124Y-73401525D01*
X127514329Y-73400135D01*
X127516000Y-73392452D01*
X127516000Y-72670116D01*
X127511525Y-72654877D01*
X127510135Y-72653672D01*
X127502452Y-72652001D01*
X127225331Y-72652001D01*
X127218510Y-72652371D01*
X127167648Y-72657895D01*
X127152396Y-72661521D01*
X127031946Y-72706676D01*
X127016351Y-72715214D01*
X126914276Y-72791715D01*
X126901715Y-72804276D01*
X126825214Y-72906351D01*
X126816676Y-72921946D01*
X126771522Y-73042394D01*
X126767895Y-73057649D01*
X126762369Y-73108514D01*
X126762000Y-73115328D01*
X126762000Y-73387885D01*
X102233500Y-73387885D01*
X102233500Y-58452817D01*
X102253502Y-58384696D01*
X102307158Y-58338203D01*
X102377432Y-58328099D01*
X102412751Y-58338623D01*
X102428817Y-58346115D01*
X102428822Y-58346117D01*
X102433804Y-58348440D01*
X102439112Y-58349862D01*
X102439114Y-58349863D01*
X102465526Y-58356940D01*
X102648537Y-58405978D01*
X102870000Y-58425353D01*
X103091463Y-58405978D01*
X103274474Y-58356940D01*
X103300886Y-58349863D01*
X103300888Y-58349862D01*
X103306196Y-58348440D01*
X103327249Y-58338623D01*
X103502690Y-58256814D01*
X103502695Y-58256811D01*
X103507677Y-58254488D01*
X103609505Y-58183187D01*
X103685270Y-58130136D01*
X103685273Y-58130134D01*
X103689781Y-58126977D01*
X103846977Y-57969781D01*
X103974488Y-57787676D01*
X103976811Y-57782694D01*
X103976814Y-57782689D01*
X104025805Y-57677627D01*
X104072723Y-57624342D01*
X104141000Y-57604881D01*
X104208960Y-57625423D01*
X104254195Y-57677627D01*
X104303186Y-57782689D01*
X104303189Y-57782694D01*
X104305512Y-57787676D01*
X104433023Y-57969781D01*
X104590219Y-58126977D01*
X104594727Y-58130134D01*
X104594730Y-58130136D01*
X104670495Y-58183187D01*
X104772323Y-58254488D01*
X104777305Y-58256811D01*
X104777310Y-58256814D01*
X104952751Y-58338623D01*
X104973804Y-58348440D01*
X104979112Y-58349862D01*
X104979114Y-58349863D01*
X105005526Y-58356940D01*
X105188537Y-58405978D01*
X105410000Y-58425353D01*
X105631463Y-58405978D01*
X105814474Y-58356940D01*
X105840886Y-58349863D01*
X105840888Y-58349862D01*
X105846196Y-58348440D01*
X105867249Y-58338623D01*
X106042690Y-58256814D01*
X106042695Y-58256811D01*
X106047677Y-58254488D01*
X106149505Y-58183187D01*
X106225270Y-58130136D01*
X106225273Y-58130134D01*
X106229781Y-58126977D01*
X106386977Y-57969781D01*
X106514488Y-57787676D01*
X106516811Y-57782694D01*
X106516814Y-57782689D01*
X106565805Y-57677627D01*
X106612723Y-57624342D01*
X106681000Y-57604881D01*
X106748960Y-57625423D01*
X106794195Y-57677627D01*
X106843186Y-57782689D01*
X106843189Y-57782694D01*
X106845512Y-57787676D01*
X106973023Y-57969781D01*
X107130219Y-58126977D01*
X107134727Y-58130134D01*
X107134730Y-58130136D01*
X107210495Y-58183187D01*
X107312323Y-58254488D01*
X107317305Y-58256811D01*
X107317310Y-58256814D01*
X107492751Y-58338623D01*
X107513804Y-58348440D01*
X107519112Y-58349862D01*
X107519114Y-58349863D01*
X107545526Y-58356940D01*
X107728537Y-58405978D01*
X107950000Y-58425353D01*
X108171463Y-58405978D01*
X108354474Y-58356940D01*
X108380886Y-58349863D01*
X108380888Y-58349862D01*
X108386196Y-58348440D01*
X108407249Y-58338623D01*
X108582690Y-58256814D01*
X108582695Y-58256811D01*
X108587677Y-58254488D01*
X108689505Y-58183187D01*
X108765270Y-58130136D01*
X108765273Y-58130134D01*
X108769781Y-58126977D01*
X108926977Y-57969781D01*
X109054488Y-57787676D01*
X109056811Y-57782694D01*
X109056814Y-57782689D01*
X109105805Y-57677627D01*
X109152723Y-57624342D01*
X109221000Y-57604881D01*
X109288960Y-57625423D01*
X109334195Y-57677627D01*
X109383186Y-57782689D01*
X109383189Y-57782694D01*
X109385512Y-57787676D01*
X109513023Y-57969781D01*
X109670219Y-58126977D01*
X109674727Y-58130134D01*
X109674730Y-58130136D01*
X109750495Y-58183187D01*
X109852323Y-58254488D01*
X109857305Y-58256811D01*
X109857310Y-58256814D01*
X110032751Y-58338623D01*
X110053804Y-58348440D01*
X110059112Y-58349862D01*
X110059114Y-58349863D01*
X110085526Y-58356940D01*
X110268537Y-58405978D01*
X110490000Y-58425353D01*
X110711463Y-58405978D01*
X110894474Y-58356940D01*
X110920886Y-58349863D01*
X110920888Y-58349862D01*
X110926196Y-58348440D01*
X110947249Y-58338623D01*
X111122690Y-58256814D01*
X111122695Y-58256811D01*
X111127677Y-58254488D01*
X111229505Y-58183187D01*
X111305270Y-58130136D01*
X111305273Y-58130134D01*
X111309781Y-58126977D01*
X111466977Y-57969781D01*
X111594488Y-57787676D01*
X111596811Y-57782694D01*
X111596814Y-57782689D01*
X111645805Y-57677627D01*
X111692723Y-57624342D01*
X111761000Y-57604881D01*
X111828960Y-57625423D01*
X111874195Y-57677627D01*
X111923186Y-57782689D01*
X111923189Y-57782694D01*
X111925512Y-57787676D01*
X112053023Y-57969781D01*
X112210219Y-58126977D01*
X112214727Y-58130134D01*
X112214730Y-58130136D01*
X112290495Y-58183187D01*
X112392323Y-58254488D01*
X112397305Y-58256811D01*
X112397310Y-58256814D01*
X112572751Y-58338623D01*
X112593804Y-58348440D01*
X112599112Y-58349862D01*
X112599114Y-58349863D01*
X112625526Y-58356940D01*
X112808537Y-58405978D01*
X113030000Y-58425353D01*
X113251463Y-58405978D01*
X113434474Y-58356940D01*
X113460886Y-58349863D01*
X113460888Y-58349862D01*
X113466196Y-58348440D01*
X113487249Y-58338623D01*
X113662690Y-58256814D01*
X113662695Y-58256811D01*
X113667677Y-58254488D01*
X113769505Y-58183187D01*
X113845270Y-58130136D01*
X113845273Y-58130134D01*
X113849781Y-58126977D01*
X114006977Y-57969781D01*
X114134488Y-57787676D01*
X114136811Y-57782694D01*
X114136814Y-57782689D01*
X114226117Y-57591178D01*
X114226118Y-57591177D01*
X114228440Y-57586196D01*
X114285978Y-57371463D01*
X114305353Y-57150000D01*
X114285978Y-56928537D01*
X114228440Y-56713804D01*
X114185805Y-56622373D01*
X114136814Y-56517311D01*
X114136811Y-56517306D01*
X114134488Y-56512324D01*
X114006977Y-56330219D01*
X113849781Y-56173023D01*
X113845273Y-56169866D01*
X113845270Y-56169864D01*
X113717229Y-56080209D01*
X113667677Y-56045512D01*
X113662695Y-56043189D01*
X113662690Y-56043186D01*
X113471178Y-55953883D01*
X113471177Y-55953882D01*
X113466196Y-55951560D01*
X113460888Y-55950138D01*
X113460886Y-55950137D01*
X113395051Y-55932497D01*
X113251463Y-55894022D01*
X113030000Y-55874647D01*
X112808537Y-55894022D01*
X112664949Y-55932497D01*
X112599114Y-55950137D01*
X112599112Y-55950138D01*
X112593804Y-55951560D01*
X112588823Y-55953882D01*
X112588822Y-55953883D01*
X112397311Y-56043186D01*
X112397306Y-56043189D01*
X112392324Y-56045512D01*
X112387817Y-56048668D01*
X112387815Y-56048669D01*
X112214730Y-56169864D01*
X112214727Y-56169866D01*
X112210219Y-56173023D01*
X112053023Y-56330219D01*
X111925512Y-56512324D01*
X111923189Y-56517306D01*
X111923186Y-56517311D01*
X111874195Y-56622373D01*
X111827277Y-56675658D01*
X111759000Y-56695119D01*
X111691040Y-56674577D01*
X111645805Y-56622373D01*
X111596814Y-56517311D01*
X111596811Y-56517306D01*
X111594488Y-56512324D01*
X111466977Y-56330219D01*
X111309781Y-56173023D01*
X111305273Y-56169866D01*
X111305270Y-56169864D01*
X111177229Y-56080209D01*
X111127677Y-56045512D01*
X111122695Y-56043189D01*
X111122690Y-56043186D01*
X110931178Y-55953883D01*
X110931177Y-55953882D01*
X110926196Y-55951560D01*
X110920888Y-55950138D01*
X110920886Y-55950137D01*
X110855051Y-55932497D01*
X110711463Y-55894022D01*
X110490000Y-55874647D01*
X110268537Y-55894022D01*
X110124949Y-55932497D01*
X110059114Y-55950137D01*
X110059112Y-55950138D01*
X110053804Y-55951560D01*
X110048823Y-55953882D01*
X110048822Y-55953883D01*
X109857311Y-56043186D01*
X109857306Y-56043189D01*
X109852324Y-56045512D01*
X109847817Y-56048668D01*
X109847815Y-56048669D01*
X109674730Y-56169864D01*
X109674727Y-56169866D01*
X109670219Y-56173023D01*
X109513023Y-56330219D01*
X109385512Y-56512324D01*
X109383189Y-56517306D01*
X109383186Y-56517311D01*
X109334195Y-56622373D01*
X109287277Y-56675658D01*
X109219000Y-56695119D01*
X109151040Y-56674577D01*
X109105805Y-56622373D01*
X109056814Y-56517311D01*
X109056811Y-56517306D01*
X109054488Y-56512324D01*
X108926977Y-56330219D01*
X108769781Y-56173023D01*
X108765273Y-56169866D01*
X108765270Y-56169864D01*
X108637229Y-56080209D01*
X108592901Y-56024752D01*
X108583500Y-55976996D01*
X108583500Y-45152524D01*
X108603502Y-45084403D01*
X108615858Y-45068221D01*
X108689040Y-44986944D01*
X108768201Y-44849834D01*
X108781223Y-44827279D01*
X108781224Y-44827278D01*
X108784527Y-44821556D01*
X108843542Y-44639928D01*
X108863504Y-44450000D01*
X108843542Y-44260072D01*
X108830254Y-44219176D01*
X108828226Y-44148209D01*
X108864889Y-44087411D01*
X108928601Y-44056085D01*
X108976284Y-44056993D01*
X109118056Y-44087128D01*
X109118061Y-44087128D01*
X109124513Y-44088500D01*
X109315487Y-44088500D01*
X109321939Y-44087128D01*
X109321944Y-44087128D01*
X109408887Y-44068647D01*
X109502288Y-44048794D01*
X109508319Y-44046109D01*
X109670722Y-43973803D01*
X109670724Y-43973802D01*
X109676752Y-43971118D01*
X109691967Y-43960064D01*
X109763422Y-43908148D01*
X109831253Y-43858866D01*
X109910247Y-43771134D01*
X109954621Y-43721852D01*
X109954625Y-43721847D01*
X109959040Y-43716944D01*
X110017314Y-43616010D01*
X110051223Y-43557279D01*
X110051224Y-43557278D01*
X110054527Y-43551556D01*
X110113542Y-43369928D01*
X110133504Y-43180000D01*
X110113542Y-42990072D01*
X110054527Y-42808444D01*
X109959040Y-42643056D01*
X109885863Y-42561785D01*
X109855147Y-42497779D01*
X109853500Y-42477476D01*
X109853500Y-31760427D01*
X109873502Y-31692306D01*
X109914618Y-31652550D01*
X109917994Y-31650896D01*
X110099860Y-31521173D01*
X110258096Y-31363489D01*
X110266710Y-31351502D01*
X110388453Y-31182077D01*
X110389776Y-31183028D01*
X110436645Y-31139857D01*
X110506580Y-31127625D01*
X110572026Y-31155144D01*
X110599875Y-31186994D01*
X110659987Y-31285088D01*
X110806250Y-31453938D01*
X110978126Y-31596632D01*
X111171000Y-31709338D01*
X111379692Y-31789030D01*
X111384760Y-31790061D01*
X111384763Y-31790062D01*
X111463436Y-31806068D01*
X111598597Y-31833567D01*
X111603772Y-31833757D01*
X111603774Y-31833757D01*
X111816673Y-31841564D01*
X111816677Y-31841564D01*
X111821837Y-31841753D01*
X111826957Y-31841097D01*
X111826959Y-31841097D01*
X112038288Y-31814025D01*
X112038289Y-31814025D01*
X112043416Y-31813368D01*
X112048367Y-31811883D01*
X112048370Y-31811882D01*
X112089829Y-31799444D01*
X112160825Y-31799028D01*
X112215131Y-31831035D01*
X113796343Y-33412247D01*
X113803887Y-33420537D01*
X113808000Y-33427018D01*
X113813777Y-33432443D01*
X113857667Y-33473658D01*
X113860509Y-33476413D01*
X113880230Y-33496134D01*
X113883425Y-33498612D01*
X113892447Y-33506318D01*
X113924679Y-33536586D01*
X113931628Y-33540406D01*
X113942432Y-33546346D01*
X113958956Y-33557199D01*
X113974959Y-33569613D01*
X114015543Y-33587176D01*
X114026173Y-33592383D01*
X114064940Y-33613695D01*
X114072617Y-33615666D01*
X114072622Y-33615668D01*
X114084558Y-33618732D01*
X114103266Y-33625137D01*
X114121855Y-33633181D01*
X114129680Y-33634420D01*
X114129682Y-33634421D01*
X114165519Y-33640097D01*
X114177140Y-33642504D01*
X114212289Y-33651528D01*
X114219970Y-33653500D01*
X114240231Y-33653500D01*
X114259940Y-33655051D01*
X114279943Y-33658219D01*
X114287835Y-33657473D01*
X114293062Y-33656979D01*
X114323954Y-33654059D01*
X114335811Y-33653500D01*
X127067106Y-33653500D01*
X127135227Y-33673502D01*
X127156202Y-33690405D01*
X127629840Y-34164044D01*
X127663865Y-34226356D01*
X127658800Y-34297172D01*
X127616253Y-34354007D01*
X127598928Y-34364900D01*
X127528607Y-34401507D01*
X127524474Y-34404610D01*
X127524471Y-34404612D01*
X127354100Y-34532530D01*
X127349965Y-34535635D01*
X127195629Y-34697138D01*
X127088201Y-34854621D01*
X127033293Y-34899621D01*
X126962768Y-34907792D01*
X126899021Y-34876538D01*
X126878324Y-34852054D01*
X126797822Y-34727617D01*
X126797820Y-34727614D01*
X126795014Y-34723277D01*
X126644670Y-34558051D01*
X126640619Y-34554852D01*
X126640615Y-34554848D01*
X126473414Y-34422800D01*
X126473410Y-34422798D01*
X126469359Y-34419598D01*
X126273789Y-34311638D01*
X126268920Y-34309914D01*
X126268916Y-34309912D01*
X126068087Y-34238795D01*
X126068083Y-34238794D01*
X126063212Y-34237069D01*
X126058119Y-34236162D01*
X126058116Y-34236161D01*
X125848373Y-34198800D01*
X125848367Y-34198799D01*
X125843284Y-34197894D01*
X125769452Y-34196992D01*
X125625081Y-34195228D01*
X125625079Y-34195228D01*
X125619911Y-34195165D01*
X125399091Y-34228955D01*
X125186756Y-34298357D01*
X125156443Y-34314137D01*
X125044264Y-34372534D01*
X124988607Y-34401507D01*
X124984474Y-34404610D01*
X124984471Y-34404612D01*
X124814100Y-34532530D01*
X124809965Y-34535635D01*
X124655629Y-34697138D01*
X124529743Y-34881680D01*
X124435688Y-35084305D01*
X124375989Y-35299570D01*
X124352251Y-35521695D01*
X124365110Y-35744715D01*
X124366247Y-35749761D01*
X124366248Y-35749767D01*
X124398453Y-35892668D01*
X124393917Y-35963520D01*
X124364631Y-36009464D01*
X124147747Y-36226348D01*
X124139461Y-36233888D01*
X124132982Y-36238000D01*
X124127557Y-36243777D01*
X124086357Y-36287651D01*
X124083602Y-36290493D01*
X124063865Y-36310230D01*
X124061385Y-36313427D01*
X124053682Y-36322447D01*
X124023414Y-36354679D01*
X124019595Y-36361625D01*
X124019593Y-36361628D01*
X124013652Y-36372434D01*
X124002801Y-36388953D01*
X123990386Y-36404959D01*
X123987241Y-36412228D01*
X123987238Y-36412232D01*
X123972826Y-36445537D01*
X123967609Y-36456187D01*
X123946305Y-36494940D01*
X123944334Y-36502615D01*
X123944334Y-36502616D01*
X123941267Y-36514562D01*
X123934863Y-36533266D01*
X123926819Y-36551855D01*
X123925580Y-36559678D01*
X123925577Y-36559688D01*
X123919901Y-36595524D01*
X123917495Y-36607144D01*
X123906500Y-36649970D01*
X123906500Y-36670224D01*
X123904949Y-36689934D01*
X123901780Y-36709943D01*
X123902526Y-36717835D01*
X123905941Y-36753961D01*
X123906500Y-36765819D01*
X123906500Y-48261233D01*
X123905973Y-48272416D01*
X123904298Y-48279909D01*
X123904547Y-48287835D01*
X123904547Y-48287836D01*
X123906438Y-48347986D01*
X123906500Y-48351945D01*
X123906500Y-48379856D01*
X123906997Y-48383790D01*
X123906997Y-48383791D01*
X123907005Y-48383856D01*
X123907938Y-48395693D01*
X123909327Y-48439889D01*
X123914978Y-48459339D01*
X123918987Y-48478700D01*
X123921526Y-48498797D01*
X123924445Y-48506168D01*
X123924445Y-48506170D01*
X123937804Y-48539912D01*
X123941649Y-48551142D01*
X123953982Y-48593593D01*
X123958015Y-48600412D01*
X123958017Y-48600417D01*
X123964293Y-48611028D01*
X123972988Y-48628776D01*
X123980448Y-48647617D01*
X123985110Y-48654033D01*
X123985110Y-48654034D01*
X124006436Y-48683387D01*
X124012952Y-48693307D01*
X124035458Y-48731362D01*
X124049779Y-48745683D01*
X124062619Y-48760716D01*
X124074528Y-48777107D01*
X124080634Y-48782158D01*
X124108605Y-48805298D01*
X124117384Y-48813288D01*
X126919778Y-51615682D01*
X126953804Y-51677994D01*
X126952100Y-51738448D01*
X126930989Y-51814570D01*
X126930441Y-51819700D01*
X126930440Y-51819704D01*
X126920654Y-51911281D01*
X126907251Y-52036695D01*
X126907548Y-52041848D01*
X126907548Y-52041851D01*
X126909550Y-52076565D01*
X126920110Y-52259715D01*
X126921247Y-52264761D01*
X126921248Y-52264767D01*
X126923742Y-52275833D01*
X126969222Y-52477639D01*
X127053266Y-52684616D01*
X127076044Y-52721787D01*
X127163072Y-52863803D01*
X127169987Y-52875088D01*
X127316250Y-53043938D01*
X127488126Y-53186632D01*
X127681000Y-53299338D01*
X127685825Y-53301180D01*
X127685826Y-53301181D01*
X127758612Y-53328975D01*
X127889692Y-53379030D01*
X127894760Y-53380061D01*
X127894763Y-53380062D01*
X128002379Y-53401957D01*
X128108597Y-53423567D01*
X128113772Y-53423757D01*
X128113774Y-53423757D01*
X128285117Y-53430040D01*
X128352459Y-53452525D01*
X128396955Y-53507848D01*
X128406500Y-53555955D01*
X128406500Y-72526000D01*
X128386498Y-72594121D01*
X128332842Y-72640614D01*
X128280500Y-72652000D01*
X128042115Y-72652000D01*
X128026876Y-72656475D01*
X128025671Y-72657865D01*
X128024000Y-72665548D01*
X128024000Y-73788000D01*
X128003998Y-73856121D01*
X127950342Y-73902614D01*
X127898000Y-73914000D01*
X126780116Y-73914000D01*
X126764877Y-73918475D01*
X126763672Y-73919865D01*
X126762001Y-73927548D01*
X126762001Y-74204669D01*
X126762371Y-74211490D01*
X126767895Y-74262352D01*
X126771521Y-74277604D01*
X126816676Y-74398054D01*
X126829522Y-74421517D01*
X126827213Y-74422781D01*
X126847242Y-74476401D01*
X126838125Y-74530647D01*
X126838567Y-74530787D01*
X126836706Y-74536654D01*
X126836705Y-74536656D01*
X126780627Y-74713436D01*
X126778765Y-74719306D01*
X126756719Y-74915851D01*
X126773268Y-75112934D01*
X126827783Y-75303050D01*
X126847893Y-75342179D01*
X126880732Y-75406076D01*
X126918187Y-75478956D01*
X126922016Y-75483787D01*
X126923839Y-75486088D01*
X126924414Y-75487509D01*
X126925353Y-75488966D01*
X126925076Y-75489144D01*
X126950474Y-75551898D01*
X126937301Y-75621662D01*
X126933846Y-75627474D01*
X126838567Y-75800787D01*
X126778765Y-75989306D01*
X126756719Y-76185851D01*
X126757235Y-76191995D01*
X126770581Y-76350930D01*
X126773268Y-76382934D01*
X126779719Y-76405431D01*
X126822122Y-76553307D01*
X126827783Y-76573050D01*
X126918187Y-76748956D01*
X126922016Y-76753787D01*
X126923839Y-76756088D01*
X126924414Y-76757509D01*
X126925353Y-76758966D01*
X126925076Y-76759144D01*
X126950474Y-76821898D01*
X126937301Y-76891662D01*
X126933846Y-76897474D01*
X126838567Y-77070787D01*
X126836706Y-77076654D01*
X126836705Y-77076656D01*
X126827880Y-77104476D01*
X126778765Y-77259306D01*
X126756719Y-77455851D01*
X126773268Y-77652934D01*
X126827783Y-77843050D01*
X126918187Y-78018956D01*
X126922016Y-78023787D01*
X126923839Y-78026088D01*
X126924414Y-78027509D01*
X126925353Y-78028966D01*
X126925076Y-78029144D01*
X126950474Y-78091898D01*
X126937301Y-78161662D01*
X126933846Y-78167474D01*
X126838567Y-78340787D01*
X126778765Y-78529306D01*
X126756719Y-78725851D01*
X126757235Y-78731995D01*
X126772107Y-78909103D01*
X126773268Y-78922934D01*
X126774967Y-78928858D01*
X126804836Y-79033023D01*
X126827783Y-79113050D01*
X126918187Y-79288956D01*
X127041035Y-79443953D01*
X127045728Y-79447947D01*
X127045729Y-79447948D01*
X127176051Y-79558860D01*
X127191650Y-79572136D01*
X127364294Y-79668624D01*
X127552392Y-79729740D01*
X127748777Y-79753158D01*
X127754912Y-79752686D01*
X127754914Y-79752686D01*
X127939830Y-79738457D01*
X127939834Y-79738456D01*
X127945972Y-79737984D01*
X128136463Y-79684798D01*
X128141967Y-79682018D01*
X128141969Y-79682017D01*
X128307493Y-79598405D01*
X128307495Y-79598404D01*
X128312996Y-79595625D01*
X128317850Y-79591833D01*
X128317859Y-79591827D01*
X128326548Y-79585038D01*
X128392542Y-79558860D01*
X128465592Y-79574339D01*
X128634294Y-79668624D01*
X128822392Y-79729740D01*
X129018777Y-79753158D01*
X129024912Y-79752686D01*
X129024914Y-79752686D01*
X129209830Y-79738457D01*
X129209834Y-79738456D01*
X129215972Y-79737984D01*
X129406463Y-79684798D01*
X129411967Y-79682018D01*
X129411969Y-79682017D01*
X129577495Y-79598404D01*
X129577497Y-79598403D01*
X129582996Y-79595625D01*
X129738847Y-79473861D01*
X129868078Y-79324145D01*
X129965769Y-79152179D01*
X130028197Y-78964513D01*
X130052985Y-78768295D01*
X130053380Y-78740000D01*
X130051392Y-78719726D01*
X130048702Y-78692289D01*
X130061962Y-78622542D01*
X130085006Y-78590899D01*
X131202253Y-77473652D01*
X131210539Y-77466112D01*
X131217018Y-77462000D01*
X131263644Y-77412348D01*
X131266398Y-77409507D01*
X131286135Y-77389770D01*
X131288615Y-77386573D01*
X131296320Y-77377551D01*
X131321159Y-77351100D01*
X131326586Y-77345321D01*
X131330405Y-77338375D01*
X131330407Y-77338372D01*
X131336348Y-77327566D01*
X131347199Y-77311047D01*
X131354758Y-77301301D01*
X131359614Y-77295041D01*
X131362759Y-77287772D01*
X131362762Y-77287768D01*
X131377174Y-77254463D01*
X131382391Y-77243813D01*
X131403695Y-77205060D01*
X131408733Y-77185437D01*
X131415137Y-77166734D01*
X131420033Y-77155420D01*
X131420033Y-77155419D01*
X131423181Y-77148145D01*
X131424420Y-77140322D01*
X131424423Y-77140312D01*
X131430099Y-77104476D01*
X131432505Y-77092856D01*
X131441528Y-77057711D01*
X131441528Y-77057710D01*
X131443500Y-77050030D01*
X131443500Y-77029776D01*
X131445051Y-77010065D01*
X131446980Y-76997886D01*
X131448220Y-76990057D01*
X131444059Y-76946038D01*
X131443500Y-76934181D01*
X131443500Y-61662524D01*
X131463502Y-61594403D01*
X131475858Y-61578221D01*
X131549040Y-61496944D01*
X131644527Y-61331556D01*
X131703542Y-61149928D01*
X131723504Y-60960000D01*
X131703542Y-60770072D01*
X131644527Y-60588444D01*
X131549040Y-60423056D01*
X131503744Y-60372749D01*
X131425675Y-60286045D01*
X131425674Y-60286044D01*
X131421253Y-60281134D01*
X131266752Y-60168882D01*
X131260724Y-60166198D01*
X131260722Y-60166197D01*
X131098319Y-60093891D01*
X131098318Y-60093891D01*
X131092288Y-60091206D01*
X130979721Y-60067279D01*
X130911944Y-60052872D01*
X130911939Y-60052872D01*
X130905487Y-60051500D01*
X130714513Y-60051500D01*
X130708058Y-60052872D01*
X130708049Y-60052873D01*
X130650698Y-60065064D01*
X130579907Y-60059663D01*
X130523274Y-60016847D01*
X130498780Y-59950209D01*
X130498500Y-59941818D01*
X130498500Y-48663768D01*
X130499027Y-48652585D01*
X130500702Y-48645092D01*
X130498562Y-48577001D01*
X130498500Y-48573044D01*
X130498500Y-48545144D01*
X130497996Y-48541153D01*
X130497063Y-48529311D01*
X130496379Y-48507530D01*
X130495674Y-48485111D01*
X130490021Y-48465652D01*
X130486012Y-48446293D01*
X130485203Y-48439889D01*
X130483474Y-48426203D01*
X130480558Y-48418837D01*
X130480556Y-48418831D01*
X130467200Y-48385098D01*
X130463355Y-48373868D01*
X130453230Y-48339017D01*
X130453230Y-48339016D01*
X130451019Y-48331407D01*
X130440705Y-48313966D01*
X130432008Y-48296213D01*
X130427472Y-48284758D01*
X130424552Y-48277383D01*
X130398563Y-48241612D01*
X130392047Y-48231692D01*
X130373578Y-48200463D01*
X130369542Y-48193638D01*
X130355221Y-48179317D01*
X130342380Y-48164283D01*
X130335131Y-48154306D01*
X130330472Y-48147893D01*
X130324368Y-48142843D01*
X130324363Y-48142838D01*
X130296402Y-48119707D01*
X130287621Y-48111717D01*
X129621217Y-47445312D01*
X129587192Y-47383000D01*
X129589755Y-47319590D01*
X129602370Y-47278069D01*
X129631529Y-47056590D01*
X129631688Y-47050091D01*
X129633074Y-46993365D01*
X129633074Y-46993361D01*
X129633156Y-46990000D01*
X129614852Y-46767361D01*
X129560431Y-46550702D01*
X129471354Y-46345840D01*
X129431085Y-46283594D01*
X129352822Y-46162617D01*
X129352820Y-46162614D01*
X129350014Y-46158277D01*
X129346540Y-46154459D01*
X129346533Y-46154450D01*
X129202435Y-45996088D01*
X129171383Y-45932242D01*
X129179779Y-45861744D01*
X129224956Y-45806976D01*
X129251400Y-45793307D01*
X129358052Y-45753325D01*
X129373649Y-45744786D01*
X129475724Y-45668285D01*
X129488285Y-45655724D01*
X129564786Y-45553649D01*
X129573324Y-45538054D01*
X129618478Y-45417606D01*
X129622105Y-45402351D01*
X129627631Y-45351486D01*
X129628000Y-45344672D01*
X129628000Y-44722115D01*
X129623525Y-44706876D01*
X129622135Y-44705671D01*
X129614452Y-44704000D01*
X126932095Y-44704000D01*
X126863974Y-44683998D01*
X126843000Y-44667095D01*
X126385405Y-44209500D01*
X126368141Y-44177885D01*
X126912000Y-44177885D01*
X126916475Y-44193124D01*
X126917865Y-44194329D01*
X126925548Y-44196000D01*
X127997885Y-44196000D01*
X128013124Y-44191525D01*
X128014329Y-44190135D01*
X128016000Y-44182452D01*
X128016000Y-44177885D01*
X128524000Y-44177885D01*
X128528475Y-44193124D01*
X128529865Y-44194329D01*
X128537548Y-44196000D01*
X129609884Y-44196000D01*
X129625123Y-44191525D01*
X129626328Y-44190135D01*
X129627999Y-44182452D01*
X129627999Y-43555331D01*
X129627629Y-43548510D01*
X129622105Y-43497648D01*
X129618479Y-43482396D01*
X129573324Y-43361946D01*
X129564786Y-43346351D01*
X129488285Y-43244276D01*
X129475724Y-43231715D01*
X129373649Y-43155214D01*
X129358054Y-43146676D01*
X129237606Y-43101522D01*
X129222351Y-43097895D01*
X129171486Y-43092369D01*
X129164672Y-43092000D01*
X128542115Y-43092000D01*
X128526876Y-43096475D01*
X128525671Y-43097865D01*
X128524000Y-43105548D01*
X128524000Y-44177885D01*
X128016000Y-44177885D01*
X128016000Y-43110116D01*
X128011525Y-43094877D01*
X128010135Y-43093672D01*
X128002452Y-43092001D01*
X127375331Y-43092001D01*
X127368510Y-43092371D01*
X127317648Y-43097895D01*
X127302396Y-43101521D01*
X127181946Y-43146676D01*
X127166351Y-43155214D01*
X127064276Y-43231715D01*
X127051715Y-43244276D01*
X126975214Y-43346351D01*
X126966676Y-43361946D01*
X126921522Y-43482394D01*
X126917895Y-43497649D01*
X126912369Y-43548514D01*
X126912000Y-43555328D01*
X126912000Y-44177885D01*
X126368141Y-44177885D01*
X126351379Y-44147188D01*
X126348500Y-44120405D01*
X126348500Y-39375427D01*
X126368502Y-39307306D01*
X126409618Y-39267550D01*
X126412994Y-39265896D01*
X126594860Y-39136173D01*
X126753096Y-38978489D01*
X126883453Y-38797077D01*
X126884776Y-38798028D01*
X126931645Y-38754857D01*
X127001580Y-38742625D01*
X127067026Y-38770144D01*
X127094875Y-38801994D01*
X127154987Y-38900088D01*
X127301250Y-39068938D01*
X127473126Y-39211632D01*
X127666000Y-39324338D01*
X127874692Y-39404030D01*
X127879760Y-39405061D01*
X127879763Y-39405062D01*
X127987017Y-39426883D01*
X128093597Y-39448567D01*
X128098772Y-39448757D01*
X128098774Y-39448757D01*
X128311673Y-39456564D01*
X128311677Y-39456564D01*
X128316837Y-39456753D01*
X128321957Y-39456097D01*
X128321959Y-39456097D01*
X128533288Y-39429025D01*
X128533289Y-39429025D01*
X128538416Y-39428368D01*
X128543366Y-39426883D01*
X128747429Y-39365661D01*
X128747434Y-39365659D01*
X128752384Y-39364174D01*
X128952994Y-39265896D01*
X129134860Y-39136173D01*
X129293096Y-38978489D01*
X129423453Y-38797077D01*
X129424776Y-38798028D01*
X129471645Y-38754857D01*
X129541580Y-38742625D01*
X129607026Y-38770144D01*
X129634875Y-38801994D01*
X129694987Y-38900088D01*
X129841250Y-39068938D01*
X130013126Y-39211632D01*
X130206000Y-39324338D01*
X130414692Y-39404030D01*
X130419760Y-39405061D01*
X130419763Y-39405062D01*
X130527017Y-39426883D01*
X130633597Y-39448567D01*
X130638772Y-39448757D01*
X130638774Y-39448757D01*
X130851673Y-39456564D01*
X130851677Y-39456564D01*
X130856837Y-39456753D01*
X130861957Y-39456097D01*
X130861959Y-39456097D01*
X131073288Y-39429025D01*
X131073289Y-39429025D01*
X131078416Y-39428368D01*
X131083366Y-39426883D01*
X131287429Y-39365661D01*
X131287434Y-39365659D01*
X131292384Y-39364174D01*
X131492994Y-39265896D01*
X131674860Y-39136173D01*
X131833096Y-38978489D01*
X131963453Y-38797077D01*
X131984320Y-38754857D01*
X132060136Y-38601453D01*
X132060137Y-38601451D01*
X132062430Y-38596811D01*
X132127370Y-38383069D01*
X132156529Y-38161590D01*
X132158156Y-38095000D01*
X132139852Y-37872361D01*
X132085431Y-37655702D01*
X131996354Y-37450840D01*
X131875014Y-37263277D01*
X131871532Y-37259450D01*
X131727798Y-37101488D01*
X131696746Y-37037642D01*
X131705141Y-36967143D01*
X131750317Y-36912375D01*
X131776761Y-36898706D01*
X131883297Y-36858767D01*
X131891705Y-36855615D01*
X132008261Y-36768261D01*
X132095615Y-36651705D01*
X132146745Y-36515316D01*
X132153500Y-36453134D01*
X132153500Y-34656866D01*
X132146745Y-34594684D01*
X132095615Y-34458295D01*
X132008261Y-34341739D01*
X131891705Y-34254385D01*
X131755316Y-34203255D01*
X131693134Y-34196500D01*
X130384594Y-34196500D01*
X130316473Y-34176498D01*
X130295499Y-34159595D01*
X128905612Y-32769707D01*
X127493652Y-31357747D01*
X127486112Y-31349461D01*
X127482000Y-31342982D01*
X127432348Y-31296356D01*
X127429507Y-31293602D01*
X127409770Y-31273865D01*
X127406573Y-31271385D01*
X127397551Y-31263680D01*
X127371100Y-31238841D01*
X127365321Y-31233414D01*
X127358375Y-31229595D01*
X127358372Y-31229593D01*
X127347566Y-31223652D01*
X127331047Y-31212801D01*
X127330583Y-31212441D01*
X127315041Y-31200386D01*
X127307772Y-31197241D01*
X127307768Y-31197238D01*
X127274463Y-31182826D01*
X127263813Y-31177609D01*
X127225060Y-31156305D01*
X127205437Y-31151267D01*
X127186734Y-31144863D01*
X127175420Y-31139967D01*
X127175419Y-31139967D01*
X127168145Y-31136819D01*
X127160322Y-31135580D01*
X127160312Y-31135577D01*
X127124476Y-31129901D01*
X127112856Y-31127495D01*
X127077711Y-31118472D01*
X127077710Y-31118472D01*
X127070030Y-31116500D01*
X127049776Y-31116500D01*
X127030065Y-31114949D01*
X127017886Y-31113020D01*
X127010057Y-31111780D01*
X127002165Y-31112526D01*
X126966039Y-31115941D01*
X126954181Y-31116500D01*
X120864000Y-31116500D01*
X120795879Y-31096498D01*
X120749386Y-31042842D01*
X120738000Y-30990500D01*
X120738000Y-30752115D01*
X120733525Y-30736876D01*
X120732135Y-30735671D01*
X120724452Y-30734000D01*
X119252000Y-30734000D01*
X119183879Y-30713998D01*
X119137386Y-30660342D01*
X119126000Y-30608000D01*
X119126000Y-30207885D01*
X119634000Y-30207885D01*
X119638475Y-30223124D01*
X119639865Y-30224329D01*
X119647548Y-30226000D01*
X120719884Y-30226000D01*
X120735123Y-30221525D01*
X120736328Y-30220135D01*
X120737999Y-30212452D01*
X120737999Y-29585331D01*
X120737629Y-29578510D01*
X120732105Y-29527648D01*
X120728479Y-29512396D01*
X120683324Y-29391946D01*
X120674786Y-29376351D01*
X120598285Y-29274276D01*
X120585724Y-29261715D01*
X120483649Y-29185214D01*
X120468054Y-29176676D01*
X120357297Y-29135155D01*
X120300533Y-29092513D01*
X120275833Y-29025952D01*
X120291040Y-28956603D01*
X120312587Y-28927922D01*
X120414057Y-28826805D01*
X120420730Y-28818965D01*
X120545003Y-28646020D01*
X120550313Y-28637183D01*
X120644670Y-28446267D01*
X120648469Y-28436672D01*
X120710377Y-28232910D01*
X120712555Y-28222837D01*
X120713986Y-28211962D01*
X120711775Y-28197778D01*
X120698617Y-28194000D01*
X119652115Y-28194000D01*
X119636876Y-28198475D01*
X119635671Y-28199865D01*
X119634000Y-28207548D01*
X119634000Y-30207885D01*
X119126000Y-30207885D01*
X119126000Y-27667885D01*
X119634000Y-27667885D01*
X119638475Y-27683124D01*
X119639865Y-27684329D01*
X119647548Y-27686000D01*
X120698344Y-27686000D01*
X120711875Y-27682027D01*
X120713180Y-27672947D01*
X120671214Y-27505875D01*
X120667894Y-27496124D01*
X120582972Y-27300814D01*
X120578105Y-27291739D01*
X120462426Y-27112926D01*
X120456136Y-27104757D01*
X120312806Y-26947240D01*
X120305273Y-26940215D01*
X120138139Y-26808222D01*
X120129552Y-26802517D01*
X119943117Y-26699599D01*
X119933705Y-26695369D01*
X119732959Y-26624280D01*
X119722988Y-26621646D01*
X119651837Y-26608972D01*
X119638540Y-26610432D01*
X119634000Y-26624989D01*
X119634000Y-27667885D01*
X119126000Y-27667885D01*
X119126000Y-26623102D01*
X119122082Y-26609758D01*
X119107806Y-26607771D01*
X119069324Y-26613660D01*
X119059288Y-26616051D01*
X118856868Y-26682212D01*
X118847359Y-26686209D01*
X118658463Y-26784542D01*
X118649738Y-26790036D01*
X118479433Y-26917905D01*
X118471726Y-26924748D01*
X118324590Y-27078717D01*
X118318109Y-27086722D01*
X118213498Y-27240074D01*
X118158587Y-27285076D01*
X118088062Y-27293247D01*
X118024315Y-27261993D01*
X118003618Y-27237509D01*
X117922822Y-27112617D01*
X117922820Y-27112614D01*
X117920014Y-27108277D01*
X117769670Y-26943051D01*
X117765619Y-26939852D01*
X117765615Y-26939848D01*
X117598414Y-26807800D01*
X117598410Y-26807798D01*
X117594359Y-26804598D01*
X117589831Y-26802098D01*
X117537945Y-26773456D01*
X117398789Y-26696638D01*
X117393920Y-26694914D01*
X117393916Y-26694912D01*
X117193087Y-26623795D01*
X117193083Y-26623794D01*
X117188212Y-26622069D01*
X117183119Y-26621162D01*
X117183116Y-26621161D01*
X116973373Y-26583800D01*
X116973367Y-26583799D01*
X116968284Y-26582894D01*
X116894452Y-26581992D01*
X116750081Y-26580228D01*
X116750079Y-26580228D01*
X116744911Y-26580165D01*
X116524091Y-26613955D01*
X116311756Y-26683357D01*
X116234853Y-26723390D01*
X116137975Y-26773822D01*
X116113607Y-26786507D01*
X116109474Y-26789610D01*
X116109471Y-26789612D01*
X116085247Y-26807800D01*
X115934965Y-26920635D01*
X115780629Y-27082138D01*
X115673201Y-27239621D01*
X115618293Y-27284621D01*
X115547768Y-27292792D01*
X115484021Y-27261538D01*
X115463324Y-27237054D01*
X115382822Y-27112617D01*
X115382820Y-27112614D01*
X115380014Y-27108277D01*
X115229670Y-26943051D01*
X115225619Y-26939852D01*
X115225615Y-26939848D01*
X115058414Y-26807800D01*
X115058410Y-26807798D01*
X115054359Y-26804598D01*
X115049835Y-26802101D01*
X115049831Y-26802098D01*
X114998608Y-26773822D01*
X114948636Y-26723390D01*
X114933500Y-26663513D01*
X114933500Y-22860000D01*
X125826411Y-22860000D01*
X125846754Y-23248176D01*
X125847267Y-23251416D01*
X125847268Y-23251424D01*
X125861735Y-23342763D01*
X125907562Y-23632099D01*
X126008167Y-24007562D01*
X126147468Y-24370453D01*
X126148966Y-24373393D01*
X126295625Y-24661226D01*
X126323938Y-24716794D01*
X126325734Y-24719560D01*
X126325736Y-24719563D01*
X126415734Y-24858148D01*
X126535643Y-25042793D01*
X126780266Y-25344876D01*
X127055124Y-25619734D01*
X127357207Y-25864357D01*
X127359970Y-25866152D01*
X127359971Y-25866152D01*
X127670483Y-26067800D01*
X127683205Y-26076062D01*
X127686139Y-26077557D01*
X127686146Y-26077561D01*
X128002190Y-26238593D01*
X128029547Y-26252532D01*
X128392438Y-26391833D01*
X128767901Y-26492438D01*
X128971793Y-26524732D01*
X129148576Y-26552732D01*
X129148584Y-26552733D01*
X129151824Y-26553246D01*
X129540000Y-26573589D01*
X129928176Y-26553246D01*
X129931416Y-26552733D01*
X129931424Y-26552732D01*
X130108207Y-26524732D01*
X130312099Y-26492438D01*
X130687562Y-26391833D01*
X131050453Y-26252532D01*
X131077810Y-26238593D01*
X131393854Y-26077561D01*
X131393861Y-26077557D01*
X131396795Y-26076062D01*
X131409518Y-26067800D01*
X131720029Y-25866152D01*
X131720030Y-25866152D01*
X131722793Y-25864357D01*
X132024876Y-25619734D01*
X132299734Y-25344876D01*
X132544357Y-25042793D01*
X132664266Y-24858148D01*
X132754264Y-24719563D01*
X132754266Y-24719560D01*
X132756062Y-24716794D01*
X132784376Y-24661226D01*
X132931034Y-24373393D01*
X132932532Y-24370453D01*
X133071833Y-24007562D01*
X133172438Y-23632099D01*
X133218265Y-23342763D01*
X133232732Y-23251424D01*
X133232733Y-23251416D01*
X133233246Y-23248176D01*
X133253589Y-22860000D01*
X133233246Y-22471824D01*
X133172438Y-22087901D01*
X133071833Y-21712438D01*
X132932532Y-21349547D01*
X132865732Y-21218444D01*
X132757561Y-21006147D01*
X132757557Y-21006140D01*
X132756062Y-21003206D01*
X132693749Y-20907251D01*
X132546152Y-20679971D01*
X132546152Y-20679970D01*
X132544357Y-20677207D01*
X132299734Y-20375124D01*
X132024876Y-20100266D01*
X131722793Y-19855643D01*
X131720029Y-19853848D01*
X131399564Y-19645736D01*
X131399561Y-19645734D01*
X131396795Y-19643938D01*
X131393861Y-19642443D01*
X131393854Y-19642439D01*
X131053393Y-19468966D01*
X131050453Y-19467468D01*
X130687562Y-19328167D01*
X130312099Y-19227562D01*
X130108207Y-19195268D01*
X129931424Y-19167268D01*
X129931416Y-19167267D01*
X129928176Y-19166754D01*
X129540000Y-19146411D01*
X129151824Y-19166754D01*
X129148584Y-19167267D01*
X129148576Y-19167268D01*
X128971793Y-19195268D01*
X128767901Y-19227562D01*
X128392438Y-19328167D01*
X128029547Y-19467468D01*
X128026607Y-19468966D01*
X127686147Y-19642439D01*
X127686140Y-19642443D01*
X127683206Y-19643938D01*
X127680440Y-19645734D01*
X127680437Y-19645736D01*
X127468982Y-19783056D01*
X127357207Y-19855643D01*
X127055124Y-20100266D01*
X126780266Y-20375124D01*
X126535643Y-20677207D01*
X126533848Y-20679970D01*
X126533848Y-20679971D01*
X126386252Y-20907251D01*
X126323938Y-21003206D01*
X126322443Y-21006140D01*
X126322439Y-21006147D01*
X126214268Y-21218444D01*
X126147468Y-21349547D01*
X126008167Y-21712438D01*
X125907562Y-22087901D01*
X125846754Y-22471824D01*
X125826411Y-22860000D01*
X114933500Y-22860000D01*
X114933500Y-21022524D01*
X114953502Y-20954403D01*
X114965858Y-20938221D01*
X115039040Y-20856944D01*
X115134527Y-20691556D01*
X115193542Y-20509928D01*
X115213504Y-20320000D01*
X115193542Y-20130072D01*
X115134527Y-19948444D01*
X115039040Y-19783056D01*
X114911253Y-19641134D01*
X114756752Y-19528882D01*
X114750724Y-19526198D01*
X114750722Y-19526197D01*
X114588319Y-19453891D01*
X114588318Y-19453891D01*
X114582288Y-19451206D01*
X114488888Y-19431353D01*
X114401944Y-19412872D01*
X114401939Y-19412872D01*
X114395487Y-19411500D01*
X114204513Y-19411500D01*
X114198061Y-19412872D01*
X114198056Y-19412872D01*
X114111113Y-19431353D01*
X114017712Y-19451206D01*
X114011682Y-19453891D01*
X114011681Y-19453891D01*
X113849278Y-19526197D01*
X113849276Y-19526198D01*
X113843248Y-19528882D01*
X113688747Y-19641134D01*
X113560960Y-19783056D01*
X113465473Y-19948444D01*
X113406458Y-20130072D01*
X113386496Y-20320000D01*
X113406458Y-20509928D01*
X113465473Y-20691556D01*
X113560960Y-20856944D01*
X113634137Y-20938215D01*
X113664853Y-21002221D01*
X113666500Y-21022524D01*
X113666500Y-26661692D01*
X113646498Y-26729813D01*
X113598683Y-26773453D01*
X113573607Y-26786507D01*
X113569474Y-26789610D01*
X113569471Y-26789612D01*
X113545247Y-26807800D01*
X113394965Y-26920635D01*
X113240629Y-27082138D01*
X113133201Y-27239621D01*
X113078293Y-27284621D01*
X113007768Y-27292792D01*
X112944021Y-27261538D01*
X112923324Y-27237054D01*
X112842822Y-27112617D01*
X112842820Y-27112614D01*
X112840014Y-27108277D01*
X112689670Y-26943051D01*
X112685619Y-26939852D01*
X112685615Y-26939848D01*
X112518414Y-26807800D01*
X112518410Y-26807798D01*
X112514359Y-26804598D01*
X112509835Y-26802101D01*
X112509831Y-26802098D01*
X112458608Y-26773822D01*
X112408636Y-26723390D01*
X112393500Y-26663513D01*
X112393500Y-22292524D01*
X112413502Y-22224403D01*
X112425858Y-22208221D01*
X112499040Y-22126944D01*
X112594527Y-21961556D01*
X112653542Y-21779928D01*
X112660636Y-21712438D01*
X112672814Y-21596565D01*
X112673504Y-21590000D01*
X112653542Y-21400072D01*
X112594527Y-21218444D01*
X112499040Y-21053056D01*
X112371253Y-20911134D01*
X112216752Y-20798882D01*
X112210724Y-20796198D01*
X112210722Y-20796197D01*
X112048319Y-20723891D01*
X112048318Y-20723891D01*
X112042288Y-20721206D01*
X111929721Y-20697279D01*
X111861944Y-20682872D01*
X111861939Y-20682872D01*
X111855487Y-20681500D01*
X111664513Y-20681500D01*
X111658061Y-20682872D01*
X111658056Y-20682872D01*
X111590279Y-20697279D01*
X111477712Y-20721206D01*
X111471682Y-20723891D01*
X111471681Y-20723891D01*
X111309278Y-20796197D01*
X111309276Y-20796198D01*
X111303248Y-20798882D01*
X111148747Y-20911134D01*
X111020960Y-21053056D01*
X110925473Y-21218444D01*
X110866458Y-21400072D01*
X110846496Y-21590000D01*
X110847186Y-21596565D01*
X110859365Y-21712438D01*
X110866458Y-21779928D01*
X110925473Y-21961556D01*
X111020960Y-22126944D01*
X111094137Y-22208215D01*
X111124853Y-22272221D01*
X111126500Y-22292524D01*
X111126500Y-26661692D01*
X111106498Y-26729813D01*
X111058683Y-26773453D01*
X111033607Y-26786507D01*
X111029474Y-26789610D01*
X111029471Y-26789612D01*
X111005247Y-26807800D01*
X110854965Y-26920635D01*
X110700629Y-27082138D01*
X110593201Y-27239621D01*
X110538293Y-27284621D01*
X110467768Y-27292792D01*
X110404021Y-27261538D01*
X110383324Y-27237054D01*
X110302822Y-27112617D01*
X110302820Y-27112614D01*
X110300014Y-27108277D01*
X110149670Y-26943051D01*
X110145619Y-26939852D01*
X110145615Y-26939848D01*
X109978414Y-26807800D01*
X109978410Y-26807798D01*
X109974359Y-26804598D01*
X109969835Y-26802101D01*
X109969831Y-26802098D01*
X109918608Y-26773822D01*
X109868636Y-26723390D01*
X109853500Y-26663513D01*
X109853500Y-23562524D01*
X109873502Y-23494403D01*
X109885858Y-23478221D01*
X109959040Y-23396944D01*
X110043056Y-23251424D01*
X110051223Y-23237279D01*
X110051224Y-23237278D01*
X110054527Y-23231556D01*
X110113542Y-23049928D01*
X110133504Y-22860000D01*
X110113542Y-22670072D01*
X110054527Y-22488444D01*
X110044932Y-22471824D01*
X109962341Y-22328774D01*
X109959040Y-22323056D01*
X109831253Y-22181134D01*
X109676752Y-22068882D01*
X109670724Y-22066198D01*
X109670722Y-22066197D01*
X109508319Y-21993891D01*
X109508318Y-21993891D01*
X109502288Y-21991206D01*
X109389721Y-21967279D01*
X109321944Y-21952872D01*
X109321939Y-21952872D01*
X109315487Y-21951500D01*
X109124513Y-21951500D01*
X109118061Y-21952872D01*
X109118056Y-21952872D01*
X109050279Y-21967279D01*
X108937712Y-21991206D01*
X108931682Y-21993891D01*
X108931681Y-21993891D01*
X108769278Y-22066197D01*
X108769276Y-22066198D01*
X108763248Y-22068882D01*
X108608747Y-22181134D01*
X108480960Y-22323056D01*
X108477659Y-22328774D01*
X108395069Y-22471824D01*
X108385473Y-22488444D01*
X108326458Y-22670072D01*
X108306496Y-22860000D01*
X108326458Y-23049928D01*
X108385473Y-23231556D01*
X108388776Y-23237278D01*
X108388777Y-23237279D01*
X108396944Y-23251424D01*
X108480960Y-23396944D01*
X108554137Y-23478215D01*
X108584853Y-23542221D01*
X108586500Y-23562524D01*
X108586500Y-26661692D01*
X108566498Y-26729813D01*
X108518683Y-26773453D01*
X108493607Y-26786507D01*
X108489474Y-26789610D01*
X108489471Y-26789612D01*
X108465247Y-26807800D01*
X108314965Y-26920635D01*
X108160629Y-27082138D01*
X108053201Y-27239621D01*
X107998293Y-27284621D01*
X107927768Y-27292792D01*
X107864021Y-27261538D01*
X107843324Y-27237054D01*
X107762822Y-27112617D01*
X107762820Y-27112614D01*
X107760014Y-27108277D01*
X107609670Y-26943051D01*
X107605619Y-26939852D01*
X107605615Y-26939848D01*
X107438414Y-26807800D01*
X107438410Y-26807798D01*
X107434359Y-26804598D01*
X107429835Y-26802101D01*
X107429831Y-26802098D01*
X107378608Y-26773822D01*
X107328636Y-26723390D01*
X107313500Y-26663513D01*
X107313500Y-24832524D01*
X107333502Y-24764403D01*
X107345858Y-24748221D01*
X107419040Y-24666944D01*
X107477314Y-24566010D01*
X107511223Y-24507279D01*
X107511224Y-24507278D01*
X107514527Y-24501556D01*
X107573542Y-24319928D01*
X107593504Y-24130000D01*
X107580960Y-24010652D01*
X107574232Y-23946635D01*
X107574232Y-23946633D01*
X107573542Y-23940072D01*
X107514527Y-23758444D01*
X107419040Y-23593056D01*
X107291253Y-23451134D01*
X107136752Y-23338882D01*
X107130724Y-23336198D01*
X107130722Y-23336197D01*
X106968319Y-23263891D01*
X106968318Y-23263891D01*
X106962288Y-23261206D01*
X106849721Y-23237279D01*
X106781944Y-23222872D01*
X106781939Y-23222872D01*
X106775487Y-23221500D01*
X106584513Y-23221500D01*
X106578061Y-23222872D01*
X106578056Y-23222872D01*
X106510279Y-23237279D01*
X106397712Y-23261206D01*
X106391682Y-23263891D01*
X106391681Y-23263891D01*
X106229278Y-23336197D01*
X106229276Y-23336198D01*
X106223248Y-23338882D01*
X106068747Y-23451134D01*
X105940960Y-23593056D01*
X105845473Y-23758444D01*
X105786458Y-23940072D01*
X105785768Y-23946633D01*
X105785768Y-23946635D01*
X105779040Y-24010652D01*
X105766496Y-24130000D01*
X105786458Y-24319928D01*
X105845473Y-24501556D01*
X105848776Y-24507278D01*
X105848777Y-24507279D01*
X105882686Y-24566010D01*
X105940960Y-24666944D01*
X106014137Y-24748215D01*
X106044853Y-24812221D01*
X106046500Y-24832524D01*
X106046500Y-26661692D01*
X106026498Y-26729813D01*
X105978683Y-26773453D01*
X105953607Y-26786507D01*
X105949474Y-26789610D01*
X105949471Y-26789612D01*
X105925247Y-26807800D01*
X105774965Y-26920635D01*
X105620629Y-27082138D01*
X105494743Y-27266680D01*
X105478899Y-27300814D01*
X105412278Y-27444337D01*
X105400688Y-27469305D01*
X105340989Y-27684570D01*
X105317251Y-27906695D01*
X105330110Y-28129715D01*
X105331247Y-28134761D01*
X105331248Y-28134767D01*
X105338174Y-28165499D01*
X105379222Y-28347639D01*
X105463266Y-28554616D01*
X105513863Y-28637183D01*
X105577291Y-28740688D01*
X105579987Y-28745088D01*
X105726250Y-28913938D01*
X105898126Y-29056632D01*
X105930456Y-29075524D01*
X105971445Y-29099476D01*
X106020169Y-29151114D01*
X106033240Y-29220897D01*
X106006509Y-29286669D01*
X105966055Y-29320027D01*
X105953607Y-29326507D01*
X105949474Y-29329610D01*
X105949471Y-29329612D01*
X105866450Y-29391946D01*
X105774965Y-29460635D01*
X105620629Y-29622138D01*
X105494743Y-29806680D01*
X105400688Y-30009305D01*
X105340989Y-30224570D01*
X105317251Y-30446695D01*
X105330110Y-30669715D01*
X105331247Y-30674761D01*
X105331248Y-30674767D01*
X105345606Y-30738475D01*
X105379222Y-30887639D01*
X105463266Y-31094616D01*
X105501069Y-31156305D01*
X105577291Y-31280688D01*
X105579987Y-31285088D01*
X105726250Y-31453938D01*
X105898126Y-31596632D01*
X105902593Y-31599242D01*
X105984070Y-31646853D01*
X106032794Y-31698491D01*
X106046500Y-31755641D01*
X106046500Y-41207476D01*
X106026498Y-41275597D01*
X106014142Y-41291779D01*
X105940960Y-41373056D01*
X105845473Y-41538444D01*
X105786458Y-41720072D01*
X105766496Y-41910000D01*
X105786458Y-42099928D01*
X105845473Y-42281556D01*
X105848776Y-42287278D01*
X105848777Y-42287279D01*
X105882686Y-42346010D01*
X105940960Y-42446944D01*
X105945375Y-42451847D01*
X105945379Y-42451852D01*
X105986732Y-42497779D01*
X106068747Y-42588866D01*
X106223248Y-42701118D01*
X106229276Y-42703802D01*
X106229278Y-42703803D01*
X106391681Y-42776109D01*
X106397712Y-42778794D01*
X106491113Y-42798647D01*
X106578056Y-42817128D01*
X106578061Y-42817128D01*
X106584513Y-42818500D01*
X106775487Y-42818500D01*
X106781939Y-42817128D01*
X106781944Y-42817128D01*
X106868887Y-42798647D01*
X106962288Y-42778794D01*
X106968319Y-42776109D01*
X107130722Y-42703803D01*
X107130724Y-42703802D01*
X107136752Y-42701118D01*
X107291253Y-42588866D01*
X107373268Y-42497779D01*
X107414621Y-42451852D01*
X107414625Y-42451847D01*
X107419040Y-42446944D01*
X107477314Y-42346010D01*
X107511223Y-42287279D01*
X107511224Y-42287278D01*
X107514527Y-42281556D01*
X107573542Y-42099928D01*
X107593504Y-41910000D01*
X107573542Y-41720072D01*
X107514527Y-41538444D01*
X107419040Y-41373056D01*
X107345863Y-41291785D01*
X107315147Y-41227779D01*
X107313500Y-41207476D01*
X107313500Y-31760427D01*
X107333502Y-31692306D01*
X107374618Y-31652550D01*
X107377994Y-31650896D01*
X107559860Y-31521173D01*
X107718096Y-31363489D01*
X107726710Y-31351502D01*
X107848453Y-31182077D01*
X107849776Y-31183028D01*
X107896645Y-31139857D01*
X107966580Y-31127625D01*
X108032026Y-31155144D01*
X108059875Y-31186994D01*
X108119987Y-31285088D01*
X108266250Y-31453938D01*
X108438126Y-31596632D01*
X108442593Y-31599242D01*
X108524070Y-31646853D01*
X108572794Y-31698491D01*
X108586500Y-31755641D01*
X108586500Y-42477476D01*
X108566498Y-42545597D01*
X108554142Y-42561779D01*
X108480960Y-42643056D01*
X108385473Y-42808444D01*
X108326458Y-42990072D01*
X108306496Y-43180000D01*
X108326458Y-43369928D01*
X108328498Y-43376206D01*
X108339746Y-43410824D01*
X108341774Y-43481791D01*
X108305111Y-43542589D01*
X108241399Y-43573915D01*
X108193716Y-43573007D01*
X108051944Y-43542872D01*
X108051939Y-43542872D01*
X108045487Y-43541500D01*
X107854513Y-43541500D01*
X107848061Y-43542872D01*
X107848056Y-43542872D01*
X107780279Y-43557279D01*
X107667712Y-43581206D01*
X107661682Y-43583891D01*
X107661681Y-43583891D01*
X107499278Y-43656197D01*
X107499276Y-43656198D01*
X107493248Y-43658882D01*
X107487907Y-43662762D01*
X107487906Y-43662763D01*
X107476464Y-43671076D01*
X107338747Y-43771134D01*
X107334326Y-43776044D01*
X107334325Y-43776045D01*
X107256257Y-43862749D01*
X107210960Y-43913056D01*
X107207659Y-43918774D01*
X107151144Y-44016661D01*
X107115473Y-44078444D01*
X107056458Y-44260072D01*
X107036496Y-44450000D01*
X107056458Y-44639928D01*
X107115473Y-44821556D01*
X107118776Y-44827278D01*
X107118777Y-44827279D01*
X107131799Y-44849834D01*
X107210960Y-44986944D01*
X107284137Y-45068215D01*
X107314853Y-45132221D01*
X107316500Y-45152524D01*
X107316500Y-55976996D01*
X107296498Y-56045117D01*
X107262771Y-56080209D01*
X107134730Y-56169864D01*
X107134727Y-56169866D01*
X107130219Y-56173023D01*
X106973023Y-56330219D01*
X106845512Y-56512324D01*
X106843189Y-56517306D01*
X106843186Y-56517311D01*
X106794195Y-56622373D01*
X106747277Y-56675658D01*
X106679000Y-56695119D01*
X106611040Y-56674577D01*
X106565805Y-56622373D01*
X106516814Y-56517311D01*
X106516811Y-56517306D01*
X106514488Y-56512324D01*
X106386977Y-56330219D01*
X106229781Y-56173023D01*
X106225273Y-56169866D01*
X106225270Y-56169864D01*
X106097229Y-56080209D01*
X106052901Y-56024752D01*
X106043500Y-55976996D01*
X106043500Y-46422524D01*
X106063502Y-46354403D01*
X106075858Y-46338221D01*
X106149040Y-46256944D01*
X106244527Y-46091556D01*
X106303542Y-45909928D01*
X106305847Y-45888002D01*
X106322814Y-45726565D01*
X106323504Y-45720000D01*
X106320571Y-45692094D01*
X106304232Y-45536635D01*
X106304232Y-45536633D01*
X106303542Y-45530072D01*
X106244527Y-45348444D01*
X106208857Y-45286661D01*
X106152341Y-45188774D01*
X106149040Y-45183056D01*
X106021253Y-45041134D01*
X105866752Y-44928882D01*
X105860724Y-44926198D01*
X105860722Y-44926197D01*
X105698319Y-44853891D01*
X105698318Y-44853891D01*
X105692288Y-44851206D01*
X105575407Y-44826362D01*
X105511944Y-44812872D01*
X105511939Y-44812872D01*
X105505487Y-44811500D01*
X105314513Y-44811500D01*
X105308061Y-44812872D01*
X105308056Y-44812872D01*
X105244593Y-44826362D01*
X105127712Y-44851206D01*
X105121682Y-44853891D01*
X105121681Y-44853891D01*
X104959278Y-44926197D01*
X104959276Y-44926198D01*
X104953248Y-44928882D01*
X104798747Y-45041134D01*
X104670960Y-45183056D01*
X104667659Y-45188774D01*
X104611144Y-45286661D01*
X104575473Y-45348444D01*
X104516458Y-45530072D01*
X104515768Y-45536633D01*
X104515768Y-45536635D01*
X104499429Y-45692094D01*
X104496496Y-45720000D01*
X104497186Y-45726565D01*
X104514154Y-45888002D01*
X104516458Y-45909928D01*
X104575473Y-46091556D01*
X104670960Y-46256944D01*
X104744137Y-46338215D01*
X104774853Y-46402221D01*
X104776500Y-46422524D01*
X104776500Y-55976996D01*
X104756498Y-56045117D01*
X104722771Y-56080209D01*
X104594730Y-56169864D01*
X104594727Y-56169866D01*
X104590219Y-56173023D01*
X104433023Y-56330219D01*
X104305512Y-56512324D01*
X104303189Y-56517306D01*
X104303186Y-56517311D01*
X104254195Y-56622373D01*
X104207277Y-56675658D01*
X104139000Y-56695119D01*
X104071040Y-56674577D01*
X104025805Y-56622373D01*
X103976814Y-56517311D01*
X103976811Y-56517306D01*
X103974488Y-56512324D01*
X103846977Y-56330219D01*
X103689781Y-56173023D01*
X103685273Y-56169866D01*
X103685270Y-56169864D01*
X103557229Y-56080209D01*
X103507677Y-56045512D01*
X103502695Y-56043189D01*
X103502690Y-56043186D01*
X103311178Y-55953883D01*
X103311177Y-55953882D01*
X103306196Y-55951560D01*
X103300888Y-55950138D01*
X103300886Y-55950137D01*
X103235051Y-55932497D01*
X103091463Y-55894022D01*
X102870000Y-55874647D01*
X102648537Y-55894022D01*
X102504949Y-55932497D01*
X102439114Y-55950137D01*
X102439112Y-55950138D01*
X102433804Y-55951560D01*
X102428822Y-55953883D01*
X102428817Y-55953885D01*
X102412751Y-55961377D01*
X102342560Y-55972039D01*
X102277747Y-55943060D01*
X102238890Y-55883641D01*
X102233500Y-55847183D01*
X102233500Y-41342524D01*
X102253502Y-41274403D01*
X102265858Y-41258221D01*
X102339040Y-41176944D01*
X102434527Y-41011556D01*
X102493542Y-40829928D01*
X102513504Y-40640000D01*
X102493542Y-40450072D01*
X102434527Y-40268444D01*
X102339040Y-40103056D01*
X102211253Y-39961134D01*
X102112157Y-39889136D01*
X102062094Y-39852763D01*
X102062093Y-39852762D01*
X102056752Y-39848882D01*
X102050724Y-39846198D01*
X102050722Y-39846197D01*
X101888319Y-39773891D01*
X101888318Y-39773891D01*
X101882288Y-39771206D01*
X101788888Y-39751353D01*
X101701944Y-39732872D01*
X101701939Y-39732872D01*
X101695487Y-39731500D01*
X101504513Y-39731500D01*
X101498061Y-39732872D01*
X101498056Y-39732872D01*
X101411112Y-39751353D01*
X101317712Y-39771206D01*
X101311682Y-39773891D01*
X101311681Y-39773891D01*
X101149278Y-39846197D01*
X101149276Y-39846198D01*
X101143248Y-39848882D01*
X101137907Y-39852762D01*
X101137906Y-39852763D01*
X101087843Y-39889136D01*
X100988747Y-39961134D01*
X100860960Y-40103056D01*
X100765473Y-40268444D01*
X100706458Y-40450072D01*
X100686496Y-40640000D01*
X100706458Y-40829928D01*
X100765473Y-41011556D01*
X100860960Y-41176944D01*
X100934137Y-41258215D01*
X100964853Y-41322221D01*
X100966500Y-41342524D01*
X100966500Y-55847183D01*
X100946498Y-55915304D01*
X100892842Y-55961797D01*
X100822568Y-55971901D01*
X100787249Y-55961377D01*
X100771183Y-55953885D01*
X100771178Y-55953883D01*
X100766196Y-55951560D01*
X100760888Y-55950138D01*
X100760886Y-55950137D01*
X100695051Y-55932497D01*
X100551463Y-55894022D01*
X100330000Y-55874647D01*
X100108537Y-55894022D01*
X99964949Y-55932497D01*
X99899114Y-55950137D01*
X99899112Y-55950138D01*
X99893804Y-55951560D01*
X99888822Y-55953883D01*
X99888817Y-55953885D01*
X99872751Y-55961377D01*
X99802560Y-55972039D01*
X99737747Y-55943060D01*
X99698890Y-55883641D01*
X99693500Y-55847183D01*
X99693500Y-33722524D01*
X99713502Y-33654403D01*
X99725858Y-33638221D01*
X99799040Y-33556944D01*
X99870931Y-33432425D01*
X99891223Y-33397279D01*
X99891224Y-33397278D01*
X99894527Y-33391556D01*
X99953542Y-33209928D01*
X99966157Y-33089908D01*
X99972814Y-33026565D01*
X99973504Y-33020000D01*
X99953542Y-32830072D01*
X99894527Y-32648444D01*
X99799040Y-32483056D01*
X99709400Y-32383500D01*
X99675675Y-32346045D01*
X99675674Y-32346044D01*
X99671253Y-32341134D01*
X99516752Y-32228882D01*
X99510724Y-32226198D01*
X99510722Y-32226197D01*
X99348319Y-32153891D01*
X99348318Y-32153891D01*
X99342288Y-32151206D01*
X99248887Y-32131353D01*
X99161944Y-32112872D01*
X99161939Y-32112872D01*
X99155487Y-32111500D01*
X98964513Y-32111500D01*
X98958061Y-32112872D01*
X98958056Y-32112872D01*
X98871113Y-32131353D01*
X98777712Y-32151206D01*
X98771682Y-32153891D01*
X98771681Y-32153891D01*
X98609278Y-32226197D01*
X98609276Y-32226198D01*
X98603248Y-32228882D01*
X98448747Y-32341134D01*
X98444326Y-32346044D01*
X98444325Y-32346045D01*
X98410601Y-32383500D01*
X98320960Y-32483056D01*
X98225473Y-32648444D01*
X98166458Y-32830072D01*
X98146496Y-33020000D01*
X98147186Y-33026565D01*
X98153844Y-33089908D01*
X98166458Y-33209928D01*
X98225473Y-33391556D01*
X98228776Y-33397278D01*
X98228777Y-33397279D01*
X98249069Y-33432425D01*
X98320960Y-33556944D01*
X98394137Y-33638215D01*
X98424853Y-33702221D01*
X98426500Y-33722524D01*
X98426500Y-48625218D01*
X98406498Y-48693339D01*
X98352842Y-48739832D01*
X98282568Y-48749936D01*
X98247270Y-48737718D01*
X98246752Y-48738882D01*
X98078319Y-48663891D01*
X98078318Y-48663891D01*
X98072288Y-48661206D01*
X97959185Y-48637165D01*
X97891944Y-48622872D01*
X97891939Y-48622872D01*
X97885487Y-48621500D01*
X97694513Y-48621500D01*
X97688061Y-48622872D01*
X97688056Y-48622872D01*
X97620815Y-48637165D01*
X97507712Y-48661206D01*
X97501682Y-48663891D01*
X97501681Y-48663891D01*
X97339278Y-48736197D01*
X97339276Y-48736198D01*
X97333248Y-48738882D01*
X97327907Y-48742762D01*
X97327906Y-48742763D01*
X97314233Y-48752697D01*
X97178747Y-48851134D01*
X97050960Y-48993056D01*
X97047659Y-48998774D01*
X96991144Y-49096661D01*
X96955473Y-49158444D01*
X96896458Y-49340072D01*
X96876496Y-49530000D01*
X96896458Y-49719928D01*
X96955473Y-49901556D01*
X96958776Y-49907278D01*
X96958777Y-49907279D01*
X96992686Y-49966010D01*
X97050960Y-50066944D01*
X97124137Y-50148215D01*
X97154853Y-50212221D01*
X97156500Y-50232524D01*
X97156500Y-55976996D01*
X97136498Y-56045117D01*
X97102771Y-56080209D01*
X96974730Y-56169864D01*
X96974727Y-56169866D01*
X96970219Y-56173023D01*
X96813023Y-56330219D01*
X96685512Y-56512324D01*
X96683189Y-56517306D01*
X96683186Y-56517311D01*
X96634195Y-56622373D01*
X96587277Y-56675658D01*
X96519000Y-56695119D01*
X96451040Y-56674577D01*
X96405805Y-56622373D01*
X96356814Y-56517311D01*
X96356811Y-56517306D01*
X96354488Y-56512324D01*
X96226977Y-56330219D01*
X96069781Y-56173023D01*
X96065273Y-56169866D01*
X96065270Y-56169864D01*
X95937229Y-56080209D01*
X95892901Y-56024752D01*
X95883500Y-55976996D01*
X95883500Y-47692524D01*
X95903502Y-47624403D01*
X95915858Y-47608221D01*
X95989040Y-47526944D01*
X96047314Y-47426010D01*
X96081223Y-47367279D01*
X96081224Y-47367278D01*
X96084527Y-47361556D01*
X96143542Y-47179928D01*
X96163504Y-46990000D01*
X96153005Y-46890110D01*
X96144232Y-46806635D01*
X96144232Y-46806633D01*
X96143542Y-46800072D01*
X96084527Y-46618444D01*
X96073092Y-46598637D01*
X96011358Y-46491712D01*
X95989040Y-46453056D01*
X95976435Y-46439056D01*
X95865675Y-46316045D01*
X95865674Y-46316044D01*
X95861253Y-46311134D01*
X95762157Y-46239136D01*
X95712094Y-46202763D01*
X95712093Y-46202762D01*
X95706752Y-46198882D01*
X95700724Y-46196198D01*
X95700722Y-46196197D01*
X95538319Y-46123891D01*
X95538318Y-46123891D01*
X95532288Y-46121206D01*
X95419721Y-46097279D01*
X95351944Y-46082872D01*
X95351939Y-46082872D01*
X95345487Y-46081500D01*
X95154513Y-46081500D01*
X95148061Y-46082872D01*
X95148056Y-46082872D01*
X95080279Y-46097279D01*
X94967712Y-46121206D01*
X94961682Y-46123891D01*
X94961681Y-46123891D01*
X94884449Y-46158277D01*
X94793248Y-46198882D01*
X94792323Y-46196804D01*
X94733512Y-46211076D01*
X94666419Y-46187859D01*
X94622528Y-46132055D01*
X94613500Y-46085218D01*
X94613500Y-43882524D01*
X94633502Y-43814403D01*
X94645858Y-43798221D01*
X94719040Y-43716944D01*
X94777314Y-43616010D01*
X94811223Y-43557279D01*
X94811224Y-43557278D01*
X94814527Y-43551556D01*
X94873542Y-43369928D01*
X94893504Y-43180000D01*
X94873542Y-42990072D01*
X94814527Y-42808444D01*
X94719040Y-42643056D01*
X94673744Y-42592749D01*
X94595675Y-42506045D01*
X94595674Y-42506044D01*
X94591253Y-42501134D01*
X94453536Y-42401076D01*
X94442094Y-42392763D01*
X94442093Y-42392762D01*
X94436752Y-42388882D01*
X94430724Y-42386198D01*
X94430722Y-42386197D01*
X94268319Y-42313891D01*
X94268318Y-42313891D01*
X94262288Y-42311206D01*
X94149721Y-42287279D01*
X94081944Y-42272872D01*
X94081939Y-42272872D01*
X94075487Y-42271500D01*
X93884513Y-42271500D01*
X93878061Y-42272872D01*
X93878056Y-42272872D01*
X93810279Y-42287279D01*
X93697712Y-42311206D01*
X93691682Y-42313891D01*
X93691681Y-42313891D01*
X93529278Y-42386197D01*
X93529276Y-42386198D01*
X93523248Y-42388882D01*
X93517907Y-42392762D01*
X93517906Y-42392763D01*
X93506464Y-42401076D01*
X93368747Y-42501134D01*
X93364326Y-42506044D01*
X93364325Y-42506045D01*
X93286257Y-42592749D01*
X93240960Y-42643056D01*
X93145473Y-42808444D01*
X93086458Y-42990072D01*
X93066496Y-43180000D01*
X93086458Y-43369928D01*
X93145473Y-43551556D01*
X93148776Y-43557278D01*
X93148777Y-43557279D01*
X93182686Y-43616010D01*
X93240960Y-43716944D01*
X93314137Y-43798215D01*
X93344853Y-43862221D01*
X93346500Y-43882524D01*
X93346500Y-47355218D01*
X93326498Y-47423339D01*
X93272842Y-47469832D01*
X93202568Y-47479936D01*
X93167270Y-47467718D01*
X93166752Y-47468882D01*
X92998319Y-47393891D01*
X92998318Y-47393891D01*
X92992288Y-47391206D01*
X92879721Y-47367279D01*
X92811944Y-47352872D01*
X92811939Y-47352872D01*
X92805487Y-47351500D01*
X92614513Y-47351500D01*
X92608061Y-47352872D01*
X92608056Y-47352872D01*
X92540279Y-47367279D01*
X92427712Y-47391206D01*
X92421682Y-47393891D01*
X92421681Y-47393891D01*
X92355540Y-47423339D01*
X92253248Y-47468882D01*
X92252323Y-47466804D01*
X92193512Y-47481076D01*
X92126419Y-47457859D01*
X92082528Y-47402055D01*
X92073500Y-47355218D01*
X92073500Y-42612524D01*
X92093502Y-42544403D01*
X92105858Y-42528221D01*
X92179040Y-42446944D01*
X92237314Y-42346010D01*
X92271223Y-42287279D01*
X92271224Y-42287278D01*
X92274527Y-42281556D01*
X92333542Y-42099928D01*
X92353504Y-41910000D01*
X92333542Y-41720072D01*
X92274527Y-41538444D01*
X92179040Y-41373056D01*
X92166662Y-41359309D01*
X92135946Y-41295303D01*
X92144710Y-41224850D01*
X92166661Y-41190693D01*
X92179040Y-41176944D01*
X92274527Y-41011556D01*
X92333542Y-40829928D01*
X92353504Y-40640000D01*
X92333542Y-40450072D01*
X92274527Y-40268444D01*
X92179040Y-40103056D01*
X92105863Y-40021785D01*
X92075147Y-39957779D01*
X92073500Y-39937476D01*
X92073500Y-31760427D01*
X92093502Y-31692306D01*
X92134618Y-31652550D01*
X92137994Y-31650896D01*
X92319860Y-31521173D01*
X92478096Y-31363489D01*
X92486710Y-31351502D01*
X92608453Y-31182077D01*
X92609776Y-31183028D01*
X92656645Y-31139857D01*
X92726580Y-31127625D01*
X92792026Y-31155144D01*
X92819875Y-31186994D01*
X92879987Y-31285088D01*
X93026250Y-31453938D01*
X93198126Y-31596632D01*
X93391000Y-31709338D01*
X93599692Y-31789030D01*
X93604760Y-31790061D01*
X93604763Y-31790062D01*
X93683436Y-31806068D01*
X93818597Y-31833567D01*
X93823772Y-31833757D01*
X93823774Y-31833757D01*
X94036673Y-31841564D01*
X94036677Y-31841564D01*
X94041837Y-31841753D01*
X94046957Y-31841097D01*
X94046959Y-31841097D01*
X94258288Y-31814025D01*
X94258289Y-31814025D01*
X94263416Y-31813368D01*
X94287748Y-31806068D01*
X94472429Y-31750661D01*
X94472434Y-31750659D01*
X94477384Y-31749174D01*
X94677994Y-31650896D01*
X94859860Y-31521173D01*
X94927331Y-31453938D01*
X94968479Y-31412933D01*
X95030851Y-31379017D01*
X95101658Y-31384205D01*
X95158419Y-31426851D01*
X95175401Y-31457954D01*
X95216676Y-31568054D01*
X95225214Y-31583649D01*
X95301715Y-31685724D01*
X95314276Y-31698285D01*
X95416351Y-31774786D01*
X95431946Y-31783324D01*
X95552394Y-31828478D01*
X95567649Y-31832105D01*
X95618514Y-31837631D01*
X95625328Y-31838000D01*
X96247885Y-31838000D01*
X96263124Y-31833525D01*
X96264329Y-31832135D01*
X96266000Y-31824452D01*
X96266000Y-31819884D01*
X96774000Y-31819884D01*
X96778475Y-31835123D01*
X96779865Y-31836328D01*
X96787548Y-31837999D01*
X97414669Y-31837999D01*
X97421490Y-31837629D01*
X97472352Y-31832105D01*
X97487604Y-31828479D01*
X97608054Y-31783324D01*
X97623649Y-31774786D01*
X97725724Y-31698285D01*
X97738285Y-31685724D01*
X97814786Y-31583649D01*
X97823324Y-31568054D01*
X97868478Y-31447606D01*
X97872105Y-31432351D01*
X97877631Y-31381486D01*
X97878000Y-31374672D01*
X97878000Y-30752115D01*
X97873525Y-30736876D01*
X97872135Y-30735671D01*
X97864452Y-30734000D01*
X96792115Y-30734000D01*
X96776876Y-30738475D01*
X96775671Y-30739865D01*
X96774000Y-30747548D01*
X96774000Y-31819884D01*
X96266000Y-31819884D01*
X96266000Y-30207885D01*
X96774000Y-30207885D01*
X96778475Y-30223124D01*
X96779865Y-30224329D01*
X96787548Y-30226000D01*
X97859884Y-30226000D01*
X97875123Y-30221525D01*
X97876328Y-30220135D01*
X97877999Y-30212452D01*
X97877999Y-29585331D01*
X97877629Y-29578510D01*
X97872105Y-29527648D01*
X97868479Y-29512396D01*
X97823324Y-29391946D01*
X97814786Y-29376351D01*
X97738285Y-29274276D01*
X97725724Y-29261715D01*
X97623649Y-29185214D01*
X97608054Y-29176676D01*
X97497297Y-29135155D01*
X97440533Y-29092513D01*
X97415833Y-29025952D01*
X97431040Y-28956603D01*
X97452587Y-28927922D01*
X97554057Y-28826805D01*
X97560730Y-28818965D01*
X97685003Y-28646020D01*
X97690313Y-28637183D01*
X97784670Y-28446267D01*
X97788469Y-28436672D01*
X97850377Y-28232910D01*
X97852555Y-28222837D01*
X97853986Y-28211962D01*
X97851775Y-28197778D01*
X97838617Y-28194000D01*
X96792115Y-28194000D01*
X96776876Y-28198475D01*
X96775671Y-28199865D01*
X96774000Y-28207548D01*
X96774000Y-30207885D01*
X96266000Y-30207885D01*
X96266000Y-27667885D01*
X96774000Y-27667885D01*
X96778475Y-27683124D01*
X96779865Y-27684329D01*
X96787548Y-27686000D01*
X97838344Y-27686000D01*
X97851875Y-27682027D01*
X97853180Y-27672947D01*
X97811214Y-27505875D01*
X97807894Y-27496124D01*
X97722972Y-27300814D01*
X97718105Y-27291739D01*
X97602426Y-27112926D01*
X97596136Y-27104757D01*
X97452806Y-26947240D01*
X97445273Y-26940215D01*
X97278139Y-26808222D01*
X97269552Y-26802517D01*
X97083117Y-26699599D01*
X97073705Y-26695369D01*
X96872959Y-26624280D01*
X96862988Y-26621646D01*
X96791837Y-26608972D01*
X96778540Y-26610432D01*
X96774000Y-26624989D01*
X96774000Y-27667885D01*
X96266000Y-27667885D01*
X96266000Y-26623102D01*
X96262082Y-26609758D01*
X96247806Y-26607771D01*
X96209324Y-26613660D01*
X96199288Y-26616051D01*
X95996868Y-26682212D01*
X95987359Y-26686209D01*
X95798463Y-26784542D01*
X95789738Y-26790036D01*
X95619433Y-26917905D01*
X95611726Y-26924748D01*
X95464590Y-27078717D01*
X95458109Y-27086722D01*
X95353498Y-27240074D01*
X95298587Y-27285076D01*
X95228062Y-27293247D01*
X95164315Y-27261993D01*
X95143618Y-27237509D01*
X95062822Y-27112617D01*
X95062820Y-27112614D01*
X95060014Y-27108277D01*
X94909670Y-26943051D01*
X94905619Y-26939852D01*
X94905615Y-26939848D01*
X94738414Y-26807800D01*
X94738410Y-26807798D01*
X94734359Y-26804598D01*
X94729831Y-26802098D01*
X94677945Y-26773456D01*
X94538789Y-26696638D01*
X94533920Y-26694914D01*
X94533916Y-26694912D01*
X94333087Y-26623795D01*
X94333083Y-26623794D01*
X94328212Y-26622069D01*
X94323119Y-26621162D01*
X94323116Y-26621161D01*
X94113373Y-26583800D01*
X94113367Y-26583799D01*
X94108284Y-26582894D01*
X94034452Y-26581992D01*
X93890081Y-26580228D01*
X93890079Y-26580228D01*
X93884911Y-26580165D01*
X93664091Y-26613955D01*
X93451756Y-26683357D01*
X93374853Y-26723390D01*
X93277975Y-26773822D01*
X93253607Y-26786507D01*
X93249474Y-26789610D01*
X93249471Y-26789612D01*
X93225247Y-26807800D01*
X93074965Y-26920635D01*
X92920629Y-27082138D01*
X92813201Y-27239621D01*
X92758293Y-27284621D01*
X92687768Y-27292792D01*
X92624021Y-27261538D01*
X92603324Y-27237054D01*
X92522822Y-27112617D01*
X92522820Y-27112614D01*
X92520014Y-27108277D01*
X92369670Y-26943051D01*
X92365619Y-26939852D01*
X92365615Y-26939848D01*
X92198414Y-26807800D01*
X92198410Y-26807798D01*
X92194359Y-26804598D01*
X92189835Y-26802101D01*
X92189831Y-26802098D01*
X92138608Y-26773822D01*
X92088636Y-26723390D01*
X92073500Y-26663513D01*
X92073500Y-26102524D01*
X92093502Y-26034403D01*
X92105858Y-26018221D01*
X92179040Y-25936944D01*
X92274527Y-25771556D01*
X92333542Y-25589928D01*
X92353504Y-25400000D01*
X92333542Y-25210072D01*
X92274527Y-25028444D01*
X92179040Y-24863056D01*
X92051253Y-24721134D01*
X91913536Y-24621076D01*
X91902094Y-24612763D01*
X91902093Y-24612762D01*
X91896752Y-24608882D01*
X91890724Y-24606198D01*
X91890722Y-24606197D01*
X91728319Y-24533891D01*
X91728318Y-24533891D01*
X91722288Y-24531206D01*
X91609721Y-24507279D01*
X91541944Y-24492872D01*
X91541939Y-24492872D01*
X91535487Y-24491500D01*
X91344513Y-24491500D01*
X91338061Y-24492872D01*
X91338056Y-24492872D01*
X91270279Y-24507279D01*
X91157712Y-24531206D01*
X91151682Y-24533891D01*
X91151681Y-24533891D01*
X90989278Y-24606197D01*
X90989276Y-24606198D01*
X90983248Y-24608882D01*
X90977907Y-24612762D01*
X90977906Y-24612763D01*
X90966464Y-24621076D01*
X90828747Y-24721134D01*
X90700960Y-24863056D01*
X90605473Y-25028444D01*
X90546458Y-25210072D01*
X90526496Y-25400000D01*
X90546458Y-25589928D01*
X90605473Y-25771556D01*
X90700960Y-25936944D01*
X90774137Y-26018215D01*
X90804853Y-26082221D01*
X90806500Y-26102524D01*
X90806500Y-26661692D01*
X90786498Y-26729813D01*
X90738683Y-26773453D01*
X90713607Y-26786507D01*
X90709474Y-26789610D01*
X90709471Y-26789612D01*
X90685247Y-26807800D01*
X90534965Y-26920635D01*
X90380629Y-27082138D01*
X90273201Y-27239621D01*
X90218293Y-27284621D01*
X90147768Y-27292792D01*
X90084021Y-27261538D01*
X90063324Y-27237054D01*
X89982822Y-27112617D01*
X89982820Y-27112614D01*
X89980014Y-27108277D01*
X89829670Y-26943051D01*
X89825619Y-26939852D01*
X89825615Y-26939848D01*
X89658414Y-26807800D01*
X89658410Y-26807798D01*
X89654359Y-26804598D01*
X89649831Y-26802098D01*
X89597945Y-26773456D01*
X89458789Y-26696638D01*
X89453920Y-26694914D01*
X89453916Y-26694912D01*
X89253087Y-26623795D01*
X89253083Y-26623794D01*
X89248212Y-26622069D01*
X89243119Y-26621162D01*
X89243116Y-26621161D01*
X89033373Y-26583800D01*
X89033367Y-26583799D01*
X89028284Y-26582894D01*
X88954452Y-26581992D01*
X88810081Y-26580228D01*
X88810079Y-26580228D01*
X88804911Y-26580165D01*
X88584091Y-26613955D01*
X88571532Y-26618060D01*
X88500568Y-26620210D01*
X88443294Y-26587389D01*
X88133652Y-26277747D01*
X88126112Y-26269461D01*
X88122000Y-26262982D01*
X88072348Y-26216356D01*
X88069507Y-26213602D01*
X88049770Y-26193865D01*
X88046573Y-26191385D01*
X88037551Y-26183680D01*
X88024116Y-26171064D01*
X88005321Y-26153414D01*
X87998375Y-26149595D01*
X87998372Y-26149593D01*
X87987566Y-26143652D01*
X87971047Y-26132801D01*
X87970583Y-26132441D01*
X87955041Y-26120386D01*
X87947772Y-26117241D01*
X87947768Y-26117238D01*
X87914463Y-26102826D01*
X87903813Y-26097609D01*
X87865060Y-26076305D01*
X87845437Y-26071267D01*
X87826734Y-26064863D01*
X87815420Y-26059967D01*
X87815419Y-26059967D01*
X87808145Y-26056819D01*
X87800322Y-26055580D01*
X87800312Y-26055577D01*
X87764476Y-26049901D01*
X87752856Y-26047495D01*
X87717711Y-26038472D01*
X87717710Y-26038472D01*
X87710030Y-26036500D01*
X87689776Y-26036500D01*
X87670065Y-26034949D01*
X87657886Y-26033020D01*
X87650057Y-26031780D01*
X87620786Y-26034547D01*
X87606039Y-26035941D01*
X87594181Y-26036500D01*
X82628767Y-26036500D01*
X82617584Y-26035973D01*
X82610091Y-26034298D01*
X82602165Y-26034547D01*
X82602164Y-26034547D01*
X82542014Y-26036438D01*
X82538055Y-26036500D01*
X82510144Y-26036500D01*
X82506210Y-26036997D01*
X82506209Y-26036997D01*
X82506144Y-26037005D01*
X82494307Y-26037938D01*
X82462490Y-26038938D01*
X82458029Y-26039078D01*
X82450110Y-26039327D01*
X82432454Y-26044456D01*
X82430658Y-26044978D01*
X82411306Y-26048986D01*
X82404235Y-26049880D01*
X82391203Y-26051526D01*
X82383834Y-26054443D01*
X82383832Y-26054444D01*
X82350097Y-26067800D01*
X82338869Y-26071645D01*
X82296407Y-26083982D01*
X82289585Y-26088016D01*
X82289579Y-26088019D01*
X82278968Y-26094294D01*
X82261218Y-26102990D01*
X82249756Y-26107528D01*
X82249751Y-26107531D01*
X82242383Y-26110448D01*
X82224970Y-26123099D01*
X82206625Y-26136427D01*
X82196707Y-26142943D01*
X82185463Y-26149593D01*
X82158637Y-26165458D01*
X82144313Y-26179782D01*
X82129281Y-26192621D01*
X82112893Y-26204528D01*
X82084712Y-26238593D01*
X82076722Y-26247373D01*
X80887747Y-27436348D01*
X80879461Y-27443888D01*
X80872982Y-27448000D01*
X80867557Y-27453777D01*
X80861351Y-27460386D01*
X80800138Y-27496352D01*
X80729198Y-27493515D01*
X80671054Y-27452775D01*
X80644165Y-27387067D01*
X80643500Y-27374134D01*
X80643500Y-21022524D01*
X80663502Y-20954403D01*
X80675858Y-20938221D01*
X80749040Y-20856944D01*
X80844527Y-20691556D01*
X80903542Y-20509928D01*
X80923504Y-20320000D01*
X80903542Y-20130072D01*
X80844527Y-19948444D01*
X80749040Y-19783056D01*
X80621253Y-19641134D01*
X80466752Y-19528882D01*
X80460724Y-19526198D01*
X80460722Y-19526197D01*
X80298319Y-19453891D01*
X80298318Y-19453891D01*
X80292288Y-19451206D01*
X80198888Y-19431353D01*
X80111944Y-19412872D01*
X80111939Y-19412872D01*
X80105487Y-19411500D01*
X79914513Y-19411500D01*
X79908061Y-19412872D01*
X79908056Y-19412872D01*
X79821113Y-19431353D01*
X79727712Y-19451206D01*
X79721682Y-19453891D01*
X79721681Y-19453891D01*
X79559278Y-19526197D01*
X79559276Y-19526198D01*
X79553248Y-19528882D01*
X79398747Y-19641134D01*
X79270960Y-19783056D01*
X79175473Y-19948444D01*
X79116458Y-20130072D01*
X79096496Y-20320000D01*
X79116458Y-20509928D01*
X79175473Y-20691556D01*
X79270960Y-20856944D01*
X79344137Y-20938215D01*
X79374853Y-21002221D01*
X79376500Y-21022524D01*
X79376500Y-24495218D01*
X79356498Y-24563339D01*
X79302842Y-24609832D01*
X79232568Y-24619936D01*
X79197270Y-24607718D01*
X79196752Y-24608882D01*
X79028319Y-24533891D01*
X79028318Y-24533891D01*
X79022288Y-24531206D01*
X78909721Y-24507279D01*
X78841944Y-24492872D01*
X78841939Y-24492872D01*
X78835487Y-24491500D01*
X78644513Y-24491500D01*
X78638061Y-24492872D01*
X78638056Y-24492872D01*
X78570279Y-24507279D01*
X78457712Y-24531206D01*
X78451682Y-24533891D01*
X78451681Y-24533891D01*
X78385540Y-24563339D01*
X78283248Y-24608882D01*
X78282323Y-24606804D01*
X78223512Y-24621076D01*
X78156419Y-24597859D01*
X78112528Y-24542055D01*
X78103500Y-24495218D01*
X78103500Y-23562524D01*
X78123502Y-23494403D01*
X78135858Y-23478221D01*
X78209040Y-23396944D01*
X78293056Y-23251424D01*
X78301223Y-23237279D01*
X78301224Y-23237278D01*
X78304527Y-23231556D01*
X78363542Y-23049928D01*
X78383504Y-22860000D01*
X78363542Y-22670072D01*
X78304527Y-22488444D01*
X78294932Y-22471824D01*
X78212341Y-22328774D01*
X78209040Y-22323056D01*
X78081253Y-22181134D01*
X77926752Y-22068882D01*
X77920724Y-22066198D01*
X77920722Y-22066197D01*
X77758319Y-21993891D01*
X77758318Y-21993891D01*
X77752288Y-21991206D01*
X77639721Y-21967279D01*
X77571944Y-21952872D01*
X77571939Y-21952872D01*
X77565487Y-21951500D01*
X77374513Y-21951500D01*
X77368061Y-21952872D01*
X77368056Y-21952872D01*
X77300279Y-21967279D01*
X77187712Y-21991206D01*
X77181682Y-21993891D01*
X77181681Y-21993891D01*
X77019278Y-22066197D01*
X77019276Y-22066198D01*
X77013248Y-22068882D01*
X76858747Y-22181134D01*
X76730960Y-22323056D01*
X76727659Y-22328774D01*
X76645069Y-22471824D01*
X76635473Y-22488444D01*
X76576458Y-22670072D01*
X76556496Y-22860000D01*
X76576458Y-23049928D01*
X76578498Y-23056206D01*
X76589746Y-23090824D01*
X76591774Y-23161791D01*
X76555111Y-23222589D01*
X76491399Y-23253915D01*
X76443716Y-23253007D01*
X76301944Y-23222872D01*
X76301939Y-23222872D01*
X76295487Y-23221500D01*
X76104513Y-23221500D01*
X76098061Y-23222872D01*
X76098056Y-23222872D01*
X76030279Y-23237279D01*
X75917712Y-23261206D01*
X75911682Y-23263891D01*
X75911681Y-23263891D01*
X75749278Y-23336197D01*
X75749276Y-23336198D01*
X75743248Y-23338882D01*
X75588747Y-23451134D01*
X75460960Y-23593056D01*
X75365473Y-23758444D01*
X75306458Y-23940072D01*
X75305768Y-23946633D01*
X75305768Y-23946635D01*
X75299040Y-24010652D01*
X75286496Y-24130000D01*
X75306458Y-24319928D01*
X75365473Y-24501556D01*
X75368776Y-24507278D01*
X75368777Y-24507279D01*
X75402686Y-24566010D01*
X75460960Y-24666944D01*
X75534137Y-24748215D01*
X75564853Y-24812221D01*
X75566500Y-24832524D01*
X75566500Y-52435218D01*
X75546498Y-52503339D01*
X75492842Y-52549832D01*
X75422568Y-52559936D01*
X75387270Y-52547718D01*
X75386752Y-52548882D01*
X75218319Y-52473891D01*
X75218318Y-52473891D01*
X75212288Y-52471206D01*
X75099721Y-52447279D01*
X75031944Y-52432872D01*
X75031939Y-52432872D01*
X75025487Y-52431500D01*
X74834513Y-52431500D01*
X74828061Y-52432872D01*
X74828056Y-52432872D01*
X74760279Y-52447279D01*
X74647712Y-52471206D01*
X74641682Y-52473891D01*
X74641681Y-52473891D01*
X74606016Y-52489770D01*
X74473248Y-52548882D01*
X74472323Y-52546804D01*
X74413512Y-52561076D01*
X74346419Y-52537859D01*
X74302528Y-52482055D01*
X74293500Y-52435218D01*
X74293500Y-46422524D01*
X74313502Y-46354403D01*
X74325858Y-46338221D01*
X74399040Y-46256944D01*
X74494527Y-46091556D01*
X74553542Y-45909928D01*
X74555847Y-45888002D01*
X74572814Y-45726565D01*
X74573504Y-45720000D01*
X74570571Y-45692094D01*
X74554232Y-45536635D01*
X74554232Y-45536633D01*
X74553542Y-45530072D01*
X74494527Y-45348444D01*
X74458857Y-45286661D01*
X74402341Y-45188774D01*
X74399040Y-45183056D01*
X74271253Y-45041134D01*
X74116752Y-44928882D01*
X74110724Y-44926198D01*
X74110722Y-44926197D01*
X73948319Y-44853891D01*
X73948318Y-44853891D01*
X73942288Y-44851206D01*
X73825407Y-44826362D01*
X73761944Y-44812872D01*
X73761939Y-44812872D01*
X73755487Y-44811500D01*
X73564513Y-44811500D01*
X73558061Y-44812872D01*
X73558056Y-44812872D01*
X73494593Y-44826362D01*
X73377712Y-44851206D01*
X73371682Y-44853891D01*
X73371681Y-44853891D01*
X73330767Y-44872107D01*
X73203248Y-44928882D01*
X73202323Y-44926804D01*
X73143512Y-44941076D01*
X73076419Y-44917859D01*
X73032528Y-44862055D01*
X73023500Y-44815218D01*
X73023500Y-31964000D01*
X73043502Y-31895879D01*
X73097158Y-31849386D01*
X73149500Y-31838000D01*
X73387885Y-31838000D01*
X73403124Y-31833525D01*
X73404329Y-31832135D01*
X73406000Y-31824452D01*
X73406000Y-31819884D01*
X73914000Y-31819884D01*
X73918475Y-31835123D01*
X73919865Y-31836328D01*
X73927548Y-31837999D01*
X74554669Y-31837999D01*
X74561490Y-31837629D01*
X74612352Y-31832105D01*
X74627604Y-31828479D01*
X74748054Y-31783324D01*
X74763649Y-31774786D01*
X74865724Y-31698285D01*
X74878285Y-31685724D01*
X74954786Y-31583649D01*
X74963324Y-31568054D01*
X75008478Y-31447606D01*
X75012105Y-31432351D01*
X75017631Y-31381486D01*
X75018000Y-31374672D01*
X75018000Y-30752115D01*
X75013525Y-30736876D01*
X75012135Y-30735671D01*
X75004452Y-30734000D01*
X73932115Y-30734000D01*
X73916876Y-30738475D01*
X73915671Y-30739865D01*
X73914000Y-30747548D01*
X73914000Y-31819884D01*
X73406000Y-31819884D01*
X73406000Y-30207885D01*
X73914000Y-30207885D01*
X73918475Y-30223124D01*
X73919865Y-30224329D01*
X73927548Y-30226000D01*
X74999884Y-30226000D01*
X75015123Y-30221525D01*
X75016328Y-30220135D01*
X75017999Y-30212452D01*
X75017999Y-29585331D01*
X75017629Y-29578510D01*
X75012105Y-29527648D01*
X75008479Y-29512396D01*
X74963324Y-29391946D01*
X74954786Y-29376351D01*
X74878285Y-29274276D01*
X74865724Y-29261715D01*
X74763649Y-29185214D01*
X74748054Y-29176676D01*
X74637297Y-29135155D01*
X74580533Y-29092513D01*
X74555833Y-29025952D01*
X74571040Y-28956603D01*
X74592587Y-28927922D01*
X74694057Y-28826805D01*
X74700730Y-28818965D01*
X74825003Y-28646020D01*
X74830313Y-28637183D01*
X74924670Y-28446267D01*
X74928469Y-28436672D01*
X74990377Y-28232910D01*
X74992555Y-28222837D01*
X74993986Y-28211962D01*
X74991775Y-28197778D01*
X74978617Y-28194000D01*
X73932115Y-28194000D01*
X73916876Y-28198475D01*
X73915671Y-28199865D01*
X73914000Y-28207548D01*
X73914000Y-30207885D01*
X73406000Y-30207885D01*
X73406000Y-27667885D01*
X73914000Y-27667885D01*
X73918475Y-27683124D01*
X73919865Y-27684329D01*
X73927548Y-27686000D01*
X74978344Y-27686000D01*
X74991875Y-27682027D01*
X74993180Y-27672947D01*
X74951214Y-27505875D01*
X74947894Y-27496124D01*
X74862972Y-27300814D01*
X74858105Y-27291739D01*
X74742426Y-27112926D01*
X74736136Y-27104757D01*
X74592806Y-26947240D01*
X74585273Y-26940215D01*
X74418139Y-26808222D01*
X74409552Y-26802517D01*
X74223117Y-26699599D01*
X74213705Y-26695369D01*
X74012959Y-26624280D01*
X74002988Y-26621646D01*
X73931837Y-26608972D01*
X73918540Y-26610432D01*
X73914000Y-26624989D01*
X73914000Y-27667885D01*
X73406000Y-27667885D01*
X73406000Y-26623102D01*
X73402082Y-26609758D01*
X73387806Y-26607771D01*
X73349324Y-26613660D01*
X73339288Y-26616051D01*
X73188645Y-26665288D01*
X73117681Y-26667439D01*
X73056819Y-26630882D01*
X73025383Y-26567225D01*
X73023500Y-26545523D01*
X73023500Y-22292524D01*
X73043502Y-22224403D01*
X73055858Y-22208221D01*
X73129040Y-22126944D01*
X73224527Y-21961556D01*
X73283542Y-21779928D01*
X73290636Y-21712438D01*
X73302814Y-21596565D01*
X73303504Y-21590000D01*
X73283542Y-21400072D01*
X73224527Y-21218444D01*
X73129040Y-21053056D01*
X73001253Y-20911134D01*
X72846752Y-20798882D01*
X72840724Y-20796198D01*
X72840722Y-20796197D01*
X72678319Y-20723891D01*
X72678318Y-20723891D01*
X72672288Y-20721206D01*
X72559721Y-20697279D01*
X72491944Y-20682872D01*
X72491939Y-20682872D01*
X72485487Y-20681500D01*
X72294513Y-20681500D01*
X72288061Y-20682872D01*
X72288056Y-20682872D01*
X72220279Y-20697279D01*
X72107712Y-20721206D01*
X72101682Y-20723891D01*
X72101681Y-20723891D01*
X71939278Y-20796197D01*
X71939276Y-20796198D01*
X71933248Y-20798882D01*
X71778747Y-20911134D01*
X71650960Y-21053056D01*
X71555473Y-21218444D01*
X71496458Y-21400072D01*
X71476496Y-21590000D01*
X71477186Y-21596565D01*
X71489365Y-21712438D01*
X71496458Y-21779928D01*
X71555473Y-21961556D01*
X71650960Y-22126944D01*
X71724137Y-22208215D01*
X71754853Y-22272221D01*
X71756500Y-22292524D01*
X71756500Y-26545871D01*
X71736498Y-26613992D01*
X71682842Y-26660485D01*
X71612568Y-26670589D01*
X71588440Y-26664644D01*
X71585247Y-26663513D01*
X71524761Y-26642094D01*
X71473087Y-26623795D01*
X71473083Y-26623794D01*
X71468212Y-26622069D01*
X71463119Y-26621162D01*
X71463116Y-26621161D01*
X71253373Y-26583800D01*
X71253367Y-26583799D01*
X71248284Y-26582894D01*
X71174452Y-26581992D01*
X71030081Y-26580228D01*
X71030079Y-26580228D01*
X71024911Y-26580165D01*
X70804091Y-26613955D01*
X70591756Y-26683357D01*
X70514853Y-26723390D01*
X70417975Y-26773822D01*
X70393607Y-26786507D01*
X70389474Y-26789610D01*
X70389471Y-26789612D01*
X70365247Y-26807800D01*
X70214965Y-26920635D01*
X70060629Y-27082138D01*
X69953201Y-27239621D01*
X69898293Y-27284621D01*
X69827768Y-27292792D01*
X69764021Y-27261538D01*
X69743324Y-27237054D01*
X69662822Y-27112617D01*
X69662820Y-27112614D01*
X69660014Y-27108277D01*
X69509670Y-26943051D01*
X69505619Y-26939852D01*
X69505615Y-26939848D01*
X69338414Y-26807800D01*
X69338410Y-26807798D01*
X69334359Y-26804598D01*
X69329831Y-26802098D01*
X69277945Y-26773456D01*
X69138789Y-26696638D01*
X69133920Y-26694914D01*
X69133916Y-26694912D01*
X68933087Y-26623795D01*
X68933083Y-26623794D01*
X68928212Y-26622069D01*
X68923119Y-26621162D01*
X68923116Y-26621161D01*
X68713373Y-26583800D01*
X68713367Y-26583799D01*
X68708284Y-26582894D01*
X68634452Y-26581992D01*
X68490081Y-26580228D01*
X68490079Y-26580228D01*
X68484911Y-26580165D01*
X68264091Y-26613955D01*
X68051756Y-26683357D01*
X67974853Y-26723390D01*
X67877975Y-26773822D01*
X67853607Y-26786507D01*
X67849474Y-26789610D01*
X67849471Y-26789612D01*
X67825247Y-26807800D01*
X67674965Y-26920635D01*
X67520629Y-27082138D01*
X67413201Y-27239621D01*
X67358293Y-27284621D01*
X67287768Y-27292792D01*
X67224021Y-27261538D01*
X67203324Y-27237054D01*
X67122822Y-27112617D01*
X67122820Y-27112614D01*
X67120014Y-27108277D01*
X66969670Y-26943051D01*
X66965619Y-26939852D01*
X66965615Y-26939848D01*
X66798414Y-26807800D01*
X66798410Y-26807798D01*
X66794359Y-26804598D01*
X66789831Y-26802098D01*
X66737945Y-26773456D01*
X66598789Y-26696638D01*
X66593920Y-26694914D01*
X66593916Y-26694912D01*
X66393087Y-26623795D01*
X66393083Y-26623794D01*
X66388212Y-26622069D01*
X66383119Y-26621162D01*
X66383116Y-26621161D01*
X66173373Y-26583800D01*
X66173367Y-26583799D01*
X66168284Y-26582894D01*
X66094452Y-26581992D01*
X65950081Y-26580228D01*
X65950079Y-26580228D01*
X65944911Y-26580165D01*
X65724091Y-26613955D01*
X65511756Y-26683357D01*
X65434853Y-26723390D01*
X65337975Y-26773822D01*
X65313607Y-26786507D01*
X65309474Y-26789610D01*
X65309471Y-26789612D01*
X65285247Y-26807800D01*
X65134965Y-26920635D01*
X64980629Y-27082138D01*
X64873201Y-27239621D01*
X64818293Y-27284621D01*
X64747768Y-27292792D01*
X64684021Y-27261538D01*
X64663324Y-27237054D01*
X64582822Y-27112617D01*
X64582820Y-27112614D01*
X64580014Y-27108277D01*
X64429670Y-26943051D01*
X64425619Y-26939852D01*
X64425615Y-26939848D01*
X64258414Y-26807800D01*
X64258410Y-26807798D01*
X64254359Y-26804598D01*
X64249831Y-26802098D01*
X64197945Y-26773456D01*
X64058789Y-26696638D01*
X64053920Y-26694914D01*
X64053916Y-26694912D01*
X63853087Y-26623795D01*
X63853083Y-26623794D01*
X63848212Y-26622069D01*
X63843119Y-26621162D01*
X63843116Y-26621161D01*
X63633373Y-26583800D01*
X63633367Y-26583799D01*
X63628284Y-26582894D01*
X63554452Y-26581992D01*
X63410081Y-26580228D01*
X63410079Y-26580228D01*
X63404911Y-26580165D01*
X63184091Y-26613955D01*
X62971756Y-26683357D01*
X62894853Y-26723390D01*
X62797975Y-26773822D01*
X62773607Y-26786507D01*
X62769474Y-26789610D01*
X62769471Y-26789612D01*
X62745247Y-26807800D01*
X62594965Y-26920635D01*
X62440629Y-27082138D01*
X62333201Y-27239621D01*
X62278293Y-27284621D01*
X62207768Y-27292792D01*
X62144021Y-27261538D01*
X62123324Y-27237054D01*
X62042822Y-27112617D01*
X62042820Y-27112614D01*
X62040014Y-27108277D01*
X61889670Y-26943051D01*
X61885619Y-26939852D01*
X61885615Y-26939848D01*
X61718414Y-26807800D01*
X61718410Y-26807798D01*
X61714359Y-26804598D01*
X61709831Y-26802098D01*
X61657945Y-26773456D01*
X61518789Y-26696638D01*
X61513920Y-26694914D01*
X61513916Y-26694912D01*
X61313087Y-26623795D01*
X61313083Y-26623794D01*
X61308212Y-26622069D01*
X61303119Y-26621162D01*
X61303116Y-26621161D01*
X61093373Y-26583800D01*
X61093367Y-26583799D01*
X61088284Y-26582894D01*
X61014452Y-26581992D01*
X60870081Y-26580228D01*
X60870079Y-26580228D01*
X60864911Y-26580165D01*
X60644091Y-26613955D01*
X60431756Y-26683357D01*
X60354853Y-26723390D01*
X60257975Y-26773822D01*
X60233607Y-26786507D01*
X60229474Y-26789610D01*
X60229471Y-26789612D01*
X60205247Y-26807800D01*
X60054965Y-26920635D01*
X59900629Y-27082138D01*
X59774743Y-27266680D01*
X59758899Y-27300814D01*
X59692278Y-27444337D01*
X59680688Y-27469305D01*
X59620989Y-27684570D01*
X59597251Y-27906695D01*
X59610110Y-28129715D01*
X59611247Y-28134761D01*
X59611248Y-28134767D01*
X59643453Y-28277668D01*
X59638917Y-28348520D01*
X59609631Y-28394464D01*
X59297747Y-28706348D01*
X59289461Y-28713888D01*
X59282982Y-28718000D01*
X59277557Y-28723777D01*
X59236357Y-28767651D01*
X59233602Y-28770493D01*
X59213865Y-28790230D01*
X59211385Y-28793427D01*
X59203682Y-28802447D01*
X59173414Y-28834679D01*
X59169595Y-28841625D01*
X59169593Y-28841628D01*
X59163652Y-28852434D01*
X59152801Y-28868953D01*
X59140386Y-28884959D01*
X59137241Y-28892228D01*
X59137238Y-28892232D01*
X59122826Y-28925537D01*
X59117609Y-28936187D01*
X59096305Y-28974940D01*
X59094334Y-28982615D01*
X59094334Y-28982616D01*
X59091267Y-28994562D01*
X59084863Y-29013266D01*
X59076819Y-29031855D01*
X59075580Y-29039678D01*
X59075577Y-29039688D01*
X59069901Y-29075524D01*
X59067495Y-29087144D01*
X59056500Y-29129970D01*
X59056500Y-29150224D01*
X59054949Y-29169934D01*
X59051780Y-29189943D01*
X59052526Y-29197835D01*
X59055941Y-29233961D01*
X59056500Y-29245819D01*
X59056500Y-39735218D01*
X59036498Y-39803339D01*
X58982842Y-39849832D01*
X58912568Y-39859936D01*
X58877270Y-39847718D01*
X58876752Y-39848882D01*
X58708319Y-39773891D01*
X58708318Y-39773891D01*
X58702288Y-39771206D01*
X58608888Y-39751353D01*
X58521944Y-39732872D01*
X58521939Y-39732872D01*
X58515487Y-39731500D01*
X58324513Y-39731500D01*
X58318061Y-39732872D01*
X58318056Y-39732872D01*
X58231112Y-39751353D01*
X58137712Y-39771206D01*
X58131682Y-39773891D01*
X58131681Y-39773891D01*
X57969278Y-39846197D01*
X57969276Y-39846198D01*
X57963248Y-39848882D01*
X57957907Y-39852762D01*
X57957906Y-39852763D01*
X57907843Y-39889136D01*
X57808747Y-39961134D01*
X57680960Y-40103056D01*
X57585473Y-40268444D01*
X57526458Y-40450072D01*
X57506496Y-40640000D01*
X57526458Y-40829928D01*
X57585473Y-41011556D01*
X57680960Y-41176944D01*
X57754137Y-41258215D01*
X57784853Y-41322221D01*
X57786500Y-41342524D01*
X57786500Y-55847183D01*
X57766498Y-55915304D01*
X57712842Y-55961797D01*
X57642568Y-55971901D01*
X57607249Y-55961377D01*
X57591183Y-55953885D01*
X57591178Y-55953883D01*
X57586196Y-55951560D01*
X57580888Y-55950138D01*
X57580886Y-55950137D01*
X57515051Y-55932497D01*
X57371463Y-55894022D01*
X57150000Y-55874647D01*
X56928537Y-55894022D01*
X56784949Y-55932497D01*
X56719114Y-55950137D01*
X56719112Y-55950138D01*
X56713804Y-55951560D01*
X56708823Y-55953882D01*
X56708822Y-55953883D01*
X56517311Y-56043186D01*
X56517306Y-56043189D01*
X56512324Y-56045512D01*
X56507817Y-56048668D01*
X56507815Y-56048669D01*
X56334730Y-56169864D01*
X56334727Y-56169866D01*
X56330219Y-56173023D01*
X56173023Y-56330219D01*
X56045512Y-56512324D01*
X56043189Y-56517306D01*
X56043186Y-56517311D01*
X55994195Y-56622373D01*
X55947277Y-56675658D01*
X55879000Y-56695119D01*
X55811040Y-56674577D01*
X55765805Y-56622373D01*
X55716814Y-56517311D01*
X55716811Y-56517306D01*
X55714488Y-56512324D01*
X55586977Y-56330219D01*
X55429781Y-56173023D01*
X55425273Y-56169866D01*
X55425270Y-56169864D01*
X55297229Y-56080209D01*
X55247677Y-56045512D01*
X55242695Y-56043189D01*
X55242690Y-56043186D01*
X55051178Y-55953883D01*
X55051177Y-55953882D01*
X55046196Y-55951560D01*
X55040888Y-55950138D01*
X55040886Y-55950137D01*
X54975051Y-55932497D01*
X54831463Y-55894022D01*
X54610000Y-55874647D01*
X54388537Y-55894022D01*
X54244949Y-55932497D01*
X54179114Y-55950137D01*
X54179112Y-55950138D01*
X54173804Y-55951560D01*
X54168823Y-55953882D01*
X54168822Y-55953883D01*
X53977311Y-56043186D01*
X53977306Y-56043189D01*
X53972324Y-56045512D01*
X53967817Y-56048668D01*
X53967815Y-56048669D01*
X53794730Y-56169864D01*
X53794727Y-56169866D01*
X53790219Y-56173023D01*
X53633023Y-56330219D01*
X53505512Y-56512324D01*
X53503189Y-56517306D01*
X53503186Y-56517311D01*
X53454195Y-56622373D01*
X53411560Y-56713804D01*
X53354022Y-56928537D01*
X53334647Y-57150000D01*
X46228500Y-57150000D01*
X46228500Y-32986695D01*
X49437251Y-32986695D01*
X49437548Y-32991848D01*
X49437548Y-32991851D01*
X49443011Y-33086590D01*
X49450110Y-33209715D01*
X49451247Y-33214761D01*
X49451248Y-33214767D01*
X49471119Y-33302939D01*
X49499222Y-33427639D01*
X49560673Y-33578976D01*
X49564000Y-33587168D01*
X49583266Y-33634616D01*
X49699987Y-33825088D01*
X49846250Y-33993938D01*
X50018126Y-34136632D01*
X50211000Y-34249338D01*
X50215825Y-34251180D01*
X50215826Y-34251181D01*
X50238321Y-34259771D01*
X50419692Y-34329030D01*
X50424760Y-34330061D01*
X50424763Y-34330062D01*
X50482158Y-34341739D01*
X50638597Y-34373567D01*
X50643772Y-34373757D01*
X50643774Y-34373757D01*
X50856673Y-34381564D01*
X50856677Y-34381564D01*
X50861837Y-34381753D01*
X50866957Y-34381097D01*
X50866959Y-34381097D01*
X51078288Y-34354025D01*
X51078289Y-34354025D01*
X51083416Y-34353368D01*
X51098245Y-34348919D01*
X51292429Y-34290661D01*
X51292434Y-34290659D01*
X51297384Y-34289174D01*
X51497994Y-34190896D01*
X51679860Y-34061173D01*
X51838096Y-33903489D01*
X51897594Y-33820689D01*
X51965435Y-33726277D01*
X51968453Y-33722077D01*
X51978267Y-33702221D01*
X52065136Y-33526453D01*
X52065137Y-33526451D01*
X52067430Y-33521811D01*
X52132370Y-33308069D01*
X52161529Y-33086590D01*
X52163156Y-33020000D01*
X52144852Y-32797361D01*
X52090431Y-32580702D01*
X52001354Y-32375840D01*
X51940079Y-32281123D01*
X51882822Y-32192617D01*
X51882820Y-32192614D01*
X51880014Y-32188277D01*
X51876540Y-32184459D01*
X51876533Y-32184450D01*
X51732435Y-32026088D01*
X51701383Y-31962242D01*
X51709779Y-31891744D01*
X51754956Y-31836976D01*
X51781400Y-31823307D01*
X51888052Y-31783325D01*
X51903649Y-31774786D01*
X52005724Y-31698285D01*
X52018285Y-31685724D01*
X52094786Y-31583649D01*
X52103324Y-31568054D01*
X52148478Y-31447606D01*
X52152105Y-31432351D01*
X52157631Y-31381486D01*
X52158000Y-31374672D01*
X52158000Y-30752115D01*
X52153525Y-30736876D01*
X52152135Y-30735671D01*
X52144452Y-30734000D01*
X49460116Y-30734000D01*
X49444877Y-30738475D01*
X49443672Y-30739865D01*
X49442001Y-30747548D01*
X49442001Y-31374669D01*
X49442371Y-31381490D01*
X49447895Y-31432352D01*
X49451521Y-31447604D01*
X49496676Y-31568054D01*
X49505214Y-31583649D01*
X49581715Y-31685724D01*
X49594276Y-31698285D01*
X49696351Y-31774786D01*
X49711946Y-31783324D01*
X49820827Y-31824142D01*
X49877591Y-31866784D01*
X49902291Y-31933345D01*
X49887083Y-32002694D01*
X49867691Y-32029175D01*
X49752387Y-32149834D01*
X49740629Y-32162138D01*
X49737715Y-32166410D01*
X49737714Y-32166411D01*
X49692452Y-32232763D01*
X49614743Y-32346680D01*
X49520688Y-32549305D01*
X49460989Y-32764570D01*
X49437251Y-32986695D01*
X46228500Y-32986695D01*
X46228500Y-30207885D01*
X49442000Y-30207885D01*
X49446475Y-30223124D01*
X49447865Y-30224329D01*
X49455548Y-30226000D01*
X50527885Y-30226000D01*
X50543124Y-30221525D01*
X50544329Y-30220135D01*
X50546000Y-30212452D01*
X50546000Y-30207885D01*
X51054000Y-30207885D01*
X51058475Y-30223124D01*
X51059865Y-30224329D01*
X51067548Y-30226000D01*
X52139884Y-30226000D01*
X52155123Y-30221525D01*
X52156328Y-30220135D01*
X52157999Y-30212452D01*
X52157999Y-29585331D01*
X52157629Y-29578510D01*
X52152105Y-29527648D01*
X52148479Y-29512396D01*
X52103324Y-29391946D01*
X52094786Y-29376351D01*
X52018285Y-29274276D01*
X52005724Y-29261715D01*
X51903649Y-29185214D01*
X51888054Y-29176676D01*
X51767606Y-29131522D01*
X51752351Y-29127895D01*
X51701486Y-29122369D01*
X51694672Y-29122000D01*
X51072115Y-29122000D01*
X51056876Y-29126475D01*
X51055671Y-29127865D01*
X51054000Y-29135548D01*
X51054000Y-30207885D01*
X50546000Y-30207885D01*
X50546000Y-29140116D01*
X50541525Y-29124877D01*
X50540135Y-29123672D01*
X50532452Y-29122001D01*
X49905331Y-29122001D01*
X49898510Y-29122371D01*
X49847648Y-29127895D01*
X49832396Y-29131521D01*
X49711946Y-29176676D01*
X49696351Y-29185214D01*
X49594276Y-29261715D01*
X49581715Y-29274276D01*
X49505214Y-29376351D01*
X49496676Y-29391946D01*
X49451522Y-29512394D01*
X49447895Y-29527649D01*
X49442369Y-29578514D01*
X49442000Y-29585328D01*
X49442000Y-30207885D01*
X46228500Y-30207885D01*
X46228500Y-22860000D01*
X47086411Y-22860000D01*
X47106754Y-23248176D01*
X47107267Y-23251416D01*
X47107268Y-23251424D01*
X47121735Y-23342763D01*
X47167562Y-23632099D01*
X47268167Y-24007562D01*
X47407468Y-24370453D01*
X47408966Y-24373393D01*
X47555625Y-24661226D01*
X47583938Y-24716794D01*
X47585734Y-24719560D01*
X47585736Y-24719563D01*
X47675734Y-24858148D01*
X47795643Y-25042793D01*
X48040266Y-25344876D01*
X48315124Y-25619734D01*
X48617207Y-25864357D01*
X48619970Y-25866152D01*
X48619971Y-25866152D01*
X48930483Y-26067800D01*
X48943205Y-26076062D01*
X48946139Y-26077557D01*
X48946146Y-26077561D01*
X49262190Y-26238593D01*
X49289547Y-26252532D01*
X49652438Y-26391833D01*
X50027901Y-26492438D01*
X50231793Y-26524732D01*
X50408576Y-26552732D01*
X50408584Y-26552733D01*
X50411824Y-26553246D01*
X50800000Y-26573589D01*
X51188176Y-26553246D01*
X51191416Y-26552733D01*
X51191424Y-26552732D01*
X51368207Y-26524732D01*
X51572099Y-26492438D01*
X51947562Y-26391833D01*
X52310453Y-26252532D01*
X52337810Y-26238593D01*
X52653854Y-26077561D01*
X52653861Y-26077557D01*
X52656795Y-26076062D01*
X52669518Y-26067800D01*
X52980029Y-25866152D01*
X52980030Y-25866152D01*
X52982793Y-25864357D01*
X53284876Y-25619734D01*
X53559734Y-25344876D01*
X53804357Y-25042793D01*
X53924266Y-24858148D01*
X54014264Y-24719563D01*
X54014266Y-24719560D01*
X54016062Y-24716794D01*
X54044376Y-24661226D01*
X54191034Y-24373393D01*
X54192532Y-24370453D01*
X54331833Y-24007562D01*
X54432438Y-23632099D01*
X54478265Y-23342763D01*
X54492732Y-23251424D01*
X54492733Y-23251416D01*
X54493246Y-23248176D01*
X54513589Y-22860000D01*
X54493246Y-22471824D01*
X54432438Y-22087901D01*
X54331833Y-21712438D01*
X54192532Y-21349547D01*
X54125732Y-21218444D01*
X54017561Y-21006147D01*
X54017557Y-21006140D01*
X54016062Y-21003206D01*
X53953749Y-20907251D01*
X53806152Y-20679971D01*
X53806152Y-20679970D01*
X53804357Y-20677207D01*
X53559734Y-20375124D01*
X53284876Y-20100266D01*
X52982793Y-19855643D01*
X52980029Y-19853848D01*
X52659564Y-19645736D01*
X52659561Y-19645734D01*
X52656795Y-19643938D01*
X52653861Y-19642443D01*
X52653854Y-19642439D01*
X52313393Y-19468966D01*
X52310453Y-19467468D01*
X51947562Y-19328167D01*
X51572099Y-19227562D01*
X51368207Y-19195268D01*
X51191424Y-19167268D01*
X51191416Y-19167267D01*
X51188176Y-19166754D01*
X50800000Y-19146411D01*
X50411824Y-19166754D01*
X50408584Y-19167267D01*
X50408576Y-19167268D01*
X50231793Y-19195268D01*
X50027901Y-19227562D01*
X49652438Y-19328167D01*
X49289547Y-19467468D01*
X49286607Y-19468966D01*
X48946147Y-19642439D01*
X48946140Y-19642443D01*
X48943206Y-19643938D01*
X48940440Y-19645734D01*
X48940437Y-19645736D01*
X48728982Y-19783056D01*
X48617207Y-19855643D01*
X48315124Y-20100266D01*
X48040266Y-20375124D01*
X47795643Y-20677207D01*
X47793848Y-20679970D01*
X47793848Y-20679971D01*
X47646252Y-20907251D01*
X47583938Y-21003206D01*
X47582443Y-21006140D01*
X47582439Y-21006147D01*
X47474268Y-21218444D01*
X47407468Y-21349547D01*
X47268167Y-21712438D01*
X47167562Y-22087901D01*
X47106754Y-22471824D01*
X47086411Y-22860000D01*
X46228500Y-22860000D01*
X46228500Y-18414500D01*
X46248502Y-18346379D01*
X46302158Y-18299886D01*
X46354500Y-18288500D01*
X133985500Y-18288500D01*
X134053621Y-18308502D01*
G37*
%TD.AperFunction*%
%TD*%
M02*
