%TF.GenerationSoftware,KiCad,Pcbnew,(6.0.1)*%
%TF.CreationDate,2022-02-11T12:09:14+01:00*%
%TF.ProjectId,pn5180_board,706e3531-3830-45f6-926f-6172642e6b69,rev?*%
%TF.SameCoordinates,Original*%
%TF.FileFunction,Legend,Top*%
%TF.FilePolarity,Positive*%
%FSLAX46Y46*%
G04 Gerber Fmt 4.6, Leading zero omitted, Abs format (unit mm)*
G04 Created by KiCad (PCBNEW (6.0.1)) date 2022-02-11 12:09:14*
%MOMM*%
%LPD*%
G01*
G04 APERTURE LIST*
%ADD10C,0.150000*%
%ADD11C,0.120000*%
G04 APERTURE END LIST*
D10*
X82885595Y-123427380D02*
X82885595Y-122427380D01*
X83266547Y-122427380D01*
X83361785Y-122475000D01*
X83409404Y-122522619D01*
X83457023Y-122617857D01*
X83457023Y-122760714D01*
X83409404Y-122855952D01*
X83361785Y-122903571D01*
X83266547Y-122951190D01*
X82885595Y-122951190D01*
X83885595Y-123427380D02*
X83885595Y-122427380D01*
X84218928Y-123141666D01*
X84552261Y-122427380D01*
X84552261Y-123427380D01*
X85218928Y-122427380D02*
X85409404Y-122427380D01*
X85504642Y-122475000D01*
X85599880Y-122570238D01*
X85647500Y-122760714D01*
X85647500Y-123094047D01*
X85599880Y-123284523D01*
X85504642Y-123379761D01*
X85409404Y-123427380D01*
X85218928Y-123427380D01*
X85123690Y-123379761D01*
X85028452Y-123284523D01*
X84980833Y-123094047D01*
X84980833Y-122760714D01*
X85028452Y-122570238D01*
X85123690Y-122475000D01*
X85218928Y-122427380D01*
X86076071Y-123427380D02*
X86076071Y-122427380D01*
X86314166Y-122427380D01*
X86457023Y-122475000D01*
X86552261Y-122570238D01*
X86599880Y-122665476D01*
X86647500Y-122855952D01*
X86647500Y-122998809D01*
X86599880Y-123189285D01*
X86552261Y-123284523D01*
X86457023Y-123379761D01*
X86314166Y-123427380D01*
X86076071Y-123427380D01*
X88171309Y-122903571D02*
X88314166Y-122951190D01*
X88361785Y-122998809D01*
X88409404Y-123094047D01*
X88409404Y-123236904D01*
X88361785Y-123332142D01*
X88314166Y-123379761D01*
X88218928Y-123427380D01*
X87837976Y-123427380D01*
X87837976Y-122427380D01*
X88171309Y-122427380D01*
X88266547Y-122475000D01*
X88314166Y-122522619D01*
X88361785Y-122617857D01*
X88361785Y-122713095D01*
X88314166Y-122808333D01*
X88266547Y-122855952D01*
X88171309Y-122903571D01*
X87837976Y-122903571D01*
X89028452Y-122427380D02*
X89218928Y-122427380D01*
X89314166Y-122475000D01*
X89409404Y-122570238D01*
X89457023Y-122760714D01*
X89457023Y-123094047D01*
X89409404Y-123284523D01*
X89314166Y-123379761D01*
X89218928Y-123427380D01*
X89028452Y-123427380D01*
X88933214Y-123379761D01*
X88837976Y-123284523D01*
X88790357Y-123094047D01*
X88790357Y-122760714D01*
X88837976Y-122570238D01*
X88933214Y-122475000D01*
X89028452Y-122427380D01*
X89837976Y-123141666D02*
X90314166Y-123141666D01*
X89742738Y-123427380D02*
X90076071Y-122427380D01*
X90409404Y-123427380D01*
X91314166Y-123427380D02*
X90980833Y-122951190D01*
X90742738Y-123427380D02*
X90742738Y-122427380D01*
X91123690Y-122427380D01*
X91218928Y-122475000D01*
X91266547Y-122522619D01*
X91314166Y-122617857D01*
X91314166Y-122760714D01*
X91266547Y-122855952D01*
X91218928Y-122903571D01*
X91123690Y-122951190D01*
X90742738Y-122951190D01*
X91742738Y-123427380D02*
X91742738Y-122427380D01*
X91980833Y-122427380D01*
X92123690Y-122475000D01*
X92218928Y-122570238D01*
X92266547Y-122665476D01*
X92314166Y-122855952D01*
X92314166Y-122998809D01*
X92266547Y-123189285D01*
X92218928Y-123284523D01*
X92123690Y-123379761D01*
X91980833Y-123427380D01*
X91742738Y-123427380D01*
X93837976Y-122903571D02*
X93504642Y-122903571D01*
X93504642Y-123427380D02*
X93504642Y-122427380D01*
X93980833Y-122427380D01*
X94552261Y-122427380D02*
X94742738Y-122427380D01*
X94837976Y-122475000D01*
X94933214Y-122570238D01*
X94980833Y-122760714D01*
X94980833Y-123094047D01*
X94933214Y-123284523D01*
X94837976Y-123379761D01*
X94742738Y-123427380D01*
X94552261Y-123427380D01*
X94457023Y-123379761D01*
X94361785Y-123284523D01*
X94314166Y-123094047D01*
X94314166Y-122760714D01*
X94361785Y-122570238D01*
X94457023Y-122475000D01*
X94552261Y-122427380D01*
X95980833Y-123427380D02*
X95647500Y-122951190D01*
X95409404Y-123427380D02*
X95409404Y-122427380D01*
X95790357Y-122427380D01*
X95885595Y-122475000D01*
X95933214Y-122522619D01*
X95980833Y-122617857D01*
X95980833Y-122760714D01*
X95933214Y-122855952D01*
X95885595Y-122903571D01*
X95790357Y-122951190D01*
X95409404Y-122951190D01*
X97742738Y-123427380D02*
X97409404Y-122951190D01*
X97171309Y-123427380D02*
X97171309Y-122427380D01*
X97552261Y-122427380D01*
X97647500Y-122475000D01*
X97695119Y-122522619D01*
X97742738Y-122617857D01*
X97742738Y-122760714D01*
X97695119Y-122855952D01*
X97647500Y-122903571D01*
X97552261Y-122951190D01*
X97171309Y-122951190D01*
X98504642Y-122903571D02*
X98171309Y-122903571D01*
X98171309Y-123427380D02*
X98171309Y-122427380D01*
X98647500Y-122427380D01*
X99028452Y-123427380D02*
X99028452Y-122427380D01*
X99504642Y-123427380D02*
X99504642Y-122427380D01*
X99742738Y-122427380D01*
X99885595Y-122475000D01*
X99980833Y-122570238D01*
X100028452Y-122665476D01*
X100076071Y-122855952D01*
X100076071Y-122998809D01*
X100028452Y-123189285D01*
X99980833Y-123284523D01*
X99885595Y-123379761D01*
X99742738Y-123427380D01*
X99504642Y-123427380D01*
X101266547Y-123427380D02*
X101266547Y-122427380D01*
X101599880Y-123141666D01*
X101933214Y-122427380D01*
X101933214Y-123427380D01*
X102599880Y-122427380D02*
X102790357Y-122427380D01*
X102885595Y-122475000D01*
X102980833Y-122570238D01*
X103028452Y-122760714D01*
X103028452Y-123094047D01*
X102980833Y-123284523D01*
X102885595Y-123379761D01*
X102790357Y-123427380D01*
X102599880Y-123427380D01*
X102504642Y-123379761D01*
X102409404Y-123284523D01*
X102361785Y-123094047D01*
X102361785Y-122760714D01*
X102409404Y-122570238D01*
X102504642Y-122475000D01*
X102599880Y-122427380D01*
X103457023Y-123427380D02*
X103457023Y-122427380D01*
X103695119Y-122427380D01*
X103837976Y-122475000D01*
X103933214Y-122570238D01*
X103980833Y-122665476D01*
X104028452Y-122855952D01*
X104028452Y-122998809D01*
X103980833Y-123189285D01*
X103933214Y-123284523D01*
X103837976Y-123379761D01*
X103695119Y-123427380D01*
X103457023Y-123427380D01*
X104457023Y-122427380D02*
X104457023Y-123236904D01*
X104504642Y-123332142D01*
X104552261Y-123379761D01*
X104647500Y-123427380D01*
X104837976Y-123427380D01*
X104933214Y-123379761D01*
X104980833Y-123332142D01*
X105028452Y-123236904D01*
X105028452Y-122427380D01*
X105980833Y-123427380D02*
X105504642Y-123427380D01*
X105504642Y-122427380D01*
X106314166Y-122903571D02*
X106647500Y-122903571D01*
X106790357Y-123427380D02*
X106314166Y-123427380D01*
X106314166Y-122427380D01*
X106790357Y-122427380D01*
X107171309Y-123379761D02*
X107314166Y-123427380D01*
X107552261Y-123427380D01*
X107647500Y-123379761D01*
X107695119Y-123332142D01*
X107742738Y-123236904D01*
X107742738Y-123141666D01*
X107695119Y-123046428D01*
X107647500Y-122998809D01*
X107552261Y-122951190D01*
X107361785Y-122903571D01*
X107266547Y-122855952D01*
X107218928Y-122808333D01*
X107171309Y-122713095D01*
X107171309Y-122617857D01*
X107218928Y-122522619D01*
X107266547Y-122475000D01*
X107361785Y-122427380D01*
X107599880Y-122427380D01*
X107742738Y-122475000D01*
X82837976Y-124989761D02*
X82980833Y-125037380D01*
X83218928Y-125037380D01*
X83314166Y-124989761D01*
X83361785Y-124942142D01*
X83409404Y-124846904D01*
X83409404Y-124751666D01*
X83361785Y-124656428D01*
X83314166Y-124608809D01*
X83218928Y-124561190D01*
X83028452Y-124513571D01*
X82933214Y-124465952D01*
X82885595Y-124418333D01*
X82837976Y-124323095D01*
X82837976Y-124227857D01*
X82885595Y-124132619D01*
X82933214Y-124085000D01*
X83028452Y-124037380D01*
X83266547Y-124037380D01*
X83409404Y-124085000D01*
X83695119Y-124037380D02*
X84266547Y-124037380D01*
X83980833Y-125037380D02*
X83980833Y-124037380D01*
X85171309Y-125037380D02*
X84837976Y-124561190D01*
X84599880Y-125037380D02*
X84599880Y-124037380D01*
X84980833Y-124037380D01*
X85076071Y-124085000D01*
X85123690Y-124132619D01*
X85171309Y-124227857D01*
X85171309Y-124370714D01*
X85123690Y-124465952D01*
X85076071Y-124513571D01*
X84980833Y-124561190D01*
X84599880Y-124561190D01*
X85552261Y-124751666D02*
X86028452Y-124751666D01*
X85457023Y-125037380D02*
X85790357Y-124037380D01*
X86123690Y-125037380D01*
X86457023Y-125037380D02*
X86457023Y-124037380D01*
X87457023Y-124085000D02*
X87361785Y-124037380D01*
X87218928Y-124037380D01*
X87076071Y-124085000D01*
X86980833Y-124180238D01*
X86933214Y-124275476D01*
X86885595Y-124465952D01*
X86885595Y-124608809D01*
X86933214Y-124799285D01*
X86980833Y-124894523D01*
X87076071Y-124989761D01*
X87218928Y-125037380D01*
X87314166Y-125037380D01*
X87457023Y-124989761D01*
X87504642Y-124942142D01*
X87504642Y-124608809D01*
X87314166Y-124608809D01*
X87933214Y-125037380D02*
X87933214Y-124037380D01*
X87933214Y-124513571D02*
X88504642Y-124513571D01*
X88504642Y-125037380D02*
X88504642Y-124037380D01*
X88837976Y-124037380D02*
X89409404Y-124037380D01*
X89123690Y-125037380D02*
X89123690Y-124037380D01*
X90504642Y-125037380D02*
X90504642Y-124037380D01*
X90885595Y-124037380D01*
X90980833Y-124085000D01*
X91028452Y-124132619D01*
X91076071Y-124227857D01*
X91076071Y-124370714D01*
X91028452Y-124465952D01*
X90980833Y-124513571D01*
X90885595Y-124561190D01*
X90504642Y-124561190D01*
X91504642Y-125037380D02*
X91504642Y-124037380D01*
X91980833Y-125037380D02*
X91980833Y-124037380D01*
X92552261Y-125037380D01*
X92552261Y-124037380D01*
X92980833Y-124989761D02*
X93123690Y-125037380D01*
X93361785Y-125037380D01*
X93457023Y-124989761D01*
X93504642Y-124942142D01*
X93552261Y-124846904D01*
X93552261Y-124751666D01*
X93504642Y-124656428D01*
X93457023Y-124608809D01*
X93361785Y-124561190D01*
X93171309Y-124513571D01*
X93076071Y-124465952D01*
X93028452Y-124418333D01*
X92980833Y-124323095D01*
X92980833Y-124227857D01*
X93028452Y-124132619D01*
X93076071Y-124085000D01*
X93171309Y-124037380D01*
X93409404Y-124037380D01*
X93552261Y-124085000D01*
X94028452Y-124989761D02*
X94028452Y-125037380D01*
X93980833Y-125132619D01*
X93933214Y-125180238D01*
X95552261Y-124513571D02*
X95218928Y-124513571D01*
X95218928Y-125037380D02*
X95218928Y-124037380D01*
X95695119Y-124037380D01*
X96028452Y-124751666D02*
X96504642Y-124751666D01*
X95933214Y-125037380D02*
X96266547Y-124037380D01*
X96599880Y-125037380D01*
X97504642Y-124942142D02*
X97457023Y-124989761D01*
X97314166Y-125037380D01*
X97218928Y-125037380D01*
X97076071Y-124989761D01*
X96980833Y-124894523D01*
X96933214Y-124799285D01*
X96885595Y-124608809D01*
X96885595Y-124465952D01*
X96933214Y-124275476D01*
X96980833Y-124180238D01*
X97076071Y-124085000D01*
X97218928Y-124037380D01*
X97314166Y-124037380D01*
X97457023Y-124085000D01*
X97504642Y-124132619D01*
X97933214Y-125037380D02*
X97933214Y-124037380D01*
X98409404Y-125037380D02*
X98409404Y-124037380D01*
X98980833Y-125037380D01*
X98980833Y-124037380D01*
X99980833Y-124085000D02*
X99885595Y-124037380D01*
X99742738Y-124037380D01*
X99599880Y-124085000D01*
X99504642Y-124180238D01*
X99457023Y-124275476D01*
X99409404Y-124465952D01*
X99409404Y-124608809D01*
X99457023Y-124799285D01*
X99504642Y-124894523D01*
X99599880Y-124989761D01*
X99742738Y-125037380D01*
X99837976Y-125037380D01*
X99980833Y-124989761D01*
X100028452Y-124942142D01*
X100028452Y-124608809D01*
X99837976Y-124608809D01*
X101218928Y-124037380D02*
X101218928Y-124846904D01*
X101266547Y-124942142D01*
X101314166Y-124989761D01*
X101409404Y-125037380D01*
X101599880Y-125037380D01*
X101695119Y-124989761D01*
X101742738Y-124942142D01*
X101790357Y-124846904D01*
X101790357Y-124037380D01*
X102266547Y-125037380D02*
X102266547Y-124037380D01*
X102647500Y-124037380D01*
X102742738Y-124085000D01*
X102790357Y-124132619D01*
X102837976Y-124227857D01*
X102837976Y-124370714D01*
X102790357Y-124465952D01*
X102742738Y-124513571D01*
X102647500Y-124561190D01*
X102266547Y-124561190D01*
X82837976Y-125647380D02*
X82837976Y-125837857D01*
X83218928Y-125647380D02*
X83218928Y-125837857D01*
X83647500Y-126647380D02*
X83647500Y-125647380D01*
X84028452Y-125647380D01*
X84123690Y-125695000D01*
X84171309Y-125742619D01*
X84218928Y-125837857D01*
X84218928Y-125980714D01*
X84171309Y-126075952D01*
X84123690Y-126123571D01*
X84028452Y-126171190D01*
X83647500Y-126171190D01*
X84647500Y-126647380D02*
X84647500Y-125647380D01*
X85218928Y-126647380D01*
X85218928Y-125647380D01*
X86171309Y-125647380D02*
X85695119Y-125647380D01*
X85647500Y-126123571D01*
X85695119Y-126075952D01*
X85790357Y-126028333D01*
X86028452Y-126028333D01*
X86123690Y-126075952D01*
X86171309Y-126123571D01*
X86218928Y-126218809D01*
X86218928Y-126456904D01*
X86171309Y-126552142D01*
X86123690Y-126599761D01*
X86028452Y-126647380D01*
X85790357Y-126647380D01*
X85695119Y-126599761D01*
X85647500Y-126552142D01*
X87171309Y-126647380D02*
X86599880Y-126647380D01*
X86885595Y-126647380D02*
X86885595Y-125647380D01*
X86790357Y-125790238D01*
X86695119Y-125885476D01*
X86599880Y-125933095D01*
X87742738Y-126075952D02*
X87647500Y-126028333D01*
X87599880Y-125980714D01*
X87552261Y-125885476D01*
X87552261Y-125837857D01*
X87599880Y-125742619D01*
X87647500Y-125695000D01*
X87742738Y-125647380D01*
X87933214Y-125647380D01*
X88028452Y-125695000D01*
X88076071Y-125742619D01*
X88123690Y-125837857D01*
X88123690Y-125885476D01*
X88076071Y-125980714D01*
X88028452Y-126028333D01*
X87933214Y-126075952D01*
X87742738Y-126075952D01*
X87647500Y-126123571D01*
X87599880Y-126171190D01*
X87552261Y-126266428D01*
X87552261Y-126456904D01*
X87599880Y-126552142D01*
X87647500Y-126599761D01*
X87742738Y-126647380D01*
X87933214Y-126647380D01*
X88028452Y-126599761D01*
X88076071Y-126552142D01*
X88123690Y-126456904D01*
X88123690Y-126266428D01*
X88076071Y-126171190D01*
X88028452Y-126123571D01*
X87933214Y-126075952D01*
X88742738Y-125647380D02*
X88837976Y-125647380D01*
X88933214Y-125695000D01*
X88980833Y-125742619D01*
X89028452Y-125837857D01*
X89076071Y-126028333D01*
X89076071Y-126266428D01*
X89028452Y-126456904D01*
X88980833Y-126552142D01*
X88933214Y-126599761D01*
X88837976Y-126647380D01*
X88742738Y-126647380D01*
X88647500Y-126599761D01*
X88599880Y-126552142D01*
X88552261Y-126456904D01*
X88504642Y-126266428D01*
X88504642Y-126028333D01*
X88552261Y-125837857D01*
X88599880Y-125742619D01*
X88647500Y-125695000D01*
X88742738Y-125647380D01*
X89504642Y-126266428D02*
X90266547Y-126266428D01*
X90742738Y-126647380D02*
X90742738Y-125647380D01*
X91314166Y-126647380D01*
X91314166Y-125647380D01*
X92123690Y-126123571D02*
X91790357Y-126123571D01*
X91790357Y-126647380D02*
X91790357Y-125647380D01*
X92266547Y-125647380D01*
X93218928Y-126552142D02*
X93171309Y-126599761D01*
X93028452Y-126647380D01*
X92933214Y-126647380D01*
X92790357Y-126599761D01*
X92695119Y-126504523D01*
X92647500Y-126409285D01*
X92599880Y-126218809D01*
X92599880Y-126075952D01*
X92647500Y-125885476D01*
X92695119Y-125790238D01*
X92790357Y-125695000D01*
X92933214Y-125647380D01*
X93028452Y-125647380D01*
X93171309Y-125695000D01*
X93218928Y-125742619D01*
X93599880Y-125647380D02*
X93599880Y-125837857D01*
X93980833Y-125647380D02*
X93980833Y-125837857D01*
X82742738Y-128867380D02*
X83076071Y-129867380D01*
X83409404Y-128867380D01*
X83742738Y-129343571D02*
X84076071Y-129343571D01*
X84218928Y-129867380D02*
X83742738Y-129867380D01*
X83742738Y-128867380D01*
X84218928Y-128867380D01*
X85218928Y-129867380D02*
X84885595Y-129391190D01*
X84647500Y-129867380D02*
X84647500Y-128867380D01*
X85028452Y-128867380D01*
X85123690Y-128915000D01*
X85171309Y-128962619D01*
X85218928Y-129057857D01*
X85218928Y-129200714D01*
X85171309Y-129295952D01*
X85123690Y-129343571D01*
X85028452Y-129391190D01*
X84647500Y-129391190D01*
X85599880Y-129819761D02*
X85742738Y-129867380D01*
X85980833Y-129867380D01*
X86076071Y-129819761D01*
X86123690Y-129772142D01*
X86171309Y-129676904D01*
X86171309Y-129581666D01*
X86123690Y-129486428D01*
X86076071Y-129438809D01*
X85980833Y-129391190D01*
X85790357Y-129343571D01*
X85695119Y-129295952D01*
X85647500Y-129248333D01*
X85599880Y-129153095D01*
X85599880Y-129057857D01*
X85647500Y-128962619D01*
X85695119Y-128915000D01*
X85790357Y-128867380D01*
X86028452Y-128867380D01*
X86171309Y-128915000D01*
X86599880Y-129867380D02*
X86599880Y-128867380D01*
X87266547Y-128867380D02*
X87457023Y-128867380D01*
X87552261Y-128915000D01*
X87647500Y-129010238D01*
X87695119Y-129200714D01*
X87695119Y-129534047D01*
X87647500Y-129724523D01*
X87552261Y-129819761D01*
X87457023Y-129867380D01*
X87266547Y-129867380D01*
X87171309Y-129819761D01*
X87076071Y-129724523D01*
X87028452Y-129534047D01*
X87028452Y-129200714D01*
X87076071Y-129010238D01*
X87171309Y-128915000D01*
X87266547Y-128867380D01*
X88123690Y-129867380D02*
X88123690Y-128867380D01*
X88695119Y-129867380D01*
X88695119Y-128867380D01*
X90123690Y-128867380D02*
X90218928Y-128867380D01*
X90314166Y-128915000D01*
X90361785Y-128962619D01*
X90409404Y-129057857D01*
X90457023Y-129248333D01*
X90457023Y-129486428D01*
X90409404Y-129676904D01*
X90361785Y-129772142D01*
X90314166Y-129819761D01*
X90218928Y-129867380D01*
X90123690Y-129867380D01*
X90028452Y-129819761D01*
X89980833Y-129772142D01*
X89933214Y-129676904D01*
X89885595Y-129486428D01*
X89885595Y-129248333D01*
X89933214Y-129057857D01*
X89980833Y-128962619D01*
X90028452Y-128915000D01*
X90123690Y-128867380D01*
X90885595Y-129772142D02*
X90933214Y-129819761D01*
X90885595Y-129867380D01*
X90837976Y-129819761D01*
X90885595Y-129772142D01*
X90885595Y-129867380D01*
X91885595Y-129867380D02*
X91314166Y-129867380D01*
X91599880Y-129867380D02*
X91599880Y-128867380D01*
X91504642Y-129010238D01*
X91409404Y-129105476D01*
X91314166Y-129153095D01*
X82885595Y-131477380D02*
X82885595Y-130477380D01*
X83314166Y-131477380D02*
X83314166Y-130953571D01*
X83266547Y-130858333D01*
X83171309Y-130810714D01*
X83028452Y-130810714D01*
X82933214Y-130858333D01*
X82885595Y-130905952D01*
X83647500Y-130810714D02*
X84028452Y-130810714D01*
X83790357Y-130477380D02*
X83790357Y-131334523D01*
X83837976Y-131429761D01*
X83933214Y-131477380D01*
X84028452Y-131477380D01*
X84218928Y-130810714D02*
X84599880Y-130810714D01*
X84361785Y-130477380D02*
X84361785Y-131334523D01*
X84409404Y-131429761D01*
X84504642Y-131477380D01*
X84599880Y-131477380D01*
X84933214Y-130810714D02*
X84933214Y-131810714D01*
X84933214Y-130858333D02*
X85028452Y-130810714D01*
X85218928Y-130810714D01*
X85314166Y-130858333D01*
X85361785Y-130905952D01*
X85409404Y-131001190D01*
X85409404Y-131286904D01*
X85361785Y-131382142D01*
X85314166Y-131429761D01*
X85218928Y-131477380D01*
X85028452Y-131477380D01*
X84933214Y-131429761D01*
X85790357Y-131429761D02*
X85885595Y-131477380D01*
X86076071Y-131477380D01*
X86171309Y-131429761D01*
X86218928Y-131334523D01*
X86218928Y-131286904D01*
X86171309Y-131191666D01*
X86076071Y-131144047D01*
X85933214Y-131144047D01*
X85837976Y-131096428D01*
X85790357Y-131001190D01*
X85790357Y-130953571D01*
X85837976Y-130858333D01*
X85933214Y-130810714D01*
X86076071Y-130810714D01*
X86171309Y-130858333D01*
X86647500Y-131382142D02*
X86695119Y-131429761D01*
X86647500Y-131477380D01*
X86599880Y-131429761D01*
X86647500Y-131382142D01*
X86647500Y-131477380D01*
X86647500Y-130858333D02*
X86695119Y-130905952D01*
X86647500Y-130953571D01*
X86599880Y-130905952D01*
X86647500Y-130858333D01*
X86647500Y-130953571D01*
X87837976Y-130429761D02*
X86980833Y-131715476D01*
X88885595Y-130429761D02*
X88028452Y-131715476D01*
X89123690Y-130810714D02*
X89314166Y-131477380D01*
X89504642Y-131001190D01*
X89695119Y-131477380D01*
X89885595Y-130810714D01*
X90171309Y-130810714D02*
X90361785Y-131477380D01*
X90552261Y-131001190D01*
X90742738Y-131477380D01*
X90933214Y-130810714D01*
X91218928Y-130810714D02*
X91409404Y-131477380D01*
X91599880Y-131001190D01*
X91790357Y-131477380D01*
X91980833Y-130810714D01*
X92361785Y-131382142D02*
X92409404Y-131429761D01*
X92361785Y-131477380D01*
X92314166Y-131429761D01*
X92361785Y-131382142D01*
X92361785Y-131477380D01*
X92837976Y-131477380D02*
X92837976Y-130477380D01*
X92837976Y-130858333D02*
X92933214Y-130810714D01*
X93123690Y-130810714D01*
X93218928Y-130858333D01*
X93266547Y-130905952D01*
X93314166Y-131001190D01*
X93314166Y-131286904D01*
X93266547Y-131382142D01*
X93218928Y-131429761D01*
X93123690Y-131477380D01*
X92933214Y-131477380D01*
X92837976Y-131429761D01*
X93885595Y-131477380D02*
X93790357Y-131429761D01*
X93742738Y-131334523D01*
X93742738Y-130477380D01*
X94695119Y-131477380D02*
X94695119Y-130953571D01*
X94647500Y-130858333D01*
X94552261Y-130810714D01*
X94361785Y-130810714D01*
X94266547Y-130858333D01*
X94695119Y-131429761D02*
X94599880Y-131477380D01*
X94361785Y-131477380D01*
X94266547Y-131429761D01*
X94218928Y-131334523D01*
X94218928Y-131239285D01*
X94266547Y-131144047D01*
X94361785Y-131096428D01*
X94599880Y-131096428D01*
X94695119Y-131048809D01*
X95599880Y-131477380D02*
X95599880Y-130953571D01*
X95552261Y-130858333D01*
X95457023Y-130810714D01*
X95266547Y-130810714D01*
X95171309Y-130858333D01*
X95599880Y-131429761D02*
X95504642Y-131477380D01*
X95266547Y-131477380D01*
X95171309Y-131429761D01*
X95123690Y-131334523D01*
X95123690Y-131239285D01*
X95171309Y-131144047D01*
X95266547Y-131096428D01*
X95504642Y-131096428D01*
X95599880Y-131048809D01*
X95933214Y-130810714D02*
X96314166Y-130810714D01*
X96076071Y-130477380D02*
X96076071Y-131334523D01*
X96123690Y-131429761D01*
X96218928Y-131477380D01*
X96314166Y-131477380D01*
X96599880Y-131429761D02*
X96695119Y-131477380D01*
X96885595Y-131477380D01*
X96980833Y-131429761D01*
X97028452Y-131334523D01*
X97028452Y-131286904D01*
X96980833Y-131191666D01*
X96885595Y-131144047D01*
X96742738Y-131144047D01*
X96647500Y-131096428D01*
X96599880Y-131001190D01*
X96599880Y-130953571D01*
X96647500Y-130858333D01*
X96742738Y-130810714D01*
X96885595Y-130810714D01*
X96980833Y-130858333D01*
X97885595Y-131429761D02*
X97790357Y-131477380D01*
X97599880Y-131477380D01*
X97504642Y-131429761D01*
X97457023Y-131382142D01*
X97409404Y-131286904D01*
X97409404Y-131001190D01*
X97457023Y-130905952D01*
X97504642Y-130858333D01*
X97599880Y-130810714D01*
X97790357Y-130810714D01*
X97885595Y-130858333D01*
X98314166Y-131477380D02*
X98314166Y-130477380D01*
X98742738Y-131477380D02*
X98742738Y-130953571D01*
X98695119Y-130858333D01*
X98599880Y-130810714D01*
X98457023Y-130810714D01*
X98361785Y-130858333D01*
X98314166Y-130905952D01*
X99647500Y-131477380D02*
X99647500Y-130953571D01*
X99599880Y-130858333D01*
X99504642Y-130810714D01*
X99314166Y-130810714D01*
X99218928Y-130858333D01*
X99647500Y-131429761D02*
X99552261Y-131477380D01*
X99314166Y-131477380D01*
X99218928Y-131429761D01*
X99171309Y-131334523D01*
X99171309Y-131239285D01*
X99218928Y-131144047D01*
X99314166Y-131096428D01*
X99552261Y-131096428D01*
X99647500Y-131048809D01*
X100552261Y-131477380D02*
X100552261Y-130953571D01*
X100504642Y-130858333D01*
X100409404Y-130810714D01*
X100218928Y-130810714D01*
X100123690Y-130858333D01*
X100552261Y-131429761D02*
X100457023Y-131477380D01*
X100218928Y-131477380D01*
X100123690Y-131429761D01*
X100076071Y-131334523D01*
X100076071Y-131239285D01*
X100123690Y-131144047D01*
X100218928Y-131096428D01*
X100457023Y-131096428D01*
X100552261Y-131048809D01*
X101028452Y-130810714D02*
X101028452Y-131810714D01*
X101028452Y-130858333D02*
X101123690Y-130810714D01*
X101314166Y-130810714D01*
X101409404Y-130858333D01*
X101457023Y-130905952D01*
X101504642Y-131001190D01*
X101504642Y-131286904D01*
X101457023Y-131382142D01*
X101409404Y-131429761D01*
X101314166Y-131477380D01*
X101123690Y-131477380D01*
X101028452Y-131429761D01*
X101933214Y-131382142D02*
X101980833Y-131429761D01*
X101933214Y-131477380D01*
X101885595Y-131429761D01*
X101933214Y-131382142D01*
X101933214Y-131477380D01*
X102409404Y-131477380D02*
X102409404Y-130477380D01*
X102409404Y-130858333D02*
X102504642Y-130810714D01*
X102695119Y-130810714D01*
X102790357Y-130858333D01*
X102837976Y-130905952D01*
X102885595Y-131001190D01*
X102885595Y-131286904D01*
X102837976Y-131382142D01*
X102790357Y-131429761D01*
X102695119Y-131477380D01*
X102504642Y-131477380D01*
X102409404Y-131429761D01*
X103695119Y-131429761D02*
X103599880Y-131477380D01*
X103409404Y-131477380D01*
X103314166Y-131429761D01*
X103266547Y-131334523D01*
X103266547Y-130953571D01*
X103314166Y-130858333D01*
X103409404Y-130810714D01*
X103599880Y-130810714D01*
X103695119Y-130858333D01*
X103742738Y-130953571D01*
X103742738Y-131048809D01*
X103266547Y-131144047D01*
X117943333Y-53697142D02*
X117895714Y-53744761D01*
X117752857Y-53792380D01*
X117657619Y-53792380D01*
X117514761Y-53744761D01*
X117419523Y-53649523D01*
X117371904Y-53554285D01*
X117324285Y-53363809D01*
X117324285Y-53220952D01*
X117371904Y-53030476D01*
X117419523Y-52935238D01*
X117514761Y-52840000D01*
X117657619Y-52792380D01*
X117752857Y-52792380D01*
X117895714Y-52840000D01*
X117943333Y-52887619D01*
X118324285Y-53744761D02*
X118467142Y-53792380D01*
X118705238Y-53792380D01*
X118800476Y-53744761D01*
X118848095Y-53697142D01*
X118895714Y-53601904D01*
X118895714Y-53506666D01*
X118848095Y-53411428D01*
X118800476Y-53363809D01*
X118705238Y-53316190D01*
X118514761Y-53268571D01*
X118419523Y-53220952D01*
X118371904Y-53173333D01*
X118324285Y-53078095D01*
X118324285Y-52982857D01*
X118371904Y-52887619D01*
X118419523Y-52840000D01*
X118514761Y-52792380D01*
X118752857Y-52792380D01*
X118895714Y-52840000D01*
X93075238Y-56332380D02*
X93075238Y-55332380D01*
X93551428Y-56332380D02*
X93551428Y-55332380D01*
X94122857Y-56332380D01*
X94122857Y-55332380D01*
X94456190Y-55332380D02*
X95027619Y-55332380D01*
X94741904Y-56332380D02*
X94741904Y-55332380D01*
X112117142Y-62872857D02*
X112164761Y-62920476D01*
X112212380Y-63063333D01*
X112212380Y-63158571D01*
X112164761Y-63301428D01*
X112069523Y-63396666D01*
X111974285Y-63444285D01*
X111783809Y-63491904D01*
X111640952Y-63491904D01*
X111450476Y-63444285D01*
X111355238Y-63396666D01*
X111260000Y-63301428D01*
X111212380Y-63158571D01*
X111212380Y-63063333D01*
X111260000Y-62920476D01*
X111307619Y-62872857D01*
X112164761Y-62491904D02*
X112212380Y-62349047D01*
X112212380Y-62110952D01*
X112164761Y-62015714D01*
X112117142Y-61968095D01*
X112021904Y-61920476D01*
X111926666Y-61920476D01*
X111831428Y-61968095D01*
X111783809Y-62015714D01*
X111736190Y-62110952D01*
X111688571Y-62301428D01*
X111640952Y-62396666D01*
X111593333Y-62444285D01*
X111498095Y-62491904D01*
X111402857Y-62491904D01*
X111307619Y-62444285D01*
X111260000Y-62396666D01*
X111212380Y-62301428D01*
X111212380Y-62063333D01*
X111260000Y-61920476D01*
X111307619Y-61539523D02*
X111260000Y-61491904D01*
X111212380Y-61396666D01*
X111212380Y-61158571D01*
X111260000Y-61063333D01*
X111307619Y-61015714D01*
X111402857Y-60968095D01*
X111498095Y-60968095D01*
X111640952Y-61015714D01*
X112212380Y-61587142D01*
X112212380Y-60968095D01*
X114657142Y-62872857D02*
X114704761Y-62920476D01*
X114752380Y-63063333D01*
X114752380Y-63158571D01*
X114704761Y-63301428D01*
X114609523Y-63396666D01*
X114514285Y-63444285D01*
X114323809Y-63491904D01*
X114180952Y-63491904D01*
X113990476Y-63444285D01*
X113895238Y-63396666D01*
X113800000Y-63301428D01*
X113752380Y-63158571D01*
X113752380Y-63063333D01*
X113800000Y-62920476D01*
X113847619Y-62872857D01*
X114704761Y-62491904D02*
X114752380Y-62349047D01*
X114752380Y-62110952D01*
X114704761Y-62015714D01*
X114657142Y-61968095D01*
X114561904Y-61920476D01*
X114466666Y-61920476D01*
X114371428Y-61968095D01*
X114323809Y-62015714D01*
X114276190Y-62110952D01*
X114228571Y-62301428D01*
X114180952Y-62396666D01*
X114133333Y-62444285D01*
X114038095Y-62491904D01*
X113942857Y-62491904D01*
X113847619Y-62444285D01*
X113800000Y-62396666D01*
X113752380Y-62301428D01*
X113752380Y-62063333D01*
X113800000Y-61920476D01*
X113752380Y-61587142D02*
X113752380Y-60968095D01*
X114133333Y-61301428D01*
X114133333Y-61158571D01*
X114180952Y-61063333D01*
X114228571Y-61015714D01*
X114323809Y-60968095D01*
X114561904Y-60968095D01*
X114657142Y-61015714D01*
X114704761Y-61063333D01*
X114752380Y-61158571D01*
X114752380Y-61444285D01*
X114704761Y-61539523D01*
X114657142Y-61587142D01*
X116752857Y-58348571D02*
X116895714Y-58396190D01*
X116943333Y-58443809D01*
X116990952Y-58539047D01*
X116990952Y-58681904D01*
X116943333Y-58777142D01*
X116895714Y-58824761D01*
X116800476Y-58872380D01*
X116419523Y-58872380D01*
X116419523Y-57872380D01*
X116752857Y-57872380D01*
X116848095Y-57920000D01*
X116895714Y-57967619D01*
X116943333Y-58062857D01*
X116943333Y-58158095D01*
X116895714Y-58253333D01*
X116848095Y-58300952D01*
X116752857Y-58348571D01*
X116419523Y-58348571D01*
X117419523Y-57872380D02*
X117419523Y-58681904D01*
X117467142Y-58777142D01*
X117514761Y-58824761D01*
X117610000Y-58872380D01*
X117800476Y-58872380D01*
X117895714Y-58824761D01*
X117943333Y-58777142D01*
X117990952Y-58681904D01*
X117990952Y-57872380D01*
X118419523Y-58824761D02*
X118562380Y-58872380D01*
X118800476Y-58872380D01*
X118895714Y-58824761D01*
X118943333Y-58777142D01*
X118990952Y-58681904D01*
X118990952Y-58586666D01*
X118943333Y-58491428D01*
X118895714Y-58443809D01*
X118800476Y-58396190D01*
X118610000Y-58348571D01*
X118514761Y-58300952D01*
X118467142Y-58253333D01*
X118419523Y-58158095D01*
X118419523Y-58062857D01*
X118467142Y-57967619D01*
X118514761Y-57920000D01*
X118610000Y-57872380D01*
X118848095Y-57872380D01*
X118990952Y-57920000D01*
X119610000Y-58396190D02*
X119610000Y-58872380D01*
X119276666Y-57872380D02*
X119610000Y-58396190D01*
X119943333Y-57872380D01*
X109577142Y-62872857D02*
X109624761Y-62920476D01*
X109672380Y-63063333D01*
X109672380Y-63158571D01*
X109624761Y-63301428D01*
X109529523Y-63396666D01*
X109434285Y-63444285D01*
X109243809Y-63491904D01*
X109100952Y-63491904D01*
X108910476Y-63444285D01*
X108815238Y-63396666D01*
X108720000Y-63301428D01*
X108672380Y-63158571D01*
X108672380Y-63063333D01*
X108720000Y-62920476D01*
X108767619Y-62872857D01*
X109624761Y-62491904D02*
X109672380Y-62349047D01*
X109672380Y-62110952D01*
X109624761Y-62015714D01*
X109577142Y-61968095D01*
X109481904Y-61920476D01*
X109386666Y-61920476D01*
X109291428Y-61968095D01*
X109243809Y-62015714D01*
X109196190Y-62110952D01*
X109148571Y-62301428D01*
X109100952Y-62396666D01*
X109053333Y-62444285D01*
X108958095Y-62491904D01*
X108862857Y-62491904D01*
X108767619Y-62444285D01*
X108720000Y-62396666D01*
X108672380Y-62301428D01*
X108672380Y-62063333D01*
X108720000Y-61920476D01*
X109672380Y-60968095D02*
X109672380Y-61539523D01*
X109672380Y-61253809D02*
X108672380Y-61253809D01*
X108815238Y-61349047D01*
X108910476Y-61444285D01*
X108958095Y-61539523D01*
X74747619Y-56332380D02*
X74414285Y-55856190D01*
X74176190Y-56332380D02*
X74176190Y-55332380D01*
X74557142Y-55332380D01*
X74652380Y-55380000D01*
X74700000Y-55427619D01*
X74747619Y-55522857D01*
X74747619Y-55665714D01*
X74700000Y-55760952D01*
X74652380Y-55808571D01*
X74557142Y-55856190D01*
X74176190Y-55856190D01*
X75176190Y-55808571D02*
X75509523Y-55808571D01*
X75652380Y-56332380D02*
X75176190Y-56332380D01*
X75176190Y-55332380D01*
X75652380Y-55332380D01*
X76033333Y-56284761D02*
X76176190Y-56332380D01*
X76414285Y-56332380D01*
X76509523Y-56284761D01*
X76557142Y-56237142D01*
X76604761Y-56141904D01*
X76604761Y-56046666D01*
X76557142Y-55951428D01*
X76509523Y-55903809D01*
X76414285Y-55856190D01*
X76223809Y-55808571D01*
X76128571Y-55760952D01*
X76080952Y-55713333D01*
X76033333Y-55618095D01*
X76033333Y-55522857D01*
X76080952Y-55427619D01*
X76128571Y-55380000D01*
X76223809Y-55332380D01*
X76461904Y-55332380D01*
X76604761Y-55380000D01*
X77033333Y-55808571D02*
X77366666Y-55808571D01*
X77509523Y-56332380D02*
X77033333Y-56332380D01*
X77033333Y-55332380D01*
X77509523Y-55332380D01*
X77795238Y-55332380D02*
X78366666Y-55332380D01*
X78080952Y-56332380D02*
X78080952Y-55332380D01*
%TO.C,J1*%
X57511666Y-121102380D02*
X57511666Y-121816666D01*
X57464047Y-121959523D01*
X57368809Y-122054761D01*
X57225952Y-122102380D01*
X57130714Y-122102380D01*
X58511666Y-122102380D02*
X57940238Y-122102380D01*
X58225952Y-122102380D02*
X58225952Y-121102380D01*
X58130714Y-121245238D01*
X58035476Y-121340476D01*
X57940238Y-121388095D01*
%TO.C,J2*%
X57511666Y-98242380D02*
X57511666Y-98956666D01*
X57464047Y-99099523D01*
X57368809Y-99194761D01*
X57225952Y-99242380D01*
X57130714Y-99242380D01*
X57940238Y-98337619D02*
X57987857Y-98290000D01*
X58083095Y-98242380D01*
X58321190Y-98242380D01*
X58416428Y-98290000D01*
X58464047Y-98337619D01*
X58511666Y-98432857D01*
X58511666Y-98528095D01*
X58464047Y-98670952D01*
X57892619Y-99242380D01*
X58511666Y-99242380D01*
%TO.C,J3*%
X57511666Y-75382380D02*
X57511666Y-76096666D01*
X57464047Y-76239523D01*
X57368809Y-76334761D01*
X57225952Y-76382380D01*
X57130714Y-76382380D01*
X57892619Y-75382380D02*
X58511666Y-75382380D01*
X58178333Y-75763333D01*
X58321190Y-75763333D01*
X58416428Y-75810952D01*
X58464047Y-75858571D01*
X58511666Y-75953809D01*
X58511666Y-76191904D01*
X58464047Y-76287142D01*
X58416428Y-76334761D01*
X58321190Y-76382380D01*
X58035476Y-76382380D01*
X57940238Y-76334761D01*
X57892619Y-76287142D01*
%TO.C,J7*%
X129776666Y-121602380D02*
X129776666Y-122316666D01*
X129729047Y-122459523D01*
X129633809Y-122554761D01*
X129490952Y-122602380D01*
X129395714Y-122602380D01*
X130157619Y-121602380D02*
X130824285Y-121602380D01*
X130395714Y-122602380D01*
%TO.C,J8*%
X129776666Y-98742380D02*
X129776666Y-99456666D01*
X129729047Y-99599523D01*
X129633809Y-99694761D01*
X129490952Y-99742380D01*
X129395714Y-99742380D01*
X130395714Y-99170952D02*
X130300476Y-99123333D01*
X130252857Y-99075714D01*
X130205238Y-98980476D01*
X130205238Y-98932857D01*
X130252857Y-98837619D01*
X130300476Y-98790000D01*
X130395714Y-98742380D01*
X130586190Y-98742380D01*
X130681428Y-98790000D01*
X130729047Y-98837619D01*
X130776666Y-98932857D01*
X130776666Y-98980476D01*
X130729047Y-99075714D01*
X130681428Y-99123333D01*
X130586190Y-99170952D01*
X130395714Y-99170952D01*
X130300476Y-99218571D01*
X130252857Y-99266190D01*
X130205238Y-99361428D01*
X130205238Y-99551904D01*
X130252857Y-99647142D01*
X130300476Y-99694761D01*
X130395714Y-99742380D01*
X130586190Y-99742380D01*
X130681428Y-99694761D01*
X130729047Y-99647142D01*
X130776666Y-99551904D01*
X130776666Y-99361428D01*
X130729047Y-99266190D01*
X130681428Y-99218571D01*
X130586190Y-99170952D01*
%TO.C,J9*%
X129776666Y-75882380D02*
X129776666Y-76596666D01*
X129729047Y-76739523D01*
X129633809Y-76834761D01*
X129490952Y-76882380D01*
X129395714Y-76882380D01*
X130300476Y-76882380D02*
X130490952Y-76882380D01*
X130586190Y-76834761D01*
X130633809Y-76787142D01*
X130729047Y-76644285D01*
X130776666Y-76453809D01*
X130776666Y-76072857D01*
X130729047Y-75977619D01*
X130681428Y-75930000D01*
X130586190Y-75882380D01*
X130395714Y-75882380D01*
X130300476Y-75930000D01*
X130252857Y-75977619D01*
X130205238Y-76072857D01*
X130205238Y-76310952D01*
X130252857Y-76406190D01*
X130300476Y-76453809D01*
X130395714Y-76501428D01*
X130586190Y-76501428D01*
X130681428Y-76453809D01*
X130729047Y-76406190D01*
X130776666Y-76310952D01*
%TO.C,R2*%
X93813333Y-46342380D02*
X93480000Y-45866190D01*
X93241904Y-46342380D02*
X93241904Y-45342380D01*
X93622857Y-45342380D01*
X93718095Y-45390000D01*
X93765714Y-45437619D01*
X93813333Y-45532857D01*
X93813333Y-45675714D01*
X93765714Y-45770952D01*
X93718095Y-45818571D01*
X93622857Y-45866190D01*
X93241904Y-45866190D01*
X94194285Y-45437619D02*
X94241904Y-45390000D01*
X94337142Y-45342380D01*
X94575238Y-45342380D01*
X94670476Y-45390000D01*
X94718095Y-45437619D01*
X94765714Y-45532857D01*
X94765714Y-45628095D01*
X94718095Y-45770952D01*
X94146666Y-46342380D01*
X94765714Y-46342380D01*
%TO.C,R1*%
X76033333Y-46342380D02*
X75700000Y-45866190D01*
X75461904Y-46342380D02*
X75461904Y-45342380D01*
X75842857Y-45342380D01*
X75938095Y-45390000D01*
X75985714Y-45437619D01*
X76033333Y-45532857D01*
X76033333Y-45675714D01*
X75985714Y-45770952D01*
X75938095Y-45818571D01*
X75842857Y-45866190D01*
X75461904Y-45866190D01*
X76985714Y-46342380D02*
X76414285Y-46342380D01*
X76700000Y-46342380D02*
X76700000Y-45342380D01*
X76604761Y-45485238D01*
X76509523Y-45580476D01*
X76414285Y-45628095D01*
%TO.C,R3*%
X111593333Y-46342380D02*
X111260000Y-45866190D01*
X111021904Y-46342380D02*
X111021904Y-45342380D01*
X111402857Y-45342380D01*
X111498095Y-45390000D01*
X111545714Y-45437619D01*
X111593333Y-45532857D01*
X111593333Y-45675714D01*
X111545714Y-45770952D01*
X111498095Y-45818571D01*
X111402857Y-45866190D01*
X111021904Y-45866190D01*
X111926666Y-45342380D02*
X112545714Y-45342380D01*
X112212380Y-45723333D01*
X112355238Y-45723333D01*
X112450476Y-45770952D01*
X112498095Y-45818571D01*
X112545714Y-45913809D01*
X112545714Y-46151904D01*
X112498095Y-46247142D01*
X112450476Y-46294761D01*
X112355238Y-46342380D01*
X112069523Y-46342380D01*
X111974285Y-46294761D01*
X111926666Y-46247142D01*
%TO.C,U1*%
X93218095Y-100512380D02*
X93218095Y-101321904D01*
X93265714Y-101417142D01*
X93313333Y-101464761D01*
X93408571Y-101512380D01*
X93599047Y-101512380D01*
X93694285Y-101464761D01*
X93741904Y-101417142D01*
X93789523Y-101321904D01*
X93789523Y-100512380D01*
X94789523Y-101512380D02*
X94218095Y-101512380D01*
X94503809Y-101512380D02*
X94503809Y-100512380D01*
X94408571Y-100655238D01*
X94313333Y-100750476D01*
X94218095Y-100798095D01*
%TO.C,J6*%
X89832380Y-53673333D02*
X90546666Y-53673333D01*
X90689523Y-53720952D01*
X90784761Y-53816190D01*
X90832380Y-53959047D01*
X90832380Y-54054285D01*
X89832380Y-52768571D02*
X89832380Y-52959047D01*
X89880000Y-53054285D01*
X89927619Y-53101904D01*
X90070476Y-53197142D01*
X90260952Y-53244761D01*
X90641904Y-53244761D01*
X90737142Y-53197142D01*
X90784761Y-53149523D01*
X90832380Y-53054285D01*
X90832380Y-52863809D01*
X90784761Y-52768571D01*
X90737142Y-52720952D01*
X90641904Y-52673333D01*
X90403809Y-52673333D01*
X90308571Y-52720952D01*
X90260952Y-52768571D01*
X90213333Y-52863809D01*
X90213333Y-53054285D01*
X90260952Y-53149523D01*
X90308571Y-53197142D01*
X90403809Y-53244761D01*
%TO.C,J4*%
X106342380Y-54943333D02*
X107056666Y-54943333D01*
X107199523Y-54990952D01*
X107294761Y-55086190D01*
X107342380Y-55229047D01*
X107342380Y-55324285D01*
X106675714Y-54038571D02*
X107342380Y-54038571D01*
X106294761Y-54276666D02*
X107009047Y-54514761D01*
X107009047Y-53895714D01*
%TO.C,J10*%
X106342380Y-59229523D02*
X107056666Y-59229523D01*
X107199523Y-59277142D01*
X107294761Y-59372380D01*
X107342380Y-59515238D01*
X107342380Y-59610476D01*
X107342380Y-58229523D02*
X107342380Y-58800952D01*
X107342380Y-58515238D02*
X106342380Y-58515238D01*
X106485238Y-58610476D01*
X106580476Y-58705714D01*
X106628095Y-58800952D01*
X106342380Y-57610476D02*
X106342380Y-57515238D01*
X106390000Y-57420000D01*
X106437619Y-57372380D01*
X106532857Y-57324761D01*
X106723333Y-57277142D01*
X106961428Y-57277142D01*
X107151904Y-57324761D01*
X107247142Y-57372380D01*
X107294761Y-57420000D01*
X107342380Y-57515238D01*
X107342380Y-57610476D01*
X107294761Y-57705714D01*
X107247142Y-57753333D01*
X107151904Y-57800952D01*
X106961428Y-57848571D01*
X106723333Y-57848571D01*
X106532857Y-57800952D01*
X106437619Y-57753333D01*
X106390000Y-57705714D01*
X106342380Y-57610476D01*
%TO.C,J5*%
X72052380Y-53673333D02*
X72766666Y-53673333D01*
X72909523Y-53720952D01*
X73004761Y-53816190D01*
X73052380Y-53959047D01*
X73052380Y-54054285D01*
X72052380Y-52720952D02*
X72052380Y-53197142D01*
X72528571Y-53244761D01*
X72480952Y-53197142D01*
X72433333Y-53101904D01*
X72433333Y-52863809D01*
X72480952Y-52768571D01*
X72528571Y-52720952D01*
X72623809Y-52673333D01*
X72861904Y-52673333D01*
X72957142Y-52720952D01*
X73004761Y-52768571D01*
X73052380Y-52863809D01*
X73052380Y-53101904D01*
X73004761Y-53197142D01*
X72957142Y-53244761D01*
D11*
%TO.C,J1*%
X56860000Y-112140000D02*
X50860000Y-112140000D01*
X50860000Y-107060000D02*
X50860000Y-106300000D01*
X50860000Y-108840000D02*
X56860000Y-108840000D01*
X56860000Y-119340000D02*
X50860000Y-119340000D01*
X62457071Y-114680000D02*
X62002929Y-114680000D01*
X62457071Y-107060000D02*
X62002929Y-107060000D01*
X59917071Y-119760000D02*
X59520000Y-119760000D01*
X50860000Y-113920000D02*
X56860000Y-113920000D01*
X59917071Y-116460000D02*
X59520000Y-116460000D01*
X56860000Y-120710000D02*
X59520000Y-120710000D01*
X59917071Y-109600000D02*
X59520000Y-109600000D01*
X50860000Y-111380000D02*
X56860000Y-111380000D01*
X56860000Y-117220000D02*
X50860000Y-117220000D01*
X64770000Y-119380000D02*
X64770000Y-120650000D01*
X50860000Y-112140000D02*
X50860000Y-111380000D01*
X56860000Y-119460000D02*
X50860000Y-119460000D01*
X59520000Y-115570000D02*
X56860000Y-115570000D01*
X59520000Y-118110000D02*
X56860000Y-118110000D01*
X59917071Y-114680000D02*
X59520000Y-114680000D01*
X56860000Y-114680000D02*
X50860000Y-114680000D01*
X56860000Y-107060000D02*
X50860000Y-107060000D01*
X59520000Y-105350000D02*
X56860000Y-105350000D01*
X50860000Y-119000000D02*
X56860000Y-119000000D01*
X62457071Y-113920000D02*
X62002929Y-113920000D01*
X62457071Y-108840000D02*
X62002929Y-108840000D01*
X50860000Y-114680000D02*
X50860000Y-113920000D01*
X59917071Y-117220000D02*
X59520000Y-117220000D01*
X62457071Y-117220000D02*
X62002929Y-117220000D01*
X62457071Y-112140000D02*
X62002929Y-112140000D01*
X59917071Y-107060000D02*
X59520000Y-107060000D01*
X59917071Y-106300000D02*
X59520000Y-106300000D01*
X62457071Y-106300000D02*
X62002929Y-106300000D01*
X56860000Y-119760000D02*
X50860000Y-119760000D01*
X59917071Y-119000000D02*
X59520000Y-119000000D01*
X56860000Y-119580000D02*
X50860000Y-119580000D01*
X62390000Y-119000000D02*
X62002929Y-119000000D01*
X50860000Y-117220000D02*
X50860000Y-116460000D01*
X56860000Y-119220000D02*
X50860000Y-119220000D01*
X56860000Y-109600000D02*
X50860000Y-109600000D01*
X59520000Y-110490000D02*
X56860000Y-110490000D01*
X62457071Y-109600000D02*
X62002929Y-109600000D01*
X59520000Y-120710000D02*
X59520000Y-105350000D01*
X59917071Y-108840000D02*
X59520000Y-108840000D01*
X56860000Y-105350000D02*
X56860000Y-120710000D01*
X59520000Y-113030000D02*
X56860000Y-113030000D01*
X62457071Y-111380000D02*
X62002929Y-111380000D01*
X59520000Y-107950000D02*
X56860000Y-107950000D01*
X59917071Y-113920000D02*
X59520000Y-113920000D01*
X64770000Y-120650000D02*
X63500000Y-120650000D01*
X56860000Y-119700000D02*
X50860000Y-119700000D01*
X50860000Y-119760000D02*
X50860000Y-119000000D01*
X62457071Y-116460000D02*
X62002929Y-116460000D01*
X59917071Y-111380000D02*
X59520000Y-111380000D01*
X62390000Y-119760000D02*
X62002929Y-119760000D01*
X50860000Y-116460000D02*
X56860000Y-116460000D01*
X59917071Y-112140000D02*
X59520000Y-112140000D01*
X56860000Y-119100000D02*
X50860000Y-119100000D01*
X50860000Y-106300000D02*
X56860000Y-106300000D01*
X50860000Y-109600000D02*
X50860000Y-108840000D01*
%TO.C,J2*%
X56860000Y-96360000D02*
X50860000Y-96360000D01*
X62457071Y-93600000D02*
X62002929Y-93600000D01*
X59917071Y-96900000D02*
X59520000Y-96900000D01*
X59917071Y-89280000D02*
X59520000Y-89280000D01*
X62457071Y-91060000D02*
X62002929Y-91060000D01*
X62457071Y-85980000D02*
X62002929Y-85980000D01*
X64770000Y-96520000D02*
X64770000Y-97790000D01*
X56860000Y-89280000D02*
X50860000Y-89280000D01*
X56860000Y-84200000D02*
X50860000Y-84200000D01*
X62390000Y-96900000D02*
X62002929Y-96900000D01*
X59520000Y-92710000D02*
X56860000Y-92710000D01*
X50860000Y-85980000D02*
X56860000Y-85980000D01*
X56860000Y-96900000D02*
X50860000Y-96900000D01*
X50860000Y-93600000D02*
X56860000Y-93600000D01*
X50860000Y-89280000D02*
X50860000Y-88520000D01*
X56860000Y-96720000D02*
X50860000Y-96720000D01*
X50860000Y-88520000D02*
X56860000Y-88520000D01*
X62390000Y-96140000D02*
X62002929Y-96140000D01*
X56860000Y-96240000D02*
X50860000Y-96240000D01*
X56860000Y-86740000D02*
X50860000Y-86740000D01*
X59917071Y-91820000D02*
X59520000Y-91820000D01*
X56860000Y-91820000D02*
X50860000Y-91820000D01*
X59917071Y-86740000D02*
X59520000Y-86740000D01*
X59917071Y-94360000D02*
X59520000Y-94360000D01*
X59917071Y-84200000D02*
X59520000Y-84200000D01*
X56860000Y-94360000D02*
X50860000Y-94360000D01*
X59520000Y-90170000D02*
X56860000Y-90170000D01*
X50860000Y-91820000D02*
X50860000Y-91060000D01*
X50860000Y-84200000D02*
X50860000Y-83440000D01*
X56860000Y-96600000D02*
X50860000Y-96600000D01*
X62457071Y-84200000D02*
X62002929Y-84200000D01*
X59917071Y-85980000D02*
X59520000Y-85980000D01*
X50860000Y-94360000D02*
X50860000Y-93600000D01*
X59520000Y-97850000D02*
X59520000Y-82490000D01*
X56860000Y-96840000D02*
X50860000Y-96840000D01*
X59520000Y-87630000D02*
X56860000Y-87630000D01*
X50860000Y-91060000D02*
X56860000Y-91060000D01*
X62457071Y-86740000D02*
X62002929Y-86740000D01*
X59917071Y-83440000D02*
X59520000Y-83440000D01*
X62457071Y-88520000D02*
X62002929Y-88520000D01*
X64770000Y-97790000D02*
X63500000Y-97790000D01*
X62457071Y-91820000D02*
X62002929Y-91820000D01*
X59520000Y-95250000D02*
X56860000Y-95250000D01*
X50860000Y-86740000D02*
X50860000Y-85980000D01*
X50860000Y-96900000D02*
X50860000Y-96140000D01*
X62457071Y-89280000D02*
X62002929Y-89280000D01*
X56860000Y-96480000D02*
X50860000Y-96480000D01*
X56860000Y-97850000D02*
X59520000Y-97850000D01*
X59917071Y-93600000D02*
X59520000Y-93600000D01*
X59917071Y-88520000D02*
X59520000Y-88520000D01*
X50860000Y-83440000D02*
X56860000Y-83440000D01*
X59917071Y-91060000D02*
X59520000Y-91060000D01*
X59520000Y-82490000D02*
X56860000Y-82490000D01*
X62457071Y-83440000D02*
X62002929Y-83440000D01*
X56860000Y-82490000D02*
X56860000Y-97850000D01*
X59520000Y-85090000D02*
X56860000Y-85090000D01*
X62457071Y-94360000D02*
X62002929Y-94360000D01*
X59917071Y-96140000D02*
X59520000Y-96140000D01*
X50860000Y-96140000D02*
X56860000Y-96140000D01*
%TO.C,J3*%
X59917071Y-61340000D02*
X59520000Y-61340000D01*
X56860000Y-73740000D02*
X50860000Y-73740000D01*
X62457071Y-68200000D02*
X62002929Y-68200000D01*
X56860000Y-61340000D02*
X50860000Y-61340000D01*
X62457071Y-63880000D02*
X62002929Y-63880000D01*
X59917071Y-63880000D02*
X59520000Y-63880000D01*
X50860000Y-71500000D02*
X50860000Y-70740000D01*
X56860000Y-74040000D02*
X50860000Y-74040000D01*
X62457071Y-71500000D02*
X62002929Y-71500000D01*
X56860000Y-73860000D02*
X50860000Y-73860000D01*
X50860000Y-66420000D02*
X50860000Y-65660000D01*
X50860000Y-63120000D02*
X56860000Y-63120000D01*
X56860000Y-73620000D02*
X50860000Y-73620000D01*
X56860000Y-73380000D02*
X50860000Y-73380000D01*
X62457071Y-61340000D02*
X62002929Y-61340000D01*
X50860000Y-70740000D02*
X56860000Y-70740000D01*
X59520000Y-64770000D02*
X56860000Y-64770000D01*
X56860000Y-63880000D02*
X50860000Y-63880000D01*
X64770000Y-73660000D02*
X64770000Y-74930000D01*
X62457071Y-68960000D02*
X62002929Y-68960000D01*
X50860000Y-65660000D02*
X56860000Y-65660000D01*
X59520000Y-62230000D02*
X56860000Y-62230000D01*
X62457071Y-63120000D02*
X62002929Y-63120000D01*
X50860000Y-60580000D02*
X56860000Y-60580000D01*
X59917071Y-65660000D02*
X59520000Y-65660000D01*
X59917071Y-68200000D02*
X59520000Y-68200000D01*
X59917071Y-70740000D02*
X59520000Y-70740000D01*
X50860000Y-68960000D02*
X50860000Y-68200000D01*
X59520000Y-67310000D02*
X56860000Y-67310000D01*
X50860000Y-74040000D02*
X50860000Y-73280000D01*
X59520000Y-59630000D02*
X56860000Y-59630000D01*
X62390000Y-73280000D02*
X62002929Y-73280000D01*
X59917071Y-71500000D02*
X59520000Y-71500000D01*
X59917071Y-60580000D02*
X59520000Y-60580000D01*
X59917071Y-73280000D02*
X59520000Y-73280000D01*
X59917071Y-68960000D02*
X59520000Y-68960000D01*
X50860000Y-68200000D02*
X56860000Y-68200000D01*
X62390000Y-74040000D02*
X62002929Y-74040000D01*
X62457071Y-70740000D02*
X62002929Y-70740000D01*
X62457071Y-66420000D02*
X62002929Y-66420000D01*
X59520000Y-72390000D02*
X56860000Y-72390000D01*
X56860000Y-68960000D02*
X50860000Y-68960000D01*
X56860000Y-59630000D02*
X56860000Y-74990000D01*
X64770000Y-74930000D02*
X63500000Y-74930000D01*
X50860000Y-63880000D02*
X50860000Y-63120000D01*
X56860000Y-73500000D02*
X50860000Y-73500000D01*
X59520000Y-69850000D02*
X56860000Y-69850000D01*
X59917071Y-66420000D02*
X59520000Y-66420000D01*
X59917071Y-74040000D02*
X59520000Y-74040000D01*
X62457071Y-65660000D02*
X62002929Y-65660000D01*
X59520000Y-74990000D02*
X59520000Y-59630000D01*
X56860000Y-73980000D02*
X50860000Y-73980000D01*
X59917071Y-63120000D02*
X59520000Y-63120000D01*
X50860000Y-61340000D02*
X50860000Y-60580000D01*
X56860000Y-71500000D02*
X50860000Y-71500000D01*
X56860000Y-66420000D02*
X50860000Y-66420000D01*
X56860000Y-74990000D02*
X59520000Y-74990000D01*
X62457071Y-60580000D02*
X62002929Y-60580000D01*
X50860000Y-73280000D02*
X56860000Y-73280000D01*
%TO.C,J7*%
X128460000Y-114660000D02*
X128050000Y-114660000D01*
X128460000Y-120710000D02*
X128460000Y-105350000D01*
X125950000Y-119020000D02*
X125570000Y-119020000D01*
X125950000Y-112120000D02*
X125510000Y-112120000D01*
X137090000Y-120117620D02*
X128460000Y-120117620D01*
X128460000Y-117200000D02*
X128050000Y-117200000D01*
X137090000Y-119763335D02*
X128460000Y-119763335D01*
X137090000Y-119290955D02*
X128460000Y-119290955D01*
X137090000Y-119172860D02*
X128460000Y-119172860D01*
X137090000Y-120590000D02*
X128460000Y-120590000D01*
X125950000Y-113940000D02*
X125510000Y-113940000D01*
X137090000Y-118936670D02*
X128460000Y-118936670D01*
X125950000Y-107040000D02*
X125510000Y-107040000D01*
X137090000Y-119999525D02*
X128460000Y-119999525D01*
X123350000Y-120710000D02*
X123350000Y-119380000D01*
X137090000Y-119527145D02*
X128460000Y-119527145D01*
X128460000Y-113940000D02*
X128050000Y-113940000D01*
X137090000Y-119054765D02*
X128460000Y-119054765D01*
X125950000Y-111400000D02*
X125510000Y-111400000D01*
X137090000Y-120710000D02*
X128460000Y-120710000D01*
X125950000Y-114660000D02*
X125510000Y-114660000D01*
X137090000Y-115570000D02*
X128460000Y-115570000D01*
X137090000Y-119645240D02*
X128460000Y-119645240D01*
X137090000Y-120353810D02*
X128460000Y-120353810D01*
X137090000Y-118464290D02*
X128460000Y-118464290D01*
X128460000Y-106320000D02*
X128050000Y-106320000D01*
X124460000Y-120710000D02*
X123350000Y-120710000D01*
X137090000Y-120710000D02*
X137090000Y-105350000D01*
X125950000Y-119740000D02*
X125570000Y-119740000D01*
X137090000Y-118818575D02*
X128460000Y-118818575D01*
X128460000Y-108860000D02*
X128050000Y-108860000D01*
X137090000Y-118700480D02*
X128460000Y-118700480D01*
X128460000Y-119020000D02*
X128050000Y-119020000D01*
X128460000Y-112120000D02*
X128050000Y-112120000D01*
X128460000Y-107040000D02*
X128050000Y-107040000D01*
X128460000Y-119740000D02*
X128050000Y-119740000D01*
X128460000Y-116480000D02*
X128050000Y-116480000D01*
X137090000Y-120235715D02*
X128460000Y-120235715D01*
X128460000Y-111400000D02*
X128050000Y-111400000D01*
X125950000Y-106320000D02*
X125510000Y-106320000D01*
X137090000Y-118110000D02*
X128460000Y-118110000D01*
X137090000Y-118228100D02*
X128460000Y-118228100D01*
X125950000Y-117200000D02*
X125510000Y-117200000D01*
X137090000Y-113030000D02*
X128460000Y-113030000D01*
X128460000Y-109580000D02*
X128050000Y-109580000D01*
X137090000Y-118346195D02*
X128460000Y-118346195D01*
X137090000Y-110490000D02*
X128460000Y-110490000D01*
X137090000Y-105350000D02*
X128460000Y-105350000D01*
X125950000Y-108860000D02*
X125510000Y-108860000D01*
X137090000Y-118582385D02*
X128460000Y-118582385D01*
X137090000Y-119881430D02*
X128460000Y-119881430D01*
X137090000Y-107950000D02*
X128460000Y-107950000D01*
X125950000Y-109580000D02*
X125510000Y-109580000D01*
X137090000Y-120471905D02*
X128460000Y-120471905D01*
X125950000Y-116480000D02*
X125510000Y-116480000D01*
X137090000Y-119409050D02*
X128460000Y-119409050D01*
%TO.C,J8*%
X137090000Y-96785240D02*
X128460000Y-96785240D01*
X137090000Y-96076670D02*
X128460000Y-96076670D01*
X137090000Y-85090000D02*
X128460000Y-85090000D01*
X123350000Y-97850000D02*
X123350000Y-96520000D01*
X137090000Y-96903335D02*
X128460000Y-96903335D01*
X137090000Y-96667145D02*
X128460000Y-96667145D01*
X124460000Y-97850000D02*
X123350000Y-97850000D01*
X137090000Y-96430955D02*
X128460000Y-96430955D01*
X137090000Y-96194765D02*
X128460000Y-96194765D01*
X128460000Y-97850000D02*
X128460000Y-82490000D01*
X125950000Y-89260000D02*
X125510000Y-89260000D01*
X128460000Y-91800000D02*
X128050000Y-91800000D01*
X128460000Y-86720000D02*
X128050000Y-86720000D01*
X125950000Y-91080000D02*
X125510000Y-91080000D01*
X137090000Y-92710000D02*
X128460000Y-92710000D01*
X125950000Y-83460000D02*
X125510000Y-83460000D01*
X137090000Y-87630000D02*
X128460000Y-87630000D01*
X128460000Y-91080000D02*
X128050000Y-91080000D01*
X137090000Y-97850000D02*
X137090000Y-82490000D01*
X137090000Y-95486195D02*
X128460000Y-95486195D01*
X137090000Y-95604290D02*
X128460000Y-95604290D01*
X125950000Y-96160000D02*
X125570000Y-96160000D01*
X137090000Y-97139525D02*
X128460000Y-97139525D01*
X125950000Y-88540000D02*
X125510000Y-88540000D01*
X125950000Y-94340000D02*
X125510000Y-94340000D01*
X128460000Y-96160000D02*
X128050000Y-96160000D01*
X137090000Y-95250000D02*
X128460000Y-95250000D01*
X137090000Y-97257620D02*
X128460000Y-97257620D01*
X137090000Y-96312860D02*
X128460000Y-96312860D01*
X125950000Y-91800000D02*
X125510000Y-91800000D01*
X137090000Y-82490000D02*
X128460000Y-82490000D01*
X128460000Y-94340000D02*
X128050000Y-94340000D01*
X137090000Y-97021430D02*
X128460000Y-97021430D01*
X137090000Y-97611905D02*
X128460000Y-97611905D01*
X137090000Y-96549050D02*
X128460000Y-96549050D01*
X137090000Y-95840480D02*
X128460000Y-95840480D01*
X125950000Y-84180000D02*
X125510000Y-84180000D01*
X137090000Y-95958575D02*
X128460000Y-95958575D01*
X137090000Y-90170000D02*
X128460000Y-90170000D01*
X137090000Y-97375715D02*
X128460000Y-97375715D01*
X125950000Y-86000000D02*
X125510000Y-86000000D01*
X137090000Y-95368100D02*
X128460000Y-95368100D01*
X137090000Y-97493810D02*
X128460000Y-97493810D01*
X128460000Y-88540000D02*
X128050000Y-88540000D01*
X128460000Y-96880000D02*
X128050000Y-96880000D01*
X128460000Y-86000000D02*
X128050000Y-86000000D01*
X125950000Y-96880000D02*
X125570000Y-96880000D01*
X125950000Y-86720000D02*
X125510000Y-86720000D01*
X125950000Y-93620000D02*
X125510000Y-93620000D01*
X128460000Y-89260000D02*
X128050000Y-89260000D01*
X137090000Y-97850000D02*
X128460000Y-97850000D01*
X137090000Y-97730000D02*
X128460000Y-97730000D01*
X128460000Y-83460000D02*
X128050000Y-83460000D01*
X128460000Y-93620000D02*
X128050000Y-93620000D01*
X128460000Y-84180000D02*
X128050000Y-84180000D01*
X137090000Y-95722385D02*
X128460000Y-95722385D01*
%TO.C,J9*%
X128460000Y-63140000D02*
X128050000Y-63140000D01*
X128460000Y-70760000D02*
X128050000Y-70760000D01*
X128460000Y-61320000D02*
X128050000Y-61320000D01*
X137090000Y-69850000D02*
X128460000Y-69850000D01*
X128460000Y-65680000D02*
X128050000Y-65680000D01*
X137090000Y-73570955D02*
X128460000Y-73570955D01*
X137090000Y-72390000D02*
X128460000Y-72390000D01*
X137090000Y-73334765D02*
X128460000Y-73334765D01*
X125950000Y-68940000D02*
X125510000Y-68940000D01*
X125950000Y-73300000D02*
X125570000Y-73300000D01*
X128460000Y-68940000D02*
X128050000Y-68940000D01*
X137090000Y-73689050D02*
X128460000Y-73689050D01*
X125950000Y-60600000D02*
X125510000Y-60600000D01*
X125950000Y-63140000D02*
X125510000Y-63140000D01*
X125950000Y-65680000D02*
X125510000Y-65680000D01*
X137090000Y-72744290D02*
X128460000Y-72744290D01*
X137090000Y-74279525D02*
X128460000Y-74279525D01*
X125950000Y-71480000D02*
X125510000Y-71480000D01*
X128460000Y-66400000D02*
X128050000Y-66400000D01*
X125950000Y-66400000D02*
X125510000Y-66400000D01*
X137090000Y-74870000D02*
X128460000Y-74870000D01*
X137090000Y-73452860D02*
X128460000Y-73452860D01*
X137090000Y-59630000D02*
X128460000Y-59630000D01*
X137090000Y-74990000D02*
X128460000Y-74990000D01*
X137090000Y-74633810D02*
X128460000Y-74633810D01*
X128460000Y-63860000D02*
X128050000Y-63860000D01*
X137090000Y-72508100D02*
X128460000Y-72508100D01*
X137090000Y-72862385D02*
X128460000Y-72862385D01*
X137090000Y-67310000D02*
X128460000Y-67310000D01*
X137090000Y-73216670D02*
X128460000Y-73216670D01*
X128460000Y-74020000D02*
X128050000Y-74020000D01*
X137090000Y-74751905D02*
X128460000Y-74751905D01*
X125950000Y-68220000D02*
X125510000Y-68220000D01*
X128460000Y-68220000D02*
X128050000Y-68220000D01*
X125950000Y-61320000D02*
X125510000Y-61320000D01*
X125950000Y-70760000D02*
X125510000Y-70760000D01*
X137090000Y-64770000D02*
X128460000Y-64770000D01*
X137090000Y-74397620D02*
X128460000Y-74397620D01*
X128460000Y-60600000D02*
X128050000Y-60600000D01*
X137090000Y-72626195D02*
X128460000Y-72626195D01*
X128460000Y-71480000D02*
X128050000Y-71480000D01*
X137090000Y-74990000D02*
X137090000Y-59630000D01*
X125950000Y-63860000D02*
X125510000Y-63860000D01*
X137090000Y-73098575D02*
X128460000Y-73098575D01*
X128460000Y-74990000D02*
X128460000Y-59630000D01*
X137090000Y-74043335D02*
X128460000Y-74043335D01*
X137090000Y-74515715D02*
X128460000Y-74515715D01*
X123350000Y-74990000D02*
X123350000Y-73660000D01*
X137090000Y-62230000D02*
X128460000Y-62230000D01*
X125950000Y-74020000D02*
X125570000Y-74020000D01*
X137090000Y-73807145D02*
X128460000Y-73807145D01*
X124460000Y-74990000D02*
X123350000Y-74990000D01*
X137090000Y-73925240D02*
X128460000Y-73925240D01*
X137090000Y-74161430D02*
X128460000Y-74161430D01*
X128460000Y-73300000D02*
X128050000Y-73300000D01*
X137090000Y-72980480D02*
X128460000Y-72980480D01*
%TO.C,R2*%
X90710000Y-46890000D02*
X90710000Y-49630000D01*
X89940000Y-48260000D02*
X90710000Y-48260000D01*
X98020000Y-48260000D02*
X97250000Y-48260000D01*
X97250000Y-46890000D02*
X90710000Y-46890000D01*
X97250000Y-49630000D02*
X97250000Y-46890000D01*
X90710000Y-49630000D02*
X97250000Y-49630000D01*
%TO.C,R1*%
X79470000Y-49630000D02*
X79470000Y-46890000D01*
X80240000Y-48260000D02*
X79470000Y-48260000D01*
X79470000Y-46890000D02*
X72930000Y-46890000D01*
X72930000Y-46890000D02*
X72930000Y-49630000D01*
X72930000Y-49630000D02*
X79470000Y-49630000D01*
X72160000Y-48260000D02*
X72930000Y-48260000D01*
%TO.C,R3*%
X115030000Y-49630000D02*
X115030000Y-46890000D01*
X107720000Y-48260000D02*
X108490000Y-48260000D01*
X108490000Y-46890000D02*
X108490000Y-49630000D01*
X115030000Y-46890000D02*
X108490000Y-46890000D01*
X108490000Y-49630000D02*
X115030000Y-49630000D01*
X115800000Y-48260000D02*
X115030000Y-48260000D01*
%TO.C,U1*%
X73980000Y-64020000D02*
X113980000Y-64020000D01*
X113980000Y-64020000D02*
X113980000Y-134020000D01*
X113980000Y-134020000D02*
X73980000Y-134020000D01*
X73980000Y-134020000D02*
X73980000Y-64020000D01*
%TO.C,J6*%
X96580000Y-54670000D02*
X96580000Y-52010000D01*
X92710000Y-54670000D02*
X91380000Y-54670000D01*
X93980000Y-54670000D02*
X96580000Y-54670000D01*
X93980000Y-52010000D02*
X96580000Y-52010000D01*
X93980000Y-54670000D02*
X93980000Y-52010000D01*
X91380000Y-54670000D02*
X91380000Y-53340000D01*
%TO.C,J4*%
X109220000Y-57210000D02*
X107890000Y-57210000D01*
X110490000Y-57210000D02*
X115630000Y-57210000D01*
X110490000Y-54610000D02*
X107890000Y-54610000D01*
X107890000Y-52010000D02*
X115630000Y-52010000D01*
X110490000Y-57210000D02*
X110490000Y-54610000D01*
X115630000Y-57210000D02*
X115630000Y-52010000D01*
X107890000Y-57210000D02*
X107890000Y-55880000D01*
X107890000Y-54610000D02*
X107890000Y-52010000D01*
%TO.C,J10*%
X110490000Y-59750000D02*
X115630000Y-59750000D01*
X115630000Y-59750000D02*
X115630000Y-57090000D01*
X109220000Y-59750000D02*
X107890000Y-59750000D01*
X110490000Y-59750000D02*
X110490000Y-57090000D01*
X110490000Y-57090000D02*
X115630000Y-57090000D01*
X107890000Y-59750000D02*
X107890000Y-58420000D01*
%TO.C,J5*%
X76200000Y-54670000D02*
X76200000Y-52010000D01*
X73600000Y-54670000D02*
X73600000Y-53340000D01*
X78800000Y-54670000D02*
X78800000Y-52010000D01*
X76200000Y-54670000D02*
X78800000Y-54670000D01*
X74930000Y-54670000D02*
X73600000Y-54670000D01*
X76200000Y-52010000D02*
X78800000Y-52010000D01*
%TD*%
M02*
