%TF.GenerationSoftware,KiCad,Pcbnew,7.0.1*%
%TF.CreationDate,2023-04-28T09:54:53+02:00*%
%TF.ProjectId,AS4432_ANT,41533434-3332-45f4-914e-542e6b696361,rev?*%
%TF.SameCoordinates,Original*%
%TF.FileFunction,Legend,Top*%
%TF.FilePolarity,Positive*%
%FSLAX46Y46*%
G04 Gerber Fmt 4.6, Leading zero omitted, Abs format (unit mm)*
G04 Created by KiCad (PCBNEW 7.0.1) date 2023-04-28 09:54:53*
%MOMM*%
%LPD*%
G01*
G04 APERTURE LIST*
%ADD10C,0.150000*%
%ADD11C,0.120000*%
G04 APERTURE END LIST*
D10*
%TO.C,U1*%
X128143095Y-39467619D02*
X128143095Y-40277142D01*
X128143095Y-40277142D02*
X128190714Y-40372380D01*
X128190714Y-40372380D02*
X128238333Y-40420000D01*
X128238333Y-40420000D02*
X128333571Y-40467619D01*
X128333571Y-40467619D02*
X128524047Y-40467619D01*
X128524047Y-40467619D02*
X128619285Y-40420000D01*
X128619285Y-40420000D02*
X128666904Y-40372380D01*
X128666904Y-40372380D02*
X128714523Y-40277142D01*
X128714523Y-40277142D02*
X128714523Y-39467619D01*
X129714523Y-40467619D02*
X129143095Y-40467619D01*
X129428809Y-40467619D02*
X129428809Y-39467619D01*
X129428809Y-39467619D02*
X129333571Y-39610476D01*
X129333571Y-39610476D02*
X129238333Y-39705714D01*
X129238333Y-39705714D02*
X129143095Y-39753333D01*
%TO.C,C1*%
X137628333Y-39737380D02*
X137580714Y-39785000D01*
X137580714Y-39785000D02*
X137437857Y-39832619D01*
X137437857Y-39832619D02*
X137342619Y-39832619D01*
X137342619Y-39832619D02*
X137199762Y-39785000D01*
X137199762Y-39785000D02*
X137104524Y-39689761D01*
X137104524Y-39689761D02*
X137056905Y-39594523D01*
X137056905Y-39594523D02*
X137009286Y-39404047D01*
X137009286Y-39404047D02*
X137009286Y-39261190D01*
X137009286Y-39261190D02*
X137056905Y-39070714D01*
X137056905Y-39070714D02*
X137104524Y-38975476D01*
X137104524Y-38975476D02*
X137199762Y-38880238D01*
X137199762Y-38880238D02*
X137342619Y-38832619D01*
X137342619Y-38832619D02*
X137437857Y-38832619D01*
X137437857Y-38832619D02*
X137580714Y-38880238D01*
X137580714Y-38880238D02*
X137628333Y-38927857D01*
X138580714Y-39832619D02*
X138009286Y-39832619D01*
X138295000Y-39832619D02*
X138295000Y-38832619D01*
X138295000Y-38832619D02*
X138199762Y-38975476D01*
X138199762Y-38975476D02*
X138104524Y-39070714D01*
X138104524Y-39070714D02*
X138009286Y-39118333D01*
%TO.C,C2*%
X147788333Y-39737380D02*
X147740714Y-39785000D01*
X147740714Y-39785000D02*
X147597857Y-39832619D01*
X147597857Y-39832619D02*
X147502619Y-39832619D01*
X147502619Y-39832619D02*
X147359762Y-39785000D01*
X147359762Y-39785000D02*
X147264524Y-39689761D01*
X147264524Y-39689761D02*
X147216905Y-39594523D01*
X147216905Y-39594523D02*
X147169286Y-39404047D01*
X147169286Y-39404047D02*
X147169286Y-39261190D01*
X147169286Y-39261190D02*
X147216905Y-39070714D01*
X147216905Y-39070714D02*
X147264524Y-38975476D01*
X147264524Y-38975476D02*
X147359762Y-38880238D01*
X147359762Y-38880238D02*
X147502619Y-38832619D01*
X147502619Y-38832619D02*
X147597857Y-38832619D01*
X147597857Y-38832619D02*
X147740714Y-38880238D01*
X147740714Y-38880238D02*
X147788333Y-38927857D01*
X148169286Y-38927857D02*
X148216905Y-38880238D01*
X148216905Y-38880238D02*
X148312143Y-38832619D01*
X148312143Y-38832619D02*
X148550238Y-38832619D01*
X148550238Y-38832619D02*
X148645476Y-38880238D01*
X148645476Y-38880238D02*
X148693095Y-38927857D01*
X148693095Y-38927857D02*
X148740714Y-39023095D01*
X148740714Y-39023095D02*
X148740714Y-39118333D01*
X148740714Y-39118333D02*
X148693095Y-39261190D01*
X148693095Y-39261190D02*
X148121667Y-39832619D01*
X148121667Y-39832619D02*
X148740714Y-39832619D01*
D11*
%TO.C,J1*%
X148590000Y-41910000D02*
X149860000Y-41910000D01*
X148590000Y-43180000D02*
X148590000Y-41910000D01*
X150902929Y-45340000D02*
X151357071Y-45340000D01*
X150902929Y-46100000D02*
X151357071Y-46100000D01*
X150902929Y-47880000D02*
X151357071Y-47880000D01*
X150902929Y-48640000D02*
X151357071Y-48640000D01*
X150902929Y-50420000D02*
X151357071Y-50420000D01*
X150902929Y-51180000D02*
X151357071Y-51180000D01*
X150902929Y-52960000D02*
X151357071Y-52960000D01*
X150902929Y-53720000D02*
X151357071Y-53720000D01*
X150902929Y-55500000D02*
X151357071Y-55500000D01*
X150902929Y-56260000D02*
X151357071Y-56260000D01*
X150970000Y-42800000D02*
X151357071Y-42800000D01*
X150970000Y-43560000D02*
X151357071Y-43560000D01*
X153442929Y-42800000D02*
X153840000Y-42800000D01*
X153442929Y-43560000D02*
X153840000Y-43560000D01*
X153442929Y-45340000D02*
X153840000Y-45340000D01*
X153442929Y-46100000D02*
X153840000Y-46100000D01*
X153442929Y-47880000D02*
X153840000Y-47880000D01*
X153442929Y-48640000D02*
X153840000Y-48640000D01*
X153442929Y-50420000D02*
X153840000Y-50420000D01*
X153442929Y-51180000D02*
X153840000Y-51180000D01*
X153442929Y-52960000D02*
X153840000Y-52960000D01*
X153442929Y-53720000D02*
X153840000Y-53720000D01*
X153442929Y-55500000D02*
X153840000Y-55500000D01*
X153442929Y-56260000D02*
X153840000Y-56260000D01*
X153840000Y-41850000D02*
X153840000Y-57210000D01*
X153840000Y-44450000D02*
X156500000Y-44450000D01*
X153840000Y-46990000D02*
X156500000Y-46990000D01*
X153840000Y-49530000D02*
X156500000Y-49530000D01*
X153840000Y-52070000D02*
X156500000Y-52070000D01*
X153840000Y-54610000D02*
X156500000Y-54610000D01*
X153840000Y-57210000D02*
X156500000Y-57210000D01*
X156500000Y-41850000D02*
X153840000Y-41850000D01*
X156500000Y-42800000D02*
X162500000Y-42800000D01*
X156500000Y-42860000D02*
X162500000Y-42860000D01*
X156500000Y-42980000D02*
X162500000Y-42980000D01*
X156500000Y-43100000D02*
X162500000Y-43100000D01*
X156500000Y-43220000D02*
X162500000Y-43220000D01*
X156500000Y-43340000D02*
X162500000Y-43340000D01*
X156500000Y-43460000D02*
X162500000Y-43460000D01*
X156500000Y-45340000D02*
X162500000Y-45340000D01*
X156500000Y-47880000D02*
X162500000Y-47880000D01*
X156500000Y-50420000D02*
X162500000Y-50420000D01*
X156500000Y-52960000D02*
X162500000Y-52960000D01*
X156500000Y-55500000D02*
X162500000Y-55500000D01*
X156500000Y-57210000D02*
X156500000Y-41850000D01*
X162500000Y-42800000D02*
X162500000Y-43560000D01*
X162500000Y-43560000D02*
X156500000Y-43560000D01*
X162500000Y-45340000D02*
X162500000Y-46100000D01*
X162500000Y-46100000D02*
X156500000Y-46100000D01*
X162500000Y-47880000D02*
X162500000Y-48640000D01*
X162500000Y-48640000D02*
X156500000Y-48640000D01*
X162500000Y-50420000D02*
X162500000Y-51180000D01*
X162500000Y-51180000D02*
X156500000Y-51180000D01*
X162500000Y-52960000D02*
X162500000Y-53720000D01*
X162500000Y-53720000D02*
X156500000Y-53720000D01*
X162500000Y-55500000D02*
X162500000Y-56260000D01*
X162500000Y-56260000D02*
X156500000Y-56260000D01*
%TO.C,U1*%
X143826500Y-57785000D02*
X127826500Y-57785000D01*
X127826500Y-57785000D02*
X127826500Y-41275000D01*
X127826500Y-41275000D02*
X143826500Y-41275000D01*
X143826500Y-41275000D02*
X143826500Y-57785000D01*
%TO.C,C1*%
X140998752Y-40105000D02*
X140476248Y-40105000D01*
X140998752Y-38635000D02*
X140476248Y-38635000D01*
%TO.C,C2*%
X144518748Y-38635000D02*
X145041252Y-38635000D01*
X144518748Y-40105000D02*
X145041252Y-40105000D01*
%TO.C,J2*%
X119320000Y-55185000D02*
X120650000Y-55185000D01*
X119320000Y-56515000D02*
X119320000Y-55185000D01*
X119320000Y-57785000D02*
X119320000Y-57845000D01*
X119320000Y-57785000D02*
X121980000Y-57785000D01*
X119320000Y-57845000D02*
X121980000Y-57845000D01*
X121980000Y-57785000D02*
X121980000Y-57845000D01*
%TD*%
M02*
