%TF.GenerationSoftware,KiCad,Pcbnew,(6.0.7)*%
%TF.CreationDate,2022-10-03T21:19:44+02:00*%
%TF.ProjectId,RFM9xW_868_PMOD,52464d39-7857-45f3-9836-385f504d4f44,rev?*%
%TF.SameCoordinates,Original*%
%TF.FileFunction,Copper,L2,Bot*%
%TF.FilePolarity,Positive*%
%FSLAX46Y46*%
G04 Gerber Fmt 4.6, Leading zero omitted, Abs format (unit mm)*
G04 Created by KiCad (PCBNEW (6.0.7)) date 2022-10-03 21:19:44*
%MOMM*%
%LPD*%
G01*
G04 APERTURE LIST*
%TA.AperFunction,EtchedComponent*%
%ADD10C,1.000000*%
%TD*%
%TA.AperFunction,ComponentPad*%
%ADD11R,1.700000X1.700000*%
%TD*%
%TA.AperFunction,ComponentPad*%
%ADD12O,1.700000X1.700000*%
%TD*%
%TA.AperFunction,ComponentPad*%
%ADD13C,1.000000*%
%TD*%
G04 APERTURE END LIST*
D10*
%TO.C,AE1*%
X106960000Y-41530000D02*
X109960000Y-41530000D01*
X106960000Y-45530000D02*
X109960000Y-45530000D01*
X109960000Y-41530000D02*
X110960000Y-40530000D01*
X109960000Y-43530000D02*
X110960000Y-42530000D01*
X109960000Y-53530000D02*
X110960000Y-52530000D01*
X105960000Y-54530000D02*
X106960000Y-53530000D01*
X106960000Y-57530000D02*
X109960000Y-57530000D01*
X105960000Y-44530000D02*
X106960000Y-43530000D01*
X106960000Y-51530000D02*
X109960000Y-51530000D01*
X106960000Y-53530000D02*
X109960000Y-53530000D01*
X105960000Y-46530000D02*
X106960000Y-45530000D01*
X109960000Y-57530000D02*
X110960000Y-56530000D01*
X109960000Y-55530000D02*
X110960000Y-54530000D01*
X106960000Y-47530000D02*
X109960000Y-47530000D01*
X106960000Y-55530000D02*
X109960000Y-55530000D01*
X109960000Y-51530000D02*
X110960000Y-50530000D01*
X105960000Y-56530000D02*
X106960000Y-55530000D01*
X105960000Y-58530000D02*
X106960000Y-57530000D01*
X106960000Y-49530000D02*
X109960000Y-49530000D01*
X109960000Y-49530000D02*
X110960000Y-48530000D01*
X105960000Y-42530000D02*
X106960000Y-41530000D01*
X109960000Y-47530000D02*
X110960000Y-46530000D01*
X105960000Y-48530000D02*
X106960000Y-47530000D01*
X109960000Y-45530000D02*
X110960000Y-44530000D01*
X105960000Y-52530000D02*
X106960000Y-51530000D01*
X106960000Y-43530000D02*
X109960000Y-43530000D01*
X105960000Y-50530000D02*
X106960000Y-49530000D01*
%TD*%
D11*
%TO.P,J1,1,Pin_1*%
%TO.N,VCC*%
X149860000Y-43180000D03*
D12*
%TO.P,J1,2,Pin_2*%
X152400000Y-43180000D03*
%TO.P,J1,3,Pin_3*%
%TO.N,GND*%
X149860000Y-45720000D03*
%TO.P,J1,4,Pin_4*%
X152400000Y-45720000D03*
%TO.P,J1,5,Pin_5*%
%TO.N,SCK*%
X149860000Y-48260000D03*
%TO.P,J1,6,Pin_6*%
%TO.N,unconnected-(J1-Pad6)*%
X152400000Y-48260000D03*
%TO.P,J1,7,Pin_7*%
%TO.N,MISO*%
X149860000Y-50800000D03*
%TO.P,J1,8,Pin_8*%
%TO.N,unconnected-(J1-Pad8)*%
X152400000Y-50800000D03*
%TO.P,J1,9,Pin_9*%
%TO.N,MOSI*%
X149860000Y-53340000D03*
%TO.P,J1,10,Pin_10*%
%TO.N,nRESET*%
X152400000Y-53340000D03*
%TO.P,J1,11,Pin_11*%
%TO.N,nCS*%
X149860000Y-55880000D03*
%TO.P,J1,12,Pin_12*%
%TO.N,DIO0*%
X152400000Y-55880000D03*
%TD*%
D13*
%TO.P,AE1,*%
%TO.N,*%
X105960000Y-44530000D03*
X110960000Y-56530000D03*
X110960000Y-54530000D03*
X110960000Y-46530000D03*
X110960000Y-40530000D03*
X105960000Y-46530000D03*
X105960000Y-52530000D03*
X105960000Y-48530000D03*
X105960000Y-54530000D03*
X105960000Y-58530000D03*
X105960000Y-56530000D03*
X105960000Y-50530000D03*
X110960000Y-48530000D03*
X110960000Y-44530000D03*
X105960000Y-40530000D03*
X110960000Y-42530000D03*
X110960000Y-50530000D03*
X110960000Y-52530000D03*
X105960000Y-42530000D03*
%TD*%
%TA.AperFunction,Conductor*%
%TO.N,GND*%
G36*
X155651621Y-38620502D02*
G01*
X155698114Y-38674158D01*
X155709500Y-38726500D01*
X155709500Y-60333500D01*
X155689498Y-60401621D01*
X155635842Y-60448114D01*
X155583500Y-60459500D01*
X118236000Y-60459500D01*
X118167879Y-60439498D01*
X118121386Y-60385842D01*
X118110000Y-60333500D01*
X118110000Y-55880000D01*
X148504341Y-55880000D01*
X148524937Y-56115408D01*
X148586097Y-56343663D01*
X148588419Y-56348643D01*
X148588420Y-56348645D01*
X148670121Y-56523851D01*
X148685965Y-56557829D01*
X148821505Y-56751401D01*
X148988599Y-56918495D01*
X148993107Y-56921652D01*
X148993110Y-56921654D01*
X149177661Y-57050878D01*
X149182170Y-57054035D01*
X149187152Y-57056358D01*
X149187157Y-57056361D01*
X149391355Y-57151580D01*
X149396337Y-57153903D01*
X149401645Y-57155325D01*
X149401647Y-57155326D01*
X149619277Y-57213639D01*
X149624592Y-57215063D01*
X149860000Y-57235659D01*
X150095408Y-57215063D01*
X150100723Y-57213639D01*
X150318353Y-57155326D01*
X150318355Y-57155325D01*
X150323663Y-57153903D01*
X150328645Y-57151580D01*
X150532843Y-57056361D01*
X150532848Y-57056358D01*
X150537830Y-57054035D01*
X150542339Y-57050878D01*
X150726890Y-56921654D01*
X150726893Y-56921652D01*
X150731401Y-56918495D01*
X150898495Y-56751401D01*
X151026787Y-56568180D01*
X151082244Y-56523851D01*
X151152863Y-56516542D01*
X151216224Y-56548572D01*
X151233212Y-56568179D01*
X151361505Y-56751401D01*
X151528599Y-56918495D01*
X151533107Y-56921652D01*
X151533110Y-56921654D01*
X151717661Y-57050878D01*
X151722170Y-57054035D01*
X151727152Y-57056358D01*
X151727157Y-57056361D01*
X151931355Y-57151580D01*
X151936337Y-57153903D01*
X151941645Y-57155325D01*
X151941647Y-57155326D01*
X152159277Y-57213639D01*
X152164592Y-57215063D01*
X152400000Y-57235659D01*
X152635408Y-57215063D01*
X152640723Y-57213639D01*
X152858353Y-57155326D01*
X152858355Y-57155325D01*
X152863663Y-57153903D01*
X152868645Y-57151580D01*
X153072843Y-57056361D01*
X153072848Y-57056358D01*
X153077830Y-57054035D01*
X153082339Y-57050878D01*
X153266890Y-56921654D01*
X153266893Y-56921652D01*
X153271401Y-56918495D01*
X153438495Y-56751401D01*
X153574035Y-56557829D01*
X153589880Y-56523851D01*
X153671580Y-56348645D01*
X153671581Y-56348643D01*
X153673903Y-56343663D01*
X153735063Y-56115408D01*
X153755659Y-55880000D01*
X153735063Y-55644592D01*
X153673903Y-55416337D01*
X153593288Y-55243458D01*
X153576358Y-55207152D01*
X153576356Y-55207149D01*
X153574035Y-55202171D01*
X153438495Y-55008599D01*
X153271401Y-54841505D01*
X153266893Y-54838348D01*
X153266890Y-54838346D01*
X153139408Y-54749082D01*
X153088181Y-54713213D01*
X153043853Y-54657756D01*
X153036544Y-54587137D01*
X153068575Y-54523776D01*
X153088181Y-54506787D01*
X153266890Y-54381654D01*
X153266893Y-54381652D01*
X153271401Y-54378495D01*
X153438495Y-54211401D01*
X153574035Y-54017829D01*
X153589880Y-53983851D01*
X153671580Y-53808645D01*
X153671581Y-53808643D01*
X153673903Y-53803663D01*
X153735063Y-53575408D01*
X153755659Y-53340000D01*
X153735063Y-53104592D01*
X153673903Y-52876337D01*
X153593288Y-52703458D01*
X153576358Y-52667152D01*
X153576356Y-52667149D01*
X153574035Y-52662171D01*
X153438495Y-52468599D01*
X153271401Y-52301505D01*
X153266893Y-52298348D01*
X153266890Y-52298346D01*
X153139408Y-52209082D01*
X153088181Y-52173213D01*
X153043853Y-52117756D01*
X153036544Y-52047137D01*
X153068575Y-51983776D01*
X153088181Y-51966787D01*
X153266890Y-51841654D01*
X153266893Y-51841652D01*
X153271401Y-51838495D01*
X153438495Y-51671401D01*
X153574035Y-51477829D01*
X153589880Y-51443851D01*
X153671580Y-51268645D01*
X153671581Y-51268643D01*
X153673903Y-51263663D01*
X153735063Y-51035408D01*
X153755659Y-50800000D01*
X153735063Y-50564592D01*
X153673903Y-50336337D01*
X153593288Y-50163458D01*
X153576358Y-50127152D01*
X153576356Y-50127149D01*
X153574035Y-50122171D01*
X153438495Y-49928599D01*
X153271401Y-49761505D01*
X153266893Y-49758348D01*
X153266890Y-49758346D01*
X153139408Y-49669082D01*
X153088181Y-49633213D01*
X153043853Y-49577756D01*
X153036544Y-49507137D01*
X153068575Y-49443776D01*
X153088181Y-49426787D01*
X153266890Y-49301654D01*
X153266893Y-49301652D01*
X153271401Y-49298495D01*
X153438495Y-49131401D01*
X153574035Y-48937829D01*
X153589880Y-48903851D01*
X153671580Y-48728645D01*
X153671581Y-48728643D01*
X153673903Y-48723663D01*
X153735063Y-48495408D01*
X153755659Y-48260000D01*
X153735063Y-48024592D01*
X153673903Y-47796337D01*
X153593288Y-47623458D01*
X153576358Y-47587152D01*
X153576356Y-47587149D01*
X153574035Y-47582171D01*
X153438495Y-47388599D01*
X153271401Y-47221505D01*
X153266893Y-47218348D01*
X153266890Y-47218346D01*
X153095336Y-47098223D01*
X153051008Y-47042766D01*
X153043699Y-46972147D01*
X153075730Y-46908786D01*
X153098019Y-46890860D01*
X153097737Y-46890465D01*
X153275328Y-46763792D01*
X153283200Y-46757139D01*
X153434052Y-46606812D01*
X153440730Y-46598965D01*
X153565003Y-46426020D01*
X153570313Y-46417183D01*
X153664670Y-46226267D01*
X153668469Y-46216672D01*
X153730377Y-46012910D01*
X153732555Y-46002837D01*
X153733986Y-45991962D01*
X153731775Y-45977778D01*
X153718617Y-45974000D01*
X148543225Y-45974000D01*
X148529694Y-45977973D01*
X148528257Y-45987966D01*
X148558565Y-46122446D01*
X148561645Y-46132275D01*
X148641770Y-46329603D01*
X148646413Y-46338794D01*
X148757694Y-46520388D01*
X148763777Y-46528699D01*
X148903213Y-46689667D01*
X148910580Y-46696883D01*
X149074434Y-46832916D01*
X149082876Y-46838828D01*
X149159612Y-46883669D01*
X149208335Y-46935308D01*
X149221406Y-47005091D01*
X149194674Y-47070863D01*
X149168312Y-47095669D01*
X148988599Y-47221505D01*
X148821505Y-47388599D01*
X148685965Y-47582171D01*
X148683644Y-47587149D01*
X148683642Y-47587152D01*
X148666712Y-47623458D01*
X148586097Y-47796337D01*
X148524937Y-48024592D01*
X148504341Y-48260000D01*
X148524937Y-48495408D01*
X148586097Y-48723663D01*
X148588419Y-48728643D01*
X148588420Y-48728645D01*
X148670121Y-48903851D01*
X148685965Y-48937829D01*
X148821505Y-49131401D01*
X148988599Y-49298495D01*
X148993107Y-49301652D01*
X148993110Y-49301654D01*
X149171820Y-49426788D01*
X149216148Y-49482245D01*
X149223457Y-49552865D01*
X149191426Y-49616225D01*
X149171822Y-49633211D01*
X148988599Y-49761505D01*
X148821505Y-49928599D01*
X148685965Y-50122171D01*
X148683644Y-50127149D01*
X148683642Y-50127152D01*
X148666712Y-50163458D01*
X148586097Y-50336337D01*
X148524937Y-50564592D01*
X148504341Y-50800000D01*
X148524937Y-51035408D01*
X148586097Y-51263663D01*
X148588419Y-51268643D01*
X148588420Y-51268645D01*
X148670121Y-51443851D01*
X148685965Y-51477829D01*
X148821505Y-51671401D01*
X148988599Y-51838495D01*
X148993107Y-51841652D01*
X148993110Y-51841654D01*
X149171820Y-51966788D01*
X149216148Y-52022245D01*
X149223457Y-52092865D01*
X149191426Y-52156225D01*
X149171822Y-52173211D01*
X148988599Y-52301505D01*
X148821505Y-52468599D01*
X148685965Y-52662171D01*
X148683644Y-52667149D01*
X148683642Y-52667152D01*
X148666712Y-52703458D01*
X148586097Y-52876337D01*
X148524937Y-53104592D01*
X148504341Y-53340000D01*
X148524937Y-53575408D01*
X148586097Y-53803663D01*
X148588419Y-53808643D01*
X148588420Y-53808645D01*
X148670121Y-53983851D01*
X148685965Y-54017829D01*
X148821505Y-54211401D01*
X148988599Y-54378495D01*
X148993107Y-54381652D01*
X148993110Y-54381654D01*
X149171820Y-54506788D01*
X149216148Y-54562245D01*
X149223457Y-54632865D01*
X149191426Y-54696225D01*
X149171822Y-54713211D01*
X148988599Y-54841505D01*
X148821505Y-55008599D01*
X148685965Y-55202171D01*
X148683644Y-55207149D01*
X148683642Y-55207152D01*
X148666712Y-55243458D01*
X148586097Y-55416337D01*
X148524937Y-55644592D01*
X148504341Y-55880000D01*
X118110000Y-55880000D01*
X118110000Y-42282623D01*
X148509500Y-42282623D01*
X148509501Y-44077376D01*
X148516149Y-44138580D01*
X148566474Y-44272824D01*
X148571854Y-44280003D01*
X148571856Y-44280006D01*
X148647072Y-44380365D01*
X148652454Y-44387546D01*
X148659635Y-44392928D01*
X148759994Y-44468144D01*
X148759997Y-44468146D01*
X148767176Y-44473526D01*
X148850845Y-44504892D01*
X148886972Y-44518435D01*
X148943737Y-44561076D01*
X148968437Y-44627638D01*
X148953230Y-44696986D01*
X148933837Y-44723468D01*
X148804590Y-44858717D01*
X148798104Y-44866727D01*
X148678098Y-45042649D01*
X148673000Y-45051623D01*
X148583338Y-45244783D01*
X148579775Y-45254470D01*
X148524389Y-45454183D01*
X148525912Y-45462607D01*
X148538292Y-45466000D01*
X153718344Y-45466000D01*
X153731875Y-45462027D01*
X153733180Y-45452947D01*
X153691214Y-45285875D01*
X153687894Y-45276124D01*
X153602972Y-45080814D01*
X153598105Y-45071739D01*
X153482426Y-44892926D01*
X153476136Y-44884757D01*
X153332806Y-44727240D01*
X153325273Y-44720215D01*
X153158139Y-44588222D01*
X153149557Y-44582520D01*
X153103863Y-44557296D01*
X153053892Y-44506864D01*
X153039120Y-44437421D01*
X153064236Y-44371015D01*
X153092485Y-44343774D01*
X153266890Y-44221654D01*
X153266893Y-44221652D01*
X153271401Y-44218495D01*
X153438495Y-44051401D01*
X153574035Y-43857829D01*
X153673903Y-43643663D01*
X153735063Y-43415408D01*
X153755659Y-43180000D01*
X153735063Y-42944592D01*
X153673903Y-42716337D01*
X153574035Y-42502171D01*
X153438495Y-42308599D01*
X153271401Y-42141505D01*
X153266893Y-42138348D01*
X153266890Y-42138346D01*
X153082339Y-42009122D01*
X153082336Y-42009120D01*
X153077830Y-42005965D01*
X153072848Y-42003642D01*
X153072843Y-42003639D01*
X152868645Y-41908420D01*
X152868644Y-41908419D01*
X152863663Y-41906097D01*
X152858355Y-41904675D01*
X152858353Y-41904674D01*
X152640723Y-41846361D01*
X152640722Y-41846361D01*
X152635408Y-41844937D01*
X152400000Y-41824341D01*
X152164592Y-41844937D01*
X152159278Y-41846361D01*
X152159277Y-41846361D01*
X151941647Y-41904674D01*
X151941645Y-41904675D01*
X151936337Y-41906097D01*
X151931357Y-41908419D01*
X151931355Y-41908420D01*
X151727152Y-42003642D01*
X151727149Y-42003644D01*
X151722171Y-42005965D01*
X151528599Y-42141505D01*
X151408989Y-42261115D01*
X151346677Y-42295141D01*
X151275862Y-42290076D01*
X151219026Y-42247529D01*
X151201912Y-42216248D01*
X151156677Y-42095581D01*
X151156676Y-42095580D01*
X151153526Y-42087176D01*
X151148146Y-42079997D01*
X151148144Y-42079994D01*
X151072928Y-41979635D01*
X151067546Y-41972454D01*
X151060365Y-41967072D01*
X150960006Y-41891856D01*
X150960003Y-41891854D01*
X150952824Y-41886474D01*
X150845821Y-41846361D01*
X150825975Y-41838921D01*
X150825973Y-41838921D01*
X150818580Y-41836149D01*
X150810730Y-41835296D01*
X150810729Y-41835296D01*
X150760774Y-41829869D01*
X150760773Y-41829869D01*
X150757377Y-41829500D01*
X149860132Y-41829500D01*
X148962624Y-41829501D01*
X148959230Y-41829870D01*
X148959224Y-41829870D01*
X148909278Y-41835295D01*
X148909274Y-41835296D01*
X148901420Y-41836149D01*
X148767176Y-41886474D01*
X148759997Y-41891854D01*
X148759994Y-41891856D01*
X148659635Y-41967072D01*
X148652454Y-41972454D01*
X148647072Y-41979635D01*
X148571856Y-42079994D01*
X148571854Y-42079997D01*
X148566474Y-42087176D01*
X148516149Y-42221420D01*
X148515296Y-42229270D01*
X148515296Y-42229271D01*
X148511837Y-42261115D01*
X148509500Y-42282623D01*
X118110000Y-42282623D01*
X118110000Y-38726500D01*
X118130002Y-38658379D01*
X118183658Y-38611886D01*
X118236000Y-38600500D01*
X155583500Y-38600500D01*
X155651621Y-38620502D01*
G37*
%TD.AperFunction*%
%TD*%
M02*
