%TF.GenerationSoftware,KiCad,Pcbnew,(6.0.1)*%
%TF.CreationDate,2022-02-02T16:30:55+01:00*%
%TF.ProjectId,modules_board,6d6f6475-6c65-4735-9f62-6f6172642e6b,rev?*%
%TF.SameCoordinates,Original*%
%TF.FileFunction,Copper,L1,Top*%
%TF.FilePolarity,Positive*%
%FSLAX46Y46*%
G04 Gerber Fmt 4.6, Leading zero omitted, Abs format (unit mm)*
G04 Created by KiCad (PCBNEW (6.0.1)) date 2022-02-02 16:30:55*
%MOMM*%
%LPD*%
G01*
G04 APERTURE LIST*
%TA.AperFunction,ComponentPad*%
%ADD10R,1.700000X1.700000*%
%TD*%
%TA.AperFunction,ComponentPad*%
%ADD11O,1.700000X1.700000*%
%TD*%
%TA.AperFunction,ComponentPad*%
%ADD12C,0.800000*%
%TD*%
%TA.AperFunction,ComponentPad*%
%ADD13C,6.400000*%
%TD*%
%TA.AperFunction,ComponentPad*%
%ADD14C,1.600000*%
%TD*%
%TA.AperFunction,ComponentPad*%
%ADD15O,1.600000X1.600000*%
%TD*%
%TA.AperFunction,ComponentPad*%
%ADD16C,1.524000*%
%TD*%
%TA.AperFunction,ViaPad*%
%ADD17C,0.800000*%
%TD*%
%TA.AperFunction,Conductor*%
%ADD18C,0.250000*%
%TD*%
G04 APERTURE END LIST*
D10*
%TO.P,J1,1,Pin_1*%
%TO.N,VCC*%
X63500000Y-119380000D03*
D11*
%TO.P,J1,2,Pin_2*%
X60960000Y-119380000D03*
%TO.P,J1,3,Pin_3*%
%TO.N,GND*%
X63500000Y-116840000D03*
%TO.P,J1,4,Pin_4*%
X60960000Y-116840000D03*
%TO.P,J1,5,Pin_5*%
%TO.N,PMOD_I2C_SDA*%
X63500000Y-114300000D03*
%TO.P,J1,6,Pin_6*%
%TO.N,PMOD_I2C_GPIO4*%
X60960000Y-114300000D03*
%TO.P,J1,7,Pin_7*%
%TO.N,PMOD_I2C_SCL*%
X63500000Y-111760000D03*
%TO.P,J1,8,Pin_8*%
%TO.N,PMOD_I2C_GPIO3*%
X60960000Y-111760000D03*
%TO.P,J1,9,Pin_9*%
%TO.N,PMOD_I2C_RESET*%
X63500000Y-109220000D03*
%TO.P,J1,10,Pin_10*%
%TO.N,PMOD_I2C_GPIO2*%
X60960000Y-109220000D03*
%TO.P,J1,11,Pin_11*%
%TO.N,PMOD_I2C_INT*%
X63500000Y-106680000D03*
%TO.P,J1,12,Pin_12*%
%TO.N,PMOD_I2C_GPIO1*%
X60960000Y-106680000D03*
%TD*%
D10*
%TO.P,J2,1,Pin_1*%
%TO.N,VCC*%
X63500000Y-96520000D03*
D11*
%TO.P,J2,2,Pin_2*%
X60960000Y-96520000D03*
%TO.P,J2,3,Pin_3*%
%TO.N,GND*%
X63500000Y-93980000D03*
%TO.P,J2,4,Pin_4*%
X60960000Y-93980000D03*
%TO.P,J2,5,Pin_5*%
%TO.N,PMOD_UART_RTS*%
X63500000Y-91440000D03*
%TO.P,J2,6,Pin_6*%
%TO.N,PMOD_UART_GPIO4*%
X60960000Y-91440000D03*
%TO.P,J2,7,Pin_7*%
%TO.N,PMOD_UART_RXD*%
X63500000Y-88900000D03*
%TO.P,J2,8,Pin_8*%
%TO.N,PMOD_UART_GPIO3*%
X60960000Y-88900000D03*
%TO.P,J2,9,Pin_9*%
%TO.N,PMOD_UART_TXD*%
X63500000Y-86360000D03*
%TO.P,J2,10,Pin_10*%
%TO.N,PMOD_UART_RESET*%
X60960000Y-86360000D03*
%TO.P,J2,11,Pin_11*%
%TO.N,PMOD_UART_CTS*%
X63500000Y-83820000D03*
%TO.P,J2,12,Pin_12*%
%TO.N,PMOD_UART_INT*%
X60960000Y-83820000D03*
%TD*%
D10*
%TO.P,J3,1,Pin_1*%
%TO.N,VCC*%
X63500000Y-73660000D03*
D11*
%TO.P,J3,2,Pin_2*%
X60960000Y-73660000D03*
%TO.P,J3,3,Pin_3*%
%TO.N,GND*%
X63500000Y-71120000D03*
%TO.P,J3,4,Pin_4*%
X60960000Y-71120000D03*
%TO.P,J3,5,Pin_5*%
%TO.N,PMOD_SPI_SCK*%
X63500000Y-68580000D03*
%TO.P,J3,6,Pin_6*%
%TO.N,PMOD_SPI_CS3*%
X60960000Y-68580000D03*
%TO.P,J3,7,Pin_7*%
%TO.N,PMOD_SPI_MISO*%
X63500000Y-66040000D03*
%TO.P,J3,8,Pin_8*%
%TO.N,PMOD_SPI_CS2*%
X60960000Y-66040000D03*
%TO.P,J3,9,Pin_9*%
%TO.N,PMOD_SPI_MOSI*%
X63500000Y-63500000D03*
%TO.P,J3,10,Pin_10*%
%TO.N,PMOD_SPI_RESET*%
X60960000Y-63500000D03*
%TO.P,J3,11,Pin_11*%
%TO.N,PMOD_SPI_CS*%
X63500000Y-60960000D03*
%TO.P,J3,12,Pin_12*%
%TO.N,PMOD_SPI_INT*%
X60960000Y-60960000D03*
%TD*%
D10*
%TO.P,J7,1,Pin_1*%
%TO.N,VCC*%
X124460000Y-119380000D03*
D11*
%TO.P,J7,2,Pin_2*%
X127000000Y-119380000D03*
%TO.P,J7,3,Pin_3*%
%TO.N,GND*%
X124460000Y-116840000D03*
%TO.P,J7,4,Pin_4*%
X127000000Y-116840000D03*
%TO.P,J7,5,Pin_5*%
%TO.N,PMOD_I2C_SDA*%
X124460000Y-114300000D03*
%TO.P,J7,6,Pin_6*%
%TO.N,PMOD_I2C_GPIO4*%
X127000000Y-114300000D03*
%TO.P,J7,7,Pin_7*%
%TO.N,PMOD_I2C_SCL*%
X124460000Y-111760000D03*
%TO.P,J7,8,Pin_8*%
%TO.N,PMOD_I2C_GPIO3*%
X127000000Y-111760000D03*
%TO.P,J7,9,Pin_9*%
%TO.N,PMOD_I2C_RESET*%
X124460000Y-109220000D03*
%TO.P,J7,10,Pin_10*%
%TO.N,PMOD_I2C_GPIO2*%
X127000000Y-109220000D03*
%TO.P,J7,11,Pin_11*%
%TO.N,PMOD_I2C_INT*%
X124460000Y-106680000D03*
%TO.P,J7,12,Pin_12*%
%TO.N,PMOD_I2C_GPIO1*%
X127000000Y-106680000D03*
%TD*%
D10*
%TO.P,J8,1,Pin_1*%
%TO.N,VCC*%
X124460000Y-96520000D03*
D11*
%TO.P,J8,2,Pin_2*%
X127000000Y-96520000D03*
%TO.P,J8,3,Pin_3*%
%TO.N,GND*%
X124460000Y-93980000D03*
%TO.P,J8,4,Pin_4*%
X127000000Y-93980000D03*
%TO.P,J8,5,Pin_5*%
%TO.N,PMOD_UART_RTS*%
X124460000Y-91440000D03*
%TO.P,J8,6,Pin_6*%
%TO.N,PMOD_UART_GPIO4*%
X127000000Y-91440000D03*
%TO.P,J8,7,Pin_7*%
%TO.N,PMOD_UART_RXD*%
X124460000Y-88900000D03*
%TO.P,J8,8,Pin_8*%
%TO.N,PMOD_UART_GPIO3*%
X127000000Y-88900000D03*
%TO.P,J8,9,Pin_9*%
%TO.N,PMOD_UART_TXD*%
X124460000Y-86360000D03*
%TO.P,J8,10,Pin_10*%
%TO.N,PMOD_UART_RESET*%
X127000000Y-86360000D03*
%TO.P,J8,11,Pin_11*%
%TO.N,PMOD_UART_CTS*%
X124460000Y-83820000D03*
%TO.P,J8,12,Pin_12*%
%TO.N,PMOD_UART_INT*%
X127000000Y-83820000D03*
%TD*%
D10*
%TO.P,J9,1,Pin_1*%
%TO.N,VCC*%
X124460000Y-73660000D03*
D11*
%TO.P,J9,2,Pin_2*%
X127000000Y-73660000D03*
%TO.P,J9,3,Pin_3*%
%TO.N,GND*%
X124460000Y-71120000D03*
%TO.P,J9,4,Pin_4*%
X127000000Y-71120000D03*
%TO.P,J9,5,Pin_5*%
%TO.N,PMOD_SPI_SCK*%
X124460000Y-68580000D03*
%TO.P,J9,6,Pin_6*%
%TO.N,PMOD_SPI_CS3*%
X127000000Y-68580000D03*
%TO.P,J9,7,Pin_7*%
%TO.N,PMOD_SPI_MISO*%
X124460000Y-66040000D03*
%TO.P,J9,8,Pin_8*%
%TO.N,PMOD_SPI_CS2*%
X127000000Y-66040000D03*
%TO.P,J9,9,Pin_9*%
%TO.N,PMOD_SPI_MOSI*%
X124460000Y-63500000D03*
%TO.P,J9,10,Pin_10*%
%TO.N,PMOD_SPI_RESET*%
X127000000Y-63500000D03*
%TO.P,J9,11,Pin_11*%
%TO.N,PMOD_SPI_CS*%
X124460000Y-60960000D03*
%TO.P,J9,12,Pin_12*%
%TO.N,PMOD_SPI_INT*%
X127000000Y-60960000D03*
%TD*%
D12*
%TO.P,H1,1*%
%TO.N,N/C*%
X63927056Y-49957056D03*
X60532944Y-49957056D03*
X59830000Y-48260000D03*
X62230000Y-45860000D03*
X62230000Y-50660000D03*
X64630000Y-48260000D03*
D13*
X62230000Y-48260000D03*
D12*
X63927056Y-46562944D03*
X60532944Y-46562944D03*
%TD*%
D13*
%TO.P,H2,1*%
%TO.N,N/C*%
X62230000Y-132080000D03*
D12*
X62230000Y-129680000D03*
X64630000Y-132080000D03*
X62230000Y-134480000D03*
X60532944Y-133777056D03*
X63927056Y-133777056D03*
X59830000Y-132080000D03*
X60532944Y-130382944D03*
X63927056Y-130382944D03*
%TD*%
%TO.P,H3,1*%
%TO.N,N/C*%
X130382944Y-49957056D03*
X132080000Y-50660000D03*
X129680000Y-48260000D03*
X134480000Y-48260000D03*
X132080000Y-45860000D03*
D13*
X132080000Y-48260000D03*
D12*
X133777056Y-46562944D03*
X133777056Y-49957056D03*
X130382944Y-46562944D03*
%TD*%
%TO.P,H4,1*%
%TO.N,N/C*%
X133917056Y-130382944D03*
X130522944Y-133777056D03*
X132220000Y-134480000D03*
X134620000Y-132080000D03*
X129820000Y-132080000D03*
D13*
X132220000Y-132080000D03*
D12*
X130522944Y-130382944D03*
X133917056Y-133777056D03*
X132220000Y-129680000D03*
%TD*%
D14*
%TO.P,R2,1*%
%TO.N,VCC*%
X116840000Y-55880000D03*
D15*
%TO.P,R2,2*%
%TO.N,INT*%
X127000000Y-55880000D03*
%TD*%
D14*
%TO.P,R1,1*%
%TO.N,VCC*%
X116840000Y-50800000D03*
D15*
%TO.P,R1,2*%
%TO.N,RESET*%
X127000000Y-50800000D03*
%TD*%
D16*
%TO.P,U1,1,SCK*%
%TO.N,SCK*%
X88900000Y-101600000D03*
%TO.P,U1,2,MISO*%
%TO.N,MISO*%
X91440000Y-101600000D03*
%TO.P,U1,3,MOSI*%
%TO.N,MOSI_SDA_TX*%
X93980000Y-101600000D03*
%TO.P,U1,4,~{CS}*%
%TO.N,CS_SCL_RX*%
X96520000Y-101600000D03*
%TO.P,U1,5,VCC*%
%TO.N,VCC*%
X99060000Y-101600000D03*
%TO.P,U1,6,GND*%
%TO.N,GND*%
X101600000Y-101600000D03*
%TO.P,U1,7,INT*%
%TO.N,INT*%
X104140000Y-101600000D03*
%TO.P,U1,8,~{RST}*%
%TO.N,RESET*%
X106680000Y-101600000D03*
%TD*%
D10*
%TO.P,J5,1,Pin_1*%
%TO.N,MOSI_SDA_TX*%
X90170000Y-62230000D03*
D11*
%TO.P,J5,2,Pin_2*%
%TO.N,PMOD_SPI_MOSI*%
X90170000Y-59690000D03*
%TO.P,J5,3,Pin_3*%
%TO.N,MOSI_SDA_TX*%
X92710000Y-62230000D03*
%TO.P,J5,4,Pin_4*%
%TO.N,PMOD_I2C_SDA*%
X92710000Y-59690000D03*
%TO.P,J5,5,Pin_5*%
%TO.N,MOSI_SDA_TX*%
X95250000Y-62230000D03*
%TO.P,J5,6,Pin_6*%
%TO.N,PMOD_UART_RXD*%
X95250000Y-59690000D03*
%TD*%
D10*
%TO.P,J6,1,Pin_1*%
%TO.N,MISO*%
X104140000Y-62230000D03*
D11*
%TO.P,J6,2,Pin_2*%
%TO.N,PMOD_SPI_MISO*%
X104140000Y-59690000D03*
%TD*%
D10*
%TO.P,J10,1,Pin_1*%
%TO.N,SCK*%
X113030000Y-62230000D03*
D11*
%TO.P,J10,2,Pin_2*%
%TO.N,PMOD_SPI_SCK*%
X113030000Y-59690000D03*
%TD*%
D10*
%TO.P,J11,1,Pin_1*%
%TO.N,PMOD_SPI_CS*%
X111760000Y-52070000D03*
D11*
%TO.P,J11,2,Pin_2*%
%TO.N,CS*%
X111760000Y-54610000D03*
%TO.P,J11,3,Pin_3*%
%TO.N,PMOD_SPI_CS2*%
X109220000Y-52070000D03*
%TO.P,J11,4,Pin_4*%
%TO.N,CS*%
X109220000Y-54610000D03*
%TO.P,J11,5,Pin_5*%
%TO.N,PMOD_SPI_CS3*%
X106680000Y-52070000D03*
%TO.P,J11,6,Pin_6*%
%TO.N,CS*%
X106680000Y-54610000D03*
%TD*%
D10*
%TO.P,J4,1,Pin_1*%
%TO.N,CS_SCL_RX*%
X76200000Y-62230000D03*
D11*
%TO.P,J4,2,Pin_2*%
%TO.N,CS*%
X76200000Y-59690000D03*
%TO.P,J4,3,Pin_3*%
%TO.N,CS_SCL_RX*%
X78740000Y-62230000D03*
%TO.P,J4,4,Pin_4*%
%TO.N,PMOD_I2C_SCL*%
X78740000Y-59690000D03*
%TO.P,J4,5,Pin_5*%
%TO.N,CS_SCL_RX*%
X81280000Y-62230000D03*
%TO.P,J4,6,Pin_6*%
%TO.N,PMOD_UART_TXD*%
X81280000Y-59690000D03*
%TD*%
D10*
%TO.P,J12,1,Pin_1*%
%TO.N,RESET*%
X76200000Y-54610000D03*
D11*
%TO.P,J12,2,Pin_2*%
%TO.N,PMOD_SPI_RESET*%
X76200000Y-52070000D03*
%TO.P,J12,3,Pin_3*%
%TO.N,RESET*%
X78740000Y-54610000D03*
%TO.P,J12,4,Pin_4*%
%TO.N,PMOD_I2C_RESET*%
X78740000Y-52070000D03*
%TO.P,J12,5,Pin_5*%
%TO.N,RESET*%
X81280000Y-54610000D03*
%TO.P,J12,6,Pin_6*%
%TO.N,PMOD_UART_RESET*%
X81280000Y-52070000D03*
%TD*%
D10*
%TO.P,J13,1,Pin_1*%
%TO.N,INT*%
X90185000Y-54615000D03*
D11*
%TO.P,J13,2,Pin_2*%
%TO.N,PMOD_SPI_INT*%
X90185000Y-52075000D03*
%TO.P,J13,3,Pin_3*%
%TO.N,INT*%
X92725000Y-54615000D03*
%TO.P,J13,4,Pin_4*%
%TO.N,PMOD_I2C_INT*%
X92725000Y-52075000D03*
%TO.P,J13,5,Pin_5*%
%TO.N,INT*%
X95265000Y-54615000D03*
%TO.P,J13,6,Pin_6*%
%TO.N,PMOD_UART_INT*%
X95265000Y-52075000D03*
%TD*%
D17*
%TO.N,PMOD_UART_INT*%
X99155489Y-84994511D03*
%TO.N,PMOD_UART_TXD*%
X80010000Y-86360000D03*
%TO.N,PMOD_UART_RXD*%
X97790000Y-88900000D03*
%TO.N,PMOD_SPI_INT*%
X72390000Y-74930000D03*
X72390000Y-62230000D03*
X86360000Y-74930000D03*
X115570000Y-74930000D03*
X115570000Y-62230000D03*
%TO.N,PMOD_SPI_CS*%
X114300000Y-73660000D03*
X73660000Y-73660000D03*
X114303912Y-60956088D03*
X73660000Y-60960000D03*
%TO.N,PMOD_SPI_RESET*%
X69850000Y-64770000D03*
X118110000Y-64770000D03*
X74930000Y-77470000D03*
X118110000Y-77470000D03*
X69850000Y-77470000D03*
%TO.N,PMOD_SPI_MOSI*%
X116840000Y-76200000D03*
X71120000Y-76200000D03*
X87630000Y-76200000D03*
X71120000Y-63500000D03*
X116840000Y-63500000D03*
%TO.N,PMOD_SPI_CS2*%
X120650000Y-67310000D03*
X67310000Y-67310000D03*
X67310000Y-80010000D03*
X110490000Y-80010000D03*
X120650000Y-80010000D03*
%TO.N,PMOD_SPI_MISO*%
X102870000Y-78740000D03*
X119380000Y-66040000D03*
X68580000Y-66040000D03*
X119380000Y-78740000D03*
X68580000Y-78740000D03*
%TO.N,PMOD_SPI_CS3*%
X123190000Y-82550000D03*
X107950000Y-82550000D03*
X64770000Y-82550000D03*
X64770000Y-69850000D03*
X74930000Y-82550000D03*
X123190000Y-69850000D03*
%TO.N,PMOD_SPI_SCK*%
X121920000Y-68580000D03*
X66040000Y-81280000D03*
X121920000Y-81280000D03*
X66040000Y-68580000D03*
X111760000Y-81280000D03*
%TO.N,PMOD_I2C_INT*%
X95250000Y-106680000D03*
%TO.N,PMOD_I2C_RESET*%
X82550000Y-109220000D03*
%TO.N,PMOD_I2C_SCL*%
X77470000Y-111760000D03*
%TO.N,PMOD_I2C_SDA*%
X90170000Y-114300000D03*
%TO.N,RESET*%
X106680000Y-57150000D03*
X129540000Y-57150000D03*
%TO.N,INT*%
X105955500Y-57856755D03*
X98506755Y-57856755D03*
%TO.N,CS_SCL_RX*%
X78740000Y-72390000D03*
X96520000Y-72390000D03*
%TO.N,MISO*%
X104140000Y-71209500D03*
X91440000Y-71209500D03*
%TO.N,SCK*%
X113030000Y-70485000D03*
X88900000Y-70485000D03*
%TO.N,PMOD_UART_RESET*%
X85185489Y-87725489D03*
%TD*%
D18*
%TO.N,PMOD_UART_INT*%
X125825489Y-84994511D02*
X127000000Y-83820000D01*
X60960000Y-83820000D02*
X62134511Y-84994511D01*
X62134511Y-84994511D02*
X99155489Y-84994511D01*
X99155489Y-84994511D02*
X125825489Y-84994511D01*
%TO.N,PMOD_UART_CTS*%
X63500000Y-83820000D02*
X124460000Y-83820000D01*
%TO.N,PMOD_UART_TXD*%
X124460000Y-86360000D02*
X80010000Y-86360000D01*
X80010000Y-86360000D02*
X63500000Y-86360000D01*
%TO.N,PMOD_UART_GPIO3*%
X62325489Y-90265489D02*
X125634511Y-90265489D01*
X125634511Y-90265489D02*
X127000000Y-88900000D01*
X60960000Y-88900000D02*
X62325489Y-90265489D01*
%TO.N,PMOD_UART_RXD*%
X124460000Y-88900000D02*
X63500000Y-88900000D01*
%TO.N,PMOD_UART_GPIO4*%
X125634511Y-92805489D02*
X127000000Y-91440000D01*
X60960000Y-91440000D02*
X62325489Y-92805489D01*
X62325489Y-92805489D02*
X125634511Y-92805489D01*
%TO.N,PMOD_UART_RTS*%
X124460000Y-91440000D02*
X63500000Y-91440000D01*
%TO.N,PMOD_SPI_INT*%
X72390000Y-74930000D02*
X86360000Y-74930000D01*
X86360000Y-74930000D02*
X115570000Y-74930000D01*
X60960000Y-60960000D02*
X62230000Y-62230000D01*
X62230000Y-62230000D02*
X72390000Y-62230000D01*
X125730000Y-62230000D02*
X115570000Y-62230000D01*
X127000000Y-60960000D02*
X125730000Y-62230000D01*
%TO.N,PMOD_SPI_CS*%
X114300000Y-73660000D02*
X82550000Y-73660000D01*
X114307824Y-60960000D02*
X114303912Y-60956088D01*
X82550000Y-73660000D02*
X73660000Y-73660000D01*
X124460000Y-60960000D02*
X114307824Y-60960000D01*
X63500000Y-60960000D02*
X73660000Y-60960000D01*
%TO.N,PMOD_SPI_RESET*%
X69850000Y-77470000D02*
X74930000Y-77470000D01*
X125730000Y-64770000D02*
X127000000Y-63500000D01*
X118110000Y-64770000D02*
X125730000Y-64770000D01*
X62230000Y-64770000D02*
X69850000Y-64770000D01*
X60960000Y-63500000D02*
X62230000Y-64770000D01*
X74930000Y-77470000D02*
X118110000Y-77470000D01*
%TO.N,PMOD_SPI_MOSI*%
X124460000Y-63500000D02*
X116840000Y-63500000D01*
X63500000Y-63500000D02*
X71120000Y-63500000D01*
X116840000Y-76200000D02*
X71120000Y-76200000D01*
%TO.N,PMOD_SPI_CS2*%
X125730000Y-67310000D02*
X127000000Y-66040000D01*
X110490000Y-80010000D02*
X120650000Y-80010000D01*
X60960000Y-66040000D02*
X62230000Y-67310000D01*
X62230000Y-67310000D02*
X67310000Y-67310000D01*
X67310000Y-80010000D02*
X83820000Y-80010000D01*
X120650000Y-67310000D02*
X125730000Y-67310000D01*
X83820000Y-80010000D02*
X110490000Y-80010000D01*
%TO.N,PMOD_SPI_MISO*%
X119380000Y-78740000D02*
X68580000Y-78740000D01*
X63500000Y-66040000D02*
X68580000Y-66040000D01*
X124460000Y-66040000D02*
X119380000Y-66040000D01*
%TO.N,PMOD_SPI_CS3*%
X123190000Y-69850000D02*
X125730000Y-69850000D01*
X107950000Y-82550000D02*
X123190000Y-82550000D01*
X125730000Y-69850000D02*
X127000000Y-68580000D01*
X62230000Y-69850000D02*
X64770000Y-69850000D01*
X60960000Y-68580000D02*
X62230000Y-69850000D01*
X74930000Y-82550000D02*
X107950000Y-82550000D01*
X64770000Y-82550000D02*
X74930000Y-82550000D01*
%TO.N,PMOD_SPI_SCK*%
X121920000Y-81280000D02*
X111760000Y-81280000D01*
X111760000Y-81280000D02*
X66040000Y-81280000D01*
X124460000Y-68580000D02*
X121920000Y-68580000D01*
X63500000Y-68580000D02*
X66040000Y-68580000D01*
%TO.N,PMOD_I2C_GPIO1*%
X125825489Y-107854511D02*
X127000000Y-106680000D01*
X60960000Y-106680000D02*
X62134511Y-107854511D01*
X62134511Y-107854511D02*
X125825489Y-107854511D01*
%TO.N,PMOD_I2C_INT*%
X95250000Y-106680000D02*
X124460000Y-106680000D01*
X63500000Y-106680000D02*
X95250000Y-106680000D01*
%TO.N,PMOD_I2C_GPIO2*%
X125825489Y-110394511D02*
X127000000Y-109220000D01*
X62134511Y-110394511D02*
X125825489Y-110394511D01*
X60960000Y-109220000D02*
X62134511Y-110394511D01*
%TO.N,PMOD_I2C_RESET*%
X124460000Y-109220000D02*
X82550000Y-109220000D01*
X82550000Y-109220000D02*
X63500000Y-109220000D01*
%TO.N,PMOD_I2C_GPIO3*%
X125825489Y-112934511D02*
X127000000Y-111760000D01*
X62134511Y-112934511D02*
X125825489Y-112934511D01*
X60960000Y-111760000D02*
X62134511Y-112934511D01*
%TO.N,PMOD_I2C_SCL*%
X77470000Y-111760000D02*
X63500000Y-111760000D01*
X124460000Y-111760000D02*
X77470000Y-111760000D01*
%TO.N,PMOD_I2C_GPIO4*%
X62134511Y-115474511D02*
X125825489Y-115474511D01*
X125825489Y-115474511D02*
X127000000Y-114300000D01*
X60960000Y-114300000D02*
X62134511Y-115474511D01*
%TO.N,PMOD_I2C_SDA*%
X124460000Y-114300000D02*
X63500000Y-114300000D01*
%TO.N,CS*%
X104140000Y-57150000D02*
X106680000Y-54610000D01*
X94632756Y-57132244D02*
X104122244Y-57132244D01*
X106680000Y-54610000D02*
X111760000Y-54610000D01*
X76200000Y-59690000D02*
X78740000Y-57150000D01*
X78740000Y-57150000D02*
X94615000Y-57150000D01*
X104122244Y-57132244D02*
X104140000Y-57150000D01*
X94615000Y-57150000D02*
X94632756Y-57132244D01*
%TO.N,RESET*%
X81280000Y-54610000D02*
X90170000Y-45720000D01*
X76200000Y-54610000D02*
X81280000Y-54610000D01*
X121920000Y-45720000D02*
X127000000Y-50800000D01*
X90170000Y-45720000D02*
X121920000Y-45720000D01*
X106680000Y-57150000D02*
X129540000Y-57150000D01*
%TO.N,INT*%
X102870000Y-46990000D02*
X118110000Y-46990000D01*
X90185000Y-54615000D02*
X95265000Y-54615000D01*
X105955500Y-57856755D02*
X98506755Y-57856755D01*
X102870000Y-47010000D02*
X102870000Y-46990000D01*
X127000000Y-55880000D02*
X118110000Y-46990000D01*
X95265000Y-54615000D02*
X102870000Y-47010000D01*
%TO.N,CS_SCL_RX*%
X96520000Y-72390000D02*
X78740000Y-72390000D01*
X76200000Y-62230000D02*
X81280000Y-62230000D01*
%TO.N,MOSI_SDA_TX*%
X90170000Y-62230000D02*
X95250000Y-62230000D01*
%TO.N,MISO*%
X91440000Y-71209500D02*
X104140000Y-71209500D01*
%TO.N,SCK*%
X88900000Y-70485000D02*
X113030000Y-70485000D01*
%TO.N,PMOD_UART_RESET*%
X60960000Y-86360000D02*
X62325489Y-87725489D01*
X62325489Y-87725489D02*
X85185489Y-87725489D01*
X125634511Y-87725489D02*
X127000000Y-86360000D01*
X85185489Y-87725489D02*
X125634511Y-87725489D01*
%TD*%
%TA.AperFunction,Conductor*%
%TO.N,VCC*%
G36*
X136594121Y-43708002D02*
G01*
X136640614Y-43761658D01*
X136652000Y-43814000D01*
X136652000Y-136526000D01*
X136631998Y-136594121D01*
X136578342Y-136640614D01*
X136526000Y-136652000D01*
X57784000Y-136652000D01*
X57715879Y-136631998D01*
X57669386Y-136578342D01*
X57658000Y-136526000D01*
X57658000Y-132080000D01*
X58516411Y-132080000D01*
X58536754Y-132468176D01*
X58597562Y-132852099D01*
X58698167Y-133227562D01*
X58837468Y-133590453D01*
X59013938Y-133936794D01*
X59225643Y-134262793D01*
X59470266Y-134564876D01*
X59745124Y-134839734D01*
X60047207Y-135084357D01*
X60373205Y-135296062D01*
X60376139Y-135297557D01*
X60376146Y-135297561D01*
X60716607Y-135471034D01*
X60719547Y-135472532D01*
X61082438Y-135611833D01*
X61457901Y-135712438D01*
X61661793Y-135744732D01*
X61838576Y-135772732D01*
X61838584Y-135772733D01*
X61841824Y-135773246D01*
X62230000Y-135793589D01*
X62618176Y-135773246D01*
X62621416Y-135772733D01*
X62621424Y-135772732D01*
X62798207Y-135744732D01*
X63002099Y-135712438D01*
X63377562Y-135611833D01*
X63740453Y-135472532D01*
X63743393Y-135471034D01*
X64083854Y-135297561D01*
X64083861Y-135297557D01*
X64086795Y-135296062D01*
X64412793Y-135084357D01*
X64714876Y-134839734D01*
X64989734Y-134564876D01*
X65234357Y-134262793D01*
X65446062Y-133936794D01*
X65622532Y-133590453D01*
X65761833Y-133227562D01*
X65862438Y-132852099D01*
X65923246Y-132468176D01*
X65943589Y-132080000D01*
X128506411Y-132080000D01*
X128526754Y-132468176D01*
X128587562Y-132852099D01*
X128688167Y-133227562D01*
X128827468Y-133590453D01*
X129003938Y-133936794D01*
X129215643Y-134262793D01*
X129460266Y-134564876D01*
X129735124Y-134839734D01*
X130037207Y-135084357D01*
X130363205Y-135296062D01*
X130366139Y-135297557D01*
X130366146Y-135297561D01*
X130706607Y-135471034D01*
X130709547Y-135472532D01*
X131072438Y-135611833D01*
X131447901Y-135712438D01*
X131651793Y-135744732D01*
X131828576Y-135772732D01*
X131828584Y-135772733D01*
X131831824Y-135773246D01*
X132220000Y-135793589D01*
X132608176Y-135773246D01*
X132611416Y-135772733D01*
X132611424Y-135772732D01*
X132788207Y-135744732D01*
X132992099Y-135712438D01*
X133367562Y-135611833D01*
X133730453Y-135472532D01*
X133733393Y-135471034D01*
X134073854Y-135297561D01*
X134073861Y-135297557D01*
X134076795Y-135296062D01*
X134402793Y-135084357D01*
X134704876Y-134839734D01*
X134979734Y-134564876D01*
X135224357Y-134262793D01*
X135436062Y-133936794D01*
X135612532Y-133590453D01*
X135751833Y-133227562D01*
X135852438Y-132852099D01*
X135913246Y-132468176D01*
X135933589Y-132080000D01*
X135913246Y-131691824D01*
X135852438Y-131307901D01*
X135751833Y-130932438D01*
X135612532Y-130569547D01*
X135529846Y-130407267D01*
X135437561Y-130226147D01*
X135437557Y-130226140D01*
X135436062Y-130223206D01*
X135421779Y-130201211D01*
X135226152Y-129899971D01*
X135226152Y-129899970D01*
X135224357Y-129897207D01*
X135102046Y-129746166D01*
X134981809Y-129597686D01*
X134981806Y-129597682D01*
X134979734Y-129595124D01*
X134704876Y-129320266D01*
X134402793Y-129075643D01*
X134162544Y-128919624D01*
X134079564Y-128865736D01*
X134079561Y-128865734D01*
X134076795Y-128863938D01*
X134073861Y-128862443D01*
X134073854Y-128862439D01*
X133733393Y-128688966D01*
X133730453Y-128687468D01*
X133367562Y-128548167D01*
X132992099Y-128447562D01*
X132788207Y-128415268D01*
X132611424Y-128387268D01*
X132611416Y-128387267D01*
X132608176Y-128386754D01*
X132220000Y-128366411D01*
X131831824Y-128386754D01*
X131828584Y-128387267D01*
X131828576Y-128387268D01*
X131651793Y-128415268D01*
X131447901Y-128447562D01*
X131072438Y-128548167D01*
X130709547Y-128687468D01*
X130706607Y-128688966D01*
X130366147Y-128862439D01*
X130366140Y-128862443D01*
X130363206Y-128863938D01*
X130360440Y-128865734D01*
X130360437Y-128865736D01*
X130270883Y-128923893D01*
X130037207Y-129075643D01*
X129735124Y-129320266D01*
X129460266Y-129595124D01*
X129458194Y-129597682D01*
X129458191Y-129597686D01*
X129337955Y-129746165D01*
X129215643Y-129897207D01*
X129213848Y-129899970D01*
X129213848Y-129899971D01*
X129018222Y-130201211D01*
X129003938Y-130223206D01*
X129002443Y-130226140D01*
X129002439Y-130226147D01*
X128910154Y-130407267D01*
X128827468Y-130569547D01*
X128688167Y-130932438D01*
X128587562Y-131307901D01*
X128526754Y-131691824D01*
X128506411Y-132080000D01*
X65943589Y-132080000D01*
X65923246Y-131691824D01*
X65862438Y-131307901D01*
X65761833Y-130932438D01*
X65622532Y-130569547D01*
X65539846Y-130407267D01*
X65447561Y-130226147D01*
X65447557Y-130226140D01*
X65446062Y-130223206D01*
X65431779Y-130201211D01*
X65236152Y-129899971D01*
X65236152Y-129899970D01*
X65234357Y-129897207D01*
X65112046Y-129746166D01*
X64991809Y-129597686D01*
X64991806Y-129597682D01*
X64989734Y-129595124D01*
X64714876Y-129320266D01*
X64412793Y-129075643D01*
X64172544Y-128919624D01*
X64089564Y-128865736D01*
X64089561Y-128865734D01*
X64086795Y-128863938D01*
X64083861Y-128862443D01*
X64083854Y-128862439D01*
X63743393Y-128688966D01*
X63740453Y-128687468D01*
X63377562Y-128548167D01*
X63196804Y-128499733D01*
X106467822Y-128499733D01*
X106467975Y-128504121D01*
X106467975Y-128504127D01*
X106474378Y-128687468D01*
X106477625Y-128780458D01*
X106478387Y-128784781D01*
X106478388Y-128784788D01*
X106502164Y-128919624D01*
X106526402Y-129057087D01*
X106613203Y-129324235D01*
X106736340Y-129576702D01*
X106738795Y-129580341D01*
X106738798Y-129580347D01*
X106811890Y-129688710D01*
X106893415Y-129809576D01*
X107081371Y-130018322D01*
X107296550Y-130198879D01*
X107534764Y-130347731D01*
X107791375Y-130461982D01*
X108061390Y-130539407D01*
X108065740Y-130540018D01*
X108065743Y-130540019D01*
X108168690Y-130554487D01*
X108339552Y-130578500D01*
X108550146Y-130578500D01*
X108552332Y-130578347D01*
X108552336Y-130578347D01*
X108755827Y-130564118D01*
X108755832Y-130564117D01*
X108760212Y-130563811D01*
X109034970Y-130505409D01*
X109039099Y-130503906D01*
X109039103Y-130503905D01*
X109294781Y-130410846D01*
X109294785Y-130410844D01*
X109298926Y-130409337D01*
X109546942Y-130277464D01*
X109621622Y-130223206D01*
X109770629Y-130114947D01*
X109770632Y-130114944D01*
X109774192Y-130112358D01*
X109976252Y-129917231D01*
X110149188Y-129695882D01*
X110151384Y-129692078D01*
X110151389Y-129692071D01*
X110287435Y-129456431D01*
X110289636Y-129452619D01*
X110394862Y-129192176D01*
X110428544Y-129057087D01*
X110461753Y-128923893D01*
X110461754Y-128923888D01*
X110462817Y-128919624D01*
X110468828Y-128862439D01*
X110491719Y-128644636D01*
X110491719Y-128644633D01*
X110492178Y-128640267D01*
X110492025Y-128635873D01*
X110482529Y-128363939D01*
X110482528Y-128363933D01*
X110482375Y-128359542D01*
X110458608Y-128224749D01*
X110434360Y-128087236D01*
X110433598Y-128082913D01*
X110346797Y-127815765D01*
X110223660Y-127563298D01*
X110221205Y-127559659D01*
X110221202Y-127559653D01*
X110140935Y-127440653D01*
X110066585Y-127330424D01*
X109878629Y-127121678D01*
X109663450Y-126941121D01*
X109425236Y-126792269D01*
X109168625Y-126678018D01*
X108898610Y-126600593D01*
X108894260Y-126599982D01*
X108894257Y-126599981D01*
X108791310Y-126585513D01*
X108620448Y-126561500D01*
X108409854Y-126561500D01*
X108407668Y-126561653D01*
X108407664Y-126561653D01*
X108204173Y-126575882D01*
X108204168Y-126575883D01*
X108199788Y-126576189D01*
X107925030Y-126634591D01*
X107920901Y-126636094D01*
X107920897Y-126636095D01*
X107665219Y-126729154D01*
X107665215Y-126729156D01*
X107661074Y-126730663D01*
X107413058Y-126862536D01*
X107409499Y-126865122D01*
X107409497Y-126865123D01*
X107304895Y-126941121D01*
X107185808Y-127027642D01*
X106983748Y-127222769D01*
X106810812Y-127444118D01*
X106808616Y-127447922D01*
X106808611Y-127447929D01*
X106694794Y-127645067D01*
X106670364Y-127687381D01*
X106565138Y-127947824D01*
X106564073Y-127952097D01*
X106564072Y-127952099D01*
X106530379Y-128087236D01*
X106497183Y-128220376D01*
X106496724Y-128224744D01*
X106496723Y-128224749D01*
X106473305Y-128447562D01*
X106467822Y-128499733D01*
X63196804Y-128499733D01*
X63002099Y-128447562D01*
X62798207Y-128415268D01*
X62621424Y-128387268D01*
X62621416Y-128387267D01*
X62618176Y-128386754D01*
X62230000Y-128366411D01*
X61841824Y-128386754D01*
X61838584Y-128387267D01*
X61838576Y-128387268D01*
X61661793Y-128415268D01*
X61457901Y-128447562D01*
X61082438Y-128548167D01*
X60719547Y-128687468D01*
X60716607Y-128688966D01*
X60376147Y-128862439D01*
X60376140Y-128862443D01*
X60373206Y-128863938D01*
X60370440Y-128865734D01*
X60370437Y-128865736D01*
X60280883Y-128923893D01*
X60047207Y-129075643D01*
X59745124Y-129320266D01*
X59470266Y-129595124D01*
X59468194Y-129597682D01*
X59468191Y-129597686D01*
X59347955Y-129746165D01*
X59225643Y-129897207D01*
X59223848Y-129899970D01*
X59223848Y-129899971D01*
X59028222Y-130201211D01*
X59013938Y-130223206D01*
X59012443Y-130226140D01*
X59012439Y-130226147D01*
X58920154Y-130407267D01*
X58837468Y-130569547D01*
X58698167Y-130932438D01*
X58597562Y-131307901D01*
X58536754Y-131691824D01*
X58516411Y-132080000D01*
X57658000Y-132080000D01*
X57658000Y-119647966D01*
X59628257Y-119647966D01*
X59658565Y-119782446D01*
X59661645Y-119792275D01*
X59741770Y-119989603D01*
X59746413Y-119998794D01*
X59857694Y-120180388D01*
X59863777Y-120188699D01*
X60003213Y-120349667D01*
X60010580Y-120356883D01*
X60174434Y-120492916D01*
X60182881Y-120498831D01*
X60366756Y-120606279D01*
X60376042Y-120610729D01*
X60575001Y-120686703D01*
X60584899Y-120689579D01*
X60688250Y-120710606D01*
X60702299Y-120709410D01*
X60706000Y-120699065D01*
X60706000Y-120698517D01*
X61214000Y-120698517D01*
X61218064Y-120712359D01*
X61231478Y-120714393D01*
X61238184Y-120713534D01*
X61248262Y-120711392D01*
X61452255Y-120650191D01*
X61461842Y-120646433D01*
X61653095Y-120552739D01*
X61661945Y-120547464D01*
X61835328Y-120423792D01*
X61843200Y-120417139D01*
X61948286Y-120312418D01*
X62010657Y-120278501D01*
X62081464Y-120283689D01*
X62138226Y-120326335D01*
X62155208Y-120357439D01*
X62196675Y-120468052D01*
X62205214Y-120483649D01*
X62281715Y-120585724D01*
X62294276Y-120598285D01*
X62396351Y-120674786D01*
X62411946Y-120683324D01*
X62532394Y-120728478D01*
X62547649Y-120732105D01*
X62598514Y-120737631D01*
X62605328Y-120738000D01*
X63227885Y-120738000D01*
X63243124Y-120733525D01*
X63244329Y-120732135D01*
X63246000Y-120724452D01*
X63246000Y-120719884D01*
X63754000Y-120719884D01*
X63758475Y-120735123D01*
X63759865Y-120736328D01*
X63767548Y-120737999D01*
X64394669Y-120737999D01*
X64401490Y-120737629D01*
X64452352Y-120732105D01*
X64467604Y-120728479D01*
X64588054Y-120683324D01*
X64603649Y-120674786D01*
X64705724Y-120598285D01*
X64718285Y-120585724D01*
X64794786Y-120483649D01*
X64803324Y-120468054D01*
X64848478Y-120347606D01*
X64852105Y-120332351D01*
X64857631Y-120281486D01*
X64858000Y-120274672D01*
X64858000Y-120274669D01*
X123102001Y-120274669D01*
X123102371Y-120281490D01*
X123107895Y-120332352D01*
X123111521Y-120347604D01*
X123156676Y-120468054D01*
X123165214Y-120483649D01*
X123241715Y-120585724D01*
X123254276Y-120598285D01*
X123356351Y-120674786D01*
X123371946Y-120683324D01*
X123492394Y-120728478D01*
X123507649Y-120732105D01*
X123558514Y-120737631D01*
X123565328Y-120738000D01*
X124187885Y-120738000D01*
X124203124Y-120733525D01*
X124204329Y-120732135D01*
X124206000Y-120724452D01*
X124206000Y-120719884D01*
X124714000Y-120719884D01*
X124718475Y-120735123D01*
X124719865Y-120736328D01*
X124727548Y-120737999D01*
X125354669Y-120737999D01*
X125361490Y-120737629D01*
X125412352Y-120732105D01*
X125427604Y-120728479D01*
X125548054Y-120683324D01*
X125563649Y-120674786D01*
X125665724Y-120598285D01*
X125678285Y-120585724D01*
X125754786Y-120483649D01*
X125763325Y-120468052D01*
X125804425Y-120358418D01*
X125847066Y-120301653D01*
X125913628Y-120276953D01*
X125982977Y-120292160D01*
X126017645Y-120320150D01*
X126043219Y-120349674D01*
X126050580Y-120356883D01*
X126214434Y-120492916D01*
X126222881Y-120498831D01*
X126406756Y-120606279D01*
X126416042Y-120610729D01*
X126615001Y-120686703D01*
X126624899Y-120689579D01*
X126728250Y-120710606D01*
X126742299Y-120709410D01*
X126746000Y-120699065D01*
X126746000Y-120698517D01*
X127254000Y-120698517D01*
X127258064Y-120712359D01*
X127271478Y-120714393D01*
X127278184Y-120713534D01*
X127288262Y-120711392D01*
X127492255Y-120650191D01*
X127501842Y-120646433D01*
X127693095Y-120552739D01*
X127701945Y-120547464D01*
X127875328Y-120423792D01*
X127883200Y-120417139D01*
X128034052Y-120266812D01*
X128040730Y-120258965D01*
X128165003Y-120086020D01*
X128170313Y-120077183D01*
X128264670Y-119886267D01*
X128268469Y-119876672D01*
X128330377Y-119672910D01*
X128332555Y-119662837D01*
X128333986Y-119651962D01*
X128331775Y-119637778D01*
X128318617Y-119634000D01*
X127272115Y-119634000D01*
X127256876Y-119638475D01*
X127255671Y-119639865D01*
X127254000Y-119647548D01*
X127254000Y-120698517D01*
X126746000Y-120698517D01*
X126746000Y-119652115D01*
X126741525Y-119636876D01*
X126740135Y-119635671D01*
X126732452Y-119634000D01*
X124732115Y-119634000D01*
X124716876Y-119638475D01*
X124715671Y-119639865D01*
X124714000Y-119647548D01*
X124714000Y-120719884D01*
X124206000Y-120719884D01*
X124206000Y-119652115D01*
X124201525Y-119636876D01*
X124200135Y-119635671D01*
X124192452Y-119634000D01*
X123120116Y-119634000D01*
X123104877Y-119638475D01*
X123103672Y-119639865D01*
X123102001Y-119647548D01*
X123102001Y-120274669D01*
X64858000Y-120274669D01*
X64858000Y-119652115D01*
X64853525Y-119636876D01*
X64852135Y-119635671D01*
X64844452Y-119634000D01*
X63772115Y-119634000D01*
X63756876Y-119638475D01*
X63755671Y-119639865D01*
X63754000Y-119647548D01*
X63754000Y-120719884D01*
X63246000Y-120719884D01*
X63246000Y-119652115D01*
X63241525Y-119636876D01*
X63240135Y-119635671D01*
X63232452Y-119634000D01*
X61232115Y-119634000D01*
X61216876Y-119638475D01*
X61215671Y-119639865D01*
X61214000Y-119647548D01*
X61214000Y-120698517D01*
X60706000Y-120698517D01*
X60706000Y-119652115D01*
X60701525Y-119636876D01*
X60700135Y-119635671D01*
X60692452Y-119634000D01*
X59643225Y-119634000D01*
X59629694Y-119637973D01*
X59628257Y-119647966D01*
X57658000Y-119647966D01*
X57658000Y-116806695D01*
X59597251Y-116806695D01*
X59597548Y-116811848D01*
X59597548Y-116811851D01*
X59603011Y-116906590D01*
X59610110Y-117029715D01*
X59611247Y-117034761D01*
X59611248Y-117034767D01*
X59631119Y-117122939D01*
X59659222Y-117247639D01*
X59743266Y-117454616D01*
X59794019Y-117537438D01*
X59857291Y-117640688D01*
X59859987Y-117645088D01*
X60006250Y-117813938D01*
X60178126Y-117956632D01*
X60239860Y-117992706D01*
X60251955Y-117999774D01*
X60300679Y-118051412D01*
X60313750Y-118121195D01*
X60287019Y-118186967D01*
X60246562Y-118220327D01*
X60238457Y-118224546D01*
X60229738Y-118230036D01*
X60059433Y-118357905D01*
X60051726Y-118364748D01*
X59904590Y-118518717D01*
X59898104Y-118526727D01*
X59778098Y-118702649D01*
X59773000Y-118711623D01*
X59683338Y-118904783D01*
X59679775Y-118914470D01*
X59624389Y-119114183D01*
X59625912Y-119122607D01*
X59638292Y-119126000D01*
X64839884Y-119126000D01*
X64855123Y-119121525D01*
X64856328Y-119120135D01*
X64857999Y-119112452D01*
X64857999Y-118485331D01*
X64857629Y-118478510D01*
X64852105Y-118427648D01*
X64848479Y-118412396D01*
X64803324Y-118291946D01*
X64794786Y-118276351D01*
X64718285Y-118174276D01*
X64705724Y-118161715D01*
X64603649Y-118085214D01*
X64588054Y-118076676D01*
X64477813Y-118035348D01*
X64421049Y-117992706D01*
X64396349Y-117926145D01*
X64411557Y-117856796D01*
X64433104Y-117828115D01*
X64534430Y-117727144D01*
X64534440Y-117727132D01*
X64538096Y-117723489D01*
X64597594Y-117640689D01*
X64665435Y-117546277D01*
X64668453Y-117542077D01*
X64689320Y-117499857D01*
X64765136Y-117346453D01*
X64765137Y-117346451D01*
X64767430Y-117341811D01*
X64832370Y-117128069D01*
X64861529Y-116906590D01*
X64863156Y-116840000D01*
X64844852Y-116617361D01*
X64790431Y-116400702D01*
X64739797Y-116284252D01*
X64730977Y-116213807D01*
X64761644Y-116149775D01*
X64822060Y-116112487D01*
X64855347Y-116108011D01*
X123104576Y-116108011D01*
X123172697Y-116128013D01*
X123219190Y-116181669D01*
X123229294Y-116251943D01*
X123218864Y-116287061D01*
X123180688Y-116369305D01*
X123120989Y-116584570D01*
X123097251Y-116806695D01*
X123097548Y-116811848D01*
X123097548Y-116811851D01*
X123103011Y-116906590D01*
X123110110Y-117029715D01*
X123111247Y-117034761D01*
X123111248Y-117034767D01*
X123131119Y-117122939D01*
X123159222Y-117247639D01*
X123243266Y-117454616D01*
X123294019Y-117537438D01*
X123357291Y-117640688D01*
X123359987Y-117645088D01*
X123506250Y-117813938D01*
X123510225Y-117817238D01*
X123510231Y-117817244D01*
X123515425Y-117821556D01*
X123555059Y-117880460D01*
X123556555Y-117951441D01*
X123519439Y-118011962D01*
X123479168Y-118036480D01*
X123371946Y-118076676D01*
X123356351Y-118085214D01*
X123254276Y-118161715D01*
X123241715Y-118174276D01*
X123165214Y-118276351D01*
X123156676Y-118291946D01*
X123111522Y-118412394D01*
X123107895Y-118427649D01*
X123102369Y-118478514D01*
X123102000Y-118485328D01*
X123102000Y-119107885D01*
X123106475Y-119123124D01*
X123107865Y-119124329D01*
X123115548Y-119126000D01*
X128318344Y-119126000D01*
X128331875Y-119122027D01*
X128333180Y-119112947D01*
X128291214Y-118945875D01*
X128287894Y-118936124D01*
X128202972Y-118740814D01*
X128198105Y-118731739D01*
X128082426Y-118552926D01*
X128076136Y-118544757D01*
X127932806Y-118387240D01*
X127925273Y-118380215D01*
X127758139Y-118248222D01*
X127749556Y-118242520D01*
X127712602Y-118222120D01*
X127662631Y-118171687D01*
X127647859Y-118102245D01*
X127672975Y-118035839D01*
X127700327Y-118009232D01*
X127723797Y-117992491D01*
X127879860Y-117881173D01*
X127904323Y-117856796D01*
X128034435Y-117727137D01*
X128038096Y-117723489D01*
X128097594Y-117640689D01*
X128165435Y-117546277D01*
X128168453Y-117542077D01*
X128189320Y-117499857D01*
X128265136Y-117346453D01*
X128265137Y-117346451D01*
X128267430Y-117341811D01*
X128332370Y-117128069D01*
X128361529Y-116906590D01*
X128363156Y-116840000D01*
X128344852Y-116617361D01*
X128290431Y-116400702D01*
X128201354Y-116195840D01*
X128080014Y-116008277D01*
X127929670Y-115843051D01*
X127925619Y-115839852D01*
X127925615Y-115839848D01*
X127758414Y-115707800D01*
X127758410Y-115707798D01*
X127754359Y-115704598D01*
X127713053Y-115681796D01*
X127663084Y-115631364D01*
X127648312Y-115561921D01*
X127673428Y-115495516D01*
X127700780Y-115468909D01*
X127744603Y-115437650D01*
X127879860Y-115341173D01*
X128038096Y-115183489D01*
X128097594Y-115100689D01*
X128165435Y-115006277D01*
X128168453Y-115002077D01*
X128267430Y-114801811D01*
X128332370Y-114588069D01*
X128361529Y-114366590D01*
X128363156Y-114300000D01*
X128344852Y-114077361D01*
X128290431Y-113860702D01*
X128201354Y-113655840D01*
X128080014Y-113468277D01*
X127929670Y-113303051D01*
X127925619Y-113299852D01*
X127925615Y-113299848D01*
X127758414Y-113167800D01*
X127758410Y-113167798D01*
X127754359Y-113164598D01*
X127713053Y-113141796D01*
X127663084Y-113091364D01*
X127648312Y-113021921D01*
X127673428Y-112955516D01*
X127700780Y-112928909D01*
X127744603Y-112897650D01*
X127879860Y-112801173D01*
X128038096Y-112643489D01*
X128097594Y-112560689D01*
X128165435Y-112466277D01*
X128168453Y-112462077D01*
X128267430Y-112261811D01*
X128332370Y-112048069D01*
X128361529Y-111826590D01*
X128363156Y-111760000D01*
X128344852Y-111537361D01*
X128290431Y-111320702D01*
X128201354Y-111115840D01*
X128080014Y-110928277D01*
X127929670Y-110763051D01*
X127925619Y-110759852D01*
X127925615Y-110759848D01*
X127758414Y-110627800D01*
X127758410Y-110627798D01*
X127754359Y-110624598D01*
X127713053Y-110601796D01*
X127663084Y-110551364D01*
X127648312Y-110481921D01*
X127673428Y-110415516D01*
X127700780Y-110388909D01*
X127744603Y-110357650D01*
X127879860Y-110261173D01*
X128038096Y-110103489D01*
X128097594Y-110020689D01*
X128165435Y-109926277D01*
X128168453Y-109922077D01*
X128267430Y-109721811D01*
X128332370Y-109508069D01*
X128361529Y-109286590D01*
X128363156Y-109220000D01*
X128344852Y-108997361D01*
X128290431Y-108780702D01*
X128201354Y-108575840D01*
X128080014Y-108388277D01*
X127929670Y-108223051D01*
X127925619Y-108219852D01*
X127925615Y-108219848D01*
X127758414Y-108087800D01*
X127758410Y-108087798D01*
X127754359Y-108084598D01*
X127713053Y-108061796D01*
X127663084Y-108011364D01*
X127648312Y-107941921D01*
X127673428Y-107875516D01*
X127700780Y-107848909D01*
X127744603Y-107817650D01*
X127879860Y-107721173D01*
X128038096Y-107563489D01*
X128097594Y-107480689D01*
X128165435Y-107386277D01*
X128168453Y-107382077D01*
X128267430Y-107181811D01*
X128332370Y-106968069D01*
X128361529Y-106746590D01*
X128363156Y-106680000D01*
X128344852Y-106457361D01*
X128290431Y-106240702D01*
X128201354Y-106035840D01*
X128161906Y-105974862D01*
X128082822Y-105852617D01*
X128082820Y-105852614D01*
X128080014Y-105848277D01*
X127929670Y-105683051D01*
X127925619Y-105679852D01*
X127925615Y-105679848D01*
X127758414Y-105547800D01*
X127758410Y-105547798D01*
X127754359Y-105544598D01*
X127558789Y-105436638D01*
X127553920Y-105434914D01*
X127553916Y-105434912D01*
X127353087Y-105363795D01*
X127353083Y-105363794D01*
X127348212Y-105362069D01*
X127343119Y-105361162D01*
X127343116Y-105361161D01*
X127133373Y-105323800D01*
X127133367Y-105323799D01*
X127128284Y-105322894D01*
X127054452Y-105321992D01*
X126910081Y-105320228D01*
X126910079Y-105320228D01*
X126904911Y-105320165D01*
X126684091Y-105353955D01*
X126471756Y-105423357D01*
X126273607Y-105526507D01*
X126269474Y-105529610D01*
X126269471Y-105529612D01*
X126245247Y-105547800D01*
X126094965Y-105660635D01*
X125940629Y-105822138D01*
X125833201Y-105979621D01*
X125778293Y-106024621D01*
X125707768Y-106032792D01*
X125644021Y-106001538D01*
X125623324Y-105977054D01*
X125542822Y-105852617D01*
X125542820Y-105852614D01*
X125540014Y-105848277D01*
X125389670Y-105683051D01*
X125385619Y-105679852D01*
X125385615Y-105679848D01*
X125218414Y-105547800D01*
X125218410Y-105547798D01*
X125214359Y-105544598D01*
X125018789Y-105436638D01*
X125013920Y-105434914D01*
X125013916Y-105434912D01*
X124813087Y-105363795D01*
X124813083Y-105363794D01*
X124808212Y-105362069D01*
X124803119Y-105361162D01*
X124803116Y-105361161D01*
X124593373Y-105323800D01*
X124593367Y-105323799D01*
X124588284Y-105322894D01*
X124514452Y-105321992D01*
X124370081Y-105320228D01*
X124370079Y-105320228D01*
X124364911Y-105320165D01*
X124144091Y-105353955D01*
X123931756Y-105423357D01*
X123733607Y-105526507D01*
X123729474Y-105529610D01*
X123729471Y-105529612D01*
X123705247Y-105547800D01*
X123554965Y-105660635D01*
X123400629Y-105822138D01*
X123397720Y-105826403D01*
X123397714Y-105826411D01*
X123285095Y-105991504D01*
X123230184Y-106036507D01*
X123181007Y-106046500D01*
X95958200Y-106046500D01*
X95890079Y-106026498D01*
X95870853Y-106010157D01*
X95870580Y-106010460D01*
X95865668Y-106006037D01*
X95861253Y-106001134D01*
X95706752Y-105888882D01*
X95700724Y-105886198D01*
X95700722Y-105886197D01*
X95538319Y-105813891D01*
X95538318Y-105813891D01*
X95532288Y-105811206D01*
X95438888Y-105791353D01*
X95351944Y-105772872D01*
X95351939Y-105772872D01*
X95345487Y-105771500D01*
X95154513Y-105771500D01*
X95148061Y-105772872D01*
X95148056Y-105772872D01*
X95061113Y-105791353D01*
X94967712Y-105811206D01*
X94961682Y-105813891D01*
X94961681Y-105813891D01*
X94799278Y-105886197D01*
X94799276Y-105886198D01*
X94793248Y-105888882D01*
X94638747Y-106001134D01*
X94634332Y-106006037D01*
X94629420Y-106010460D01*
X94628295Y-106009211D01*
X94574986Y-106042051D01*
X94541800Y-106046500D01*
X64776805Y-106046500D01*
X64708684Y-106026498D01*
X64671013Y-105988940D01*
X64582822Y-105852617D01*
X64582820Y-105852614D01*
X64580014Y-105848277D01*
X64429670Y-105683051D01*
X64425619Y-105679852D01*
X64425615Y-105679848D01*
X64258414Y-105547800D01*
X64258410Y-105547798D01*
X64254359Y-105544598D01*
X64058789Y-105436638D01*
X64053920Y-105434914D01*
X64053916Y-105434912D01*
X63853087Y-105363795D01*
X63853083Y-105363794D01*
X63848212Y-105362069D01*
X63843119Y-105361162D01*
X63843116Y-105361161D01*
X63633373Y-105323800D01*
X63633367Y-105323799D01*
X63628284Y-105322894D01*
X63554452Y-105321992D01*
X63410081Y-105320228D01*
X63410079Y-105320228D01*
X63404911Y-105320165D01*
X63184091Y-105353955D01*
X62971756Y-105423357D01*
X62773607Y-105526507D01*
X62769474Y-105529610D01*
X62769471Y-105529612D01*
X62745247Y-105547800D01*
X62594965Y-105660635D01*
X62440629Y-105822138D01*
X62333201Y-105979621D01*
X62278293Y-106024621D01*
X62207768Y-106032792D01*
X62144021Y-106001538D01*
X62123324Y-105977054D01*
X62042822Y-105852617D01*
X62042820Y-105852614D01*
X62040014Y-105848277D01*
X61889670Y-105683051D01*
X61885619Y-105679852D01*
X61885615Y-105679848D01*
X61718414Y-105547800D01*
X61718410Y-105547798D01*
X61714359Y-105544598D01*
X61518789Y-105436638D01*
X61513920Y-105434914D01*
X61513916Y-105434912D01*
X61313087Y-105363795D01*
X61313083Y-105363794D01*
X61308212Y-105362069D01*
X61303119Y-105361162D01*
X61303116Y-105361161D01*
X61093373Y-105323800D01*
X61093367Y-105323799D01*
X61088284Y-105322894D01*
X61014452Y-105321992D01*
X60870081Y-105320228D01*
X60870079Y-105320228D01*
X60864911Y-105320165D01*
X60644091Y-105353955D01*
X60431756Y-105423357D01*
X60233607Y-105526507D01*
X60229474Y-105529610D01*
X60229471Y-105529612D01*
X60205247Y-105547800D01*
X60054965Y-105660635D01*
X59900629Y-105822138D01*
X59774743Y-106006680D01*
X59680688Y-106209305D01*
X59620989Y-106424570D01*
X59597251Y-106646695D01*
X59597548Y-106651848D01*
X59597548Y-106651851D01*
X59603011Y-106746590D01*
X59610110Y-106869715D01*
X59611247Y-106874761D01*
X59611248Y-106874767D01*
X59631119Y-106962939D01*
X59659222Y-107087639D01*
X59743266Y-107294616D01*
X59859987Y-107485088D01*
X60006250Y-107653938D01*
X60178126Y-107796632D01*
X60248595Y-107837811D01*
X60251445Y-107839476D01*
X60300169Y-107891114D01*
X60313240Y-107960897D01*
X60286509Y-108026669D01*
X60246055Y-108060027D01*
X60233607Y-108066507D01*
X60229474Y-108069610D01*
X60229471Y-108069612D01*
X60205247Y-108087800D01*
X60054965Y-108200635D01*
X59900629Y-108362138D01*
X59774743Y-108546680D01*
X59680688Y-108749305D01*
X59620989Y-108964570D01*
X59597251Y-109186695D01*
X59597548Y-109191848D01*
X59597548Y-109191851D01*
X59603011Y-109286590D01*
X59610110Y-109409715D01*
X59611247Y-109414761D01*
X59611248Y-109414767D01*
X59631119Y-109502939D01*
X59659222Y-109627639D01*
X59743266Y-109834616D01*
X59859987Y-110025088D01*
X60006250Y-110193938D01*
X60178126Y-110336632D01*
X60248595Y-110377811D01*
X60251445Y-110379476D01*
X60300169Y-110431114D01*
X60313240Y-110500897D01*
X60286509Y-110566669D01*
X60246055Y-110600027D01*
X60233607Y-110606507D01*
X60229474Y-110609610D01*
X60229471Y-110609612D01*
X60205247Y-110627800D01*
X60054965Y-110740635D01*
X59900629Y-110902138D01*
X59774743Y-111086680D01*
X59680688Y-111289305D01*
X59620989Y-111504570D01*
X59597251Y-111726695D01*
X59597548Y-111731848D01*
X59597548Y-111731851D01*
X59603011Y-111826590D01*
X59610110Y-111949715D01*
X59611247Y-111954761D01*
X59611248Y-111954767D01*
X59631119Y-112042939D01*
X59659222Y-112167639D01*
X59743266Y-112374616D01*
X59859987Y-112565088D01*
X60006250Y-112733938D01*
X60178126Y-112876632D01*
X60248595Y-112917811D01*
X60251445Y-112919476D01*
X60300169Y-112971114D01*
X60313240Y-113040897D01*
X60286509Y-113106669D01*
X60246055Y-113140027D01*
X60233607Y-113146507D01*
X60229474Y-113149610D01*
X60229471Y-113149612D01*
X60205247Y-113167800D01*
X60054965Y-113280635D01*
X59900629Y-113442138D01*
X59774743Y-113626680D01*
X59680688Y-113829305D01*
X59620989Y-114044570D01*
X59597251Y-114266695D01*
X59597548Y-114271848D01*
X59597548Y-114271851D01*
X59603011Y-114366590D01*
X59610110Y-114489715D01*
X59611247Y-114494761D01*
X59611248Y-114494767D01*
X59631119Y-114582939D01*
X59659222Y-114707639D01*
X59743266Y-114914616D01*
X59859987Y-115105088D01*
X60006250Y-115273938D01*
X60178126Y-115416632D01*
X60248595Y-115457811D01*
X60251445Y-115459476D01*
X60300169Y-115511114D01*
X60313240Y-115580897D01*
X60286509Y-115646669D01*
X60246055Y-115680027D01*
X60233607Y-115686507D01*
X60229474Y-115689610D01*
X60229471Y-115689612D01*
X60205247Y-115707800D01*
X60054965Y-115820635D01*
X59900629Y-115982138D01*
X59774743Y-116166680D01*
X59680688Y-116369305D01*
X59620989Y-116584570D01*
X59597251Y-116806695D01*
X57658000Y-116806695D01*
X57658000Y-102499733D01*
X77467822Y-102499733D01*
X77467975Y-102504121D01*
X77467975Y-102504127D01*
X77474862Y-102701331D01*
X77477625Y-102780458D01*
X77478387Y-102784781D01*
X77478388Y-102784788D01*
X77502164Y-102919624D01*
X77526402Y-103057087D01*
X77613203Y-103324235D01*
X77736340Y-103576702D01*
X77738795Y-103580341D01*
X77738798Y-103580347D01*
X77811890Y-103688710D01*
X77893415Y-103809576D01*
X78081371Y-104018322D01*
X78296550Y-104198879D01*
X78534764Y-104347731D01*
X78791375Y-104461982D01*
X79061390Y-104539407D01*
X79065740Y-104540018D01*
X79065743Y-104540019D01*
X79168690Y-104554487D01*
X79339552Y-104578500D01*
X79550146Y-104578500D01*
X79552332Y-104578347D01*
X79552336Y-104578347D01*
X79755827Y-104564118D01*
X79755832Y-104564117D01*
X79760212Y-104563811D01*
X80034970Y-104505409D01*
X80039099Y-104503906D01*
X80039103Y-104503905D01*
X80294781Y-104410846D01*
X80294785Y-104410844D01*
X80298926Y-104409337D01*
X80546942Y-104277464D01*
X80651896Y-104201211D01*
X80770629Y-104114947D01*
X80770632Y-104114944D01*
X80774192Y-104112358D01*
X80976252Y-103917231D01*
X81149188Y-103695882D01*
X81151384Y-103692078D01*
X81151389Y-103692071D01*
X81287435Y-103456431D01*
X81289636Y-103452619D01*
X81394862Y-103192176D01*
X81428544Y-103057087D01*
X81461753Y-102923893D01*
X81461754Y-102923888D01*
X81462817Y-102919624D01*
X81467521Y-102874874D01*
X81491719Y-102644636D01*
X81491719Y-102644633D01*
X81492178Y-102640267D01*
X81492025Y-102635873D01*
X81482529Y-102363939D01*
X81482528Y-102363933D01*
X81482375Y-102359542D01*
X81469219Y-102284926D01*
X81434360Y-102087236D01*
X81433598Y-102082913D01*
X81346797Y-101815765D01*
X81241561Y-101600000D01*
X87624647Y-101600000D01*
X87644022Y-101821463D01*
X87701560Y-102036196D01*
X87703882Y-102041177D01*
X87703883Y-102041178D01*
X87793186Y-102232689D01*
X87793189Y-102232694D01*
X87795512Y-102237676D01*
X87798668Y-102242183D01*
X87798669Y-102242185D01*
X87835107Y-102294223D01*
X87923023Y-102419781D01*
X88080219Y-102576977D01*
X88084727Y-102580134D01*
X88084730Y-102580136D01*
X88160495Y-102633187D01*
X88262323Y-102704488D01*
X88267305Y-102706811D01*
X88267310Y-102706814D01*
X88415812Y-102776061D01*
X88463804Y-102798440D01*
X88469112Y-102799862D01*
X88469114Y-102799863D01*
X88534949Y-102817503D01*
X88678537Y-102855978D01*
X88900000Y-102875353D01*
X89121463Y-102855978D01*
X89265051Y-102817503D01*
X89330886Y-102799863D01*
X89330888Y-102799862D01*
X89336196Y-102798440D01*
X89384188Y-102776061D01*
X89532690Y-102706814D01*
X89532695Y-102706811D01*
X89537677Y-102704488D01*
X89639505Y-102633187D01*
X89715270Y-102580136D01*
X89715273Y-102580134D01*
X89719781Y-102576977D01*
X89876977Y-102419781D01*
X89964894Y-102294223D01*
X90001331Y-102242185D01*
X90001332Y-102242183D01*
X90004488Y-102237676D01*
X90006811Y-102232694D01*
X90006814Y-102232689D01*
X90055805Y-102127627D01*
X90102723Y-102074342D01*
X90171000Y-102054881D01*
X90238960Y-102075423D01*
X90284195Y-102127627D01*
X90333186Y-102232689D01*
X90333189Y-102232694D01*
X90335512Y-102237676D01*
X90338668Y-102242183D01*
X90338669Y-102242185D01*
X90375107Y-102294223D01*
X90463023Y-102419781D01*
X90620219Y-102576977D01*
X90624727Y-102580134D01*
X90624730Y-102580136D01*
X90700495Y-102633187D01*
X90802323Y-102704488D01*
X90807305Y-102706811D01*
X90807310Y-102706814D01*
X90955812Y-102776061D01*
X91003804Y-102798440D01*
X91009112Y-102799862D01*
X91009114Y-102799863D01*
X91074949Y-102817503D01*
X91218537Y-102855978D01*
X91440000Y-102875353D01*
X91661463Y-102855978D01*
X91805051Y-102817503D01*
X91870886Y-102799863D01*
X91870888Y-102799862D01*
X91876196Y-102798440D01*
X91924188Y-102776061D01*
X92072690Y-102706814D01*
X92072695Y-102706811D01*
X92077677Y-102704488D01*
X92179505Y-102633187D01*
X92255270Y-102580136D01*
X92255273Y-102580134D01*
X92259781Y-102576977D01*
X92416977Y-102419781D01*
X92504894Y-102294223D01*
X92541331Y-102242185D01*
X92541332Y-102242183D01*
X92544488Y-102237676D01*
X92546811Y-102232694D01*
X92546814Y-102232689D01*
X92595805Y-102127627D01*
X92642723Y-102074342D01*
X92711000Y-102054881D01*
X92778960Y-102075423D01*
X92824195Y-102127627D01*
X92873186Y-102232689D01*
X92873189Y-102232694D01*
X92875512Y-102237676D01*
X92878668Y-102242183D01*
X92878669Y-102242185D01*
X92915107Y-102294223D01*
X93003023Y-102419781D01*
X93160219Y-102576977D01*
X93164727Y-102580134D01*
X93164730Y-102580136D01*
X93240495Y-102633187D01*
X93342323Y-102704488D01*
X93347305Y-102706811D01*
X93347310Y-102706814D01*
X93495812Y-102776061D01*
X93543804Y-102798440D01*
X93549112Y-102799862D01*
X93549114Y-102799863D01*
X93614949Y-102817503D01*
X93758537Y-102855978D01*
X93980000Y-102875353D01*
X94201463Y-102855978D01*
X94345051Y-102817503D01*
X94410886Y-102799863D01*
X94410888Y-102799862D01*
X94416196Y-102798440D01*
X94464188Y-102776061D01*
X94612690Y-102706814D01*
X94612695Y-102706811D01*
X94617677Y-102704488D01*
X94719505Y-102633187D01*
X94795270Y-102580136D01*
X94795273Y-102580134D01*
X94799781Y-102576977D01*
X94956977Y-102419781D01*
X95044894Y-102294223D01*
X95081331Y-102242185D01*
X95081332Y-102242183D01*
X95084488Y-102237676D01*
X95086811Y-102232694D01*
X95086814Y-102232689D01*
X95135805Y-102127627D01*
X95182723Y-102074342D01*
X95251000Y-102054881D01*
X95318960Y-102075423D01*
X95364195Y-102127627D01*
X95413186Y-102232689D01*
X95413189Y-102232694D01*
X95415512Y-102237676D01*
X95418668Y-102242183D01*
X95418669Y-102242185D01*
X95455107Y-102294223D01*
X95543023Y-102419781D01*
X95700219Y-102576977D01*
X95704727Y-102580134D01*
X95704730Y-102580136D01*
X95780495Y-102633187D01*
X95882323Y-102704488D01*
X95887305Y-102706811D01*
X95887310Y-102706814D01*
X96035812Y-102776061D01*
X96083804Y-102798440D01*
X96089112Y-102799862D01*
X96089114Y-102799863D01*
X96154949Y-102817503D01*
X96298537Y-102855978D01*
X96520000Y-102875353D01*
X96741463Y-102855978D01*
X96885051Y-102817503D01*
X96950886Y-102799863D01*
X96950888Y-102799862D01*
X96956196Y-102798440D01*
X97004188Y-102776061D01*
X97152690Y-102706814D01*
X97152695Y-102706811D01*
X97157677Y-102704488D01*
X97222959Y-102658777D01*
X98365777Y-102658777D01*
X98375074Y-102670793D01*
X98418069Y-102700898D01*
X98427555Y-102706376D01*
X98618993Y-102795645D01*
X98629285Y-102799391D01*
X98833309Y-102854059D01*
X98844104Y-102855962D01*
X99054525Y-102874372D01*
X99065475Y-102874372D01*
X99275896Y-102855962D01*
X99286691Y-102854059D01*
X99490715Y-102799391D01*
X99501007Y-102795645D01*
X99692445Y-102706376D01*
X99701931Y-102700898D01*
X99745764Y-102670207D01*
X99754139Y-102659729D01*
X99747071Y-102646281D01*
X99072812Y-101972022D01*
X99058868Y-101964408D01*
X99057035Y-101964539D01*
X99050420Y-101968790D01*
X98372207Y-102647003D01*
X98365777Y-102658777D01*
X97222959Y-102658777D01*
X97259505Y-102633187D01*
X97335270Y-102580136D01*
X97335273Y-102580134D01*
X97339781Y-102576977D01*
X97496977Y-102419781D01*
X97584894Y-102294223D01*
X97621331Y-102242185D01*
X97621332Y-102242183D01*
X97624488Y-102237676D01*
X97626811Y-102232694D01*
X97626814Y-102232689D01*
X97676081Y-102127035D01*
X97722999Y-102073750D01*
X97791276Y-102054289D01*
X97859236Y-102074831D01*
X97904471Y-102127035D01*
X97953623Y-102232441D01*
X97959103Y-102241932D01*
X97989794Y-102285765D01*
X98000271Y-102294140D01*
X98013718Y-102287072D01*
X98687978Y-101612812D01*
X98694356Y-101601132D01*
X99424408Y-101601132D01*
X99424539Y-101602965D01*
X99428790Y-101609580D01*
X100107003Y-102287793D01*
X100118777Y-102294223D01*
X100130793Y-102284926D01*
X100160897Y-102241932D01*
X100166377Y-102232441D01*
X100215529Y-102127035D01*
X100262447Y-102073750D01*
X100330724Y-102054289D01*
X100398684Y-102074831D01*
X100443919Y-102127035D01*
X100493186Y-102232689D01*
X100493189Y-102232694D01*
X100495512Y-102237676D01*
X100498668Y-102242183D01*
X100498669Y-102242185D01*
X100535107Y-102294223D01*
X100623023Y-102419781D01*
X100780219Y-102576977D01*
X100784727Y-102580134D01*
X100784730Y-102580136D01*
X100860495Y-102633187D01*
X100962323Y-102704488D01*
X100967305Y-102706811D01*
X100967310Y-102706814D01*
X101115812Y-102776061D01*
X101163804Y-102798440D01*
X101169112Y-102799862D01*
X101169114Y-102799863D01*
X101234949Y-102817503D01*
X101378537Y-102855978D01*
X101600000Y-102875353D01*
X101821463Y-102855978D01*
X101965051Y-102817503D01*
X102030886Y-102799863D01*
X102030888Y-102799862D01*
X102036196Y-102798440D01*
X102084188Y-102776061D01*
X102232690Y-102706814D01*
X102232695Y-102706811D01*
X102237677Y-102704488D01*
X102339505Y-102633187D01*
X102415270Y-102580136D01*
X102415273Y-102580134D01*
X102419781Y-102576977D01*
X102576977Y-102419781D01*
X102664894Y-102294223D01*
X102701331Y-102242185D01*
X102701332Y-102242183D01*
X102704488Y-102237676D01*
X102706811Y-102232694D01*
X102706814Y-102232689D01*
X102755805Y-102127627D01*
X102802723Y-102074342D01*
X102871000Y-102054881D01*
X102938960Y-102075423D01*
X102984195Y-102127627D01*
X103033186Y-102232689D01*
X103033189Y-102232694D01*
X103035512Y-102237676D01*
X103038668Y-102242183D01*
X103038669Y-102242185D01*
X103075107Y-102294223D01*
X103163023Y-102419781D01*
X103320219Y-102576977D01*
X103324727Y-102580134D01*
X103324730Y-102580136D01*
X103400495Y-102633187D01*
X103502323Y-102704488D01*
X103507305Y-102706811D01*
X103507310Y-102706814D01*
X103655812Y-102776061D01*
X103703804Y-102798440D01*
X103709112Y-102799862D01*
X103709114Y-102799863D01*
X103774949Y-102817503D01*
X103918537Y-102855978D01*
X104140000Y-102875353D01*
X104361463Y-102855978D01*
X104505051Y-102817503D01*
X104570886Y-102799863D01*
X104570888Y-102799862D01*
X104576196Y-102798440D01*
X104624188Y-102776061D01*
X104772690Y-102706814D01*
X104772695Y-102706811D01*
X104777677Y-102704488D01*
X104879505Y-102633187D01*
X104955270Y-102580136D01*
X104955273Y-102580134D01*
X104959781Y-102576977D01*
X105116977Y-102419781D01*
X105204894Y-102294223D01*
X105241331Y-102242185D01*
X105241332Y-102242183D01*
X105244488Y-102237676D01*
X105246811Y-102232694D01*
X105246814Y-102232689D01*
X105295805Y-102127627D01*
X105342723Y-102074342D01*
X105411000Y-102054881D01*
X105478960Y-102075423D01*
X105524195Y-102127627D01*
X105573186Y-102232689D01*
X105573189Y-102232694D01*
X105575512Y-102237676D01*
X105578668Y-102242183D01*
X105578669Y-102242185D01*
X105615107Y-102294223D01*
X105703023Y-102419781D01*
X105860219Y-102576977D01*
X105864727Y-102580134D01*
X105864730Y-102580136D01*
X105940495Y-102633187D01*
X106042323Y-102704488D01*
X106047305Y-102706811D01*
X106047310Y-102706814D01*
X106195812Y-102776061D01*
X106243804Y-102798440D01*
X106249112Y-102799862D01*
X106249114Y-102799863D01*
X106314949Y-102817503D01*
X106458537Y-102855978D01*
X106680000Y-102875353D01*
X106901463Y-102855978D01*
X107045051Y-102817503D01*
X107110886Y-102799863D01*
X107110888Y-102799862D01*
X107116196Y-102798440D01*
X107164188Y-102776061D01*
X107312690Y-102706814D01*
X107312695Y-102706811D01*
X107317677Y-102704488D01*
X107419505Y-102633187D01*
X107495270Y-102580136D01*
X107495273Y-102580134D01*
X107499781Y-102576977D01*
X107656977Y-102419781D01*
X107744894Y-102294223D01*
X107781331Y-102242185D01*
X107781332Y-102242183D01*
X107784488Y-102237676D01*
X107786811Y-102232694D01*
X107786814Y-102232689D01*
X107876117Y-102041178D01*
X107876118Y-102041177D01*
X107878440Y-102036196D01*
X107935978Y-101821463D01*
X107955353Y-101600000D01*
X107935978Y-101378537D01*
X107878440Y-101163804D01*
X107860424Y-101125169D01*
X107786814Y-100967311D01*
X107786811Y-100967306D01*
X107784488Y-100962324D01*
X107768009Y-100938789D01*
X107660136Y-100784730D01*
X107660134Y-100784727D01*
X107656977Y-100780219D01*
X107499781Y-100623023D01*
X107495273Y-100619866D01*
X107495270Y-100619864D01*
X107411917Y-100561500D01*
X107317677Y-100495512D01*
X107312695Y-100493189D01*
X107312690Y-100493186D01*
X107121178Y-100403883D01*
X107121177Y-100403882D01*
X107116196Y-100401560D01*
X107110888Y-100400138D01*
X107110886Y-100400137D01*
X107045051Y-100382497D01*
X106901463Y-100344022D01*
X106680000Y-100324647D01*
X106458537Y-100344022D01*
X106314949Y-100382497D01*
X106249114Y-100400137D01*
X106249112Y-100400138D01*
X106243804Y-100401560D01*
X106238823Y-100403882D01*
X106238822Y-100403883D01*
X106047311Y-100493186D01*
X106047306Y-100493189D01*
X106042324Y-100495512D01*
X106037817Y-100498668D01*
X106037815Y-100498669D01*
X105864730Y-100619864D01*
X105864727Y-100619866D01*
X105860219Y-100623023D01*
X105703023Y-100780219D01*
X105699866Y-100784727D01*
X105699864Y-100784730D01*
X105591991Y-100938789D01*
X105575512Y-100962324D01*
X105573189Y-100967306D01*
X105573186Y-100967311D01*
X105524195Y-101072373D01*
X105477277Y-101125658D01*
X105409000Y-101145119D01*
X105341040Y-101124577D01*
X105295805Y-101072373D01*
X105246814Y-100967311D01*
X105246811Y-100967306D01*
X105244488Y-100962324D01*
X105228009Y-100938789D01*
X105120136Y-100784730D01*
X105120134Y-100784727D01*
X105116977Y-100780219D01*
X104959781Y-100623023D01*
X104955273Y-100619866D01*
X104955270Y-100619864D01*
X104871917Y-100561500D01*
X104777677Y-100495512D01*
X104772695Y-100493189D01*
X104772690Y-100493186D01*
X104581178Y-100403883D01*
X104581177Y-100403882D01*
X104576196Y-100401560D01*
X104570888Y-100400138D01*
X104570886Y-100400137D01*
X104505051Y-100382497D01*
X104361463Y-100344022D01*
X104140000Y-100324647D01*
X103918537Y-100344022D01*
X103774949Y-100382497D01*
X103709114Y-100400137D01*
X103709112Y-100400138D01*
X103703804Y-100401560D01*
X103698823Y-100403882D01*
X103698822Y-100403883D01*
X103507311Y-100493186D01*
X103507306Y-100493189D01*
X103502324Y-100495512D01*
X103497817Y-100498668D01*
X103497815Y-100498669D01*
X103324730Y-100619864D01*
X103324727Y-100619866D01*
X103320219Y-100623023D01*
X103163023Y-100780219D01*
X103159866Y-100784727D01*
X103159864Y-100784730D01*
X103051991Y-100938789D01*
X103035512Y-100962324D01*
X103033189Y-100967306D01*
X103033186Y-100967311D01*
X102984195Y-101072373D01*
X102937277Y-101125658D01*
X102869000Y-101145119D01*
X102801040Y-101124577D01*
X102755805Y-101072373D01*
X102706814Y-100967311D01*
X102706811Y-100967306D01*
X102704488Y-100962324D01*
X102688009Y-100938789D01*
X102580136Y-100784730D01*
X102580134Y-100784727D01*
X102576977Y-100780219D01*
X102419781Y-100623023D01*
X102415273Y-100619866D01*
X102415270Y-100619864D01*
X102331917Y-100561500D01*
X102237677Y-100495512D01*
X102232695Y-100493189D01*
X102232690Y-100493186D01*
X102041178Y-100403883D01*
X102041177Y-100403882D01*
X102036196Y-100401560D01*
X102030888Y-100400138D01*
X102030886Y-100400137D01*
X101965051Y-100382497D01*
X101821463Y-100344022D01*
X101600000Y-100324647D01*
X101378537Y-100344022D01*
X101234949Y-100382497D01*
X101169114Y-100400137D01*
X101169112Y-100400138D01*
X101163804Y-100401560D01*
X101158823Y-100403882D01*
X101158822Y-100403883D01*
X100967311Y-100493186D01*
X100967306Y-100493189D01*
X100962324Y-100495512D01*
X100957817Y-100498668D01*
X100957815Y-100498669D01*
X100784730Y-100619864D01*
X100784727Y-100619866D01*
X100780219Y-100623023D01*
X100623023Y-100780219D01*
X100619866Y-100784727D01*
X100619864Y-100784730D01*
X100511991Y-100938789D01*
X100495512Y-100962324D01*
X100493189Y-100967306D01*
X100493186Y-100967311D01*
X100443919Y-101072965D01*
X100397001Y-101126250D01*
X100328724Y-101145711D01*
X100260764Y-101125169D01*
X100215529Y-101072965D01*
X100166377Y-100967559D01*
X100160897Y-100958068D01*
X100130206Y-100914235D01*
X100119729Y-100905860D01*
X100106282Y-100912928D01*
X99432022Y-101587188D01*
X99424408Y-101601132D01*
X98694356Y-101601132D01*
X98695592Y-101598868D01*
X98695461Y-101597035D01*
X98691210Y-101590420D01*
X98012997Y-100912207D01*
X98001223Y-100905777D01*
X97989207Y-100915074D01*
X97959103Y-100958068D01*
X97953623Y-100967559D01*
X97904471Y-101072965D01*
X97857553Y-101126250D01*
X97789276Y-101145711D01*
X97721316Y-101125169D01*
X97676081Y-101072965D01*
X97626814Y-100967311D01*
X97626811Y-100967306D01*
X97624488Y-100962324D01*
X97608009Y-100938789D01*
X97500136Y-100784730D01*
X97500134Y-100784727D01*
X97496977Y-100780219D01*
X97339781Y-100623023D01*
X97335273Y-100619866D01*
X97335270Y-100619864D01*
X97251917Y-100561500D01*
X97221599Y-100540271D01*
X98365860Y-100540271D01*
X98372928Y-100553718D01*
X99047188Y-101227978D01*
X99061132Y-101235592D01*
X99062965Y-101235461D01*
X99069580Y-101231210D01*
X99747793Y-100552997D01*
X99754223Y-100541223D01*
X99744926Y-100529207D01*
X99701931Y-100499102D01*
X99692445Y-100493624D01*
X99501007Y-100404355D01*
X99490715Y-100400609D01*
X99286691Y-100345941D01*
X99275896Y-100344038D01*
X99065475Y-100325628D01*
X99054525Y-100325628D01*
X98844104Y-100344038D01*
X98833309Y-100345941D01*
X98629285Y-100400609D01*
X98618993Y-100404355D01*
X98427559Y-100493623D01*
X98418068Y-100499103D01*
X98374235Y-100529794D01*
X98365860Y-100540271D01*
X97221599Y-100540271D01*
X97157677Y-100495512D01*
X97152695Y-100493189D01*
X97152690Y-100493186D01*
X96961178Y-100403883D01*
X96961177Y-100403882D01*
X96956196Y-100401560D01*
X96950888Y-100400138D01*
X96950886Y-100400137D01*
X96885051Y-100382497D01*
X96741463Y-100344022D01*
X96520000Y-100324647D01*
X96298537Y-100344022D01*
X96154949Y-100382497D01*
X96089114Y-100400137D01*
X96089112Y-100400138D01*
X96083804Y-100401560D01*
X96078823Y-100403882D01*
X96078822Y-100403883D01*
X95887311Y-100493186D01*
X95887306Y-100493189D01*
X95882324Y-100495512D01*
X95877817Y-100498668D01*
X95877815Y-100498669D01*
X95704730Y-100619864D01*
X95704727Y-100619866D01*
X95700219Y-100623023D01*
X95543023Y-100780219D01*
X95539866Y-100784727D01*
X95539864Y-100784730D01*
X95431991Y-100938789D01*
X95415512Y-100962324D01*
X95413189Y-100967306D01*
X95413186Y-100967311D01*
X95364195Y-101072373D01*
X95317277Y-101125658D01*
X95249000Y-101145119D01*
X95181040Y-101124577D01*
X95135805Y-101072373D01*
X95086814Y-100967311D01*
X95086811Y-100967306D01*
X95084488Y-100962324D01*
X95068009Y-100938789D01*
X94960136Y-100784730D01*
X94960134Y-100784727D01*
X94956977Y-100780219D01*
X94799781Y-100623023D01*
X94795273Y-100619866D01*
X94795270Y-100619864D01*
X94711917Y-100561500D01*
X94617677Y-100495512D01*
X94612695Y-100493189D01*
X94612690Y-100493186D01*
X94421178Y-100403883D01*
X94421177Y-100403882D01*
X94416196Y-100401560D01*
X94410888Y-100400138D01*
X94410886Y-100400137D01*
X94345051Y-100382497D01*
X94201463Y-100344022D01*
X93980000Y-100324647D01*
X93758537Y-100344022D01*
X93614949Y-100382497D01*
X93549114Y-100400137D01*
X93549112Y-100400138D01*
X93543804Y-100401560D01*
X93538823Y-100403882D01*
X93538822Y-100403883D01*
X93347311Y-100493186D01*
X93347306Y-100493189D01*
X93342324Y-100495512D01*
X93337817Y-100498668D01*
X93337815Y-100498669D01*
X93164730Y-100619864D01*
X93164727Y-100619866D01*
X93160219Y-100623023D01*
X93003023Y-100780219D01*
X92999866Y-100784727D01*
X92999864Y-100784730D01*
X92891991Y-100938789D01*
X92875512Y-100962324D01*
X92873189Y-100967306D01*
X92873186Y-100967311D01*
X92824195Y-101072373D01*
X92777277Y-101125658D01*
X92709000Y-101145119D01*
X92641040Y-101124577D01*
X92595805Y-101072373D01*
X92546814Y-100967311D01*
X92546811Y-100967306D01*
X92544488Y-100962324D01*
X92528009Y-100938789D01*
X92420136Y-100784730D01*
X92420134Y-100784727D01*
X92416977Y-100780219D01*
X92259781Y-100623023D01*
X92255273Y-100619866D01*
X92255270Y-100619864D01*
X92171917Y-100561500D01*
X92077677Y-100495512D01*
X92072695Y-100493189D01*
X92072690Y-100493186D01*
X91881178Y-100403883D01*
X91881177Y-100403882D01*
X91876196Y-100401560D01*
X91870888Y-100400138D01*
X91870886Y-100400137D01*
X91805051Y-100382497D01*
X91661463Y-100344022D01*
X91440000Y-100324647D01*
X91218537Y-100344022D01*
X91074949Y-100382497D01*
X91009114Y-100400137D01*
X91009112Y-100400138D01*
X91003804Y-100401560D01*
X90998823Y-100403882D01*
X90998822Y-100403883D01*
X90807311Y-100493186D01*
X90807306Y-100493189D01*
X90802324Y-100495512D01*
X90797817Y-100498668D01*
X90797815Y-100498669D01*
X90624730Y-100619864D01*
X90624727Y-100619866D01*
X90620219Y-100623023D01*
X90463023Y-100780219D01*
X90459866Y-100784727D01*
X90459864Y-100784730D01*
X90351991Y-100938789D01*
X90335512Y-100962324D01*
X90333189Y-100967306D01*
X90333186Y-100967311D01*
X90284195Y-101072373D01*
X90237277Y-101125658D01*
X90169000Y-101145119D01*
X90101040Y-101124577D01*
X90055805Y-101072373D01*
X90006814Y-100967311D01*
X90006811Y-100967306D01*
X90004488Y-100962324D01*
X89988009Y-100938789D01*
X89880136Y-100784730D01*
X89880134Y-100784727D01*
X89876977Y-100780219D01*
X89719781Y-100623023D01*
X89715273Y-100619866D01*
X89715270Y-100619864D01*
X89631917Y-100561500D01*
X89537677Y-100495512D01*
X89532695Y-100493189D01*
X89532690Y-100493186D01*
X89341178Y-100403883D01*
X89341177Y-100403882D01*
X89336196Y-100401560D01*
X89330888Y-100400138D01*
X89330886Y-100400137D01*
X89265051Y-100382497D01*
X89121463Y-100344022D01*
X88900000Y-100324647D01*
X88678537Y-100344022D01*
X88534949Y-100382497D01*
X88469114Y-100400137D01*
X88469112Y-100400138D01*
X88463804Y-100401560D01*
X88458823Y-100403882D01*
X88458822Y-100403883D01*
X88267311Y-100493186D01*
X88267306Y-100493189D01*
X88262324Y-100495512D01*
X88257817Y-100498668D01*
X88257815Y-100498669D01*
X88084730Y-100619864D01*
X88084727Y-100619866D01*
X88080219Y-100623023D01*
X87923023Y-100780219D01*
X87919866Y-100784727D01*
X87919864Y-100784730D01*
X87811991Y-100938789D01*
X87795512Y-100962324D01*
X87793189Y-100967306D01*
X87793186Y-100967311D01*
X87719576Y-101125169D01*
X87701560Y-101163804D01*
X87644022Y-101378537D01*
X87624647Y-101600000D01*
X81241561Y-101600000D01*
X81223660Y-101563298D01*
X81221205Y-101559659D01*
X81221202Y-101559653D01*
X81102733Y-101384016D01*
X81066585Y-101330424D01*
X80878629Y-101121678D01*
X80663450Y-100941121D01*
X80425236Y-100792269D01*
X80168625Y-100678018D01*
X79976833Y-100623023D01*
X79902837Y-100601805D01*
X79902836Y-100601805D01*
X79898610Y-100600593D01*
X79894260Y-100599982D01*
X79894257Y-100599981D01*
X79791310Y-100585513D01*
X79620448Y-100561500D01*
X79409854Y-100561500D01*
X79407668Y-100561653D01*
X79407664Y-100561653D01*
X79204173Y-100575882D01*
X79204168Y-100575883D01*
X79199788Y-100576189D01*
X78925030Y-100634591D01*
X78920901Y-100636094D01*
X78920897Y-100636095D01*
X78665219Y-100729154D01*
X78665215Y-100729156D01*
X78661074Y-100730663D01*
X78413058Y-100862536D01*
X78409499Y-100865122D01*
X78409497Y-100865123D01*
X78268506Y-100967559D01*
X78185808Y-101027642D01*
X78182644Y-101030698D01*
X78182641Y-101030700D01*
X78093865Y-101116431D01*
X77983748Y-101222769D01*
X77810812Y-101444118D01*
X77808616Y-101447922D01*
X77808611Y-101447929D01*
X77717652Y-101605475D01*
X77670364Y-101687381D01*
X77565138Y-101947824D01*
X77564073Y-101952097D01*
X77564072Y-101952099D01*
X77520456Y-102127035D01*
X77497183Y-102220376D01*
X77496724Y-102224744D01*
X77496723Y-102224749D01*
X77468281Y-102495364D01*
X77467822Y-102499733D01*
X57658000Y-102499733D01*
X57658000Y-96787966D01*
X59628257Y-96787966D01*
X59658565Y-96922446D01*
X59661645Y-96932275D01*
X59741770Y-97129603D01*
X59746413Y-97138794D01*
X59857694Y-97320388D01*
X59863777Y-97328699D01*
X60003213Y-97489667D01*
X60010580Y-97496883D01*
X60174434Y-97632916D01*
X60182881Y-97638831D01*
X60366756Y-97746279D01*
X60376042Y-97750729D01*
X60575001Y-97826703D01*
X60584899Y-97829579D01*
X60688250Y-97850606D01*
X60702299Y-97849410D01*
X60706000Y-97839065D01*
X60706000Y-97838517D01*
X61214000Y-97838517D01*
X61218064Y-97852359D01*
X61231478Y-97854393D01*
X61238184Y-97853534D01*
X61248262Y-97851392D01*
X61452255Y-97790191D01*
X61461842Y-97786433D01*
X61653095Y-97692739D01*
X61661945Y-97687464D01*
X61835328Y-97563792D01*
X61843200Y-97557139D01*
X61948286Y-97452418D01*
X62010657Y-97418501D01*
X62081464Y-97423689D01*
X62138226Y-97466335D01*
X62155208Y-97497439D01*
X62196675Y-97608052D01*
X62205214Y-97623649D01*
X62281715Y-97725724D01*
X62294276Y-97738285D01*
X62396351Y-97814786D01*
X62411946Y-97823324D01*
X62532394Y-97868478D01*
X62547649Y-97872105D01*
X62598514Y-97877631D01*
X62605328Y-97878000D01*
X63227885Y-97878000D01*
X63243124Y-97873525D01*
X63244329Y-97872135D01*
X63246000Y-97864452D01*
X63246000Y-97859884D01*
X63754000Y-97859884D01*
X63758475Y-97875123D01*
X63759865Y-97876328D01*
X63767548Y-97877999D01*
X64394669Y-97877999D01*
X64401490Y-97877629D01*
X64452352Y-97872105D01*
X64467604Y-97868479D01*
X64588054Y-97823324D01*
X64603649Y-97814786D01*
X64705724Y-97738285D01*
X64718285Y-97725724D01*
X64794786Y-97623649D01*
X64803324Y-97608054D01*
X64848478Y-97487606D01*
X64852105Y-97472351D01*
X64857631Y-97421486D01*
X64858000Y-97414672D01*
X64858000Y-97414669D01*
X123102001Y-97414669D01*
X123102371Y-97421490D01*
X123107895Y-97472352D01*
X123111521Y-97487604D01*
X123156676Y-97608054D01*
X123165214Y-97623649D01*
X123241715Y-97725724D01*
X123254276Y-97738285D01*
X123356351Y-97814786D01*
X123371946Y-97823324D01*
X123492394Y-97868478D01*
X123507649Y-97872105D01*
X123558514Y-97877631D01*
X123565328Y-97878000D01*
X124187885Y-97878000D01*
X124203124Y-97873525D01*
X124204329Y-97872135D01*
X124206000Y-97864452D01*
X124206000Y-97859884D01*
X124714000Y-97859884D01*
X124718475Y-97875123D01*
X124719865Y-97876328D01*
X124727548Y-97877999D01*
X125354669Y-97877999D01*
X125361490Y-97877629D01*
X125412352Y-97872105D01*
X125427604Y-97868479D01*
X125548054Y-97823324D01*
X125563649Y-97814786D01*
X125665724Y-97738285D01*
X125678285Y-97725724D01*
X125754786Y-97623649D01*
X125763325Y-97608052D01*
X125804425Y-97498418D01*
X125847066Y-97441653D01*
X125913628Y-97416953D01*
X125982977Y-97432160D01*
X126017645Y-97460150D01*
X126043219Y-97489674D01*
X126050580Y-97496883D01*
X126214434Y-97632916D01*
X126222881Y-97638831D01*
X126406756Y-97746279D01*
X126416042Y-97750729D01*
X126615001Y-97826703D01*
X126624899Y-97829579D01*
X126728250Y-97850606D01*
X126742299Y-97849410D01*
X126746000Y-97839065D01*
X126746000Y-97838517D01*
X127254000Y-97838517D01*
X127258064Y-97852359D01*
X127271478Y-97854393D01*
X127278184Y-97853534D01*
X127288262Y-97851392D01*
X127492255Y-97790191D01*
X127501842Y-97786433D01*
X127693095Y-97692739D01*
X127701945Y-97687464D01*
X127875328Y-97563792D01*
X127883200Y-97557139D01*
X128034052Y-97406812D01*
X128040730Y-97398965D01*
X128165003Y-97226020D01*
X128170313Y-97217183D01*
X128264670Y-97026267D01*
X128268469Y-97016672D01*
X128330377Y-96812910D01*
X128332555Y-96802837D01*
X128333986Y-96791962D01*
X128331775Y-96777778D01*
X128318617Y-96774000D01*
X127272115Y-96774000D01*
X127256876Y-96778475D01*
X127255671Y-96779865D01*
X127254000Y-96787548D01*
X127254000Y-97838517D01*
X126746000Y-97838517D01*
X126746000Y-96792115D01*
X126741525Y-96776876D01*
X126740135Y-96775671D01*
X126732452Y-96774000D01*
X124732115Y-96774000D01*
X124716876Y-96778475D01*
X124715671Y-96779865D01*
X124714000Y-96787548D01*
X124714000Y-97859884D01*
X124206000Y-97859884D01*
X124206000Y-96792115D01*
X124201525Y-96776876D01*
X124200135Y-96775671D01*
X124192452Y-96774000D01*
X123120116Y-96774000D01*
X123104877Y-96778475D01*
X123103672Y-96779865D01*
X123102001Y-96787548D01*
X123102001Y-97414669D01*
X64858000Y-97414669D01*
X64858000Y-96792115D01*
X64853525Y-96776876D01*
X64852135Y-96775671D01*
X64844452Y-96774000D01*
X63772115Y-96774000D01*
X63756876Y-96778475D01*
X63755671Y-96779865D01*
X63754000Y-96787548D01*
X63754000Y-97859884D01*
X63246000Y-97859884D01*
X63246000Y-96792115D01*
X63241525Y-96776876D01*
X63240135Y-96775671D01*
X63232452Y-96774000D01*
X61232115Y-96774000D01*
X61216876Y-96778475D01*
X61215671Y-96779865D01*
X61214000Y-96787548D01*
X61214000Y-97838517D01*
X60706000Y-97838517D01*
X60706000Y-96792115D01*
X60701525Y-96776876D01*
X60700135Y-96775671D01*
X60692452Y-96774000D01*
X59643225Y-96774000D01*
X59629694Y-96777973D01*
X59628257Y-96787966D01*
X57658000Y-96787966D01*
X57658000Y-93946695D01*
X59597251Y-93946695D01*
X59597548Y-93951848D01*
X59597548Y-93951851D01*
X59603011Y-94046590D01*
X59610110Y-94169715D01*
X59611247Y-94174761D01*
X59611248Y-94174767D01*
X59631119Y-94262939D01*
X59659222Y-94387639D01*
X59743266Y-94594616D01*
X59794019Y-94677438D01*
X59857291Y-94780688D01*
X59859987Y-94785088D01*
X60006250Y-94953938D01*
X60178126Y-95096632D01*
X60239860Y-95132706D01*
X60251955Y-95139774D01*
X60300679Y-95191412D01*
X60313750Y-95261195D01*
X60287019Y-95326967D01*
X60246562Y-95360327D01*
X60238457Y-95364546D01*
X60229738Y-95370036D01*
X60059433Y-95497905D01*
X60051726Y-95504748D01*
X59904590Y-95658717D01*
X59898104Y-95666727D01*
X59778098Y-95842649D01*
X59773000Y-95851623D01*
X59683338Y-96044783D01*
X59679775Y-96054470D01*
X59624389Y-96254183D01*
X59625912Y-96262607D01*
X59638292Y-96266000D01*
X64839884Y-96266000D01*
X64855123Y-96261525D01*
X64856328Y-96260135D01*
X64857999Y-96252452D01*
X64857999Y-95625331D01*
X64857629Y-95618510D01*
X64852105Y-95567648D01*
X64848479Y-95552396D01*
X64803324Y-95431946D01*
X64794786Y-95416351D01*
X64718285Y-95314276D01*
X64705724Y-95301715D01*
X64603649Y-95225214D01*
X64588054Y-95216676D01*
X64477813Y-95175348D01*
X64421049Y-95132706D01*
X64396349Y-95066145D01*
X64411557Y-94996796D01*
X64433104Y-94968115D01*
X64534430Y-94867144D01*
X64534440Y-94867132D01*
X64538096Y-94863489D01*
X64597594Y-94780689D01*
X64665435Y-94686277D01*
X64668453Y-94682077D01*
X64689320Y-94639857D01*
X64765136Y-94486453D01*
X64765137Y-94486451D01*
X64767430Y-94481811D01*
X64832370Y-94268069D01*
X64861529Y-94046590D01*
X64863156Y-93980000D01*
X64844852Y-93757361D01*
X64837906Y-93729707D01*
X64804242Y-93595684D01*
X64807046Y-93524743D01*
X64847759Y-93466580D01*
X64913455Y-93439661D01*
X64926446Y-93438989D01*
X123034490Y-93438989D01*
X123102611Y-93458991D01*
X123149104Y-93512647D01*
X123159208Y-93582921D01*
X123155907Y-93598661D01*
X123120989Y-93724570D01*
X123097251Y-93946695D01*
X123097548Y-93951848D01*
X123097548Y-93951851D01*
X123103011Y-94046590D01*
X123110110Y-94169715D01*
X123111247Y-94174761D01*
X123111248Y-94174767D01*
X123131119Y-94262939D01*
X123159222Y-94387639D01*
X123243266Y-94594616D01*
X123294019Y-94677438D01*
X123357291Y-94780688D01*
X123359987Y-94785088D01*
X123506250Y-94953938D01*
X123510225Y-94957238D01*
X123510231Y-94957244D01*
X123515425Y-94961556D01*
X123555059Y-95020460D01*
X123556555Y-95091441D01*
X123519439Y-95151962D01*
X123479168Y-95176480D01*
X123371946Y-95216676D01*
X123356351Y-95225214D01*
X123254276Y-95301715D01*
X123241715Y-95314276D01*
X123165214Y-95416351D01*
X123156676Y-95431946D01*
X123111522Y-95552394D01*
X123107895Y-95567649D01*
X123102369Y-95618514D01*
X123102000Y-95625328D01*
X123102000Y-96247885D01*
X123106475Y-96263124D01*
X123107865Y-96264329D01*
X123115548Y-96266000D01*
X128318344Y-96266000D01*
X128331875Y-96262027D01*
X128333180Y-96252947D01*
X128291214Y-96085875D01*
X128287894Y-96076124D01*
X128202972Y-95880814D01*
X128198105Y-95871739D01*
X128082426Y-95692926D01*
X128076136Y-95684757D01*
X127932806Y-95527240D01*
X127925273Y-95520215D01*
X127758139Y-95388222D01*
X127749556Y-95382520D01*
X127712602Y-95362120D01*
X127662631Y-95311687D01*
X127647859Y-95242245D01*
X127672975Y-95175839D01*
X127700327Y-95149232D01*
X127723797Y-95132491D01*
X127879860Y-95021173D01*
X127904323Y-94996796D01*
X128034435Y-94867137D01*
X128038096Y-94863489D01*
X128097594Y-94780689D01*
X128165435Y-94686277D01*
X128168453Y-94682077D01*
X128189320Y-94639857D01*
X128265136Y-94486453D01*
X128265137Y-94486451D01*
X128267430Y-94481811D01*
X128332370Y-94268069D01*
X128361529Y-94046590D01*
X128363156Y-93980000D01*
X128344852Y-93757361D01*
X128290431Y-93540702D01*
X128201354Y-93335840D01*
X128080014Y-93148277D01*
X127929670Y-92983051D01*
X127925619Y-92979852D01*
X127925615Y-92979848D01*
X127758414Y-92847800D01*
X127758410Y-92847798D01*
X127754359Y-92844598D01*
X127713053Y-92821796D01*
X127663084Y-92771364D01*
X127648312Y-92701921D01*
X127673428Y-92635516D01*
X127700780Y-92608909D01*
X127744603Y-92577650D01*
X127879860Y-92481173D01*
X128038096Y-92323489D01*
X128097594Y-92240689D01*
X128165435Y-92146277D01*
X128168453Y-92142077D01*
X128267430Y-91941811D01*
X128332370Y-91728069D01*
X128361529Y-91506590D01*
X128363156Y-91440000D01*
X128344852Y-91217361D01*
X128290431Y-91000702D01*
X128201354Y-90795840D01*
X128080014Y-90608277D01*
X127929670Y-90443051D01*
X127925619Y-90439852D01*
X127925615Y-90439848D01*
X127758414Y-90307800D01*
X127758410Y-90307798D01*
X127754359Y-90304598D01*
X127713053Y-90281796D01*
X127663084Y-90231364D01*
X127648312Y-90161921D01*
X127673428Y-90095516D01*
X127700780Y-90068909D01*
X127744603Y-90037650D01*
X127879860Y-89941173D01*
X128038096Y-89783489D01*
X128097594Y-89700689D01*
X128165435Y-89606277D01*
X128168453Y-89602077D01*
X128267430Y-89401811D01*
X128332370Y-89188069D01*
X128361529Y-88966590D01*
X128363156Y-88900000D01*
X128344852Y-88677361D01*
X128290431Y-88460702D01*
X128201354Y-88255840D01*
X128080014Y-88068277D01*
X127929670Y-87903051D01*
X127925619Y-87899852D01*
X127925615Y-87899848D01*
X127758414Y-87767800D01*
X127758410Y-87767798D01*
X127754359Y-87764598D01*
X127713053Y-87741796D01*
X127663084Y-87691364D01*
X127648312Y-87621921D01*
X127673428Y-87555516D01*
X127700780Y-87528909D01*
X127744603Y-87497650D01*
X127879860Y-87401173D01*
X128038096Y-87243489D01*
X128097594Y-87160689D01*
X128165435Y-87066277D01*
X128168453Y-87062077D01*
X128267430Y-86861811D01*
X128332370Y-86648069D01*
X128361529Y-86426590D01*
X128363156Y-86360000D01*
X128344852Y-86137361D01*
X128290431Y-85920702D01*
X128201354Y-85715840D01*
X128080014Y-85528277D01*
X127929670Y-85363051D01*
X127925619Y-85359852D01*
X127925615Y-85359848D01*
X127758414Y-85227800D01*
X127758410Y-85227798D01*
X127754359Y-85224598D01*
X127713053Y-85201796D01*
X127663084Y-85151364D01*
X127648312Y-85081921D01*
X127673428Y-85015516D01*
X127700780Y-84988909D01*
X127744603Y-84957650D01*
X127879860Y-84861173D01*
X128038096Y-84703489D01*
X128097594Y-84620689D01*
X128165435Y-84526277D01*
X128168453Y-84522077D01*
X128267430Y-84321811D01*
X128332370Y-84108069D01*
X128361529Y-83886590D01*
X128363156Y-83820000D01*
X128344852Y-83597361D01*
X128290431Y-83380702D01*
X128201354Y-83175840D01*
X128080014Y-82988277D01*
X127929670Y-82823051D01*
X127925619Y-82819852D01*
X127925615Y-82819848D01*
X127758414Y-82687800D01*
X127758410Y-82687798D01*
X127754359Y-82684598D01*
X127558789Y-82576638D01*
X127553920Y-82574914D01*
X127553916Y-82574912D01*
X127353087Y-82503795D01*
X127353083Y-82503794D01*
X127348212Y-82502069D01*
X127343119Y-82501162D01*
X127343116Y-82501161D01*
X127133373Y-82463800D01*
X127133367Y-82463799D01*
X127128284Y-82462894D01*
X127054452Y-82461992D01*
X126910081Y-82460228D01*
X126910079Y-82460228D01*
X126904911Y-82460165D01*
X126684091Y-82493955D01*
X126471756Y-82563357D01*
X126273607Y-82666507D01*
X126269474Y-82669610D01*
X126269471Y-82669612D01*
X126245247Y-82687800D01*
X126094965Y-82800635D01*
X125940629Y-82962138D01*
X125833201Y-83119621D01*
X125778293Y-83164621D01*
X125707768Y-83172792D01*
X125644021Y-83141538D01*
X125623324Y-83117054D01*
X125542822Y-82992617D01*
X125542820Y-82992614D01*
X125540014Y-82988277D01*
X125389670Y-82823051D01*
X125385619Y-82819852D01*
X125385615Y-82819848D01*
X125218414Y-82687800D01*
X125218410Y-82687798D01*
X125214359Y-82684598D01*
X125018789Y-82576638D01*
X125013920Y-82574914D01*
X125013916Y-82574912D01*
X124813087Y-82503795D01*
X124813083Y-82503794D01*
X124808212Y-82502069D01*
X124803119Y-82501162D01*
X124803116Y-82501161D01*
X124593373Y-82463800D01*
X124593367Y-82463799D01*
X124588284Y-82462894D01*
X124514452Y-82461992D01*
X124370081Y-82460228D01*
X124370079Y-82460228D01*
X124364911Y-82460165D01*
X124228911Y-82480976D01*
X124158550Y-82471508D01*
X124104476Y-82425503D01*
X124085779Y-82373063D01*
X124085606Y-82373100D01*
X124085331Y-82371806D01*
X124084543Y-82369596D01*
X124084232Y-82366635D01*
X124084232Y-82366633D01*
X124083542Y-82360072D01*
X124024527Y-82178444D01*
X123929040Y-82013056D01*
X123839400Y-81913500D01*
X123805675Y-81876045D01*
X123805674Y-81876044D01*
X123801253Y-81871134D01*
X123646752Y-81758882D01*
X123640724Y-81756198D01*
X123640722Y-81756197D01*
X123478319Y-81683891D01*
X123478318Y-81683891D01*
X123472288Y-81681206D01*
X123378888Y-81661353D01*
X123291944Y-81642872D01*
X123291939Y-81642872D01*
X123285487Y-81641500D01*
X123094513Y-81641500D01*
X123088061Y-81642872D01*
X123088056Y-81642872D01*
X122946284Y-81673007D01*
X122875493Y-81667605D01*
X122818861Y-81624788D01*
X122794367Y-81558150D01*
X122800254Y-81510824D01*
X122811502Y-81476206D01*
X122813542Y-81469928D01*
X122833504Y-81280000D01*
X122813542Y-81090072D01*
X122754527Y-80908444D01*
X122659040Y-80743056D01*
X122569400Y-80643500D01*
X122535675Y-80606045D01*
X122535674Y-80606044D01*
X122531253Y-80601134D01*
X122376752Y-80488882D01*
X122370724Y-80486198D01*
X122370722Y-80486197D01*
X122208319Y-80413891D01*
X122208318Y-80413891D01*
X122202288Y-80411206D01*
X122108888Y-80391353D01*
X122021944Y-80372872D01*
X122021939Y-80372872D01*
X122015487Y-80371500D01*
X121824513Y-80371500D01*
X121818061Y-80372872D01*
X121818056Y-80372872D01*
X121676284Y-80403007D01*
X121605493Y-80397605D01*
X121548861Y-80354788D01*
X121524367Y-80288150D01*
X121530254Y-80240824D01*
X121541502Y-80206206D01*
X121543542Y-80199928D01*
X121563504Y-80010000D01*
X121543542Y-79820072D01*
X121484527Y-79638444D01*
X121389040Y-79473056D01*
X121299400Y-79373500D01*
X121265675Y-79336045D01*
X121265674Y-79336044D01*
X121261253Y-79331134D01*
X121106752Y-79218882D01*
X121100724Y-79216198D01*
X121100722Y-79216197D01*
X120938319Y-79143891D01*
X120938318Y-79143891D01*
X120932288Y-79141206D01*
X120838887Y-79121353D01*
X120751944Y-79102872D01*
X120751939Y-79102872D01*
X120745487Y-79101500D01*
X120554513Y-79101500D01*
X120548061Y-79102872D01*
X120548056Y-79102872D01*
X120406284Y-79133007D01*
X120335493Y-79127605D01*
X120278861Y-79084788D01*
X120254367Y-79018150D01*
X120260254Y-78970824D01*
X120271502Y-78936206D01*
X120273542Y-78929928D01*
X120293504Y-78740000D01*
X120273542Y-78550072D01*
X120214527Y-78368444D01*
X120119040Y-78203056D01*
X120029400Y-78103500D01*
X119995675Y-78066045D01*
X119995674Y-78066044D01*
X119991253Y-78061134D01*
X119836752Y-77948882D01*
X119830724Y-77946198D01*
X119830722Y-77946197D01*
X119668319Y-77873891D01*
X119668318Y-77873891D01*
X119662288Y-77871206D01*
X119568888Y-77851353D01*
X119481944Y-77832872D01*
X119481939Y-77832872D01*
X119475487Y-77831500D01*
X119284513Y-77831500D01*
X119278061Y-77832872D01*
X119278056Y-77832872D01*
X119136284Y-77863007D01*
X119065493Y-77857605D01*
X119008861Y-77814788D01*
X118984367Y-77748150D01*
X118990254Y-77700824D01*
X119001502Y-77666206D01*
X119003542Y-77659928D01*
X119023504Y-77470000D01*
X119003542Y-77280072D01*
X118944527Y-77098444D01*
X118849040Y-76933056D01*
X118759400Y-76833500D01*
X118725675Y-76796045D01*
X118725674Y-76796044D01*
X118721253Y-76791134D01*
X118566752Y-76678882D01*
X118560724Y-76676198D01*
X118560722Y-76676197D01*
X118398319Y-76603891D01*
X118398318Y-76603891D01*
X118392288Y-76601206D01*
X118298887Y-76581353D01*
X118211944Y-76562872D01*
X118211939Y-76562872D01*
X118205487Y-76561500D01*
X118014513Y-76561500D01*
X118008061Y-76562872D01*
X118008056Y-76562872D01*
X117866284Y-76593007D01*
X117795493Y-76587605D01*
X117738861Y-76544788D01*
X117714367Y-76478150D01*
X117720254Y-76430824D01*
X117731502Y-76396206D01*
X117733542Y-76389928D01*
X117753504Y-76200000D01*
X117733542Y-76010072D01*
X117674527Y-75828444D01*
X117579040Y-75663056D01*
X117489400Y-75563500D01*
X117455675Y-75526045D01*
X117455674Y-75526044D01*
X117451253Y-75521134D01*
X117296752Y-75408882D01*
X117290724Y-75406198D01*
X117290722Y-75406197D01*
X117128319Y-75333891D01*
X117128318Y-75333891D01*
X117122288Y-75331206D01*
X117028887Y-75311353D01*
X116941944Y-75292872D01*
X116941939Y-75292872D01*
X116935487Y-75291500D01*
X116744513Y-75291500D01*
X116738061Y-75292872D01*
X116738056Y-75292872D01*
X116596284Y-75323007D01*
X116525493Y-75317605D01*
X116468861Y-75274788D01*
X116444367Y-75208150D01*
X116450254Y-75160824D01*
X116461502Y-75126206D01*
X116463542Y-75119928D01*
X116483504Y-74930000D01*
X116463542Y-74740072D01*
X116404527Y-74558444D01*
X116402347Y-74554669D01*
X123102001Y-74554669D01*
X123102371Y-74561490D01*
X123107895Y-74612352D01*
X123111521Y-74627604D01*
X123156676Y-74748054D01*
X123165214Y-74763649D01*
X123241715Y-74865724D01*
X123254276Y-74878285D01*
X123356351Y-74954786D01*
X123371946Y-74963324D01*
X123492394Y-75008478D01*
X123507649Y-75012105D01*
X123558514Y-75017631D01*
X123565328Y-75018000D01*
X124187885Y-75018000D01*
X124203124Y-75013525D01*
X124204329Y-75012135D01*
X124206000Y-75004452D01*
X124206000Y-74999884D01*
X124714000Y-74999884D01*
X124718475Y-75015123D01*
X124719865Y-75016328D01*
X124727548Y-75017999D01*
X125354669Y-75017999D01*
X125361490Y-75017629D01*
X125412352Y-75012105D01*
X125427604Y-75008479D01*
X125548054Y-74963324D01*
X125563649Y-74954786D01*
X125665724Y-74878285D01*
X125678285Y-74865724D01*
X125754786Y-74763649D01*
X125763325Y-74748052D01*
X125804425Y-74638418D01*
X125847066Y-74581653D01*
X125913628Y-74556953D01*
X125982977Y-74572160D01*
X126017645Y-74600150D01*
X126043219Y-74629674D01*
X126050580Y-74636883D01*
X126214434Y-74772916D01*
X126222881Y-74778831D01*
X126406756Y-74886279D01*
X126416042Y-74890729D01*
X126615001Y-74966703D01*
X126624899Y-74969579D01*
X126728250Y-74990606D01*
X126742299Y-74989410D01*
X126746000Y-74979065D01*
X126746000Y-74978517D01*
X127254000Y-74978517D01*
X127258064Y-74992359D01*
X127271478Y-74994393D01*
X127278184Y-74993534D01*
X127288262Y-74991392D01*
X127492255Y-74930191D01*
X127501842Y-74926433D01*
X127693095Y-74832739D01*
X127701945Y-74827464D01*
X127875328Y-74703792D01*
X127883200Y-74697139D01*
X128034052Y-74546812D01*
X128040730Y-74538965D01*
X128165003Y-74366020D01*
X128170313Y-74357183D01*
X128264670Y-74166267D01*
X128268469Y-74156672D01*
X128330377Y-73952910D01*
X128332555Y-73942837D01*
X128333986Y-73931962D01*
X128331775Y-73917778D01*
X128318617Y-73914000D01*
X127272115Y-73914000D01*
X127256876Y-73918475D01*
X127255671Y-73919865D01*
X127254000Y-73927548D01*
X127254000Y-74978517D01*
X126746000Y-74978517D01*
X126746000Y-73932115D01*
X126741525Y-73916876D01*
X126740135Y-73915671D01*
X126732452Y-73914000D01*
X124732115Y-73914000D01*
X124716876Y-73918475D01*
X124715671Y-73919865D01*
X124714000Y-73927548D01*
X124714000Y-74999884D01*
X124206000Y-74999884D01*
X124206000Y-73932115D01*
X124201525Y-73916876D01*
X124200135Y-73915671D01*
X124192452Y-73914000D01*
X123120116Y-73914000D01*
X123104877Y-73918475D01*
X123103672Y-73919865D01*
X123102001Y-73927548D01*
X123102001Y-74554669D01*
X116402347Y-74554669D01*
X116309040Y-74393056D01*
X116219400Y-74293500D01*
X116185675Y-74256045D01*
X116185674Y-74256044D01*
X116181253Y-74251134D01*
X116026752Y-74138882D01*
X116020724Y-74136198D01*
X116020722Y-74136197D01*
X115858319Y-74063891D01*
X115858318Y-74063891D01*
X115852288Y-74061206D01*
X115758887Y-74041353D01*
X115671944Y-74022872D01*
X115671939Y-74022872D01*
X115665487Y-74021500D01*
X115474513Y-74021500D01*
X115468061Y-74022872D01*
X115468056Y-74022872D01*
X115326284Y-74053007D01*
X115255493Y-74047605D01*
X115198861Y-74004788D01*
X115174367Y-73938150D01*
X115180254Y-73890824D01*
X115191502Y-73856206D01*
X115193542Y-73849928D01*
X115213504Y-73660000D01*
X115193542Y-73470072D01*
X115134527Y-73288444D01*
X115039040Y-73123056D01*
X114949400Y-73023500D01*
X114915675Y-72986045D01*
X114915674Y-72986044D01*
X114911253Y-72981134D01*
X114756752Y-72868882D01*
X114750724Y-72866198D01*
X114750722Y-72866197D01*
X114588319Y-72793891D01*
X114588318Y-72793891D01*
X114582288Y-72791206D01*
X114469721Y-72767279D01*
X114401944Y-72752872D01*
X114401939Y-72752872D01*
X114395487Y-72751500D01*
X114204513Y-72751500D01*
X114198061Y-72752872D01*
X114198056Y-72752872D01*
X114130279Y-72767279D01*
X114017712Y-72791206D01*
X114011682Y-72793891D01*
X114011681Y-72793891D01*
X113849278Y-72866197D01*
X113849276Y-72866198D01*
X113843248Y-72868882D01*
X113688747Y-72981134D01*
X113684332Y-72986037D01*
X113679420Y-72990460D01*
X113678295Y-72989211D01*
X113624986Y-73022051D01*
X113591800Y-73026500D01*
X97419800Y-73026500D01*
X97351679Y-73006498D01*
X97305186Y-72952842D01*
X97295082Y-72882568D01*
X97310681Y-72837500D01*
X97351223Y-72767279D01*
X97351224Y-72767278D01*
X97354527Y-72761556D01*
X97413542Y-72579928D01*
X97418977Y-72528222D01*
X97432814Y-72396565D01*
X97433504Y-72390000D01*
X97425777Y-72316480D01*
X97414232Y-72206635D01*
X97414232Y-72206633D01*
X97413542Y-72200072D01*
X97354527Y-72018444D01*
X97354273Y-72018003D01*
X97345142Y-71949877D01*
X97375250Y-71885581D01*
X97435341Y-71847770D01*
X97469682Y-71843000D01*
X103431800Y-71843000D01*
X103499921Y-71863002D01*
X103519147Y-71879343D01*
X103519420Y-71879040D01*
X103524332Y-71883463D01*
X103528747Y-71888366D01*
X103683248Y-72000618D01*
X103689276Y-72003302D01*
X103689278Y-72003303D01*
X103727331Y-72020245D01*
X103857712Y-72078294D01*
X103946864Y-72097244D01*
X104038056Y-72116628D01*
X104038061Y-72116628D01*
X104044513Y-72118000D01*
X104235487Y-72118000D01*
X104241939Y-72116628D01*
X104241944Y-72116628D01*
X104333136Y-72097244D01*
X104422288Y-72078294D01*
X104552669Y-72020245D01*
X104590722Y-72003303D01*
X104590724Y-72003302D01*
X104596752Y-72000618D01*
X104751253Y-71888366D01*
X104783046Y-71853056D01*
X104874621Y-71751352D01*
X104874622Y-71751351D01*
X104879040Y-71746444D01*
X104959156Y-71607680D01*
X104971223Y-71586779D01*
X104971224Y-71586778D01*
X104974527Y-71581056D01*
X105033542Y-71399428D01*
X105038338Y-71353794D01*
X105051210Y-71231329D01*
X105078223Y-71165673D01*
X105136445Y-71125043D01*
X105176520Y-71118500D01*
X112321800Y-71118500D01*
X112389921Y-71138502D01*
X112409147Y-71154843D01*
X112409420Y-71154540D01*
X112414332Y-71158963D01*
X112418747Y-71163866D01*
X112440329Y-71179546D01*
X112481557Y-71209500D01*
X112573248Y-71276118D01*
X112579276Y-71278802D01*
X112579278Y-71278803D01*
X112648708Y-71309715D01*
X112747712Y-71353794D01*
X112841112Y-71373647D01*
X112928056Y-71392128D01*
X112928061Y-71392128D01*
X112934513Y-71393500D01*
X113125487Y-71393500D01*
X113131939Y-71392128D01*
X113131944Y-71392128D01*
X113218888Y-71373647D01*
X113312288Y-71353794D01*
X113411292Y-71309715D01*
X113480722Y-71278803D01*
X113480724Y-71278802D01*
X113486752Y-71276118D01*
X113641253Y-71163866D01*
X113769040Y-71021944D01*
X113827314Y-70921010D01*
X113861223Y-70862279D01*
X113861224Y-70862278D01*
X113864527Y-70856556D01*
X113923542Y-70674928D01*
X113925711Y-70654297D01*
X113942814Y-70491565D01*
X113943504Y-70485000D01*
X113923542Y-70295072D01*
X113864527Y-70113444D01*
X113769040Y-69948056D01*
X113736003Y-69911364D01*
X113645675Y-69811045D01*
X113645674Y-69811044D01*
X113641253Y-69806134D01*
X113542157Y-69734136D01*
X113492094Y-69697763D01*
X113492093Y-69697762D01*
X113486752Y-69693882D01*
X113480724Y-69691198D01*
X113480722Y-69691197D01*
X113318319Y-69618891D01*
X113318318Y-69618891D01*
X113312288Y-69616206D01*
X113218888Y-69596353D01*
X113131944Y-69577872D01*
X113131939Y-69577872D01*
X113125487Y-69576500D01*
X112934513Y-69576500D01*
X112928061Y-69577872D01*
X112928056Y-69577872D01*
X112841112Y-69596353D01*
X112747712Y-69616206D01*
X112741682Y-69618891D01*
X112741681Y-69618891D01*
X112579278Y-69691197D01*
X112579276Y-69691198D01*
X112573248Y-69693882D01*
X112567907Y-69697762D01*
X112567906Y-69697763D01*
X112510493Y-69739476D01*
X112418747Y-69806134D01*
X112414332Y-69811037D01*
X112409420Y-69815460D01*
X112408295Y-69814211D01*
X112354986Y-69847051D01*
X112321800Y-69851500D01*
X89608200Y-69851500D01*
X89540079Y-69831498D01*
X89520853Y-69815157D01*
X89520580Y-69815460D01*
X89515668Y-69811037D01*
X89511253Y-69806134D01*
X89419507Y-69739476D01*
X89362094Y-69697763D01*
X89362093Y-69697762D01*
X89356752Y-69693882D01*
X89350724Y-69691198D01*
X89350722Y-69691197D01*
X89188319Y-69618891D01*
X89188318Y-69618891D01*
X89182288Y-69616206D01*
X89088888Y-69596353D01*
X89001944Y-69577872D01*
X89001939Y-69577872D01*
X88995487Y-69576500D01*
X88804513Y-69576500D01*
X88798061Y-69577872D01*
X88798056Y-69577872D01*
X88711112Y-69596353D01*
X88617712Y-69616206D01*
X88611682Y-69618891D01*
X88611681Y-69618891D01*
X88449278Y-69691197D01*
X88449276Y-69691198D01*
X88443248Y-69693882D01*
X88437907Y-69697762D01*
X88437906Y-69697763D01*
X88387843Y-69734136D01*
X88288747Y-69806134D01*
X88284326Y-69811044D01*
X88284325Y-69811045D01*
X88193998Y-69911364D01*
X88160960Y-69948056D01*
X88065473Y-70113444D01*
X88006458Y-70295072D01*
X87986496Y-70485000D01*
X87987186Y-70491565D01*
X88004290Y-70654297D01*
X88006458Y-70674928D01*
X88065473Y-70856556D01*
X88068776Y-70862278D01*
X88068777Y-70862279D01*
X88102686Y-70921010D01*
X88160960Y-71021944D01*
X88288747Y-71163866D01*
X88443248Y-71276118D01*
X88449276Y-71278802D01*
X88449278Y-71278803D01*
X88518708Y-71309715D01*
X88617712Y-71353794D01*
X88711112Y-71373647D01*
X88798056Y-71392128D01*
X88798061Y-71392128D01*
X88804513Y-71393500D01*
X88995487Y-71393500D01*
X89001939Y-71392128D01*
X89001944Y-71392128D01*
X89088888Y-71373647D01*
X89182288Y-71353794D01*
X89281292Y-71309715D01*
X89350722Y-71278803D01*
X89350724Y-71278802D01*
X89356752Y-71276118D01*
X89448444Y-71209500D01*
X89489671Y-71179546D01*
X89511253Y-71163866D01*
X89515668Y-71158963D01*
X89520580Y-71154540D01*
X89521705Y-71155789D01*
X89575014Y-71122949D01*
X89608200Y-71118500D01*
X90403480Y-71118500D01*
X90471601Y-71138502D01*
X90518094Y-71192158D01*
X90528790Y-71231329D01*
X90541662Y-71353794D01*
X90546458Y-71399428D01*
X90605473Y-71581056D01*
X90605727Y-71581497D01*
X90614858Y-71649623D01*
X90584750Y-71713919D01*
X90524659Y-71751730D01*
X90490318Y-71756500D01*
X79448200Y-71756500D01*
X79380079Y-71736498D01*
X79360853Y-71720157D01*
X79360580Y-71720460D01*
X79355668Y-71716037D01*
X79351253Y-71711134D01*
X79228311Y-71621811D01*
X79202094Y-71602763D01*
X79202093Y-71602762D01*
X79196752Y-71598882D01*
X79190724Y-71596198D01*
X79190722Y-71596197D01*
X79028319Y-71523891D01*
X79028318Y-71523891D01*
X79022288Y-71521206D01*
X78928887Y-71501353D01*
X78841944Y-71482872D01*
X78841939Y-71482872D01*
X78835487Y-71481500D01*
X78644513Y-71481500D01*
X78638061Y-71482872D01*
X78638056Y-71482872D01*
X78551113Y-71501353D01*
X78457712Y-71521206D01*
X78451682Y-71523891D01*
X78451681Y-71523891D01*
X78289278Y-71596197D01*
X78289276Y-71596198D01*
X78283248Y-71598882D01*
X78277907Y-71602762D01*
X78277906Y-71602763D01*
X78251689Y-71621811D01*
X78128747Y-71711134D01*
X78124326Y-71716044D01*
X78124325Y-71716045D01*
X78005720Y-71847770D01*
X78000960Y-71853056D01*
X77997659Y-71858774D01*
X77918006Y-71996737D01*
X77905473Y-72018444D01*
X77846458Y-72200072D01*
X77845768Y-72206633D01*
X77845768Y-72206635D01*
X77834223Y-72316480D01*
X77826496Y-72390000D01*
X77827186Y-72396565D01*
X77841024Y-72528222D01*
X77846458Y-72579928D01*
X77905473Y-72761556D01*
X77908776Y-72767278D01*
X77908777Y-72767279D01*
X77949319Y-72837500D01*
X77966057Y-72906496D01*
X77942836Y-72973587D01*
X77887029Y-73017474D01*
X77840200Y-73026500D01*
X74368200Y-73026500D01*
X74300079Y-73006498D01*
X74280853Y-72990157D01*
X74280580Y-72990460D01*
X74275668Y-72986037D01*
X74271253Y-72981134D01*
X74116752Y-72868882D01*
X74110724Y-72866198D01*
X74110722Y-72866197D01*
X73948319Y-72793891D01*
X73948318Y-72793891D01*
X73942288Y-72791206D01*
X73829721Y-72767279D01*
X73761944Y-72752872D01*
X73761939Y-72752872D01*
X73755487Y-72751500D01*
X73564513Y-72751500D01*
X73558061Y-72752872D01*
X73558056Y-72752872D01*
X73490279Y-72767279D01*
X73377712Y-72791206D01*
X73371682Y-72793891D01*
X73371681Y-72793891D01*
X73209278Y-72866197D01*
X73209276Y-72866198D01*
X73203248Y-72868882D01*
X73048747Y-72981134D01*
X73044326Y-72986044D01*
X73044325Y-72986045D01*
X73010601Y-73023500D01*
X72920960Y-73123056D01*
X72825473Y-73288444D01*
X72766458Y-73470072D01*
X72746496Y-73660000D01*
X72766458Y-73849928D01*
X72768498Y-73856206D01*
X72779746Y-73890824D01*
X72781774Y-73961791D01*
X72745111Y-74022589D01*
X72681399Y-74053915D01*
X72633716Y-74053007D01*
X72491944Y-74022872D01*
X72491939Y-74022872D01*
X72485487Y-74021500D01*
X72294513Y-74021500D01*
X72288061Y-74022872D01*
X72288056Y-74022872D01*
X72201113Y-74041353D01*
X72107712Y-74061206D01*
X72101682Y-74063891D01*
X72101681Y-74063891D01*
X71939278Y-74136197D01*
X71939276Y-74136198D01*
X71933248Y-74138882D01*
X71778747Y-74251134D01*
X71774326Y-74256044D01*
X71774325Y-74256045D01*
X71740601Y-74293500D01*
X71650960Y-74393056D01*
X71555473Y-74558444D01*
X71496458Y-74740072D01*
X71476496Y-74930000D01*
X71496458Y-75119928D01*
X71498498Y-75126206D01*
X71509746Y-75160824D01*
X71511774Y-75231791D01*
X71475111Y-75292589D01*
X71411399Y-75323915D01*
X71363716Y-75323007D01*
X71221944Y-75292872D01*
X71221939Y-75292872D01*
X71215487Y-75291500D01*
X71024513Y-75291500D01*
X71018061Y-75292872D01*
X71018056Y-75292872D01*
X70931113Y-75311353D01*
X70837712Y-75331206D01*
X70831682Y-75333891D01*
X70831681Y-75333891D01*
X70669278Y-75406197D01*
X70669276Y-75406198D01*
X70663248Y-75408882D01*
X70508747Y-75521134D01*
X70504326Y-75526044D01*
X70504325Y-75526045D01*
X70470601Y-75563500D01*
X70380960Y-75663056D01*
X70285473Y-75828444D01*
X70226458Y-76010072D01*
X70206496Y-76200000D01*
X70226458Y-76389928D01*
X70228498Y-76396206D01*
X70239746Y-76430824D01*
X70241774Y-76501791D01*
X70205111Y-76562589D01*
X70141399Y-76593915D01*
X70093716Y-76593007D01*
X69951944Y-76562872D01*
X69951939Y-76562872D01*
X69945487Y-76561500D01*
X69754513Y-76561500D01*
X69748061Y-76562872D01*
X69748056Y-76562872D01*
X69661113Y-76581353D01*
X69567712Y-76601206D01*
X69561682Y-76603891D01*
X69561681Y-76603891D01*
X69399278Y-76676197D01*
X69399276Y-76676198D01*
X69393248Y-76678882D01*
X69238747Y-76791134D01*
X69234326Y-76796044D01*
X69234325Y-76796045D01*
X69200601Y-76833500D01*
X69110960Y-76933056D01*
X69015473Y-77098444D01*
X68956458Y-77280072D01*
X68936496Y-77470000D01*
X68956458Y-77659928D01*
X68958498Y-77666206D01*
X68969746Y-77700824D01*
X68971774Y-77771791D01*
X68935111Y-77832589D01*
X68871399Y-77863915D01*
X68823716Y-77863007D01*
X68681944Y-77832872D01*
X68681939Y-77832872D01*
X68675487Y-77831500D01*
X68484513Y-77831500D01*
X68478061Y-77832872D01*
X68478056Y-77832872D01*
X68391112Y-77851353D01*
X68297712Y-77871206D01*
X68291682Y-77873891D01*
X68291681Y-77873891D01*
X68129278Y-77946197D01*
X68129276Y-77946198D01*
X68123248Y-77948882D01*
X67968747Y-78061134D01*
X67964326Y-78066044D01*
X67964325Y-78066045D01*
X67930601Y-78103500D01*
X67840960Y-78203056D01*
X67745473Y-78368444D01*
X67686458Y-78550072D01*
X67666496Y-78740000D01*
X67686458Y-78929928D01*
X67688498Y-78936206D01*
X67699746Y-78970824D01*
X67701774Y-79041791D01*
X67665111Y-79102589D01*
X67601399Y-79133915D01*
X67553716Y-79133007D01*
X67411944Y-79102872D01*
X67411939Y-79102872D01*
X67405487Y-79101500D01*
X67214513Y-79101500D01*
X67208061Y-79102872D01*
X67208056Y-79102872D01*
X67121113Y-79121353D01*
X67027712Y-79141206D01*
X67021682Y-79143891D01*
X67021681Y-79143891D01*
X66859278Y-79216197D01*
X66859276Y-79216198D01*
X66853248Y-79218882D01*
X66698747Y-79331134D01*
X66694326Y-79336044D01*
X66694325Y-79336045D01*
X66660601Y-79373500D01*
X66570960Y-79473056D01*
X66475473Y-79638444D01*
X66416458Y-79820072D01*
X66396496Y-80010000D01*
X66416458Y-80199928D01*
X66418498Y-80206206D01*
X66429746Y-80240824D01*
X66431774Y-80311791D01*
X66395111Y-80372589D01*
X66331399Y-80403915D01*
X66283716Y-80403007D01*
X66141944Y-80372872D01*
X66141939Y-80372872D01*
X66135487Y-80371500D01*
X65944513Y-80371500D01*
X65938061Y-80372872D01*
X65938056Y-80372872D01*
X65851112Y-80391353D01*
X65757712Y-80411206D01*
X65751682Y-80413891D01*
X65751681Y-80413891D01*
X65589278Y-80486197D01*
X65589276Y-80486198D01*
X65583248Y-80488882D01*
X65428747Y-80601134D01*
X65424326Y-80606044D01*
X65424325Y-80606045D01*
X65390601Y-80643500D01*
X65300960Y-80743056D01*
X65205473Y-80908444D01*
X65146458Y-81090072D01*
X65126496Y-81280000D01*
X65146458Y-81469928D01*
X65148498Y-81476206D01*
X65159746Y-81510824D01*
X65161774Y-81581791D01*
X65125111Y-81642589D01*
X65061399Y-81673915D01*
X65013716Y-81673007D01*
X64871944Y-81642872D01*
X64871939Y-81642872D01*
X64865487Y-81641500D01*
X64674513Y-81641500D01*
X64668061Y-81642872D01*
X64668056Y-81642872D01*
X64581112Y-81661353D01*
X64487712Y-81681206D01*
X64481682Y-81683891D01*
X64481681Y-81683891D01*
X64319278Y-81756197D01*
X64319276Y-81756198D01*
X64313248Y-81758882D01*
X64158747Y-81871134D01*
X64154326Y-81876044D01*
X64154325Y-81876045D01*
X64120601Y-81913500D01*
X64030960Y-82013056D01*
X63935473Y-82178444D01*
X63876458Y-82360072D01*
X63875769Y-82366631D01*
X63875768Y-82366634D01*
X63875437Y-82369787D01*
X63874736Y-82371490D01*
X63874394Y-82373100D01*
X63874100Y-82373037D01*
X63848423Y-82435444D01*
X63790201Y-82476073D01*
X63728032Y-82480662D01*
X63628284Y-82462894D01*
X63554452Y-82461992D01*
X63410081Y-82460228D01*
X63410079Y-82460228D01*
X63404911Y-82460165D01*
X63184091Y-82493955D01*
X62971756Y-82563357D01*
X62773607Y-82666507D01*
X62769474Y-82669610D01*
X62769471Y-82669612D01*
X62745247Y-82687800D01*
X62594965Y-82800635D01*
X62440629Y-82962138D01*
X62333201Y-83119621D01*
X62278293Y-83164621D01*
X62207768Y-83172792D01*
X62144021Y-83141538D01*
X62123324Y-83117054D01*
X62042822Y-82992617D01*
X62042820Y-82992614D01*
X62040014Y-82988277D01*
X61889670Y-82823051D01*
X61885619Y-82819852D01*
X61885615Y-82819848D01*
X61718414Y-82687800D01*
X61718410Y-82687798D01*
X61714359Y-82684598D01*
X61518789Y-82576638D01*
X61513920Y-82574914D01*
X61513916Y-82574912D01*
X61313087Y-82503795D01*
X61313083Y-82503794D01*
X61308212Y-82502069D01*
X61303119Y-82501162D01*
X61303116Y-82501161D01*
X61093373Y-82463800D01*
X61093367Y-82463799D01*
X61088284Y-82462894D01*
X61014452Y-82461992D01*
X60870081Y-82460228D01*
X60870079Y-82460228D01*
X60864911Y-82460165D01*
X60644091Y-82493955D01*
X60431756Y-82563357D01*
X60233607Y-82666507D01*
X60229474Y-82669610D01*
X60229471Y-82669612D01*
X60205247Y-82687800D01*
X60054965Y-82800635D01*
X59900629Y-82962138D01*
X59774743Y-83146680D01*
X59680688Y-83349305D01*
X59620989Y-83564570D01*
X59597251Y-83786695D01*
X59597548Y-83791848D01*
X59597548Y-83791851D01*
X59603011Y-83886590D01*
X59610110Y-84009715D01*
X59611247Y-84014761D01*
X59611248Y-84014767D01*
X59631119Y-84102939D01*
X59659222Y-84227639D01*
X59743266Y-84434616D01*
X59859987Y-84625088D01*
X60006250Y-84793938D01*
X60178126Y-84936632D01*
X60248595Y-84977811D01*
X60251445Y-84979476D01*
X60300169Y-85031114D01*
X60313240Y-85100897D01*
X60286509Y-85166669D01*
X60246055Y-85200027D01*
X60233607Y-85206507D01*
X60229474Y-85209610D01*
X60229471Y-85209612D01*
X60205247Y-85227800D01*
X60054965Y-85340635D01*
X59900629Y-85502138D01*
X59774743Y-85686680D01*
X59680688Y-85889305D01*
X59620989Y-86104570D01*
X59597251Y-86326695D01*
X59597548Y-86331848D01*
X59597548Y-86331851D01*
X59603011Y-86426590D01*
X59610110Y-86549715D01*
X59611247Y-86554761D01*
X59611248Y-86554767D01*
X59631119Y-86642939D01*
X59659222Y-86767639D01*
X59743266Y-86974616D01*
X59859987Y-87165088D01*
X60006250Y-87333938D01*
X60178126Y-87476632D01*
X60248595Y-87517811D01*
X60251445Y-87519476D01*
X60300169Y-87571114D01*
X60313240Y-87640897D01*
X60286509Y-87706669D01*
X60246055Y-87740027D01*
X60233607Y-87746507D01*
X60229474Y-87749610D01*
X60229471Y-87749612D01*
X60205247Y-87767800D01*
X60054965Y-87880635D01*
X59900629Y-88042138D01*
X59774743Y-88226680D01*
X59680688Y-88429305D01*
X59620989Y-88644570D01*
X59597251Y-88866695D01*
X59597548Y-88871848D01*
X59597548Y-88871851D01*
X59603011Y-88966590D01*
X59610110Y-89089715D01*
X59611247Y-89094761D01*
X59611248Y-89094767D01*
X59631119Y-89182939D01*
X59659222Y-89307639D01*
X59743266Y-89514616D01*
X59859987Y-89705088D01*
X60006250Y-89873938D01*
X60178126Y-90016632D01*
X60248595Y-90057811D01*
X60251445Y-90059476D01*
X60300169Y-90111114D01*
X60313240Y-90180897D01*
X60286509Y-90246669D01*
X60246055Y-90280027D01*
X60233607Y-90286507D01*
X60229474Y-90289610D01*
X60229471Y-90289612D01*
X60205247Y-90307800D01*
X60054965Y-90420635D01*
X59900629Y-90582138D01*
X59774743Y-90766680D01*
X59680688Y-90969305D01*
X59620989Y-91184570D01*
X59597251Y-91406695D01*
X59597548Y-91411848D01*
X59597548Y-91411851D01*
X59603011Y-91506590D01*
X59610110Y-91629715D01*
X59611247Y-91634761D01*
X59611248Y-91634767D01*
X59631119Y-91722939D01*
X59659222Y-91847639D01*
X59743266Y-92054616D01*
X59859987Y-92245088D01*
X60006250Y-92413938D01*
X60178126Y-92556632D01*
X60248595Y-92597811D01*
X60251445Y-92599476D01*
X60300169Y-92651114D01*
X60313240Y-92720897D01*
X60286509Y-92786669D01*
X60246055Y-92820027D01*
X60233607Y-92826507D01*
X60229474Y-92829610D01*
X60229471Y-92829612D01*
X60205247Y-92847800D01*
X60054965Y-92960635D01*
X59900629Y-93122138D01*
X59774743Y-93306680D01*
X59759003Y-93340590D01*
X59713016Y-93439661D01*
X59680688Y-93509305D01*
X59620989Y-93724570D01*
X59597251Y-93946695D01*
X57658000Y-93946695D01*
X57658000Y-73927966D01*
X59628257Y-73927966D01*
X59658565Y-74062446D01*
X59661645Y-74072275D01*
X59741770Y-74269603D01*
X59746413Y-74278794D01*
X59857694Y-74460388D01*
X59863777Y-74468699D01*
X60003213Y-74629667D01*
X60010580Y-74636883D01*
X60174434Y-74772916D01*
X60182881Y-74778831D01*
X60366756Y-74886279D01*
X60376042Y-74890729D01*
X60575001Y-74966703D01*
X60584899Y-74969579D01*
X60688250Y-74990606D01*
X60702299Y-74989410D01*
X60706000Y-74979065D01*
X60706000Y-74978517D01*
X61214000Y-74978517D01*
X61218064Y-74992359D01*
X61231478Y-74994393D01*
X61238184Y-74993534D01*
X61248262Y-74991392D01*
X61452255Y-74930191D01*
X61461842Y-74926433D01*
X61653095Y-74832739D01*
X61661945Y-74827464D01*
X61835328Y-74703792D01*
X61843200Y-74697139D01*
X61948286Y-74592418D01*
X62010657Y-74558501D01*
X62081464Y-74563689D01*
X62138226Y-74606335D01*
X62155208Y-74637439D01*
X62196675Y-74748052D01*
X62205214Y-74763649D01*
X62281715Y-74865724D01*
X62294276Y-74878285D01*
X62396351Y-74954786D01*
X62411946Y-74963324D01*
X62532394Y-75008478D01*
X62547649Y-75012105D01*
X62598514Y-75017631D01*
X62605328Y-75018000D01*
X63227885Y-75018000D01*
X63243124Y-75013525D01*
X63244329Y-75012135D01*
X63246000Y-75004452D01*
X63246000Y-74999884D01*
X63754000Y-74999884D01*
X63758475Y-75015123D01*
X63759865Y-75016328D01*
X63767548Y-75017999D01*
X64394669Y-75017999D01*
X64401490Y-75017629D01*
X64452352Y-75012105D01*
X64467604Y-75008479D01*
X64588054Y-74963324D01*
X64603649Y-74954786D01*
X64705724Y-74878285D01*
X64718285Y-74865724D01*
X64794786Y-74763649D01*
X64803324Y-74748054D01*
X64848478Y-74627606D01*
X64852105Y-74612351D01*
X64857631Y-74561486D01*
X64858000Y-74554672D01*
X64858000Y-73932115D01*
X64853525Y-73916876D01*
X64852135Y-73915671D01*
X64844452Y-73914000D01*
X63772115Y-73914000D01*
X63756876Y-73918475D01*
X63755671Y-73919865D01*
X63754000Y-73927548D01*
X63754000Y-74999884D01*
X63246000Y-74999884D01*
X63246000Y-73932115D01*
X63241525Y-73916876D01*
X63240135Y-73915671D01*
X63232452Y-73914000D01*
X61232115Y-73914000D01*
X61216876Y-73918475D01*
X61215671Y-73919865D01*
X61214000Y-73927548D01*
X61214000Y-74978517D01*
X60706000Y-74978517D01*
X60706000Y-73932115D01*
X60701525Y-73916876D01*
X60700135Y-73915671D01*
X60692452Y-73914000D01*
X59643225Y-73914000D01*
X59629694Y-73917973D01*
X59628257Y-73927966D01*
X57658000Y-73927966D01*
X57658000Y-71086695D01*
X59597251Y-71086695D01*
X59597548Y-71091848D01*
X59597548Y-71091851D01*
X59603011Y-71186590D01*
X59610110Y-71309715D01*
X59611247Y-71314761D01*
X59611248Y-71314767D01*
X59620353Y-71355166D01*
X59659222Y-71527639D01*
X59743266Y-71734616D01*
X59794019Y-71817438D01*
X59857291Y-71920688D01*
X59859987Y-71925088D01*
X60006250Y-72093938D01*
X60178126Y-72236632D01*
X60239860Y-72272706D01*
X60251955Y-72279774D01*
X60300679Y-72331412D01*
X60313750Y-72401195D01*
X60287019Y-72466967D01*
X60246562Y-72500327D01*
X60238457Y-72504546D01*
X60229738Y-72510036D01*
X60059433Y-72637905D01*
X60051726Y-72644748D01*
X59904590Y-72798717D01*
X59898104Y-72806727D01*
X59778098Y-72982649D01*
X59773000Y-72991623D01*
X59683338Y-73184783D01*
X59679775Y-73194470D01*
X59624389Y-73394183D01*
X59625912Y-73402607D01*
X59638292Y-73406000D01*
X64839884Y-73406000D01*
X64855123Y-73401525D01*
X64856328Y-73400135D01*
X64857999Y-73392452D01*
X64857999Y-72765331D01*
X64857629Y-72758510D01*
X64852105Y-72707648D01*
X64848479Y-72692396D01*
X64803324Y-72571946D01*
X64794786Y-72556351D01*
X64718285Y-72454276D01*
X64705724Y-72441715D01*
X64603649Y-72365214D01*
X64588054Y-72356676D01*
X64477813Y-72315348D01*
X64421049Y-72272706D01*
X64396349Y-72206145D01*
X64411557Y-72136796D01*
X64433104Y-72108115D01*
X64534430Y-72007144D01*
X64534440Y-72007132D01*
X64538096Y-72003489D01*
X64597594Y-71920689D01*
X64665435Y-71826277D01*
X64668453Y-71822077D01*
X64689320Y-71779857D01*
X64765136Y-71626453D01*
X64765137Y-71626451D01*
X64767430Y-71621811D01*
X64832370Y-71408069D01*
X64861529Y-71186590D01*
X64861611Y-71183240D01*
X64863074Y-71123365D01*
X64863074Y-71123361D01*
X64863156Y-71120000D01*
X64844852Y-70897361D01*
X64843593Y-70892348D01*
X64842748Y-70887243D01*
X64845006Y-70886869D01*
X64847435Y-70825521D01*
X64888151Y-70767360D01*
X64940635Y-70742527D01*
X65045831Y-70720167D01*
X65045836Y-70720166D01*
X65052288Y-70718794D01*
X65126574Y-70685720D01*
X65220722Y-70643803D01*
X65220724Y-70643802D01*
X65226752Y-70641118D01*
X65240120Y-70631406D01*
X65282157Y-70600864D01*
X65381253Y-70528866D01*
X65423227Y-70482249D01*
X65504621Y-70391852D01*
X65504622Y-70391851D01*
X65509040Y-70386944D01*
X65581097Y-70262138D01*
X65601223Y-70227279D01*
X65601224Y-70227278D01*
X65604527Y-70221556D01*
X65663542Y-70039928D01*
X65669620Y-69982104D01*
X65682814Y-69856565D01*
X65683504Y-69850000D01*
X65679842Y-69815157D01*
X65664232Y-69666635D01*
X65664232Y-69666633D01*
X65663542Y-69660072D01*
X65650254Y-69619176D01*
X65648226Y-69548209D01*
X65684889Y-69487411D01*
X65748601Y-69456085D01*
X65796284Y-69456993D01*
X65938056Y-69487128D01*
X65938061Y-69487128D01*
X65944513Y-69488500D01*
X66135487Y-69488500D01*
X66141939Y-69487128D01*
X66141944Y-69487128D01*
X66235991Y-69467137D01*
X66322288Y-69448794D01*
X66465375Y-69385088D01*
X66490722Y-69373803D01*
X66490724Y-69373802D01*
X66496752Y-69371118D01*
X66651253Y-69258866D01*
X66779040Y-69116944D01*
X66850931Y-68992425D01*
X66871223Y-68957279D01*
X66871224Y-68957278D01*
X66874527Y-68951556D01*
X66933542Y-68769928D01*
X66946157Y-68649908D01*
X66952814Y-68586565D01*
X66953504Y-68580000D01*
X66933542Y-68390072D01*
X66920254Y-68349176D01*
X66918226Y-68278209D01*
X66954889Y-68217411D01*
X67018601Y-68186085D01*
X67066284Y-68186993D01*
X67208056Y-68217128D01*
X67208061Y-68217128D01*
X67214513Y-68218500D01*
X67405487Y-68218500D01*
X67411939Y-68217128D01*
X67411944Y-68217128D01*
X67498888Y-68198647D01*
X67592288Y-68178794D01*
X67666574Y-68145720D01*
X67760722Y-68103803D01*
X67760724Y-68103802D01*
X67766752Y-68101118D01*
X67780120Y-68091406D01*
X67836836Y-68050199D01*
X67921253Y-67988866D01*
X67957851Y-67948220D01*
X68044621Y-67851852D01*
X68044622Y-67851851D01*
X68049040Y-67846944D01*
X68121097Y-67722138D01*
X68141223Y-67687279D01*
X68141224Y-67687278D01*
X68144527Y-67681556D01*
X68203542Y-67499928D01*
X68209620Y-67442104D01*
X68222814Y-67316565D01*
X68223504Y-67310000D01*
X68203542Y-67120072D01*
X68190254Y-67079176D01*
X68188226Y-67008209D01*
X68224889Y-66947411D01*
X68288601Y-66916085D01*
X68336284Y-66916993D01*
X68478056Y-66947128D01*
X68478061Y-66947128D01*
X68484513Y-66948500D01*
X68675487Y-66948500D01*
X68681939Y-66947128D01*
X68681944Y-66947128D01*
X68775991Y-66927137D01*
X68862288Y-66908794D01*
X69005375Y-66845088D01*
X69030722Y-66833803D01*
X69030724Y-66833802D01*
X69036752Y-66831118D01*
X69191253Y-66718866D01*
X69195675Y-66713955D01*
X69314621Y-66581852D01*
X69314622Y-66581851D01*
X69319040Y-66576944D01*
X69390931Y-66452425D01*
X69411223Y-66417279D01*
X69411224Y-66417278D01*
X69414527Y-66411556D01*
X69473542Y-66229928D01*
X69486157Y-66109908D01*
X69492814Y-66046565D01*
X69493504Y-66040000D01*
X69473542Y-65850072D01*
X69460254Y-65809176D01*
X69458226Y-65738209D01*
X69494889Y-65677411D01*
X69558601Y-65646085D01*
X69606284Y-65646993D01*
X69748056Y-65677128D01*
X69748061Y-65677128D01*
X69754513Y-65678500D01*
X69945487Y-65678500D01*
X69951939Y-65677128D01*
X69951944Y-65677128D01*
X70038888Y-65658647D01*
X70132288Y-65638794D01*
X70206574Y-65605720D01*
X70300722Y-65563803D01*
X70300724Y-65563802D01*
X70306752Y-65561118D01*
X70320120Y-65551406D01*
X70376836Y-65510199D01*
X70461253Y-65448866D01*
X70497851Y-65408220D01*
X70584621Y-65311852D01*
X70584622Y-65311851D01*
X70589040Y-65306944D01*
X70661097Y-65182138D01*
X70681223Y-65147279D01*
X70681224Y-65147278D01*
X70684527Y-65141556D01*
X70743542Y-64959928D01*
X70749620Y-64902104D01*
X70762814Y-64776565D01*
X70763504Y-64770000D01*
X70743542Y-64580072D01*
X70730254Y-64539176D01*
X70728226Y-64468209D01*
X70764889Y-64407411D01*
X70828601Y-64376085D01*
X70876284Y-64376993D01*
X71018056Y-64407128D01*
X71018061Y-64407128D01*
X71024513Y-64408500D01*
X71215487Y-64408500D01*
X71221939Y-64407128D01*
X71221944Y-64407128D01*
X71315991Y-64387137D01*
X71402288Y-64368794D01*
X71545375Y-64305088D01*
X71570722Y-64293803D01*
X71570724Y-64293802D01*
X71576752Y-64291118D01*
X71731253Y-64178866D01*
X71735675Y-64173955D01*
X71854621Y-64041852D01*
X71854622Y-64041851D01*
X71859040Y-64036944D01*
X71930931Y-63912425D01*
X71951223Y-63877279D01*
X71951224Y-63877278D01*
X71954527Y-63871556D01*
X72013542Y-63689928D01*
X72023861Y-63591753D01*
X72032814Y-63506565D01*
X72033504Y-63500000D01*
X72017037Y-63343327D01*
X72014232Y-63316635D01*
X72014232Y-63316633D01*
X72013542Y-63310072D01*
X72000254Y-63269176D01*
X71998226Y-63198209D01*
X72034889Y-63137411D01*
X72098601Y-63106085D01*
X72146284Y-63106993D01*
X72288056Y-63137128D01*
X72288061Y-63137128D01*
X72294513Y-63138500D01*
X72485487Y-63138500D01*
X72491939Y-63137128D01*
X72491944Y-63137128D01*
X72585991Y-63117137D01*
X72672288Y-63098794D01*
X72746574Y-63065720D01*
X72840722Y-63023803D01*
X72840724Y-63023802D01*
X72846752Y-63021118D01*
X72860120Y-63011406D01*
X72963525Y-62936277D01*
X73001253Y-62908866D01*
X73005675Y-62903955D01*
X73124621Y-62771852D01*
X73124622Y-62771851D01*
X73129040Y-62766944D01*
X73201097Y-62642138D01*
X73221223Y-62607279D01*
X73221224Y-62607278D01*
X73224527Y-62601556D01*
X73283542Y-62419928D01*
X73289620Y-62362104D01*
X73302814Y-62236565D01*
X73303504Y-62230000D01*
X73283542Y-62040072D01*
X73270254Y-61999176D01*
X73268226Y-61928209D01*
X73304889Y-61867411D01*
X73368601Y-61836085D01*
X73416284Y-61836993D01*
X73558056Y-61867128D01*
X73558061Y-61867128D01*
X73564513Y-61868500D01*
X73755487Y-61868500D01*
X73761939Y-61867128D01*
X73761944Y-61867128D01*
X73862794Y-61845691D01*
X73942288Y-61828794D01*
X74016574Y-61795720D01*
X74110722Y-61753803D01*
X74110724Y-61753802D01*
X74116752Y-61751118D01*
X74122137Y-61747206D01*
X74245691Y-61657438D01*
X74271253Y-61638866D01*
X74275675Y-61633955D01*
X74394621Y-61501852D01*
X74394622Y-61501851D01*
X74399040Y-61496944D01*
X74471097Y-61372138D01*
X74491223Y-61337279D01*
X74491224Y-61337278D01*
X74494527Y-61331556D01*
X74553542Y-61149928D01*
X74554407Y-61141703D01*
X74572814Y-60966565D01*
X74573504Y-60960000D01*
X74553542Y-60770072D01*
X74494527Y-60588444D01*
X74399040Y-60423056D01*
X74371147Y-60392077D01*
X74275675Y-60286045D01*
X74275674Y-60286044D01*
X74271253Y-60281134D01*
X74148311Y-60191811D01*
X74122094Y-60172763D01*
X74122093Y-60172762D01*
X74116752Y-60168882D01*
X74110724Y-60166198D01*
X74110722Y-60166197D01*
X73948319Y-60093891D01*
X73948318Y-60093891D01*
X73942288Y-60091206D01*
X73848888Y-60071353D01*
X73761944Y-60052872D01*
X73761939Y-60052872D01*
X73755487Y-60051500D01*
X73564513Y-60051500D01*
X73558061Y-60052872D01*
X73558056Y-60052872D01*
X73471112Y-60071353D01*
X73377712Y-60091206D01*
X73371682Y-60093891D01*
X73371681Y-60093891D01*
X73209278Y-60166197D01*
X73209276Y-60166198D01*
X73203248Y-60168882D01*
X73197907Y-60172762D01*
X73197906Y-60172763D01*
X73171689Y-60191811D01*
X73048747Y-60281134D01*
X73044332Y-60286037D01*
X73039420Y-60290460D01*
X73038295Y-60289211D01*
X72984986Y-60322051D01*
X72951800Y-60326500D01*
X64776805Y-60326500D01*
X64708684Y-60306498D01*
X64671013Y-60268940D01*
X64582822Y-60132617D01*
X64582820Y-60132614D01*
X64580014Y-60128277D01*
X64429670Y-59963051D01*
X64425619Y-59959852D01*
X64425615Y-59959848D01*
X64258414Y-59827800D01*
X64258410Y-59827798D01*
X64254359Y-59824598D01*
X64058789Y-59716638D01*
X64053920Y-59714914D01*
X64053916Y-59714912D01*
X63889516Y-59656695D01*
X74837251Y-59656695D01*
X74837548Y-59661848D01*
X74837548Y-59661851D01*
X74843011Y-59756590D01*
X74850110Y-59879715D01*
X74851247Y-59884761D01*
X74851248Y-59884767D01*
X74871119Y-59972939D01*
X74899222Y-60097639D01*
X74937461Y-60191811D01*
X74972143Y-60277222D01*
X74983266Y-60304616D01*
X75034019Y-60387438D01*
X75097291Y-60490688D01*
X75099987Y-60495088D01*
X75246250Y-60663938D01*
X75250230Y-60667242D01*
X75254981Y-60671187D01*
X75294616Y-60730090D01*
X75296113Y-60801071D01*
X75258997Y-60861593D01*
X75218725Y-60886112D01*
X75130095Y-60919338D01*
X75103295Y-60929385D01*
X74986739Y-61016739D01*
X74899385Y-61133295D01*
X74848255Y-61269684D01*
X74841500Y-61331866D01*
X74841500Y-63128134D01*
X74848255Y-63190316D01*
X74899385Y-63326705D01*
X74986739Y-63443261D01*
X75103295Y-63530615D01*
X75239684Y-63581745D01*
X75301866Y-63588500D01*
X77098134Y-63588500D01*
X77160316Y-63581745D01*
X77296705Y-63530615D01*
X77413261Y-63443261D01*
X77500615Y-63326705D01*
X77509204Y-63303794D01*
X77544598Y-63209382D01*
X77587240Y-63152618D01*
X77653802Y-63127918D01*
X77723150Y-63143126D01*
X77757817Y-63171114D01*
X77786250Y-63203938D01*
X77958126Y-63346632D01*
X78151000Y-63459338D01*
X78359692Y-63539030D01*
X78364760Y-63540061D01*
X78364763Y-63540062D01*
X78472017Y-63561883D01*
X78578597Y-63583567D01*
X78583772Y-63583757D01*
X78583774Y-63583757D01*
X78796673Y-63591564D01*
X78796677Y-63591564D01*
X78801837Y-63591753D01*
X78806957Y-63591097D01*
X78806959Y-63591097D01*
X79018288Y-63564025D01*
X79018289Y-63564025D01*
X79023416Y-63563368D01*
X79028366Y-63561883D01*
X79232429Y-63500661D01*
X79232434Y-63500659D01*
X79237384Y-63499174D01*
X79437994Y-63400896D01*
X79619860Y-63271173D01*
X79778096Y-63113489D01*
X79787670Y-63100166D01*
X79908453Y-62932077D01*
X79909774Y-62933026D01*
X79956663Y-62889849D01*
X80026600Y-62877628D01*
X80092042Y-62905158D01*
X80119874Y-62936995D01*
X80177285Y-63030680D01*
X80177290Y-63030687D01*
X80179987Y-63035088D01*
X80326250Y-63203938D01*
X80498126Y-63346632D01*
X80691000Y-63459338D01*
X80899692Y-63539030D01*
X80904760Y-63540061D01*
X80904763Y-63540062D01*
X81012017Y-63561883D01*
X81118597Y-63583567D01*
X81123772Y-63583757D01*
X81123774Y-63583757D01*
X81336673Y-63591564D01*
X81336677Y-63591564D01*
X81341837Y-63591753D01*
X81346957Y-63591097D01*
X81346959Y-63591097D01*
X81558288Y-63564025D01*
X81558289Y-63564025D01*
X81563416Y-63563368D01*
X81568366Y-63561883D01*
X81772429Y-63500661D01*
X81772434Y-63500659D01*
X81777384Y-63499174D01*
X81977994Y-63400896D01*
X82159860Y-63271173D01*
X82318096Y-63113489D01*
X82327670Y-63100166D01*
X82445435Y-62936277D01*
X82448453Y-62932077D01*
X82458006Y-62912749D01*
X82545136Y-62736453D01*
X82545137Y-62736451D01*
X82547430Y-62731811D01*
X82612370Y-62518069D01*
X82641529Y-62296590D01*
X82643156Y-62230000D01*
X82624852Y-62007361D01*
X82570431Y-61790702D01*
X82481354Y-61585840D01*
X82423845Y-61496944D01*
X82362822Y-61402617D01*
X82362820Y-61402614D01*
X82360014Y-61398277D01*
X82209670Y-61233051D01*
X82205619Y-61229852D01*
X82205615Y-61229848D01*
X82038414Y-61097800D01*
X82038410Y-61097798D01*
X82034359Y-61094598D01*
X81993053Y-61071796D01*
X81943084Y-61021364D01*
X81928312Y-60951921D01*
X81953428Y-60885516D01*
X81980780Y-60858909D01*
X82024603Y-60827650D01*
X82159860Y-60731173D01*
X82318096Y-60573489D01*
X82377594Y-60490689D01*
X82445435Y-60396277D01*
X82448453Y-60392077D01*
X82469320Y-60349857D01*
X82545136Y-60196453D01*
X82545137Y-60196451D01*
X82547430Y-60191811D01*
X82612370Y-59978069D01*
X82641529Y-59756590D01*
X82642505Y-59716638D01*
X82643074Y-59693365D01*
X82643074Y-59693361D01*
X82643156Y-59690000D01*
X82640418Y-59656695D01*
X88807251Y-59656695D01*
X88807548Y-59661848D01*
X88807548Y-59661851D01*
X88813011Y-59756590D01*
X88820110Y-59879715D01*
X88821247Y-59884761D01*
X88821248Y-59884767D01*
X88841119Y-59972939D01*
X88869222Y-60097639D01*
X88907461Y-60191811D01*
X88942143Y-60277222D01*
X88953266Y-60304616D01*
X89004019Y-60387438D01*
X89067291Y-60490688D01*
X89069987Y-60495088D01*
X89216250Y-60663938D01*
X89220230Y-60667242D01*
X89224981Y-60671187D01*
X89264616Y-60730090D01*
X89266113Y-60801071D01*
X89228997Y-60861593D01*
X89188725Y-60886112D01*
X89100095Y-60919338D01*
X89073295Y-60929385D01*
X88956739Y-61016739D01*
X88869385Y-61133295D01*
X88818255Y-61269684D01*
X88811500Y-61331866D01*
X88811500Y-63128134D01*
X88818255Y-63190316D01*
X88869385Y-63326705D01*
X88956739Y-63443261D01*
X89073295Y-63530615D01*
X89209684Y-63581745D01*
X89271866Y-63588500D01*
X91068134Y-63588500D01*
X91130316Y-63581745D01*
X91266705Y-63530615D01*
X91383261Y-63443261D01*
X91470615Y-63326705D01*
X91479204Y-63303794D01*
X91514598Y-63209382D01*
X91557240Y-63152618D01*
X91623802Y-63127918D01*
X91693150Y-63143126D01*
X91727817Y-63171114D01*
X91756250Y-63203938D01*
X91928126Y-63346632D01*
X92121000Y-63459338D01*
X92329692Y-63539030D01*
X92334760Y-63540061D01*
X92334763Y-63540062D01*
X92442017Y-63561883D01*
X92548597Y-63583567D01*
X92553772Y-63583757D01*
X92553774Y-63583757D01*
X92766673Y-63591564D01*
X92766677Y-63591564D01*
X92771837Y-63591753D01*
X92776957Y-63591097D01*
X92776959Y-63591097D01*
X92988288Y-63564025D01*
X92988289Y-63564025D01*
X92993416Y-63563368D01*
X92998366Y-63561883D01*
X93202429Y-63500661D01*
X93202434Y-63500659D01*
X93207384Y-63499174D01*
X93407994Y-63400896D01*
X93589860Y-63271173D01*
X93748096Y-63113489D01*
X93757670Y-63100166D01*
X93878453Y-62932077D01*
X93879774Y-62933026D01*
X93926663Y-62889849D01*
X93996600Y-62877628D01*
X94062042Y-62905158D01*
X94089874Y-62936995D01*
X94147285Y-63030680D01*
X94147290Y-63030687D01*
X94149987Y-63035088D01*
X94296250Y-63203938D01*
X94468126Y-63346632D01*
X94661000Y-63459338D01*
X94869692Y-63539030D01*
X94874760Y-63540061D01*
X94874763Y-63540062D01*
X94982017Y-63561883D01*
X95088597Y-63583567D01*
X95093772Y-63583757D01*
X95093774Y-63583757D01*
X95306673Y-63591564D01*
X95306677Y-63591564D01*
X95311837Y-63591753D01*
X95316957Y-63591097D01*
X95316959Y-63591097D01*
X95528288Y-63564025D01*
X95528289Y-63564025D01*
X95533416Y-63563368D01*
X95538366Y-63561883D01*
X95742429Y-63500661D01*
X95742434Y-63500659D01*
X95747384Y-63499174D01*
X95947994Y-63400896D01*
X96129860Y-63271173D01*
X96288096Y-63113489D01*
X96297670Y-63100166D01*
X96415435Y-62936277D01*
X96418453Y-62932077D01*
X96428006Y-62912749D01*
X96515136Y-62736453D01*
X96515137Y-62736451D01*
X96517430Y-62731811D01*
X96582370Y-62518069D01*
X96611529Y-62296590D01*
X96613156Y-62230000D01*
X96594852Y-62007361D01*
X96540431Y-61790702D01*
X96451354Y-61585840D01*
X96393845Y-61496944D01*
X96332822Y-61402617D01*
X96332820Y-61402614D01*
X96330014Y-61398277D01*
X96179670Y-61233051D01*
X96175619Y-61229852D01*
X96175615Y-61229848D01*
X96008414Y-61097800D01*
X96008410Y-61097798D01*
X96004359Y-61094598D01*
X95963053Y-61071796D01*
X95913084Y-61021364D01*
X95898312Y-60951921D01*
X95923428Y-60885516D01*
X95950780Y-60858909D01*
X95994603Y-60827650D01*
X96129860Y-60731173D01*
X96288096Y-60573489D01*
X96347594Y-60490689D01*
X96415435Y-60396277D01*
X96418453Y-60392077D01*
X96439320Y-60349857D01*
X96515136Y-60196453D01*
X96515137Y-60196451D01*
X96517430Y-60191811D01*
X96582370Y-59978069D01*
X96611529Y-59756590D01*
X96612505Y-59716638D01*
X96613074Y-59693365D01*
X96613074Y-59693361D01*
X96613156Y-59690000D01*
X96594852Y-59467361D01*
X96540431Y-59250702D01*
X96451354Y-59045840D01*
X96330014Y-58858277D01*
X96179670Y-58693051D01*
X96175619Y-58689852D01*
X96175615Y-58689848D01*
X96008414Y-58557800D01*
X96008410Y-58557798D01*
X96004359Y-58554598D01*
X95808789Y-58446638D01*
X95803920Y-58444914D01*
X95803916Y-58444912D01*
X95603087Y-58373795D01*
X95603083Y-58373794D01*
X95598212Y-58372069D01*
X95593119Y-58371162D01*
X95593116Y-58371161D01*
X95383373Y-58333800D01*
X95383367Y-58333799D01*
X95378284Y-58332894D01*
X95304452Y-58331992D01*
X95160081Y-58330228D01*
X95160079Y-58330228D01*
X95154911Y-58330165D01*
X94934091Y-58363955D01*
X94721756Y-58433357D01*
X94523607Y-58536507D01*
X94519474Y-58539610D01*
X94519471Y-58539612D01*
X94483380Y-58566710D01*
X94344965Y-58670635D01*
X94190629Y-58832138D01*
X94083201Y-58989621D01*
X94028293Y-59034621D01*
X93957768Y-59042792D01*
X93894021Y-59011538D01*
X93873324Y-58987054D01*
X93792822Y-58862617D01*
X93792820Y-58862614D01*
X93790014Y-58858277D01*
X93639670Y-58693051D01*
X93635619Y-58689852D01*
X93635615Y-58689848D01*
X93468414Y-58557800D01*
X93468410Y-58557798D01*
X93464359Y-58554598D01*
X93268789Y-58446638D01*
X93263920Y-58444914D01*
X93263916Y-58444912D01*
X93063087Y-58373795D01*
X93063083Y-58373794D01*
X93058212Y-58372069D01*
X93053119Y-58371162D01*
X93053116Y-58371161D01*
X92843373Y-58333800D01*
X92843367Y-58333799D01*
X92838284Y-58332894D01*
X92764452Y-58331992D01*
X92620081Y-58330228D01*
X92620079Y-58330228D01*
X92614911Y-58330165D01*
X92394091Y-58363955D01*
X92181756Y-58433357D01*
X91983607Y-58536507D01*
X91979474Y-58539610D01*
X91979471Y-58539612D01*
X91943380Y-58566710D01*
X91804965Y-58670635D01*
X91650629Y-58832138D01*
X91543201Y-58989621D01*
X91488293Y-59034621D01*
X91417768Y-59042792D01*
X91354021Y-59011538D01*
X91333324Y-58987054D01*
X91252822Y-58862617D01*
X91252820Y-58862614D01*
X91250014Y-58858277D01*
X91099670Y-58693051D01*
X91095619Y-58689852D01*
X91095615Y-58689848D01*
X90928414Y-58557800D01*
X90928410Y-58557798D01*
X90924359Y-58554598D01*
X90728789Y-58446638D01*
X90723920Y-58444914D01*
X90723916Y-58444912D01*
X90523087Y-58373795D01*
X90523083Y-58373794D01*
X90518212Y-58372069D01*
X90513119Y-58371162D01*
X90513116Y-58371161D01*
X90303373Y-58333800D01*
X90303367Y-58333799D01*
X90298284Y-58332894D01*
X90224452Y-58331992D01*
X90080081Y-58330228D01*
X90080079Y-58330228D01*
X90074911Y-58330165D01*
X89854091Y-58363955D01*
X89641756Y-58433357D01*
X89443607Y-58536507D01*
X89439474Y-58539610D01*
X89439471Y-58539612D01*
X89403380Y-58566710D01*
X89264965Y-58670635D01*
X89110629Y-58832138D01*
X88984743Y-59016680D01*
X88890688Y-59219305D01*
X88830989Y-59434570D01*
X88807251Y-59656695D01*
X82640418Y-59656695D01*
X82624852Y-59467361D01*
X82570431Y-59250702D01*
X82481354Y-59045840D01*
X82360014Y-58858277D01*
X82209670Y-58693051D01*
X82205619Y-58689852D01*
X82205615Y-58689848D01*
X82038414Y-58557800D01*
X82038410Y-58557798D01*
X82034359Y-58554598D01*
X81838789Y-58446638D01*
X81833920Y-58444914D01*
X81833916Y-58444912D01*
X81633087Y-58373795D01*
X81633083Y-58373794D01*
X81628212Y-58372069D01*
X81623119Y-58371162D01*
X81623116Y-58371161D01*
X81413373Y-58333800D01*
X81413367Y-58333799D01*
X81408284Y-58332894D01*
X81334452Y-58331992D01*
X81190081Y-58330228D01*
X81190079Y-58330228D01*
X81184911Y-58330165D01*
X80964091Y-58363955D01*
X80751756Y-58433357D01*
X80553607Y-58536507D01*
X80549474Y-58539610D01*
X80549471Y-58539612D01*
X80513380Y-58566710D01*
X80374965Y-58670635D01*
X80220629Y-58832138D01*
X80113201Y-58989621D01*
X80058293Y-59034621D01*
X79987768Y-59042792D01*
X79924021Y-59011538D01*
X79903324Y-58987054D01*
X79822822Y-58862617D01*
X79822820Y-58862614D01*
X79820014Y-58858277D01*
X79669670Y-58693051D01*
X79665619Y-58689852D01*
X79665615Y-58689848D01*
X79498414Y-58557800D01*
X79498410Y-58557798D01*
X79494359Y-58554598D01*
X79298789Y-58446638D01*
X79293920Y-58444914D01*
X79293916Y-58444912D01*
X79093087Y-58373795D01*
X79093083Y-58373794D01*
X79088212Y-58372069D01*
X79083119Y-58371162D01*
X79083116Y-58371161D01*
X78873373Y-58333800D01*
X78873367Y-58333799D01*
X78868284Y-58332894D01*
X78757009Y-58331535D01*
X78689140Y-58310702D01*
X78643306Y-58256483D01*
X78634061Y-58186091D01*
X78664340Y-58121875D01*
X78669455Y-58116449D01*
X78965499Y-57820405D01*
X79027811Y-57786379D01*
X79054594Y-57783500D01*
X94536233Y-57783500D01*
X94547416Y-57784027D01*
X94554909Y-57785702D01*
X94562835Y-57785453D01*
X94562836Y-57785453D01*
X94622986Y-57783562D01*
X94626945Y-57783500D01*
X94654856Y-57783500D01*
X94658791Y-57783003D01*
X94658856Y-57782995D01*
X94670693Y-57782062D01*
X94702951Y-57781048D01*
X94706970Y-57780922D01*
X94714889Y-57780673D01*
X94734343Y-57775021D01*
X94753700Y-57771013D01*
X94773798Y-57768474D01*
X94773813Y-57768591D01*
X94796351Y-57765744D01*
X97470234Y-57765744D01*
X97538355Y-57785746D01*
X97584848Y-57839402D01*
X97595544Y-57878573D01*
X97610282Y-58018794D01*
X97613213Y-58046683D01*
X97672228Y-58228311D01*
X97767715Y-58393699D01*
X97772133Y-58398606D01*
X97772134Y-58398607D01*
X97854654Y-58490255D01*
X97895502Y-58535621D01*
X98050003Y-58647873D01*
X98056031Y-58650557D01*
X98056033Y-58650558D01*
X98169452Y-58701055D01*
X98224467Y-58725549D01*
X98317867Y-58745402D01*
X98404811Y-58763883D01*
X98404816Y-58763883D01*
X98411268Y-58765255D01*
X98602242Y-58765255D01*
X98608694Y-58763883D01*
X98608699Y-58763883D01*
X98695643Y-58745402D01*
X98789043Y-58725549D01*
X98844058Y-58701055D01*
X98957477Y-58650558D01*
X98957479Y-58650557D01*
X98963507Y-58647873D01*
X99118008Y-58535621D01*
X99122423Y-58530718D01*
X99127335Y-58526295D01*
X99128460Y-58527544D01*
X99181769Y-58494704D01*
X99214955Y-58490255D01*
X103112650Y-58490255D01*
X103180771Y-58510257D01*
X103227264Y-58563913D01*
X103237368Y-58634187D01*
X103203744Y-58703306D01*
X103080629Y-58832138D01*
X102954743Y-59016680D01*
X102860688Y-59219305D01*
X102800989Y-59434570D01*
X102777251Y-59656695D01*
X102777548Y-59661848D01*
X102777548Y-59661851D01*
X102783011Y-59756590D01*
X102790110Y-59879715D01*
X102791247Y-59884761D01*
X102791248Y-59884767D01*
X102811119Y-59972939D01*
X102839222Y-60097639D01*
X102877461Y-60191811D01*
X102912143Y-60277222D01*
X102923266Y-60304616D01*
X102974019Y-60387438D01*
X103037291Y-60490688D01*
X103039987Y-60495088D01*
X103186250Y-60663938D01*
X103190230Y-60667242D01*
X103194981Y-60671187D01*
X103234616Y-60730090D01*
X103236113Y-60801071D01*
X103198997Y-60861593D01*
X103158725Y-60886112D01*
X103070095Y-60919338D01*
X103043295Y-60929385D01*
X102926739Y-61016739D01*
X102839385Y-61133295D01*
X102788255Y-61269684D01*
X102781500Y-61331866D01*
X102781500Y-63128134D01*
X102788255Y-63190316D01*
X102839385Y-63326705D01*
X102926739Y-63443261D01*
X103043295Y-63530615D01*
X103179684Y-63581745D01*
X103241866Y-63588500D01*
X105038134Y-63588500D01*
X105100316Y-63581745D01*
X105236705Y-63530615D01*
X105353261Y-63443261D01*
X105440615Y-63326705D01*
X105491745Y-63190316D01*
X105498500Y-63128134D01*
X105498500Y-61331866D01*
X105491745Y-61269684D01*
X105440615Y-61133295D01*
X105353261Y-61016739D01*
X105236705Y-60929385D01*
X105209905Y-60919338D01*
X105118203Y-60884960D01*
X105061439Y-60842318D01*
X105036739Y-60775756D01*
X105051947Y-60706408D01*
X105073493Y-60677727D01*
X105091251Y-60660031D01*
X105178096Y-60573489D01*
X105237594Y-60490689D01*
X105305435Y-60396277D01*
X105308453Y-60392077D01*
X105329320Y-60349857D01*
X105405136Y-60196453D01*
X105405137Y-60196451D01*
X105407430Y-60191811D01*
X105472370Y-59978069D01*
X105501529Y-59756590D01*
X105502505Y-59716638D01*
X105503074Y-59693365D01*
X105503074Y-59693361D01*
X105503156Y-59690000D01*
X105500418Y-59656695D01*
X111667251Y-59656695D01*
X111667548Y-59661848D01*
X111667548Y-59661851D01*
X111673011Y-59756590D01*
X111680110Y-59879715D01*
X111681247Y-59884761D01*
X111681248Y-59884767D01*
X111701119Y-59972939D01*
X111729222Y-60097639D01*
X111767461Y-60191811D01*
X111802143Y-60277222D01*
X111813266Y-60304616D01*
X111864019Y-60387438D01*
X111927291Y-60490688D01*
X111929987Y-60495088D01*
X112076250Y-60663938D01*
X112080230Y-60667242D01*
X112084981Y-60671187D01*
X112124616Y-60730090D01*
X112126113Y-60801071D01*
X112088997Y-60861593D01*
X112048725Y-60886112D01*
X111960095Y-60919338D01*
X111933295Y-60929385D01*
X111816739Y-61016739D01*
X111729385Y-61133295D01*
X111678255Y-61269684D01*
X111671500Y-61331866D01*
X111671500Y-63128134D01*
X111678255Y-63190316D01*
X111729385Y-63326705D01*
X111816739Y-63443261D01*
X111933295Y-63530615D01*
X112069684Y-63581745D01*
X112131866Y-63588500D01*
X113928134Y-63588500D01*
X113990316Y-63581745D01*
X114126705Y-63530615D01*
X114243261Y-63443261D01*
X114330615Y-63326705D01*
X114381745Y-63190316D01*
X114388500Y-63128134D01*
X114388500Y-61968938D01*
X114408502Y-61900817D01*
X114462158Y-61854324D01*
X114488303Y-61845691D01*
X114544791Y-61833684D01*
X114615582Y-61839086D01*
X114672214Y-61881903D01*
X114696708Y-61948540D01*
X114690821Y-61995867D01*
X114685410Y-62012522D01*
X114676458Y-62040072D01*
X114656496Y-62230000D01*
X114657186Y-62236565D01*
X114670381Y-62362104D01*
X114676458Y-62419928D01*
X114735473Y-62601556D01*
X114738776Y-62607278D01*
X114738777Y-62607279D01*
X114758903Y-62642138D01*
X114830960Y-62766944D01*
X114835378Y-62771851D01*
X114835379Y-62771852D01*
X114954325Y-62903955D01*
X114958747Y-62908866D01*
X114996475Y-62936277D01*
X115099881Y-63011406D01*
X115113248Y-63021118D01*
X115119276Y-63023802D01*
X115119278Y-63023803D01*
X115213426Y-63065720D01*
X115287712Y-63098794D01*
X115374009Y-63117137D01*
X115468056Y-63137128D01*
X115468061Y-63137128D01*
X115474513Y-63138500D01*
X115665487Y-63138500D01*
X115671939Y-63137128D01*
X115671944Y-63137128D01*
X115813716Y-63106993D01*
X115884507Y-63112395D01*
X115941139Y-63155212D01*
X115965633Y-63221850D01*
X115959746Y-63269176D01*
X115946458Y-63310072D01*
X115945768Y-63316633D01*
X115945768Y-63316635D01*
X115942963Y-63343327D01*
X115926496Y-63500000D01*
X115927186Y-63506565D01*
X115936140Y-63591753D01*
X115946458Y-63689928D01*
X116005473Y-63871556D01*
X116008776Y-63877278D01*
X116008777Y-63877279D01*
X116029069Y-63912425D01*
X116100960Y-64036944D01*
X116105378Y-64041851D01*
X116105379Y-64041852D01*
X116224325Y-64173955D01*
X116228747Y-64178866D01*
X116383248Y-64291118D01*
X116389276Y-64293802D01*
X116389278Y-64293803D01*
X116414625Y-64305088D01*
X116557712Y-64368794D01*
X116644009Y-64387137D01*
X116738056Y-64407128D01*
X116738061Y-64407128D01*
X116744513Y-64408500D01*
X116935487Y-64408500D01*
X116941939Y-64407128D01*
X116941944Y-64407128D01*
X117083716Y-64376993D01*
X117154507Y-64382395D01*
X117211139Y-64425212D01*
X117235633Y-64491850D01*
X117229746Y-64539176D01*
X117216458Y-64580072D01*
X117196496Y-64770000D01*
X117197186Y-64776565D01*
X117210381Y-64902104D01*
X117216458Y-64959928D01*
X117275473Y-65141556D01*
X117278776Y-65147278D01*
X117278777Y-65147279D01*
X117298903Y-65182138D01*
X117370960Y-65306944D01*
X117375378Y-65311851D01*
X117375379Y-65311852D01*
X117462149Y-65408220D01*
X117498747Y-65448866D01*
X117583164Y-65510199D01*
X117639881Y-65551406D01*
X117653248Y-65561118D01*
X117659276Y-65563802D01*
X117659278Y-65563803D01*
X117753426Y-65605720D01*
X117827712Y-65638794D01*
X117921112Y-65658647D01*
X118008056Y-65677128D01*
X118008061Y-65677128D01*
X118014513Y-65678500D01*
X118205487Y-65678500D01*
X118211939Y-65677128D01*
X118211944Y-65677128D01*
X118353716Y-65646993D01*
X118424507Y-65652395D01*
X118481139Y-65695212D01*
X118505633Y-65761850D01*
X118499746Y-65809176D01*
X118486458Y-65850072D01*
X118466496Y-66040000D01*
X118467186Y-66046565D01*
X118473844Y-66109908D01*
X118486458Y-66229928D01*
X118545473Y-66411556D01*
X118548776Y-66417278D01*
X118548777Y-66417279D01*
X118569069Y-66452425D01*
X118640960Y-66576944D01*
X118645378Y-66581851D01*
X118645379Y-66581852D01*
X118764325Y-66713955D01*
X118768747Y-66718866D01*
X118923248Y-66831118D01*
X118929276Y-66833802D01*
X118929278Y-66833803D01*
X118954625Y-66845088D01*
X119097712Y-66908794D01*
X119184009Y-66927137D01*
X119278056Y-66947128D01*
X119278061Y-66947128D01*
X119284513Y-66948500D01*
X119475487Y-66948500D01*
X119481939Y-66947128D01*
X119481944Y-66947128D01*
X119623716Y-66916993D01*
X119694507Y-66922395D01*
X119751139Y-66965212D01*
X119775633Y-67031850D01*
X119769746Y-67079176D01*
X119756458Y-67120072D01*
X119736496Y-67310000D01*
X119737186Y-67316565D01*
X119750381Y-67442104D01*
X119756458Y-67499928D01*
X119815473Y-67681556D01*
X119818776Y-67687278D01*
X119818777Y-67687279D01*
X119838903Y-67722138D01*
X119910960Y-67846944D01*
X119915378Y-67851851D01*
X119915379Y-67851852D01*
X120002149Y-67948220D01*
X120038747Y-67988866D01*
X120123164Y-68050199D01*
X120179881Y-68091406D01*
X120193248Y-68101118D01*
X120199276Y-68103802D01*
X120199278Y-68103803D01*
X120293426Y-68145720D01*
X120367712Y-68178794D01*
X120461112Y-68198647D01*
X120548056Y-68217128D01*
X120548061Y-68217128D01*
X120554513Y-68218500D01*
X120745487Y-68218500D01*
X120751939Y-68217128D01*
X120751944Y-68217128D01*
X120893716Y-68186993D01*
X120964507Y-68192395D01*
X121021139Y-68235212D01*
X121045633Y-68301850D01*
X121039746Y-68349176D01*
X121026458Y-68390072D01*
X121006496Y-68580000D01*
X121007186Y-68586565D01*
X121013844Y-68649908D01*
X121026458Y-68769928D01*
X121085473Y-68951556D01*
X121088776Y-68957278D01*
X121088777Y-68957279D01*
X121109069Y-68992425D01*
X121180960Y-69116944D01*
X121308747Y-69258866D01*
X121463248Y-69371118D01*
X121469276Y-69373802D01*
X121469278Y-69373803D01*
X121494625Y-69385088D01*
X121637712Y-69448794D01*
X121724009Y-69467137D01*
X121818056Y-69487128D01*
X121818061Y-69487128D01*
X121824513Y-69488500D01*
X122015487Y-69488500D01*
X122021939Y-69487128D01*
X122021944Y-69487128D01*
X122163716Y-69456993D01*
X122234507Y-69462395D01*
X122291139Y-69505212D01*
X122315633Y-69571850D01*
X122309746Y-69619176D01*
X122296458Y-69660072D01*
X122295768Y-69666633D01*
X122295768Y-69666635D01*
X122280158Y-69815157D01*
X122276496Y-69850000D01*
X122277186Y-69856565D01*
X122290381Y-69982104D01*
X122296458Y-70039928D01*
X122355473Y-70221556D01*
X122358776Y-70227278D01*
X122358777Y-70227279D01*
X122378903Y-70262138D01*
X122450960Y-70386944D01*
X122455378Y-70391851D01*
X122455379Y-70391852D01*
X122536773Y-70482249D01*
X122578747Y-70528866D01*
X122677843Y-70600864D01*
X122719881Y-70631406D01*
X122733248Y-70641118D01*
X122739276Y-70643802D01*
X122739278Y-70643803D01*
X122833426Y-70685720D01*
X122907712Y-70718794D01*
X123020319Y-70742729D01*
X123082791Y-70776457D01*
X123117113Y-70838607D01*
X123119408Y-70879364D01*
X123097251Y-71086695D01*
X123097548Y-71091848D01*
X123097548Y-71091851D01*
X123103011Y-71186590D01*
X123110110Y-71309715D01*
X123111247Y-71314761D01*
X123111248Y-71314767D01*
X123120353Y-71355166D01*
X123159222Y-71527639D01*
X123243266Y-71734616D01*
X123294019Y-71817438D01*
X123357291Y-71920688D01*
X123359987Y-71925088D01*
X123506250Y-72093938D01*
X123510225Y-72097238D01*
X123510231Y-72097244D01*
X123515425Y-72101556D01*
X123555059Y-72160460D01*
X123556555Y-72231441D01*
X123519439Y-72291962D01*
X123479168Y-72316480D01*
X123371946Y-72356676D01*
X123356351Y-72365214D01*
X123254276Y-72441715D01*
X123241715Y-72454276D01*
X123165214Y-72556351D01*
X123156676Y-72571946D01*
X123111522Y-72692394D01*
X123107895Y-72707649D01*
X123102369Y-72758514D01*
X123102000Y-72765328D01*
X123102000Y-73387885D01*
X123106475Y-73403124D01*
X123107865Y-73404329D01*
X123115548Y-73406000D01*
X128318344Y-73406000D01*
X128331875Y-73402027D01*
X128333180Y-73392947D01*
X128291214Y-73225875D01*
X128287894Y-73216124D01*
X128202972Y-73020814D01*
X128198105Y-73011739D01*
X128082426Y-72832926D01*
X128076136Y-72824757D01*
X127932806Y-72667240D01*
X127925273Y-72660215D01*
X127758139Y-72528222D01*
X127749556Y-72522520D01*
X127712602Y-72502120D01*
X127662631Y-72451687D01*
X127647859Y-72382245D01*
X127672975Y-72315839D01*
X127700327Y-72289232D01*
X127723797Y-72272491D01*
X127879860Y-72161173D01*
X127904323Y-72136796D01*
X127965724Y-72075609D01*
X128038096Y-72003489D01*
X128097594Y-71920689D01*
X128165435Y-71826277D01*
X128168453Y-71822077D01*
X128189320Y-71779857D01*
X128265136Y-71626453D01*
X128265137Y-71626451D01*
X128267430Y-71621811D01*
X128332370Y-71408069D01*
X128361529Y-71186590D01*
X128361611Y-71183240D01*
X128363074Y-71123365D01*
X128363074Y-71123361D01*
X128363156Y-71120000D01*
X128344852Y-70897361D01*
X128290431Y-70680702D01*
X128201354Y-70475840D01*
X128143845Y-70386944D01*
X128082822Y-70292617D01*
X128082820Y-70292614D01*
X128080014Y-70288277D01*
X127929670Y-70123051D01*
X127925619Y-70119852D01*
X127925615Y-70119848D01*
X127758414Y-69987800D01*
X127758410Y-69987798D01*
X127754359Y-69984598D01*
X127713053Y-69961796D01*
X127663084Y-69911364D01*
X127648312Y-69841921D01*
X127673428Y-69775516D01*
X127700780Y-69748909D01*
X127744603Y-69717650D01*
X127879860Y-69621173D01*
X127884845Y-69616206D01*
X128014374Y-69487128D01*
X128038096Y-69463489D01*
X128047670Y-69450166D01*
X128165435Y-69286277D01*
X128168453Y-69282077D01*
X128178006Y-69262749D01*
X128265136Y-69086453D01*
X128265137Y-69086451D01*
X128267430Y-69081811D01*
X128332370Y-68868069D01*
X128361529Y-68646590D01*
X128363156Y-68580000D01*
X128344852Y-68357361D01*
X128290431Y-68140702D01*
X128201354Y-67935840D01*
X128143845Y-67846944D01*
X128082822Y-67752617D01*
X128082820Y-67752614D01*
X128080014Y-67748277D01*
X127929670Y-67583051D01*
X127925619Y-67579852D01*
X127925615Y-67579848D01*
X127758414Y-67447800D01*
X127758410Y-67447798D01*
X127754359Y-67444598D01*
X127713053Y-67421796D01*
X127663084Y-67371364D01*
X127648312Y-67301921D01*
X127673428Y-67235516D01*
X127700780Y-67208909D01*
X127744603Y-67177650D01*
X127879860Y-67081173D01*
X128038096Y-66923489D01*
X128047670Y-66910166D01*
X128165435Y-66746277D01*
X128168453Y-66742077D01*
X128178006Y-66722749D01*
X128265136Y-66546453D01*
X128265137Y-66546451D01*
X128267430Y-66541811D01*
X128332370Y-66328069D01*
X128361529Y-66106590D01*
X128363156Y-66040000D01*
X128344852Y-65817361D01*
X128290431Y-65600702D01*
X128201354Y-65395840D01*
X128143845Y-65306944D01*
X128082822Y-65212617D01*
X128082820Y-65212614D01*
X128080014Y-65208277D01*
X127929670Y-65043051D01*
X127925619Y-65039852D01*
X127925615Y-65039848D01*
X127758414Y-64907800D01*
X127758410Y-64907798D01*
X127754359Y-64904598D01*
X127713053Y-64881796D01*
X127663084Y-64831364D01*
X127648312Y-64761921D01*
X127673428Y-64695516D01*
X127700780Y-64668909D01*
X127744603Y-64637650D01*
X127879860Y-64541173D01*
X128038096Y-64383489D01*
X128047670Y-64370166D01*
X128165435Y-64206277D01*
X128168453Y-64202077D01*
X128178006Y-64182749D01*
X128265136Y-64006453D01*
X128265137Y-64006451D01*
X128267430Y-64001811D01*
X128332370Y-63788069D01*
X128361529Y-63566590D01*
X128362177Y-63540062D01*
X128363074Y-63503365D01*
X128363074Y-63503361D01*
X128363156Y-63500000D01*
X128344852Y-63277361D01*
X128290431Y-63060702D01*
X128201354Y-62855840D01*
X128143845Y-62766944D01*
X128082822Y-62672617D01*
X128082820Y-62672614D01*
X128080014Y-62668277D01*
X127929670Y-62503051D01*
X127925619Y-62499852D01*
X127925615Y-62499848D01*
X127758414Y-62367800D01*
X127758410Y-62367798D01*
X127754359Y-62364598D01*
X127713053Y-62341796D01*
X127663084Y-62291364D01*
X127648312Y-62221921D01*
X127673428Y-62155516D01*
X127700780Y-62128909D01*
X127744603Y-62097650D01*
X127879860Y-62001173D01*
X128038096Y-61843489D01*
X128047670Y-61830166D01*
X128165435Y-61666277D01*
X128168453Y-61662077D01*
X128178006Y-61642749D01*
X128265136Y-61466453D01*
X128265137Y-61466451D01*
X128267430Y-61461811D01*
X128332370Y-61248069D01*
X128361529Y-61026590D01*
X128363156Y-60960000D01*
X128344852Y-60737361D01*
X128290431Y-60520702D01*
X128201354Y-60315840D01*
X128111974Y-60177680D01*
X128082822Y-60132617D01*
X128082820Y-60132614D01*
X128080014Y-60128277D01*
X127929670Y-59963051D01*
X127925619Y-59959852D01*
X127925615Y-59959848D01*
X127758414Y-59827800D01*
X127758410Y-59827798D01*
X127754359Y-59824598D01*
X127558789Y-59716638D01*
X127553920Y-59714914D01*
X127553916Y-59714912D01*
X127353087Y-59643795D01*
X127353083Y-59643794D01*
X127348212Y-59642069D01*
X127343119Y-59641162D01*
X127343116Y-59641161D01*
X127133373Y-59603800D01*
X127133367Y-59603799D01*
X127128284Y-59602894D01*
X127054452Y-59601992D01*
X126910081Y-59600228D01*
X126910079Y-59600228D01*
X126904911Y-59600165D01*
X126684091Y-59633955D01*
X126471756Y-59703357D01*
X126441443Y-59719137D01*
X126369497Y-59756590D01*
X126273607Y-59806507D01*
X126269474Y-59809610D01*
X126269471Y-59809612D01*
X126169374Y-59884767D01*
X126094965Y-59940635D01*
X126091393Y-59944373D01*
X125949748Y-60092596D01*
X125940629Y-60102138D01*
X125833201Y-60259621D01*
X125778293Y-60304621D01*
X125707768Y-60312792D01*
X125644021Y-60281538D01*
X125623324Y-60257054D01*
X125542822Y-60132617D01*
X125542820Y-60132614D01*
X125540014Y-60128277D01*
X125389670Y-59963051D01*
X125385619Y-59959852D01*
X125385615Y-59959848D01*
X125218414Y-59827800D01*
X125218410Y-59827798D01*
X125214359Y-59824598D01*
X125018789Y-59716638D01*
X125013920Y-59714914D01*
X125013916Y-59714912D01*
X124813087Y-59643795D01*
X124813083Y-59643794D01*
X124808212Y-59642069D01*
X124803119Y-59641162D01*
X124803116Y-59641161D01*
X124593373Y-59603800D01*
X124593367Y-59603799D01*
X124588284Y-59602894D01*
X124514452Y-59601992D01*
X124370081Y-59600228D01*
X124370079Y-59600228D01*
X124364911Y-59600165D01*
X124144091Y-59633955D01*
X123931756Y-59703357D01*
X123901443Y-59719137D01*
X123829497Y-59756590D01*
X123733607Y-59806507D01*
X123729474Y-59809610D01*
X123729471Y-59809612D01*
X123629374Y-59884767D01*
X123554965Y-59940635D01*
X123551393Y-59944373D01*
X123409748Y-60092596D01*
X123400629Y-60102138D01*
X123397720Y-60106403D01*
X123397714Y-60106411D01*
X123285095Y-60271504D01*
X123230184Y-60316507D01*
X123181007Y-60326500D01*
X115015633Y-60326500D01*
X114947512Y-60306498D01*
X114922001Y-60284814D01*
X114915165Y-60277222D01*
X114816069Y-60205224D01*
X114766006Y-60168851D01*
X114766005Y-60168850D01*
X114760664Y-60164970D01*
X114754636Y-60162286D01*
X114754634Y-60162285D01*
X114592231Y-60089979D01*
X114592230Y-60089979D01*
X114586200Y-60087294D01*
X114579739Y-60085921D01*
X114579734Y-60085919D01*
X114468403Y-60062254D01*
X114405929Y-60028526D01*
X114371608Y-59966376D01*
X114369678Y-59922561D01*
X114391092Y-59759908D01*
X114391529Y-59756590D01*
X114392505Y-59716638D01*
X114393074Y-59693365D01*
X114393074Y-59693361D01*
X114393156Y-59690000D01*
X114374852Y-59467361D01*
X114320431Y-59250702D01*
X114231354Y-59045840D01*
X114110014Y-58858277D01*
X113959670Y-58693051D01*
X113955619Y-58689852D01*
X113955615Y-58689848D01*
X113788414Y-58557800D01*
X113788410Y-58557798D01*
X113784359Y-58554598D01*
X113588789Y-58446638D01*
X113583920Y-58444914D01*
X113583916Y-58444912D01*
X113383087Y-58373795D01*
X113383083Y-58373794D01*
X113378212Y-58372069D01*
X113373119Y-58371162D01*
X113373116Y-58371161D01*
X113163373Y-58333800D01*
X113163367Y-58333799D01*
X113158284Y-58332894D01*
X113084452Y-58331992D01*
X112940081Y-58330228D01*
X112940079Y-58330228D01*
X112934911Y-58330165D01*
X112714091Y-58363955D01*
X112501756Y-58433357D01*
X112303607Y-58536507D01*
X112299474Y-58539610D01*
X112299471Y-58539612D01*
X112263380Y-58566710D01*
X112124965Y-58670635D01*
X111970629Y-58832138D01*
X111844743Y-59016680D01*
X111750688Y-59219305D01*
X111690989Y-59434570D01*
X111667251Y-59656695D01*
X105500418Y-59656695D01*
X105484852Y-59467361D01*
X105430431Y-59250702D01*
X105341354Y-59045840D01*
X105220014Y-58858277D01*
X105076953Y-58701055D01*
X105045902Y-58637209D01*
X105054297Y-58566710D01*
X105099473Y-58511942D01*
X105170147Y-58490255D01*
X105247300Y-58490255D01*
X105315421Y-58510257D01*
X105334647Y-58526598D01*
X105334920Y-58526295D01*
X105339832Y-58530718D01*
X105344247Y-58535621D01*
X105498748Y-58647873D01*
X105504776Y-58650557D01*
X105504778Y-58650558D01*
X105618197Y-58701055D01*
X105673212Y-58725549D01*
X105766612Y-58745402D01*
X105853556Y-58763883D01*
X105853561Y-58763883D01*
X105860013Y-58765255D01*
X106050987Y-58765255D01*
X106057439Y-58763883D01*
X106057444Y-58763883D01*
X106144388Y-58745402D01*
X106237788Y-58725549D01*
X106292803Y-58701055D01*
X106406222Y-58650558D01*
X106406224Y-58650557D01*
X106412252Y-58647873D01*
X106566753Y-58535621D01*
X106607601Y-58490255D01*
X106690121Y-58398607D01*
X106690122Y-58398606D01*
X106694540Y-58393699D01*
X106790027Y-58228311D01*
X106827895Y-58111767D01*
X106867967Y-58053162D01*
X106921530Y-58027457D01*
X106932982Y-58025023D01*
X106955830Y-58020167D01*
X106955833Y-58020166D01*
X106962288Y-58018794D01*
X106968319Y-58016109D01*
X107130722Y-57943803D01*
X107130724Y-57943802D01*
X107136752Y-57941118D01*
X107222838Y-57878573D01*
X107276751Y-57839402D01*
X107291253Y-57828866D01*
X107295668Y-57823963D01*
X107300580Y-57819540D01*
X107301705Y-57820789D01*
X107355014Y-57787949D01*
X107388200Y-57783500D01*
X128831800Y-57783500D01*
X128899921Y-57803502D01*
X128919147Y-57819843D01*
X128919420Y-57819540D01*
X128924332Y-57823963D01*
X128928747Y-57828866D01*
X128943249Y-57839402D01*
X128997163Y-57878573D01*
X129083248Y-57941118D01*
X129089276Y-57943802D01*
X129089278Y-57943803D01*
X129251681Y-58016109D01*
X129257712Y-58018794D01*
X129351112Y-58038647D01*
X129438056Y-58057128D01*
X129438061Y-58057128D01*
X129444513Y-58058500D01*
X129635487Y-58058500D01*
X129641939Y-58057128D01*
X129641944Y-58057128D01*
X129728888Y-58038647D01*
X129822288Y-58018794D01*
X129828319Y-58016109D01*
X129990722Y-57943803D01*
X129990724Y-57943802D01*
X129996752Y-57941118D01*
X130151253Y-57828866D01*
X130188095Y-57787949D01*
X130274621Y-57691852D01*
X130274622Y-57691851D01*
X130279040Y-57686944D01*
X130374527Y-57521556D01*
X130433542Y-57339928D01*
X130453504Y-57150000D01*
X130439574Y-57017466D01*
X130434232Y-56966635D01*
X130434232Y-56966633D01*
X130433542Y-56960072D01*
X130374527Y-56778444D01*
X130279040Y-56613056D01*
X130262882Y-56595110D01*
X130155675Y-56476045D01*
X130155674Y-56476044D01*
X130151253Y-56471134D01*
X129996752Y-56358882D01*
X129990724Y-56356198D01*
X129990722Y-56356197D01*
X129828319Y-56283891D01*
X129828318Y-56283891D01*
X129822288Y-56281206D01*
X129728887Y-56261353D01*
X129641944Y-56242872D01*
X129641939Y-56242872D01*
X129635487Y-56241500D01*
X129444513Y-56241500D01*
X129438061Y-56242872D01*
X129438056Y-56242872D01*
X129351113Y-56261353D01*
X129257712Y-56281206D01*
X129251682Y-56283891D01*
X129251681Y-56283891D01*
X129089278Y-56356197D01*
X129089276Y-56356198D01*
X129083248Y-56358882D01*
X129077907Y-56362762D01*
X129077906Y-56362763D01*
X128967687Y-56442842D01*
X128928747Y-56471134D01*
X128924332Y-56476037D01*
X128919420Y-56480460D01*
X128918295Y-56479211D01*
X128864986Y-56512051D01*
X128831800Y-56516500D01*
X128344745Y-56516500D01*
X128276624Y-56496498D01*
X128230131Y-56442842D01*
X128220027Y-56372568D01*
X128230552Y-56337247D01*
X128231959Y-56334230D01*
X128231961Y-56334225D01*
X128234284Y-56329243D01*
X128274522Y-56179076D01*
X128292119Y-56113402D01*
X128292119Y-56113400D01*
X128293543Y-56108087D01*
X128313498Y-55880000D01*
X128293543Y-55651913D01*
X128276669Y-55588938D01*
X128235707Y-55436067D01*
X128235706Y-55436065D01*
X128234284Y-55430757D01*
X128227254Y-55415680D01*
X128139849Y-55228238D01*
X128139846Y-55228233D01*
X128137523Y-55223251D01*
X128006198Y-55035700D01*
X127844300Y-54873802D01*
X127839792Y-54870645D01*
X127839789Y-54870643D01*
X127713920Y-54782509D01*
X127656749Y-54742477D01*
X127651767Y-54740154D01*
X127651762Y-54740151D01*
X127454225Y-54648039D01*
X127454224Y-54648039D01*
X127449243Y-54645716D01*
X127443935Y-54644294D01*
X127443933Y-54644293D01*
X127233402Y-54587881D01*
X127233400Y-54587881D01*
X127228087Y-54586457D01*
X127000000Y-54566502D01*
X126771913Y-54586457D01*
X126766602Y-54587880D01*
X126766591Y-54587882D01*
X126708459Y-54603459D01*
X126637483Y-54601770D01*
X126586752Y-54570848D01*
X118613652Y-46597747D01*
X118606112Y-46589461D01*
X118602000Y-46582982D01*
X118589614Y-46571351D01*
X118553648Y-46510138D01*
X118556485Y-46439198D01*
X118597225Y-46381054D01*
X118662933Y-46354165D01*
X118675866Y-46353500D01*
X121605406Y-46353500D01*
X121673527Y-46373502D01*
X121694501Y-46390405D01*
X125690848Y-50386752D01*
X125724874Y-50449064D01*
X125723459Y-50508459D01*
X125707882Y-50566591D01*
X125707881Y-50566598D01*
X125706457Y-50571913D01*
X125686502Y-50800000D01*
X125706457Y-51028087D01*
X125707881Y-51033400D01*
X125707881Y-51033402D01*
X125763941Y-51242617D01*
X125765716Y-51249243D01*
X125768039Y-51254224D01*
X125768039Y-51254225D01*
X125860151Y-51451762D01*
X125860154Y-51451767D01*
X125862477Y-51456749D01*
X125877050Y-51477561D01*
X125987782Y-51635702D01*
X125993802Y-51644300D01*
X126155700Y-51806198D01*
X126160208Y-51809355D01*
X126160211Y-51809357D01*
X126214487Y-51847361D01*
X126343251Y-51937523D01*
X126348233Y-51939846D01*
X126348238Y-51939849D01*
X126545775Y-52031961D01*
X126550757Y-52034284D01*
X126556065Y-52035706D01*
X126556067Y-52035707D01*
X126766598Y-52092119D01*
X126766600Y-52092119D01*
X126771913Y-52093543D01*
X127000000Y-52113498D01*
X127228087Y-52093543D01*
X127233400Y-52092119D01*
X127233402Y-52092119D01*
X127443933Y-52035707D01*
X127443935Y-52035706D01*
X127449243Y-52034284D01*
X127454225Y-52031961D01*
X127651762Y-51939849D01*
X127651767Y-51939846D01*
X127656749Y-51937523D01*
X127785513Y-51847361D01*
X127839789Y-51809357D01*
X127839792Y-51809355D01*
X127844300Y-51806198D01*
X128006198Y-51644300D01*
X128012219Y-51635702D01*
X128122950Y-51477561D01*
X128137523Y-51456749D01*
X128139846Y-51451767D01*
X128139849Y-51451762D01*
X128231961Y-51254225D01*
X128231961Y-51254224D01*
X128234284Y-51249243D01*
X128236060Y-51242617D01*
X128292119Y-51033402D01*
X128292119Y-51033400D01*
X128293543Y-51028087D01*
X128313498Y-50800000D01*
X128293543Y-50571913D01*
X128292117Y-50566591D01*
X128235707Y-50356067D01*
X128235706Y-50356065D01*
X128234284Y-50350757D01*
X128139966Y-50148489D01*
X128139849Y-50148238D01*
X128139846Y-50148233D01*
X128137523Y-50143251D01*
X128006198Y-49955700D01*
X127844300Y-49793802D01*
X127839792Y-49790645D01*
X127839789Y-49790643D01*
X127713920Y-49702509D01*
X127656749Y-49662477D01*
X127651767Y-49660154D01*
X127651762Y-49660151D01*
X127454225Y-49568039D01*
X127454224Y-49568039D01*
X127449243Y-49565716D01*
X127443935Y-49564294D01*
X127443933Y-49564293D01*
X127233402Y-49507881D01*
X127233400Y-49507881D01*
X127228087Y-49506457D01*
X127000000Y-49486502D01*
X126771913Y-49506457D01*
X126766602Y-49507880D01*
X126766591Y-49507882D01*
X126708459Y-49523459D01*
X126637483Y-49521770D01*
X126586752Y-49490848D01*
X125355904Y-48260000D01*
X128366411Y-48260000D01*
X128386754Y-48648176D01*
X128447562Y-49032099D01*
X128548167Y-49407562D01*
X128549352Y-49410650D01*
X128549353Y-49410652D01*
X128592007Y-49521770D01*
X128687468Y-49770453D01*
X128688966Y-49773393D01*
X128848733Y-50086952D01*
X128863938Y-50116794D01*
X128865734Y-50119560D01*
X128865736Y-50119563D01*
X129039250Y-50386752D01*
X129075643Y-50442793D01*
X129175893Y-50566591D01*
X129298709Y-50718255D01*
X129320266Y-50744876D01*
X129595124Y-51019734D01*
X129597682Y-51021806D01*
X129597686Y-51021809D01*
X129715904Y-51117540D01*
X129897207Y-51264357D01*
X129899970Y-51266152D01*
X129899971Y-51266152D01*
X130200021Y-51461006D01*
X130223205Y-51476062D01*
X130226139Y-51477557D01*
X130226146Y-51477561D01*
X130544537Y-51639789D01*
X130569547Y-51652532D01*
X130932438Y-51791833D01*
X131307901Y-51892438D01*
X131511793Y-51924732D01*
X131688576Y-51952732D01*
X131688584Y-51952733D01*
X131691824Y-51953246D01*
X132080000Y-51973589D01*
X132468176Y-51953246D01*
X132471416Y-51952733D01*
X132471424Y-51952732D01*
X132648207Y-51924732D01*
X132852099Y-51892438D01*
X133227562Y-51791833D01*
X133590453Y-51652532D01*
X133615463Y-51639789D01*
X133933854Y-51477561D01*
X133933861Y-51477557D01*
X133936795Y-51476062D01*
X133959980Y-51461006D01*
X134260029Y-51266152D01*
X134260030Y-51266152D01*
X134262793Y-51264357D01*
X134444096Y-51117540D01*
X134562314Y-51021809D01*
X134562318Y-51021806D01*
X134564876Y-51019734D01*
X134839734Y-50744876D01*
X134861292Y-50718255D01*
X134984107Y-50566591D01*
X135084357Y-50442793D01*
X135120750Y-50386752D01*
X135294264Y-50119563D01*
X135294266Y-50119560D01*
X135296062Y-50116794D01*
X135311268Y-50086952D01*
X135471034Y-49773393D01*
X135472532Y-49770453D01*
X135567993Y-49521770D01*
X135610647Y-49410652D01*
X135610648Y-49410650D01*
X135611833Y-49407562D01*
X135712438Y-49032099D01*
X135773246Y-48648176D01*
X135793589Y-48260000D01*
X135773246Y-47871824D01*
X135712438Y-47487901D01*
X135611833Y-47112438D01*
X135472532Y-46749547D01*
X135417482Y-46641506D01*
X135297561Y-46406147D01*
X135297557Y-46406140D01*
X135296062Y-46403206D01*
X135291581Y-46396305D01*
X135086152Y-46079971D01*
X135086152Y-46079970D01*
X135084357Y-46077207D01*
X134839734Y-45775124D01*
X134564876Y-45500266D01*
X134262793Y-45255643D01*
X134240848Y-45241392D01*
X133939564Y-45045736D01*
X133939561Y-45045734D01*
X133936795Y-45043938D01*
X133933861Y-45042443D01*
X133933854Y-45042439D01*
X133593393Y-44868966D01*
X133590453Y-44867468D01*
X133227562Y-44728167D01*
X132852099Y-44627562D01*
X132648207Y-44595268D01*
X132471424Y-44567268D01*
X132471416Y-44567267D01*
X132468176Y-44566754D01*
X132080000Y-44546411D01*
X131691824Y-44566754D01*
X131688584Y-44567267D01*
X131688576Y-44567268D01*
X131511793Y-44595268D01*
X131307901Y-44627562D01*
X130932438Y-44728167D01*
X130569547Y-44867468D01*
X130566607Y-44868966D01*
X130226147Y-45042439D01*
X130226140Y-45042443D01*
X130223206Y-45043938D01*
X130220440Y-45045734D01*
X130220437Y-45045736D01*
X130000015Y-45188879D01*
X129897207Y-45255643D01*
X129595124Y-45500266D01*
X129320266Y-45775124D01*
X129075643Y-46077207D01*
X129073848Y-46079970D01*
X129073848Y-46079971D01*
X128868420Y-46396305D01*
X128863938Y-46403206D01*
X128862443Y-46406140D01*
X128862439Y-46406147D01*
X128742518Y-46641506D01*
X128687468Y-46749547D01*
X128548167Y-47112438D01*
X128447562Y-47487901D01*
X128386754Y-47871824D01*
X128366411Y-48260000D01*
X125355904Y-48260000D01*
X122423652Y-45327747D01*
X122416112Y-45319461D01*
X122412000Y-45312982D01*
X122362348Y-45266356D01*
X122359507Y-45263602D01*
X122339770Y-45243865D01*
X122336573Y-45241385D01*
X122327551Y-45233680D01*
X122323397Y-45229779D01*
X122295321Y-45203414D01*
X122288375Y-45199595D01*
X122288372Y-45199593D01*
X122277566Y-45193652D01*
X122261047Y-45182801D01*
X122260583Y-45182441D01*
X122245041Y-45170386D01*
X122237772Y-45167241D01*
X122237768Y-45167238D01*
X122204463Y-45152826D01*
X122193813Y-45147609D01*
X122155060Y-45126305D01*
X122135437Y-45121267D01*
X122116734Y-45114863D01*
X122105420Y-45109967D01*
X122105419Y-45109967D01*
X122098145Y-45106819D01*
X122090322Y-45105580D01*
X122090312Y-45105577D01*
X122054476Y-45099901D01*
X122042856Y-45097495D01*
X122007711Y-45088472D01*
X122007710Y-45088472D01*
X122000030Y-45086500D01*
X121979776Y-45086500D01*
X121960065Y-45084949D01*
X121947886Y-45083020D01*
X121940057Y-45081780D01*
X121910786Y-45084547D01*
X121896039Y-45085941D01*
X121884181Y-45086500D01*
X90248768Y-45086500D01*
X90237585Y-45085973D01*
X90230092Y-45084298D01*
X90222166Y-45084547D01*
X90222165Y-45084547D01*
X90162002Y-45086438D01*
X90158044Y-45086500D01*
X90130144Y-45086500D01*
X90126154Y-45087004D01*
X90114320Y-45087936D01*
X90070111Y-45089326D01*
X90062495Y-45091539D01*
X90062493Y-45091539D01*
X90050652Y-45094979D01*
X90031293Y-45098988D01*
X90029983Y-45099154D01*
X90011203Y-45101526D01*
X90003837Y-45104442D01*
X90003831Y-45104444D01*
X89970098Y-45117800D01*
X89958868Y-45121645D01*
X89942828Y-45126305D01*
X89916407Y-45133981D01*
X89909584Y-45138016D01*
X89898966Y-45144295D01*
X89881213Y-45152992D01*
X89873568Y-45156019D01*
X89862383Y-45160448D01*
X89848705Y-45170386D01*
X89826612Y-45186437D01*
X89816695Y-45192951D01*
X89778638Y-45215458D01*
X89764317Y-45229779D01*
X89749284Y-45242619D01*
X89732893Y-45254528D01*
X89724217Y-45265016D01*
X89704702Y-45288605D01*
X89696712Y-45297384D01*
X82856877Y-52137218D01*
X82794565Y-52171244D01*
X82723750Y-52166179D01*
X82666914Y-52123632D01*
X82642206Y-52058447D01*
X82640407Y-52036562D01*
X82624852Y-51847361D01*
X82570431Y-51630702D01*
X82481354Y-51425840D01*
X82375544Y-51262282D01*
X82362822Y-51242617D01*
X82362820Y-51242614D01*
X82360014Y-51238277D01*
X82209670Y-51073051D01*
X82205619Y-51069852D01*
X82205615Y-51069848D01*
X82038414Y-50937800D01*
X82038410Y-50937798D01*
X82034359Y-50934598D01*
X82016270Y-50924612D01*
X81982136Y-50905769D01*
X81838789Y-50826638D01*
X81833920Y-50824914D01*
X81833916Y-50824912D01*
X81633087Y-50753795D01*
X81633083Y-50753794D01*
X81628212Y-50752069D01*
X81623119Y-50751162D01*
X81623116Y-50751161D01*
X81413373Y-50713800D01*
X81413367Y-50713799D01*
X81408284Y-50712894D01*
X81334452Y-50711992D01*
X81190081Y-50710228D01*
X81190079Y-50710228D01*
X81184911Y-50710165D01*
X80964091Y-50743955D01*
X80751756Y-50813357D01*
X80553607Y-50916507D01*
X80549474Y-50919610D01*
X80549471Y-50919612D01*
X80404996Y-51028087D01*
X80374965Y-51050635D01*
X80348766Y-51078051D01*
X80281280Y-51148671D01*
X80220629Y-51212138D01*
X80113201Y-51369621D01*
X80058293Y-51414621D01*
X79987768Y-51422792D01*
X79924021Y-51391538D01*
X79903324Y-51367054D01*
X79822822Y-51242617D01*
X79822820Y-51242614D01*
X79820014Y-51238277D01*
X79669670Y-51073051D01*
X79665619Y-51069852D01*
X79665615Y-51069848D01*
X79498414Y-50937800D01*
X79498410Y-50937798D01*
X79494359Y-50934598D01*
X79476270Y-50924612D01*
X79442136Y-50905769D01*
X79298789Y-50826638D01*
X79293920Y-50824914D01*
X79293916Y-50824912D01*
X79093087Y-50753795D01*
X79093083Y-50753794D01*
X79088212Y-50752069D01*
X79083119Y-50751162D01*
X79083116Y-50751161D01*
X78873373Y-50713800D01*
X78873367Y-50713799D01*
X78868284Y-50712894D01*
X78794452Y-50711992D01*
X78650081Y-50710228D01*
X78650079Y-50710228D01*
X78644911Y-50710165D01*
X78424091Y-50743955D01*
X78211756Y-50813357D01*
X78013607Y-50916507D01*
X78009474Y-50919610D01*
X78009471Y-50919612D01*
X77864996Y-51028087D01*
X77834965Y-51050635D01*
X77808766Y-51078051D01*
X77741280Y-51148671D01*
X77680629Y-51212138D01*
X77573201Y-51369621D01*
X77518293Y-51414621D01*
X77447768Y-51422792D01*
X77384021Y-51391538D01*
X77363324Y-51367054D01*
X77282822Y-51242617D01*
X77282820Y-51242614D01*
X77280014Y-51238277D01*
X77129670Y-51073051D01*
X77125619Y-51069852D01*
X77125615Y-51069848D01*
X76958414Y-50937800D01*
X76958410Y-50937798D01*
X76954359Y-50934598D01*
X76936270Y-50924612D01*
X76902136Y-50905769D01*
X76758789Y-50826638D01*
X76753920Y-50824914D01*
X76753916Y-50824912D01*
X76553087Y-50753795D01*
X76553083Y-50753794D01*
X76548212Y-50752069D01*
X76543119Y-50751162D01*
X76543116Y-50751161D01*
X76333373Y-50713800D01*
X76333367Y-50713799D01*
X76328284Y-50712894D01*
X76254452Y-50711992D01*
X76110081Y-50710228D01*
X76110079Y-50710228D01*
X76104911Y-50710165D01*
X75884091Y-50743955D01*
X75671756Y-50813357D01*
X75473607Y-50916507D01*
X75469474Y-50919610D01*
X75469471Y-50919612D01*
X75324996Y-51028087D01*
X75294965Y-51050635D01*
X75268766Y-51078051D01*
X75201280Y-51148671D01*
X75140629Y-51212138D01*
X75137720Y-51216403D01*
X75137714Y-51216411D01*
X75111919Y-51254225D01*
X75014743Y-51396680D01*
X74967715Y-51497993D01*
X74961116Y-51512211D01*
X74920688Y-51599305D01*
X74860989Y-51814570D01*
X74837251Y-52036695D01*
X74837548Y-52041848D01*
X74837548Y-52041851D01*
X74842552Y-52128632D01*
X74850110Y-52259715D01*
X74851247Y-52264761D01*
X74851248Y-52264767D01*
X74852375Y-52269767D01*
X74899222Y-52477639D01*
X74983266Y-52684616D01*
X75034942Y-52768944D01*
X75097291Y-52870688D01*
X75099987Y-52875088D01*
X75246250Y-53043938D01*
X75252095Y-53048791D01*
X75254981Y-53051187D01*
X75294616Y-53110090D01*
X75296113Y-53181071D01*
X75258997Y-53241593D01*
X75218725Y-53266112D01*
X75165370Y-53286114D01*
X75103295Y-53309385D01*
X74986739Y-53396739D01*
X74899385Y-53513295D01*
X74848255Y-53649684D01*
X74841500Y-53711866D01*
X74841500Y-55508134D01*
X74848255Y-55570316D01*
X74899385Y-55706705D01*
X74986739Y-55823261D01*
X75103295Y-55910615D01*
X75239684Y-55961745D01*
X75301866Y-55968500D01*
X77098134Y-55968500D01*
X77160316Y-55961745D01*
X77296705Y-55910615D01*
X77413261Y-55823261D01*
X77500615Y-55706705D01*
X77522799Y-55647529D01*
X77544598Y-55589382D01*
X77587240Y-55532618D01*
X77653802Y-55507918D01*
X77723150Y-55523126D01*
X77757817Y-55551114D01*
X77786250Y-55583938D01*
X77958126Y-55726632D01*
X78151000Y-55839338D01*
X78155825Y-55841180D01*
X78155826Y-55841181D01*
X78168920Y-55846181D01*
X78359692Y-55919030D01*
X78364760Y-55920061D01*
X78364763Y-55920062D01*
X78472017Y-55941883D01*
X78578597Y-55963567D01*
X78583772Y-55963757D01*
X78583774Y-55963757D01*
X78796673Y-55971564D01*
X78796677Y-55971564D01*
X78801837Y-55971753D01*
X78806957Y-55971097D01*
X78806959Y-55971097D01*
X79018288Y-55944025D01*
X79018289Y-55944025D01*
X79023416Y-55943368D01*
X79028366Y-55941883D01*
X79232429Y-55880661D01*
X79232434Y-55880659D01*
X79237384Y-55879174D01*
X79437994Y-55780896D01*
X79619860Y-55651173D01*
X79778096Y-55493489D01*
X79797309Y-55466752D01*
X79908453Y-55312077D01*
X79909774Y-55313026D01*
X79956663Y-55269849D01*
X80026600Y-55257628D01*
X80092042Y-55285158D01*
X80119874Y-55316995D01*
X80177285Y-55410680D01*
X80177290Y-55410687D01*
X80179987Y-55415088D01*
X80326250Y-55583938D01*
X80498126Y-55726632D01*
X80691000Y-55839338D01*
X80695825Y-55841180D01*
X80695826Y-55841181D01*
X80708920Y-55846181D01*
X80899692Y-55919030D01*
X80904760Y-55920061D01*
X80904763Y-55920062D01*
X81012017Y-55941883D01*
X81118597Y-55963567D01*
X81123772Y-55963757D01*
X81123774Y-55963757D01*
X81336673Y-55971564D01*
X81336677Y-55971564D01*
X81341837Y-55971753D01*
X81346957Y-55971097D01*
X81346959Y-55971097D01*
X81558288Y-55944025D01*
X81558289Y-55944025D01*
X81563416Y-55943368D01*
X81568366Y-55941883D01*
X81772429Y-55880661D01*
X81772434Y-55880659D01*
X81777384Y-55879174D01*
X81977994Y-55780896D01*
X82159860Y-55651173D01*
X82318096Y-55493489D01*
X82337309Y-55466752D01*
X82445435Y-55316277D01*
X82448453Y-55312077D01*
X82469324Y-55269849D01*
X82545136Y-55116453D01*
X82545137Y-55116451D01*
X82547430Y-55111811D01*
X82612370Y-54898069D01*
X82641529Y-54676590D01*
X82642227Y-54648039D01*
X82643074Y-54613365D01*
X82643074Y-54613361D01*
X82643156Y-54610000D01*
X82624852Y-54387361D01*
X82596821Y-54275765D01*
X82599625Y-54204823D01*
X82629930Y-54155974D01*
X90395499Y-46390405D01*
X90457811Y-46356379D01*
X90484594Y-46353500D01*
X102306616Y-46353500D01*
X102374737Y-46373502D01*
X102421230Y-46427158D01*
X102431334Y-46497432D01*
X102403695Y-46559821D01*
X102397670Y-46567105D01*
X102397092Y-46567803D01*
X102391866Y-46573730D01*
X102358842Y-46608898D01*
X102358840Y-46608901D01*
X102353414Y-46614679D01*
X102349445Y-46621899D01*
X102336119Y-46641506D01*
X102335923Y-46641743D01*
X102335920Y-46641747D01*
X102330867Y-46647856D01*
X102329254Y-46651285D01*
X102314916Y-46669180D01*
X96841877Y-52142218D01*
X96779565Y-52176244D01*
X96708750Y-52171179D01*
X96651914Y-52128632D01*
X96627206Y-52063447D01*
X96625842Y-52046851D01*
X96609852Y-51852361D01*
X96555431Y-51635702D01*
X96466354Y-51430840D01*
X96359813Y-51266152D01*
X96347822Y-51247617D01*
X96347820Y-51247614D01*
X96345014Y-51243277D01*
X96194670Y-51078051D01*
X96190619Y-51074852D01*
X96190615Y-51074848D01*
X96023414Y-50942800D01*
X96023410Y-50942798D01*
X96019359Y-50939598D01*
X96010302Y-50934598D01*
X95882266Y-50863919D01*
X95823789Y-50831638D01*
X95818920Y-50829914D01*
X95818916Y-50829912D01*
X95618087Y-50758795D01*
X95618083Y-50758794D01*
X95613212Y-50757069D01*
X95608119Y-50756162D01*
X95608116Y-50756161D01*
X95398373Y-50718800D01*
X95398367Y-50718799D01*
X95393284Y-50717894D01*
X95319452Y-50716992D01*
X95175081Y-50715228D01*
X95175079Y-50715228D01*
X95169911Y-50715165D01*
X94949091Y-50748955D01*
X94736756Y-50818357D01*
X94538607Y-50921507D01*
X94534474Y-50924610D01*
X94534471Y-50924612D01*
X94366624Y-51050635D01*
X94359965Y-51055635D01*
X94205629Y-51217138D01*
X94098201Y-51374621D01*
X94043293Y-51419621D01*
X93972768Y-51427792D01*
X93909021Y-51396538D01*
X93888324Y-51372054D01*
X93807822Y-51247617D01*
X93807820Y-51247614D01*
X93805014Y-51243277D01*
X93654670Y-51078051D01*
X93650619Y-51074852D01*
X93650615Y-51074848D01*
X93483414Y-50942800D01*
X93483410Y-50942798D01*
X93479359Y-50939598D01*
X93470302Y-50934598D01*
X93342266Y-50863919D01*
X93283789Y-50831638D01*
X93278920Y-50829914D01*
X93278916Y-50829912D01*
X93078087Y-50758795D01*
X93078083Y-50758794D01*
X93073212Y-50757069D01*
X93068119Y-50756162D01*
X93068116Y-50756161D01*
X92858373Y-50718800D01*
X92858367Y-50718799D01*
X92853284Y-50717894D01*
X92779452Y-50716992D01*
X92635081Y-50715228D01*
X92635079Y-50715228D01*
X92629911Y-50715165D01*
X92409091Y-50748955D01*
X92196756Y-50818357D01*
X91998607Y-50921507D01*
X91994474Y-50924610D01*
X91994471Y-50924612D01*
X91826624Y-51050635D01*
X91819965Y-51055635D01*
X91665629Y-51217138D01*
X91558201Y-51374621D01*
X91503293Y-51419621D01*
X91432768Y-51427792D01*
X91369021Y-51396538D01*
X91348324Y-51372054D01*
X91267822Y-51247617D01*
X91267820Y-51247614D01*
X91265014Y-51243277D01*
X91114670Y-51078051D01*
X91110619Y-51074852D01*
X91110615Y-51074848D01*
X90943414Y-50942800D01*
X90943410Y-50942798D01*
X90939359Y-50939598D01*
X90930302Y-50934598D01*
X90802266Y-50863919D01*
X90743789Y-50831638D01*
X90738920Y-50829914D01*
X90738916Y-50829912D01*
X90538087Y-50758795D01*
X90538083Y-50758794D01*
X90533212Y-50757069D01*
X90528119Y-50756162D01*
X90528116Y-50756161D01*
X90318373Y-50718800D01*
X90318367Y-50718799D01*
X90313284Y-50717894D01*
X90239452Y-50716992D01*
X90095081Y-50715228D01*
X90095079Y-50715228D01*
X90089911Y-50715165D01*
X89869091Y-50748955D01*
X89656756Y-50818357D01*
X89458607Y-50921507D01*
X89454474Y-50924610D01*
X89454471Y-50924612D01*
X89286624Y-51050635D01*
X89279965Y-51055635D01*
X89125629Y-51217138D01*
X88999743Y-51401680D01*
X88905688Y-51604305D01*
X88845989Y-51819570D01*
X88822251Y-52041695D01*
X88822548Y-52046848D01*
X88822548Y-52046851D01*
X88830009Y-52176244D01*
X88835110Y-52264715D01*
X88836247Y-52269761D01*
X88836248Y-52269767D01*
X88857275Y-52363069D01*
X88884222Y-52482639D01*
X88968266Y-52689616D01*
X89018798Y-52772077D01*
X89082291Y-52875688D01*
X89084987Y-52880088D01*
X89231250Y-53048938D01*
X89235230Y-53052242D01*
X89239981Y-53056187D01*
X89279616Y-53115090D01*
X89281113Y-53186071D01*
X89243997Y-53246593D01*
X89203725Y-53271112D01*
X89156964Y-53288642D01*
X89088295Y-53314385D01*
X88971739Y-53401739D01*
X88884385Y-53518295D01*
X88833255Y-53654684D01*
X88826500Y-53716866D01*
X88826500Y-55513134D01*
X88833255Y-55575316D01*
X88884385Y-55711705D01*
X88971739Y-55828261D01*
X89088295Y-55915615D01*
X89224684Y-55966745D01*
X89286866Y-55973500D01*
X91083134Y-55973500D01*
X91145316Y-55966745D01*
X91281705Y-55915615D01*
X91398261Y-55828261D01*
X91485615Y-55711705D01*
X91505976Y-55657393D01*
X91529598Y-55594382D01*
X91572240Y-55537618D01*
X91638802Y-55512918D01*
X91708150Y-55528126D01*
X91742817Y-55556114D01*
X91771250Y-55588938D01*
X91846213Y-55651173D01*
X91933123Y-55723327D01*
X91943126Y-55731632D01*
X92136000Y-55844338D01*
X92344692Y-55924030D01*
X92349760Y-55925061D01*
X92349763Y-55925062D01*
X92442970Y-55944025D01*
X92563597Y-55968567D01*
X92568772Y-55968757D01*
X92568774Y-55968757D01*
X92781673Y-55976564D01*
X92781677Y-55976564D01*
X92786837Y-55976753D01*
X92791957Y-55976097D01*
X92791959Y-55976097D01*
X93003288Y-55949025D01*
X93003289Y-55949025D01*
X93008416Y-55948368D01*
X93025082Y-55943368D01*
X93217429Y-55885661D01*
X93217434Y-55885659D01*
X93222384Y-55884174D01*
X93422994Y-55785896D01*
X93604860Y-55656173D01*
X93763096Y-55498489D01*
X93815223Y-55425947D01*
X93893453Y-55317077D01*
X93894774Y-55318026D01*
X93941663Y-55274849D01*
X94011600Y-55262628D01*
X94077042Y-55290158D01*
X94104874Y-55321995D01*
X94162285Y-55415680D01*
X94162290Y-55415687D01*
X94164987Y-55420088D01*
X94311250Y-55588938D01*
X94386213Y-55651173D01*
X94473123Y-55723327D01*
X94483126Y-55731632D01*
X94676000Y-55844338D01*
X94884692Y-55924030D01*
X94889760Y-55925061D01*
X94889763Y-55925062D01*
X94982970Y-55944025D01*
X95103597Y-55968567D01*
X95108772Y-55968757D01*
X95108774Y-55968757D01*
X95321673Y-55976564D01*
X95321677Y-55976564D01*
X95326837Y-55976753D01*
X95331957Y-55976097D01*
X95331959Y-55976097D01*
X95543288Y-55949025D01*
X95543289Y-55949025D01*
X95548416Y-55948368D01*
X95565082Y-55943368D01*
X95757429Y-55885661D01*
X95757434Y-55885659D01*
X95762384Y-55884174D01*
X95962994Y-55785896D01*
X96144860Y-55656173D01*
X96303096Y-55498489D01*
X96355223Y-55425947D01*
X96430435Y-55321277D01*
X96433453Y-55317077D01*
X96449229Y-55285158D01*
X96530136Y-55121453D01*
X96530137Y-55121451D01*
X96532430Y-55116811D01*
X96597370Y-54903069D01*
X96626529Y-54681590D01*
X96628156Y-54615000D01*
X96609852Y-54392361D01*
X96581821Y-54280765D01*
X96584625Y-54209823D01*
X96614930Y-54160974D01*
X101062916Y-49712988D01*
X116118576Y-49712988D01*
X116125644Y-49726434D01*
X116827188Y-50427978D01*
X116841132Y-50435592D01*
X116842965Y-50435461D01*
X116849580Y-50431210D01*
X117555077Y-49725713D01*
X117561507Y-49713938D01*
X117552211Y-49701923D01*
X117501006Y-49666069D01*
X117491511Y-49660586D01*
X117294053Y-49568510D01*
X117283761Y-49564764D01*
X117073312Y-49508375D01*
X117062519Y-49506472D01*
X116845475Y-49487483D01*
X116834525Y-49487483D01*
X116617481Y-49506472D01*
X116606688Y-49508375D01*
X116396239Y-49564764D01*
X116385947Y-49568510D01*
X116188489Y-49660586D01*
X116178994Y-49666069D01*
X116126952Y-49702509D01*
X116118576Y-49712988D01*
X101062916Y-49712988D01*
X103115499Y-47660405D01*
X103177811Y-47626379D01*
X103204594Y-47623500D01*
X117795406Y-47623500D01*
X117863527Y-47643502D01*
X117884501Y-47660405D01*
X125690848Y-55466752D01*
X125724874Y-55529064D01*
X125723459Y-55588459D01*
X125707882Y-55646591D01*
X125707881Y-55646598D01*
X125706457Y-55651913D01*
X125686502Y-55880000D01*
X125706457Y-56108087D01*
X125707881Y-56113400D01*
X125707881Y-56113402D01*
X125725479Y-56179076D01*
X125765716Y-56329243D01*
X125768039Y-56334225D01*
X125768041Y-56334230D01*
X125769448Y-56337247D01*
X125769669Y-56338704D01*
X125769922Y-56339398D01*
X125769782Y-56339449D01*
X125780111Y-56407438D01*
X125751133Y-56472252D01*
X125691715Y-56511110D01*
X125655255Y-56516500D01*
X118184194Y-56516500D01*
X118116073Y-56496498D01*
X118069580Y-56442842D01*
X118059476Y-56372568D01*
X118070000Y-56337249D01*
X118071488Y-56334058D01*
X118075236Y-56323761D01*
X118131625Y-56113312D01*
X118133528Y-56102519D01*
X118152517Y-55885475D01*
X118152517Y-55874525D01*
X118133528Y-55657481D01*
X118131625Y-55646688D01*
X118075236Y-55436239D01*
X118071490Y-55425947D01*
X117979414Y-55228489D01*
X117973931Y-55218994D01*
X117937491Y-55166952D01*
X117927012Y-55158576D01*
X117913566Y-55165644D01*
X116929095Y-56150115D01*
X116866783Y-56184141D01*
X116795968Y-56179076D01*
X116750905Y-56150115D01*
X115765713Y-55164923D01*
X115753938Y-55158493D01*
X115741923Y-55167789D01*
X115706069Y-55218994D01*
X115700586Y-55228489D01*
X115608510Y-55425947D01*
X115604764Y-55436239D01*
X115548375Y-55646688D01*
X115546472Y-55657481D01*
X115527483Y-55874525D01*
X115527483Y-55885475D01*
X115546472Y-56102519D01*
X115548375Y-56113312D01*
X115604764Y-56323761D01*
X115608512Y-56334058D01*
X115610000Y-56337249D01*
X115610234Y-56338789D01*
X115610393Y-56339226D01*
X115610305Y-56339258D01*
X115620662Y-56407441D01*
X115591683Y-56472254D01*
X115532263Y-56511110D01*
X115495806Y-56516500D01*
X107388200Y-56516500D01*
X107320079Y-56496498D01*
X107300853Y-56480157D01*
X107300580Y-56480460D01*
X107295668Y-56476037D01*
X107291253Y-56471134D01*
X107252313Y-56442842D01*
X107142094Y-56362763D01*
X107142093Y-56362762D01*
X107136752Y-56358882D01*
X107130724Y-56356198D01*
X107130722Y-56356197D01*
X106968319Y-56283891D01*
X106968318Y-56283891D01*
X106962288Y-56281206D01*
X106868887Y-56261353D01*
X106781944Y-56242872D01*
X106781939Y-56242872D01*
X106775487Y-56241500D01*
X106584513Y-56241500D01*
X106578061Y-56242872D01*
X106578056Y-56242872D01*
X106491113Y-56261353D01*
X106397712Y-56281206D01*
X106391682Y-56283891D01*
X106391681Y-56283891D01*
X106229278Y-56356197D01*
X106229276Y-56356198D01*
X106223248Y-56358882D01*
X106217907Y-56362762D01*
X106217906Y-56362763D01*
X106069515Y-56470576D01*
X106063450Y-56472740D01*
X106049229Y-56492811D01*
X105957119Y-56595110D01*
X105940960Y-56613056D01*
X105845473Y-56778444D01*
X105843431Y-56784729D01*
X105807606Y-56894987D01*
X105767533Y-56953593D01*
X105713970Y-56979298D01*
X105702518Y-56981732D01*
X105679670Y-56986588D01*
X105679667Y-56986589D01*
X105673212Y-56987961D01*
X105667182Y-56990646D01*
X105667181Y-56990646D01*
X105504778Y-57062952D01*
X105504776Y-57062953D01*
X105498748Y-57065637D01*
X105493407Y-57069517D01*
X105493406Y-57069518D01*
X105409907Y-57130184D01*
X105343039Y-57154042D01*
X105273888Y-57137962D01*
X105224408Y-57087048D01*
X105210308Y-57017466D01*
X105236066Y-56951307D01*
X105246751Y-56939153D01*
X105866498Y-56319406D01*
X105889852Y-56306654D01*
X105895674Y-56291699D01*
X105906359Y-56279545D01*
X106224549Y-55961355D01*
X106286861Y-55927329D01*
X106338762Y-55926979D01*
X106518597Y-55963567D01*
X106523772Y-55963757D01*
X106523774Y-55963757D01*
X106736673Y-55971564D01*
X106736677Y-55971564D01*
X106741837Y-55971753D01*
X106746957Y-55971097D01*
X106746959Y-55971097D01*
X106958288Y-55944025D01*
X106958289Y-55944025D01*
X106963416Y-55943368D01*
X106968366Y-55941883D01*
X107172429Y-55880661D01*
X107172434Y-55880659D01*
X107177384Y-55879174D01*
X107377994Y-55780896D01*
X107559860Y-55651173D01*
X107718096Y-55493489D01*
X107737309Y-55466752D01*
X107848453Y-55312077D01*
X107849774Y-55313026D01*
X107896663Y-55269849D01*
X107966600Y-55257628D01*
X108032042Y-55285158D01*
X108059874Y-55316995D01*
X108117285Y-55410680D01*
X108117290Y-55410687D01*
X108119987Y-55415088D01*
X108266250Y-55583938D01*
X108438126Y-55726632D01*
X108631000Y-55839338D01*
X108635825Y-55841180D01*
X108635826Y-55841181D01*
X108648920Y-55846181D01*
X108839692Y-55919030D01*
X108844760Y-55920061D01*
X108844763Y-55920062D01*
X108952017Y-55941883D01*
X109058597Y-55963567D01*
X109063772Y-55963757D01*
X109063774Y-55963757D01*
X109276673Y-55971564D01*
X109276677Y-55971564D01*
X109281837Y-55971753D01*
X109286957Y-55971097D01*
X109286959Y-55971097D01*
X109498288Y-55944025D01*
X109498289Y-55944025D01*
X109503416Y-55943368D01*
X109508366Y-55941883D01*
X109712429Y-55880661D01*
X109712434Y-55880659D01*
X109717384Y-55879174D01*
X109917994Y-55780896D01*
X110099860Y-55651173D01*
X110258096Y-55493489D01*
X110277309Y-55466752D01*
X110388453Y-55312077D01*
X110389774Y-55313026D01*
X110436663Y-55269849D01*
X110506600Y-55257628D01*
X110572042Y-55285158D01*
X110599874Y-55316995D01*
X110657285Y-55410680D01*
X110657290Y-55410687D01*
X110659987Y-55415088D01*
X110806250Y-55583938D01*
X110978126Y-55726632D01*
X111171000Y-55839338D01*
X111175825Y-55841180D01*
X111175826Y-55841181D01*
X111188920Y-55846181D01*
X111379692Y-55919030D01*
X111384760Y-55920061D01*
X111384763Y-55920062D01*
X111492017Y-55941883D01*
X111598597Y-55963567D01*
X111603772Y-55963757D01*
X111603774Y-55963757D01*
X111816673Y-55971564D01*
X111816677Y-55971564D01*
X111821837Y-55971753D01*
X111826957Y-55971097D01*
X111826959Y-55971097D01*
X112038288Y-55944025D01*
X112038289Y-55944025D01*
X112043416Y-55943368D01*
X112048366Y-55941883D01*
X112252429Y-55880661D01*
X112252434Y-55880659D01*
X112257384Y-55879174D01*
X112457994Y-55780896D01*
X112639860Y-55651173D01*
X112798096Y-55493489D01*
X112817309Y-55466752D01*
X112925435Y-55316277D01*
X112928453Y-55312077D01*
X112949324Y-55269849D01*
X113025136Y-55116453D01*
X113025137Y-55116451D01*
X113027430Y-55111811D01*
X113092370Y-54898069D01*
X113106205Y-54792988D01*
X116118576Y-54792988D01*
X116125644Y-54806434D01*
X116827188Y-55507978D01*
X116841132Y-55515592D01*
X116842965Y-55515461D01*
X116849580Y-55511210D01*
X117555077Y-54805713D01*
X117561507Y-54793938D01*
X117552211Y-54781923D01*
X117501006Y-54746069D01*
X117491511Y-54740586D01*
X117294053Y-54648510D01*
X117283761Y-54644764D01*
X117073312Y-54588375D01*
X117062519Y-54586472D01*
X116845475Y-54567483D01*
X116834525Y-54567483D01*
X116617481Y-54586472D01*
X116606688Y-54588375D01*
X116396239Y-54644764D01*
X116385947Y-54648510D01*
X116188489Y-54740586D01*
X116178994Y-54746069D01*
X116126952Y-54782509D01*
X116118576Y-54792988D01*
X113106205Y-54792988D01*
X113121529Y-54676590D01*
X113122227Y-54648039D01*
X113123074Y-54613365D01*
X113123074Y-54613361D01*
X113123156Y-54610000D01*
X113104852Y-54387361D01*
X113050431Y-54170702D01*
X112961354Y-53965840D01*
X112921906Y-53904862D01*
X112842822Y-53782617D01*
X112842820Y-53782614D01*
X112840014Y-53778277D01*
X112820779Y-53757138D01*
X112692798Y-53616488D01*
X112661746Y-53552642D01*
X112670141Y-53482143D01*
X112715317Y-53427375D01*
X112741761Y-53413706D01*
X112848297Y-53373767D01*
X112856705Y-53370615D01*
X112973261Y-53283261D01*
X113060615Y-53166705D01*
X113111745Y-53030316D01*
X113118500Y-52968134D01*
X113118500Y-51886062D01*
X116118493Y-51886062D01*
X116127789Y-51898077D01*
X116178994Y-51933931D01*
X116188489Y-51939414D01*
X116385947Y-52031490D01*
X116396239Y-52035236D01*
X116606688Y-52091625D01*
X116617481Y-52093528D01*
X116834525Y-52112517D01*
X116845475Y-52112517D01*
X117062519Y-52093528D01*
X117073312Y-52091625D01*
X117283761Y-52035236D01*
X117294053Y-52031490D01*
X117491511Y-51939414D01*
X117501006Y-51933931D01*
X117553048Y-51897491D01*
X117561424Y-51887012D01*
X117554356Y-51873566D01*
X116852812Y-51172022D01*
X116838868Y-51164408D01*
X116837035Y-51164539D01*
X116830420Y-51168790D01*
X116124923Y-51874287D01*
X116118493Y-51886062D01*
X113118500Y-51886062D01*
X113118500Y-51171866D01*
X113111745Y-51109684D01*
X113060615Y-50973295D01*
X112973261Y-50856739D01*
X112904860Y-50805475D01*
X115527483Y-50805475D01*
X115546472Y-51022519D01*
X115548375Y-51033312D01*
X115604764Y-51243761D01*
X115608510Y-51254053D01*
X115700586Y-51451511D01*
X115706069Y-51461006D01*
X115742509Y-51513048D01*
X115752988Y-51521424D01*
X115766434Y-51514356D01*
X116467978Y-50812812D01*
X116474356Y-50801132D01*
X117204408Y-50801132D01*
X117204539Y-50802965D01*
X117208790Y-50809580D01*
X117914287Y-51515077D01*
X117926062Y-51521507D01*
X117938077Y-51512211D01*
X117973931Y-51461006D01*
X117979414Y-51451511D01*
X118071490Y-51254053D01*
X118075236Y-51243761D01*
X118131625Y-51033312D01*
X118133528Y-51022519D01*
X118152517Y-50805475D01*
X118152517Y-50794525D01*
X118133528Y-50577481D01*
X118131625Y-50566688D01*
X118075236Y-50356239D01*
X118071490Y-50345947D01*
X117979414Y-50148489D01*
X117973931Y-50138994D01*
X117937491Y-50086952D01*
X117927012Y-50078576D01*
X117913566Y-50085644D01*
X117212022Y-50787188D01*
X117204408Y-50801132D01*
X116474356Y-50801132D01*
X116475592Y-50798868D01*
X116475461Y-50797035D01*
X116471210Y-50790420D01*
X115765713Y-50084923D01*
X115753938Y-50078493D01*
X115741923Y-50087789D01*
X115706069Y-50138994D01*
X115700586Y-50148489D01*
X115608510Y-50345947D01*
X115604764Y-50356239D01*
X115548375Y-50566688D01*
X115546472Y-50577481D01*
X115527483Y-50794525D01*
X115527483Y-50805475D01*
X112904860Y-50805475D01*
X112856705Y-50769385D01*
X112720316Y-50718255D01*
X112658134Y-50711500D01*
X110861866Y-50711500D01*
X110799684Y-50718255D01*
X110663295Y-50769385D01*
X110546739Y-50856739D01*
X110459385Y-50973295D01*
X110456233Y-50981703D01*
X110414919Y-51091907D01*
X110372277Y-51148671D01*
X110305716Y-51173371D01*
X110236367Y-51158163D01*
X110203743Y-51132476D01*
X110153151Y-51076875D01*
X110153142Y-51076866D01*
X110149670Y-51073051D01*
X110145619Y-51069852D01*
X110145615Y-51069848D01*
X109978414Y-50937800D01*
X109978410Y-50937798D01*
X109974359Y-50934598D01*
X109956270Y-50924612D01*
X109922136Y-50905769D01*
X109778789Y-50826638D01*
X109773920Y-50824914D01*
X109773916Y-50824912D01*
X109573087Y-50753795D01*
X109573083Y-50753794D01*
X109568212Y-50752069D01*
X109563119Y-50751162D01*
X109563116Y-50751161D01*
X109353373Y-50713800D01*
X109353367Y-50713799D01*
X109348284Y-50712894D01*
X109274452Y-50711992D01*
X109130081Y-50710228D01*
X109130079Y-50710228D01*
X109124911Y-50710165D01*
X108904091Y-50743955D01*
X108691756Y-50813357D01*
X108493607Y-50916507D01*
X108489474Y-50919610D01*
X108489471Y-50919612D01*
X108344996Y-51028087D01*
X108314965Y-51050635D01*
X108288766Y-51078051D01*
X108221280Y-51148671D01*
X108160629Y-51212138D01*
X108053201Y-51369621D01*
X107998293Y-51414621D01*
X107927768Y-51422792D01*
X107864021Y-51391538D01*
X107843324Y-51367054D01*
X107762822Y-51242617D01*
X107762820Y-51242614D01*
X107760014Y-51238277D01*
X107609670Y-51073051D01*
X107605619Y-51069852D01*
X107605615Y-51069848D01*
X107438414Y-50937800D01*
X107438410Y-50937798D01*
X107434359Y-50934598D01*
X107416270Y-50924612D01*
X107382136Y-50905769D01*
X107238789Y-50826638D01*
X107233920Y-50824914D01*
X107233916Y-50824912D01*
X107033087Y-50753795D01*
X107033083Y-50753794D01*
X107028212Y-50752069D01*
X107023119Y-50751162D01*
X107023116Y-50751161D01*
X106813373Y-50713800D01*
X106813367Y-50713799D01*
X106808284Y-50712894D01*
X106734452Y-50711992D01*
X106590081Y-50710228D01*
X106590079Y-50710228D01*
X106584911Y-50710165D01*
X106364091Y-50743955D01*
X106151756Y-50813357D01*
X105953607Y-50916507D01*
X105949474Y-50919610D01*
X105949471Y-50919612D01*
X105804996Y-51028087D01*
X105774965Y-51050635D01*
X105748766Y-51078051D01*
X105681280Y-51148671D01*
X105620629Y-51212138D01*
X105617720Y-51216403D01*
X105617714Y-51216411D01*
X105591919Y-51254225D01*
X105494743Y-51396680D01*
X105447715Y-51497993D01*
X105441116Y-51512211D01*
X105400688Y-51599305D01*
X105340989Y-51814570D01*
X105317251Y-52036695D01*
X105317548Y-52041848D01*
X105317548Y-52041851D01*
X105322552Y-52128632D01*
X105330110Y-52259715D01*
X105331247Y-52264761D01*
X105331248Y-52264767D01*
X105332375Y-52269767D01*
X105379222Y-52477639D01*
X105463266Y-52684616D01*
X105514942Y-52768944D01*
X105577291Y-52870688D01*
X105579987Y-52875088D01*
X105726250Y-53043938D01*
X105898126Y-53186632D01*
X105906683Y-53191632D01*
X105971445Y-53229476D01*
X106020169Y-53281114D01*
X106033240Y-53350897D01*
X106006509Y-53416669D01*
X105966055Y-53450027D01*
X105953607Y-53456507D01*
X105949474Y-53459610D01*
X105949471Y-53459612D01*
X105825567Y-53552642D01*
X105774965Y-53590635D01*
X105750259Y-53616488D01*
X105663729Y-53707037D01*
X105620629Y-53752138D01*
X105494743Y-53936680D01*
X105400688Y-54139305D01*
X105340989Y-54354570D01*
X105317251Y-54576695D01*
X105317548Y-54581848D01*
X105317548Y-54581851D01*
X105323011Y-54676590D01*
X105330110Y-54799715D01*
X105331247Y-54804761D01*
X105331248Y-54804767D01*
X105363453Y-54947668D01*
X105358917Y-55018520D01*
X105329631Y-55064464D01*
X103932256Y-56461839D01*
X103869944Y-56495865D01*
X103843161Y-56498744D01*
X94711524Y-56498744D01*
X94700341Y-56498217D01*
X94692848Y-56496542D01*
X94684922Y-56496791D01*
X94684921Y-56496791D01*
X94624758Y-56498682D01*
X94620800Y-56498744D01*
X94592900Y-56498744D01*
X94588910Y-56499248D01*
X94577076Y-56500180D01*
X94532867Y-56501570D01*
X94525253Y-56503782D01*
X94525248Y-56503783D01*
X94513415Y-56507221D01*
X94494052Y-56511232D01*
X94473959Y-56513770D01*
X94473944Y-56513652D01*
X94451404Y-56516500D01*
X78818763Y-56516500D01*
X78807579Y-56515973D01*
X78800091Y-56514299D01*
X78792168Y-56514548D01*
X78732033Y-56516438D01*
X78728075Y-56516500D01*
X78700144Y-56516500D01*
X78696229Y-56516995D01*
X78696225Y-56516995D01*
X78696167Y-56517003D01*
X78696138Y-56517006D01*
X78684296Y-56517939D01*
X78640110Y-56519327D01*
X78622744Y-56524372D01*
X78620658Y-56524978D01*
X78601306Y-56528986D01*
X78589068Y-56530532D01*
X78589066Y-56530533D01*
X78581203Y-56531526D01*
X78540086Y-56547806D01*
X78528885Y-56551641D01*
X78486406Y-56563982D01*
X78479587Y-56568015D01*
X78479582Y-56568017D01*
X78468971Y-56574293D01*
X78451221Y-56582990D01*
X78432383Y-56590448D01*
X78425967Y-56595109D01*
X78425966Y-56595110D01*
X78396625Y-56616428D01*
X78386701Y-56622947D01*
X78355460Y-56641422D01*
X78355455Y-56641426D01*
X78348637Y-56645458D01*
X78334313Y-56659782D01*
X78319281Y-56672621D01*
X78302893Y-56684528D01*
X78274712Y-56718593D01*
X78266722Y-56727373D01*
X76657345Y-58336750D01*
X76595033Y-58370776D01*
X76546154Y-58371702D01*
X76333373Y-58333800D01*
X76333367Y-58333799D01*
X76328284Y-58332894D01*
X76254452Y-58331992D01*
X76110081Y-58330228D01*
X76110079Y-58330228D01*
X76104911Y-58330165D01*
X75884091Y-58363955D01*
X75671756Y-58433357D01*
X75473607Y-58536507D01*
X75469474Y-58539610D01*
X75469471Y-58539612D01*
X75433380Y-58566710D01*
X75294965Y-58670635D01*
X75140629Y-58832138D01*
X75014743Y-59016680D01*
X74920688Y-59219305D01*
X74860989Y-59434570D01*
X74837251Y-59656695D01*
X63889516Y-59656695D01*
X63853087Y-59643795D01*
X63853083Y-59643794D01*
X63848212Y-59642069D01*
X63843119Y-59641162D01*
X63843116Y-59641161D01*
X63633373Y-59603800D01*
X63633367Y-59603799D01*
X63628284Y-59602894D01*
X63554452Y-59601992D01*
X63410081Y-59600228D01*
X63410079Y-59600228D01*
X63404911Y-59600165D01*
X63184091Y-59633955D01*
X62971756Y-59703357D01*
X62941443Y-59719137D01*
X62869497Y-59756590D01*
X62773607Y-59806507D01*
X62769474Y-59809610D01*
X62769471Y-59809612D01*
X62669374Y-59884767D01*
X62594965Y-59940635D01*
X62591393Y-59944373D01*
X62449748Y-60092596D01*
X62440629Y-60102138D01*
X62333201Y-60259621D01*
X62278293Y-60304621D01*
X62207768Y-60312792D01*
X62144021Y-60281538D01*
X62123324Y-60257054D01*
X62042822Y-60132617D01*
X62042820Y-60132614D01*
X62040014Y-60128277D01*
X61889670Y-59963051D01*
X61885619Y-59959852D01*
X61885615Y-59959848D01*
X61718414Y-59827800D01*
X61718410Y-59827798D01*
X61714359Y-59824598D01*
X61518789Y-59716638D01*
X61513920Y-59714914D01*
X61513916Y-59714912D01*
X61313087Y-59643795D01*
X61313083Y-59643794D01*
X61308212Y-59642069D01*
X61303119Y-59641162D01*
X61303116Y-59641161D01*
X61093373Y-59603800D01*
X61093367Y-59603799D01*
X61088284Y-59602894D01*
X61014452Y-59601992D01*
X60870081Y-59600228D01*
X60870079Y-59600228D01*
X60864911Y-59600165D01*
X60644091Y-59633955D01*
X60431756Y-59703357D01*
X60401443Y-59719137D01*
X60329497Y-59756590D01*
X60233607Y-59806507D01*
X60229474Y-59809610D01*
X60229471Y-59809612D01*
X60129374Y-59884767D01*
X60054965Y-59940635D01*
X60051393Y-59944373D01*
X59909748Y-60092596D01*
X59900629Y-60102138D01*
X59897720Y-60106403D01*
X59897714Y-60106411D01*
X59857768Y-60164970D01*
X59774743Y-60286680D01*
X59680688Y-60489305D01*
X59620989Y-60704570D01*
X59597251Y-60926695D01*
X59597548Y-60931848D01*
X59597548Y-60931851D01*
X59602857Y-61023919D01*
X59610110Y-61149715D01*
X59611247Y-61154761D01*
X59611248Y-61154767D01*
X59631119Y-61242939D01*
X59659222Y-61367639D01*
X59743266Y-61574616D01*
X59779629Y-61633955D01*
X59853072Y-61753803D01*
X59859987Y-61765088D01*
X60006250Y-61933938D01*
X60178126Y-62076632D01*
X60248595Y-62117811D01*
X60251445Y-62119476D01*
X60300169Y-62171114D01*
X60313240Y-62240897D01*
X60286509Y-62306669D01*
X60246055Y-62340027D01*
X60233607Y-62346507D01*
X60229474Y-62349610D01*
X60229471Y-62349612D01*
X60059100Y-62477530D01*
X60054965Y-62480635D01*
X59900629Y-62642138D01*
X59774743Y-62826680D01*
X59757652Y-62863500D01*
X59686290Y-63017237D01*
X59680688Y-63029305D01*
X59620989Y-63244570D01*
X59597251Y-63466695D01*
X59597548Y-63471848D01*
X59597548Y-63471851D01*
X59604253Y-63588131D01*
X59610110Y-63689715D01*
X59611247Y-63694761D01*
X59611248Y-63694767D01*
X59631119Y-63782939D01*
X59659222Y-63907639D01*
X59743266Y-64114616D01*
X59779629Y-64173955D01*
X59853072Y-64293803D01*
X59859987Y-64305088D01*
X60006250Y-64473938D01*
X60178126Y-64616632D01*
X60248595Y-64657811D01*
X60251445Y-64659476D01*
X60300169Y-64711114D01*
X60313240Y-64780897D01*
X60286509Y-64846669D01*
X60246055Y-64880027D01*
X60233607Y-64886507D01*
X60229474Y-64889610D01*
X60229471Y-64889612D01*
X60059100Y-65017530D01*
X60054965Y-65020635D01*
X59900629Y-65182138D01*
X59774743Y-65366680D01*
X59757652Y-65403500D01*
X59686290Y-65557237D01*
X59680688Y-65569305D01*
X59620989Y-65784570D01*
X59597251Y-66006695D01*
X59597548Y-66011848D01*
X59597548Y-66011851D01*
X59603011Y-66106590D01*
X59610110Y-66229715D01*
X59611247Y-66234761D01*
X59611248Y-66234767D01*
X59631119Y-66322939D01*
X59659222Y-66447639D01*
X59743266Y-66654616D01*
X59779629Y-66713955D01*
X59853072Y-66833803D01*
X59859987Y-66845088D01*
X60006250Y-67013938D01*
X60178126Y-67156632D01*
X60248595Y-67197811D01*
X60251445Y-67199476D01*
X60300169Y-67251114D01*
X60313240Y-67320897D01*
X60286509Y-67386669D01*
X60246055Y-67420027D01*
X60233607Y-67426507D01*
X60229474Y-67429610D01*
X60229471Y-67429612D01*
X60059100Y-67557530D01*
X60054965Y-67560635D01*
X59900629Y-67722138D01*
X59774743Y-67906680D01*
X59757652Y-67943500D01*
X59686290Y-68097237D01*
X59680688Y-68109305D01*
X59620989Y-68324570D01*
X59597251Y-68546695D01*
X59597548Y-68551848D01*
X59597548Y-68551851D01*
X59603011Y-68646590D01*
X59610110Y-68769715D01*
X59611247Y-68774761D01*
X59611248Y-68774767D01*
X59631119Y-68862939D01*
X59659222Y-68987639D01*
X59743266Y-69194616D01*
X59745965Y-69199020D01*
X59853072Y-69373803D01*
X59859987Y-69385088D01*
X60006250Y-69553938D01*
X60084830Y-69619176D01*
X60171580Y-69691197D01*
X60178126Y-69696632D01*
X60248595Y-69737811D01*
X60251445Y-69739476D01*
X60300169Y-69791114D01*
X60313240Y-69860897D01*
X60286509Y-69926669D01*
X60246055Y-69960027D01*
X60233607Y-69966507D01*
X60229474Y-69969610D01*
X60229471Y-69969612D01*
X60059100Y-70097530D01*
X60054965Y-70100635D01*
X59900629Y-70262138D01*
X59897715Y-70266410D01*
X59897714Y-70266411D01*
X59879838Y-70292617D01*
X59774743Y-70446680D01*
X59757652Y-70483500D01*
X59686290Y-70637237D01*
X59680688Y-70649305D01*
X59620989Y-70864570D01*
X59597251Y-71086695D01*
X57658000Y-71086695D01*
X57658000Y-48260000D01*
X58516411Y-48260000D01*
X58536754Y-48648176D01*
X58597562Y-49032099D01*
X58698167Y-49407562D01*
X58699352Y-49410650D01*
X58699353Y-49410652D01*
X58742007Y-49521770D01*
X58837468Y-49770453D01*
X58838966Y-49773393D01*
X58998733Y-50086952D01*
X59013938Y-50116794D01*
X59015734Y-50119560D01*
X59015736Y-50119563D01*
X59189250Y-50386752D01*
X59225643Y-50442793D01*
X59325893Y-50566591D01*
X59448709Y-50718255D01*
X59470266Y-50744876D01*
X59745124Y-51019734D01*
X59747682Y-51021806D01*
X59747686Y-51021809D01*
X59865904Y-51117540D01*
X60047207Y-51264357D01*
X60049970Y-51266152D01*
X60049971Y-51266152D01*
X60350021Y-51461006D01*
X60373205Y-51476062D01*
X60376139Y-51477557D01*
X60376146Y-51477561D01*
X60694537Y-51639789D01*
X60719547Y-51652532D01*
X61082438Y-51791833D01*
X61457901Y-51892438D01*
X61661793Y-51924732D01*
X61838576Y-51952732D01*
X61838584Y-51952733D01*
X61841824Y-51953246D01*
X62230000Y-51973589D01*
X62618176Y-51953246D01*
X62621416Y-51952733D01*
X62621424Y-51952732D01*
X62798207Y-51924732D01*
X63002099Y-51892438D01*
X63377562Y-51791833D01*
X63740453Y-51652532D01*
X63765463Y-51639789D01*
X64083854Y-51477561D01*
X64083861Y-51477557D01*
X64086795Y-51476062D01*
X64109980Y-51461006D01*
X64410029Y-51266152D01*
X64410030Y-51266152D01*
X64412793Y-51264357D01*
X64594096Y-51117540D01*
X64712314Y-51021809D01*
X64712318Y-51021806D01*
X64714876Y-51019734D01*
X64989734Y-50744876D01*
X65011292Y-50718255D01*
X65134107Y-50566591D01*
X65234357Y-50442793D01*
X65270750Y-50386752D01*
X65444264Y-50119563D01*
X65444266Y-50119560D01*
X65446062Y-50116794D01*
X65461268Y-50086952D01*
X65621034Y-49773393D01*
X65622532Y-49770453D01*
X65717993Y-49521770D01*
X65760647Y-49410652D01*
X65760648Y-49410650D01*
X65761833Y-49407562D01*
X65862438Y-49032099D01*
X65923246Y-48648176D01*
X65943589Y-48260000D01*
X65923246Y-47871824D01*
X65862438Y-47487901D01*
X65761833Y-47112438D01*
X65622532Y-46749547D01*
X65567482Y-46641506D01*
X65447561Y-46406147D01*
X65447557Y-46406140D01*
X65446062Y-46403206D01*
X65441581Y-46396305D01*
X65236152Y-46079971D01*
X65236152Y-46079970D01*
X65234357Y-46077207D01*
X64989734Y-45775124D01*
X64714876Y-45500266D01*
X64412793Y-45255643D01*
X64390848Y-45241392D01*
X64089564Y-45045736D01*
X64089561Y-45045734D01*
X64086795Y-45043938D01*
X64083861Y-45042443D01*
X64083854Y-45042439D01*
X63743393Y-44868966D01*
X63740453Y-44867468D01*
X63377562Y-44728167D01*
X63002099Y-44627562D01*
X62798207Y-44595268D01*
X62621424Y-44567268D01*
X62621416Y-44567267D01*
X62618176Y-44566754D01*
X62230000Y-44546411D01*
X61841824Y-44566754D01*
X61838584Y-44567267D01*
X61838576Y-44567268D01*
X61661793Y-44595268D01*
X61457901Y-44627562D01*
X61082438Y-44728167D01*
X60719547Y-44867468D01*
X60716607Y-44868966D01*
X60376147Y-45042439D01*
X60376140Y-45042443D01*
X60373206Y-45043938D01*
X60370440Y-45045734D01*
X60370437Y-45045736D01*
X60150015Y-45188879D01*
X60047207Y-45255643D01*
X59745124Y-45500266D01*
X59470266Y-45775124D01*
X59225643Y-46077207D01*
X59223848Y-46079970D01*
X59223848Y-46079971D01*
X59018420Y-46396305D01*
X59013938Y-46403206D01*
X59012443Y-46406140D01*
X59012439Y-46406147D01*
X58892518Y-46641506D01*
X58837468Y-46749547D01*
X58698167Y-47112438D01*
X58597562Y-47487901D01*
X58536754Y-47871824D01*
X58516411Y-48260000D01*
X57658000Y-48260000D01*
X57658000Y-43814000D01*
X57678002Y-43745879D01*
X57731658Y-43699386D01*
X57784000Y-43688000D01*
X136526000Y-43688000D01*
X136594121Y-43708002D01*
G37*
%TD.AperFunction*%
%TD*%
M02*
