M48
; DRILL file {KiCad (6.0.10)} date do 05 jan 2023 13:46:34 CET
; FORMAT={-:-/ absolute / inch / decimal}
; #@! TF.CreationDate,2023-01-05T13:46:34+01:00
; #@! TF.GenerationSoftware,Kicad,Pcbnew,(6.0.10)
; #@! TF.FileFunction,Plated,1,2,PTH
FMAT,2
INCH
; #@! TA.AperFunction,Plated,PTH,ViaDrill
T1C0.0157
; #@! TA.AperFunction,Plated,PTH,ComponentDrill
T2C0.0197
; #@! TA.AperFunction,Plated,PTH,ComponentDrill
T3C0.0256
; #@! TA.AperFunction,Plated,PTH,ComponentDrill
T4C0.0300
; #@! TA.AperFunction,Plated,PTH,ComponentDrill
T5C0.0394
; #@! TA.AperFunction,Plated,PTH,ComponentDrill
T6C0.1260
%
G90
G05
T1
X2.8Y-1.75
X2.9Y-1.85
X3.2Y-2.1
X3.3Y-2.1
X3.35Y-1.75
X3.4Y-1.7
X3.4Y-2.1
X3.5Y-2.1
X3.6Y-2.1
X3.9Y-2.1
X4.2Y-2.1
X4.3Y-2.1
X4.4Y-2.1
X4.5Y-2.1
X4.7Y-3.1
X4.75Y-2.25
X4.75Y-2.4
X5.1Y-2.25
X5.15Y-2.35
T2
X1.9055Y-0.9
X1.9055Y-3.4
X1.9332Y-0.8332
X1.9332Y-0.9668
X1.9332Y-3.3332
X1.9332Y-3.4668
X2.0Y-0.8055
X2.0Y-0.9945
X2.0Y-3.3055
X2.0Y-3.4945
X2.0668Y-0.8332
X2.0668Y-0.9668
X2.0668Y-3.3332
X2.0668Y-3.4668
X2.0945Y-0.9
X2.0945Y-3.4
X5.0055Y-0.9
X5.0055Y-3.4
X5.0332Y-0.8332
X5.0332Y-0.9668
X5.0332Y-3.3332
X5.0332Y-3.4668
X5.1Y-0.8055
X5.1Y-0.9945
X5.1Y-3.3055
X5.1Y-3.4945
X5.1668Y-0.8332
X5.1668Y-0.9668
X5.1668Y-3.3332
X5.1668Y-3.4668
X5.1945Y-0.9
X5.1945Y-3.4
T3
X5.0754Y-1.7371
X5.0754Y-1.7871
X5.0754Y-1.8371
X5.0754Y-1.8871
X5.0754Y-1.9371
X5.1254Y-1.7371
X5.1254Y-1.7871
X5.1254Y-1.8371
X5.1254Y-1.8871
X5.1254Y-1.9371
T4
X2.55Y-2.2
X2.55Y-3.2
X2.65Y-2.2
X2.65Y-3.2
X2.75Y-2.2
X2.75Y-3.2
X2.85Y-2.2
X2.85Y-3.2
X2.95Y-2.2
X2.95Y-3.2
X3.05Y-2.2
X3.05Y-3.2
X3.15Y-2.2
X3.15Y-3.2
X3.25Y-2.2
X3.25Y-3.2
X3.35Y-2.2
X3.35Y-3.2
X3.45Y-2.2
X3.45Y-3.2
X3.55Y-2.2
X3.55Y-3.2
X3.65Y-2.2
X3.65Y-3.2
X3.75Y-2.2
X3.75Y-3.2
X3.85Y-2.2
X3.85Y-3.2
X3.95Y-2.2
X3.95Y-3.2
X4.05Y-2.2
X4.05Y-3.2
X4.15Y-2.2
X4.15Y-3.2
X4.25Y-2.2
X4.25Y-3.2
X4.35Y-2.2
X4.35Y-3.2
X4.45Y-2.2
X4.45Y-3.2
X4.55Y-2.2
X4.55Y-3.2
X4.65Y-2.2
X4.65Y-3.2
T5
X2.4Y-1.1
X2.4Y-1.2
X2.5Y-1.1
X2.5Y-1.2
X2.6Y-1.1
X2.6Y-1.2
X2.7Y-1.1
X2.7Y-1.2
X2.8Y-1.1
X2.8Y-1.2
X2.9Y-1.1
X2.9Y-1.2
X3.3Y-1.1
X3.3Y-1.2
X3.4Y-1.1
X3.4Y-1.2
X3.5Y-1.1
X3.5Y-1.2
X3.6Y-1.1
X3.6Y-1.2
X3.7Y-1.1
X3.7Y-1.2
X3.8Y-1.1
X3.8Y-1.2
X4.2Y-1.1
X4.2Y-1.2
X4.3Y-1.1
X4.3Y-1.2
X4.4Y-1.1
X4.4Y-1.2
X4.5Y-1.1
X4.5Y-1.2
X4.6Y-1.1
X4.6Y-1.2
X4.7Y-1.1
X4.7Y-1.2
X5.1Y-1.35
X5.1Y-1.45
T6
X2.0Y-0.9
X2.0Y-3.4
X5.1Y-0.9
X5.1Y-3.4
T0
M30
