%TF.GenerationSoftware,KiCad,Pcbnew,7.0.10*%
%TF.CreationDate,2024-01-17T19:33:19+01:00*%
%TF.ProjectId,RFM9xW_868,52464d39-7857-45f3-9836-382e6b696361,rev?*%
%TF.SameCoordinates,Original*%
%TF.FileFunction,Copper,L1,Top*%
%TF.FilePolarity,Positive*%
%FSLAX46Y46*%
G04 Gerber Fmt 4.6, Leading zero omitted, Abs format (unit mm)*
G04 Created by KiCad (PCBNEW 7.0.10) date 2024-01-17 19:33:19*
%MOMM*%
%LPD*%
G01*
G04 APERTURE LIST*
G04 Aperture macros list*
%AMRoundRect*
0 Rectangle with rounded corners*
0 $1 Rounding radius*
0 $2 $3 $4 $5 $6 $7 $8 $9 X,Y pos of 4 corners*
0 Add a 4 corners polygon primitive as box body*
4,1,4,$2,$3,$4,$5,$6,$7,$8,$9,$2,$3,0*
0 Add four circle primitives for the rounded corners*
1,1,$1+$1,$2,$3*
1,1,$1+$1,$4,$5*
1,1,$1+$1,$6,$7*
1,1,$1+$1,$8,$9*
0 Add four rect primitives between the rounded corners*
20,1,$1+$1,$2,$3,$4,$5,0*
20,1,$1+$1,$4,$5,$6,$7,0*
20,1,$1+$1,$6,$7,$8,$9,0*
20,1,$1+$1,$8,$9,$2,$3,0*%
%AMOutline4P*
0 Free polygon, 4 corners , with rotation*
0 The origin of the aperture is its center*
0 number of corners: always 4*
0 $1 to $8 corner X, Y*
0 $9 Rotation angle, in degrees counterclockwise*
0 create outline with 4 corners*
4,1,4,$1,$2,$3,$4,$5,$6,$7,$8,$1,$2,$9*%
G04 Aperture macros list end*
%TA.AperFunction,EtchedComponent*%
%ADD10C,1.000000*%
%TD*%
%TA.AperFunction,ComponentPad*%
%ADD11R,1.700000X1.700000*%
%TD*%
%TA.AperFunction,ComponentPad*%
%ADD12O,1.700000X1.700000*%
%TD*%
%TA.AperFunction,SMDPad,CuDef*%
%ADD13RoundRect,0.250000X-0.262500X-0.450000X0.262500X-0.450000X0.262500X0.450000X-0.262500X0.450000X0*%
%TD*%
%TA.AperFunction,SMDPad,CuDef*%
%ADD14RoundRect,0.317500X1.157500X0.317500X-1.157500X0.317500X-1.157500X-0.317500X1.157500X-0.317500X0*%
%TD*%
%TA.AperFunction,SMDPad,CuDef*%
%ADD15RoundRect,0.250000X-0.450000X0.262500X-0.450000X-0.262500X0.450000X-0.262500X0.450000X0.262500X0*%
%TD*%
%TA.AperFunction,ComponentPad*%
%ADD16C,1.000000*%
%TD*%
%TA.AperFunction,SMDPad,CuDef*%
%ADD17Outline4P,-0.350000X-0.400000X0.350000X-0.400000X0.050000X0.400000X-0.050000X0.400000X270.000000*%
%TD*%
%TA.AperFunction,ViaPad*%
%ADD18C,0.800000*%
%TD*%
%TA.AperFunction,Conductor*%
%ADD19C,0.250000*%
%TD*%
%TA.AperFunction,Conductor*%
%ADD20C,1.000000*%
%TD*%
G04 APERTURE END LIST*
D10*
%TO.C,AE1*%
X116960000Y-58530000D02*
X105960000Y-58530000D01*
X105960000Y-56530000D02*
X110960000Y-56530000D01*
X105960000Y-54530000D02*
X110960000Y-54530000D01*
X105960000Y-52530000D02*
X110960000Y-52530000D01*
X105960000Y-50530000D02*
X110960000Y-50530000D01*
X105960000Y-48530000D02*
X110960000Y-48530000D01*
X105960000Y-46530000D02*
X110960000Y-46530000D01*
X105960000Y-44530000D02*
X110960000Y-44530000D01*
X105960000Y-42530000D02*
X110960000Y-42530000D01*
X105960000Y-40530000D02*
X110960000Y-40530000D01*
%TD*%
D11*
%TO.P,J1,1,Pin_1*%
%TO.N,VCC*%
X149860000Y-43180000D03*
D12*
%TO.P,J1,2,Pin_2*%
X152400000Y-43180000D03*
%TO.P,J1,3,Pin_3*%
%TO.N,GND*%
X149860000Y-45720000D03*
%TO.P,J1,4,Pin_4*%
X152400000Y-45720000D03*
%TO.P,J1,5,Pin_5*%
%TO.N,SCK*%
X149860000Y-48260000D03*
%TO.P,J1,6,Pin_6*%
%TO.N,unconnected-(J1-Pin_6-Pad6)*%
X152400000Y-48260000D03*
%TO.P,J1,7,Pin_7*%
%TO.N,MISO*%
X149860000Y-50800000D03*
%TO.P,J1,8,Pin_8*%
%TO.N,nCS2*%
X152400000Y-50800000D03*
%TO.P,J1,9,Pin_9*%
%TO.N,MOSI*%
X149860000Y-53340000D03*
%TO.P,J1,10,Pin_10*%
%TO.N,nRESET*%
X152400000Y-53340000D03*
%TO.P,J1,11,Pin_11*%
%TO.N,nCS*%
X149860000Y-55880000D03*
%TO.P,J1,12,Pin_12*%
%TO.N,DIO0*%
X152400000Y-55880000D03*
%TD*%
D13*
%TO.P,M3,1*%
%TO.N,Net-(AE1-A)*%
X121832500Y-54610000D03*
%TO.P,M3,2*%
%TO.N,GND*%
X123657500Y-54610000D03*
%TD*%
D14*
%TO.P,U1,1,GND*%
%TO.N,GND*%
X141415000Y-56530000D03*
%TO.P,U1,2,MISO*%
%TO.N,MISO*%
X141415000Y-54530000D03*
%TO.P,U1,3,MOSI*%
%TO.N,MOSI*%
X141415000Y-52530000D03*
%TO.P,U1,4,SCK*%
%TO.N,SCK*%
X141415000Y-50530000D03*
%TO.P,U1,5,NSS*%
%TO.N,nCS*%
X141415000Y-48530000D03*
%TO.P,U1,6,RESET*%
%TO.N,nRESET*%
X141415000Y-46530000D03*
%TO.P,U1,7,DIO5*%
%TO.N,unconnected-(U1-DIO5-Pad7)*%
X141415000Y-44530000D03*
%TO.P,U1,8,GND*%
%TO.N,GND*%
X141415000Y-42530000D03*
%TO.P,U1,9,ANT*%
%TO.N,Net-(U1-ANT)*%
X126365000Y-42530000D03*
%TO.P,U1,10,GND*%
%TO.N,GND*%
X126365000Y-44530000D03*
%TO.P,U1,11,DIO3*%
%TO.N,unconnected-(U1-DIO3-Pad11)*%
X126365000Y-46530000D03*
%TO.P,U1,12,DIO4*%
%TO.N,unconnected-(U1-DIO4-Pad12)*%
X126365000Y-48530000D03*
%TO.P,U1,13,3.3V*%
%TO.N,VCC*%
X126365000Y-50530000D03*
%TO.P,U1,14,DIO0*%
%TO.N,DIO0*%
X126365000Y-52530000D03*
%TO.P,U1,15,DIO1*%
%TO.N,unconnected-(U1-DIO1-Pad15)*%
X126365000Y-54530000D03*
%TO.P,U1,16,DIO2*%
%TO.N,unconnected-(U1-DIO2-Pad16)*%
X126365000Y-56530000D03*
%TD*%
D13*
%TO.P,M1,1*%
%TO.N,Net-(U1-ANT)*%
X121832500Y-48260000D03*
%TO.P,M1,2*%
%TO.N,GND*%
X123657500Y-48260000D03*
%TD*%
D15*
%TO.P,M2,1*%
%TO.N,Net-(U1-ANT)*%
X121920000Y-50522500D03*
%TO.P,M2,2*%
%TO.N,Net-(AE1-A)*%
X121920000Y-52347500D03*
%TD*%
D16*
%TO.P,AE1,*%
%TO.N,*%
X105960000Y-58530000D03*
X105960000Y-56530000D03*
X110960000Y-56530000D03*
X105960000Y-54530000D03*
X110960000Y-54530000D03*
X105960000Y-52530000D03*
X110960000Y-52530000D03*
X105960000Y-50530000D03*
X110960000Y-50530000D03*
X105960000Y-48530000D03*
X110960000Y-48530000D03*
X105960000Y-46530000D03*
X110960000Y-46530000D03*
X105960000Y-44530000D03*
X110960000Y-44530000D03*
X105960000Y-42530000D03*
X110960000Y-42530000D03*
X105960000Y-40530000D03*
X110960000Y-40530000D03*
D17*
%TO.P,AE1,1,A*%
%TO.N,Net-(AE1-A)*%
X117660000Y-58530000D03*
%TD*%
D18*
%TO.N,GND*%
X142875000Y-38735000D03*
X132080000Y-50165000D03*
X155575000Y-40005000D03*
X154305000Y-60325000D03*
X155575000Y-56515000D03*
X128905000Y-60325000D03*
X123825000Y-60325000D03*
X155575000Y-55245000D03*
X126365000Y-38735000D03*
X155575000Y-41275000D03*
X130175000Y-38735000D03*
X135255000Y-38735000D03*
X132715000Y-60325000D03*
X149225000Y-60325000D03*
X128905000Y-38735000D03*
X155575000Y-57785000D03*
X139065000Y-60325000D03*
X126365000Y-60325000D03*
X144145000Y-38735000D03*
X150495000Y-38735000D03*
X132715000Y-38735000D03*
X131445000Y-60325000D03*
X155575000Y-59055000D03*
X151765000Y-60325000D03*
X137795000Y-60325000D03*
X147955000Y-51435000D03*
X122555000Y-38735000D03*
X155575000Y-38735000D03*
X121285000Y-60325000D03*
X153035000Y-60325000D03*
X145415000Y-38735000D03*
X154305000Y-38735000D03*
X127635000Y-38735000D03*
X133985000Y-60325000D03*
X155575000Y-43815000D03*
X144145000Y-60325000D03*
X155575000Y-45085000D03*
X127635000Y-60325000D03*
X155575000Y-53975000D03*
X155575000Y-51435000D03*
X125095000Y-38735000D03*
X150495000Y-60325000D03*
X155575000Y-42545000D03*
X122555000Y-60325000D03*
X151765000Y-38735000D03*
X137795000Y-38735000D03*
X121285000Y-38735000D03*
X153035000Y-38735000D03*
X155575000Y-52705000D03*
X125095000Y-60325000D03*
X142875000Y-60325000D03*
X120015000Y-38735000D03*
X140335000Y-60325000D03*
X130175000Y-60325000D03*
X149225000Y-38735000D03*
X139065000Y-56515000D03*
X118745000Y-38735000D03*
X155575000Y-50165000D03*
X155575000Y-47625000D03*
X146685000Y-38735000D03*
X146050000Y-48260000D03*
X118745000Y-60325000D03*
X146685000Y-60325000D03*
X155575000Y-46355000D03*
X135255000Y-60325000D03*
X141605000Y-60325000D03*
X155575000Y-60325000D03*
X136525000Y-38735000D03*
X133985000Y-38735000D03*
X155575000Y-48895000D03*
X139065000Y-38735000D03*
X120015000Y-60325000D03*
X123825000Y-38735000D03*
X145415000Y-60325000D03*
X141605000Y-38735000D03*
X147955000Y-38735000D03*
X147955000Y-60325000D03*
X136525000Y-60325000D03*
X140335000Y-38735000D03*
X131445000Y-38735000D03*
%TO.N,nCS*%
X141415000Y-48530000D03*
%TO.N,SCK*%
X141104326Y-50219325D03*
%TO.N,MOSI*%
X140690500Y-52530000D03*
%TO.N,MISO*%
X141415000Y-54530000D03*
%TO.N,VCC*%
X130175000Y-50480000D03*
%TD*%
D19*
%TO.N,GND*%
X149860000Y-45720000D02*
X152400000Y-45720000D01*
X146050000Y-48260000D02*
X148590000Y-45720000D01*
X148590000Y-45720000D02*
X149860000Y-45720000D01*
%TO.N,DIO0*%
X126365000Y-52530000D02*
X134445000Y-52530000D01*
X134445000Y-52530000D02*
X137485000Y-55570000D01*
X151225000Y-57055000D02*
X152400000Y-55880000D01*
X149373299Y-57055000D02*
X151225000Y-57055000D01*
X147888299Y-55570000D02*
X149373299Y-57055000D01*
X137485000Y-55570000D02*
X147888299Y-55570000D01*
%TO.N,nRESET*%
X154305000Y-45720000D02*
X153035000Y-44450000D01*
X144970000Y-44450000D02*
X142890000Y-46530000D01*
X152400000Y-53340000D02*
X154305000Y-51435000D01*
X153035000Y-44450000D02*
X144970000Y-44450000D01*
X154305000Y-51435000D02*
X154305000Y-45720000D01*
X141875000Y-46990000D02*
X141415000Y-46530000D01*
X142890000Y-46530000D02*
X141415000Y-46530000D01*
%TO.N,SCK*%
X147590000Y-50530000D02*
X149860000Y-48260000D01*
X141415000Y-50530000D02*
X147590000Y-50530000D01*
%TO.N,MOSI*%
X149860000Y-53340000D02*
X149050000Y-52530000D01*
X149050000Y-52530000D02*
X140690500Y-52530000D01*
%TO.N,MISO*%
X151130000Y-52070000D02*
X149860000Y-50800000D01*
X150331701Y-54530000D02*
X151130000Y-53731701D01*
X151130000Y-53731701D02*
X151130000Y-52070000D01*
X141415000Y-54530000D02*
X150331701Y-54530000D01*
%TO.N,VCC*%
X126365000Y-50530000D02*
X130125000Y-50530000D01*
X130125000Y-50530000D02*
X130175000Y-50480000D01*
D20*
%TO.N,Net-(AE1-A)*%
X115000000Y-58530000D02*
X119905000Y-58530000D01*
X119905000Y-58530000D02*
X121920000Y-56515000D01*
X121920000Y-56515000D02*
X121920000Y-52895000D01*
%TO.N,Net-(U1-ANT)*%
X126350000Y-42545000D02*
X126365000Y-42530000D01*
X121920000Y-43815000D02*
X121920000Y-50522500D01*
X123190000Y-42545000D02*
X126350000Y-42545000D01*
X121920000Y-43815000D02*
X123190000Y-42545000D01*
%TD*%
%TA.AperFunction,Conductor*%
%TO.N,GND*%
G36*
X156143691Y-38144407D02*
G01*
X156179655Y-38193907D01*
X156184500Y-38224500D01*
X156184500Y-60835500D01*
X156165593Y-60893691D01*
X156116093Y-60929655D01*
X156085500Y-60934500D01*
X118209000Y-60934500D01*
X118150809Y-60915593D01*
X118114845Y-60866093D01*
X118110000Y-60835500D01*
X118110000Y-59329500D01*
X118128907Y-59271309D01*
X118178407Y-59235345D01*
X118209000Y-59230500D01*
X119880845Y-59230500D01*
X119886822Y-59230680D01*
X119916656Y-59232485D01*
X119947605Y-59234358D01*
X119947605Y-59234357D01*
X119947606Y-59234358D01*
X120007539Y-59223374D01*
X120013419Y-59222479D01*
X120073872Y-59215140D01*
X120085462Y-59210744D01*
X120102725Y-59205931D01*
X120114932Y-59203695D01*
X120170487Y-59178690D01*
X120176003Y-59176407D01*
X120177896Y-59175689D01*
X120232930Y-59154818D01*
X120243142Y-59147768D01*
X120258750Y-59138965D01*
X120270057Y-59133878D01*
X120270057Y-59133877D01*
X120270059Y-59133877D01*
X120317995Y-59096321D01*
X120322813Y-59092775D01*
X120372929Y-59058183D01*
X120413312Y-59012598D01*
X120417378Y-59008277D01*
X122398277Y-57027378D01*
X122402598Y-57023312D01*
X122448183Y-56982929D01*
X122482782Y-56932802D01*
X122486324Y-56927990D01*
X122517613Y-56888052D01*
X124689500Y-56888052D01*
X124699497Y-56971297D01*
X124751735Y-57103764D01*
X124751737Y-57103766D01*
X124751738Y-57103769D01*
X124837501Y-57216864D01*
X124837775Y-57217225D01*
X124837779Y-57217228D01*
X124951230Y-57303261D01*
X124951231Y-57303261D01*
X124951236Y-57303265D01*
X125083703Y-57355503D01*
X125166948Y-57365500D01*
X125166950Y-57365500D01*
X127563050Y-57365500D01*
X127563052Y-57365500D01*
X127646297Y-57355503D01*
X127778764Y-57303265D01*
X127892225Y-57217225D01*
X127978265Y-57103764D01*
X128030503Y-56971297D01*
X128040500Y-56888052D01*
X128040500Y-56888016D01*
X139740000Y-56888016D01*
X139749987Y-56971178D01*
X139802175Y-57103516D01*
X139888129Y-57216864D01*
X139888135Y-57216870D01*
X140001483Y-57302824D01*
X140133821Y-57355012D01*
X140216983Y-57364999D01*
X140216990Y-57365000D01*
X141314999Y-57365000D01*
X141315000Y-57364999D01*
X141515000Y-57364999D01*
X141515001Y-57365000D01*
X142613010Y-57365000D01*
X142613016Y-57364999D01*
X142696178Y-57355012D01*
X142828516Y-57302824D01*
X142941864Y-57216870D01*
X142941870Y-57216864D01*
X143027824Y-57103516D01*
X143080012Y-56971178D01*
X143089999Y-56888016D01*
X143090000Y-56888010D01*
X143090000Y-56630001D01*
X143089999Y-56630000D01*
X141515001Y-56630000D01*
X141515000Y-56630001D01*
X141515000Y-57364999D01*
X141315000Y-57364999D01*
X141315000Y-56630001D01*
X141314999Y-56630000D01*
X139740001Y-56630000D01*
X139740000Y-56630001D01*
X139740000Y-56888016D01*
X128040500Y-56888016D01*
X128040500Y-56171948D01*
X128030503Y-56088703D01*
X127978265Y-55956236D01*
X127978261Y-55956231D01*
X127978261Y-55956230D01*
X127892228Y-55842779D01*
X127892225Y-55842775D01*
X127827162Y-55793436D01*
X127778769Y-55756738D01*
X127778766Y-55756737D01*
X127778764Y-55756735D01*
X127646297Y-55704497D01*
X127604674Y-55699498D01*
X127563054Y-55694500D01*
X127563052Y-55694500D01*
X125166948Y-55694500D01*
X125166945Y-55694500D01*
X125104514Y-55701997D01*
X125083703Y-55704497D01*
X124951236Y-55756735D01*
X124951234Y-55756736D01*
X124951230Y-55756738D01*
X124837779Y-55842771D01*
X124837771Y-55842779D01*
X124751738Y-55956230D01*
X124751736Y-55956234D01*
X124751735Y-55956236D01*
X124699497Y-56088703D01*
X124689500Y-56171948D01*
X124689500Y-56888052D01*
X122517613Y-56888052D01*
X122523873Y-56880062D01*
X122523872Y-56880062D01*
X122523877Y-56880057D01*
X122528967Y-56868745D01*
X122537766Y-56853144D01*
X122544818Y-56842930D01*
X122566412Y-56785988D01*
X122568702Y-56780461D01*
X122593694Y-56724932D01*
X122593695Y-56724930D01*
X122595929Y-56712736D01*
X122600743Y-56695465D01*
X122605140Y-56683872D01*
X122612483Y-56623388D01*
X122613373Y-56617542D01*
X122624357Y-56557606D01*
X122620680Y-56496832D01*
X122620500Y-56490856D01*
X122620500Y-55114203D01*
X122945001Y-55114203D01*
X122947850Y-55144600D01*
X122947850Y-55144602D01*
X122992654Y-55272647D01*
X123073207Y-55381790D01*
X123073209Y-55381792D01*
X123182352Y-55462345D01*
X123310398Y-55507149D01*
X123340789Y-55509999D01*
X123557498Y-55509999D01*
X123557500Y-55509998D01*
X123757500Y-55509998D01*
X123757501Y-55509999D01*
X123974203Y-55509999D01*
X124004600Y-55507149D01*
X124004602Y-55507149D01*
X124132647Y-55462345D01*
X124241790Y-55381792D01*
X124241792Y-55381790D01*
X124322345Y-55272647D01*
X124367149Y-55144601D01*
X124369999Y-55114211D01*
X124370000Y-55114210D01*
X124370000Y-54888052D01*
X124689500Y-54888052D01*
X124699497Y-54971297D01*
X124751735Y-55103764D01*
X124751737Y-55103766D01*
X124751738Y-55103769D01*
X124836470Y-55215504D01*
X124837775Y-55217225D01*
X124837779Y-55217228D01*
X124951230Y-55303261D01*
X124951231Y-55303261D01*
X124951236Y-55303265D01*
X125083703Y-55355503D01*
X125166948Y-55365500D01*
X125166950Y-55365500D01*
X127563050Y-55365500D01*
X127563052Y-55365500D01*
X127646297Y-55355503D01*
X127778764Y-55303265D01*
X127892225Y-55217225D01*
X127978265Y-55103764D01*
X128030503Y-54971297D01*
X128040500Y-54888052D01*
X128040500Y-54171948D01*
X128030503Y-54088703D01*
X127978265Y-53956236D01*
X127978261Y-53956231D01*
X127978261Y-53956230D01*
X127892228Y-53842779D01*
X127892225Y-53842775D01*
X127838744Y-53802219D01*
X127778769Y-53756738D01*
X127778766Y-53756737D01*
X127778764Y-53756735D01*
X127646297Y-53704497D01*
X127604674Y-53699498D01*
X127563054Y-53694500D01*
X127563052Y-53694500D01*
X125166948Y-53694500D01*
X125166945Y-53694500D01*
X125104514Y-53701997D01*
X125083703Y-53704497D01*
X124951236Y-53756735D01*
X124951234Y-53756736D01*
X124951230Y-53756738D01*
X124837779Y-53842771D01*
X124837771Y-53842779D01*
X124751738Y-53956230D01*
X124751736Y-53956234D01*
X124751735Y-53956236D01*
X124699497Y-54088703D01*
X124689500Y-54171948D01*
X124689500Y-54888052D01*
X124370000Y-54888052D01*
X124370000Y-54710001D01*
X124369999Y-54710000D01*
X123757501Y-54710000D01*
X123757500Y-54710001D01*
X123757500Y-55509998D01*
X123557500Y-55509998D01*
X123557500Y-54710001D01*
X123557499Y-54710000D01*
X122945002Y-54710000D01*
X122945001Y-54710001D01*
X122945001Y-55114203D01*
X122620500Y-55114203D01*
X122620500Y-54509999D01*
X122945000Y-54509999D01*
X122945001Y-54510000D01*
X123557499Y-54510000D01*
X123557500Y-54509999D01*
X123757500Y-54509999D01*
X123757501Y-54510000D01*
X124369998Y-54510000D01*
X124369999Y-54509999D01*
X124369999Y-54105796D01*
X124367149Y-54075399D01*
X124367149Y-54075397D01*
X124322345Y-53947352D01*
X124241792Y-53838209D01*
X124241790Y-53838207D01*
X124132647Y-53757654D01*
X124004601Y-53712850D01*
X123974211Y-53710000D01*
X123757501Y-53710000D01*
X123757500Y-53710001D01*
X123757500Y-54509999D01*
X123557500Y-54509999D01*
X123557500Y-53710001D01*
X123557499Y-53710000D01*
X123340796Y-53710000D01*
X123310399Y-53712850D01*
X123310397Y-53712850D01*
X123182352Y-53757654D01*
X123073209Y-53838207D01*
X123073207Y-53838209D01*
X122992654Y-53947352D01*
X122947850Y-54075398D01*
X122945000Y-54105788D01*
X122945000Y-54509999D01*
X122620500Y-54509999D01*
X122620500Y-53035007D01*
X122639407Y-52976816D01*
X122660713Y-52955351D01*
X122692150Y-52932150D01*
X122692150Y-52932148D01*
X122692152Y-52932148D01*
X122724696Y-52888052D01*
X124689500Y-52888052D01*
X124699497Y-52971297D01*
X124751735Y-53103764D01*
X124751737Y-53103766D01*
X124751738Y-53103769D01*
X124837771Y-53217220D01*
X124837775Y-53217225D01*
X124837779Y-53217228D01*
X124951230Y-53303261D01*
X124951231Y-53303261D01*
X124951236Y-53303265D01*
X125083703Y-53355503D01*
X125166948Y-53365500D01*
X125166950Y-53365500D01*
X127563050Y-53365500D01*
X127563052Y-53365500D01*
X127646297Y-53355503D01*
X127778764Y-53303265D01*
X127892225Y-53217225D01*
X127978265Y-53103764D01*
X128030503Y-52971297D01*
X128033938Y-52942695D01*
X128059650Y-52887174D01*
X128113085Y-52857369D01*
X128132232Y-52855500D01*
X134269166Y-52855500D01*
X134327357Y-52874407D01*
X134339170Y-52884496D01*
X137241741Y-55787068D01*
X137247565Y-55793424D01*
X137272545Y-55823194D01*
X137306208Y-55842629D01*
X137313473Y-55847257D01*
X137345316Y-55869554D01*
X137346767Y-55869942D01*
X137370659Y-55879840D01*
X137371954Y-55880588D01*
X137383190Y-55882568D01*
X137410233Y-55887337D01*
X137418642Y-55889201D01*
X137456193Y-55899263D01*
X137456194Y-55899262D01*
X137456194Y-55899263D01*
X137494897Y-55895877D01*
X137503525Y-55895500D01*
X139680764Y-55895500D01*
X139738955Y-55914407D01*
X139774919Y-55963907D01*
X139774919Y-56025093D01*
X139772861Y-56030819D01*
X139749987Y-56088821D01*
X139740000Y-56171983D01*
X139740000Y-56429999D01*
X139740001Y-56430000D01*
X143089999Y-56430000D01*
X143090000Y-56429999D01*
X143090000Y-56171989D01*
X143089999Y-56171983D01*
X143080012Y-56088821D01*
X143057139Y-56030819D01*
X143053380Y-55969749D01*
X143086235Y-55918134D01*
X143143154Y-55895687D01*
X143149236Y-55895500D01*
X147712465Y-55895500D01*
X147770656Y-55914407D01*
X147782469Y-55924496D01*
X149130029Y-57272056D01*
X149135863Y-57278423D01*
X149160844Y-57308194D01*
X149194508Y-57327630D01*
X149201781Y-57332264D01*
X149222472Y-57346752D01*
X149233615Y-57354554D01*
X149235066Y-57354942D01*
X149258958Y-57364840D01*
X149260253Y-57365588D01*
X149271489Y-57367568D01*
X149298532Y-57372337D01*
X149306941Y-57374201D01*
X149344492Y-57384263D01*
X149344493Y-57384262D01*
X149344493Y-57384263D01*
X149383196Y-57380877D01*
X149391824Y-57380500D01*
X151206466Y-57380500D01*
X151215094Y-57380876D01*
X151253807Y-57384264D01*
X151291354Y-57374202D01*
X151299784Y-57372334D01*
X151338045Y-57365588D01*
X151339345Y-57364838D01*
X151363236Y-57354942D01*
X151363464Y-57354880D01*
X151364684Y-57354554D01*
X151396533Y-57332251D01*
X151403779Y-57327635D01*
X151437455Y-57308194D01*
X151462443Y-57278413D01*
X151468254Y-57272070D01*
X151871824Y-56868500D01*
X151926339Y-56840725D01*
X151986771Y-56850296D01*
X151988493Y-56851195D01*
X151996046Y-56855232D01*
X152077884Y-56880057D01*
X152194065Y-56915300D01*
X152194070Y-56915301D01*
X152399997Y-56935583D01*
X152400000Y-56935583D01*
X152400003Y-56935583D01*
X152605929Y-56915301D01*
X152605934Y-56915300D01*
X152803954Y-56855232D01*
X152986450Y-56757685D01*
X153146410Y-56626410D01*
X153277685Y-56466450D01*
X153375232Y-56283954D01*
X153435300Y-56085934D01*
X153435301Y-56085929D01*
X153455583Y-55880003D01*
X153455583Y-55879996D01*
X153435301Y-55674070D01*
X153435300Y-55674065D01*
X153385531Y-55509998D01*
X153375232Y-55476046D01*
X153277685Y-55293550D01*
X153260723Y-55272882D01*
X153146414Y-55133595D01*
X153146410Y-55133590D01*
X153122873Y-55114274D01*
X152986452Y-55002316D01*
X152803954Y-54904768D01*
X152605934Y-54844699D01*
X152605929Y-54844698D01*
X152400003Y-54824417D01*
X152399997Y-54824417D01*
X152194070Y-54844698D01*
X152194065Y-54844699D01*
X151996045Y-54904768D01*
X151813547Y-55002316D01*
X151653595Y-55133585D01*
X151653585Y-55133595D01*
X151522316Y-55293547D01*
X151424768Y-55476045D01*
X151364699Y-55674065D01*
X151364698Y-55674070D01*
X151344417Y-55879996D01*
X151344417Y-55880003D01*
X151364698Y-56085929D01*
X151364699Y-56085934D01*
X151424768Y-56283954D01*
X151424770Y-56283959D01*
X151428803Y-56291504D01*
X151439559Y-56351737D01*
X151412857Y-56406788D01*
X151411497Y-56408175D01*
X151119171Y-56700503D01*
X151064654Y-56728281D01*
X151049167Y-56729500D01*
X150731124Y-56729500D01*
X150672933Y-56710593D01*
X150636969Y-56661093D01*
X150636969Y-56599907D01*
X150654596Y-56567695D01*
X150662877Y-56557604D01*
X150737685Y-56466450D01*
X150835232Y-56283954D01*
X150895300Y-56085934D01*
X150895301Y-56085929D01*
X150915583Y-55880003D01*
X150915583Y-55879996D01*
X150895301Y-55674070D01*
X150895300Y-55674065D01*
X150845531Y-55509998D01*
X150835232Y-55476046D01*
X150737685Y-55293550D01*
X150720723Y-55272882D01*
X150606414Y-55133595D01*
X150606410Y-55133590D01*
X150582873Y-55114274D01*
X150442830Y-54999344D01*
X150409843Y-54947813D01*
X150413445Y-54886734D01*
X150452260Y-54839437D01*
X150463802Y-54833089D01*
X150471377Y-54829555D01*
X150471385Y-54829554D01*
X150503234Y-54807251D01*
X150510480Y-54802635D01*
X150544156Y-54783194D01*
X150569144Y-54753413D01*
X150574955Y-54747070D01*
X151347072Y-53974954D01*
X151353431Y-53969129D01*
X151383194Y-53944156D01*
X151383199Y-53944146D01*
X151384181Y-53942978D01*
X151385815Y-53941956D01*
X151389830Y-53938588D01*
X151390302Y-53939151D01*
X151436065Y-53910549D01*
X151497102Y-53914811D01*
X151536554Y-53943801D01*
X151653585Y-54086404D01*
X151653590Y-54086410D01*
X151653595Y-54086414D01*
X151813547Y-54217683D01*
X151813548Y-54217683D01*
X151813550Y-54217685D01*
X151996046Y-54315232D01*
X152133997Y-54357078D01*
X152194065Y-54375300D01*
X152194070Y-54375301D01*
X152399997Y-54395583D01*
X152400000Y-54395583D01*
X152400003Y-54395583D01*
X152605929Y-54375301D01*
X152605934Y-54375300D01*
X152803954Y-54315232D01*
X152986450Y-54217685D01*
X153146410Y-54086410D01*
X153277685Y-53926450D01*
X153375232Y-53743954D01*
X153435300Y-53545934D01*
X153435301Y-53545929D01*
X153455583Y-53340003D01*
X153455583Y-53339996D01*
X153435301Y-53134070D01*
X153435300Y-53134065D01*
X153405251Y-53035007D01*
X153375232Y-52936046D01*
X153373150Y-52932150D01*
X153371195Y-52928493D01*
X153360440Y-52868261D01*
X153387142Y-52813210D01*
X153388453Y-52811871D01*
X154522066Y-51678258D01*
X154528425Y-51672433D01*
X154558194Y-51647455D01*
X154577635Y-51613779D01*
X154582251Y-51606533D01*
X154604554Y-51574684D01*
X154604942Y-51573236D01*
X154614838Y-51549345D01*
X154615588Y-51548045D01*
X154622334Y-51509784D01*
X154624204Y-51501348D01*
X154634264Y-51463807D01*
X154630877Y-51425091D01*
X154630500Y-51416463D01*
X154630500Y-45738524D01*
X154630877Y-45729895D01*
X154634263Y-45691193D01*
X154624201Y-45653642D01*
X154622335Y-45645224D01*
X154615588Y-45606954D01*
X154614840Y-45605659D01*
X154604942Y-45581767D01*
X154604554Y-45580316D01*
X154582257Y-45548473D01*
X154577626Y-45541203D01*
X154558194Y-45507545D01*
X154528434Y-45482573D01*
X154522066Y-45476739D01*
X153278268Y-44232942D01*
X153272434Y-44226574D01*
X153247456Y-44196806D01*
X153213795Y-44177372D01*
X153206512Y-44172732D01*
X153174685Y-44150446D01*
X153174679Y-44150443D01*
X153173224Y-44150054D01*
X153149348Y-44140164D01*
X153148043Y-44139410D01*
X153145147Y-44138900D01*
X153141907Y-44137177D01*
X153139904Y-44136448D01*
X153140006Y-44136166D01*
X153091125Y-44110173D01*
X153064305Y-44055179D01*
X153074932Y-43994924D01*
X153099538Y-43964877D01*
X153146400Y-43926418D01*
X153146410Y-43926410D01*
X153277685Y-43766450D01*
X153375232Y-43583954D01*
X153435300Y-43385934D01*
X153435301Y-43385929D01*
X153455583Y-43180003D01*
X153455583Y-43179996D01*
X153435301Y-42974070D01*
X153435300Y-42974065D01*
X153409197Y-42888016D01*
X153375232Y-42776046D01*
X153277685Y-42593550D01*
X153146410Y-42433590D01*
X152996123Y-42310253D01*
X152986452Y-42302316D01*
X152803954Y-42204768D01*
X152605934Y-42144699D01*
X152605929Y-42144698D01*
X152400003Y-42124417D01*
X152399997Y-42124417D01*
X152194070Y-42144698D01*
X152194065Y-42144699D01*
X151996045Y-42204768D01*
X151813547Y-42302316D01*
X151653595Y-42433585D01*
X151653585Y-42433595D01*
X151522316Y-42593547D01*
X151424768Y-42776045D01*
X151364699Y-42974065D01*
X151364698Y-42974070D01*
X151344417Y-43179996D01*
X151344417Y-43180003D01*
X151364698Y-43385929D01*
X151364699Y-43385934D01*
X151424768Y-43583954D01*
X151522316Y-43766452D01*
X151584953Y-43842775D01*
X151653590Y-43926410D01*
X151653595Y-43926414D01*
X151681082Y-43948972D01*
X151714069Y-44000503D01*
X151710467Y-44061583D01*
X151671652Y-44108879D01*
X151618277Y-44124500D01*
X151009500Y-44124500D01*
X150951309Y-44105593D01*
X150915345Y-44056093D01*
X150910500Y-44025500D01*
X150910500Y-42310253D01*
X150910498Y-42310241D01*
X150907711Y-42296231D01*
X150898867Y-42251769D01*
X150854552Y-42185448D01*
X150834350Y-42171949D01*
X150788233Y-42141134D01*
X150788231Y-42141133D01*
X150788228Y-42141132D01*
X150788227Y-42141132D01*
X150729758Y-42129501D01*
X150729748Y-42129500D01*
X148990252Y-42129500D01*
X148990251Y-42129500D01*
X148990241Y-42129501D01*
X148931772Y-42141132D01*
X148931766Y-42141134D01*
X148865451Y-42185445D01*
X148865445Y-42185451D01*
X148821134Y-42251766D01*
X148821132Y-42251772D01*
X148809501Y-42310241D01*
X148809500Y-42310253D01*
X148809500Y-44025500D01*
X148790593Y-44083691D01*
X148741093Y-44119655D01*
X148710500Y-44124500D01*
X144988526Y-44124500D01*
X144979898Y-44124123D01*
X144941194Y-44120736D01*
X144941189Y-44120737D01*
X144903656Y-44130794D01*
X144895227Y-44132663D01*
X144856956Y-44139411D01*
X144856948Y-44139414D01*
X144855640Y-44140170D01*
X144831786Y-44150051D01*
X144830324Y-44150442D01*
X144830314Y-44150447D01*
X144798483Y-44172734D01*
X144791207Y-44177369D01*
X144757545Y-44196805D01*
X144732574Y-44226564D01*
X144726741Y-44232930D01*
X143097840Y-45861832D01*
X143043323Y-45889609D01*
X142982891Y-45880038D01*
X142948953Y-45851647D01*
X142942225Y-45842775D01*
X142875122Y-45791889D01*
X142828769Y-45756738D01*
X142828766Y-45756737D01*
X142828764Y-45756735D01*
X142696297Y-45704497D01*
X142654674Y-45699498D01*
X142613054Y-45694500D01*
X142613052Y-45694500D01*
X140216948Y-45694500D01*
X140216945Y-45694500D01*
X140154514Y-45701997D01*
X140133703Y-45704497D01*
X140001236Y-45756735D01*
X140001234Y-45756736D01*
X140001230Y-45756738D01*
X139887779Y-45842771D01*
X139887771Y-45842779D01*
X139801738Y-45956230D01*
X139801736Y-45956234D01*
X139801735Y-45956236D01*
X139749497Y-46088703D01*
X139739500Y-46171948D01*
X139739500Y-46888052D01*
X139749497Y-46971297D01*
X139801735Y-47103764D01*
X139801737Y-47103766D01*
X139801738Y-47103769D01*
X139878062Y-47204417D01*
X139887775Y-47217225D01*
X139887779Y-47217228D01*
X140001230Y-47303261D01*
X140001231Y-47303261D01*
X140001236Y-47303265D01*
X140133703Y-47355503D01*
X140216948Y-47365500D01*
X140216950Y-47365500D01*
X142613050Y-47365500D01*
X142613052Y-47365500D01*
X142696297Y-47355503D01*
X142828764Y-47303265D01*
X142942225Y-47217225D01*
X143028265Y-47103764D01*
X143080503Y-46971297D01*
X143090500Y-46888052D01*
X143090500Y-46833473D01*
X143109407Y-46775282D01*
X143113648Y-46769853D01*
X143127442Y-46753414D01*
X143133254Y-46747070D01*
X145075831Y-44804496D01*
X145130348Y-44776719D01*
X145145835Y-44775500D01*
X149079064Y-44775500D01*
X149137255Y-44794407D01*
X149173219Y-44843907D01*
X149173219Y-44905093D01*
X149141868Y-44951028D01*
X149113953Y-44973936D01*
X149113940Y-44973949D01*
X148982731Y-45133829D01*
X148982724Y-45133839D01*
X148885234Y-45316232D01*
X148885232Y-45316237D01*
X148825191Y-45514163D01*
X148825190Y-45514168D01*
X148814767Y-45619999D01*
X148814768Y-45620000D01*
X149368254Y-45620000D01*
X149360000Y-45648111D01*
X149360000Y-45791889D01*
X149368254Y-45820000D01*
X148814767Y-45820000D01*
X148825190Y-45925831D01*
X148825191Y-45925836D01*
X148885232Y-46123762D01*
X148885234Y-46123767D01*
X148982724Y-46306160D01*
X148982731Y-46306170D01*
X149113940Y-46466050D01*
X149113949Y-46466059D01*
X149273829Y-46597268D01*
X149273839Y-46597275D01*
X149456232Y-46694765D01*
X149456237Y-46694767D01*
X149654166Y-46754808D01*
X149759998Y-46765231D01*
X149760000Y-46765230D01*
X149760000Y-46210764D01*
X149824237Y-46220000D01*
X149895763Y-46220000D01*
X149960000Y-46210764D01*
X149960000Y-46765230D01*
X149960001Y-46765231D01*
X150065833Y-46754808D01*
X150263762Y-46694767D01*
X150263767Y-46694765D01*
X150446160Y-46597275D01*
X150446170Y-46597268D01*
X150606050Y-46466059D01*
X150606059Y-46466050D01*
X150737268Y-46306170D01*
X150737275Y-46306160D01*
X150834765Y-46123767D01*
X150834767Y-46123762D01*
X150894808Y-45925836D01*
X150894809Y-45925831D01*
X150905232Y-45820000D01*
X150351746Y-45820000D01*
X150360000Y-45791889D01*
X150360000Y-45648111D01*
X150351746Y-45620000D01*
X150905232Y-45620000D01*
X150905232Y-45619999D01*
X150894809Y-45514168D01*
X150894808Y-45514163D01*
X150834767Y-45316237D01*
X150834765Y-45316232D01*
X150737275Y-45133839D01*
X150737268Y-45133829D01*
X150606059Y-44973949D01*
X150606046Y-44973936D01*
X150578132Y-44951028D01*
X150545144Y-44899497D01*
X150548745Y-44838418D01*
X150587561Y-44791121D01*
X150640936Y-44775500D01*
X151619064Y-44775500D01*
X151677255Y-44794407D01*
X151713219Y-44843907D01*
X151713219Y-44905093D01*
X151681868Y-44951028D01*
X151653953Y-44973936D01*
X151653940Y-44973949D01*
X151522731Y-45133829D01*
X151522724Y-45133839D01*
X151425234Y-45316232D01*
X151425232Y-45316237D01*
X151365191Y-45514163D01*
X151365190Y-45514168D01*
X151354767Y-45619999D01*
X151354768Y-45620000D01*
X151908254Y-45620000D01*
X151900000Y-45648111D01*
X151900000Y-45791889D01*
X151908254Y-45820000D01*
X151354767Y-45820000D01*
X151365190Y-45925831D01*
X151365191Y-45925836D01*
X151425232Y-46123762D01*
X151425234Y-46123767D01*
X151522724Y-46306160D01*
X151522731Y-46306170D01*
X151653940Y-46466050D01*
X151653949Y-46466059D01*
X151813829Y-46597268D01*
X151813839Y-46597275D01*
X151996232Y-46694765D01*
X151996237Y-46694767D01*
X152194166Y-46754808D01*
X152299998Y-46765231D01*
X152300000Y-46765230D01*
X152300000Y-46210764D01*
X152364237Y-46220000D01*
X152435763Y-46220000D01*
X152500000Y-46210764D01*
X152500000Y-46765230D01*
X152500001Y-46765231D01*
X152605833Y-46754808D01*
X152803762Y-46694767D01*
X152803767Y-46694765D01*
X152986160Y-46597275D01*
X152986170Y-46597268D01*
X153146050Y-46466059D01*
X153146059Y-46466050D01*
X153277268Y-46306170D01*
X153277275Y-46306160D01*
X153374765Y-46123767D01*
X153374767Y-46123762D01*
X153434808Y-45925836D01*
X153434809Y-45925831D01*
X153445232Y-45820000D01*
X152891746Y-45820000D01*
X152900000Y-45791889D01*
X152900000Y-45648111D01*
X152891746Y-45620000D01*
X153445232Y-45620000D01*
X153445232Y-45619999D01*
X153439638Y-45563199D01*
X153452750Y-45503435D01*
X153498487Y-45462792D01*
X153559377Y-45456795D01*
X153608165Y-45483491D01*
X153950504Y-45825830D01*
X153978281Y-45880347D01*
X153979500Y-45895834D01*
X153979500Y-51259165D01*
X153960593Y-51317356D01*
X153950504Y-51329169D01*
X152928175Y-52351497D01*
X152873658Y-52379274D01*
X152813226Y-52369703D01*
X152811510Y-52368807D01*
X152803954Y-52364768D01*
X152757865Y-52350787D01*
X152605934Y-52304699D01*
X152605929Y-52304698D01*
X152400003Y-52284417D01*
X152399997Y-52284417D01*
X152194070Y-52304698D01*
X152194065Y-52304699D01*
X151996045Y-52364768D01*
X151813547Y-52462316D01*
X151653595Y-52593585D01*
X151653585Y-52593595D01*
X151631028Y-52621082D01*
X151579497Y-52654069D01*
X151518417Y-52650467D01*
X151471121Y-52611652D01*
X151455500Y-52558277D01*
X151455500Y-52088524D01*
X151455877Y-52079895D01*
X151459263Y-52041193D01*
X151456460Y-52030734D01*
X151449201Y-52003642D01*
X151447335Y-51995224D01*
X151440588Y-51956954D01*
X151439840Y-51955659D01*
X151429942Y-51931767D01*
X151429554Y-51930316D01*
X151407257Y-51898473D01*
X151402626Y-51891203D01*
X151383194Y-51857545D01*
X151353434Y-51832573D01*
X151347066Y-51826739D01*
X150848502Y-51328175D01*
X150820725Y-51273658D01*
X150830296Y-51213226D01*
X150831154Y-51211582D01*
X150835232Y-51203954D01*
X150895300Y-51005934D01*
X150895301Y-51005929D01*
X150915583Y-50800003D01*
X151344417Y-50800003D01*
X151364698Y-51005929D01*
X151364699Y-51005934D01*
X151424768Y-51203954D01*
X151522316Y-51386452D01*
X151585799Y-51463806D01*
X151653590Y-51546410D01*
X151653595Y-51546414D01*
X151813547Y-51677683D01*
X151813548Y-51677683D01*
X151813550Y-51677685D01*
X151996046Y-51775232D01*
X152133997Y-51817078D01*
X152194065Y-51835300D01*
X152194070Y-51835301D01*
X152399997Y-51855583D01*
X152400000Y-51855583D01*
X152400003Y-51855583D01*
X152605929Y-51835301D01*
X152605934Y-51835300D01*
X152614924Y-51832573D01*
X152803954Y-51775232D01*
X152986450Y-51677685D01*
X153146410Y-51546410D01*
X153277685Y-51386450D01*
X153375232Y-51203954D01*
X153435300Y-51005934D01*
X153435301Y-51005929D01*
X153455583Y-50800003D01*
X153455583Y-50799996D01*
X153435301Y-50594070D01*
X153435300Y-50594065D01*
X153400699Y-50480000D01*
X153375232Y-50396046D01*
X153277685Y-50213550D01*
X153271263Y-50205725D01*
X153146414Y-50053595D01*
X153146410Y-50053590D01*
X153138521Y-50047116D01*
X152986452Y-49922316D01*
X152803954Y-49824768D01*
X152605934Y-49764699D01*
X152605929Y-49764698D01*
X152400003Y-49744417D01*
X152399997Y-49744417D01*
X152194070Y-49764698D01*
X152194065Y-49764699D01*
X151996045Y-49824768D01*
X151813547Y-49922316D01*
X151653595Y-50053585D01*
X151653585Y-50053595D01*
X151522316Y-50213547D01*
X151424768Y-50396045D01*
X151364699Y-50594065D01*
X151364698Y-50594070D01*
X151344417Y-50799996D01*
X151344417Y-50800003D01*
X150915583Y-50800003D01*
X150915583Y-50799996D01*
X150895301Y-50594070D01*
X150895300Y-50594065D01*
X150860699Y-50480000D01*
X150835232Y-50396046D01*
X150737685Y-50213550D01*
X150731263Y-50205725D01*
X150606414Y-50053595D01*
X150606410Y-50053590D01*
X150598521Y-50047116D01*
X150446452Y-49922316D01*
X150263954Y-49824768D01*
X150065934Y-49764699D01*
X150065929Y-49764698D01*
X149860003Y-49744417D01*
X149859997Y-49744417D01*
X149654070Y-49764698D01*
X149654065Y-49764699D01*
X149456045Y-49824768D01*
X149273547Y-49922316D01*
X149113595Y-50053585D01*
X149113585Y-50053595D01*
X148982316Y-50213547D01*
X148884768Y-50396045D01*
X148824699Y-50594065D01*
X148824698Y-50594070D01*
X148804417Y-50799996D01*
X148804417Y-50800003D01*
X148824698Y-51005929D01*
X148824699Y-51005934D01*
X148884768Y-51203954D01*
X148982316Y-51386452D01*
X149045799Y-51463806D01*
X149113590Y-51546410D01*
X149113595Y-51546414D01*
X149273547Y-51677683D01*
X149273548Y-51677683D01*
X149273550Y-51677685D01*
X149456046Y-51775232D01*
X149593997Y-51817078D01*
X149654065Y-51835300D01*
X149654070Y-51835301D01*
X149859997Y-51855583D01*
X149860000Y-51855583D01*
X149860003Y-51855583D01*
X150065929Y-51835301D01*
X150065934Y-51835300D01*
X150074924Y-51832573D01*
X150263954Y-51775232D01*
X150271503Y-51771196D01*
X150331733Y-51760439D01*
X150386786Y-51787139D01*
X150388175Y-51788502D01*
X150775503Y-52175829D01*
X150803281Y-52230346D01*
X150804500Y-52245833D01*
X150804500Y-52558277D01*
X150785593Y-52616468D01*
X150736093Y-52652432D01*
X150674907Y-52652432D01*
X150628972Y-52621082D01*
X150606414Y-52593595D01*
X150606410Y-52593590D01*
X150563381Y-52558277D01*
X150446452Y-52462316D01*
X150263954Y-52364768D01*
X150065934Y-52304699D01*
X150065929Y-52304698D01*
X149860003Y-52284417D01*
X149859997Y-52284417D01*
X149654070Y-52304698D01*
X149654065Y-52304699D01*
X149456052Y-52364766D01*
X149456049Y-52364767D01*
X149456046Y-52364768D01*
X149456044Y-52364768D01*
X149456041Y-52364770D01*
X149448489Y-52368807D01*
X149388255Y-52379558D01*
X149333206Y-52352852D01*
X149331823Y-52351497D01*
X149293268Y-52312942D01*
X149287434Y-52306574D01*
X149262456Y-52276806D01*
X149228795Y-52257372D01*
X149221512Y-52252732D01*
X149189685Y-52230446D01*
X149189679Y-52230443D01*
X149188224Y-52230054D01*
X149164348Y-52220164D01*
X149163045Y-52219411D01*
X149124779Y-52212664D01*
X149116350Y-52210795D01*
X149095282Y-52205150D01*
X149078807Y-52200736D01*
X149078806Y-52200736D01*
X149078805Y-52200736D01*
X149040095Y-52204123D01*
X149031466Y-52204500D01*
X143182232Y-52204500D01*
X143124041Y-52185593D01*
X143088077Y-52136093D01*
X143083938Y-52117305D01*
X143083535Y-52113952D01*
X143080503Y-52088703D01*
X143028265Y-51956236D01*
X143028261Y-51956231D01*
X143028261Y-51956230D01*
X142942228Y-51842779D01*
X142942225Y-51842775D01*
X142928772Y-51832573D01*
X142828769Y-51756738D01*
X142828766Y-51756737D01*
X142828764Y-51756735D01*
X142696297Y-51704497D01*
X142654674Y-51699498D01*
X142613054Y-51694500D01*
X142613052Y-51694500D01*
X140216948Y-51694500D01*
X140216945Y-51694500D01*
X140154514Y-51701997D01*
X140133703Y-51704497D01*
X140001236Y-51756735D01*
X140001234Y-51756736D01*
X140001230Y-51756738D01*
X139887779Y-51842771D01*
X139887771Y-51842779D01*
X139801738Y-51956230D01*
X139801736Y-51956234D01*
X139801735Y-51956236D01*
X139749497Y-52088703D01*
X139739500Y-52171948D01*
X139739500Y-52888052D01*
X139749497Y-52971297D01*
X139801735Y-53103764D01*
X139801737Y-53103766D01*
X139801738Y-53103769D01*
X139887771Y-53217220D01*
X139887775Y-53217225D01*
X139887779Y-53217228D01*
X140001230Y-53303261D01*
X140001231Y-53303261D01*
X140001236Y-53303265D01*
X140133703Y-53355503D01*
X140216948Y-53365500D01*
X140216950Y-53365500D01*
X142613050Y-53365500D01*
X142613052Y-53365500D01*
X142696297Y-53355503D01*
X142828764Y-53303265D01*
X142942225Y-53217225D01*
X143028265Y-53103764D01*
X143080503Y-52971297D01*
X143083938Y-52942695D01*
X143109650Y-52887174D01*
X143163085Y-52857369D01*
X143182232Y-52855500D01*
X148775716Y-52855500D01*
X148833907Y-52874407D01*
X148869871Y-52923907D01*
X148870452Y-52983236D01*
X148860391Y-53016406D01*
X148824699Y-53134065D01*
X148824698Y-53134070D01*
X148804417Y-53339996D01*
X148804417Y-53340003D01*
X148824698Y-53545929D01*
X148824699Y-53545934D01*
X148884768Y-53743954D01*
X148982316Y-53926452D01*
X149077714Y-54042695D01*
X149100014Y-54099672D01*
X149084565Y-54158875D01*
X149037268Y-54197690D01*
X149001186Y-54204500D01*
X143182232Y-54204500D01*
X143124041Y-54185593D01*
X143088077Y-54136093D01*
X143083938Y-54117305D01*
X143083535Y-54113952D01*
X143080503Y-54088703D01*
X143028265Y-53956236D01*
X143028261Y-53956231D01*
X143028261Y-53956230D01*
X142942228Y-53842779D01*
X142942225Y-53842775D01*
X142888744Y-53802219D01*
X142828769Y-53756738D01*
X142828766Y-53756737D01*
X142828764Y-53756735D01*
X142696297Y-53704497D01*
X142654674Y-53699498D01*
X142613054Y-53694500D01*
X142613052Y-53694500D01*
X140216948Y-53694500D01*
X140216945Y-53694500D01*
X140154514Y-53701997D01*
X140133703Y-53704497D01*
X140001236Y-53756735D01*
X140001234Y-53756736D01*
X140001230Y-53756738D01*
X139887779Y-53842771D01*
X139887771Y-53842779D01*
X139801738Y-53956230D01*
X139801736Y-53956234D01*
X139801735Y-53956236D01*
X139749497Y-54088703D01*
X139739500Y-54171948D01*
X139739500Y-54888052D01*
X139749497Y-54971297D01*
X139801735Y-55103764D01*
X139801736Y-55103766D01*
X139803872Y-55109181D01*
X139807630Y-55170251D01*
X139774775Y-55221867D01*
X139717855Y-55244313D01*
X139711774Y-55244500D01*
X137660835Y-55244500D01*
X137602644Y-55225593D01*
X137590831Y-55215504D01*
X134688268Y-52312942D01*
X134682434Y-52306574D01*
X134657456Y-52276806D01*
X134623795Y-52257372D01*
X134616512Y-52252732D01*
X134584685Y-52230446D01*
X134584679Y-52230443D01*
X134583224Y-52230054D01*
X134559348Y-52220164D01*
X134558045Y-52219411D01*
X134519779Y-52212664D01*
X134511350Y-52210795D01*
X134490282Y-52205150D01*
X134473807Y-52200736D01*
X134473806Y-52200736D01*
X134473805Y-52200736D01*
X134435095Y-52204123D01*
X134426466Y-52204500D01*
X128132232Y-52204500D01*
X128074041Y-52185593D01*
X128038077Y-52136093D01*
X128033938Y-52117305D01*
X128033535Y-52113952D01*
X128030503Y-52088703D01*
X127978265Y-51956236D01*
X127978261Y-51956231D01*
X127978261Y-51956230D01*
X127892228Y-51842779D01*
X127892225Y-51842775D01*
X127878772Y-51832573D01*
X127778769Y-51756738D01*
X127778766Y-51756737D01*
X127778764Y-51756735D01*
X127646297Y-51704497D01*
X127604674Y-51699498D01*
X127563054Y-51694500D01*
X127563052Y-51694500D01*
X125166948Y-51694500D01*
X125166945Y-51694500D01*
X125104514Y-51701997D01*
X125083703Y-51704497D01*
X124951236Y-51756735D01*
X124951234Y-51756736D01*
X124951230Y-51756738D01*
X124837779Y-51842771D01*
X124837771Y-51842779D01*
X124751738Y-51956230D01*
X124751736Y-51956234D01*
X124751735Y-51956236D01*
X124699497Y-52088703D01*
X124689500Y-52171948D01*
X124689500Y-52888052D01*
X122724696Y-52888052D01*
X122772792Y-52822883D01*
X122772791Y-52822883D01*
X122772793Y-52822882D01*
X122817646Y-52694699D01*
X122820499Y-52664273D01*
X122820500Y-52664273D01*
X122820500Y-52030727D01*
X122820499Y-52030725D01*
X122817646Y-52000305D01*
X122817646Y-52000301D01*
X122772793Y-51872118D01*
X122762036Y-51857543D01*
X122692154Y-51762855D01*
X122692152Y-51762853D01*
X122692150Y-51762850D01*
X122692146Y-51762847D01*
X122692144Y-51762845D01*
X122582883Y-51682207D01*
X122454703Y-51637355D01*
X122454694Y-51637353D01*
X122424274Y-51634500D01*
X122424266Y-51634500D01*
X121415734Y-51634500D01*
X121415725Y-51634500D01*
X121385305Y-51637353D01*
X121385296Y-51637355D01*
X121257116Y-51682207D01*
X121147855Y-51762845D01*
X121147845Y-51762855D01*
X121067207Y-51872116D01*
X121022355Y-52000296D01*
X121022353Y-52000305D01*
X121019500Y-52030725D01*
X121019500Y-52664274D01*
X121022353Y-52694694D01*
X121022355Y-52694703D01*
X121067207Y-52822883D01*
X121147847Y-52932148D01*
X121179287Y-52955351D01*
X121214880Y-53005118D01*
X121219500Y-53035007D01*
X121219500Y-53843686D01*
X121200593Y-53901877D01*
X121200155Y-53902474D01*
X121167207Y-53947116D01*
X121122355Y-54075296D01*
X121122353Y-54075305D01*
X121119500Y-54105725D01*
X121119500Y-55114274D01*
X121122353Y-55144694D01*
X121122355Y-55144703D01*
X121167206Y-55272881D01*
X121167207Y-55272882D01*
X121200154Y-55317524D01*
X121219497Y-55375570D01*
X121219500Y-55376312D01*
X121219500Y-56183835D01*
X121200593Y-56242026D01*
X121190504Y-56253839D01*
X119643839Y-57800504D01*
X119589322Y-57828281D01*
X119573835Y-57829500D01*
X118209000Y-57829500D01*
X118150809Y-57810593D01*
X118114845Y-57761093D01*
X118110000Y-57730500D01*
X118110000Y-50839274D01*
X121019500Y-50839274D01*
X121022353Y-50869694D01*
X121022355Y-50869703D01*
X121067207Y-50997883D01*
X121147845Y-51107144D01*
X121147847Y-51107146D01*
X121147850Y-51107150D01*
X121147853Y-51107152D01*
X121147855Y-51107154D01*
X121257116Y-51187792D01*
X121257117Y-51187792D01*
X121257118Y-51187793D01*
X121385301Y-51232646D01*
X121415725Y-51235499D01*
X121415727Y-51235500D01*
X121415734Y-51235500D01*
X122424273Y-51235500D01*
X122424273Y-51235499D01*
X122454699Y-51232646D01*
X122582882Y-51187793D01*
X122692150Y-51107150D01*
X122772793Y-50997882D01*
X122811224Y-50888052D01*
X124689500Y-50888052D01*
X124699497Y-50971297D01*
X124751735Y-51103764D01*
X124751737Y-51103766D01*
X124751738Y-51103769D01*
X124827711Y-51203954D01*
X124837775Y-51217225D01*
X124837779Y-51217228D01*
X124951230Y-51303261D01*
X124951231Y-51303261D01*
X124951236Y-51303265D01*
X125083703Y-51355503D01*
X125166948Y-51365500D01*
X125166950Y-51365500D01*
X127563050Y-51365500D01*
X127563052Y-51365500D01*
X127646297Y-51355503D01*
X127778764Y-51303265D01*
X127892225Y-51217225D01*
X127978265Y-51103764D01*
X128030503Y-50971297D01*
X128033938Y-50942695D01*
X128059650Y-50887174D01*
X128113085Y-50857369D01*
X128132232Y-50855500D01*
X129657396Y-50855500D01*
X129715587Y-50874407D01*
X129735937Y-50894232D01*
X129746718Y-50908282D01*
X129872159Y-51004536D01*
X130018238Y-51065044D01*
X130135809Y-51080522D01*
X130174999Y-51085682D01*
X130175000Y-51085682D01*
X130175001Y-51085682D01*
X130206352Y-51081554D01*
X130331762Y-51065044D01*
X130477841Y-51004536D01*
X130603282Y-50908282D01*
X130618805Y-50888052D01*
X139739500Y-50888052D01*
X139749497Y-50971297D01*
X139801735Y-51103764D01*
X139801737Y-51103766D01*
X139801738Y-51103769D01*
X139877711Y-51203954D01*
X139887775Y-51217225D01*
X139887779Y-51217228D01*
X140001230Y-51303261D01*
X140001231Y-51303261D01*
X140001236Y-51303265D01*
X140133703Y-51355503D01*
X140216948Y-51365500D01*
X140216950Y-51365500D01*
X142613050Y-51365500D01*
X142613052Y-51365500D01*
X142696297Y-51355503D01*
X142828764Y-51303265D01*
X142942225Y-51217225D01*
X143028265Y-51103764D01*
X143080503Y-50971297D01*
X143083938Y-50942695D01*
X143109650Y-50887174D01*
X143163085Y-50857369D01*
X143182232Y-50855500D01*
X147571466Y-50855500D01*
X147580094Y-50855876D01*
X147618807Y-50859264D01*
X147656354Y-50849202D01*
X147664784Y-50847334D01*
X147703045Y-50840588D01*
X147704345Y-50839838D01*
X147728236Y-50829942D01*
X147728464Y-50829880D01*
X147729684Y-50829554D01*
X147761533Y-50807251D01*
X147768779Y-50802635D01*
X147802455Y-50783194D01*
X147827443Y-50753413D01*
X147833254Y-50747070D01*
X149331824Y-49248500D01*
X149386339Y-49220725D01*
X149446771Y-49230296D01*
X149448493Y-49231195D01*
X149456046Y-49235232D01*
X149567841Y-49269144D01*
X149654065Y-49295300D01*
X149654070Y-49295301D01*
X149859997Y-49315583D01*
X149860000Y-49315583D01*
X149860003Y-49315583D01*
X150065929Y-49295301D01*
X150065934Y-49295300D01*
X150263954Y-49235232D01*
X150446450Y-49137685D01*
X150606410Y-49006410D01*
X150737685Y-48846450D01*
X150835232Y-48663954D01*
X150895300Y-48465934D01*
X150895301Y-48465929D01*
X150915583Y-48260003D01*
X151344417Y-48260003D01*
X151364698Y-48465929D01*
X151364699Y-48465934D01*
X151424768Y-48663954D01*
X151522316Y-48846452D01*
X151643189Y-48993736D01*
X151653590Y-49006410D01*
X151653595Y-49006414D01*
X151813547Y-49137683D01*
X151813548Y-49137683D01*
X151813550Y-49137685D01*
X151996046Y-49235232D01*
X152133997Y-49277078D01*
X152194065Y-49295300D01*
X152194070Y-49295301D01*
X152399997Y-49315583D01*
X152400000Y-49315583D01*
X152400003Y-49315583D01*
X152605929Y-49295301D01*
X152605934Y-49295300D01*
X152803954Y-49235232D01*
X152986450Y-49137685D01*
X153146410Y-49006410D01*
X153277685Y-48846450D01*
X153375232Y-48663954D01*
X153435300Y-48465934D01*
X153435301Y-48465929D01*
X153455583Y-48260003D01*
X153455583Y-48259996D01*
X153435301Y-48054070D01*
X153435300Y-48054065D01*
X153405622Y-47956230D01*
X153375232Y-47856046D01*
X153277685Y-47673550D01*
X153146410Y-47513590D01*
X153017326Y-47407654D01*
X152986452Y-47382316D01*
X152803954Y-47284768D01*
X152605934Y-47224699D01*
X152605929Y-47224698D01*
X152400003Y-47204417D01*
X152399997Y-47204417D01*
X152194070Y-47224698D01*
X152194065Y-47224699D01*
X151996045Y-47284768D01*
X151813547Y-47382316D01*
X151653595Y-47513585D01*
X151653585Y-47513595D01*
X151522316Y-47673547D01*
X151424768Y-47856045D01*
X151364699Y-48054065D01*
X151364698Y-48054070D01*
X151344417Y-48259996D01*
X151344417Y-48260003D01*
X150915583Y-48260003D01*
X150915583Y-48259996D01*
X150895301Y-48054070D01*
X150895300Y-48054065D01*
X150865622Y-47956230D01*
X150835232Y-47856046D01*
X150737685Y-47673550D01*
X150606410Y-47513590D01*
X150477326Y-47407654D01*
X150446452Y-47382316D01*
X150263954Y-47284768D01*
X150065934Y-47224699D01*
X150065929Y-47224698D01*
X149860003Y-47204417D01*
X149859997Y-47204417D01*
X149654070Y-47224698D01*
X149654065Y-47224699D01*
X149456045Y-47284768D01*
X149273547Y-47382316D01*
X149113595Y-47513585D01*
X149113585Y-47513595D01*
X148982316Y-47673547D01*
X148884768Y-47856045D01*
X148824699Y-48054065D01*
X148824698Y-48054070D01*
X148804417Y-48259996D01*
X148804417Y-48260003D01*
X148824698Y-48465929D01*
X148824699Y-48465934D01*
X148870787Y-48617865D01*
X148884768Y-48663954D01*
X148888802Y-48671501D01*
X148899560Y-48731732D01*
X148872860Y-48786785D01*
X148871497Y-48788175D01*
X147484170Y-50175504D01*
X147429653Y-50203281D01*
X147414166Y-50204500D01*
X143182232Y-50204500D01*
X143124041Y-50185593D01*
X143088077Y-50136093D01*
X143083938Y-50117305D01*
X143083535Y-50113952D01*
X143080503Y-50088703D01*
X143028265Y-49956236D01*
X143028261Y-49956231D01*
X143028261Y-49956230D01*
X142942228Y-49842779D01*
X142942225Y-49842775D01*
X142931962Y-49834992D01*
X142828769Y-49756738D01*
X142828766Y-49756737D01*
X142828764Y-49756735D01*
X142696297Y-49704497D01*
X142654674Y-49699498D01*
X142613054Y-49694500D01*
X142613052Y-49694500D01*
X141426161Y-49694500D01*
X141388276Y-49686964D01*
X141261088Y-49634281D01*
X141261085Y-49634280D01*
X141261084Y-49634280D01*
X141104327Y-49613643D01*
X141104325Y-49613643D01*
X140947567Y-49634280D01*
X140947564Y-49634280D01*
X140947564Y-49634281D01*
X140820375Y-49686964D01*
X140782491Y-49694500D01*
X140216945Y-49694500D01*
X140154514Y-49701997D01*
X140133703Y-49704497D01*
X140001236Y-49756735D01*
X140001234Y-49756736D01*
X140001230Y-49756738D01*
X139887779Y-49842771D01*
X139887771Y-49842779D01*
X139801738Y-49956230D01*
X139801736Y-49956234D01*
X139801735Y-49956236D01*
X139749497Y-50088703D01*
X139739500Y-50171948D01*
X139739500Y-50888052D01*
X130618805Y-50888052D01*
X130699536Y-50782841D01*
X130760044Y-50636762D01*
X130780682Y-50480000D01*
X130760044Y-50323238D01*
X130714610Y-50213550D01*
X130699537Y-50177161D01*
X130699537Y-50177160D01*
X130603286Y-50051723D01*
X130603285Y-50051722D01*
X130603282Y-50051718D01*
X130603277Y-50051714D01*
X130603276Y-50051713D01*
X130477838Y-49955462D01*
X130331766Y-49894957D01*
X130331758Y-49894955D01*
X130175001Y-49874318D01*
X130174999Y-49874318D01*
X130018241Y-49894955D01*
X130018233Y-49894957D01*
X129872161Y-49955462D01*
X129872160Y-49955462D01*
X129746723Y-50051713D01*
X129746714Y-50051722D01*
X129696391Y-50117305D01*
X129659204Y-50165767D01*
X129608782Y-50200423D01*
X129580664Y-50204500D01*
X128132232Y-50204500D01*
X128074041Y-50185593D01*
X128038077Y-50136093D01*
X128033938Y-50117305D01*
X128033535Y-50113952D01*
X128030503Y-50088703D01*
X127978265Y-49956236D01*
X127978261Y-49956231D01*
X127978261Y-49956230D01*
X127892228Y-49842779D01*
X127892225Y-49842775D01*
X127881962Y-49834992D01*
X127778769Y-49756738D01*
X127778766Y-49756737D01*
X127778764Y-49756735D01*
X127646297Y-49704497D01*
X127604674Y-49699498D01*
X127563054Y-49694500D01*
X127563052Y-49694500D01*
X125166948Y-49694500D01*
X125166945Y-49694500D01*
X125104514Y-49701997D01*
X125083703Y-49704497D01*
X124951236Y-49756735D01*
X124951234Y-49756736D01*
X124951230Y-49756738D01*
X124837779Y-49842771D01*
X124837771Y-49842779D01*
X124751738Y-49956230D01*
X124751736Y-49956234D01*
X124751735Y-49956236D01*
X124699497Y-50088703D01*
X124689500Y-50171948D01*
X124689500Y-50888052D01*
X122811224Y-50888052D01*
X122817646Y-50869699D01*
X122820499Y-50839273D01*
X122820500Y-50839273D01*
X122820500Y-50205727D01*
X122820499Y-50205725D01*
X122817646Y-50175305D01*
X122817646Y-50175301D01*
X122772793Y-50047118D01*
X122692150Y-49937850D01*
X122660711Y-49914647D01*
X122625119Y-49864880D01*
X122620500Y-49834992D01*
X122620500Y-48764203D01*
X122945001Y-48764203D01*
X122947850Y-48794600D01*
X122947850Y-48794602D01*
X122992654Y-48922647D01*
X123073207Y-49031790D01*
X123073209Y-49031792D01*
X123182352Y-49112345D01*
X123310398Y-49157149D01*
X123340789Y-49159999D01*
X123557498Y-49159999D01*
X123557500Y-49159998D01*
X123757500Y-49159998D01*
X123757501Y-49159999D01*
X123974203Y-49159999D01*
X124004600Y-49157149D01*
X124004602Y-49157149D01*
X124132647Y-49112345D01*
X124241790Y-49031792D01*
X124241792Y-49031790D01*
X124322345Y-48922647D01*
X124334450Y-48888052D01*
X124689500Y-48888052D01*
X124699497Y-48971297D01*
X124751735Y-49103764D01*
X124751737Y-49103766D01*
X124751738Y-49103769D01*
X124792218Y-49157149D01*
X124837775Y-49217225D01*
X124837779Y-49217228D01*
X124951230Y-49303261D01*
X124951231Y-49303261D01*
X124951236Y-49303265D01*
X125083703Y-49355503D01*
X125166948Y-49365500D01*
X125166950Y-49365500D01*
X127563050Y-49365500D01*
X127563052Y-49365500D01*
X127646297Y-49355503D01*
X127778764Y-49303265D01*
X127892225Y-49217225D01*
X127978265Y-49103764D01*
X128030503Y-48971297D01*
X128040500Y-48888052D01*
X139739500Y-48888052D01*
X139749497Y-48971297D01*
X139801735Y-49103764D01*
X139801737Y-49103766D01*
X139801738Y-49103769D01*
X139842218Y-49157149D01*
X139887775Y-49217225D01*
X139887779Y-49217228D01*
X140001230Y-49303261D01*
X140001231Y-49303261D01*
X140001236Y-49303265D01*
X140133703Y-49355503D01*
X140216948Y-49365500D01*
X140216950Y-49365500D01*
X142613050Y-49365500D01*
X142613052Y-49365500D01*
X142696297Y-49355503D01*
X142828764Y-49303265D01*
X142942225Y-49217225D01*
X143028265Y-49103764D01*
X143080503Y-48971297D01*
X143090500Y-48888052D01*
X143090500Y-48171948D01*
X143080503Y-48088703D01*
X143028265Y-47956236D01*
X143028261Y-47956231D01*
X143028261Y-47956230D01*
X142942228Y-47842779D01*
X142942225Y-47842775D01*
X142942220Y-47842771D01*
X142828769Y-47756738D01*
X142828766Y-47756737D01*
X142828764Y-47756735D01*
X142696297Y-47704497D01*
X142654674Y-47699498D01*
X142613054Y-47694500D01*
X142613052Y-47694500D01*
X140216948Y-47694500D01*
X140216945Y-47694500D01*
X140154514Y-47701997D01*
X140133703Y-47704497D01*
X140001236Y-47756735D01*
X140001234Y-47756736D01*
X140001230Y-47756738D01*
X139887779Y-47842771D01*
X139887771Y-47842779D01*
X139801738Y-47956230D01*
X139801736Y-47956234D01*
X139801735Y-47956236D01*
X139749497Y-48088703D01*
X139739500Y-48171948D01*
X139739500Y-48888052D01*
X128040500Y-48888052D01*
X128040500Y-48171948D01*
X128030503Y-48088703D01*
X127978265Y-47956236D01*
X127978261Y-47956231D01*
X127978261Y-47956230D01*
X127892228Y-47842779D01*
X127892225Y-47842775D01*
X127892220Y-47842771D01*
X127778769Y-47756738D01*
X127778766Y-47756737D01*
X127778764Y-47756735D01*
X127646297Y-47704497D01*
X127604674Y-47699498D01*
X127563054Y-47694500D01*
X127563052Y-47694500D01*
X125166948Y-47694500D01*
X125166945Y-47694500D01*
X125104514Y-47701997D01*
X125083703Y-47704497D01*
X124951236Y-47756735D01*
X124951234Y-47756736D01*
X124951230Y-47756738D01*
X124837779Y-47842771D01*
X124837771Y-47842779D01*
X124751738Y-47956230D01*
X124751736Y-47956234D01*
X124751735Y-47956236D01*
X124699497Y-48088703D01*
X124689500Y-48171948D01*
X124689500Y-48888052D01*
X124334450Y-48888052D01*
X124367149Y-48794601D01*
X124369999Y-48764211D01*
X124370000Y-48764210D01*
X124370000Y-48360001D01*
X124369999Y-48360000D01*
X123757501Y-48360000D01*
X123757500Y-48360001D01*
X123757500Y-49159998D01*
X123557500Y-49159998D01*
X123557500Y-48360001D01*
X123557499Y-48360000D01*
X122945002Y-48360000D01*
X122945001Y-48360001D01*
X122945001Y-48764203D01*
X122620500Y-48764203D01*
X122620500Y-48159999D01*
X122945000Y-48159999D01*
X122945001Y-48160000D01*
X123557499Y-48160000D01*
X123557500Y-48159999D01*
X123757500Y-48159999D01*
X123757501Y-48160000D01*
X124369998Y-48160000D01*
X124369999Y-48159999D01*
X124369999Y-47755796D01*
X124367149Y-47725399D01*
X124367149Y-47725397D01*
X124322345Y-47597352D01*
X124241792Y-47488209D01*
X124241790Y-47488207D01*
X124132647Y-47407654D01*
X124004601Y-47362850D01*
X123974211Y-47360000D01*
X123757501Y-47360000D01*
X123757500Y-47360001D01*
X123757500Y-48159999D01*
X123557500Y-48159999D01*
X123557500Y-47360001D01*
X123557499Y-47360000D01*
X123340796Y-47360000D01*
X123310399Y-47362850D01*
X123310397Y-47362850D01*
X123182352Y-47407654D01*
X123073209Y-47488207D01*
X123073207Y-47488209D01*
X122992654Y-47597352D01*
X122947850Y-47725398D01*
X122945000Y-47755788D01*
X122945000Y-48159999D01*
X122620500Y-48159999D01*
X122620500Y-46888052D01*
X124689500Y-46888052D01*
X124699497Y-46971297D01*
X124751735Y-47103764D01*
X124751737Y-47103766D01*
X124751738Y-47103769D01*
X124828062Y-47204417D01*
X124837775Y-47217225D01*
X124837779Y-47217228D01*
X124951230Y-47303261D01*
X124951231Y-47303261D01*
X124951236Y-47303265D01*
X125083703Y-47355503D01*
X125166948Y-47365500D01*
X125166950Y-47365500D01*
X127563050Y-47365500D01*
X127563052Y-47365500D01*
X127646297Y-47355503D01*
X127778764Y-47303265D01*
X127892225Y-47217225D01*
X127978265Y-47103764D01*
X128030503Y-46971297D01*
X128040500Y-46888052D01*
X128040500Y-46171948D01*
X128030503Y-46088703D01*
X127978265Y-45956236D01*
X127978261Y-45956231D01*
X127978261Y-45956230D01*
X127892228Y-45842779D01*
X127892225Y-45842775D01*
X127825122Y-45791889D01*
X127778769Y-45756738D01*
X127778766Y-45756737D01*
X127778764Y-45756735D01*
X127646297Y-45704497D01*
X127604674Y-45699498D01*
X127563054Y-45694500D01*
X127563052Y-45694500D01*
X125166948Y-45694500D01*
X125166945Y-45694500D01*
X125104514Y-45701997D01*
X125083703Y-45704497D01*
X124951236Y-45756735D01*
X124951234Y-45756736D01*
X124951230Y-45756738D01*
X124837779Y-45842771D01*
X124837771Y-45842779D01*
X124751738Y-45956230D01*
X124751736Y-45956234D01*
X124751735Y-45956236D01*
X124699497Y-46088703D01*
X124689500Y-46171948D01*
X124689500Y-46888052D01*
X122620500Y-46888052D01*
X122620500Y-44888016D01*
X124690000Y-44888016D01*
X124699987Y-44971178D01*
X124752175Y-45103516D01*
X124838129Y-45216864D01*
X124838135Y-45216870D01*
X124951483Y-45302824D01*
X125083821Y-45355012D01*
X125166983Y-45364999D01*
X125166990Y-45365000D01*
X126264999Y-45365000D01*
X126265000Y-45364999D01*
X126465000Y-45364999D01*
X126465001Y-45365000D01*
X127563010Y-45365000D01*
X127563016Y-45364999D01*
X127646178Y-45355012D01*
X127778516Y-45302824D01*
X127891864Y-45216870D01*
X127891870Y-45216864D01*
X127977824Y-45103516D01*
X128030012Y-44971178D01*
X128039995Y-44888052D01*
X139739500Y-44888052D01*
X139749497Y-44971297D01*
X139801735Y-45103764D01*
X139801737Y-45103766D01*
X139801738Y-45103769D01*
X139887501Y-45216864D01*
X139887775Y-45217225D01*
X139887779Y-45217228D01*
X140001230Y-45303261D01*
X140001231Y-45303261D01*
X140001236Y-45303265D01*
X140133703Y-45355503D01*
X140216948Y-45365500D01*
X140216950Y-45365500D01*
X142613050Y-45365500D01*
X142613052Y-45365500D01*
X142696297Y-45355503D01*
X142828764Y-45303265D01*
X142942225Y-45217225D01*
X143028265Y-45103764D01*
X143080503Y-44971297D01*
X143090500Y-44888052D01*
X143090500Y-44171948D01*
X143080503Y-44088703D01*
X143028265Y-43956236D01*
X143028261Y-43956231D01*
X143028261Y-43956230D01*
X142942228Y-43842779D01*
X142942225Y-43842775D01*
X142937450Y-43839154D01*
X142828769Y-43756738D01*
X142828766Y-43756737D01*
X142828764Y-43756735D01*
X142696297Y-43704497D01*
X142654674Y-43699498D01*
X142613054Y-43694500D01*
X142613052Y-43694500D01*
X140216948Y-43694500D01*
X140216945Y-43694500D01*
X140154514Y-43701997D01*
X140133703Y-43704497D01*
X140001236Y-43756735D01*
X140001234Y-43756736D01*
X140001230Y-43756738D01*
X139887779Y-43842771D01*
X139887771Y-43842779D01*
X139801738Y-43956230D01*
X139801736Y-43956234D01*
X139801735Y-43956236D01*
X139749497Y-44088703D01*
X139749497Y-44088704D01*
X139742083Y-44150443D01*
X139739500Y-44171948D01*
X139739500Y-44888052D01*
X128039995Y-44888052D01*
X128039999Y-44888016D01*
X128040000Y-44888010D01*
X128040000Y-44630001D01*
X128039999Y-44630000D01*
X126465001Y-44630000D01*
X126465000Y-44630001D01*
X126465000Y-45364999D01*
X126265000Y-45364999D01*
X126265000Y-44630001D01*
X126264999Y-44630000D01*
X124690001Y-44630000D01*
X124690000Y-44630001D01*
X124690000Y-44888016D01*
X122620500Y-44888016D01*
X122620500Y-44429999D01*
X124690000Y-44429999D01*
X124690001Y-44430000D01*
X126264999Y-44430000D01*
X126265000Y-44429999D01*
X126465000Y-44429999D01*
X126465001Y-44430000D01*
X128039999Y-44430000D01*
X128040000Y-44429999D01*
X128040000Y-44171989D01*
X128039999Y-44171983D01*
X128030012Y-44088821D01*
X127977824Y-43956483D01*
X127891870Y-43843135D01*
X127891864Y-43843129D01*
X127778516Y-43757175D01*
X127646178Y-43704987D01*
X127563016Y-43695000D01*
X126465001Y-43695000D01*
X126465000Y-43695001D01*
X126465000Y-44429999D01*
X126265000Y-44429999D01*
X126265000Y-43695001D01*
X126264999Y-43695000D01*
X125166983Y-43695000D01*
X125083821Y-43704987D01*
X124951483Y-43757175D01*
X124838135Y-43843129D01*
X124838129Y-43843135D01*
X124752175Y-43956483D01*
X124699987Y-44088821D01*
X124690000Y-44171983D01*
X124690000Y-44429999D01*
X122620500Y-44429999D01*
X122620500Y-44146165D01*
X122639407Y-44087974D01*
X122649496Y-44076161D01*
X123451161Y-43274496D01*
X123505678Y-43246719D01*
X123521165Y-43245500D01*
X124841769Y-43245500D01*
X124899960Y-43264407D01*
X124901588Y-43265616D01*
X124951236Y-43303265D01*
X125083703Y-43355503D01*
X125166948Y-43365500D01*
X125166950Y-43365500D01*
X127563050Y-43365500D01*
X127563052Y-43365500D01*
X127646297Y-43355503D01*
X127778764Y-43303265D01*
X127892225Y-43217225D01*
X127978265Y-43103764D01*
X128030503Y-42971297D01*
X128040500Y-42888052D01*
X128040500Y-42888016D01*
X139740000Y-42888016D01*
X139749987Y-42971178D01*
X139802175Y-43103516D01*
X139888129Y-43216864D01*
X139888135Y-43216870D01*
X140001483Y-43302824D01*
X140133821Y-43355012D01*
X140216983Y-43364999D01*
X140216990Y-43365000D01*
X141314999Y-43365000D01*
X141315000Y-43364999D01*
X141515000Y-43364999D01*
X141515001Y-43365000D01*
X142613010Y-43365000D01*
X142613016Y-43364999D01*
X142696178Y-43355012D01*
X142828516Y-43302824D01*
X142941864Y-43216870D01*
X142941870Y-43216864D01*
X143027824Y-43103516D01*
X143080012Y-42971178D01*
X143089999Y-42888016D01*
X143090000Y-42888010D01*
X143090000Y-42630001D01*
X143089999Y-42630000D01*
X141515001Y-42630000D01*
X141515000Y-42630001D01*
X141515000Y-43364999D01*
X141315000Y-43364999D01*
X141315000Y-42630001D01*
X141314999Y-42630000D01*
X139740001Y-42630000D01*
X139740000Y-42630001D01*
X139740000Y-42888016D01*
X128040500Y-42888016D01*
X128040500Y-42429999D01*
X139740000Y-42429999D01*
X139740001Y-42430000D01*
X141314999Y-42430000D01*
X141315000Y-42429999D01*
X141515000Y-42429999D01*
X141515001Y-42430000D01*
X143089999Y-42430000D01*
X143090000Y-42429999D01*
X143090000Y-42171989D01*
X143089999Y-42171983D01*
X143080012Y-42088821D01*
X143027824Y-41956483D01*
X142941870Y-41843135D01*
X142941864Y-41843129D01*
X142828516Y-41757175D01*
X142696178Y-41704987D01*
X142613016Y-41695000D01*
X141515001Y-41695000D01*
X141515000Y-41695001D01*
X141515000Y-42429999D01*
X141315000Y-42429999D01*
X141315000Y-41695001D01*
X141314999Y-41695000D01*
X140216983Y-41695000D01*
X140133821Y-41704987D01*
X140001483Y-41757175D01*
X139888135Y-41843129D01*
X139888129Y-41843135D01*
X139802175Y-41956483D01*
X139749987Y-42088821D01*
X139740000Y-42171983D01*
X139740000Y-42429999D01*
X128040500Y-42429999D01*
X128040500Y-42171948D01*
X128030503Y-42088703D01*
X127978265Y-41956236D01*
X127978261Y-41956231D01*
X127978261Y-41956230D01*
X127892228Y-41842779D01*
X127892225Y-41842775D01*
X127889414Y-41840643D01*
X127778769Y-41756738D01*
X127778766Y-41756737D01*
X127778764Y-41756735D01*
X127646297Y-41704497D01*
X127604674Y-41699498D01*
X127563054Y-41694500D01*
X127563052Y-41694500D01*
X125166948Y-41694500D01*
X125166945Y-41694500D01*
X125104514Y-41701997D01*
X125083703Y-41704497D01*
X124951236Y-41756735D01*
X124951234Y-41756736D01*
X124951230Y-41756738D01*
X124862028Y-41824383D01*
X124804237Y-41844479D01*
X124802208Y-41844500D01*
X123214144Y-41844500D01*
X123208167Y-41844319D01*
X123205841Y-41844178D01*
X123147394Y-41840642D01*
X123087484Y-41851620D01*
X123081577Y-41852519D01*
X123021124Y-41859860D01*
X123009522Y-41864260D01*
X122992271Y-41869069D01*
X122980070Y-41871305D01*
X122980063Y-41871307D01*
X122924533Y-41896299D01*
X122919009Y-41898587D01*
X122862070Y-41920181D01*
X122862067Y-41920182D01*
X122851852Y-41927233D01*
X122836260Y-41936027D01*
X122824947Y-41941119D01*
X122824942Y-41941122D01*
X122777000Y-41978681D01*
X122772187Y-41982222D01*
X122722073Y-42016814D01*
X122722071Y-42016816D01*
X122681695Y-42062390D01*
X122677598Y-42066743D01*
X121441743Y-43302598D01*
X121437390Y-43306695D01*
X121391816Y-43347071D01*
X121357224Y-43397186D01*
X121353690Y-43401988D01*
X121325783Y-43437610D01*
X121316121Y-43449944D01*
X121316120Y-43449944D01*
X121311028Y-43461259D01*
X121302230Y-43476858D01*
X121295181Y-43487070D01*
X121295180Y-43487071D01*
X121273593Y-43543993D01*
X121271306Y-43549515D01*
X121246305Y-43605066D01*
X121246302Y-43605074D01*
X121244065Y-43617282D01*
X121239258Y-43634527D01*
X121234860Y-43646125D01*
X121227521Y-43706561D01*
X121226622Y-43712469D01*
X121215641Y-43772395D01*
X121219319Y-43833175D01*
X121219500Y-43839154D01*
X121219500Y-47493686D01*
X121200593Y-47551877D01*
X121200155Y-47552474D01*
X121167207Y-47597116D01*
X121122355Y-47725296D01*
X121122353Y-47725305D01*
X121119500Y-47755725D01*
X121119500Y-48764274D01*
X121122353Y-48794694D01*
X121122355Y-48794703D01*
X121167206Y-48922881D01*
X121167207Y-48922882D01*
X121200154Y-48967524D01*
X121219497Y-49025570D01*
X121219500Y-49026312D01*
X121219500Y-49834992D01*
X121200593Y-49893183D01*
X121179288Y-49914648D01*
X121147849Y-49937850D01*
X121067207Y-50047116D01*
X121022355Y-50175296D01*
X121022353Y-50175305D01*
X121019500Y-50205725D01*
X121019500Y-50839274D01*
X118110000Y-50839274D01*
X118110000Y-38224500D01*
X118128907Y-38166309D01*
X118178407Y-38130345D01*
X118209000Y-38125500D01*
X156085500Y-38125500D01*
X156143691Y-38144407D01*
G37*
%TD.AperFunction*%
%TD*%
M02*
