%TF.GenerationSoftware,KiCad,Pcbnew,7.0.10*%
%TF.CreationDate,2024-01-17T19:42:08+01:00*%
%TF.ProjectId,RFM9xW_868,52464d39-7857-45f3-9836-382e6b696361,rev?*%
%TF.SameCoordinates,Original*%
%TF.FileFunction,Copper,L2,Bot*%
%TF.FilePolarity,Positive*%
%FSLAX46Y46*%
G04 Gerber Fmt 4.6, Leading zero omitted, Abs format (unit mm)*
G04 Created by KiCad (PCBNEW 7.0.10) date 2024-01-17 19:42:08*
%MOMM*%
%LPD*%
G01*
G04 APERTURE LIST*
G04 Aperture macros list*
%AMRoundRect*
0 Rectangle with rounded corners*
0 $1 Rounding radius*
0 $2 $3 $4 $5 $6 $7 $8 $9 X,Y pos of 4 corners*
0 Add a 4 corners polygon primitive as box body*
4,1,4,$2,$3,$4,$5,$6,$7,$8,$9,$2,$3,0*
0 Add four circle primitives for the rounded corners*
1,1,$1+$1,$2,$3*
1,1,$1+$1,$4,$5*
1,1,$1+$1,$6,$7*
1,1,$1+$1,$8,$9*
0 Add four rect primitives between the rounded corners*
20,1,$1+$1,$2,$3,$4,$5,0*
20,1,$1+$1,$4,$5,$6,$7,0*
20,1,$1+$1,$6,$7,$8,$9,0*
20,1,$1+$1,$8,$9,$2,$3,0*%
%AMFreePoly0*
4,1,19,0.550000,-0.750000,0.000000,-0.750000,0.000000,-0.744911,-0.071157,-0.744911,-0.207708,-0.704816,-0.327430,-0.627875,-0.420627,-0.520320,-0.479746,-0.390866,-0.500000,-0.250000,-0.500000,0.250000,-0.479746,0.390866,-0.420627,0.520320,-0.327430,0.627875,-0.207708,0.704816,-0.071157,0.744911,0.000000,0.744911,0.000000,0.750000,0.550000,0.750000,0.550000,-0.750000,0.550000,-0.750000,
$1*%
%AMFreePoly1*
4,1,19,0.000000,0.744911,0.071157,0.744911,0.207708,0.704816,0.327430,0.627875,0.420627,0.520320,0.479746,0.390866,0.500000,0.250000,0.500000,-0.250000,0.479746,-0.390866,0.420627,-0.520320,0.327430,-0.627875,0.207708,-0.704816,0.071157,-0.744911,0.000000,-0.744911,0.000000,-0.750000,-0.550000,-0.750000,-0.550000,0.750000,0.000000,0.750000,0.000000,0.744911,0.000000,0.744911,
$1*%
G04 Aperture macros list end*
%TA.AperFunction,EtchedComponent*%
%ADD10C,1.000000*%
%TD*%
%TA.AperFunction,ComponentPad*%
%ADD11R,1.700000X1.700000*%
%TD*%
%TA.AperFunction,ComponentPad*%
%ADD12O,1.700000X1.700000*%
%TD*%
%TA.AperFunction,ComponentPad*%
%ADD13C,1.000000*%
%TD*%
%TA.AperFunction,SMDPad,CuDef*%
%ADD14FreePoly0,270.000000*%
%TD*%
%TA.AperFunction,SMDPad,CuDef*%
%ADD15R,1.500000X1.000000*%
%TD*%
%TA.AperFunction,SMDPad,CuDef*%
%ADD16FreePoly1,270.000000*%
%TD*%
%TA.AperFunction,SMDPad,CuDef*%
%ADD17RoundRect,0.250000X0.475000X-0.250000X0.475000X0.250000X-0.475000X0.250000X-0.475000X-0.250000X0*%
%TD*%
%TA.AperFunction,SMDPad,CuDef*%
%ADD18RoundRect,0.250000X-0.450000X0.262500X-0.450000X-0.262500X0.450000X-0.262500X0.450000X0.262500X0*%
%TD*%
%TA.AperFunction,SMDPad,CuDef*%
%ADD19RoundRect,0.150000X0.675000X0.150000X-0.675000X0.150000X-0.675000X-0.150000X0.675000X-0.150000X0*%
%TD*%
%TA.AperFunction,ViaPad*%
%ADD20C,0.800000*%
%TD*%
%TA.AperFunction,Conductor*%
%ADD21C,0.250000*%
%TD*%
G04 APERTURE END LIST*
D10*
%TO.C,AE1*%
X105960000Y-58530000D02*
X106960000Y-57530000D01*
X106960000Y-57530000D02*
X109960000Y-57530000D01*
X109960000Y-57530000D02*
X110960000Y-56530000D01*
X105960000Y-56530000D02*
X106960000Y-55530000D01*
X106960000Y-55530000D02*
X109960000Y-55530000D01*
X109960000Y-55530000D02*
X110960000Y-54530000D01*
X105960000Y-54530000D02*
X106960000Y-53530000D01*
X106960000Y-53530000D02*
X109960000Y-53530000D01*
X109960000Y-53530000D02*
X110960000Y-52530000D01*
X105960000Y-52530000D02*
X106960000Y-51530000D01*
X106960000Y-51530000D02*
X109960000Y-51530000D01*
X109960000Y-51530000D02*
X110960000Y-50530000D01*
X105960000Y-50530000D02*
X106960000Y-49530000D01*
X106960000Y-49530000D02*
X109960000Y-49530000D01*
X109960000Y-49530000D02*
X110960000Y-48530000D01*
X105960000Y-48530000D02*
X106960000Y-47530000D01*
X106960000Y-47530000D02*
X109960000Y-47530000D01*
X109960000Y-47530000D02*
X110960000Y-46530000D01*
X105960000Y-46530000D02*
X106960000Y-45530000D01*
X106960000Y-45530000D02*
X109960000Y-45530000D01*
X109960000Y-45530000D02*
X110960000Y-44530000D01*
X105960000Y-44530000D02*
X106960000Y-43530000D01*
X106960000Y-43530000D02*
X109960000Y-43530000D01*
X109960000Y-43530000D02*
X110960000Y-42530000D01*
X105960000Y-42530000D02*
X106960000Y-41530000D01*
X106960000Y-41530000D02*
X109960000Y-41530000D01*
X109960000Y-41530000D02*
X110960000Y-40530000D01*
%TD*%
D11*
%TO.P,J1,1,Pin_1*%
%TO.N,VCC*%
X149860000Y-43180000D03*
D12*
%TO.P,J1,2,Pin_2*%
X152400000Y-43180000D03*
%TO.P,J1,3,Pin_3*%
%TO.N,GND*%
X149860000Y-45720000D03*
%TO.P,J1,4,Pin_4*%
X152400000Y-45720000D03*
%TO.P,J1,5,Pin_5*%
%TO.N,SCK*%
X149860000Y-48260000D03*
%TO.P,J1,6,Pin_6*%
%TO.N,unconnected-(J1-Pin_6-Pad6)*%
X152400000Y-48260000D03*
%TO.P,J1,7,Pin_7*%
%TO.N,MISO*%
X149860000Y-50800000D03*
%TO.P,J1,8,Pin_8*%
%TO.N,nCS2*%
X152400000Y-50800000D03*
%TO.P,J1,9,Pin_9*%
%TO.N,MOSI*%
X149860000Y-53340000D03*
%TO.P,J1,10,Pin_10*%
%TO.N,nRESET*%
X152400000Y-53340000D03*
%TO.P,J1,11,Pin_11*%
%TO.N,nCS*%
X149860000Y-55880000D03*
%TO.P,J1,12,Pin_12*%
%TO.N,DIO0*%
X152400000Y-55880000D03*
%TD*%
D13*
%TO.P,AE1,*%
%TO.N,*%
X105960000Y-58530000D03*
X105960000Y-56530000D03*
X110960000Y-56530000D03*
X105960000Y-54530000D03*
X110960000Y-54530000D03*
X105960000Y-52530000D03*
X110960000Y-52530000D03*
X105960000Y-50530000D03*
X110960000Y-50530000D03*
X105960000Y-48530000D03*
X110960000Y-48530000D03*
X105960000Y-46530000D03*
X110960000Y-46530000D03*
X105960000Y-44530000D03*
X110960000Y-44530000D03*
X105960000Y-42530000D03*
X110960000Y-42530000D03*
X105960000Y-40530000D03*
X110960000Y-40530000D03*
%TD*%
D14*
%TO.P,JP1,1,A*%
%TO.N,GND*%
X146050000Y-48200000D03*
D15*
%TO.P,JP1,2,C*%
%TO.N,Net-(JP1-C)*%
X146050000Y-49500000D03*
D16*
%TO.P,JP1,3,B*%
%TO.N,VCC*%
X146050000Y-50800000D03*
%TD*%
D17*
%TO.P,C1,1*%
%TO.N,VCC*%
X130175000Y-50480000D03*
%TO.P,C1,2*%
%TO.N,GND*%
X130175000Y-48580000D03*
%TD*%
D18*
%TO.P,R2,1*%
%TO.N,VCC*%
X143510000Y-53697500D03*
%TO.P,R2,2*%
%TO.N,nCS*%
X143510000Y-55522500D03*
%TD*%
%TO.P,R1,1*%
%TO.N,VCC*%
X143510000Y-43537500D03*
%TO.P,R1,2*%
%TO.N,nCS2*%
X143510000Y-45362500D03*
%TD*%
D17*
%TO.P,C2,1*%
%TO.N,VCC*%
X138430000Y-45400000D03*
%TO.P,C2,2*%
%TO.N,GND*%
X138430000Y-43500000D03*
%TD*%
D19*
%TO.P,U2,1,~{CS}*%
%TO.N,nCS2*%
X143680000Y-47625000D03*
%TO.P,U2,2,O1/SO*%
%TO.N,MISO*%
X143680000Y-48895000D03*
%TO.P,U2,3,~{WP}*%
%TO.N,Net-(JP1-C)*%
X143680000Y-50165000D03*
%TO.P,U2,4,VSS*%
%TO.N,GND*%
X143680000Y-51435000D03*
%TO.P,U2,5,SI/IO0*%
%TO.N,MOSI*%
X138430000Y-51435000D03*
%TO.P,U2,6,SCLK*%
%TO.N,SCK*%
X138430000Y-50165000D03*
%TO.P,U2,7,NC*%
%TO.N,unconnected-(U2-NC-Pad7)*%
X138430000Y-48895000D03*
%TO.P,U2,8,VCC*%
%TO.N,VCC*%
X138430000Y-47625000D03*
%TD*%
D20*
%TO.N,GND*%
X142875000Y-38735000D03*
X132080000Y-50165000D03*
X155575000Y-40005000D03*
X154305000Y-60325000D03*
X155575000Y-56515000D03*
X128905000Y-60325000D03*
X123825000Y-60325000D03*
X155575000Y-55245000D03*
X126365000Y-38735000D03*
X155575000Y-41275000D03*
X130175000Y-38735000D03*
X135255000Y-38735000D03*
X132715000Y-60325000D03*
X149225000Y-60325000D03*
X128905000Y-38735000D03*
X155575000Y-57785000D03*
X139065000Y-60325000D03*
X126365000Y-60325000D03*
X144145000Y-38735000D03*
X150495000Y-38735000D03*
X132715000Y-38735000D03*
X131445000Y-60325000D03*
X155575000Y-59055000D03*
X151765000Y-60325000D03*
X137795000Y-60325000D03*
X147955000Y-51435000D03*
X122555000Y-38735000D03*
X155575000Y-38735000D03*
X121285000Y-60325000D03*
X153035000Y-60325000D03*
X145415000Y-38735000D03*
X154305000Y-38735000D03*
X127635000Y-38735000D03*
X133985000Y-60325000D03*
X155575000Y-43815000D03*
X144145000Y-60325000D03*
X155575000Y-45085000D03*
X127635000Y-60325000D03*
X155575000Y-53975000D03*
X155575000Y-51435000D03*
X125095000Y-38735000D03*
X150495000Y-60325000D03*
X155575000Y-42545000D03*
X122555000Y-60325000D03*
X151765000Y-38735000D03*
X137795000Y-38735000D03*
X121285000Y-38735000D03*
X153035000Y-38735000D03*
X155575000Y-52705000D03*
X125095000Y-60325000D03*
X142875000Y-60325000D03*
X120015000Y-38735000D03*
X140335000Y-60325000D03*
X130175000Y-60325000D03*
X149225000Y-38735000D03*
X139065000Y-56515000D03*
X118745000Y-38735000D03*
X155575000Y-50165000D03*
X155575000Y-47625000D03*
X146685000Y-38735000D03*
X146050000Y-48260000D03*
X118745000Y-60325000D03*
X146685000Y-60325000D03*
X155575000Y-46355000D03*
X135255000Y-60325000D03*
X141605000Y-60325000D03*
X155575000Y-60325000D03*
X136525000Y-38735000D03*
X133985000Y-38735000D03*
X155575000Y-48895000D03*
X139065000Y-38735000D03*
X120015000Y-60325000D03*
X123825000Y-38735000D03*
X145415000Y-60325000D03*
X141605000Y-38735000D03*
X147955000Y-38735000D03*
X147955000Y-60325000D03*
X136525000Y-60325000D03*
X140335000Y-38735000D03*
X131445000Y-38735000D03*
%TO.N,nCS*%
X141415000Y-48530000D03*
%TO.N,SCK*%
X141104326Y-50219325D03*
%TO.N,MOSI*%
X140690500Y-52530000D03*
%TO.N,MISO*%
X141415000Y-54530000D03*
%TO.N,VCC*%
X130175000Y-50480000D03*
%TD*%
D21*
%TO.N,GND*%
X147655001Y-51734999D02*
X147955000Y-51435000D01*
X147955000Y-51435000D02*
X147955000Y-49355000D01*
X143680000Y-51435000D02*
X143979999Y-51734999D01*
X146800000Y-48200000D02*
X146050000Y-48200000D01*
X147955000Y-49355000D02*
X146800000Y-48200000D01*
X143979999Y-51734999D02*
X147655001Y-51734999D01*
%TO.N,nCS*%
X149502500Y-55522500D02*
X149860000Y-55880000D01*
X143510000Y-55522500D02*
X143327500Y-55705000D01*
X137280000Y-48544092D02*
X137564092Y-48260000D01*
X143510000Y-55522500D02*
X141016592Y-55522500D01*
X140219546Y-54725454D02*
X137280000Y-51785908D01*
X141145000Y-48260000D02*
X141415000Y-48530000D01*
X137280000Y-51785908D02*
X137280000Y-48544092D01*
X140749092Y-55255000D02*
X140219546Y-54725454D01*
X137564092Y-48260000D02*
X141145000Y-48260000D01*
X143510000Y-55522500D02*
X149502500Y-55522500D01*
X141016592Y-55522500D02*
X140219546Y-54725454D01*
%TO.N,SCK*%
X141050001Y-50165000D02*
X141104326Y-50219325D01*
X138430000Y-50165000D02*
X141050001Y-50165000D01*
%TO.N,MOSI*%
X139595500Y-51435000D02*
X140690500Y-52530000D01*
X138430000Y-51435000D02*
X139595500Y-51435000D01*
%TO.N,MISO*%
X143453249Y-48895000D02*
X141415000Y-50933249D01*
X141415000Y-50933249D02*
X141415000Y-54530000D01*
X143680000Y-48895000D02*
X143453249Y-48895000D01*
%TO.N,VCC*%
X143510000Y-53697500D02*
X141865000Y-52052500D01*
X142184645Y-50800000D02*
X146050000Y-50800000D01*
X141865000Y-51119645D02*
X142184645Y-50800000D01*
X152400000Y-43180000D02*
X149860000Y-43180000D01*
X144327500Y-54515000D02*
X152886701Y-54515000D01*
X143867500Y-43180000D02*
X143510000Y-43537500D01*
X141865000Y-52052500D02*
X141865000Y-51119645D01*
X149860000Y-43180000D02*
X143867500Y-43180000D01*
X152886701Y-54515000D02*
X154305000Y-53096701D01*
X138430000Y-47625000D02*
X133030000Y-47625000D01*
X133030000Y-47625000D02*
X130175000Y-50480000D01*
X143510000Y-43537500D02*
X140292500Y-43537500D01*
X138430000Y-45400000D02*
X138430000Y-47625000D01*
X154305000Y-45085000D02*
X152400000Y-43180000D01*
X154305000Y-53096701D02*
X154305000Y-45085000D01*
X143510000Y-53697500D02*
X144327500Y-54515000D01*
X140292500Y-43537500D02*
X138430000Y-45400000D01*
%TO.N,nCS2*%
X143510000Y-45362500D02*
X143510000Y-47455000D01*
X143680000Y-47625000D02*
X144220000Y-47085000D01*
X143510000Y-47625000D02*
X143680000Y-47625000D01*
X153670000Y-49530000D02*
X152400000Y-50800000D01*
X152886701Y-47085000D02*
X153670000Y-47868299D01*
X143510000Y-47455000D02*
X143680000Y-47625000D01*
X153670000Y-47868299D02*
X153670000Y-49530000D01*
X144220000Y-47085000D02*
X152886701Y-47085000D01*
%TO.N,Net-(JP1-C)*%
X144385000Y-50165000D02*
X145050000Y-49500000D01*
X145050000Y-49500000D02*
X146050000Y-49500000D01*
X143680000Y-50165000D02*
X144385000Y-50165000D01*
%TD*%
%TA.AperFunction,Conductor*%
%TO.N,GND*%
G36*
X148768691Y-43524407D02*
G01*
X148804655Y-43573907D01*
X148809500Y-43604500D01*
X148809500Y-44049746D01*
X148809501Y-44049758D01*
X148821132Y-44108227D01*
X148821134Y-44108233D01*
X148860493Y-44167137D01*
X148865448Y-44174552D01*
X148931769Y-44218867D01*
X148976231Y-44227711D01*
X148990241Y-44230498D01*
X148990246Y-44230498D01*
X148990252Y-44230500D01*
X148990253Y-44230500D01*
X150729747Y-44230500D01*
X150729748Y-44230500D01*
X150788231Y-44218867D01*
X150854552Y-44174552D01*
X150898867Y-44108231D01*
X150910500Y-44049748D01*
X150910500Y-43604500D01*
X150929407Y-43546309D01*
X150978907Y-43510345D01*
X151009500Y-43505500D01*
X151327546Y-43505500D01*
X151385737Y-43524407D01*
X151421701Y-43573907D01*
X151422267Y-43575709D01*
X151424768Y-43583954D01*
X151424769Y-43583956D01*
X151522316Y-43766452D01*
X151619355Y-43884694D01*
X151653590Y-43926410D01*
X151653595Y-43926414D01*
X151813547Y-44057683D01*
X151813548Y-44057683D01*
X151813550Y-44057685D01*
X151996046Y-44155232D01*
X152133997Y-44197078D01*
X152194065Y-44215300D01*
X152194070Y-44215301D01*
X152399997Y-44235583D01*
X152400000Y-44235583D01*
X152400003Y-44235583D01*
X152605929Y-44215301D01*
X152605934Y-44215300D01*
X152803954Y-44155232D01*
X152811499Y-44151198D01*
X152871730Y-44140439D01*
X152926783Y-44167137D01*
X152928176Y-44168502D01*
X153950504Y-45190830D01*
X153978281Y-45245347D01*
X153979500Y-45260834D01*
X153979500Y-47478465D01*
X153960593Y-47536656D01*
X153911093Y-47572620D01*
X153849907Y-47572620D01*
X153810496Y-47548469D01*
X153129969Y-46867942D01*
X153124135Y-46861574D01*
X153099157Y-46831806D01*
X153065496Y-46812372D01*
X153058213Y-46807732D01*
X153026386Y-46785446D01*
X153026380Y-46785443D01*
X153024925Y-46785054D01*
X153001049Y-46775164D01*
X152992245Y-46770081D01*
X152993367Y-46768136D01*
X152954627Y-46737861D01*
X152937769Y-46679044D01*
X152958702Y-46621551D01*
X152982933Y-46601197D01*
X152982118Y-46599977D01*
X152986170Y-46597268D01*
X153146050Y-46466059D01*
X153146059Y-46466050D01*
X153277268Y-46306170D01*
X153277275Y-46306160D01*
X153374765Y-46123767D01*
X153374767Y-46123762D01*
X153434808Y-45925836D01*
X153434809Y-45925831D01*
X153445232Y-45820000D01*
X152891746Y-45820000D01*
X152900000Y-45791889D01*
X152900000Y-45648111D01*
X152891746Y-45620000D01*
X153445232Y-45620000D01*
X153445232Y-45619999D01*
X153434809Y-45514168D01*
X153434808Y-45514163D01*
X153374767Y-45316237D01*
X153374765Y-45316232D01*
X153277275Y-45133839D01*
X153277268Y-45133829D01*
X153146059Y-44973949D01*
X153146050Y-44973940D01*
X152986170Y-44842731D01*
X152986160Y-44842724D01*
X152803767Y-44745234D01*
X152803762Y-44745232D01*
X152605836Y-44685191D01*
X152605831Y-44685190D01*
X152500000Y-44674767D01*
X152500000Y-45229235D01*
X152435763Y-45220000D01*
X152364237Y-45220000D01*
X152300000Y-45229235D01*
X152300000Y-44674767D01*
X152299999Y-44674767D01*
X152194168Y-44685190D01*
X152194163Y-44685191D01*
X151996237Y-44745232D01*
X151996232Y-44745234D01*
X151813839Y-44842724D01*
X151813829Y-44842731D01*
X151653949Y-44973940D01*
X151653940Y-44973949D01*
X151522731Y-45133829D01*
X151522724Y-45133839D01*
X151425234Y-45316232D01*
X151425232Y-45316237D01*
X151365191Y-45514163D01*
X151365190Y-45514168D01*
X151354767Y-45619999D01*
X151354768Y-45620000D01*
X151908254Y-45620000D01*
X151900000Y-45648111D01*
X151900000Y-45791889D01*
X151908254Y-45820000D01*
X151354767Y-45820000D01*
X151365190Y-45925831D01*
X151365191Y-45925836D01*
X151425232Y-46123762D01*
X151425234Y-46123767D01*
X151522724Y-46306160D01*
X151522731Y-46306170D01*
X151653940Y-46466050D01*
X151653949Y-46466059D01*
X151797628Y-46583972D01*
X151830615Y-46635503D01*
X151827013Y-46696582D01*
X151788198Y-46743879D01*
X151734823Y-46759500D01*
X150525177Y-46759500D01*
X150466986Y-46740593D01*
X150431022Y-46691093D01*
X150431022Y-46629907D01*
X150462372Y-46583972D01*
X150606050Y-46466059D01*
X150606059Y-46466050D01*
X150737268Y-46306170D01*
X150737275Y-46306160D01*
X150834765Y-46123767D01*
X150834767Y-46123762D01*
X150894808Y-45925836D01*
X150894809Y-45925831D01*
X150905232Y-45820000D01*
X150351746Y-45820000D01*
X150360000Y-45791889D01*
X150360000Y-45648111D01*
X150351746Y-45620000D01*
X150905232Y-45620000D01*
X150905232Y-45619999D01*
X150894809Y-45514168D01*
X150894808Y-45514163D01*
X150834767Y-45316237D01*
X150834765Y-45316232D01*
X150737275Y-45133839D01*
X150737268Y-45133829D01*
X150606059Y-44973949D01*
X150606050Y-44973940D01*
X150446170Y-44842731D01*
X150446160Y-44842724D01*
X150263767Y-44745234D01*
X150263762Y-44745232D01*
X150065836Y-44685191D01*
X150065831Y-44685190D01*
X149960000Y-44674767D01*
X149960000Y-45229235D01*
X149895763Y-45220000D01*
X149824237Y-45220000D01*
X149760000Y-45229235D01*
X149760000Y-44674767D01*
X149759999Y-44674767D01*
X149654168Y-44685190D01*
X149654163Y-44685191D01*
X149456237Y-44745232D01*
X149456232Y-44745234D01*
X149273839Y-44842724D01*
X149273829Y-44842731D01*
X149113949Y-44973940D01*
X149113940Y-44973949D01*
X148982731Y-45133829D01*
X148982724Y-45133839D01*
X148885234Y-45316232D01*
X148885232Y-45316237D01*
X148825191Y-45514163D01*
X148825190Y-45514168D01*
X148814767Y-45619999D01*
X148814768Y-45620000D01*
X149368254Y-45620000D01*
X149360000Y-45648111D01*
X149360000Y-45791889D01*
X149368254Y-45820000D01*
X148814767Y-45820000D01*
X148825190Y-45925831D01*
X148825191Y-45925836D01*
X148885232Y-46123762D01*
X148885234Y-46123767D01*
X148982724Y-46306160D01*
X148982731Y-46306170D01*
X149113940Y-46466050D01*
X149113949Y-46466059D01*
X149257628Y-46583972D01*
X149290615Y-46635503D01*
X149287013Y-46696582D01*
X149248198Y-46743879D01*
X149194823Y-46759500D01*
X144238523Y-46759500D01*
X144229894Y-46759123D01*
X144191194Y-46755737D01*
X144191189Y-46755737D01*
X144153656Y-46765794D01*
X144145227Y-46767663D01*
X144106956Y-46774411D01*
X144106948Y-46774414D01*
X144105640Y-46775170D01*
X144081786Y-46785051D01*
X144080324Y-46785442D01*
X144080314Y-46785447D01*
X144048483Y-46807734D01*
X144041207Y-46812369D01*
X144007545Y-46831805D01*
X144000910Y-46837373D01*
X143999256Y-46835402D01*
X143958449Y-46860901D01*
X143897412Y-46856632D01*
X143850542Y-46817302D01*
X143835500Y-46764841D01*
X143835500Y-46174500D01*
X143854407Y-46116309D01*
X143903907Y-46080345D01*
X143934500Y-46075500D01*
X144014273Y-46075500D01*
X144014273Y-46075499D01*
X144044699Y-46072646D01*
X144172882Y-46027793D01*
X144282150Y-45947150D01*
X144362793Y-45837882D01*
X144407646Y-45709699D01*
X144410499Y-45679273D01*
X144410500Y-45679273D01*
X144410500Y-45045727D01*
X144410499Y-45045725D01*
X144407646Y-45015305D01*
X144407646Y-45015301D01*
X144362793Y-44887118D01*
X144352036Y-44872543D01*
X144282154Y-44777855D01*
X144282152Y-44777853D01*
X144282150Y-44777850D01*
X144282146Y-44777847D01*
X144282144Y-44777845D01*
X144172883Y-44697207D01*
X144044703Y-44652355D01*
X144044694Y-44652353D01*
X144014274Y-44649500D01*
X144014266Y-44649500D01*
X143005734Y-44649500D01*
X143005725Y-44649500D01*
X142975305Y-44652353D01*
X142975296Y-44652355D01*
X142847116Y-44697207D01*
X142737855Y-44777845D01*
X142737845Y-44777855D01*
X142657207Y-44887116D01*
X142612355Y-45015296D01*
X142612353Y-45015305D01*
X142609500Y-45045725D01*
X142609500Y-45679274D01*
X142612353Y-45709694D01*
X142612355Y-45709703D01*
X142657207Y-45837883D01*
X142737845Y-45947144D01*
X142737847Y-45947146D01*
X142737850Y-45947150D01*
X142737853Y-45947152D01*
X142737855Y-45947154D01*
X142847116Y-46027792D01*
X142847117Y-46027792D01*
X142847118Y-46027793D01*
X142975301Y-46072646D01*
X143005725Y-46075499D01*
X143005727Y-46075500D01*
X143005734Y-46075500D01*
X143085500Y-46075500D01*
X143143691Y-46094407D01*
X143179655Y-46143907D01*
X143184500Y-46174500D01*
X143184500Y-47025500D01*
X143165593Y-47083691D01*
X143116093Y-47119655D01*
X143085500Y-47124500D01*
X142971740Y-47124500D01*
X142937673Y-47129463D01*
X142903604Y-47134427D01*
X142798518Y-47185801D01*
X142715801Y-47268518D01*
X142664427Y-47373604D01*
X142664427Y-47373607D01*
X142654500Y-47441740D01*
X142654500Y-47808260D01*
X142656389Y-47821224D01*
X142664427Y-47876395D01*
X142709898Y-47969407D01*
X142715802Y-47981483D01*
X142798517Y-48064198D01*
X142831031Y-48080093D01*
X142903604Y-48115572D01*
X142903605Y-48115572D01*
X142903607Y-48115573D01*
X142971740Y-48125500D01*
X142971743Y-48125500D01*
X144388257Y-48125500D01*
X144388260Y-48125500D01*
X144456393Y-48115573D01*
X144561483Y-48064198D01*
X144644198Y-47981483D01*
X144695573Y-47876393D01*
X144705500Y-47808260D01*
X144705500Y-47509500D01*
X144724407Y-47451309D01*
X144773907Y-47415345D01*
X144804500Y-47410500D01*
X148988876Y-47410500D01*
X149047067Y-47429407D01*
X149083031Y-47478907D01*
X149083031Y-47540093D01*
X149065404Y-47572305D01*
X148982317Y-47673547D01*
X148982316Y-47673547D01*
X148884768Y-47856045D01*
X148824699Y-48054065D01*
X148824698Y-48054070D01*
X148804417Y-48259996D01*
X148804417Y-48260003D01*
X148824698Y-48465929D01*
X148824699Y-48465934D01*
X148884768Y-48663954D01*
X148982316Y-48846452D01*
X149098765Y-48988346D01*
X149113590Y-49006410D01*
X149113595Y-49006414D01*
X149273547Y-49137683D01*
X149273548Y-49137683D01*
X149273550Y-49137685D01*
X149456046Y-49235232D01*
X149593997Y-49277078D01*
X149654065Y-49295300D01*
X149654070Y-49295301D01*
X149859997Y-49315583D01*
X149860000Y-49315583D01*
X149860003Y-49315583D01*
X150065929Y-49295301D01*
X150065934Y-49295300D01*
X150263954Y-49235232D01*
X150446450Y-49137685D01*
X150606410Y-49006410D01*
X150737685Y-48846450D01*
X150835232Y-48663954D01*
X150895300Y-48465934D01*
X150895301Y-48465929D01*
X150915583Y-48260003D01*
X150915583Y-48259996D01*
X150895301Y-48054070D01*
X150895300Y-48054065D01*
X150863157Y-47948105D01*
X150835232Y-47856046D01*
X150737685Y-47673550D01*
X150723154Y-47655844D01*
X150654596Y-47572305D01*
X150632296Y-47515328D01*
X150647745Y-47456125D01*
X150695042Y-47417310D01*
X150731124Y-47410500D01*
X151528876Y-47410500D01*
X151587067Y-47429407D01*
X151623031Y-47478907D01*
X151623031Y-47540093D01*
X151605404Y-47572305D01*
X151522317Y-47673547D01*
X151522316Y-47673547D01*
X151424768Y-47856045D01*
X151364699Y-48054065D01*
X151364698Y-48054070D01*
X151344417Y-48259996D01*
X151344417Y-48260003D01*
X151364698Y-48465929D01*
X151364699Y-48465934D01*
X151424768Y-48663954D01*
X151522316Y-48846452D01*
X151638765Y-48988346D01*
X151653590Y-49006410D01*
X151653595Y-49006414D01*
X151813547Y-49137683D01*
X151813548Y-49137683D01*
X151813550Y-49137685D01*
X151996046Y-49235232D01*
X152133997Y-49277078D01*
X152194065Y-49295300D01*
X152194070Y-49295301D01*
X152399997Y-49315583D01*
X152400000Y-49315583D01*
X152400003Y-49315583D01*
X152605929Y-49295301D01*
X152605934Y-49295300D01*
X152803954Y-49235232D01*
X152986450Y-49137685D01*
X153146410Y-49006410D01*
X153168973Y-48978916D01*
X153220502Y-48945930D01*
X153281581Y-48949531D01*
X153328879Y-48988346D01*
X153344500Y-49041722D01*
X153344500Y-49354165D01*
X153325593Y-49412356D01*
X153315504Y-49424168D01*
X152928174Y-49811497D01*
X152873659Y-49839274D01*
X152813227Y-49829703D01*
X152811504Y-49828803D01*
X152803959Y-49824770D01*
X152803954Y-49824768D01*
X152605934Y-49764699D01*
X152605929Y-49764698D01*
X152400003Y-49744417D01*
X152399997Y-49744417D01*
X152194070Y-49764698D01*
X152194065Y-49764699D01*
X151996045Y-49824768D01*
X151813547Y-49922316D01*
X151653595Y-50053585D01*
X151653585Y-50053595D01*
X151522316Y-50213547D01*
X151424768Y-50396045D01*
X151364699Y-50594065D01*
X151364698Y-50594070D01*
X151344417Y-50799996D01*
X151344417Y-50800003D01*
X151364698Y-51005929D01*
X151364699Y-51005934D01*
X151424768Y-51203954D01*
X151522316Y-51386452D01*
X151644226Y-51535000D01*
X151653590Y-51546410D01*
X151653595Y-51546414D01*
X151813547Y-51677683D01*
X151813548Y-51677683D01*
X151813550Y-51677685D01*
X151996046Y-51775232D01*
X152119751Y-51812757D01*
X152194065Y-51835300D01*
X152194070Y-51835301D01*
X152399997Y-51855583D01*
X152400000Y-51855583D01*
X152400003Y-51855583D01*
X152605929Y-51835301D01*
X152605934Y-51835300D01*
X152803954Y-51775232D01*
X152986450Y-51677685D01*
X153146410Y-51546410D01*
X153277685Y-51386450D01*
X153375232Y-51203954D01*
X153435300Y-51005934D01*
X153435301Y-51005929D01*
X153455583Y-50800003D01*
X153455583Y-50799996D01*
X153435301Y-50594070D01*
X153435300Y-50594065D01*
X153415633Y-50529233D01*
X153375232Y-50396046D01*
X153371196Y-50388496D01*
X153360439Y-50328265D01*
X153387140Y-50273213D01*
X153388503Y-50271823D01*
X153810497Y-49849830D01*
X153865013Y-49822053D01*
X153925445Y-49831624D01*
X153968710Y-49874889D01*
X153979500Y-49919834D01*
X153979500Y-52920866D01*
X153960593Y-52979057D01*
X153950504Y-52990870D01*
X153616665Y-53324709D01*
X153562148Y-53352486D01*
X153501716Y-53342915D01*
X153458451Y-53299650D01*
X153448138Y-53264408D01*
X153435301Y-53134071D01*
X153435300Y-53134065D01*
X153390796Y-52987355D01*
X153375232Y-52936046D01*
X153277685Y-52753550D01*
X153146410Y-52593590D01*
X153068925Y-52530000D01*
X152986452Y-52462316D01*
X152803954Y-52364768D01*
X152605934Y-52304699D01*
X152605929Y-52304698D01*
X152400003Y-52284417D01*
X152399997Y-52284417D01*
X152194070Y-52304698D01*
X152194065Y-52304699D01*
X151996045Y-52364768D01*
X151813547Y-52462316D01*
X151653595Y-52593585D01*
X151653585Y-52593595D01*
X151522316Y-52753547D01*
X151424768Y-52936045D01*
X151364699Y-53134065D01*
X151364698Y-53134070D01*
X151344417Y-53339996D01*
X151344417Y-53340003D01*
X151364698Y-53545929D01*
X151364699Y-53545934D01*
X151424768Y-53743954D01*
X151522316Y-53926452D01*
X151605404Y-54027695D01*
X151627704Y-54084672D01*
X151612255Y-54143875D01*
X151564958Y-54182690D01*
X151528876Y-54189500D01*
X150731124Y-54189500D01*
X150672933Y-54170593D01*
X150636969Y-54121093D01*
X150636969Y-54059907D01*
X150654596Y-54027695D01*
X150675564Y-54002145D01*
X150737685Y-53926450D01*
X150835232Y-53743954D01*
X150895300Y-53545934D01*
X150895301Y-53545929D01*
X150915583Y-53340003D01*
X150915583Y-53339996D01*
X150895301Y-53134070D01*
X150895300Y-53134065D01*
X150850796Y-52987355D01*
X150835232Y-52936046D01*
X150737685Y-52753550D01*
X150606410Y-52593590D01*
X150528925Y-52530000D01*
X150446452Y-52462316D01*
X150263954Y-52364768D01*
X150065934Y-52304699D01*
X150065929Y-52304698D01*
X149860003Y-52284417D01*
X149859997Y-52284417D01*
X149654070Y-52304698D01*
X149654065Y-52304699D01*
X149456045Y-52364768D01*
X149273547Y-52462316D01*
X149113595Y-52593585D01*
X149113585Y-52593595D01*
X148982316Y-52753547D01*
X148884768Y-52936045D01*
X148824699Y-53134065D01*
X148824698Y-53134070D01*
X148804417Y-53339996D01*
X148804417Y-53340003D01*
X148824698Y-53545929D01*
X148824699Y-53545934D01*
X148884768Y-53743954D01*
X148982316Y-53926452D01*
X149065404Y-54027695D01*
X149087704Y-54084672D01*
X149072255Y-54143875D01*
X149024958Y-54182690D01*
X148988876Y-54189500D01*
X144503334Y-54189500D01*
X144445143Y-54170593D01*
X144433330Y-54160504D01*
X144428271Y-54155445D01*
X144400494Y-54100928D01*
X144404831Y-54052741D01*
X144407646Y-54044699D01*
X144410499Y-54014273D01*
X144410500Y-54014273D01*
X144410500Y-53380727D01*
X144410499Y-53380725D01*
X144407646Y-53350305D01*
X144407646Y-53350301D01*
X144362793Y-53222118D01*
X144353662Y-53209746D01*
X144282154Y-53112855D01*
X144282152Y-53112853D01*
X144282150Y-53112850D01*
X144282146Y-53112847D01*
X144282144Y-53112845D01*
X144172883Y-53032207D01*
X144044703Y-52987355D01*
X144044694Y-52987353D01*
X144014274Y-52984500D01*
X144014266Y-52984500D01*
X143298335Y-52984500D01*
X143240144Y-52965593D01*
X143228331Y-52955504D01*
X142219496Y-51946669D01*
X142191719Y-51892152D01*
X142190500Y-51876665D01*
X142190500Y-51618216D01*
X142655001Y-51618216D01*
X142664912Y-51686250D01*
X142716214Y-51791188D01*
X142798812Y-51873786D01*
X142903751Y-51925087D01*
X142971784Y-51934999D01*
X143579998Y-51934999D01*
X143580000Y-51934998D01*
X143780000Y-51934998D01*
X143780001Y-51934999D01*
X144388213Y-51934999D01*
X144388216Y-51934998D01*
X144456250Y-51925087D01*
X144561188Y-51873785D01*
X144643786Y-51791187D01*
X144695087Y-51686248D01*
X144705000Y-51618215D01*
X144705000Y-51535001D01*
X144704999Y-51535000D01*
X143780001Y-51535000D01*
X143780000Y-51535001D01*
X143780000Y-51934998D01*
X143580000Y-51934998D01*
X143580000Y-51535001D01*
X143579999Y-51535000D01*
X142655002Y-51535000D01*
X142655001Y-51535001D01*
X142655001Y-51618216D01*
X142190500Y-51618216D01*
X142190500Y-51295478D01*
X142209407Y-51237287D01*
X142219497Y-51225474D01*
X142290476Y-51154496D01*
X142344993Y-51126719D01*
X142360479Y-51125500D01*
X142558930Y-51125500D01*
X142617121Y-51144407D01*
X142653085Y-51193907D01*
X142656895Y-51238776D01*
X142655000Y-51251777D01*
X142655000Y-51334999D01*
X142655001Y-51335000D01*
X144704998Y-51335000D01*
X144704999Y-51334999D01*
X144704999Y-51251786D01*
X144703103Y-51238773D01*
X144713424Y-51178464D01*
X144757221Y-51135740D01*
X144801069Y-51125500D01*
X145117772Y-51125500D01*
X145175963Y-51144407D01*
X145201054Y-51170974D01*
X145246263Y-51241320D01*
X145284368Y-51285295D01*
X145284375Y-51285301D01*
X145284377Y-51285303D01*
X145393023Y-51379445D01*
X145393036Y-51379454D01*
X145441967Y-51410900D01*
X145441971Y-51410902D01*
X145441977Y-51410906D01*
X145572762Y-51470634D01*
X145628592Y-51487027D01*
X145676030Y-51493847D01*
X145770903Y-51507489D01*
X145770907Y-51507489D01*
X145829095Y-51507489D01*
X145838261Y-51506170D01*
X145843373Y-51505435D01*
X145857463Y-51504428D01*
X146242537Y-51504428D01*
X146256626Y-51505435D01*
X146261738Y-51506170D01*
X146270905Y-51507489D01*
X146270907Y-51507489D01*
X146329097Y-51507489D01*
X146410415Y-51495796D01*
X146471408Y-51487027D01*
X146527238Y-51470634D01*
X146658023Y-51410906D01*
X146706971Y-51379449D01*
X146815632Y-51285295D01*
X146853737Y-51241320D01*
X146853739Y-51241315D01*
X146853744Y-51241310D01*
X146927386Y-51126719D01*
X146931469Y-51120366D01*
X146955640Y-51067438D01*
X146996147Y-50929483D01*
X147004428Y-50871889D01*
X147004428Y-50800003D01*
X148804417Y-50800003D01*
X148824698Y-51005929D01*
X148824699Y-51005934D01*
X148884768Y-51203954D01*
X148982316Y-51386452D01*
X149104226Y-51535000D01*
X149113590Y-51546410D01*
X149113595Y-51546414D01*
X149273547Y-51677683D01*
X149273548Y-51677683D01*
X149273550Y-51677685D01*
X149456046Y-51775232D01*
X149579751Y-51812757D01*
X149654065Y-51835300D01*
X149654070Y-51835301D01*
X149859997Y-51855583D01*
X149860000Y-51855583D01*
X149860003Y-51855583D01*
X150065929Y-51835301D01*
X150065934Y-51835300D01*
X150263954Y-51775232D01*
X150446450Y-51677685D01*
X150606410Y-51546410D01*
X150737685Y-51386450D01*
X150835232Y-51203954D01*
X150895300Y-51005934D01*
X150895301Y-51005929D01*
X150915583Y-50800003D01*
X150915583Y-50799996D01*
X150895301Y-50594070D01*
X150895300Y-50594065D01*
X150859030Y-50474500D01*
X150835232Y-50396046D01*
X150737685Y-50213550D01*
X150712393Y-50182732D01*
X150606414Y-50053595D01*
X150606410Y-50053590D01*
X150602962Y-50050760D01*
X150446452Y-49922316D01*
X150263954Y-49824768D01*
X150065934Y-49764699D01*
X150065929Y-49764698D01*
X149860003Y-49744417D01*
X149859997Y-49744417D01*
X149654070Y-49764698D01*
X149654065Y-49764699D01*
X149456045Y-49824768D01*
X149273547Y-49922316D01*
X149113595Y-50053585D01*
X149113585Y-50053595D01*
X148982316Y-50213547D01*
X148884768Y-50396045D01*
X148824699Y-50594065D01*
X148824698Y-50594070D01*
X148804417Y-50799996D01*
X148804417Y-50800003D01*
X147004428Y-50800003D01*
X147004428Y-50250000D01*
X146988867Y-50171769D01*
X146988865Y-50171766D01*
X146988865Y-50171765D01*
X146985187Y-50162885D01*
X146980386Y-50101888D01*
X146985187Y-50087113D01*
X146988863Y-50078236D01*
X146988867Y-50078231D01*
X147000500Y-50019748D01*
X147000500Y-48980252D01*
X146988867Y-48921769D01*
X146944552Y-48855448D01*
X146910716Y-48832839D01*
X146878233Y-48811134D01*
X146878231Y-48811133D01*
X146878228Y-48811132D01*
X146878227Y-48811132D01*
X146819758Y-48799501D01*
X146819748Y-48799500D01*
X145280252Y-48799500D01*
X145280251Y-48799500D01*
X145280241Y-48799501D01*
X145221772Y-48811132D01*
X145221766Y-48811134D01*
X145155451Y-48855445D01*
X145155445Y-48855451D01*
X145111134Y-48921766D01*
X145111132Y-48921772D01*
X145099501Y-48980241D01*
X145099500Y-48980253D01*
X145099500Y-49073787D01*
X145080593Y-49131978D01*
X145031093Y-49167942D01*
X145026122Y-49169414D01*
X144983650Y-49180794D01*
X144975223Y-49182662D01*
X144936960Y-49189410D01*
X144936948Y-49189414D01*
X144935640Y-49190170D01*
X144911786Y-49200051D01*
X144910324Y-49200442D01*
X144910317Y-49200445D01*
X144910316Y-49200446D01*
X144878475Y-49222740D01*
X144871204Y-49227372D01*
X144843480Y-49243379D01*
X144783632Y-49256101D01*
X144727736Y-49231215D01*
X144697143Y-49178228D01*
X144696013Y-49143372D01*
X144705500Y-49078260D01*
X144705500Y-48711740D01*
X144695573Y-48643607D01*
X144693060Y-48638467D01*
X144667166Y-48585500D01*
X144644198Y-48538517D01*
X144561483Y-48455802D01*
X144561481Y-48455801D01*
X144456395Y-48404427D01*
X144429139Y-48400456D01*
X144388260Y-48394500D01*
X142971740Y-48394500D01*
X142937673Y-48399463D01*
X142903604Y-48404427D01*
X142798518Y-48455801D01*
X142715801Y-48538518D01*
X142664427Y-48643604D01*
X142664427Y-48643607D01*
X142654500Y-48711740D01*
X142654500Y-49078260D01*
X142662327Y-49131978D01*
X142664428Y-49146400D01*
X142665007Y-49148273D01*
X142664979Y-49150180D01*
X142665536Y-49154001D01*
X142664922Y-49154090D01*
X142664118Y-49209452D01*
X142640422Y-49247498D01*
X141833968Y-50053953D01*
X141779451Y-50081730D01*
X141719019Y-50072159D01*
X141675754Y-50028894D01*
X141672500Y-50021835D01*
X141662887Y-49998628D01*
X141628862Y-49916484D01*
X141532608Y-49791043D01*
X141532603Y-49791039D01*
X141532602Y-49791038D01*
X141447583Y-49725801D01*
X141407167Y-49694789D01*
X141407166Y-49694788D01*
X141407164Y-49694787D01*
X141261092Y-49634282D01*
X141261084Y-49634280D01*
X141104327Y-49613643D01*
X141104325Y-49613643D01*
X140947567Y-49634280D01*
X140947559Y-49634282D01*
X140801487Y-49694787D01*
X140801486Y-49694787D01*
X140676049Y-49791038D01*
X140676038Y-49791049D01*
X140668581Y-49800768D01*
X140618156Y-49835424D01*
X140590040Y-49839500D01*
X139466188Y-49839500D01*
X139407997Y-49820593D01*
X139396184Y-49810504D01*
X139394198Y-49808518D01*
X139394198Y-49808517D01*
X139311483Y-49725802D01*
X139311481Y-49725801D01*
X139206395Y-49674427D01*
X139179139Y-49670456D01*
X139138260Y-49664500D01*
X137721740Y-49664500D01*
X137721734Y-49664500D01*
X137718764Y-49664933D01*
X137658456Y-49654607D01*
X137615736Y-49610805D01*
X137605500Y-49566966D01*
X137605500Y-49493033D01*
X137624407Y-49434842D01*
X137673907Y-49398878D01*
X137718776Y-49395068D01*
X137721740Y-49395500D01*
X137721743Y-49395500D01*
X139138257Y-49395500D01*
X139138260Y-49395500D01*
X139206393Y-49385573D01*
X139311483Y-49334198D01*
X139394198Y-49251483D01*
X139445573Y-49146393D01*
X139455500Y-49078260D01*
X139455500Y-48711740D01*
X139453611Y-48698775D01*
X139463929Y-48638467D01*
X139507726Y-48595741D01*
X139551576Y-48585500D01*
X140729804Y-48585500D01*
X140787995Y-48604407D01*
X140823959Y-48653907D01*
X140827957Y-48671578D01*
X140829955Y-48686758D01*
X140829957Y-48686766D01*
X140890462Y-48832838D01*
X140890462Y-48832839D01*
X140958703Y-48921772D01*
X140986718Y-48958282D01*
X141112159Y-49054536D01*
X141112160Y-49054536D01*
X141112161Y-49054537D01*
X141258233Y-49115042D01*
X141258238Y-49115044D01*
X141375809Y-49130522D01*
X141414999Y-49135682D01*
X141415000Y-49135682D01*
X141415001Y-49135682D01*
X141446352Y-49131554D01*
X141571762Y-49115044D01*
X141717841Y-49054536D01*
X141843282Y-48958282D01*
X141939536Y-48832841D01*
X142000044Y-48686762D01*
X142020682Y-48530000D01*
X142000044Y-48373238D01*
X141959679Y-48275788D01*
X141939537Y-48227161D01*
X141939537Y-48227160D01*
X141843286Y-48101723D01*
X141843285Y-48101722D01*
X141843282Y-48101718D01*
X141843277Y-48101714D01*
X141843276Y-48101713D01*
X141721418Y-48008209D01*
X141717841Y-48005464D01*
X141717840Y-48005463D01*
X141717838Y-48005462D01*
X141571766Y-47944957D01*
X141571758Y-47944955D01*
X141415001Y-47924318D01*
X141414999Y-47924318D01*
X141258769Y-47944886D01*
X141228657Y-47944229D01*
X141219781Y-47942664D01*
X141211350Y-47940795D01*
X141186448Y-47934123D01*
X141173807Y-47930736D01*
X141173806Y-47930736D01*
X141173805Y-47930736D01*
X141135095Y-47934123D01*
X141126466Y-47934500D01*
X139551576Y-47934500D01*
X139493385Y-47915593D01*
X139457421Y-47866093D01*
X139453611Y-47821224D01*
X139455500Y-47808260D01*
X139455500Y-47441740D01*
X139445573Y-47373607D01*
X139444692Y-47371805D01*
X139417005Y-47315170D01*
X139394198Y-47268517D01*
X139311483Y-47185802D01*
X139311481Y-47185801D01*
X139206395Y-47134427D01*
X139179139Y-47130456D01*
X139138260Y-47124500D01*
X139138257Y-47124500D01*
X138854500Y-47124500D01*
X138796309Y-47105593D01*
X138760345Y-47056093D01*
X138755500Y-47025500D01*
X138755500Y-46199500D01*
X138774407Y-46141309D01*
X138823907Y-46105345D01*
X138854500Y-46100500D01*
X138959273Y-46100500D01*
X138959273Y-46100499D01*
X138989699Y-46097646D01*
X139117882Y-46052793D01*
X139227150Y-45972150D01*
X139307793Y-45862882D01*
X139352646Y-45734699D01*
X139355499Y-45704273D01*
X139355500Y-45704273D01*
X139355500Y-45095727D01*
X139355499Y-45095725D01*
X139352646Y-45065302D01*
X139349459Y-45056193D01*
X139340109Y-45029474D01*
X139338736Y-44968306D01*
X139363548Y-44926776D01*
X140398330Y-43891996D01*
X140452847Y-43864219D01*
X140468334Y-43863000D01*
X142534517Y-43863000D01*
X142592708Y-43881907D01*
X142627961Y-43929302D01*
X142657207Y-44012883D01*
X142737845Y-44122144D01*
X142737847Y-44122146D01*
X142737850Y-44122150D01*
X142737853Y-44122152D01*
X142737855Y-44122154D01*
X142847116Y-44202792D01*
X142847117Y-44202792D01*
X142847118Y-44202793D01*
X142975301Y-44247646D01*
X143005725Y-44250499D01*
X143005727Y-44250500D01*
X143005734Y-44250500D01*
X144014273Y-44250500D01*
X144014273Y-44250499D01*
X144044699Y-44247646D01*
X144172882Y-44202793D01*
X144282150Y-44122150D01*
X144362793Y-44012882D01*
X144407646Y-43884699D01*
X144410499Y-43854273D01*
X144410500Y-43854273D01*
X144410500Y-43604500D01*
X144429407Y-43546309D01*
X144478907Y-43510345D01*
X144509500Y-43505500D01*
X148710500Y-43505500D01*
X148768691Y-43524407D01*
G37*
%TD.AperFunction*%
%TA.AperFunction,Conductor*%
G36*
X156143691Y-38144407D02*
G01*
X156179655Y-38193907D01*
X156184500Y-38224500D01*
X156184500Y-60835500D01*
X156165593Y-60893691D01*
X156116093Y-60929655D01*
X156085500Y-60934500D01*
X118209000Y-60934500D01*
X118150809Y-60915593D01*
X118114845Y-60866093D01*
X118110000Y-60835500D01*
X118110000Y-50784274D01*
X129249500Y-50784274D01*
X129252353Y-50814694D01*
X129252355Y-50814703D01*
X129297207Y-50942883D01*
X129377845Y-51052144D01*
X129377847Y-51052146D01*
X129377850Y-51052150D01*
X129377853Y-51052152D01*
X129377855Y-51052154D01*
X129487116Y-51132792D01*
X129487117Y-51132792D01*
X129487118Y-51132793D01*
X129615301Y-51177646D01*
X129645725Y-51180499D01*
X129645727Y-51180500D01*
X129645734Y-51180500D01*
X130704273Y-51180500D01*
X130704273Y-51180499D01*
X130734699Y-51177646D01*
X130862882Y-51132793D01*
X130972150Y-51052150D01*
X131052793Y-50942882D01*
X131097646Y-50814699D01*
X131100499Y-50784273D01*
X131100500Y-50784273D01*
X131100500Y-50175727D01*
X131100499Y-50175725D01*
X131097646Y-50145302D01*
X131085110Y-50109476D01*
X131083736Y-50048306D01*
X131108548Y-50006776D01*
X133135830Y-47979496D01*
X133190347Y-47951719D01*
X133205834Y-47950500D01*
X137174257Y-47950500D01*
X137232448Y-47969407D01*
X137268412Y-48018907D01*
X137268412Y-48080093D01*
X137244260Y-48119504D01*
X137062939Y-48300824D01*
X137056574Y-48306656D01*
X137026807Y-48331634D01*
X137026805Y-48331636D01*
X137007371Y-48365297D01*
X137002740Y-48372567D01*
X136980446Y-48404408D01*
X136980446Y-48404409D01*
X136980442Y-48404416D01*
X136980051Y-48405878D01*
X136970170Y-48429732D01*
X136969414Y-48431040D01*
X136969410Y-48431052D01*
X136962662Y-48469315D01*
X136960794Y-48477741D01*
X136950736Y-48515279D01*
X136950736Y-48515286D01*
X136954123Y-48553996D01*
X136954500Y-48562625D01*
X136954500Y-51767373D01*
X136954123Y-51776002D01*
X136950736Y-51814713D01*
X136950736Y-51814714D01*
X136960795Y-51852258D01*
X136962664Y-51860687D01*
X136969411Y-51898953D01*
X136970164Y-51900256D01*
X136980054Y-51924132D01*
X136980443Y-51925587D01*
X136980446Y-51925593D01*
X137002732Y-51957420D01*
X137007372Y-51964703D01*
X137026806Y-51998363D01*
X137056569Y-52023337D01*
X137062938Y-52029172D01*
X139969248Y-54935482D01*
X140773333Y-55739568D01*
X140779157Y-55745924D01*
X140804137Y-55775694D01*
X140837800Y-55795129D01*
X140845065Y-55799757D01*
X140876908Y-55822054D01*
X140878359Y-55822442D01*
X140902251Y-55832340D01*
X140903546Y-55833088D01*
X140914782Y-55835068D01*
X140941825Y-55839837D01*
X140950234Y-55841701D01*
X140987785Y-55851763D01*
X140987786Y-55851762D01*
X140987786Y-55851763D01*
X141026489Y-55848377D01*
X141035117Y-55848000D01*
X142534517Y-55848000D01*
X142592708Y-55866907D01*
X142627961Y-55914302D01*
X142657207Y-55997883D01*
X142737845Y-56107144D01*
X142737847Y-56107146D01*
X142737850Y-56107150D01*
X142737853Y-56107152D01*
X142737855Y-56107154D01*
X142847116Y-56187792D01*
X142847117Y-56187792D01*
X142847118Y-56187793D01*
X142975301Y-56232646D01*
X143005725Y-56235499D01*
X143005727Y-56235500D01*
X143005734Y-56235500D01*
X144014273Y-56235500D01*
X144014273Y-56235499D01*
X144044699Y-56232646D01*
X144172882Y-56187793D01*
X144282150Y-56107150D01*
X144362793Y-55997882D01*
X144392039Y-55914302D01*
X144429104Y-55865622D01*
X144485483Y-55848000D01*
X148711537Y-55848000D01*
X148769728Y-55866907D01*
X148805692Y-55916407D01*
X148810060Y-55937296D01*
X148824698Y-56085929D01*
X148824699Y-56085934D01*
X148884768Y-56283954D01*
X148982316Y-56466452D01*
X149113585Y-56626404D01*
X149113590Y-56626410D01*
X149113595Y-56626414D01*
X149273547Y-56757683D01*
X149273548Y-56757683D01*
X149273550Y-56757685D01*
X149456046Y-56855232D01*
X149593997Y-56897078D01*
X149654065Y-56915300D01*
X149654070Y-56915301D01*
X149859997Y-56935583D01*
X149860000Y-56935583D01*
X149860003Y-56935583D01*
X150065929Y-56915301D01*
X150065934Y-56915300D01*
X150263954Y-56855232D01*
X150446450Y-56757685D01*
X150606410Y-56626410D01*
X150737685Y-56466450D01*
X150835232Y-56283954D01*
X150895300Y-56085934D01*
X150895301Y-56085929D01*
X150915583Y-55880003D01*
X150915583Y-55879996D01*
X150895301Y-55674070D01*
X150895300Y-55674065D01*
X150877078Y-55613997D01*
X150835232Y-55476046D01*
X150737685Y-55293550D01*
X150642932Y-55178093D01*
X150606414Y-55133595D01*
X150606410Y-55133590D01*
X150600321Y-55128593D01*
X150463160Y-55016028D01*
X150430173Y-54964497D01*
X150433775Y-54903417D01*
X150472590Y-54856121D01*
X150525965Y-54840500D01*
X151734035Y-54840500D01*
X151792226Y-54859407D01*
X151828190Y-54908907D01*
X151828190Y-54970093D01*
X151796840Y-55016028D01*
X151653595Y-55133585D01*
X151653585Y-55133595D01*
X151522316Y-55293547D01*
X151424768Y-55476045D01*
X151364699Y-55674065D01*
X151364698Y-55674070D01*
X151344417Y-55879996D01*
X151344417Y-55880003D01*
X151364698Y-56085929D01*
X151364699Y-56085934D01*
X151424768Y-56283954D01*
X151522316Y-56466452D01*
X151653585Y-56626404D01*
X151653590Y-56626410D01*
X151653595Y-56626414D01*
X151813547Y-56757683D01*
X151813548Y-56757683D01*
X151813550Y-56757685D01*
X151996046Y-56855232D01*
X152133997Y-56897078D01*
X152194065Y-56915300D01*
X152194070Y-56915301D01*
X152399997Y-56935583D01*
X152400000Y-56935583D01*
X152400003Y-56935583D01*
X152605929Y-56915301D01*
X152605934Y-56915300D01*
X152803954Y-56855232D01*
X152986450Y-56757685D01*
X153146410Y-56626410D01*
X153277685Y-56466450D01*
X153375232Y-56283954D01*
X153435300Y-56085934D01*
X153435301Y-56085929D01*
X153455583Y-55880003D01*
X153455583Y-55879996D01*
X153435301Y-55674070D01*
X153435300Y-55674065D01*
X153417078Y-55613997D01*
X153375232Y-55476046D01*
X153277685Y-55293550D01*
X153182932Y-55178093D01*
X153146414Y-55133595D01*
X153146410Y-55133590D01*
X153140321Y-55128593D01*
X152986452Y-55002316D01*
X152982410Y-54999616D01*
X152983776Y-54997570D01*
X152948023Y-54959969D01*
X152939976Y-54899315D01*
X152969117Y-54845515D01*
X152992782Y-54830857D01*
X152992242Y-54829922D01*
X153001046Y-54824838D01*
X153024937Y-54814942D01*
X153025165Y-54814880D01*
X153026385Y-54814554D01*
X153058234Y-54792251D01*
X153065480Y-54787635D01*
X153099156Y-54768194D01*
X153124144Y-54738413D01*
X153129955Y-54732070D01*
X154522066Y-53339959D01*
X154528425Y-53334134D01*
X154558194Y-53309156D01*
X154577635Y-53275480D01*
X154582251Y-53268234D01*
X154604554Y-53236385D01*
X154604942Y-53234937D01*
X154614838Y-53211046D01*
X154615588Y-53209746D01*
X154622334Y-53171485D01*
X154624204Y-53163049D01*
X154634264Y-53125508D01*
X154633348Y-53115043D01*
X154630877Y-53086792D01*
X154630500Y-53078164D01*
X154630500Y-45103533D01*
X154630877Y-45094904D01*
X154634264Y-45056193D01*
X154624204Y-45018652D01*
X154622335Y-45010220D01*
X154615588Y-44971954D01*
X154614840Y-44970659D01*
X154604942Y-44946767D01*
X154604554Y-44945316D01*
X154582264Y-44913482D01*
X154577630Y-44906209D01*
X154558194Y-44872545D01*
X154528428Y-44847568D01*
X154522060Y-44841734D01*
X153388502Y-43708176D01*
X153360725Y-43653659D01*
X153370296Y-43593227D01*
X153371174Y-43591544D01*
X153375232Y-43583954D01*
X153435300Y-43385934D01*
X153435301Y-43385929D01*
X153455583Y-43180003D01*
X153455583Y-43179996D01*
X153435301Y-42974070D01*
X153435300Y-42974065D01*
X153399030Y-42854500D01*
X153375232Y-42776046D01*
X153277685Y-42593550D01*
X153146410Y-42433590D01*
X152996123Y-42310253D01*
X152986452Y-42302316D01*
X152803954Y-42204768D01*
X152605934Y-42144699D01*
X152605929Y-42144698D01*
X152400003Y-42124417D01*
X152399997Y-42124417D01*
X152194070Y-42144698D01*
X152194065Y-42144699D01*
X151996045Y-42204768D01*
X151813547Y-42302316D01*
X151653595Y-42433585D01*
X151653585Y-42433595D01*
X151522316Y-42593547D01*
X151424769Y-42776043D01*
X151424768Y-42776045D01*
X151424768Y-42776046D01*
X151422282Y-42784241D01*
X151387297Y-42834436D01*
X151329488Y-42854481D01*
X151327546Y-42854500D01*
X151009500Y-42854500D01*
X150951309Y-42835593D01*
X150915345Y-42786093D01*
X150910500Y-42755500D01*
X150910500Y-42310253D01*
X150910498Y-42310241D01*
X150907711Y-42296231D01*
X150898867Y-42251769D01*
X150854552Y-42185448D01*
X150854548Y-42185445D01*
X150788233Y-42141134D01*
X150788231Y-42141133D01*
X150788228Y-42141132D01*
X150788227Y-42141132D01*
X150729758Y-42129501D01*
X150729748Y-42129500D01*
X148990252Y-42129500D01*
X148990251Y-42129500D01*
X148990241Y-42129501D01*
X148931772Y-42141132D01*
X148931766Y-42141134D01*
X148865451Y-42185445D01*
X148865445Y-42185451D01*
X148821134Y-42251766D01*
X148821132Y-42251772D01*
X148809501Y-42310241D01*
X148809500Y-42310253D01*
X148809500Y-42755500D01*
X148790593Y-42813691D01*
X148741093Y-42849655D01*
X148710500Y-42854500D01*
X144139098Y-42854500D01*
X144106400Y-42848944D01*
X144044703Y-42827355D01*
X144044694Y-42827353D01*
X144014274Y-42824500D01*
X144014266Y-42824500D01*
X143005734Y-42824500D01*
X143005725Y-42824500D01*
X142975305Y-42827353D01*
X142975296Y-42827355D01*
X142847116Y-42872207D01*
X142737855Y-42952845D01*
X142737845Y-42952855D01*
X142657207Y-43062116D01*
X142627961Y-43145698D01*
X142590896Y-43194378D01*
X142534517Y-43212000D01*
X140311034Y-43212000D01*
X140302405Y-43211623D01*
X140263694Y-43208236D01*
X140263687Y-43208236D01*
X140226149Y-43218294D01*
X140217723Y-43220162D01*
X140179460Y-43226910D01*
X140179448Y-43226914D01*
X140178140Y-43227670D01*
X140154286Y-43237551D01*
X140152824Y-43237942D01*
X140152817Y-43237945D01*
X140152816Y-43237946D01*
X140120975Y-43260240D01*
X140113705Y-43264871D01*
X140080045Y-43284305D01*
X140055069Y-43314070D01*
X140049236Y-43320436D01*
X139524004Y-43845669D01*
X139469487Y-43873446D01*
X139409055Y-43863875D01*
X139365790Y-43820610D01*
X139355000Y-43775665D01*
X139355000Y-43600001D01*
X139354999Y-43600000D01*
X138530001Y-43600000D01*
X138530000Y-43600001D01*
X138530000Y-44199998D01*
X138530001Y-44199999D01*
X138930667Y-44199999D01*
X138988858Y-44218906D01*
X139024822Y-44268406D01*
X139024822Y-44329592D01*
X139000671Y-44369003D01*
X138699170Y-44670504D01*
X138644653Y-44698281D01*
X138629166Y-44699500D01*
X137900725Y-44699500D01*
X137870305Y-44702353D01*
X137870296Y-44702355D01*
X137742116Y-44747207D01*
X137632855Y-44827845D01*
X137632845Y-44827855D01*
X137552207Y-44937116D01*
X137507355Y-45065296D01*
X137507353Y-45065305D01*
X137504500Y-45095725D01*
X137504500Y-45704274D01*
X137507353Y-45734694D01*
X137507355Y-45734703D01*
X137552207Y-45862883D01*
X137632845Y-45972144D01*
X137632847Y-45972146D01*
X137632850Y-45972150D01*
X137632853Y-45972152D01*
X137632855Y-45972154D01*
X137742116Y-46052792D01*
X137742117Y-46052792D01*
X137742118Y-46052793D01*
X137870301Y-46097646D01*
X137900725Y-46100499D01*
X137900727Y-46100500D01*
X137900734Y-46100500D01*
X138005500Y-46100500D01*
X138063691Y-46119407D01*
X138099655Y-46168907D01*
X138104500Y-46199500D01*
X138104500Y-47025500D01*
X138085593Y-47083691D01*
X138036093Y-47119655D01*
X138005500Y-47124500D01*
X137721740Y-47124500D01*
X137687673Y-47129463D01*
X137653604Y-47134427D01*
X137548518Y-47185801D01*
X137548517Y-47185801D01*
X137548517Y-47185802D01*
X137465802Y-47268517D01*
X137465801Y-47268518D01*
X137463816Y-47270504D01*
X137409299Y-47298281D01*
X137393812Y-47299500D01*
X133048534Y-47299500D01*
X133039905Y-47299123D01*
X133001194Y-47295736D01*
X133001187Y-47295736D01*
X132963649Y-47305794D01*
X132955223Y-47307662D01*
X132916960Y-47314410D01*
X132916948Y-47314414D01*
X132915640Y-47315170D01*
X132891786Y-47325051D01*
X132890324Y-47325442D01*
X132890317Y-47325445D01*
X132890316Y-47325446D01*
X132858475Y-47347740D01*
X132851205Y-47352371D01*
X132817545Y-47371805D01*
X132792569Y-47401570D01*
X132786736Y-47407936D01*
X131269004Y-48925669D01*
X131214487Y-48953446D01*
X131154055Y-48943875D01*
X131110790Y-48900610D01*
X131100000Y-48855665D01*
X131100000Y-48680001D01*
X131099999Y-48680000D01*
X130275001Y-48680000D01*
X130275000Y-48680001D01*
X130275000Y-49279998D01*
X130275001Y-49279999D01*
X130675667Y-49279999D01*
X130733858Y-49298906D01*
X130769822Y-49348406D01*
X130769822Y-49409592D01*
X130745671Y-49449003D01*
X130444170Y-49750504D01*
X130389653Y-49778281D01*
X130374166Y-49779500D01*
X129645725Y-49779500D01*
X129615305Y-49782353D01*
X129615296Y-49782355D01*
X129487116Y-49827207D01*
X129377855Y-49907845D01*
X129377845Y-49907855D01*
X129297207Y-50017116D01*
X129252355Y-50145296D01*
X129252353Y-50145305D01*
X129249500Y-50175725D01*
X129249500Y-50784274D01*
X118110000Y-50784274D01*
X118110000Y-48884203D01*
X129250001Y-48884203D01*
X129252850Y-48914600D01*
X129252850Y-48914602D01*
X129297654Y-49042647D01*
X129378207Y-49151790D01*
X129378209Y-49151792D01*
X129487352Y-49232345D01*
X129615398Y-49277149D01*
X129645789Y-49279999D01*
X130074998Y-49279999D01*
X130075000Y-49279998D01*
X130075000Y-48680001D01*
X130074999Y-48680000D01*
X129250002Y-48680000D01*
X129250001Y-48680001D01*
X129250001Y-48884203D01*
X118110000Y-48884203D01*
X118110000Y-48479999D01*
X129250000Y-48479999D01*
X129250001Y-48480000D01*
X130074999Y-48480000D01*
X130075000Y-48479999D01*
X130275000Y-48479999D01*
X130275001Y-48480000D01*
X131099998Y-48480000D01*
X131099999Y-48479999D01*
X131099999Y-48275796D01*
X131097149Y-48245399D01*
X131097149Y-48245397D01*
X131052345Y-48117352D01*
X130971792Y-48008209D01*
X130971790Y-48008207D01*
X130862647Y-47927654D01*
X130734601Y-47882850D01*
X130704211Y-47880000D01*
X130275001Y-47880000D01*
X130275000Y-47880001D01*
X130275000Y-48479999D01*
X130075000Y-48479999D01*
X130075000Y-47880001D01*
X130074999Y-47880000D01*
X129645796Y-47880000D01*
X129615399Y-47882850D01*
X129615397Y-47882850D01*
X129487352Y-47927654D01*
X129378209Y-48008207D01*
X129378207Y-48008209D01*
X129297654Y-48117352D01*
X129252850Y-48245398D01*
X129250000Y-48275788D01*
X129250000Y-48479999D01*
X118110000Y-48479999D01*
X118110000Y-43804203D01*
X137505001Y-43804203D01*
X137507850Y-43834600D01*
X137507850Y-43834602D01*
X137552654Y-43962647D01*
X137633207Y-44071790D01*
X137633209Y-44071792D01*
X137742352Y-44152345D01*
X137870398Y-44197149D01*
X137900789Y-44199999D01*
X138329998Y-44199999D01*
X138330000Y-44199998D01*
X138330000Y-43600001D01*
X138329999Y-43600000D01*
X137505002Y-43600000D01*
X137505001Y-43600001D01*
X137505001Y-43804203D01*
X118110000Y-43804203D01*
X118110000Y-43399999D01*
X137505000Y-43399999D01*
X137505001Y-43400000D01*
X138329999Y-43400000D01*
X138330000Y-43399999D01*
X138530000Y-43399999D01*
X138530001Y-43400000D01*
X139354998Y-43400000D01*
X139354999Y-43399999D01*
X139354999Y-43195796D01*
X139352149Y-43165399D01*
X139352149Y-43165397D01*
X139307345Y-43037352D01*
X139226792Y-42928209D01*
X139226790Y-42928207D01*
X139117647Y-42847654D01*
X138989601Y-42802850D01*
X138959211Y-42800000D01*
X138530001Y-42800000D01*
X138530000Y-42800001D01*
X138530000Y-43399999D01*
X138330000Y-43399999D01*
X138330000Y-42800001D01*
X138329999Y-42800000D01*
X137900796Y-42800000D01*
X137870399Y-42802850D01*
X137870397Y-42802850D01*
X137742352Y-42847654D01*
X137633209Y-42928207D01*
X137633207Y-42928209D01*
X137552654Y-43037352D01*
X137507850Y-43165398D01*
X137505000Y-43195788D01*
X137505000Y-43399999D01*
X118110000Y-43399999D01*
X118110000Y-38224500D01*
X118128907Y-38166309D01*
X118178407Y-38130345D01*
X118209000Y-38125500D01*
X156085500Y-38125500D01*
X156143691Y-38144407D01*
G37*
%TD.AperFunction*%
%TD*%
M02*
