%TF.GenerationSoftware,KiCad,Pcbnew,7.0.1*%
%TF.CreationDate,2023-03-26T17:19:43+02:00*%
%TF.ProjectId,RA01_868_PMOD,52413031-5f38-4363-985f-504d4f442e6b,rev?*%
%TF.SameCoordinates,Original*%
%TF.FileFunction,Copper,L1,Top*%
%TF.FilePolarity,Positive*%
%FSLAX46Y46*%
G04 Gerber Fmt 4.6, Leading zero omitted, Abs format (unit mm)*
G04 Created by KiCad (PCBNEW 7.0.1) date 2023-03-26 17:19:43*
%MOMM*%
%LPD*%
G01*
G04 APERTURE LIST*
G04 Aperture macros list*
%AMRoundRect*
0 Rectangle with rounded corners*
0 $1 Rounding radius*
0 $2 $3 $4 $5 $6 $7 $8 $9 X,Y pos of 4 corners*
0 Add a 4 corners polygon primitive as box body*
4,1,4,$2,$3,$4,$5,$6,$7,$8,$9,$2,$3,0*
0 Add four circle primitives for the rounded corners*
1,1,$1+$1,$2,$3*
1,1,$1+$1,$4,$5*
1,1,$1+$1,$6,$7*
1,1,$1+$1,$8,$9*
0 Add four rect primitives between the rounded corners*
20,1,$1+$1,$2,$3,$4,$5,0*
20,1,$1+$1,$4,$5,$6,$7,0*
20,1,$1+$1,$6,$7,$8,$9,0*
20,1,$1+$1,$8,$9,$2,$3,0*%
%AMOutline4P*
0 Free polygon, 4 corners , with rotation*
0 The origin of the aperture is its center*
0 number of corners: always 4*
0 $1 to $8 corner X, Y*
0 $9 Rotation angle, in degrees counterclockwise*
0 create outline with 4 corners*
4,1,4,$1,$2,$3,$4,$5,$6,$7,$8,$1,$2,$9*%
G04 Aperture macros list end*
%TA.AperFunction,EtchedComponent*%
%ADD10C,1.000000*%
%TD*%
%TA.AperFunction,ComponentPad*%
%ADD11R,1.700000X1.700000*%
%TD*%
%TA.AperFunction,ComponentPad*%
%ADD12O,1.700000X1.700000*%
%TD*%
%TA.AperFunction,SMDPad,CuDef*%
%ADD13RoundRect,0.237500X-0.300000X-0.237500X0.300000X-0.237500X0.300000X0.237500X-0.300000X0.237500X0*%
%TD*%
%TA.AperFunction,SMDPad,CuDef*%
%ADD14RoundRect,0.250000X0.337500X0.475000X-0.337500X0.475000X-0.337500X-0.475000X0.337500X-0.475000X0*%
%TD*%
%TA.AperFunction,SMDPad,CuDef*%
%ADD15RoundRect,0.237500X-0.237500X0.287500X-0.237500X-0.287500X0.237500X-0.287500X0.237500X0.287500X0*%
%TD*%
%TA.AperFunction,SMDPad,CuDef*%
%ADD16R,2.000000X1.500000*%
%TD*%
%TA.AperFunction,ComponentPad*%
%ADD17C,1.000000*%
%TD*%
%TA.AperFunction,SMDPad,CuDef*%
%ADD18Outline4P,-0.350000X-0.400000X0.350000X-0.400000X0.050000X0.400000X-0.050000X0.400000X270.000000*%
%TD*%
%TA.AperFunction,SMDPad,CuDef*%
%ADD19RoundRect,0.250000X-0.337500X-0.475000X0.337500X-0.475000X0.337500X0.475000X-0.337500X0.475000X0*%
%TD*%
%TA.AperFunction,ViaPad*%
%ADD20C,0.800000*%
%TD*%
%TA.AperFunction,Conductor*%
%ADD21C,0.250000*%
%TD*%
%TA.AperFunction,Conductor*%
%ADD22C,0.380000*%
%TD*%
%TA.AperFunction,Conductor*%
%ADD23C,0.350000*%
%TD*%
G04 APERTURE END LIST*
D10*
%TO.C,AE1*%
X116960000Y-58530000D02*
X105960000Y-58530000D01*
X105960000Y-56530000D02*
X110960000Y-56530000D01*
X105960000Y-54530000D02*
X110960000Y-54530000D01*
X105960000Y-52530000D02*
X110960000Y-52530000D01*
X105960000Y-50530000D02*
X110960000Y-50530000D01*
X105960000Y-48530000D02*
X110960000Y-48530000D01*
X105960000Y-46530000D02*
X110960000Y-46530000D01*
X105960000Y-44530000D02*
X110960000Y-44530000D01*
X105960000Y-42530000D02*
X110960000Y-42530000D01*
X105960000Y-40530000D02*
X110960000Y-40530000D01*
%TD*%
D11*
%TO.P,J1,1,Pin_1*%
%TO.N,VCC*%
X149860000Y-43180000D03*
D12*
%TO.P,J1,2,Pin_2*%
X152400000Y-43180000D03*
%TO.P,J1,3,Pin_3*%
%TO.N,GND*%
X149860000Y-45720000D03*
%TO.P,J1,4,Pin_4*%
X152400000Y-45720000D03*
%TO.P,J1,5,Pin_5*%
%TO.N,SCK*%
X149860000Y-48260000D03*
%TO.P,J1,6,Pin_6*%
%TO.N,unconnected-(J1-Pin_6-Pad6)*%
X152400000Y-48260000D03*
%TO.P,J1,7,Pin_7*%
%TO.N,MISO*%
X149860000Y-50800000D03*
%TO.P,J1,8,Pin_8*%
%TO.N,unconnected-(J1-Pin_8-Pad8)*%
X152400000Y-50800000D03*
%TO.P,J1,9,Pin_9*%
%TO.N,MOSI*%
X149860000Y-53340000D03*
%TO.P,J1,10,Pin_10*%
%TO.N,nRESET*%
X152400000Y-53340000D03*
%TO.P,J1,11,Pin_11*%
%TO.N,nCS*%
X149860000Y-55880000D03*
%TO.P,J1,12,Pin_12*%
%TO.N,DIO0*%
X152400000Y-55880000D03*
%TD*%
D13*
%TO.P,M1,1*%
%TO.N,Net-(U1-ANT)*%
X120650000Y-48260000D03*
%TO.P,M1,2*%
%TO.N,GND*%
X122375000Y-48260000D03*
%TD*%
D14*
%TO.P,C1,1*%
%TO.N,VCC*%
X133117500Y-40640000D03*
%TO.P,C1,2*%
%TO.N,GND*%
X131042500Y-40640000D03*
%TD*%
D15*
%TO.P,M2,1*%
%TO.N,Net-(U1-ANT)*%
X120650000Y-51195000D03*
%TO.P,M2,2*%
%TO.N,Net-(AE1-A)*%
X120650000Y-52945000D03*
%TD*%
D13*
%TO.P,M3,1*%
%TO.N,Net-(AE1-A)*%
X120650000Y-55880000D03*
%TO.P,M3,2*%
%TO.N,GND*%
X122375000Y-55880000D03*
%TD*%
D16*
%TO.P,U1,1,ANT*%
%TO.N,Net-(U1-ANT)*%
X126620000Y-43800000D03*
%TO.P,U1,2,GND*%
%TO.N,GND*%
X126620000Y-45800000D03*
%TO.P,U1,3,VDD*%
%TO.N,VCC*%
X126620000Y-47800000D03*
%TO.P,U1,4,~{RESET}*%
%TO.N,nRESET*%
X126620000Y-49800000D03*
%TO.P,U1,5,DIO0*%
%TO.N,DIO0*%
X126620000Y-51800000D03*
%TO.P,U1,6,DIO1*%
%TO.N,unconnected-(U1-DIO1-Pad6)*%
X126620000Y-53800000D03*
%TO.P,U1,7,DIO2*%
%TO.N,unconnected-(U1-DIO2-Pad7)*%
X126620000Y-55800000D03*
%TO.P,U1,8,DIO3*%
%TO.N,unconnected-(U1-DIO3-Pad8)*%
X126620000Y-57800000D03*
%TO.P,U1,9,GND*%
%TO.N,GND*%
X142620000Y-57800000D03*
%TO.P,U1,10,DIO4*%
%TO.N,unconnected-(U1-DIO4-Pad10)*%
X142620000Y-55800000D03*
%TO.P,U1,11,DIO5*%
%TO.N,unconnected-(U1-DIO5-Pad11)*%
X142620000Y-53800000D03*
%TO.P,U1,12,SCK*%
%TO.N,SCK*%
X142620000Y-51800000D03*
%TO.P,U1,13,MISO*%
%TO.N,MISO*%
X142620000Y-49800000D03*
%TO.P,U1,14,MOSI*%
%TO.N,MOSI*%
X142620000Y-47800000D03*
%TO.P,U1,15,~{NSS}*%
%TO.N,nCS*%
X142620000Y-45800000D03*
%TO.P,U1,16,GND*%
%TO.N,GND*%
X142620000Y-43800000D03*
%TD*%
D17*
%TO.P,AE1,*%
%TO.N,*%
X105960000Y-58530000D03*
X105960000Y-56530000D03*
X110960000Y-56530000D03*
X105960000Y-54530000D03*
X110960000Y-54530000D03*
X105960000Y-52530000D03*
X110960000Y-52530000D03*
X105960000Y-50530000D03*
X110960000Y-50530000D03*
X105960000Y-48530000D03*
X110960000Y-48530000D03*
X105960000Y-46530000D03*
X110960000Y-46530000D03*
X105960000Y-44530000D03*
X110960000Y-44530000D03*
X105960000Y-42530000D03*
X110960000Y-42530000D03*
X105960000Y-40530000D03*
X110960000Y-40530000D03*
D18*
%TO.P,AE1,1,A*%
%TO.N,Net-(AE1-A)*%
X117660000Y-58530000D03*
%TD*%
D19*
%TO.P,C2,1*%
%TO.N,VCC*%
X136122500Y-40640000D03*
%TO.P,C2,2*%
%TO.N,GND*%
X138197500Y-40640000D03*
%TD*%
D20*
%TO.N,nRESET*%
X130810000Y-50800000D03*
%TO.N,nCS*%
X140970000Y-55880000D03*
%TO.N,MOSI*%
X140970000Y-53340000D03*
%TD*%
D21*
%TO.N,DIO0*%
X149405000Y-58875000D02*
X136345000Y-58875000D01*
X152400000Y-55880000D02*
X149405000Y-58875000D01*
X136345000Y-58875000D02*
X129270000Y-51800000D01*
X129270000Y-51800000D02*
X126620000Y-51800000D01*
%TO.N,nRESET*%
X126620000Y-49800000D02*
X129810000Y-49800000D01*
X129810000Y-49800000D02*
X130810000Y-50800000D01*
%TO.N,nCS*%
X141050000Y-45800000D02*
X140245000Y-46605000D01*
X140970000Y-55880000D02*
X140245000Y-55155000D01*
X141050000Y-45800000D02*
X142620000Y-45800000D01*
X140245000Y-55155000D02*
X140245000Y-47715000D01*
X140245000Y-46605000D02*
X140245000Y-47715000D01*
%TO.N,SCK*%
X142620000Y-51800000D02*
X142795000Y-51975000D01*
X150346701Y-51975000D02*
X151035000Y-51286701D01*
X151035000Y-51286701D02*
X151035000Y-49435000D01*
X142795000Y-51975000D02*
X150346701Y-51975000D01*
X151035000Y-49435000D02*
X149860000Y-48260000D01*
%TO.N,MOSI*%
X140970000Y-49050000D02*
X142220000Y-47800000D01*
X140970000Y-53340000D02*
X140970000Y-49050000D01*
X142220000Y-47800000D02*
X142620000Y-47800000D01*
%TO.N,MISO*%
X145780000Y-49800000D02*
X142620000Y-49800000D01*
X149860000Y-50800000D02*
X147320000Y-50800000D01*
X146780000Y-50800000D02*
X147320000Y-50800000D01*
X145780000Y-49800000D02*
X146780000Y-50800000D01*
%TO.N,VCC*%
X137172500Y-41690000D02*
X142020000Y-41690000D01*
X152400000Y-43180000D02*
X149860000Y-43180000D01*
X133117500Y-40640000D02*
X133117500Y-45032500D01*
X133117500Y-40640000D02*
X136122500Y-40640000D01*
X148370000Y-41690000D02*
X142020000Y-41690000D01*
X136122500Y-40640000D02*
X137172500Y-41690000D01*
X149860000Y-43180000D02*
X148370000Y-41690000D01*
X126620000Y-47800000D02*
X130350000Y-47800000D01*
X130350000Y-47800000D02*
X132890000Y-45260000D01*
X126620000Y-47800000D02*
X126870000Y-47800000D01*
X133350000Y-40872500D02*
X133117500Y-40640000D01*
X133117500Y-45032500D02*
X132890000Y-45260000D01*
D22*
%TO.N,Net-(AE1-A)*%
X120650000Y-57150000D02*
X119270000Y-58530000D01*
X119270000Y-58530000D02*
X117000000Y-58530000D01*
X120650000Y-52945000D02*
X120650000Y-55880000D01*
X120650000Y-55880000D02*
X120650000Y-57150000D01*
D23*
%TO.N,Net-(U1-ANT)*%
X120650000Y-48260000D02*
X120650000Y-45085000D01*
X120650000Y-45085000D02*
X121920000Y-43815000D01*
X121920000Y-43800000D02*
X126620000Y-43800000D01*
D22*
X120650000Y-48260000D02*
X120650000Y-51195000D01*
D23*
X121920000Y-43815000D02*
X121920000Y-43800000D01*
%TD*%
%TA.AperFunction,Conductor*%
%TO.N,GND*%
G36*
X156121500Y-38142381D02*
G01*
X156167619Y-38188500D01*
X156184500Y-38251500D01*
X156184500Y-60808500D01*
X156167619Y-60871500D01*
X156121500Y-60917619D01*
X156058500Y-60934500D01*
X104291500Y-60934500D01*
X104228500Y-60917619D01*
X104182381Y-60871500D01*
X104165500Y-60808500D01*
X104165500Y-58529999D01*
X104954658Y-58529999D01*
X104956085Y-58544487D01*
X104956529Y-58563208D01*
X104955630Y-58580934D01*
X104966443Y-58651519D01*
X104967289Y-58658247D01*
X104973975Y-58726133D01*
X104979240Y-58743489D01*
X104983211Y-58760975D01*
X104986444Y-58782071D01*
X105010006Y-58845693D01*
X105012423Y-58852875D01*
X105031186Y-58914728D01*
X105041423Y-58933880D01*
X105048455Y-58949509D01*
X105057114Y-58972887D01*
X105057115Y-58972889D01*
X105057116Y-58972891D01*
X105091110Y-59027432D01*
X105095301Y-59034681D01*
X105124088Y-59088536D01*
X105140136Y-59108090D01*
X105149663Y-59121370D01*
X105164748Y-59145571D01*
X105186284Y-59168227D01*
X105206571Y-59189568D01*
X105212647Y-59196445D01*
X105249116Y-59240882D01*
X105249117Y-59240883D01*
X105270741Y-59258630D01*
X105271441Y-59259204D01*
X105282831Y-59269794D01*
X105304938Y-59293051D01*
X105304941Y-59293053D01*
X105351843Y-59325698D01*
X105359774Y-59331698D01*
X105379058Y-59347524D01*
X105401464Y-59365912D01*
X105430092Y-59381214D01*
X105442677Y-59388920D01*
X105471948Y-59409294D01*
X105521169Y-59430416D01*
X105530872Y-59435081D01*
X105575273Y-59458814D01*
X105609763Y-59469275D01*
X105622870Y-59474059D01*
X105658942Y-59489540D01*
X105707904Y-59499601D01*
X105719103Y-59502444D01*
X105763868Y-59516024D01*
X105803312Y-59519908D01*
X105816300Y-59521877D01*
X105858259Y-59530500D01*
X105904660Y-59530500D01*
X105917011Y-59531107D01*
X105960000Y-59535341D01*
X106002989Y-59531107D01*
X106015340Y-59530500D01*
X117010738Y-59530500D01*
X117010742Y-59530500D01*
X117162438Y-59515074D01*
X117356588Y-59454159D01*
X117534502Y-59355409D01*
X117608189Y-59292148D01*
X117646014Y-59269778D01*
X117711649Y-59245165D01*
X117756034Y-59228522D01*
X117800274Y-59220500D01*
X119245340Y-59220500D01*
X119252948Y-59220730D01*
X119311995Y-59224302D01*
X119311995Y-59224301D01*
X119311997Y-59224302D01*
X119370230Y-59213630D01*
X119377686Y-59212495D01*
X119436461Y-59205359D01*
X119445486Y-59201935D01*
X119467437Y-59195817D01*
X119476935Y-59194077D01*
X119530925Y-59169777D01*
X119537908Y-59166885D01*
X119593248Y-59145898D01*
X119601182Y-59140420D01*
X119621051Y-59129214D01*
X119629845Y-59125257D01*
X119676432Y-59088757D01*
X119682529Y-59084270D01*
X119731249Y-59050642D01*
X119770499Y-59006335D01*
X119775684Y-59000828D01*
X121120828Y-57655684D01*
X121126335Y-57650499D01*
X121170642Y-57611249D01*
X121204270Y-57562529D01*
X121208757Y-57556432D01*
X121245257Y-57509845D01*
X121249214Y-57501051D01*
X121260420Y-57481182D01*
X121265898Y-57473248D01*
X121286885Y-57417908D01*
X121289777Y-57410925D01*
X121314077Y-57356935D01*
X121315817Y-57347437D01*
X121321935Y-57325486D01*
X121325359Y-57316461D01*
X121332495Y-57257686D01*
X121333629Y-57250235D01*
X121344302Y-57191997D01*
X121340729Y-57132941D01*
X121340500Y-57125334D01*
X121340500Y-56814055D01*
X121356476Y-56752649D01*
X121400352Y-56706815D01*
X121401756Y-56705949D01*
X121410850Y-56700340D01*
X121418102Y-56693087D01*
X121474583Y-56660477D01*
X121539806Y-56660476D01*
X121596291Y-56693088D01*
X121609463Y-56706260D01*
X121757795Y-56797753D01*
X121923216Y-56852568D01*
X122025329Y-56863000D01*
X122121000Y-56863000D01*
X122121000Y-56134000D01*
X122629000Y-56134000D01*
X122629000Y-56863000D01*
X122724671Y-56863000D01*
X122826783Y-56852568D01*
X122992204Y-56797753D01*
X123140536Y-56706260D01*
X123263760Y-56583036D01*
X123355253Y-56434704D01*
X123410068Y-56269283D01*
X123420500Y-56167171D01*
X123420500Y-56134000D01*
X122629000Y-56134000D01*
X122121000Y-56134000D01*
X122121000Y-54897000D01*
X122629000Y-54897000D01*
X122629000Y-55626000D01*
X123420500Y-55626000D01*
X123420500Y-55592829D01*
X123410068Y-55490716D01*
X123355253Y-55325295D01*
X123263760Y-55176963D01*
X123140536Y-55053739D01*
X122992204Y-54962246D01*
X122826783Y-54907431D01*
X122724671Y-54897000D01*
X122629000Y-54897000D01*
X122121000Y-54897000D01*
X122025329Y-54897000D01*
X121923216Y-54907431D01*
X121757795Y-54962246D01*
X121609465Y-55053738D01*
X121596290Y-55066913D01*
X121539805Y-55099523D01*
X121474584Y-55099522D01*
X121418101Y-55066911D01*
X121410851Y-55059661D01*
X121410850Y-55059660D01*
X121400351Y-55053184D01*
X121356476Y-55007351D01*
X121340500Y-54945945D01*
X121340500Y-53875381D01*
X121350091Y-53827163D01*
X121377405Y-53786286D01*
X121470337Y-53693353D01*
X121470336Y-53693353D01*
X121470340Y-53693350D01*
X121560908Y-53546516D01*
X121615174Y-53382753D01*
X121625500Y-53281677D01*
X121625499Y-52608324D01*
X121615174Y-52507247D01*
X121608962Y-52488500D01*
X121560909Y-52343486D01*
X121535015Y-52301505D01*
X121470340Y-52196650D01*
X121470338Y-52196648D01*
X121470337Y-52196646D01*
X121432786Y-52159095D01*
X121400174Y-52102611D01*
X121400174Y-52037389D01*
X121432786Y-51980905D01*
X121470337Y-51943353D01*
X121470336Y-51943353D01*
X121470340Y-51943350D01*
X121560908Y-51796516D01*
X121615174Y-51632753D01*
X121625500Y-51531677D01*
X121625499Y-50858324D01*
X121615174Y-50757247D01*
X121615173Y-50757243D01*
X121560909Y-50593486D01*
X121543086Y-50564590D01*
X121470340Y-50446650D01*
X121470338Y-50446648D01*
X121470337Y-50446646D01*
X121377405Y-50353714D01*
X121350091Y-50312837D01*
X121340500Y-50264619D01*
X121340500Y-49194055D01*
X121356476Y-49132649D01*
X121400352Y-49086815D01*
X121401252Y-49086260D01*
X121410850Y-49080340D01*
X121418102Y-49073087D01*
X121474583Y-49040477D01*
X121539806Y-49040476D01*
X121596291Y-49073088D01*
X121609463Y-49086260D01*
X121757795Y-49177753D01*
X121923216Y-49232568D01*
X122025329Y-49243000D01*
X122121000Y-49243000D01*
X122121000Y-48514000D01*
X122629000Y-48514000D01*
X122629000Y-49243000D01*
X122724671Y-49243000D01*
X122826783Y-49232568D01*
X122992204Y-49177753D01*
X123140536Y-49086260D01*
X123263760Y-48963036D01*
X123355253Y-48814704D01*
X123410068Y-48649283D01*
X123420500Y-48547171D01*
X123420500Y-48514000D01*
X122629000Y-48514000D01*
X122121000Y-48514000D01*
X122121000Y-47277000D01*
X122629000Y-47277000D01*
X122629000Y-48006000D01*
X123420500Y-48006000D01*
X123420500Y-47972829D01*
X123410068Y-47870716D01*
X123355253Y-47705295D01*
X123263760Y-47556963D01*
X123140536Y-47433739D01*
X122992204Y-47342246D01*
X122826783Y-47287431D01*
X122724671Y-47277000D01*
X122629000Y-47277000D01*
X122121000Y-47277000D01*
X122025329Y-47277000D01*
X121923216Y-47287431D01*
X121757795Y-47342246D01*
X121609465Y-47433738D01*
X121596290Y-47446913D01*
X121539805Y-47479523D01*
X121474584Y-47479522D01*
X121418101Y-47446911D01*
X121410852Y-47439662D01*
X121410850Y-47439660D01*
X121385351Y-47423932D01*
X121341476Y-47378099D01*
X121325500Y-47316693D01*
X121325500Y-46598589D01*
X125112000Y-46598589D01*
X125118505Y-46659093D01*
X125158639Y-46766699D01*
X125166583Y-46810731D01*
X125158639Y-46854762D01*
X125125909Y-46942515D01*
X125119500Y-47002127D01*
X125119500Y-48597874D01*
X125125908Y-48657481D01*
X125162641Y-48755968D01*
X125170585Y-48800000D01*
X125162641Y-48844031D01*
X125125909Y-48942515D01*
X125119500Y-49002127D01*
X125119500Y-50597874D01*
X125125908Y-50657481D01*
X125162641Y-50755968D01*
X125170585Y-50800000D01*
X125162641Y-50844031D01*
X125125909Y-50942515D01*
X125119500Y-51002127D01*
X125119500Y-52597874D01*
X125125908Y-52657481D01*
X125162641Y-52755967D01*
X125170585Y-52799998D01*
X125162641Y-52844030D01*
X125125909Y-52942515D01*
X125119500Y-53002127D01*
X125119500Y-54597874D01*
X125125908Y-54657481D01*
X125162641Y-54755968D01*
X125170585Y-54800000D01*
X125162641Y-54844031D01*
X125125909Y-54942515D01*
X125119500Y-55002127D01*
X125119500Y-56597874D01*
X125125908Y-56657481D01*
X125162641Y-56755968D01*
X125170585Y-56800000D01*
X125162641Y-56844031D01*
X125125909Y-56942515D01*
X125119500Y-57002127D01*
X125119500Y-58597874D01*
X125125908Y-58657481D01*
X125176204Y-58792331D01*
X125262453Y-58907546D01*
X125318516Y-58949514D01*
X125377669Y-58993796D01*
X125512517Y-59044091D01*
X125572127Y-59050500D01*
X127667872Y-59050499D01*
X127667874Y-59050499D01*
X127697677Y-59047294D01*
X127727483Y-59044091D01*
X127862331Y-58993796D01*
X127977546Y-58907546D01*
X128063796Y-58792331D01*
X128114091Y-58657483D01*
X128120500Y-58597873D01*
X128120499Y-57002128D01*
X128119603Y-56993796D01*
X128114091Y-56942518D01*
X128110869Y-56933880D01*
X128077357Y-56844030D01*
X128069414Y-56799999D01*
X128077357Y-56755971D01*
X128114091Y-56657483D01*
X128120500Y-56597873D01*
X128120499Y-55002128D01*
X128114091Y-54942517D01*
X128077357Y-54844030D01*
X128069414Y-54799999D01*
X128077357Y-54755971D01*
X128114091Y-54657483D01*
X128120500Y-54597873D01*
X128120499Y-53002128D01*
X128114091Y-52942517D01*
X128077357Y-52844030D01*
X128069414Y-52799999D01*
X128077357Y-52755971D01*
X128114091Y-52657483D01*
X128120500Y-52597873D01*
X128120500Y-52551500D01*
X128137381Y-52488500D01*
X128183500Y-52442381D01*
X128246500Y-52425500D01*
X128958720Y-52425500D01*
X129006938Y-52435091D01*
X129047814Y-52462404D01*
X132446524Y-55861115D01*
X135844039Y-59258630D01*
X135856972Y-59274771D01*
X135859213Y-59276875D01*
X135859214Y-59276877D01*
X135880043Y-59296437D01*
X135908206Y-59322884D01*
X135911017Y-59325608D01*
X135930528Y-59345119D01*
X135930529Y-59345120D01*
X135933628Y-59347524D01*
X135942649Y-59355229D01*
X135942841Y-59355409D01*
X135974418Y-59385062D01*
X135991832Y-59394635D01*
X136008355Y-59405488D01*
X136024064Y-59417673D01*
X136064066Y-59434983D01*
X136074711Y-59440198D01*
X136080721Y-59443502D01*
X136112909Y-59461198D01*
X136132148Y-59466137D01*
X136150861Y-59472544D01*
X136169101Y-59480437D01*
X136169102Y-59480437D01*
X136169104Y-59480438D01*
X136212155Y-59487256D01*
X136223766Y-59489661D01*
X136265981Y-59500500D01*
X136285856Y-59500500D01*
X136305564Y-59502050D01*
X136325196Y-59505160D01*
X136368579Y-59501058D01*
X136380437Y-59500500D01*
X149322035Y-59500500D01*
X149342592Y-59502769D01*
X149345664Y-59502672D01*
X149345667Y-59502673D01*
X149412841Y-59500561D01*
X149416799Y-59500500D01*
X149444346Y-59500500D01*
X149444350Y-59500500D01*
X149448241Y-59500008D01*
X149460068Y-59499077D01*
X149503627Y-59497709D01*
X149522715Y-59492162D01*
X149542074Y-59488154D01*
X149561792Y-59485664D01*
X149602316Y-59469618D01*
X149613524Y-59465780D01*
X149655390Y-59453618D01*
X149672493Y-59443502D01*
X149690254Y-59434802D01*
X149699285Y-59431226D01*
X149708732Y-59427486D01*
X149744001Y-59401860D01*
X149753889Y-59395365D01*
X149791420Y-59373170D01*
X149805469Y-59359120D01*
X149820509Y-59346275D01*
X149825752Y-59342465D01*
X149836587Y-59334594D01*
X149864380Y-59300996D01*
X149872349Y-59292239D01*
X151943537Y-57221051D01*
X152000019Y-57188441D01*
X152065241Y-57188441D01*
X152086837Y-57194228D01*
X152164587Y-57215062D01*
X152164588Y-57215062D01*
X152164592Y-57215063D01*
X152400000Y-57235659D01*
X152635408Y-57215063D01*
X152863663Y-57153903D01*
X153077830Y-57054035D01*
X153271401Y-56918495D01*
X153438495Y-56751401D01*
X153574035Y-56557830D01*
X153673903Y-56343663D01*
X153735063Y-56115408D01*
X153755659Y-55880000D01*
X153735063Y-55644592D01*
X153673903Y-55416337D01*
X153574035Y-55202171D01*
X153438495Y-55008599D01*
X153438494Y-55008598D01*
X153438492Y-55008595D01*
X153271404Y-54841507D01*
X153088181Y-54713212D01*
X153048688Y-54668179D01*
X153034452Y-54609999D01*
X153048689Y-54551818D01*
X153088180Y-54506787D01*
X153271401Y-54378495D01*
X153438495Y-54211401D01*
X153574035Y-54017830D01*
X153673903Y-53803663D01*
X153735063Y-53575408D01*
X153755659Y-53340000D01*
X153735063Y-53104592D01*
X153673903Y-52876337D01*
X153574035Y-52662171D01*
X153438495Y-52468599D01*
X153438494Y-52468598D01*
X153438492Y-52468595D01*
X153271404Y-52301507D01*
X153088181Y-52173213D01*
X153048689Y-52128180D01*
X153034452Y-52070000D01*
X153048689Y-52011820D01*
X153088181Y-51966787D01*
X153121648Y-51943353D01*
X153271401Y-51838495D01*
X153438495Y-51671401D01*
X153574035Y-51477830D01*
X153673903Y-51263663D01*
X153735063Y-51035408D01*
X153755659Y-50800000D01*
X153735063Y-50564592D01*
X153673903Y-50336337D01*
X153574035Y-50122171D01*
X153438495Y-49928599D01*
X153438494Y-49928598D01*
X153438492Y-49928595D01*
X153271404Y-49761507D01*
X153088181Y-49633213D01*
X153048689Y-49588180D01*
X153034452Y-49530000D01*
X153048689Y-49471820D01*
X153088181Y-49426787D01*
X153271401Y-49298495D01*
X153438495Y-49131401D01*
X153574035Y-48937830D01*
X153673903Y-48723663D01*
X153735063Y-48495408D01*
X153755659Y-48260000D01*
X153735063Y-48024592D01*
X153673903Y-47796337D01*
X153574035Y-47582171D01*
X153438495Y-47388599D01*
X153438494Y-47388598D01*
X153438492Y-47388595D01*
X153271404Y-47221507D01*
X153092882Y-47096504D01*
X153051765Y-47048239D01*
X153039361Y-46986060D01*
X153058809Y-46925712D01*
X153105185Y-46882477D01*
X153145298Y-46860769D01*
X153322903Y-46722533D01*
X153475321Y-46556962D01*
X153598419Y-46368548D01*
X153688822Y-46162451D01*
X153736544Y-45974000D01*
X148523455Y-45974000D01*
X148571177Y-46162451D01*
X148661580Y-46368548D01*
X148784678Y-46556962D01*
X148937096Y-46722533D01*
X149114701Y-46860769D01*
X149154815Y-46882477D01*
X149201191Y-46925712D01*
X149220639Y-46986060D01*
X149208235Y-47048239D01*
X149167118Y-47096504D01*
X148988595Y-47221507D01*
X148821507Y-47388595D01*
X148685965Y-47582170D01*
X148586096Y-47796337D01*
X148524937Y-48024590D01*
X148504376Y-48259595D01*
X148504341Y-48260000D01*
X148507680Y-48298168D01*
X148524937Y-48495409D01*
X148586096Y-48723663D01*
X148685965Y-48937830D01*
X148821507Y-49131404D01*
X148988595Y-49298492D01*
X148988598Y-49298494D01*
X148988599Y-49298495D01*
X149171819Y-49426787D01*
X149211311Y-49471820D01*
X149225548Y-49530000D01*
X149211311Y-49588180D01*
X149171819Y-49633213D01*
X148988595Y-49761507D01*
X148821507Y-49928595D01*
X148686945Y-50120771D01*
X148641912Y-50160263D01*
X148583732Y-50174500D01*
X147399019Y-50174500D01*
X147091281Y-50174500D01*
X147043063Y-50164909D01*
X147002185Y-50137595D01*
X146280957Y-49416366D01*
X146268029Y-49400229D01*
X146216775Y-49352097D01*
X146213934Y-49349343D01*
X146194471Y-49329880D01*
X146191371Y-49327475D01*
X146182353Y-49319773D01*
X146150582Y-49289938D01*
X146147788Y-49288402D01*
X146133157Y-49280358D01*
X146116633Y-49269503D01*
X146100934Y-49257325D01*
X146060931Y-49240014D01*
X146050285Y-49234799D01*
X146012092Y-49213803D01*
X146012089Y-49213802D01*
X145992846Y-49208861D01*
X145974144Y-49202458D01*
X145955896Y-49194561D01*
X145912855Y-49187744D01*
X145901236Y-49185338D01*
X145859021Y-49174500D01*
X145859019Y-49174500D01*
X145839144Y-49174500D01*
X145819435Y-49172949D01*
X145799804Y-49169840D01*
X145799803Y-49169840D01*
X145756421Y-49173941D01*
X145744563Y-49174500D01*
X144246499Y-49174500D01*
X144183499Y-49157619D01*
X144137380Y-49111500D01*
X144120499Y-49048500D01*
X144120499Y-49002125D01*
X144114091Y-48942518D01*
X144110869Y-48933880D01*
X144077357Y-48844030D01*
X144069414Y-48799999D01*
X144077357Y-48755971D01*
X144114091Y-48657483D01*
X144120500Y-48597873D01*
X144120499Y-47002128D01*
X144114091Y-46942517D01*
X144077357Y-46844028D01*
X144069414Y-46800000D01*
X144077357Y-46755970D01*
X144114091Y-46657483D01*
X144120500Y-46597873D01*
X144120499Y-45002128D01*
X144119603Y-44993796D01*
X144114091Y-44942518D01*
X144110869Y-44933880D01*
X144081359Y-44854760D01*
X144073416Y-44810729D01*
X144081361Y-44766696D01*
X144121494Y-44659095D01*
X144128000Y-44598589D01*
X144128000Y-44054000D01*
X141112000Y-44054000D01*
X141112000Y-44598589D01*
X141118505Y-44659093D01*
X141158639Y-44766699D01*
X141166583Y-44810731D01*
X141158639Y-44854762D01*
X141125909Y-44942515D01*
X141125908Y-44942517D01*
X141125909Y-44942517D01*
X141120045Y-44997063D01*
X141119500Y-45002128D01*
X141119500Y-45049665D01*
X141105160Y-45108044D01*
X141065404Y-45153134D01*
X141009281Y-45174672D01*
X141006760Y-45174991D01*
X140994941Y-45175921D01*
X140951370Y-45177290D01*
X140932287Y-45182835D01*
X140912927Y-45186844D01*
X140893207Y-45189335D01*
X140852674Y-45205382D01*
X140841450Y-45209225D01*
X140799608Y-45221382D01*
X140782495Y-45231502D01*
X140764753Y-45240194D01*
X140746267Y-45247514D01*
X140711014Y-45273126D01*
X140701099Y-45279639D01*
X140663580Y-45301829D01*
X140649519Y-45315889D01*
X140634494Y-45328721D01*
X140618414Y-45340404D01*
X140590634Y-45373984D01*
X140582646Y-45382762D01*
X139861363Y-46104044D01*
X139845227Y-46116972D01*
X139797127Y-46168192D01*
X139794378Y-46171029D01*
X139774878Y-46190530D01*
X139772466Y-46193639D01*
X139764773Y-46202645D01*
X139734937Y-46234418D01*
X139725358Y-46251842D01*
X139714508Y-46268359D01*
X139702327Y-46284063D01*
X139685018Y-46324060D01*
X139679798Y-46334715D01*
X139658803Y-46372906D01*
X139653860Y-46392158D01*
X139647457Y-46410858D01*
X139639562Y-46429103D01*
X139632743Y-46472149D01*
X139630338Y-46483765D01*
X139619500Y-46525982D01*
X139619500Y-46545856D01*
X139617949Y-46565567D01*
X139614840Y-46585196D01*
X139618941Y-46628579D01*
X139619500Y-46640437D01*
X139619500Y-55072035D01*
X139617230Y-55092592D01*
X139619438Y-55162841D01*
X139619500Y-55166799D01*
X139619500Y-55194348D01*
X139619991Y-55198237D01*
X139620921Y-55210060D01*
X139622290Y-55253626D01*
X139627835Y-55272711D01*
X139631843Y-55292068D01*
X139634334Y-55311790D01*
X139650377Y-55352309D01*
X139654221Y-55363536D01*
X139666382Y-55405391D01*
X139676499Y-55422499D01*
X139685194Y-55440246D01*
X139692514Y-55458732D01*
X139718129Y-55493989D01*
X139724645Y-55503908D01*
X139746831Y-55541422D01*
X139760879Y-55555470D01*
X139773719Y-55570503D01*
X139785403Y-55586585D01*
X139818981Y-55614362D01*
X139827763Y-55622353D01*
X140030538Y-55825129D01*
X140055168Y-55859980D01*
X140066752Y-55901053D01*
X140084325Y-56068257D01*
X140142820Y-56248283D01*
X140237465Y-56412214D01*
X140276519Y-56455588D01*
X140364129Y-56552888D01*
X140517270Y-56664151D01*
X140517271Y-56664151D01*
X140517272Y-56664152D01*
X140690192Y-56741142D01*
X140690197Y-56741144D01*
X140875354Y-56780500D01*
X140875356Y-56780500D01*
X140996859Y-56780500D01*
X141055260Y-56794852D01*
X141100357Y-56834637D01*
X141121876Y-56890793D01*
X141117899Y-56924924D01*
X141120197Y-56925172D01*
X141112000Y-57001411D01*
X141112000Y-57546000D01*
X144128000Y-57546000D01*
X144128000Y-57001411D01*
X144121494Y-56940906D01*
X144081360Y-56833301D01*
X144073416Y-56789269D01*
X144081359Y-56745241D01*
X144114091Y-56657483D01*
X144120500Y-56597873D01*
X144120499Y-55002128D01*
X144114091Y-54942517D01*
X144077357Y-54844030D01*
X144069414Y-54799999D01*
X144077357Y-54755971D01*
X144114091Y-54657483D01*
X144120500Y-54597873D01*
X144120499Y-53002128D01*
X144114091Y-52942517D01*
X144077357Y-52844030D01*
X144069414Y-52799999D01*
X144077356Y-52755972D01*
X144104773Y-52682464D01*
X144131638Y-52639550D01*
X144173228Y-52610673D01*
X144222828Y-52600500D01*
X148516942Y-52600500D01*
X148577547Y-52616033D01*
X148623210Y-52658801D01*
X148642672Y-52718260D01*
X148631136Y-52779751D01*
X148586097Y-52876334D01*
X148524937Y-53104590D01*
X148514901Y-53219296D01*
X148504341Y-53340000D01*
X148508082Y-53382756D01*
X148524937Y-53575409D01*
X148586096Y-53803663D01*
X148685965Y-54017830D01*
X148821507Y-54211404D01*
X148988595Y-54378492D01*
X148988598Y-54378494D01*
X148988599Y-54378495D01*
X149171819Y-54506787D01*
X149211311Y-54551820D01*
X149225548Y-54610000D01*
X149211311Y-54668180D01*
X149171819Y-54713213D01*
X148988595Y-54841507D01*
X148821507Y-55008595D01*
X148685965Y-55202170D01*
X148586096Y-55416337D01*
X148524937Y-55644590D01*
X148504341Y-55880000D01*
X148524937Y-56115409D01*
X148586096Y-56343663D01*
X148685965Y-56557830D01*
X148821507Y-56751404D01*
X148988595Y-56918492D01*
X148988598Y-56918494D01*
X148988599Y-56918495D01*
X149182170Y-57054035D01*
X149256162Y-57088538D01*
X149396336Y-57153903D01*
X149454972Y-57169614D01*
X149624592Y-57215063D01*
X149860000Y-57235659D01*
X149860004Y-57235658D01*
X149866456Y-57236223D01*
X149932178Y-57261781D01*
X149973875Y-57318649D01*
X149978487Y-57389015D01*
X149944570Y-57450837D01*
X149182811Y-58212597D01*
X149141937Y-58239909D01*
X149093719Y-58249500D01*
X144254000Y-58249500D01*
X144191000Y-58232619D01*
X144144881Y-58186500D01*
X144128000Y-58123500D01*
X144128000Y-58054000D01*
X141112000Y-58054000D01*
X141112000Y-58123500D01*
X141095119Y-58186500D01*
X141049000Y-58232619D01*
X140986000Y-58249500D01*
X136656280Y-58249500D01*
X136608062Y-58239909D01*
X136567185Y-58212595D01*
X129770960Y-51416369D01*
X129758029Y-51400229D01*
X129706775Y-51352097D01*
X129703934Y-51349343D01*
X129684471Y-51329880D01*
X129681371Y-51327475D01*
X129672353Y-51319773D01*
X129662012Y-51310062D01*
X129640582Y-51289938D01*
X129637788Y-51288402D01*
X129623157Y-51280358D01*
X129606633Y-51269503D01*
X129590934Y-51257325D01*
X129550931Y-51240014D01*
X129540285Y-51234799D01*
X129502092Y-51213803D01*
X129502089Y-51213802D01*
X129482846Y-51208861D01*
X129464144Y-51202458D01*
X129445896Y-51194561D01*
X129402855Y-51187744D01*
X129391236Y-51185338D01*
X129349021Y-51174500D01*
X129349019Y-51174500D01*
X129329144Y-51174500D01*
X129309435Y-51172949D01*
X129289804Y-51169840D01*
X129289803Y-51169840D01*
X129246421Y-51173941D01*
X129234563Y-51174500D01*
X128246499Y-51174500D01*
X128183499Y-51157619D01*
X128137380Y-51111500D01*
X128120499Y-51048500D01*
X128120499Y-51002125D01*
X128114091Y-50942518D01*
X128110869Y-50933880D01*
X128077357Y-50844030D01*
X128069414Y-50799999D01*
X128077357Y-50755971D01*
X128114091Y-50657483D01*
X128120500Y-50597873D01*
X128120500Y-50551500D01*
X128137381Y-50488500D01*
X128183500Y-50442381D01*
X128246500Y-50425500D01*
X129498720Y-50425500D01*
X129546938Y-50435091D01*
X129587815Y-50462405D01*
X129870537Y-50745127D01*
X129895168Y-50779978D01*
X129906752Y-50821052D01*
X129924325Y-50988257D01*
X129982820Y-51168283D01*
X130077465Y-51332214D01*
X130094176Y-51350773D01*
X130204129Y-51472888D01*
X130357270Y-51584151D01*
X130357271Y-51584151D01*
X130357272Y-51584152D01*
X130530192Y-51661142D01*
X130530197Y-51661144D01*
X130715354Y-51700500D01*
X130904644Y-51700500D01*
X130904646Y-51700500D01*
X131089803Y-51661144D01*
X131262730Y-51584151D01*
X131415871Y-51472888D01*
X131542533Y-51332216D01*
X131637179Y-51168284D01*
X131666426Y-51078270D01*
X131695674Y-50988257D01*
X131715460Y-50799999D01*
X131695674Y-50611742D01*
X131637179Y-50431716D01*
X131542534Y-50267785D01*
X131415870Y-50127111D01*
X131262727Y-50015847D01*
X131089807Y-49938857D01*
X131089803Y-49938856D01*
X130904646Y-49899500D01*
X130904644Y-49899500D01*
X130846281Y-49899500D01*
X130798063Y-49889909D01*
X130757185Y-49862595D01*
X130310957Y-49416366D01*
X130298029Y-49400229D01*
X130246775Y-49352097D01*
X130243934Y-49349343D01*
X130224471Y-49329880D01*
X130221371Y-49327475D01*
X130212353Y-49319773D01*
X130180582Y-49289938D01*
X130177788Y-49288402D01*
X130163157Y-49280358D01*
X130146633Y-49269503D01*
X130130934Y-49257325D01*
X130090931Y-49240014D01*
X130080285Y-49234799D01*
X130042092Y-49213803D01*
X130042089Y-49213802D01*
X130022846Y-49208861D01*
X130004144Y-49202458D01*
X129985896Y-49194561D01*
X129942855Y-49187744D01*
X129931236Y-49185338D01*
X129889021Y-49174500D01*
X129889019Y-49174500D01*
X129869144Y-49174500D01*
X129849435Y-49172949D01*
X129829804Y-49169840D01*
X129829803Y-49169840D01*
X129786421Y-49173941D01*
X129774563Y-49174500D01*
X128246499Y-49174500D01*
X128183499Y-49157619D01*
X128137380Y-49111500D01*
X128120499Y-49048500D01*
X128120499Y-49002125D01*
X128114091Y-48942518D01*
X128110869Y-48933880D01*
X128077357Y-48844030D01*
X128069414Y-48799999D01*
X128077357Y-48755971D01*
X128114091Y-48657483D01*
X128120500Y-48597873D01*
X128120500Y-48551500D01*
X128137381Y-48488500D01*
X128183500Y-48442381D01*
X128246500Y-48425500D01*
X130267035Y-48425500D01*
X130287592Y-48427769D01*
X130290664Y-48427672D01*
X130290667Y-48427673D01*
X130357841Y-48425561D01*
X130361799Y-48425500D01*
X130389346Y-48425500D01*
X130389350Y-48425500D01*
X130393241Y-48425008D01*
X130405068Y-48424077D01*
X130448627Y-48422709D01*
X130467715Y-48417162D01*
X130487074Y-48413154D01*
X130506792Y-48410664D01*
X130547316Y-48394618D01*
X130558524Y-48390780D01*
X130600390Y-48378618D01*
X130617493Y-48368502D01*
X130635254Y-48359802D01*
X130653729Y-48352487D01*
X130653728Y-48352487D01*
X130653732Y-48352486D01*
X130689001Y-48326860D01*
X130698889Y-48320365D01*
X130736420Y-48298170D01*
X130750469Y-48284120D01*
X130765509Y-48271275D01*
X130781028Y-48260000D01*
X130781587Y-48259594D01*
X130809380Y-48225996D01*
X130817339Y-48217249D01*
X133360120Y-45674471D01*
X133360121Y-45674468D01*
X133371085Y-45663505D01*
X133371089Y-45663500D01*
X133501130Y-45533458D01*
X133517269Y-45520529D01*
X133519372Y-45518288D01*
X133519377Y-45518286D01*
X133565418Y-45469256D01*
X133568109Y-45466479D01*
X133587620Y-45446970D01*
X133590015Y-45443882D01*
X133597722Y-45434856D01*
X133627562Y-45403082D01*
X133637141Y-45385656D01*
X133647986Y-45369147D01*
X133660174Y-45353436D01*
X133677490Y-45313416D01*
X133682695Y-45302791D01*
X133703697Y-45264592D01*
X133708639Y-45245340D01*
X133715044Y-45226636D01*
X133722938Y-45208395D01*
X133729754Y-45165352D01*
X133732158Y-45153738D01*
X133743000Y-45111519D01*
X133743000Y-45091644D01*
X133744551Y-45071933D01*
X133747660Y-45052304D01*
X133743558Y-45008920D01*
X133743000Y-44997063D01*
X133743000Y-41889464D01*
X133758976Y-41828058D01*
X133802851Y-41782224D01*
X133923656Y-41707712D01*
X134047712Y-41583656D01*
X134139814Y-41434334D01*
X134167140Y-41351867D01*
X134193437Y-41306827D01*
X134235720Y-41276294D01*
X134286745Y-41265500D01*
X134953255Y-41265500D01*
X135004280Y-41276294D01*
X135046563Y-41306827D01*
X135072859Y-41351867D01*
X135100184Y-41434331D01*
X135100186Y-41434334D01*
X135192288Y-41583656D01*
X135316344Y-41707712D01*
X135465666Y-41799814D01*
X135465668Y-41799815D01*
X135632198Y-41854998D01*
X135632200Y-41854998D01*
X135632203Y-41854999D01*
X135734991Y-41865500D01*
X136411218Y-41865499D01*
X136459436Y-41875090D01*
X136500313Y-41902404D01*
X136671539Y-42073630D01*
X136684472Y-42089771D01*
X136686713Y-42091875D01*
X136686714Y-42091877D01*
X136735706Y-42137884D01*
X136738517Y-42140608D01*
X136750237Y-42152328D01*
X136758029Y-42160120D01*
X136761128Y-42162524D01*
X136770150Y-42170230D01*
X136801918Y-42200062D01*
X136819333Y-42209636D01*
X136835860Y-42220492D01*
X136851564Y-42232673D01*
X136891557Y-42249979D01*
X136902208Y-42255196D01*
X136940408Y-42276197D01*
X136959672Y-42281143D01*
X136978353Y-42287539D01*
X136996604Y-42295437D01*
X137039655Y-42302255D01*
X137051247Y-42304655D01*
X137093481Y-42315500D01*
X137113356Y-42315500D01*
X137133066Y-42317050D01*
X137152696Y-42320160D01*
X137196079Y-42316058D01*
X137207937Y-42315500D01*
X141437246Y-42315500D01*
X141503846Y-42334540D01*
X141550318Y-42385906D01*
X141562617Y-42454074D01*
X141537025Y-42518442D01*
X141481278Y-42559556D01*
X141374037Y-42599554D01*
X141257095Y-42687095D01*
X141169554Y-42804037D01*
X141118505Y-42940906D01*
X141112000Y-43001411D01*
X141112000Y-43546000D01*
X144128000Y-43546000D01*
X144128000Y-43001411D01*
X144121494Y-42940906D01*
X144070445Y-42804037D01*
X143982904Y-42687095D01*
X143865962Y-42599554D01*
X143758722Y-42559556D01*
X143702975Y-42518442D01*
X143677383Y-42454074D01*
X143689682Y-42385906D01*
X143736154Y-42334540D01*
X143802754Y-42315500D01*
X148058720Y-42315500D01*
X148106938Y-42325091D01*
X148147815Y-42352405D01*
X148472595Y-42677185D01*
X148499909Y-42718062D01*
X148509500Y-42766280D01*
X148509500Y-44077874D01*
X148515908Y-44137481D01*
X148566204Y-44272331D01*
X148652453Y-44387546D01*
X148738702Y-44452112D01*
X148767669Y-44473796D01*
X148885164Y-44517618D01*
X148935497Y-44552181D01*
X148963671Y-44606351D01*
X148963070Y-44667407D01*
X148933833Y-44721011D01*
X148784676Y-44883040D01*
X148661580Y-45071451D01*
X148571177Y-45277548D01*
X148523455Y-45465999D01*
X148523456Y-45466000D01*
X153736544Y-45466000D01*
X153736544Y-45465999D01*
X153688822Y-45277548D01*
X153598419Y-45071451D01*
X153475321Y-44883037D01*
X153322903Y-44717466D01*
X153145302Y-44579233D01*
X153105183Y-44557522D01*
X153058808Y-44514285D01*
X153039361Y-44453938D01*
X153051766Y-44391759D01*
X153092881Y-44343496D01*
X153271401Y-44218495D01*
X153438495Y-44051401D01*
X153574035Y-43857830D01*
X153673903Y-43643663D01*
X153735063Y-43415408D01*
X153755659Y-43180000D01*
X153735063Y-42944592D01*
X153673903Y-42716337D01*
X153574035Y-42502171D01*
X153438495Y-42308599D01*
X153438494Y-42308598D01*
X153438492Y-42308595D01*
X153271404Y-42141507D01*
X153077830Y-42005965D01*
X152863663Y-41906096D01*
X152635409Y-41844937D01*
X152458966Y-41829500D01*
X152400000Y-41824341D01*
X152399999Y-41824341D01*
X152164590Y-41844937D01*
X151936337Y-41906096D01*
X151722170Y-42005965D01*
X151528598Y-42141505D01*
X151408873Y-42261230D01*
X151355276Y-42293030D01*
X151292994Y-42295254D01*
X151237265Y-42267358D01*
X151201722Y-42216166D01*
X151201069Y-42214414D01*
X151153796Y-42087669D01*
X151132112Y-42058703D01*
X151067546Y-41972453D01*
X150952331Y-41886204D01*
X150916929Y-41873000D01*
X150817483Y-41835909D01*
X150757873Y-41829500D01*
X150757872Y-41829500D01*
X149446281Y-41829500D01*
X149398063Y-41819909D01*
X149357186Y-41792595D01*
X148870960Y-41306369D01*
X148858029Y-41290229D01*
X148806775Y-41242097D01*
X148803934Y-41239343D01*
X148784471Y-41219880D01*
X148781371Y-41217475D01*
X148772353Y-41209773D01*
X148754387Y-41192902D01*
X148740582Y-41179938D01*
X148737788Y-41178402D01*
X148723157Y-41170358D01*
X148706633Y-41159503D01*
X148690934Y-41147325D01*
X148650931Y-41130014D01*
X148640285Y-41124799D01*
X148602092Y-41103803D01*
X148602089Y-41103802D01*
X148582846Y-41098861D01*
X148564144Y-41092458D01*
X148545896Y-41084561D01*
X148502855Y-41077744D01*
X148491236Y-41075338D01*
X148449021Y-41064500D01*
X148449019Y-41064500D01*
X148429144Y-41064500D01*
X148409435Y-41062949D01*
X148389804Y-41059840D01*
X148389803Y-41059840D01*
X148346421Y-41063941D01*
X148334563Y-41064500D01*
X142099019Y-41064500D01*
X139419000Y-41064500D01*
X139356000Y-41047619D01*
X139309881Y-41001500D01*
X139293000Y-40938500D01*
X139293000Y-40894000D01*
X138069500Y-40894000D01*
X138006500Y-40877119D01*
X137960381Y-40831000D01*
X137943500Y-40768000D01*
X137943500Y-39407000D01*
X138451500Y-39407000D01*
X138451500Y-40386000D01*
X139293000Y-40386000D01*
X139293000Y-40114497D01*
X139282393Y-40010671D01*
X139226659Y-39842477D01*
X139133632Y-39691657D01*
X139008342Y-39566367D01*
X138857522Y-39473340D01*
X138689328Y-39417606D01*
X138585503Y-39407000D01*
X138451500Y-39407000D01*
X137943500Y-39407000D01*
X137809497Y-39407000D01*
X137705671Y-39417606D01*
X137537477Y-39473340D01*
X137386657Y-39566367D01*
X137250951Y-39702074D01*
X137250225Y-39701348D01*
X137216990Y-39733160D01*
X137155582Y-39749131D01*
X137094177Y-39733149D01*
X137064831Y-39705052D01*
X137063126Y-39706758D01*
X136928658Y-39572290D01*
X136928656Y-39572288D01*
X136779334Y-39480186D01*
X136779331Y-39480184D01*
X136612801Y-39425001D01*
X136567113Y-39420333D01*
X136510009Y-39414500D01*
X136510004Y-39414500D01*
X135734995Y-39414500D01*
X135632199Y-39425001D01*
X135465668Y-39480184D01*
X135316341Y-39572290D01*
X135192290Y-39696341D01*
X135100184Y-39845668D01*
X135072859Y-39928133D01*
X135046563Y-39973173D01*
X135004280Y-40003706D01*
X134953255Y-40014500D01*
X134286745Y-40014500D01*
X134235720Y-40003706D01*
X134193437Y-39973173D01*
X134167141Y-39928133D01*
X134139815Y-39845668D01*
X134134551Y-39837134D01*
X134047712Y-39696344D01*
X133923656Y-39572288D01*
X133774334Y-39480186D01*
X133774331Y-39480184D01*
X133607801Y-39425001D01*
X133562113Y-39420333D01*
X133505009Y-39414500D01*
X133505004Y-39414500D01*
X132729995Y-39414500D01*
X132627199Y-39425001D01*
X132460668Y-39480184D01*
X132311341Y-39572290D01*
X132176874Y-39706758D01*
X132175168Y-39705052D01*
X132145809Y-39733157D01*
X132084404Y-39749131D01*
X132023000Y-39733155D01*
X131989774Y-39701348D01*
X131989049Y-39702074D01*
X131853342Y-39566367D01*
X131702522Y-39473340D01*
X131534328Y-39417606D01*
X131430503Y-39407000D01*
X131296500Y-39407000D01*
X131296500Y-41873000D01*
X131430503Y-41873000D01*
X131534328Y-41862393D01*
X131702522Y-41806659D01*
X131853342Y-41713632D01*
X131989049Y-41577926D01*
X131989774Y-41578651D01*
X132022998Y-41546845D01*
X132084407Y-41530868D01*
X132145815Y-41546846D01*
X132175168Y-41574947D01*
X132176874Y-41573242D01*
X132187287Y-41583655D01*
X132187288Y-41583656D01*
X132311344Y-41707712D01*
X132432148Y-41782224D01*
X132476024Y-41828058D01*
X132492000Y-41889464D01*
X132492000Y-44721219D01*
X132482409Y-44769437D01*
X132455095Y-44810314D01*
X130127814Y-47137595D01*
X130086937Y-47164909D01*
X130038719Y-47174500D01*
X128246499Y-47174500D01*
X128183499Y-47157619D01*
X128137380Y-47111500D01*
X128120499Y-47048500D01*
X128120499Y-47002125D01*
X128114091Y-46942518D01*
X128110869Y-46933880D01*
X128081359Y-46854760D01*
X128073416Y-46810729D01*
X128081361Y-46766696D01*
X128121494Y-46659095D01*
X128128000Y-46598589D01*
X128128000Y-46054000D01*
X125112000Y-46054000D01*
X125112000Y-46598589D01*
X121325500Y-46598589D01*
X121325500Y-45416992D01*
X121335091Y-45368774D01*
X121362405Y-45327896D01*
X122177898Y-44512404D01*
X122218775Y-44485091D01*
X122266993Y-44475500D01*
X124993501Y-44475500D01*
X125056501Y-44492381D01*
X125102620Y-44538500D01*
X125116787Y-44591372D01*
X125118779Y-44591158D01*
X125125908Y-44657481D01*
X125158639Y-44745237D01*
X125166583Y-44789269D01*
X125158639Y-44833301D01*
X125118505Y-44940906D01*
X125112000Y-45001411D01*
X125112000Y-45546000D01*
X128128000Y-45546000D01*
X128128000Y-45001411D01*
X128121494Y-44940906D01*
X128081360Y-44833301D01*
X128073416Y-44789269D01*
X128081359Y-44745241D01*
X128114091Y-44657483D01*
X128120500Y-44597873D01*
X128120499Y-43002128D01*
X128114091Y-42942517D01*
X128063796Y-42807669D01*
X128015751Y-42743489D01*
X127977546Y-42692453D01*
X127862331Y-42606204D01*
X127844501Y-42599554D01*
X127727483Y-42555909D01*
X127667872Y-42549500D01*
X125572125Y-42549500D01*
X125512518Y-42555908D01*
X125377668Y-42606204D01*
X125262453Y-42692453D01*
X125176204Y-42807668D01*
X125125909Y-42942517D01*
X125118778Y-43008843D01*
X125116785Y-43008628D01*
X125102619Y-43061500D01*
X125056500Y-43107619D01*
X124993500Y-43124500D01*
X121837978Y-43124500D01*
X121805405Y-43132528D01*
X121790441Y-43135270D01*
X121757155Y-43139311D01*
X121725794Y-43151205D01*
X121711273Y-43155730D01*
X121678700Y-43163759D01*
X121648997Y-43179347D01*
X121635134Y-43185587D01*
X121603772Y-43197482D01*
X121576170Y-43216534D01*
X121563156Y-43224402D01*
X121533454Y-43239991D01*
X121508348Y-43262233D01*
X121496376Y-43271612D01*
X121468771Y-43290667D01*
X121446526Y-43315775D01*
X121435775Y-43326526D01*
X121410666Y-43348772D01*
X121391610Y-43376378D01*
X121382232Y-43388349D01*
X121355234Y-43418824D01*
X121339525Y-43440171D01*
X120189476Y-44590221D01*
X120183936Y-44595437D01*
X120140667Y-44633771D01*
X120107823Y-44681352D01*
X120103315Y-44687478D01*
X120067672Y-44732973D01*
X120063895Y-44741364D01*
X120052704Y-44761205D01*
X120047482Y-44768771D01*
X120026986Y-44822812D01*
X120024076Y-44829836D01*
X120000349Y-44882558D01*
X119998693Y-44891598D01*
X119992574Y-44913550D01*
X119989312Y-44922152D01*
X119982341Y-44979552D01*
X119981197Y-44987071D01*
X119970780Y-45043916D01*
X119974270Y-45101598D01*
X119974500Y-45109206D01*
X119974500Y-47316693D01*
X119958524Y-47378099D01*
X119914648Y-47423932D01*
X119898750Y-47433739D01*
X119889150Y-47439660D01*
X119767160Y-47561649D01*
X119676590Y-47708486D01*
X119622326Y-47872243D01*
X119622326Y-47872247D01*
X119612051Y-47972829D01*
X119612000Y-47973327D01*
X119612000Y-48546672D01*
X119622326Y-48647756D01*
X119676590Y-48811513D01*
X119699861Y-48849241D01*
X119767160Y-48958350D01*
X119889150Y-49080340D01*
X119898748Y-49086260D01*
X119899648Y-49086815D01*
X119943524Y-49132649D01*
X119959500Y-49194055D01*
X119959500Y-50264619D01*
X119949909Y-50312837D01*
X119922595Y-50353714D01*
X119829662Y-50446646D01*
X119739090Y-50593486D01*
X119684826Y-50757243D01*
X119684826Y-50757247D01*
X119675791Y-50845693D01*
X119674500Y-50858327D01*
X119674500Y-51531672D01*
X119684826Y-51632756D01*
X119739090Y-51796513D01*
X119753032Y-51819117D01*
X119805952Y-51904914D01*
X119829662Y-51943353D01*
X119867214Y-51980905D01*
X119899826Y-52037389D01*
X119899826Y-52102611D01*
X119867214Y-52159095D01*
X119829662Y-52196646D01*
X119739090Y-52343486D01*
X119684826Y-52507243D01*
X119680305Y-52551500D01*
X119675300Y-52600500D01*
X119674500Y-52608327D01*
X119674500Y-53281672D01*
X119684826Y-53382756D01*
X119739090Y-53546513D01*
X119829662Y-53693353D01*
X119922595Y-53786286D01*
X119949909Y-53827163D01*
X119959500Y-53875381D01*
X119959500Y-54945945D01*
X119943524Y-55007351D01*
X119899648Y-55053185D01*
X119889151Y-55059659D01*
X119767160Y-55181649D01*
X119676590Y-55328486D01*
X119622326Y-55492243D01*
X119617302Y-55541420D01*
X119612051Y-55592829D01*
X119612000Y-55593327D01*
X119612000Y-56166672D01*
X119622326Y-56267756D01*
X119676590Y-56431513D01*
X119676592Y-56431516D01*
X119767160Y-56578350D01*
X119889150Y-56700340D01*
X119898249Y-56705952D01*
X119938369Y-56745489D01*
X119957251Y-56798562D01*
X119951119Y-56854559D01*
X119921198Y-56902287D01*
X119020888Y-57802597D01*
X118980014Y-57829909D01*
X118931796Y-57839500D01*
X117800271Y-57839500D01*
X117756029Y-57831477D01*
X117659415Y-57795246D01*
X117626252Y-57773293D01*
X117625576Y-57774266D01*
X117514021Y-57696622D01*
X117474319Y-57651544D01*
X117460000Y-57593206D01*
X117460000Y-40894000D01*
X129947000Y-40894000D01*
X129947000Y-41165503D01*
X129957606Y-41269328D01*
X130013340Y-41437522D01*
X130106367Y-41588342D01*
X130231657Y-41713632D01*
X130382477Y-41806659D01*
X130550671Y-41862393D01*
X130654497Y-41873000D01*
X130788500Y-41873000D01*
X130788500Y-40894000D01*
X129947000Y-40894000D01*
X117460000Y-40894000D01*
X117460000Y-40386000D01*
X129947000Y-40386000D01*
X130788500Y-40386000D01*
X130788500Y-39407000D01*
X130654497Y-39407000D01*
X130550671Y-39417606D01*
X130382477Y-39473340D01*
X130231657Y-39566367D01*
X130106367Y-39691657D01*
X130013340Y-39842477D01*
X129957606Y-40010671D01*
X129947000Y-40114497D01*
X129947000Y-40386000D01*
X117460000Y-40386000D01*
X117460000Y-39830000D01*
X111729228Y-39830000D01*
X111686807Y-39822644D01*
X111649339Y-39801436D01*
X111648597Y-39800826D01*
X111637178Y-39790215D01*
X111615059Y-39766947D01*
X111615058Y-39766946D01*
X111568163Y-39734305D01*
X111560213Y-39728291D01*
X111531895Y-39705052D01*
X111518538Y-39694090D01*
X111513710Y-39691509D01*
X111489905Y-39678785D01*
X111477324Y-39671081D01*
X111448049Y-39650705D01*
X111398828Y-39629582D01*
X111389124Y-39624916D01*
X111344728Y-39601186D01*
X111310237Y-39590723D01*
X111297126Y-39585938D01*
X111269673Y-39574157D01*
X111261058Y-39570460D01*
X111212085Y-39560395D01*
X111200898Y-39557555D01*
X111156132Y-39543976D01*
X111156129Y-39543975D01*
X111116701Y-39540092D01*
X111103689Y-39538120D01*
X111061741Y-39529500D01*
X111015340Y-39529500D01*
X111002989Y-39528893D01*
X110959999Y-39524658D01*
X110917011Y-39528893D01*
X110904660Y-39529500D01*
X106015340Y-39529500D01*
X106002989Y-39528893D01*
X105959999Y-39524658D01*
X105917011Y-39528893D01*
X105913557Y-39529062D01*
X105860393Y-39534467D01*
X105860003Y-39534506D01*
X105767878Y-39543581D01*
X105763879Y-39543975D01*
X105759087Y-39544447D01*
X105665512Y-39573805D01*
X105664372Y-39574157D01*
X105569198Y-39603029D01*
X105566247Y-39604267D01*
X105482212Y-39650909D01*
X105480463Y-39651861D01*
X105398913Y-39695451D01*
X105385619Y-39704486D01*
X105317735Y-39762762D01*
X105315599Y-39764555D01*
X105249115Y-39819118D01*
X105248990Y-39819271D01*
X105233681Y-39834922D01*
X105231107Y-39837131D01*
X105178637Y-39904914D01*
X105176401Y-39907718D01*
X105124090Y-39971460D01*
X105122305Y-39974800D01*
X105110828Y-39992517D01*
X105106553Y-39998039D01*
X105070379Y-40071784D01*
X105068379Y-40075687D01*
X105031185Y-40145274D01*
X105029045Y-40152328D01*
X105021600Y-40171228D01*
X105016940Y-40180729D01*
X104997251Y-40256767D01*
X104995849Y-40261755D01*
X104973976Y-40333864D01*
X104972901Y-40344781D01*
X104969488Y-40363998D01*
X104965936Y-40377716D01*
X104962138Y-40452604D01*
X104961693Y-40458568D01*
X104954658Y-40529999D01*
X104956085Y-40544487D01*
X104956529Y-40563208D01*
X104955630Y-40580934D01*
X104966443Y-40651519D01*
X104967289Y-40658247D01*
X104973975Y-40726133D01*
X104979240Y-40743489D01*
X104983211Y-40760975D01*
X104986444Y-40782071D01*
X105010006Y-40845693D01*
X105012423Y-40852875D01*
X105031186Y-40914728D01*
X105041423Y-40933880D01*
X105048455Y-40949509D01*
X105057114Y-40972887D01*
X105057115Y-40972889D01*
X105057116Y-40972891D01*
X105091110Y-41027432D01*
X105095301Y-41034681D01*
X105124088Y-41088536D01*
X105140136Y-41108090D01*
X105149666Y-41121374D01*
X105164749Y-41145573D01*
X105206570Y-41189567D01*
X105212648Y-41196446D01*
X105231400Y-41219296D01*
X105252635Y-41256781D01*
X105260000Y-41299228D01*
X105260000Y-41756737D01*
X105253227Y-41797492D01*
X105233636Y-41833865D01*
X105178637Y-41904914D01*
X105176401Y-41907718D01*
X105124090Y-41971460D01*
X105122305Y-41974800D01*
X105110828Y-41992517D01*
X105106553Y-41998039D01*
X105070379Y-42071784D01*
X105068379Y-42075687D01*
X105031185Y-42145274D01*
X105029045Y-42152328D01*
X105021600Y-42171228D01*
X105016940Y-42180729D01*
X104997251Y-42256767D01*
X104995849Y-42261755D01*
X104973976Y-42333864D01*
X104972901Y-42344781D01*
X104969488Y-42363998D01*
X104965936Y-42377716D01*
X104962138Y-42452604D01*
X104961693Y-42458568D01*
X104954658Y-42529999D01*
X104956085Y-42544487D01*
X104956529Y-42563208D01*
X104955630Y-42580934D01*
X104966443Y-42651519D01*
X104967289Y-42658247D01*
X104973975Y-42726133D01*
X104979240Y-42743489D01*
X104983211Y-42760975D01*
X104986444Y-42782071D01*
X105010006Y-42845693D01*
X105012423Y-42852875D01*
X105031186Y-42914728D01*
X105041423Y-42933880D01*
X105048455Y-42949509D01*
X105057114Y-42972887D01*
X105057115Y-42972889D01*
X105057116Y-42972891D01*
X105091110Y-43027432D01*
X105095301Y-43034681D01*
X105124088Y-43088536D01*
X105140136Y-43108090D01*
X105149666Y-43121374D01*
X105164749Y-43145573D01*
X105182036Y-43163758D01*
X105202786Y-43185587D01*
X105206570Y-43189567D01*
X105212648Y-43196446D01*
X105231400Y-43219296D01*
X105252635Y-43256781D01*
X105260000Y-43299228D01*
X105260000Y-43756737D01*
X105253227Y-43797492D01*
X105233636Y-43833865D01*
X105178637Y-43904914D01*
X105176401Y-43907718D01*
X105124090Y-43971460D01*
X105122305Y-43974800D01*
X105110828Y-43992517D01*
X105106553Y-43998039D01*
X105070379Y-44071784D01*
X105068379Y-44075687D01*
X105031185Y-44145274D01*
X105029045Y-44152328D01*
X105021600Y-44171228D01*
X105016940Y-44180729D01*
X104997251Y-44256767D01*
X104995849Y-44261755D01*
X104973976Y-44333864D01*
X104972901Y-44344781D01*
X104969488Y-44363998D01*
X104965936Y-44377716D01*
X104962138Y-44452604D01*
X104961693Y-44458568D01*
X104954658Y-44529999D01*
X104956085Y-44544487D01*
X104956529Y-44563208D01*
X104955630Y-44580934D01*
X104966443Y-44651519D01*
X104967289Y-44658247D01*
X104973975Y-44726133D01*
X104979240Y-44743489D01*
X104983211Y-44760975D01*
X104986444Y-44782071D01*
X105010006Y-44845693D01*
X105012423Y-44852875D01*
X105031186Y-44914728D01*
X105041423Y-44933880D01*
X105048455Y-44949509D01*
X105057114Y-44972887D01*
X105057115Y-44972889D01*
X105057116Y-44972891D01*
X105091110Y-45027432D01*
X105095301Y-45034681D01*
X105124088Y-45088536D01*
X105140136Y-45108090D01*
X105149666Y-45121374D01*
X105164749Y-45145573D01*
X105194900Y-45177291D01*
X105200170Y-45182835D01*
X105206570Y-45189567D01*
X105212648Y-45196446D01*
X105231400Y-45219296D01*
X105252635Y-45256781D01*
X105260000Y-45299228D01*
X105260000Y-45756737D01*
X105253227Y-45797492D01*
X105233636Y-45833865D01*
X105178637Y-45904914D01*
X105176401Y-45907718D01*
X105124090Y-45971460D01*
X105122305Y-45974800D01*
X105110828Y-45992517D01*
X105106553Y-45998039D01*
X105070379Y-46071784D01*
X105068379Y-46075687D01*
X105031185Y-46145274D01*
X105029045Y-46152328D01*
X105021600Y-46171228D01*
X105016940Y-46180729D01*
X104997251Y-46256767D01*
X104995849Y-46261755D01*
X104973976Y-46333864D01*
X104972901Y-46344781D01*
X104969488Y-46363998D01*
X104965936Y-46377716D01*
X104962138Y-46452604D01*
X104961693Y-46458568D01*
X104954658Y-46529999D01*
X104956085Y-46544487D01*
X104956529Y-46563208D01*
X104955630Y-46580934D01*
X104966443Y-46651519D01*
X104967289Y-46658247D01*
X104973975Y-46726133D01*
X104979240Y-46743489D01*
X104983211Y-46760975D01*
X104986444Y-46782071D01*
X105010006Y-46845693D01*
X105012423Y-46852875D01*
X105031186Y-46914728D01*
X105041423Y-46933880D01*
X105048455Y-46949509D01*
X105057114Y-46972887D01*
X105057115Y-46972889D01*
X105057116Y-46972891D01*
X105091110Y-47027432D01*
X105095301Y-47034681D01*
X105124088Y-47088536D01*
X105140136Y-47108090D01*
X105149666Y-47121374D01*
X105164749Y-47145573D01*
X105206570Y-47189567D01*
X105212648Y-47196446D01*
X105231400Y-47219296D01*
X105252635Y-47256781D01*
X105260000Y-47299228D01*
X105260000Y-47756737D01*
X105253227Y-47797492D01*
X105233636Y-47833865D01*
X105178637Y-47904914D01*
X105176401Y-47907718D01*
X105124090Y-47971460D01*
X105122305Y-47974800D01*
X105110828Y-47992517D01*
X105106553Y-47998039D01*
X105070379Y-48071784D01*
X105068379Y-48075687D01*
X105031185Y-48145274D01*
X105029045Y-48152328D01*
X105021600Y-48171228D01*
X105016940Y-48180729D01*
X104997251Y-48256767D01*
X104995849Y-48261755D01*
X104973976Y-48333864D01*
X104972901Y-48344781D01*
X104969488Y-48363998D01*
X104965936Y-48377716D01*
X104962138Y-48452604D01*
X104961693Y-48458568D01*
X104954658Y-48529999D01*
X104956085Y-48544487D01*
X104956529Y-48563208D01*
X104955630Y-48580934D01*
X104966443Y-48651519D01*
X104967289Y-48658247D01*
X104973975Y-48726133D01*
X104979240Y-48743489D01*
X104983211Y-48760975D01*
X104986444Y-48782071D01*
X105010006Y-48845693D01*
X105012423Y-48852875D01*
X105031186Y-48914728D01*
X105041423Y-48933880D01*
X105048455Y-48949509D01*
X105057114Y-48972887D01*
X105057115Y-48972889D01*
X105057116Y-48972891D01*
X105091110Y-49027432D01*
X105095301Y-49034681D01*
X105124088Y-49088536D01*
X105140136Y-49108090D01*
X105149663Y-49121370D01*
X105155916Y-49131401D01*
X105164749Y-49145573D01*
X105206570Y-49189567D01*
X105212648Y-49196446D01*
X105231400Y-49219296D01*
X105252635Y-49256781D01*
X105260000Y-49299228D01*
X105260000Y-49756737D01*
X105253227Y-49797492D01*
X105233636Y-49833865D01*
X105178637Y-49904914D01*
X105176401Y-49907718D01*
X105124090Y-49971460D01*
X105122305Y-49974800D01*
X105110828Y-49992517D01*
X105106553Y-49998039D01*
X105070379Y-50071784D01*
X105068379Y-50075687D01*
X105031185Y-50145274D01*
X105029045Y-50152328D01*
X105021600Y-50171228D01*
X105016940Y-50180729D01*
X104997251Y-50256767D01*
X104995849Y-50261755D01*
X104973976Y-50333864D01*
X104972901Y-50344781D01*
X104969488Y-50363998D01*
X104965936Y-50377716D01*
X104962138Y-50452604D01*
X104961693Y-50458568D01*
X104954658Y-50529999D01*
X104956085Y-50544487D01*
X104956529Y-50563208D01*
X104955630Y-50580934D01*
X104966443Y-50651519D01*
X104967289Y-50658247D01*
X104973975Y-50726133D01*
X104979240Y-50743489D01*
X104983211Y-50760975D01*
X104986444Y-50782071D01*
X105010006Y-50845693D01*
X105012423Y-50852875D01*
X105031186Y-50914728D01*
X105041423Y-50933880D01*
X105048455Y-50949509D01*
X105057114Y-50972887D01*
X105057115Y-50972889D01*
X105057116Y-50972891D01*
X105091110Y-51027432D01*
X105095301Y-51034681D01*
X105124088Y-51088536D01*
X105140136Y-51108090D01*
X105149666Y-51121374D01*
X105164749Y-51145573D01*
X105206570Y-51189567D01*
X105212648Y-51196446D01*
X105231400Y-51219296D01*
X105252635Y-51256781D01*
X105260000Y-51299228D01*
X105260000Y-51756737D01*
X105253227Y-51797492D01*
X105233636Y-51833865D01*
X105231106Y-51837132D01*
X105231105Y-51837134D01*
X105223445Y-51847030D01*
X105178637Y-51904914D01*
X105176401Y-51907718D01*
X105124090Y-51971460D01*
X105122305Y-51974800D01*
X105110828Y-51992517D01*
X105106553Y-51998039D01*
X105070379Y-52071784D01*
X105068379Y-52075687D01*
X105031185Y-52145274D01*
X105029045Y-52152328D01*
X105021600Y-52171228D01*
X105016940Y-52180729D01*
X104997251Y-52256767D01*
X104995849Y-52261755D01*
X104973976Y-52333864D01*
X104973976Y-52333868D01*
X104973029Y-52343486D01*
X104972901Y-52344781D01*
X104969488Y-52363998D01*
X104965936Y-52377716D01*
X104962138Y-52452604D01*
X104961693Y-52458568D01*
X104954658Y-52529999D01*
X104956085Y-52544487D01*
X104956529Y-52563208D01*
X104955630Y-52580934D01*
X104966443Y-52651519D01*
X104967289Y-52658247D01*
X104973975Y-52726133D01*
X104979240Y-52743489D01*
X104983211Y-52760975D01*
X104986444Y-52782071D01*
X105010006Y-52845693D01*
X105012423Y-52852875D01*
X105031186Y-52914728D01*
X105041423Y-52933880D01*
X105048455Y-52949509D01*
X105057114Y-52972887D01*
X105057115Y-52972889D01*
X105057116Y-52972891D01*
X105091110Y-53027432D01*
X105095301Y-53034681D01*
X105124088Y-53088536D01*
X105124090Y-53088538D01*
X105137263Y-53104590D01*
X105140136Y-53108090D01*
X105149666Y-53121374D01*
X105164749Y-53145573D01*
X105206570Y-53189567D01*
X105212648Y-53196446D01*
X105231400Y-53219296D01*
X105252635Y-53256781D01*
X105260000Y-53299228D01*
X105260000Y-53756737D01*
X105253227Y-53797492D01*
X105233636Y-53833865D01*
X105178637Y-53904914D01*
X105176401Y-53907718D01*
X105124090Y-53971460D01*
X105122305Y-53974800D01*
X105110828Y-53992517D01*
X105106553Y-53998039D01*
X105070379Y-54071784D01*
X105068379Y-54075687D01*
X105031185Y-54145274D01*
X105029045Y-54152328D01*
X105021600Y-54171228D01*
X105016940Y-54180729D01*
X104997251Y-54256767D01*
X104995849Y-54261755D01*
X104973976Y-54333864D01*
X104972901Y-54344781D01*
X104969488Y-54363998D01*
X104965936Y-54377716D01*
X104962138Y-54452604D01*
X104961693Y-54458568D01*
X104954658Y-54529999D01*
X104956085Y-54544487D01*
X104956529Y-54563208D01*
X104955630Y-54580934D01*
X104966443Y-54651519D01*
X104967289Y-54658247D01*
X104973975Y-54726133D01*
X104979240Y-54743489D01*
X104983211Y-54760975D01*
X104986444Y-54782071D01*
X105010006Y-54845693D01*
X105012423Y-54852875D01*
X105031186Y-54914728D01*
X105041423Y-54933880D01*
X105048455Y-54949509D01*
X105057114Y-54972887D01*
X105057115Y-54972889D01*
X105057116Y-54972891D01*
X105091110Y-55027432D01*
X105095301Y-55034681D01*
X105124088Y-55088536D01*
X105140136Y-55108090D01*
X105149666Y-55121374D01*
X105164749Y-55145573D01*
X105206570Y-55189567D01*
X105212648Y-55196446D01*
X105231400Y-55219296D01*
X105252635Y-55256781D01*
X105260000Y-55299228D01*
X105260000Y-55756737D01*
X105253227Y-55797492D01*
X105233636Y-55833865D01*
X105178637Y-55904914D01*
X105176401Y-55907718D01*
X105124090Y-55971460D01*
X105122305Y-55974800D01*
X105110828Y-55992517D01*
X105106553Y-55998039D01*
X105070379Y-56071784D01*
X105068379Y-56075687D01*
X105031185Y-56145274D01*
X105029045Y-56152328D01*
X105021600Y-56171228D01*
X105016940Y-56180729D01*
X104997251Y-56256767D01*
X104995849Y-56261755D01*
X104973976Y-56333864D01*
X104972901Y-56344781D01*
X104969488Y-56363998D01*
X104965936Y-56377716D01*
X104962138Y-56452604D01*
X104961693Y-56458568D01*
X104954658Y-56529999D01*
X104956085Y-56544487D01*
X104956529Y-56563208D01*
X104955630Y-56580934D01*
X104966443Y-56651519D01*
X104967289Y-56658247D01*
X104973975Y-56726133D01*
X104979240Y-56743489D01*
X104983211Y-56760975D01*
X104986444Y-56782071D01*
X105010006Y-56845693D01*
X105012423Y-56852875D01*
X105031186Y-56914728D01*
X105041423Y-56933880D01*
X105048455Y-56949509D01*
X105057114Y-56972887D01*
X105057115Y-56972889D01*
X105057116Y-56972891D01*
X105091110Y-57027432D01*
X105095301Y-57034681D01*
X105124088Y-57088536D01*
X105140136Y-57108090D01*
X105149666Y-57121374D01*
X105164749Y-57145573D01*
X105172668Y-57153903D01*
X105205500Y-57188442D01*
X105206570Y-57189567D01*
X105212648Y-57196446D01*
X105231400Y-57219296D01*
X105252635Y-57256781D01*
X105260000Y-57299228D01*
X105260000Y-57756737D01*
X105253227Y-57797492D01*
X105233636Y-57833865D01*
X105178637Y-57904914D01*
X105176401Y-57907718D01*
X105124090Y-57971460D01*
X105122305Y-57974800D01*
X105110828Y-57992517D01*
X105106553Y-57998039D01*
X105070379Y-58071784D01*
X105068379Y-58075687D01*
X105031185Y-58145274D01*
X105029045Y-58152328D01*
X105021600Y-58171228D01*
X105016940Y-58180729D01*
X104997251Y-58256767D01*
X104995849Y-58261755D01*
X104973976Y-58333864D01*
X104972901Y-58344781D01*
X104969488Y-58363998D01*
X104965936Y-58377716D01*
X104962138Y-58452604D01*
X104961693Y-58458568D01*
X104954658Y-58529999D01*
X104165500Y-58529999D01*
X104165500Y-38251500D01*
X104182381Y-38188500D01*
X104228500Y-38142381D01*
X104291500Y-38125500D01*
X156058500Y-38125500D01*
X156121500Y-38142381D01*
G37*
%TD.AperFunction*%
%TD*%
M02*
