%TF.GenerationSoftware,KiCad,Pcbnew,7.0.1*%
%TF.CreationDate,2023-03-26T17:23:28+02:00*%
%TF.ProjectId,RFM9xW_ANT_PMOD,52464d39-7857-45f4-914e-545f504d4f44,rev?*%
%TF.SameCoordinates,Original*%
%TF.FileFunction,Legend,Bot*%
%TF.FilePolarity,Positive*%
%FSLAX46Y46*%
G04 Gerber Fmt 4.6, Leading zero omitted, Abs format (unit mm)*
G04 Created by KiCad (PCBNEW 7.0.1) date 2023-03-26 17:23:28*
%MOMM*%
%LPD*%
G01*
G04 APERTURE LIST*
%ADD10C,0.150000*%
G04 APERTURE END LIST*
D10*
X142048809Y-41212619D02*
X142048809Y-40212619D01*
X142048809Y-40212619D02*
X141667857Y-40212619D01*
X141667857Y-40212619D02*
X141572619Y-40260238D01*
X141572619Y-40260238D02*
X141525000Y-40307857D01*
X141525000Y-40307857D02*
X141477381Y-40403095D01*
X141477381Y-40403095D02*
X141477381Y-40545952D01*
X141477381Y-40545952D02*
X141525000Y-40641190D01*
X141525000Y-40641190D02*
X141572619Y-40688809D01*
X141572619Y-40688809D02*
X141667857Y-40736428D01*
X141667857Y-40736428D02*
X142048809Y-40736428D01*
X141048809Y-41212619D02*
X141048809Y-40212619D01*
X141048809Y-40212619D02*
X140715476Y-40926904D01*
X140715476Y-40926904D02*
X140382143Y-40212619D01*
X140382143Y-40212619D02*
X140382143Y-41212619D01*
X139715476Y-40212619D02*
X139525000Y-40212619D01*
X139525000Y-40212619D02*
X139429762Y-40260238D01*
X139429762Y-40260238D02*
X139334524Y-40355476D01*
X139334524Y-40355476D02*
X139286905Y-40545952D01*
X139286905Y-40545952D02*
X139286905Y-40879285D01*
X139286905Y-40879285D02*
X139334524Y-41069761D01*
X139334524Y-41069761D02*
X139429762Y-41165000D01*
X139429762Y-41165000D02*
X139525000Y-41212619D01*
X139525000Y-41212619D02*
X139715476Y-41212619D01*
X139715476Y-41212619D02*
X139810714Y-41165000D01*
X139810714Y-41165000D02*
X139905952Y-41069761D01*
X139905952Y-41069761D02*
X139953571Y-40879285D01*
X139953571Y-40879285D02*
X139953571Y-40545952D01*
X139953571Y-40545952D02*
X139905952Y-40355476D01*
X139905952Y-40355476D02*
X139810714Y-40260238D01*
X139810714Y-40260238D02*
X139715476Y-40212619D01*
X138858333Y-41212619D02*
X138858333Y-40212619D01*
X138858333Y-40212619D02*
X138620238Y-40212619D01*
X138620238Y-40212619D02*
X138477381Y-40260238D01*
X138477381Y-40260238D02*
X138382143Y-40355476D01*
X138382143Y-40355476D02*
X138334524Y-40450714D01*
X138334524Y-40450714D02*
X138286905Y-40641190D01*
X138286905Y-40641190D02*
X138286905Y-40784047D01*
X138286905Y-40784047D02*
X138334524Y-40974523D01*
X138334524Y-40974523D02*
X138382143Y-41069761D01*
X138382143Y-41069761D02*
X138477381Y-41165000D01*
X138477381Y-41165000D02*
X138620238Y-41212619D01*
X138620238Y-41212619D02*
X138858333Y-41212619D01*
X136763095Y-40688809D02*
X136620238Y-40736428D01*
X136620238Y-40736428D02*
X136572619Y-40784047D01*
X136572619Y-40784047D02*
X136525000Y-40879285D01*
X136525000Y-40879285D02*
X136525000Y-41022142D01*
X136525000Y-41022142D02*
X136572619Y-41117380D01*
X136572619Y-41117380D02*
X136620238Y-41165000D01*
X136620238Y-41165000D02*
X136715476Y-41212619D01*
X136715476Y-41212619D02*
X137096428Y-41212619D01*
X137096428Y-41212619D02*
X137096428Y-40212619D01*
X137096428Y-40212619D02*
X136763095Y-40212619D01*
X136763095Y-40212619D02*
X136667857Y-40260238D01*
X136667857Y-40260238D02*
X136620238Y-40307857D01*
X136620238Y-40307857D02*
X136572619Y-40403095D01*
X136572619Y-40403095D02*
X136572619Y-40498333D01*
X136572619Y-40498333D02*
X136620238Y-40593571D01*
X136620238Y-40593571D02*
X136667857Y-40641190D01*
X136667857Y-40641190D02*
X136763095Y-40688809D01*
X136763095Y-40688809D02*
X137096428Y-40688809D01*
X136096428Y-41212619D02*
X136096428Y-40545952D01*
X136096428Y-40736428D02*
X136048809Y-40641190D01*
X136048809Y-40641190D02*
X136001190Y-40593571D01*
X136001190Y-40593571D02*
X135905952Y-40545952D01*
X135905952Y-40545952D02*
X135810714Y-40545952D01*
X135096428Y-41165000D02*
X135191666Y-41212619D01*
X135191666Y-41212619D02*
X135382142Y-41212619D01*
X135382142Y-41212619D02*
X135477380Y-41165000D01*
X135477380Y-41165000D02*
X135524999Y-41069761D01*
X135524999Y-41069761D02*
X135524999Y-40688809D01*
X135524999Y-40688809D02*
X135477380Y-40593571D01*
X135477380Y-40593571D02*
X135382142Y-40545952D01*
X135382142Y-40545952D02*
X135191666Y-40545952D01*
X135191666Y-40545952D02*
X135096428Y-40593571D01*
X135096428Y-40593571D02*
X135048809Y-40688809D01*
X135048809Y-40688809D02*
X135048809Y-40784047D01*
X135048809Y-40784047D02*
X135524999Y-40879285D01*
X134191666Y-41212619D02*
X134191666Y-40688809D01*
X134191666Y-40688809D02*
X134239285Y-40593571D01*
X134239285Y-40593571D02*
X134334523Y-40545952D01*
X134334523Y-40545952D02*
X134524999Y-40545952D01*
X134524999Y-40545952D02*
X134620237Y-40593571D01*
X134191666Y-41165000D02*
X134286904Y-41212619D01*
X134286904Y-41212619D02*
X134524999Y-41212619D01*
X134524999Y-41212619D02*
X134620237Y-41165000D01*
X134620237Y-41165000D02*
X134667856Y-41069761D01*
X134667856Y-41069761D02*
X134667856Y-40974523D01*
X134667856Y-40974523D02*
X134620237Y-40879285D01*
X134620237Y-40879285D02*
X134524999Y-40831666D01*
X134524999Y-40831666D02*
X134286904Y-40831666D01*
X134286904Y-40831666D02*
X134191666Y-40784047D01*
X133715475Y-41212619D02*
X133715475Y-40212619D01*
X133620237Y-40831666D02*
X133334523Y-41212619D01*
X133334523Y-40545952D02*
X133715475Y-40926904D01*
X132763094Y-41212619D02*
X132858332Y-41165000D01*
X132858332Y-41165000D02*
X132905951Y-41117380D01*
X132905951Y-41117380D02*
X132953570Y-41022142D01*
X132953570Y-41022142D02*
X132953570Y-40736428D01*
X132953570Y-40736428D02*
X132905951Y-40641190D01*
X132905951Y-40641190D02*
X132858332Y-40593571D01*
X132858332Y-40593571D02*
X132763094Y-40545952D01*
X132763094Y-40545952D02*
X132620237Y-40545952D01*
X132620237Y-40545952D02*
X132524999Y-40593571D01*
X132524999Y-40593571D02*
X132477380Y-40641190D01*
X132477380Y-40641190D02*
X132429761Y-40736428D01*
X132429761Y-40736428D02*
X132429761Y-41022142D01*
X132429761Y-41022142D02*
X132477380Y-41117380D01*
X132477380Y-41117380D02*
X132524999Y-41165000D01*
X132524999Y-41165000D02*
X132620237Y-41212619D01*
X132620237Y-41212619D02*
X132763094Y-41212619D01*
X131572618Y-40545952D02*
X131572618Y-41212619D01*
X132001189Y-40545952D02*
X132001189Y-41069761D01*
X132001189Y-41069761D02*
X131953570Y-41165000D01*
X131953570Y-41165000D02*
X131858332Y-41212619D01*
X131858332Y-41212619D02*
X131715475Y-41212619D01*
X131715475Y-41212619D02*
X131620237Y-41165000D01*
X131620237Y-41165000D02*
X131572618Y-41117380D01*
X131239284Y-40545952D02*
X130858332Y-40545952D01*
X131096427Y-40212619D02*
X131096427Y-41069761D01*
X131096427Y-41069761D02*
X131048808Y-41165000D01*
X131048808Y-41165000D02*
X130953570Y-41212619D01*
X130953570Y-41212619D02*
X130858332Y-41212619D01*
X144001190Y-42832619D02*
X144334523Y-42356428D01*
X144572618Y-42832619D02*
X144572618Y-41832619D01*
X144572618Y-41832619D02*
X144191666Y-41832619D01*
X144191666Y-41832619D02*
X144096428Y-41880238D01*
X144096428Y-41880238D02*
X144048809Y-41927857D01*
X144048809Y-41927857D02*
X144001190Y-42023095D01*
X144001190Y-42023095D02*
X144001190Y-42165952D01*
X144001190Y-42165952D02*
X144048809Y-42261190D01*
X144048809Y-42261190D02*
X144096428Y-42308809D01*
X144096428Y-42308809D02*
X144191666Y-42356428D01*
X144191666Y-42356428D02*
X144572618Y-42356428D01*
X143239285Y-42308809D02*
X143572618Y-42308809D01*
X143572618Y-42832619D02*
X143572618Y-41832619D01*
X143572618Y-41832619D02*
X143096428Y-41832619D01*
X142715475Y-42832619D02*
X142715475Y-41832619D01*
X142715475Y-41832619D02*
X142382142Y-42546904D01*
X142382142Y-42546904D02*
X142048809Y-41832619D01*
X142048809Y-41832619D02*
X142048809Y-42832619D01*
X141524999Y-42832619D02*
X141334523Y-42832619D01*
X141334523Y-42832619D02*
X141239285Y-42785000D01*
X141239285Y-42785000D02*
X141191666Y-42737380D01*
X141191666Y-42737380D02*
X141096428Y-42594523D01*
X141096428Y-42594523D02*
X141048809Y-42404047D01*
X141048809Y-42404047D02*
X141048809Y-42023095D01*
X141048809Y-42023095D02*
X141096428Y-41927857D01*
X141096428Y-41927857D02*
X141144047Y-41880238D01*
X141144047Y-41880238D02*
X141239285Y-41832619D01*
X141239285Y-41832619D02*
X141429761Y-41832619D01*
X141429761Y-41832619D02*
X141524999Y-41880238D01*
X141524999Y-41880238D02*
X141572618Y-41927857D01*
X141572618Y-41927857D02*
X141620237Y-42023095D01*
X141620237Y-42023095D02*
X141620237Y-42261190D01*
X141620237Y-42261190D02*
X141572618Y-42356428D01*
X141572618Y-42356428D02*
X141524999Y-42404047D01*
X141524999Y-42404047D02*
X141429761Y-42451666D01*
X141429761Y-42451666D02*
X141239285Y-42451666D01*
X141239285Y-42451666D02*
X141144047Y-42404047D01*
X141144047Y-42404047D02*
X141096428Y-42356428D01*
X141096428Y-42356428D02*
X141048809Y-42261190D01*
X140715475Y-42832619D02*
X140191666Y-42165952D01*
X140715475Y-42165952D02*
X140191666Y-42832619D01*
X139905951Y-41832619D02*
X139667856Y-42832619D01*
X139667856Y-42832619D02*
X139477380Y-42118333D01*
X139477380Y-42118333D02*
X139286904Y-42832619D01*
X139286904Y-42832619D02*
X139048809Y-41832619D01*
X137191666Y-41785000D02*
X138048808Y-43070714D01*
X135524999Y-42832619D02*
X135858332Y-42356428D01*
X136096427Y-42832619D02*
X136096427Y-41832619D01*
X136096427Y-41832619D02*
X135715475Y-41832619D01*
X135715475Y-41832619D02*
X135620237Y-41880238D01*
X135620237Y-41880238D02*
X135572618Y-41927857D01*
X135572618Y-41927857D02*
X135524999Y-42023095D01*
X135524999Y-42023095D02*
X135524999Y-42165952D01*
X135524999Y-42165952D02*
X135572618Y-42261190D01*
X135572618Y-42261190D02*
X135620237Y-42308809D01*
X135620237Y-42308809D02*
X135715475Y-42356428D01*
X135715475Y-42356428D02*
X136096427Y-42356428D01*
X134763094Y-42308809D02*
X135096427Y-42308809D01*
X135096427Y-42832619D02*
X135096427Y-41832619D01*
X135096427Y-41832619D02*
X134620237Y-41832619D01*
X134239284Y-42832619D02*
X134239284Y-41832619D01*
X134239284Y-41832619D02*
X133905951Y-42546904D01*
X133905951Y-42546904D02*
X133572618Y-41832619D01*
X133572618Y-41832619D02*
X133572618Y-42832619D01*
X132667856Y-41832619D02*
X132858332Y-41832619D01*
X132858332Y-41832619D02*
X132953570Y-41880238D01*
X132953570Y-41880238D02*
X133001189Y-41927857D01*
X133001189Y-41927857D02*
X133096427Y-42070714D01*
X133096427Y-42070714D02*
X133144046Y-42261190D01*
X133144046Y-42261190D02*
X133144046Y-42642142D01*
X133144046Y-42642142D02*
X133096427Y-42737380D01*
X133096427Y-42737380D02*
X133048808Y-42785000D01*
X133048808Y-42785000D02*
X132953570Y-42832619D01*
X132953570Y-42832619D02*
X132763094Y-42832619D01*
X132763094Y-42832619D02*
X132667856Y-42785000D01*
X132667856Y-42785000D02*
X132620237Y-42737380D01*
X132620237Y-42737380D02*
X132572618Y-42642142D01*
X132572618Y-42642142D02*
X132572618Y-42404047D01*
X132572618Y-42404047D02*
X132620237Y-42308809D01*
X132620237Y-42308809D02*
X132667856Y-42261190D01*
X132667856Y-42261190D02*
X132763094Y-42213571D01*
X132763094Y-42213571D02*
X132953570Y-42213571D01*
X132953570Y-42213571D02*
X133048808Y-42261190D01*
X133048808Y-42261190D02*
X133096427Y-42308809D01*
X133096427Y-42308809D02*
X133144046Y-42404047D01*
X132096427Y-42832619D02*
X131905951Y-42832619D01*
X131905951Y-42832619D02*
X131810713Y-42785000D01*
X131810713Y-42785000D02*
X131763094Y-42737380D01*
X131763094Y-42737380D02*
X131667856Y-42594523D01*
X131667856Y-42594523D02*
X131620237Y-42404047D01*
X131620237Y-42404047D02*
X131620237Y-42023095D01*
X131620237Y-42023095D02*
X131667856Y-41927857D01*
X131667856Y-41927857D02*
X131715475Y-41880238D01*
X131715475Y-41880238D02*
X131810713Y-41832619D01*
X131810713Y-41832619D02*
X132001189Y-41832619D01*
X132001189Y-41832619D02*
X132096427Y-41880238D01*
X132096427Y-41880238D02*
X132144046Y-41927857D01*
X132144046Y-41927857D02*
X132191665Y-42023095D01*
X132191665Y-42023095D02*
X132191665Y-42261190D01*
X132191665Y-42261190D02*
X132144046Y-42356428D01*
X132144046Y-42356428D02*
X132096427Y-42404047D01*
X132096427Y-42404047D02*
X132001189Y-42451666D01*
X132001189Y-42451666D02*
X131810713Y-42451666D01*
X131810713Y-42451666D02*
X131715475Y-42404047D01*
X131715475Y-42404047D02*
X131667856Y-42356428D01*
X131667856Y-42356428D02*
X131620237Y-42261190D01*
X131191665Y-42832619D02*
X131191665Y-41832619D01*
X131191665Y-42308809D02*
X130620237Y-42308809D01*
X130620237Y-42832619D02*
X130620237Y-41832619D01*
X129572618Y-42737380D02*
X129620237Y-42785000D01*
X129620237Y-42785000D02*
X129763094Y-42832619D01*
X129763094Y-42832619D02*
X129858332Y-42832619D01*
X129858332Y-42832619D02*
X130001189Y-42785000D01*
X130001189Y-42785000D02*
X130096427Y-42689761D01*
X130096427Y-42689761D02*
X130144046Y-42594523D01*
X130144046Y-42594523D02*
X130191665Y-42404047D01*
X130191665Y-42404047D02*
X130191665Y-42261190D01*
X130191665Y-42261190D02*
X130144046Y-42070714D01*
X130144046Y-42070714D02*
X130096427Y-41975476D01*
X130096427Y-41975476D02*
X130001189Y-41880238D01*
X130001189Y-41880238D02*
X129858332Y-41832619D01*
X129858332Y-41832619D02*
X129763094Y-41832619D01*
X129763094Y-41832619D02*
X129620237Y-41880238D01*
X129620237Y-41880238D02*
X129572618Y-41927857D01*
X129239284Y-41832619D02*
X129001189Y-42832619D01*
X129001189Y-42832619D02*
X128810713Y-42118333D01*
X128810713Y-42118333D02*
X128620237Y-42832619D01*
X128620237Y-42832619D02*
X128382142Y-41832619D01*
X142048809Y-44405000D02*
X141905952Y-44452619D01*
X141905952Y-44452619D02*
X141667857Y-44452619D01*
X141667857Y-44452619D02*
X141572619Y-44405000D01*
X141572619Y-44405000D02*
X141525000Y-44357380D01*
X141525000Y-44357380D02*
X141477381Y-44262142D01*
X141477381Y-44262142D02*
X141477381Y-44166904D01*
X141477381Y-44166904D02*
X141525000Y-44071666D01*
X141525000Y-44071666D02*
X141572619Y-44024047D01*
X141572619Y-44024047D02*
X141667857Y-43976428D01*
X141667857Y-43976428D02*
X141858333Y-43928809D01*
X141858333Y-43928809D02*
X141953571Y-43881190D01*
X141953571Y-43881190D02*
X142001190Y-43833571D01*
X142001190Y-43833571D02*
X142048809Y-43738333D01*
X142048809Y-43738333D02*
X142048809Y-43643095D01*
X142048809Y-43643095D02*
X142001190Y-43547857D01*
X142001190Y-43547857D02*
X141953571Y-43500238D01*
X141953571Y-43500238D02*
X141858333Y-43452619D01*
X141858333Y-43452619D02*
X141620238Y-43452619D01*
X141620238Y-43452619D02*
X141477381Y-43500238D01*
X141048809Y-43785952D02*
X141048809Y-44785952D01*
X141048809Y-43833571D02*
X140953571Y-43785952D01*
X140953571Y-43785952D02*
X140763095Y-43785952D01*
X140763095Y-43785952D02*
X140667857Y-43833571D01*
X140667857Y-43833571D02*
X140620238Y-43881190D01*
X140620238Y-43881190D02*
X140572619Y-43976428D01*
X140572619Y-43976428D02*
X140572619Y-44262142D01*
X140572619Y-44262142D02*
X140620238Y-44357380D01*
X140620238Y-44357380D02*
X140667857Y-44405000D01*
X140667857Y-44405000D02*
X140763095Y-44452619D01*
X140763095Y-44452619D02*
X140953571Y-44452619D01*
X140953571Y-44452619D02*
X141048809Y-44405000D01*
X140144047Y-44452619D02*
X140144047Y-43785952D01*
X140144047Y-43976428D02*
X140096428Y-43881190D01*
X140096428Y-43881190D02*
X140048809Y-43833571D01*
X140048809Y-43833571D02*
X139953571Y-43785952D01*
X139953571Y-43785952D02*
X139858333Y-43785952D01*
X139524999Y-44452619D02*
X139524999Y-43785952D01*
X139524999Y-43452619D02*
X139572618Y-43500238D01*
X139572618Y-43500238D02*
X139524999Y-43547857D01*
X139524999Y-43547857D02*
X139477380Y-43500238D01*
X139477380Y-43500238D02*
X139524999Y-43452619D01*
X139524999Y-43452619D02*
X139524999Y-43547857D01*
X139048809Y-43785952D02*
X139048809Y-44452619D01*
X139048809Y-43881190D02*
X139001190Y-43833571D01*
X139001190Y-43833571D02*
X138905952Y-43785952D01*
X138905952Y-43785952D02*
X138763095Y-43785952D01*
X138763095Y-43785952D02*
X138667857Y-43833571D01*
X138667857Y-43833571D02*
X138620238Y-43928809D01*
X138620238Y-43928809D02*
X138620238Y-44452619D01*
X137715476Y-43785952D02*
X137715476Y-44595476D01*
X137715476Y-44595476D02*
X137763095Y-44690714D01*
X137763095Y-44690714D02*
X137810714Y-44738333D01*
X137810714Y-44738333D02*
X137905952Y-44785952D01*
X137905952Y-44785952D02*
X138048809Y-44785952D01*
X138048809Y-44785952D02*
X138144047Y-44738333D01*
X137715476Y-44405000D02*
X137810714Y-44452619D01*
X137810714Y-44452619D02*
X138001190Y-44452619D01*
X138001190Y-44452619D02*
X138096428Y-44405000D01*
X138096428Y-44405000D02*
X138144047Y-44357380D01*
X138144047Y-44357380D02*
X138191666Y-44262142D01*
X138191666Y-44262142D02*
X138191666Y-43976428D01*
X138191666Y-43976428D02*
X138144047Y-43881190D01*
X138144047Y-43881190D02*
X138096428Y-43833571D01*
X138096428Y-43833571D02*
X138001190Y-43785952D01*
X138001190Y-43785952D02*
X137810714Y-43785952D01*
X137810714Y-43785952D02*
X137715476Y-43833571D01*
X136524999Y-44166904D02*
X136048809Y-44166904D01*
X136620237Y-44452619D02*
X136286904Y-43452619D01*
X136286904Y-43452619D02*
X135953571Y-44452619D01*
X135620237Y-43785952D02*
X135620237Y-44452619D01*
X135620237Y-43881190D02*
X135572618Y-43833571D01*
X135572618Y-43833571D02*
X135477380Y-43785952D01*
X135477380Y-43785952D02*
X135334523Y-43785952D01*
X135334523Y-43785952D02*
X135239285Y-43833571D01*
X135239285Y-43833571D02*
X135191666Y-43928809D01*
X135191666Y-43928809D02*
X135191666Y-44452619D01*
X134858332Y-43785952D02*
X134477380Y-43785952D01*
X134715475Y-43452619D02*
X134715475Y-44309761D01*
X134715475Y-44309761D02*
X134667856Y-44405000D01*
X134667856Y-44405000D02*
X134572618Y-44452619D01*
X134572618Y-44452619D02*
X134477380Y-44452619D01*
X133763094Y-44405000D02*
X133858332Y-44452619D01*
X133858332Y-44452619D02*
X134048808Y-44452619D01*
X134048808Y-44452619D02*
X134144046Y-44405000D01*
X134144046Y-44405000D02*
X134191665Y-44309761D01*
X134191665Y-44309761D02*
X134191665Y-43928809D01*
X134191665Y-43928809D02*
X134144046Y-43833571D01*
X134144046Y-43833571D02*
X134048808Y-43785952D01*
X134048808Y-43785952D02*
X133858332Y-43785952D01*
X133858332Y-43785952D02*
X133763094Y-43833571D01*
X133763094Y-43833571D02*
X133715475Y-43928809D01*
X133715475Y-43928809D02*
X133715475Y-44024047D01*
X133715475Y-44024047D02*
X134191665Y-44119285D01*
X133286903Y-43785952D02*
X133286903Y-44452619D01*
X133286903Y-43881190D02*
X133239284Y-43833571D01*
X133239284Y-43833571D02*
X133144046Y-43785952D01*
X133144046Y-43785952D02*
X133001189Y-43785952D01*
X133001189Y-43785952D02*
X132905951Y-43833571D01*
X132905951Y-43833571D02*
X132858332Y-43928809D01*
X132858332Y-43928809D02*
X132858332Y-44452619D01*
X132382141Y-43785952D02*
X132382141Y-44452619D01*
X132382141Y-43881190D02*
X132334522Y-43833571D01*
X132334522Y-43833571D02*
X132239284Y-43785952D01*
X132239284Y-43785952D02*
X132096427Y-43785952D01*
X132096427Y-43785952D02*
X132001189Y-43833571D01*
X132001189Y-43833571D02*
X131953570Y-43928809D01*
X131953570Y-43928809D02*
X131953570Y-44452619D01*
X131048808Y-44452619D02*
X131048808Y-43928809D01*
X131048808Y-43928809D02*
X131096427Y-43833571D01*
X131096427Y-43833571D02*
X131191665Y-43785952D01*
X131191665Y-43785952D02*
X131382141Y-43785952D01*
X131382141Y-43785952D02*
X131477379Y-43833571D01*
X131048808Y-44405000D02*
X131144046Y-44452619D01*
X131144046Y-44452619D02*
X131382141Y-44452619D01*
X131382141Y-44452619D02*
X131477379Y-44405000D01*
X131477379Y-44405000D02*
X131524998Y-44309761D01*
X131524998Y-44309761D02*
X131524998Y-44214523D01*
X131524998Y-44214523D02*
X131477379Y-44119285D01*
X131477379Y-44119285D02*
X131382141Y-44071666D01*
X131382141Y-44071666D02*
X131144046Y-44071666D01*
X131144046Y-44071666D02*
X131048808Y-44024047D01*
X140715475Y-45072619D02*
X140382142Y-46072619D01*
X140382142Y-46072619D02*
X140048809Y-45072619D01*
X139334523Y-46025000D02*
X139429761Y-46072619D01*
X139429761Y-46072619D02*
X139620237Y-46072619D01*
X139620237Y-46072619D02*
X139715475Y-46025000D01*
X139715475Y-46025000D02*
X139763094Y-45929761D01*
X139763094Y-45929761D02*
X139763094Y-45548809D01*
X139763094Y-45548809D02*
X139715475Y-45453571D01*
X139715475Y-45453571D02*
X139620237Y-45405952D01*
X139620237Y-45405952D02*
X139429761Y-45405952D01*
X139429761Y-45405952D02*
X139334523Y-45453571D01*
X139334523Y-45453571D02*
X139286904Y-45548809D01*
X139286904Y-45548809D02*
X139286904Y-45644047D01*
X139286904Y-45644047D02*
X139763094Y-45739285D01*
X138858332Y-46072619D02*
X138858332Y-45405952D01*
X138858332Y-45596428D02*
X138810713Y-45501190D01*
X138810713Y-45501190D02*
X138763094Y-45453571D01*
X138763094Y-45453571D02*
X138667856Y-45405952D01*
X138667856Y-45405952D02*
X138572618Y-45405952D01*
X138286903Y-46025000D02*
X138191665Y-46072619D01*
X138191665Y-46072619D02*
X138001189Y-46072619D01*
X138001189Y-46072619D02*
X137905951Y-46025000D01*
X137905951Y-46025000D02*
X137858332Y-45929761D01*
X137858332Y-45929761D02*
X137858332Y-45882142D01*
X137858332Y-45882142D02*
X137905951Y-45786904D01*
X137905951Y-45786904D02*
X138001189Y-45739285D01*
X138001189Y-45739285D02*
X138144046Y-45739285D01*
X138144046Y-45739285D02*
X138239284Y-45691666D01*
X138239284Y-45691666D02*
X138286903Y-45596428D01*
X138286903Y-45596428D02*
X138286903Y-45548809D01*
X138286903Y-45548809D02*
X138239284Y-45453571D01*
X138239284Y-45453571D02*
X138144046Y-45405952D01*
X138144046Y-45405952D02*
X138001189Y-45405952D01*
X138001189Y-45405952D02*
X137905951Y-45453571D01*
X137429760Y-46072619D02*
X137429760Y-45405952D01*
X137429760Y-45072619D02*
X137477379Y-45120238D01*
X137477379Y-45120238D02*
X137429760Y-45167857D01*
X137429760Y-45167857D02*
X137382141Y-45120238D01*
X137382141Y-45120238D02*
X137429760Y-45072619D01*
X137429760Y-45072619D02*
X137429760Y-45167857D01*
X136810713Y-46072619D02*
X136905951Y-46025000D01*
X136905951Y-46025000D02*
X136953570Y-45977380D01*
X136953570Y-45977380D02*
X137001189Y-45882142D01*
X137001189Y-45882142D02*
X137001189Y-45596428D01*
X137001189Y-45596428D02*
X136953570Y-45501190D01*
X136953570Y-45501190D02*
X136905951Y-45453571D01*
X136905951Y-45453571D02*
X136810713Y-45405952D01*
X136810713Y-45405952D02*
X136667856Y-45405952D01*
X136667856Y-45405952D02*
X136572618Y-45453571D01*
X136572618Y-45453571D02*
X136524999Y-45501190D01*
X136524999Y-45501190D02*
X136477380Y-45596428D01*
X136477380Y-45596428D02*
X136477380Y-45882142D01*
X136477380Y-45882142D02*
X136524999Y-45977380D01*
X136524999Y-45977380D02*
X136572618Y-46025000D01*
X136572618Y-46025000D02*
X136667856Y-46072619D01*
X136667856Y-46072619D02*
X136810713Y-46072619D01*
X136048808Y-45405952D02*
X136048808Y-46072619D01*
X136048808Y-45501190D02*
X136001189Y-45453571D01*
X136001189Y-45453571D02*
X135905951Y-45405952D01*
X135905951Y-45405952D02*
X135763094Y-45405952D01*
X135763094Y-45405952D02*
X135667856Y-45453571D01*
X135667856Y-45453571D02*
X135620237Y-45548809D01*
X135620237Y-45548809D02*
X135620237Y-46072619D01*
X134191665Y-45072619D02*
X134096427Y-45072619D01*
X134096427Y-45072619D02*
X134001189Y-45120238D01*
X134001189Y-45120238D02*
X133953570Y-45167857D01*
X133953570Y-45167857D02*
X133905951Y-45263095D01*
X133905951Y-45263095D02*
X133858332Y-45453571D01*
X133858332Y-45453571D02*
X133858332Y-45691666D01*
X133858332Y-45691666D02*
X133905951Y-45882142D01*
X133905951Y-45882142D02*
X133953570Y-45977380D01*
X133953570Y-45977380D02*
X134001189Y-46025000D01*
X134001189Y-46025000D02*
X134096427Y-46072619D01*
X134096427Y-46072619D02*
X134191665Y-46072619D01*
X134191665Y-46072619D02*
X134286903Y-46025000D01*
X134286903Y-46025000D02*
X134334522Y-45977380D01*
X134334522Y-45977380D02*
X134382141Y-45882142D01*
X134382141Y-45882142D02*
X134429760Y-45691666D01*
X134429760Y-45691666D02*
X134429760Y-45453571D01*
X134429760Y-45453571D02*
X134382141Y-45263095D01*
X134382141Y-45263095D02*
X134334522Y-45167857D01*
X134334522Y-45167857D02*
X134286903Y-45120238D01*
X134286903Y-45120238D02*
X134191665Y-45072619D01*
X133429760Y-45977380D02*
X133382141Y-46025000D01*
X133382141Y-46025000D02*
X133429760Y-46072619D01*
X133429760Y-46072619D02*
X133477379Y-46025000D01*
X133477379Y-46025000D02*
X133429760Y-45977380D01*
X133429760Y-45977380D02*
X133429760Y-46072619D01*
X133001189Y-45167857D02*
X132953570Y-45120238D01*
X132953570Y-45120238D02*
X132858332Y-45072619D01*
X132858332Y-45072619D02*
X132620237Y-45072619D01*
X132620237Y-45072619D02*
X132524999Y-45120238D01*
X132524999Y-45120238D02*
X132477380Y-45167857D01*
X132477380Y-45167857D02*
X132429761Y-45263095D01*
X132429761Y-45263095D02*
X132429761Y-45358333D01*
X132429761Y-45358333D02*
X132477380Y-45501190D01*
X132477380Y-45501190D02*
X133048808Y-46072619D01*
X133048808Y-46072619D02*
X132429761Y-46072619D01*
M02*
