M48
; DRILL file {KiCad 7.0.10} date wo 17 jan 2024 19:42:10 CET
; FORMAT={-:-/ absolute / inch / decimal}
; #@! TF.CreationDate,2024-01-17T19:42:10+01:00
; #@! TF.GenerationSoftware,Kicad,Pcbnew,7.0.10
; #@! TF.FileFunction,Plated,1,2,PTH
FMAT,2
INCH
; #@! TA.AperFunction,Plated,PTH,ViaDrill
T1C0.0157
; #@! TA.AperFunction,Plated,PTH,ComponentDrill
T2C0.0157
; #@! TA.AperFunction,Plated,PTH,ComponentDrill
T3C0.0394
%
G90
G05
T1
X4.675Y-1.525
X4.675Y-2.375
X4.725Y-1.525
X4.725Y-2.375
X4.775Y-1.525
X4.775Y-2.375
X4.825Y-1.525
X4.825Y-2.375
X4.875Y-1.525
X4.875Y-2.375
X4.925Y-1.525
X4.925Y-2.375
X4.975Y-1.525
X4.975Y-2.375
X5.025Y-1.525
X5.025Y-2.375
X5.075Y-1.525
X5.075Y-2.375
X5.125Y-1.525
X5.125Y-1.9874
X5.125Y-2.375
X5.175Y-1.525
X5.175Y-2.375
X5.2Y-1.975
X5.225Y-1.525
X5.225Y-2.375
X5.275Y-1.525
X5.275Y-2.375
X5.325Y-1.525
X5.325Y-2.375
X5.375Y-1.525
X5.375Y-2.375
X5.425Y-1.525
X5.425Y-2.375
X5.475Y-1.525
X5.475Y-2.225
X5.475Y-2.375
X5.525Y-1.525
X5.525Y-2.375
X5.539Y-2.0681
X5.5553Y-1.9771
X5.5675Y-1.9106
X5.5675Y-2.1469
X5.575Y-1.525
X5.575Y-2.375
X5.625Y-1.525
X5.625Y-2.375
X5.675Y-1.525
X5.675Y-2.375
X5.725Y-1.525
X5.725Y-2.375
X5.75Y-1.9
X5.775Y-1.525
X5.775Y-2.375
X5.825Y-1.525
X5.825Y-2.025
X5.825Y-2.375
X5.875Y-1.525
X5.875Y-2.375
X5.925Y-1.525
X5.925Y-2.375
X5.975Y-1.525
X5.975Y-2.375
X6.025Y-1.525
X6.025Y-2.375
X6.075Y-1.525
X6.075Y-2.375
X6.125Y-1.525
X6.125Y-1.575
X6.125Y-1.625
X6.125Y-1.675
X6.125Y-1.725
X6.125Y-1.775
X6.125Y-1.825
X6.125Y-1.875
X6.125Y-1.925
X6.125Y-1.975
X6.125Y-2.025
X6.125Y-2.075
X6.125Y-2.125
X6.125Y-2.175
X6.125Y-2.225
X6.125Y-2.275
X6.125Y-2.325
X6.125Y-2.375
T2
X4.1717Y-1.5957
X4.1717Y-1.6744
X4.1717Y-1.7531
X4.1717Y-1.8319
X4.1717Y-1.9106
X4.1717Y-1.9894
X4.1717Y-2.0681
X4.1717Y-2.1469
X4.1717Y-2.2256
X4.1717Y-2.3043
X4.3685Y-1.5957
X4.3685Y-1.6744
X4.3685Y-1.7531
X4.3685Y-1.8319
X4.3685Y-1.9106
X4.3685Y-1.9894
X4.3685Y-2.0681
X4.3685Y-2.1469
X4.3685Y-2.2256
T3
X5.9Y-1.7
X5.9Y-1.8
X5.9Y-1.9
X5.9Y-2.0
X5.9Y-2.1
X5.9Y-2.2
X6.0Y-1.7
X6.0Y-1.8
X6.0Y-1.9
X6.0Y-2.0
X6.0Y-2.1
X6.0Y-2.2
M30
