%TF.GenerationSoftware,KiCad,Pcbnew,(6.0.5)*%
%TF.CreationDate,2022-05-29T15:34:50+02:00*%
%TF.ProjectId,pmod_esp32_baseboard,706d6f64-5f65-4737-9033-325f62617365,rev?*%
%TF.SameCoordinates,Original*%
%TF.FileFunction,Soldermask,Bot*%
%TF.FilePolarity,Negative*%
%FSLAX46Y46*%
G04 Gerber Fmt 4.6, Leading zero omitted, Abs format (unit mm)*
G04 Created by KiCad (PCBNEW (6.0.5)) date 2022-05-29 15:34:50*
%MOMM*%
%LPD*%
G01*
G04 APERTURE LIST*
%ADD10R,1.700000X1.700000*%
%ADD11O,1.700000X1.700000*%
%ADD12C,0.900000*%
%ADD13C,8.600000*%
%ADD14R,1.000000X1.000000*%
%ADD15O,1.000000X1.000000*%
%ADD16C,1.524000*%
G04 APERTURE END LIST*
D10*
%TO.C,PMOD2*%
X73660000Y-30480000D03*
D11*
X73660000Y-27940000D03*
X71120000Y-30480000D03*
X71120000Y-27940000D03*
X68580000Y-30480000D03*
X68580000Y-27940000D03*
X66040000Y-30480000D03*
X66040000Y-27940000D03*
X63500000Y-30480000D03*
X63500000Y-27940000D03*
X60960000Y-30480000D03*
X60960000Y-27940000D03*
%TD*%
D10*
%TO.C,PMOD3*%
X96520000Y-30480000D03*
D11*
X96520000Y-27940000D03*
X93980000Y-30480000D03*
X93980000Y-27940000D03*
X91440000Y-30480000D03*
X91440000Y-27940000D03*
X88900000Y-30480000D03*
X88900000Y-27940000D03*
X86360000Y-30480000D03*
X86360000Y-27940000D03*
X83820000Y-30480000D03*
X83820000Y-27940000D03*
%TD*%
D10*
%TO.C,PMOD1*%
X119380000Y-31025000D03*
D11*
X119380000Y-28485000D03*
X116840000Y-31025000D03*
X116840000Y-28485000D03*
X114300000Y-31025000D03*
X114300000Y-28485000D03*
X111760000Y-31025000D03*
X111760000Y-28485000D03*
X109220000Y-31025000D03*
X109220000Y-28485000D03*
X106680000Y-31025000D03*
X106680000Y-28485000D03*
%TD*%
D12*
%TO.C,H3*%
X53080419Y-84079581D03*
X47575000Y-86360000D03*
X54025000Y-86360000D03*
X53080419Y-88640419D03*
X48519581Y-88640419D03*
X50800000Y-83135000D03*
X48519581Y-84079581D03*
X50800000Y-89585000D03*
D13*
X50800000Y-86360000D03*
%TD*%
D12*
%TO.C,H1*%
X50800000Y-26085000D03*
X47575000Y-22860000D03*
X48519581Y-20579581D03*
X54025000Y-22860000D03*
D13*
X50800000Y-22860000D03*
D12*
X50800000Y-19635000D03*
X48519581Y-25140419D03*
X53080419Y-25140419D03*
X53080419Y-20579581D03*
%TD*%
D10*
%TO.C,J1*%
X129540000Y-36830000D03*
D11*
X129540000Y-34290000D03*
%TD*%
D12*
%TO.C,H4*%
X129540000Y-89585000D03*
X131820419Y-84079581D03*
X129540000Y-83135000D03*
D13*
X129540000Y-86360000D03*
D12*
X127259581Y-88640419D03*
X126315000Y-86360000D03*
X132765000Y-86360000D03*
X127259581Y-84079581D03*
X131820419Y-88640419D03*
%TD*%
D14*
%TO.C,J2*%
X129540000Y-66040000D03*
D15*
X130810000Y-66040000D03*
X129540000Y-67310000D03*
X130810000Y-67310000D03*
X129540000Y-68580000D03*
X130810000Y-68580000D03*
X129540000Y-69850000D03*
X130810000Y-69850000D03*
X129540000Y-71120000D03*
X130810000Y-71120000D03*
%TD*%
D12*
%TO.C,H2*%
X129540000Y-26085000D03*
X132765000Y-22860000D03*
D13*
X129540000Y-22860000D03*
D12*
X131820419Y-20579581D03*
X127259581Y-25140419D03*
X126315000Y-22860000D03*
X127259581Y-20579581D03*
X131820419Y-25140419D03*
X129540000Y-19635000D03*
%TD*%
D16*
%TO.C,U1*%
X73660000Y-55880000D03*
X76200000Y-55880000D03*
X78740000Y-55880000D03*
X81280000Y-55880000D03*
X83820000Y-55880000D03*
X86360000Y-55880000D03*
X88900000Y-55880000D03*
X91440000Y-55880000D03*
X93980000Y-55880000D03*
X96520000Y-55880000D03*
X99060000Y-55880000D03*
X101600000Y-55880000D03*
X104140000Y-55880000D03*
X106680000Y-55880000D03*
X109220000Y-55880000D03*
X109220000Y-81280000D03*
X106680000Y-81280000D03*
X104140000Y-81280000D03*
X101600000Y-81280000D03*
X99060000Y-81280000D03*
X96520000Y-81280000D03*
X93980000Y-81280000D03*
X91440000Y-81280000D03*
X88900000Y-81280000D03*
X86360000Y-81280000D03*
X83820000Y-81280000D03*
X81280000Y-81280000D03*
X78740000Y-81280000D03*
X76200000Y-81280000D03*
X73660000Y-81280000D03*
%TD*%
M02*
