%TF.GenerationSoftware,KiCad,Pcbnew,(6.0.5)*%
%TF.CreationDate,2022-05-29T15:34:50+02:00*%
%TF.ProjectId,pmod_esp32_baseboard,706d6f64-5f65-4737-9033-325f62617365,rev?*%
%TF.SameCoordinates,Original*%
%TF.FileFunction,Copper,L1,Top*%
%TF.FilePolarity,Positive*%
%FSLAX46Y46*%
G04 Gerber Fmt 4.6, Leading zero omitted, Abs format (unit mm)*
G04 Created by KiCad (PCBNEW (6.0.5)) date 2022-05-29 15:34:50*
%MOMM*%
%LPD*%
G01*
G04 APERTURE LIST*
%TA.AperFunction,ComponentPad*%
%ADD10R,1.700000X1.700000*%
%TD*%
%TA.AperFunction,ComponentPad*%
%ADD11O,1.700000X1.700000*%
%TD*%
%TA.AperFunction,ComponentPad*%
%ADD12C,0.900000*%
%TD*%
%TA.AperFunction,ComponentPad*%
%ADD13C,8.600000*%
%TD*%
%TA.AperFunction,ComponentPad*%
%ADD14R,1.000000X1.000000*%
%TD*%
%TA.AperFunction,ComponentPad*%
%ADD15O,1.000000X1.000000*%
%TD*%
%TA.AperFunction,ComponentPad*%
%ADD16C,1.524000*%
%TD*%
%TA.AperFunction,ViaPad*%
%ADD17C,0.800000*%
%TD*%
%TA.AperFunction,Conductor*%
%ADD18C,0.250000*%
%TD*%
G04 APERTURE END LIST*
D10*
%TO.P,PMOD2,1,Pin_1*%
%TO.N,VCC*%
X73660000Y-30480000D03*
D11*
%TO.P,PMOD2,2,Pin_2*%
X73660000Y-27940000D03*
%TO.P,PMOD2,3,Pin_3*%
%TO.N,GND*%
X71120000Y-30480000D03*
%TO.P,PMOD2,4,Pin_4*%
X71120000Y-27940000D03*
%TO.P,PMOD2,5,Pin_5*%
%TO.N,PMOD_SPI_SCK*%
X68580000Y-30480000D03*
%TO.P,PMOD2,6,Pin_6*%
%TO.N,PMOD_SPI_GPIO4_CS3*%
X68580000Y-27940000D03*
%TO.P,PMOD2,7,Pin_7*%
%TO.N,PMOD_SPI_MISO*%
X66040000Y-30480000D03*
%TO.P,PMOD2,8,Pin_8*%
%TO.N,PMOD_SPI_GPIO3_CS2*%
X66040000Y-27940000D03*
%TO.P,PMOD2,9,Pin_9*%
%TO.N,PMOD_SPI_MOSI*%
X63500000Y-30480000D03*
%TO.P,PMOD2,10,Pin_10*%
%TO.N,PMOD_SPI_GPIO2_RESET*%
X63500000Y-27940000D03*
%TO.P,PMOD2,11,Pin_11*%
%TO.N,PMOD_SPI_CS*%
X60960000Y-30480000D03*
%TO.P,PMOD2,12,Pin_12*%
%TO.N,PMOD_SPI_GPIO1_INT*%
X60960000Y-27940000D03*
%TD*%
D10*
%TO.P,PMOD3,1,Pin_1*%
%TO.N,VCC*%
X96520000Y-30480000D03*
D11*
%TO.P,PMOD3,2,Pin_2*%
X96520000Y-27940000D03*
%TO.P,PMOD3,3,Pin_3*%
%TO.N,GND*%
X93980000Y-30480000D03*
%TO.P,PMOD3,4,Pin_4*%
X93980000Y-27940000D03*
%TO.P,PMOD3,5,Pin_5*%
%TO.N,PMOD_UART_RTS*%
X91440000Y-30480000D03*
%TO.P,PMOD3,6,Pin_6*%
%TO.N,PMOD_UART_GPIO4*%
X91440000Y-27940000D03*
%TO.P,PMOD3,7,Pin_7*%
%TO.N,PMOD_UART_RXD*%
X88900000Y-30480000D03*
%TO.P,PMOD3,8,Pin_8*%
%TO.N,PMOD_UART_GPIO3*%
X88900000Y-27940000D03*
%TO.P,PMOD3,9,Pin_9*%
%TO.N,PMOD_UART_TXD*%
X86360000Y-30480000D03*
%TO.P,PMOD3,10,Pin_10*%
%TO.N,PMOD_UART_GPIO2_RESET*%
X86360000Y-27940000D03*
%TO.P,PMOD3,11,Pin_11*%
%TO.N,PMOD_UART_CTS*%
X83820000Y-30480000D03*
%TO.P,PMOD3,12,Pin_12*%
%TO.N,PMOD_UART_GPIO1_INT*%
X83820000Y-27940000D03*
%TD*%
D10*
%TO.P,PMOD1,1,Pin_1*%
%TO.N,VCC*%
X119380000Y-31025000D03*
D11*
%TO.P,PMOD1,2,Pin_2*%
X119380000Y-28485000D03*
%TO.P,PMOD1,3,Pin_3*%
%TO.N,GND*%
X116840000Y-31025000D03*
%TO.P,PMOD1,4,Pin_4*%
X116840000Y-28485000D03*
%TO.P,PMOD1,5,Pin_5*%
%TO.N,PMOD_I2C_SDA*%
X114300000Y-31025000D03*
%TO.P,PMOD1,6,Pin_6*%
%TO.N,PMOD_I2C_GPIO4*%
X114300000Y-28485000D03*
%TO.P,PMOD1,7,Pin_7*%
%TO.N,PMOD_I2C_SCL*%
X111760000Y-31025000D03*
%TO.P,PMOD1,8,Pin_8*%
%TO.N,PMOD_I2C_GPIO3*%
X111760000Y-28485000D03*
%TO.P,PMOD1,9,Pin_9*%
%TO.N,PMOD_I2C_RESET*%
X109220000Y-31025000D03*
%TO.P,PMOD1,10,Pin_10*%
%TO.N,PMOD_I2C_GPIO2*%
X109220000Y-28485000D03*
%TO.P,PMOD1,11,Pin_11*%
%TO.N,PMOD_I2C_INT*%
X106680000Y-31025000D03*
%TO.P,PMOD1,12,Pin_12*%
%TO.N,PMOD_I2C_GPIO1*%
X106680000Y-28485000D03*
%TD*%
D12*
%TO.P,H3,1*%
%TO.N,N/C*%
X53080419Y-84079581D03*
X47575000Y-86360000D03*
X54025000Y-86360000D03*
X53080419Y-88640419D03*
X48519581Y-88640419D03*
X50800000Y-83135000D03*
X48519581Y-84079581D03*
X50800000Y-89585000D03*
D13*
X50800000Y-86360000D03*
%TD*%
D12*
%TO.P,H1,1*%
%TO.N,N/C*%
X50800000Y-26085000D03*
X47575000Y-22860000D03*
X48519581Y-20579581D03*
X54025000Y-22860000D03*
D13*
X50800000Y-22860000D03*
D12*
X50800000Y-19635000D03*
X48519581Y-25140419D03*
X53080419Y-25140419D03*
X53080419Y-20579581D03*
%TD*%
D10*
%TO.P,J1,1,Pin_1*%
%TO.N,VCC*%
X129540000Y-36830000D03*
D11*
%TO.P,J1,2,Pin_2*%
%TO.N,GND*%
X129540000Y-34290000D03*
%TD*%
D12*
%TO.P,H4,1*%
%TO.N,N/C*%
X129540000Y-89585000D03*
X131820419Y-84079581D03*
X129540000Y-83135000D03*
D13*
X129540000Y-86360000D03*
D12*
X127259581Y-88640419D03*
X126315000Y-86360000D03*
X132765000Y-86360000D03*
X127259581Y-84079581D03*
X131820419Y-88640419D03*
%TD*%
D14*
%TO.P,J2,1,Pin_1*%
%TO.N,VCC*%
X129540000Y-66040000D03*
D15*
%TO.P,J2,2,Pin_2*%
%TO.N,JTMS*%
X130810000Y-66040000D03*
%TO.P,J2,3,Pin_3*%
%TO.N,GND*%
X129540000Y-67310000D03*
%TO.P,J2,4,Pin_4*%
%TO.N,JTCK*%
X130810000Y-67310000D03*
%TO.P,J2,5,Pin_5*%
%TO.N,GND*%
X129540000Y-68580000D03*
%TO.P,J2,6,Pin_6*%
%TO.N,JTDO*%
X130810000Y-68580000D03*
%TO.P,J2,7,Pin_7*%
%TO.N,unconnected-(J2-Pad7)*%
X129540000Y-69850000D03*
%TO.P,J2,8,Pin_8*%
%TO.N,JTDI*%
X130810000Y-69850000D03*
%TO.P,J2,9,Pin_9*%
%TO.N,GND*%
X129540000Y-71120000D03*
%TO.P,J2,10,Pin_10*%
%TO.N,~{RST}*%
X130810000Y-71120000D03*
%TD*%
D12*
%TO.P,H2,1*%
%TO.N,N/C*%
X129540000Y-26085000D03*
X132765000Y-22860000D03*
D13*
X129540000Y-22860000D03*
D12*
X131820419Y-20579581D03*
X127259581Y-25140419D03*
X126315000Y-22860000D03*
X127259581Y-20579581D03*
X131820419Y-25140419D03*
X129540000Y-19635000D03*
%TD*%
D16*
%TO.P,U1,1,VIN*%
%TO.N,unconnected-(U1-Pad1)*%
X73660000Y-55880000D03*
%TO.P,U1,2,GND*%
%TO.N,unconnected-(U1-Pad2)*%
X76200000Y-55880000D03*
%TO.P,U1,3,GPIO13*%
%TO.N,JTCK*%
X78740000Y-55880000D03*
%TO.P,U1,4,GPIO12*%
%TO.N,JTDI*%
X81280000Y-55880000D03*
%TO.P,U1,5,GPIO14*%
%TO.N,JTMS*%
X83820000Y-55880000D03*
%TO.P,U1,6,GPIO27*%
%TO.N,PMOD_SPI_GPIO2_RESET*%
X86360000Y-55880000D03*
%TO.P,U1,7,GPIO26*%
%TO.N,PMOD_UART_GPIO2_RESET*%
X88900000Y-55880000D03*
%TO.P,U1,8,GPIO25*%
%TO.N,PMOD_I2C_RESET*%
X91440000Y-55880000D03*
%TO.P,U1,9,GPIO23*%
%TO.N,PMOD_I2C_SCL*%
X93980000Y-55880000D03*
%TO.P,U1,10,GPIO32*%
%TO.N,PMOD_I2C_SDA*%
X96520000Y-55880000D03*
%TO.P,U1,11,GPIO35*%
%TO.N,unconnected-(U1-Pad11)*%
X99060000Y-55880000D03*
%TO.P,U1,12,GPIO34*%
%TO.N,PMOD_UART_GPIO1_INT*%
X101600000Y-55880000D03*
%TO.P,U1,13,GPIO39*%
%TO.N,PMOD_I2C_INT*%
X104140000Y-55880000D03*
%TO.P,U1,14,GPIO36*%
%TO.N,unconnected-(U1-Pad14)*%
X106680000Y-55880000D03*
%TO.P,U1,15,EN*%
%TO.N,~{RST}*%
X109220000Y-55880000D03*
%TO.P,U1,16,GPIO23*%
%TO.N,PMOD_I2C_GPIO2*%
X109220000Y-81280000D03*
%TO.P,U1,17,GPIO22*%
%TO.N,PMOD_I2C_GPIO1*%
X106680000Y-81280000D03*
%TO.P,U1,18,TX0*%
%TO.N,unconnected-(U1-Pad18)*%
X104140000Y-81280000D03*
%TO.P,U1,19,RX0*%
%TO.N,unconnected-(U1-Pad19)*%
X101600000Y-81280000D03*
%TO.P,U1,20,GPIO21*%
%TO.N,PMOD_UART_RTS*%
X99060000Y-81280000D03*
%TO.P,U1,21,GPIO19*%
%TO.N,PMOD_UART_RXD*%
X96520000Y-81280000D03*
%TO.P,U1,22,GPIO18*%
%TO.N,PMOD_UART_TXD*%
X93980000Y-81280000D03*
%TO.P,U1,23,GPIO5*%
%TO.N,PMOD_UART_CTS*%
X91440000Y-81280000D03*
%TO.P,U1,24,GPIO17*%
%TO.N,PMOD_SPI_SCK*%
X88900000Y-81280000D03*
%TO.P,U1,25,GPIO16*%
%TO.N,PMOD_SPI_MISO*%
X86360000Y-81280000D03*
%TO.P,U1,26,GPIO4*%
%TO.N,PMOD_SPI_MOSI*%
X83820000Y-81280000D03*
%TO.P,U1,27,GPIO2*%
%TO.N,PMOD_SPI_CS*%
X81280000Y-81280000D03*
%TO.P,U1,28,GPIO15*%
%TO.N,JTDO*%
X78740000Y-81280000D03*
%TO.P,U1,29,GND*%
%TO.N,GND*%
X76200000Y-81280000D03*
%TO.P,U1,30,3V3*%
%TO.N,VCC*%
X73660000Y-81280000D03*
%TD*%
D17*
%TO.N,PMOD_UART_GPIO1_INT*%
X101600000Y-31358990D03*
%TO.N,VCC*%
X120650000Y-58420000D03*
X118110000Y-74930000D03*
X116840000Y-74930000D03*
X121920000Y-58420000D03*
X119380000Y-54610000D03*
X116840000Y-69850000D03*
X118110000Y-69850000D03*
X115570000Y-69850000D03*
X118110000Y-54610000D03*
X118110000Y-58420000D03*
X119380000Y-74930000D03*
X121920000Y-54610000D03*
X119380000Y-58420000D03*
X119380000Y-69850000D03*
X115570000Y-74930000D03*
X120650000Y-54610000D03*
%TO.N,JTCK*%
X127000000Y-73660000D03*
%TD*%
D18*
%TO.N,PMOD_UART_GPIO1_INT*%
X101600000Y-55880000D02*
X101600000Y-31358990D01*
%TO.N,PMOD_UART_RTS*%
X91440000Y-30480000D02*
X97973489Y-37013489D01*
X97973489Y-80193489D02*
X99060000Y-81280000D01*
X97973489Y-37013489D02*
X97973489Y-80193489D01*
%TO.N,PMOD_UART_RXD*%
X95066511Y-36646511D02*
X95066511Y-79826511D01*
X95066511Y-79826511D02*
X96520000Y-81280000D01*
X88900000Y-30480000D02*
X95066511Y-36646511D01*
%TO.N,PMOD_UART_TXD*%
X86360000Y-30480000D02*
X92526511Y-36646511D01*
X92526511Y-36646511D02*
X92526511Y-79826511D01*
X92526511Y-79826511D02*
X93980000Y-81280000D01*
%TO.N,PMOD_UART_CTS*%
X90353489Y-80193489D02*
X90353489Y-37013489D01*
X91440000Y-81280000D02*
X90353489Y-80193489D01*
X90353489Y-37013489D02*
X83820000Y-30480000D01*
%TO.N,VCC*%
X119380000Y-54610000D02*
X119380000Y-58420000D01*
X121920000Y-54610000D02*
X118110000Y-54610000D01*
X116840000Y-74930000D02*
X116840000Y-69850000D01*
X115570000Y-69850000D02*
X115570000Y-74930000D01*
X115570000Y-69850000D02*
X116840000Y-69850000D01*
X119380000Y-69850000D02*
X119380000Y-74930000D01*
X120650000Y-58420000D02*
X120650000Y-54610000D01*
X115570000Y-74930000D02*
X119380000Y-74930000D01*
X119380000Y-69850000D02*
X115570000Y-69850000D01*
X118110000Y-54610000D02*
X118110000Y-58420000D01*
X118110000Y-69850000D02*
X118110000Y-74930000D01*
X118110000Y-58420000D02*
X121920000Y-58420000D01*
X121920000Y-58420000D02*
X121920000Y-54610000D01*
%TO.N,PMOD_SPI_SCK*%
X88900000Y-81280000D02*
X68580000Y-60960000D01*
X68580000Y-60960000D02*
X68580000Y-30480000D01*
%TO.N,PMOD_SPI_MOSI*%
X63500000Y-30480000D02*
X63500000Y-60960000D01*
X63500000Y-60960000D02*
X83820000Y-81280000D01*
%TO.N,PMOD_SPI_MISO*%
X86360000Y-81280000D02*
X66040000Y-60960000D01*
X66040000Y-60960000D02*
X66040000Y-30480000D01*
%TO.N,PMOD_SPI_CS*%
X60960000Y-60960000D02*
X60960000Y-30480000D01*
X81280000Y-81280000D02*
X60960000Y-60960000D01*
%TO.N,PMOD_I2C_INT*%
X104140000Y-55880000D02*
X104140000Y-33565000D01*
X104140000Y-33565000D02*
X106680000Y-31025000D01*
%TO.N,PMOD_I2C_GPIO2*%
X110394511Y-29659511D02*
X110394511Y-53168929D01*
X109220000Y-28485000D02*
X110394511Y-29659511D01*
X109220000Y-81280000D02*
X107950000Y-80010000D01*
X110394511Y-53168929D02*
X107950000Y-55613440D01*
X107950000Y-55613440D02*
X107950000Y-80010000D01*
%TO.N,PMOD_I2C_GPIO1*%
X106680000Y-81280000D02*
X105410000Y-80010000D01*
X108045489Y-52977951D02*
X105410000Y-55613440D01*
X106680000Y-28485000D02*
X108045489Y-29850489D01*
X105410000Y-55613440D02*
X105410000Y-80010000D01*
X108045489Y-29850489D02*
X108045489Y-52977951D01*
%TO.N,JTCK*%
X127000000Y-73660000D02*
X129436036Y-73660000D01*
X131634511Y-71461525D02*
X131634511Y-68134511D01*
X131634511Y-68134511D02*
X130810000Y-67310000D01*
X129436036Y-73660000D02*
X131634511Y-71461525D01*
%TO.N,~{RST}*%
X129985489Y-71944511D02*
X125284511Y-71944511D01*
X125284511Y-71944511D02*
X109220000Y-55880000D01*
X130810000Y-71120000D02*
X129985489Y-71944511D01*
%TD*%
%TA.AperFunction,Conductor*%
%TO.N,GND*%
G36*
X127464543Y-18308502D02*
G01*
X127511036Y-18362158D01*
X127521140Y-18432432D01*
X127491646Y-18497012D01*
X127449173Y-18528926D01*
X127332361Y-18582777D01*
X126960880Y-18795957D01*
X126958577Y-18797566D01*
X126958570Y-18797571D01*
X126612129Y-19039701D01*
X126609820Y-19041315D01*
X126281961Y-19316909D01*
X125979899Y-19620557D01*
X125706025Y-19949855D01*
X125462508Y-20302194D01*
X125251276Y-20674786D01*
X125074002Y-21064680D01*
X125073080Y-21067306D01*
X125073075Y-21067318D01*
X125033633Y-21179634D01*
X124932089Y-21468790D01*
X124826661Y-21883914D01*
X124758552Y-22306768D01*
X124728302Y-22734001D01*
X124736151Y-23162233D01*
X124782036Y-23588071D01*
X124865594Y-24008144D01*
X124986163Y-24419127D01*
X124987190Y-24421740D01*
X124987190Y-24421741D01*
X125125651Y-24774145D01*
X125142789Y-24817765D01*
X125201316Y-24934896D01*
X125312161Y-25156731D01*
X125334231Y-25200901D01*
X125558974Y-25565502D01*
X125815239Y-25908682D01*
X125817100Y-25910760D01*
X125817101Y-25910761D01*
X126099127Y-26225637D01*
X126099133Y-26225643D01*
X126100995Y-26227722D01*
X126413981Y-26520098D01*
X126751719Y-26783493D01*
X127111533Y-27015822D01*
X127114012Y-27017126D01*
X127114015Y-27017128D01*
X127488077Y-27213932D01*
X127488083Y-27213935D01*
X127490577Y-27215247D01*
X127493175Y-27216331D01*
X127493179Y-27216333D01*
X127883263Y-27379109D01*
X127883268Y-27379111D01*
X127885847Y-27380187D01*
X127888512Y-27381030D01*
X127888518Y-27381032D01*
X128110561Y-27451254D01*
X128294214Y-27509336D01*
X128712446Y-27601673D01*
X128715220Y-27602031D01*
X128715221Y-27602031D01*
X129134460Y-27656109D01*
X129134467Y-27656110D01*
X129137230Y-27656466D01*
X129140017Y-27656576D01*
X129140023Y-27656576D01*
X129388238Y-27666328D01*
X129565203Y-27673281D01*
X129567995Y-27673142D01*
X129568000Y-27673142D01*
X129990172Y-27652125D01*
X129990181Y-27652124D01*
X129992976Y-27651985D01*
X129995753Y-27651597D01*
X129995755Y-27651597D01*
X130070066Y-27641219D01*
X130417163Y-27592747D01*
X130834404Y-27496036D01*
X131048307Y-27425915D01*
X131238744Y-27363487D01*
X131238750Y-27363485D01*
X131241397Y-27362617D01*
X131634918Y-27193547D01*
X131680792Y-27168795D01*
X131761652Y-27125165D01*
X132011852Y-26990164D01*
X132369214Y-26754080D01*
X132704175Y-26487162D01*
X133014082Y-26191525D01*
X133015919Y-26189431D01*
X133015927Y-26189422D01*
X133294635Y-25871616D01*
X133296482Y-25869510D01*
X133549139Y-25523666D01*
X133550585Y-25521265D01*
X133768601Y-25159142D01*
X133768606Y-25159133D01*
X133770052Y-25156731D01*
X133872204Y-24946823D01*
X133919998Y-24894323D01*
X133988588Y-24875997D01*
X134056198Y-24897663D01*
X134101362Y-24952442D01*
X134111500Y-25001959D01*
X134111500Y-84209490D01*
X134091498Y-84277611D01*
X134037842Y-84324104D01*
X133967568Y-84334208D01*
X133902988Y-84304714D01*
X133874300Y-84268740D01*
X133822939Y-84172347D01*
X133683050Y-83909807D01*
X133448840Y-83551214D01*
X133183680Y-83214860D01*
X132889670Y-82903409D01*
X132887579Y-82901556D01*
X132887571Y-82901548D01*
X132571237Y-82621188D01*
X132571235Y-82621186D01*
X132569137Y-82619327D01*
X132224621Y-82364863D01*
X132031733Y-82247355D01*
X131861237Y-82143487D01*
X131861230Y-82143483D01*
X131858848Y-82142032D01*
X131773172Y-82099781D01*
X131518565Y-81974223D01*
X131474714Y-81952598D01*
X131075262Y-81798062D01*
X130772243Y-81710886D01*
X130666335Y-81680417D01*
X130666329Y-81680415D01*
X130663654Y-81679646D01*
X130660917Y-81679117D01*
X130660911Y-81679115D01*
X130481521Y-81644408D01*
X130243148Y-81598289D01*
X130240374Y-81598005D01*
X130240362Y-81598003D01*
X129957111Y-81568982D01*
X129817076Y-81554634D01*
X129814286Y-81554597D01*
X129814278Y-81554597D01*
X129546825Y-81551096D01*
X129388809Y-81549028D01*
X129386009Y-81549241D01*
X129386008Y-81549241D01*
X129311364Y-81554919D01*
X128961740Y-81581514D01*
X128539249Y-81651836D01*
X128453671Y-81674048D01*
X128127400Y-81758731D01*
X128127389Y-81758734D01*
X128124682Y-81759437D01*
X127866575Y-81851599D01*
X127723964Y-81902520D01*
X127723959Y-81902522D01*
X127721321Y-81903464D01*
X127718781Y-81904635D01*
X127718776Y-81904637D01*
X127568013Y-81974140D01*
X127332361Y-82082777D01*
X127329938Y-82084167D01*
X127329935Y-82084169D01*
X127245422Y-82132668D01*
X126960880Y-82295957D01*
X126958577Y-82297566D01*
X126958570Y-82297571D01*
X126617479Y-82535962D01*
X126609820Y-82541315D01*
X126281961Y-82816909D01*
X125979899Y-83120557D01*
X125706025Y-83449855D01*
X125462508Y-83802194D01*
X125251276Y-84174786D01*
X125074002Y-84564680D01*
X125073080Y-84567306D01*
X125073075Y-84567318D01*
X125033633Y-84679634D01*
X124932089Y-84968790D01*
X124826661Y-85383914D01*
X124758552Y-85806768D01*
X124728302Y-86234001D01*
X124736151Y-86662233D01*
X124782036Y-87088071D01*
X124865594Y-87508144D01*
X124986163Y-87919127D01*
X124987190Y-87921740D01*
X124987190Y-87921741D01*
X125125651Y-88274145D01*
X125142789Y-88317765D01*
X125201316Y-88434896D01*
X125312161Y-88656731D01*
X125334231Y-88700901D01*
X125558974Y-89065502D01*
X125815239Y-89408682D01*
X125817100Y-89410760D01*
X125817101Y-89410761D01*
X126099127Y-89725637D01*
X126099133Y-89725643D01*
X126100995Y-89727722D01*
X126413981Y-90020098D01*
X126751719Y-90283493D01*
X127111533Y-90515822D01*
X127114012Y-90517126D01*
X127114015Y-90517128D01*
X127450178Y-90693992D01*
X127501151Y-90743411D01*
X127517314Y-90812544D01*
X127493535Y-90879440D01*
X127437364Y-90922860D01*
X127391511Y-90931500D01*
X52952547Y-90931500D01*
X52884426Y-90911498D01*
X52837933Y-90857842D01*
X52827829Y-90787568D01*
X52857323Y-90722988D01*
X52895166Y-90694006D01*
X52894918Y-90693547D01*
X53271852Y-90490164D01*
X53629214Y-90254080D01*
X53964175Y-89987162D01*
X54274082Y-89691525D01*
X54275919Y-89689431D01*
X54275927Y-89689422D01*
X54554635Y-89371616D01*
X54556482Y-89369510D01*
X54809139Y-89023666D01*
X54810585Y-89021265D01*
X55028601Y-88659142D01*
X55028606Y-88659133D01*
X55030052Y-88656731D01*
X55165551Y-88378299D01*
X55216238Y-88274145D01*
X55216239Y-88274142D01*
X55217471Y-88271611D01*
X55350724Y-87921741D01*
X55368918Y-87873971D01*
X55368920Y-87873964D01*
X55369914Y-87871355D01*
X55486173Y-87459132D01*
X55555433Y-87090822D01*
X55564811Y-87040954D01*
X55564813Y-87040942D01*
X55565327Y-87038207D01*
X55606750Y-86611911D01*
X55608194Y-86556780D01*
X55613289Y-86362234D01*
X55613289Y-86362220D01*
X55613347Y-86360000D01*
X55594291Y-85932121D01*
X55537275Y-85507630D01*
X55508666Y-85381193D01*
X55443368Y-85092618D01*
X55443368Y-85092617D01*
X55442750Y-85089887D01*
X55311463Y-84682202D01*
X55158635Y-84321285D01*
X55145550Y-84290384D01*
X55145548Y-84290379D01*
X55144456Y-84287801D01*
X54943050Y-83909807D01*
X54708840Y-83551214D01*
X54443680Y-83214860D01*
X54149670Y-82903409D01*
X54147579Y-82901556D01*
X54147571Y-82901548D01*
X53831237Y-82621188D01*
X53831235Y-82621186D01*
X53829137Y-82619327D01*
X53484621Y-82364863D01*
X53291733Y-82247355D01*
X53121237Y-82143487D01*
X53121230Y-82143483D01*
X53118848Y-82142032D01*
X53033172Y-82099781D01*
X52778565Y-81974223D01*
X52734714Y-81952598D01*
X52335262Y-81798062D01*
X52032243Y-81710886D01*
X51926335Y-81680417D01*
X51926329Y-81680415D01*
X51923654Y-81679646D01*
X51920917Y-81679117D01*
X51920911Y-81679115D01*
X51741521Y-81644408D01*
X51503148Y-81598289D01*
X51500374Y-81598005D01*
X51500362Y-81598003D01*
X51217111Y-81568982D01*
X51077076Y-81554634D01*
X51074286Y-81554597D01*
X51074278Y-81554597D01*
X50806825Y-81551096D01*
X50648809Y-81549028D01*
X50646009Y-81549241D01*
X50646008Y-81549241D01*
X50571364Y-81554919D01*
X50221740Y-81581514D01*
X49799249Y-81651836D01*
X49713671Y-81674048D01*
X49387400Y-81758731D01*
X49387389Y-81758734D01*
X49384682Y-81759437D01*
X49126575Y-81851599D01*
X48983964Y-81902520D01*
X48983959Y-81902522D01*
X48981321Y-81903464D01*
X48978781Y-81904635D01*
X48978776Y-81904637D01*
X48828013Y-81974140D01*
X48592361Y-82082777D01*
X48589938Y-82084167D01*
X48589935Y-82084169D01*
X48505422Y-82132668D01*
X48220880Y-82295957D01*
X48218577Y-82297566D01*
X48218570Y-82297571D01*
X47877479Y-82535962D01*
X47869820Y-82541315D01*
X47541961Y-82816909D01*
X47239899Y-83120557D01*
X46966025Y-83449855D01*
X46722508Y-83802194D01*
X46511276Y-84174786D01*
X46510117Y-84177335D01*
X46510115Y-84177339D01*
X46469201Y-84267325D01*
X46422797Y-84321058D01*
X46354710Y-84341174D01*
X46286556Y-84321285D01*
X46239974Y-84267707D01*
X46228500Y-84215174D01*
X46228500Y-81280000D01*
X72384647Y-81280000D01*
X72404022Y-81501463D01*
X72461560Y-81716196D01*
X72463882Y-81721177D01*
X72463883Y-81721178D01*
X72553186Y-81912689D01*
X72553189Y-81912694D01*
X72555512Y-81917676D01*
X72558668Y-81922183D01*
X72558669Y-81922185D01*
X72671117Y-82082777D01*
X72683023Y-82099781D01*
X72840219Y-82256977D01*
X72844727Y-82260134D01*
X72844730Y-82260136D01*
X72893890Y-82294558D01*
X73022323Y-82384488D01*
X73027305Y-82386811D01*
X73027310Y-82386814D01*
X73217810Y-82475645D01*
X73223804Y-82478440D01*
X73229112Y-82479862D01*
X73229114Y-82479863D01*
X73294949Y-82497503D01*
X73438537Y-82535978D01*
X73660000Y-82555353D01*
X73881463Y-82535978D01*
X74025051Y-82497503D01*
X74090886Y-82479863D01*
X74090888Y-82479862D01*
X74096196Y-82478440D01*
X74102190Y-82475645D01*
X74292690Y-82386814D01*
X74292695Y-82386811D01*
X74297677Y-82384488D01*
X74362959Y-82338777D01*
X75505777Y-82338777D01*
X75515074Y-82350793D01*
X75558069Y-82380898D01*
X75567555Y-82386376D01*
X75758993Y-82475645D01*
X75769285Y-82479391D01*
X75973309Y-82534059D01*
X75984104Y-82535962D01*
X76194525Y-82554372D01*
X76205475Y-82554372D01*
X76415896Y-82535962D01*
X76426691Y-82534059D01*
X76630715Y-82479391D01*
X76641007Y-82475645D01*
X76832445Y-82386376D01*
X76841931Y-82380898D01*
X76885764Y-82350207D01*
X76894139Y-82339729D01*
X76887071Y-82326281D01*
X76212812Y-81652022D01*
X76198868Y-81644408D01*
X76197035Y-81644539D01*
X76190420Y-81648790D01*
X75512207Y-82327003D01*
X75505777Y-82338777D01*
X74362959Y-82338777D01*
X74426110Y-82294558D01*
X74475270Y-82260136D01*
X74475273Y-82260134D01*
X74479781Y-82256977D01*
X74636977Y-82099781D01*
X74648884Y-82082777D01*
X74761331Y-81922185D01*
X74761332Y-81922183D01*
X74764488Y-81917676D01*
X74766811Y-81912694D01*
X74766814Y-81912689D01*
X74816081Y-81807035D01*
X74862999Y-81753750D01*
X74931276Y-81734289D01*
X74999236Y-81754831D01*
X75044471Y-81807035D01*
X75093623Y-81912441D01*
X75099103Y-81921932D01*
X75129794Y-81965765D01*
X75140271Y-81974140D01*
X75153718Y-81967072D01*
X75827978Y-81292812D01*
X75835592Y-81278868D01*
X75835461Y-81277035D01*
X75831210Y-81270420D01*
X75152997Y-80592207D01*
X75141223Y-80585777D01*
X75129207Y-80595074D01*
X75099103Y-80638068D01*
X75093623Y-80647559D01*
X75044471Y-80752965D01*
X74997553Y-80806250D01*
X74929276Y-80825711D01*
X74861316Y-80805169D01*
X74816081Y-80752965D01*
X74766814Y-80647311D01*
X74766811Y-80647306D01*
X74764488Y-80642324D01*
X74761331Y-80637815D01*
X74640136Y-80464730D01*
X74640134Y-80464727D01*
X74636977Y-80460219D01*
X74479781Y-80303023D01*
X74475273Y-80299866D01*
X74475270Y-80299864D01*
X74394415Y-80243249D01*
X74361599Y-80220271D01*
X75505860Y-80220271D01*
X75512928Y-80233718D01*
X76187188Y-80907978D01*
X76201132Y-80915592D01*
X76202965Y-80915461D01*
X76209580Y-80911210D01*
X76887793Y-80232997D01*
X76894223Y-80221223D01*
X76884926Y-80209207D01*
X76841931Y-80179102D01*
X76832445Y-80173624D01*
X76641007Y-80084355D01*
X76630715Y-80080609D01*
X76426691Y-80025941D01*
X76415896Y-80024038D01*
X76205475Y-80005628D01*
X76194525Y-80005628D01*
X75984104Y-80024038D01*
X75973309Y-80025941D01*
X75769285Y-80080609D01*
X75758993Y-80084355D01*
X75567559Y-80173623D01*
X75558068Y-80179103D01*
X75514235Y-80209794D01*
X75505860Y-80220271D01*
X74361599Y-80220271D01*
X74297677Y-80175512D01*
X74292695Y-80173189D01*
X74292690Y-80173186D01*
X74101178Y-80083883D01*
X74101177Y-80083882D01*
X74096196Y-80081560D01*
X74090888Y-80080138D01*
X74090886Y-80080137D01*
X73977876Y-80049856D01*
X73881463Y-80024022D01*
X73660000Y-80004647D01*
X73438537Y-80024022D01*
X73342124Y-80049856D01*
X73229114Y-80080137D01*
X73229112Y-80080138D01*
X73223804Y-80081560D01*
X73218823Y-80083882D01*
X73218822Y-80083883D01*
X73027311Y-80173186D01*
X73027306Y-80173189D01*
X73022324Y-80175512D01*
X73017817Y-80178668D01*
X73017815Y-80178669D01*
X72844730Y-80299864D01*
X72844727Y-80299866D01*
X72840219Y-80303023D01*
X72683023Y-80460219D01*
X72679866Y-80464727D01*
X72679864Y-80464730D01*
X72558669Y-80637815D01*
X72555512Y-80642324D01*
X72553189Y-80647306D01*
X72553186Y-80647311D01*
X72504195Y-80752373D01*
X72461560Y-80843804D01*
X72404022Y-81058537D01*
X72384647Y-81280000D01*
X46228500Y-81280000D01*
X46228500Y-30446695D01*
X59597251Y-30446695D01*
X59597548Y-30451848D01*
X59597548Y-30451851D01*
X59603743Y-30559297D01*
X59610110Y-30669715D01*
X59611247Y-30674761D01*
X59611248Y-30674767D01*
X59631491Y-30764588D01*
X59659222Y-30887639D01*
X59743266Y-31094616D01*
X59785039Y-31162784D01*
X59857291Y-31280688D01*
X59859987Y-31285088D01*
X60006250Y-31453938D01*
X60178126Y-31596632D01*
X60182593Y-31599242D01*
X60264070Y-31646853D01*
X60312794Y-31698491D01*
X60326500Y-31755641D01*
X60326500Y-60881233D01*
X60325973Y-60892416D01*
X60324298Y-60899909D01*
X60324547Y-60907835D01*
X60324547Y-60907836D01*
X60326438Y-60967986D01*
X60326500Y-60971945D01*
X60326500Y-60999856D01*
X60326997Y-61003790D01*
X60326997Y-61003791D01*
X60327005Y-61003856D01*
X60327938Y-61015693D01*
X60329327Y-61059889D01*
X60334978Y-61079339D01*
X60338987Y-61098700D01*
X60341526Y-61118797D01*
X60344445Y-61126168D01*
X60344445Y-61126170D01*
X60357804Y-61159912D01*
X60361649Y-61171142D01*
X60373982Y-61213593D01*
X60378015Y-61220412D01*
X60378017Y-61220417D01*
X60384293Y-61231028D01*
X60392988Y-61248776D01*
X60400448Y-61267617D01*
X60405110Y-61274033D01*
X60405110Y-61274034D01*
X60426436Y-61303387D01*
X60432952Y-61313307D01*
X60455458Y-61351362D01*
X60469779Y-61365683D01*
X60482619Y-61380716D01*
X60494528Y-61397107D01*
X60500634Y-61402158D01*
X60528605Y-61425298D01*
X60537384Y-61433288D01*
X78899309Y-79795213D01*
X78933335Y-79857525D01*
X78928270Y-79928340D01*
X78885723Y-79985176D01*
X78819203Y-80009987D01*
X78799233Y-80009829D01*
X78745475Y-80005126D01*
X78740000Y-80004647D01*
X78518537Y-80024022D01*
X78422124Y-80049856D01*
X78309114Y-80080137D01*
X78309112Y-80080138D01*
X78303804Y-80081560D01*
X78298823Y-80083882D01*
X78298822Y-80083883D01*
X78107311Y-80173186D01*
X78107306Y-80173189D01*
X78102324Y-80175512D01*
X78097817Y-80178668D01*
X78097815Y-80178669D01*
X77924730Y-80299864D01*
X77924727Y-80299866D01*
X77920219Y-80303023D01*
X77763023Y-80460219D01*
X77759866Y-80464727D01*
X77759864Y-80464730D01*
X77638669Y-80637815D01*
X77635512Y-80642324D01*
X77633189Y-80647306D01*
X77633186Y-80647311D01*
X77583919Y-80752965D01*
X77537001Y-80806250D01*
X77468724Y-80825711D01*
X77400764Y-80805169D01*
X77355529Y-80752965D01*
X77306377Y-80647559D01*
X77300897Y-80638068D01*
X77270206Y-80594235D01*
X77259729Y-80585860D01*
X77246282Y-80592928D01*
X76572022Y-81267188D01*
X76564408Y-81281132D01*
X76564539Y-81282965D01*
X76568790Y-81289580D01*
X77247003Y-81967793D01*
X77258777Y-81974223D01*
X77270793Y-81964926D01*
X77300897Y-81921932D01*
X77306377Y-81912441D01*
X77355529Y-81807035D01*
X77402447Y-81753750D01*
X77470724Y-81734289D01*
X77538684Y-81754831D01*
X77583919Y-81807035D01*
X77633186Y-81912689D01*
X77633189Y-81912694D01*
X77635512Y-81917676D01*
X77638668Y-81922183D01*
X77638669Y-81922185D01*
X77751117Y-82082777D01*
X77763023Y-82099781D01*
X77920219Y-82256977D01*
X77924727Y-82260134D01*
X77924730Y-82260136D01*
X77973890Y-82294558D01*
X78102323Y-82384488D01*
X78107305Y-82386811D01*
X78107310Y-82386814D01*
X78297810Y-82475645D01*
X78303804Y-82478440D01*
X78309112Y-82479862D01*
X78309114Y-82479863D01*
X78374949Y-82497503D01*
X78518537Y-82535978D01*
X78740000Y-82555353D01*
X78961463Y-82535978D01*
X79105051Y-82497503D01*
X79170886Y-82479863D01*
X79170888Y-82479862D01*
X79176196Y-82478440D01*
X79182190Y-82475645D01*
X79372690Y-82386814D01*
X79372695Y-82386811D01*
X79377677Y-82384488D01*
X79506110Y-82294558D01*
X79555270Y-82260136D01*
X79555273Y-82260134D01*
X79559781Y-82256977D01*
X79716977Y-82099781D01*
X79728884Y-82082777D01*
X79841331Y-81922185D01*
X79841332Y-81922183D01*
X79844488Y-81917676D01*
X79846811Y-81912694D01*
X79846814Y-81912689D01*
X79895805Y-81807627D01*
X79942723Y-81754342D01*
X80011000Y-81734881D01*
X80078960Y-81755423D01*
X80124195Y-81807627D01*
X80173186Y-81912689D01*
X80173189Y-81912694D01*
X80175512Y-81917676D01*
X80178668Y-81922183D01*
X80178669Y-81922185D01*
X80291117Y-82082777D01*
X80303023Y-82099781D01*
X80460219Y-82256977D01*
X80464727Y-82260134D01*
X80464730Y-82260136D01*
X80513890Y-82294558D01*
X80642323Y-82384488D01*
X80647305Y-82386811D01*
X80647310Y-82386814D01*
X80837810Y-82475645D01*
X80843804Y-82478440D01*
X80849112Y-82479862D01*
X80849114Y-82479863D01*
X80914949Y-82497503D01*
X81058537Y-82535978D01*
X81280000Y-82555353D01*
X81501463Y-82535978D01*
X81645051Y-82497503D01*
X81710886Y-82479863D01*
X81710888Y-82479862D01*
X81716196Y-82478440D01*
X81722190Y-82475645D01*
X81912690Y-82386814D01*
X81912695Y-82386811D01*
X81917677Y-82384488D01*
X82046110Y-82294558D01*
X82095270Y-82260136D01*
X82095273Y-82260134D01*
X82099781Y-82256977D01*
X82256977Y-82099781D01*
X82268884Y-82082777D01*
X82381331Y-81922185D01*
X82381332Y-81922183D01*
X82384488Y-81917676D01*
X82386811Y-81912694D01*
X82386814Y-81912689D01*
X82435805Y-81807627D01*
X82482723Y-81754342D01*
X82551000Y-81734881D01*
X82618960Y-81755423D01*
X82664195Y-81807627D01*
X82713186Y-81912689D01*
X82713189Y-81912694D01*
X82715512Y-81917676D01*
X82718668Y-81922183D01*
X82718669Y-81922185D01*
X82831117Y-82082777D01*
X82843023Y-82099781D01*
X83000219Y-82256977D01*
X83004727Y-82260134D01*
X83004730Y-82260136D01*
X83053890Y-82294558D01*
X83182323Y-82384488D01*
X83187305Y-82386811D01*
X83187310Y-82386814D01*
X83377810Y-82475645D01*
X83383804Y-82478440D01*
X83389112Y-82479862D01*
X83389114Y-82479863D01*
X83454949Y-82497503D01*
X83598537Y-82535978D01*
X83820000Y-82555353D01*
X84041463Y-82535978D01*
X84185051Y-82497503D01*
X84250886Y-82479863D01*
X84250888Y-82479862D01*
X84256196Y-82478440D01*
X84262190Y-82475645D01*
X84452690Y-82386814D01*
X84452695Y-82386811D01*
X84457677Y-82384488D01*
X84586110Y-82294558D01*
X84635270Y-82260136D01*
X84635273Y-82260134D01*
X84639781Y-82256977D01*
X84796977Y-82099781D01*
X84808884Y-82082777D01*
X84921331Y-81922185D01*
X84921332Y-81922183D01*
X84924488Y-81917676D01*
X84926811Y-81912694D01*
X84926814Y-81912689D01*
X84975805Y-81807627D01*
X85022723Y-81754342D01*
X85091000Y-81734881D01*
X85158960Y-81755423D01*
X85204195Y-81807627D01*
X85253186Y-81912689D01*
X85253189Y-81912694D01*
X85255512Y-81917676D01*
X85258668Y-81922183D01*
X85258669Y-81922185D01*
X85371117Y-82082777D01*
X85383023Y-82099781D01*
X85540219Y-82256977D01*
X85544727Y-82260134D01*
X85544730Y-82260136D01*
X85593890Y-82294558D01*
X85722323Y-82384488D01*
X85727305Y-82386811D01*
X85727310Y-82386814D01*
X85917810Y-82475645D01*
X85923804Y-82478440D01*
X85929112Y-82479862D01*
X85929114Y-82479863D01*
X85994949Y-82497503D01*
X86138537Y-82535978D01*
X86360000Y-82555353D01*
X86581463Y-82535978D01*
X86725051Y-82497503D01*
X86790886Y-82479863D01*
X86790888Y-82479862D01*
X86796196Y-82478440D01*
X86802190Y-82475645D01*
X86992690Y-82386814D01*
X86992695Y-82386811D01*
X86997677Y-82384488D01*
X87126110Y-82294558D01*
X87175270Y-82260136D01*
X87175273Y-82260134D01*
X87179781Y-82256977D01*
X87336977Y-82099781D01*
X87348884Y-82082777D01*
X87461331Y-81922185D01*
X87461332Y-81922183D01*
X87464488Y-81917676D01*
X87466811Y-81912694D01*
X87466814Y-81912689D01*
X87515805Y-81807627D01*
X87562723Y-81754342D01*
X87631000Y-81734881D01*
X87698960Y-81755423D01*
X87744195Y-81807627D01*
X87793186Y-81912689D01*
X87793189Y-81912694D01*
X87795512Y-81917676D01*
X87798668Y-81922183D01*
X87798669Y-81922185D01*
X87911117Y-82082777D01*
X87923023Y-82099781D01*
X88080219Y-82256977D01*
X88084727Y-82260134D01*
X88084730Y-82260136D01*
X88133890Y-82294558D01*
X88262323Y-82384488D01*
X88267305Y-82386811D01*
X88267310Y-82386814D01*
X88457810Y-82475645D01*
X88463804Y-82478440D01*
X88469112Y-82479862D01*
X88469114Y-82479863D01*
X88534949Y-82497503D01*
X88678537Y-82535978D01*
X88900000Y-82555353D01*
X89121463Y-82535978D01*
X89265051Y-82497503D01*
X89330886Y-82479863D01*
X89330888Y-82479862D01*
X89336196Y-82478440D01*
X89342190Y-82475645D01*
X89532690Y-82386814D01*
X89532695Y-82386811D01*
X89537677Y-82384488D01*
X89666110Y-82294558D01*
X89715270Y-82260136D01*
X89715273Y-82260134D01*
X89719781Y-82256977D01*
X89876977Y-82099781D01*
X89888884Y-82082777D01*
X90001331Y-81922185D01*
X90001332Y-81922183D01*
X90004488Y-81917676D01*
X90006811Y-81912694D01*
X90006814Y-81912689D01*
X90055805Y-81807627D01*
X90102723Y-81754342D01*
X90171000Y-81734881D01*
X90238960Y-81755423D01*
X90284195Y-81807627D01*
X90333186Y-81912689D01*
X90333189Y-81912694D01*
X90335512Y-81917676D01*
X90338668Y-81922183D01*
X90338669Y-81922185D01*
X90451117Y-82082777D01*
X90463023Y-82099781D01*
X90620219Y-82256977D01*
X90624727Y-82260134D01*
X90624730Y-82260136D01*
X90673890Y-82294558D01*
X90802323Y-82384488D01*
X90807305Y-82386811D01*
X90807310Y-82386814D01*
X90997810Y-82475645D01*
X91003804Y-82478440D01*
X91009112Y-82479862D01*
X91009114Y-82479863D01*
X91074949Y-82497503D01*
X91218537Y-82535978D01*
X91440000Y-82555353D01*
X91661463Y-82535978D01*
X91805051Y-82497503D01*
X91870886Y-82479863D01*
X91870888Y-82479862D01*
X91876196Y-82478440D01*
X91882190Y-82475645D01*
X92072690Y-82386814D01*
X92072695Y-82386811D01*
X92077677Y-82384488D01*
X92206110Y-82294558D01*
X92255270Y-82260136D01*
X92255273Y-82260134D01*
X92259781Y-82256977D01*
X92416977Y-82099781D01*
X92428884Y-82082777D01*
X92541331Y-81922185D01*
X92541332Y-81922183D01*
X92544488Y-81917676D01*
X92546811Y-81912694D01*
X92546814Y-81912689D01*
X92595805Y-81807627D01*
X92642723Y-81754342D01*
X92711000Y-81734881D01*
X92778960Y-81755423D01*
X92824195Y-81807627D01*
X92873186Y-81912689D01*
X92873189Y-81912694D01*
X92875512Y-81917676D01*
X92878668Y-81922183D01*
X92878669Y-81922185D01*
X92991117Y-82082777D01*
X93003023Y-82099781D01*
X93160219Y-82256977D01*
X93164727Y-82260134D01*
X93164730Y-82260136D01*
X93213890Y-82294558D01*
X93342323Y-82384488D01*
X93347305Y-82386811D01*
X93347310Y-82386814D01*
X93537810Y-82475645D01*
X93543804Y-82478440D01*
X93549112Y-82479862D01*
X93549114Y-82479863D01*
X93614949Y-82497503D01*
X93758537Y-82535978D01*
X93980000Y-82555353D01*
X94201463Y-82535978D01*
X94345051Y-82497503D01*
X94410886Y-82479863D01*
X94410888Y-82479862D01*
X94416196Y-82478440D01*
X94422190Y-82475645D01*
X94612690Y-82386814D01*
X94612695Y-82386811D01*
X94617677Y-82384488D01*
X94746110Y-82294558D01*
X94795270Y-82260136D01*
X94795273Y-82260134D01*
X94799781Y-82256977D01*
X94956977Y-82099781D01*
X94968884Y-82082777D01*
X95081331Y-81922185D01*
X95081332Y-81922183D01*
X95084488Y-81917676D01*
X95086811Y-81912694D01*
X95086814Y-81912689D01*
X95135805Y-81807627D01*
X95182723Y-81754342D01*
X95251000Y-81734881D01*
X95318960Y-81755423D01*
X95364195Y-81807627D01*
X95413186Y-81912689D01*
X95413189Y-81912694D01*
X95415512Y-81917676D01*
X95418668Y-81922183D01*
X95418669Y-81922185D01*
X95531117Y-82082777D01*
X95543023Y-82099781D01*
X95700219Y-82256977D01*
X95704727Y-82260134D01*
X95704730Y-82260136D01*
X95753890Y-82294558D01*
X95882323Y-82384488D01*
X95887305Y-82386811D01*
X95887310Y-82386814D01*
X96077810Y-82475645D01*
X96083804Y-82478440D01*
X96089112Y-82479862D01*
X96089114Y-82479863D01*
X96154949Y-82497503D01*
X96298537Y-82535978D01*
X96520000Y-82555353D01*
X96741463Y-82535978D01*
X96885051Y-82497503D01*
X96950886Y-82479863D01*
X96950888Y-82479862D01*
X96956196Y-82478440D01*
X96962190Y-82475645D01*
X97152690Y-82386814D01*
X97152695Y-82386811D01*
X97157677Y-82384488D01*
X97286110Y-82294558D01*
X97335270Y-82260136D01*
X97335273Y-82260134D01*
X97339781Y-82256977D01*
X97496977Y-82099781D01*
X97508884Y-82082777D01*
X97621331Y-81922185D01*
X97621332Y-81922183D01*
X97624488Y-81917676D01*
X97626811Y-81912694D01*
X97626814Y-81912689D01*
X97675805Y-81807627D01*
X97722723Y-81754342D01*
X97791000Y-81734881D01*
X97858960Y-81755423D01*
X97904195Y-81807627D01*
X97953186Y-81912689D01*
X97953189Y-81912694D01*
X97955512Y-81917676D01*
X97958668Y-81922183D01*
X97958669Y-81922185D01*
X98071117Y-82082777D01*
X98083023Y-82099781D01*
X98240219Y-82256977D01*
X98244727Y-82260134D01*
X98244730Y-82260136D01*
X98293890Y-82294558D01*
X98422323Y-82384488D01*
X98427305Y-82386811D01*
X98427310Y-82386814D01*
X98617810Y-82475645D01*
X98623804Y-82478440D01*
X98629112Y-82479862D01*
X98629114Y-82479863D01*
X98694949Y-82497503D01*
X98838537Y-82535978D01*
X99060000Y-82555353D01*
X99281463Y-82535978D01*
X99425051Y-82497503D01*
X99490886Y-82479863D01*
X99490888Y-82479862D01*
X99496196Y-82478440D01*
X99502190Y-82475645D01*
X99692690Y-82386814D01*
X99692695Y-82386811D01*
X99697677Y-82384488D01*
X99826110Y-82294558D01*
X99875270Y-82260136D01*
X99875273Y-82260134D01*
X99879781Y-82256977D01*
X100036977Y-82099781D01*
X100048884Y-82082777D01*
X100161331Y-81922185D01*
X100161332Y-81922183D01*
X100164488Y-81917676D01*
X100166811Y-81912694D01*
X100166814Y-81912689D01*
X100215805Y-81807627D01*
X100262723Y-81754342D01*
X100331000Y-81734881D01*
X100398960Y-81755423D01*
X100444195Y-81807627D01*
X100493186Y-81912689D01*
X100493189Y-81912694D01*
X100495512Y-81917676D01*
X100498668Y-81922183D01*
X100498669Y-81922185D01*
X100611117Y-82082777D01*
X100623023Y-82099781D01*
X100780219Y-82256977D01*
X100784727Y-82260134D01*
X100784730Y-82260136D01*
X100833890Y-82294558D01*
X100962323Y-82384488D01*
X100967305Y-82386811D01*
X100967310Y-82386814D01*
X101157810Y-82475645D01*
X101163804Y-82478440D01*
X101169112Y-82479862D01*
X101169114Y-82479863D01*
X101234949Y-82497503D01*
X101378537Y-82535978D01*
X101600000Y-82555353D01*
X101821463Y-82535978D01*
X101965051Y-82497503D01*
X102030886Y-82479863D01*
X102030888Y-82479862D01*
X102036196Y-82478440D01*
X102042190Y-82475645D01*
X102232690Y-82386814D01*
X102232695Y-82386811D01*
X102237677Y-82384488D01*
X102366110Y-82294558D01*
X102415270Y-82260136D01*
X102415273Y-82260134D01*
X102419781Y-82256977D01*
X102576977Y-82099781D01*
X102588884Y-82082777D01*
X102701331Y-81922185D01*
X102701332Y-81922183D01*
X102704488Y-81917676D01*
X102706811Y-81912694D01*
X102706814Y-81912689D01*
X102755805Y-81807627D01*
X102802723Y-81754342D01*
X102871000Y-81734881D01*
X102938960Y-81755423D01*
X102984195Y-81807627D01*
X103033186Y-81912689D01*
X103033189Y-81912694D01*
X103035512Y-81917676D01*
X103038668Y-81922183D01*
X103038669Y-81922185D01*
X103151117Y-82082777D01*
X103163023Y-82099781D01*
X103320219Y-82256977D01*
X103324727Y-82260134D01*
X103324730Y-82260136D01*
X103373890Y-82294558D01*
X103502323Y-82384488D01*
X103507305Y-82386811D01*
X103507310Y-82386814D01*
X103697810Y-82475645D01*
X103703804Y-82478440D01*
X103709112Y-82479862D01*
X103709114Y-82479863D01*
X103774949Y-82497503D01*
X103918537Y-82535978D01*
X104140000Y-82555353D01*
X104361463Y-82535978D01*
X104505051Y-82497503D01*
X104570886Y-82479863D01*
X104570888Y-82479862D01*
X104576196Y-82478440D01*
X104582190Y-82475645D01*
X104772690Y-82386814D01*
X104772695Y-82386811D01*
X104777677Y-82384488D01*
X104906110Y-82294558D01*
X104955270Y-82260136D01*
X104955273Y-82260134D01*
X104959781Y-82256977D01*
X105116977Y-82099781D01*
X105128884Y-82082777D01*
X105241331Y-81922185D01*
X105241332Y-81922183D01*
X105244488Y-81917676D01*
X105246811Y-81912694D01*
X105246814Y-81912689D01*
X105295805Y-81807627D01*
X105342723Y-81754342D01*
X105411000Y-81734881D01*
X105478960Y-81755423D01*
X105524195Y-81807627D01*
X105573186Y-81912689D01*
X105573189Y-81912694D01*
X105575512Y-81917676D01*
X105578668Y-81922183D01*
X105578669Y-81922185D01*
X105691117Y-82082777D01*
X105703023Y-82099781D01*
X105860219Y-82256977D01*
X105864727Y-82260134D01*
X105864730Y-82260136D01*
X105913890Y-82294558D01*
X106042323Y-82384488D01*
X106047305Y-82386811D01*
X106047310Y-82386814D01*
X106237810Y-82475645D01*
X106243804Y-82478440D01*
X106249112Y-82479862D01*
X106249114Y-82479863D01*
X106314949Y-82497503D01*
X106458537Y-82535978D01*
X106680000Y-82555353D01*
X106901463Y-82535978D01*
X107045051Y-82497503D01*
X107110886Y-82479863D01*
X107110888Y-82479862D01*
X107116196Y-82478440D01*
X107122190Y-82475645D01*
X107312690Y-82386814D01*
X107312695Y-82386811D01*
X107317677Y-82384488D01*
X107446110Y-82294558D01*
X107495270Y-82260136D01*
X107495273Y-82260134D01*
X107499781Y-82256977D01*
X107656977Y-82099781D01*
X107668884Y-82082777D01*
X107781331Y-81922185D01*
X107781332Y-81922183D01*
X107784488Y-81917676D01*
X107786811Y-81912694D01*
X107786814Y-81912689D01*
X107835805Y-81807627D01*
X107882723Y-81754342D01*
X107951000Y-81734881D01*
X108018960Y-81755423D01*
X108064195Y-81807627D01*
X108113186Y-81912689D01*
X108113189Y-81912694D01*
X108115512Y-81917676D01*
X108118668Y-81922183D01*
X108118669Y-81922185D01*
X108231117Y-82082777D01*
X108243023Y-82099781D01*
X108400219Y-82256977D01*
X108404727Y-82260134D01*
X108404730Y-82260136D01*
X108453890Y-82294558D01*
X108582323Y-82384488D01*
X108587305Y-82386811D01*
X108587310Y-82386814D01*
X108777810Y-82475645D01*
X108783804Y-82478440D01*
X108789112Y-82479862D01*
X108789114Y-82479863D01*
X108854949Y-82497503D01*
X108998537Y-82535978D01*
X109220000Y-82555353D01*
X109441463Y-82535978D01*
X109585051Y-82497503D01*
X109650886Y-82479863D01*
X109650888Y-82479862D01*
X109656196Y-82478440D01*
X109662190Y-82475645D01*
X109852690Y-82386814D01*
X109852695Y-82386811D01*
X109857677Y-82384488D01*
X109986110Y-82294558D01*
X110035270Y-82260136D01*
X110035273Y-82260134D01*
X110039781Y-82256977D01*
X110196977Y-82099781D01*
X110208884Y-82082777D01*
X110321331Y-81922185D01*
X110321332Y-81922183D01*
X110324488Y-81917676D01*
X110326811Y-81912694D01*
X110326814Y-81912689D01*
X110416117Y-81721178D01*
X110416118Y-81721177D01*
X110418440Y-81716196D01*
X110475978Y-81501463D01*
X110495353Y-81280000D01*
X110475978Y-81058537D01*
X110418440Y-80843804D01*
X110375805Y-80752373D01*
X110326814Y-80647311D01*
X110326811Y-80647306D01*
X110324488Y-80642324D01*
X110321331Y-80637815D01*
X110200136Y-80464730D01*
X110200134Y-80464727D01*
X110196977Y-80460219D01*
X110039781Y-80303023D01*
X110035273Y-80299866D01*
X110035270Y-80299864D01*
X109954415Y-80243249D01*
X109857677Y-80175512D01*
X109852695Y-80173189D01*
X109852690Y-80173186D01*
X109661178Y-80083883D01*
X109661177Y-80083882D01*
X109656196Y-80081560D01*
X109650888Y-80080138D01*
X109650886Y-80080137D01*
X109537876Y-80049856D01*
X109441463Y-80024022D01*
X109220000Y-80004647D01*
X108998537Y-80024022D01*
X108993223Y-80025446D01*
X108993217Y-80025447D01*
X108959486Y-80034485D01*
X108888510Y-80032796D01*
X108837779Y-80001874D01*
X108620405Y-79784500D01*
X108586379Y-79722188D01*
X108583500Y-79695405D01*
X108583500Y-74930000D01*
X114656496Y-74930000D01*
X114676458Y-75119928D01*
X114735473Y-75301556D01*
X114830960Y-75466944D01*
X114958747Y-75608866D01*
X115113248Y-75721118D01*
X115119276Y-75723802D01*
X115119278Y-75723803D01*
X115281681Y-75796109D01*
X115287712Y-75798794D01*
X115381112Y-75818647D01*
X115468056Y-75837128D01*
X115468061Y-75837128D01*
X115474513Y-75838500D01*
X115665487Y-75838500D01*
X115671939Y-75837128D01*
X115671944Y-75837128D01*
X115758888Y-75818647D01*
X115852288Y-75798794D01*
X115858319Y-75796109D01*
X116020722Y-75723803D01*
X116020724Y-75723802D01*
X116026752Y-75721118D01*
X116130940Y-75645421D01*
X116197806Y-75621563D01*
X116266958Y-75637643D01*
X116279056Y-75645418D01*
X116383248Y-75721118D01*
X116389276Y-75723802D01*
X116389278Y-75723803D01*
X116551681Y-75796109D01*
X116557712Y-75798794D01*
X116651112Y-75818647D01*
X116738056Y-75837128D01*
X116738061Y-75837128D01*
X116744513Y-75838500D01*
X116935487Y-75838500D01*
X116941939Y-75837128D01*
X116941944Y-75837128D01*
X117028888Y-75818647D01*
X117122288Y-75798794D01*
X117128319Y-75796109D01*
X117290722Y-75723803D01*
X117290724Y-75723802D01*
X117296752Y-75721118D01*
X117400940Y-75645421D01*
X117467806Y-75621563D01*
X117536958Y-75637643D01*
X117549056Y-75645418D01*
X117653248Y-75721118D01*
X117659276Y-75723802D01*
X117659278Y-75723803D01*
X117821681Y-75796109D01*
X117827712Y-75798794D01*
X117921112Y-75818647D01*
X118008056Y-75837128D01*
X118008061Y-75837128D01*
X118014513Y-75838500D01*
X118205487Y-75838500D01*
X118211939Y-75837128D01*
X118211944Y-75837128D01*
X118298888Y-75818647D01*
X118392288Y-75798794D01*
X118398319Y-75796109D01*
X118560722Y-75723803D01*
X118560724Y-75723802D01*
X118566752Y-75721118D01*
X118670940Y-75645421D01*
X118737806Y-75621563D01*
X118806958Y-75637643D01*
X118819056Y-75645418D01*
X118923248Y-75721118D01*
X118929276Y-75723802D01*
X118929278Y-75723803D01*
X119091681Y-75796109D01*
X119097712Y-75798794D01*
X119191112Y-75818647D01*
X119278056Y-75837128D01*
X119278061Y-75837128D01*
X119284513Y-75838500D01*
X119475487Y-75838500D01*
X119481939Y-75837128D01*
X119481944Y-75837128D01*
X119568888Y-75818647D01*
X119662288Y-75798794D01*
X119668319Y-75796109D01*
X119830722Y-75723803D01*
X119830724Y-75723802D01*
X119836752Y-75721118D01*
X119991253Y-75608866D01*
X120119040Y-75466944D01*
X120214527Y-75301556D01*
X120273542Y-75119928D01*
X120293504Y-74930000D01*
X120273542Y-74740072D01*
X120214527Y-74558444D01*
X120119040Y-74393056D01*
X120045863Y-74311785D01*
X120015147Y-74247779D01*
X120013500Y-74227476D01*
X120013500Y-70552524D01*
X120033502Y-70484403D01*
X120045858Y-70468221D01*
X120119040Y-70386944D01*
X120214527Y-70221556D01*
X120273542Y-70039928D01*
X120293504Y-69850000D01*
X120273542Y-69660072D01*
X120214527Y-69478444D01*
X120119040Y-69313056D01*
X120081375Y-69271224D01*
X119995675Y-69176045D01*
X119995674Y-69176044D01*
X119991253Y-69171134D01*
X119836752Y-69058882D01*
X119830724Y-69056198D01*
X119830722Y-69056197D01*
X119668319Y-68983891D01*
X119668318Y-68983891D01*
X119662288Y-68981206D01*
X119554736Y-68958345D01*
X119481944Y-68942872D01*
X119481939Y-68942872D01*
X119475487Y-68941500D01*
X119284513Y-68941500D01*
X119278061Y-68942872D01*
X119278056Y-68942872D01*
X119205264Y-68958345D01*
X119097712Y-68981206D01*
X119091682Y-68983891D01*
X119091681Y-68983891D01*
X118929278Y-69056197D01*
X118929276Y-69056198D01*
X118923248Y-69058882D01*
X118819060Y-69134579D01*
X118752194Y-69158437D01*
X118683042Y-69142357D01*
X118670944Y-69134582D01*
X118566752Y-69058882D01*
X118560724Y-69056198D01*
X118560722Y-69056197D01*
X118398319Y-68983891D01*
X118398318Y-68983891D01*
X118392288Y-68981206D01*
X118284736Y-68958345D01*
X118211944Y-68942872D01*
X118211939Y-68942872D01*
X118205487Y-68941500D01*
X118014513Y-68941500D01*
X118008061Y-68942872D01*
X118008056Y-68942872D01*
X117935264Y-68958345D01*
X117827712Y-68981206D01*
X117821682Y-68983891D01*
X117821681Y-68983891D01*
X117659278Y-69056197D01*
X117659276Y-69056198D01*
X117653248Y-69058882D01*
X117549060Y-69134579D01*
X117482194Y-69158437D01*
X117413042Y-69142357D01*
X117400944Y-69134582D01*
X117296752Y-69058882D01*
X117290724Y-69056198D01*
X117290722Y-69056197D01*
X117128319Y-68983891D01*
X117128318Y-68983891D01*
X117122288Y-68981206D01*
X117014736Y-68958345D01*
X116941944Y-68942872D01*
X116941939Y-68942872D01*
X116935487Y-68941500D01*
X116744513Y-68941500D01*
X116738061Y-68942872D01*
X116738056Y-68942872D01*
X116665264Y-68958345D01*
X116557712Y-68981206D01*
X116551682Y-68983891D01*
X116551681Y-68983891D01*
X116389278Y-69056197D01*
X116389276Y-69056198D01*
X116383248Y-69058882D01*
X116279060Y-69134579D01*
X116212194Y-69158437D01*
X116143042Y-69142357D01*
X116130944Y-69134582D01*
X116026752Y-69058882D01*
X116020724Y-69056198D01*
X116020722Y-69056197D01*
X115858319Y-68983891D01*
X115858318Y-68983891D01*
X115852288Y-68981206D01*
X115744736Y-68958345D01*
X115671944Y-68942872D01*
X115671939Y-68942872D01*
X115665487Y-68941500D01*
X115474513Y-68941500D01*
X115468061Y-68942872D01*
X115468056Y-68942872D01*
X115395264Y-68958345D01*
X115287712Y-68981206D01*
X115281682Y-68983891D01*
X115281681Y-68983891D01*
X115119278Y-69056197D01*
X115119276Y-69056198D01*
X115113248Y-69058882D01*
X114958747Y-69171134D01*
X114954326Y-69176044D01*
X114954325Y-69176045D01*
X114868626Y-69271224D01*
X114830960Y-69313056D01*
X114735473Y-69478444D01*
X114676458Y-69660072D01*
X114656496Y-69850000D01*
X114676458Y-70039928D01*
X114735473Y-70221556D01*
X114830960Y-70386944D01*
X114904137Y-70468215D01*
X114934853Y-70532221D01*
X114936500Y-70552524D01*
X114936500Y-74227476D01*
X114916498Y-74295597D01*
X114904142Y-74311779D01*
X114830960Y-74393056D01*
X114735473Y-74558444D01*
X114676458Y-74740072D01*
X114656496Y-74930000D01*
X108583500Y-74930000D01*
X108583500Y-57182817D01*
X108603502Y-57114696D01*
X108657158Y-57068203D01*
X108727432Y-57058099D01*
X108762751Y-57068623D01*
X108778817Y-57076115D01*
X108778822Y-57076117D01*
X108783804Y-57078440D01*
X108789112Y-57079862D01*
X108789114Y-57079863D01*
X108815526Y-57086940D01*
X108998537Y-57135978D01*
X109220000Y-57155353D01*
X109441463Y-57135978D01*
X109457642Y-57131643D01*
X109480516Y-57125514D01*
X109551493Y-57127204D01*
X109602222Y-57158126D01*
X124780854Y-72336758D01*
X124788398Y-72345048D01*
X124792511Y-72351529D01*
X124798288Y-72356954D01*
X124842178Y-72398169D01*
X124845020Y-72400924D01*
X124864741Y-72420645D01*
X124867936Y-72423123D01*
X124876958Y-72430829D01*
X124909190Y-72461097D01*
X124916139Y-72464917D01*
X124926943Y-72470857D01*
X124943467Y-72481710D01*
X124959470Y-72494124D01*
X125000054Y-72511687D01*
X125010684Y-72516894D01*
X125049451Y-72538206D01*
X125057128Y-72540177D01*
X125057133Y-72540179D01*
X125069069Y-72543243D01*
X125087777Y-72549648D01*
X125106366Y-72557692D01*
X125114191Y-72558931D01*
X125114193Y-72558932D01*
X125150030Y-72564608D01*
X125161651Y-72567015D01*
X125196800Y-72576039D01*
X125204481Y-72578011D01*
X125224742Y-72578011D01*
X125244451Y-72579562D01*
X125264454Y-72582730D01*
X125272346Y-72581984D01*
X125277573Y-72581490D01*
X125308465Y-72578570D01*
X125320322Y-72578011D01*
X126603771Y-72578011D01*
X126671892Y-72598013D01*
X126718385Y-72651669D01*
X126728489Y-72721943D01*
X126698995Y-72786523D01*
X126655020Y-72819118D01*
X126549278Y-72866197D01*
X126549276Y-72866198D01*
X126543248Y-72868882D01*
X126388747Y-72981134D01*
X126384326Y-72986044D01*
X126384325Y-72986045D01*
X126350492Y-73023621D01*
X126260960Y-73123056D01*
X126165473Y-73288444D01*
X126106458Y-73470072D01*
X126086496Y-73660000D01*
X126106458Y-73849928D01*
X126165473Y-74031556D01*
X126260960Y-74196944D01*
X126265378Y-74201851D01*
X126265379Y-74201852D01*
X126347452Y-74293003D01*
X126388747Y-74338866D01*
X126543248Y-74451118D01*
X126549276Y-74453802D01*
X126549278Y-74453803D01*
X126711681Y-74526109D01*
X126717712Y-74528794D01*
X126811113Y-74548647D01*
X126898056Y-74567128D01*
X126898061Y-74567128D01*
X126904513Y-74568500D01*
X127095487Y-74568500D01*
X127101939Y-74567128D01*
X127101944Y-74567128D01*
X127188887Y-74548647D01*
X127282288Y-74528794D01*
X127288319Y-74526109D01*
X127450722Y-74453803D01*
X127450724Y-74453802D01*
X127456752Y-74451118D01*
X127611253Y-74338866D01*
X127615668Y-74333963D01*
X127620580Y-74329540D01*
X127621705Y-74330789D01*
X127675014Y-74297949D01*
X127708200Y-74293500D01*
X129357269Y-74293500D01*
X129368452Y-74294027D01*
X129375945Y-74295702D01*
X129383871Y-74295453D01*
X129383872Y-74295453D01*
X129444022Y-74293562D01*
X129447981Y-74293500D01*
X129475892Y-74293500D01*
X129479827Y-74293003D01*
X129479892Y-74292995D01*
X129491729Y-74292062D01*
X129523987Y-74291048D01*
X129528006Y-74290922D01*
X129535925Y-74290673D01*
X129555379Y-74285021D01*
X129574736Y-74281013D01*
X129586966Y-74279468D01*
X129586967Y-74279468D01*
X129594833Y-74278474D01*
X129602204Y-74275555D01*
X129602206Y-74275555D01*
X129635948Y-74262196D01*
X129647178Y-74258351D01*
X129682019Y-74248229D01*
X129682020Y-74248229D01*
X129689629Y-74246018D01*
X129696448Y-74241985D01*
X129696453Y-74241983D01*
X129707064Y-74235707D01*
X129724812Y-74227012D01*
X129743653Y-74219552D01*
X129779423Y-74193564D01*
X129789343Y-74187048D01*
X129820571Y-74168580D01*
X129820574Y-74168578D01*
X129827398Y-74164542D01*
X129841719Y-74150221D01*
X129856753Y-74137380D01*
X129866730Y-74130131D01*
X129873143Y-74125472D01*
X129901334Y-74091395D01*
X129909324Y-74082616D01*
X132026758Y-71965182D01*
X132035048Y-71957638D01*
X132041529Y-71953525D01*
X132088170Y-71903857D01*
X132090924Y-71901016D01*
X132110645Y-71881295D01*
X132113123Y-71878100D01*
X132120829Y-71869078D01*
X132145669Y-71842626D01*
X132151097Y-71836846D01*
X132160857Y-71819093D01*
X132171710Y-71802570D01*
X132179264Y-71792831D01*
X132184124Y-71786566D01*
X132201687Y-71745982D01*
X132206894Y-71735352D01*
X132228206Y-71696585D01*
X132230177Y-71688908D01*
X132230179Y-71688903D01*
X132233243Y-71676967D01*
X132239649Y-71658255D01*
X132244544Y-71646944D01*
X132247692Y-71639670D01*
X132248932Y-71631842D01*
X132248934Y-71631835D01*
X132254610Y-71596001D01*
X132257016Y-71584381D01*
X132266039Y-71549236D01*
X132266039Y-71549235D01*
X132268011Y-71541555D01*
X132268011Y-71521301D01*
X132269562Y-71501590D01*
X132271491Y-71489411D01*
X132272731Y-71481582D01*
X132268570Y-71437563D01*
X132268011Y-71425706D01*
X132268011Y-68213279D01*
X132268538Y-68202096D01*
X132270213Y-68194603D01*
X132268073Y-68126512D01*
X132268011Y-68122555D01*
X132268011Y-68094655D01*
X132267507Y-68090664D01*
X132266574Y-68078822D01*
X132265434Y-68042547D01*
X132265185Y-68034622D01*
X132259532Y-68015163D01*
X132255523Y-67995804D01*
X132255357Y-67994494D01*
X132252985Y-67975714D01*
X132250069Y-67968348D01*
X132250067Y-67968342D01*
X132236711Y-67934609D01*
X132232866Y-67923379D01*
X132222741Y-67888528D01*
X132222741Y-67888527D01*
X132220530Y-67880918D01*
X132210216Y-67863477D01*
X132201519Y-67845724D01*
X132196983Y-67834269D01*
X132194063Y-67826894D01*
X132168074Y-67791123D01*
X132161558Y-67781203D01*
X132143089Y-67749974D01*
X132139053Y-67743149D01*
X132124732Y-67728828D01*
X132111891Y-67713794D01*
X132104642Y-67703817D01*
X132099983Y-67697404D01*
X132093878Y-67692353D01*
X132093873Y-67692348D01*
X132065907Y-67669212D01*
X132057129Y-67661224D01*
X131856674Y-67460769D01*
X131822648Y-67398457D01*
X131820763Y-67355883D01*
X131822985Y-67338295D01*
X131823380Y-67310000D01*
X131804080Y-67113167D01*
X131785864Y-67052831D01*
X131748697Y-66929731D01*
X131746916Y-66923831D01*
X131654066Y-66749204D01*
X131650167Y-66744424D01*
X131649715Y-66743743D01*
X131628676Y-66675935D01*
X131645105Y-66611775D01*
X131732723Y-66457542D01*
X131732725Y-66457537D01*
X131735769Y-66452179D01*
X131798197Y-66264513D01*
X131822985Y-66068295D01*
X131823380Y-66040000D01*
X131804080Y-65843167D01*
X131746916Y-65653831D01*
X131654066Y-65479204D01*
X131583709Y-65392938D01*
X131532960Y-65330713D01*
X131532957Y-65330710D01*
X131529065Y-65325938D01*
X131499770Y-65301703D01*
X131381425Y-65203799D01*
X131381421Y-65203797D01*
X131376675Y-65199870D01*
X131202701Y-65105802D01*
X131013768Y-65047318D01*
X131007643Y-65046674D01*
X131007642Y-65046674D01*
X130823204Y-65027289D01*
X130823202Y-65027289D01*
X130817075Y-65026645D01*
X130734576Y-65034153D01*
X130626251Y-65044011D01*
X130626248Y-65044012D01*
X130620112Y-65044570D01*
X130614206Y-65046308D01*
X130614202Y-65046309D01*
X130478551Y-65086233D01*
X130430381Y-65100410D01*
X130424797Y-65103329D01*
X130424727Y-65103343D01*
X130419209Y-65105573D01*
X130418785Y-65104524D01*
X130355164Y-65117165D01*
X130302846Y-65097096D01*
X130301760Y-65099079D01*
X130293892Y-65094771D01*
X130286705Y-65089385D01*
X130150316Y-65038255D01*
X130088134Y-65031500D01*
X128991866Y-65031500D01*
X128929684Y-65038255D01*
X128793295Y-65089385D01*
X128676739Y-65176739D01*
X128589385Y-65293295D01*
X128538255Y-65429684D01*
X128531500Y-65491866D01*
X128531500Y-66588134D01*
X128538255Y-66650316D01*
X128589385Y-66786705D01*
X128594766Y-66793885D01*
X128599079Y-66801763D01*
X128597004Y-66802899D01*
X128617362Y-66857387D01*
X128608389Y-66910782D01*
X128609029Y-66910985D01*
X128607595Y-66915505D01*
X128607497Y-66916089D01*
X128607162Y-66916870D01*
X128568506Y-67038731D01*
X128568202Y-67052831D01*
X128574763Y-67056000D01*
X129668000Y-67056000D01*
X129736121Y-67076002D01*
X129782614Y-67129658D01*
X129794000Y-67182000D01*
X129794000Y-68708000D01*
X129773998Y-68776121D01*
X129720342Y-68822614D01*
X129668000Y-68834000D01*
X128582282Y-68834000D01*
X128568751Y-68837973D01*
X128567601Y-68845975D01*
X128596552Y-68946941D01*
X128601067Y-68958345D01*
X128685794Y-69123207D01*
X128692432Y-69133507D01*
X128694131Y-69135650D01*
X128694667Y-69136975D01*
X128695774Y-69138692D01*
X128695448Y-69138902D01*
X128720770Y-69201460D01*
X128707600Y-69271224D01*
X128703979Y-69277316D01*
X128703846Y-69277474D01*
X128703370Y-69278341D01*
X128703364Y-69278350D01*
X128681141Y-69318774D01*
X128608567Y-69450787D01*
X128606706Y-69456654D01*
X128606705Y-69456656D01*
X128597800Y-69484729D01*
X128548765Y-69639306D01*
X128526719Y-69835851D01*
X128543268Y-70032934D01*
X128597783Y-70223050D01*
X128600602Y-70228535D01*
X128682014Y-70386944D01*
X128688187Y-70398956D01*
X128694164Y-70406497D01*
X128694843Y-70408174D01*
X128695353Y-70408966D01*
X128695203Y-70409063D01*
X128720802Y-70472304D01*
X128707633Y-70542069D01*
X128704254Y-70547754D01*
X128704262Y-70547758D01*
X128611998Y-70715585D01*
X128607166Y-70726858D01*
X128568506Y-70848731D01*
X128568202Y-70862831D01*
X128574763Y-70866000D01*
X129668000Y-70866000D01*
X129736121Y-70886002D01*
X129782614Y-70939658D01*
X129794000Y-70992000D01*
X129794000Y-71185011D01*
X129773998Y-71253132D01*
X129720342Y-71299625D01*
X129668000Y-71311011D01*
X125599106Y-71311011D01*
X125530985Y-71291009D01*
X125510011Y-71274106D01*
X121811880Y-67575975D01*
X128567601Y-67575975D01*
X128596552Y-67676941D01*
X128601067Y-67688345D01*
X128685794Y-67853207D01*
X128692435Y-67863511D01*
X128694460Y-67866066D01*
X128695099Y-67867645D01*
X128695774Y-67868692D01*
X128695575Y-67868820D01*
X128721098Y-67931875D01*
X128707928Y-68001640D01*
X128703907Y-68008403D01*
X128611998Y-68175585D01*
X128607166Y-68186858D01*
X128568506Y-68308731D01*
X128568202Y-68322831D01*
X128574763Y-68326000D01*
X129267885Y-68326000D01*
X129283124Y-68321525D01*
X129284329Y-68320135D01*
X129286000Y-68312452D01*
X129286000Y-67582115D01*
X129281525Y-67566876D01*
X129280135Y-67565671D01*
X129272452Y-67564000D01*
X128582282Y-67564000D01*
X128568751Y-67567973D01*
X128567601Y-67575975D01*
X121811880Y-67575975D01*
X112655905Y-58420000D01*
X117196496Y-58420000D01*
X117216458Y-58609928D01*
X117275473Y-58791556D01*
X117370960Y-58956944D01*
X117498747Y-59098866D01*
X117653248Y-59211118D01*
X117659276Y-59213802D01*
X117659278Y-59213803D01*
X117821681Y-59286109D01*
X117827712Y-59288794D01*
X117921113Y-59308647D01*
X118008056Y-59327128D01*
X118008061Y-59327128D01*
X118014513Y-59328500D01*
X118205487Y-59328500D01*
X118211939Y-59327128D01*
X118211944Y-59327128D01*
X118298887Y-59308647D01*
X118392288Y-59288794D01*
X118398319Y-59286109D01*
X118560722Y-59213803D01*
X118560724Y-59213802D01*
X118566752Y-59211118D01*
X118670940Y-59135421D01*
X118737806Y-59111563D01*
X118806958Y-59127643D01*
X118819056Y-59135418D01*
X118923248Y-59211118D01*
X118929276Y-59213802D01*
X118929278Y-59213803D01*
X119091681Y-59286109D01*
X119097712Y-59288794D01*
X119191113Y-59308647D01*
X119278056Y-59327128D01*
X119278061Y-59327128D01*
X119284513Y-59328500D01*
X119475487Y-59328500D01*
X119481939Y-59327128D01*
X119481944Y-59327128D01*
X119568887Y-59308647D01*
X119662288Y-59288794D01*
X119668319Y-59286109D01*
X119830722Y-59213803D01*
X119830724Y-59213802D01*
X119836752Y-59211118D01*
X119940940Y-59135421D01*
X120007806Y-59111563D01*
X120076958Y-59127643D01*
X120089056Y-59135418D01*
X120193248Y-59211118D01*
X120199276Y-59213802D01*
X120199278Y-59213803D01*
X120361681Y-59286109D01*
X120367712Y-59288794D01*
X120461113Y-59308647D01*
X120548056Y-59327128D01*
X120548061Y-59327128D01*
X120554513Y-59328500D01*
X120745487Y-59328500D01*
X120751939Y-59327128D01*
X120751944Y-59327128D01*
X120838887Y-59308647D01*
X120932288Y-59288794D01*
X120938319Y-59286109D01*
X121100722Y-59213803D01*
X121100724Y-59213802D01*
X121106752Y-59211118D01*
X121210940Y-59135421D01*
X121277806Y-59111563D01*
X121346958Y-59127643D01*
X121359056Y-59135418D01*
X121463248Y-59211118D01*
X121469276Y-59213802D01*
X121469278Y-59213803D01*
X121631681Y-59286109D01*
X121637712Y-59288794D01*
X121731113Y-59308647D01*
X121818056Y-59327128D01*
X121818061Y-59327128D01*
X121824513Y-59328500D01*
X122015487Y-59328500D01*
X122021939Y-59327128D01*
X122021944Y-59327128D01*
X122108887Y-59308647D01*
X122202288Y-59288794D01*
X122208319Y-59286109D01*
X122370722Y-59213803D01*
X122370724Y-59213802D01*
X122376752Y-59211118D01*
X122531253Y-59098866D01*
X122659040Y-58956944D01*
X122754527Y-58791556D01*
X122813542Y-58609928D01*
X122833504Y-58420000D01*
X122813542Y-58230072D01*
X122754527Y-58048444D01*
X122659040Y-57883056D01*
X122585863Y-57801785D01*
X122555147Y-57737779D01*
X122553500Y-57717476D01*
X122553500Y-55312524D01*
X122573502Y-55244403D01*
X122585858Y-55228221D01*
X122659040Y-55146944D01*
X122754527Y-54981556D01*
X122813542Y-54799928D01*
X122814817Y-54787803D01*
X122832814Y-54616565D01*
X122833504Y-54610000D01*
X122831400Y-54589980D01*
X122814232Y-54426635D01*
X122814232Y-54426633D01*
X122813542Y-54420072D01*
X122754527Y-54238444D01*
X122659040Y-54073056D01*
X122531253Y-53931134D01*
X122376752Y-53818882D01*
X122370724Y-53816198D01*
X122370722Y-53816197D01*
X122208319Y-53743891D01*
X122208318Y-53743891D01*
X122202288Y-53741206D01*
X122108888Y-53721353D01*
X122021944Y-53702872D01*
X122021939Y-53702872D01*
X122015487Y-53701500D01*
X121824513Y-53701500D01*
X121818061Y-53702872D01*
X121818056Y-53702872D01*
X121731113Y-53721353D01*
X121637712Y-53741206D01*
X121631682Y-53743891D01*
X121631681Y-53743891D01*
X121469278Y-53816197D01*
X121469276Y-53816198D01*
X121463248Y-53818882D01*
X121359060Y-53894579D01*
X121292194Y-53918437D01*
X121223042Y-53902357D01*
X121210944Y-53894582D01*
X121106752Y-53818882D01*
X121100724Y-53816198D01*
X121100722Y-53816197D01*
X120938319Y-53743891D01*
X120938318Y-53743891D01*
X120932288Y-53741206D01*
X120838888Y-53721353D01*
X120751944Y-53702872D01*
X120751939Y-53702872D01*
X120745487Y-53701500D01*
X120554513Y-53701500D01*
X120548061Y-53702872D01*
X120548056Y-53702872D01*
X120461113Y-53721353D01*
X120367712Y-53741206D01*
X120361682Y-53743891D01*
X120361681Y-53743891D01*
X120199278Y-53816197D01*
X120199276Y-53816198D01*
X120193248Y-53818882D01*
X120089060Y-53894579D01*
X120022194Y-53918437D01*
X119953042Y-53902357D01*
X119940944Y-53894582D01*
X119836752Y-53818882D01*
X119830724Y-53816198D01*
X119830722Y-53816197D01*
X119668319Y-53743891D01*
X119668318Y-53743891D01*
X119662288Y-53741206D01*
X119568888Y-53721353D01*
X119481944Y-53702872D01*
X119481939Y-53702872D01*
X119475487Y-53701500D01*
X119284513Y-53701500D01*
X119278061Y-53702872D01*
X119278056Y-53702872D01*
X119191113Y-53721353D01*
X119097712Y-53741206D01*
X119091682Y-53743891D01*
X119091681Y-53743891D01*
X118929278Y-53816197D01*
X118929276Y-53816198D01*
X118923248Y-53818882D01*
X118819060Y-53894579D01*
X118752194Y-53918437D01*
X118683042Y-53902357D01*
X118670944Y-53894582D01*
X118566752Y-53818882D01*
X118560724Y-53816198D01*
X118560722Y-53816197D01*
X118398319Y-53743891D01*
X118398318Y-53743891D01*
X118392288Y-53741206D01*
X118298888Y-53721353D01*
X118211944Y-53702872D01*
X118211939Y-53702872D01*
X118205487Y-53701500D01*
X118014513Y-53701500D01*
X118008061Y-53702872D01*
X118008056Y-53702872D01*
X117921113Y-53721353D01*
X117827712Y-53741206D01*
X117821682Y-53743891D01*
X117821681Y-53743891D01*
X117659278Y-53816197D01*
X117659276Y-53816198D01*
X117653248Y-53818882D01*
X117498747Y-53931134D01*
X117370960Y-54073056D01*
X117275473Y-54238444D01*
X117216458Y-54420072D01*
X117215768Y-54426633D01*
X117215768Y-54426635D01*
X117198600Y-54589980D01*
X117196496Y-54610000D01*
X117197186Y-54616565D01*
X117215184Y-54787803D01*
X117216458Y-54799928D01*
X117275473Y-54981556D01*
X117370960Y-55146944D01*
X117444137Y-55228215D01*
X117474853Y-55292221D01*
X117476500Y-55312524D01*
X117476500Y-57717476D01*
X117456498Y-57785597D01*
X117444142Y-57801779D01*
X117370960Y-57883056D01*
X117275473Y-58048444D01*
X117216458Y-58230072D01*
X117196496Y-58420000D01*
X112655905Y-58420000D01*
X110498126Y-56262221D01*
X110464100Y-56199909D01*
X110465515Y-56140514D01*
X110474553Y-56106783D01*
X110474554Y-56106776D01*
X110475978Y-56101463D01*
X110495353Y-55880000D01*
X110475978Y-55658537D01*
X110418440Y-55443804D01*
X110357223Y-55312524D01*
X110326814Y-55247311D01*
X110326811Y-55247306D01*
X110324488Y-55242324D01*
X110321331Y-55237815D01*
X110200136Y-55064730D01*
X110200134Y-55064727D01*
X110196977Y-55060219D01*
X110039781Y-54903023D01*
X110035271Y-54899865D01*
X110035265Y-54899860D01*
X109901389Y-54806120D01*
X109878432Y-54790045D01*
X109834103Y-54734588D01*
X109826794Y-54663969D01*
X109861607Y-54597737D01*
X110786758Y-53672586D01*
X110795048Y-53665042D01*
X110801529Y-53660929D01*
X110848170Y-53611261D01*
X110850924Y-53608420D01*
X110870646Y-53588698D01*
X110873123Y-53585505D01*
X110880828Y-53576484D01*
X110905670Y-53550029D01*
X110911097Y-53544250D01*
X110914918Y-53537300D01*
X110920857Y-53526497D01*
X110931713Y-53509970D01*
X110939268Y-53500231D01*
X110939269Y-53500229D01*
X110944125Y-53493969D01*
X110961685Y-53453389D01*
X110966902Y-53442741D01*
X110984386Y-53410938D01*
X110984387Y-53410936D01*
X110988206Y-53403989D01*
X110990618Y-53394598D01*
X110993244Y-53384367D01*
X110999648Y-53365663D01*
X111004544Y-53354349D01*
X111004544Y-53354348D01*
X111007692Y-53347074D01*
X111008931Y-53339251D01*
X111008934Y-53339241D01*
X111014610Y-53303405D01*
X111017016Y-53291785D01*
X111026039Y-53256640D01*
X111026039Y-53256639D01*
X111028011Y-53248959D01*
X111028011Y-53228705D01*
X111029562Y-53208994D01*
X111030143Y-53205329D01*
X111032731Y-53188986D01*
X111028570Y-53144967D01*
X111028011Y-53133110D01*
X111028011Y-37728134D01*
X128181500Y-37728134D01*
X128188255Y-37790316D01*
X128239385Y-37926705D01*
X128326739Y-38043261D01*
X128443295Y-38130615D01*
X128579684Y-38181745D01*
X128641866Y-38188500D01*
X130438134Y-38188500D01*
X130500316Y-38181745D01*
X130636705Y-38130615D01*
X130753261Y-38043261D01*
X130840615Y-37926705D01*
X130891745Y-37790316D01*
X130898500Y-37728134D01*
X130898500Y-35931866D01*
X130891745Y-35869684D01*
X130840615Y-35733295D01*
X130753261Y-35616739D01*
X130636705Y-35529385D01*
X130517687Y-35484767D01*
X130460923Y-35442125D01*
X130436223Y-35375564D01*
X130451430Y-35306215D01*
X130472977Y-35277535D01*
X130574052Y-35176812D01*
X130580730Y-35168965D01*
X130705003Y-34996020D01*
X130710313Y-34987183D01*
X130804670Y-34796267D01*
X130808469Y-34786672D01*
X130870377Y-34582910D01*
X130872555Y-34572837D01*
X130873986Y-34561962D01*
X130871775Y-34547778D01*
X130858617Y-34544000D01*
X128223225Y-34544000D01*
X128209694Y-34547973D01*
X128208257Y-34557966D01*
X128238565Y-34692446D01*
X128241645Y-34702275D01*
X128321770Y-34899603D01*
X128326413Y-34908794D01*
X128437694Y-35090388D01*
X128443777Y-35098699D01*
X128583213Y-35259667D01*
X128590577Y-35266879D01*
X128595522Y-35270985D01*
X128635156Y-35329889D01*
X128636653Y-35400870D01*
X128599537Y-35461392D01*
X128559264Y-35485910D01*
X128451705Y-35526232D01*
X128451704Y-35526233D01*
X128443295Y-35529385D01*
X128326739Y-35616739D01*
X128239385Y-35733295D01*
X128188255Y-35869684D01*
X128181500Y-35931866D01*
X128181500Y-37728134D01*
X111028011Y-37728134D01*
X111028011Y-34024183D01*
X128204389Y-34024183D01*
X128205912Y-34032607D01*
X128218292Y-34036000D01*
X129267885Y-34036000D01*
X129283124Y-34031525D01*
X129284329Y-34030135D01*
X129286000Y-34022452D01*
X129286000Y-34017885D01*
X129794000Y-34017885D01*
X129798475Y-34033124D01*
X129799865Y-34034329D01*
X129807548Y-34036000D01*
X130858344Y-34036000D01*
X130871875Y-34032027D01*
X130873180Y-34022947D01*
X130831214Y-33855875D01*
X130827894Y-33846124D01*
X130742972Y-33650814D01*
X130738105Y-33641739D01*
X130622426Y-33462926D01*
X130616136Y-33454757D01*
X130472806Y-33297240D01*
X130465273Y-33290215D01*
X130298139Y-33158222D01*
X130289552Y-33152517D01*
X130103117Y-33049599D01*
X130093705Y-33045369D01*
X129892959Y-32974280D01*
X129882988Y-32971646D01*
X129811837Y-32958972D01*
X129798540Y-32960432D01*
X129794000Y-32974989D01*
X129794000Y-34017885D01*
X129286000Y-34017885D01*
X129286000Y-32973102D01*
X129282082Y-32959758D01*
X129267806Y-32957771D01*
X129229324Y-32963660D01*
X129219288Y-32966051D01*
X129016868Y-33032212D01*
X129007359Y-33036209D01*
X128818463Y-33134542D01*
X128809738Y-33140036D01*
X128639433Y-33267905D01*
X128631726Y-33274748D01*
X128484590Y-33428717D01*
X128478104Y-33436727D01*
X128358098Y-33612649D01*
X128353000Y-33621623D01*
X128263338Y-33814783D01*
X128259775Y-33824470D01*
X128204389Y-34024183D01*
X111028011Y-34024183D01*
X111028011Y-32382725D01*
X111048013Y-32314604D01*
X111101669Y-32268111D01*
X111171943Y-32258007D01*
X111198961Y-32265015D01*
X111379692Y-32334030D01*
X111384760Y-32335061D01*
X111384763Y-32335062D01*
X111479862Y-32354410D01*
X111598597Y-32378567D01*
X111603772Y-32378757D01*
X111603774Y-32378757D01*
X111816673Y-32386564D01*
X111816677Y-32386564D01*
X111821837Y-32386753D01*
X111826957Y-32386097D01*
X111826959Y-32386097D01*
X112038288Y-32359025D01*
X112038289Y-32359025D01*
X112043416Y-32358368D01*
X112048376Y-32356880D01*
X112252429Y-32295661D01*
X112252434Y-32295659D01*
X112257384Y-32294174D01*
X112457994Y-32195896D01*
X112639860Y-32066173D01*
X112644536Y-32061514D01*
X112784251Y-31922286D01*
X112798096Y-31908489D01*
X112803595Y-31900837D01*
X112928453Y-31727077D01*
X112929776Y-31728028D01*
X112976645Y-31684857D01*
X113046580Y-31672625D01*
X113112026Y-31700144D01*
X113139875Y-31731994D01*
X113199987Y-31830088D01*
X113346250Y-31998938D01*
X113518126Y-32141632D01*
X113711000Y-32254338D01*
X113919692Y-32334030D01*
X113924760Y-32335061D01*
X113924763Y-32335062D01*
X114019862Y-32354410D01*
X114138597Y-32378567D01*
X114143772Y-32378757D01*
X114143774Y-32378757D01*
X114356673Y-32386564D01*
X114356677Y-32386564D01*
X114361837Y-32386753D01*
X114366957Y-32386097D01*
X114366959Y-32386097D01*
X114578288Y-32359025D01*
X114578289Y-32359025D01*
X114583416Y-32358368D01*
X114588376Y-32356880D01*
X114792429Y-32295661D01*
X114792434Y-32295659D01*
X114797384Y-32294174D01*
X114997994Y-32195896D01*
X115179860Y-32066173D01*
X115184536Y-32061514D01*
X115324251Y-31922286D01*
X115338096Y-31908489D01*
X115343595Y-31900837D01*
X115468453Y-31727077D01*
X115469640Y-31727930D01*
X115516960Y-31684362D01*
X115586897Y-31672145D01*
X115652338Y-31699678D01*
X115680166Y-31731511D01*
X115737694Y-31825388D01*
X115743777Y-31833699D01*
X115883213Y-31994667D01*
X115890580Y-32001883D01*
X116054434Y-32137916D01*
X116062881Y-32143831D01*
X116246756Y-32251279D01*
X116256042Y-32255729D01*
X116455001Y-32331703D01*
X116464899Y-32334579D01*
X116568250Y-32355606D01*
X116582299Y-32354410D01*
X116586000Y-32344065D01*
X116586000Y-32343517D01*
X117094000Y-32343517D01*
X117098064Y-32357359D01*
X117111478Y-32359393D01*
X117118184Y-32358534D01*
X117128262Y-32356392D01*
X117332255Y-32295191D01*
X117341842Y-32291433D01*
X117533095Y-32197739D01*
X117541945Y-32192464D01*
X117715328Y-32068792D01*
X117723193Y-32062145D01*
X117827897Y-31957805D01*
X117890268Y-31923889D01*
X117961075Y-31929077D01*
X118017837Y-31971723D01*
X118034819Y-32002826D01*
X118079385Y-32121705D01*
X118166739Y-32238261D01*
X118283295Y-32325615D01*
X118419684Y-32376745D01*
X118481866Y-32383500D01*
X120278134Y-32383500D01*
X120340316Y-32376745D01*
X120476705Y-32325615D01*
X120593261Y-32238261D01*
X120680615Y-32121705D01*
X120731745Y-31985316D01*
X120738500Y-31923134D01*
X120738500Y-30126866D01*
X120731745Y-30064684D01*
X120680615Y-29928295D01*
X120593261Y-29811739D01*
X120476705Y-29724385D01*
X120401362Y-29696140D01*
X120358203Y-29679960D01*
X120301439Y-29637318D01*
X120276739Y-29570756D01*
X120291947Y-29501408D01*
X120313493Y-29472727D01*
X120414435Y-29372137D01*
X120418096Y-29368489D01*
X120432963Y-29347800D01*
X120545435Y-29191277D01*
X120548453Y-29187077D01*
X120553813Y-29176233D01*
X120645136Y-28991453D01*
X120645137Y-28991451D01*
X120647430Y-28986811D01*
X120712370Y-28773069D01*
X120741529Y-28551590D01*
X120743156Y-28485000D01*
X120724852Y-28262361D01*
X120670431Y-28045702D01*
X120581354Y-27840840D01*
X120483582Y-27689707D01*
X120462822Y-27657617D01*
X120462820Y-27657614D01*
X120460014Y-27653277D01*
X120309670Y-27488051D01*
X120305619Y-27484852D01*
X120305615Y-27484848D01*
X120138414Y-27352800D01*
X120138410Y-27352798D01*
X120134359Y-27349598D01*
X120098028Y-27329542D01*
X120032266Y-27293240D01*
X119938789Y-27241638D01*
X119933920Y-27239914D01*
X119933916Y-27239912D01*
X119733087Y-27168795D01*
X119733083Y-27168794D01*
X119728212Y-27167069D01*
X119723119Y-27166162D01*
X119723116Y-27166161D01*
X119513373Y-27128800D01*
X119513367Y-27128799D01*
X119508284Y-27127894D01*
X119434452Y-27126992D01*
X119290081Y-27125228D01*
X119290079Y-27125228D01*
X119284911Y-27125165D01*
X119064091Y-27158955D01*
X118851756Y-27228357D01*
X118788016Y-27261538D01*
X118722123Y-27295840D01*
X118653607Y-27331507D01*
X118649474Y-27334610D01*
X118649471Y-27334612D01*
X118493916Y-27451406D01*
X118474965Y-27465635D01*
X118320629Y-27627138D01*
X118317720Y-27631403D01*
X118317714Y-27631411D01*
X118303584Y-27652125D01*
X118213204Y-27784618D01*
X118212898Y-27785066D01*
X118157987Y-27830069D01*
X118087462Y-27838240D01*
X118023715Y-27806986D01*
X118003018Y-27782502D01*
X117922426Y-27657926D01*
X117916136Y-27649757D01*
X117772806Y-27492240D01*
X117765273Y-27485215D01*
X117598139Y-27353222D01*
X117589552Y-27347517D01*
X117403117Y-27244599D01*
X117393705Y-27240369D01*
X117192959Y-27169280D01*
X117182988Y-27166646D01*
X117111837Y-27153972D01*
X117098540Y-27155432D01*
X117094000Y-27169989D01*
X117094000Y-32343517D01*
X116586000Y-32343517D01*
X116586000Y-27168102D01*
X116582082Y-27154758D01*
X116567806Y-27152771D01*
X116529324Y-27158660D01*
X116519288Y-27161051D01*
X116316868Y-27227212D01*
X116307359Y-27231209D01*
X116118463Y-27329542D01*
X116109738Y-27335036D01*
X115939433Y-27462905D01*
X115931726Y-27469748D01*
X115784590Y-27623717D01*
X115778109Y-27631722D01*
X115673498Y-27785074D01*
X115618587Y-27830076D01*
X115548062Y-27838247D01*
X115484315Y-27806993D01*
X115463618Y-27782509D01*
X115382822Y-27657617D01*
X115382820Y-27657614D01*
X115380014Y-27653277D01*
X115229670Y-27488051D01*
X115225619Y-27484852D01*
X115225615Y-27484848D01*
X115058414Y-27352800D01*
X115058410Y-27352798D01*
X115054359Y-27349598D01*
X115018028Y-27329542D01*
X114952266Y-27293240D01*
X114858789Y-27241638D01*
X114853920Y-27239914D01*
X114853916Y-27239912D01*
X114653087Y-27168795D01*
X114653083Y-27168794D01*
X114648212Y-27167069D01*
X114643119Y-27166162D01*
X114643116Y-27166161D01*
X114433373Y-27128800D01*
X114433367Y-27128799D01*
X114428284Y-27127894D01*
X114354452Y-27126992D01*
X114210081Y-27125228D01*
X114210079Y-27125228D01*
X114204911Y-27125165D01*
X113984091Y-27158955D01*
X113771756Y-27228357D01*
X113708016Y-27261538D01*
X113642123Y-27295840D01*
X113573607Y-27331507D01*
X113569474Y-27334610D01*
X113569471Y-27334612D01*
X113413916Y-27451406D01*
X113394965Y-27465635D01*
X113240629Y-27627138D01*
X113133201Y-27784621D01*
X113078293Y-27829621D01*
X113007768Y-27837792D01*
X112944021Y-27806538D01*
X112923324Y-27782054D01*
X112842822Y-27657617D01*
X112842820Y-27657614D01*
X112840014Y-27653277D01*
X112689670Y-27488051D01*
X112685619Y-27484852D01*
X112685615Y-27484848D01*
X112518414Y-27352800D01*
X112518410Y-27352798D01*
X112514359Y-27349598D01*
X112478028Y-27329542D01*
X112412266Y-27293240D01*
X112318789Y-27241638D01*
X112313920Y-27239914D01*
X112313916Y-27239912D01*
X112113087Y-27168795D01*
X112113083Y-27168794D01*
X112108212Y-27167069D01*
X112103119Y-27166162D01*
X112103116Y-27166161D01*
X111893373Y-27128800D01*
X111893367Y-27128799D01*
X111888284Y-27127894D01*
X111814452Y-27126992D01*
X111670081Y-27125228D01*
X111670079Y-27125228D01*
X111664911Y-27125165D01*
X111444091Y-27158955D01*
X111231756Y-27228357D01*
X111168016Y-27261538D01*
X111102123Y-27295840D01*
X111033607Y-27331507D01*
X111029474Y-27334610D01*
X111029471Y-27334612D01*
X110873916Y-27451406D01*
X110854965Y-27465635D01*
X110700629Y-27627138D01*
X110593201Y-27784621D01*
X110538293Y-27829621D01*
X110467768Y-27837792D01*
X110404021Y-27806538D01*
X110383324Y-27782054D01*
X110302822Y-27657617D01*
X110302820Y-27657614D01*
X110300014Y-27653277D01*
X110149670Y-27488051D01*
X110145619Y-27484852D01*
X110145615Y-27484848D01*
X109978414Y-27352800D01*
X109978410Y-27352798D01*
X109974359Y-27349598D01*
X109938028Y-27329542D01*
X109872266Y-27293240D01*
X109778789Y-27241638D01*
X109773920Y-27239914D01*
X109773916Y-27239912D01*
X109573087Y-27168795D01*
X109573083Y-27168794D01*
X109568212Y-27167069D01*
X109563119Y-27166162D01*
X109563116Y-27166161D01*
X109353373Y-27128800D01*
X109353367Y-27128799D01*
X109348284Y-27127894D01*
X109274452Y-27126992D01*
X109130081Y-27125228D01*
X109130079Y-27125228D01*
X109124911Y-27125165D01*
X108904091Y-27158955D01*
X108691756Y-27228357D01*
X108628016Y-27261538D01*
X108562123Y-27295840D01*
X108493607Y-27331507D01*
X108489474Y-27334610D01*
X108489471Y-27334612D01*
X108333916Y-27451406D01*
X108314965Y-27465635D01*
X108160629Y-27627138D01*
X108053201Y-27784621D01*
X107998293Y-27829621D01*
X107927768Y-27837792D01*
X107864021Y-27806538D01*
X107843324Y-27782054D01*
X107762822Y-27657617D01*
X107762820Y-27657614D01*
X107760014Y-27653277D01*
X107609670Y-27488051D01*
X107605619Y-27484852D01*
X107605615Y-27484848D01*
X107438414Y-27352800D01*
X107438410Y-27352798D01*
X107434359Y-27349598D01*
X107398028Y-27329542D01*
X107332266Y-27293240D01*
X107238789Y-27241638D01*
X107233920Y-27239914D01*
X107233916Y-27239912D01*
X107033087Y-27168795D01*
X107033083Y-27168794D01*
X107028212Y-27167069D01*
X107023119Y-27166162D01*
X107023116Y-27166161D01*
X106813373Y-27128800D01*
X106813367Y-27128799D01*
X106808284Y-27127894D01*
X106734452Y-27126992D01*
X106590081Y-27125228D01*
X106590079Y-27125228D01*
X106584911Y-27125165D01*
X106364091Y-27158955D01*
X106151756Y-27228357D01*
X106088016Y-27261538D01*
X106022123Y-27295840D01*
X105953607Y-27331507D01*
X105949474Y-27334610D01*
X105949471Y-27334612D01*
X105793916Y-27451406D01*
X105774965Y-27465635D01*
X105620629Y-27627138D01*
X105617720Y-27631403D01*
X105617714Y-27631411D01*
X105577947Y-27689707D01*
X105494743Y-27811680D01*
X105400688Y-28014305D01*
X105340989Y-28229570D01*
X105317251Y-28451695D01*
X105317548Y-28456848D01*
X105317548Y-28456851D01*
X105325765Y-28599362D01*
X105330110Y-28674715D01*
X105331247Y-28679761D01*
X105331248Y-28679767D01*
X105344910Y-28740388D01*
X105379222Y-28892639D01*
X105416235Y-28983792D01*
X105460303Y-29092318D01*
X105463266Y-29099616D01*
X105505992Y-29169338D01*
X105577291Y-29285688D01*
X105579987Y-29290088D01*
X105726250Y-29458938D01*
X105790507Y-29512285D01*
X105878434Y-29585283D01*
X105898126Y-29601632D01*
X105959196Y-29637318D01*
X105971445Y-29644476D01*
X106020169Y-29696114D01*
X106033240Y-29765897D01*
X106006509Y-29831669D01*
X105966055Y-29865027D01*
X105953607Y-29871507D01*
X105949474Y-29874610D01*
X105949471Y-29874612D01*
X105866771Y-29936705D01*
X105774965Y-30005635D01*
X105620629Y-30167138D01*
X105617720Y-30171403D01*
X105617714Y-30171411D01*
X105577947Y-30229707D01*
X105494743Y-30351680D01*
X105400688Y-30554305D01*
X105340989Y-30769570D01*
X105317251Y-30991695D01*
X105317548Y-30996848D01*
X105317548Y-30996851D01*
X105325765Y-31139362D01*
X105330110Y-31214715D01*
X105331247Y-31219761D01*
X105331248Y-31219767D01*
X105363453Y-31362668D01*
X105358917Y-31433520D01*
X105329631Y-31479464D01*
X103747747Y-33061348D01*
X103739461Y-33068888D01*
X103732982Y-33073000D01*
X103727557Y-33078777D01*
X103686357Y-33122651D01*
X103683602Y-33125493D01*
X103663865Y-33145230D01*
X103661385Y-33148427D01*
X103653682Y-33157447D01*
X103623414Y-33189679D01*
X103619595Y-33196625D01*
X103619593Y-33196628D01*
X103613652Y-33207434D01*
X103602801Y-33223953D01*
X103590386Y-33239959D01*
X103587241Y-33247228D01*
X103587238Y-33247232D01*
X103572826Y-33280537D01*
X103567609Y-33291187D01*
X103546305Y-33329940D01*
X103544334Y-33337615D01*
X103544334Y-33337616D01*
X103541267Y-33349562D01*
X103534863Y-33368266D01*
X103526819Y-33386855D01*
X103525580Y-33394678D01*
X103525577Y-33394688D01*
X103519901Y-33430524D01*
X103517495Y-33442144D01*
X103506500Y-33484970D01*
X103506500Y-33505224D01*
X103504949Y-33524934D01*
X103501780Y-33544943D01*
X103502526Y-33552835D01*
X103505941Y-33588961D01*
X103506500Y-33600819D01*
X103506500Y-54706996D01*
X103486498Y-54775117D01*
X103452771Y-54810209D01*
X103324730Y-54899864D01*
X103324727Y-54899866D01*
X103320219Y-54903023D01*
X103163023Y-55060219D01*
X103159866Y-55064727D01*
X103159864Y-55064730D01*
X103038669Y-55237815D01*
X103035512Y-55242324D01*
X103033189Y-55247306D01*
X103033186Y-55247311D01*
X102984195Y-55352373D01*
X102937277Y-55405658D01*
X102869000Y-55425119D01*
X102801040Y-55404577D01*
X102755805Y-55352373D01*
X102706814Y-55247311D01*
X102706811Y-55247306D01*
X102704488Y-55242324D01*
X102701331Y-55237815D01*
X102580136Y-55064730D01*
X102580134Y-55064727D01*
X102576977Y-55060219D01*
X102419781Y-54903023D01*
X102415273Y-54899866D01*
X102415270Y-54899864D01*
X102287229Y-54810209D01*
X102242901Y-54754752D01*
X102233500Y-54706996D01*
X102233500Y-32061514D01*
X102253502Y-31993393D01*
X102265858Y-31977211D01*
X102339040Y-31895934D01*
X102434527Y-31730546D01*
X102493542Y-31548918D01*
X102496882Y-31517145D01*
X102512814Y-31365555D01*
X102513504Y-31358990D01*
X102493542Y-31169062D01*
X102434527Y-30987434D01*
X102339040Y-30822046D01*
X102291791Y-30769570D01*
X102215675Y-30685035D01*
X102215674Y-30685034D01*
X102211253Y-30680124D01*
X102056752Y-30567872D01*
X102050724Y-30565188D01*
X102050722Y-30565187D01*
X101888319Y-30492881D01*
X101888318Y-30492881D01*
X101882288Y-30490196D01*
X101788887Y-30470343D01*
X101701944Y-30451862D01*
X101701939Y-30451862D01*
X101695487Y-30450490D01*
X101504513Y-30450490D01*
X101498061Y-30451862D01*
X101498056Y-30451862D01*
X101411113Y-30470343D01*
X101317712Y-30490196D01*
X101311682Y-30492881D01*
X101311681Y-30492881D01*
X101149278Y-30565187D01*
X101149276Y-30565188D01*
X101143248Y-30567872D01*
X100988747Y-30680124D01*
X100984326Y-30685034D01*
X100984325Y-30685035D01*
X100908210Y-30769570D01*
X100860960Y-30822046D01*
X100765473Y-30987434D01*
X100706458Y-31169062D01*
X100686496Y-31358990D01*
X100687186Y-31365555D01*
X100703119Y-31517145D01*
X100706458Y-31548918D01*
X100765473Y-31730546D01*
X100860960Y-31895934D01*
X100934137Y-31977205D01*
X100964853Y-32041211D01*
X100966500Y-32061514D01*
X100966500Y-54706996D01*
X100946498Y-54775117D01*
X100912771Y-54810209D01*
X100784730Y-54899864D01*
X100784727Y-54899866D01*
X100780219Y-54903023D01*
X100623023Y-55060219D01*
X100619866Y-55064727D01*
X100619864Y-55064730D01*
X100498669Y-55237815D01*
X100495512Y-55242324D01*
X100493189Y-55247306D01*
X100493186Y-55247311D01*
X100444195Y-55352373D01*
X100397277Y-55405658D01*
X100329000Y-55425119D01*
X100261040Y-55404577D01*
X100215805Y-55352373D01*
X100166814Y-55247311D01*
X100166811Y-55247306D01*
X100164488Y-55242324D01*
X100161331Y-55237815D01*
X100040136Y-55064730D01*
X100040134Y-55064727D01*
X100036977Y-55060219D01*
X99879781Y-54903023D01*
X99875273Y-54899866D01*
X99875270Y-54899864D01*
X99741512Y-54806206D01*
X99697677Y-54775512D01*
X99692695Y-54773189D01*
X99692690Y-54773186D01*
X99501178Y-54683883D01*
X99501177Y-54683882D01*
X99496196Y-54681560D01*
X99490888Y-54680138D01*
X99490886Y-54680137D01*
X99425051Y-54662497D01*
X99281463Y-54624022D01*
X99060000Y-54604647D01*
X98838537Y-54624022D01*
X98833224Y-54625446D01*
X98833216Y-54625447D01*
X98765601Y-54643565D01*
X98694625Y-54641876D01*
X98635829Y-54602083D01*
X98607880Y-54536819D01*
X98606989Y-54521859D01*
X98606989Y-37092257D01*
X98607516Y-37081074D01*
X98609191Y-37073581D01*
X98607051Y-37005490D01*
X98606989Y-37001533D01*
X98606989Y-36973633D01*
X98606485Y-36969642D01*
X98605552Y-36957800D01*
X98604412Y-36921525D01*
X98604163Y-36913600D01*
X98601951Y-36905986D01*
X98601950Y-36905981D01*
X98598512Y-36894148D01*
X98594501Y-36874784D01*
X98592956Y-36862553D01*
X98591963Y-36854692D01*
X98589046Y-36847325D01*
X98589045Y-36847320D01*
X98575687Y-36813581D01*
X98571843Y-36802354D01*
X98561719Y-36767511D01*
X98559507Y-36759896D01*
X98549196Y-36742461D01*
X98540501Y-36724713D01*
X98533041Y-36705872D01*
X98507053Y-36670102D01*
X98500537Y-36660182D01*
X98482069Y-36628954D01*
X98482067Y-36628951D01*
X98478031Y-36622127D01*
X98463710Y-36607806D01*
X98450869Y-36592772D01*
X98438961Y-36576382D01*
X98404884Y-36548191D01*
X98396105Y-36540201D01*
X93762801Y-31906896D01*
X93728775Y-31844584D01*
X93725949Y-31814146D01*
X93726000Y-31812388D01*
X93726000Y-31798517D01*
X94234000Y-31798517D01*
X94238064Y-31812359D01*
X94251478Y-31814393D01*
X94258184Y-31813534D01*
X94268262Y-31811392D01*
X94472255Y-31750191D01*
X94481842Y-31746433D01*
X94673095Y-31652739D01*
X94681945Y-31647464D01*
X94855328Y-31523792D01*
X94863193Y-31517145D01*
X94967897Y-31412805D01*
X95030268Y-31378889D01*
X95101075Y-31384077D01*
X95157837Y-31426723D01*
X95174819Y-31457826D01*
X95206508Y-31542355D01*
X95219385Y-31576705D01*
X95306739Y-31693261D01*
X95423295Y-31780615D01*
X95559684Y-31831745D01*
X95621866Y-31838500D01*
X97418134Y-31838500D01*
X97480316Y-31831745D01*
X97616705Y-31780615D01*
X97733261Y-31693261D01*
X97820615Y-31576705D01*
X97871745Y-31440316D01*
X97878500Y-31378134D01*
X97878500Y-29581866D01*
X97871745Y-29519684D01*
X97820615Y-29383295D01*
X97733261Y-29266739D01*
X97616705Y-29179385D01*
X97541362Y-29151140D01*
X97498203Y-29134960D01*
X97441439Y-29092318D01*
X97416739Y-29025756D01*
X97431947Y-28956408D01*
X97453493Y-28927727D01*
X97488704Y-28892639D01*
X97558096Y-28823489D01*
X97590767Y-28778023D01*
X97685435Y-28646277D01*
X97688453Y-28642077D01*
X97701995Y-28614678D01*
X97785136Y-28446453D01*
X97785137Y-28446451D01*
X97787430Y-28441811D01*
X97852370Y-28228069D01*
X97881529Y-28006590D01*
X97883156Y-27940000D01*
X97864852Y-27717361D01*
X97810431Y-27500702D01*
X97721354Y-27295840D01*
X97630084Y-27154758D01*
X97602822Y-27112617D01*
X97602820Y-27112614D01*
X97600014Y-27108277D01*
X97449670Y-26943051D01*
X97445619Y-26939852D01*
X97445615Y-26939848D01*
X97278414Y-26807800D01*
X97278410Y-26807798D01*
X97274359Y-26804598D01*
X97238028Y-26784542D01*
X97179661Y-26752322D01*
X97078789Y-26696638D01*
X97073920Y-26694914D01*
X97073916Y-26694912D01*
X96873087Y-26623795D01*
X96873083Y-26623794D01*
X96868212Y-26622069D01*
X96863119Y-26621162D01*
X96863116Y-26621161D01*
X96653373Y-26583800D01*
X96653367Y-26583799D01*
X96648284Y-26582894D01*
X96574452Y-26581992D01*
X96430081Y-26580228D01*
X96430079Y-26580228D01*
X96424911Y-26580165D01*
X96204091Y-26613955D01*
X95991756Y-26683357D01*
X95913455Y-26724118D01*
X95855899Y-26754080D01*
X95793607Y-26786507D01*
X95789474Y-26789610D01*
X95789471Y-26789612D01*
X95765247Y-26807800D01*
X95614965Y-26920635D01*
X95460629Y-27082138D01*
X95353204Y-27239618D01*
X95352898Y-27240066D01*
X95297987Y-27285069D01*
X95227462Y-27293240D01*
X95163715Y-27261986D01*
X95143018Y-27237502D01*
X95062426Y-27112926D01*
X95056136Y-27104757D01*
X94912806Y-26947240D01*
X94905273Y-26940215D01*
X94738139Y-26808222D01*
X94729552Y-26802517D01*
X94543117Y-26699599D01*
X94533705Y-26695369D01*
X94332959Y-26624280D01*
X94322988Y-26621646D01*
X94251837Y-26608972D01*
X94238540Y-26610432D01*
X94234000Y-26624989D01*
X94234000Y-31798517D01*
X93726000Y-31798517D01*
X93726000Y-26623102D01*
X93722082Y-26609758D01*
X93707806Y-26607771D01*
X93669324Y-26613660D01*
X93659288Y-26616051D01*
X93456868Y-26682212D01*
X93447359Y-26686209D01*
X93258463Y-26784542D01*
X93249738Y-26790036D01*
X93079433Y-26917905D01*
X93071726Y-26924748D01*
X92924590Y-27078717D01*
X92918109Y-27086722D01*
X92813498Y-27240074D01*
X92758587Y-27285076D01*
X92688062Y-27293247D01*
X92624315Y-27261993D01*
X92603618Y-27237509D01*
X92522822Y-27112617D01*
X92522820Y-27112614D01*
X92520014Y-27108277D01*
X92369670Y-26943051D01*
X92365619Y-26939852D01*
X92365615Y-26939848D01*
X92198414Y-26807800D01*
X92198410Y-26807798D01*
X92194359Y-26804598D01*
X92158028Y-26784542D01*
X92099661Y-26752322D01*
X91998789Y-26696638D01*
X91993920Y-26694914D01*
X91993916Y-26694912D01*
X91793087Y-26623795D01*
X91793083Y-26623794D01*
X91788212Y-26622069D01*
X91783119Y-26621162D01*
X91783116Y-26621161D01*
X91573373Y-26583800D01*
X91573367Y-26583799D01*
X91568284Y-26582894D01*
X91494452Y-26581992D01*
X91350081Y-26580228D01*
X91350079Y-26580228D01*
X91344911Y-26580165D01*
X91124091Y-26613955D01*
X90911756Y-26683357D01*
X90833455Y-26724118D01*
X90775899Y-26754080D01*
X90713607Y-26786507D01*
X90709474Y-26789610D01*
X90709471Y-26789612D01*
X90685247Y-26807800D01*
X90534965Y-26920635D01*
X90380629Y-27082138D01*
X90273201Y-27239621D01*
X90218293Y-27284621D01*
X90147768Y-27292792D01*
X90084021Y-27261538D01*
X90063324Y-27237054D01*
X89982822Y-27112617D01*
X89982820Y-27112614D01*
X89980014Y-27108277D01*
X89829670Y-26943051D01*
X89825619Y-26939852D01*
X89825615Y-26939848D01*
X89658414Y-26807800D01*
X89658410Y-26807798D01*
X89654359Y-26804598D01*
X89618028Y-26784542D01*
X89559661Y-26752322D01*
X89458789Y-26696638D01*
X89453920Y-26694914D01*
X89453916Y-26694912D01*
X89253087Y-26623795D01*
X89253083Y-26623794D01*
X89248212Y-26622069D01*
X89243119Y-26621162D01*
X89243116Y-26621161D01*
X89033373Y-26583800D01*
X89033367Y-26583799D01*
X89028284Y-26582894D01*
X88954452Y-26581992D01*
X88810081Y-26580228D01*
X88810079Y-26580228D01*
X88804911Y-26580165D01*
X88584091Y-26613955D01*
X88371756Y-26683357D01*
X88293455Y-26724118D01*
X88235899Y-26754080D01*
X88173607Y-26786507D01*
X88169474Y-26789610D01*
X88169471Y-26789612D01*
X88145247Y-26807800D01*
X87994965Y-26920635D01*
X87840629Y-27082138D01*
X87733201Y-27239621D01*
X87678293Y-27284621D01*
X87607768Y-27292792D01*
X87544021Y-27261538D01*
X87523324Y-27237054D01*
X87442822Y-27112617D01*
X87442820Y-27112614D01*
X87440014Y-27108277D01*
X87289670Y-26943051D01*
X87285619Y-26939852D01*
X87285615Y-26939848D01*
X87118414Y-26807800D01*
X87118410Y-26807798D01*
X87114359Y-26804598D01*
X87078028Y-26784542D01*
X87019661Y-26752322D01*
X86918789Y-26696638D01*
X86913920Y-26694914D01*
X86913916Y-26694912D01*
X86713087Y-26623795D01*
X86713083Y-26623794D01*
X86708212Y-26622069D01*
X86703119Y-26621162D01*
X86703116Y-26621161D01*
X86493373Y-26583800D01*
X86493367Y-26583799D01*
X86488284Y-26582894D01*
X86414452Y-26581992D01*
X86270081Y-26580228D01*
X86270079Y-26580228D01*
X86264911Y-26580165D01*
X86044091Y-26613955D01*
X85831756Y-26683357D01*
X85753455Y-26724118D01*
X85695899Y-26754080D01*
X85633607Y-26786507D01*
X85629474Y-26789610D01*
X85629471Y-26789612D01*
X85605247Y-26807800D01*
X85454965Y-26920635D01*
X85300629Y-27082138D01*
X85193201Y-27239621D01*
X85138293Y-27284621D01*
X85067768Y-27292792D01*
X85004021Y-27261538D01*
X84983324Y-27237054D01*
X84902822Y-27112617D01*
X84902820Y-27112614D01*
X84900014Y-27108277D01*
X84749670Y-26943051D01*
X84745619Y-26939852D01*
X84745615Y-26939848D01*
X84578414Y-26807800D01*
X84578410Y-26807798D01*
X84574359Y-26804598D01*
X84538028Y-26784542D01*
X84479661Y-26752322D01*
X84378789Y-26696638D01*
X84373920Y-26694914D01*
X84373916Y-26694912D01*
X84173087Y-26623795D01*
X84173083Y-26623794D01*
X84168212Y-26622069D01*
X84163119Y-26621162D01*
X84163116Y-26621161D01*
X83953373Y-26583800D01*
X83953367Y-26583799D01*
X83948284Y-26582894D01*
X83874452Y-26581992D01*
X83730081Y-26580228D01*
X83730079Y-26580228D01*
X83724911Y-26580165D01*
X83504091Y-26613955D01*
X83291756Y-26683357D01*
X83213455Y-26724118D01*
X83155899Y-26754080D01*
X83093607Y-26786507D01*
X83089474Y-26789610D01*
X83089471Y-26789612D01*
X83065247Y-26807800D01*
X82914965Y-26920635D01*
X82760629Y-27082138D01*
X82634743Y-27266680D01*
X82603210Y-27334612D01*
X82543659Y-27462905D01*
X82540688Y-27469305D01*
X82480989Y-27684570D01*
X82457251Y-27906695D01*
X82457548Y-27911848D01*
X82457548Y-27911851D01*
X82463743Y-28019297D01*
X82470110Y-28129715D01*
X82471247Y-28134761D01*
X82471248Y-28134767D01*
X82491119Y-28222939D01*
X82519222Y-28347639D01*
X82603266Y-28554616D01*
X82654019Y-28637438D01*
X82717291Y-28740688D01*
X82719987Y-28745088D01*
X82866250Y-28913938D01*
X83038126Y-29056632D01*
X83099196Y-29092318D01*
X83111445Y-29099476D01*
X83160169Y-29151114D01*
X83173240Y-29220897D01*
X83146509Y-29286669D01*
X83106055Y-29320027D01*
X83093607Y-29326507D01*
X83089474Y-29329610D01*
X83089471Y-29329612D01*
X82919100Y-29457530D01*
X82914965Y-29460635D01*
X82911393Y-29464373D01*
X82778124Y-29603831D01*
X82760629Y-29622138D01*
X82757720Y-29626403D01*
X82757714Y-29626411D01*
X82720806Y-29680516D01*
X82634743Y-29806680D01*
X82603210Y-29874612D01*
X82543659Y-30002905D01*
X82540688Y-30009305D01*
X82480989Y-30224570D01*
X82457251Y-30446695D01*
X82457548Y-30451848D01*
X82457548Y-30451851D01*
X82463743Y-30559297D01*
X82470110Y-30669715D01*
X82471247Y-30674761D01*
X82471248Y-30674767D01*
X82491491Y-30764588D01*
X82519222Y-30887639D01*
X82603266Y-31094616D01*
X82645039Y-31162784D01*
X82717291Y-31280688D01*
X82719987Y-31285088D01*
X82866250Y-31453938D01*
X83038126Y-31596632D01*
X83231000Y-31709338D01*
X83439692Y-31789030D01*
X83444760Y-31790061D01*
X83444763Y-31790062D01*
X83539862Y-31809410D01*
X83658597Y-31833567D01*
X83663772Y-31833757D01*
X83663774Y-31833757D01*
X83876673Y-31841564D01*
X83876677Y-31841564D01*
X83881837Y-31841753D01*
X83886957Y-31841097D01*
X83886959Y-31841097D01*
X84098288Y-31814025D01*
X84098289Y-31814025D01*
X84103416Y-31813368D01*
X84108367Y-31811883D01*
X84108370Y-31811882D01*
X84149829Y-31799444D01*
X84220825Y-31799028D01*
X84275131Y-31831035D01*
X89683084Y-37238989D01*
X89717110Y-37301301D01*
X89719989Y-37328084D01*
X89719989Y-54663085D01*
X89699987Y-54731206D01*
X89646331Y-54777699D01*
X89576057Y-54787803D01*
X89538076Y-54774656D01*
X89537677Y-54775512D01*
X89341178Y-54683883D01*
X89341177Y-54683882D01*
X89336196Y-54681560D01*
X89330888Y-54680138D01*
X89330886Y-54680137D01*
X89265051Y-54662497D01*
X89121463Y-54624022D01*
X88900000Y-54604647D01*
X88678537Y-54624022D01*
X88534949Y-54662497D01*
X88469114Y-54680137D01*
X88469112Y-54680138D01*
X88463804Y-54681560D01*
X88458823Y-54683882D01*
X88458822Y-54683883D01*
X88267311Y-54773186D01*
X88267306Y-54773189D01*
X88262324Y-54775512D01*
X88257817Y-54778668D01*
X88257815Y-54778669D01*
X88084730Y-54899864D01*
X88084727Y-54899866D01*
X88080219Y-54903023D01*
X87923023Y-55060219D01*
X87919866Y-55064727D01*
X87919864Y-55064730D01*
X87798669Y-55237815D01*
X87795512Y-55242324D01*
X87793189Y-55247306D01*
X87793186Y-55247311D01*
X87744195Y-55352373D01*
X87697277Y-55405658D01*
X87629000Y-55425119D01*
X87561040Y-55404577D01*
X87515805Y-55352373D01*
X87466814Y-55247311D01*
X87466811Y-55247306D01*
X87464488Y-55242324D01*
X87461331Y-55237815D01*
X87340136Y-55064730D01*
X87340134Y-55064727D01*
X87336977Y-55060219D01*
X87179781Y-54903023D01*
X87175273Y-54899866D01*
X87175270Y-54899864D01*
X87041512Y-54806206D01*
X86997677Y-54775512D01*
X86992695Y-54773189D01*
X86992690Y-54773186D01*
X86801178Y-54683883D01*
X86801177Y-54683882D01*
X86796196Y-54681560D01*
X86790888Y-54680138D01*
X86790886Y-54680137D01*
X86725051Y-54662497D01*
X86581463Y-54624022D01*
X86360000Y-54604647D01*
X86138537Y-54624022D01*
X85994949Y-54662497D01*
X85929114Y-54680137D01*
X85929112Y-54680138D01*
X85923804Y-54681560D01*
X85918823Y-54683882D01*
X85918822Y-54683883D01*
X85727311Y-54773186D01*
X85727306Y-54773189D01*
X85722324Y-54775512D01*
X85717817Y-54778668D01*
X85717815Y-54778669D01*
X85544730Y-54899864D01*
X85544727Y-54899866D01*
X85540219Y-54903023D01*
X85383023Y-55060219D01*
X85379866Y-55064727D01*
X85379864Y-55064730D01*
X85258669Y-55237815D01*
X85255512Y-55242324D01*
X85253189Y-55247306D01*
X85253186Y-55247311D01*
X85204195Y-55352373D01*
X85157277Y-55405658D01*
X85089000Y-55425119D01*
X85021040Y-55404577D01*
X84975805Y-55352373D01*
X84926814Y-55247311D01*
X84926811Y-55247306D01*
X84924488Y-55242324D01*
X84921331Y-55237815D01*
X84800136Y-55064730D01*
X84800134Y-55064727D01*
X84796977Y-55060219D01*
X84639781Y-54903023D01*
X84635273Y-54899866D01*
X84635270Y-54899864D01*
X84501512Y-54806206D01*
X84457677Y-54775512D01*
X84452695Y-54773189D01*
X84452690Y-54773186D01*
X84261178Y-54683883D01*
X84261177Y-54683882D01*
X84256196Y-54681560D01*
X84250888Y-54680138D01*
X84250886Y-54680137D01*
X84185051Y-54662497D01*
X84041463Y-54624022D01*
X83820000Y-54604647D01*
X83598537Y-54624022D01*
X83454949Y-54662497D01*
X83389114Y-54680137D01*
X83389112Y-54680138D01*
X83383804Y-54681560D01*
X83378823Y-54683882D01*
X83378822Y-54683883D01*
X83187311Y-54773186D01*
X83187306Y-54773189D01*
X83182324Y-54775512D01*
X83177817Y-54778668D01*
X83177815Y-54778669D01*
X83004730Y-54899864D01*
X83004727Y-54899866D01*
X83000219Y-54903023D01*
X82843023Y-55060219D01*
X82839866Y-55064727D01*
X82839864Y-55064730D01*
X82718669Y-55237815D01*
X82715512Y-55242324D01*
X82713189Y-55247306D01*
X82713186Y-55247311D01*
X82664195Y-55352373D01*
X82617277Y-55405658D01*
X82549000Y-55425119D01*
X82481040Y-55404577D01*
X82435805Y-55352373D01*
X82386814Y-55247311D01*
X82386811Y-55247306D01*
X82384488Y-55242324D01*
X82381331Y-55237815D01*
X82260136Y-55064730D01*
X82260134Y-55064727D01*
X82256977Y-55060219D01*
X82099781Y-54903023D01*
X82095273Y-54899866D01*
X82095270Y-54899864D01*
X81961512Y-54806206D01*
X81917677Y-54775512D01*
X81912695Y-54773189D01*
X81912690Y-54773186D01*
X81721178Y-54683883D01*
X81721177Y-54683882D01*
X81716196Y-54681560D01*
X81710888Y-54680138D01*
X81710886Y-54680137D01*
X81645051Y-54662497D01*
X81501463Y-54624022D01*
X81280000Y-54604647D01*
X81058537Y-54624022D01*
X80914949Y-54662497D01*
X80849114Y-54680137D01*
X80849112Y-54680138D01*
X80843804Y-54681560D01*
X80838823Y-54683882D01*
X80838822Y-54683883D01*
X80647311Y-54773186D01*
X80647306Y-54773189D01*
X80642324Y-54775512D01*
X80637817Y-54778668D01*
X80637815Y-54778669D01*
X80464730Y-54899864D01*
X80464727Y-54899866D01*
X80460219Y-54903023D01*
X80303023Y-55060219D01*
X80299866Y-55064727D01*
X80299864Y-55064730D01*
X80178669Y-55237815D01*
X80175512Y-55242324D01*
X80173189Y-55247306D01*
X80173186Y-55247311D01*
X80124195Y-55352373D01*
X80077277Y-55405658D01*
X80009000Y-55425119D01*
X79941040Y-55404577D01*
X79895805Y-55352373D01*
X79846814Y-55247311D01*
X79846811Y-55247306D01*
X79844488Y-55242324D01*
X79841331Y-55237815D01*
X79720136Y-55064730D01*
X79720134Y-55064727D01*
X79716977Y-55060219D01*
X79559781Y-54903023D01*
X79555273Y-54899866D01*
X79555270Y-54899864D01*
X79421512Y-54806206D01*
X79377677Y-54775512D01*
X79372695Y-54773189D01*
X79372690Y-54773186D01*
X79181178Y-54683883D01*
X79181177Y-54683882D01*
X79176196Y-54681560D01*
X79170888Y-54680138D01*
X79170886Y-54680137D01*
X79105051Y-54662497D01*
X78961463Y-54624022D01*
X78740000Y-54604647D01*
X78518537Y-54624022D01*
X78374949Y-54662497D01*
X78309114Y-54680137D01*
X78309112Y-54680138D01*
X78303804Y-54681560D01*
X78298823Y-54683882D01*
X78298822Y-54683883D01*
X78107311Y-54773186D01*
X78107306Y-54773189D01*
X78102324Y-54775512D01*
X78097817Y-54778668D01*
X78097815Y-54778669D01*
X77924730Y-54899864D01*
X77924727Y-54899866D01*
X77920219Y-54903023D01*
X77763023Y-55060219D01*
X77759866Y-55064727D01*
X77759864Y-55064730D01*
X77638669Y-55237815D01*
X77635512Y-55242324D01*
X77633189Y-55247306D01*
X77633186Y-55247311D01*
X77584195Y-55352373D01*
X77537277Y-55405658D01*
X77469000Y-55425119D01*
X77401040Y-55404577D01*
X77355805Y-55352373D01*
X77306814Y-55247311D01*
X77306811Y-55247306D01*
X77304488Y-55242324D01*
X77301331Y-55237815D01*
X77180136Y-55064730D01*
X77180134Y-55064727D01*
X77176977Y-55060219D01*
X77019781Y-54903023D01*
X77015273Y-54899866D01*
X77015270Y-54899864D01*
X76881512Y-54806206D01*
X76837677Y-54775512D01*
X76832695Y-54773189D01*
X76832690Y-54773186D01*
X76641178Y-54683883D01*
X76641177Y-54683882D01*
X76636196Y-54681560D01*
X76630888Y-54680138D01*
X76630886Y-54680137D01*
X76565051Y-54662497D01*
X76421463Y-54624022D01*
X76200000Y-54604647D01*
X75978537Y-54624022D01*
X75834949Y-54662497D01*
X75769114Y-54680137D01*
X75769112Y-54680138D01*
X75763804Y-54681560D01*
X75758823Y-54683882D01*
X75758822Y-54683883D01*
X75567311Y-54773186D01*
X75567306Y-54773189D01*
X75562324Y-54775512D01*
X75557817Y-54778668D01*
X75557815Y-54778669D01*
X75384730Y-54899864D01*
X75384727Y-54899866D01*
X75380219Y-54903023D01*
X75223023Y-55060219D01*
X75219866Y-55064727D01*
X75219864Y-55064730D01*
X75098669Y-55237815D01*
X75095512Y-55242324D01*
X75093189Y-55247306D01*
X75093186Y-55247311D01*
X75044195Y-55352373D01*
X74997277Y-55405658D01*
X74929000Y-55425119D01*
X74861040Y-55404577D01*
X74815805Y-55352373D01*
X74766814Y-55247311D01*
X74766811Y-55247306D01*
X74764488Y-55242324D01*
X74761331Y-55237815D01*
X74640136Y-55064730D01*
X74640134Y-55064727D01*
X74636977Y-55060219D01*
X74479781Y-54903023D01*
X74475273Y-54899866D01*
X74475270Y-54899864D01*
X74341512Y-54806206D01*
X74297677Y-54775512D01*
X74292695Y-54773189D01*
X74292690Y-54773186D01*
X74101178Y-54683883D01*
X74101177Y-54683882D01*
X74096196Y-54681560D01*
X74090888Y-54680138D01*
X74090886Y-54680137D01*
X74025051Y-54662497D01*
X73881463Y-54624022D01*
X73660000Y-54604647D01*
X73438537Y-54624022D01*
X73294949Y-54662497D01*
X73229114Y-54680137D01*
X73229112Y-54680138D01*
X73223804Y-54681560D01*
X73218823Y-54683882D01*
X73218822Y-54683883D01*
X73027311Y-54773186D01*
X73027306Y-54773189D01*
X73022324Y-54775512D01*
X73017817Y-54778668D01*
X73017815Y-54778669D01*
X72844730Y-54899864D01*
X72844727Y-54899866D01*
X72840219Y-54903023D01*
X72683023Y-55060219D01*
X72679866Y-55064727D01*
X72679864Y-55064730D01*
X72558669Y-55237815D01*
X72555512Y-55242324D01*
X72553189Y-55247306D01*
X72553186Y-55247311D01*
X72522777Y-55312524D01*
X72461560Y-55443804D01*
X72404022Y-55658537D01*
X72384647Y-55880000D01*
X72404022Y-56101463D01*
X72461560Y-56316196D01*
X72463882Y-56321177D01*
X72463883Y-56321178D01*
X72553186Y-56512689D01*
X72553189Y-56512694D01*
X72555512Y-56517676D01*
X72683023Y-56699781D01*
X72840219Y-56856977D01*
X72844727Y-56860134D01*
X72844730Y-56860136D01*
X72920495Y-56913187D01*
X73022323Y-56984488D01*
X73027305Y-56986811D01*
X73027310Y-56986814D01*
X73202751Y-57068623D01*
X73223804Y-57078440D01*
X73229112Y-57079862D01*
X73229114Y-57079863D01*
X73255526Y-57086940D01*
X73438537Y-57135978D01*
X73660000Y-57155353D01*
X73881463Y-57135978D01*
X74064474Y-57086940D01*
X74090886Y-57079863D01*
X74090888Y-57079862D01*
X74096196Y-57078440D01*
X74117249Y-57068623D01*
X74292690Y-56986814D01*
X74292695Y-56986811D01*
X74297677Y-56984488D01*
X74399505Y-56913187D01*
X74475270Y-56860136D01*
X74475273Y-56860134D01*
X74479781Y-56856977D01*
X74636977Y-56699781D01*
X74764488Y-56517676D01*
X74766811Y-56512694D01*
X74766814Y-56512689D01*
X74815805Y-56407627D01*
X74862723Y-56354342D01*
X74931000Y-56334881D01*
X74998960Y-56355423D01*
X75044195Y-56407627D01*
X75093186Y-56512689D01*
X75093189Y-56512694D01*
X75095512Y-56517676D01*
X75223023Y-56699781D01*
X75380219Y-56856977D01*
X75384727Y-56860134D01*
X75384730Y-56860136D01*
X75460495Y-56913187D01*
X75562323Y-56984488D01*
X75567305Y-56986811D01*
X75567310Y-56986814D01*
X75742751Y-57068623D01*
X75763804Y-57078440D01*
X75769112Y-57079862D01*
X75769114Y-57079863D01*
X75795526Y-57086940D01*
X75978537Y-57135978D01*
X76200000Y-57155353D01*
X76421463Y-57135978D01*
X76604474Y-57086940D01*
X76630886Y-57079863D01*
X76630888Y-57079862D01*
X76636196Y-57078440D01*
X76657249Y-57068623D01*
X76832690Y-56986814D01*
X76832695Y-56986811D01*
X76837677Y-56984488D01*
X76939505Y-56913187D01*
X77015270Y-56860136D01*
X77015273Y-56860134D01*
X77019781Y-56856977D01*
X77176977Y-56699781D01*
X77304488Y-56517676D01*
X77306811Y-56512694D01*
X77306814Y-56512689D01*
X77355805Y-56407627D01*
X77402723Y-56354342D01*
X77471000Y-56334881D01*
X77538960Y-56355423D01*
X77584195Y-56407627D01*
X77633186Y-56512689D01*
X77633189Y-56512694D01*
X77635512Y-56517676D01*
X77763023Y-56699781D01*
X77920219Y-56856977D01*
X77924727Y-56860134D01*
X77924730Y-56860136D01*
X78000495Y-56913187D01*
X78102323Y-56984488D01*
X78107305Y-56986811D01*
X78107310Y-56986814D01*
X78282751Y-57068623D01*
X78303804Y-57078440D01*
X78309112Y-57079862D01*
X78309114Y-57079863D01*
X78335526Y-57086940D01*
X78518537Y-57135978D01*
X78740000Y-57155353D01*
X78961463Y-57135978D01*
X79144474Y-57086940D01*
X79170886Y-57079863D01*
X79170888Y-57079862D01*
X79176196Y-57078440D01*
X79197249Y-57068623D01*
X79372690Y-56986814D01*
X79372695Y-56986811D01*
X79377677Y-56984488D01*
X79479505Y-56913187D01*
X79555270Y-56860136D01*
X79555273Y-56860134D01*
X79559781Y-56856977D01*
X79716977Y-56699781D01*
X79844488Y-56517676D01*
X79846811Y-56512694D01*
X79846814Y-56512689D01*
X79895805Y-56407627D01*
X79942723Y-56354342D01*
X80011000Y-56334881D01*
X80078960Y-56355423D01*
X80124195Y-56407627D01*
X80173186Y-56512689D01*
X80173189Y-56512694D01*
X80175512Y-56517676D01*
X80303023Y-56699781D01*
X80460219Y-56856977D01*
X80464727Y-56860134D01*
X80464730Y-56860136D01*
X80540495Y-56913187D01*
X80642323Y-56984488D01*
X80647305Y-56986811D01*
X80647310Y-56986814D01*
X80822751Y-57068623D01*
X80843804Y-57078440D01*
X80849112Y-57079862D01*
X80849114Y-57079863D01*
X80875526Y-57086940D01*
X81058537Y-57135978D01*
X81280000Y-57155353D01*
X81501463Y-57135978D01*
X81684474Y-57086940D01*
X81710886Y-57079863D01*
X81710888Y-57079862D01*
X81716196Y-57078440D01*
X81737249Y-57068623D01*
X81912690Y-56986814D01*
X81912695Y-56986811D01*
X81917677Y-56984488D01*
X82019505Y-56913187D01*
X82095270Y-56860136D01*
X82095273Y-56860134D01*
X82099781Y-56856977D01*
X82256977Y-56699781D01*
X82384488Y-56517676D01*
X82386811Y-56512694D01*
X82386814Y-56512689D01*
X82435805Y-56407627D01*
X82482723Y-56354342D01*
X82551000Y-56334881D01*
X82618960Y-56355423D01*
X82664195Y-56407627D01*
X82713186Y-56512689D01*
X82713189Y-56512694D01*
X82715512Y-56517676D01*
X82843023Y-56699781D01*
X83000219Y-56856977D01*
X83004727Y-56860134D01*
X83004730Y-56860136D01*
X83080495Y-56913187D01*
X83182323Y-56984488D01*
X83187305Y-56986811D01*
X83187310Y-56986814D01*
X83362751Y-57068623D01*
X83383804Y-57078440D01*
X83389112Y-57079862D01*
X83389114Y-57079863D01*
X83415526Y-57086940D01*
X83598537Y-57135978D01*
X83820000Y-57155353D01*
X84041463Y-57135978D01*
X84224474Y-57086940D01*
X84250886Y-57079863D01*
X84250888Y-57079862D01*
X84256196Y-57078440D01*
X84277249Y-57068623D01*
X84452690Y-56986814D01*
X84452695Y-56986811D01*
X84457677Y-56984488D01*
X84559505Y-56913187D01*
X84635270Y-56860136D01*
X84635273Y-56860134D01*
X84639781Y-56856977D01*
X84796977Y-56699781D01*
X84924488Y-56517676D01*
X84926811Y-56512694D01*
X84926814Y-56512689D01*
X84975805Y-56407627D01*
X85022723Y-56354342D01*
X85091000Y-56334881D01*
X85158960Y-56355423D01*
X85204195Y-56407627D01*
X85253186Y-56512689D01*
X85253189Y-56512694D01*
X85255512Y-56517676D01*
X85383023Y-56699781D01*
X85540219Y-56856977D01*
X85544727Y-56860134D01*
X85544730Y-56860136D01*
X85620495Y-56913187D01*
X85722323Y-56984488D01*
X85727305Y-56986811D01*
X85727310Y-56986814D01*
X85902751Y-57068623D01*
X85923804Y-57078440D01*
X85929112Y-57079862D01*
X85929114Y-57079863D01*
X85955526Y-57086940D01*
X86138537Y-57135978D01*
X86360000Y-57155353D01*
X86581463Y-57135978D01*
X86764474Y-57086940D01*
X86790886Y-57079863D01*
X86790888Y-57079862D01*
X86796196Y-57078440D01*
X86817249Y-57068623D01*
X86992690Y-56986814D01*
X86992695Y-56986811D01*
X86997677Y-56984488D01*
X87099505Y-56913187D01*
X87175270Y-56860136D01*
X87175273Y-56860134D01*
X87179781Y-56856977D01*
X87336977Y-56699781D01*
X87464488Y-56517676D01*
X87466811Y-56512694D01*
X87466814Y-56512689D01*
X87515805Y-56407627D01*
X87562723Y-56354342D01*
X87631000Y-56334881D01*
X87698960Y-56355423D01*
X87744195Y-56407627D01*
X87793186Y-56512689D01*
X87793189Y-56512694D01*
X87795512Y-56517676D01*
X87923023Y-56699781D01*
X88080219Y-56856977D01*
X88084727Y-56860134D01*
X88084730Y-56860136D01*
X88160495Y-56913187D01*
X88262323Y-56984488D01*
X88267305Y-56986811D01*
X88267310Y-56986814D01*
X88442751Y-57068623D01*
X88463804Y-57078440D01*
X88469112Y-57079862D01*
X88469114Y-57079863D01*
X88495526Y-57086940D01*
X88678537Y-57135978D01*
X88900000Y-57155353D01*
X89121463Y-57135978D01*
X89304474Y-57086940D01*
X89330886Y-57079863D01*
X89330888Y-57079862D01*
X89336196Y-57078440D01*
X89358150Y-57068203D01*
X89537677Y-56984488D01*
X89538383Y-56986003D01*
X89599980Y-56971057D01*
X89667072Y-56994276D01*
X89710962Y-57050081D01*
X89719989Y-57096915D01*
X89719989Y-80063085D01*
X89699987Y-80131206D01*
X89646331Y-80177699D01*
X89576057Y-80187803D01*
X89538076Y-80174656D01*
X89537677Y-80175512D01*
X89341178Y-80083883D01*
X89341177Y-80083882D01*
X89336196Y-80081560D01*
X89330888Y-80080138D01*
X89330886Y-80080137D01*
X89217876Y-80049856D01*
X89121463Y-80024022D01*
X88900000Y-80004647D01*
X88678537Y-80024022D01*
X88662358Y-80028357D01*
X88639484Y-80034486D01*
X88568507Y-80032796D01*
X88517778Y-80001874D01*
X69250405Y-60734500D01*
X69216379Y-60672188D01*
X69213500Y-60645405D01*
X69213500Y-31760427D01*
X69233502Y-31692306D01*
X69274618Y-31652550D01*
X69277994Y-31650896D01*
X69459860Y-31521173D01*
X69618096Y-31363489D01*
X69677594Y-31280689D01*
X69748453Y-31182077D01*
X69749640Y-31182930D01*
X69796960Y-31139362D01*
X69866897Y-31127145D01*
X69932338Y-31154678D01*
X69960166Y-31186511D01*
X70017694Y-31280388D01*
X70023777Y-31288699D01*
X70163213Y-31449667D01*
X70170580Y-31456883D01*
X70334434Y-31592916D01*
X70342881Y-31598831D01*
X70526756Y-31706279D01*
X70536042Y-31710729D01*
X70735001Y-31786703D01*
X70744899Y-31789579D01*
X70848250Y-31810606D01*
X70862299Y-31809410D01*
X70866000Y-31799065D01*
X70866000Y-31798517D01*
X71374000Y-31798517D01*
X71378064Y-31812359D01*
X71391478Y-31814393D01*
X71398184Y-31813534D01*
X71408262Y-31811392D01*
X71612255Y-31750191D01*
X71621842Y-31746433D01*
X71813095Y-31652739D01*
X71821945Y-31647464D01*
X71995328Y-31523792D01*
X72003193Y-31517145D01*
X72107897Y-31412805D01*
X72170268Y-31378889D01*
X72241075Y-31384077D01*
X72297837Y-31426723D01*
X72314819Y-31457826D01*
X72346508Y-31542355D01*
X72359385Y-31576705D01*
X72446739Y-31693261D01*
X72563295Y-31780615D01*
X72699684Y-31831745D01*
X72761866Y-31838500D01*
X74558134Y-31838500D01*
X74620316Y-31831745D01*
X74756705Y-31780615D01*
X74873261Y-31693261D01*
X74960615Y-31576705D01*
X75011745Y-31440316D01*
X75018500Y-31378134D01*
X75018500Y-29581866D01*
X75011745Y-29519684D01*
X74960615Y-29383295D01*
X74873261Y-29266739D01*
X74756705Y-29179385D01*
X74681362Y-29151140D01*
X74638203Y-29134960D01*
X74581439Y-29092318D01*
X74556739Y-29025756D01*
X74571947Y-28956408D01*
X74593493Y-28927727D01*
X74628704Y-28892639D01*
X74698096Y-28823489D01*
X74730767Y-28778023D01*
X74825435Y-28646277D01*
X74828453Y-28642077D01*
X74841995Y-28614678D01*
X74925136Y-28446453D01*
X74925137Y-28446451D01*
X74927430Y-28441811D01*
X74992370Y-28228069D01*
X75021529Y-28006590D01*
X75023156Y-27940000D01*
X75004852Y-27717361D01*
X74950431Y-27500702D01*
X74861354Y-27295840D01*
X74770084Y-27154758D01*
X74742822Y-27112617D01*
X74742820Y-27112614D01*
X74740014Y-27108277D01*
X74589670Y-26943051D01*
X74585619Y-26939852D01*
X74585615Y-26939848D01*
X74418414Y-26807800D01*
X74418410Y-26807798D01*
X74414359Y-26804598D01*
X74378028Y-26784542D01*
X74319661Y-26752322D01*
X74218789Y-26696638D01*
X74213920Y-26694914D01*
X74213916Y-26694912D01*
X74013087Y-26623795D01*
X74013083Y-26623794D01*
X74008212Y-26622069D01*
X74003119Y-26621162D01*
X74003116Y-26621161D01*
X73793373Y-26583800D01*
X73793367Y-26583799D01*
X73788284Y-26582894D01*
X73714452Y-26581992D01*
X73570081Y-26580228D01*
X73570079Y-26580228D01*
X73564911Y-26580165D01*
X73344091Y-26613955D01*
X73131756Y-26683357D01*
X73053455Y-26724118D01*
X72995899Y-26754080D01*
X72933607Y-26786507D01*
X72929474Y-26789610D01*
X72929471Y-26789612D01*
X72905247Y-26807800D01*
X72754965Y-26920635D01*
X72600629Y-27082138D01*
X72493204Y-27239618D01*
X72492898Y-27240066D01*
X72437987Y-27285069D01*
X72367462Y-27293240D01*
X72303715Y-27261986D01*
X72283018Y-27237502D01*
X72202426Y-27112926D01*
X72196136Y-27104757D01*
X72052806Y-26947240D01*
X72045273Y-26940215D01*
X71878139Y-26808222D01*
X71869552Y-26802517D01*
X71683117Y-26699599D01*
X71673705Y-26695369D01*
X71472959Y-26624280D01*
X71462988Y-26621646D01*
X71391837Y-26608972D01*
X71378540Y-26610432D01*
X71374000Y-26624989D01*
X71374000Y-31798517D01*
X70866000Y-31798517D01*
X70866000Y-26623102D01*
X70862082Y-26609758D01*
X70847806Y-26607771D01*
X70809324Y-26613660D01*
X70799288Y-26616051D01*
X70596868Y-26682212D01*
X70587359Y-26686209D01*
X70398463Y-26784542D01*
X70389738Y-26790036D01*
X70219433Y-26917905D01*
X70211726Y-26924748D01*
X70064590Y-27078717D01*
X70058109Y-27086722D01*
X69953498Y-27240074D01*
X69898587Y-27285076D01*
X69828062Y-27293247D01*
X69764315Y-27261993D01*
X69743618Y-27237509D01*
X69662822Y-27112617D01*
X69662820Y-27112614D01*
X69660014Y-27108277D01*
X69509670Y-26943051D01*
X69505619Y-26939852D01*
X69505615Y-26939848D01*
X69338414Y-26807800D01*
X69338410Y-26807798D01*
X69334359Y-26804598D01*
X69298028Y-26784542D01*
X69239661Y-26752322D01*
X69138789Y-26696638D01*
X69133920Y-26694914D01*
X69133916Y-26694912D01*
X68933087Y-26623795D01*
X68933083Y-26623794D01*
X68928212Y-26622069D01*
X68923119Y-26621162D01*
X68923116Y-26621161D01*
X68713373Y-26583800D01*
X68713367Y-26583799D01*
X68708284Y-26582894D01*
X68634452Y-26581992D01*
X68490081Y-26580228D01*
X68490079Y-26580228D01*
X68484911Y-26580165D01*
X68264091Y-26613955D01*
X68051756Y-26683357D01*
X67973455Y-26724118D01*
X67915899Y-26754080D01*
X67853607Y-26786507D01*
X67849474Y-26789610D01*
X67849471Y-26789612D01*
X67825247Y-26807800D01*
X67674965Y-26920635D01*
X67520629Y-27082138D01*
X67413201Y-27239621D01*
X67358293Y-27284621D01*
X67287768Y-27292792D01*
X67224021Y-27261538D01*
X67203324Y-27237054D01*
X67122822Y-27112617D01*
X67122820Y-27112614D01*
X67120014Y-27108277D01*
X66969670Y-26943051D01*
X66965619Y-26939852D01*
X66965615Y-26939848D01*
X66798414Y-26807800D01*
X66798410Y-26807798D01*
X66794359Y-26804598D01*
X66758028Y-26784542D01*
X66699661Y-26752322D01*
X66598789Y-26696638D01*
X66593920Y-26694914D01*
X66593916Y-26694912D01*
X66393087Y-26623795D01*
X66393083Y-26623794D01*
X66388212Y-26622069D01*
X66383119Y-26621162D01*
X66383116Y-26621161D01*
X66173373Y-26583800D01*
X66173367Y-26583799D01*
X66168284Y-26582894D01*
X66094452Y-26581992D01*
X65950081Y-26580228D01*
X65950079Y-26580228D01*
X65944911Y-26580165D01*
X65724091Y-26613955D01*
X65511756Y-26683357D01*
X65433455Y-26724118D01*
X65375899Y-26754080D01*
X65313607Y-26786507D01*
X65309474Y-26789610D01*
X65309471Y-26789612D01*
X65285247Y-26807800D01*
X65134965Y-26920635D01*
X64980629Y-27082138D01*
X64873201Y-27239621D01*
X64818293Y-27284621D01*
X64747768Y-27292792D01*
X64684021Y-27261538D01*
X64663324Y-27237054D01*
X64582822Y-27112617D01*
X64582820Y-27112614D01*
X64580014Y-27108277D01*
X64429670Y-26943051D01*
X64425619Y-26939852D01*
X64425615Y-26939848D01*
X64258414Y-26807800D01*
X64258410Y-26807798D01*
X64254359Y-26804598D01*
X64218028Y-26784542D01*
X64159661Y-26752322D01*
X64058789Y-26696638D01*
X64053920Y-26694914D01*
X64053916Y-26694912D01*
X63853087Y-26623795D01*
X63853083Y-26623794D01*
X63848212Y-26622069D01*
X63843119Y-26621162D01*
X63843116Y-26621161D01*
X63633373Y-26583800D01*
X63633367Y-26583799D01*
X63628284Y-26582894D01*
X63554452Y-26581992D01*
X63410081Y-26580228D01*
X63410079Y-26580228D01*
X63404911Y-26580165D01*
X63184091Y-26613955D01*
X62971756Y-26683357D01*
X62893455Y-26724118D01*
X62835899Y-26754080D01*
X62773607Y-26786507D01*
X62769474Y-26789610D01*
X62769471Y-26789612D01*
X62745247Y-26807800D01*
X62594965Y-26920635D01*
X62440629Y-27082138D01*
X62333201Y-27239621D01*
X62278293Y-27284621D01*
X62207768Y-27292792D01*
X62144021Y-27261538D01*
X62123324Y-27237054D01*
X62042822Y-27112617D01*
X62042820Y-27112614D01*
X62040014Y-27108277D01*
X61889670Y-26943051D01*
X61885619Y-26939852D01*
X61885615Y-26939848D01*
X61718414Y-26807800D01*
X61718410Y-26807798D01*
X61714359Y-26804598D01*
X61678028Y-26784542D01*
X61619661Y-26752322D01*
X61518789Y-26696638D01*
X61513920Y-26694914D01*
X61513916Y-26694912D01*
X61313087Y-26623795D01*
X61313083Y-26623794D01*
X61308212Y-26622069D01*
X61303119Y-26621162D01*
X61303116Y-26621161D01*
X61093373Y-26583800D01*
X61093367Y-26583799D01*
X61088284Y-26582894D01*
X61014452Y-26581992D01*
X60870081Y-26580228D01*
X60870079Y-26580228D01*
X60864911Y-26580165D01*
X60644091Y-26613955D01*
X60431756Y-26683357D01*
X60353455Y-26724118D01*
X60295899Y-26754080D01*
X60233607Y-26786507D01*
X60229474Y-26789610D01*
X60229471Y-26789612D01*
X60205247Y-26807800D01*
X60054965Y-26920635D01*
X59900629Y-27082138D01*
X59774743Y-27266680D01*
X59743210Y-27334612D01*
X59683659Y-27462905D01*
X59680688Y-27469305D01*
X59620989Y-27684570D01*
X59597251Y-27906695D01*
X59597548Y-27911848D01*
X59597548Y-27911851D01*
X59603743Y-28019297D01*
X59610110Y-28129715D01*
X59611247Y-28134761D01*
X59611248Y-28134767D01*
X59631119Y-28222939D01*
X59659222Y-28347639D01*
X59743266Y-28554616D01*
X59794019Y-28637438D01*
X59857291Y-28740688D01*
X59859987Y-28745088D01*
X60006250Y-28913938D01*
X60178126Y-29056632D01*
X60239196Y-29092318D01*
X60251445Y-29099476D01*
X60300169Y-29151114D01*
X60313240Y-29220897D01*
X60286509Y-29286669D01*
X60246055Y-29320027D01*
X60233607Y-29326507D01*
X60229474Y-29329610D01*
X60229471Y-29329612D01*
X60059100Y-29457530D01*
X60054965Y-29460635D01*
X60051393Y-29464373D01*
X59918124Y-29603831D01*
X59900629Y-29622138D01*
X59897720Y-29626403D01*
X59897714Y-29626411D01*
X59860806Y-29680516D01*
X59774743Y-29806680D01*
X59743210Y-29874612D01*
X59683659Y-30002905D01*
X59680688Y-30009305D01*
X59620989Y-30224570D01*
X59597251Y-30446695D01*
X46228500Y-30446695D01*
X46228500Y-25003017D01*
X46248502Y-24934896D01*
X46302158Y-24888403D01*
X46372432Y-24878299D01*
X46437012Y-24907793D01*
X46467213Y-24946698D01*
X46572161Y-25156731D01*
X46594231Y-25200901D01*
X46818974Y-25565502D01*
X47075239Y-25908682D01*
X47077100Y-25910760D01*
X47077101Y-25910761D01*
X47359127Y-26225637D01*
X47359133Y-26225643D01*
X47360995Y-26227722D01*
X47673981Y-26520098D01*
X48011719Y-26783493D01*
X48371533Y-27015822D01*
X48374012Y-27017126D01*
X48374015Y-27017128D01*
X48748077Y-27213932D01*
X48748083Y-27213935D01*
X48750577Y-27215247D01*
X48753175Y-27216331D01*
X48753179Y-27216333D01*
X49143263Y-27379109D01*
X49143268Y-27379111D01*
X49145847Y-27380187D01*
X49148512Y-27381030D01*
X49148518Y-27381032D01*
X49370561Y-27451254D01*
X49554214Y-27509336D01*
X49972446Y-27601673D01*
X49975220Y-27602031D01*
X49975221Y-27602031D01*
X50394460Y-27656109D01*
X50394467Y-27656110D01*
X50397230Y-27656466D01*
X50400017Y-27656576D01*
X50400023Y-27656576D01*
X50648238Y-27666328D01*
X50825203Y-27673281D01*
X50827995Y-27673142D01*
X50828000Y-27673142D01*
X51250172Y-27652125D01*
X51250181Y-27652124D01*
X51252976Y-27651985D01*
X51255753Y-27651597D01*
X51255755Y-27651597D01*
X51330066Y-27641219D01*
X51677163Y-27592747D01*
X52094404Y-27496036D01*
X52308307Y-27425915D01*
X52498744Y-27363487D01*
X52498750Y-27363485D01*
X52501397Y-27362617D01*
X52894918Y-27193547D01*
X52940792Y-27168795D01*
X53021652Y-27125165D01*
X53271852Y-26990164D01*
X53629214Y-26754080D01*
X53964175Y-26487162D01*
X54274082Y-26191525D01*
X54275919Y-26189431D01*
X54275927Y-26189422D01*
X54554635Y-25871616D01*
X54556482Y-25869510D01*
X54809139Y-25523666D01*
X54810585Y-25521265D01*
X55028601Y-25159142D01*
X55028606Y-25159133D01*
X55030052Y-25156731D01*
X55165551Y-24878299D01*
X55216238Y-24774145D01*
X55216239Y-24774142D01*
X55217471Y-24771611D01*
X55350724Y-24421741D01*
X55368918Y-24373971D01*
X55368920Y-24373964D01*
X55369914Y-24371355D01*
X55486173Y-23959132D01*
X55555433Y-23590822D01*
X55564811Y-23540954D01*
X55564813Y-23540942D01*
X55565327Y-23538207D01*
X55606750Y-23111911D01*
X55608194Y-23056780D01*
X55613289Y-22862234D01*
X55613289Y-22862220D01*
X55613347Y-22860000D01*
X55594291Y-22432121D01*
X55537275Y-22007630D01*
X55508666Y-21881193D01*
X55443368Y-21592618D01*
X55443368Y-21592617D01*
X55442750Y-21589887D01*
X55311463Y-21182202D01*
X55158635Y-20821285D01*
X55145550Y-20790384D01*
X55145548Y-20790379D01*
X55144456Y-20787801D01*
X54943050Y-20409807D01*
X54708840Y-20051214D01*
X54443680Y-19714860D01*
X54149670Y-19403409D01*
X54147579Y-19401556D01*
X54147571Y-19401548D01*
X53831237Y-19121188D01*
X53831235Y-19121186D01*
X53829137Y-19119327D01*
X53484621Y-18864863D01*
X53291733Y-18747355D01*
X53121237Y-18643487D01*
X53121230Y-18643483D01*
X53118848Y-18642032D01*
X53001514Y-18584169D01*
X52986022Y-18576529D01*
X52886612Y-18527506D01*
X52834363Y-18479438D01*
X52816396Y-18410752D01*
X52838415Y-18343256D01*
X52893430Y-18298380D01*
X52942340Y-18288500D01*
X127396422Y-18288500D01*
X127464543Y-18308502D01*
G37*
%TD.AperFunction*%
%TD*%
M02*
