%TF.GenerationSoftware,KiCad,Pcbnew,(6.0.5)*%
%TF.CreationDate,2022-05-29T15:34:50+02:00*%
%TF.ProjectId,pmod_esp32_baseboard,706d6f64-5f65-4737-9033-325f62617365,rev?*%
%TF.SameCoordinates,Original*%
%TF.FileFunction,Copper,L2,Bot*%
%TF.FilePolarity,Positive*%
%FSLAX46Y46*%
G04 Gerber Fmt 4.6, Leading zero omitted, Abs format (unit mm)*
G04 Created by KiCad (PCBNEW (6.0.5)) date 2022-05-29 15:34:50*
%MOMM*%
%LPD*%
G01*
G04 APERTURE LIST*
%TA.AperFunction,ComponentPad*%
%ADD10R,1.700000X1.700000*%
%TD*%
%TA.AperFunction,ComponentPad*%
%ADD11O,1.700000X1.700000*%
%TD*%
%TA.AperFunction,ComponentPad*%
%ADD12C,0.900000*%
%TD*%
%TA.AperFunction,ComponentPad*%
%ADD13C,8.600000*%
%TD*%
%TA.AperFunction,ComponentPad*%
%ADD14R,1.000000X1.000000*%
%TD*%
%TA.AperFunction,ComponentPad*%
%ADD15O,1.000000X1.000000*%
%TD*%
%TA.AperFunction,ComponentPad*%
%ADD16C,1.524000*%
%TD*%
%TA.AperFunction,ViaPad*%
%ADD17C,0.800000*%
%TD*%
%TA.AperFunction,Conductor*%
%ADD18C,0.250000*%
%TD*%
G04 APERTURE END LIST*
D10*
%TO.P,PMOD2,1,Pin_1*%
%TO.N,VCC*%
X73660000Y-30480000D03*
D11*
%TO.P,PMOD2,2,Pin_2*%
X73660000Y-27940000D03*
%TO.P,PMOD2,3,Pin_3*%
%TO.N,GND*%
X71120000Y-30480000D03*
%TO.P,PMOD2,4,Pin_4*%
X71120000Y-27940000D03*
%TO.P,PMOD2,5,Pin_5*%
%TO.N,PMOD_SPI_SCK*%
X68580000Y-30480000D03*
%TO.P,PMOD2,6,Pin_6*%
%TO.N,PMOD_SPI_GPIO4_CS3*%
X68580000Y-27940000D03*
%TO.P,PMOD2,7,Pin_7*%
%TO.N,PMOD_SPI_MISO*%
X66040000Y-30480000D03*
%TO.P,PMOD2,8,Pin_8*%
%TO.N,PMOD_SPI_GPIO3_CS2*%
X66040000Y-27940000D03*
%TO.P,PMOD2,9,Pin_9*%
%TO.N,PMOD_SPI_MOSI*%
X63500000Y-30480000D03*
%TO.P,PMOD2,10,Pin_10*%
%TO.N,PMOD_SPI_GPIO2_RESET*%
X63500000Y-27940000D03*
%TO.P,PMOD2,11,Pin_11*%
%TO.N,PMOD_SPI_CS*%
X60960000Y-30480000D03*
%TO.P,PMOD2,12,Pin_12*%
%TO.N,PMOD_SPI_GPIO1_INT*%
X60960000Y-27940000D03*
%TD*%
D10*
%TO.P,PMOD3,1,Pin_1*%
%TO.N,VCC*%
X96520000Y-30480000D03*
D11*
%TO.P,PMOD3,2,Pin_2*%
X96520000Y-27940000D03*
%TO.P,PMOD3,3,Pin_3*%
%TO.N,GND*%
X93980000Y-30480000D03*
%TO.P,PMOD3,4,Pin_4*%
X93980000Y-27940000D03*
%TO.P,PMOD3,5,Pin_5*%
%TO.N,PMOD_UART_RTS*%
X91440000Y-30480000D03*
%TO.P,PMOD3,6,Pin_6*%
%TO.N,PMOD_UART_GPIO4*%
X91440000Y-27940000D03*
%TO.P,PMOD3,7,Pin_7*%
%TO.N,PMOD_UART_RXD*%
X88900000Y-30480000D03*
%TO.P,PMOD3,8,Pin_8*%
%TO.N,PMOD_UART_GPIO3*%
X88900000Y-27940000D03*
%TO.P,PMOD3,9,Pin_9*%
%TO.N,PMOD_UART_TXD*%
X86360000Y-30480000D03*
%TO.P,PMOD3,10,Pin_10*%
%TO.N,PMOD_UART_GPIO2_RESET*%
X86360000Y-27940000D03*
%TO.P,PMOD3,11,Pin_11*%
%TO.N,PMOD_UART_CTS*%
X83820000Y-30480000D03*
%TO.P,PMOD3,12,Pin_12*%
%TO.N,PMOD_UART_GPIO1_INT*%
X83820000Y-27940000D03*
%TD*%
D10*
%TO.P,PMOD1,1,Pin_1*%
%TO.N,VCC*%
X119380000Y-31025000D03*
D11*
%TO.P,PMOD1,2,Pin_2*%
X119380000Y-28485000D03*
%TO.P,PMOD1,3,Pin_3*%
%TO.N,GND*%
X116840000Y-31025000D03*
%TO.P,PMOD1,4,Pin_4*%
X116840000Y-28485000D03*
%TO.P,PMOD1,5,Pin_5*%
%TO.N,PMOD_I2C_SDA*%
X114300000Y-31025000D03*
%TO.P,PMOD1,6,Pin_6*%
%TO.N,PMOD_I2C_GPIO4*%
X114300000Y-28485000D03*
%TO.P,PMOD1,7,Pin_7*%
%TO.N,PMOD_I2C_SCL*%
X111760000Y-31025000D03*
%TO.P,PMOD1,8,Pin_8*%
%TO.N,PMOD_I2C_GPIO3*%
X111760000Y-28485000D03*
%TO.P,PMOD1,9,Pin_9*%
%TO.N,PMOD_I2C_RESET*%
X109220000Y-31025000D03*
%TO.P,PMOD1,10,Pin_10*%
%TO.N,PMOD_I2C_GPIO2*%
X109220000Y-28485000D03*
%TO.P,PMOD1,11,Pin_11*%
%TO.N,PMOD_I2C_INT*%
X106680000Y-31025000D03*
%TO.P,PMOD1,12,Pin_12*%
%TO.N,PMOD_I2C_GPIO1*%
X106680000Y-28485000D03*
%TD*%
D12*
%TO.P,H3,1*%
%TO.N,N/C*%
X53080419Y-84079581D03*
X47575000Y-86360000D03*
X54025000Y-86360000D03*
X53080419Y-88640419D03*
X48519581Y-88640419D03*
X50800000Y-83135000D03*
X48519581Y-84079581D03*
X50800000Y-89585000D03*
D13*
X50800000Y-86360000D03*
%TD*%
D12*
%TO.P,H1,1*%
%TO.N,N/C*%
X50800000Y-26085000D03*
X47575000Y-22860000D03*
X48519581Y-20579581D03*
X54025000Y-22860000D03*
D13*
X50800000Y-22860000D03*
D12*
X50800000Y-19635000D03*
X48519581Y-25140419D03*
X53080419Y-25140419D03*
X53080419Y-20579581D03*
%TD*%
D10*
%TO.P,J1,1,Pin_1*%
%TO.N,VCC*%
X129540000Y-36830000D03*
D11*
%TO.P,J1,2,Pin_2*%
%TO.N,GND*%
X129540000Y-34290000D03*
%TD*%
D12*
%TO.P,H4,1*%
%TO.N,N/C*%
X129540000Y-89585000D03*
X131820419Y-84079581D03*
X129540000Y-83135000D03*
D13*
X129540000Y-86360000D03*
D12*
X127259581Y-88640419D03*
X126315000Y-86360000D03*
X132765000Y-86360000D03*
X127259581Y-84079581D03*
X131820419Y-88640419D03*
%TD*%
D14*
%TO.P,J2,1,Pin_1*%
%TO.N,VCC*%
X129540000Y-66040000D03*
D15*
%TO.P,J2,2,Pin_2*%
%TO.N,JTMS*%
X130810000Y-66040000D03*
%TO.P,J2,3,Pin_3*%
%TO.N,GND*%
X129540000Y-67310000D03*
%TO.P,J2,4,Pin_4*%
%TO.N,JTCK*%
X130810000Y-67310000D03*
%TO.P,J2,5,Pin_5*%
%TO.N,GND*%
X129540000Y-68580000D03*
%TO.P,J2,6,Pin_6*%
%TO.N,JTDO*%
X130810000Y-68580000D03*
%TO.P,J2,7,Pin_7*%
%TO.N,unconnected-(J2-Pad7)*%
X129540000Y-69850000D03*
%TO.P,J2,8,Pin_8*%
%TO.N,JTDI*%
X130810000Y-69850000D03*
%TO.P,J2,9,Pin_9*%
%TO.N,GND*%
X129540000Y-71120000D03*
%TO.P,J2,10,Pin_10*%
%TO.N,~{RST}*%
X130810000Y-71120000D03*
%TD*%
D12*
%TO.P,H2,1*%
%TO.N,N/C*%
X129540000Y-26085000D03*
X132765000Y-22860000D03*
D13*
X129540000Y-22860000D03*
D12*
X131820419Y-20579581D03*
X127259581Y-25140419D03*
X126315000Y-22860000D03*
X127259581Y-20579581D03*
X131820419Y-25140419D03*
X129540000Y-19635000D03*
%TD*%
D16*
%TO.P,U1,1,VIN*%
%TO.N,unconnected-(U1-Pad1)*%
X73660000Y-55880000D03*
%TO.P,U1,2,GND*%
%TO.N,unconnected-(U1-Pad2)*%
X76200000Y-55880000D03*
%TO.P,U1,3,GPIO13*%
%TO.N,JTCK*%
X78740000Y-55880000D03*
%TO.P,U1,4,GPIO12*%
%TO.N,JTDI*%
X81280000Y-55880000D03*
%TO.P,U1,5,GPIO14*%
%TO.N,JTMS*%
X83820000Y-55880000D03*
%TO.P,U1,6,GPIO27*%
%TO.N,PMOD_SPI_GPIO2_RESET*%
X86360000Y-55880000D03*
%TO.P,U1,7,GPIO26*%
%TO.N,PMOD_UART_GPIO2_RESET*%
X88900000Y-55880000D03*
%TO.P,U1,8,GPIO25*%
%TO.N,PMOD_I2C_RESET*%
X91440000Y-55880000D03*
%TO.P,U1,9,GPIO23*%
%TO.N,PMOD_I2C_SCL*%
X93980000Y-55880000D03*
%TO.P,U1,10,GPIO32*%
%TO.N,PMOD_I2C_SDA*%
X96520000Y-55880000D03*
%TO.P,U1,11,GPIO35*%
%TO.N,unconnected-(U1-Pad11)*%
X99060000Y-55880000D03*
%TO.P,U1,12,GPIO34*%
%TO.N,PMOD_UART_GPIO1_INT*%
X101600000Y-55880000D03*
%TO.P,U1,13,GPIO39*%
%TO.N,PMOD_I2C_INT*%
X104140000Y-55880000D03*
%TO.P,U1,14,GPIO36*%
%TO.N,unconnected-(U1-Pad14)*%
X106680000Y-55880000D03*
%TO.P,U1,15,EN*%
%TO.N,~{RST}*%
X109220000Y-55880000D03*
%TO.P,U1,16,GPIO23*%
%TO.N,PMOD_I2C_GPIO2*%
X109220000Y-81280000D03*
%TO.P,U1,17,GPIO22*%
%TO.N,PMOD_I2C_GPIO1*%
X106680000Y-81280000D03*
%TO.P,U1,18,TX0*%
%TO.N,unconnected-(U1-Pad18)*%
X104140000Y-81280000D03*
%TO.P,U1,19,RX0*%
%TO.N,unconnected-(U1-Pad19)*%
X101600000Y-81280000D03*
%TO.P,U1,20,GPIO21*%
%TO.N,PMOD_UART_RTS*%
X99060000Y-81280000D03*
%TO.P,U1,21,GPIO19*%
%TO.N,PMOD_UART_RXD*%
X96520000Y-81280000D03*
%TO.P,U1,22,GPIO18*%
%TO.N,PMOD_UART_TXD*%
X93980000Y-81280000D03*
%TO.P,U1,23,GPIO5*%
%TO.N,PMOD_UART_CTS*%
X91440000Y-81280000D03*
%TO.P,U1,24,GPIO17*%
%TO.N,PMOD_SPI_SCK*%
X88900000Y-81280000D03*
%TO.P,U1,25,GPIO16*%
%TO.N,PMOD_SPI_MISO*%
X86360000Y-81280000D03*
%TO.P,U1,26,GPIO4*%
%TO.N,PMOD_SPI_MOSI*%
X83820000Y-81280000D03*
%TO.P,U1,27,GPIO2*%
%TO.N,PMOD_SPI_CS*%
X81280000Y-81280000D03*
%TO.P,U1,28,GPIO15*%
%TO.N,JTDO*%
X78740000Y-81280000D03*
%TO.P,U1,29,GND*%
%TO.N,GND*%
X76200000Y-81280000D03*
%TO.P,U1,30,3V3*%
%TO.N,VCC*%
X73660000Y-81280000D03*
%TD*%
D17*
%TO.N,PMOD_UART_GPIO1_INT*%
X101600000Y-31358990D03*
%TO.N,VCC*%
X120650000Y-58420000D03*
X118110000Y-74930000D03*
X116840000Y-74930000D03*
X121920000Y-58420000D03*
X119380000Y-54610000D03*
X116840000Y-69850000D03*
X118110000Y-69850000D03*
X115570000Y-69850000D03*
X118110000Y-54610000D03*
X118110000Y-58420000D03*
X119380000Y-74930000D03*
X121920000Y-54610000D03*
X119380000Y-58420000D03*
X119380000Y-69850000D03*
X115570000Y-74930000D03*
X120650000Y-54610000D03*
%TO.N,JTCK*%
X127000000Y-73660000D03*
%TD*%
D18*
%TO.N,PMOD_UART_GPIO2_RESET*%
X88900000Y-55880000D02*
X87725489Y-54705489D01*
X87725489Y-54705489D02*
X87725489Y-29305489D01*
X87725489Y-29305489D02*
X86360000Y-27940000D01*
%TO.N,PMOD_UART_GPIO1_INT*%
X83820000Y-27940000D02*
X84994511Y-26765489D01*
X97006499Y-26765489D02*
X101600000Y-31358990D01*
X84994511Y-26765489D02*
X97006499Y-26765489D01*
%TO.N,PMOD_SPI_GPIO2_RESET*%
X64674511Y-29114511D02*
X63500000Y-27940000D01*
X86360000Y-55880000D02*
X86360000Y-53340000D01*
X86360000Y-53340000D02*
X64674511Y-31654511D01*
X64674511Y-31654511D02*
X64674511Y-29114511D01*
%TO.N,PMOD_I2C_SDA*%
X96520000Y-55880000D02*
X96520000Y-48805000D01*
X96520000Y-48805000D02*
X114300000Y-31025000D01*
%TO.N,PMOD_I2C_SCL*%
X93980000Y-55880000D02*
X93980000Y-48805000D01*
X93980000Y-48805000D02*
X111760000Y-31025000D01*
%TO.N,PMOD_I2C_RESET*%
X91440000Y-48805000D02*
X109220000Y-31025000D01*
X91440000Y-55880000D02*
X91440000Y-48805000D01*
%TO.N,JTMS*%
X130810000Y-66040000D02*
X130810000Y-65332894D01*
X122443617Y-56966511D02*
X84906511Y-56966511D01*
X130810000Y-65332894D02*
X122443617Y-56966511D01*
X84906511Y-56966511D02*
X83820000Y-55880000D01*
%TO.N,JTCK*%
X78740000Y-55880000D02*
X96520000Y-73660000D01*
X96520000Y-73660000D02*
X127000000Y-73660000D01*
%TO.N,JTDO*%
X132084031Y-71751687D02*
X120015718Y-83820000D01*
X120015718Y-83820000D02*
X81280000Y-83820000D01*
X81280000Y-83820000D02*
X78740000Y-81280000D01*
X130810000Y-68580000D02*
X132084031Y-69854031D01*
X132084031Y-69854031D02*
X132084031Y-71751687D01*
%TO.N,JTDI*%
X130810000Y-69850000D02*
X131634511Y-70674511D01*
X131634511Y-71565489D02*
X131255489Y-71944511D01*
X131634511Y-70674511D02*
X131634511Y-71565489D01*
X97344511Y-71944511D02*
X81280000Y-55880000D01*
X131255489Y-71944511D02*
X97344511Y-71944511D01*
%TD*%
%TA.AperFunction,Conductor*%
%TO.N,VCC*%
G36*
X127464543Y-18308502D02*
G01*
X127511036Y-18362158D01*
X127521140Y-18432432D01*
X127491646Y-18497012D01*
X127449173Y-18528926D01*
X127332361Y-18582777D01*
X126960880Y-18795957D01*
X126958577Y-18797566D01*
X126958570Y-18797571D01*
X126612129Y-19039701D01*
X126609820Y-19041315D01*
X126281961Y-19316909D01*
X125979899Y-19620557D01*
X125706025Y-19949855D01*
X125462508Y-20302194D01*
X125251276Y-20674786D01*
X125074002Y-21064680D01*
X125073080Y-21067306D01*
X125073075Y-21067318D01*
X125033633Y-21179634D01*
X124932089Y-21468790D01*
X124826661Y-21883914D01*
X124758552Y-22306768D01*
X124728302Y-22734001D01*
X124736151Y-23162233D01*
X124782036Y-23588071D01*
X124865594Y-24008144D01*
X124986163Y-24419127D01*
X124987190Y-24421740D01*
X124987190Y-24421741D01*
X125125651Y-24774145D01*
X125142789Y-24817765D01*
X125201316Y-24934896D01*
X125312161Y-25156731D01*
X125334231Y-25200901D01*
X125558974Y-25565502D01*
X125815239Y-25908682D01*
X125817100Y-25910760D01*
X125817101Y-25910761D01*
X126099127Y-26225637D01*
X126099133Y-26225643D01*
X126100995Y-26227722D01*
X126413981Y-26520098D01*
X126751719Y-26783493D01*
X127111533Y-27015822D01*
X127114012Y-27017126D01*
X127114015Y-27017128D01*
X127488077Y-27213932D01*
X127488083Y-27213935D01*
X127490577Y-27215247D01*
X127493175Y-27216331D01*
X127493179Y-27216333D01*
X127883263Y-27379109D01*
X127883268Y-27379111D01*
X127885847Y-27380187D01*
X127888512Y-27381030D01*
X127888518Y-27381032D01*
X128110561Y-27451254D01*
X128294214Y-27509336D01*
X128712446Y-27601673D01*
X128715220Y-27602031D01*
X128715221Y-27602031D01*
X129134460Y-27656109D01*
X129134467Y-27656110D01*
X129137230Y-27656466D01*
X129140017Y-27656576D01*
X129140023Y-27656576D01*
X129388238Y-27666328D01*
X129565203Y-27673281D01*
X129567995Y-27673142D01*
X129568000Y-27673142D01*
X129990172Y-27652125D01*
X129990181Y-27652124D01*
X129992976Y-27651985D01*
X129995753Y-27651597D01*
X129995755Y-27651597D01*
X130070066Y-27641219D01*
X130417163Y-27592747D01*
X130834404Y-27496036D01*
X131130445Y-27398989D01*
X131238744Y-27363487D01*
X131238750Y-27363485D01*
X131241397Y-27362617D01*
X131634918Y-27193547D01*
X131680792Y-27168795D01*
X131761652Y-27125165D01*
X132011852Y-26990164D01*
X132369214Y-26754080D01*
X132704175Y-26487162D01*
X133014082Y-26191525D01*
X133015919Y-26189431D01*
X133015927Y-26189422D01*
X133294635Y-25871616D01*
X133296482Y-25869510D01*
X133549139Y-25523666D01*
X133550585Y-25521265D01*
X133768601Y-25159142D01*
X133768606Y-25159133D01*
X133770052Y-25156731D01*
X133872204Y-24946823D01*
X133919998Y-24894323D01*
X133988588Y-24875997D01*
X134056198Y-24897663D01*
X134101362Y-24952442D01*
X134111500Y-25001959D01*
X134111500Y-84209490D01*
X134091498Y-84277611D01*
X134037842Y-84324104D01*
X133967568Y-84334208D01*
X133902988Y-84304714D01*
X133874300Y-84268740D01*
X133822939Y-84172347D01*
X133683050Y-83909807D01*
X133448840Y-83551214D01*
X133183680Y-83214860D01*
X132889670Y-82903409D01*
X132887579Y-82901556D01*
X132887571Y-82901548D01*
X132571237Y-82621188D01*
X132571235Y-82621186D01*
X132569137Y-82619327D01*
X132475508Y-82550171D01*
X132379679Y-82479391D01*
X132224621Y-82364863D01*
X132031733Y-82247355D01*
X131861237Y-82143487D01*
X131861230Y-82143483D01*
X131858848Y-82142032D01*
X131773172Y-82099781D01*
X131518565Y-81974223D01*
X131474714Y-81952598D01*
X131075262Y-81798062D01*
X130772243Y-81710886D01*
X130666335Y-81680417D01*
X130666329Y-81680415D01*
X130663654Y-81679646D01*
X130660917Y-81679117D01*
X130660911Y-81679115D01*
X130481521Y-81644408D01*
X130243148Y-81598289D01*
X130240374Y-81598005D01*
X130240362Y-81598003D01*
X129957111Y-81568982D01*
X129817076Y-81554634D01*
X129814286Y-81554597D01*
X129814278Y-81554597D01*
X129546825Y-81551096D01*
X129388809Y-81549028D01*
X129386009Y-81549241D01*
X129386008Y-81549241D01*
X129311364Y-81554919D01*
X128961740Y-81581514D01*
X128539249Y-81651836D01*
X128453671Y-81674048D01*
X128127400Y-81758731D01*
X128127389Y-81758734D01*
X128124682Y-81759437D01*
X127866575Y-81851599D01*
X127723964Y-81902520D01*
X127723959Y-81902522D01*
X127721321Y-81903464D01*
X127718781Y-81904635D01*
X127718776Y-81904637D01*
X127568013Y-81974140D01*
X127332361Y-82082777D01*
X127329938Y-82084167D01*
X127329935Y-82084169D01*
X127245422Y-82132668D01*
X126960880Y-82295957D01*
X126958577Y-82297566D01*
X126958570Y-82297571D01*
X126617479Y-82535962D01*
X126609820Y-82541315D01*
X126281961Y-82816909D01*
X125979899Y-83120557D01*
X125706025Y-83449855D01*
X125462508Y-83802194D01*
X125251276Y-84174786D01*
X125250117Y-84177335D01*
X125250115Y-84177339D01*
X125218521Y-84246827D01*
X125074002Y-84564680D01*
X125073080Y-84567306D01*
X125073075Y-84567318D01*
X125033633Y-84679634D01*
X124932089Y-84968790D01*
X124826661Y-85383914D01*
X124758552Y-85806768D01*
X124728302Y-86234001D01*
X124736151Y-86662233D01*
X124782036Y-87088071D01*
X124865594Y-87508144D01*
X124986163Y-87919127D01*
X124987190Y-87921740D01*
X124987190Y-87921741D01*
X125125651Y-88274145D01*
X125142789Y-88317765D01*
X125201316Y-88434896D01*
X125312161Y-88656731D01*
X125334231Y-88700901D01*
X125558974Y-89065502D01*
X125815239Y-89408682D01*
X125817100Y-89410760D01*
X125817101Y-89410761D01*
X126099127Y-89725637D01*
X126099133Y-89725643D01*
X126100995Y-89727722D01*
X126413981Y-90020098D01*
X126751719Y-90283493D01*
X127111533Y-90515822D01*
X127114012Y-90517126D01*
X127114015Y-90517128D01*
X127450178Y-90693992D01*
X127501151Y-90743411D01*
X127517314Y-90812544D01*
X127493535Y-90879440D01*
X127437364Y-90922860D01*
X127391511Y-90931500D01*
X52952547Y-90931500D01*
X52884426Y-90911498D01*
X52837933Y-90857842D01*
X52827829Y-90787568D01*
X52857323Y-90722988D01*
X52895166Y-90694006D01*
X52894918Y-90693547D01*
X53271852Y-90490164D01*
X53629214Y-90254080D01*
X53964175Y-89987162D01*
X54274082Y-89691525D01*
X54275919Y-89689431D01*
X54275927Y-89689422D01*
X54554635Y-89371616D01*
X54556482Y-89369510D01*
X54809139Y-89023666D01*
X54810585Y-89021265D01*
X55028601Y-88659142D01*
X55028606Y-88659133D01*
X55030052Y-88656731D01*
X55165551Y-88378299D01*
X55216238Y-88274145D01*
X55216239Y-88274142D01*
X55217471Y-88271611D01*
X55350724Y-87921741D01*
X55368918Y-87873971D01*
X55368920Y-87873964D01*
X55369914Y-87871355D01*
X55486173Y-87459132D01*
X55555433Y-87090822D01*
X55564811Y-87040954D01*
X55564813Y-87040942D01*
X55565327Y-87038207D01*
X55606750Y-86611911D01*
X55608194Y-86556780D01*
X55613289Y-86362234D01*
X55613289Y-86362220D01*
X55613347Y-86360000D01*
X55594291Y-85932121D01*
X55537275Y-85507630D01*
X55508666Y-85381193D01*
X55443368Y-85092618D01*
X55443368Y-85092617D01*
X55442750Y-85089887D01*
X55311463Y-84682202D01*
X55184543Y-84382469D01*
X55145550Y-84290384D01*
X55145548Y-84290379D01*
X55144456Y-84287801D01*
X54943050Y-83909807D01*
X54708840Y-83551214D01*
X54443680Y-83214860D01*
X54149670Y-82903409D01*
X54147579Y-82901556D01*
X54147571Y-82901548D01*
X53831237Y-82621188D01*
X53831235Y-82621186D01*
X53829137Y-82619327D01*
X53735508Y-82550171D01*
X53639679Y-82479391D01*
X53484621Y-82364863D01*
X53441801Y-82338777D01*
X72965777Y-82338777D01*
X72975074Y-82350793D01*
X73018069Y-82380898D01*
X73027555Y-82386376D01*
X73218993Y-82475645D01*
X73229285Y-82479391D01*
X73433309Y-82534059D01*
X73444104Y-82535962D01*
X73654525Y-82554372D01*
X73665475Y-82554372D01*
X73875896Y-82535962D01*
X73886691Y-82534059D01*
X74090715Y-82479391D01*
X74101007Y-82475645D01*
X74292445Y-82386376D01*
X74301931Y-82380898D01*
X74345764Y-82350207D01*
X74354139Y-82339729D01*
X74347071Y-82326281D01*
X73672812Y-81652022D01*
X73658868Y-81644408D01*
X73657035Y-81644539D01*
X73650420Y-81648790D01*
X72972207Y-82327003D01*
X72965777Y-82338777D01*
X53441801Y-82338777D01*
X53291733Y-82247355D01*
X53121237Y-82143487D01*
X53121230Y-82143483D01*
X53118848Y-82142032D01*
X53033172Y-82099781D01*
X52778565Y-81974223D01*
X52734714Y-81952598D01*
X52335262Y-81798062D01*
X52032243Y-81710886D01*
X51926335Y-81680417D01*
X51926329Y-81680415D01*
X51923654Y-81679646D01*
X51920917Y-81679117D01*
X51920911Y-81679115D01*
X51741521Y-81644408D01*
X51503148Y-81598289D01*
X51500374Y-81598005D01*
X51500362Y-81598003D01*
X51217111Y-81568982D01*
X51077076Y-81554634D01*
X51074286Y-81554597D01*
X51074278Y-81554597D01*
X50806825Y-81551096D01*
X50648809Y-81549028D01*
X50646009Y-81549241D01*
X50646008Y-81549241D01*
X50571364Y-81554919D01*
X50221740Y-81581514D01*
X49799249Y-81651836D01*
X49713671Y-81674048D01*
X49387400Y-81758731D01*
X49387389Y-81758734D01*
X49384682Y-81759437D01*
X49126575Y-81851599D01*
X48983964Y-81902520D01*
X48983959Y-81902522D01*
X48981321Y-81903464D01*
X48978781Y-81904635D01*
X48978776Y-81904637D01*
X48828013Y-81974140D01*
X48592361Y-82082777D01*
X48589938Y-82084167D01*
X48589935Y-82084169D01*
X48505422Y-82132668D01*
X48220880Y-82295957D01*
X48218577Y-82297566D01*
X48218570Y-82297571D01*
X47877479Y-82535962D01*
X47869820Y-82541315D01*
X47541961Y-82816909D01*
X47239899Y-83120557D01*
X46966025Y-83449855D01*
X46722508Y-83802194D01*
X46511276Y-84174786D01*
X46510117Y-84177335D01*
X46510115Y-84177339D01*
X46469201Y-84267325D01*
X46422797Y-84321058D01*
X46354710Y-84341174D01*
X46286556Y-84321285D01*
X46239974Y-84267707D01*
X46228500Y-84215174D01*
X46228500Y-81285475D01*
X72385628Y-81285475D01*
X72404038Y-81495896D01*
X72405941Y-81506691D01*
X72460609Y-81710715D01*
X72464355Y-81721007D01*
X72553623Y-81912441D01*
X72559103Y-81921932D01*
X72589794Y-81965765D01*
X72600271Y-81974140D01*
X72613718Y-81967072D01*
X73287978Y-81292812D01*
X73295592Y-81278868D01*
X73295461Y-81277035D01*
X73291210Y-81270420D01*
X72612997Y-80592207D01*
X72601223Y-80585777D01*
X72589207Y-80595074D01*
X72559103Y-80638068D01*
X72553623Y-80647559D01*
X72464355Y-80838993D01*
X72460609Y-80849285D01*
X72405941Y-81053309D01*
X72404038Y-81064104D01*
X72385628Y-81274525D01*
X72385628Y-81285475D01*
X46228500Y-81285475D01*
X46228500Y-80220271D01*
X72965860Y-80220271D01*
X72972928Y-80233718D01*
X73647188Y-80907978D01*
X73661132Y-80915592D01*
X73662965Y-80915461D01*
X73669580Y-80911210D01*
X74347793Y-80232997D01*
X74354223Y-80221223D01*
X74344926Y-80209207D01*
X74301931Y-80179102D01*
X74292445Y-80173624D01*
X74101007Y-80084355D01*
X74090715Y-80080609D01*
X73886691Y-80025941D01*
X73875896Y-80024038D01*
X73665475Y-80005628D01*
X73654525Y-80005628D01*
X73444104Y-80024038D01*
X73433309Y-80025941D01*
X73229285Y-80080609D01*
X73218993Y-80084355D01*
X73027559Y-80173623D01*
X73018068Y-80179103D01*
X72974235Y-80209794D01*
X72965860Y-80220271D01*
X46228500Y-80220271D01*
X46228500Y-30446695D01*
X59597251Y-30446695D01*
X59597548Y-30451848D01*
X59597548Y-30451851D01*
X59603743Y-30559297D01*
X59610110Y-30669715D01*
X59611247Y-30674761D01*
X59611248Y-30674767D01*
X59625606Y-30738475D01*
X59659222Y-30887639D01*
X59743266Y-31094616D01*
X59785039Y-31162784D01*
X59857291Y-31280688D01*
X59859987Y-31285088D01*
X60006250Y-31453938D01*
X60178126Y-31596632D01*
X60371000Y-31709338D01*
X60579692Y-31789030D01*
X60584760Y-31790061D01*
X60584763Y-31790062D01*
X60688203Y-31811107D01*
X60798597Y-31833567D01*
X60803772Y-31833757D01*
X60803774Y-31833757D01*
X61016673Y-31841564D01*
X61016677Y-31841564D01*
X61021837Y-31841753D01*
X61026957Y-31841097D01*
X61026959Y-31841097D01*
X61238288Y-31814025D01*
X61238289Y-31814025D01*
X61243416Y-31813368D01*
X61248376Y-31811880D01*
X61452429Y-31750661D01*
X61452434Y-31750659D01*
X61457384Y-31749174D01*
X61657994Y-31650896D01*
X61839860Y-31521173D01*
X61998096Y-31363489D01*
X62038133Y-31307772D01*
X62128453Y-31182077D01*
X62129776Y-31183028D01*
X62176645Y-31139857D01*
X62246580Y-31127625D01*
X62312026Y-31155144D01*
X62339875Y-31186994D01*
X62399987Y-31285088D01*
X62546250Y-31453938D01*
X62718126Y-31596632D01*
X62911000Y-31709338D01*
X63119692Y-31789030D01*
X63124760Y-31790061D01*
X63124763Y-31790062D01*
X63228203Y-31811107D01*
X63338597Y-31833567D01*
X63343772Y-31833757D01*
X63343774Y-31833757D01*
X63556673Y-31841564D01*
X63556677Y-31841564D01*
X63561837Y-31841753D01*
X63566957Y-31841097D01*
X63566959Y-31841097D01*
X63778288Y-31814025D01*
X63778289Y-31814025D01*
X63783416Y-31813368D01*
X63788373Y-31811881D01*
X63788377Y-31811880D01*
X63916331Y-31773492D01*
X63987326Y-31773074D01*
X64047277Y-31811107D01*
X64069695Y-31847803D01*
X64072319Y-31854432D01*
X64076160Y-31865653D01*
X64088493Y-31908104D01*
X64092526Y-31914923D01*
X64092528Y-31914928D01*
X64098804Y-31925539D01*
X64107499Y-31943287D01*
X64114959Y-31962128D01*
X64119621Y-31968544D01*
X64119621Y-31968545D01*
X64140947Y-31997898D01*
X64147463Y-32007818D01*
X64165228Y-32037856D01*
X64169969Y-32045873D01*
X64184290Y-32060194D01*
X64197130Y-32075227D01*
X64209039Y-32091618D01*
X64215145Y-32096669D01*
X64243116Y-32119809D01*
X64251895Y-32127799D01*
X85689595Y-53565499D01*
X85723621Y-53627811D01*
X85726500Y-53654594D01*
X85726500Y-54706996D01*
X85706498Y-54775117D01*
X85672771Y-54810209D01*
X85544730Y-54899864D01*
X85544727Y-54899866D01*
X85540219Y-54903023D01*
X85383023Y-55060219D01*
X85255512Y-55242324D01*
X85253189Y-55247306D01*
X85253186Y-55247311D01*
X85204195Y-55352373D01*
X85157277Y-55405658D01*
X85089000Y-55425119D01*
X85021040Y-55404577D01*
X84975805Y-55352373D01*
X84926814Y-55247311D01*
X84926811Y-55247306D01*
X84924488Y-55242324D01*
X84796977Y-55060219D01*
X84639781Y-54903023D01*
X84635273Y-54899866D01*
X84635270Y-54899864D01*
X84500330Y-54805378D01*
X84457677Y-54775512D01*
X84452695Y-54773189D01*
X84452690Y-54773186D01*
X84261178Y-54683883D01*
X84261177Y-54683882D01*
X84256196Y-54681560D01*
X84250888Y-54680138D01*
X84250886Y-54680137D01*
X84150781Y-54653314D01*
X84041463Y-54624022D01*
X83820000Y-54604647D01*
X83598537Y-54624022D01*
X83489219Y-54653314D01*
X83389114Y-54680137D01*
X83389112Y-54680138D01*
X83383804Y-54681560D01*
X83378823Y-54683882D01*
X83378822Y-54683883D01*
X83187311Y-54773186D01*
X83187306Y-54773189D01*
X83182324Y-54775512D01*
X83177817Y-54778668D01*
X83177815Y-54778669D01*
X83004730Y-54899864D01*
X83004727Y-54899866D01*
X83000219Y-54903023D01*
X82843023Y-55060219D01*
X82715512Y-55242324D01*
X82713189Y-55247306D01*
X82713186Y-55247311D01*
X82664195Y-55352373D01*
X82617277Y-55405658D01*
X82549000Y-55425119D01*
X82481040Y-55404577D01*
X82435805Y-55352373D01*
X82386814Y-55247311D01*
X82386811Y-55247306D01*
X82384488Y-55242324D01*
X82256977Y-55060219D01*
X82099781Y-54903023D01*
X82095273Y-54899866D01*
X82095270Y-54899864D01*
X81960330Y-54805378D01*
X81917677Y-54775512D01*
X81912695Y-54773189D01*
X81912690Y-54773186D01*
X81721178Y-54683883D01*
X81721177Y-54683882D01*
X81716196Y-54681560D01*
X81710888Y-54680138D01*
X81710886Y-54680137D01*
X81610781Y-54653314D01*
X81501463Y-54624022D01*
X81280000Y-54604647D01*
X81058537Y-54624022D01*
X80949219Y-54653314D01*
X80849114Y-54680137D01*
X80849112Y-54680138D01*
X80843804Y-54681560D01*
X80838823Y-54683882D01*
X80838822Y-54683883D01*
X80647311Y-54773186D01*
X80647306Y-54773189D01*
X80642324Y-54775512D01*
X80637817Y-54778668D01*
X80637815Y-54778669D01*
X80464730Y-54899864D01*
X80464727Y-54899866D01*
X80460219Y-54903023D01*
X80303023Y-55060219D01*
X80175512Y-55242324D01*
X80173189Y-55247306D01*
X80173186Y-55247311D01*
X80124195Y-55352373D01*
X80077277Y-55405658D01*
X80009000Y-55425119D01*
X79941040Y-55404577D01*
X79895805Y-55352373D01*
X79846814Y-55247311D01*
X79846811Y-55247306D01*
X79844488Y-55242324D01*
X79716977Y-55060219D01*
X79559781Y-54903023D01*
X79555273Y-54899866D01*
X79555270Y-54899864D01*
X79420330Y-54805378D01*
X79377677Y-54775512D01*
X79372695Y-54773189D01*
X79372690Y-54773186D01*
X79181178Y-54683883D01*
X79181177Y-54683882D01*
X79176196Y-54681560D01*
X79170888Y-54680138D01*
X79170886Y-54680137D01*
X79070781Y-54653314D01*
X78961463Y-54624022D01*
X78740000Y-54604647D01*
X78518537Y-54624022D01*
X78409219Y-54653314D01*
X78309114Y-54680137D01*
X78309112Y-54680138D01*
X78303804Y-54681560D01*
X78298823Y-54683882D01*
X78298822Y-54683883D01*
X78107311Y-54773186D01*
X78107306Y-54773189D01*
X78102324Y-54775512D01*
X78097817Y-54778668D01*
X78097815Y-54778669D01*
X77924730Y-54899864D01*
X77924727Y-54899866D01*
X77920219Y-54903023D01*
X77763023Y-55060219D01*
X77635512Y-55242324D01*
X77633189Y-55247306D01*
X77633186Y-55247311D01*
X77584195Y-55352373D01*
X77537277Y-55405658D01*
X77469000Y-55425119D01*
X77401040Y-55404577D01*
X77355805Y-55352373D01*
X77306814Y-55247311D01*
X77306811Y-55247306D01*
X77304488Y-55242324D01*
X77176977Y-55060219D01*
X77019781Y-54903023D01*
X77015273Y-54899866D01*
X77015270Y-54899864D01*
X76880330Y-54805378D01*
X76837677Y-54775512D01*
X76832695Y-54773189D01*
X76832690Y-54773186D01*
X76641178Y-54683883D01*
X76641177Y-54683882D01*
X76636196Y-54681560D01*
X76630888Y-54680138D01*
X76630886Y-54680137D01*
X76530781Y-54653314D01*
X76421463Y-54624022D01*
X76200000Y-54604647D01*
X75978537Y-54624022D01*
X75869219Y-54653314D01*
X75769114Y-54680137D01*
X75769112Y-54680138D01*
X75763804Y-54681560D01*
X75758823Y-54683882D01*
X75758822Y-54683883D01*
X75567311Y-54773186D01*
X75567306Y-54773189D01*
X75562324Y-54775512D01*
X75557817Y-54778668D01*
X75557815Y-54778669D01*
X75384730Y-54899864D01*
X75384727Y-54899866D01*
X75380219Y-54903023D01*
X75223023Y-55060219D01*
X75095512Y-55242324D01*
X75093189Y-55247306D01*
X75093186Y-55247311D01*
X75044195Y-55352373D01*
X74997277Y-55405658D01*
X74929000Y-55425119D01*
X74861040Y-55404577D01*
X74815805Y-55352373D01*
X74766814Y-55247311D01*
X74766811Y-55247306D01*
X74764488Y-55242324D01*
X74636977Y-55060219D01*
X74479781Y-54903023D01*
X74475273Y-54899866D01*
X74475270Y-54899864D01*
X74340330Y-54805378D01*
X74297677Y-54775512D01*
X74292695Y-54773189D01*
X74292690Y-54773186D01*
X74101178Y-54683883D01*
X74101177Y-54683882D01*
X74096196Y-54681560D01*
X74090888Y-54680138D01*
X74090886Y-54680137D01*
X73990781Y-54653314D01*
X73881463Y-54624022D01*
X73660000Y-54604647D01*
X73438537Y-54624022D01*
X73329219Y-54653314D01*
X73229114Y-54680137D01*
X73229112Y-54680138D01*
X73223804Y-54681560D01*
X73218823Y-54683882D01*
X73218822Y-54683883D01*
X73027311Y-54773186D01*
X73027306Y-54773189D01*
X73022324Y-54775512D01*
X73017817Y-54778668D01*
X73017815Y-54778669D01*
X72844730Y-54899864D01*
X72844727Y-54899866D01*
X72840219Y-54903023D01*
X72683023Y-55060219D01*
X72555512Y-55242324D01*
X72553189Y-55247306D01*
X72553186Y-55247311D01*
X72504195Y-55352373D01*
X72461560Y-55443804D01*
X72404022Y-55658537D01*
X72384647Y-55880000D01*
X72404022Y-56101463D01*
X72461560Y-56316196D01*
X72463882Y-56321177D01*
X72463883Y-56321178D01*
X72553186Y-56512689D01*
X72553189Y-56512694D01*
X72555512Y-56517676D01*
X72558668Y-56522183D01*
X72558669Y-56522185D01*
X72584793Y-56559493D01*
X72683023Y-56699781D01*
X72840219Y-56856977D01*
X72844727Y-56860134D01*
X72844730Y-56860136D01*
X72920495Y-56913187D01*
X73022323Y-56984488D01*
X73027305Y-56986811D01*
X73027310Y-56986814D01*
X73218822Y-57076117D01*
X73223804Y-57078440D01*
X73229112Y-57079862D01*
X73229114Y-57079863D01*
X73294949Y-57097503D01*
X73438537Y-57135978D01*
X73660000Y-57155353D01*
X73881463Y-57135978D01*
X74025051Y-57097503D01*
X74090886Y-57079863D01*
X74090888Y-57079862D01*
X74096196Y-57078440D01*
X74101178Y-57076117D01*
X74292690Y-56986814D01*
X74292695Y-56986811D01*
X74297677Y-56984488D01*
X74399505Y-56913187D01*
X74475270Y-56860136D01*
X74475273Y-56860134D01*
X74479781Y-56856977D01*
X74636977Y-56699781D01*
X74735208Y-56559493D01*
X74761331Y-56522185D01*
X74761332Y-56522183D01*
X74764488Y-56517676D01*
X74766811Y-56512694D01*
X74766814Y-56512689D01*
X74815805Y-56407627D01*
X74862723Y-56354342D01*
X74931000Y-56334881D01*
X74998960Y-56355423D01*
X75044195Y-56407627D01*
X75093186Y-56512689D01*
X75093189Y-56512694D01*
X75095512Y-56517676D01*
X75098668Y-56522183D01*
X75098669Y-56522185D01*
X75124793Y-56559493D01*
X75223023Y-56699781D01*
X75380219Y-56856977D01*
X75384727Y-56860134D01*
X75384730Y-56860136D01*
X75460495Y-56913187D01*
X75562323Y-56984488D01*
X75567305Y-56986811D01*
X75567310Y-56986814D01*
X75758822Y-57076117D01*
X75763804Y-57078440D01*
X75769112Y-57079862D01*
X75769114Y-57079863D01*
X75834949Y-57097503D01*
X75978537Y-57135978D01*
X76200000Y-57155353D01*
X76421463Y-57135978D01*
X76565051Y-57097503D01*
X76630886Y-57079863D01*
X76630888Y-57079862D01*
X76636196Y-57078440D01*
X76641178Y-57076117D01*
X76832690Y-56986814D01*
X76832695Y-56986811D01*
X76837677Y-56984488D01*
X76939505Y-56913187D01*
X77015270Y-56860136D01*
X77015273Y-56860134D01*
X77019781Y-56856977D01*
X77176977Y-56699781D01*
X77275208Y-56559493D01*
X77301331Y-56522185D01*
X77301332Y-56522183D01*
X77304488Y-56517676D01*
X77306811Y-56512694D01*
X77306814Y-56512689D01*
X77355805Y-56407627D01*
X77402723Y-56354342D01*
X77471000Y-56334881D01*
X77538960Y-56355423D01*
X77584195Y-56407627D01*
X77633186Y-56512689D01*
X77633189Y-56512694D01*
X77635512Y-56517676D01*
X77638668Y-56522183D01*
X77638669Y-56522185D01*
X77664793Y-56559493D01*
X77763023Y-56699781D01*
X77920219Y-56856977D01*
X77924727Y-56860134D01*
X77924730Y-56860136D01*
X78000495Y-56913187D01*
X78102323Y-56984488D01*
X78107305Y-56986811D01*
X78107310Y-56986814D01*
X78298822Y-57076117D01*
X78303804Y-57078440D01*
X78309112Y-57079862D01*
X78309114Y-57079863D01*
X78374949Y-57097503D01*
X78518537Y-57135978D01*
X78740000Y-57155353D01*
X78961463Y-57135978D01*
X78977642Y-57131643D01*
X79000516Y-57125514D01*
X79071493Y-57127204D01*
X79122222Y-57158126D01*
X96016343Y-74052247D01*
X96023887Y-74060537D01*
X96028000Y-74067018D01*
X96033777Y-74072443D01*
X96077667Y-74113658D01*
X96080509Y-74116413D01*
X96100230Y-74136134D01*
X96103425Y-74138612D01*
X96112447Y-74146318D01*
X96144679Y-74176586D01*
X96151628Y-74180406D01*
X96162432Y-74186346D01*
X96178956Y-74197199D01*
X96194959Y-74209613D01*
X96235543Y-74227176D01*
X96246173Y-74232383D01*
X96284940Y-74253695D01*
X96292617Y-74255666D01*
X96292622Y-74255668D01*
X96304558Y-74258732D01*
X96323266Y-74265137D01*
X96341855Y-74273181D01*
X96349683Y-74274421D01*
X96349690Y-74274423D01*
X96385524Y-74280099D01*
X96397144Y-74282505D01*
X96432289Y-74291528D01*
X96439970Y-74293500D01*
X96460224Y-74293500D01*
X96479934Y-74295051D01*
X96499943Y-74298220D01*
X96507835Y-74297474D01*
X96543961Y-74294059D01*
X96555819Y-74293500D01*
X126291800Y-74293500D01*
X126359921Y-74313502D01*
X126379147Y-74329843D01*
X126379420Y-74329540D01*
X126384332Y-74333963D01*
X126388747Y-74338866D01*
X126543248Y-74451118D01*
X126549276Y-74453802D01*
X126549278Y-74453803D01*
X126711681Y-74526109D01*
X126717712Y-74528794D01*
X126811113Y-74548647D01*
X126898056Y-74567128D01*
X126898061Y-74567128D01*
X126904513Y-74568500D01*
X127095487Y-74568500D01*
X127101939Y-74567128D01*
X127101944Y-74567128D01*
X127188887Y-74548647D01*
X127282288Y-74528794D01*
X127288319Y-74526109D01*
X127450722Y-74453803D01*
X127450724Y-74453802D01*
X127456752Y-74451118D01*
X127611253Y-74338866D01*
X127647851Y-74298220D01*
X127734621Y-74201852D01*
X127734622Y-74201851D01*
X127739040Y-74196944D01*
X127814053Y-74067018D01*
X127831223Y-74037279D01*
X127831224Y-74037278D01*
X127834527Y-74031556D01*
X127893542Y-73849928D01*
X127913504Y-73660000D01*
X127893542Y-73470072D01*
X127834527Y-73288444D01*
X127739040Y-73123056D01*
X127611253Y-72981134D01*
X127456752Y-72868882D01*
X127450724Y-72866198D01*
X127450722Y-72866197D01*
X127344980Y-72819118D01*
X127290884Y-72773138D01*
X127270235Y-72705211D01*
X127289587Y-72636903D01*
X127342798Y-72589901D01*
X127396229Y-72578011D01*
X130057613Y-72578011D01*
X130125734Y-72598013D01*
X130172227Y-72651669D01*
X130182331Y-72721943D01*
X130152837Y-72786523D01*
X130146708Y-72793106D01*
X119790218Y-83149595D01*
X119727906Y-83183621D01*
X119701123Y-83186500D01*
X81594595Y-83186500D01*
X81526474Y-83166498D01*
X81505500Y-83149595D01*
X81120692Y-82764787D01*
X81086666Y-82702475D01*
X81091731Y-82631660D01*
X81134278Y-82574824D01*
X81200798Y-82550013D01*
X81220768Y-82550171D01*
X81280000Y-82555353D01*
X81501463Y-82535978D01*
X81645051Y-82497503D01*
X81710886Y-82479863D01*
X81710888Y-82479862D01*
X81716196Y-82478440D01*
X81722190Y-82475645D01*
X81912690Y-82386814D01*
X81912695Y-82386811D01*
X81917677Y-82384488D01*
X82046110Y-82294558D01*
X82095270Y-82260136D01*
X82095273Y-82260134D01*
X82099781Y-82256977D01*
X82256977Y-82099781D01*
X82268884Y-82082777D01*
X82381331Y-81922185D01*
X82381332Y-81922183D01*
X82384488Y-81917676D01*
X82386811Y-81912694D01*
X82386814Y-81912689D01*
X82435805Y-81807627D01*
X82482723Y-81754342D01*
X82551000Y-81734881D01*
X82618960Y-81755423D01*
X82664195Y-81807627D01*
X82713186Y-81912689D01*
X82713189Y-81912694D01*
X82715512Y-81917676D01*
X82718668Y-81922183D01*
X82718669Y-81922185D01*
X82831117Y-82082777D01*
X82843023Y-82099781D01*
X83000219Y-82256977D01*
X83004727Y-82260134D01*
X83004730Y-82260136D01*
X83053890Y-82294558D01*
X83182323Y-82384488D01*
X83187305Y-82386811D01*
X83187310Y-82386814D01*
X83377810Y-82475645D01*
X83383804Y-82478440D01*
X83389112Y-82479862D01*
X83389114Y-82479863D01*
X83454949Y-82497503D01*
X83598537Y-82535978D01*
X83820000Y-82555353D01*
X84041463Y-82535978D01*
X84185051Y-82497503D01*
X84250886Y-82479863D01*
X84250888Y-82479862D01*
X84256196Y-82478440D01*
X84262190Y-82475645D01*
X84452690Y-82386814D01*
X84452695Y-82386811D01*
X84457677Y-82384488D01*
X84586110Y-82294558D01*
X84635270Y-82260136D01*
X84635273Y-82260134D01*
X84639781Y-82256977D01*
X84796977Y-82099781D01*
X84808884Y-82082777D01*
X84921331Y-81922185D01*
X84921332Y-81922183D01*
X84924488Y-81917676D01*
X84926811Y-81912694D01*
X84926814Y-81912689D01*
X84975805Y-81807627D01*
X85022723Y-81754342D01*
X85091000Y-81734881D01*
X85158960Y-81755423D01*
X85204195Y-81807627D01*
X85253186Y-81912689D01*
X85253189Y-81912694D01*
X85255512Y-81917676D01*
X85258668Y-81922183D01*
X85258669Y-81922185D01*
X85371117Y-82082777D01*
X85383023Y-82099781D01*
X85540219Y-82256977D01*
X85544727Y-82260134D01*
X85544730Y-82260136D01*
X85593890Y-82294558D01*
X85722323Y-82384488D01*
X85727305Y-82386811D01*
X85727310Y-82386814D01*
X85917810Y-82475645D01*
X85923804Y-82478440D01*
X85929112Y-82479862D01*
X85929114Y-82479863D01*
X85994949Y-82497503D01*
X86138537Y-82535978D01*
X86360000Y-82555353D01*
X86581463Y-82535978D01*
X86725051Y-82497503D01*
X86790886Y-82479863D01*
X86790888Y-82479862D01*
X86796196Y-82478440D01*
X86802190Y-82475645D01*
X86992690Y-82386814D01*
X86992695Y-82386811D01*
X86997677Y-82384488D01*
X87126110Y-82294558D01*
X87175270Y-82260136D01*
X87175273Y-82260134D01*
X87179781Y-82256977D01*
X87336977Y-82099781D01*
X87348884Y-82082777D01*
X87461331Y-81922185D01*
X87461332Y-81922183D01*
X87464488Y-81917676D01*
X87466811Y-81912694D01*
X87466814Y-81912689D01*
X87515805Y-81807627D01*
X87562723Y-81754342D01*
X87631000Y-81734881D01*
X87698960Y-81755423D01*
X87744195Y-81807627D01*
X87793186Y-81912689D01*
X87793189Y-81912694D01*
X87795512Y-81917676D01*
X87798668Y-81922183D01*
X87798669Y-81922185D01*
X87911117Y-82082777D01*
X87923023Y-82099781D01*
X88080219Y-82256977D01*
X88084727Y-82260134D01*
X88084730Y-82260136D01*
X88133890Y-82294558D01*
X88262323Y-82384488D01*
X88267305Y-82386811D01*
X88267310Y-82386814D01*
X88457810Y-82475645D01*
X88463804Y-82478440D01*
X88469112Y-82479862D01*
X88469114Y-82479863D01*
X88534949Y-82497503D01*
X88678537Y-82535978D01*
X88900000Y-82555353D01*
X89121463Y-82535978D01*
X89265051Y-82497503D01*
X89330886Y-82479863D01*
X89330888Y-82479862D01*
X89336196Y-82478440D01*
X89342190Y-82475645D01*
X89532690Y-82386814D01*
X89532695Y-82386811D01*
X89537677Y-82384488D01*
X89666110Y-82294558D01*
X89715270Y-82260136D01*
X89715273Y-82260134D01*
X89719781Y-82256977D01*
X89876977Y-82099781D01*
X89888884Y-82082777D01*
X90001331Y-81922185D01*
X90001332Y-81922183D01*
X90004488Y-81917676D01*
X90006811Y-81912694D01*
X90006814Y-81912689D01*
X90055805Y-81807627D01*
X90102723Y-81754342D01*
X90171000Y-81734881D01*
X90238960Y-81755423D01*
X90284195Y-81807627D01*
X90333186Y-81912689D01*
X90333189Y-81912694D01*
X90335512Y-81917676D01*
X90338668Y-81922183D01*
X90338669Y-81922185D01*
X90451117Y-82082777D01*
X90463023Y-82099781D01*
X90620219Y-82256977D01*
X90624727Y-82260134D01*
X90624730Y-82260136D01*
X90673890Y-82294558D01*
X90802323Y-82384488D01*
X90807305Y-82386811D01*
X90807310Y-82386814D01*
X90997810Y-82475645D01*
X91003804Y-82478440D01*
X91009112Y-82479862D01*
X91009114Y-82479863D01*
X91074949Y-82497503D01*
X91218537Y-82535978D01*
X91440000Y-82555353D01*
X91661463Y-82535978D01*
X91805051Y-82497503D01*
X91870886Y-82479863D01*
X91870888Y-82479862D01*
X91876196Y-82478440D01*
X91882190Y-82475645D01*
X92072690Y-82386814D01*
X92072695Y-82386811D01*
X92077677Y-82384488D01*
X92206110Y-82294558D01*
X92255270Y-82260136D01*
X92255273Y-82260134D01*
X92259781Y-82256977D01*
X92416977Y-82099781D01*
X92428884Y-82082777D01*
X92541331Y-81922185D01*
X92541332Y-81922183D01*
X92544488Y-81917676D01*
X92546811Y-81912694D01*
X92546814Y-81912689D01*
X92595805Y-81807627D01*
X92642723Y-81754342D01*
X92711000Y-81734881D01*
X92778960Y-81755423D01*
X92824195Y-81807627D01*
X92873186Y-81912689D01*
X92873189Y-81912694D01*
X92875512Y-81917676D01*
X92878668Y-81922183D01*
X92878669Y-81922185D01*
X92991117Y-82082777D01*
X93003023Y-82099781D01*
X93160219Y-82256977D01*
X93164727Y-82260134D01*
X93164730Y-82260136D01*
X93213890Y-82294558D01*
X93342323Y-82384488D01*
X93347305Y-82386811D01*
X93347310Y-82386814D01*
X93537810Y-82475645D01*
X93543804Y-82478440D01*
X93549112Y-82479862D01*
X93549114Y-82479863D01*
X93614949Y-82497503D01*
X93758537Y-82535978D01*
X93980000Y-82555353D01*
X94201463Y-82535978D01*
X94345051Y-82497503D01*
X94410886Y-82479863D01*
X94410888Y-82479862D01*
X94416196Y-82478440D01*
X94422190Y-82475645D01*
X94612690Y-82386814D01*
X94612695Y-82386811D01*
X94617677Y-82384488D01*
X94746110Y-82294558D01*
X94795270Y-82260136D01*
X94795273Y-82260134D01*
X94799781Y-82256977D01*
X94956977Y-82099781D01*
X94968884Y-82082777D01*
X95081331Y-81922185D01*
X95081332Y-81922183D01*
X95084488Y-81917676D01*
X95086811Y-81912694D01*
X95086814Y-81912689D01*
X95135805Y-81807627D01*
X95182723Y-81754342D01*
X95251000Y-81734881D01*
X95318960Y-81755423D01*
X95364195Y-81807627D01*
X95413186Y-81912689D01*
X95413189Y-81912694D01*
X95415512Y-81917676D01*
X95418668Y-81922183D01*
X95418669Y-81922185D01*
X95531117Y-82082777D01*
X95543023Y-82099781D01*
X95700219Y-82256977D01*
X95704727Y-82260134D01*
X95704730Y-82260136D01*
X95753890Y-82294558D01*
X95882323Y-82384488D01*
X95887305Y-82386811D01*
X95887310Y-82386814D01*
X96077810Y-82475645D01*
X96083804Y-82478440D01*
X96089112Y-82479862D01*
X96089114Y-82479863D01*
X96154949Y-82497503D01*
X96298537Y-82535978D01*
X96520000Y-82555353D01*
X96741463Y-82535978D01*
X96885051Y-82497503D01*
X96950886Y-82479863D01*
X96950888Y-82479862D01*
X96956196Y-82478440D01*
X96962190Y-82475645D01*
X97152690Y-82386814D01*
X97152695Y-82386811D01*
X97157677Y-82384488D01*
X97286110Y-82294558D01*
X97335270Y-82260136D01*
X97335273Y-82260134D01*
X97339781Y-82256977D01*
X97496977Y-82099781D01*
X97508884Y-82082777D01*
X97621331Y-81922185D01*
X97621332Y-81922183D01*
X97624488Y-81917676D01*
X97626811Y-81912694D01*
X97626814Y-81912689D01*
X97675805Y-81807627D01*
X97722723Y-81754342D01*
X97791000Y-81734881D01*
X97858960Y-81755423D01*
X97904195Y-81807627D01*
X97953186Y-81912689D01*
X97953189Y-81912694D01*
X97955512Y-81917676D01*
X97958668Y-81922183D01*
X97958669Y-81922185D01*
X98071117Y-82082777D01*
X98083023Y-82099781D01*
X98240219Y-82256977D01*
X98244727Y-82260134D01*
X98244730Y-82260136D01*
X98293890Y-82294558D01*
X98422323Y-82384488D01*
X98427305Y-82386811D01*
X98427310Y-82386814D01*
X98617810Y-82475645D01*
X98623804Y-82478440D01*
X98629112Y-82479862D01*
X98629114Y-82479863D01*
X98694949Y-82497503D01*
X98838537Y-82535978D01*
X99060000Y-82555353D01*
X99281463Y-82535978D01*
X99425051Y-82497503D01*
X99490886Y-82479863D01*
X99490888Y-82479862D01*
X99496196Y-82478440D01*
X99502190Y-82475645D01*
X99692690Y-82386814D01*
X99692695Y-82386811D01*
X99697677Y-82384488D01*
X99826110Y-82294558D01*
X99875270Y-82260136D01*
X99875273Y-82260134D01*
X99879781Y-82256977D01*
X100036977Y-82099781D01*
X100048884Y-82082777D01*
X100161331Y-81922185D01*
X100161332Y-81922183D01*
X100164488Y-81917676D01*
X100166811Y-81912694D01*
X100166814Y-81912689D01*
X100215805Y-81807627D01*
X100262723Y-81754342D01*
X100331000Y-81734881D01*
X100398960Y-81755423D01*
X100444195Y-81807627D01*
X100493186Y-81912689D01*
X100493189Y-81912694D01*
X100495512Y-81917676D01*
X100498668Y-81922183D01*
X100498669Y-81922185D01*
X100611117Y-82082777D01*
X100623023Y-82099781D01*
X100780219Y-82256977D01*
X100784727Y-82260134D01*
X100784730Y-82260136D01*
X100833890Y-82294558D01*
X100962323Y-82384488D01*
X100967305Y-82386811D01*
X100967310Y-82386814D01*
X101157810Y-82475645D01*
X101163804Y-82478440D01*
X101169112Y-82479862D01*
X101169114Y-82479863D01*
X101234949Y-82497503D01*
X101378537Y-82535978D01*
X101600000Y-82555353D01*
X101821463Y-82535978D01*
X101965051Y-82497503D01*
X102030886Y-82479863D01*
X102030888Y-82479862D01*
X102036196Y-82478440D01*
X102042190Y-82475645D01*
X102232690Y-82386814D01*
X102232695Y-82386811D01*
X102237677Y-82384488D01*
X102366110Y-82294558D01*
X102415270Y-82260136D01*
X102415273Y-82260134D01*
X102419781Y-82256977D01*
X102576977Y-82099781D01*
X102588884Y-82082777D01*
X102701331Y-81922185D01*
X102701332Y-81922183D01*
X102704488Y-81917676D01*
X102706811Y-81912694D01*
X102706814Y-81912689D01*
X102755805Y-81807627D01*
X102802723Y-81754342D01*
X102871000Y-81734881D01*
X102938960Y-81755423D01*
X102984195Y-81807627D01*
X103033186Y-81912689D01*
X103033189Y-81912694D01*
X103035512Y-81917676D01*
X103038668Y-81922183D01*
X103038669Y-81922185D01*
X103151117Y-82082777D01*
X103163023Y-82099781D01*
X103320219Y-82256977D01*
X103324727Y-82260134D01*
X103324730Y-82260136D01*
X103373890Y-82294558D01*
X103502323Y-82384488D01*
X103507305Y-82386811D01*
X103507310Y-82386814D01*
X103697810Y-82475645D01*
X103703804Y-82478440D01*
X103709112Y-82479862D01*
X103709114Y-82479863D01*
X103774949Y-82497503D01*
X103918537Y-82535978D01*
X104140000Y-82555353D01*
X104361463Y-82535978D01*
X104505051Y-82497503D01*
X104570886Y-82479863D01*
X104570888Y-82479862D01*
X104576196Y-82478440D01*
X104582190Y-82475645D01*
X104772690Y-82386814D01*
X104772695Y-82386811D01*
X104777677Y-82384488D01*
X104906110Y-82294558D01*
X104955270Y-82260136D01*
X104955273Y-82260134D01*
X104959781Y-82256977D01*
X105116977Y-82099781D01*
X105128884Y-82082777D01*
X105241331Y-81922185D01*
X105241332Y-81922183D01*
X105244488Y-81917676D01*
X105246811Y-81912694D01*
X105246814Y-81912689D01*
X105295805Y-81807627D01*
X105342723Y-81754342D01*
X105411000Y-81734881D01*
X105478960Y-81755423D01*
X105524195Y-81807627D01*
X105573186Y-81912689D01*
X105573189Y-81912694D01*
X105575512Y-81917676D01*
X105578668Y-81922183D01*
X105578669Y-81922185D01*
X105691117Y-82082777D01*
X105703023Y-82099781D01*
X105860219Y-82256977D01*
X105864727Y-82260134D01*
X105864730Y-82260136D01*
X105913890Y-82294558D01*
X106042323Y-82384488D01*
X106047305Y-82386811D01*
X106047310Y-82386814D01*
X106237810Y-82475645D01*
X106243804Y-82478440D01*
X106249112Y-82479862D01*
X106249114Y-82479863D01*
X106314949Y-82497503D01*
X106458537Y-82535978D01*
X106680000Y-82555353D01*
X106901463Y-82535978D01*
X107045051Y-82497503D01*
X107110886Y-82479863D01*
X107110888Y-82479862D01*
X107116196Y-82478440D01*
X107122190Y-82475645D01*
X107312690Y-82386814D01*
X107312695Y-82386811D01*
X107317677Y-82384488D01*
X107446110Y-82294558D01*
X107495270Y-82260136D01*
X107495273Y-82260134D01*
X107499781Y-82256977D01*
X107656977Y-82099781D01*
X107668884Y-82082777D01*
X107781331Y-81922185D01*
X107781332Y-81922183D01*
X107784488Y-81917676D01*
X107786811Y-81912694D01*
X107786814Y-81912689D01*
X107835805Y-81807627D01*
X107882723Y-81754342D01*
X107951000Y-81734881D01*
X108018960Y-81755423D01*
X108064195Y-81807627D01*
X108113186Y-81912689D01*
X108113189Y-81912694D01*
X108115512Y-81917676D01*
X108118668Y-81922183D01*
X108118669Y-81922185D01*
X108231117Y-82082777D01*
X108243023Y-82099781D01*
X108400219Y-82256977D01*
X108404727Y-82260134D01*
X108404730Y-82260136D01*
X108453890Y-82294558D01*
X108582323Y-82384488D01*
X108587305Y-82386811D01*
X108587310Y-82386814D01*
X108777810Y-82475645D01*
X108783804Y-82478440D01*
X108789112Y-82479862D01*
X108789114Y-82479863D01*
X108854949Y-82497503D01*
X108998537Y-82535978D01*
X109220000Y-82555353D01*
X109441463Y-82535978D01*
X109585051Y-82497503D01*
X109650886Y-82479863D01*
X109650888Y-82479862D01*
X109656196Y-82478440D01*
X109662190Y-82475645D01*
X109852690Y-82386814D01*
X109852695Y-82386811D01*
X109857677Y-82384488D01*
X109986110Y-82294558D01*
X110035270Y-82260136D01*
X110035273Y-82260134D01*
X110039781Y-82256977D01*
X110196977Y-82099781D01*
X110208884Y-82082777D01*
X110321331Y-81922185D01*
X110321332Y-81922183D01*
X110324488Y-81917676D01*
X110326811Y-81912694D01*
X110326814Y-81912689D01*
X110416117Y-81721178D01*
X110416118Y-81721177D01*
X110418440Y-81716196D01*
X110475978Y-81501463D01*
X110495353Y-81280000D01*
X110475978Y-81058537D01*
X110418440Y-80843804D01*
X110375805Y-80752373D01*
X110326814Y-80647311D01*
X110326811Y-80647306D01*
X110324488Y-80642324D01*
X110321331Y-80637815D01*
X110200136Y-80464730D01*
X110200134Y-80464727D01*
X110196977Y-80460219D01*
X110039781Y-80303023D01*
X110035273Y-80299866D01*
X110035270Y-80299864D01*
X109959505Y-80246813D01*
X109857677Y-80175512D01*
X109852695Y-80173189D01*
X109852690Y-80173186D01*
X109661178Y-80083883D01*
X109661177Y-80083882D01*
X109656196Y-80081560D01*
X109650888Y-80080138D01*
X109650886Y-80080137D01*
X109585051Y-80062497D01*
X109441463Y-80024022D01*
X109220000Y-80004647D01*
X108998537Y-80024022D01*
X108854949Y-80062497D01*
X108789114Y-80080137D01*
X108789112Y-80080138D01*
X108783804Y-80081560D01*
X108778823Y-80083882D01*
X108778822Y-80083883D01*
X108587311Y-80173186D01*
X108587306Y-80173189D01*
X108582324Y-80175512D01*
X108577817Y-80178668D01*
X108577815Y-80178669D01*
X108404730Y-80299864D01*
X108404727Y-80299866D01*
X108400219Y-80303023D01*
X108243023Y-80460219D01*
X108239866Y-80464727D01*
X108239864Y-80464730D01*
X108118669Y-80637815D01*
X108115512Y-80642324D01*
X108113189Y-80647306D01*
X108113186Y-80647311D01*
X108064195Y-80752373D01*
X108017277Y-80805658D01*
X107949000Y-80825119D01*
X107881040Y-80804577D01*
X107835805Y-80752373D01*
X107786814Y-80647311D01*
X107786811Y-80647306D01*
X107784488Y-80642324D01*
X107781331Y-80637815D01*
X107660136Y-80464730D01*
X107660134Y-80464727D01*
X107656977Y-80460219D01*
X107499781Y-80303023D01*
X107495273Y-80299866D01*
X107495270Y-80299864D01*
X107419505Y-80246813D01*
X107317677Y-80175512D01*
X107312695Y-80173189D01*
X107312690Y-80173186D01*
X107121178Y-80083883D01*
X107121177Y-80083882D01*
X107116196Y-80081560D01*
X107110888Y-80080138D01*
X107110886Y-80080137D01*
X107045051Y-80062497D01*
X106901463Y-80024022D01*
X106680000Y-80004647D01*
X106458537Y-80024022D01*
X106314949Y-80062497D01*
X106249114Y-80080137D01*
X106249112Y-80080138D01*
X106243804Y-80081560D01*
X106238823Y-80083882D01*
X106238822Y-80083883D01*
X106047311Y-80173186D01*
X106047306Y-80173189D01*
X106042324Y-80175512D01*
X106037817Y-80178668D01*
X106037815Y-80178669D01*
X105864730Y-80299864D01*
X105864727Y-80299866D01*
X105860219Y-80303023D01*
X105703023Y-80460219D01*
X105699866Y-80464727D01*
X105699864Y-80464730D01*
X105578669Y-80637815D01*
X105575512Y-80642324D01*
X105573189Y-80647306D01*
X105573186Y-80647311D01*
X105524195Y-80752373D01*
X105477277Y-80805658D01*
X105409000Y-80825119D01*
X105341040Y-80804577D01*
X105295805Y-80752373D01*
X105246814Y-80647311D01*
X105246811Y-80647306D01*
X105244488Y-80642324D01*
X105241331Y-80637815D01*
X105120136Y-80464730D01*
X105120134Y-80464727D01*
X105116977Y-80460219D01*
X104959781Y-80303023D01*
X104955273Y-80299866D01*
X104955270Y-80299864D01*
X104879505Y-80246813D01*
X104777677Y-80175512D01*
X104772695Y-80173189D01*
X104772690Y-80173186D01*
X104581178Y-80083883D01*
X104581177Y-80083882D01*
X104576196Y-80081560D01*
X104570888Y-80080138D01*
X104570886Y-80080137D01*
X104505051Y-80062497D01*
X104361463Y-80024022D01*
X104140000Y-80004647D01*
X103918537Y-80024022D01*
X103774949Y-80062497D01*
X103709114Y-80080137D01*
X103709112Y-80080138D01*
X103703804Y-80081560D01*
X103698823Y-80083882D01*
X103698822Y-80083883D01*
X103507311Y-80173186D01*
X103507306Y-80173189D01*
X103502324Y-80175512D01*
X103497817Y-80178668D01*
X103497815Y-80178669D01*
X103324730Y-80299864D01*
X103324727Y-80299866D01*
X103320219Y-80303023D01*
X103163023Y-80460219D01*
X103159866Y-80464727D01*
X103159864Y-80464730D01*
X103038669Y-80637815D01*
X103035512Y-80642324D01*
X103033189Y-80647306D01*
X103033186Y-80647311D01*
X102984195Y-80752373D01*
X102937277Y-80805658D01*
X102869000Y-80825119D01*
X102801040Y-80804577D01*
X102755805Y-80752373D01*
X102706814Y-80647311D01*
X102706811Y-80647306D01*
X102704488Y-80642324D01*
X102701331Y-80637815D01*
X102580136Y-80464730D01*
X102580134Y-80464727D01*
X102576977Y-80460219D01*
X102419781Y-80303023D01*
X102415273Y-80299866D01*
X102415270Y-80299864D01*
X102339505Y-80246813D01*
X102237677Y-80175512D01*
X102232695Y-80173189D01*
X102232690Y-80173186D01*
X102041178Y-80083883D01*
X102041177Y-80083882D01*
X102036196Y-80081560D01*
X102030888Y-80080138D01*
X102030886Y-80080137D01*
X101965051Y-80062497D01*
X101821463Y-80024022D01*
X101600000Y-80004647D01*
X101378537Y-80024022D01*
X101234949Y-80062497D01*
X101169114Y-80080137D01*
X101169112Y-80080138D01*
X101163804Y-80081560D01*
X101158823Y-80083882D01*
X101158822Y-80083883D01*
X100967311Y-80173186D01*
X100967306Y-80173189D01*
X100962324Y-80175512D01*
X100957817Y-80178668D01*
X100957815Y-80178669D01*
X100784730Y-80299864D01*
X100784727Y-80299866D01*
X100780219Y-80303023D01*
X100623023Y-80460219D01*
X100619866Y-80464727D01*
X100619864Y-80464730D01*
X100498669Y-80637815D01*
X100495512Y-80642324D01*
X100493189Y-80647306D01*
X100493186Y-80647311D01*
X100444195Y-80752373D01*
X100397277Y-80805658D01*
X100329000Y-80825119D01*
X100261040Y-80804577D01*
X100215805Y-80752373D01*
X100166814Y-80647311D01*
X100166811Y-80647306D01*
X100164488Y-80642324D01*
X100161331Y-80637815D01*
X100040136Y-80464730D01*
X100040134Y-80464727D01*
X100036977Y-80460219D01*
X99879781Y-80303023D01*
X99875273Y-80299866D01*
X99875270Y-80299864D01*
X99799505Y-80246813D01*
X99697677Y-80175512D01*
X99692695Y-80173189D01*
X99692690Y-80173186D01*
X99501178Y-80083883D01*
X99501177Y-80083882D01*
X99496196Y-80081560D01*
X99490888Y-80080138D01*
X99490886Y-80080137D01*
X99425051Y-80062497D01*
X99281463Y-80024022D01*
X99060000Y-80004647D01*
X98838537Y-80024022D01*
X98694949Y-80062497D01*
X98629114Y-80080137D01*
X98629112Y-80080138D01*
X98623804Y-80081560D01*
X98618823Y-80083882D01*
X98618822Y-80083883D01*
X98427311Y-80173186D01*
X98427306Y-80173189D01*
X98422324Y-80175512D01*
X98417817Y-80178668D01*
X98417815Y-80178669D01*
X98244730Y-80299864D01*
X98244727Y-80299866D01*
X98240219Y-80303023D01*
X98083023Y-80460219D01*
X98079866Y-80464727D01*
X98079864Y-80464730D01*
X97958669Y-80637815D01*
X97955512Y-80642324D01*
X97953189Y-80647306D01*
X97953186Y-80647311D01*
X97904195Y-80752373D01*
X97857277Y-80805658D01*
X97789000Y-80825119D01*
X97721040Y-80804577D01*
X97675805Y-80752373D01*
X97626814Y-80647311D01*
X97626811Y-80647306D01*
X97624488Y-80642324D01*
X97621331Y-80637815D01*
X97500136Y-80464730D01*
X97500134Y-80464727D01*
X97496977Y-80460219D01*
X97339781Y-80303023D01*
X97335273Y-80299866D01*
X97335270Y-80299864D01*
X97259505Y-80246813D01*
X97157677Y-80175512D01*
X97152695Y-80173189D01*
X97152690Y-80173186D01*
X96961178Y-80083883D01*
X96961177Y-80083882D01*
X96956196Y-80081560D01*
X96950888Y-80080138D01*
X96950886Y-80080137D01*
X96885051Y-80062497D01*
X96741463Y-80024022D01*
X96520000Y-80004647D01*
X96298537Y-80024022D01*
X96154949Y-80062497D01*
X96089114Y-80080137D01*
X96089112Y-80080138D01*
X96083804Y-80081560D01*
X96078823Y-80083882D01*
X96078822Y-80083883D01*
X95887311Y-80173186D01*
X95887306Y-80173189D01*
X95882324Y-80175512D01*
X95877817Y-80178668D01*
X95877815Y-80178669D01*
X95704730Y-80299864D01*
X95704727Y-80299866D01*
X95700219Y-80303023D01*
X95543023Y-80460219D01*
X95539866Y-80464727D01*
X95539864Y-80464730D01*
X95418669Y-80637815D01*
X95415512Y-80642324D01*
X95413189Y-80647306D01*
X95413186Y-80647311D01*
X95364195Y-80752373D01*
X95317277Y-80805658D01*
X95249000Y-80825119D01*
X95181040Y-80804577D01*
X95135805Y-80752373D01*
X95086814Y-80647311D01*
X95086811Y-80647306D01*
X95084488Y-80642324D01*
X95081331Y-80637815D01*
X94960136Y-80464730D01*
X94960134Y-80464727D01*
X94956977Y-80460219D01*
X94799781Y-80303023D01*
X94795273Y-80299866D01*
X94795270Y-80299864D01*
X94719505Y-80246813D01*
X94617677Y-80175512D01*
X94612695Y-80173189D01*
X94612690Y-80173186D01*
X94421178Y-80083883D01*
X94421177Y-80083882D01*
X94416196Y-80081560D01*
X94410888Y-80080138D01*
X94410886Y-80080137D01*
X94345051Y-80062497D01*
X94201463Y-80024022D01*
X93980000Y-80004647D01*
X93758537Y-80024022D01*
X93614949Y-80062497D01*
X93549114Y-80080137D01*
X93549112Y-80080138D01*
X93543804Y-80081560D01*
X93538823Y-80083882D01*
X93538822Y-80083883D01*
X93347311Y-80173186D01*
X93347306Y-80173189D01*
X93342324Y-80175512D01*
X93337817Y-80178668D01*
X93337815Y-80178669D01*
X93164730Y-80299864D01*
X93164727Y-80299866D01*
X93160219Y-80303023D01*
X93003023Y-80460219D01*
X92999866Y-80464727D01*
X92999864Y-80464730D01*
X92878669Y-80637815D01*
X92875512Y-80642324D01*
X92873189Y-80647306D01*
X92873186Y-80647311D01*
X92824195Y-80752373D01*
X92777277Y-80805658D01*
X92709000Y-80825119D01*
X92641040Y-80804577D01*
X92595805Y-80752373D01*
X92546814Y-80647311D01*
X92546811Y-80647306D01*
X92544488Y-80642324D01*
X92541331Y-80637815D01*
X92420136Y-80464730D01*
X92420134Y-80464727D01*
X92416977Y-80460219D01*
X92259781Y-80303023D01*
X92255273Y-80299866D01*
X92255270Y-80299864D01*
X92179505Y-80246813D01*
X92077677Y-80175512D01*
X92072695Y-80173189D01*
X92072690Y-80173186D01*
X91881178Y-80083883D01*
X91881177Y-80083882D01*
X91876196Y-80081560D01*
X91870888Y-80080138D01*
X91870886Y-80080137D01*
X91805051Y-80062497D01*
X91661463Y-80024022D01*
X91440000Y-80004647D01*
X91218537Y-80024022D01*
X91074949Y-80062497D01*
X91009114Y-80080137D01*
X91009112Y-80080138D01*
X91003804Y-80081560D01*
X90998823Y-80083882D01*
X90998822Y-80083883D01*
X90807311Y-80173186D01*
X90807306Y-80173189D01*
X90802324Y-80175512D01*
X90797817Y-80178668D01*
X90797815Y-80178669D01*
X90624730Y-80299864D01*
X90624727Y-80299866D01*
X90620219Y-80303023D01*
X90463023Y-80460219D01*
X90459866Y-80464727D01*
X90459864Y-80464730D01*
X90338669Y-80637815D01*
X90335512Y-80642324D01*
X90333189Y-80647306D01*
X90333186Y-80647311D01*
X90284195Y-80752373D01*
X90237277Y-80805658D01*
X90169000Y-80825119D01*
X90101040Y-80804577D01*
X90055805Y-80752373D01*
X90006814Y-80647311D01*
X90006811Y-80647306D01*
X90004488Y-80642324D01*
X90001331Y-80637815D01*
X89880136Y-80464730D01*
X89880134Y-80464727D01*
X89876977Y-80460219D01*
X89719781Y-80303023D01*
X89715273Y-80299866D01*
X89715270Y-80299864D01*
X89639505Y-80246813D01*
X89537677Y-80175512D01*
X89532695Y-80173189D01*
X89532690Y-80173186D01*
X89341178Y-80083883D01*
X89341177Y-80083882D01*
X89336196Y-80081560D01*
X89330888Y-80080138D01*
X89330886Y-80080137D01*
X89265051Y-80062497D01*
X89121463Y-80024022D01*
X88900000Y-80004647D01*
X88678537Y-80024022D01*
X88534949Y-80062497D01*
X88469114Y-80080137D01*
X88469112Y-80080138D01*
X88463804Y-80081560D01*
X88458823Y-80083882D01*
X88458822Y-80083883D01*
X88267311Y-80173186D01*
X88267306Y-80173189D01*
X88262324Y-80175512D01*
X88257817Y-80178668D01*
X88257815Y-80178669D01*
X88084730Y-80299864D01*
X88084727Y-80299866D01*
X88080219Y-80303023D01*
X87923023Y-80460219D01*
X87919866Y-80464727D01*
X87919864Y-80464730D01*
X87798669Y-80637815D01*
X87795512Y-80642324D01*
X87793189Y-80647306D01*
X87793186Y-80647311D01*
X87744195Y-80752373D01*
X87697277Y-80805658D01*
X87629000Y-80825119D01*
X87561040Y-80804577D01*
X87515805Y-80752373D01*
X87466814Y-80647311D01*
X87466811Y-80647306D01*
X87464488Y-80642324D01*
X87461331Y-80637815D01*
X87340136Y-80464730D01*
X87340134Y-80464727D01*
X87336977Y-80460219D01*
X87179781Y-80303023D01*
X87175273Y-80299866D01*
X87175270Y-80299864D01*
X87099505Y-80246813D01*
X86997677Y-80175512D01*
X86992695Y-80173189D01*
X86992690Y-80173186D01*
X86801178Y-80083883D01*
X86801177Y-80083882D01*
X86796196Y-80081560D01*
X86790888Y-80080138D01*
X86790886Y-80080137D01*
X86725051Y-80062497D01*
X86581463Y-80024022D01*
X86360000Y-80004647D01*
X86138537Y-80024022D01*
X85994949Y-80062497D01*
X85929114Y-80080137D01*
X85929112Y-80080138D01*
X85923804Y-80081560D01*
X85918823Y-80083882D01*
X85918822Y-80083883D01*
X85727311Y-80173186D01*
X85727306Y-80173189D01*
X85722324Y-80175512D01*
X85717817Y-80178668D01*
X85717815Y-80178669D01*
X85544730Y-80299864D01*
X85544727Y-80299866D01*
X85540219Y-80303023D01*
X85383023Y-80460219D01*
X85379866Y-80464727D01*
X85379864Y-80464730D01*
X85258669Y-80637815D01*
X85255512Y-80642324D01*
X85253189Y-80647306D01*
X85253186Y-80647311D01*
X85204195Y-80752373D01*
X85157277Y-80805658D01*
X85089000Y-80825119D01*
X85021040Y-80804577D01*
X84975805Y-80752373D01*
X84926814Y-80647311D01*
X84926811Y-80647306D01*
X84924488Y-80642324D01*
X84921331Y-80637815D01*
X84800136Y-80464730D01*
X84800134Y-80464727D01*
X84796977Y-80460219D01*
X84639781Y-80303023D01*
X84635273Y-80299866D01*
X84635270Y-80299864D01*
X84559505Y-80246813D01*
X84457677Y-80175512D01*
X84452695Y-80173189D01*
X84452690Y-80173186D01*
X84261178Y-80083883D01*
X84261177Y-80083882D01*
X84256196Y-80081560D01*
X84250888Y-80080138D01*
X84250886Y-80080137D01*
X84185051Y-80062497D01*
X84041463Y-80024022D01*
X83820000Y-80004647D01*
X83598537Y-80024022D01*
X83454949Y-80062497D01*
X83389114Y-80080137D01*
X83389112Y-80080138D01*
X83383804Y-80081560D01*
X83378823Y-80083882D01*
X83378822Y-80083883D01*
X83187311Y-80173186D01*
X83187306Y-80173189D01*
X83182324Y-80175512D01*
X83177817Y-80178668D01*
X83177815Y-80178669D01*
X83004730Y-80299864D01*
X83004727Y-80299866D01*
X83000219Y-80303023D01*
X82843023Y-80460219D01*
X82839866Y-80464727D01*
X82839864Y-80464730D01*
X82718669Y-80637815D01*
X82715512Y-80642324D01*
X82713189Y-80647306D01*
X82713186Y-80647311D01*
X82664195Y-80752373D01*
X82617277Y-80805658D01*
X82549000Y-80825119D01*
X82481040Y-80804577D01*
X82435805Y-80752373D01*
X82386814Y-80647311D01*
X82386811Y-80647306D01*
X82384488Y-80642324D01*
X82381331Y-80637815D01*
X82260136Y-80464730D01*
X82260134Y-80464727D01*
X82256977Y-80460219D01*
X82099781Y-80303023D01*
X82095273Y-80299866D01*
X82095270Y-80299864D01*
X82019505Y-80246813D01*
X81917677Y-80175512D01*
X81912695Y-80173189D01*
X81912690Y-80173186D01*
X81721178Y-80083883D01*
X81721177Y-80083882D01*
X81716196Y-80081560D01*
X81710888Y-80080138D01*
X81710886Y-80080137D01*
X81645051Y-80062497D01*
X81501463Y-80024022D01*
X81280000Y-80004647D01*
X81058537Y-80024022D01*
X80914949Y-80062497D01*
X80849114Y-80080137D01*
X80849112Y-80080138D01*
X80843804Y-80081560D01*
X80838823Y-80083882D01*
X80838822Y-80083883D01*
X80647311Y-80173186D01*
X80647306Y-80173189D01*
X80642324Y-80175512D01*
X80637817Y-80178668D01*
X80637815Y-80178669D01*
X80464730Y-80299864D01*
X80464727Y-80299866D01*
X80460219Y-80303023D01*
X80303023Y-80460219D01*
X80299866Y-80464727D01*
X80299864Y-80464730D01*
X80178669Y-80637815D01*
X80175512Y-80642324D01*
X80173189Y-80647306D01*
X80173186Y-80647311D01*
X80124195Y-80752373D01*
X80077277Y-80805658D01*
X80009000Y-80825119D01*
X79941040Y-80804577D01*
X79895805Y-80752373D01*
X79846814Y-80647311D01*
X79846811Y-80647306D01*
X79844488Y-80642324D01*
X79841331Y-80637815D01*
X79720136Y-80464730D01*
X79720134Y-80464727D01*
X79716977Y-80460219D01*
X79559781Y-80303023D01*
X79555273Y-80299866D01*
X79555270Y-80299864D01*
X79479505Y-80246813D01*
X79377677Y-80175512D01*
X79372695Y-80173189D01*
X79372690Y-80173186D01*
X79181178Y-80083883D01*
X79181177Y-80083882D01*
X79176196Y-80081560D01*
X79170888Y-80080138D01*
X79170886Y-80080137D01*
X79105051Y-80062497D01*
X78961463Y-80024022D01*
X78740000Y-80004647D01*
X78518537Y-80024022D01*
X78374949Y-80062497D01*
X78309114Y-80080137D01*
X78309112Y-80080138D01*
X78303804Y-80081560D01*
X78298823Y-80083882D01*
X78298822Y-80083883D01*
X78107311Y-80173186D01*
X78107306Y-80173189D01*
X78102324Y-80175512D01*
X78097817Y-80178668D01*
X78097815Y-80178669D01*
X77924730Y-80299864D01*
X77924727Y-80299866D01*
X77920219Y-80303023D01*
X77763023Y-80460219D01*
X77759866Y-80464727D01*
X77759864Y-80464730D01*
X77638669Y-80637815D01*
X77635512Y-80642324D01*
X77633189Y-80647306D01*
X77633186Y-80647311D01*
X77584195Y-80752373D01*
X77537277Y-80805658D01*
X77469000Y-80825119D01*
X77401040Y-80804577D01*
X77355805Y-80752373D01*
X77306814Y-80647311D01*
X77306811Y-80647306D01*
X77304488Y-80642324D01*
X77301331Y-80637815D01*
X77180136Y-80464730D01*
X77180134Y-80464727D01*
X77176977Y-80460219D01*
X77019781Y-80303023D01*
X77015273Y-80299866D01*
X77015270Y-80299864D01*
X76939505Y-80246813D01*
X76837677Y-80175512D01*
X76832695Y-80173189D01*
X76832690Y-80173186D01*
X76641178Y-80083883D01*
X76641177Y-80083882D01*
X76636196Y-80081560D01*
X76630888Y-80080138D01*
X76630886Y-80080137D01*
X76565051Y-80062497D01*
X76421463Y-80024022D01*
X76200000Y-80004647D01*
X75978537Y-80024022D01*
X75834949Y-80062497D01*
X75769114Y-80080137D01*
X75769112Y-80080138D01*
X75763804Y-80081560D01*
X75758823Y-80083882D01*
X75758822Y-80083883D01*
X75567311Y-80173186D01*
X75567306Y-80173189D01*
X75562324Y-80175512D01*
X75557817Y-80178668D01*
X75557815Y-80178669D01*
X75384730Y-80299864D01*
X75384727Y-80299866D01*
X75380219Y-80303023D01*
X75223023Y-80460219D01*
X75219866Y-80464727D01*
X75219864Y-80464730D01*
X75098669Y-80637815D01*
X75095512Y-80642324D01*
X75093189Y-80647306D01*
X75093186Y-80647311D01*
X75043919Y-80752965D01*
X74997001Y-80806250D01*
X74928724Y-80825711D01*
X74860764Y-80805169D01*
X74815529Y-80752965D01*
X74766377Y-80647559D01*
X74760897Y-80638068D01*
X74730206Y-80594235D01*
X74719729Y-80585860D01*
X74706282Y-80592928D01*
X74032022Y-81267188D01*
X74024408Y-81281132D01*
X74024539Y-81282965D01*
X74028790Y-81289580D01*
X74707003Y-81967793D01*
X74718777Y-81974223D01*
X74730793Y-81964926D01*
X74760897Y-81921932D01*
X74766377Y-81912441D01*
X74815529Y-81807035D01*
X74862447Y-81753750D01*
X74930724Y-81734289D01*
X74998684Y-81754831D01*
X75043919Y-81807035D01*
X75093186Y-81912689D01*
X75093189Y-81912694D01*
X75095512Y-81917676D01*
X75098668Y-81922183D01*
X75098669Y-81922185D01*
X75211117Y-82082777D01*
X75223023Y-82099781D01*
X75380219Y-82256977D01*
X75384727Y-82260134D01*
X75384730Y-82260136D01*
X75433890Y-82294558D01*
X75562323Y-82384488D01*
X75567305Y-82386811D01*
X75567310Y-82386814D01*
X75757810Y-82475645D01*
X75763804Y-82478440D01*
X75769112Y-82479862D01*
X75769114Y-82479863D01*
X75834949Y-82497503D01*
X75978537Y-82535978D01*
X76200000Y-82555353D01*
X76421463Y-82535978D01*
X76565051Y-82497503D01*
X76630886Y-82479863D01*
X76630888Y-82479862D01*
X76636196Y-82478440D01*
X76642190Y-82475645D01*
X76832690Y-82386814D01*
X76832695Y-82386811D01*
X76837677Y-82384488D01*
X76966110Y-82294558D01*
X77015270Y-82260136D01*
X77015273Y-82260134D01*
X77019781Y-82256977D01*
X77176977Y-82099781D01*
X77188884Y-82082777D01*
X77301331Y-81922185D01*
X77301332Y-81922183D01*
X77304488Y-81917676D01*
X77306811Y-81912694D01*
X77306814Y-81912689D01*
X77355805Y-81807627D01*
X77402723Y-81754342D01*
X77471000Y-81734881D01*
X77538960Y-81755423D01*
X77584195Y-81807627D01*
X77633186Y-81912689D01*
X77633189Y-81912694D01*
X77635512Y-81917676D01*
X77638668Y-81922183D01*
X77638669Y-81922185D01*
X77751117Y-82082777D01*
X77763023Y-82099781D01*
X77920219Y-82256977D01*
X77924727Y-82260134D01*
X77924730Y-82260136D01*
X77973890Y-82294558D01*
X78102323Y-82384488D01*
X78107305Y-82386811D01*
X78107310Y-82386814D01*
X78297810Y-82475645D01*
X78303804Y-82478440D01*
X78309112Y-82479862D01*
X78309114Y-82479863D01*
X78374949Y-82497503D01*
X78518537Y-82535978D01*
X78740000Y-82555353D01*
X78961463Y-82535978D01*
X78977642Y-82531643D01*
X79000516Y-82525514D01*
X79071493Y-82527204D01*
X79122222Y-82558126D01*
X80776343Y-84212247D01*
X80783887Y-84220537D01*
X80788000Y-84227018D01*
X80793777Y-84232443D01*
X80837667Y-84273658D01*
X80840509Y-84276413D01*
X80860230Y-84296134D01*
X80863425Y-84298612D01*
X80872447Y-84306318D01*
X80904679Y-84336586D01*
X80911628Y-84340406D01*
X80922432Y-84346346D01*
X80938956Y-84357199D01*
X80954959Y-84369613D01*
X80995543Y-84387176D01*
X81006173Y-84392383D01*
X81044940Y-84413695D01*
X81052617Y-84415666D01*
X81052622Y-84415668D01*
X81064558Y-84418732D01*
X81083266Y-84425137D01*
X81101855Y-84433181D01*
X81109680Y-84434420D01*
X81109682Y-84434421D01*
X81145519Y-84440097D01*
X81157140Y-84442504D01*
X81188959Y-84450673D01*
X81199970Y-84453500D01*
X81220231Y-84453500D01*
X81239940Y-84455051D01*
X81259943Y-84458219D01*
X81267835Y-84457473D01*
X81273062Y-84456979D01*
X81303954Y-84454059D01*
X81315811Y-84453500D01*
X119936951Y-84453500D01*
X119948134Y-84454027D01*
X119955627Y-84455702D01*
X119963553Y-84455453D01*
X119963554Y-84455453D01*
X120023704Y-84453562D01*
X120027663Y-84453500D01*
X120055574Y-84453500D01*
X120059509Y-84453003D01*
X120059574Y-84452995D01*
X120071411Y-84452062D01*
X120103669Y-84451048D01*
X120107688Y-84450922D01*
X120115607Y-84450673D01*
X120135061Y-84445021D01*
X120154418Y-84441013D01*
X120166648Y-84439468D01*
X120166649Y-84439468D01*
X120174515Y-84438474D01*
X120181886Y-84435555D01*
X120181888Y-84435555D01*
X120215630Y-84422196D01*
X120226860Y-84418351D01*
X120261701Y-84408229D01*
X120261702Y-84408229D01*
X120269311Y-84406018D01*
X120276130Y-84401985D01*
X120276135Y-84401983D01*
X120286746Y-84395707D01*
X120304494Y-84387012D01*
X120323335Y-84379552D01*
X120343705Y-84364753D01*
X120359105Y-84353564D01*
X120369025Y-84347048D01*
X120400253Y-84328580D01*
X120400256Y-84328578D01*
X120407080Y-84324542D01*
X120421401Y-84310221D01*
X120436435Y-84297380D01*
X120438150Y-84296134D01*
X120452825Y-84285472D01*
X120481016Y-84251395D01*
X120489006Y-84242616D01*
X132476284Y-72255339D01*
X132484570Y-72247799D01*
X132491049Y-72243687D01*
X132537675Y-72194035D01*
X132540429Y-72191194D01*
X132560166Y-72171457D01*
X132562646Y-72168260D01*
X132570351Y-72159238D01*
X132595190Y-72132787D01*
X132600617Y-72127008D01*
X132604436Y-72120062D01*
X132604438Y-72120059D01*
X132610379Y-72109253D01*
X132621230Y-72092734D01*
X132628789Y-72082988D01*
X132633645Y-72076728D01*
X132636790Y-72069459D01*
X132636793Y-72069455D01*
X132651205Y-72036150D01*
X132656422Y-72025500D01*
X132677726Y-71986747D01*
X132682764Y-71967124D01*
X132689168Y-71948421D01*
X132694064Y-71937107D01*
X132694064Y-71937106D01*
X132697212Y-71929832D01*
X132698451Y-71922009D01*
X132698454Y-71921999D01*
X132704130Y-71886163D01*
X132706536Y-71874543D01*
X132715559Y-71839398D01*
X132715559Y-71839397D01*
X132717531Y-71831717D01*
X132717531Y-71811463D01*
X132719082Y-71791752D01*
X132721011Y-71779573D01*
X132722251Y-71771744D01*
X132718090Y-71727725D01*
X132717531Y-71715868D01*
X132717531Y-69932798D01*
X132718058Y-69921615D01*
X132719733Y-69914122D01*
X132717593Y-69846031D01*
X132717531Y-69842074D01*
X132717531Y-69814175D01*
X132717027Y-69810184D01*
X132716094Y-69798342D01*
X132714954Y-69762067D01*
X132714705Y-69754142D01*
X132712493Y-69746528D01*
X132712492Y-69746523D01*
X132709054Y-69734690D01*
X132705043Y-69715326D01*
X132703498Y-69703095D01*
X132702505Y-69695234D01*
X132699588Y-69687867D01*
X132699587Y-69687862D01*
X132686229Y-69654123D01*
X132682385Y-69642896D01*
X132672261Y-69608053D01*
X132670049Y-69600438D01*
X132659738Y-69583003D01*
X132651043Y-69565255D01*
X132643583Y-69546414D01*
X132617595Y-69510644D01*
X132611079Y-69500724D01*
X132592611Y-69469496D01*
X132592609Y-69469493D01*
X132588573Y-69462669D01*
X132574252Y-69448348D01*
X132561411Y-69433314D01*
X132554162Y-69423337D01*
X132549503Y-69416924D01*
X132543399Y-69411874D01*
X132543394Y-69411869D01*
X132515433Y-69388738D01*
X132506652Y-69380748D01*
X131856673Y-68730768D01*
X131822648Y-68668456D01*
X131820763Y-68625883D01*
X131822985Y-68608295D01*
X131823380Y-68580000D01*
X131804080Y-68383167D01*
X131746916Y-68193831D01*
X131654066Y-68019204D01*
X131650167Y-68014424D01*
X131649715Y-68013743D01*
X131628676Y-67945935D01*
X131645105Y-67881775D01*
X131732723Y-67727542D01*
X131732725Y-67727537D01*
X131735769Y-67722179D01*
X131798197Y-67534513D01*
X131822985Y-67338295D01*
X131823380Y-67310000D01*
X131804080Y-67113167D01*
X131746916Y-66923831D01*
X131654066Y-66749204D01*
X131650167Y-66744424D01*
X131649715Y-66743743D01*
X131628676Y-66675935D01*
X131645105Y-66611775D01*
X131732723Y-66457542D01*
X131732725Y-66457537D01*
X131735769Y-66452179D01*
X131798197Y-66264513D01*
X131822985Y-66068295D01*
X131823380Y-66040000D01*
X131804080Y-65843167D01*
X131746916Y-65653831D01*
X131654066Y-65479204D01*
X131583709Y-65392938D01*
X131532960Y-65330713D01*
X131532957Y-65330710D01*
X131529065Y-65325938D01*
X131478116Y-65283789D01*
X131437432Y-65221848D01*
X131435018Y-65213539D01*
X131431014Y-65194200D01*
X131429467Y-65181957D01*
X131428474Y-65174097D01*
X131425556Y-65166726D01*
X131412200Y-65132991D01*
X131408355Y-65121764D01*
X131400641Y-65095214D01*
X131396018Y-65079301D01*
X131391984Y-65072479D01*
X131391981Y-65072473D01*
X131385706Y-65061862D01*
X131377010Y-65044112D01*
X131372472Y-65032650D01*
X131372469Y-65032645D01*
X131369552Y-65025277D01*
X131343573Y-64989519D01*
X131337057Y-64979601D01*
X131318575Y-64948351D01*
X131314542Y-64941531D01*
X131300218Y-64927207D01*
X131287376Y-64912172D01*
X131275472Y-64895787D01*
X131241406Y-64867605D01*
X131232627Y-64859616D01*
X122947269Y-56574258D01*
X122939729Y-56565972D01*
X122935617Y-56559493D01*
X122885965Y-56512867D01*
X122883124Y-56510113D01*
X122863387Y-56490376D01*
X122860190Y-56487896D01*
X122851168Y-56480191D01*
X122824717Y-56455352D01*
X122818938Y-56449925D01*
X122811992Y-56446106D01*
X122811989Y-56446104D01*
X122801183Y-56440163D01*
X122784664Y-56429312D01*
X122784200Y-56428952D01*
X122768658Y-56416897D01*
X122761389Y-56413752D01*
X122761385Y-56413749D01*
X122728080Y-56399337D01*
X122717430Y-56394120D01*
X122678677Y-56372816D01*
X122659054Y-56367778D01*
X122640351Y-56361374D01*
X122629037Y-56356478D01*
X122629036Y-56356478D01*
X122621762Y-56353330D01*
X122613939Y-56352091D01*
X122613929Y-56352088D01*
X122578093Y-56346412D01*
X122566473Y-56344006D01*
X122531328Y-56334983D01*
X122531327Y-56334983D01*
X122523647Y-56333011D01*
X122503393Y-56333011D01*
X122483682Y-56331460D01*
X122471503Y-56329531D01*
X122463674Y-56328291D01*
X122455782Y-56329037D01*
X122419656Y-56332452D01*
X122407798Y-56333011D01*
X110578141Y-56333011D01*
X110510020Y-56313009D01*
X110463527Y-56259353D01*
X110453423Y-56189079D01*
X110456435Y-56174399D01*
X110474553Y-56106784D01*
X110474554Y-56106776D01*
X110475978Y-56101463D01*
X110495353Y-55880000D01*
X110475978Y-55658537D01*
X110418440Y-55443804D01*
X110375805Y-55352373D01*
X110326814Y-55247311D01*
X110326811Y-55247306D01*
X110324488Y-55242324D01*
X110196977Y-55060219D01*
X110039781Y-54903023D01*
X110035273Y-54899866D01*
X110035270Y-54899864D01*
X109900330Y-54805378D01*
X109857677Y-54775512D01*
X109852695Y-54773189D01*
X109852690Y-54773186D01*
X109661178Y-54683883D01*
X109661177Y-54683882D01*
X109656196Y-54681560D01*
X109650888Y-54680138D01*
X109650886Y-54680137D01*
X109550781Y-54653314D01*
X109441463Y-54624022D01*
X109220000Y-54604647D01*
X108998537Y-54624022D01*
X108889219Y-54653314D01*
X108789114Y-54680137D01*
X108789112Y-54680138D01*
X108783804Y-54681560D01*
X108778823Y-54683882D01*
X108778822Y-54683883D01*
X108587311Y-54773186D01*
X108587306Y-54773189D01*
X108582324Y-54775512D01*
X108577817Y-54778668D01*
X108577815Y-54778669D01*
X108404730Y-54899864D01*
X108404727Y-54899866D01*
X108400219Y-54903023D01*
X108243023Y-55060219D01*
X108115512Y-55242324D01*
X108113189Y-55247306D01*
X108113186Y-55247311D01*
X108064195Y-55352373D01*
X108017277Y-55405658D01*
X107949000Y-55425119D01*
X107881040Y-55404577D01*
X107835805Y-55352373D01*
X107786814Y-55247311D01*
X107786811Y-55247306D01*
X107784488Y-55242324D01*
X107656977Y-55060219D01*
X107499781Y-54903023D01*
X107495273Y-54899866D01*
X107495270Y-54899864D01*
X107360330Y-54805378D01*
X107317677Y-54775512D01*
X107312695Y-54773189D01*
X107312690Y-54773186D01*
X107121178Y-54683883D01*
X107121177Y-54683882D01*
X107116196Y-54681560D01*
X107110888Y-54680138D01*
X107110886Y-54680137D01*
X107010781Y-54653314D01*
X106901463Y-54624022D01*
X106680000Y-54604647D01*
X106458537Y-54624022D01*
X106349219Y-54653314D01*
X106249114Y-54680137D01*
X106249112Y-54680138D01*
X106243804Y-54681560D01*
X106238823Y-54683882D01*
X106238822Y-54683883D01*
X106047311Y-54773186D01*
X106047306Y-54773189D01*
X106042324Y-54775512D01*
X106037817Y-54778668D01*
X106037815Y-54778669D01*
X105864730Y-54899864D01*
X105864727Y-54899866D01*
X105860219Y-54903023D01*
X105703023Y-55060219D01*
X105575512Y-55242324D01*
X105573189Y-55247306D01*
X105573186Y-55247311D01*
X105524195Y-55352373D01*
X105477277Y-55405658D01*
X105409000Y-55425119D01*
X105341040Y-55404577D01*
X105295805Y-55352373D01*
X105246814Y-55247311D01*
X105246811Y-55247306D01*
X105244488Y-55242324D01*
X105116977Y-55060219D01*
X104959781Y-54903023D01*
X104955273Y-54899866D01*
X104955270Y-54899864D01*
X104820330Y-54805378D01*
X104777677Y-54775512D01*
X104772695Y-54773189D01*
X104772690Y-54773186D01*
X104581178Y-54683883D01*
X104581177Y-54683882D01*
X104576196Y-54681560D01*
X104570888Y-54680138D01*
X104570886Y-54680137D01*
X104470781Y-54653314D01*
X104361463Y-54624022D01*
X104140000Y-54604647D01*
X103918537Y-54624022D01*
X103809219Y-54653314D01*
X103709114Y-54680137D01*
X103709112Y-54680138D01*
X103703804Y-54681560D01*
X103698823Y-54683882D01*
X103698822Y-54683883D01*
X103507311Y-54773186D01*
X103507306Y-54773189D01*
X103502324Y-54775512D01*
X103497817Y-54778668D01*
X103497815Y-54778669D01*
X103324730Y-54899864D01*
X103324727Y-54899866D01*
X103320219Y-54903023D01*
X103163023Y-55060219D01*
X103035512Y-55242324D01*
X103033189Y-55247306D01*
X103033186Y-55247311D01*
X102984195Y-55352373D01*
X102937277Y-55405658D01*
X102869000Y-55425119D01*
X102801040Y-55404577D01*
X102755805Y-55352373D01*
X102706814Y-55247311D01*
X102706811Y-55247306D01*
X102704488Y-55242324D01*
X102576977Y-55060219D01*
X102419781Y-54903023D01*
X102415273Y-54899866D01*
X102415270Y-54899864D01*
X102280330Y-54805378D01*
X102237677Y-54775512D01*
X102232695Y-54773189D01*
X102232690Y-54773186D01*
X102041178Y-54683883D01*
X102041177Y-54683882D01*
X102036196Y-54681560D01*
X102030888Y-54680138D01*
X102030886Y-54680137D01*
X101930781Y-54653314D01*
X101821463Y-54624022D01*
X101600000Y-54604647D01*
X101378537Y-54624022D01*
X101269219Y-54653314D01*
X101169114Y-54680137D01*
X101169112Y-54680138D01*
X101163804Y-54681560D01*
X101158823Y-54683882D01*
X101158822Y-54683883D01*
X100967311Y-54773186D01*
X100967306Y-54773189D01*
X100962324Y-54775512D01*
X100957817Y-54778668D01*
X100957815Y-54778669D01*
X100784730Y-54899864D01*
X100784727Y-54899866D01*
X100780219Y-54903023D01*
X100623023Y-55060219D01*
X100495512Y-55242324D01*
X100493189Y-55247306D01*
X100493186Y-55247311D01*
X100444195Y-55352373D01*
X100397277Y-55405658D01*
X100329000Y-55425119D01*
X100261040Y-55404577D01*
X100215805Y-55352373D01*
X100166814Y-55247311D01*
X100166811Y-55247306D01*
X100164488Y-55242324D01*
X100036977Y-55060219D01*
X99879781Y-54903023D01*
X99875273Y-54899866D01*
X99875270Y-54899864D01*
X99740330Y-54805378D01*
X99697677Y-54775512D01*
X99692695Y-54773189D01*
X99692690Y-54773186D01*
X99501178Y-54683883D01*
X99501177Y-54683882D01*
X99496196Y-54681560D01*
X99490888Y-54680138D01*
X99490886Y-54680137D01*
X99390781Y-54653314D01*
X99281463Y-54624022D01*
X99060000Y-54604647D01*
X98838537Y-54624022D01*
X98729219Y-54653314D01*
X98629114Y-54680137D01*
X98629112Y-54680138D01*
X98623804Y-54681560D01*
X98618823Y-54683882D01*
X98618822Y-54683883D01*
X98427311Y-54773186D01*
X98427306Y-54773189D01*
X98422324Y-54775512D01*
X98417817Y-54778668D01*
X98417815Y-54778669D01*
X98244730Y-54899864D01*
X98244727Y-54899866D01*
X98240219Y-54903023D01*
X98083023Y-55060219D01*
X97955512Y-55242324D01*
X97953189Y-55247306D01*
X97953186Y-55247311D01*
X97904195Y-55352373D01*
X97857277Y-55405658D01*
X97789000Y-55425119D01*
X97721040Y-55404577D01*
X97675805Y-55352373D01*
X97626814Y-55247311D01*
X97626811Y-55247306D01*
X97624488Y-55242324D01*
X97496977Y-55060219D01*
X97339781Y-54903023D01*
X97335273Y-54899866D01*
X97335270Y-54899864D01*
X97207229Y-54810209D01*
X97162901Y-54754752D01*
X97153500Y-54706996D01*
X97153500Y-49119594D01*
X97173502Y-49051473D01*
X97190405Y-49030499D01*
X108496235Y-37724669D01*
X128182001Y-37724669D01*
X128182371Y-37731490D01*
X128187895Y-37782352D01*
X128191521Y-37797604D01*
X128236676Y-37918054D01*
X128245214Y-37933649D01*
X128321715Y-38035724D01*
X128334276Y-38048285D01*
X128436351Y-38124786D01*
X128451946Y-38133324D01*
X128572394Y-38178478D01*
X128587649Y-38182105D01*
X128638514Y-38187631D01*
X128645328Y-38188000D01*
X129267885Y-38188000D01*
X129283124Y-38183525D01*
X129284329Y-38182135D01*
X129286000Y-38174452D01*
X129286000Y-38169884D01*
X129794000Y-38169884D01*
X129798475Y-38185123D01*
X129799865Y-38186328D01*
X129807548Y-38187999D01*
X130434669Y-38187999D01*
X130441490Y-38187629D01*
X130492352Y-38182105D01*
X130507604Y-38178479D01*
X130628054Y-38133324D01*
X130643649Y-38124786D01*
X130745724Y-38048285D01*
X130758285Y-38035724D01*
X130834786Y-37933649D01*
X130843324Y-37918054D01*
X130888478Y-37797606D01*
X130892105Y-37782351D01*
X130897631Y-37731486D01*
X130898000Y-37724672D01*
X130898000Y-37102115D01*
X130893525Y-37086876D01*
X130892135Y-37085671D01*
X130884452Y-37084000D01*
X129812115Y-37084000D01*
X129796876Y-37088475D01*
X129795671Y-37089865D01*
X129794000Y-37097548D01*
X129794000Y-38169884D01*
X129286000Y-38169884D01*
X129286000Y-37102115D01*
X129281525Y-37086876D01*
X129280135Y-37085671D01*
X129272452Y-37084000D01*
X128200116Y-37084000D01*
X128184877Y-37088475D01*
X128183672Y-37089865D01*
X128182001Y-37097548D01*
X128182001Y-37724669D01*
X108496235Y-37724669D01*
X111964209Y-34256695D01*
X128177251Y-34256695D01*
X128177548Y-34261848D01*
X128177548Y-34261851D01*
X128183011Y-34356590D01*
X128190110Y-34479715D01*
X128191247Y-34484761D01*
X128191248Y-34484767D01*
X128211119Y-34572939D01*
X128239222Y-34697639D01*
X128323266Y-34904616D01*
X128439987Y-35095088D01*
X128586250Y-35263938D01*
X128590225Y-35267238D01*
X128590231Y-35267244D01*
X128595425Y-35271556D01*
X128635059Y-35330460D01*
X128636555Y-35401441D01*
X128599439Y-35461962D01*
X128559168Y-35486480D01*
X128451946Y-35526676D01*
X128436351Y-35535214D01*
X128334276Y-35611715D01*
X128321715Y-35624276D01*
X128245214Y-35726351D01*
X128236676Y-35741946D01*
X128191522Y-35862394D01*
X128187895Y-35877649D01*
X128182369Y-35928514D01*
X128182000Y-35935328D01*
X128182000Y-36557885D01*
X128186475Y-36573124D01*
X128187865Y-36574329D01*
X128195548Y-36576000D01*
X130879884Y-36576000D01*
X130895123Y-36571525D01*
X130896328Y-36570135D01*
X130897999Y-36562452D01*
X130897999Y-35935331D01*
X130897629Y-35928510D01*
X130892105Y-35877648D01*
X130888479Y-35862396D01*
X130843324Y-35741946D01*
X130834786Y-35726351D01*
X130758285Y-35624276D01*
X130745724Y-35611715D01*
X130643649Y-35535214D01*
X130628054Y-35526676D01*
X130517813Y-35485348D01*
X130461049Y-35442706D01*
X130436349Y-35376145D01*
X130451557Y-35306796D01*
X130473104Y-35278115D01*
X130574430Y-35177144D01*
X130574440Y-35177132D01*
X130578096Y-35173489D01*
X130637594Y-35090689D01*
X130705435Y-34996277D01*
X130708453Y-34992077D01*
X130807430Y-34791811D01*
X130872370Y-34578069D01*
X130901529Y-34356590D01*
X130903156Y-34290000D01*
X130884852Y-34067361D01*
X130830431Y-33850702D01*
X130741354Y-33645840D01*
X130620014Y-33458277D01*
X130469670Y-33293051D01*
X130465619Y-33289852D01*
X130465615Y-33289848D01*
X130298414Y-33157800D01*
X130298410Y-33157798D01*
X130294359Y-33154598D01*
X130098789Y-33046638D01*
X130093920Y-33044914D01*
X130093916Y-33044912D01*
X129893087Y-32973795D01*
X129893083Y-32973794D01*
X129888212Y-32972069D01*
X129883119Y-32971162D01*
X129883116Y-32971161D01*
X129673373Y-32933800D01*
X129673367Y-32933799D01*
X129668284Y-32932894D01*
X129594452Y-32931992D01*
X129450081Y-32930228D01*
X129450079Y-32930228D01*
X129444911Y-32930165D01*
X129224091Y-32963955D01*
X129011756Y-33033357D01*
X128813607Y-33136507D01*
X128809474Y-33139610D01*
X128809471Y-33139612D01*
X128785247Y-33157800D01*
X128634965Y-33270635D01*
X128480629Y-33432138D01*
X128354743Y-33616680D01*
X128260688Y-33819305D01*
X128200989Y-34034570D01*
X128177251Y-34256695D01*
X111964209Y-34256695D01*
X113844549Y-32376355D01*
X113906861Y-32342329D01*
X113958762Y-32341979D01*
X114138597Y-32378567D01*
X114143772Y-32378757D01*
X114143774Y-32378757D01*
X114356673Y-32386564D01*
X114356677Y-32386564D01*
X114361837Y-32386753D01*
X114366957Y-32386097D01*
X114366959Y-32386097D01*
X114578288Y-32359025D01*
X114578289Y-32359025D01*
X114583416Y-32358368D01*
X114622434Y-32346662D01*
X114792429Y-32295661D01*
X114792434Y-32295659D01*
X114797384Y-32294174D01*
X114997994Y-32195896D01*
X115179860Y-32066173D01*
X115194601Y-32051484D01*
X115320986Y-31925539D01*
X115338096Y-31908489D01*
X115351227Y-31890216D01*
X115468453Y-31727077D01*
X115469776Y-31728028D01*
X115516645Y-31684857D01*
X115586580Y-31672625D01*
X115652026Y-31700144D01*
X115679875Y-31731994D01*
X115739987Y-31830088D01*
X115886250Y-31998938D01*
X116058126Y-32141632D01*
X116251000Y-32254338D01*
X116255825Y-32256180D01*
X116255826Y-32256181D01*
X116328612Y-32283975D01*
X116459692Y-32334030D01*
X116464760Y-32335061D01*
X116464763Y-32335062D01*
X116572017Y-32356883D01*
X116678597Y-32378567D01*
X116683772Y-32378757D01*
X116683774Y-32378757D01*
X116896673Y-32386564D01*
X116896677Y-32386564D01*
X116901837Y-32386753D01*
X116906957Y-32386097D01*
X116906959Y-32386097D01*
X117118288Y-32359025D01*
X117118289Y-32359025D01*
X117123416Y-32358368D01*
X117162434Y-32346662D01*
X117332429Y-32295661D01*
X117332434Y-32295659D01*
X117337384Y-32294174D01*
X117537994Y-32195896D01*
X117719860Y-32066173D01*
X117734601Y-32051484D01*
X117828479Y-31957933D01*
X117890851Y-31924017D01*
X117961658Y-31929205D01*
X118018419Y-31971851D01*
X118035401Y-32002954D01*
X118076676Y-32113054D01*
X118085214Y-32128649D01*
X118161715Y-32230724D01*
X118174276Y-32243285D01*
X118276351Y-32319786D01*
X118291946Y-32328324D01*
X118412394Y-32373478D01*
X118427649Y-32377105D01*
X118478514Y-32382631D01*
X118485328Y-32383000D01*
X119107885Y-32383000D01*
X119123124Y-32378525D01*
X119124329Y-32377135D01*
X119126000Y-32369452D01*
X119126000Y-32364884D01*
X119634000Y-32364884D01*
X119638475Y-32380123D01*
X119639865Y-32381328D01*
X119647548Y-32382999D01*
X120274669Y-32382999D01*
X120281490Y-32382629D01*
X120332352Y-32377105D01*
X120347604Y-32373479D01*
X120468054Y-32328324D01*
X120483649Y-32319786D01*
X120585724Y-32243285D01*
X120598285Y-32230724D01*
X120674786Y-32128649D01*
X120683324Y-32113054D01*
X120728478Y-31992606D01*
X120732105Y-31977351D01*
X120737631Y-31926486D01*
X120738000Y-31919672D01*
X120738000Y-31297115D01*
X120733525Y-31281876D01*
X120732135Y-31280671D01*
X120724452Y-31279000D01*
X119652115Y-31279000D01*
X119636876Y-31283475D01*
X119635671Y-31284865D01*
X119634000Y-31292548D01*
X119634000Y-32364884D01*
X119126000Y-32364884D01*
X119126000Y-30752885D01*
X119634000Y-30752885D01*
X119638475Y-30768124D01*
X119639865Y-30769329D01*
X119647548Y-30771000D01*
X120719884Y-30771000D01*
X120735123Y-30766525D01*
X120736328Y-30765135D01*
X120737999Y-30757452D01*
X120737999Y-30130331D01*
X120737629Y-30123510D01*
X120732105Y-30072648D01*
X120728479Y-30057396D01*
X120683324Y-29936946D01*
X120674786Y-29921351D01*
X120598285Y-29819276D01*
X120585724Y-29806715D01*
X120483649Y-29730214D01*
X120468054Y-29721676D01*
X120357297Y-29680155D01*
X120300533Y-29637513D01*
X120275833Y-29570952D01*
X120291040Y-29501603D01*
X120312587Y-29472922D01*
X120414057Y-29371805D01*
X120420730Y-29363965D01*
X120545003Y-29191020D01*
X120550313Y-29182183D01*
X120644670Y-28991267D01*
X120648469Y-28981672D01*
X120710377Y-28777910D01*
X120712555Y-28767837D01*
X120713986Y-28756962D01*
X120711775Y-28742778D01*
X120698617Y-28739000D01*
X119652115Y-28739000D01*
X119636876Y-28743475D01*
X119635671Y-28744865D01*
X119634000Y-28752548D01*
X119634000Y-30752885D01*
X119126000Y-30752885D01*
X119126000Y-28212885D01*
X119634000Y-28212885D01*
X119638475Y-28228124D01*
X119639865Y-28229329D01*
X119647548Y-28231000D01*
X120698344Y-28231000D01*
X120711875Y-28227027D01*
X120713180Y-28217947D01*
X120671214Y-28050875D01*
X120667894Y-28041124D01*
X120582972Y-27845814D01*
X120578105Y-27836739D01*
X120462426Y-27657926D01*
X120456136Y-27649757D01*
X120312806Y-27492240D01*
X120305273Y-27485215D01*
X120138139Y-27353222D01*
X120129552Y-27347517D01*
X119943117Y-27244599D01*
X119933705Y-27240369D01*
X119732959Y-27169280D01*
X119722988Y-27166646D01*
X119651837Y-27153972D01*
X119638540Y-27155432D01*
X119634000Y-27169989D01*
X119634000Y-28212885D01*
X119126000Y-28212885D01*
X119126000Y-27168102D01*
X119122082Y-27154758D01*
X119107806Y-27152771D01*
X119069324Y-27158660D01*
X119059288Y-27161051D01*
X118856868Y-27227212D01*
X118847359Y-27231209D01*
X118658463Y-27329542D01*
X118649738Y-27335036D01*
X118479433Y-27462905D01*
X118471726Y-27469748D01*
X118324590Y-27623717D01*
X118318109Y-27631722D01*
X118213498Y-27785074D01*
X118158587Y-27830076D01*
X118088062Y-27838247D01*
X118024315Y-27806993D01*
X118003618Y-27782509D01*
X117922822Y-27657617D01*
X117922820Y-27657614D01*
X117920014Y-27653277D01*
X117769670Y-27488051D01*
X117765619Y-27484852D01*
X117765615Y-27484848D01*
X117598414Y-27352800D01*
X117598410Y-27352798D01*
X117594359Y-27349598D01*
X117558028Y-27329542D01*
X117542136Y-27320769D01*
X117398789Y-27241638D01*
X117393920Y-27239914D01*
X117393916Y-27239912D01*
X117193087Y-27168795D01*
X117193083Y-27168794D01*
X117188212Y-27167069D01*
X117183119Y-27166162D01*
X117183116Y-27166161D01*
X116973373Y-27128800D01*
X116973367Y-27128799D01*
X116968284Y-27127894D01*
X116894452Y-27126992D01*
X116750081Y-27125228D01*
X116750079Y-27125228D01*
X116744911Y-27125165D01*
X116524091Y-27158955D01*
X116311756Y-27228357D01*
X116248016Y-27261538D01*
X116172568Y-27300814D01*
X116113607Y-27331507D01*
X116109474Y-27334610D01*
X116109471Y-27334612D01*
X116023729Y-27398989D01*
X115934965Y-27465635D01*
X115780629Y-27627138D01*
X115673201Y-27784621D01*
X115618293Y-27829621D01*
X115547768Y-27837792D01*
X115484021Y-27806538D01*
X115463324Y-27782054D01*
X115382822Y-27657617D01*
X115382820Y-27657614D01*
X115380014Y-27653277D01*
X115229670Y-27488051D01*
X115225619Y-27484852D01*
X115225615Y-27484848D01*
X115058414Y-27352800D01*
X115058410Y-27352798D01*
X115054359Y-27349598D01*
X115018028Y-27329542D01*
X115002136Y-27320769D01*
X114858789Y-27241638D01*
X114853920Y-27239914D01*
X114853916Y-27239912D01*
X114653087Y-27168795D01*
X114653083Y-27168794D01*
X114648212Y-27167069D01*
X114643119Y-27166162D01*
X114643116Y-27166161D01*
X114433373Y-27128800D01*
X114433367Y-27128799D01*
X114428284Y-27127894D01*
X114354452Y-27126992D01*
X114210081Y-27125228D01*
X114210079Y-27125228D01*
X114204911Y-27125165D01*
X113984091Y-27158955D01*
X113771756Y-27228357D01*
X113708016Y-27261538D01*
X113632568Y-27300814D01*
X113573607Y-27331507D01*
X113569474Y-27334610D01*
X113569471Y-27334612D01*
X113483729Y-27398989D01*
X113394965Y-27465635D01*
X113240629Y-27627138D01*
X113133201Y-27784621D01*
X113078293Y-27829621D01*
X113007768Y-27837792D01*
X112944021Y-27806538D01*
X112923324Y-27782054D01*
X112842822Y-27657617D01*
X112842820Y-27657614D01*
X112840014Y-27653277D01*
X112689670Y-27488051D01*
X112685619Y-27484852D01*
X112685615Y-27484848D01*
X112518414Y-27352800D01*
X112518410Y-27352798D01*
X112514359Y-27349598D01*
X112478028Y-27329542D01*
X112462136Y-27320769D01*
X112318789Y-27241638D01*
X112313920Y-27239914D01*
X112313916Y-27239912D01*
X112113087Y-27168795D01*
X112113083Y-27168794D01*
X112108212Y-27167069D01*
X112103119Y-27166162D01*
X112103116Y-27166161D01*
X111893373Y-27128800D01*
X111893367Y-27128799D01*
X111888284Y-27127894D01*
X111814452Y-27126992D01*
X111670081Y-27125228D01*
X111670079Y-27125228D01*
X111664911Y-27125165D01*
X111444091Y-27158955D01*
X111231756Y-27228357D01*
X111168016Y-27261538D01*
X111092568Y-27300814D01*
X111033607Y-27331507D01*
X111029474Y-27334610D01*
X111029471Y-27334612D01*
X110943729Y-27398989D01*
X110854965Y-27465635D01*
X110700629Y-27627138D01*
X110593201Y-27784621D01*
X110538293Y-27829621D01*
X110467768Y-27837792D01*
X110404021Y-27806538D01*
X110383324Y-27782054D01*
X110302822Y-27657617D01*
X110302820Y-27657614D01*
X110300014Y-27653277D01*
X110149670Y-27488051D01*
X110145619Y-27484852D01*
X110145615Y-27484848D01*
X109978414Y-27352800D01*
X109978410Y-27352798D01*
X109974359Y-27349598D01*
X109938028Y-27329542D01*
X109922136Y-27320769D01*
X109778789Y-27241638D01*
X109773920Y-27239914D01*
X109773916Y-27239912D01*
X109573087Y-27168795D01*
X109573083Y-27168794D01*
X109568212Y-27167069D01*
X109563119Y-27166162D01*
X109563116Y-27166161D01*
X109353373Y-27128800D01*
X109353367Y-27128799D01*
X109348284Y-27127894D01*
X109274452Y-27126992D01*
X109130081Y-27125228D01*
X109130079Y-27125228D01*
X109124911Y-27125165D01*
X108904091Y-27158955D01*
X108691756Y-27228357D01*
X108628016Y-27261538D01*
X108552568Y-27300814D01*
X108493607Y-27331507D01*
X108489474Y-27334610D01*
X108489471Y-27334612D01*
X108403729Y-27398989D01*
X108314965Y-27465635D01*
X108160629Y-27627138D01*
X108053201Y-27784621D01*
X107998293Y-27829621D01*
X107927768Y-27837792D01*
X107864021Y-27806538D01*
X107843324Y-27782054D01*
X107762822Y-27657617D01*
X107762820Y-27657614D01*
X107760014Y-27653277D01*
X107609670Y-27488051D01*
X107605619Y-27484852D01*
X107605615Y-27484848D01*
X107438414Y-27352800D01*
X107438410Y-27352798D01*
X107434359Y-27349598D01*
X107398028Y-27329542D01*
X107382136Y-27320769D01*
X107238789Y-27241638D01*
X107233920Y-27239914D01*
X107233916Y-27239912D01*
X107033087Y-27168795D01*
X107033083Y-27168794D01*
X107028212Y-27167069D01*
X107023119Y-27166162D01*
X107023116Y-27166161D01*
X106813373Y-27128800D01*
X106813367Y-27128799D01*
X106808284Y-27127894D01*
X106734452Y-27126992D01*
X106590081Y-27125228D01*
X106590079Y-27125228D01*
X106584911Y-27125165D01*
X106364091Y-27158955D01*
X106151756Y-27228357D01*
X106088016Y-27261538D01*
X106012568Y-27300814D01*
X105953607Y-27331507D01*
X105949474Y-27334610D01*
X105949471Y-27334612D01*
X105863729Y-27398989D01*
X105774965Y-27465635D01*
X105620629Y-27627138D01*
X105617720Y-27631403D01*
X105617714Y-27631411D01*
X105580476Y-27686000D01*
X105494743Y-27811680D01*
X105400688Y-28014305D01*
X105340989Y-28229570D01*
X105317251Y-28451695D01*
X105317548Y-28456848D01*
X105317548Y-28456851D01*
X105325760Y-28599266D01*
X105330110Y-28674715D01*
X105331247Y-28679761D01*
X105331248Y-28679767D01*
X105344597Y-28739000D01*
X105379222Y-28892639D01*
X105433354Y-29025952D01*
X105457649Y-29085782D01*
X105463266Y-29099616D01*
X105505992Y-29169338D01*
X105577291Y-29285688D01*
X105579987Y-29290088D01*
X105726250Y-29458938D01*
X105898126Y-29601632D01*
X105959529Y-29637513D01*
X105971445Y-29644476D01*
X106020169Y-29696114D01*
X106033240Y-29765897D01*
X106006509Y-29831669D01*
X105966055Y-29865027D01*
X105953607Y-29871507D01*
X105949474Y-29874610D01*
X105949471Y-29874612D01*
X105866450Y-29936946D01*
X105774965Y-30005635D01*
X105620629Y-30167138D01*
X105617720Y-30171403D01*
X105617714Y-30171411D01*
X105580476Y-30226000D01*
X105494743Y-30351680D01*
X105400688Y-30554305D01*
X105340989Y-30769570D01*
X105317251Y-30991695D01*
X105317548Y-30996848D01*
X105317548Y-30996851D01*
X105325794Y-31139857D01*
X105330110Y-31214715D01*
X105331247Y-31219761D01*
X105331248Y-31219767D01*
X105345606Y-31283475D01*
X105379222Y-31432639D01*
X105463266Y-31639616D01*
X105504394Y-31706731D01*
X105577291Y-31825688D01*
X105579987Y-31830088D01*
X105726250Y-31998938D01*
X105898126Y-32141632D01*
X106091000Y-32254338D01*
X106095825Y-32256180D01*
X106095826Y-32256181D01*
X106168612Y-32283975D01*
X106299692Y-32334030D01*
X106304760Y-32335061D01*
X106304763Y-32335062D01*
X106412017Y-32356883D01*
X106518597Y-32378567D01*
X106523771Y-32378757D01*
X106523773Y-32378757D01*
X106585898Y-32381035D01*
X106665650Y-32383959D01*
X106732991Y-32406443D01*
X106777487Y-32461767D01*
X106785009Y-32532364D01*
X106750127Y-32598969D01*
X91047747Y-48301348D01*
X91039461Y-48308888D01*
X91032982Y-48313000D01*
X91027557Y-48318777D01*
X90986357Y-48362651D01*
X90983602Y-48365493D01*
X90963865Y-48385230D01*
X90961385Y-48388427D01*
X90953682Y-48397447D01*
X90923414Y-48429679D01*
X90919595Y-48436625D01*
X90919593Y-48436628D01*
X90913652Y-48447434D01*
X90902801Y-48463953D01*
X90890386Y-48479959D01*
X90887241Y-48487228D01*
X90887238Y-48487232D01*
X90872826Y-48520537D01*
X90867609Y-48531187D01*
X90846305Y-48569940D01*
X90844334Y-48577615D01*
X90844334Y-48577616D01*
X90841267Y-48589562D01*
X90834863Y-48608266D01*
X90826819Y-48626855D01*
X90825580Y-48634678D01*
X90825577Y-48634688D01*
X90819901Y-48670524D01*
X90817495Y-48682144D01*
X90806500Y-48724970D01*
X90806500Y-48745224D01*
X90804949Y-48764934D01*
X90801780Y-48784943D01*
X90802526Y-48792835D01*
X90805941Y-48828961D01*
X90806500Y-48840819D01*
X90806500Y-54706996D01*
X90786498Y-54775117D01*
X90752771Y-54810209D01*
X90624730Y-54899864D01*
X90624727Y-54899866D01*
X90620219Y-54903023D01*
X90463023Y-55060219D01*
X90335512Y-55242324D01*
X90333189Y-55247306D01*
X90333186Y-55247311D01*
X90284195Y-55352373D01*
X90237277Y-55405658D01*
X90169000Y-55425119D01*
X90101040Y-55404577D01*
X90055805Y-55352373D01*
X90006814Y-55247311D01*
X90006811Y-55247306D01*
X90004488Y-55242324D01*
X89876977Y-55060219D01*
X89719781Y-54903023D01*
X89715273Y-54899866D01*
X89715270Y-54899864D01*
X89580330Y-54805378D01*
X89537677Y-54775512D01*
X89532695Y-54773189D01*
X89532690Y-54773186D01*
X89341178Y-54683883D01*
X89341177Y-54683882D01*
X89336196Y-54681560D01*
X89330888Y-54680138D01*
X89330886Y-54680137D01*
X89230781Y-54653314D01*
X89121463Y-54624022D01*
X88900000Y-54604647D01*
X88678537Y-54624022D01*
X88673223Y-54625446D01*
X88673217Y-54625447D01*
X88639486Y-54634485D01*
X88568510Y-54632796D01*
X88517779Y-54601874D01*
X88395894Y-54479989D01*
X88361868Y-54417677D01*
X88358989Y-54390894D01*
X88358989Y-31909716D01*
X88378991Y-31841595D01*
X88432647Y-31795102D01*
X88502921Y-31784998D01*
X88517233Y-31788091D01*
X88519692Y-31789030D01*
X88524758Y-31790061D01*
X88524759Y-31790061D01*
X88561377Y-31797511D01*
X88738597Y-31833567D01*
X88743772Y-31833757D01*
X88743774Y-31833757D01*
X88956673Y-31841564D01*
X88956677Y-31841564D01*
X88961837Y-31841753D01*
X88966957Y-31841097D01*
X88966959Y-31841097D01*
X89178288Y-31814025D01*
X89178289Y-31814025D01*
X89183416Y-31813368D01*
X89188376Y-31811880D01*
X89392429Y-31750661D01*
X89392434Y-31750659D01*
X89397384Y-31749174D01*
X89597994Y-31650896D01*
X89779860Y-31521173D01*
X89938096Y-31363489D01*
X89978133Y-31307772D01*
X90068453Y-31182077D01*
X90069776Y-31183028D01*
X90116645Y-31139857D01*
X90186580Y-31127625D01*
X90252026Y-31155144D01*
X90279875Y-31186994D01*
X90339987Y-31285088D01*
X90486250Y-31453938D01*
X90658126Y-31596632D01*
X90851000Y-31709338D01*
X91059692Y-31789030D01*
X91064760Y-31790061D01*
X91064763Y-31790062D01*
X91168203Y-31811107D01*
X91278597Y-31833567D01*
X91283772Y-31833757D01*
X91283774Y-31833757D01*
X91496673Y-31841564D01*
X91496677Y-31841564D01*
X91501837Y-31841753D01*
X91506957Y-31841097D01*
X91506959Y-31841097D01*
X91718288Y-31814025D01*
X91718289Y-31814025D01*
X91723416Y-31813368D01*
X91728376Y-31811880D01*
X91932429Y-31750661D01*
X91932434Y-31750659D01*
X91937384Y-31749174D01*
X92137994Y-31650896D01*
X92319860Y-31521173D01*
X92478096Y-31363489D01*
X92518133Y-31307772D01*
X92608453Y-31182077D01*
X92609776Y-31183028D01*
X92656645Y-31139857D01*
X92726580Y-31127625D01*
X92792026Y-31155144D01*
X92819875Y-31186994D01*
X92879987Y-31285088D01*
X93026250Y-31453938D01*
X93198126Y-31596632D01*
X93391000Y-31709338D01*
X93599692Y-31789030D01*
X93604760Y-31790061D01*
X93604763Y-31790062D01*
X93708203Y-31811107D01*
X93818597Y-31833567D01*
X93823772Y-31833757D01*
X93823774Y-31833757D01*
X94036673Y-31841564D01*
X94036677Y-31841564D01*
X94041837Y-31841753D01*
X94046957Y-31841097D01*
X94046959Y-31841097D01*
X94258288Y-31814025D01*
X94258289Y-31814025D01*
X94263416Y-31813368D01*
X94268376Y-31811880D01*
X94472429Y-31750661D01*
X94472434Y-31750659D01*
X94477384Y-31749174D01*
X94677994Y-31650896D01*
X94859860Y-31521173D01*
X94927331Y-31453938D01*
X94968479Y-31412933D01*
X95030851Y-31379017D01*
X95101658Y-31384205D01*
X95158419Y-31426851D01*
X95175401Y-31457954D01*
X95216676Y-31568054D01*
X95225214Y-31583649D01*
X95301715Y-31685724D01*
X95314276Y-31698285D01*
X95416351Y-31774786D01*
X95431946Y-31783324D01*
X95552394Y-31828478D01*
X95567649Y-31832105D01*
X95618514Y-31837631D01*
X95625328Y-31838000D01*
X96247885Y-31838000D01*
X96263124Y-31833525D01*
X96264329Y-31832135D01*
X96266000Y-31824452D01*
X96266000Y-31819884D01*
X96774000Y-31819884D01*
X96778475Y-31835123D01*
X96779865Y-31836328D01*
X96787548Y-31837999D01*
X97414669Y-31837999D01*
X97421490Y-31837629D01*
X97472352Y-31832105D01*
X97487604Y-31828479D01*
X97608054Y-31783324D01*
X97623649Y-31774786D01*
X97725724Y-31698285D01*
X97738285Y-31685724D01*
X97814786Y-31583649D01*
X97823324Y-31568054D01*
X97868478Y-31447606D01*
X97872105Y-31432351D01*
X97877631Y-31381486D01*
X97878000Y-31374672D01*
X97878000Y-30752115D01*
X97873525Y-30736876D01*
X97872135Y-30735671D01*
X97864452Y-30734000D01*
X96792115Y-30734000D01*
X96776876Y-30738475D01*
X96775671Y-30739865D01*
X96774000Y-30747548D01*
X96774000Y-31819884D01*
X96266000Y-31819884D01*
X96266000Y-27812000D01*
X96286002Y-27743879D01*
X96339658Y-27697386D01*
X96392000Y-27686000D01*
X96648000Y-27686000D01*
X96716121Y-27706002D01*
X96762614Y-27759658D01*
X96774000Y-27812000D01*
X96774000Y-30207885D01*
X96778475Y-30223124D01*
X96779865Y-30224329D01*
X96787548Y-30226000D01*
X97859884Y-30226000D01*
X97875123Y-30221525D01*
X97876328Y-30220135D01*
X97877999Y-30212452D01*
X97877999Y-29585331D01*
X97877629Y-29578510D01*
X97872105Y-29527648D01*
X97868479Y-29512396D01*
X97823324Y-29391946D01*
X97814786Y-29376351D01*
X97738285Y-29274276D01*
X97725724Y-29261715D01*
X97623649Y-29185214D01*
X97608054Y-29176676D01*
X97497297Y-29135155D01*
X97440533Y-29092513D01*
X97415833Y-29025952D01*
X97431040Y-28956603D01*
X97452587Y-28927922D01*
X97554057Y-28826805D01*
X97560730Y-28818965D01*
X97685003Y-28646020D01*
X97690311Y-28637187D01*
X97709053Y-28599266D01*
X97757168Y-28547059D01*
X97825869Y-28529153D01*
X97893345Y-28551232D01*
X97911105Y-28565999D01*
X100652878Y-31307772D01*
X100686904Y-31370084D01*
X100689092Y-31383693D01*
X100706458Y-31548918D01*
X100765473Y-31730546D01*
X100860960Y-31895934D01*
X100865378Y-31900841D01*
X100865379Y-31900842D01*
X100873369Y-31909716D01*
X100988747Y-32037856D01*
X101143248Y-32150108D01*
X101149276Y-32152792D01*
X101149278Y-32152793D01*
X101246090Y-32195896D01*
X101317712Y-32227784D01*
X101411112Y-32247637D01*
X101498056Y-32266118D01*
X101498061Y-32266118D01*
X101504513Y-32267490D01*
X101695487Y-32267490D01*
X101701939Y-32266118D01*
X101701944Y-32266118D01*
X101788888Y-32247637D01*
X101882288Y-32227784D01*
X101953910Y-32195896D01*
X102050722Y-32152793D01*
X102050724Y-32152792D01*
X102056752Y-32150108D01*
X102211253Y-32037856D01*
X102326631Y-31909716D01*
X102334621Y-31900842D01*
X102334622Y-31900841D01*
X102339040Y-31895934D01*
X102434527Y-31730546D01*
X102493542Y-31548918D01*
X102513504Y-31358990D01*
X102505274Y-31280688D01*
X102494232Y-31175625D01*
X102494232Y-31175623D01*
X102493542Y-31169062D01*
X102434527Y-30987434D01*
X102339040Y-30822046D01*
X102291791Y-30769570D01*
X102215675Y-30685035D01*
X102215674Y-30685034D01*
X102211253Y-30680124D01*
X102056752Y-30567872D01*
X102050724Y-30565188D01*
X102050722Y-30565187D01*
X101888319Y-30492881D01*
X101888318Y-30492881D01*
X101882288Y-30490196D01*
X101788887Y-30470343D01*
X101701944Y-30451862D01*
X101701939Y-30451862D01*
X101695487Y-30450490D01*
X101639595Y-30450490D01*
X101571474Y-30430488D01*
X101550500Y-30413585D01*
X97510151Y-26373236D01*
X97502611Y-26364950D01*
X97498499Y-26358471D01*
X97448847Y-26311845D01*
X97446006Y-26309091D01*
X97426269Y-26289354D01*
X97423072Y-26286874D01*
X97414050Y-26279169D01*
X97400615Y-26266553D01*
X97381820Y-26248903D01*
X97374874Y-26245084D01*
X97374871Y-26245082D01*
X97364065Y-26239141D01*
X97347546Y-26228290D01*
X97346814Y-26227722D01*
X97331540Y-26215875D01*
X97324271Y-26212730D01*
X97324267Y-26212727D01*
X97290962Y-26198315D01*
X97280312Y-26193098D01*
X97241559Y-26171794D01*
X97221936Y-26166756D01*
X97203233Y-26160352D01*
X97191919Y-26155456D01*
X97191918Y-26155456D01*
X97184644Y-26152308D01*
X97176821Y-26151069D01*
X97176811Y-26151066D01*
X97140975Y-26145390D01*
X97129355Y-26142984D01*
X97094210Y-26133961D01*
X97094209Y-26133961D01*
X97086529Y-26131989D01*
X97066275Y-26131989D01*
X97046564Y-26130438D01*
X97044033Y-26130037D01*
X97026556Y-26127269D01*
X97018664Y-26128015D01*
X96982538Y-26131430D01*
X96970680Y-26131989D01*
X85073274Y-26131989D01*
X85062090Y-26131462D01*
X85054602Y-26129788D01*
X85046679Y-26130037D01*
X84986544Y-26131927D01*
X84982586Y-26131989D01*
X84954655Y-26131989D01*
X84950740Y-26132484D01*
X84950736Y-26132484D01*
X84950678Y-26132492D01*
X84950649Y-26132495D01*
X84938807Y-26133428D01*
X84894621Y-26134816D01*
X84877255Y-26139861D01*
X84875169Y-26140467D01*
X84855817Y-26144475D01*
X84843579Y-26146021D01*
X84843577Y-26146022D01*
X84835714Y-26147015D01*
X84794597Y-26163295D01*
X84783396Y-26167130D01*
X84740917Y-26179471D01*
X84734098Y-26183504D01*
X84734093Y-26183506D01*
X84723482Y-26189782D01*
X84705732Y-26198479D01*
X84686894Y-26205937D01*
X84680478Y-26210598D01*
X84680477Y-26210599D01*
X84651136Y-26231917D01*
X84641212Y-26238436D01*
X84609971Y-26256911D01*
X84609966Y-26256915D01*
X84603148Y-26260947D01*
X84588824Y-26275271D01*
X84573792Y-26288110D01*
X84557404Y-26300017D01*
X84529223Y-26334082D01*
X84521233Y-26342862D01*
X84277345Y-26586750D01*
X84215033Y-26620776D01*
X84166154Y-26621702D01*
X83953373Y-26583800D01*
X83953367Y-26583799D01*
X83948284Y-26582894D01*
X83874452Y-26581992D01*
X83730081Y-26580228D01*
X83730079Y-26580228D01*
X83724911Y-26580165D01*
X83504091Y-26613955D01*
X83291756Y-26683357D01*
X83213455Y-26724118D01*
X83155899Y-26754080D01*
X83093607Y-26786507D01*
X83089474Y-26789610D01*
X83089471Y-26789612D01*
X83065247Y-26807800D01*
X82914965Y-26920635D01*
X82760629Y-27082138D01*
X82634743Y-27266680D01*
X82603210Y-27334612D01*
X82543659Y-27462905D01*
X82540688Y-27469305D01*
X82480989Y-27684570D01*
X82457251Y-27906695D01*
X82457548Y-27911848D01*
X82457548Y-27911851D01*
X82463743Y-28019297D01*
X82470110Y-28129715D01*
X82471247Y-28134761D01*
X82471248Y-28134767D01*
X82492275Y-28228069D01*
X82519222Y-28347639D01*
X82563568Y-28456851D01*
X82592927Y-28529153D01*
X82603266Y-28554616D01*
X82653863Y-28637183D01*
X82717291Y-28740688D01*
X82719987Y-28745088D01*
X82866250Y-28913938D01*
X83038126Y-29056632D01*
X83099529Y-29092513D01*
X83111445Y-29099476D01*
X83160169Y-29151114D01*
X83173240Y-29220897D01*
X83146509Y-29286669D01*
X83106055Y-29320027D01*
X83093607Y-29326507D01*
X83089474Y-29329610D01*
X83089471Y-29329612D01*
X82919100Y-29457530D01*
X82914965Y-29460635D01*
X82875815Y-29501603D01*
X82809544Y-29570952D01*
X82760629Y-29622138D01*
X82634743Y-29806680D01*
X82540688Y-30009305D01*
X82480989Y-30224570D01*
X82457251Y-30446695D01*
X82457548Y-30451848D01*
X82457548Y-30451851D01*
X82463743Y-30559297D01*
X82470110Y-30669715D01*
X82471247Y-30674761D01*
X82471248Y-30674767D01*
X82485606Y-30738475D01*
X82519222Y-30887639D01*
X82603266Y-31094616D01*
X82645039Y-31162784D01*
X82717291Y-31280688D01*
X82719987Y-31285088D01*
X82866250Y-31453938D01*
X83038126Y-31596632D01*
X83231000Y-31709338D01*
X83439692Y-31789030D01*
X83444760Y-31790061D01*
X83444763Y-31790062D01*
X83548203Y-31811107D01*
X83658597Y-31833567D01*
X83663772Y-31833757D01*
X83663774Y-31833757D01*
X83876673Y-31841564D01*
X83876677Y-31841564D01*
X83881837Y-31841753D01*
X83886957Y-31841097D01*
X83886959Y-31841097D01*
X84098288Y-31814025D01*
X84098289Y-31814025D01*
X84103416Y-31813368D01*
X84108376Y-31811880D01*
X84312429Y-31750661D01*
X84312434Y-31750659D01*
X84317384Y-31749174D01*
X84517994Y-31650896D01*
X84699860Y-31521173D01*
X84858096Y-31363489D01*
X84898133Y-31307772D01*
X84988453Y-31182077D01*
X84989776Y-31183028D01*
X85036645Y-31139857D01*
X85106580Y-31127625D01*
X85172026Y-31155144D01*
X85199875Y-31186994D01*
X85259987Y-31285088D01*
X85406250Y-31453938D01*
X85578126Y-31596632D01*
X85771000Y-31709338D01*
X85979692Y-31789030D01*
X85984760Y-31790061D01*
X85984763Y-31790062D01*
X86088203Y-31811107D01*
X86198597Y-31833567D01*
X86203772Y-31833757D01*
X86203774Y-31833757D01*
X86416673Y-31841564D01*
X86416677Y-31841564D01*
X86421837Y-31841753D01*
X86426957Y-31841097D01*
X86426959Y-31841097D01*
X86638288Y-31814025D01*
X86638289Y-31814025D01*
X86643416Y-31813368D01*
X86648376Y-31811880D01*
X86852429Y-31750661D01*
X86852434Y-31750659D01*
X86857384Y-31749174D01*
X86910559Y-31723124D01*
X86980531Y-31711118D01*
X87045888Y-31738848D01*
X87085878Y-31797511D01*
X87091989Y-31836276D01*
X87091989Y-52875467D01*
X87071987Y-52943588D01*
X87018331Y-52990081D01*
X86948057Y-53000185D01*
X86883477Y-52970691D01*
X86867790Y-52954129D01*
X86864542Y-52948638D01*
X86850221Y-52934317D01*
X86837380Y-52919283D01*
X86830131Y-52909306D01*
X86825472Y-52902893D01*
X86791395Y-52874702D01*
X86782616Y-52866712D01*
X65971318Y-32055413D01*
X65937292Y-31993101D01*
X65942357Y-31922286D01*
X65984904Y-31865450D01*
X66051424Y-31840639D01*
X66065024Y-31840403D01*
X66081698Y-31841015D01*
X66096674Y-31841564D01*
X66096678Y-31841564D01*
X66101837Y-31841753D01*
X66106957Y-31841097D01*
X66106959Y-31841097D01*
X66318288Y-31814025D01*
X66318289Y-31814025D01*
X66323416Y-31813368D01*
X66328376Y-31811880D01*
X66532429Y-31750661D01*
X66532434Y-31750659D01*
X66537384Y-31749174D01*
X66737994Y-31650896D01*
X66919860Y-31521173D01*
X67078096Y-31363489D01*
X67118133Y-31307772D01*
X67208453Y-31182077D01*
X67209776Y-31183028D01*
X67256645Y-31139857D01*
X67326580Y-31127625D01*
X67392026Y-31155144D01*
X67419875Y-31186994D01*
X67479987Y-31285088D01*
X67626250Y-31453938D01*
X67798126Y-31596632D01*
X67991000Y-31709338D01*
X68199692Y-31789030D01*
X68204760Y-31790061D01*
X68204763Y-31790062D01*
X68308203Y-31811107D01*
X68418597Y-31833567D01*
X68423772Y-31833757D01*
X68423774Y-31833757D01*
X68636673Y-31841564D01*
X68636677Y-31841564D01*
X68641837Y-31841753D01*
X68646957Y-31841097D01*
X68646959Y-31841097D01*
X68858288Y-31814025D01*
X68858289Y-31814025D01*
X68863416Y-31813368D01*
X68868376Y-31811880D01*
X69072429Y-31750661D01*
X69072434Y-31750659D01*
X69077384Y-31749174D01*
X69277994Y-31650896D01*
X69459860Y-31521173D01*
X69618096Y-31363489D01*
X69658133Y-31307772D01*
X69748453Y-31182077D01*
X69749776Y-31183028D01*
X69796645Y-31139857D01*
X69866580Y-31127625D01*
X69932026Y-31155144D01*
X69959875Y-31186994D01*
X70019987Y-31285088D01*
X70166250Y-31453938D01*
X70338126Y-31596632D01*
X70531000Y-31709338D01*
X70739692Y-31789030D01*
X70744760Y-31790061D01*
X70744763Y-31790062D01*
X70848203Y-31811107D01*
X70958597Y-31833567D01*
X70963772Y-31833757D01*
X70963774Y-31833757D01*
X71176673Y-31841564D01*
X71176677Y-31841564D01*
X71181837Y-31841753D01*
X71186957Y-31841097D01*
X71186959Y-31841097D01*
X71398288Y-31814025D01*
X71398289Y-31814025D01*
X71403416Y-31813368D01*
X71408376Y-31811880D01*
X71612429Y-31750661D01*
X71612434Y-31750659D01*
X71617384Y-31749174D01*
X71817994Y-31650896D01*
X71999860Y-31521173D01*
X72067331Y-31453938D01*
X72108479Y-31412933D01*
X72170851Y-31379017D01*
X72241658Y-31384205D01*
X72298419Y-31426851D01*
X72315401Y-31457954D01*
X72356676Y-31568054D01*
X72365214Y-31583649D01*
X72441715Y-31685724D01*
X72454276Y-31698285D01*
X72556351Y-31774786D01*
X72571946Y-31783324D01*
X72692394Y-31828478D01*
X72707649Y-31832105D01*
X72758514Y-31837631D01*
X72765328Y-31838000D01*
X73387885Y-31838000D01*
X73403124Y-31833525D01*
X73404329Y-31832135D01*
X73406000Y-31824452D01*
X73406000Y-31819884D01*
X73914000Y-31819884D01*
X73918475Y-31835123D01*
X73919865Y-31836328D01*
X73927548Y-31837999D01*
X74554669Y-31837999D01*
X74561490Y-31837629D01*
X74612352Y-31832105D01*
X74627604Y-31828479D01*
X74748054Y-31783324D01*
X74763649Y-31774786D01*
X74865724Y-31698285D01*
X74878285Y-31685724D01*
X74954786Y-31583649D01*
X74963324Y-31568054D01*
X75008478Y-31447606D01*
X75012105Y-31432351D01*
X75017631Y-31381486D01*
X75018000Y-31374672D01*
X75018000Y-30752115D01*
X75013525Y-30736876D01*
X75012135Y-30735671D01*
X75004452Y-30734000D01*
X73932115Y-30734000D01*
X73916876Y-30738475D01*
X73915671Y-30739865D01*
X73914000Y-30747548D01*
X73914000Y-31819884D01*
X73406000Y-31819884D01*
X73406000Y-30207885D01*
X73914000Y-30207885D01*
X73918475Y-30223124D01*
X73919865Y-30224329D01*
X73927548Y-30226000D01*
X74999884Y-30226000D01*
X75015123Y-30221525D01*
X75016328Y-30220135D01*
X75017999Y-30212452D01*
X75017999Y-29585331D01*
X75017629Y-29578510D01*
X75012105Y-29527648D01*
X75008479Y-29512396D01*
X74963324Y-29391946D01*
X74954786Y-29376351D01*
X74878285Y-29274276D01*
X74865724Y-29261715D01*
X74763649Y-29185214D01*
X74748054Y-29176676D01*
X74637297Y-29135155D01*
X74580533Y-29092513D01*
X74555833Y-29025952D01*
X74571040Y-28956603D01*
X74592587Y-28927922D01*
X74694057Y-28826805D01*
X74700730Y-28818965D01*
X74825003Y-28646020D01*
X74830313Y-28637183D01*
X74924670Y-28446267D01*
X74928469Y-28436672D01*
X74990377Y-28232910D01*
X74992555Y-28222837D01*
X74993986Y-28211962D01*
X74991775Y-28197778D01*
X74978617Y-28194000D01*
X73932115Y-28194000D01*
X73916876Y-28198475D01*
X73915671Y-28199865D01*
X73914000Y-28207548D01*
X73914000Y-30207885D01*
X73406000Y-30207885D01*
X73406000Y-27667885D01*
X73914000Y-27667885D01*
X73918475Y-27683124D01*
X73919865Y-27684329D01*
X73927548Y-27686000D01*
X74978344Y-27686000D01*
X74991875Y-27682027D01*
X74993180Y-27672947D01*
X74951214Y-27505875D01*
X74947894Y-27496124D01*
X74862972Y-27300814D01*
X74858105Y-27291739D01*
X74742426Y-27112926D01*
X74736136Y-27104757D01*
X74592806Y-26947240D01*
X74585273Y-26940215D01*
X74418139Y-26808222D01*
X74409552Y-26802517D01*
X74223117Y-26699599D01*
X74213705Y-26695369D01*
X74012959Y-26624280D01*
X74002988Y-26621646D01*
X73931837Y-26608972D01*
X73918540Y-26610432D01*
X73914000Y-26624989D01*
X73914000Y-27667885D01*
X73406000Y-27667885D01*
X73406000Y-26623102D01*
X73402082Y-26609758D01*
X73387806Y-26607771D01*
X73349324Y-26613660D01*
X73339288Y-26616051D01*
X73136868Y-26682212D01*
X73127359Y-26686209D01*
X72938463Y-26784542D01*
X72929738Y-26790036D01*
X72759433Y-26917905D01*
X72751726Y-26924748D01*
X72604590Y-27078717D01*
X72598109Y-27086722D01*
X72493498Y-27240074D01*
X72438587Y-27285076D01*
X72368062Y-27293247D01*
X72304315Y-27261993D01*
X72283618Y-27237509D01*
X72202822Y-27112617D01*
X72202820Y-27112614D01*
X72200014Y-27108277D01*
X72049670Y-26943051D01*
X72045619Y-26939852D01*
X72045615Y-26939848D01*
X71878414Y-26807800D01*
X71878410Y-26807798D01*
X71874359Y-26804598D01*
X71838028Y-26784542D01*
X71779661Y-26752322D01*
X71678789Y-26696638D01*
X71673920Y-26694914D01*
X71673916Y-26694912D01*
X71473087Y-26623795D01*
X71473083Y-26623794D01*
X71468212Y-26622069D01*
X71463119Y-26621162D01*
X71463116Y-26621161D01*
X71253373Y-26583800D01*
X71253367Y-26583799D01*
X71248284Y-26582894D01*
X71174452Y-26581992D01*
X71030081Y-26580228D01*
X71030079Y-26580228D01*
X71024911Y-26580165D01*
X70804091Y-26613955D01*
X70591756Y-26683357D01*
X70513455Y-26724118D01*
X70455899Y-26754080D01*
X70393607Y-26786507D01*
X70389474Y-26789610D01*
X70389471Y-26789612D01*
X70365247Y-26807800D01*
X70214965Y-26920635D01*
X70060629Y-27082138D01*
X69953201Y-27239621D01*
X69898293Y-27284621D01*
X69827768Y-27292792D01*
X69764021Y-27261538D01*
X69743324Y-27237054D01*
X69662822Y-27112617D01*
X69662820Y-27112614D01*
X69660014Y-27108277D01*
X69509670Y-26943051D01*
X69505619Y-26939852D01*
X69505615Y-26939848D01*
X69338414Y-26807800D01*
X69338410Y-26807798D01*
X69334359Y-26804598D01*
X69298028Y-26784542D01*
X69239661Y-26752322D01*
X69138789Y-26696638D01*
X69133920Y-26694914D01*
X69133916Y-26694912D01*
X68933087Y-26623795D01*
X68933083Y-26623794D01*
X68928212Y-26622069D01*
X68923119Y-26621162D01*
X68923116Y-26621161D01*
X68713373Y-26583800D01*
X68713367Y-26583799D01*
X68708284Y-26582894D01*
X68634452Y-26581992D01*
X68490081Y-26580228D01*
X68490079Y-26580228D01*
X68484911Y-26580165D01*
X68264091Y-26613955D01*
X68051756Y-26683357D01*
X67973455Y-26724118D01*
X67915899Y-26754080D01*
X67853607Y-26786507D01*
X67849474Y-26789610D01*
X67849471Y-26789612D01*
X67825247Y-26807800D01*
X67674965Y-26920635D01*
X67520629Y-27082138D01*
X67413201Y-27239621D01*
X67358293Y-27284621D01*
X67287768Y-27292792D01*
X67224021Y-27261538D01*
X67203324Y-27237054D01*
X67122822Y-27112617D01*
X67122820Y-27112614D01*
X67120014Y-27108277D01*
X66969670Y-26943051D01*
X66965619Y-26939852D01*
X66965615Y-26939848D01*
X66798414Y-26807800D01*
X66798410Y-26807798D01*
X66794359Y-26804598D01*
X66758028Y-26784542D01*
X66699661Y-26752322D01*
X66598789Y-26696638D01*
X66593920Y-26694914D01*
X66593916Y-26694912D01*
X66393087Y-26623795D01*
X66393083Y-26623794D01*
X66388212Y-26622069D01*
X66383119Y-26621162D01*
X66383116Y-26621161D01*
X66173373Y-26583800D01*
X66173367Y-26583799D01*
X66168284Y-26582894D01*
X66094452Y-26581992D01*
X65950081Y-26580228D01*
X65950079Y-26580228D01*
X65944911Y-26580165D01*
X65724091Y-26613955D01*
X65511756Y-26683357D01*
X65433455Y-26724118D01*
X65375899Y-26754080D01*
X65313607Y-26786507D01*
X65309474Y-26789610D01*
X65309471Y-26789612D01*
X65285247Y-26807800D01*
X65134965Y-26920635D01*
X64980629Y-27082138D01*
X64873201Y-27239621D01*
X64818293Y-27284621D01*
X64747768Y-27292792D01*
X64684021Y-27261538D01*
X64663324Y-27237054D01*
X64582822Y-27112617D01*
X64582820Y-27112614D01*
X64580014Y-27108277D01*
X64429670Y-26943051D01*
X64425619Y-26939852D01*
X64425615Y-26939848D01*
X64258414Y-26807800D01*
X64258410Y-26807798D01*
X64254359Y-26804598D01*
X64218028Y-26784542D01*
X64159661Y-26752322D01*
X64058789Y-26696638D01*
X64053920Y-26694914D01*
X64053916Y-26694912D01*
X63853087Y-26623795D01*
X63853083Y-26623794D01*
X63848212Y-26622069D01*
X63843119Y-26621162D01*
X63843116Y-26621161D01*
X63633373Y-26583800D01*
X63633367Y-26583799D01*
X63628284Y-26582894D01*
X63554452Y-26581992D01*
X63410081Y-26580228D01*
X63410079Y-26580228D01*
X63404911Y-26580165D01*
X63184091Y-26613955D01*
X62971756Y-26683357D01*
X62893455Y-26724118D01*
X62835899Y-26754080D01*
X62773607Y-26786507D01*
X62769474Y-26789610D01*
X62769471Y-26789612D01*
X62745247Y-26807800D01*
X62594965Y-26920635D01*
X62440629Y-27082138D01*
X62333201Y-27239621D01*
X62278293Y-27284621D01*
X62207768Y-27292792D01*
X62144021Y-27261538D01*
X62123324Y-27237054D01*
X62042822Y-27112617D01*
X62042820Y-27112614D01*
X62040014Y-27108277D01*
X61889670Y-26943051D01*
X61885619Y-26939852D01*
X61885615Y-26939848D01*
X61718414Y-26807800D01*
X61718410Y-26807798D01*
X61714359Y-26804598D01*
X61678028Y-26784542D01*
X61619661Y-26752322D01*
X61518789Y-26696638D01*
X61513920Y-26694914D01*
X61513916Y-26694912D01*
X61313087Y-26623795D01*
X61313083Y-26623794D01*
X61308212Y-26622069D01*
X61303119Y-26621162D01*
X61303116Y-26621161D01*
X61093373Y-26583800D01*
X61093367Y-26583799D01*
X61088284Y-26582894D01*
X61014452Y-26581992D01*
X60870081Y-26580228D01*
X60870079Y-26580228D01*
X60864911Y-26580165D01*
X60644091Y-26613955D01*
X60431756Y-26683357D01*
X60353455Y-26724118D01*
X60295899Y-26754080D01*
X60233607Y-26786507D01*
X60229474Y-26789610D01*
X60229471Y-26789612D01*
X60205247Y-26807800D01*
X60054965Y-26920635D01*
X59900629Y-27082138D01*
X59774743Y-27266680D01*
X59743210Y-27334612D01*
X59683659Y-27462905D01*
X59680688Y-27469305D01*
X59620989Y-27684570D01*
X59597251Y-27906695D01*
X59597548Y-27911848D01*
X59597548Y-27911851D01*
X59603743Y-28019297D01*
X59610110Y-28129715D01*
X59611247Y-28134761D01*
X59611248Y-28134767D01*
X59632275Y-28228069D01*
X59659222Y-28347639D01*
X59703568Y-28456851D01*
X59732927Y-28529153D01*
X59743266Y-28554616D01*
X59793863Y-28637183D01*
X59857291Y-28740688D01*
X59859987Y-28745088D01*
X60006250Y-28913938D01*
X60178126Y-29056632D01*
X60239529Y-29092513D01*
X60251445Y-29099476D01*
X60300169Y-29151114D01*
X60313240Y-29220897D01*
X60286509Y-29286669D01*
X60246055Y-29320027D01*
X60233607Y-29326507D01*
X60229474Y-29329610D01*
X60229471Y-29329612D01*
X60059100Y-29457530D01*
X60054965Y-29460635D01*
X60015815Y-29501603D01*
X59949544Y-29570952D01*
X59900629Y-29622138D01*
X59774743Y-29806680D01*
X59680688Y-30009305D01*
X59620989Y-30224570D01*
X59597251Y-30446695D01*
X46228500Y-30446695D01*
X46228500Y-25003017D01*
X46248502Y-24934896D01*
X46302158Y-24888403D01*
X46372432Y-24878299D01*
X46437012Y-24907793D01*
X46467213Y-24946698D01*
X46572161Y-25156731D01*
X46594231Y-25200901D01*
X46818974Y-25565502D01*
X47075239Y-25908682D01*
X47077100Y-25910760D01*
X47077101Y-25910761D01*
X47359127Y-26225637D01*
X47359133Y-26225643D01*
X47360995Y-26227722D01*
X47673981Y-26520098D01*
X48011719Y-26783493D01*
X48371533Y-27015822D01*
X48374012Y-27017126D01*
X48374015Y-27017128D01*
X48748077Y-27213932D01*
X48748083Y-27213935D01*
X48750577Y-27215247D01*
X48753175Y-27216331D01*
X48753179Y-27216333D01*
X49143263Y-27379109D01*
X49143268Y-27379111D01*
X49145847Y-27380187D01*
X49148512Y-27381030D01*
X49148518Y-27381032D01*
X49370561Y-27451254D01*
X49554214Y-27509336D01*
X49972446Y-27601673D01*
X49975220Y-27602031D01*
X49975221Y-27602031D01*
X50394460Y-27656109D01*
X50394467Y-27656110D01*
X50397230Y-27656466D01*
X50400017Y-27656576D01*
X50400023Y-27656576D01*
X50648238Y-27666328D01*
X50825203Y-27673281D01*
X50827995Y-27673142D01*
X50828000Y-27673142D01*
X51250172Y-27652125D01*
X51250181Y-27652124D01*
X51252976Y-27651985D01*
X51255753Y-27651597D01*
X51255755Y-27651597D01*
X51330066Y-27641219D01*
X51677163Y-27592747D01*
X52094404Y-27496036D01*
X52390445Y-27398989D01*
X52498744Y-27363487D01*
X52498750Y-27363485D01*
X52501397Y-27362617D01*
X52894918Y-27193547D01*
X52940792Y-27168795D01*
X53021652Y-27125165D01*
X53271852Y-26990164D01*
X53629214Y-26754080D01*
X53964175Y-26487162D01*
X54274082Y-26191525D01*
X54275919Y-26189431D01*
X54275927Y-26189422D01*
X54554635Y-25871616D01*
X54556482Y-25869510D01*
X54809139Y-25523666D01*
X54810585Y-25521265D01*
X55028601Y-25159142D01*
X55028606Y-25159133D01*
X55030052Y-25156731D01*
X55165551Y-24878299D01*
X55216238Y-24774145D01*
X55216239Y-24774142D01*
X55217471Y-24771611D01*
X55350724Y-24421741D01*
X55368918Y-24373971D01*
X55368920Y-24373964D01*
X55369914Y-24371355D01*
X55486173Y-23959132D01*
X55555433Y-23590822D01*
X55564811Y-23540954D01*
X55564813Y-23540942D01*
X55565327Y-23538207D01*
X55606750Y-23111911D01*
X55608194Y-23056780D01*
X55613289Y-22862234D01*
X55613289Y-22862220D01*
X55613347Y-22860000D01*
X55594291Y-22432121D01*
X55537275Y-22007630D01*
X55508666Y-21881193D01*
X55443368Y-21592618D01*
X55443368Y-21592617D01*
X55442750Y-21589887D01*
X55311463Y-21182202D01*
X55158635Y-20821285D01*
X55145550Y-20790384D01*
X55145548Y-20790379D01*
X55144456Y-20787801D01*
X54943050Y-20409807D01*
X54708840Y-20051214D01*
X54443680Y-19714860D01*
X54149670Y-19403409D01*
X54147579Y-19401556D01*
X54147571Y-19401548D01*
X53831237Y-19121188D01*
X53831235Y-19121186D01*
X53829137Y-19119327D01*
X53484621Y-18864863D01*
X53291733Y-18747355D01*
X53121237Y-18643487D01*
X53121230Y-18643483D01*
X53118848Y-18642032D01*
X53001514Y-18584169D01*
X52986022Y-18576529D01*
X52886612Y-18527506D01*
X52834363Y-18479438D01*
X52816396Y-18410752D01*
X52838415Y-18343256D01*
X52893430Y-18298380D01*
X52942340Y-18288500D01*
X127396422Y-18288500D01*
X127464543Y-18308502D01*
G37*
%TD.AperFunction*%
%TA.AperFunction,Conductor*%
G36*
X84151493Y-57127204D02*
G01*
X84202222Y-57158126D01*
X84402854Y-57358758D01*
X84410398Y-57367048D01*
X84414511Y-57373529D01*
X84420288Y-57378954D01*
X84464178Y-57420169D01*
X84467020Y-57422924D01*
X84486742Y-57442646D01*
X84489866Y-57445069D01*
X84489870Y-57445073D01*
X84489935Y-57445123D01*
X84498956Y-57452828D01*
X84531190Y-57483097D01*
X84538138Y-57486916D01*
X84538140Y-57486918D01*
X84548943Y-57492857D01*
X84565470Y-57503713D01*
X84575209Y-57511268D01*
X84575211Y-57511269D01*
X84581471Y-57516125D01*
X84622051Y-57533685D01*
X84632699Y-57538902D01*
X84671451Y-57560206D01*
X84679127Y-57562177D01*
X84679130Y-57562178D01*
X84691073Y-57565244D01*
X84709778Y-57571648D01*
X84728366Y-57579692D01*
X84736189Y-57580931D01*
X84736199Y-57580934D01*
X84772035Y-57586610D01*
X84783655Y-57589016D01*
X84818800Y-57598039D01*
X84826481Y-57600011D01*
X84846735Y-57600011D01*
X84866445Y-57601562D01*
X84886454Y-57604731D01*
X84894346Y-57603985D01*
X84930472Y-57600570D01*
X84942330Y-57600011D01*
X122129023Y-57600011D01*
X122197144Y-57620013D01*
X122218118Y-57636916D01*
X129398107Y-64816905D01*
X129432133Y-64879217D01*
X129427068Y-64950032D01*
X129384521Y-65006868D01*
X129318001Y-65031679D01*
X129309012Y-65032000D01*
X128995332Y-65032001D01*
X128988510Y-65032371D01*
X128937648Y-65037895D01*
X128922396Y-65041521D01*
X128801946Y-65086676D01*
X128786351Y-65095214D01*
X128684276Y-65171715D01*
X128671715Y-65184276D01*
X128595214Y-65286351D01*
X128586676Y-65301946D01*
X128541522Y-65422394D01*
X128537895Y-65437649D01*
X128532369Y-65488514D01*
X128532000Y-65495328D01*
X128532000Y-65767885D01*
X128536475Y-65783124D01*
X128537865Y-65784329D01*
X128545548Y-65786000D01*
X129668000Y-65786000D01*
X129736121Y-65806002D01*
X129782614Y-65859658D01*
X129794000Y-65912000D01*
X129794000Y-66168000D01*
X129773998Y-66236121D01*
X129720342Y-66282614D01*
X129668000Y-66294000D01*
X128550116Y-66294000D01*
X128534877Y-66298475D01*
X128533672Y-66299865D01*
X128532001Y-66307548D01*
X128532001Y-66584669D01*
X128532371Y-66591490D01*
X128537895Y-66642352D01*
X128541521Y-66657604D01*
X128586676Y-66778054D01*
X128599522Y-66801517D01*
X128597213Y-66802781D01*
X128617242Y-66856401D01*
X128608125Y-66910647D01*
X128608567Y-66910787D01*
X128606706Y-66916654D01*
X128606705Y-66916656D01*
X128550627Y-67093436D01*
X128548765Y-67099306D01*
X128526719Y-67295851D01*
X128543268Y-67492934D01*
X128597783Y-67683050D01*
X128688187Y-67858956D01*
X128692016Y-67863787D01*
X128693839Y-67866088D01*
X128694414Y-67867509D01*
X128695353Y-67868966D01*
X128695076Y-67869144D01*
X128720474Y-67931898D01*
X128707301Y-68001662D01*
X128703846Y-68007474D01*
X128608567Y-68180787D01*
X128606706Y-68186654D01*
X128606705Y-68186656D01*
X128550627Y-68363436D01*
X128548765Y-68369306D01*
X128526719Y-68565851D01*
X128543268Y-68762934D01*
X128597783Y-68953050D01*
X128688187Y-69128956D01*
X128692016Y-69133787D01*
X128693839Y-69136088D01*
X128694414Y-69137509D01*
X128695353Y-69138966D01*
X128695076Y-69139144D01*
X128720474Y-69201898D01*
X128707301Y-69271662D01*
X128703846Y-69277474D01*
X128608567Y-69450787D01*
X128606706Y-69456654D01*
X128606705Y-69456656D01*
X128604798Y-69462669D01*
X128548765Y-69639306D01*
X128526719Y-69835851D01*
X128527235Y-69841995D01*
X128534860Y-69932798D01*
X128543268Y-70032934D01*
X128597783Y-70223050D01*
X128688187Y-70398956D01*
X128692016Y-70403787D01*
X128693839Y-70406088D01*
X128694414Y-70407509D01*
X128695353Y-70408966D01*
X128695076Y-70409144D01*
X128720474Y-70471898D01*
X128707301Y-70541662D01*
X128703846Y-70547474D01*
X128608567Y-70720787D01*
X128548765Y-70909306D01*
X128526719Y-71105851D01*
X128527235Y-71111994D01*
X128532481Y-71174467D01*
X128518249Y-71244023D01*
X128468672Y-71294843D01*
X128406923Y-71311011D01*
X97659106Y-71311011D01*
X97590985Y-71291009D01*
X97570011Y-71274106D01*
X83660692Y-57364787D01*
X83626666Y-57302475D01*
X83631731Y-57231660D01*
X83674278Y-57174824D01*
X83740798Y-57150013D01*
X83760768Y-57150171D01*
X83820000Y-57155353D01*
X84041463Y-57135978D01*
X84057642Y-57131643D01*
X84080516Y-57125514D01*
X84151493Y-57127204D01*
G37*
%TD.AperFunction*%
%TD*%
M02*
