%TF.GenerationSoftware,KiCad,Pcbnew,(6.0.7)*%
%TF.CreationDate,2022-10-03T21:19:44+02:00*%
%TF.ProjectId,RFM9xW_868_PMOD,52464d39-7857-45f3-9836-385f504d4f44,rev?*%
%TF.SameCoordinates,Original*%
%TF.FileFunction,Legend,Top*%
%TF.FilePolarity,Positive*%
%FSLAX46Y46*%
G04 Gerber Fmt 4.6, Leading zero omitted, Abs format (unit mm)*
G04 Created by KiCad (PCBNEW (6.0.7)) date 2022-10-03 21:19:44*
%MOMM*%
%LPD*%
G01*
G04 APERTURE LIST*
%ADD10C,0.150000*%
%ADD11C,0.120000*%
G04 APERTURE END LIST*
D10*
%TO.C,C3*%
X121345833Y-47187142D02*
X121298214Y-47234761D01*
X121155357Y-47282380D01*
X121060119Y-47282380D01*
X120917261Y-47234761D01*
X120822023Y-47139523D01*
X120774404Y-47044285D01*
X120726785Y-46853809D01*
X120726785Y-46710952D01*
X120774404Y-46520476D01*
X120822023Y-46425238D01*
X120917261Y-46330000D01*
X121060119Y-46282380D01*
X121155357Y-46282380D01*
X121298214Y-46330000D01*
X121345833Y-46377619D01*
X121679166Y-46282380D02*
X122298214Y-46282380D01*
X121964880Y-46663333D01*
X122107738Y-46663333D01*
X122202976Y-46710952D01*
X122250595Y-46758571D01*
X122298214Y-46853809D01*
X122298214Y-47091904D01*
X122250595Y-47187142D01*
X122202976Y-47234761D01*
X122107738Y-47282380D01*
X121822023Y-47282380D01*
X121726785Y-47234761D01*
X121679166Y-47187142D01*
%TO.C,C1*%
X126198333Y-46077142D02*
X126150714Y-46124761D01*
X126007857Y-46172380D01*
X125912619Y-46172380D01*
X125769761Y-46124761D01*
X125674523Y-46029523D01*
X125626904Y-45934285D01*
X125579285Y-45743809D01*
X125579285Y-45600952D01*
X125626904Y-45410476D01*
X125674523Y-45315238D01*
X125769761Y-45220000D01*
X125912619Y-45172380D01*
X126007857Y-45172380D01*
X126150714Y-45220000D01*
X126198333Y-45267619D01*
X127150714Y-46172380D02*
X126579285Y-46172380D01*
X126865000Y-46172380D02*
X126865000Y-45172380D01*
X126769761Y-45315238D01*
X126674523Y-45410476D01*
X126579285Y-45458095D01*
%TO.C,L1*%
X122388333Y-52522380D02*
X121912142Y-52522380D01*
X121912142Y-51522380D01*
X123245476Y-52522380D02*
X122674047Y-52522380D01*
X122959761Y-52522380D02*
X122959761Y-51522380D01*
X122864523Y-51665238D01*
X122769285Y-51760476D01*
X122674047Y-51808095D01*
%TO.C,U1*%
X136398095Y-58182380D02*
X136398095Y-58991904D01*
X136445714Y-59087142D01*
X136493333Y-59134761D01*
X136588571Y-59182380D01*
X136779047Y-59182380D01*
X136874285Y-59134761D01*
X136921904Y-59087142D01*
X136969523Y-58991904D01*
X136969523Y-58182380D01*
X137969523Y-59182380D02*
X137398095Y-59182380D01*
X137683809Y-59182380D02*
X137683809Y-58182380D01*
X137588571Y-58325238D01*
X137493333Y-58420476D01*
X137398095Y-58468095D01*
%TO.C,C4*%
X121345833Y-58142142D02*
X121298214Y-58189761D01*
X121155357Y-58237380D01*
X121060119Y-58237380D01*
X120917261Y-58189761D01*
X120822023Y-58094523D01*
X120774404Y-57999285D01*
X120726785Y-57808809D01*
X120726785Y-57665952D01*
X120774404Y-57475476D01*
X120822023Y-57380238D01*
X120917261Y-57285000D01*
X121060119Y-57237380D01*
X121155357Y-57237380D01*
X121298214Y-57285000D01*
X121345833Y-57332619D01*
X122202976Y-57570714D02*
X122202976Y-58237380D01*
X121964880Y-57189761D02*
X121726785Y-57904047D01*
X122345833Y-57904047D01*
%TO.C,J2*%
X120316666Y-43997380D02*
X120316666Y-44711666D01*
X120269047Y-44854523D01*
X120173809Y-44949761D01*
X120030952Y-44997380D01*
X119935714Y-44997380D01*
X120745238Y-44092619D02*
X120792857Y-44045000D01*
X120888095Y-43997380D01*
X121126190Y-43997380D01*
X121221428Y-44045000D01*
X121269047Y-44092619D01*
X121316666Y-44187857D01*
X121316666Y-44283095D01*
X121269047Y-44425952D01*
X120697619Y-44997380D01*
X121316666Y-44997380D01*
%TO.C,C2*%
X126198333Y-55602142D02*
X126150714Y-55649761D01*
X126007857Y-55697380D01*
X125912619Y-55697380D01*
X125769761Y-55649761D01*
X125674523Y-55554523D01*
X125626904Y-55459285D01*
X125579285Y-55268809D01*
X125579285Y-55125952D01*
X125626904Y-54935476D01*
X125674523Y-54840238D01*
X125769761Y-54745000D01*
X125912619Y-54697380D01*
X126007857Y-54697380D01*
X126150714Y-54745000D01*
X126198333Y-54792619D01*
X126579285Y-54792619D02*
X126626904Y-54745000D01*
X126722142Y-54697380D01*
X126960238Y-54697380D01*
X127055476Y-54745000D01*
X127103095Y-54792619D01*
X127150714Y-54887857D01*
X127150714Y-54983095D01*
X127103095Y-55125952D01*
X126531666Y-55697380D01*
X127150714Y-55697380D01*
D11*
%TO.C,J1*%
X150902929Y-50420000D02*
X151357071Y-50420000D01*
X162500000Y-42800000D02*
X162500000Y-43560000D01*
X156500000Y-43220000D02*
X162500000Y-43220000D01*
X156500000Y-42860000D02*
X162500000Y-42860000D01*
X153840000Y-41850000D02*
X153840000Y-57210000D01*
X148590000Y-41910000D02*
X149860000Y-41910000D01*
X156500000Y-43100000D02*
X162500000Y-43100000D01*
X150902929Y-55500000D02*
X151357071Y-55500000D01*
X156500000Y-43460000D02*
X162500000Y-43460000D01*
X153442929Y-47880000D02*
X153840000Y-47880000D01*
X162500000Y-46100000D02*
X156500000Y-46100000D01*
X153442929Y-43560000D02*
X153840000Y-43560000D01*
X153442929Y-45340000D02*
X153840000Y-45340000D01*
X153442929Y-51180000D02*
X153840000Y-51180000D01*
X153840000Y-49530000D02*
X156500000Y-49530000D01*
X148590000Y-43180000D02*
X148590000Y-41910000D01*
X153442929Y-55500000D02*
X153840000Y-55500000D01*
X153840000Y-54610000D02*
X156500000Y-54610000D01*
X153442929Y-48640000D02*
X153840000Y-48640000D01*
X150902929Y-45340000D02*
X151357071Y-45340000D01*
X153442929Y-42800000D02*
X153840000Y-42800000D01*
X156500000Y-42980000D02*
X162500000Y-42980000D01*
X162500000Y-47880000D02*
X162500000Y-48640000D01*
X162500000Y-48640000D02*
X156500000Y-48640000D01*
X150902929Y-52960000D02*
X151357071Y-52960000D01*
X156500000Y-41850000D02*
X153840000Y-41850000D01*
X150902929Y-48640000D02*
X151357071Y-48640000D01*
X153442929Y-46100000D02*
X153840000Y-46100000D01*
X153840000Y-52070000D02*
X156500000Y-52070000D01*
X162500000Y-43560000D02*
X156500000Y-43560000D01*
X156500000Y-50420000D02*
X162500000Y-50420000D01*
X150902929Y-56260000D02*
X151357071Y-56260000D01*
X156500000Y-47880000D02*
X162500000Y-47880000D01*
X153442929Y-50420000D02*
X153840000Y-50420000D01*
X150902929Y-46100000D02*
X151357071Y-46100000D01*
X153840000Y-57210000D02*
X156500000Y-57210000D01*
X156500000Y-45340000D02*
X162500000Y-45340000D01*
X153442929Y-52960000D02*
X153840000Y-52960000D01*
X150902929Y-51180000D02*
X151357071Y-51180000D01*
X156500000Y-57210000D02*
X156500000Y-41850000D01*
X150902929Y-53720000D02*
X151357071Y-53720000D01*
X150970000Y-43560000D02*
X151357071Y-43560000D01*
X156500000Y-43340000D02*
X162500000Y-43340000D01*
X162500000Y-53720000D02*
X156500000Y-53720000D01*
X162500000Y-52960000D02*
X162500000Y-53720000D01*
X162500000Y-50420000D02*
X162500000Y-51180000D01*
X153442929Y-53720000D02*
X153840000Y-53720000D01*
X153442929Y-56260000D02*
X153840000Y-56260000D01*
X156500000Y-55500000D02*
X162500000Y-55500000D01*
X162500000Y-45340000D02*
X162500000Y-46100000D01*
X153840000Y-44450000D02*
X156500000Y-44450000D01*
X162500000Y-51180000D02*
X156500000Y-51180000D01*
X156500000Y-42800000D02*
X162500000Y-42800000D01*
X162500000Y-56260000D02*
X156500000Y-56260000D01*
X150902929Y-47880000D02*
X151357071Y-47880000D01*
X153840000Y-46990000D02*
X156500000Y-46990000D01*
X162500000Y-55500000D02*
X162500000Y-56260000D01*
X156500000Y-52960000D02*
X162500000Y-52960000D01*
X150970000Y-42800000D02*
X151357071Y-42800000D01*
%TO.C,C3*%
X121366233Y-48770000D02*
X121658767Y-48770000D01*
X121366233Y-47750000D02*
X121658767Y-47750000D01*
%TO.C,C1*%
X127100000Y-48521252D02*
X127100000Y-47998748D01*
X125630000Y-48521252D02*
X125630000Y-47998748D01*
%TO.C,L1*%
X120140000Y-51898733D02*
X120140000Y-52241267D01*
X121160000Y-51898733D02*
X121160000Y-52241267D01*
%TO.C,U1*%
X129060000Y-57630000D02*
X129060000Y-57230000D01*
X129060000Y-41430000D02*
X129060000Y-41830000D01*
X145260000Y-57630000D02*
X129060000Y-57630000D01*
X145260000Y-57280000D02*
X146160000Y-57280000D01*
X145260000Y-57630000D02*
X145260000Y-57280000D01*
X145260000Y-41830000D02*
X145260000Y-41430000D01*
X145260000Y-41430000D02*
X129060000Y-41430000D01*
%TO.C,C4*%
X121366233Y-56390000D02*
X121658767Y-56390000D01*
X121366233Y-55370000D02*
X121658767Y-55370000D01*
%TO.C,J2*%
X119150000Y-39745000D02*
X119150000Y-39545000D01*
X122150000Y-42545000D02*
X121350000Y-42545000D01*
X122150000Y-39545000D02*
X122150000Y-39745000D01*
X119150000Y-39545000D02*
X119950000Y-39545000D01*
X121350000Y-42545000D02*
X121350000Y-43045000D01*
X122150000Y-42345000D02*
X122150000Y-42545000D01*
X119950000Y-42545000D02*
X119350000Y-42545000D01*
X119950000Y-42545000D02*
X119950000Y-43045000D01*
X119350000Y-42545000D02*
X119150000Y-42345000D01*
X121350000Y-39545000D02*
X122150000Y-39545000D01*
%TO.C,C2*%
X125630000Y-52443748D02*
X125630000Y-52966252D01*
X127100000Y-52443748D02*
X127100000Y-52966252D01*
%TD*%
M02*
