%TF.GenerationSoftware,KiCad,Pcbnew,7.0.1*%
%TF.CreationDate,2023-03-26T17:20:59+02:00*%
%TF.ProjectId,RA01_ANT_PMOD,52413031-5f41-44e5-945f-504d4f442e6b,rev?*%
%TF.SameCoordinates,Original*%
%TF.FileFunction,Copper,L2,Bot*%
%TF.FilePolarity,Positive*%
%FSLAX46Y46*%
G04 Gerber Fmt 4.6, Leading zero omitted, Abs format (unit mm)*
G04 Created by KiCad (PCBNEW 7.0.1) date 2023-03-26 17:20:59*
%MOMM*%
%LPD*%
G01*
G04 APERTURE LIST*
%TA.AperFunction,ComponentPad*%
%ADD10R,1.700000X1.700000*%
%TD*%
%TA.AperFunction,ComponentPad*%
%ADD11O,1.700000X1.700000*%
%TD*%
%TA.AperFunction,ViaPad*%
%ADD12C,0.800000*%
%TD*%
%TA.AperFunction,Conductor*%
%ADD13C,0.250000*%
%TD*%
G04 APERTURE END LIST*
D10*
%TO.P,J1,1,Pin_1*%
%TO.N,VCC*%
X149860000Y-43180000D03*
D11*
%TO.P,J1,2,Pin_2*%
X152400000Y-43180000D03*
%TO.P,J1,3,Pin_3*%
%TO.N,GND*%
X149860000Y-45720000D03*
%TO.P,J1,4,Pin_4*%
X152400000Y-45720000D03*
%TO.P,J1,5,Pin_5*%
%TO.N,SCK*%
X149860000Y-48260000D03*
%TO.P,J1,6,Pin_6*%
%TO.N,unconnected-(J1-Pin_6-Pad6)*%
X152400000Y-48260000D03*
%TO.P,J1,7,Pin_7*%
%TO.N,MISO*%
X149860000Y-50800000D03*
%TO.P,J1,8,Pin_8*%
%TO.N,unconnected-(J1-Pin_8-Pad8)*%
X152400000Y-50800000D03*
%TO.P,J1,9,Pin_9*%
%TO.N,MOSI*%
X149860000Y-53340000D03*
%TO.P,J1,10,Pin_10*%
%TO.N,nRESET*%
X152400000Y-53340000D03*
%TO.P,J1,11,Pin_11*%
%TO.N,nCS*%
X149860000Y-55880000D03*
%TO.P,J1,12,Pin_12*%
%TO.N,DIO0*%
X152400000Y-55880000D03*
%TD*%
D10*
%TO.P,J2,1,Pin_1*%
%TO.N,Net-(J2-Pin_1)*%
X122555000Y-43815000D03*
%TD*%
D12*
%TO.N,nRESET*%
X130810000Y-50800000D03*
%TO.N,nCS*%
X140970000Y-55880000D03*
%TO.N,MOSI*%
X140970000Y-53340000D03*
%TD*%
D13*
%TO.N,nRESET*%
X151130000Y-54610000D02*
X152400000Y-53340000D01*
X151130000Y-56271701D02*
X151130000Y-54610000D01*
X130810000Y-50800000D02*
X137065000Y-57055000D01*
X137065000Y-57055000D02*
X150346701Y-57055000D01*
X150346701Y-57055000D02*
X151130000Y-56271701D01*
%TO.N,nCS*%
X149860000Y-55880000D02*
X140970000Y-55880000D01*
%TO.N,MOSI*%
X149860000Y-53340000D02*
X140970000Y-53340000D01*
%TD*%
%TA.AperFunction,Conductor*%
%TO.N,GND*%
G36*
X156121500Y-38142381D02*
G01*
X156167619Y-38188500D01*
X156184500Y-38251500D01*
X156184500Y-60808500D01*
X156167619Y-60871500D01*
X156121500Y-60917619D01*
X156058500Y-60934500D01*
X119531500Y-60934500D01*
X119468500Y-60917619D01*
X119422381Y-60871500D01*
X119405500Y-60808500D01*
X119405500Y-50800000D01*
X129904540Y-50800000D01*
X129924325Y-50988257D01*
X129982820Y-51168283D01*
X130077465Y-51332214D01*
X130077467Y-51332216D01*
X130204129Y-51472888D01*
X130357270Y-51584151D01*
X130357271Y-51584151D01*
X130357272Y-51584152D01*
X130530192Y-51661142D01*
X130530197Y-51661144D01*
X130715354Y-51700500D01*
X130773720Y-51700500D01*
X130821938Y-51710091D01*
X130862815Y-51737405D01*
X136564039Y-57438630D01*
X136576972Y-57454771D01*
X136579213Y-57456875D01*
X136579214Y-57456877D01*
X136595561Y-57472228D01*
X136628206Y-57502884D01*
X136631017Y-57505608D01*
X136650528Y-57525119D01*
X136650529Y-57525120D01*
X136653628Y-57527524D01*
X136662650Y-57535230D01*
X136694418Y-57565062D01*
X136711832Y-57574635D01*
X136728355Y-57585488D01*
X136744064Y-57597673D01*
X136784066Y-57614983D01*
X136794711Y-57620198D01*
X136800721Y-57623502D01*
X136832909Y-57641198D01*
X136852148Y-57646137D01*
X136870861Y-57652544D01*
X136889101Y-57660437D01*
X136889102Y-57660437D01*
X136889104Y-57660438D01*
X136932155Y-57667256D01*
X136943766Y-57669661D01*
X136985981Y-57680500D01*
X137005856Y-57680500D01*
X137025564Y-57682050D01*
X137045196Y-57685160D01*
X137088579Y-57681058D01*
X137100437Y-57680500D01*
X150263736Y-57680500D01*
X150284293Y-57682769D01*
X150287365Y-57682672D01*
X150287368Y-57682673D01*
X150354542Y-57680561D01*
X150358500Y-57680500D01*
X150386047Y-57680500D01*
X150386051Y-57680500D01*
X150389942Y-57680008D01*
X150401769Y-57679077D01*
X150445328Y-57677709D01*
X150464416Y-57672162D01*
X150483775Y-57668154D01*
X150503493Y-57665664D01*
X150544017Y-57649618D01*
X150555225Y-57645780D01*
X150597091Y-57633618D01*
X150614194Y-57623502D01*
X150631955Y-57614802D01*
X150650430Y-57607487D01*
X150650429Y-57607487D01*
X150650433Y-57607486D01*
X150685702Y-57581860D01*
X150695590Y-57575365D01*
X150733121Y-57553170D01*
X150747170Y-57539120D01*
X150762210Y-57526275D01*
X150767453Y-57522465D01*
X150778288Y-57514594D01*
X150806081Y-57480996D01*
X150814050Y-57472239D01*
X151359261Y-56927028D01*
X151408721Y-56896520D01*
X151466615Y-56891455D01*
X151520625Y-56912912D01*
X151540788Y-56927030D01*
X151722170Y-57054035D01*
X151836468Y-57107333D01*
X151936336Y-57153903D01*
X152019881Y-57176288D01*
X152164592Y-57215063D01*
X152400000Y-57235659D01*
X152635408Y-57215063D01*
X152863663Y-57153903D01*
X153077830Y-57054035D01*
X153271401Y-56918495D01*
X153438495Y-56751401D01*
X153574035Y-56557830D01*
X153673903Y-56343663D01*
X153735063Y-56115408D01*
X153755659Y-55880000D01*
X153735063Y-55644592D01*
X153673903Y-55416337D01*
X153574035Y-55202171D01*
X153438495Y-55008599D01*
X153438494Y-55008598D01*
X153438492Y-55008595D01*
X153271404Y-54841507D01*
X153088181Y-54713212D01*
X153048688Y-54668179D01*
X153034452Y-54609999D01*
X153048689Y-54551818D01*
X153088180Y-54506787D01*
X153271401Y-54378495D01*
X153438495Y-54211401D01*
X153574035Y-54017830D01*
X153673903Y-53803663D01*
X153735063Y-53575408D01*
X153755659Y-53340000D01*
X153735063Y-53104592D01*
X153673903Y-52876337D01*
X153574035Y-52662171D01*
X153438495Y-52468599D01*
X153438494Y-52468598D01*
X153438492Y-52468595D01*
X153271404Y-52301507D01*
X153088181Y-52173213D01*
X153048689Y-52128180D01*
X153034452Y-52070000D01*
X153048689Y-52011820D01*
X153088181Y-51966787D01*
X153271401Y-51838495D01*
X153438495Y-51671401D01*
X153574035Y-51477830D01*
X153673903Y-51263663D01*
X153735063Y-51035408D01*
X153755659Y-50800000D01*
X153735063Y-50564592D01*
X153673903Y-50336337D01*
X153574035Y-50122171D01*
X153438495Y-49928599D01*
X153438494Y-49928598D01*
X153438492Y-49928595D01*
X153271404Y-49761507D01*
X153088181Y-49633213D01*
X153048689Y-49588180D01*
X153034452Y-49530000D01*
X153048689Y-49471820D01*
X153088181Y-49426787D01*
X153271401Y-49298495D01*
X153438495Y-49131401D01*
X153574035Y-48937830D01*
X153673903Y-48723663D01*
X153735063Y-48495408D01*
X153755659Y-48260000D01*
X153735063Y-48024592D01*
X153673903Y-47796337D01*
X153574035Y-47582171D01*
X153438495Y-47388599D01*
X153438494Y-47388598D01*
X153438492Y-47388595D01*
X153271404Y-47221507D01*
X153092882Y-47096504D01*
X153051765Y-47048239D01*
X153039361Y-46986060D01*
X153058809Y-46925712D01*
X153105185Y-46882477D01*
X153145298Y-46860769D01*
X153322903Y-46722533D01*
X153475321Y-46556962D01*
X153598419Y-46368548D01*
X153688822Y-46162451D01*
X153736544Y-45974000D01*
X148523455Y-45974000D01*
X148571177Y-46162451D01*
X148661580Y-46368548D01*
X148784678Y-46556962D01*
X148937096Y-46722533D01*
X149114701Y-46860769D01*
X149154815Y-46882477D01*
X149201191Y-46925712D01*
X149220639Y-46986060D01*
X149208235Y-47048239D01*
X149167118Y-47096504D01*
X148988595Y-47221507D01*
X148821507Y-47388595D01*
X148685965Y-47582170D01*
X148586096Y-47796337D01*
X148524937Y-48024590D01*
X148504341Y-48259999D01*
X148524937Y-48495409D01*
X148586096Y-48723663D01*
X148685965Y-48937830D01*
X148821507Y-49131404D01*
X148988595Y-49298492D01*
X149171819Y-49426787D01*
X149211311Y-49471820D01*
X149225548Y-49530000D01*
X149211311Y-49588180D01*
X149171819Y-49633213D01*
X148988595Y-49761507D01*
X148821507Y-49928595D01*
X148685965Y-50122170D01*
X148586096Y-50336337D01*
X148524937Y-50564590D01*
X148504341Y-50800000D01*
X148524937Y-51035409D01*
X148586096Y-51263663D01*
X148685965Y-51477830D01*
X148821507Y-51671404D01*
X148988595Y-51838492D01*
X149171819Y-51966787D01*
X149211311Y-52011820D01*
X149225548Y-52070000D01*
X149211311Y-52128180D01*
X149171819Y-52173213D01*
X148988595Y-52301507D01*
X148821507Y-52468595D01*
X148686945Y-52660771D01*
X148641912Y-52700263D01*
X148583732Y-52714500D01*
X141674638Y-52714500D01*
X141623389Y-52703606D01*
X141581001Y-52672810D01*
X141575869Y-52667110D01*
X141422727Y-52555847D01*
X141249807Y-52478857D01*
X141249803Y-52478856D01*
X141064646Y-52439500D01*
X140875354Y-52439500D01*
X140738472Y-52468595D01*
X140690192Y-52478857D01*
X140517272Y-52555847D01*
X140364129Y-52667111D01*
X140237465Y-52807785D01*
X140142820Y-52971716D01*
X140084325Y-53151742D01*
X140064540Y-53340000D01*
X140084325Y-53528257D01*
X140142820Y-53708283D01*
X140237465Y-53872214D01*
X140331270Y-53976394D01*
X140364129Y-54012888D01*
X140517270Y-54124151D01*
X140517271Y-54124151D01*
X140517272Y-54124152D01*
X140690192Y-54201142D01*
X140690197Y-54201144D01*
X140875354Y-54240500D01*
X141064644Y-54240500D01*
X141064646Y-54240500D01*
X141249803Y-54201144D01*
X141422730Y-54124151D01*
X141575871Y-54012888D01*
X141581002Y-54007189D01*
X141623389Y-53976394D01*
X141674638Y-53965500D01*
X148583731Y-53965500D01*
X148641911Y-53979737D01*
X148686944Y-54019229D01*
X148821507Y-54211404D01*
X148988595Y-54378492D01*
X148988598Y-54378494D01*
X148988599Y-54378495D01*
X149171819Y-54506787D01*
X149211311Y-54551820D01*
X149225548Y-54610000D01*
X149211311Y-54668180D01*
X149171819Y-54713213D01*
X148988595Y-54841507D01*
X148821507Y-55008595D01*
X148686945Y-55200771D01*
X148641912Y-55240263D01*
X148583732Y-55254500D01*
X141674638Y-55254500D01*
X141623389Y-55243606D01*
X141581001Y-55212810D01*
X141575869Y-55207110D01*
X141422727Y-55095847D01*
X141249807Y-55018857D01*
X141249803Y-55018856D01*
X141064646Y-54979500D01*
X140875354Y-54979500D01*
X140738472Y-55008595D01*
X140690192Y-55018857D01*
X140517272Y-55095847D01*
X140364129Y-55207111D01*
X140237465Y-55347785D01*
X140142820Y-55511716D01*
X140084325Y-55691742D01*
X140064540Y-55880000D01*
X140084325Y-56068257D01*
X140146913Y-56260879D01*
X140144036Y-56261813D01*
X140155208Y-56303491D01*
X140138330Y-56366495D01*
X140092211Y-56412618D01*
X140029208Y-56429500D01*
X137376280Y-56429500D01*
X137328062Y-56419909D01*
X137287185Y-56392595D01*
X131749461Y-50854870D01*
X131724830Y-50820019D01*
X131713247Y-50778949D01*
X131695674Y-50611744D01*
X131695674Y-50611742D01*
X131637179Y-50431716D01*
X131542534Y-50267785D01*
X131415870Y-50127111D01*
X131262727Y-50015847D01*
X131089807Y-49938857D01*
X131089803Y-49938856D01*
X130904646Y-49899500D01*
X130715354Y-49899500D01*
X130578472Y-49928595D01*
X130530192Y-49938857D01*
X130357272Y-50015847D01*
X130204129Y-50127111D01*
X130077465Y-50267785D01*
X129982820Y-50431716D01*
X129924325Y-50611742D01*
X129904540Y-50800000D01*
X119405500Y-50800000D01*
X119405500Y-44712874D01*
X121204500Y-44712874D01*
X121210908Y-44772481D01*
X121261204Y-44907331D01*
X121347453Y-45022546D01*
X121433702Y-45087112D01*
X121462669Y-45108796D01*
X121597517Y-45159091D01*
X121657127Y-45165500D01*
X123452872Y-45165499D01*
X123452874Y-45165499D01*
X123482677Y-45162294D01*
X123512483Y-45159091D01*
X123647331Y-45108796D01*
X123762546Y-45022546D01*
X123848796Y-44907331D01*
X123899091Y-44772483D01*
X123905500Y-44712873D01*
X123905500Y-44077874D01*
X148509500Y-44077874D01*
X148515908Y-44137481D01*
X148566204Y-44272331D01*
X148652453Y-44387546D01*
X148738702Y-44452112D01*
X148767669Y-44473796D01*
X148885164Y-44517618D01*
X148935497Y-44552181D01*
X148963671Y-44606351D01*
X148963070Y-44667407D01*
X148933833Y-44721011D01*
X148784676Y-44883040D01*
X148661580Y-45071451D01*
X148571177Y-45277548D01*
X148523455Y-45465999D01*
X148523456Y-45466000D01*
X153736544Y-45466000D01*
X153736544Y-45465999D01*
X153688822Y-45277548D01*
X153598419Y-45071451D01*
X153475321Y-44883037D01*
X153322903Y-44717466D01*
X153145302Y-44579233D01*
X153105183Y-44557522D01*
X153058808Y-44514285D01*
X153039361Y-44453938D01*
X153051766Y-44391759D01*
X153092881Y-44343496D01*
X153271401Y-44218495D01*
X153438495Y-44051401D01*
X153574035Y-43857830D01*
X153673903Y-43643663D01*
X153735063Y-43415408D01*
X153755659Y-43180000D01*
X153735063Y-42944592D01*
X153673903Y-42716337D01*
X153574035Y-42502171D01*
X153438495Y-42308599D01*
X153438494Y-42308598D01*
X153438492Y-42308595D01*
X153271404Y-42141507D01*
X153077830Y-42005965D01*
X152863663Y-41906096D01*
X152635409Y-41844937D01*
X152517704Y-41834639D01*
X152400000Y-41824341D01*
X152399999Y-41824341D01*
X152164590Y-41844937D01*
X151936337Y-41906096D01*
X151722170Y-42005965D01*
X151528598Y-42141505D01*
X151408873Y-42261230D01*
X151355276Y-42293030D01*
X151292994Y-42295254D01*
X151237265Y-42267358D01*
X151201722Y-42216166D01*
X151173876Y-42141507D01*
X151153796Y-42087669D01*
X151132112Y-42058703D01*
X151067546Y-41972453D01*
X150952331Y-41886204D01*
X150841688Y-41844937D01*
X150817483Y-41835909D01*
X150757872Y-41829500D01*
X148962125Y-41829500D01*
X148902518Y-41835908D01*
X148767668Y-41886204D01*
X148652453Y-41972453D01*
X148566204Y-42087668D01*
X148515909Y-42222517D01*
X148509500Y-42282127D01*
X148509500Y-44077874D01*
X123905500Y-44077874D01*
X123905499Y-42917128D01*
X123899091Y-42857517D01*
X123848796Y-42722669D01*
X123827112Y-42693702D01*
X123762546Y-42607453D01*
X123647331Y-42521204D01*
X123647330Y-42521203D01*
X123512483Y-42470909D01*
X123452872Y-42464500D01*
X121657125Y-42464500D01*
X121597518Y-42470908D01*
X121462668Y-42521204D01*
X121347453Y-42607453D01*
X121261204Y-42722668D01*
X121210909Y-42857517D01*
X121204500Y-42917127D01*
X121204500Y-44712874D01*
X119405500Y-44712874D01*
X119405500Y-38251500D01*
X119422381Y-38188500D01*
X119468500Y-38142381D01*
X119531500Y-38125500D01*
X156058500Y-38125500D01*
X156121500Y-38142381D01*
G37*
%TD.AperFunction*%
%TD*%
M02*
