M48
; DRILL file {KiCad (6.0.5)} date zo 29 mei 2022 15:24:31 CEST
; FORMAT={-:-/ absolute / inch / decimal}
; #@! TF.CreationDate,2022-05-29T15:24:31+02:00
; #@! TF.GenerationSoftware,Kicad,Pcbnew,(6.0.5)
; #@! TF.FileFunction,Plated,1,2,PTH
FMAT,2
INCH
; #@! TA.AperFunction,Plated,PTH,ComponentDrill
T1C0.0236
; #@! TA.AperFunction,Plated,PTH,ComponentDrill
T2C0.0394
; #@! TA.AperFunction,Plated,PTH,ComponentDrill
T3C0.1693
%
G90
G05
T1
X1.973Y-2.1
X1.973Y-3.4
X2.0102Y-2.0102
X2.0102Y-2.1898
X2.0102Y-3.3102
X2.0102Y-3.4898
X2.1Y-1.973
X2.1Y-2.227
X2.1Y-3.273
X2.1Y-3.527
X2.1898Y-2.0102
X2.1898Y-2.1898
X2.1898Y-3.3102
X2.1898Y-3.4898
X2.227Y-2.1
X2.227Y-3.4
X5.073Y-2.1
X5.073Y-3.4
X5.1102Y-2.0102
X5.1102Y-2.1898
X5.1102Y-3.3102
X5.1102Y-3.4898
X5.2Y-1.973
X5.2Y-2.227
X5.2Y-3.273
X5.2Y-3.527
X5.2898Y-2.0102
X5.2898Y-2.1898
X5.2898Y-3.3102
X5.2898Y-3.4898
X5.327Y-2.1
X5.327Y-3.4
T2
X2.5Y-2.3
X2.5Y-2.4
X2.5Y-2.6
X2.5Y-2.7
X2.5Y-3.3
X2.5Y-3.4
X2.6Y-2.3
X2.6Y-2.4
X2.6Y-2.6
X2.6Y-2.7
X2.6Y-3.3
X2.6Y-3.4
X2.7Y-2.3
X2.7Y-2.4
X2.7Y-2.6
X2.7Y-2.7
X2.7Y-3.3
X2.7Y-3.4
X2.8Y-2.3
X2.8Y-2.4
X2.8Y-2.6
X2.8Y-2.7
X2.8Y-3.3
X2.8Y-3.4
X2.9Y-2.3
X2.9Y-2.4
X2.9Y-2.6
X2.9Y-2.7
X2.9Y-3.3
X2.9Y-3.4
X3.0Y-2.3
X3.0Y-2.4
X3.0Y-2.6
X3.0Y-2.7
X3.0Y-3.3
X3.0Y-3.4
X3.4Y-2.3
X3.4Y-2.4
X3.4Y-2.6
X3.4Y-2.7
X3.4Y-3.3
X3.4Y-3.4
X3.5Y-2.3
X3.5Y-2.4
X3.5Y-2.6
X3.5Y-2.7
X3.5Y-3.3
X3.5Y-3.4
X3.6Y-2.3
X3.6Y-2.4
X3.6Y-2.6
X3.6Y-2.7
X3.6Y-3.3
X3.6Y-3.4
X3.7Y-2.3
X3.7Y-2.4
X3.7Y-2.6
X3.7Y-2.7
X3.7Y-3.3
X3.7Y-3.4
X3.8Y-2.3
X3.8Y-2.4
X3.8Y-2.6
X3.8Y-2.7
X3.8Y-3.3
X3.8Y-3.4
X3.9Y-2.3
X3.9Y-2.4
X3.9Y-2.6
X3.9Y-2.7
X3.9Y-3.3
X3.9Y-3.4
X4.3Y-2.3
X4.3Y-2.4
X4.3Y-2.6
X4.3Y-2.7
X4.3Y-3.3
X4.3Y-3.4
X4.4Y-2.3
X4.4Y-2.4
X4.4Y-2.6
X4.4Y-2.7
X4.4Y-3.3
X4.4Y-3.4
X4.5Y-2.3
X4.5Y-2.4
X4.5Y-2.6
X4.5Y-2.7
X4.5Y-3.3
X4.5Y-3.4
X4.6Y-2.3
X4.6Y-2.4
X4.6Y-2.6
X4.6Y-2.7
X4.6Y-3.3
X4.6Y-3.4
X4.7Y-2.3
X4.7Y-2.4
X4.7Y-2.6
X4.7Y-2.7
X4.7Y-3.3
X4.7Y-3.4
X4.8Y-2.3
X4.8Y-2.4
X4.8Y-2.6
X4.8Y-2.7
X4.8Y-3.3
X4.8Y-3.4
T3
X2.1Y-2.1
X2.1Y-3.4
X5.2Y-2.1
X5.2Y-3.4
T0
M30
