%TF.GenerationSoftware,KiCad,Pcbnew,(6.0.5)*%
%TF.CreationDate,2022-05-29T15:24:28+02:00*%
%TF.ProjectId,pmod_peripheral,706d6f64-5f70-4657-9269-70686572616c,rev?*%
%TF.SameCoordinates,Original*%
%TF.FileFunction,Copper,L2,Bot*%
%TF.FilePolarity,Positive*%
%FSLAX46Y46*%
G04 Gerber Fmt 4.6, Leading zero omitted, Abs format (unit mm)*
G04 Created by KiCad (PCBNEW (6.0.5)) date 2022-05-29 15:24:28*
%MOMM*%
%LPD*%
G01*
G04 APERTURE LIST*
%TA.AperFunction,ComponentPad*%
%ADD10R,1.700000X1.700000*%
%TD*%
%TA.AperFunction,ComponentPad*%
%ADD11O,1.700000X1.700000*%
%TD*%
%TA.AperFunction,ComponentPad*%
%ADD12C,0.900000*%
%TD*%
%TA.AperFunction,ComponentPad*%
%ADD13C,8.600000*%
%TD*%
%TA.AperFunction,Conductor*%
%ADD14C,0.250000*%
%TD*%
G04 APERTURE END LIST*
D10*
%TO.P,PMOD2,1,Pin_1*%
%TO.N,VCC*%
X99060000Y-83820000D03*
D11*
%TO.P,PMOD2,2,Pin_2*%
X99060000Y-86360000D03*
%TO.P,PMOD2,3,Pin_3*%
%TO.N,GND*%
X96520000Y-83820000D03*
%TO.P,PMOD2,4,Pin_4*%
X96520000Y-86360000D03*
%TO.P,PMOD2,5,Pin_5*%
%TO.N,PMOD_SPI_SCK*%
X93980000Y-83820000D03*
%TO.P,PMOD2,6,Pin_6*%
%TO.N,PMOD_SPI_GPIO4_CS3*%
X93980000Y-86360000D03*
%TO.P,PMOD2,7,Pin_7*%
%TO.N,PMOD_SPI_MISO*%
X91440000Y-83820000D03*
%TO.P,PMOD2,8,Pin_8*%
%TO.N,PMOD_SPI_GPIO3_CS2*%
X91440000Y-86360000D03*
%TO.P,PMOD2,9,Pin_9*%
%TO.N,PMOD_SPI_MOSI*%
X88900000Y-83820000D03*
%TO.P,PMOD2,10,Pin_10*%
%TO.N,PMOD_SPI_GPIO2_RESET*%
X88900000Y-86360000D03*
%TO.P,PMOD2,11,Pin_11*%
%TO.N,PMOD_SPI_CS*%
X86360000Y-83820000D03*
%TO.P,PMOD2,12,Pin_12*%
%TO.N,PMOD_SPI_GPIO1_INT*%
X86360000Y-86360000D03*
%TD*%
D10*
%TO.P,PMOD3,1,Pin_1*%
%TO.N,VCC*%
X121920000Y-83820000D03*
D11*
%TO.P,PMOD3,2,Pin_2*%
X121920000Y-86360000D03*
%TO.P,PMOD3,3,Pin_3*%
%TO.N,GND*%
X119380000Y-83820000D03*
%TO.P,PMOD3,4,Pin_4*%
X119380000Y-86360000D03*
%TO.P,PMOD3,5,Pin_5*%
%TO.N,PMOD_UART_RTS*%
X116840000Y-83820000D03*
%TO.P,PMOD3,6,Pin_6*%
%TO.N,PMOD_UART_GPIO4*%
X116840000Y-86360000D03*
%TO.P,PMOD3,7,Pin_7*%
%TO.N,PMOD_UART_RXD*%
X114300000Y-83820000D03*
%TO.P,PMOD3,8,Pin_8*%
%TO.N,PMOD_UART_GPIO3*%
X114300000Y-86360000D03*
%TO.P,PMOD3,9,Pin_9*%
%TO.N,PMOD_UART_TXD*%
X111760000Y-83820000D03*
%TO.P,PMOD3,10,Pin_10*%
%TO.N,PMOD_UART_GPIO2_RESET*%
X111760000Y-86360000D03*
%TO.P,PMOD3,11,Pin_11*%
%TO.N,PMOD_UART_CTS*%
X109220000Y-83820000D03*
%TO.P,PMOD3,12,Pin_12*%
%TO.N,PMOD_UART_GPIO1_INT*%
X109220000Y-86360000D03*
%TD*%
D10*
%TO.P,PMOD1,1,Pin_1*%
%TO.N,VCC*%
X76200000Y-83820000D03*
D11*
%TO.P,PMOD1,2,Pin_2*%
X76200000Y-86360000D03*
%TO.P,PMOD1,3,Pin_3*%
%TO.N,GND*%
X73660000Y-83820000D03*
%TO.P,PMOD1,4,Pin_4*%
X73660000Y-86360000D03*
%TO.P,PMOD1,5,Pin_5*%
%TO.N,PMOD_I2C_SDA*%
X71120000Y-83820000D03*
%TO.P,PMOD1,6,Pin_6*%
%TO.N,PMOD_I2C_GPIO4*%
X71120000Y-86360000D03*
%TO.P,PMOD1,7,Pin_7*%
%TO.N,PMOD_I2C_SCL*%
X68580000Y-83820000D03*
%TO.P,PMOD1,8,Pin_8*%
%TO.N,PMOD_I2C_GPIO3*%
X68580000Y-86360000D03*
%TO.P,PMOD1,9,Pin_9*%
%TO.N,PMOD_I2C_RESET*%
X66040000Y-83820000D03*
%TO.P,PMOD1,10,Pin_10*%
%TO.N,PMOD_I2C_GPIO2*%
X66040000Y-86360000D03*
%TO.P,PMOD1,11,Pin_11*%
%TO.N,PMOD_I2C_INT*%
X63500000Y-83820000D03*
%TO.P,PMOD1,12,Pin_12*%
%TO.N,PMOD_I2C_GPIO1*%
X63500000Y-86360000D03*
%TD*%
D10*
%TO.P,J4,1,Pin_1*%
%TO.N,PMOD_I2C_INT*%
X63500000Y-68580000D03*
D11*
%TO.P,J4,2,Pin_2*%
%TO.N,PMOD_I2C_GPIO1*%
X63500000Y-66040000D03*
%TO.P,J4,3,Pin_3*%
%TO.N,PMOD_I2C_RESET*%
X66040000Y-68580000D03*
%TO.P,J4,4,Pin_4*%
%TO.N,PMOD_I2C_GPIO2*%
X66040000Y-66040000D03*
%TO.P,J4,5,Pin_5*%
%TO.N,PMOD_I2C_SCL*%
X68580000Y-68580000D03*
%TO.P,J4,6,Pin_6*%
%TO.N,PMOD_I2C_GPIO3*%
X68580000Y-66040000D03*
%TO.P,J4,7,Pin_7*%
%TO.N,PMOD_I2C_SDA*%
X71120000Y-68580000D03*
%TO.P,J4,8,Pin_8*%
%TO.N,PMOD_I2C_GPIO4*%
X71120000Y-66040000D03*
%TO.P,J4,9,Pin_9*%
%TO.N,GND*%
X73660000Y-68580000D03*
%TO.P,J4,10,Pin_10*%
X73660000Y-66040000D03*
%TO.P,J4,11,Pin_11*%
%TO.N,VCC*%
X76200000Y-68580000D03*
%TO.P,J4,12,Pin_12*%
X76200000Y-66040000D03*
%TD*%
D10*
%TO.P,J5,1,Pin_1*%
%TO.N,PMOD_SPI_CS*%
X86360000Y-68580000D03*
D11*
%TO.P,J5,2,Pin_2*%
%TO.N,PMOD_SPI_GPIO1_INT*%
X86360000Y-66040000D03*
%TO.P,J5,3,Pin_3*%
%TO.N,PMOD_SPI_MOSI*%
X88900000Y-68580000D03*
%TO.P,J5,4,Pin_4*%
%TO.N,PMOD_SPI_GPIO2_RESET*%
X88900000Y-66040000D03*
%TO.P,J5,5,Pin_5*%
%TO.N,PMOD_SPI_MISO*%
X91440000Y-68580000D03*
%TO.P,J5,6,Pin_6*%
%TO.N,PMOD_SPI_GPIO3_CS2*%
X91440000Y-66040000D03*
%TO.P,J5,7,Pin_7*%
%TO.N,PMOD_SPI_SCK*%
X93980000Y-68580000D03*
%TO.P,J5,8,Pin_8*%
%TO.N,PMOD_SPI_GPIO4_CS3*%
X93980000Y-66040000D03*
%TO.P,J5,9,Pin_9*%
%TO.N,GND*%
X96520000Y-68580000D03*
%TO.P,J5,10,Pin_10*%
X96520000Y-66040000D03*
%TO.P,J5,11,Pin_11*%
%TO.N,VCC*%
X99060000Y-68580000D03*
%TO.P,J5,12,Pin_12*%
X99060000Y-66040000D03*
%TD*%
D10*
%TO.P,J6,1,Pin_1*%
%TO.N,PMOD_UART_CTS*%
X109220000Y-68580000D03*
D11*
%TO.P,J6,2,Pin_2*%
%TO.N,PMOD_UART_GPIO1_INT*%
X109220000Y-66040000D03*
%TO.P,J6,3,Pin_3*%
%TO.N,PMOD_UART_TXD*%
X111760000Y-68580000D03*
%TO.P,J6,4,Pin_4*%
%TO.N,PMOD_UART_GPIO2_RESET*%
X111760000Y-66040000D03*
%TO.P,J6,5,Pin_5*%
%TO.N,PMOD_UART_RXD*%
X114300000Y-68580000D03*
%TO.P,J6,6,Pin_6*%
%TO.N,PMOD_UART_GPIO3*%
X114300000Y-66040000D03*
%TO.P,J6,7,Pin_7*%
%TO.N,PMOD_UART_RTS*%
X116840000Y-68580000D03*
%TO.P,J6,8,Pin_8*%
%TO.N,PMOD_UART_GPIO4*%
X116840000Y-66040000D03*
%TO.P,J6,9,Pin_9*%
%TO.N,GND*%
X119380000Y-68580000D03*
%TO.P,J6,10,Pin_10*%
X119380000Y-66040000D03*
%TO.P,J6,11,Pin_11*%
%TO.N,VCC*%
X121920000Y-68580000D03*
%TO.P,J6,12,Pin_12*%
X121920000Y-66040000D03*
%TD*%
D12*
%TO.P,H3,1*%
%TO.N,N/C*%
X55620419Y-84079581D03*
X50115000Y-86360000D03*
X56565000Y-86360000D03*
X55620419Y-88640419D03*
X51059581Y-88640419D03*
X53340000Y-83135000D03*
X51059581Y-84079581D03*
X53340000Y-89585000D03*
D13*
X53340000Y-86360000D03*
%TD*%
D12*
%TO.P,H1,1*%
%TO.N,N/C*%
X53340000Y-56565000D03*
X50115000Y-53340000D03*
X51059581Y-51059581D03*
X56565000Y-53340000D03*
D13*
X53340000Y-53340000D03*
D12*
X53340000Y-50115000D03*
X51059581Y-55620419D03*
X55620419Y-55620419D03*
X55620419Y-51059581D03*
%TD*%
D10*
%TO.P,PMOD4,1,Pin_1*%
%TO.N,VCC*%
X76200000Y-60960000D03*
D11*
%TO.P,PMOD4,2,Pin_2*%
X76200000Y-58420000D03*
%TO.P,PMOD4,3,Pin_3*%
%TO.N,GND*%
X73660000Y-60960000D03*
%TO.P,PMOD4,4,Pin_4*%
X73660000Y-58420000D03*
%TO.P,PMOD4,5,Pin_5*%
%TO.N,PMOD_I2C_SDA*%
X71120000Y-60960000D03*
%TO.P,PMOD4,6,Pin_6*%
%TO.N,PMOD_I2C_GPIO4*%
X71120000Y-58420000D03*
%TO.P,PMOD4,7,Pin_7*%
%TO.N,PMOD_I2C_SCL*%
X68580000Y-60960000D03*
%TO.P,PMOD4,8,Pin_8*%
%TO.N,PMOD_I2C_GPIO3*%
X68580000Y-58420000D03*
%TO.P,PMOD4,9,Pin_9*%
%TO.N,PMOD_I2C_RESET*%
X66040000Y-60960000D03*
%TO.P,PMOD4,10,Pin_10*%
%TO.N,PMOD_I2C_GPIO2*%
X66040000Y-58420000D03*
%TO.P,PMOD4,11,Pin_11*%
%TO.N,PMOD_I2C_INT*%
X63500000Y-60960000D03*
%TO.P,PMOD4,12,Pin_12*%
%TO.N,PMOD_I2C_GPIO1*%
X63500000Y-58420000D03*
%TD*%
D12*
%TO.P,H4,1*%
%TO.N,N/C*%
X132080000Y-89585000D03*
X134360419Y-84079581D03*
X132080000Y-83135000D03*
D13*
X132080000Y-86360000D03*
D12*
X129799581Y-88640419D03*
X128855000Y-86360000D03*
X135305000Y-86360000D03*
X129799581Y-84079581D03*
X134360419Y-88640419D03*
%TD*%
D10*
%TO.P,PMOD5,1,Pin_1*%
%TO.N,VCC*%
X99060000Y-60960000D03*
D11*
%TO.P,PMOD5,2,Pin_2*%
X99060000Y-58420000D03*
%TO.P,PMOD5,3,Pin_3*%
%TO.N,GND*%
X96520000Y-60960000D03*
%TO.P,PMOD5,4,Pin_4*%
X96520000Y-58420000D03*
%TO.P,PMOD5,5,Pin_5*%
%TO.N,PMOD_SPI_SCK*%
X93980000Y-60960000D03*
%TO.P,PMOD5,6,Pin_6*%
%TO.N,PMOD_SPI_GPIO4_CS3*%
X93980000Y-58420000D03*
%TO.P,PMOD5,7,Pin_7*%
%TO.N,PMOD_SPI_MISO*%
X91440000Y-60960000D03*
%TO.P,PMOD5,8,Pin_8*%
%TO.N,PMOD_SPI_GPIO3_CS2*%
X91440000Y-58420000D03*
%TO.P,PMOD5,9,Pin_9*%
%TO.N,PMOD_SPI_MOSI*%
X88900000Y-60960000D03*
%TO.P,PMOD5,10,Pin_10*%
%TO.N,PMOD_SPI_GPIO2_RESET*%
X88900000Y-58420000D03*
%TO.P,PMOD5,11,Pin_11*%
%TO.N,PMOD_SPI_CS*%
X86360000Y-60960000D03*
%TO.P,PMOD5,12,Pin_12*%
%TO.N,PMOD_SPI_GPIO1_INT*%
X86360000Y-58420000D03*
%TD*%
D10*
%TO.P,PMOD6,1,Pin_1*%
%TO.N,VCC*%
X121920000Y-60960000D03*
D11*
%TO.P,PMOD6,2,Pin_2*%
X121920000Y-58420000D03*
%TO.P,PMOD6,3,Pin_3*%
%TO.N,GND*%
X119380000Y-60960000D03*
%TO.P,PMOD6,4,Pin_4*%
X119380000Y-58420000D03*
%TO.P,PMOD6,5,Pin_5*%
%TO.N,PMOD_UART_RTS*%
X116840000Y-60960000D03*
%TO.P,PMOD6,6,Pin_6*%
%TO.N,PMOD_UART_GPIO4*%
X116840000Y-58420000D03*
%TO.P,PMOD6,7,Pin_7*%
%TO.N,PMOD_UART_RXD*%
X114300000Y-60960000D03*
%TO.P,PMOD6,8,Pin_8*%
%TO.N,PMOD_UART_GPIO3*%
X114300000Y-58420000D03*
%TO.P,PMOD6,9,Pin_9*%
%TO.N,PMOD_UART_TXD*%
X111760000Y-60960000D03*
%TO.P,PMOD6,10,Pin_10*%
%TO.N,PMOD_UART_GPIO2_RESET*%
X111760000Y-58420000D03*
%TO.P,PMOD6,11,Pin_11*%
%TO.N,PMOD_UART_CTS*%
X109220000Y-60960000D03*
%TO.P,PMOD6,12,Pin_12*%
%TO.N,PMOD_UART_GPIO1_INT*%
X109220000Y-58420000D03*
%TD*%
D12*
%TO.P,H2,1*%
%TO.N,N/C*%
X132080000Y-56565000D03*
X135305000Y-53340000D03*
D13*
X132080000Y-53340000D03*
D12*
X134360419Y-51059581D03*
X129799581Y-55620419D03*
X128855000Y-53340000D03*
X129799581Y-51059581D03*
X134360419Y-55620419D03*
X132080000Y-50115000D03*
%TD*%
D14*
%TO.N,PMOD_UART_RTS*%
X115665489Y-67405489D02*
X116840000Y-68580000D01*
X116840000Y-60960000D02*
X115665489Y-62134511D01*
X115665489Y-62134511D02*
X115665489Y-67405489D01*
%TO.N,PMOD_UART_RXD*%
X113125489Y-62134511D02*
X113125489Y-67405489D01*
X113125489Y-67405489D02*
X114300000Y-68580000D01*
X114300000Y-60960000D02*
X113125489Y-62134511D01*
%TO.N,PMOD_UART_TXD*%
X111760000Y-60960000D02*
X110585489Y-62134511D01*
X110585489Y-67405489D02*
X111760000Y-68580000D01*
X110585489Y-62134511D02*
X110585489Y-67405489D01*
%TO.N,PMOD_UART_CTS*%
X109220000Y-60960000D02*
X108045489Y-62134511D01*
X108045489Y-62134511D02*
X108045489Y-67405489D01*
X108045489Y-67405489D02*
X109220000Y-68580000D01*
%TO.N,PMOD_SPI_SCK*%
X92805489Y-62134511D02*
X92805489Y-67405489D01*
X93980000Y-60960000D02*
X92805489Y-62134511D01*
X92805489Y-67405489D02*
X93980000Y-68580000D01*
%TO.N,PMOD_SPI_MOSI*%
X87725489Y-67405489D02*
X88900000Y-68580000D01*
X87725489Y-62134511D02*
X87725489Y-67405489D01*
X88900000Y-60960000D02*
X87725489Y-62134511D01*
%TO.N,PMOD_SPI_MISO*%
X90265489Y-62134511D02*
X90265489Y-67405489D01*
X90265489Y-67405489D02*
X91440000Y-68580000D01*
X91440000Y-60960000D02*
X90265489Y-62134511D01*
%TO.N,PMOD_SPI_CS*%
X85185489Y-67405489D02*
X86360000Y-68580000D01*
X85185489Y-62134511D02*
X85185489Y-67405489D01*
X86360000Y-60960000D02*
X85185489Y-62134511D01*
%TO.N,PMOD_I2C_SDA*%
X69945489Y-62134511D02*
X69945489Y-67405489D01*
X71120000Y-60960000D02*
X69945489Y-62134511D01*
X69945489Y-67405489D02*
X71120000Y-68580000D01*
%TO.N,PMOD_I2C_SCL*%
X67405489Y-67405489D02*
X68580000Y-68580000D01*
X67405489Y-62134511D02*
X67405489Y-67405489D01*
X68580000Y-60960000D02*
X67405489Y-62134511D01*
%TO.N,PMOD_I2C_RESET*%
X64865489Y-67405489D02*
X66040000Y-68580000D01*
X64865489Y-62134511D02*
X64865489Y-67405489D01*
X66040000Y-60960000D02*
X64865489Y-62134511D01*
%TO.N,PMOD_I2C_INT*%
X62325489Y-62134511D02*
X62325489Y-67405489D01*
X63500000Y-60960000D02*
X62325489Y-62134511D01*
X62325489Y-67405489D02*
X63500000Y-68580000D01*
%TD*%
%TA.AperFunction,Conductor*%
%TO.N,GND*%
G36*
X130004543Y-48788502D02*
G01*
X130051036Y-48842158D01*
X130061140Y-48912432D01*
X130031646Y-48977012D01*
X129989173Y-49008926D01*
X129872361Y-49062777D01*
X129500880Y-49275957D01*
X129498577Y-49277566D01*
X129498570Y-49277571D01*
X129152129Y-49519701D01*
X129149820Y-49521315D01*
X128821961Y-49796909D01*
X128519899Y-50100557D01*
X128246025Y-50429855D01*
X128002508Y-50782194D01*
X127791276Y-51154786D01*
X127614002Y-51544680D01*
X127613080Y-51547306D01*
X127613075Y-51547318D01*
X127573633Y-51659634D01*
X127472089Y-51948790D01*
X127366661Y-52363914D01*
X127298552Y-52786768D01*
X127268302Y-53214001D01*
X127276151Y-53642233D01*
X127322036Y-54068071D01*
X127405594Y-54488144D01*
X127526163Y-54899127D01*
X127527190Y-54901740D01*
X127527190Y-54901741D01*
X127665651Y-55254145D01*
X127682789Y-55297765D01*
X127741316Y-55414896D01*
X127852161Y-55636731D01*
X127874231Y-55680901D01*
X128098974Y-56045502D01*
X128355239Y-56388682D01*
X128357100Y-56390760D01*
X128357101Y-56390761D01*
X128639127Y-56705637D01*
X128639133Y-56705643D01*
X128640995Y-56707722D01*
X128953981Y-57000098D01*
X129291719Y-57263493D01*
X129651533Y-57495822D01*
X129654012Y-57497126D01*
X129654015Y-57497128D01*
X130028077Y-57693932D01*
X130028083Y-57693935D01*
X130030577Y-57695247D01*
X130033175Y-57696331D01*
X130033179Y-57696333D01*
X130423263Y-57859109D01*
X130423268Y-57859111D01*
X130425847Y-57860187D01*
X130428512Y-57861030D01*
X130428518Y-57861032D01*
X130650561Y-57931254D01*
X130834214Y-57989336D01*
X131252446Y-58081673D01*
X131255220Y-58082031D01*
X131255221Y-58082031D01*
X131674460Y-58136109D01*
X131674467Y-58136110D01*
X131677230Y-58136466D01*
X131680017Y-58136576D01*
X131680023Y-58136576D01*
X131928238Y-58146328D01*
X132105203Y-58153281D01*
X132107995Y-58153142D01*
X132108000Y-58153142D01*
X132530172Y-58132125D01*
X132530181Y-58132124D01*
X132532976Y-58131985D01*
X132535753Y-58131597D01*
X132535755Y-58131597D01*
X132610066Y-58121219D01*
X132957163Y-58072747D01*
X133374404Y-57976036D01*
X133588307Y-57905915D01*
X133778744Y-57843487D01*
X133778750Y-57843485D01*
X133781397Y-57842617D01*
X134174918Y-57673547D01*
X134551852Y-57470164D01*
X134909214Y-57234080D01*
X135244175Y-56967162D01*
X135554082Y-56671525D01*
X135555919Y-56669431D01*
X135555927Y-56669422D01*
X135834635Y-56351616D01*
X135836482Y-56349510D01*
X136089139Y-56003666D01*
X136090585Y-56001265D01*
X136308601Y-55639142D01*
X136308606Y-55639133D01*
X136310052Y-55636731D01*
X136412204Y-55426823D01*
X136459998Y-55374323D01*
X136528588Y-55355997D01*
X136596198Y-55377663D01*
X136641362Y-55432442D01*
X136651500Y-55481959D01*
X136651500Y-84209490D01*
X136631498Y-84277611D01*
X136577842Y-84324104D01*
X136507568Y-84334208D01*
X136442988Y-84304714D01*
X136414300Y-84268740D01*
X136362939Y-84172347D01*
X136223050Y-83909807D01*
X136139289Y-83781562D01*
X135990381Y-83553573D01*
X135990378Y-83553569D01*
X135988840Y-83551214D01*
X135723680Y-83214860D01*
X135481881Y-82958717D01*
X135431596Y-82905449D01*
X135431593Y-82905446D01*
X135429670Y-82903409D01*
X135427579Y-82901556D01*
X135427571Y-82901548D01*
X135111237Y-82621188D01*
X135111235Y-82621186D01*
X135109137Y-82619327D01*
X135101816Y-82613919D01*
X134953376Y-82504280D01*
X134764621Y-82364863D01*
X134571733Y-82247355D01*
X134401237Y-82143487D01*
X134401230Y-82143483D01*
X134398848Y-82142032D01*
X134281514Y-82084169D01*
X134017228Y-81953838D01*
X134014714Y-81952598D01*
X133615262Y-81798062D01*
X133368678Y-81727122D01*
X133206335Y-81680417D01*
X133206329Y-81680415D01*
X133203654Y-81679646D01*
X133200917Y-81679117D01*
X133200911Y-81679115D01*
X133055828Y-81651046D01*
X132783148Y-81598289D01*
X132780374Y-81598005D01*
X132780362Y-81598003D01*
X132497111Y-81568982D01*
X132357076Y-81554634D01*
X132354286Y-81554597D01*
X132354278Y-81554597D01*
X132086825Y-81551096D01*
X131928809Y-81549028D01*
X131926009Y-81549241D01*
X131926008Y-81549241D01*
X131851364Y-81554919D01*
X131501740Y-81581514D01*
X131079249Y-81651836D01*
X130993671Y-81674048D01*
X130667400Y-81758731D01*
X130667389Y-81758734D01*
X130664682Y-81759437D01*
X130406575Y-81851599D01*
X130263964Y-81902520D01*
X130263959Y-81902522D01*
X130261321Y-81903464D01*
X130258781Y-81904635D01*
X130258776Y-81904637D01*
X130156930Y-81951589D01*
X129872361Y-82082777D01*
X129500880Y-82295957D01*
X129498577Y-82297566D01*
X129498570Y-82297571D01*
X129173491Y-82524771D01*
X129149820Y-82541315D01*
X128821961Y-82816909D01*
X128519899Y-83120557D01*
X128246025Y-83449855D01*
X128244431Y-83452162D01*
X128244429Y-83452164D01*
X128009657Y-83791851D01*
X128002508Y-83802194D01*
X127791276Y-84174786D01*
X127614002Y-84564680D01*
X127613080Y-84567306D01*
X127613075Y-84567318D01*
X127532458Y-84796883D01*
X127472089Y-84968790D01*
X127471398Y-84971510D01*
X127471397Y-84971514D01*
X127371087Y-85366488D01*
X127366661Y-85383914D01*
X127298552Y-85806768D01*
X127268302Y-86234001D01*
X127276151Y-86662233D01*
X127322036Y-87088071D01*
X127405594Y-87508144D01*
X127526163Y-87919127D01*
X127527190Y-87921740D01*
X127527190Y-87921741D01*
X127665651Y-88274145D01*
X127682789Y-88317765D01*
X127741316Y-88434896D01*
X127852161Y-88656731D01*
X127874231Y-88700901D01*
X128098974Y-89065502D01*
X128355239Y-89408682D01*
X128357100Y-89410760D01*
X128357101Y-89410761D01*
X128639127Y-89725637D01*
X128639133Y-89725643D01*
X128640995Y-89727722D01*
X128953981Y-90020098D01*
X129291719Y-90283493D01*
X129651533Y-90515822D01*
X129654012Y-90517126D01*
X129654015Y-90517128D01*
X129990178Y-90693992D01*
X130041151Y-90743411D01*
X130057314Y-90812544D01*
X130033535Y-90879440D01*
X129977364Y-90922860D01*
X129931511Y-90931500D01*
X55492547Y-90931500D01*
X55424426Y-90911498D01*
X55377933Y-90857842D01*
X55367829Y-90787568D01*
X55397323Y-90722988D01*
X55435166Y-90694006D01*
X55434918Y-90693547D01*
X55811852Y-90490164D01*
X56169214Y-90254080D01*
X56504175Y-89987162D01*
X56814082Y-89691525D01*
X56815919Y-89689431D01*
X56815927Y-89689422D01*
X57094635Y-89371616D01*
X57096482Y-89369510D01*
X57349139Y-89023666D01*
X57350585Y-89021265D01*
X57568601Y-88659142D01*
X57568606Y-88659133D01*
X57570052Y-88656731D01*
X57705551Y-88378299D01*
X57756238Y-88274145D01*
X57756239Y-88274142D01*
X57757471Y-88271611D01*
X57890724Y-87921741D01*
X57908918Y-87873971D01*
X57908920Y-87873964D01*
X57909914Y-87871355D01*
X58026173Y-87459132D01*
X58026689Y-87456389D01*
X58104811Y-87040954D01*
X58104813Y-87040942D01*
X58105327Y-87038207D01*
X58146750Y-86611911D01*
X58148514Y-86544547D01*
X58153289Y-86362234D01*
X58153289Y-86362220D01*
X58153347Y-86360000D01*
X58151864Y-86326695D01*
X62137251Y-86326695D01*
X62137548Y-86331848D01*
X62137548Y-86331851D01*
X62143011Y-86426590D01*
X62150110Y-86549715D01*
X62151247Y-86554761D01*
X62151248Y-86554767D01*
X62171119Y-86642939D01*
X62199222Y-86767639D01*
X62283266Y-86974616D01*
X62323918Y-87040954D01*
X62397291Y-87160688D01*
X62399987Y-87165088D01*
X62546250Y-87333938D01*
X62718126Y-87476632D01*
X62911000Y-87589338D01*
X63119692Y-87669030D01*
X63124760Y-87670061D01*
X63124763Y-87670062D01*
X63219862Y-87689410D01*
X63338597Y-87713567D01*
X63343772Y-87713757D01*
X63343774Y-87713757D01*
X63556673Y-87721564D01*
X63556677Y-87721564D01*
X63561837Y-87721753D01*
X63566957Y-87721097D01*
X63566959Y-87721097D01*
X63778288Y-87694025D01*
X63778289Y-87694025D01*
X63783416Y-87693368D01*
X63788366Y-87691883D01*
X63992429Y-87630661D01*
X63992434Y-87630659D01*
X63997384Y-87629174D01*
X64197994Y-87530896D01*
X64379860Y-87401173D01*
X64538096Y-87243489D01*
X64597594Y-87160689D01*
X64668453Y-87062077D01*
X64669776Y-87063028D01*
X64716645Y-87019857D01*
X64786580Y-87007625D01*
X64852026Y-87035144D01*
X64879875Y-87066994D01*
X64939987Y-87165088D01*
X65086250Y-87333938D01*
X65258126Y-87476632D01*
X65451000Y-87589338D01*
X65659692Y-87669030D01*
X65664760Y-87670061D01*
X65664763Y-87670062D01*
X65759862Y-87689410D01*
X65878597Y-87713567D01*
X65883772Y-87713757D01*
X65883774Y-87713757D01*
X66096673Y-87721564D01*
X66096677Y-87721564D01*
X66101837Y-87721753D01*
X66106957Y-87721097D01*
X66106959Y-87721097D01*
X66318288Y-87694025D01*
X66318289Y-87694025D01*
X66323416Y-87693368D01*
X66328366Y-87691883D01*
X66532429Y-87630661D01*
X66532434Y-87630659D01*
X66537384Y-87629174D01*
X66737994Y-87530896D01*
X66919860Y-87401173D01*
X67078096Y-87243489D01*
X67137594Y-87160689D01*
X67208453Y-87062077D01*
X67209776Y-87063028D01*
X67256645Y-87019857D01*
X67326580Y-87007625D01*
X67392026Y-87035144D01*
X67419875Y-87066994D01*
X67479987Y-87165088D01*
X67626250Y-87333938D01*
X67798126Y-87476632D01*
X67991000Y-87589338D01*
X68199692Y-87669030D01*
X68204760Y-87670061D01*
X68204763Y-87670062D01*
X68299862Y-87689410D01*
X68418597Y-87713567D01*
X68423772Y-87713757D01*
X68423774Y-87713757D01*
X68636673Y-87721564D01*
X68636677Y-87721564D01*
X68641837Y-87721753D01*
X68646957Y-87721097D01*
X68646959Y-87721097D01*
X68858288Y-87694025D01*
X68858289Y-87694025D01*
X68863416Y-87693368D01*
X68868366Y-87691883D01*
X69072429Y-87630661D01*
X69072434Y-87630659D01*
X69077384Y-87629174D01*
X69277994Y-87530896D01*
X69459860Y-87401173D01*
X69618096Y-87243489D01*
X69677594Y-87160689D01*
X69748453Y-87062077D01*
X69749776Y-87063028D01*
X69796645Y-87019857D01*
X69866580Y-87007625D01*
X69932026Y-87035144D01*
X69959875Y-87066994D01*
X70019987Y-87165088D01*
X70166250Y-87333938D01*
X70338126Y-87476632D01*
X70531000Y-87589338D01*
X70739692Y-87669030D01*
X70744760Y-87670061D01*
X70744763Y-87670062D01*
X70839862Y-87689410D01*
X70958597Y-87713567D01*
X70963772Y-87713757D01*
X70963774Y-87713757D01*
X71176673Y-87721564D01*
X71176677Y-87721564D01*
X71181837Y-87721753D01*
X71186957Y-87721097D01*
X71186959Y-87721097D01*
X71398288Y-87694025D01*
X71398289Y-87694025D01*
X71403416Y-87693368D01*
X71408366Y-87691883D01*
X71612429Y-87630661D01*
X71612434Y-87630659D01*
X71617384Y-87629174D01*
X71817994Y-87530896D01*
X71999860Y-87401173D01*
X72158096Y-87243489D01*
X72217594Y-87160689D01*
X72288453Y-87062077D01*
X72289640Y-87062930D01*
X72336960Y-87019362D01*
X72406897Y-87007145D01*
X72472338Y-87034678D01*
X72500166Y-87066511D01*
X72557694Y-87160388D01*
X72563777Y-87168699D01*
X72703213Y-87329667D01*
X72710580Y-87336883D01*
X72874434Y-87472916D01*
X72882881Y-87478831D01*
X73066756Y-87586279D01*
X73076042Y-87590729D01*
X73275001Y-87666703D01*
X73284899Y-87669579D01*
X73388250Y-87690606D01*
X73402299Y-87689410D01*
X73406000Y-87679065D01*
X73406000Y-87678517D01*
X73914000Y-87678517D01*
X73918064Y-87692359D01*
X73931478Y-87694393D01*
X73938184Y-87693534D01*
X73948262Y-87691392D01*
X74152255Y-87630191D01*
X74161842Y-87626433D01*
X74353095Y-87532739D01*
X74361945Y-87527464D01*
X74535328Y-87403792D01*
X74543200Y-87397139D01*
X74694052Y-87246812D01*
X74700730Y-87238965D01*
X74828022Y-87061819D01*
X74829279Y-87062722D01*
X74876373Y-87019362D01*
X74946311Y-87007145D01*
X75011751Y-87034678D01*
X75039579Y-87066511D01*
X75099987Y-87165088D01*
X75246250Y-87333938D01*
X75418126Y-87476632D01*
X75611000Y-87589338D01*
X75819692Y-87669030D01*
X75824760Y-87670061D01*
X75824763Y-87670062D01*
X75919862Y-87689410D01*
X76038597Y-87713567D01*
X76043772Y-87713757D01*
X76043774Y-87713757D01*
X76256673Y-87721564D01*
X76256677Y-87721564D01*
X76261837Y-87721753D01*
X76266957Y-87721097D01*
X76266959Y-87721097D01*
X76478288Y-87694025D01*
X76478289Y-87694025D01*
X76483416Y-87693368D01*
X76488366Y-87691883D01*
X76692429Y-87630661D01*
X76692434Y-87630659D01*
X76697384Y-87629174D01*
X76897994Y-87530896D01*
X77079860Y-87401173D01*
X77238096Y-87243489D01*
X77297594Y-87160689D01*
X77365435Y-87066277D01*
X77368453Y-87062077D01*
X77381995Y-87034678D01*
X77465136Y-86866453D01*
X77465137Y-86866451D01*
X77467430Y-86861811D01*
X77532370Y-86648069D01*
X77561529Y-86426590D01*
X77563156Y-86360000D01*
X77560418Y-86326695D01*
X84997251Y-86326695D01*
X84997548Y-86331848D01*
X84997548Y-86331851D01*
X85003011Y-86426590D01*
X85010110Y-86549715D01*
X85011247Y-86554761D01*
X85011248Y-86554767D01*
X85031119Y-86642939D01*
X85059222Y-86767639D01*
X85143266Y-86974616D01*
X85183918Y-87040954D01*
X85257291Y-87160688D01*
X85259987Y-87165088D01*
X85406250Y-87333938D01*
X85578126Y-87476632D01*
X85771000Y-87589338D01*
X85979692Y-87669030D01*
X85984760Y-87670061D01*
X85984763Y-87670062D01*
X86079862Y-87689410D01*
X86198597Y-87713567D01*
X86203772Y-87713757D01*
X86203774Y-87713757D01*
X86416673Y-87721564D01*
X86416677Y-87721564D01*
X86421837Y-87721753D01*
X86426957Y-87721097D01*
X86426959Y-87721097D01*
X86638288Y-87694025D01*
X86638289Y-87694025D01*
X86643416Y-87693368D01*
X86648366Y-87691883D01*
X86852429Y-87630661D01*
X86852434Y-87630659D01*
X86857384Y-87629174D01*
X87057994Y-87530896D01*
X87239860Y-87401173D01*
X87398096Y-87243489D01*
X87457594Y-87160689D01*
X87528453Y-87062077D01*
X87529776Y-87063028D01*
X87576645Y-87019857D01*
X87646580Y-87007625D01*
X87712026Y-87035144D01*
X87739875Y-87066994D01*
X87799987Y-87165088D01*
X87946250Y-87333938D01*
X88118126Y-87476632D01*
X88311000Y-87589338D01*
X88519692Y-87669030D01*
X88524760Y-87670061D01*
X88524763Y-87670062D01*
X88619862Y-87689410D01*
X88738597Y-87713567D01*
X88743772Y-87713757D01*
X88743774Y-87713757D01*
X88956673Y-87721564D01*
X88956677Y-87721564D01*
X88961837Y-87721753D01*
X88966957Y-87721097D01*
X88966959Y-87721097D01*
X89178288Y-87694025D01*
X89178289Y-87694025D01*
X89183416Y-87693368D01*
X89188366Y-87691883D01*
X89392429Y-87630661D01*
X89392434Y-87630659D01*
X89397384Y-87629174D01*
X89597994Y-87530896D01*
X89779860Y-87401173D01*
X89938096Y-87243489D01*
X89997594Y-87160689D01*
X90068453Y-87062077D01*
X90069776Y-87063028D01*
X90116645Y-87019857D01*
X90186580Y-87007625D01*
X90252026Y-87035144D01*
X90279875Y-87066994D01*
X90339987Y-87165088D01*
X90486250Y-87333938D01*
X90658126Y-87476632D01*
X90851000Y-87589338D01*
X91059692Y-87669030D01*
X91064760Y-87670061D01*
X91064763Y-87670062D01*
X91159862Y-87689410D01*
X91278597Y-87713567D01*
X91283772Y-87713757D01*
X91283774Y-87713757D01*
X91496673Y-87721564D01*
X91496677Y-87721564D01*
X91501837Y-87721753D01*
X91506957Y-87721097D01*
X91506959Y-87721097D01*
X91718288Y-87694025D01*
X91718289Y-87694025D01*
X91723416Y-87693368D01*
X91728366Y-87691883D01*
X91932429Y-87630661D01*
X91932434Y-87630659D01*
X91937384Y-87629174D01*
X92137994Y-87530896D01*
X92319860Y-87401173D01*
X92478096Y-87243489D01*
X92537594Y-87160689D01*
X92608453Y-87062077D01*
X92609776Y-87063028D01*
X92656645Y-87019857D01*
X92726580Y-87007625D01*
X92792026Y-87035144D01*
X92819875Y-87066994D01*
X92879987Y-87165088D01*
X93026250Y-87333938D01*
X93198126Y-87476632D01*
X93391000Y-87589338D01*
X93599692Y-87669030D01*
X93604760Y-87670061D01*
X93604763Y-87670062D01*
X93699862Y-87689410D01*
X93818597Y-87713567D01*
X93823772Y-87713757D01*
X93823774Y-87713757D01*
X94036673Y-87721564D01*
X94036677Y-87721564D01*
X94041837Y-87721753D01*
X94046957Y-87721097D01*
X94046959Y-87721097D01*
X94258288Y-87694025D01*
X94258289Y-87694025D01*
X94263416Y-87693368D01*
X94268366Y-87691883D01*
X94472429Y-87630661D01*
X94472434Y-87630659D01*
X94477384Y-87629174D01*
X94677994Y-87530896D01*
X94859860Y-87401173D01*
X95018096Y-87243489D01*
X95077594Y-87160689D01*
X95148453Y-87062077D01*
X95149640Y-87062930D01*
X95196960Y-87019362D01*
X95266897Y-87007145D01*
X95332338Y-87034678D01*
X95360166Y-87066511D01*
X95417694Y-87160388D01*
X95423777Y-87168699D01*
X95563213Y-87329667D01*
X95570580Y-87336883D01*
X95734434Y-87472916D01*
X95742881Y-87478831D01*
X95926756Y-87586279D01*
X95936042Y-87590729D01*
X96135001Y-87666703D01*
X96144899Y-87669579D01*
X96248250Y-87690606D01*
X96262299Y-87689410D01*
X96266000Y-87679065D01*
X96266000Y-87678517D01*
X96774000Y-87678517D01*
X96778064Y-87692359D01*
X96791478Y-87694393D01*
X96798184Y-87693534D01*
X96808262Y-87691392D01*
X97012255Y-87630191D01*
X97021842Y-87626433D01*
X97213095Y-87532739D01*
X97221945Y-87527464D01*
X97395328Y-87403792D01*
X97403200Y-87397139D01*
X97554052Y-87246812D01*
X97560730Y-87238965D01*
X97688022Y-87061819D01*
X97689279Y-87062722D01*
X97736373Y-87019362D01*
X97806311Y-87007145D01*
X97871751Y-87034678D01*
X97899579Y-87066511D01*
X97959987Y-87165088D01*
X98106250Y-87333938D01*
X98278126Y-87476632D01*
X98471000Y-87589338D01*
X98679692Y-87669030D01*
X98684760Y-87670061D01*
X98684763Y-87670062D01*
X98779862Y-87689410D01*
X98898597Y-87713567D01*
X98903772Y-87713757D01*
X98903774Y-87713757D01*
X99116673Y-87721564D01*
X99116677Y-87721564D01*
X99121837Y-87721753D01*
X99126957Y-87721097D01*
X99126959Y-87721097D01*
X99338288Y-87694025D01*
X99338289Y-87694025D01*
X99343416Y-87693368D01*
X99348366Y-87691883D01*
X99552429Y-87630661D01*
X99552434Y-87630659D01*
X99557384Y-87629174D01*
X99757994Y-87530896D01*
X99939860Y-87401173D01*
X100098096Y-87243489D01*
X100157594Y-87160689D01*
X100225435Y-87066277D01*
X100228453Y-87062077D01*
X100241995Y-87034678D01*
X100325136Y-86866453D01*
X100325137Y-86866451D01*
X100327430Y-86861811D01*
X100392370Y-86648069D01*
X100421529Y-86426590D01*
X100423156Y-86360000D01*
X100420418Y-86326695D01*
X107857251Y-86326695D01*
X107857548Y-86331848D01*
X107857548Y-86331851D01*
X107863011Y-86426590D01*
X107870110Y-86549715D01*
X107871247Y-86554761D01*
X107871248Y-86554767D01*
X107891119Y-86642939D01*
X107919222Y-86767639D01*
X108003266Y-86974616D01*
X108043918Y-87040954D01*
X108117291Y-87160688D01*
X108119987Y-87165088D01*
X108266250Y-87333938D01*
X108438126Y-87476632D01*
X108631000Y-87589338D01*
X108839692Y-87669030D01*
X108844760Y-87670061D01*
X108844763Y-87670062D01*
X108939862Y-87689410D01*
X109058597Y-87713567D01*
X109063772Y-87713757D01*
X109063774Y-87713757D01*
X109276673Y-87721564D01*
X109276677Y-87721564D01*
X109281837Y-87721753D01*
X109286957Y-87721097D01*
X109286959Y-87721097D01*
X109498288Y-87694025D01*
X109498289Y-87694025D01*
X109503416Y-87693368D01*
X109508366Y-87691883D01*
X109712429Y-87630661D01*
X109712434Y-87630659D01*
X109717384Y-87629174D01*
X109917994Y-87530896D01*
X110099860Y-87401173D01*
X110258096Y-87243489D01*
X110317594Y-87160689D01*
X110388453Y-87062077D01*
X110389776Y-87063028D01*
X110436645Y-87019857D01*
X110506580Y-87007625D01*
X110572026Y-87035144D01*
X110599875Y-87066994D01*
X110659987Y-87165088D01*
X110806250Y-87333938D01*
X110978126Y-87476632D01*
X111171000Y-87589338D01*
X111379692Y-87669030D01*
X111384760Y-87670061D01*
X111384763Y-87670062D01*
X111479862Y-87689410D01*
X111598597Y-87713567D01*
X111603772Y-87713757D01*
X111603774Y-87713757D01*
X111816673Y-87721564D01*
X111816677Y-87721564D01*
X111821837Y-87721753D01*
X111826957Y-87721097D01*
X111826959Y-87721097D01*
X112038288Y-87694025D01*
X112038289Y-87694025D01*
X112043416Y-87693368D01*
X112048366Y-87691883D01*
X112252429Y-87630661D01*
X112252434Y-87630659D01*
X112257384Y-87629174D01*
X112457994Y-87530896D01*
X112639860Y-87401173D01*
X112798096Y-87243489D01*
X112857594Y-87160689D01*
X112928453Y-87062077D01*
X112929776Y-87063028D01*
X112976645Y-87019857D01*
X113046580Y-87007625D01*
X113112026Y-87035144D01*
X113139875Y-87066994D01*
X113199987Y-87165088D01*
X113346250Y-87333938D01*
X113518126Y-87476632D01*
X113711000Y-87589338D01*
X113919692Y-87669030D01*
X113924760Y-87670061D01*
X113924763Y-87670062D01*
X114019862Y-87689410D01*
X114138597Y-87713567D01*
X114143772Y-87713757D01*
X114143774Y-87713757D01*
X114356673Y-87721564D01*
X114356677Y-87721564D01*
X114361837Y-87721753D01*
X114366957Y-87721097D01*
X114366959Y-87721097D01*
X114578288Y-87694025D01*
X114578289Y-87694025D01*
X114583416Y-87693368D01*
X114588366Y-87691883D01*
X114792429Y-87630661D01*
X114792434Y-87630659D01*
X114797384Y-87629174D01*
X114997994Y-87530896D01*
X115179860Y-87401173D01*
X115338096Y-87243489D01*
X115397594Y-87160689D01*
X115468453Y-87062077D01*
X115469776Y-87063028D01*
X115516645Y-87019857D01*
X115586580Y-87007625D01*
X115652026Y-87035144D01*
X115679875Y-87066994D01*
X115739987Y-87165088D01*
X115886250Y-87333938D01*
X116058126Y-87476632D01*
X116251000Y-87589338D01*
X116459692Y-87669030D01*
X116464760Y-87670061D01*
X116464763Y-87670062D01*
X116559862Y-87689410D01*
X116678597Y-87713567D01*
X116683772Y-87713757D01*
X116683774Y-87713757D01*
X116896673Y-87721564D01*
X116896677Y-87721564D01*
X116901837Y-87721753D01*
X116906957Y-87721097D01*
X116906959Y-87721097D01*
X117118288Y-87694025D01*
X117118289Y-87694025D01*
X117123416Y-87693368D01*
X117128366Y-87691883D01*
X117332429Y-87630661D01*
X117332434Y-87630659D01*
X117337384Y-87629174D01*
X117537994Y-87530896D01*
X117719860Y-87401173D01*
X117878096Y-87243489D01*
X117937594Y-87160689D01*
X118008453Y-87062077D01*
X118009640Y-87062930D01*
X118056960Y-87019362D01*
X118126897Y-87007145D01*
X118192338Y-87034678D01*
X118220166Y-87066511D01*
X118277694Y-87160388D01*
X118283777Y-87168699D01*
X118423213Y-87329667D01*
X118430580Y-87336883D01*
X118594434Y-87472916D01*
X118602881Y-87478831D01*
X118786756Y-87586279D01*
X118796042Y-87590729D01*
X118995001Y-87666703D01*
X119004899Y-87669579D01*
X119108250Y-87690606D01*
X119122299Y-87689410D01*
X119126000Y-87679065D01*
X119126000Y-87678517D01*
X119634000Y-87678517D01*
X119638064Y-87692359D01*
X119651478Y-87694393D01*
X119658184Y-87693534D01*
X119668262Y-87691392D01*
X119872255Y-87630191D01*
X119881842Y-87626433D01*
X120073095Y-87532739D01*
X120081945Y-87527464D01*
X120255328Y-87403792D01*
X120263200Y-87397139D01*
X120414052Y-87246812D01*
X120420730Y-87238965D01*
X120548022Y-87061819D01*
X120549279Y-87062722D01*
X120596373Y-87019362D01*
X120666311Y-87007145D01*
X120731751Y-87034678D01*
X120759579Y-87066511D01*
X120819987Y-87165088D01*
X120966250Y-87333938D01*
X121138126Y-87476632D01*
X121331000Y-87589338D01*
X121539692Y-87669030D01*
X121544760Y-87670061D01*
X121544763Y-87670062D01*
X121639862Y-87689410D01*
X121758597Y-87713567D01*
X121763772Y-87713757D01*
X121763774Y-87713757D01*
X121976673Y-87721564D01*
X121976677Y-87721564D01*
X121981837Y-87721753D01*
X121986957Y-87721097D01*
X121986959Y-87721097D01*
X122198288Y-87694025D01*
X122198289Y-87694025D01*
X122203416Y-87693368D01*
X122208366Y-87691883D01*
X122412429Y-87630661D01*
X122412434Y-87630659D01*
X122417384Y-87629174D01*
X122617994Y-87530896D01*
X122799860Y-87401173D01*
X122958096Y-87243489D01*
X123017594Y-87160689D01*
X123085435Y-87066277D01*
X123088453Y-87062077D01*
X123101995Y-87034678D01*
X123185136Y-86866453D01*
X123185137Y-86866451D01*
X123187430Y-86861811D01*
X123252370Y-86648069D01*
X123281529Y-86426590D01*
X123283156Y-86360000D01*
X123264852Y-86137361D01*
X123210431Y-85920702D01*
X123121354Y-85715840D01*
X123000014Y-85528277D01*
X122996532Y-85524450D01*
X122852798Y-85366488D01*
X122821746Y-85302642D01*
X122830141Y-85232143D01*
X122875317Y-85177375D01*
X122901761Y-85163706D01*
X123008297Y-85123767D01*
X123016705Y-85120615D01*
X123133261Y-85033261D01*
X123220615Y-84916705D01*
X123271745Y-84780316D01*
X123278500Y-84718134D01*
X123278500Y-82921866D01*
X123271745Y-82859684D01*
X123220615Y-82723295D01*
X123133261Y-82606739D01*
X123016705Y-82519385D01*
X122880316Y-82468255D01*
X122818134Y-82461500D01*
X121021866Y-82461500D01*
X120959684Y-82468255D01*
X120823295Y-82519385D01*
X120706739Y-82606739D01*
X120619385Y-82723295D01*
X120616233Y-82731703D01*
X120616232Y-82731705D01*
X120574722Y-82842433D01*
X120532081Y-82899198D01*
X120465519Y-82923898D01*
X120396170Y-82908691D01*
X120363546Y-82883004D01*
X120312799Y-82827234D01*
X120305273Y-82820215D01*
X120138139Y-82688222D01*
X120129552Y-82682517D01*
X119943117Y-82579599D01*
X119933705Y-82575369D01*
X119732959Y-82504280D01*
X119722988Y-82501646D01*
X119651837Y-82488972D01*
X119638540Y-82490432D01*
X119634000Y-82504989D01*
X119634000Y-87678517D01*
X119126000Y-87678517D01*
X119126000Y-82503102D01*
X119122082Y-82489758D01*
X119107806Y-82487771D01*
X119069324Y-82493660D01*
X119059288Y-82496051D01*
X118856868Y-82562212D01*
X118847359Y-82566209D01*
X118658463Y-82664542D01*
X118649738Y-82670036D01*
X118479433Y-82797905D01*
X118471726Y-82804748D01*
X118324590Y-82958717D01*
X118318109Y-82966722D01*
X118213498Y-83120074D01*
X118158587Y-83165076D01*
X118088062Y-83173247D01*
X118024315Y-83141993D01*
X118003618Y-83117509D01*
X117922822Y-82992617D01*
X117922820Y-82992614D01*
X117920014Y-82988277D01*
X117769670Y-82823051D01*
X117765619Y-82819852D01*
X117765615Y-82819848D01*
X117598414Y-82687800D01*
X117598410Y-82687798D01*
X117594359Y-82684598D01*
X117558028Y-82664542D01*
X117542136Y-82655769D01*
X117398789Y-82576638D01*
X117393920Y-82574914D01*
X117393916Y-82574912D01*
X117193087Y-82503795D01*
X117193083Y-82503794D01*
X117188212Y-82502069D01*
X117183119Y-82501162D01*
X117183116Y-82501161D01*
X116973373Y-82463800D01*
X116973367Y-82463799D01*
X116968284Y-82462894D01*
X116894452Y-82461992D01*
X116750081Y-82460228D01*
X116750079Y-82460228D01*
X116744911Y-82460165D01*
X116524091Y-82493955D01*
X116311756Y-82563357D01*
X116113607Y-82666507D01*
X116109474Y-82669610D01*
X116109471Y-82669612D01*
X116026771Y-82731705D01*
X115934965Y-82800635D01*
X115780629Y-82962138D01*
X115673201Y-83119621D01*
X115618293Y-83164621D01*
X115547768Y-83172792D01*
X115484021Y-83141538D01*
X115463324Y-83117054D01*
X115382822Y-82992617D01*
X115382820Y-82992614D01*
X115380014Y-82988277D01*
X115229670Y-82823051D01*
X115225619Y-82819852D01*
X115225615Y-82819848D01*
X115058414Y-82687800D01*
X115058410Y-82687798D01*
X115054359Y-82684598D01*
X115018028Y-82664542D01*
X115002136Y-82655769D01*
X114858789Y-82576638D01*
X114853920Y-82574914D01*
X114853916Y-82574912D01*
X114653087Y-82503795D01*
X114653083Y-82503794D01*
X114648212Y-82502069D01*
X114643119Y-82501162D01*
X114643116Y-82501161D01*
X114433373Y-82463800D01*
X114433367Y-82463799D01*
X114428284Y-82462894D01*
X114354452Y-82461992D01*
X114210081Y-82460228D01*
X114210079Y-82460228D01*
X114204911Y-82460165D01*
X113984091Y-82493955D01*
X113771756Y-82563357D01*
X113573607Y-82666507D01*
X113569474Y-82669610D01*
X113569471Y-82669612D01*
X113486771Y-82731705D01*
X113394965Y-82800635D01*
X113240629Y-82962138D01*
X113133201Y-83119621D01*
X113078293Y-83164621D01*
X113007768Y-83172792D01*
X112944021Y-83141538D01*
X112923324Y-83117054D01*
X112842822Y-82992617D01*
X112842820Y-82992614D01*
X112840014Y-82988277D01*
X112689670Y-82823051D01*
X112685619Y-82819852D01*
X112685615Y-82819848D01*
X112518414Y-82687800D01*
X112518410Y-82687798D01*
X112514359Y-82684598D01*
X112478028Y-82664542D01*
X112462136Y-82655769D01*
X112318789Y-82576638D01*
X112313920Y-82574914D01*
X112313916Y-82574912D01*
X112113087Y-82503795D01*
X112113083Y-82503794D01*
X112108212Y-82502069D01*
X112103119Y-82501162D01*
X112103116Y-82501161D01*
X111893373Y-82463800D01*
X111893367Y-82463799D01*
X111888284Y-82462894D01*
X111814452Y-82461992D01*
X111670081Y-82460228D01*
X111670079Y-82460228D01*
X111664911Y-82460165D01*
X111444091Y-82493955D01*
X111231756Y-82563357D01*
X111033607Y-82666507D01*
X111029474Y-82669610D01*
X111029471Y-82669612D01*
X110946771Y-82731705D01*
X110854965Y-82800635D01*
X110700629Y-82962138D01*
X110593201Y-83119621D01*
X110538293Y-83164621D01*
X110467768Y-83172792D01*
X110404021Y-83141538D01*
X110383324Y-83117054D01*
X110302822Y-82992617D01*
X110302820Y-82992614D01*
X110300014Y-82988277D01*
X110149670Y-82823051D01*
X110145619Y-82819852D01*
X110145615Y-82819848D01*
X109978414Y-82687800D01*
X109978410Y-82687798D01*
X109974359Y-82684598D01*
X109938028Y-82664542D01*
X109922136Y-82655769D01*
X109778789Y-82576638D01*
X109773920Y-82574914D01*
X109773916Y-82574912D01*
X109573087Y-82503795D01*
X109573083Y-82503794D01*
X109568212Y-82502069D01*
X109563119Y-82501162D01*
X109563116Y-82501161D01*
X109353373Y-82463800D01*
X109353367Y-82463799D01*
X109348284Y-82462894D01*
X109274452Y-82461992D01*
X109130081Y-82460228D01*
X109130079Y-82460228D01*
X109124911Y-82460165D01*
X108904091Y-82493955D01*
X108691756Y-82563357D01*
X108493607Y-82666507D01*
X108489474Y-82669610D01*
X108489471Y-82669612D01*
X108406771Y-82731705D01*
X108314965Y-82800635D01*
X108160629Y-82962138D01*
X108034743Y-83146680D01*
X107940688Y-83349305D01*
X107880989Y-83564570D01*
X107857251Y-83786695D01*
X107857548Y-83791848D01*
X107857548Y-83791851D01*
X107858285Y-83804636D01*
X107870110Y-84009715D01*
X107871247Y-84014761D01*
X107871248Y-84014767D01*
X107892275Y-84108069D01*
X107919222Y-84227639D01*
X108003266Y-84434616D01*
X108054942Y-84518944D01*
X108117291Y-84620688D01*
X108119987Y-84625088D01*
X108266250Y-84793938D01*
X108438126Y-84936632D01*
X108488628Y-84966143D01*
X108511445Y-84979476D01*
X108560169Y-85031114D01*
X108573240Y-85100897D01*
X108546509Y-85166669D01*
X108506055Y-85200027D01*
X108493607Y-85206507D01*
X108489474Y-85209610D01*
X108489471Y-85209612D01*
X108365567Y-85302642D01*
X108314965Y-85340635D01*
X108160629Y-85502138D01*
X108157720Y-85506403D01*
X108157714Y-85506411D01*
X108145409Y-85524450D01*
X108034743Y-85686680D01*
X107940688Y-85889305D01*
X107880989Y-86104570D01*
X107857251Y-86326695D01*
X100420418Y-86326695D01*
X100404852Y-86137361D01*
X100350431Y-85920702D01*
X100261354Y-85715840D01*
X100140014Y-85528277D01*
X100136532Y-85524450D01*
X99992798Y-85366488D01*
X99961746Y-85302642D01*
X99970141Y-85232143D01*
X100015317Y-85177375D01*
X100041761Y-85163706D01*
X100148297Y-85123767D01*
X100156705Y-85120615D01*
X100273261Y-85033261D01*
X100360615Y-84916705D01*
X100411745Y-84780316D01*
X100418500Y-84718134D01*
X100418500Y-82921866D01*
X100411745Y-82859684D01*
X100360615Y-82723295D01*
X100273261Y-82606739D01*
X100156705Y-82519385D01*
X100020316Y-82468255D01*
X99958134Y-82461500D01*
X98161866Y-82461500D01*
X98099684Y-82468255D01*
X97963295Y-82519385D01*
X97846739Y-82606739D01*
X97759385Y-82723295D01*
X97756233Y-82731703D01*
X97756232Y-82731705D01*
X97714722Y-82842433D01*
X97672081Y-82899198D01*
X97605519Y-82923898D01*
X97536170Y-82908691D01*
X97503546Y-82883004D01*
X97452799Y-82827234D01*
X97445273Y-82820215D01*
X97278139Y-82688222D01*
X97269552Y-82682517D01*
X97083117Y-82579599D01*
X97073705Y-82575369D01*
X96872959Y-82504280D01*
X96862988Y-82501646D01*
X96791837Y-82488972D01*
X96778540Y-82490432D01*
X96774000Y-82504989D01*
X96774000Y-87678517D01*
X96266000Y-87678517D01*
X96266000Y-82503102D01*
X96262082Y-82489758D01*
X96247806Y-82487771D01*
X96209324Y-82493660D01*
X96199288Y-82496051D01*
X95996868Y-82562212D01*
X95987359Y-82566209D01*
X95798463Y-82664542D01*
X95789738Y-82670036D01*
X95619433Y-82797905D01*
X95611726Y-82804748D01*
X95464590Y-82958717D01*
X95458109Y-82966722D01*
X95353498Y-83120074D01*
X95298587Y-83165076D01*
X95228062Y-83173247D01*
X95164315Y-83141993D01*
X95143618Y-83117509D01*
X95062822Y-82992617D01*
X95062820Y-82992614D01*
X95060014Y-82988277D01*
X94909670Y-82823051D01*
X94905619Y-82819852D01*
X94905615Y-82819848D01*
X94738414Y-82687800D01*
X94738410Y-82687798D01*
X94734359Y-82684598D01*
X94698028Y-82664542D01*
X94682136Y-82655769D01*
X94538789Y-82576638D01*
X94533920Y-82574914D01*
X94533916Y-82574912D01*
X94333087Y-82503795D01*
X94333083Y-82503794D01*
X94328212Y-82502069D01*
X94323119Y-82501162D01*
X94323116Y-82501161D01*
X94113373Y-82463800D01*
X94113367Y-82463799D01*
X94108284Y-82462894D01*
X94034452Y-82461992D01*
X93890081Y-82460228D01*
X93890079Y-82460228D01*
X93884911Y-82460165D01*
X93664091Y-82493955D01*
X93451756Y-82563357D01*
X93253607Y-82666507D01*
X93249474Y-82669610D01*
X93249471Y-82669612D01*
X93166771Y-82731705D01*
X93074965Y-82800635D01*
X92920629Y-82962138D01*
X92813201Y-83119621D01*
X92758293Y-83164621D01*
X92687768Y-83172792D01*
X92624021Y-83141538D01*
X92603324Y-83117054D01*
X92522822Y-82992617D01*
X92522820Y-82992614D01*
X92520014Y-82988277D01*
X92369670Y-82823051D01*
X92365619Y-82819852D01*
X92365615Y-82819848D01*
X92198414Y-82687800D01*
X92198410Y-82687798D01*
X92194359Y-82684598D01*
X92158028Y-82664542D01*
X92142136Y-82655769D01*
X91998789Y-82576638D01*
X91993920Y-82574914D01*
X91993916Y-82574912D01*
X91793087Y-82503795D01*
X91793083Y-82503794D01*
X91788212Y-82502069D01*
X91783119Y-82501162D01*
X91783116Y-82501161D01*
X91573373Y-82463800D01*
X91573367Y-82463799D01*
X91568284Y-82462894D01*
X91494452Y-82461992D01*
X91350081Y-82460228D01*
X91350079Y-82460228D01*
X91344911Y-82460165D01*
X91124091Y-82493955D01*
X90911756Y-82563357D01*
X90713607Y-82666507D01*
X90709474Y-82669610D01*
X90709471Y-82669612D01*
X90626771Y-82731705D01*
X90534965Y-82800635D01*
X90380629Y-82962138D01*
X90273201Y-83119621D01*
X90218293Y-83164621D01*
X90147768Y-83172792D01*
X90084021Y-83141538D01*
X90063324Y-83117054D01*
X89982822Y-82992617D01*
X89982820Y-82992614D01*
X89980014Y-82988277D01*
X89829670Y-82823051D01*
X89825619Y-82819852D01*
X89825615Y-82819848D01*
X89658414Y-82687800D01*
X89658410Y-82687798D01*
X89654359Y-82684598D01*
X89618028Y-82664542D01*
X89602136Y-82655769D01*
X89458789Y-82576638D01*
X89453920Y-82574914D01*
X89453916Y-82574912D01*
X89253087Y-82503795D01*
X89253083Y-82503794D01*
X89248212Y-82502069D01*
X89243119Y-82501162D01*
X89243116Y-82501161D01*
X89033373Y-82463800D01*
X89033367Y-82463799D01*
X89028284Y-82462894D01*
X88954452Y-82461992D01*
X88810081Y-82460228D01*
X88810079Y-82460228D01*
X88804911Y-82460165D01*
X88584091Y-82493955D01*
X88371756Y-82563357D01*
X88173607Y-82666507D01*
X88169474Y-82669610D01*
X88169471Y-82669612D01*
X88086771Y-82731705D01*
X87994965Y-82800635D01*
X87840629Y-82962138D01*
X87733201Y-83119621D01*
X87678293Y-83164621D01*
X87607768Y-83172792D01*
X87544021Y-83141538D01*
X87523324Y-83117054D01*
X87442822Y-82992617D01*
X87442820Y-82992614D01*
X87440014Y-82988277D01*
X87289670Y-82823051D01*
X87285619Y-82819852D01*
X87285615Y-82819848D01*
X87118414Y-82687800D01*
X87118410Y-82687798D01*
X87114359Y-82684598D01*
X87078028Y-82664542D01*
X87062136Y-82655769D01*
X86918789Y-82576638D01*
X86913920Y-82574914D01*
X86913916Y-82574912D01*
X86713087Y-82503795D01*
X86713083Y-82503794D01*
X86708212Y-82502069D01*
X86703119Y-82501162D01*
X86703116Y-82501161D01*
X86493373Y-82463800D01*
X86493367Y-82463799D01*
X86488284Y-82462894D01*
X86414452Y-82461992D01*
X86270081Y-82460228D01*
X86270079Y-82460228D01*
X86264911Y-82460165D01*
X86044091Y-82493955D01*
X85831756Y-82563357D01*
X85633607Y-82666507D01*
X85629474Y-82669610D01*
X85629471Y-82669612D01*
X85546771Y-82731705D01*
X85454965Y-82800635D01*
X85300629Y-82962138D01*
X85174743Y-83146680D01*
X85080688Y-83349305D01*
X85020989Y-83564570D01*
X84997251Y-83786695D01*
X84997548Y-83791848D01*
X84997548Y-83791851D01*
X84998285Y-83804636D01*
X85010110Y-84009715D01*
X85011247Y-84014761D01*
X85011248Y-84014767D01*
X85032275Y-84108069D01*
X85059222Y-84227639D01*
X85143266Y-84434616D01*
X85194942Y-84518944D01*
X85257291Y-84620688D01*
X85259987Y-84625088D01*
X85406250Y-84793938D01*
X85578126Y-84936632D01*
X85628628Y-84966143D01*
X85651445Y-84979476D01*
X85700169Y-85031114D01*
X85713240Y-85100897D01*
X85686509Y-85166669D01*
X85646055Y-85200027D01*
X85633607Y-85206507D01*
X85629474Y-85209610D01*
X85629471Y-85209612D01*
X85505567Y-85302642D01*
X85454965Y-85340635D01*
X85300629Y-85502138D01*
X85297720Y-85506403D01*
X85297714Y-85506411D01*
X85285409Y-85524450D01*
X85174743Y-85686680D01*
X85080688Y-85889305D01*
X85020989Y-86104570D01*
X84997251Y-86326695D01*
X77560418Y-86326695D01*
X77544852Y-86137361D01*
X77490431Y-85920702D01*
X77401354Y-85715840D01*
X77280014Y-85528277D01*
X77276532Y-85524450D01*
X77132798Y-85366488D01*
X77101746Y-85302642D01*
X77110141Y-85232143D01*
X77155317Y-85177375D01*
X77181761Y-85163706D01*
X77288297Y-85123767D01*
X77296705Y-85120615D01*
X77413261Y-85033261D01*
X77500615Y-84916705D01*
X77551745Y-84780316D01*
X77558500Y-84718134D01*
X77558500Y-82921866D01*
X77551745Y-82859684D01*
X77500615Y-82723295D01*
X77413261Y-82606739D01*
X77296705Y-82519385D01*
X77160316Y-82468255D01*
X77098134Y-82461500D01*
X75301866Y-82461500D01*
X75239684Y-82468255D01*
X75103295Y-82519385D01*
X74986739Y-82606739D01*
X74899385Y-82723295D01*
X74896233Y-82731703D01*
X74896232Y-82731705D01*
X74854722Y-82842433D01*
X74812081Y-82899198D01*
X74745519Y-82923898D01*
X74676170Y-82908691D01*
X74643546Y-82883004D01*
X74592799Y-82827234D01*
X74585273Y-82820215D01*
X74418139Y-82688222D01*
X74409552Y-82682517D01*
X74223117Y-82579599D01*
X74213705Y-82575369D01*
X74012959Y-82504280D01*
X74002988Y-82501646D01*
X73931837Y-82488972D01*
X73918540Y-82490432D01*
X73914000Y-82504989D01*
X73914000Y-87678517D01*
X73406000Y-87678517D01*
X73406000Y-82503102D01*
X73402082Y-82489758D01*
X73387806Y-82487771D01*
X73349324Y-82493660D01*
X73339288Y-82496051D01*
X73136868Y-82562212D01*
X73127359Y-82566209D01*
X72938463Y-82664542D01*
X72929738Y-82670036D01*
X72759433Y-82797905D01*
X72751726Y-82804748D01*
X72604590Y-82958717D01*
X72598109Y-82966722D01*
X72493498Y-83120074D01*
X72438587Y-83165076D01*
X72368062Y-83173247D01*
X72304315Y-83141993D01*
X72283618Y-83117509D01*
X72202822Y-82992617D01*
X72202820Y-82992614D01*
X72200014Y-82988277D01*
X72049670Y-82823051D01*
X72045619Y-82819852D01*
X72045615Y-82819848D01*
X71878414Y-82687800D01*
X71878410Y-82687798D01*
X71874359Y-82684598D01*
X71838028Y-82664542D01*
X71822136Y-82655769D01*
X71678789Y-82576638D01*
X71673920Y-82574914D01*
X71673916Y-82574912D01*
X71473087Y-82503795D01*
X71473083Y-82503794D01*
X71468212Y-82502069D01*
X71463119Y-82501162D01*
X71463116Y-82501161D01*
X71253373Y-82463800D01*
X71253367Y-82463799D01*
X71248284Y-82462894D01*
X71174452Y-82461992D01*
X71030081Y-82460228D01*
X71030079Y-82460228D01*
X71024911Y-82460165D01*
X70804091Y-82493955D01*
X70591756Y-82563357D01*
X70393607Y-82666507D01*
X70389474Y-82669610D01*
X70389471Y-82669612D01*
X70306771Y-82731705D01*
X70214965Y-82800635D01*
X70060629Y-82962138D01*
X69953201Y-83119621D01*
X69898293Y-83164621D01*
X69827768Y-83172792D01*
X69764021Y-83141538D01*
X69743324Y-83117054D01*
X69662822Y-82992617D01*
X69662820Y-82992614D01*
X69660014Y-82988277D01*
X69509670Y-82823051D01*
X69505619Y-82819852D01*
X69505615Y-82819848D01*
X69338414Y-82687800D01*
X69338410Y-82687798D01*
X69334359Y-82684598D01*
X69298028Y-82664542D01*
X69282136Y-82655769D01*
X69138789Y-82576638D01*
X69133920Y-82574914D01*
X69133916Y-82574912D01*
X68933087Y-82503795D01*
X68933083Y-82503794D01*
X68928212Y-82502069D01*
X68923119Y-82501162D01*
X68923116Y-82501161D01*
X68713373Y-82463800D01*
X68713367Y-82463799D01*
X68708284Y-82462894D01*
X68634452Y-82461992D01*
X68490081Y-82460228D01*
X68490079Y-82460228D01*
X68484911Y-82460165D01*
X68264091Y-82493955D01*
X68051756Y-82563357D01*
X67853607Y-82666507D01*
X67849474Y-82669610D01*
X67849471Y-82669612D01*
X67766771Y-82731705D01*
X67674965Y-82800635D01*
X67520629Y-82962138D01*
X67413201Y-83119621D01*
X67358293Y-83164621D01*
X67287768Y-83172792D01*
X67224021Y-83141538D01*
X67203324Y-83117054D01*
X67122822Y-82992617D01*
X67122820Y-82992614D01*
X67120014Y-82988277D01*
X66969670Y-82823051D01*
X66965619Y-82819852D01*
X66965615Y-82819848D01*
X66798414Y-82687800D01*
X66798410Y-82687798D01*
X66794359Y-82684598D01*
X66758028Y-82664542D01*
X66742136Y-82655769D01*
X66598789Y-82576638D01*
X66593920Y-82574914D01*
X66593916Y-82574912D01*
X66393087Y-82503795D01*
X66393083Y-82503794D01*
X66388212Y-82502069D01*
X66383119Y-82501162D01*
X66383116Y-82501161D01*
X66173373Y-82463800D01*
X66173367Y-82463799D01*
X66168284Y-82462894D01*
X66094452Y-82461992D01*
X65950081Y-82460228D01*
X65950079Y-82460228D01*
X65944911Y-82460165D01*
X65724091Y-82493955D01*
X65511756Y-82563357D01*
X65313607Y-82666507D01*
X65309474Y-82669610D01*
X65309471Y-82669612D01*
X65226771Y-82731705D01*
X65134965Y-82800635D01*
X64980629Y-82962138D01*
X64873201Y-83119621D01*
X64818293Y-83164621D01*
X64747768Y-83172792D01*
X64684021Y-83141538D01*
X64663324Y-83117054D01*
X64582822Y-82992617D01*
X64582820Y-82992614D01*
X64580014Y-82988277D01*
X64429670Y-82823051D01*
X64425619Y-82819852D01*
X64425615Y-82819848D01*
X64258414Y-82687800D01*
X64258410Y-82687798D01*
X64254359Y-82684598D01*
X64218028Y-82664542D01*
X64202136Y-82655769D01*
X64058789Y-82576638D01*
X64053920Y-82574914D01*
X64053916Y-82574912D01*
X63853087Y-82503795D01*
X63853083Y-82503794D01*
X63848212Y-82502069D01*
X63843119Y-82501162D01*
X63843116Y-82501161D01*
X63633373Y-82463800D01*
X63633367Y-82463799D01*
X63628284Y-82462894D01*
X63554452Y-82461992D01*
X63410081Y-82460228D01*
X63410079Y-82460228D01*
X63404911Y-82460165D01*
X63184091Y-82493955D01*
X62971756Y-82563357D01*
X62773607Y-82666507D01*
X62769474Y-82669610D01*
X62769471Y-82669612D01*
X62686771Y-82731705D01*
X62594965Y-82800635D01*
X62440629Y-82962138D01*
X62314743Y-83146680D01*
X62220688Y-83349305D01*
X62160989Y-83564570D01*
X62137251Y-83786695D01*
X62137548Y-83791848D01*
X62137548Y-83791851D01*
X62138285Y-83804636D01*
X62150110Y-84009715D01*
X62151247Y-84014761D01*
X62151248Y-84014767D01*
X62172275Y-84108069D01*
X62199222Y-84227639D01*
X62283266Y-84434616D01*
X62334942Y-84518944D01*
X62397291Y-84620688D01*
X62399987Y-84625088D01*
X62546250Y-84793938D01*
X62718126Y-84936632D01*
X62768628Y-84966143D01*
X62791445Y-84979476D01*
X62840169Y-85031114D01*
X62853240Y-85100897D01*
X62826509Y-85166669D01*
X62786055Y-85200027D01*
X62773607Y-85206507D01*
X62769474Y-85209610D01*
X62769471Y-85209612D01*
X62645567Y-85302642D01*
X62594965Y-85340635D01*
X62440629Y-85502138D01*
X62437720Y-85506403D01*
X62437714Y-85506411D01*
X62425409Y-85524450D01*
X62314743Y-85686680D01*
X62220688Y-85889305D01*
X62160989Y-86104570D01*
X62137251Y-86326695D01*
X58151864Y-86326695D01*
X58134291Y-85932121D01*
X58077275Y-85507630D01*
X58076033Y-85502138D01*
X57983368Y-85092618D01*
X57983368Y-85092617D01*
X57982750Y-85089887D01*
X57926980Y-84916705D01*
X57852318Y-84684856D01*
X57852316Y-84684849D01*
X57851463Y-84682202D01*
X57699828Y-84324104D01*
X57685550Y-84290384D01*
X57685548Y-84290379D01*
X57684456Y-84287801D01*
X57483050Y-83909807D01*
X57399289Y-83781562D01*
X57250381Y-83553573D01*
X57250378Y-83553569D01*
X57248840Y-83551214D01*
X56983680Y-83214860D01*
X56741881Y-82958717D01*
X56691596Y-82905449D01*
X56691593Y-82905446D01*
X56689670Y-82903409D01*
X56687579Y-82901556D01*
X56687571Y-82901548D01*
X56371237Y-82621188D01*
X56371235Y-82621186D01*
X56369137Y-82619327D01*
X56361816Y-82613919D01*
X56213376Y-82504280D01*
X56024621Y-82364863D01*
X55831733Y-82247355D01*
X55661237Y-82143487D01*
X55661230Y-82143483D01*
X55658848Y-82142032D01*
X55541514Y-82084169D01*
X55277228Y-81953838D01*
X55274714Y-81952598D01*
X54875262Y-81798062D01*
X54628678Y-81727122D01*
X54466335Y-81680417D01*
X54466329Y-81680415D01*
X54463654Y-81679646D01*
X54460917Y-81679117D01*
X54460911Y-81679115D01*
X54315828Y-81651046D01*
X54043148Y-81598289D01*
X54040374Y-81598005D01*
X54040362Y-81598003D01*
X53757111Y-81568982D01*
X53617076Y-81554634D01*
X53614286Y-81554597D01*
X53614278Y-81554597D01*
X53346825Y-81551096D01*
X53188809Y-81549028D01*
X53186009Y-81549241D01*
X53186008Y-81549241D01*
X53111364Y-81554919D01*
X52761740Y-81581514D01*
X52339249Y-81651836D01*
X52253671Y-81674048D01*
X51927400Y-81758731D01*
X51927389Y-81758734D01*
X51924682Y-81759437D01*
X51666575Y-81851599D01*
X51523964Y-81902520D01*
X51523959Y-81902522D01*
X51521321Y-81903464D01*
X51518781Y-81904635D01*
X51518776Y-81904637D01*
X51416930Y-81951589D01*
X51132361Y-82082777D01*
X50760880Y-82295957D01*
X50758577Y-82297566D01*
X50758570Y-82297571D01*
X50433491Y-82524771D01*
X50409820Y-82541315D01*
X50081961Y-82816909D01*
X49779899Y-83120557D01*
X49506025Y-83449855D01*
X49504431Y-83452162D01*
X49504429Y-83452164D01*
X49269657Y-83791851D01*
X49262508Y-83802194D01*
X49051276Y-84174786D01*
X49050117Y-84177335D01*
X49050115Y-84177339D01*
X49009201Y-84267325D01*
X48962797Y-84321058D01*
X48894710Y-84341174D01*
X48826556Y-84321285D01*
X48779974Y-84267707D01*
X48768500Y-84215174D01*
X48768500Y-62114454D01*
X61687269Y-62114454D01*
X61688015Y-62122346D01*
X61691430Y-62158472D01*
X61691989Y-62170330D01*
X61691989Y-67326722D01*
X61691462Y-67337905D01*
X61689787Y-67345398D01*
X61690036Y-67353324D01*
X61690036Y-67353325D01*
X61691927Y-67413475D01*
X61691989Y-67417434D01*
X61691989Y-67445345D01*
X61692486Y-67449279D01*
X61692486Y-67449280D01*
X61692494Y-67449345D01*
X61693427Y-67461182D01*
X61694816Y-67505378D01*
X61700467Y-67524828D01*
X61704476Y-67544189D01*
X61707015Y-67564286D01*
X61709934Y-67571657D01*
X61709934Y-67571659D01*
X61723293Y-67605401D01*
X61727138Y-67616631D01*
X61739471Y-67659082D01*
X61743504Y-67665901D01*
X61743506Y-67665906D01*
X61749782Y-67676517D01*
X61758477Y-67694265D01*
X61765937Y-67713106D01*
X61770599Y-67719522D01*
X61770599Y-67719523D01*
X61791925Y-67748876D01*
X61798441Y-67758796D01*
X61820947Y-67796851D01*
X61835268Y-67811172D01*
X61848108Y-67826205D01*
X61860017Y-67842596D01*
X61866123Y-67847647D01*
X61894094Y-67870787D01*
X61902873Y-67878777D01*
X62104595Y-68080499D01*
X62138621Y-68142811D01*
X62141500Y-68169594D01*
X62141500Y-69478134D01*
X62148255Y-69540316D01*
X62199385Y-69676705D01*
X62286739Y-69793261D01*
X62403295Y-69880615D01*
X62539684Y-69931745D01*
X62601866Y-69938500D01*
X64398134Y-69938500D01*
X64460316Y-69931745D01*
X64596705Y-69880615D01*
X64713261Y-69793261D01*
X64800615Y-69676705D01*
X64822799Y-69617529D01*
X64844598Y-69559382D01*
X64887240Y-69502618D01*
X64953802Y-69477918D01*
X65023150Y-69493126D01*
X65057817Y-69521114D01*
X65086250Y-69553938D01*
X65258126Y-69696632D01*
X65451000Y-69809338D01*
X65659692Y-69889030D01*
X65664760Y-69890061D01*
X65664763Y-69890062D01*
X65759862Y-69909410D01*
X65878597Y-69933567D01*
X65883772Y-69933757D01*
X65883774Y-69933757D01*
X66096673Y-69941564D01*
X66096677Y-69941564D01*
X66101837Y-69941753D01*
X66106957Y-69941097D01*
X66106959Y-69941097D01*
X66318288Y-69914025D01*
X66318289Y-69914025D01*
X66323416Y-69913368D01*
X66328366Y-69911883D01*
X66532429Y-69850661D01*
X66532434Y-69850659D01*
X66537384Y-69849174D01*
X66737994Y-69750896D01*
X66919860Y-69621173D01*
X67078096Y-69463489D01*
X67208453Y-69282077D01*
X67209776Y-69283028D01*
X67256645Y-69239857D01*
X67326580Y-69227625D01*
X67392026Y-69255144D01*
X67419875Y-69286994D01*
X67479987Y-69385088D01*
X67626250Y-69553938D01*
X67798126Y-69696632D01*
X67991000Y-69809338D01*
X68199692Y-69889030D01*
X68204760Y-69890061D01*
X68204763Y-69890062D01*
X68299862Y-69909410D01*
X68418597Y-69933567D01*
X68423772Y-69933757D01*
X68423774Y-69933757D01*
X68636673Y-69941564D01*
X68636677Y-69941564D01*
X68641837Y-69941753D01*
X68646957Y-69941097D01*
X68646959Y-69941097D01*
X68858288Y-69914025D01*
X68858289Y-69914025D01*
X68863416Y-69913368D01*
X68868366Y-69911883D01*
X69072429Y-69850661D01*
X69072434Y-69850659D01*
X69077384Y-69849174D01*
X69277994Y-69750896D01*
X69459860Y-69621173D01*
X69618096Y-69463489D01*
X69748453Y-69282077D01*
X69749776Y-69283028D01*
X69796645Y-69239857D01*
X69866580Y-69227625D01*
X69932026Y-69255144D01*
X69959875Y-69286994D01*
X70019987Y-69385088D01*
X70166250Y-69553938D01*
X70338126Y-69696632D01*
X70531000Y-69809338D01*
X70739692Y-69889030D01*
X70744760Y-69890061D01*
X70744763Y-69890062D01*
X70839862Y-69909410D01*
X70958597Y-69933567D01*
X70963772Y-69933757D01*
X70963774Y-69933757D01*
X71176673Y-69941564D01*
X71176677Y-69941564D01*
X71181837Y-69941753D01*
X71186957Y-69941097D01*
X71186959Y-69941097D01*
X71398288Y-69914025D01*
X71398289Y-69914025D01*
X71403416Y-69913368D01*
X71408366Y-69911883D01*
X71612429Y-69850661D01*
X71612434Y-69850659D01*
X71617384Y-69849174D01*
X71817994Y-69750896D01*
X71999860Y-69621173D01*
X72158096Y-69463489D01*
X72288453Y-69282077D01*
X72289640Y-69282930D01*
X72336960Y-69239362D01*
X72406897Y-69227145D01*
X72472338Y-69254678D01*
X72500166Y-69286511D01*
X72557694Y-69380388D01*
X72563777Y-69388699D01*
X72703213Y-69549667D01*
X72710580Y-69556883D01*
X72874434Y-69692916D01*
X72882881Y-69698831D01*
X73066756Y-69806279D01*
X73076042Y-69810729D01*
X73275001Y-69886703D01*
X73284899Y-69889579D01*
X73388250Y-69910606D01*
X73402299Y-69909410D01*
X73406000Y-69899065D01*
X73406000Y-69898517D01*
X73914000Y-69898517D01*
X73918064Y-69912359D01*
X73931478Y-69914393D01*
X73938184Y-69913534D01*
X73948262Y-69911392D01*
X74152255Y-69850191D01*
X74161842Y-69846433D01*
X74353095Y-69752739D01*
X74361945Y-69747464D01*
X74535328Y-69623792D01*
X74543200Y-69617139D01*
X74694052Y-69466812D01*
X74700730Y-69458965D01*
X74828022Y-69281819D01*
X74829279Y-69282722D01*
X74876373Y-69239362D01*
X74946311Y-69227145D01*
X75011751Y-69254678D01*
X75039579Y-69286511D01*
X75099987Y-69385088D01*
X75246250Y-69553938D01*
X75418126Y-69696632D01*
X75611000Y-69809338D01*
X75819692Y-69889030D01*
X75824760Y-69890061D01*
X75824763Y-69890062D01*
X75919862Y-69909410D01*
X76038597Y-69933567D01*
X76043772Y-69933757D01*
X76043774Y-69933757D01*
X76256673Y-69941564D01*
X76256677Y-69941564D01*
X76261837Y-69941753D01*
X76266957Y-69941097D01*
X76266959Y-69941097D01*
X76478288Y-69914025D01*
X76478289Y-69914025D01*
X76483416Y-69913368D01*
X76488366Y-69911883D01*
X76692429Y-69850661D01*
X76692434Y-69850659D01*
X76697384Y-69849174D01*
X76897994Y-69750896D01*
X77079860Y-69621173D01*
X77238096Y-69463489D01*
X77368453Y-69282077D01*
X77381995Y-69254678D01*
X77465136Y-69086453D01*
X77465137Y-69086451D01*
X77467430Y-69081811D01*
X77532370Y-68868069D01*
X77561529Y-68646590D01*
X77563156Y-68580000D01*
X77544852Y-68357361D01*
X77490431Y-68140702D01*
X77401354Y-67935840D01*
X77311438Y-67796851D01*
X77282822Y-67752617D01*
X77282820Y-67752614D01*
X77280014Y-67748277D01*
X77129670Y-67583051D01*
X77125619Y-67579852D01*
X77125615Y-67579848D01*
X76958414Y-67447800D01*
X76958410Y-67447798D01*
X76954359Y-67444598D01*
X76913053Y-67421796D01*
X76863084Y-67371364D01*
X76848312Y-67301921D01*
X76873428Y-67235516D01*
X76900780Y-67208909D01*
X76944603Y-67177650D01*
X77079860Y-67081173D01*
X77238096Y-66923489D01*
X77368453Y-66742077D01*
X77381995Y-66714678D01*
X77465136Y-66546453D01*
X77465137Y-66546451D01*
X77467430Y-66541811D01*
X77532370Y-66328069D01*
X77561529Y-66106590D01*
X77563156Y-66040000D01*
X77544852Y-65817361D01*
X77490431Y-65600702D01*
X77401354Y-65395840D01*
X77280014Y-65208277D01*
X77129670Y-65043051D01*
X77125619Y-65039852D01*
X77125615Y-65039848D01*
X76958414Y-64907800D01*
X76958410Y-64907798D01*
X76954359Y-64904598D01*
X76918028Y-64884542D01*
X76902136Y-64875769D01*
X76758789Y-64796638D01*
X76753920Y-64794914D01*
X76753916Y-64794912D01*
X76553087Y-64723795D01*
X76553083Y-64723794D01*
X76548212Y-64722069D01*
X76543119Y-64721162D01*
X76543116Y-64721161D01*
X76333373Y-64683800D01*
X76333367Y-64683799D01*
X76328284Y-64682894D01*
X76254452Y-64681992D01*
X76110081Y-64680228D01*
X76110079Y-64680228D01*
X76104911Y-64680165D01*
X75884091Y-64713955D01*
X75671756Y-64783357D01*
X75473607Y-64886507D01*
X75469474Y-64889610D01*
X75469471Y-64889612D01*
X75445247Y-64907800D01*
X75294965Y-65020635D01*
X75140629Y-65182138D01*
X75137715Y-65186410D01*
X75137714Y-65186411D01*
X75032898Y-65340066D01*
X74977987Y-65385069D01*
X74907462Y-65393240D01*
X74843715Y-65361986D01*
X74823018Y-65337502D01*
X74742426Y-65212926D01*
X74736136Y-65204757D01*
X74592806Y-65047240D01*
X74585273Y-65040215D01*
X74418139Y-64908222D01*
X74409552Y-64902517D01*
X74223117Y-64799599D01*
X74213705Y-64795369D01*
X74012959Y-64724280D01*
X74002988Y-64721646D01*
X73931837Y-64708972D01*
X73918540Y-64710432D01*
X73914000Y-64724989D01*
X73914000Y-69898517D01*
X73406000Y-69898517D01*
X73406000Y-64723102D01*
X73402082Y-64709758D01*
X73387806Y-64707771D01*
X73349324Y-64713660D01*
X73339288Y-64716051D01*
X73136868Y-64782212D01*
X73127359Y-64786209D01*
X72938463Y-64884542D01*
X72929738Y-64890036D01*
X72759433Y-65017905D01*
X72751726Y-65024748D01*
X72604590Y-65178717D01*
X72598109Y-65186722D01*
X72493498Y-65340074D01*
X72438587Y-65385076D01*
X72368062Y-65393247D01*
X72304315Y-65361993D01*
X72283618Y-65337509D01*
X72202822Y-65212617D01*
X72202820Y-65212614D01*
X72200014Y-65208277D01*
X72049670Y-65043051D01*
X72045619Y-65039852D01*
X72045615Y-65039848D01*
X71878414Y-64907800D01*
X71878410Y-64907798D01*
X71874359Y-64904598D01*
X71838028Y-64884542D01*
X71822136Y-64875769D01*
X71678789Y-64796638D01*
X71673920Y-64794914D01*
X71673916Y-64794912D01*
X71473087Y-64723795D01*
X71473083Y-64723794D01*
X71468212Y-64722069D01*
X71463119Y-64721162D01*
X71463116Y-64721161D01*
X71253373Y-64683800D01*
X71253367Y-64683799D01*
X71248284Y-64682894D01*
X71174452Y-64681992D01*
X71030081Y-64680228D01*
X71030079Y-64680228D01*
X71024911Y-64680165D01*
X70804091Y-64713955D01*
X70770333Y-64724989D01*
X70744134Y-64733552D01*
X70673170Y-64735703D01*
X70612308Y-64699147D01*
X70580872Y-64635490D01*
X70578989Y-64613787D01*
X70578989Y-62449105D01*
X70598991Y-62380984D01*
X70615894Y-62360010D01*
X70664549Y-62311355D01*
X70726861Y-62277329D01*
X70778762Y-62276979D01*
X70958597Y-62313567D01*
X70963772Y-62313757D01*
X70963774Y-62313757D01*
X71176673Y-62321564D01*
X71176677Y-62321564D01*
X71181837Y-62321753D01*
X71186957Y-62321097D01*
X71186959Y-62321097D01*
X71398288Y-62294025D01*
X71398289Y-62294025D01*
X71403416Y-62293368D01*
X71408366Y-62291883D01*
X71612429Y-62230661D01*
X71612434Y-62230659D01*
X71617384Y-62229174D01*
X71817994Y-62130896D01*
X71999860Y-62001173D01*
X72036964Y-61964199D01*
X72146043Y-61855500D01*
X72158096Y-61843489D01*
X72194043Y-61793464D01*
X72288453Y-61662077D01*
X72289640Y-61662930D01*
X72336960Y-61619362D01*
X72406897Y-61607145D01*
X72472338Y-61634678D01*
X72500166Y-61666511D01*
X72557694Y-61760388D01*
X72563777Y-61768699D01*
X72703213Y-61929667D01*
X72710580Y-61936883D01*
X72874434Y-62072916D01*
X72882881Y-62078831D01*
X73066756Y-62186279D01*
X73076042Y-62190729D01*
X73275001Y-62266703D01*
X73284899Y-62269579D01*
X73388250Y-62290606D01*
X73402299Y-62289410D01*
X73406000Y-62279065D01*
X73406000Y-62278517D01*
X73914000Y-62278517D01*
X73918064Y-62292359D01*
X73931478Y-62294393D01*
X73938184Y-62293534D01*
X73948262Y-62291392D01*
X74152255Y-62230191D01*
X74161842Y-62226433D01*
X74353095Y-62132739D01*
X74361945Y-62127464D01*
X74535328Y-62003792D01*
X74543193Y-61997145D01*
X74647897Y-61892805D01*
X74710268Y-61858889D01*
X74781075Y-61864077D01*
X74837837Y-61906723D01*
X74854819Y-61937826D01*
X74864706Y-61964199D01*
X74899385Y-62056705D01*
X74986739Y-62173261D01*
X75103295Y-62260615D01*
X75239684Y-62311745D01*
X75301866Y-62318500D01*
X77098134Y-62318500D01*
X77160316Y-62311745D01*
X77296705Y-62260615D01*
X77413261Y-62173261D01*
X77457334Y-62114454D01*
X84547269Y-62114454D01*
X84548015Y-62122346D01*
X84551430Y-62158472D01*
X84551989Y-62170330D01*
X84551989Y-67326722D01*
X84551462Y-67337905D01*
X84549787Y-67345398D01*
X84550036Y-67353324D01*
X84550036Y-67353325D01*
X84551927Y-67413475D01*
X84551989Y-67417434D01*
X84551989Y-67445345D01*
X84552486Y-67449279D01*
X84552486Y-67449280D01*
X84552494Y-67449345D01*
X84553427Y-67461182D01*
X84554816Y-67505378D01*
X84560467Y-67524828D01*
X84564476Y-67544189D01*
X84567015Y-67564286D01*
X84569934Y-67571657D01*
X84569934Y-67571659D01*
X84583293Y-67605401D01*
X84587138Y-67616631D01*
X84599471Y-67659082D01*
X84603504Y-67665901D01*
X84603506Y-67665906D01*
X84609782Y-67676517D01*
X84618477Y-67694265D01*
X84625937Y-67713106D01*
X84630599Y-67719522D01*
X84630599Y-67719523D01*
X84651925Y-67748876D01*
X84658441Y-67758796D01*
X84680947Y-67796851D01*
X84695268Y-67811172D01*
X84708108Y-67826205D01*
X84720017Y-67842596D01*
X84726123Y-67847647D01*
X84754094Y-67870787D01*
X84762873Y-67878777D01*
X84964595Y-68080499D01*
X84998621Y-68142811D01*
X85001500Y-68169594D01*
X85001500Y-69478134D01*
X85008255Y-69540316D01*
X85059385Y-69676705D01*
X85146739Y-69793261D01*
X85263295Y-69880615D01*
X85399684Y-69931745D01*
X85461866Y-69938500D01*
X87258134Y-69938500D01*
X87320316Y-69931745D01*
X87456705Y-69880615D01*
X87573261Y-69793261D01*
X87660615Y-69676705D01*
X87682799Y-69617529D01*
X87704598Y-69559382D01*
X87747240Y-69502618D01*
X87813802Y-69477918D01*
X87883150Y-69493126D01*
X87917817Y-69521114D01*
X87946250Y-69553938D01*
X88118126Y-69696632D01*
X88311000Y-69809338D01*
X88519692Y-69889030D01*
X88524760Y-69890061D01*
X88524763Y-69890062D01*
X88619862Y-69909410D01*
X88738597Y-69933567D01*
X88743772Y-69933757D01*
X88743774Y-69933757D01*
X88956673Y-69941564D01*
X88956677Y-69941564D01*
X88961837Y-69941753D01*
X88966957Y-69941097D01*
X88966959Y-69941097D01*
X89178288Y-69914025D01*
X89178289Y-69914025D01*
X89183416Y-69913368D01*
X89188366Y-69911883D01*
X89392429Y-69850661D01*
X89392434Y-69850659D01*
X89397384Y-69849174D01*
X89597994Y-69750896D01*
X89779860Y-69621173D01*
X89938096Y-69463489D01*
X90068453Y-69282077D01*
X90069776Y-69283028D01*
X90116645Y-69239857D01*
X90186580Y-69227625D01*
X90252026Y-69255144D01*
X90279875Y-69286994D01*
X90339987Y-69385088D01*
X90486250Y-69553938D01*
X90658126Y-69696632D01*
X90851000Y-69809338D01*
X91059692Y-69889030D01*
X91064760Y-69890061D01*
X91064763Y-69890062D01*
X91159862Y-69909410D01*
X91278597Y-69933567D01*
X91283772Y-69933757D01*
X91283774Y-69933757D01*
X91496673Y-69941564D01*
X91496677Y-69941564D01*
X91501837Y-69941753D01*
X91506957Y-69941097D01*
X91506959Y-69941097D01*
X91718288Y-69914025D01*
X91718289Y-69914025D01*
X91723416Y-69913368D01*
X91728366Y-69911883D01*
X91932429Y-69850661D01*
X91932434Y-69850659D01*
X91937384Y-69849174D01*
X92137994Y-69750896D01*
X92319860Y-69621173D01*
X92478096Y-69463489D01*
X92608453Y-69282077D01*
X92609776Y-69283028D01*
X92656645Y-69239857D01*
X92726580Y-69227625D01*
X92792026Y-69255144D01*
X92819875Y-69286994D01*
X92879987Y-69385088D01*
X93026250Y-69553938D01*
X93198126Y-69696632D01*
X93391000Y-69809338D01*
X93599692Y-69889030D01*
X93604760Y-69890061D01*
X93604763Y-69890062D01*
X93699862Y-69909410D01*
X93818597Y-69933567D01*
X93823772Y-69933757D01*
X93823774Y-69933757D01*
X94036673Y-69941564D01*
X94036677Y-69941564D01*
X94041837Y-69941753D01*
X94046957Y-69941097D01*
X94046959Y-69941097D01*
X94258288Y-69914025D01*
X94258289Y-69914025D01*
X94263416Y-69913368D01*
X94268366Y-69911883D01*
X94472429Y-69850661D01*
X94472434Y-69850659D01*
X94477384Y-69849174D01*
X94677994Y-69750896D01*
X94859860Y-69621173D01*
X95018096Y-69463489D01*
X95148453Y-69282077D01*
X95149640Y-69282930D01*
X95196960Y-69239362D01*
X95266897Y-69227145D01*
X95332338Y-69254678D01*
X95360166Y-69286511D01*
X95417694Y-69380388D01*
X95423777Y-69388699D01*
X95563213Y-69549667D01*
X95570580Y-69556883D01*
X95734434Y-69692916D01*
X95742881Y-69698831D01*
X95926756Y-69806279D01*
X95936042Y-69810729D01*
X96135001Y-69886703D01*
X96144899Y-69889579D01*
X96248250Y-69910606D01*
X96262299Y-69909410D01*
X96266000Y-69899065D01*
X96266000Y-69898517D01*
X96774000Y-69898517D01*
X96778064Y-69912359D01*
X96791478Y-69914393D01*
X96798184Y-69913534D01*
X96808262Y-69911392D01*
X97012255Y-69850191D01*
X97021842Y-69846433D01*
X97213095Y-69752739D01*
X97221945Y-69747464D01*
X97395328Y-69623792D01*
X97403200Y-69617139D01*
X97554052Y-69466812D01*
X97560730Y-69458965D01*
X97688022Y-69281819D01*
X97689279Y-69282722D01*
X97736373Y-69239362D01*
X97806311Y-69227145D01*
X97871751Y-69254678D01*
X97899579Y-69286511D01*
X97959987Y-69385088D01*
X98106250Y-69553938D01*
X98278126Y-69696632D01*
X98471000Y-69809338D01*
X98679692Y-69889030D01*
X98684760Y-69890061D01*
X98684763Y-69890062D01*
X98779862Y-69909410D01*
X98898597Y-69933567D01*
X98903772Y-69933757D01*
X98903774Y-69933757D01*
X99116673Y-69941564D01*
X99116677Y-69941564D01*
X99121837Y-69941753D01*
X99126957Y-69941097D01*
X99126959Y-69941097D01*
X99338288Y-69914025D01*
X99338289Y-69914025D01*
X99343416Y-69913368D01*
X99348366Y-69911883D01*
X99552429Y-69850661D01*
X99552434Y-69850659D01*
X99557384Y-69849174D01*
X99757994Y-69750896D01*
X99939860Y-69621173D01*
X100098096Y-69463489D01*
X100228453Y-69282077D01*
X100241995Y-69254678D01*
X100325136Y-69086453D01*
X100325137Y-69086451D01*
X100327430Y-69081811D01*
X100392370Y-68868069D01*
X100421529Y-68646590D01*
X100423156Y-68580000D01*
X100404852Y-68357361D01*
X100350431Y-68140702D01*
X100261354Y-67935840D01*
X100171438Y-67796851D01*
X100142822Y-67752617D01*
X100142820Y-67752614D01*
X100140014Y-67748277D01*
X99989670Y-67583051D01*
X99985619Y-67579852D01*
X99985615Y-67579848D01*
X99818414Y-67447800D01*
X99818410Y-67447798D01*
X99814359Y-67444598D01*
X99773053Y-67421796D01*
X99723084Y-67371364D01*
X99708312Y-67301921D01*
X99733428Y-67235516D01*
X99760780Y-67208909D01*
X99804603Y-67177650D01*
X99939860Y-67081173D01*
X100098096Y-66923489D01*
X100228453Y-66742077D01*
X100241995Y-66714678D01*
X100325136Y-66546453D01*
X100325137Y-66546451D01*
X100327430Y-66541811D01*
X100392370Y-66328069D01*
X100421529Y-66106590D01*
X100423156Y-66040000D01*
X100404852Y-65817361D01*
X100350431Y-65600702D01*
X100261354Y-65395840D01*
X100140014Y-65208277D01*
X99989670Y-65043051D01*
X99985619Y-65039852D01*
X99985615Y-65039848D01*
X99818414Y-64907800D01*
X99818410Y-64907798D01*
X99814359Y-64904598D01*
X99778028Y-64884542D01*
X99762136Y-64875769D01*
X99618789Y-64796638D01*
X99613920Y-64794914D01*
X99613916Y-64794912D01*
X99413087Y-64723795D01*
X99413083Y-64723794D01*
X99408212Y-64722069D01*
X99403119Y-64721162D01*
X99403116Y-64721161D01*
X99193373Y-64683800D01*
X99193367Y-64683799D01*
X99188284Y-64682894D01*
X99114452Y-64681992D01*
X98970081Y-64680228D01*
X98970079Y-64680228D01*
X98964911Y-64680165D01*
X98744091Y-64713955D01*
X98531756Y-64783357D01*
X98333607Y-64886507D01*
X98329474Y-64889610D01*
X98329471Y-64889612D01*
X98305247Y-64907800D01*
X98154965Y-65020635D01*
X98000629Y-65182138D01*
X97997715Y-65186410D01*
X97997714Y-65186411D01*
X97892898Y-65340066D01*
X97837987Y-65385069D01*
X97767462Y-65393240D01*
X97703715Y-65361986D01*
X97683018Y-65337502D01*
X97602426Y-65212926D01*
X97596136Y-65204757D01*
X97452806Y-65047240D01*
X97445273Y-65040215D01*
X97278139Y-64908222D01*
X97269552Y-64902517D01*
X97083117Y-64799599D01*
X97073705Y-64795369D01*
X96872959Y-64724280D01*
X96862988Y-64721646D01*
X96791837Y-64708972D01*
X96778540Y-64710432D01*
X96774000Y-64724989D01*
X96774000Y-69898517D01*
X96266000Y-69898517D01*
X96266000Y-64723102D01*
X96262082Y-64709758D01*
X96247806Y-64707771D01*
X96209324Y-64713660D01*
X96199288Y-64716051D01*
X95996868Y-64782212D01*
X95987359Y-64786209D01*
X95798463Y-64884542D01*
X95789738Y-64890036D01*
X95619433Y-65017905D01*
X95611726Y-65024748D01*
X95464590Y-65178717D01*
X95458109Y-65186722D01*
X95353498Y-65340074D01*
X95298587Y-65385076D01*
X95228062Y-65393247D01*
X95164315Y-65361993D01*
X95143618Y-65337509D01*
X95062822Y-65212617D01*
X95062820Y-65212614D01*
X95060014Y-65208277D01*
X94909670Y-65043051D01*
X94905619Y-65039852D01*
X94905615Y-65039848D01*
X94738414Y-64907800D01*
X94738410Y-64907798D01*
X94734359Y-64904598D01*
X94698028Y-64884542D01*
X94682136Y-64875769D01*
X94538789Y-64796638D01*
X94533920Y-64794914D01*
X94533916Y-64794912D01*
X94333087Y-64723795D01*
X94333083Y-64723794D01*
X94328212Y-64722069D01*
X94323119Y-64721162D01*
X94323116Y-64721161D01*
X94113373Y-64683800D01*
X94113367Y-64683799D01*
X94108284Y-64682894D01*
X94034452Y-64681992D01*
X93890081Y-64680228D01*
X93890079Y-64680228D01*
X93884911Y-64680165D01*
X93664091Y-64713955D01*
X93630333Y-64724989D01*
X93604134Y-64733552D01*
X93533170Y-64735703D01*
X93472308Y-64699147D01*
X93440872Y-64635490D01*
X93438989Y-64613787D01*
X93438989Y-62449105D01*
X93458991Y-62380984D01*
X93475894Y-62360010D01*
X93524549Y-62311355D01*
X93586861Y-62277329D01*
X93638762Y-62276979D01*
X93818597Y-62313567D01*
X93823772Y-62313757D01*
X93823774Y-62313757D01*
X94036673Y-62321564D01*
X94036677Y-62321564D01*
X94041837Y-62321753D01*
X94046957Y-62321097D01*
X94046959Y-62321097D01*
X94258288Y-62294025D01*
X94258289Y-62294025D01*
X94263416Y-62293368D01*
X94268366Y-62291883D01*
X94472429Y-62230661D01*
X94472434Y-62230659D01*
X94477384Y-62229174D01*
X94677994Y-62130896D01*
X94859860Y-62001173D01*
X94896964Y-61964199D01*
X95006043Y-61855500D01*
X95018096Y-61843489D01*
X95054043Y-61793464D01*
X95148453Y-61662077D01*
X95149640Y-61662930D01*
X95196960Y-61619362D01*
X95266897Y-61607145D01*
X95332338Y-61634678D01*
X95360166Y-61666511D01*
X95417694Y-61760388D01*
X95423777Y-61768699D01*
X95563213Y-61929667D01*
X95570580Y-61936883D01*
X95734434Y-62072916D01*
X95742881Y-62078831D01*
X95926756Y-62186279D01*
X95936042Y-62190729D01*
X96135001Y-62266703D01*
X96144899Y-62269579D01*
X96248250Y-62290606D01*
X96262299Y-62289410D01*
X96266000Y-62279065D01*
X96266000Y-62278517D01*
X96774000Y-62278517D01*
X96778064Y-62292359D01*
X96791478Y-62294393D01*
X96798184Y-62293534D01*
X96808262Y-62291392D01*
X97012255Y-62230191D01*
X97021842Y-62226433D01*
X97213095Y-62132739D01*
X97221945Y-62127464D01*
X97395328Y-62003792D01*
X97403193Y-61997145D01*
X97507897Y-61892805D01*
X97570268Y-61858889D01*
X97641075Y-61864077D01*
X97697837Y-61906723D01*
X97714819Y-61937826D01*
X97724706Y-61964199D01*
X97759385Y-62056705D01*
X97846739Y-62173261D01*
X97963295Y-62260615D01*
X98099684Y-62311745D01*
X98161866Y-62318500D01*
X99958134Y-62318500D01*
X100020316Y-62311745D01*
X100156705Y-62260615D01*
X100273261Y-62173261D01*
X100317334Y-62114454D01*
X107407269Y-62114454D01*
X107408015Y-62122346D01*
X107411430Y-62158472D01*
X107411989Y-62170330D01*
X107411989Y-67326722D01*
X107411462Y-67337905D01*
X107409787Y-67345398D01*
X107410036Y-67353324D01*
X107410036Y-67353325D01*
X107411927Y-67413475D01*
X107411989Y-67417434D01*
X107411989Y-67445345D01*
X107412486Y-67449279D01*
X107412486Y-67449280D01*
X107412494Y-67449345D01*
X107413427Y-67461182D01*
X107414816Y-67505378D01*
X107420467Y-67524828D01*
X107424476Y-67544189D01*
X107427015Y-67564286D01*
X107429934Y-67571657D01*
X107429934Y-67571659D01*
X107443293Y-67605401D01*
X107447138Y-67616631D01*
X107459471Y-67659082D01*
X107463504Y-67665901D01*
X107463506Y-67665906D01*
X107469782Y-67676517D01*
X107478477Y-67694265D01*
X107485937Y-67713106D01*
X107490599Y-67719522D01*
X107490599Y-67719523D01*
X107511925Y-67748876D01*
X107518441Y-67758796D01*
X107540947Y-67796851D01*
X107555268Y-67811172D01*
X107568108Y-67826205D01*
X107580017Y-67842596D01*
X107586123Y-67847647D01*
X107614094Y-67870787D01*
X107622873Y-67878777D01*
X107824595Y-68080499D01*
X107858621Y-68142811D01*
X107861500Y-68169594D01*
X107861500Y-69478134D01*
X107868255Y-69540316D01*
X107919385Y-69676705D01*
X108006739Y-69793261D01*
X108123295Y-69880615D01*
X108259684Y-69931745D01*
X108321866Y-69938500D01*
X110118134Y-69938500D01*
X110180316Y-69931745D01*
X110316705Y-69880615D01*
X110433261Y-69793261D01*
X110520615Y-69676705D01*
X110542799Y-69617529D01*
X110564598Y-69559382D01*
X110607240Y-69502618D01*
X110673802Y-69477918D01*
X110743150Y-69493126D01*
X110777817Y-69521114D01*
X110806250Y-69553938D01*
X110978126Y-69696632D01*
X111171000Y-69809338D01*
X111379692Y-69889030D01*
X111384760Y-69890061D01*
X111384763Y-69890062D01*
X111479862Y-69909410D01*
X111598597Y-69933567D01*
X111603772Y-69933757D01*
X111603774Y-69933757D01*
X111816673Y-69941564D01*
X111816677Y-69941564D01*
X111821837Y-69941753D01*
X111826957Y-69941097D01*
X111826959Y-69941097D01*
X112038288Y-69914025D01*
X112038289Y-69914025D01*
X112043416Y-69913368D01*
X112048366Y-69911883D01*
X112252429Y-69850661D01*
X112252434Y-69850659D01*
X112257384Y-69849174D01*
X112457994Y-69750896D01*
X112639860Y-69621173D01*
X112798096Y-69463489D01*
X112928453Y-69282077D01*
X112929776Y-69283028D01*
X112976645Y-69239857D01*
X113046580Y-69227625D01*
X113112026Y-69255144D01*
X113139875Y-69286994D01*
X113199987Y-69385088D01*
X113346250Y-69553938D01*
X113518126Y-69696632D01*
X113711000Y-69809338D01*
X113919692Y-69889030D01*
X113924760Y-69890061D01*
X113924763Y-69890062D01*
X114019862Y-69909410D01*
X114138597Y-69933567D01*
X114143772Y-69933757D01*
X114143774Y-69933757D01*
X114356673Y-69941564D01*
X114356677Y-69941564D01*
X114361837Y-69941753D01*
X114366957Y-69941097D01*
X114366959Y-69941097D01*
X114578288Y-69914025D01*
X114578289Y-69914025D01*
X114583416Y-69913368D01*
X114588366Y-69911883D01*
X114792429Y-69850661D01*
X114792434Y-69850659D01*
X114797384Y-69849174D01*
X114997994Y-69750896D01*
X115179860Y-69621173D01*
X115338096Y-69463489D01*
X115468453Y-69282077D01*
X115469776Y-69283028D01*
X115516645Y-69239857D01*
X115586580Y-69227625D01*
X115652026Y-69255144D01*
X115679875Y-69286994D01*
X115739987Y-69385088D01*
X115886250Y-69553938D01*
X116058126Y-69696632D01*
X116251000Y-69809338D01*
X116459692Y-69889030D01*
X116464760Y-69890061D01*
X116464763Y-69890062D01*
X116559862Y-69909410D01*
X116678597Y-69933567D01*
X116683772Y-69933757D01*
X116683774Y-69933757D01*
X116896673Y-69941564D01*
X116896677Y-69941564D01*
X116901837Y-69941753D01*
X116906957Y-69941097D01*
X116906959Y-69941097D01*
X117118288Y-69914025D01*
X117118289Y-69914025D01*
X117123416Y-69913368D01*
X117128366Y-69911883D01*
X117332429Y-69850661D01*
X117332434Y-69850659D01*
X117337384Y-69849174D01*
X117537994Y-69750896D01*
X117719860Y-69621173D01*
X117878096Y-69463489D01*
X118008453Y-69282077D01*
X118009640Y-69282930D01*
X118056960Y-69239362D01*
X118126897Y-69227145D01*
X118192338Y-69254678D01*
X118220166Y-69286511D01*
X118277694Y-69380388D01*
X118283777Y-69388699D01*
X118423213Y-69549667D01*
X118430580Y-69556883D01*
X118594434Y-69692916D01*
X118602881Y-69698831D01*
X118786756Y-69806279D01*
X118796042Y-69810729D01*
X118995001Y-69886703D01*
X119004899Y-69889579D01*
X119108250Y-69910606D01*
X119122299Y-69909410D01*
X119126000Y-69899065D01*
X119126000Y-69898517D01*
X119634000Y-69898517D01*
X119638064Y-69912359D01*
X119651478Y-69914393D01*
X119658184Y-69913534D01*
X119668262Y-69911392D01*
X119872255Y-69850191D01*
X119881842Y-69846433D01*
X120073095Y-69752739D01*
X120081945Y-69747464D01*
X120255328Y-69623792D01*
X120263200Y-69617139D01*
X120414052Y-69466812D01*
X120420730Y-69458965D01*
X120548022Y-69281819D01*
X120549279Y-69282722D01*
X120596373Y-69239362D01*
X120666311Y-69227145D01*
X120731751Y-69254678D01*
X120759579Y-69286511D01*
X120819987Y-69385088D01*
X120966250Y-69553938D01*
X121138126Y-69696632D01*
X121331000Y-69809338D01*
X121539692Y-69889030D01*
X121544760Y-69890061D01*
X121544763Y-69890062D01*
X121639862Y-69909410D01*
X121758597Y-69933567D01*
X121763772Y-69933757D01*
X121763774Y-69933757D01*
X121976673Y-69941564D01*
X121976677Y-69941564D01*
X121981837Y-69941753D01*
X121986957Y-69941097D01*
X121986959Y-69941097D01*
X122198288Y-69914025D01*
X122198289Y-69914025D01*
X122203416Y-69913368D01*
X122208366Y-69911883D01*
X122412429Y-69850661D01*
X122412434Y-69850659D01*
X122417384Y-69849174D01*
X122617994Y-69750896D01*
X122799860Y-69621173D01*
X122958096Y-69463489D01*
X123088453Y-69282077D01*
X123101995Y-69254678D01*
X123185136Y-69086453D01*
X123185137Y-69086451D01*
X123187430Y-69081811D01*
X123252370Y-68868069D01*
X123281529Y-68646590D01*
X123283156Y-68580000D01*
X123264852Y-68357361D01*
X123210431Y-68140702D01*
X123121354Y-67935840D01*
X123031438Y-67796851D01*
X123002822Y-67752617D01*
X123002820Y-67752614D01*
X123000014Y-67748277D01*
X122849670Y-67583051D01*
X122845619Y-67579852D01*
X122845615Y-67579848D01*
X122678414Y-67447800D01*
X122678410Y-67447798D01*
X122674359Y-67444598D01*
X122633053Y-67421796D01*
X122583084Y-67371364D01*
X122568312Y-67301921D01*
X122593428Y-67235516D01*
X122620780Y-67208909D01*
X122664603Y-67177650D01*
X122799860Y-67081173D01*
X122958096Y-66923489D01*
X123088453Y-66742077D01*
X123101995Y-66714678D01*
X123185136Y-66546453D01*
X123185137Y-66546451D01*
X123187430Y-66541811D01*
X123252370Y-66328069D01*
X123281529Y-66106590D01*
X123283156Y-66040000D01*
X123264852Y-65817361D01*
X123210431Y-65600702D01*
X123121354Y-65395840D01*
X123000014Y-65208277D01*
X122849670Y-65043051D01*
X122845619Y-65039852D01*
X122845615Y-65039848D01*
X122678414Y-64907800D01*
X122678410Y-64907798D01*
X122674359Y-64904598D01*
X122638028Y-64884542D01*
X122622136Y-64875769D01*
X122478789Y-64796638D01*
X122473920Y-64794914D01*
X122473916Y-64794912D01*
X122273087Y-64723795D01*
X122273083Y-64723794D01*
X122268212Y-64722069D01*
X122263119Y-64721162D01*
X122263116Y-64721161D01*
X122053373Y-64683800D01*
X122053367Y-64683799D01*
X122048284Y-64682894D01*
X121974452Y-64681992D01*
X121830081Y-64680228D01*
X121830079Y-64680228D01*
X121824911Y-64680165D01*
X121604091Y-64713955D01*
X121391756Y-64783357D01*
X121193607Y-64886507D01*
X121189474Y-64889610D01*
X121189471Y-64889612D01*
X121165247Y-64907800D01*
X121014965Y-65020635D01*
X120860629Y-65182138D01*
X120857715Y-65186410D01*
X120857714Y-65186411D01*
X120752898Y-65340066D01*
X120697987Y-65385069D01*
X120627462Y-65393240D01*
X120563715Y-65361986D01*
X120543018Y-65337502D01*
X120462426Y-65212926D01*
X120456136Y-65204757D01*
X120312806Y-65047240D01*
X120305273Y-65040215D01*
X120138139Y-64908222D01*
X120129552Y-64902517D01*
X119943117Y-64799599D01*
X119933705Y-64795369D01*
X119732959Y-64724280D01*
X119722988Y-64721646D01*
X119651837Y-64708972D01*
X119638540Y-64710432D01*
X119634000Y-64724989D01*
X119634000Y-69898517D01*
X119126000Y-69898517D01*
X119126000Y-64723102D01*
X119122082Y-64709758D01*
X119107806Y-64707771D01*
X119069324Y-64713660D01*
X119059288Y-64716051D01*
X118856868Y-64782212D01*
X118847359Y-64786209D01*
X118658463Y-64884542D01*
X118649738Y-64890036D01*
X118479433Y-65017905D01*
X118471726Y-65024748D01*
X118324590Y-65178717D01*
X118318109Y-65186722D01*
X118213498Y-65340074D01*
X118158587Y-65385076D01*
X118088062Y-65393247D01*
X118024315Y-65361993D01*
X118003618Y-65337509D01*
X117922822Y-65212617D01*
X117922820Y-65212614D01*
X117920014Y-65208277D01*
X117769670Y-65043051D01*
X117765619Y-65039852D01*
X117765615Y-65039848D01*
X117598414Y-64907800D01*
X117598410Y-64907798D01*
X117594359Y-64904598D01*
X117558028Y-64884542D01*
X117542136Y-64875769D01*
X117398789Y-64796638D01*
X117393920Y-64794914D01*
X117393916Y-64794912D01*
X117193087Y-64723795D01*
X117193083Y-64723794D01*
X117188212Y-64722069D01*
X117183119Y-64721162D01*
X117183116Y-64721161D01*
X116973373Y-64683800D01*
X116973367Y-64683799D01*
X116968284Y-64682894D01*
X116894452Y-64681992D01*
X116750081Y-64680228D01*
X116750079Y-64680228D01*
X116744911Y-64680165D01*
X116524091Y-64713955D01*
X116490333Y-64724989D01*
X116464134Y-64733552D01*
X116393170Y-64735703D01*
X116332308Y-64699147D01*
X116300872Y-64635490D01*
X116298989Y-64613787D01*
X116298989Y-62449105D01*
X116318991Y-62380984D01*
X116335894Y-62360010D01*
X116384549Y-62311355D01*
X116446861Y-62277329D01*
X116498762Y-62276979D01*
X116678597Y-62313567D01*
X116683772Y-62313757D01*
X116683774Y-62313757D01*
X116896673Y-62321564D01*
X116896677Y-62321564D01*
X116901837Y-62321753D01*
X116906957Y-62321097D01*
X116906959Y-62321097D01*
X117118288Y-62294025D01*
X117118289Y-62294025D01*
X117123416Y-62293368D01*
X117128366Y-62291883D01*
X117332429Y-62230661D01*
X117332434Y-62230659D01*
X117337384Y-62229174D01*
X117537994Y-62130896D01*
X117719860Y-62001173D01*
X117756964Y-61964199D01*
X117866043Y-61855500D01*
X117878096Y-61843489D01*
X117914043Y-61793464D01*
X118008453Y-61662077D01*
X118009640Y-61662930D01*
X118056960Y-61619362D01*
X118126897Y-61607145D01*
X118192338Y-61634678D01*
X118220166Y-61666511D01*
X118277694Y-61760388D01*
X118283777Y-61768699D01*
X118423213Y-61929667D01*
X118430580Y-61936883D01*
X118594434Y-62072916D01*
X118602881Y-62078831D01*
X118786756Y-62186279D01*
X118796042Y-62190729D01*
X118995001Y-62266703D01*
X119004899Y-62269579D01*
X119108250Y-62290606D01*
X119122299Y-62289410D01*
X119126000Y-62279065D01*
X119126000Y-62278517D01*
X119634000Y-62278517D01*
X119638064Y-62292359D01*
X119651478Y-62294393D01*
X119658184Y-62293534D01*
X119668262Y-62291392D01*
X119872255Y-62230191D01*
X119881842Y-62226433D01*
X120073095Y-62132739D01*
X120081945Y-62127464D01*
X120255328Y-62003792D01*
X120263193Y-61997145D01*
X120367897Y-61892805D01*
X120430268Y-61858889D01*
X120501075Y-61864077D01*
X120557837Y-61906723D01*
X120574819Y-61937826D01*
X120584706Y-61964199D01*
X120619385Y-62056705D01*
X120706739Y-62173261D01*
X120823295Y-62260615D01*
X120959684Y-62311745D01*
X121021866Y-62318500D01*
X122818134Y-62318500D01*
X122880316Y-62311745D01*
X123016705Y-62260615D01*
X123133261Y-62173261D01*
X123220615Y-62056705D01*
X123271745Y-61920316D01*
X123278500Y-61858134D01*
X123278500Y-60061866D01*
X123271745Y-59999684D01*
X123220615Y-59863295D01*
X123133261Y-59746739D01*
X123016705Y-59659385D01*
X122941362Y-59631140D01*
X122898203Y-59614960D01*
X122841439Y-59572318D01*
X122816739Y-59505756D01*
X122831947Y-59436408D01*
X122853493Y-59407727D01*
X122954435Y-59307137D01*
X122958096Y-59303489D01*
X123017594Y-59220689D01*
X123085435Y-59126277D01*
X123088453Y-59122077D01*
X123101995Y-59094678D01*
X123185136Y-58926453D01*
X123185137Y-58926451D01*
X123187430Y-58921811D01*
X123252370Y-58708069D01*
X123281529Y-58486590D01*
X123283156Y-58420000D01*
X123264852Y-58197361D01*
X123210431Y-57980702D01*
X123121354Y-57775840D01*
X123000014Y-57588277D01*
X122849670Y-57423051D01*
X122845619Y-57419852D01*
X122845615Y-57419848D01*
X122678414Y-57287800D01*
X122678410Y-57287798D01*
X122674359Y-57284598D01*
X122638028Y-57264542D01*
X122579661Y-57232322D01*
X122478789Y-57176638D01*
X122473920Y-57174914D01*
X122473916Y-57174912D01*
X122273087Y-57103795D01*
X122273083Y-57103794D01*
X122268212Y-57102069D01*
X122263119Y-57101162D01*
X122263116Y-57101161D01*
X122053373Y-57063800D01*
X122053367Y-57063799D01*
X122048284Y-57062894D01*
X121974452Y-57061992D01*
X121830081Y-57060228D01*
X121830079Y-57060228D01*
X121824911Y-57060165D01*
X121604091Y-57093955D01*
X121391756Y-57163357D01*
X121313455Y-57204118D01*
X121255899Y-57234080D01*
X121193607Y-57266507D01*
X121189474Y-57269610D01*
X121189471Y-57269612D01*
X121165247Y-57287800D01*
X121014965Y-57400635D01*
X120860629Y-57562138D01*
X120753204Y-57719618D01*
X120752898Y-57720066D01*
X120697987Y-57765069D01*
X120627462Y-57773240D01*
X120563715Y-57741986D01*
X120543018Y-57717502D01*
X120462426Y-57592926D01*
X120456136Y-57584757D01*
X120312806Y-57427240D01*
X120305273Y-57420215D01*
X120138139Y-57288222D01*
X120129552Y-57282517D01*
X119943117Y-57179599D01*
X119933705Y-57175369D01*
X119732959Y-57104280D01*
X119722988Y-57101646D01*
X119651837Y-57088972D01*
X119638540Y-57090432D01*
X119634000Y-57104989D01*
X119634000Y-62278517D01*
X119126000Y-62278517D01*
X119126000Y-57103102D01*
X119122082Y-57089758D01*
X119107806Y-57087771D01*
X119069324Y-57093660D01*
X119059288Y-57096051D01*
X118856868Y-57162212D01*
X118847359Y-57166209D01*
X118658463Y-57264542D01*
X118649738Y-57270036D01*
X118479433Y-57397905D01*
X118471726Y-57404748D01*
X118324590Y-57558717D01*
X118318109Y-57566722D01*
X118213498Y-57720074D01*
X118158587Y-57765076D01*
X118088062Y-57773247D01*
X118024315Y-57741993D01*
X118003618Y-57717509D01*
X117922822Y-57592617D01*
X117922820Y-57592614D01*
X117920014Y-57588277D01*
X117769670Y-57423051D01*
X117765619Y-57419852D01*
X117765615Y-57419848D01*
X117598414Y-57287800D01*
X117598410Y-57287798D01*
X117594359Y-57284598D01*
X117558028Y-57264542D01*
X117499661Y-57232322D01*
X117398789Y-57176638D01*
X117393920Y-57174914D01*
X117393916Y-57174912D01*
X117193087Y-57103795D01*
X117193083Y-57103794D01*
X117188212Y-57102069D01*
X117183119Y-57101162D01*
X117183116Y-57101161D01*
X116973373Y-57063800D01*
X116973367Y-57063799D01*
X116968284Y-57062894D01*
X116894452Y-57061992D01*
X116750081Y-57060228D01*
X116750079Y-57060228D01*
X116744911Y-57060165D01*
X116524091Y-57093955D01*
X116311756Y-57163357D01*
X116233455Y-57204118D01*
X116175899Y-57234080D01*
X116113607Y-57266507D01*
X116109474Y-57269610D01*
X116109471Y-57269612D01*
X116085247Y-57287800D01*
X115934965Y-57400635D01*
X115780629Y-57562138D01*
X115673201Y-57719621D01*
X115618293Y-57764621D01*
X115547768Y-57772792D01*
X115484021Y-57741538D01*
X115463324Y-57717054D01*
X115382822Y-57592617D01*
X115382820Y-57592614D01*
X115380014Y-57588277D01*
X115229670Y-57423051D01*
X115225619Y-57419852D01*
X115225615Y-57419848D01*
X115058414Y-57287800D01*
X115058410Y-57287798D01*
X115054359Y-57284598D01*
X115018028Y-57264542D01*
X114959661Y-57232322D01*
X114858789Y-57176638D01*
X114853920Y-57174914D01*
X114853916Y-57174912D01*
X114653087Y-57103795D01*
X114653083Y-57103794D01*
X114648212Y-57102069D01*
X114643119Y-57101162D01*
X114643116Y-57101161D01*
X114433373Y-57063800D01*
X114433367Y-57063799D01*
X114428284Y-57062894D01*
X114354452Y-57061992D01*
X114210081Y-57060228D01*
X114210079Y-57060228D01*
X114204911Y-57060165D01*
X113984091Y-57093955D01*
X113771756Y-57163357D01*
X113693455Y-57204118D01*
X113635899Y-57234080D01*
X113573607Y-57266507D01*
X113569474Y-57269610D01*
X113569471Y-57269612D01*
X113545247Y-57287800D01*
X113394965Y-57400635D01*
X113240629Y-57562138D01*
X113133201Y-57719621D01*
X113078293Y-57764621D01*
X113007768Y-57772792D01*
X112944021Y-57741538D01*
X112923324Y-57717054D01*
X112842822Y-57592617D01*
X112842820Y-57592614D01*
X112840014Y-57588277D01*
X112689670Y-57423051D01*
X112685619Y-57419852D01*
X112685615Y-57419848D01*
X112518414Y-57287800D01*
X112518410Y-57287798D01*
X112514359Y-57284598D01*
X112478028Y-57264542D01*
X112419661Y-57232322D01*
X112318789Y-57176638D01*
X112313920Y-57174914D01*
X112313916Y-57174912D01*
X112113087Y-57103795D01*
X112113083Y-57103794D01*
X112108212Y-57102069D01*
X112103119Y-57101162D01*
X112103116Y-57101161D01*
X111893373Y-57063800D01*
X111893367Y-57063799D01*
X111888284Y-57062894D01*
X111814452Y-57061992D01*
X111670081Y-57060228D01*
X111670079Y-57060228D01*
X111664911Y-57060165D01*
X111444091Y-57093955D01*
X111231756Y-57163357D01*
X111153455Y-57204118D01*
X111095899Y-57234080D01*
X111033607Y-57266507D01*
X111029474Y-57269610D01*
X111029471Y-57269612D01*
X111005247Y-57287800D01*
X110854965Y-57400635D01*
X110700629Y-57562138D01*
X110593201Y-57719621D01*
X110538293Y-57764621D01*
X110467768Y-57772792D01*
X110404021Y-57741538D01*
X110383324Y-57717054D01*
X110302822Y-57592617D01*
X110302820Y-57592614D01*
X110300014Y-57588277D01*
X110149670Y-57423051D01*
X110145619Y-57419852D01*
X110145615Y-57419848D01*
X109978414Y-57287800D01*
X109978410Y-57287798D01*
X109974359Y-57284598D01*
X109938028Y-57264542D01*
X109879661Y-57232322D01*
X109778789Y-57176638D01*
X109773920Y-57174914D01*
X109773916Y-57174912D01*
X109573087Y-57103795D01*
X109573083Y-57103794D01*
X109568212Y-57102069D01*
X109563119Y-57101162D01*
X109563116Y-57101161D01*
X109353373Y-57063800D01*
X109353367Y-57063799D01*
X109348284Y-57062894D01*
X109274452Y-57061992D01*
X109130081Y-57060228D01*
X109130079Y-57060228D01*
X109124911Y-57060165D01*
X108904091Y-57093955D01*
X108691756Y-57163357D01*
X108613455Y-57204118D01*
X108555899Y-57234080D01*
X108493607Y-57266507D01*
X108489474Y-57269610D01*
X108489471Y-57269612D01*
X108465247Y-57287800D01*
X108314965Y-57400635D01*
X108160629Y-57562138D01*
X108034743Y-57746680D01*
X107940688Y-57949305D01*
X107880989Y-58164570D01*
X107857251Y-58386695D01*
X107857548Y-58391848D01*
X107857548Y-58391851D01*
X107863011Y-58486590D01*
X107870110Y-58609715D01*
X107871247Y-58614761D01*
X107871248Y-58614767D01*
X107891119Y-58702939D01*
X107919222Y-58827639D01*
X108003266Y-59034616D01*
X108054019Y-59117438D01*
X108117291Y-59220688D01*
X108119987Y-59225088D01*
X108266250Y-59393938D01*
X108438126Y-59536632D01*
X108499196Y-59572318D01*
X108511445Y-59579476D01*
X108560169Y-59631114D01*
X108573240Y-59700897D01*
X108546509Y-59766669D01*
X108506055Y-59800027D01*
X108493607Y-59806507D01*
X108489474Y-59809610D01*
X108489471Y-59809612D01*
X108406771Y-59871705D01*
X108314965Y-59940635D01*
X108160629Y-60102138D01*
X108034743Y-60286680D01*
X107940688Y-60489305D01*
X107880989Y-60704570D01*
X107857251Y-60926695D01*
X107870110Y-61149715D01*
X107871247Y-61154761D01*
X107871248Y-61154767D01*
X107903453Y-61297668D01*
X107898917Y-61368520D01*
X107869631Y-61414464D01*
X107653236Y-61630859D01*
X107644950Y-61638399D01*
X107638471Y-61642511D01*
X107633046Y-61648288D01*
X107591846Y-61692162D01*
X107589091Y-61695004D01*
X107569354Y-61714741D01*
X107566874Y-61717938D01*
X107559171Y-61726958D01*
X107528903Y-61759190D01*
X107525084Y-61766136D01*
X107525082Y-61766139D01*
X107519141Y-61776945D01*
X107508290Y-61793464D01*
X107495875Y-61809470D01*
X107492730Y-61816739D01*
X107492727Y-61816743D01*
X107478315Y-61850048D01*
X107473098Y-61860698D01*
X107451794Y-61899451D01*
X107449823Y-61907126D01*
X107449823Y-61907127D01*
X107446756Y-61919073D01*
X107440352Y-61937777D01*
X107432308Y-61956366D01*
X107431069Y-61964189D01*
X107431066Y-61964199D01*
X107425390Y-62000035D01*
X107422984Y-62011655D01*
X107411989Y-62054481D01*
X107411989Y-62074735D01*
X107410438Y-62094445D01*
X107407269Y-62114454D01*
X100317334Y-62114454D01*
X100360615Y-62056705D01*
X100411745Y-61920316D01*
X100418500Y-61858134D01*
X100418500Y-60061866D01*
X100411745Y-59999684D01*
X100360615Y-59863295D01*
X100273261Y-59746739D01*
X100156705Y-59659385D01*
X100081362Y-59631140D01*
X100038203Y-59614960D01*
X99981439Y-59572318D01*
X99956739Y-59505756D01*
X99971947Y-59436408D01*
X99993493Y-59407727D01*
X100094435Y-59307137D01*
X100098096Y-59303489D01*
X100157594Y-59220689D01*
X100225435Y-59126277D01*
X100228453Y-59122077D01*
X100241995Y-59094678D01*
X100325136Y-58926453D01*
X100325137Y-58926451D01*
X100327430Y-58921811D01*
X100392370Y-58708069D01*
X100421529Y-58486590D01*
X100423156Y-58420000D01*
X100404852Y-58197361D01*
X100350431Y-57980702D01*
X100261354Y-57775840D01*
X100140014Y-57588277D01*
X99989670Y-57423051D01*
X99985619Y-57419852D01*
X99985615Y-57419848D01*
X99818414Y-57287800D01*
X99818410Y-57287798D01*
X99814359Y-57284598D01*
X99778028Y-57264542D01*
X99719661Y-57232322D01*
X99618789Y-57176638D01*
X99613920Y-57174914D01*
X99613916Y-57174912D01*
X99413087Y-57103795D01*
X99413083Y-57103794D01*
X99408212Y-57102069D01*
X99403119Y-57101162D01*
X99403116Y-57101161D01*
X99193373Y-57063800D01*
X99193367Y-57063799D01*
X99188284Y-57062894D01*
X99114452Y-57061992D01*
X98970081Y-57060228D01*
X98970079Y-57060228D01*
X98964911Y-57060165D01*
X98744091Y-57093955D01*
X98531756Y-57163357D01*
X98453455Y-57204118D01*
X98395899Y-57234080D01*
X98333607Y-57266507D01*
X98329474Y-57269610D01*
X98329471Y-57269612D01*
X98305247Y-57287800D01*
X98154965Y-57400635D01*
X98000629Y-57562138D01*
X97893204Y-57719618D01*
X97892898Y-57720066D01*
X97837987Y-57765069D01*
X97767462Y-57773240D01*
X97703715Y-57741986D01*
X97683018Y-57717502D01*
X97602426Y-57592926D01*
X97596136Y-57584757D01*
X97452806Y-57427240D01*
X97445273Y-57420215D01*
X97278139Y-57288222D01*
X97269552Y-57282517D01*
X97083117Y-57179599D01*
X97073705Y-57175369D01*
X96872959Y-57104280D01*
X96862988Y-57101646D01*
X96791837Y-57088972D01*
X96778540Y-57090432D01*
X96774000Y-57104989D01*
X96774000Y-62278517D01*
X96266000Y-62278517D01*
X96266000Y-57103102D01*
X96262082Y-57089758D01*
X96247806Y-57087771D01*
X96209324Y-57093660D01*
X96199288Y-57096051D01*
X95996868Y-57162212D01*
X95987359Y-57166209D01*
X95798463Y-57264542D01*
X95789738Y-57270036D01*
X95619433Y-57397905D01*
X95611726Y-57404748D01*
X95464590Y-57558717D01*
X95458109Y-57566722D01*
X95353498Y-57720074D01*
X95298587Y-57765076D01*
X95228062Y-57773247D01*
X95164315Y-57741993D01*
X95143618Y-57717509D01*
X95062822Y-57592617D01*
X95062820Y-57592614D01*
X95060014Y-57588277D01*
X94909670Y-57423051D01*
X94905619Y-57419852D01*
X94905615Y-57419848D01*
X94738414Y-57287800D01*
X94738410Y-57287798D01*
X94734359Y-57284598D01*
X94698028Y-57264542D01*
X94639661Y-57232322D01*
X94538789Y-57176638D01*
X94533920Y-57174914D01*
X94533916Y-57174912D01*
X94333087Y-57103795D01*
X94333083Y-57103794D01*
X94328212Y-57102069D01*
X94323119Y-57101162D01*
X94323116Y-57101161D01*
X94113373Y-57063800D01*
X94113367Y-57063799D01*
X94108284Y-57062894D01*
X94034452Y-57061992D01*
X93890081Y-57060228D01*
X93890079Y-57060228D01*
X93884911Y-57060165D01*
X93664091Y-57093955D01*
X93451756Y-57163357D01*
X93373455Y-57204118D01*
X93315899Y-57234080D01*
X93253607Y-57266507D01*
X93249474Y-57269610D01*
X93249471Y-57269612D01*
X93225247Y-57287800D01*
X93074965Y-57400635D01*
X92920629Y-57562138D01*
X92813201Y-57719621D01*
X92758293Y-57764621D01*
X92687768Y-57772792D01*
X92624021Y-57741538D01*
X92603324Y-57717054D01*
X92522822Y-57592617D01*
X92522820Y-57592614D01*
X92520014Y-57588277D01*
X92369670Y-57423051D01*
X92365619Y-57419852D01*
X92365615Y-57419848D01*
X92198414Y-57287800D01*
X92198410Y-57287798D01*
X92194359Y-57284598D01*
X92158028Y-57264542D01*
X92099661Y-57232322D01*
X91998789Y-57176638D01*
X91993920Y-57174914D01*
X91993916Y-57174912D01*
X91793087Y-57103795D01*
X91793083Y-57103794D01*
X91788212Y-57102069D01*
X91783119Y-57101162D01*
X91783116Y-57101161D01*
X91573373Y-57063800D01*
X91573367Y-57063799D01*
X91568284Y-57062894D01*
X91494452Y-57061992D01*
X91350081Y-57060228D01*
X91350079Y-57060228D01*
X91344911Y-57060165D01*
X91124091Y-57093955D01*
X90911756Y-57163357D01*
X90833455Y-57204118D01*
X90775899Y-57234080D01*
X90713607Y-57266507D01*
X90709474Y-57269610D01*
X90709471Y-57269612D01*
X90685247Y-57287800D01*
X90534965Y-57400635D01*
X90380629Y-57562138D01*
X90273201Y-57719621D01*
X90218293Y-57764621D01*
X90147768Y-57772792D01*
X90084021Y-57741538D01*
X90063324Y-57717054D01*
X89982822Y-57592617D01*
X89982820Y-57592614D01*
X89980014Y-57588277D01*
X89829670Y-57423051D01*
X89825619Y-57419852D01*
X89825615Y-57419848D01*
X89658414Y-57287800D01*
X89658410Y-57287798D01*
X89654359Y-57284598D01*
X89618028Y-57264542D01*
X89559661Y-57232322D01*
X89458789Y-57176638D01*
X89453920Y-57174914D01*
X89453916Y-57174912D01*
X89253087Y-57103795D01*
X89253083Y-57103794D01*
X89248212Y-57102069D01*
X89243119Y-57101162D01*
X89243116Y-57101161D01*
X89033373Y-57063800D01*
X89033367Y-57063799D01*
X89028284Y-57062894D01*
X88954452Y-57061992D01*
X88810081Y-57060228D01*
X88810079Y-57060228D01*
X88804911Y-57060165D01*
X88584091Y-57093955D01*
X88371756Y-57163357D01*
X88293455Y-57204118D01*
X88235899Y-57234080D01*
X88173607Y-57266507D01*
X88169474Y-57269610D01*
X88169471Y-57269612D01*
X88145247Y-57287800D01*
X87994965Y-57400635D01*
X87840629Y-57562138D01*
X87733201Y-57719621D01*
X87678293Y-57764621D01*
X87607768Y-57772792D01*
X87544021Y-57741538D01*
X87523324Y-57717054D01*
X87442822Y-57592617D01*
X87442820Y-57592614D01*
X87440014Y-57588277D01*
X87289670Y-57423051D01*
X87285619Y-57419852D01*
X87285615Y-57419848D01*
X87118414Y-57287800D01*
X87118410Y-57287798D01*
X87114359Y-57284598D01*
X87078028Y-57264542D01*
X87019661Y-57232322D01*
X86918789Y-57176638D01*
X86913920Y-57174914D01*
X86913916Y-57174912D01*
X86713087Y-57103795D01*
X86713083Y-57103794D01*
X86708212Y-57102069D01*
X86703119Y-57101162D01*
X86703116Y-57101161D01*
X86493373Y-57063800D01*
X86493367Y-57063799D01*
X86488284Y-57062894D01*
X86414452Y-57061992D01*
X86270081Y-57060228D01*
X86270079Y-57060228D01*
X86264911Y-57060165D01*
X86044091Y-57093955D01*
X85831756Y-57163357D01*
X85753455Y-57204118D01*
X85695899Y-57234080D01*
X85633607Y-57266507D01*
X85629474Y-57269610D01*
X85629471Y-57269612D01*
X85605247Y-57287800D01*
X85454965Y-57400635D01*
X85300629Y-57562138D01*
X85174743Y-57746680D01*
X85080688Y-57949305D01*
X85020989Y-58164570D01*
X84997251Y-58386695D01*
X84997548Y-58391848D01*
X84997548Y-58391851D01*
X85003011Y-58486590D01*
X85010110Y-58609715D01*
X85011247Y-58614761D01*
X85011248Y-58614767D01*
X85031119Y-58702939D01*
X85059222Y-58827639D01*
X85143266Y-59034616D01*
X85194019Y-59117438D01*
X85257291Y-59220688D01*
X85259987Y-59225088D01*
X85406250Y-59393938D01*
X85578126Y-59536632D01*
X85639196Y-59572318D01*
X85651445Y-59579476D01*
X85700169Y-59631114D01*
X85713240Y-59700897D01*
X85686509Y-59766669D01*
X85646055Y-59800027D01*
X85633607Y-59806507D01*
X85629474Y-59809610D01*
X85629471Y-59809612D01*
X85546771Y-59871705D01*
X85454965Y-59940635D01*
X85300629Y-60102138D01*
X85174743Y-60286680D01*
X85080688Y-60489305D01*
X85020989Y-60704570D01*
X84997251Y-60926695D01*
X85010110Y-61149715D01*
X85011247Y-61154761D01*
X85011248Y-61154767D01*
X85043453Y-61297668D01*
X85038917Y-61368520D01*
X85009631Y-61414464D01*
X84793236Y-61630859D01*
X84784950Y-61638399D01*
X84778471Y-61642511D01*
X84773046Y-61648288D01*
X84731846Y-61692162D01*
X84729091Y-61695004D01*
X84709354Y-61714741D01*
X84706874Y-61717938D01*
X84699171Y-61726958D01*
X84668903Y-61759190D01*
X84665084Y-61766136D01*
X84665082Y-61766139D01*
X84659141Y-61776945D01*
X84648290Y-61793464D01*
X84635875Y-61809470D01*
X84632730Y-61816739D01*
X84632727Y-61816743D01*
X84618315Y-61850048D01*
X84613098Y-61860698D01*
X84591794Y-61899451D01*
X84589823Y-61907126D01*
X84589823Y-61907127D01*
X84586756Y-61919073D01*
X84580352Y-61937777D01*
X84572308Y-61956366D01*
X84571069Y-61964189D01*
X84571066Y-61964199D01*
X84565390Y-62000035D01*
X84562984Y-62011655D01*
X84551989Y-62054481D01*
X84551989Y-62074735D01*
X84550438Y-62094445D01*
X84547269Y-62114454D01*
X77457334Y-62114454D01*
X77500615Y-62056705D01*
X77551745Y-61920316D01*
X77558500Y-61858134D01*
X77558500Y-60061866D01*
X77551745Y-59999684D01*
X77500615Y-59863295D01*
X77413261Y-59746739D01*
X77296705Y-59659385D01*
X77221362Y-59631140D01*
X77178203Y-59614960D01*
X77121439Y-59572318D01*
X77096739Y-59505756D01*
X77111947Y-59436408D01*
X77133493Y-59407727D01*
X77234435Y-59307137D01*
X77238096Y-59303489D01*
X77297594Y-59220689D01*
X77365435Y-59126277D01*
X77368453Y-59122077D01*
X77381995Y-59094678D01*
X77465136Y-58926453D01*
X77465137Y-58926451D01*
X77467430Y-58921811D01*
X77532370Y-58708069D01*
X77561529Y-58486590D01*
X77563156Y-58420000D01*
X77544852Y-58197361D01*
X77490431Y-57980702D01*
X77401354Y-57775840D01*
X77280014Y-57588277D01*
X77129670Y-57423051D01*
X77125619Y-57419852D01*
X77125615Y-57419848D01*
X76958414Y-57287800D01*
X76958410Y-57287798D01*
X76954359Y-57284598D01*
X76918028Y-57264542D01*
X76859661Y-57232322D01*
X76758789Y-57176638D01*
X76753920Y-57174914D01*
X76753916Y-57174912D01*
X76553087Y-57103795D01*
X76553083Y-57103794D01*
X76548212Y-57102069D01*
X76543119Y-57101162D01*
X76543116Y-57101161D01*
X76333373Y-57063800D01*
X76333367Y-57063799D01*
X76328284Y-57062894D01*
X76254452Y-57061992D01*
X76110081Y-57060228D01*
X76110079Y-57060228D01*
X76104911Y-57060165D01*
X75884091Y-57093955D01*
X75671756Y-57163357D01*
X75593455Y-57204118D01*
X75535899Y-57234080D01*
X75473607Y-57266507D01*
X75469474Y-57269610D01*
X75469471Y-57269612D01*
X75445247Y-57287800D01*
X75294965Y-57400635D01*
X75140629Y-57562138D01*
X75033204Y-57719618D01*
X75032898Y-57720066D01*
X74977987Y-57765069D01*
X74907462Y-57773240D01*
X74843715Y-57741986D01*
X74823018Y-57717502D01*
X74742426Y-57592926D01*
X74736136Y-57584757D01*
X74592806Y-57427240D01*
X74585273Y-57420215D01*
X74418139Y-57288222D01*
X74409552Y-57282517D01*
X74223117Y-57179599D01*
X74213705Y-57175369D01*
X74012959Y-57104280D01*
X74002988Y-57101646D01*
X73931837Y-57088972D01*
X73918540Y-57090432D01*
X73914000Y-57104989D01*
X73914000Y-62278517D01*
X73406000Y-62278517D01*
X73406000Y-57103102D01*
X73402082Y-57089758D01*
X73387806Y-57087771D01*
X73349324Y-57093660D01*
X73339288Y-57096051D01*
X73136868Y-57162212D01*
X73127359Y-57166209D01*
X72938463Y-57264542D01*
X72929738Y-57270036D01*
X72759433Y-57397905D01*
X72751726Y-57404748D01*
X72604590Y-57558717D01*
X72598109Y-57566722D01*
X72493498Y-57720074D01*
X72438587Y-57765076D01*
X72368062Y-57773247D01*
X72304315Y-57741993D01*
X72283618Y-57717509D01*
X72202822Y-57592617D01*
X72202820Y-57592614D01*
X72200014Y-57588277D01*
X72049670Y-57423051D01*
X72045619Y-57419852D01*
X72045615Y-57419848D01*
X71878414Y-57287800D01*
X71878410Y-57287798D01*
X71874359Y-57284598D01*
X71838028Y-57264542D01*
X71779661Y-57232322D01*
X71678789Y-57176638D01*
X71673920Y-57174914D01*
X71673916Y-57174912D01*
X71473087Y-57103795D01*
X71473083Y-57103794D01*
X71468212Y-57102069D01*
X71463119Y-57101162D01*
X71463116Y-57101161D01*
X71253373Y-57063800D01*
X71253367Y-57063799D01*
X71248284Y-57062894D01*
X71174452Y-57061992D01*
X71030081Y-57060228D01*
X71030079Y-57060228D01*
X71024911Y-57060165D01*
X70804091Y-57093955D01*
X70591756Y-57163357D01*
X70513455Y-57204118D01*
X70455899Y-57234080D01*
X70393607Y-57266507D01*
X70389474Y-57269610D01*
X70389471Y-57269612D01*
X70365247Y-57287800D01*
X70214965Y-57400635D01*
X70060629Y-57562138D01*
X69953201Y-57719621D01*
X69898293Y-57764621D01*
X69827768Y-57772792D01*
X69764021Y-57741538D01*
X69743324Y-57717054D01*
X69662822Y-57592617D01*
X69662820Y-57592614D01*
X69660014Y-57588277D01*
X69509670Y-57423051D01*
X69505619Y-57419852D01*
X69505615Y-57419848D01*
X69338414Y-57287800D01*
X69338410Y-57287798D01*
X69334359Y-57284598D01*
X69298028Y-57264542D01*
X69239661Y-57232322D01*
X69138789Y-57176638D01*
X69133920Y-57174914D01*
X69133916Y-57174912D01*
X68933087Y-57103795D01*
X68933083Y-57103794D01*
X68928212Y-57102069D01*
X68923119Y-57101162D01*
X68923116Y-57101161D01*
X68713373Y-57063800D01*
X68713367Y-57063799D01*
X68708284Y-57062894D01*
X68634452Y-57061992D01*
X68490081Y-57060228D01*
X68490079Y-57060228D01*
X68484911Y-57060165D01*
X68264091Y-57093955D01*
X68051756Y-57163357D01*
X67973455Y-57204118D01*
X67915899Y-57234080D01*
X67853607Y-57266507D01*
X67849474Y-57269610D01*
X67849471Y-57269612D01*
X67825247Y-57287800D01*
X67674965Y-57400635D01*
X67520629Y-57562138D01*
X67413201Y-57719621D01*
X67358293Y-57764621D01*
X67287768Y-57772792D01*
X67224021Y-57741538D01*
X67203324Y-57717054D01*
X67122822Y-57592617D01*
X67122820Y-57592614D01*
X67120014Y-57588277D01*
X66969670Y-57423051D01*
X66965619Y-57419852D01*
X66965615Y-57419848D01*
X66798414Y-57287800D01*
X66798410Y-57287798D01*
X66794359Y-57284598D01*
X66758028Y-57264542D01*
X66699661Y-57232322D01*
X66598789Y-57176638D01*
X66593920Y-57174914D01*
X66593916Y-57174912D01*
X66393087Y-57103795D01*
X66393083Y-57103794D01*
X66388212Y-57102069D01*
X66383119Y-57101162D01*
X66383116Y-57101161D01*
X66173373Y-57063800D01*
X66173367Y-57063799D01*
X66168284Y-57062894D01*
X66094452Y-57061992D01*
X65950081Y-57060228D01*
X65950079Y-57060228D01*
X65944911Y-57060165D01*
X65724091Y-57093955D01*
X65511756Y-57163357D01*
X65433455Y-57204118D01*
X65375899Y-57234080D01*
X65313607Y-57266507D01*
X65309474Y-57269610D01*
X65309471Y-57269612D01*
X65285247Y-57287800D01*
X65134965Y-57400635D01*
X64980629Y-57562138D01*
X64873201Y-57719621D01*
X64818293Y-57764621D01*
X64747768Y-57772792D01*
X64684021Y-57741538D01*
X64663324Y-57717054D01*
X64582822Y-57592617D01*
X64582820Y-57592614D01*
X64580014Y-57588277D01*
X64429670Y-57423051D01*
X64425619Y-57419852D01*
X64425615Y-57419848D01*
X64258414Y-57287800D01*
X64258410Y-57287798D01*
X64254359Y-57284598D01*
X64218028Y-57264542D01*
X64159661Y-57232322D01*
X64058789Y-57176638D01*
X64053920Y-57174914D01*
X64053916Y-57174912D01*
X63853087Y-57103795D01*
X63853083Y-57103794D01*
X63848212Y-57102069D01*
X63843119Y-57101162D01*
X63843116Y-57101161D01*
X63633373Y-57063800D01*
X63633367Y-57063799D01*
X63628284Y-57062894D01*
X63554452Y-57061992D01*
X63410081Y-57060228D01*
X63410079Y-57060228D01*
X63404911Y-57060165D01*
X63184091Y-57093955D01*
X62971756Y-57163357D01*
X62893455Y-57204118D01*
X62835899Y-57234080D01*
X62773607Y-57266507D01*
X62769474Y-57269610D01*
X62769471Y-57269612D01*
X62745247Y-57287800D01*
X62594965Y-57400635D01*
X62440629Y-57562138D01*
X62314743Y-57746680D01*
X62220688Y-57949305D01*
X62160989Y-58164570D01*
X62137251Y-58386695D01*
X62137548Y-58391848D01*
X62137548Y-58391851D01*
X62143011Y-58486590D01*
X62150110Y-58609715D01*
X62151247Y-58614761D01*
X62151248Y-58614767D01*
X62171119Y-58702939D01*
X62199222Y-58827639D01*
X62283266Y-59034616D01*
X62334019Y-59117438D01*
X62397291Y-59220688D01*
X62399987Y-59225088D01*
X62546250Y-59393938D01*
X62718126Y-59536632D01*
X62779196Y-59572318D01*
X62791445Y-59579476D01*
X62840169Y-59631114D01*
X62853240Y-59700897D01*
X62826509Y-59766669D01*
X62786055Y-59800027D01*
X62773607Y-59806507D01*
X62769474Y-59809610D01*
X62769471Y-59809612D01*
X62686771Y-59871705D01*
X62594965Y-59940635D01*
X62440629Y-60102138D01*
X62314743Y-60286680D01*
X62220688Y-60489305D01*
X62160989Y-60704570D01*
X62137251Y-60926695D01*
X62150110Y-61149715D01*
X62151247Y-61154761D01*
X62151248Y-61154767D01*
X62183453Y-61297668D01*
X62178917Y-61368520D01*
X62149631Y-61414464D01*
X61933236Y-61630859D01*
X61924950Y-61638399D01*
X61918471Y-61642511D01*
X61913046Y-61648288D01*
X61871846Y-61692162D01*
X61869091Y-61695004D01*
X61849354Y-61714741D01*
X61846874Y-61717938D01*
X61839171Y-61726958D01*
X61808903Y-61759190D01*
X61805084Y-61766136D01*
X61805082Y-61766139D01*
X61799141Y-61776945D01*
X61788290Y-61793464D01*
X61775875Y-61809470D01*
X61772730Y-61816739D01*
X61772727Y-61816743D01*
X61758315Y-61850048D01*
X61753098Y-61860698D01*
X61731794Y-61899451D01*
X61729823Y-61907126D01*
X61729823Y-61907127D01*
X61726756Y-61919073D01*
X61720352Y-61937777D01*
X61712308Y-61956366D01*
X61711069Y-61964189D01*
X61711066Y-61964199D01*
X61705390Y-62000035D01*
X61702984Y-62011655D01*
X61691989Y-62054481D01*
X61691989Y-62074735D01*
X61690438Y-62094445D01*
X61687269Y-62114454D01*
X48768500Y-62114454D01*
X48768500Y-55483017D01*
X48788502Y-55414896D01*
X48842158Y-55368403D01*
X48912432Y-55358299D01*
X48977012Y-55387793D01*
X49007213Y-55426698D01*
X49112161Y-55636731D01*
X49134231Y-55680901D01*
X49358974Y-56045502D01*
X49615239Y-56388682D01*
X49617100Y-56390760D01*
X49617101Y-56390761D01*
X49899127Y-56705637D01*
X49899133Y-56705643D01*
X49900995Y-56707722D01*
X50213981Y-57000098D01*
X50551719Y-57263493D01*
X50911533Y-57495822D01*
X50914012Y-57497126D01*
X50914015Y-57497128D01*
X51288077Y-57693932D01*
X51288083Y-57693935D01*
X51290577Y-57695247D01*
X51293175Y-57696331D01*
X51293179Y-57696333D01*
X51683263Y-57859109D01*
X51683268Y-57859111D01*
X51685847Y-57860187D01*
X51688512Y-57861030D01*
X51688518Y-57861032D01*
X51910561Y-57931254D01*
X52094214Y-57989336D01*
X52512446Y-58081673D01*
X52515220Y-58082031D01*
X52515221Y-58082031D01*
X52934460Y-58136109D01*
X52934467Y-58136110D01*
X52937230Y-58136466D01*
X52940017Y-58136576D01*
X52940023Y-58136576D01*
X53188238Y-58146328D01*
X53365203Y-58153281D01*
X53367995Y-58153142D01*
X53368000Y-58153142D01*
X53790172Y-58132125D01*
X53790181Y-58132124D01*
X53792976Y-58131985D01*
X53795753Y-58131597D01*
X53795755Y-58131597D01*
X53870066Y-58121219D01*
X54217163Y-58072747D01*
X54634404Y-57976036D01*
X54848307Y-57905915D01*
X55038744Y-57843487D01*
X55038750Y-57843485D01*
X55041397Y-57842617D01*
X55434918Y-57673547D01*
X55811852Y-57470164D01*
X56169214Y-57234080D01*
X56504175Y-56967162D01*
X56814082Y-56671525D01*
X56815919Y-56669431D01*
X56815927Y-56669422D01*
X57094635Y-56351616D01*
X57096482Y-56349510D01*
X57349139Y-56003666D01*
X57350585Y-56001265D01*
X57568601Y-55639142D01*
X57568606Y-55639133D01*
X57570052Y-55636731D01*
X57705551Y-55358299D01*
X57756238Y-55254145D01*
X57756239Y-55254142D01*
X57757471Y-55251611D01*
X57890724Y-54901741D01*
X57908918Y-54853971D01*
X57908920Y-54853964D01*
X57909914Y-54851355D01*
X58026173Y-54439132D01*
X58095433Y-54070822D01*
X58104811Y-54020954D01*
X58104813Y-54020942D01*
X58105327Y-54018207D01*
X58146750Y-53591911D01*
X58148194Y-53536780D01*
X58153289Y-53342234D01*
X58153289Y-53342220D01*
X58153347Y-53340000D01*
X58134291Y-52912121D01*
X58077275Y-52487630D01*
X58048666Y-52361193D01*
X57983368Y-52072618D01*
X57983368Y-52072617D01*
X57982750Y-52069887D01*
X57851463Y-51662202D01*
X57698635Y-51301285D01*
X57685550Y-51270384D01*
X57685548Y-51270379D01*
X57684456Y-51267801D01*
X57483050Y-50889807D01*
X57248840Y-50531214D01*
X56983680Y-50194860D01*
X56689670Y-49883409D01*
X56687579Y-49881556D01*
X56687571Y-49881548D01*
X56371237Y-49601188D01*
X56371235Y-49601186D01*
X56369137Y-49599327D01*
X56024621Y-49344863D01*
X55831733Y-49227355D01*
X55661237Y-49123487D01*
X55661230Y-49123483D01*
X55658848Y-49122032D01*
X55541514Y-49064169D01*
X55526022Y-49056529D01*
X55426612Y-49007506D01*
X55374363Y-48959438D01*
X55356396Y-48890752D01*
X55378415Y-48823256D01*
X55433430Y-48778380D01*
X55482340Y-48768500D01*
X129936422Y-48768500D01*
X130004543Y-48788502D01*
G37*
%TD.AperFunction*%
%TD*%
M02*
