%TF.GenerationSoftware,KiCad,Pcbnew,(6.0.5)*%
%TF.CreationDate,2022-05-29T15:24:28+02:00*%
%TF.ProjectId,pmod_peripheral,706d6f64-5f70-4657-9269-70686572616c,rev?*%
%TF.SameCoordinates,Original*%
%TF.FileFunction,Legend,Top*%
%TF.FilePolarity,Positive*%
%FSLAX46Y46*%
G04 Gerber Fmt 4.6, Leading zero omitted, Abs format (unit mm)*
G04 Created by KiCad (PCBNEW (6.0.5)) date 2022-05-29 15:24:28*
%MOMM*%
%LPD*%
G01*
G04 APERTURE LIST*
%ADD10C,0.120000*%
%ADD11C,0.150000*%
G04 APERTURE END LIST*
D10*
X84455000Y-71120000D02*
X100965000Y-71120000D01*
X100965000Y-71120000D02*
X100965000Y-79375000D01*
X100965000Y-79375000D02*
X84455000Y-79375000D01*
X84455000Y-79375000D02*
X84455000Y-71120000D01*
X61595000Y-71120000D02*
X78105000Y-71120000D01*
X78105000Y-71120000D02*
X78105000Y-79375000D01*
X78105000Y-79375000D02*
X61595000Y-79375000D01*
X61595000Y-79375000D02*
X61595000Y-71120000D01*
X106680000Y-71120000D02*
X123825000Y-71120000D01*
X123825000Y-71120000D02*
X123825000Y-79375000D01*
X123825000Y-79375000D02*
X106680000Y-79375000D01*
X106680000Y-79375000D02*
X106680000Y-71120000D01*
D11*
X109672380Y-77739761D02*
X108672380Y-77739761D01*
X109672380Y-77263571D02*
X108672380Y-77263571D01*
X109672380Y-76692142D01*
X108672380Y-76692142D01*
X108672380Y-76358809D02*
X108672380Y-75787380D01*
X109672380Y-76073095D02*
X108672380Y-76073095D01*
X97028095Y-88400000D02*
X96932857Y-88352380D01*
X96790000Y-88352380D01*
X96647142Y-88400000D01*
X96551904Y-88495238D01*
X96504285Y-88590476D01*
X96456666Y-88780952D01*
X96456666Y-88923809D01*
X96504285Y-89114285D01*
X96551904Y-89209523D01*
X96647142Y-89304761D01*
X96790000Y-89352380D01*
X96885238Y-89352380D01*
X97028095Y-89304761D01*
X97075714Y-89257142D01*
X97075714Y-88923809D01*
X96885238Y-88923809D01*
X97504285Y-89352380D02*
X97504285Y-88352380D01*
X98075714Y-89352380D01*
X98075714Y-88352380D01*
X98551904Y-89352380D02*
X98551904Y-88352380D01*
X98790000Y-88352380D01*
X98932857Y-88400000D01*
X99028095Y-88495238D01*
X99075714Y-88590476D01*
X99123333Y-88780952D01*
X99123333Y-88923809D01*
X99075714Y-89114285D01*
X99028095Y-89209523D01*
X98932857Y-89304761D01*
X98790000Y-89352380D01*
X98551904Y-89352380D01*
X63952380Y-73929761D02*
X62952380Y-73929761D01*
X63952380Y-73453571D02*
X62952380Y-73453571D01*
X63952380Y-72882142D01*
X62952380Y-72882142D01*
X62952380Y-72548809D02*
X62952380Y-71977380D01*
X63952380Y-72263095D02*
X62952380Y-72263095D01*
X73160000Y-73786904D02*
X73112380Y-73882142D01*
X73112380Y-74025000D01*
X73160000Y-74167857D01*
X73255238Y-74263095D01*
X73350476Y-74310714D01*
X73540952Y-74358333D01*
X73683809Y-74358333D01*
X73874285Y-74310714D01*
X73969523Y-74263095D01*
X74064761Y-74167857D01*
X74112380Y-74025000D01*
X74112380Y-73929761D01*
X74064761Y-73786904D01*
X74017142Y-73739285D01*
X73683809Y-73739285D01*
X73683809Y-73929761D01*
X74112380Y-73310714D02*
X73112380Y-73310714D01*
X74112380Y-72739285D01*
X73112380Y-72739285D01*
X74112380Y-72263095D02*
X73112380Y-72263095D01*
X73112380Y-72025000D01*
X73160000Y-71882142D01*
X73255238Y-71786904D01*
X73350476Y-71739285D01*
X73540952Y-71691666D01*
X73683809Y-71691666D01*
X73874285Y-71739285D01*
X73969523Y-71786904D01*
X74064761Y-71882142D01*
X74112380Y-72025000D01*
X74112380Y-72263095D01*
X96020000Y-77596904D02*
X95972380Y-77692142D01*
X95972380Y-77835000D01*
X96020000Y-77977857D01*
X96115238Y-78073095D01*
X96210476Y-78120714D01*
X96400952Y-78168333D01*
X96543809Y-78168333D01*
X96734285Y-78120714D01*
X96829523Y-78073095D01*
X96924761Y-77977857D01*
X96972380Y-77835000D01*
X96972380Y-77739761D01*
X96924761Y-77596904D01*
X96877142Y-77549285D01*
X96543809Y-77549285D01*
X96543809Y-77739761D01*
X96972380Y-77120714D02*
X95972380Y-77120714D01*
X96972380Y-76549285D01*
X95972380Y-76549285D01*
X96972380Y-76073095D02*
X95972380Y-76073095D01*
X95972380Y-75835000D01*
X96020000Y-75692142D01*
X96115238Y-75596904D01*
X96210476Y-75549285D01*
X96400952Y-75501666D01*
X96543809Y-75501666D01*
X96734285Y-75549285D01*
X96829523Y-75596904D01*
X96924761Y-75692142D01*
X96972380Y-75835000D01*
X96972380Y-76073095D01*
X88352380Y-78096904D02*
X88352380Y-77525476D01*
X89352380Y-77811190D02*
X88352380Y-77811190D01*
X88352380Y-77287380D02*
X89352380Y-76620714D01*
X88352380Y-76620714D02*
X89352380Y-77287380D01*
X89352380Y-76239761D02*
X88352380Y-76239761D01*
X88352380Y-76001666D01*
X88400000Y-75858809D01*
X88495238Y-75763571D01*
X88590476Y-75715952D01*
X88780952Y-75668333D01*
X88923809Y-75668333D01*
X89114285Y-75715952D01*
X89209523Y-75763571D01*
X89304761Y-75858809D01*
X89352380Y-76001666D01*
X89352380Y-76239761D01*
X94432380Y-77382619D02*
X93956190Y-77715952D01*
X94432380Y-77954047D02*
X93432380Y-77954047D01*
X93432380Y-77573095D01*
X93480000Y-77477857D01*
X93527619Y-77430238D01*
X93622857Y-77382619D01*
X93765714Y-77382619D01*
X93860952Y-77430238D01*
X93908571Y-77477857D01*
X93956190Y-77573095D01*
X93956190Y-77954047D01*
X93432380Y-77096904D02*
X93432380Y-76525476D01*
X94432380Y-76811190D02*
X93432380Y-76811190D01*
X94384761Y-76239761D02*
X94432380Y-76096904D01*
X94432380Y-75858809D01*
X94384761Y-75763571D01*
X94337142Y-75715952D01*
X94241904Y-75668333D01*
X94146666Y-75668333D01*
X94051428Y-75715952D01*
X94003809Y-75763571D01*
X93956190Y-75858809D01*
X93908571Y-76049285D01*
X93860952Y-76144523D01*
X93813333Y-76192142D01*
X93718095Y-76239761D01*
X93622857Y-76239761D01*
X93527619Y-76192142D01*
X93480000Y-76144523D01*
X93432380Y-76049285D01*
X93432380Y-75811190D01*
X93480000Y-75668333D01*
X121372380Y-78168333D02*
X122372380Y-77835000D01*
X121372380Y-77501666D01*
X122277142Y-76596904D02*
X122324761Y-76644523D01*
X122372380Y-76787380D01*
X122372380Y-76882619D01*
X122324761Y-77025476D01*
X122229523Y-77120714D01*
X122134285Y-77168333D01*
X121943809Y-77215952D01*
X121800952Y-77215952D01*
X121610476Y-77168333D01*
X121515238Y-77120714D01*
X121420000Y-77025476D01*
X121372380Y-76882619D01*
X121372380Y-76787380D01*
X121420000Y-76644523D01*
X121467619Y-76596904D01*
X122277142Y-75596904D02*
X122324761Y-75644523D01*
X122372380Y-75787380D01*
X122372380Y-75882619D01*
X122324761Y-76025476D01*
X122229523Y-76120714D01*
X122134285Y-76168333D01*
X121943809Y-76215952D01*
X121800952Y-76215952D01*
X121610476Y-76168333D01*
X121515238Y-76120714D01*
X121420000Y-76025476D01*
X121372380Y-75882619D01*
X121372380Y-75787380D01*
X121420000Y-75644523D01*
X121467619Y-75596904D01*
X109672380Y-74025000D02*
X108672380Y-74025000D01*
X108672380Y-73358333D02*
X108672380Y-73167857D01*
X108720000Y-73072619D01*
X108815238Y-72977380D01*
X109005714Y-72929761D01*
X109339047Y-72929761D01*
X109529523Y-72977380D01*
X109624761Y-73072619D01*
X109672380Y-73167857D01*
X109672380Y-73358333D01*
X109624761Y-73453571D01*
X109529523Y-73548809D01*
X109339047Y-73596428D01*
X109005714Y-73596428D01*
X108815238Y-73548809D01*
X108720000Y-73453571D01*
X108672380Y-73358333D01*
X109672380Y-71977380D02*
X109672380Y-72548809D01*
X109672380Y-72263095D02*
X108672380Y-72263095D01*
X108815238Y-72358333D01*
X108910476Y-72453571D01*
X108958095Y-72548809D01*
X86717142Y-77382619D02*
X86764761Y-77430238D01*
X86812380Y-77573095D01*
X86812380Y-77668333D01*
X86764761Y-77811190D01*
X86669523Y-77906428D01*
X86574285Y-77954047D01*
X86383809Y-78001666D01*
X86240952Y-78001666D01*
X86050476Y-77954047D01*
X85955238Y-77906428D01*
X85860000Y-77811190D01*
X85812380Y-77668333D01*
X85812380Y-77573095D01*
X85860000Y-77430238D01*
X85907619Y-77382619D01*
X85812380Y-77096904D02*
X85812380Y-76525476D01*
X86812380Y-76811190D02*
X85812380Y-76811190D01*
X86764761Y-76239761D02*
X86812380Y-76096904D01*
X86812380Y-75858809D01*
X86764761Y-75763571D01*
X86717142Y-75715952D01*
X86621904Y-75668333D01*
X86526666Y-75668333D01*
X86431428Y-75715952D01*
X86383809Y-75763571D01*
X86336190Y-75858809D01*
X86288571Y-76049285D01*
X86240952Y-76144523D01*
X86193333Y-76192142D01*
X86098095Y-76239761D01*
X86002857Y-76239761D01*
X85907619Y-76192142D01*
X85860000Y-76144523D01*
X85812380Y-76049285D01*
X85812380Y-75811190D01*
X85860000Y-75668333D01*
X51377380Y-76969047D02*
X50377380Y-76969047D01*
X50377380Y-76588095D01*
X50425000Y-76492857D01*
X50472619Y-76445238D01*
X50567857Y-76397619D01*
X50710714Y-76397619D01*
X50805952Y-76445238D01*
X50853571Y-76492857D01*
X50901190Y-76588095D01*
X50901190Y-76969047D01*
X51377380Y-75969047D02*
X50377380Y-75969047D01*
X51091666Y-75635714D01*
X50377380Y-75302380D01*
X51377380Y-75302380D01*
X50377380Y-74635714D02*
X50377380Y-74445238D01*
X50425000Y-74350000D01*
X50520238Y-74254761D01*
X50710714Y-74207142D01*
X51044047Y-74207142D01*
X51234523Y-74254761D01*
X51329761Y-74350000D01*
X51377380Y-74445238D01*
X51377380Y-74635714D01*
X51329761Y-74730952D01*
X51234523Y-74826190D01*
X51044047Y-74873809D01*
X50710714Y-74873809D01*
X50520238Y-74826190D01*
X50425000Y-74730952D01*
X50377380Y-74635714D01*
X51377380Y-73778571D02*
X50377380Y-73778571D01*
X50377380Y-73540476D01*
X50425000Y-73397619D01*
X50520238Y-73302380D01*
X50615476Y-73254761D01*
X50805952Y-73207142D01*
X50948809Y-73207142D01*
X51139285Y-73254761D01*
X51234523Y-73302380D01*
X51329761Y-73397619D01*
X51377380Y-73540476D01*
X51377380Y-73778571D01*
X51377380Y-72016666D02*
X50377380Y-72016666D01*
X50377380Y-71635714D01*
X50425000Y-71540476D01*
X50472619Y-71492857D01*
X50567857Y-71445238D01*
X50710714Y-71445238D01*
X50805952Y-71492857D01*
X50853571Y-71540476D01*
X50901190Y-71635714D01*
X50901190Y-72016666D01*
X50853571Y-71016666D02*
X50853571Y-70683333D01*
X51377380Y-70540476D02*
X51377380Y-71016666D01*
X50377380Y-71016666D01*
X50377380Y-70540476D01*
X51377380Y-69540476D02*
X50901190Y-69873809D01*
X51377380Y-70111904D02*
X50377380Y-70111904D01*
X50377380Y-69730952D01*
X50425000Y-69635714D01*
X50472619Y-69588095D01*
X50567857Y-69540476D01*
X50710714Y-69540476D01*
X50805952Y-69588095D01*
X50853571Y-69635714D01*
X50901190Y-69730952D01*
X50901190Y-70111904D01*
X51377380Y-69111904D02*
X50377380Y-69111904D01*
X51377380Y-68635714D02*
X50377380Y-68635714D01*
X50377380Y-68254761D01*
X50425000Y-68159523D01*
X50472619Y-68111904D01*
X50567857Y-68064285D01*
X50710714Y-68064285D01*
X50805952Y-68111904D01*
X50853571Y-68159523D01*
X50901190Y-68254761D01*
X50901190Y-68635714D01*
X51377380Y-67635714D02*
X50377380Y-67635714D01*
X50853571Y-67635714D02*
X50853571Y-67064285D01*
X51377380Y-67064285D02*
X50377380Y-67064285D01*
X50853571Y-66588095D02*
X50853571Y-66254761D01*
X51377380Y-66111904D02*
X51377380Y-66588095D01*
X50377380Y-66588095D01*
X50377380Y-66111904D01*
X51377380Y-65111904D02*
X50901190Y-65445238D01*
X51377380Y-65683333D02*
X50377380Y-65683333D01*
X50377380Y-65302380D01*
X50425000Y-65207142D01*
X50472619Y-65159523D01*
X50567857Y-65111904D01*
X50710714Y-65111904D01*
X50805952Y-65159523D01*
X50853571Y-65207142D01*
X50901190Y-65302380D01*
X50901190Y-65683333D01*
X51091666Y-64730952D02*
X51091666Y-64254761D01*
X51377380Y-64826190D02*
X50377380Y-64492857D01*
X51377380Y-64159523D01*
X51377380Y-63350000D02*
X51377380Y-63826190D01*
X50377380Y-63826190D01*
X52463571Y-73683333D02*
X52511190Y-73540476D01*
X52558809Y-73492857D01*
X52654047Y-73445238D01*
X52796904Y-73445238D01*
X52892142Y-73492857D01*
X52939761Y-73540476D01*
X52987380Y-73635714D01*
X52987380Y-74016666D01*
X51987380Y-74016666D01*
X51987380Y-73683333D01*
X52035000Y-73588095D01*
X52082619Y-73540476D01*
X52177857Y-73492857D01*
X52273095Y-73492857D01*
X52368333Y-73540476D01*
X52415952Y-73588095D01*
X52463571Y-73683333D01*
X52463571Y-74016666D01*
X51987380Y-72826190D02*
X51987380Y-72635714D01*
X52035000Y-72540476D01*
X52130238Y-72445238D01*
X52320714Y-72397619D01*
X52654047Y-72397619D01*
X52844523Y-72445238D01*
X52939761Y-72540476D01*
X52987380Y-72635714D01*
X52987380Y-72826190D01*
X52939761Y-72921428D01*
X52844523Y-73016666D01*
X52654047Y-73064285D01*
X52320714Y-73064285D01*
X52130238Y-73016666D01*
X52035000Y-72921428D01*
X51987380Y-72826190D01*
X52701666Y-72016666D02*
X52701666Y-71540476D01*
X52987380Y-72111904D02*
X51987380Y-71778571D01*
X52987380Y-71445238D01*
X52987380Y-70540476D02*
X52511190Y-70873809D01*
X52987380Y-71111904D02*
X51987380Y-71111904D01*
X51987380Y-70730952D01*
X52035000Y-70635714D01*
X52082619Y-70588095D01*
X52177857Y-70540476D01*
X52320714Y-70540476D01*
X52415952Y-70588095D01*
X52463571Y-70635714D01*
X52511190Y-70730952D01*
X52511190Y-71111904D01*
X52987380Y-70111904D02*
X51987380Y-70111904D01*
X51987380Y-69873809D01*
X52035000Y-69730952D01*
X52130238Y-69635714D01*
X52225476Y-69588095D01*
X52415952Y-69540476D01*
X52558809Y-69540476D01*
X52749285Y-69588095D01*
X52844523Y-69635714D01*
X52939761Y-69730952D01*
X52987380Y-69873809D01*
X52987380Y-70111904D01*
X52320714Y-68445238D02*
X52987380Y-68207142D01*
X52320714Y-67969047D01*
X51987380Y-67397619D02*
X51987380Y-67302380D01*
X52035000Y-67207142D01*
X52082619Y-67159523D01*
X52177857Y-67111904D01*
X52368333Y-67064285D01*
X52606428Y-67064285D01*
X52796904Y-67111904D01*
X52892142Y-67159523D01*
X52939761Y-67207142D01*
X52987380Y-67302380D01*
X52987380Y-67397619D01*
X52939761Y-67492857D01*
X52892142Y-67540476D01*
X52796904Y-67588095D01*
X52606428Y-67635714D01*
X52368333Y-67635714D01*
X52177857Y-67588095D01*
X52082619Y-67540476D01*
X52035000Y-67492857D01*
X51987380Y-67397619D01*
X52892142Y-66635714D02*
X52939761Y-66588095D01*
X52987380Y-66635714D01*
X52939761Y-66683333D01*
X52892142Y-66635714D01*
X52987380Y-66635714D01*
X52987380Y-65635714D02*
X52987380Y-66207142D01*
X52987380Y-65921428D02*
X51987380Y-65921428D01*
X52130238Y-66016666D01*
X52225476Y-66111904D01*
X52273095Y-66207142D01*
X56207380Y-80254761D02*
X55207380Y-80254761D01*
X56207380Y-79826190D02*
X55683571Y-79826190D01*
X55588333Y-79873809D01*
X55540714Y-79969047D01*
X55540714Y-80111904D01*
X55588333Y-80207142D01*
X55635952Y-80254761D01*
X55540714Y-79492857D02*
X55540714Y-79111904D01*
X55207380Y-79350000D02*
X56064523Y-79350000D01*
X56159761Y-79302380D01*
X56207380Y-79207142D01*
X56207380Y-79111904D01*
X55540714Y-78921428D02*
X55540714Y-78540476D01*
X55207380Y-78778571D02*
X56064523Y-78778571D01*
X56159761Y-78730952D01*
X56207380Y-78635714D01*
X56207380Y-78540476D01*
X55540714Y-78207142D02*
X56540714Y-78207142D01*
X55588333Y-78207142D02*
X55540714Y-78111904D01*
X55540714Y-77921428D01*
X55588333Y-77826190D01*
X55635952Y-77778571D01*
X55731190Y-77730952D01*
X56016904Y-77730952D01*
X56112142Y-77778571D01*
X56159761Y-77826190D01*
X56207380Y-77921428D01*
X56207380Y-78111904D01*
X56159761Y-78207142D01*
X56159761Y-77350000D02*
X56207380Y-77254761D01*
X56207380Y-77064285D01*
X56159761Y-76969047D01*
X56064523Y-76921428D01*
X56016904Y-76921428D01*
X55921666Y-76969047D01*
X55874047Y-77064285D01*
X55874047Y-77207142D01*
X55826428Y-77302380D01*
X55731190Y-77350000D01*
X55683571Y-77350000D01*
X55588333Y-77302380D01*
X55540714Y-77207142D01*
X55540714Y-77064285D01*
X55588333Y-76969047D01*
X56112142Y-76492857D02*
X56159761Y-76445238D01*
X56207380Y-76492857D01*
X56159761Y-76540476D01*
X56112142Y-76492857D01*
X56207380Y-76492857D01*
X55588333Y-76492857D02*
X55635952Y-76445238D01*
X55683571Y-76492857D01*
X55635952Y-76540476D01*
X55588333Y-76492857D01*
X55683571Y-76492857D01*
X55159761Y-75302380D02*
X56445476Y-76159523D01*
X55159761Y-74254761D02*
X56445476Y-75111904D01*
X55540714Y-74016666D02*
X56207380Y-73826190D01*
X55731190Y-73635714D01*
X56207380Y-73445238D01*
X55540714Y-73254761D01*
X55540714Y-72969047D02*
X56207380Y-72778571D01*
X55731190Y-72588095D01*
X56207380Y-72397619D01*
X55540714Y-72207142D01*
X55540714Y-71921428D02*
X56207380Y-71730952D01*
X55731190Y-71540476D01*
X56207380Y-71350000D01*
X55540714Y-71159523D01*
X56112142Y-70778571D02*
X56159761Y-70730952D01*
X56207380Y-70778571D01*
X56159761Y-70826190D01*
X56112142Y-70778571D01*
X56207380Y-70778571D01*
X56207380Y-70302380D02*
X55207380Y-70302380D01*
X55588333Y-70302380D02*
X55540714Y-70207142D01*
X55540714Y-70016666D01*
X55588333Y-69921428D01*
X55635952Y-69873809D01*
X55731190Y-69826190D01*
X56016904Y-69826190D01*
X56112142Y-69873809D01*
X56159761Y-69921428D01*
X56207380Y-70016666D01*
X56207380Y-70207142D01*
X56159761Y-70302380D01*
X56207380Y-69254761D02*
X56159761Y-69350000D01*
X56064523Y-69397619D01*
X55207380Y-69397619D01*
X56207380Y-68445238D02*
X55683571Y-68445238D01*
X55588333Y-68492857D01*
X55540714Y-68588095D01*
X55540714Y-68778571D01*
X55588333Y-68873809D01*
X56159761Y-68445238D02*
X56207380Y-68540476D01*
X56207380Y-68778571D01*
X56159761Y-68873809D01*
X56064523Y-68921428D01*
X55969285Y-68921428D01*
X55874047Y-68873809D01*
X55826428Y-68778571D01*
X55826428Y-68540476D01*
X55778809Y-68445238D01*
X56207380Y-67540476D02*
X55683571Y-67540476D01*
X55588333Y-67588095D01*
X55540714Y-67683333D01*
X55540714Y-67873809D01*
X55588333Y-67969047D01*
X56159761Y-67540476D02*
X56207380Y-67635714D01*
X56207380Y-67873809D01*
X56159761Y-67969047D01*
X56064523Y-68016666D01*
X55969285Y-68016666D01*
X55874047Y-67969047D01*
X55826428Y-67873809D01*
X55826428Y-67635714D01*
X55778809Y-67540476D01*
X55540714Y-67207142D02*
X55540714Y-66826190D01*
X55207380Y-67064285D02*
X56064523Y-67064285D01*
X56159761Y-67016666D01*
X56207380Y-66921428D01*
X56207380Y-66826190D01*
X56159761Y-66540476D02*
X56207380Y-66445238D01*
X56207380Y-66254761D01*
X56159761Y-66159523D01*
X56064523Y-66111904D01*
X56016904Y-66111904D01*
X55921666Y-66159523D01*
X55874047Y-66254761D01*
X55874047Y-66397619D01*
X55826428Y-66492857D01*
X55731190Y-66540476D01*
X55683571Y-66540476D01*
X55588333Y-66492857D01*
X55540714Y-66397619D01*
X55540714Y-66254761D01*
X55588333Y-66159523D01*
X56159761Y-65254761D02*
X56207380Y-65350000D01*
X56207380Y-65540476D01*
X56159761Y-65635714D01*
X56112142Y-65683333D01*
X56016904Y-65730952D01*
X55731190Y-65730952D01*
X55635952Y-65683333D01*
X55588333Y-65635714D01*
X55540714Y-65540476D01*
X55540714Y-65350000D01*
X55588333Y-65254761D01*
X56207380Y-64826190D02*
X55207380Y-64826190D01*
X56207380Y-64397619D02*
X55683571Y-64397619D01*
X55588333Y-64445238D01*
X55540714Y-64540476D01*
X55540714Y-64683333D01*
X55588333Y-64778571D01*
X55635952Y-64826190D01*
X56207380Y-63492857D02*
X55683571Y-63492857D01*
X55588333Y-63540476D01*
X55540714Y-63635714D01*
X55540714Y-63826190D01*
X55588333Y-63921428D01*
X56159761Y-63492857D02*
X56207380Y-63588095D01*
X56207380Y-63826190D01*
X56159761Y-63921428D01*
X56064523Y-63969047D01*
X55969285Y-63969047D01*
X55874047Y-63921428D01*
X55826428Y-63826190D01*
X55826428Y-63588095D01*
X55778809Y-63492857D01*
X56207380Y-62588095D02*
X55683571Y-62588095D01*
X55588333Y-62635714D01*
X55540714Y-62730952D01*
X55540714Y-62921428D01*
X55588333Y-63016666D01*
X56159761Y-62588095D02*
X56207380Y-62683333D01*
X56207380Y-62921428D01*
X56159761Y-63016666D01*
X56064523Y-63064285D01*
X55969285Y-63064285D01*
X55874047Y-63016666D01*
X55826428Y-62921428D01*
X55826428Y-62683333D01*
X55778809Y-62588095D01*
X55540714Y-62111904D02*
X56540714Y-62111904D01*
X55588333Y-62111904D02*
X55540714Y-62016666D01*
X55540714Y-61826190D01*
X55588333Y-61730952D01*
X55635952Y-61683333D01*
X55731190Y-61635714D01*
X56016904Y-61635714D01*
X56112142Y-61683333D01*
X56159761Y-61730952D01*
X56207380Y-61826190D01*
X56207380Y-62016666D01*
X56159761Y-62111904D01*
X56112142Y-61207142D02*
X56159761Y-61159523D01*
X56207380Y-61207142D01*
X56159761Y-61254761D01*
X56112142Y-61207142D01*
X56207380Y-61207142D01*
X56207380Y-60730952D02*
X55207380Y-60730952D01*
X55588333Y-60730952D02*
X55540714Y-60635714D01*
X55540714Y-60445238D01*
X55588333Y-60350000D01*
X55635952Y-60302380D01*
X55731190Y-60254761D01*
X56016904Y-60254761D01*
X56112142Y-60302380D01*
X56159761Y-60350000D01*
X56207380Y-60445238D01*
X56207380Y-60635714D01*
X56159761Y-60730952D01*
X56159761Y-59445238D02*
X56207380Y-59540476D01*
X56207380Y-59730952D01*
X56159761Y-59826190D01*
X56064523Y-59873809D01*
X55683571Y-59873809D01*
X55588333Y-59826190D01*
X55540714Y-59730952D01*
X55540714Y-59540476D01*
X55588333Y-59445238D01*
X55683571Y-59397619D01*
X55778809Y-59397619D01*
X55874047Y-59873809D01*
X86812380Y-74025000D02*
X85812380Y-74025000D01*
X85812380Y-73358333D02*
X85812380Y-73167857D01*
X85860000Y-73072619D01*
X85955238Y-72977380D01*
X86145714Y-72929761D01*
X86479047Y-72929761D01*
X86669523Y-72977380D01*
X86764761Y-73072619D01*
X86812380Y-73167857D01*
X86812380Y-73358333D01*
X86764761Y-73453571D01*
X86669523Y-73548809D01*
X86479047Y-73596428D01*
X86145714Y-73596428D01*
X85955238Y-73548809D01*
X85860000Y-73453571D01*
X85812380Y-73358333D01*
X86812380Y-71977380D02*
X86812380Y-72548809D01*
X86812380Y-72263095D02*
X85812380Y-72263095D01*
X85955238Y-72358333D01*
X86050476Y-72453571D01*
X86098095Y-72548809D01*
X63857142Y-77001666D02*
X63904761Y-77049285D01*
X63952380Y-77192142D01*
X63952380Y-77287380D01*
X63904761Y-77430238D01*
X63809523Y-77525476D01*
X63714285Y-77573095D01*
X63523809Y-77620714D01*
X63380952Y-77620714D01*
X63190476Y-77573095D01*
X63095238Y-77525476D01*
X63000000Y-77430238D01*
X62952380Y-77287380D01*
X62952380Y-77192142D01*
X63000000Y-77049285D01*
X63047619Y-77001666D01*
X63904761Y-76620714D02*
X63952380Y-76477857D01*
X63952380Y-76239761D01*
X63904761Y-76144523D01*
X63857142Y-76096904D01*
X63761904Y-76049285D01*
X63666666Y-76049285D01*
X63571428Y-76096904D01*
X63523809Y-76144523D01*
X63476190Y-76239761D01*
X63428571Y-76430238D01*
X63380952Y-76525476D01*
X63333333Y-76573095D01*
X63238095Y-76620714D01*
X63142857Y-76620714D01*
X63047619Y-76573095D01*
X63000000Y-76525476D01*
X62952380Y-76430238D01*
X62952380Y-76192142D01*
X63000000Y-76049285D01*
X69032380Y-78406428D02*
X68032380Y-78406428D01*
X68746666Y-78073095D01*
X68032380Y-77739761D01*
X69032380Y-77739761D01*
X69032380Y-77263571D02*
X68032380Y-77263571D01*
X68984761Y-76835000D02*
X69032380Y-76692142D01*
X69032380Y-76454047D01*
X68984761Y-76358809D01*
X68937142Y-76311190D01*
X68841904Y-76263571D01*
X68746666Y-76263571D01*
X68651428Y-76311190D01*
X68603809Y-76358809D01*
X68556190Y-76454047D01*
X68508571Y-76644523D01*
X68460952Y-76739761D01*
X68413333Y-76787380D01*
X68318095Y-76835000D01*
X68222857Y-76835000D01*
X68127619Y-76787380D01*
X68080000Y-76739761D01*
X68032380Y-76644523D01*
X68032380Y-76406428D01*
X68080000Y-76263571D01*
X68032380Y-75644523D02*
X68032380Y-75454047D01*
X68080000Y-75358809D01*
X68175238Y-75263571D01*
X68365714Y-75215952D01*
X68699047Y-75215952D01*
X68889523Y-75263571D01*
X68984761Y-75358809D01*
X69032380Y-75454047D01*
X69032380Y-75644523D01*
X68984761Y-75739761D01*
X68889523Y-75835000D01*
X68699047Y-75882619D01*
X68365714Y-75882619D01*
X68175238Y-75835000D01*
X68080000Y-75739761D01*
X68032380Y-75644523D01*
X71524761Y-78120714D02*
X71572380Y-77977857D01*
X71572380Y-77739761D01*
X71524761Y-77644523D01*
X71477142Y-77596904D01*
X71381904Y-77549285D01*
X71286666Y-77549285D01*
X71191428Y-77596904D01*
X71143809Y-77644523D01*
X71096190Y-77739761D01*
X71048571Y-77930238D01*
X71000952Y-78025476D01*
X70953333Y-78073095D01*
X70858095Y-78120714D01*
X70762857Y-78120714D01*
X70667619Y-78073095D01*
X70620000Y-78025476D01*
X70572380Y-77930238D01*
X70572380Y-77692142D01*
X70620000Y-77549285D01*
X71477142Y-76549285D02*
X71524761Y-76596904D01*
X71572380Y-76739761D01*
X71572380Y-76835000D01*
X71524761Y-76977857D01*
X71429523Y-77073095D01*
X71334285Y-77120714D01*
X71143809Y-77168333D01*
X71000952Y-77168333D01*
X70810476Y-77120714D01*
X70715238Y-77073095D01*
X70620000Y-76977857D01*
X70572380Y-76835000D01*
X70572380Y-76739761D01*
X70620000Y-76596904D01*
X70667619Y-76549285D01*
X71572380Y-76120714D02*
X70572380Y-76120714D01*
X71572380Y-75549285D02*
X71000952Y-75977857D01*
X70572380Y-75549285D02*
X71143809Y-76120714D01*
X73160000Y-77596904D02*
X73112380Y-77692142D01*
X73112380Y-77835000D01*
X73160000Y-77977857D01*
X73255238Y-78073095D01*
X73350476Y-78120714D01*
X73540952Y-78168333D01*
X73683809Y-78168333D01*
X73874285Y-78120714D01*
X73969523Y-78073095D01*
X74064761Y-77977857D01*
X74112380Y-77835000D01*
X74112380Y-77739761D01*
X74064761Y-77596904D01*
X74017142Y-77549285D01*
X73683809Y-77549285D01*
X73683809Y-77739761D01*
X74112380Y-77120714D02*
X73112380Y-77120714D01*
X74112380Y-76549285D01*
X73112380Y-76549285D01*
X74112380Y-76073095D02*
X73112380Y-76073095D01*
X73112380Y-75835000D01*
X73160000Y-75692142D01*
X73255238Y-75596904D01*
X73350476Y-75549285D01*
X73540952Y-75501666D01*
X73683809Y-75501666D01*
X73874285Y-75549285D01*
X73969523Y-75596904D01*
X74064761Y-75692142D01*
X74112380Y-75835000D01*
X74112380Y-76073095D01*
X86296666Y-88352380D02*
X86630000Y-89352380D01*
X86963333Y-88352380D01*
X87868095Y-89257142D02*
X87820476Y-89304761D01*
X87677619Y-89352380D01*
X87582380Y-89352380D01*
X87439523Y-89304761D01*
X87344285Y-89209523D01*
X87296666Y-89114285D01*
X87249047Y-88923809D01*
X87249047Y-88780952D01*
X87296666Y-88590476D01*
X87344285Y-88495238D01*
X87439523Y-88400000D01*
X87582380Y-88352380D01*
X87677619Y-88352380D01*
X87820476Y-88400000D01*
X87868095Y-88447619D01*
X88868095Y-89257142D02*
X88820476Y-89304761D01*
X88677619Y-89352380D01*
X88582380Y-89352380D01*
X88439523Y-89304761D01*
X88344285Y-89209523D01*
X88296666Y-89114285D01*
X88249047Y-88923809D01*
X88249047Y-88780952D01*
X88296666Y-88590476D01*
X88344285Y-88495238D01*
X88439523Y-88400000D01*
X88582380Y-88352380D01*
X88677619Y-88352380D01*
X88820476Y-88400000D01*
X88868095Y-88447619D01*
X118880000Y-77596904D02*
X118832380Y-77692142D01*
X118832380Y-77835000D01*
X118880000Y-77977857D01*
X118975238Y-78073095D01*
X119070476Y-78120714D01*
X119260952Y-78168333D01*
X119403809Y-78168333D01*
X119594285Y-78120714D01*
X119689523Y-78073095D01*
X119784761Y-77977857D01*
X119832380Y-77835000D01*
X119832380Y-77739761D01*
X119784761Y-77596904D01*
X119737142Y-77549285D01*
X119403809Y-77549285D01*
X119403809Y-77739761D01*
X119832380Y-77120714D02*
X118832380Y-77120714D01*
X119832380Y-76549285D01*
X118832380Y-76549285D01*
X119832380Y-76073095D02*
X118832380Y-76073095D01*
X118832380Y-75835000D01*
X118880000Y-75692142D01*
X118975238Y-75596904D01*
X119070476Y-75549285D01*
X119260952Y-75501666D01*
X119403809Y-75501666D01*
X119594285Y-75549285D01*
X119689523Y-75596904D01*
X119784761Y-75692142D01*
X119832380Y-75835000D01*
X119832380Y-76073095D01*
X75652380Y-78168333D02*
X76652380Y-77835000D01*
X75652380Y-77501666D01*
X76557142Y-76596904D02*
X76604761Y-76644523D01*
X76652380Y-76787380D01*
X76652380Y-76882619D01*
X76604761Y-77025476D01*
X76509523Y-77120714D01*
X76414285Y-77168333D01*
X76223809Y-77215952D01*
X76080952Y-77215952D01*
X75890476Y-77168333D01*
X75795238Y-77120714D01*
X75700000Y-77025476D01*
X75652380Y-76882619D01*
X75652380Y-76787380D01*
X75700000Y-76644523D01*
X75747619Y-76596904D01*
X76557142Y-75596904D02*
X76604761Y-75644523D01*
X76652380Y-75787380D01*
X76652380Y-75882619D01*
X76604761Y-76025476D01*
X76509523Y-76120714D01*
X76414285Y-76168333D01*
X76223809Y-76215952D01*
X76080952Y-76215952D01*
X75890476Y-76168333D01*
X75795238Y-76120714D01*
X75700000Y-76025476D01*
X75652380Y-75882619D01*
X75652380Y-75787380D01*
X75700000Y-75644523D01*
X75747619Y-75596904D01*
X118880000Y-73786904D02*
X118832380Y-73882142D01*
X118832380Y-74025000D01*
X118880000Y-74167857D01*
X118975238Y-74263095D01*
X119070476Y-74310714D01*
X119260952Y-74358333D01*
X119403809Y-74358333D01*
X119594285Y-74310714D01*
X119689523Y-74263095D01*
X119784761Y-74167857D01*
X119832380Y-74025000D01*
X119832380Y-73929761D01*
X119784761Y-73786904D01*
X119737142Y-73739285D01*
X119403809Y-73739285D01*
X119403809Y-73929761D01*
X119832380Y-73310714D02*
X118832380Y-73310714D01*
X119832380Y-72739285D01*
X118832380Y-72739285D01*
X119832380Y-72263095D02*
X118832380Y-72263095D01*
X118832380Y-72025000D01*
X118880000Y-71882142D01*
X118975238Y-71786904D01*
X119070476Y-71739285D01*
X119260952Y-71691666D01*
X119403809Y-71691666D01*
X119594285Y-71739285D01*
X119689523Y-71786904D01*
X119784761Y-71882142D01*
X119832380Y-72025000D01*
X119832380Y-72263095D01*
X66492380Y-78406428D02*
X65492380Y-78406428D01*
X66206666Y-78073095D01*
X65492380Y-77739761D01*
X66492380Y-77739761D01*
X65492380Y-77073095D02*
X65492380Y-76882619D01*
X65540000Y-76787380D01*
X65635238Y-76692142D01*
X65825714Y-76644523D01*
X66159047Y-76644523D01*
X66349523Y-76692142D01*
X66444761Y-76787380D01*
X66492380Y-76882619D01*
X66492380Y-77073095D01*
X66444761Y-77168333D01*
X66349523Y-77263571D01*
X66159047Y-77311190D01*
X65825714Y-77311190D01*
X65635238Y-77263571D01*
X65540000Y-77168333D01*
X65492380Y-77073095D01*
X66444761Y-76263571D02*
X66492380Y-76120714D01*
X66492380Y-75882619D01*
X66444761Y-75787380D01*
X66397142Y-75739761D01*
X66301904Y-75692142D01*
X66206666Y-75692142D01*
X66111428Y-75739761D01*
X66063809Y-75787380D01*
X66016190Y-75882619D01*
X65968571Y-76073095D01*
X65920952Y-76168333D01*
X65873333Y-76215952D01*
X65778095Y-76263571D01*
X65682857Y-76263571D01*
X65587619Y-76215952D01*
X65540000Y-76168333D01*
X65492380Y-76073095D01*
X65492380Y-75835000D01*
X65540000Y-75692142D01*
X66492380Y-75263571D02*
X65492380Y-75263571D01*
X94432380Y-74025000D02*
X93432380Y-74025000D01*
X93432380Y-73358333D02*
X93432380Y-73167857D01*
X93480000Y-73072619D01*
X93575238Y-72977380D01*
X93765714Y-72929761D01*
X94099047Y-72929761D01*
X94289523Y-72977380D01*
X94384761Y-73072619D01*
X94432380Y-73167857D01*
X94432380Y-73358333D01*
X94384761Y-73453571D01*
X94289523Y-73548809D01*
X94099047Y-73596428D01*
X93765714Y-73596428D01*
X93575238Y-73548809D01*
X93480000Y-73453571D01*
X93432380Y-73358333D01*
X93765714Y-72072619D02*
X94432380Y-72072619D01*
X93384761Y-72310714D02*
X94099047Y-72548809D01*
X94099047Y-71929761D01*
X91892380Y-74025000D02*
X90892380Y-74025000D01*
X90892380Y-73358333D02*
X90892380Y-73167857D01*
X90940000Y-73072619D01*
X91035238Y-72977380D01*
X91225714Y-72929761D01*
X91559047Y-72929761D01*
X91749523Y-72977380D01*
X91844761Y-73072619D01*
X91892380Y-73167857D01*
X91892380Y-73358333D01*
X91844761Y-73453571D01*
X91749523Y-73548809D01*
X91559047Y-73596428D01*
X91225714Y-73596428D01*
X91035238Y-73548809D01*
X90940000Y-73453571D01*
X90892380Y-73358333D01*
X90892380Y-72596428D02*
X90892380Y-71977380D01*
X91273333Y-72310714D01*
X91273333Y-72167857D01*
X91320952Y-72072619D01*
X91368571Y-72025000D01*
X91463809Y-71977380D01*
X91701904Y-71977380D01*
X91797142Y-72025000D01*
X91844761Y-72072619D01*
X91892380Y-72167857D01*
X91892380Y-72453571D01*
X91844761Y-72548809D01*
X91797142Y-72596428D01*
X98512380Y-74358333D02*
X99512380Y-74025000D01*
X98512380Y-73691666D01*
X99417142Y-72786904D02*
X99464761Y-72834523D01*
X99512380Y-72977380D01*
X99512380Y-73072619D01*
X99464761Y-73215476D01*
X99369523Y-73310714D01*
X99274285Y-73358333D01*
X99083809Y-73405952D01*
X98940952Y-73405952D01*
X98750476Y-73358333D01*
X98655238Y-73310714D01*
X98560000Y-73215476D01*
X98512380Y-73072619D01*
X98512380Y-72977380D01*
X98560000Y-72834523D01*
X98607619Y-72786904D01*
X99417142Y-71786904D02*
X99464761Y-71834523D01*
X99512380Y-71977380D01*
X99512380Y-72072619D01*
X99464761Y-72215476D01*
X99369523Y-72310714D01*
X99274285Y-72358333D01*
X99083809Y-72405952D01*
X98940952Y-72405952D01*
X98750476Y-72358333D01*
X98655238Y-72310714D01*
X98560000Y-72215476D01*
X98512380Y-72072619D01*
X98512380Y-71977380D01*
X98560000Y-71834523D01*
X98607619Y-71786904D01*
X117292380Y-74025000D02*
X116292380Y-74025000D01*
X116292380Y-73358333D02*
X116292380Y-73167857D01*
X116340000Y-73072619D01*
X116435238Y-72977380D01*
X116625714Y-72929761D01*
X116959047Y-72929761D01*
X117149523Y-72977380D01*
X117244761Y-73072619D01*
X117292380Y-73167857D01*
X117292380Y-73358333D01*
X117244761Y-73453571D01*
X117149523Y-73548809D01*
X116959047Y-73596428D01*
X116625714Y-73596428D01*
X116435238Y-73548809D01*
X116340000Y-73453571D01*
X116292380Y-73358333D01*
X116625714Y-72072619D02*
X117292380Y-72072619D01*
X116244761Y-72310714D02*
X116959047Y-72548809D01*
X116959047Y-71929761D01*
X117244761Y-78049285D02*
X117292380Y-77906428D01*
X117292380Y-77668333D01*
X117244761Y-77573095D01*
X117197142Y-77525476D01*
X117101904Y-77477857D01*
X117006666Y-77477857D01*
X116911428Y-77525476D01*
X116863809Y-77573095D01*
X116816190Y-77668333D01*
X116768571Y-77858809D01*
X116720952Y-77954047D01*
X116673333Y-78001666D01*
X116578095Y-78049285D01*
X116482857Y-78049285D01*
X116387619Y-78001666D01*
X116340000Y-77954047D01*
X116292380Y-77858809D01*
X116292380Y-77620714D01*
X116340000Y-77477857D01*
X117292380Y-77049285D02*
X116292380Y-77049285D01*
X116292380Y-76811190D01*
X116340000Y-76668333D01*
X116435238Y-76573095D01*
X116530476Y-76525476D01*
X116720952Y-76477857D01*
X116863809Y-76477857D01*
X117054285Y-76525476D01*
X117149523Y-76573095D01*
X117244761Y-76668333D01*
X117292380Y-76811190D01*
X117292380Y-77049285D01*
X117006666Y-76096904D02*
X117006666Y-75620714D01*
X117292380Y-76192142D02*
X116292380Y-75858809D01*
X117292380Y-75525476D01*
X71477142Y-73667857D02*
X71524761Y-73715476D01*
X71572380Y-73858333D01*
X71572380Y-73953571D01*
X71524761Y-74096428D01*
X71429523Y-74191666D01*
X71334285Y-74239285D01*
X71143809Y-74286904D01*
X71000952Y-74286904D01*
X70810476Y-74239285D01*
X70715238Y-74191666D01*
X70620000Y-74096428D01*
X70572380Y-73953571D01*
X70572380Y-73858333D01*
X70620000Y-73715476D01*
X70667619Y-73667857D01*
X71524761Y-73286904D02*
X71572380Y-73144047D01*
X71572380Y-72905952D01*
X71524761Y-72810714D01*
X71477142Y-72763095D01*
X71381904Y-72715476D01*
X71286666Y-72715476D01*
X71191428Y-72763095D01*
X71143809Y-72810714D01*
X71096190Y-72905952D01*
X71048571Y-73096428D01*
X71000952Y-73191666D01*
X70953333Y-73239285D01*
X70858095Y-73286904D01*
X70762857Y-73286904D01*
X70667619Y-73239285D01*
X70620000Y-73191666D01*
X70572380Y-73096428D01*
X70572380Y-72858333D01*
X70620000Y-72715476D01*
X70572380Y-72382142D02*
X70572380Y-71763095D01*
X70953333Y-72096428D01*
X70953333Y-71953571D01*
X71000952Y-71858333D01*
X71048571Y-71810714D01*
X71143809Y-71763095D01*
X71381904Y-71763095D01*
X71477142Y-71810714D01*
X71524761Y-71858333D01*
X71572380Y-71953571D01*
X71572380Y-72239285D01*
X71524761Y-72334523D01*
X71477142Y-72382142D01*
X91892380Y-77501666D02*
X91416190Y-77835000D01*
X91892380Y-78073095D02*
X90892380Y-78073095D01*
X90892380Y-77692142D01*
X90940000Y-77596904D01*
X90987619Y-77549285D01*
X91082857Y-77501666D01*
X91225714Y-77501666D01*
X91320952Y-77549285D01*
X91368571Y-77596904D01*
X91416190Y-77692142D01*
X91416190Y-78073095D01*
X90892380Y-77168333D02*
X91892380Y-76501666D01*
X90892380Y-76501666D02*
X91892380Y-77168333D01*
X91892380Y-76120714D02*
X90892380Y-76120714D01*
X90892380Y-75882619D01*
X90940000Y-75739761D01*
X91035238Y-75644523D01*
X91130476Y-75596904D01*
X91320952Y-75549285D01*
X91463809Y-75549285D01*
X91654285Y-75596904D01*
X91749523Y-75644523D01*
X91844761Y-75739761D01*
X91892380Y-75882619D01*
X91892380Y-76120714D01*
X89352380Y-74025000D02*
X88352380Y-74025000D01*
X88352380Y-73358333D02*
X88352380Y-73167857D01*
X88400000Y-73072619D01*
X88495238Y-72977380D01*
X88685714Y-72929761D01*
X89019047Y-72929761D01*
X89209523Y-72977380D01*
X89304761Y-73072619D01*
X89352380Y-73167857D01*
X89352380Y-73358333D01*
X89304761Y-73453571D01*
X89209523Y-73548809D01*
X89019047Y-73596428D01*
X88685714Y-73596428D01*
X88495238Y-73548809D01*
X88400000Y-73453571D01*
X88352380Y-73358333D01*
X88447619Y-72548809D02*
X88400000Y-72501190D01*
X88352380Y-72405952D01*
X88352380Y-72167857D01*
X88400000Y-72072619D01*
X88447619Y-72025000D01*
X88542857Y-71977380D01*
X88638095Y-71977380D01*
X88780952Y-72025000D01*
X89352380Y-72596428D01*
X89352380Y-71977380D01*
X114752380Y-74025000D02*
X113752380Y-74025000D01*
X113752380Y-73358333D02*
X113752380Y-73167857D01*
X113800000Y-73072619D01*
X113895238Y-72977380D01*
X114085714Y-72929761D01*
X114419047Y-72929761D01*
X114609523Y-72977380D01*
X114704761Y-73072619D01*
X114752380Y-73167857D01*
X114752380Y-73358333D01*
X114704761Y-73453571D01*
X114609523Y-73548809D01*
X114419047Y-73596428D01*
X114085714Y-73596428D01*
X113895238Y-73548809D01*
X113800000Y-73453571D01*
X113752380Y-73358333D01*
X113752380Y-72596428D02*
X113752380Y-71977380D01*
X114133333Y-72310714D01*
X114133333Y-72167857D01*
X114180952Y-72072619D01*
X114228571Y-72025000D01*
X114323809Y-71977380D01*
X114561904Y-71977380D01*
X114657142Y-72025000D01*
X114704761Y-72072619D01*
X114752380Y-72167857D01*
X114752380Y-72453571D01*
X114704761Y-72548809D01*
X114657142Y-72596428D01*
X112212380Y-77382619D02*
X111736190Y-77715952D01*
X112212380Y-77954047D02*
X111212380Y-77954047D01*
X111212380Y-77573095D01*
X111260000Y-77477857D01*
X111307619Y-77430238D01*
X111402857Y-77382619D01*
X111545714Y-77382619D01*
X111640952Y-77430238D01*
X111688571Y-77477857D01*
X111736190Y-77573095D01*
X111736190Y-77954047D01*
X112164761Y-77001666D02*
X112212380Y-76858809D01*
X112212380Y-76620714D01*
X112164761Y-76525476D01*
X112117142Y-76477857D01*
X112021904Y-76430238D01*
X111926666Y-76430238D01*
X111831428Y-76477857D01*
X111783809Y-76525476D01*
X111736190Y-76620714D01*
X111688571Y-76811190D01*
X111640952Y-76906428D01*
X111593333Y-76954047D01*
X111498095Y-77001666D01*
X111402857Y-77001666D01*
X111307619Y-76954047D01*
X111260000Y-76906428D01*
X111212380Y-76811190D01*
X111212380Y-76573095D01*
X111260000Y-76430238D01*
X111212380Y-76144523D02*
X111212380Y-75573095D01*
X112212380Y-75858809D02*
X111212380Y-75858809D01*
X121372380Y-74358333D02*
X122372380Y-74025000D01*
X121372380Y-73691666D01*
X122277142Y-72786904D02*
X122324761Y-72834523D01*
X122372380Y-72977380D01*
X122372380Y-73072619D01*
X122324761Y-73215476D01*
X122229523Y-73310714D01*
X122134285Y-73358333D01*
X121943809Y-73405952D01*
X121800952Y-73405952D01*
X121610476Y-73358333D01*
X121515238Y-73310714D01*
X121420000Y-73215476D01*
X121372380Y-73072619D01*
X121372380Y-72977380D01*
X121420000Y-72834523D01*
X121467619Y-72786904D01*
X122277142Y-71786904D02*
X122324761Y-71834523D01*
X122372380Y-71977380D01*
X122372380Y-72072619D01*
X122324761Y-72215476D01*
X122229523Y-72310714D01*
X122134285Y-72358333D01*
X121943809Y-72405952D01*
X121800952Y-72405952D01*
X121610476Y-72358333D01*
X121515238Y-72310714D01*
X121420000Y-72215476D01*
X121372380Y-72072619D01*
X121372380Y-71977380D01*
X121420000Y-71834523D01*
X121467619Y-71786904D01*
X68937142Y-73667857D02*
X68984761Y-73715476D01*
X69032380Y-73858333D01*
X69032380Y-73953571D01*
X68984761Y-74096428D01*
X68889523Y-74191666D01*
X68794285Y-74239285D01*
X68603809Y-74286904D01*
X68460952Y-74286904D01*
X68270476Y-74239285D01*
X68175238Y-74191666D01*
X68080000Y-74096428D01*
X68032380Y-73953571D01*
X68032380Y-73858333D01*
X68080000Y-73715476D01*
X68127619Y-73667857D01*
X68984761Y-73286904D02*
X69032380Y-73144047D01*
X69032380Y-72905952D01*
X68984761Y-72810714D01*
X68937142Y-72763095D01*
X68841904Y-72715476D01*
X68746666Y-72715476D01*
X68651428Y-72763095D01*
X68603809Y-72810714D01*
X68556190Y-72905952D01*
X68508571Y-73096428D01*
X68460952Y-73191666D01*
X68413333Y-73239285D01*
X68318095Y-73286904D01*
X68222857Y-73286904D01*
X68127619Y-73239285D01*
X68080000Y-73191666D01*
X68032380Y-73096428D01*
X68032380Y-72858333D01*
X68080000Y-72715476D01*
X68127619Y-72334523D02*
X68080000Y-72286904D01*
X68032380Y-72191666D01*
X68032380Y-71953571D01*
X68080000Y-71858333D01*
X68127619Y-71810714D01*
X68222857Y-71763095D01*
X68318095Y-71763095D01*
X68460952Y-71810714D01*
X69032380Y-72382142D01*
X69032380Y-71763095D01*
X114704761Y-78025476D02*
X114752380Y-77882619D01*
X114752380Y-77644523D01*
X114704761Y-77549285D01*
X114657142Y-77501666D01*
X114561904Y-77454047D01*
X114466666Y-77454047D01*
X114371428Y-77501666D01*
X114323809Y-77549285D01*
X114276190Y-77644523D01*
X114228571Y-77835000D01*
X114180952Y-77930238D01*
X114133333Y-77977857D01*
X114038095Y-78025476D01*
X113942857Y-78025476D01*
X113847619Y-77977857D01*
X113800000Y-77930238D01*
X113752380Y-77835000D01*
X113752380Y-77596904D01*
X113800000Y-77454047D01*
X114657142Y-76454047D02*
X114704761Y-76501666D01*
X114752380Y-76644523D01*
X114752380Y-76739761D01*
X114704761Y-76882619D01*
X114609523Y-76977857D01*
X114514285Y-77025476D01*
X114323809Y-77073095D01*
X114180952Y-77073095D01*
X113990476Y-77025476D01*
X113895238Y-76977857D01*
X113800000Y-76882619D01*
X113752380Y-76739761D01*
X113752380Y-76644523D01*
X113800000Y-76501666D01*
X113847619Y-76454047D01*
X114752380Y-75549285D02*
X114752380Y-76025476D01*
X113752380Y-76025476D01*
X112212380Y-74025000D02*
X111212380Y-74025000D01*
X111212380Y-73358333D02*
X111212380Y-73167857D01*
X111260000Y-73072619D01*
X111355238Y-72977380D01*
X111545714Y-72929761D01*
X111879047Y-72929761D01*
X112069523Y-72977380D01*
X112164761Y-73072619D01*
X112212380Y-73167857D01*
X112212380Y-73358333D01*
X112164761Y-73453571D01*
X112069523Y-73548809D01*
X111879047Y-73596428D01*
X111545714Y-73596428D01*
X111355238Y-73548809D01*
X111260000Y-73453571D01*
X111212380Y-73358333D01*
X111307619Y-72548809D02*
X111260000Y-72501190D01*
X111212380Y-72405952D01*
X111212380Y-72167857D01*
X111260000Y-72072619D01*
X111307619Y-72025000D01*
X111402857Y-71977380D01*
X111498095Y-71977380D01*
X111640952Y-72025000D01*
X112212380Y-72596428D01*
X112212380Y-71977380D01*
X66492380Y-73572619D02*
X66016190Y-73905952D01*
X66492380Y-74144047D02*
X65492380Y-74144047D01*
X65492380Y-73763095D01*
X65540000Y-73667857D01*
X65587619Y-73620238D01*
X65682857Y-73572619D01*
X65825714Y-73572619D01*
X65920952Y-73620238D01*
X65968571Y-73667857D01*
X66016190Y-73763095D01*
X66016190Y-74144047D01*
X66444761Y-73191666D02*
X66492380Y-73048809D01*
X66492380Y-72810714D01*
X66444761Y-72715476D01*
X66397142Y-72667857D01*
X66301904Y-72620238D01*
X66206666Y-72620238D01*
X66111428Y-72667857D01*
X66063809Y-72715476D01*
X66016190Y-72810714D01*
X65968571Y-73001190D01*
X65920952Y-73096428D01*
X65873333Y-73144047D01*
X65778095Y-73191666D01*
X65682857Y-73191666D01*
X65587619Y-73144047D01*
X65540000Y-73096428D01*
X65492380Y-73001190D01*
X65492380Y-72763095D01*
X65540000Y-72620238D01*
X65492380Y-72334523D02*
X65492380Y-71763095D01*
X66492380Y-72048809D02*
X65492380Y-72048809D01*
X98512380Y-78168333D02*
X99512380Y-77835000D01*
X98512380Y-77501666D01*
X99417142Y-76596904D02*
X99464761Y-76644523D01*
X99512380Y-76787380D01*
X99512380Y-76882619D01*
X99464761Y-77025476D01*
X99369523Y-77120714D01*
X99274285Y-77168333D01*
X99083809Y-77215952D01*
X98940952Y-77215952D01*
X98750476Y-77168333D01*
X98655238Y-77120714D01*
X98560000Y-77025476D01*
X98512380Y-76882619D01*
X98512380Y-76787380D01*
X98560000Y-76644523D01*
X98607619Y-76596904D01*
X99417142Y-75596904D02*
X99464761Y-75644523D01*
X99512380Y-75787380D01*
X99512380Y-75882619D01*
X99464761Y-76025476D01*
X99369523Y-76120714D01*
X99274285Y-76168333D01*
X99083809Y-76215952D01*
X98940952Y-76215952D01*
X98750476Y-76168333D01*
X98655238Y-76120714D01*
X98560000Y-76025476D01*
X98512380Y-75882619D01*
X98512380Y-75787380D01*
X98560000Y-75644523D01*
X98607619Y-75596904D01*
X75652380Y-74358333D02*
X76652380Y-74025000D01*
X75652380Y-73691666D01*
X76557142Y-72786904D02*
X76604761Y-72834523D01*
X76652380Y-72977380D01*
X76652380Y-73072619D01*
X76604761Y-73215476D01*
X76509523Y-73310714D01*
X76414285Y-73358333D01*
X76223809Y-73405952D01*
X76080952Y-73405952D01*
X75890476Y-73358333D01*
X75795238Y-73310714D01*
X75700000Y-73215476D01*
X75652380Y-73072619D01*
X75652380Y-72977380D01*
X75700000Y-72834523D01*
X75747619Y-72786904D01*
X76557142Y-71786904D02*
X76604761Y-71834523D01*
X76652380Y-71977380D01*
X76652380Y-72072619D01*
X76604761Y-72215476D01*
X76509523Y-72310714D01*
X76414285Y-72358333D01*
X76223809Y-72405952D01*
X76080952Y-72405952D01*
X75890476Y-72358333D01*
X75795238Y-72310714D01*
X75700000Y-72215476D01*
X75652380Y-72072619D01*
X75652380Y-71977380D01*
X75700000Y-71834523D01*
X75747619Y-71786904D01*
X96020000Y-73786904D02*
X95972380Y-73882142D01*
X95972380Y-74025000D01*
X96020000Y-74167857D01*
X96115238Y-74263095D01*
X96210476Y-74310714D01*
X96400952Y-74358333D01*
X96543809Y-74358333D01*
X96734285Y-74310714D01*
X96829523Y-74263095D01*
X96924761Y-74167857D01*
X96972380Y-74025000D01*
X96972380Y-73929761D01*
X96924761Y-73786904D01*
X96877142Y-73739285D01*
X96543809Y-73739285D01*
X96543809Y-73929761D01*
X96972380Y-73310714D02*
X95972380Y-73310714D01*
X96972380Y-72739285D01*
X95972380Y-72739285D01*
X96972380Y-72263095D02*
X95972380Y-72263095D01*
X95972380Y-72025000D01*
X96020000Y-71882142D01*
X96115238Y-71786904D01*
X96210476Y-71739285D01*
X96400952Y-71691666D01*
X96543809Y-71691666D01*
X96734285Y-71739285D01*
X96829523Y-71786904D01*
X96924761Y-71882142D01*
X96972380Y-72025000D01*
X96972380Y-72263095D01*
D10*
%TO.C,PMOD2*%
X100330000Y-82550000D02*
X100330000Y-83820000D01*
X94360000Y-84862929D02*
X94360000Y-85317071D01*
X85030000Y-90460000D02*
X100390000Y-90460000D01*
X90170000Y-87800000D02*
X90170000Y-90460000D01*
X98780000Y-90460000D02*
X98780000Y-96460000D01*
X85980000Y-87402929D02*
X85980000Y-87800000D01*
X86740000Y-87402929D02*
X86740000Y-87800000D01*
X98680000Y-96460000D02*
X98680000Y-90460000D01*
X96900000Y-87402929D02*
X96900000Y-87800000D01*
X99440000Y-96460000D02*
X98680000Y-96460000D01*
X99020000Y-90460000D02*
X99020000Y-96460000D01*
X86740000Y-90460000D02*
X86740000Y-96460000D01*
X99260000Y-90460000D02*
X99260000Y-96460000D01*
X91820000Y-84862929D02*
X91820000Y-85317071D01*
X99380000Y-90460000D02*
X99380000Y-96460000D01*
X93600000Y-87402929D02*
X93600000Y-87800000D01*
X87630000Y-87800000D02*
X87630000Y-90460000D01*
X100390000Y-87800000D02*
X85030000Y-87800000D01*
X89280000Y-84862929D02*
X89280000Y-85317071D01*
X91060000Y-84862929D02*
X91060000Y-85317071D01*
X94360000Y-96460000D02*
X93600000Y-96460000D01*
X98900000Y-90460000D02*
X98900000Y-96460000D01*
X97790000Y-87800000D02*
X97790000Y-90460000D01*
X96900000Y-84862929D02*
X96900000Y-85317071D01*
X85980000Y-96460000D02*
X85980000Y-90460000D01*
X92710000Y-87800000D02*
X92710000Y-90460000D01*
X96900000Y-90460000D02*
X96900000Y-96460000D01*
X95250000Y-87800000D02*
X95250000Y-90460000D01*
X96900000Y-96460000D02*
X96140000Y-96460000D01*
X91820000Y-87402929D02*
X91820000Y-87800000D01*
X96140000Y-96460000D02*
X96140000Y-90460000D01*
X88520000Y-87402929D02*
X88520000Y-87800000D01*
X94360000Y-87402929D02*
X94360000Y-87800000D01*
X91060000Y-96460000D02*
X91060000Y-90460000D01*
X88520000Y-84862929D02*
X88520000Y-85317071D01*
X91060000Y-87402929D02*
X91060000Y-87800000D01*
X89280000Y-96460000D02*
X88520000Y-96460000D01*
X100390000Y-90460000D02*
X100390000Y-87800000D01*
X96140000Y-84862929D02*
X96140000Y-85317071D01*
X99440000Y-87402929D02*
X99440000Y-87800000D01*
X89280000Y-90460000D02*
X89280000Y-96460000D01*
X94360000Y-90460000D02*
X94360000Y-96460000D01*
X93600000Y-96460000D02*
X93600000Y-90460000D01*
X91820000Y-90460000D02*
X91820000Y-96460000D01*
X86740000Y-96460000D02*
X85980000Y-96460000D01*
X98680000Y-84930000D02*
X98680000Y-85317071D01*
X89280000Y-87402929D02*
X89280000Y-87800000D01*
X99060000Y-82550000D02*
X100330000Y-82550000D01*
X85030000Y-87800000D02*
X85030000Y-90460000D01*
X86740000Y-84862929D02*
X86740000Y-85317071D01*
X96140000Y-87402929D02*
X96140000Y-87800000D01*
X99140000Y-90460000D02*
X99140000Y-96460000D01*
X98680000Y-87402929D02*
X98680000Y-87800000D01*
X91820000Y-96460000D02*
X91060000Y-96460000D01*
X99440000Y-84930000D02*
X99440000Y-85317071D01*
X88520000Y-96460000D02*
X88520000Y-90460000D01*
X93600000Y-84862929D02*
X93600000Y-85317071D01*
X85980000Y-84862929D02*
X85980000Y-85317071D01*
X99440000Y-90460000D02*
X99440000Y-96460000D01*
%TO.C,PMOD3*%
X121540000Y-96460000D02*
X121540000Y-90460000D01*
X119760000Y-84862929D02*
X119760000Y-85317071D01*
X116460000Y-87402929D02*
X116460000Y-87800000D01*
X121760000Y-90460000D02*
X121760000Y-96460000D01*
X119000000Y-84862929D02*
X119000000Y-85317071D01*
X119760000Y-87402929D02*
X119760000Y-87800000D01*
X113920000Y-96460000D02*
X113920000Y-90460000D01*
X113920000Y-87402929D02*
X113920000Y-87800000D01*
X121920000Y-82550000D02*
X123190000Y-82550000D01*
X114680000Y-96460000D02*
X113920000Y-96460000D01*
X123250000Y-87800000D02*
X107890000Y-87800000D01*
X111380000Y-96460000D02*
X111380000Y-90460000D01*
X112140000Y-84862929D02*
X112140000Y-85317071D01*
X123190000Y-82550000D02*
X123190000Y-83820000D01*
X123250000Y-90460000D02*
X123250000Y-87800000D01*
X114680000Y-84862929D02*
X114680000Y-85317071D01*
X117220000Y-87402929D02*
X117220000Y-87800000D01*
X117220000Y-96460000D02*
X116460000Y-96460000D01*
X115570000Y-87800000D02*
X115570000Y-90460000D01*
X117220000Y-90460000D02*
X117220000Y-96460000D01*
X111380000Y-84862929D02*
X111380000Y-85317071D01*
X107890000Y-90460000D02*
X123250000Y-90460000D01*
X116460000Y-96460000D02*
X116460000Y-90460000D01*
X117220000Y-84862929D02*
X117220000Y-85317071D01*
X112140000Y-90460000D02*
X112140000Y-96460000D01*
X109600000Y-90460000D02*
X109600000Y-96460000D01*
X108840000Y-96460000D02*
X108840000Y-90460000D01*
X122120000Y-90460000D02*
X122120000Y-96460000D01*
X120650000Y-87800000D02*
X120650000Y-90460000D01*
X112140000Y-87402929D02*
X112140000Y-87800000D01*
X121880000Y-90460000D02*
X121880000Y-96460000D01*
X122300000Y-90460000D02*
X122300000Y-96460000D01*
X121540000Y-87402929D02*
X121540000Y-87800000D01*
X109600000Y-87402929D02*
X109600000Y-87800000D01*
X110490000Y-87800000D02*
X110490000Y-90460000D01*
X119000000Y-87402929D02*
X119000000Y-87800000D01*
X116460000Y-84862929D02*
X116460000Y-85317071D01*
X119760000Y-90460000D02*
X119760000Y-96460000D01*
X121640000Y-90460000D02*
X121640000Y-96460000D01*
X122300000Y-84930000D02*
X122300000Y-85317071D01*
X108840000Y-87402929D02*
X108840000Y-87800000D01*
X119000000Y-96460000D02*
X119000000Y-90460000D01*
X118110000Y-87800000D02*
X118110000Y-90460000D01*
X122300000Y-87402929D02*
X122300000Y-87800000D01*
X114680000Y-90460000D02*
X114680000Y-96460000D01*
X121540000Y-84930000D02*
X121540000Y-85317071D01*
X109600000Y-84862929D02*
X109600000Y-85317071D01*
X112140000Y-96460000D02*
X111380000Y-96460000D01*
X111380000Y-87402929D02*
X111380000Y-87800000D01*
X114680000Y-87402929D02*
X114680000Y-87800000D01*
X109600000Y-96460000D02*
X108840000Y-96460000D01*
X122240000Y-90460000D02*
X122240000Y-96460000D01*
X122000000Y-90460000D02*
X122000000Y-96460000D01*
X122300000Y-96460000D02*
X121540000Y-96460000D01*
X113920000Y-84862929D02*
X113920000Y-85317071D01*
X108840000Y-84862929D02*
X108840000Y-85317071D01*
X113030000Y-87800000D02*
X113030000Y-90460000D01*
X119760000Y-96460000D02*
X119000000Y-96460000D01*
X107890000Y-87800000D02*
X107890000Y-90460000D01*
%TO.C,PMOD1*%
X75920000Y-90460000D02*
X75920000Y-96460000D01*
X66420000Y-87402929D02*
X66420000Y-87800000D01*
X76400000Y-90460000D02*
X76400000Y-96460000D01*
X71500000Y-90460000D02*
X71500000Y-96460000D01*
X73280000Y-87402929D02*
X73280000Y-87800000D01*
X66420000Y-84862929D02*
X66420000Y-85317071D01*
X77530000Y-87800000D02*
X62170000Y-87800000D01*
X68960000Y-87402929D02*
X68960000Y-87800000D01*
X76580000Y-87402929D02*
X76580000Y-87800000D01*
X62170000Y-87800000D02*
X62170000Y-90460000D01*
X68960000Y-84862929D02*
X68960000Y-85317071D01*
X68960000Y-90460000D02*
X68960000Y-96460000D01*
X72390000Y-87800000D02*
X72390000Y-90460000D01*
X63880000Y-90460000D02*
X63880000Y-96460000D01*
X76580000Y-90460000D02*
X76580000Y-96460000D01*
X76580000Y-84930000D02*
X76580000Y-85317071D01*
X77530000Y-90460000D02*
X77530000Y-87800000D01*
X68200000Y-87402929D02*
X68200000Y-87800000D01*
X76280000Y-90460000D02*
X76280000Y-96460000D01*
X75820000Y-96460000D02*
X75820000Y-90460000D01*
X74930000Y-87800000D02*
X74930000Y-90460000D01*
X65660000Y-96460000D02*
X65660000Y-90460000D01*
X76580000Y-96460000D02*
X75820000Y-96460000D01*
X73280000Y-96460000D02*
X73280000Y-90460000D01*
X64770000Y-87800000D02*
X64770000Y-90460000D01*
X74040000Y-87402929D02*
X74040000Y-87800000D01*
X66420000Y-96460000D02*
X65660000Y-96460000D01*
X73280000Y-84862929D02*
X73280000Y-85317071D01*
X77470000Y-82550000D02*
X77470000Y-83820000D01*
X75820000Y-87402929D02*
X75820000Y-87800000D01*
X68960000Y-96460000D02*
X68200000Y-96460000D01*
X63120000Y-96460000D02*
X63120000Y-90460000D01*
X62170000Y-90460000D02*
X77530000Y-90460000D01*
X63120000Y-87402929D02*
X63120000Y-87800000D01*
X71500000Y-87402929D02*
X71500000Y-87800000D01*
X66420000Y-90460000D02*
X66420000Y-96460000D01*
X70740000Y-96460000D02*
X70740000Y-90460000D01*
X76200000Y-82550000D02*
X77470000Y-82550000D01*
X63880000Y-87402929D02*
X63880000Y-87800000D01*
X71500000Y-96460000D02*
X70740000Y-96460000D01*
X69850000Y-87800000D02*
X69850000Y-90460000D01*
X74040000Y-84862929D02*
X74040000Y-85317071D01*
X63880000Y-84862929D02*
X63880000Y-85317071D01*
X65660000Y-87402929D02*
X65660000Y-87800000D01*
X76160000Y-90460000D02*
X76160000Y-96460000D01*
X67310000Y-87800000D02*
X67310000Y-90460000D01*
X74040000Y-96460000D02*
X73280000Y-96460000D01*
X75820000Y-84930000D02*
X75820000Y-85317071D01*
X70740000Y-87402929D02*
X70740000Y-87800000D01*
X63880000Y-96460000D02*
X63120000Y-96460000D01*
X68200000Y-96460000D02*
X68200000Y-90460000D01*
X71500000Y-84862929D02*
X71500000Y-85317071D01*
X76040000Y-90460000D02*
X76040000Y-96460000D01*
X74040000Y-90460000D02*
X74040000Y-96460000D01*
X63120000Y-84862929D02*
X63120000Y-85317071D01*
X65660000Y-84862929D02*
X65660000Y-85317071D01*
X70740000Y-84862929D02*
X70740000Y-85317071D01*
X68200000Y-84862929D02*
X68200000Y-85317071D01*
X76520000Y-90460000D02*
X76520000Y-96460000D01*
%TO.C,J4*%
X64770000Y-69910000D02*
X77530000Y-69910000D01*
X64770000Y-69910000D02*
X64770000Y-67310000D01*
X62170000Y-67310000D02*
X62170000Y-64710000D01*
X62170000Y-64710000D02*
X77530000Y-64710000D01*
X64770000Y-67310000D02*
X62170000Y-67310000D01*
X62170000Y-69910000D02*
X62170000Y-68580000D01*
X63500000Y-69910000D02*
X62170000Y-69910000D01*
X77530000Y-69910000D02*
X77530000Y-64710000D01*
%TO.C,J5*%
X87630000Y-67310000D02*
X85030000Y-67310000D01*
X85030000Y-69910000D02*
X85030000Y-68580000D01*
X87630000Y-69910000D02*
X87630000Y-67310000D01*
X85030000Y-64710000D02*
X100390000Y-64710000D01*
X86360000Y-69910000D02*
X85030000Y-69910000D01*
X100390000Y-69910000D02*
X100390000Y-64710000D01*
X85030000Y-67310000D02*
X85030000Y-64710000D01*
X87630000Y-69910000D02*
X100390000Y-69910000D01*
%TO.C,J6*%
X109220000Y-69910000D02*
X107890000Y-69910000D01*
X110490000Y-69910000D02*
X123250000Y-69910000D01*
X123250000Y-69910000D02*
X123250000Y-64710000D01*
X107890000Y-67310000D02*
X107890000Y-64710000D01*
X110490000Y-69910000D02*
X110490000Y-67310000D01*
X107890000Y-69910000D02*
X107890000Y-68580000D01*
X110490000Y-67310000D02*
X107890000Y-67310000D01*
X107890000Y-64710000D02*
X123250000Y-64710000D01*
%TO.C,PMOD4*%
X76819525Y-48330000D02*
X76819525Y-56960000D01*
X75520480Y-48330000D02*
X75520480Y-56960000D01*
X74020000Y-56960000D02*
X74020000Y-57370000D01*
X70760000Y-59470000D02*
X70760000Y-59910000D01*
X70760000Y-56960000D02*
X70760000Y-57370000D01*
X63860000Y-59470000D02*
X63860000Y-59910000D01*
X67310000Y-48330000D02*
X67310000Y-56960000D01*
X75840000Y-59470000D02*
X75840000Y-59850000D01*
X75048100Y-48330000D02*
X75048100Y-56960000D01*
X77530000Y-60960000D02*
X77530000Y-62070000D01*
X77530000Y-62070000D02*
X76200000Y-62070000D01*
X75992860Y-48330000D02*
X75992860Y-56960000D01*
X75284290Y-48330000D02*
X75284290Y-56960000D01*
X65680000Y-56960000D02*
X65680000Y-57370000D01*
X71480000Y-56960000D02*
X71480000Y-57370000D01*
X76937620Y-48330000D02*
X76937620Y-56960000D01*
X76465240Y-48330000D02*
X76465240Y-56960000D01*
X75638575Y-48330000D02*
X75638575Y-56960000D01*
X77530000Y-48330000D02*
X62170000Y-48330000D01*
X75840000Y-56960000D02*
X75840000Y-57370000D01*
X76110955Y-48330000D02*
X76110955Y-56960000D01*
X76560000Y-56960000D02*
X76560000Y-57370000D01*
X75402385Y-48330000D02*
X75402385Y-56960000D01*
X74020000Y-59470000D02*
X74020000Y-59910000D01*
X63140000Y-56960000D02*
X63140000Y-57370000D01*
X63140000Y-59470000D02*
X63140000Y-59910000D01*
X76347145Y-48330000D02*
X76347145Y-56960000D01*
X75874765Y-48330000D02*
X75874765Y-56960000D01*
X76229050Y-48330000D02*
X76229050Y-56960000D01*
X68220000Y-59470000D02*
X68220000Y-59910000D01*
X77291905Y-48330000D02*
X77291905Y-56960000D01*
X76560000Y-59470000D02*
X76560000Y-59850000D01*
X68220000Y-56960000D02*
X68220000Y-57370000D01*
X75166195Y-48330000D02*
X75166195Y-56960000D01*
X66400000Y-59470000D02*
X66400000Y-59910000D01*
X64770000Y-48330000D02*
X64770000Y-56960000D01*
X77530000Y-48330000D02*
X77530000Y-56960000D01*
X72390000Y-48330000D02*
X72390000Y-56960000D01*
X63860000Y-56960000D02*
X63860000Y-57370000D01*
X65680000Y-59470000D02*
X65680000Y-59910000D01*
X68940000Y-56960000D02*
X68940000Y-57370000D01*
X62170000Y-48330000D02*
X62170000Y-56960000D01*
X68940000Y-59470000D02*
X68940000Y-59910000D01*
X74930000Y-48330000D02*
X74930000Y-56960000D01*
X73300000Y-56960000D02*
X73300000Y-57370000D01*
X76701430Y-48330000D02*
X76701430Y-56960000D01*
X75756670Y-48330000D02*
X75756670Y-56960000D01*
X77173810Y-48330000D02*
X77173810Y-56960000D01*
X71480000Y-59470000D02*
X71480000Y-59910000D01*
X66400000Y-56960000D02*
X66400000Y-57370000D01*
X77530000Y-56960000D02*
X62170000Y-56960000D01*
X76583335Y-48330000D02*
X76583335Y-56960000D01*
X73300000Y-59470000D02*
X73300000Y-59910000D01*
X77055715Y-48330000D02*
X77055715Y-56960000D01*
X77410000Y-48330000D02*
X77410000Y-56960000D01*
X69850000Y-48330000D02*
X69850000Y-56960000D01*
%TO.C,PMOD5*%
X100270000Y-48330000D02*
X100270000Y-56960000D01*
X95250000Y-48330000D02*
X95250000Y-56960000D01*
X85030000Y-48330000D02*
X85030000Y-56960000D01*
X97790000Y-48330000D02*
X97790000Y-56960000D01*
X100033810Y-48330000D02*
X100033810Y-56960000D01*
X99420000Y-56960000D02*
X99420000Y-57370000D01*
X91800000Y-56960000D02*
X91800000Y-57370000D01*
X98498575Y-48330000D02*
X98498575Y-56960000D01*
X86000000Y-56960000D02*
X86000000Y-57370000D01*
X100390000Y-56960000D02*
X85030000Y-56960000D01*
X98616670Y-48330000D02*
X98616670Y-56960000D01*
X98734765Y-48330000D02*
X98734765Y-56960000D01*
X98144290Y-48330000D02*
X98144290Y-56960000D01*
X99089050Y-48330000D02*
X99089050Y-56960000D01*
X89260000Y-59470000D02*
X89260000Y-59910000D01*
X94340000Y-56960000D02*
X94340000Y-57370000D01*
X99797620Y-48330000D02*
X99797620Y-56960000D01*
X88540000Y-56960000D02*
X88540000Y-57370000D01*
X91800000Y-59470000D02*
X91800000Y-59910000D01*
X86000000Y-59470000D02*
X86000000Y-59910000D01*
X100390000Y-48330000D02*
X100390000Y-56960000D01*
X91080000Y-56960000D02*
X91080000Y-57370000D01*
X98700000Y-56960000D02*
X98700000Y-57370000D01*
X99420000Y-59470000D02*
X99420000Y-59850000D01*
X93620000Y-59470000D02*
X93620000Y-59910000D01*
X100151905Y-48330000D02*
X100151905Y-56960000D01*
X98026195Y-48330000D02*
X98026195Y-56960000D01*
X98700000Y-59470000D02*
X98700000Y-59850000D01*
X99679525Y-48330000D02*
X99679525Y-56960000D01*
X99325240Y-48330000D02*
X99325240Y-56960000D01*
X100390000Y-60960000D02*
X100390000Y-62070000D01*
X98852860Y-48330000D02*
X98852860Y-56960000D01*
X100390000Y-62070000D02*
X99060000Y-62070000D01*
X89260000Y-56960000D02*
X89260000Y-57370000D01*
X96880000Y-59470000D02*
X96880000Y-59910000D01*
X97908100Y-48330000D02*
X97908100Y-56960000D01*
X96880000Y-56960000D02*
X96880000Y-57370000D01*
X98262385Y-48330000D02*
X98262385Y-56960000D01*
X86720000Y-59470000D02*
X86720000Y-59910000D01*
X96160000Y-56960000D02*
X96160000Y-57370000D01*
X93620000Y-56960000D02*
X93620000Y-57370000D01*
X99443335Y-48330000D02*
X99443335Y-56960000D01*
X98380480Y-48330000D02*
X98380480Y-56960000D01*
X87630000Y-48330000D02*
X87630000Y-56960000D01*
X99561430Y-48330000D02*
X99561430Y-56960000D01*
X91080000Y-59470000D02*
X91080000Y-59910000D01*
X99915715Y-48330000D02*
X99915715Y-56960000D01*
X86720000Y-56960000D02*
X86720000Y-57370000D01*
X94340000Y-59470000D02*
X94340000Y-59910000D01*
X99207145Y-48330000D02*
X99207145Y-56960000D01*
X96160000Y-59470000D02*
X96160000Y-59910000D01*
X92710000Y-48330000D02*
X92710000Y-56960000D01*
X98970955Y-48330000D02*
X98970955Y-56960000D01*
X90170000Y-48330000D02*
X90170000Y-56960000D01*
X88540000Y-59470000D02*
X88540000Y-59910000D01*
X100390000Y-48330000D02*
X85030000Y-48330000D01*
%TO.C,PMOD6*%
X116480000Y-56960000D02*
X116480000Y-57370000D01*
X122280000Y-56960000D02*
X122280000Y-57370000D01*
X117200000Y-56960000D02*
X117200000Y-57370000D01*
X121712860Y-48330000D02*
X121712860Y-56960000D01*
X122067145Y-48330000D02*
X122067145Y-56960000D01*
X112120000Y-59470000D02*
X112120000Y-59910000D01*
X109580000Y-56960000D02*
X109580000Y-57370000D01*
X122303335Y-48330000D02*
X122303335Y-56960000D01*
X113940000Y-56960000D02*
X113940000Y-57370000D01*
X121476670Y-48330000D02*
X121476670Y-56960000D01*
X111400000Y-56960000D02*
X111400000Y-57370000D01*
X122185240Y-48330000D02*
X122185240Y-56960000D01*
X121122385Y-48330000D02*
X121122385Y-56960000D01*
X121358575Y-48330000D02*
X121358575Y-56960000D01*
X110490000Y-48330000D02*
X110490000Y-56960000D01*
X122280000Y-59470000D02*
X122280000Y-59850000D01*
X119020000Y-56960000D02*
X119020000Y-57370000D01*
X115570000Y-48330000D02*
X115570000Y-56960000D01*
X108860000Y-56960000D02*
X108860000Y-57370000D01*
X113940000Y-59470000D02*
X113940000Y-59910000D01*
X120886195Y-48330000D02*
X120886195Y-56960000D01*
X123250000Y-62070000D02*
X121920000Y-62070000D01*
X117200000Y-59470000D02*
X117200000Y-59910000D01*
X123250000Y-60960000D02*
X123250000Y-62070000D01*
X122657620Y-48330000D02*
X122657620Y-56960000D01*
X119020000Y-59470000D02*
X119020000Y-59910000D01*
X114660000Y-59470000D02*
X114660000Y-59910000D01*
X123011905Y-48330000D02*
X123011905Y-56960000D01*
X121949050Y-48330000D02*
X121949050Y-56960000D01*
X120650000Y-48330000D02*
X120650000Y-56960000D01*
X113030000Y-48330000D02*
X113030000Y-56960000D01*
X107890000Y-48330000D02*
X107890000Y-56960000D01*
X112120000Y-56960000D02*
X112120000Y-57370000D01*
X116480000Y-59470000D02*
X116480000Y-59910000D01*
X114660000Y-56960000D02*
X114660000Y-57370000D01*
X122421430Y-48330000D02*
X122421430Y-56960000D01*
X122775715Y-48330000D02*
X122775715Y-56960000D01*
X121830955Y-48330000D02*
X121830955Y-56960000D01*
X123250000Y-48330000D02*
X107890000Y-48330000D01*
X118110000Y-48330000D02*
X118110000Y-56960000D01*
X121240480Y-48330000D02*
X121240480Y-56960000D01*
X108860000Y-59470000D02*
X108860000Y-59910000D01*
X122893810Y-48330000D02*
X122893810Y-56960000D01*
X111400000Y-59470000D02*
X111400000Y-59910000D01*
X121594765Y-48330000D02*
X121594765Y-56960000D01*
X122539525Y-48330000D02*
X122539525Y-56960000D01*
X123130000Y-48330000D02*
X123130000Y-56960000D01*
X119740000Y-56960000D02*
X119740000Y-57370000D01*
X121560000Y-59470000D02*
X121560000Y-59850000D01*
X123250000Y-48330000D02*
X123250000Y-56960000D01*
X109580000Y-59470000D02*
X109580000Y-59910000D01*
X121004290Y-48330000D02*
X121004290Y-56960000D01*
X121560000Y-56960000D02*
X121560000Y-57370000D01*
X123250000Y-56960000D02*
X107890000Y-56960000D01*
X119740000Y-59470000D02*
X119740000Y-59910000D01*
X120768100Y-48330000D02*
X120768100Y-56960000D01*
%TD*%
M02*
