%TF.GenerationSoftware,KiCad,Pcbnew,(6.0.5)*%
%TF.CreationDate,2022-05-29T15:24:28+02:00*%
%TF.ProjectId,pmod_peripheral,706d6f64-5f70-4657-9269-70686572616c,rev?*%
%TF.SameCoordinates,Original*%
%TF.FileFunction,Copper,L1,Top*%
%TF.FilePolarity,Positive*%
%FSLAX46Y46*%
G04 Gerber Fmt 4.6, Leading zero omitted, Abs format (unit mm)*
G04 Created by KiCad (PCBNEW (6.0.5)) date 2022-05-29 15:24:28*
%MOMM*%
%LPD*%
G01*
G04 APERTURE LIST*
%TA.AperFunction,ComponentPad*%
%ADD10R,1.700000X1.700000*%
%TD*%
%TA.AperFunction,ComponentPad*%
%ADD11O,1.700000X1.700000*%
%TD*%
%TA.AperFunction,ComponentPad*%
%ADD12C,0.900000*%
%TD*%
%TA.AperFunction,ComponentPad*%
%ADD13C,8.600000*%
%TD*%
%TA.AperFunction,Conductor*%
%ADD14C,0.250000*%
%TD*%
G04 APERTURE END LIST*
D10*
%TO.P,PMOD2,1,Pin_1*%
%TO.N,VCC*%
X99060000Y-83820000D03*
D11*
%TO.P,PMOD2,2,Pin_2*%
X99060000Y-86360000D03*
%TO.P,PMOD2,3,Pin_3*%
%TO.N,GND*%
X96520000Y-83820000D03*
%TO.P,PMOD2,4,Pin_4*%
X96520000Y-86360000D03*
%TO.P,PMOD2,5,Pin_5*%
%TO.N,PMOD_SPI_SCK*%
X93980000Y-83820000D03*
%TO.P,PMOD2,6,Pin_6*%
%TO.N,PMOD_SPI_GPIO4_CS3*%
X93980000Y-86360000D03*
%TO.P,PMOD2,7,Pin_7*%
%TO.N,PMOD_SPI_MISO*%
X91440000Y-83820000D03*
%TO.P,PMOD2,8,Pin_8*%
%TO.N,PMOD_SPI_GPIO3_CS2*%
X91440000Y-86360000D03*
%TO.P,PMOD2,9,Pin_9*%
%TO.N,PMOD_SPI_MOSI*%
X88900000Y-83820000D03*
%TO.P,PMOD2,10,Pin_10*%
%TO.N,PMOD_SPI_GPIO2_RESET*%
X88900000Y-86360000D03*
%TO.P,PMOD2,11,Pin_11*%
%TO.N,PMOD_SPI_CS*%
X86360000Y-83820000D03*
%TO.P,PMOD2,12,Pin_12*%
%TO.N,PMOD_SPI_GPIO1_INT*%
X86360000Y-86360000D03*
%TD*%
D10*
%TO.P,PMOD3,1,Pin_1*%
%TO.N,VCC*%
X121920000Y-83820000D03*
D11*
%TO.P,PMOD3,2,Pin_2*%
X121920000Y-86360000D03*
%TO.P,PMOD3,3,Pin_3*%
%TO.N,GND*%
X119380000Y-83820000D03*
%TO.P,PMOD3,4,Pin_4*%
X119380000Y-86360000D03*
%TO.P,PMOD3,5,Pin_5*%
%TO.N,PMOD_UART_RTS*%
X116840000Y-83820000D03*
%TO.P,PMOD3,6,Pin_6*%
%TO.N,PMOD_UART_GPIO4*%
X116840000Y-86360000D03*
%TO.P,PMOD3,7,Pin_7*%
%TO.N,PMOD_UART_RXD*%
X114300000Y-83820000D03*
%TO.P,PMOD3,8,Pin_8*%
%TO.N,PMOD_UART_GPIO3*%
X114300000Y-86360000D03*
%TO.P,PMOD3,9,Pin_9*%
%TO.N,PMOD_UART_TXD*%
X111760000Y-83820000D03*
%TO.P,PMOD3,10,Pin_10*%
%TO.N,PMOD_UART_GPIO2_RESET*%
X111760000Y-86360000D03*
%TO.P,PMOD3,11,Pin_11*%
%TO.N,PMOD_UART_CTS*%
X109220000Y-83820000D03*
%TO.P,PMOD3,12,Pin_12*%
%TO.N,PMOD_UART_GPIO1_INT*%
X109220000Y-86360000D03*
%TD*%
D10*
%TO.P,PMOD1,1,Pin_1*%
%TO.N,VCC*%
X76200000Y-83820000D03*
D11*
%TO.P,PMOD1,2,Pin_2*%
X76200000Y-86360000D03*
%TO.P,PMOD1,3,Pin_3*%
%TO.N,GND*%
X73660000Y-83820000D03*
%TO.P,PMOD1,4,Pin_4*%
X73660000Y-86360000D03*
%TO.P,PMOD1,5,Pin_5*%
%TO.N,PMOD_I2C_SDA*%
X71120000Y-83820000D03*
%TO.P,PMOD1,6,Pin_6*%
%TO.N,PMOD_I2C_GPIO4*%
X71120000Y-86360000D03*
%TO.P,PMOD1,7,Pin_7*%
%TO.N,PMOD_I2C_SCL*%
X68580000Y-83820000D03*
%TO.P,PMOD1,8,Pin_8*%
%TO.N,PMOD_I2C_GPIO3*%
X68580000Y-86360000D03*
%TO.P,PMOD1,9,Pin_9*%
%TO.N,PMOD_I2C_RESET*%
X66040000Y-83820000D03*
%TO.P,PMOD1,10,Pin_10*%
%TO.N,PMOD_I2C_GPIO2*%
X66040000Y-86360000D03*
%TO.P,PMOD1,11,Pin_11*%
%TO.N,PMOD_I2C_INT*%
X63500000Y-83820000D03*
%TO.P,PMOD1,12,Pin_12*%
%TO.N,PMOD_I2C_GPIO1*%
X63500000Y-86360000D03*
%TD*%
D10*
%TO.P,J4,1,Pin_1*%
%TO.N,PMOD_I2C_INT*%
X63500000Y-68580000D03*
D11*
%TO.P,J4,2,Pin_2*%
%TO.N,PMOD_I2C_GPIO1*%
X63500000Y-66040000D03*
%TO.P,J4,3,Pin_3*%
%TO.N,PMOD_I2C_RESET*%
X66040000Y-68580000D03*
%TO.P,J4,4,Pin_4*%
%TO.N,PMOD_I2C_GPIO2*%
X66040000Y-66040000D03*
%TO.P,J4,5,Pin_5*%
%TO.N,PMOD_I2C_SCL*%
X68580000Y-68580000D03*
%TO.P,J4,6,Pin_6*%
%TO.N,PMOD_I2C_GPIO3*%
X68580000Y-66040000D03*
%TO.P,J4,7,Pin_7*%
%TO.N,PMOD_I2C_SDA*%
X71120000Y-68580000D03*
%TO.P,J4,8,Pin_8*%
%TO.N,PMOD_I2C_GPIO4*%
X71120000Y-66040000D03*
%TO.P,J4,9,Pin_9*%
%TO.N,GND*%
X73660000Y-68580000D03*
%TO.P,J4,10,Pin_10*%
X73660000Y-66040000D03*
%TO.P,J4,11,Pin_11*%
%TO.N,VCC*%
X76200000Y-68580000D03*
%TO.P,J4,12,Pin_12*%
X76200000Y-66040000D03*
%TD*%
D10*
%TO.P,J5,1,Pin_1*%
%TO.N,PMOD_SPI_CS*%
X86360000Y-68580000D03*
D11*
%TO.P,J5,2,Pin_2*%
%TO.N,PMOD_SPI_GPIO1_INT*%
X86360000Y-66040000D03*
%TO.P,J5,3,Pin_3*%
%TO.N,PMOD_SPI_MOSI*%
X88900000Y-68580000D03*
%TO.P,J5,4,Pin_4*%
%TO.N,PMOD_SPI_GPIO2_RESET*%
X88900000Y-66040000D03*
%TO.P,J5,5,Pin_5*%
%TO.N,PMOD_SPI_MISO*%
X91440000Y-68580000D03*
%TO.P,J5,6,Pin_6*%
%TO.N,PMOD_SPI_GPIO3_CS2*%
X91440000Y-66040000D03*
%TO.P,J5,7,Pin_7*%
%TO.N,PMOD_SPI_SCK*%
X93980000Y-68580000D03*
%TO.P,J5,8,Pin_8*%
%TO.N,PMOD_SPI_GPIO4_CS3*%
X93980000Y-66040000D03*
%TO.P,J5,9,Pin_9*%
%TO.N,GND*%
X96520000Y-68580000D03*
%TO.P,J5,10,Pin_10*%
X96520000Y-66040000D03*
%TO.P,J5,11,Pin_11*%
%TO.N,VCC*%
X99060000Y-68580000D03*
%TO.P,J5,12,Pin_12*%
X99060000Y-66040000D03*
%TD*%
D10*
%TO.P,J6,1,Pin_1*%
%TO.N,PMOD_UART_CTS*%
X109220000Y-68580000D03*
D11*
%TO.P,J6,2,Pin_2*%
%TO.N,PMOD_UART_GPIO1_INT*%
X109220000Y-66040000D03*
%TO.P,J6,3,Pin_3*%
%TO.N,PMOD_UART_TXD*%
X111760000Y-68580000D03*
%TO.P,J6,4,Pin_4*%
%TO.N,PMOD_UART_GPIO2_RESET*%
X111760000Y-66040000D03*
%TO.P,J6,5,Pin_5*%
%TO.N,PMOD_UART_RXD*%
X114300000Y-68580000D03*
%TO.P,J6,6,Pin_6*%
%TO.N,PMOD_UART_GPIO3*%
X114300000Y-66040000D03*
%TO.P,J6,7,Pin_7*%
%TO.N,PMOD_UART_RTS*%
X116840000Y-68580000D03*
%TO.P,J6,8,Pin_8*%
%TO.N,PMOD_UART_GPIO4*%
X116840000Y-66040000D03*
%TO.P,J6,9,Pin_9*%
%TO.N,GND*%
X119380000Y-68580000D03*
%TO.P,J6,10,Pin_10*%
X119380000Y-66040000D03*
%TO.P,J6,11,Pin_11*%
%TO.N,VCC*%
X121920000Y-68580000D03*
%TO.P,J6,12,Pin_12*%
X121920000Y-66040000D03*
%TD*%
D12*
%TO.P,H3,1*%
%TO.N,N/C*%
X55620419Y-84079581D03*
X50115000Y-86360000D03*
X56565000Y-86360000D03*
X55620419Y-88640419D03*
X51059581Y-88640419D03*
X53340000Y-83135000D03*
X51059581Y-84079581D03*
X53340000Y-89585000D03*
D13*
X53340000Y-86360000D03*
%TD*%
D12*
%TO.P,H1,1*%
%TO.N,N/C*%
X53340000Y-56565000D03*
X50115000Y-53340000D03*
X51059581Y-51059581D03*
X56565000Y-53340000D03*
D13*
X53340000Y-53340000D03*
D12*
X53340000Y-50115000D03*
X51059581Y-55620419D03*
X55620419Y-55620419D03*
X55620419Y-51059581D03*
%TD*%
D10*
%TO.P,PMOD4,1,Pin_1*%
%TO.N,VCC*%
X76200000Y-60960000D03*
D11*
%TO.P,PMOD4,2,Pin_2*%
X76200000Y-58420000D03*
%TO.P,PMOD4,3,Pin_3*%
%TO.N,GND*%
X73660000Y-60960000D03*
%TO.P,PMOD4,4,Pin_4*%
X73660000Y-58420000D03*
%TO.P,PMOD4,5,Pin_5*%
%TO.N,PMOD_I2C_SDA*%
X71120000Y-60960000D03*
%TO.P,PMOD4,6,Pin_6*%
%TO.N,PMOD_I2C_GPIO4*%
X71120000Y-58420000D03*
%TO.P,PMOD4,7,Pin_7*%
%TO.N,PMOD_I2C_SCL*%
X68580000Y-60960000D03*
%TO.P,PMOD4,8,Pin_8*%
%TO.N,PMOD_I2C_GPIO3*%
X68580000Y-58420000D03*
%TO.P,PMOD4,9,Pin_9*%
%TO.N,PMOD_I2C_RESET*%
X66040000Y-60960000D03*
%TO.P,PMOD4,10,Pin_10*%
%TO.N,PMOD_I2C_GPIO2*%
X66040000Y-58420000D03*
%TO.P,PMOD4,11,Pin_11*%
%TO.N,PMOD_I2C_INT*%
X63500000Y-60960000D03*
%TO.P,PMOD4,12,Pin_12*%
%TO.N,PMOD_I2C_GPIO1*%
X63500000Y-58420000D03*
%TD*%
D12*
%TO.P,H4,1*%
%TO.N,N/C*%
X132080000Y-89585000D03*
X134360419Y-84079581D03*
X132080000Y-83135000D03*
D13*
X132080000Y-86360000D03*
D12*
X129799581Y-88640419D03*
X128855000Y-86360000D03*
X135305000Y-86360000D03*
X129799581Y-84079581D03*
X134360419Y-88640419D03*
%TD*%
D10*
%TO.P,PMOD5,1,Pin_1*%
%TO.N,VCC*%
X99060000Y-60960000D03*
D11*
%TO.P,PMOD5,2,Pin_2*%
X99060000Y-58420000D03*
%TO.P,PMOD5,3,Pin_3*%
%TO.N,GND*%
X96520000Y-60960000D03*
%TO.P,PMOD5,4,Pin_4*%
X96520000Y-58420000D03*
%TO.P,PMOD5,5,Pin_5*%
%TO.N,PMOD_SPI_SCK*%
X93980000Y-60960000D03*
%TO.P,PMOD5,6,Pin_6*%
%TO.N,PMOD_SPI_GPIO4_CS3*%
X93980000Y-58420000D03*
%TO.P,PMOD5,7,Pin_7*%
%TO.N,PMOD_SPI_MISO*%
X91440000Y-60960000D03*
%TO.P,PMOD5,8,Pin_8*%
%TO.N,PMOD_SPI_GPIO3_CS2*%
X91440000Y-58420000D03*
%TO.P,PMOD5,9,Pin_9*%
%TO.N,PMOD_SPI_MOSI*%
X88900000Y-60960000D03*
%TO.P,PMOD5,10,Pin_10*%
%TO.N,PMOD_SPI_GPIO2_RESET*%
X88900000Y-58420000D03*
%TO.P,PMOD5,11,Pin_11*%
%TO.N,PMOD_SPI_CS*%
X86360000Y-60960000D03*
%TO.P,PMOD5,12,Pin_12*%
%TO.N,PMOD_SPI_GPIO1_INT*%
X86360000Y-58420000D03*
%TD*%
D10*
%TO.P,PMOD6,1,Pin_1*%
%TO.N,VCC*%
X121920000Y-60960000D03*
D11*
%TO.P,PMOD6,2,Pin_2*%
X121920000Y-58420000D03*
%TO.P,PMOD6,3,Pin_3*%
%TO.N,GND*%
X119380000Y-60960000D03*
%TO.P,PMOD6,4,Pin_4*%
X119380000Y-58420000D03*
%TO.P,PMOD6,5,Pin_5*%
%TO.N,PMOD_UART_RTS*%
X116840000Y-60960000D03*
%TO.P,PMOD6,6,Pin_6*%
%TO.N,PMOD_UART_GPIO4*%
X116840000Y-58420000D03*
%TO.P,PMOD6,7,Pin_7*%
%TO.N,PMOD_UART_RXD*%
X114300000Y-60960000D03*
%TO.P,PMOD6,8,Pin_8*%
%TO.N,PMOD_UART_GPIO3*%
X114300000Y-58420000D03*
%TO.P,PMOD6,9,Pin_9*%
%TO.N,PMOD_UART_TXD*%
X111760000Y-60960000D03*
%TO.P,PMOD6,10,Pin_10*%
%TO.N,PMOD_UART_GPIO2_RESET*%
X111760000Y-58420000D03*
%TO.P,PMOD6,11,Pin_11*%
%TO.N,PMOD_UART_CTS*%
X109220000Y-60960000D03*
%TO.P,PMOD6,12,Pin_12*%
%TO.N,PMOD_UART_GPIO1_INT*%
X109220000Y-58420000D03*
%TD*%
D12*
%TO.P,H2,1*%
%TO.N,N/C*%
X132080000Y-56565000D03*
X135305000Y-53340000D03*
D13*
X132080000Y-53340000D03*
D12*
X134360419Y-51059581D03*
X129799581Y-55620419D03*
X128855000Y-53340000D03*
X129799581Y-51059581D03*
X134360419Y-55620419D03*
X132080000Y-50115000D03*
%TD*%
D14*
%TO.N,PMOD_UART_GPIO4*%
X116840000Y-66040000D02*
X118014511Y-64865489D01*
X115665489Y-85185489D02*
X116840000Y-86360000D01*
X118014511Y-59594511D02*
X116840000Y-58420000D01*
X116840000Y-66040000D02*
X115665489Y-67214511D01*
X115665489Y-67214511D02*
X115665489Y-85185489D01*
X118014511Y-64865489D02*
X118014511Y-59594511D01*
%TO.N,PMOD_UART_GPIO3*%
X115474511Y-64865489D02*
X115474511Y-59594511D01*
X114300000Y-66040000D02*
X115474511Y-64865489D01*
X113125489Y-67214511D02*
X113125489Y-85185489D01*
X114300000Y-66040000D02*
X113125489Y-67214511D01*
X113125489Y-85185489D02*
X114300000Y-86360000D01*
X115474511Y-59594511D02*
X114300000Y-58420000D01*
%TO.N,PMOD_UART_GPIO2_RESET*%
X112934511Y-64865489D02*
X112934511Y-59594511D01*
X110585489Y-85185489D02*
X111760000Y-86360000D01*
X112934511Y-59594511D02*
X111760000Y-58420000D01*
X111760000Y-66040000D02*
X110585489Y-67214511D01*
X111760000Y-66040000D02*
X112934511Y-64865489D01*
X110585489Y-67214511D02*
X110585489Y-85185489D01*
%TO.N,PMOD_UART_GPIO1_INT*%
X108045489Y-67214511D02*
X108045489Y-85185489D01*
X110394511Y-59594511D02*
X109220000Y-58420000D01*
X110394511Y-64865489D02*
X110394511Y-59594511D01*
X109220000Y-66040000D02*
X108045489Y-67214511D01*
X109220000Y-66040000D02*
X110394511Y-64865489D01*
X108045489Y-85185489D02*
X109220000Y-86360000D01*
%TO.N,PMOD_UART_RTS*%
X116840000Y-68580000D02*
X116840000Y-83820000D01*
%TO.N,PMOD_UART_RXD*%
X114300000Y-68580000D02*
X114300000Y-83820000D01*
%TO.N,PMOD_UART_TXD*%
X111760000Y-68580000D02*
X111760000Y-83820000D01*
%TO.N,PMOD_UART_CTS*%
X109220000Y-68580000D02*
X109220000Y-83820000D01*
%TO.N,PMOD_SPI_SCK*%
X93980000Y-68580000D02*
X93980000Y-83820000D01*
%TO.N,PMOD_SPI_MOSI*%
X88900000Y-68580000D02*
X88900000Y-83820000D01*
%TO.N,PMOD_SPI_MISO*%
X91440000Y-68580000D02*
X91440000Y-83820000D01*
%TO.N,PMOD_SPI_GPIO4_CS3*%
X95154511Y-59594511D02*
X93980000Y-58420000D01*
X92805489Y-85185489D02*
X93980000Y-86360000D01*
X93980000Y-66040000D02*
X92805489Y-67214511D01*
X93980000Y-66040000D02*
X95154511Y-64865489D01*
X92805489Y-67214511D02*
X92805489Y-85185489D01*
X95154511Y-64865489D02*
X95154511Y-59594511D01*
%TO.N,PMOD_SPI_GPIO3_CS2*%
X92614511Y-59594511D02*
X91440000Y-58420000D01*
X90265489Y-85185489D02*
X91440000Y-86360000D01*
X92614511Y-64865489D02*
X92614511Y-59594511D01*
X91440000Y-66040000D02*
X92614511Y-64865489D01*
X90265489Y-67214511D02*
X90265489Y-85185489D01*
X91440000Y-66040000D02*
X90265489Y-67214511D01*
%TO.N,PMOD_SPI_GPIO2_RESET*%
X88900000Y-66040000D02*
X90074511Y-64865489D01*
X87725489Y-67214511D02*
X87725489Y-85185489D01*
X88900000Y-66040000D02*
X87725489Y-67214511D01*
X87725489Y-85185489D02*
X88900000Y-86360000D01*
X90074511Y-59594511D02*
X88900000Y-58420000D01*
X90074511Y-64865489D02*
X90074511Y-59594511D01*
%TO.N,PMOD_SPI_GPIO1_INT*%
X86360000Y-66040000D02*
X87534511Y-64865489D01*
X85185489Y-67214511D02*
X85185489Y-85185489D01*
X85185489Y-85185489D02*
X86360000Y-86360000D01*
X87534511Y-59594511D02*
X86360000Y-58420000D01*
X86360000Y-66040000D02*
X85185489Y-67214511D01*
X87534511Y-64865489D02*
X87534511Y-59594511D01*
%TO.N,PMOD_SPI_CS*%
X86360000Y-68580000D02*
X86360000Y-83820000D01*
%TO.N,PMOD_I2C_SDA*%
X71120000Y-83820000D02*
X71120000Y-68580000D01*
%TO.N,PMOD_I2C_SCL*%
X68580000Y-68580000D02*
X68580000Y-83820000D01*
%TO.N,PMOD_I2C_RESET*%
X66040000Y-68580000D02*
X66040000Y-83820000D01*
%TO.N,PMOD_I2C_INT*%
X63500000Y-68580000D02*
X63500000Y-83820000D01*
%TO.N,PMOD_I2C_GPIO4*%
X71120000Y-66040000D02*
X69945489Y-67214511D01*
X71120000Y-66040000D02*
X72294511Y-64865489D01*
X69945489Y-67214511D02*
X69945489Y-85185489D01*
X72294511Y-59594511D02*
X71120000Y-58420000D01*
X72294511Y-64865489D02*
X72294511Y-59594511D01*
X69945489Y-85185489D02*
X71120000Y-86360000D01*
%TO.N,PMOD_I2C_GPIO3*%
X68580000Y-66040000D02*
X67405489Y-67214511D01*
X67405489Y-85185489D02*
X68580000Y-86360000D01*
X67405489Y-67214511D02*
X67405489Y-85185489D01*
X69754511Y-64865489D02*
X69754511Y-59594511D01*
X68580000Y-66040000D02*
X69754511Y-64865489D01*
X69754511Y-59594511D02*
X68580000Y-58420000D01*
%TO.N,PMOD_I2C_GPIO2*%
X67214511Y-59594511D02*
X66040000Y-58420000D01*
X66040000Y-66040000D02*
X67214511Y-64865489D01*
X66040000Y-66040000D02*
X64865489Y-67214511D01*
X64865489Y-67214511D02*
X64865489Y-85185489D01*
X67214511Y-64865489D02*
X67214511Y-59594511D01*
X64865489Y-85185489D02*
X66040000Y-86360000D01*
%TO.N,PMOD_I2C_GPIO1*%
X64674511Y-64865489D02*
X64674511Y-59594511D01*
X63500000Y-66040000D02*
X64674511Y-64865489D01*
X63500000Y-66040000D02*
X62325489Y-67214511D01*
X62325489Y-67214511D02*
X62325489Y-85185489D01*
X62325489Y-85185489D02*
X63500000Y-86360000D01*
X64674511Y-59594511D02*
X63500000Y-58420000D01*
%TD*%
%TA.AperFunction,Conductor*%
%TO.N,VCC*%
G36*
X130004543Y-48788502D02*
G01*
X130051036Y-48842158D01*
X130061140Y-48912432D01*
X130031646Y-48977012D01*
X129989173Y-49008926D01*
X129872361Y-49062777D01*
X129500880Y-49275957D01*
X129498577Y-49277566D01*
X129498570Y-49277571D01*
X129152129Y-49519701D01*
X129149820Y-49521315D01*
X128821961Y-49796909D01*
X128519899Y-50100557D01*
X128246025Y-50429855D01*
X128002508Y-50782194D01*
X127791276Y-51154786D01*
X127614002Y-51544680D01*
X127613080Y-51547306D01*
X127613075Y-51547318D01*
X127573633Y-51659634D01*
X127472089Y-51948790D01*
X127366661Y-52363914D01*
X127298552Y-52786768D01*
X127268302Y-53214001D01*
X127276151Y-53642233D01*
X127322036Y-54068071D01*
X127405594Y-54488144D01*
X127526163Y-54899127D01*
X127527190Y-54901740D01*
X127527190Y-54901741D01*
X127665651Y-55254145D01*
X127682789Y-55297765D01*
X127741316Y-55414896D01*
X127852161Y-55636731D01*
X127874231Y-55680901D01*
X128098974Y-56045502D01*
X128355239Y-56388682D01*
X128357100Y-56390760D01*
X128357101Y-56390761D01*
X128639127Y-56705637D01*
X128639133Y-56705643D01*
X128640995Y-56707722D01*
X128953981Y-57000098D01*
X129291719Y-57263493D01*
X129651533Y-57495822D01*
X129654012Y-57497126D01*
X129654015Y-57497128D01*
X130028077Y-57693932D01*
X130028083Y-57693935D01*
X130030577Y-57695247D01*
X130033175Y-57696331D01*
X130033179Y-57696333D01*
X130423263Y-57859109D01*
X130423268Y-57859111D01*
X130425847Y-57860187D01*
X130428512Y-57861030D01*
X130428518Y-57861032D01*
X130650561Y-57931254D01*
X130834214Y-57989336D01*
X131252446Y-58081673D01*
X131255220Y-58082031D01*
X131255221Y-58082031D01*
X131674460Y-58136109D01*
X131674467Y-58136110D01*
X131677230Y-58136466D01*
X131680017Y-58136576D01*
X131680023Y-58136576D01*
X131928238Y-58146328D01*
X132105203Y-58153281D01*
X132107995Y-58153142D01*
X132108000Y-58153142D01*
X132530172Y-58132125D01*
X132530181Y-58132124D01*
X132532976Y-58131985D01*
X132535753Y-58131597D01*
X132535755Y-58131597D01*
X132610066Y-58121219D01*
X132957163Y-58072747D01*
X133374404Y-57976036D01*
X133588307Y-57905915D01*
X133778744Y-57843487D01*
X133778750Y-57843485D01*
X133781397Y-57842617D01*
X134174918Y-57673547D01*
X134551852Y-57470164D01*
X134909214Y-57234080D01*
X135244175Y-56967162D01*
X135554082Y-56671525D01*
X135555919Y-56669431D01*
X135555927Y-56669422D01*
X135834635Y-56351616D01*
X135836482Y-56349510D01*
X136089139Y-56003666D01*
X136090585Y-56001265D01*
X136308601Y-55639142D01*
X136308606Y-55639133D01*
X136310052Y-55636731D01*
X136412204Y-55426823D01*
X136459998Y-55374323D01*
X136528588Y-55355997D01*
X136596198Y-55377663D01*
X136641362Y-55432442D01*
X136651500Y-55481959D01*
X136651500Y-84209490D01*
X136631498Y-84277611D01*
X136577842Y-84324104D01*
X136507568Y-84334208D01*
X136442988Y-84304714D01*
X136414300Y-84268740D01*
X136362939Y-84172347D01*
X136223050Y-83909807D01*
X136151257Y-83799886D01*
X135990381Y-83553573D01*
X135990378Y-83553569D01*
X135988840Y-83551214D01*
X135723680Y-83214860D01*
X135485110Y-82962138D01*
X135431596Y-82905449D01*
X135431593Y-82905446D01*
X135429670Y-82903409D01*
X135427579Y-82901556D01*
X135427571Y-82901548D01*
X135111237Y-82621188D01*
X135111235Y-82621186D01*
X135109137Y-82619327D01*
X135085293Y-82601715D01*
X134970159Y-82516676D01*
X134764621Y-82364863D01*
X134571733Y-82247355D01*
X134401237Y-82143487D01*
X134401230Y-82143483D01*
X134398848Y-82142032D01*
X134281514Y-82084169D01*
X134017228Y-81953838D01*
X134014714Y-81952598D01*
X133615262Y-81798062D01*
X133368678Y-81727122D01*
X133206335Y-81680417D01*
X133206329Y-81680415D01*
X133203654Y-81679646D01*
X133200917Y-81679117D01*
X133200911Y-81679115D01*
X133055828Y-81651046D01*
X132783148Y-81598289D01*
X132780374Y-81598005D01*
X132780362Y-81598003D01*
X132497111Y-81568982D01*
X132357076Y-81554634D01*
X132354286Y-81554597D01*
X132354278Y-81554597D01*
X132086825Y-81551096D01*
X131928809Y-81549028D01*
X131926009Y-81549241D01*
X131926008Y-81549241D01*
X131851364Y-81554919D01*
X131501740Y-81581514D01*
X131079249Y-81651836D01*
X130993671Y-81674048D01*
X130667400Y-81758731D01*
X130667389Y-81758734D01*
X130664682Y-81759437D01*
X130406575Y-81851599D01*
X130263964Y-81902520D01*
X130263959Y-81902522D01*
X130261321Y-81903464D01*
X130258781Y-81904635D01*
X130258776Y-81904637D01*
X130156930Y-81951589D01*
X129872361Y-82082777D01*
X129500880Y-82295957D01*
X129498577Y-82297566D01*
X129498570Y-82297571D01*
X129172857Y-82525214D01*
X129149820Y-82541315D01*
X128821961Y-82816909D01*
X128519899Y-83120557D01*
X128246025Y-83449855D01*
X128244431Y-83452162D01*
X128244429Y-83452164D01*
X128169806Y-83560135D01*
X128002508Y-83802194D01*
X127791276Y-84174786D01*
X127614002Y-84564680D01*
X127613080Y-84567306D01*
X127613075Y-84567318D01*
X127532333Y-84797240D01*
X127472089Y-84968790D01*
X127471398Y-84971510D01*
X127471397Y-84971514D01*
X127371140Y-85366279D01*
X127366661Y-85383914D01*
X127298552Y-85806768D01*
X127268302Y-86234001D01*
X127276151Y-86662233D01*
X127322036Y-87088071D01*
X127405594Y-87508144D01*
X127526163Y-87919127D01*
X127527190Y-87921740D01*
X127527190Y-87921741D01*
X127665651Y-88274145D01*
X127682789Y-88317765D01*
X127741316Y-88434896D01*
X127852161Y-88656731D01*
X127874231Y-88700901D01*
X128098974Y-89065502D01*
X128355239Y-89408682D01*
X128357100Y-89410760D01*
X128357101Y-89410761D01*
X128639127Y-89725637D01*
X128639133Y-89725643D01*
X128640995Y-89727722D01*
X128953981Y-90020098D01*
X129291719Y-90283493D01*
X129651533Y-90515822D01*
X129654012Y-90517126D01*
X129654015Y-90517128D01*
X129990178Y-90693992D01*
X130041151Y-90743411D01*
X130057314Y-90812544D01*
X130033535Y-90879440D01*
X129977364Y-90922860D01*
X129931511Y-90931500D01*
X55492547Y-90931500D01*
X55424426Y-90911498D01*
X55377933Y-90857842D01*
X55367829Y-90787568D01*
X55397323Y-90722988D01*
X55435166Y-90694006D01*
X55434918Y-90693547D01*
X55811852Y-90490164D01*
X56169214Y-90254080D01*
X56504175Y-89987162D01*
X56814082Y-89691525D01*
X56815919Y-89689431D01*
X56815927Y-89689422D01*
X57094635Y-89371616D01*
X57096482Y-89369510D01*
X57349139Y-89023666D01*
X57350585Y-89021265D01*
X57568601Y-88659142D01*
X57568606Y-88659133D01*
X57570052Y-88656731D01*
X57705551Y-88378299D01*
X57756238Y-88274145D01*
X57756239Y-88274142D01*
X57757471Y-88271611D01*
X57890724Y-87921741D01*
X57908918Y-87873971D01*
X57908920Y-87873964D01*
X57909914Y-87871355D01*
X58026173Y-87459132D01*
X58026689Y-87456389D01*
X58104811Y-87040954D01*
X58104813Y-87040942D01*
X58105327Y-87038207D01*
X58146750Y-86611911D01*
X58151603Y-86426590D01*
X58153289Y-86362234D01*
X58153289Y-86362220D01*
X58153347Y-86360000D01*
X58134291Y-85932121D01*
X58132143Y-85916124D01*
X58104893Y-85713247D01*
X58077275Y-85507630D01*
X58076033Y-85502138D01*
X57983368Y-85092618D01*
X57983368Y-85092617D01*
X57982750Y-85089887D01*
X57888509Y-84797240D01*
X57852318Y-84684856D01*
X57852316Y-84684849D01*
X57851463Y-84682202D01*
X57699828Y-84324104D01*
X57685550Y-84290384D01*
X57685548Y-84290379D01*
X57684456Y-84287801D01*
X57483050Y-83909807D01*
X57411257Y-83799886D01*
X57250381Y-83553573D01*
X57250378Y-83553569D01*
X57248840Y-83551214D01*
X56983680Y-83214860D01*
X56745110Y-82962138D01*
X56691596Y-82905449D01*
X56691593Y-82905446D01*
X56689670Y-82903409D01*
X56687579Y-82901556D01*
X56687571Y-82901548D01*
X56371237Y-82621188D01*
X56371235Y-82621186D01*
X56369137Y-82619327D01*
X56345293Y-82601715D01*
X56230159Y-82516676D01*
X56024621Y-82364863D01*
X55831733Y-82247355D01*
X55661237Y-82143487D01*
X55661230Y-82143483D01*
X55658848Y-82142032D01*
X55541514Y-82084169D01*
X55277228Y-81953838D01*
X55274714Y-81952598D01*
X54875262Y-81798062D01*
X54628678Y-81727122D01*
X54466335Y-81680417D01*
X54466329Y-81680415D01*
X54463654Y-81679646D01*
X54460917Y-81679117D01*
X54460911Y-81679115D01*
X54315828Y-81651046D01*
X54043148Y-81598289D01*
X54040374Y-81598005D01*
X54040362Y-81598003D01*
X53757111Y-81568982D01*
X53617076Y-81554634D01*
X53614286Y-81554597D01*
X53614278Y-81554597D01*
X53346825Y-81551096D01*
X53188809Y-81549028D01*
X53186009Y-81549241D01*
X53186008Y-81549241D01*
X53111364Y-81554919D01*
X52761740Y-81581514D01*
X52339249Y-81651836D01*
X52253671Y-81674048D01*
X51927400Y-81758731D01*
X51927389Y-81758734D01*
X51924682Y-81759437D01*
X51666575Y-81851599D01*
X51523964Y-81902520D01*
X51523959Y-81902522D01*
X51521321Y-81903464D01*
X51518781Y-81904635D01*
X51518776Y-81904637D01*
X51416930Y-81951589D01*
X51132361Y-82082777D01*
X50760880Y-82295957D01*
X50758577Y-82297566D01*
X50758570Y-82297571D01*
X50432857Y-82525214D01*
X50409820Y-82541315D01*
X50081961Y-82816909D01*
X49779899Y-83120557D01*
X49506025Y-83449855D01*
X49504431Y-83452162D01*
X49504429Y-83452164D01*
X49429806Y-83560135D01*
X49262508Y-83802194D01*
X49051276Y-84174786D01*
X49050117Y-84177335D01*
X49050115Y-84177339D01*
X49009201Y-84267325D01*
X48962797Y-84321058D01*
X48894710Y-84341174D01*
X48826556Y-84321285D01*
X48779974Y-84267707D01*
X48768500Y-84215174D01*
X48768500Y-67194454D01*
X61687269Y-67194454D01*
X61688015Y-67202346D01*
X61691430Y-67238472D01*
X61691989Y-67250330D01*
X61691989Y-85106722D01*
X61691462Y-85117905D01*
X61689787Y-85125398D01*
X61690036Y-85133324D01*
X61690036Y-85133325D01*
X61691927Y-85193475D01*
X61691989Y-85197434D01*
X61691989Y-85225345D01*
X61692486Y-85229279D01*
X61692486Y-85229280D01*
X61692494Y-85229345D01*
X61693427Y-85241182D01*
X61694816Y-85285378D01*
X61699771Y-85302433D01*
X61700467Y-85304828D01*
X61704476Y-85324189D01*
X61707015Y-85344286D01*
X61709934Y-85351657D01*
X61709934Y-85351659D01*
X61723293Y-85385401D01*
X61727138Y-85396631D01*
X61739471Y-85439082D01*
X61743504Y-85445901D01*
X61743506Y-85445906D01*
X61749782Y-85456517D01*
X61758477Y-85474265D01*
X61765937Y-85493106D01*
X61770599Y-85499522D01*
X61770599Y-85499523D01*
X61791925Y-85528876D01*
X61798441Y-85538796D01*
X61820947Y-85576851D01*
X61835268Y-85591172D01*
X61848108Y-85606205D01*
X61860017Y-85622596D01*
X61866123Y-85627647D01*
X61894094Y-85650787D01*
X61902873Y-85658777D01*
X62149778Y-85905682D01*
X62183804Y-85967994D01*
X62182100Y-86028448D01*
X62160989Y-86104570D01*
X62160441Y-86109700D01*
X62160440Y-86109704D01*
X62150654Y-86201281D01*
X62137251Y-86326695D01*
X62150110Y-86549715D01*
X62151247Y-86554761D01*
X62151248Y-86554767D01*
X62165449Y-86617778D01*
X62199222Y-86767639D01*
X62283266Y-86974616D01*
X62323918Y-87040954D01*
X62397291Y-87160688D01*
X62399987Y-87165088D01*
X62546250Y-87333938D01*
X62718126Y-87476632D01*
X62911000Y-87589338D01*
X63119692Y-87669030D01*
X63124760Y-87670061D01*
X63124763Y-87670062D01*
X63219862Y-87689410D01*
X63338597Y-87713567D01*
X63343772Y-87713757D01*
X63343774Y-87713757D01*
X63556673Y-87721564D01*
X63556677Y-87721564D01*
X63561837Y-87721753D01*
X63566957Y-87721097D01*
X63566959Y-87721097D01*
X63778288Y-87694025D01*
X63778289Y-87694025D01*
X63783416Y-87693368D01*
X63788366Y-87691883D01*
X63992429Y-87630661D01*
X63992434Y-87630659D01*
X63997384Y-87629174D01*
X64197994Y-87530896D01*
X64379860Y-87401173D01*
X64538096Y-87243489D01*
X64597594Y-87160689D01*
X64668453Y-87062077D01*
X64669776Y-87063028D01*
X64716645Y-87019857D01*
X64786580Y-87007625D01*
X64852026Y-87035144D01*
X64879875Y-87066994D01*
X64939987Y-87165088D01*
X65086250Y-87333938D01*
X65258126Y-87476632D01*
X65451000Y-87589338D01*
X65659692Y-87669030D01*
X65664760Y-87670061D01*
X65664763Y-87670062D01*
X65759862Y-87689410D01*
X65878597Y-87713567D01*
X65883772Y-87713757D01*
X65883774Y-87713757D01*
X66096673Y-87721564D01*
X66096677Y-87721564D01*
X66101837Y-87721753D01*
X66106957Y-87721097D01*
X66106959Y-87721097D01*
X66318288Y-87694025D01*
X66318289Y-87694025D01*
X66323416Y-87693368D01*
X66328366Y-87691883D01*
X66532429Y-87630661D01*
X66532434Y-87630659D01*
X66537384Y-87629174D01*
X66737994Y-87530896D01*
X66919860Y-87401173D01*
X67078096Y-87243489D01*
X67137594Y-87160689D01*
X67208453Y-87062077D01*
X67209776Y-87063028D01*
X67256645Y-87019857D01*
X67326580Y-87007625D01*
X67392026Y-87035144D01*
X67419875Y-87066994D01*
X67479987Y-87165088D01*
X67626250Y-87333938D01*
X67798126Y-87476632D01*
X67991000Y-87589338D01*
X68199692Y-87669030D01*
X68204760Y-87670061D01*
X68204763Y-87670062D01*
X68299862Y-87689410D01*
X68418597Y-87713567D01*
X68423772Y-87713757D01*
X68423774Y-87713757D01*
X68636673Y-87721564D01*
X68636677Y-87721564D01*
X68641837Y-87721753D01*
X68646957Y-87721097D01*
X68646959Y-87721097D01*
X68858288Y-87694025D01*
X68858289Y-87694025D01*
X68863416Y-87693368D01*
X68868366Y-87691883D01*
X69072429Y-87630661D01*
X69072434Y-87630659D01*
X69077384Y-87629174D01*
X69277994Y-87530896D01*
X69459860Y-87401173D01*
X69618096Y-87243489D01*
X69677594Y-87160689D01*
X69748453Y-87062077D01*
X69749776Y-87063028D01*
X69796645Y-87019857D01*
X69866580Y-87007625D01*
X69932026Y-87035144D01*
X69959875Y-87066994D01*
X70019987Y-87165088D01*
X70166250Y-87333938D01*
X70338126Y-87476632D01*
X70531000Y-87589338D01*
X70739692Y-87669030D01*
X70744760Y-87670061D01*
X70744763Y-87670062D01*
X70839862Y-87689410D01*
X70958597Y-87713567D01*
X70963772Y-87713757D01*
X70963774Y-87713757D01*
X71176673Y-87721564D01*
X71176677Y-87721564D01*
X71181837Y-87721753D01*
X71186957Y-87721097D01*
X71186959Y-87721097D01*
X71398288Y-87694025D01*
X71398289Y-87694025D01*
X71403416Y-87693368D01*
X71408366Y-87691883D01*
X71612429Y-87630661D01*
X71612434Y-87630659D01*
X71617384Y-87629174D01*
X71817994Y-87530896D01*
X71999860Y-87401173D01*
X72158096Y-87243489D01*
X72217594Y-87160689D01*
X72288453Y-87062077D01*
X72289776Y-87063028D01*
X72336645Y-87019857D01*
X72406580Y-87007625D01*
X72472026Y-87035144D01*
X72499875Y-87066994D01*
X72559987Y-87165088D01*
X72706250Y-87333938D01*
X72878126Y-87476632D01*
X73071000Y-87589338D01*
X73279692Y-87669030D01*
X73284760Y-87670061D01*
X73284763Y-87670062D01*
X73379862Y-87689410D01*
X73498597Y-87713567D01*
X73503772Y-87713757D01*
X73503774Y-87713757D01*
X73716673Y-87721564D01*
X73716677Y-87721564D01*
X73721837Y-87721753D01*
X73726957Y-87721097D01*
X73726959Y-87721097D01*
X73938288Y-87694025D01*
X73938289Y-87694025D01*
X73943416Y-87693368D01*
X73948366Y-87691883D01*
X74152429Y-87630661D01*
X74152434Y-87630659D01*
X74157384Y-87629174D01*
X74357994Y-87530896D01*
X74539860Y-87401173D01*
X74698096Y-87243489D01*
X74757594Y-87160689D01*
X74828453Y-87062077D01*
X74829640Y-87062930D01*
X74876960Y-87019362D01*
X74946897Y-87007145D01*
X75012338Y-87034678D01*
X75040166Y-87066511D01*
X75097694Y-87160388D01*
X75103777Y-87168699D01*
X75243213Y-87329667D01*
X75250580Y-87336883D01*
X75414434Y-87472916D01*
X75422881Y-87478831D01*
X75606756Y-87586279D01*
X75616042Y-87590729D01*
X75815001Y-87666703D01*
X75824899Y-87669579D01*
X75928250Y-87690606D01*
X75942299Y-87689410D01*
X75946000Y-87679065D01*
X75946000Y-87678517D01*
X76454000Y-87678517D01*
X76458064Y-87692359D01*
X76471478Y-87694393D01*
X76478184Y-87693534D01*
X76488262Y-87691392D01*
X76692255Y-87630191D01*
X76701842Y-87626433D01*
X76893095Y-87532739D01*
X76901945Y-87527464D01*
X77075328Y-87403792D01*
X77083200Y-87397139D01*
X77234052Y-87246812D01*
X77240730Y-87238965D01*
X77365003Y-87066020D01*
X77370313Y-87057183D01*
X77464670Y-86866267D01*
X77468469Y-86856672D01*
X77530377Y-86652910D01*
X77532555Y-86642837D01*
X77533986Y-86631962D01*
X77531775Y-86617778D01*
X77518617Y-86614000D01*
X76472115Y-86614000D01*
X76456876Y-86618475D01*
X76455671Y-86619865D01*
X76454000Y-86627548D01*
X76454000Y-87678517D01*
X75946000Y-87678517D01*
X75946000Y-86087885D01*
X76454000Y-86087885D01*
X76458475Y-86103124D01*
X76459865Y-86104329D01*
X76467548Y-86106000D01*
X77518344Y-86106000D01*
X77531875Y-86102027D01*
X77533180Y-86092947D01*
X77491214Y-85925875D01*
X77487894Y-85916124D01*
X77402972Y-85720814D01*
X77398105Y-85711739D01*
X77282426Y-85532926D01*
X77276136Y-85524757D01*
X77131931Y-85366279D01*
X77100879Y-85302433D01*
X77109273Y-85231934D01*
X77154450Y-85177166D01*
X77180894Y-85163497D01*
X77288054Y-85123324D01*
X77303649Y-85114786D01*
X77405724Y-85038285D01*
X77418285Y-85025724D01*
X77494786Y-84923649D01*
X77503324Y-84908054D01*
X77548478Y-84787606D01*
X77552105Y-84772351D01*
X77557631Y-84721486D01*
X77558000Y-84714672D01*
X77558000Y-84092115D01*
X77553525Y-84076876D01*
X77552135Y-84075671D01*
X77544452Y-84074000D01*
X76472115Y-84074000D01*
X76456876Y-84078475D01*
X76455671Y-84079865D01*
X76454000Y-84087548D01*
X76454000Y-86087885D01*
X75946000Y-86087885D01*
X75946000Y-83547885D01*
X76454000Y-83547885D01*
X76458475Y-83563124D01*
X76459865Y-83564329D01*
X76467548Y-83566000D01*
X77539884Y-83566000D01*
X77555123Y-83561525D01*
X77556328Y-83560135D01*
X77557999Y-83552452D01*
X77557999Y-82925331D01*
X77557629Y-82918510D01*
X77552105Y-82867648D01*
X77548479Y-82852396D01*
X77503324Y-82731946D01*
X77494786Y-82716351D01*
X77418285Y-82614276D01*
X77405724Y-82601715D01*
X77303649Y-82525214D01*
X77288054Y-82516676D01*
X77167606Y-82471522D01*
X77152351Y-82467895D01*
X77101486Y-82462369D01*
X77094672Y-82462000D01*
X76472115Y-82462000D01*
X76456876Y-82466475D01*
X76455671Y-82467865D01*
X76454000Y-82475548D01*
X76454000Y-83547885D01*
X75946000Y-83547885D01*
X75946000Y-82480116D01*
X75941525Y-82464877D01*
X75940135Y-82463672D01*
X75932452Y-82462001D01*
X75305331Y-82462001D01*
X75298510Y-82462371D01*
X75247648Y-82467895D01*
X75232396Y-82471521D01*
X75111946Y-82516676D01*
X75096351Y-82525214D01*
X74994276Y-82601715D01*
X74981715Y-82614276D01*
X74905214Y-82716351D01*
X74896676Y-82731946D01*
X74855297Y-82842322D01*
X74812655Y-82899087D01*
X74746093Y-82923786D01*
X74676744Y-82908578D01*
X74644121Y-82882891D01*
X74593151Y-82826876D01*
X74593145Y-82826870D01*
X74589670Y-82823051D01*
X74585619Y-82819852D01*
X74585615Y-82819848D01*
X74418414Y-82687800D01*
X74418410Y-82687798D01*
X74414359Y-82684598D01*
X74409831Y-82682098D01*
X74358608Y-82653822D01*
X74218789Y-82576638D01*
X74213920Y-82574914D01*
X74213916Y-82574912D01*
X74013087Y-82503795D01*
X74013083Y-82503794D01*
X74008212Y-82502069D01*
X74003119Y-82501162D01*
X74003116Y-82501161D01*
X73793373Y-82463800D01*
X73793367Y-82463799D01*
X73788284Y-82462894D01*
X73714452Y-82461992D01*
X73570081Y-82460228D01*
X73570079Y-82460228D01*
X73564911Y-82460165D01*
X73344091Y-82493955D01*
X73131756Y-82563357D01*
X73101443Y-82579137D01*
X72957975Y-82653822D01*
X72933607Y-82666507D01*
X72929474Y-82669610D01*
X72929471Y-82669612D01*
X72846450Y-82731946D01*
X72754965Y-82800635D01*
X72600629Y-82962138D01*
X72493201Y-83119621D01*
X72438293Y-83164621D01*
X72367768Y-83172792D01*
X72304021Y-83141538D01*
X72283324Y-83117054D01*
X72202822Y-82992617D01*
X72202820Y-82992614D01*
X72200014Y-82988277D01*
X72049670Y-82823051D01*
X72045619Y-82819852D01*
X72045615Y-82819848D01*
X71878414Y-82687800D01*
X71878410Y-82687798D01*
X71874359Y-82684598D01*
X71869835Y-82682101D01*
X71869831Y-82682098D01*
X71818608Y-82653822D01*
X71768636Y-82603390D01*
X71753500Y-82543513D01*
X71753500Y-69860427D01*
X71773502Y-69792306D01*
X71814618Y-69752550D01*
X71817994Y-69750896D01*
X71999860Y-69621173D01*
X72158096Y-69463489D01*
X72288453Y-69282077D01*
X72289776Y-69283028D01*
X72336645Y-69239857D01*
X72406580Y-69227625D01*
X72472026Y-69255144D01*
X72499875Y-69286994D01*
X72559987Y-69385088D01*
X72706250Y-69553938D01*
X72878126Y-69696632D01*
X73071000Y-69809338D01*
X73279692Y-69889030D01*
X73284760Y-69890061D01*
X73284763Y-69890062D01*
X73379862Y-69909410D01*
X73498597Y-69933567D01*
X73503772Y-69933757D01*
X73503774Y-69933757D01*
X73716673Y-69941564D01*
X73716677Y-69941564D01*
X73721837Y-69941753D01*
X73726957Y-69941097D01*
X73726959Y-69941097D01*
X73938288Y-69914025D01*
X73938289Y-69914025D01*
X73943416Y-69913368D01*
X73948366Y-69911883D01*
X74152429Y-69850661D01*
X74152434Y-69850659D01*
X74157384Y-69849174D01*
X74357994Y-69750896D01*
X74539860Y-69621173D01*
X74698096Y-69463489D01*
X74828453Y-69282077D01*
X74829640Y-69282930D01*
X74876960Y-69239362D01*
X74946897Y-69227145D01*
X75012338Y-69254678D01*
X75040166Y-69286511D01*
X75097694Y-69380388D01*
X75103777Y-69388699D01*
X75243213Y-69549667D01*
X75250580Y-69556883D01*
X75414434Y-69692916D01*
X75422881Y-69698831D01*
X75606756Y-69806279D01*
X75616042Y-69810729D01*
X75815001Y-69886703D01*
X75824899Y-69889579D01*
X75928250Y-69910606D01*
X75942299Y-69909410D01*
X75946000Y-69899065D01*
X75946000Y-69898517D01*
X76454000Y-69898517D01*
X76458064Y-69912359D01*
X76471478Y-69914393D01*
X76478184Y-69913534D01*
X76488262Y-69911392D01*
X76692255Y-69850191D01*
X76701842Y-69846433D01*
X76893095Y-69752739D01*
X76901945Y-69747464D01*
X77075328Y-69623792D01*
X77083200Y-69617139D01*
X77234052Y-69466812D01*
X77240730Y-69458965D01*
X77365003Y-69286020D01*
X77370313Y-69277183D01*
X77464670Y-69086267D01*
X77468469Y-69076672D01*
X77530377Y-68872910D01*
X77532555Y-68862837D01*
X77533986Y-68851962D01*
X77531775Y-68837778D01*
X77518617Y-68834000D01*
X76472115Y-68834000D01*
X76456876Y-68838475D01*
X76455671Y-68839865D01*
X76454000Y-68847548D01*
X76454000Y-69898517D01*
X75946000Y-69898517D01*
X75946000Y-68307885D01*
X76454000Y-68307885D01*
X76458475Y-68323124D01*
X76459865Y-68324329D01*
X76467548Y-68326000D01*
X77518344Y-68326000D01*
X77531875Y-68322027D01*
X77533180Y-68312947D01*
X77491214Y-68145875D01*
X77487894Y-68136124D01*
X77402972Y-67940814D01*
X77398105Y-67931739D01*
X77282426Y-67752926D01*
X77276136Y-67744757D01*
X77132806Y-67587240D01*
X77125273Y-67580215D01*
X76958139Y-67448222D01*
X76949552Y-67442517D01*
X76912116Y-67421851D01*
X76862146Y-67371419D01*
X76847374Y-67301976D01*
X76872490Y-67235571D01*
X76899842Y-67208964D01*
X76920184Y-67194454D01*
X84547269Y-67194454D01*
X84548015Y-67202346D01*
X84551430Y-67238472D01*
X84551989Y-67250330D01*
X84551989Y-85106722D01*
X84551462Y-85117905D01*
X84549787Y-85125398D01*
X84550036Y-85133324D01*
X84550036Y-85133325D01*
X84551927Y-85193475D01*
X84551989Y-85197434D01*
X84551989Y-85225345D01*
X84552486Y-85229279D01*
X84552486Y-85229280D01*
X84552494Y-85229345D01*
X84553427Y-85241182D01*
X84554816Y-85285378D01*
X84559771Y-85302433D01*
X84560467Y-85304828D01*
X84564476Y-85324189D01*
X84567015Y-85344286D01*
X84569934Y-85351657D01*
X84569934Y-85351659D01*
X84583293Y-85385401D01*
X84587138Y-85396631D01*
X84599471Y-85439082D01*
X84603504Y-85445901D01*
X84603506Y-85445906D01*
X84609782Y-85456517D01*
X84618477Y-85474265D01*
X84625937Y-85493106D01*
X84630599Y-85499522D01*
X84630599Y-85499523D01*
X84651925Y-85528876D01*
X84658441Y-85538796D01*
X84680947Y-85576851D01*
X84695268Y-85591172D01*
X84708108Y-85606205D01*
X84720017Y-85622596D01*
X84726123Y-85627647D01*
X84754094Y-85650787D01*
X84762873Y-85658777D01*
X85009778Y-85905682D01*
X85043804Y-85967994D01*
X85042100Y-86028448D01*
X85020989Y-86104570D01*
X85020441Y-86109700D01*
X85020440Y-86109704D01*
X85010654Y-86201281D01*
X84997251Y-86326695D01*
X85010110Y-86549715D01*
X85011247Y-86554761D01*
X85011248Y-86554767D01*
X85025449Y-86617778D01*
X85059222Y-86767639D01*
X85143266Y-86974616D01*
X85183918Y-87040954D01*
X85257291Y-87160688D01*
X85259987Y-87165088D01*
X85406250Y-87333938D01*
X85578126Y-87476632D01*
X85771000Y-87589338D01*
X85979692Y-87669030D01*
X85984760Y-87670061D01*
X85984763Y-87670062D01*
X86079862Y-87689410D01*
X86198597Y-87713567D01*
X86203772Y-87713757D01*
X86203774Y-87713757D01*
X86416673Y-87721564D01*
X86416677Y-87721564D01*
X86421837Y-87721753D01*
X86426957Y-87721097D01*
X86426959Y-87721097D01*
X86638288Y-87694025D01*
X86638289Y-87694025D01*
X86643416Y-87693368D01*
X86648366Y-87691883D01*
X86852429Y-87630661D01*
X86852434Y-87630659D01*
X86857384Y-87629174D01*
X87057994Y-87530896D01*
X87239860Y-87401173D01*
X87398096Y-87243489D01*
X87457594Y-87160689D01*
X87528453Y-87062077D01*
X87529776Y-87063028D01*
X87576645Y-87019857D01*
X87646580Y-87007625D01*
X87712026Y-87035144D01*
X87739875Y-87066994D01*
X87799987Y-87165088D01*
X87946250Y-87333938D01*
X88118126Y-87476632D01*
X88311000Y-87589338D01*
X88519692Y-87669030D01*
X88524760Y-87670061D01*
X88524763Y-87670062D01*
X88619862Y-87689410D01*
X88738597Y-87713567D01*
X88743772Y-87713757D01*
X88743774Y-87713757D01*
X88956673Y-87721564D01*
X88956677Y-87721564D01*
X88961837Y-87721753D01*
X88966957Y-87721097D01*
X88966959Y-87721097D01*
X89178288Y-87694025D01*
X89178289Y-87694025D01*
X89183416Y-87693368D01*
X89188366Y-87691883D01*
X89392429Y-87630661D01*
X89392434Y-87630659D01*
X89397384Y-87629174D01*
X89597994Y-87530896D01*
X89779860Y-87401173D01*
X89938096Y-87243489D01*
X89997594Y-87160689D01*
X90068453Y-87062077D01*
X90069776Y-87063028D01*
X90116645Y-87019857D01*
X90186580Y-87007625D01*
X90252026Y-87035144D01*
X90279875Y-87066994D01*
X90339987Y-87165088D01*
X90486250Y-87333938D01*
X90658126Y-87476632D01*
X90851000Y-87589338D01*
X91059692Y-87669030D01*
X91064760Y-87670061D01*
X91064763Y-87670062D01*
X91159862Y-87689410D01*
X91278597Y-87713567D01*
X91283772Y-87713757D01*
X91283774Y-87713757D01*
X91496673Y-87721564D01*
X91496677Y-87721564D01*
X91501837Y-87721753D01*
X91506957Y-87721097D01*
X91506959Y-87721097D01*
X91718288Y-87694025D01*
X91718289Y-87694025D01*
X91723416Y-87693368D01*
X91728366Y-87691883D01*
X91932429Y-87630661D01*
X91932434Y-87630659D01*
X91937384Y-87629174D01*
X92137994Y-87530896D01*
X92319860Y-87401173D01*
X92478096Y-87243489D01*
X92537594Y-87160689D01*
X92608453Y-87062077D01*
X92609776Y-87063028D01*
X92656645Y-87019857D01*
X92726580Y-87007625D01*
X92792026Y-87035144D01*
X92819875Y-87066994D01*
X92879987Y-87165088D01*
X93026250Y-87333938D01*
X93198126Y-87476632D01*
X93391000Y-87589338D01*
X93599692Y-87669030D01*
X93604760Y-87670061D01*
X93604763Y-87670062D01*
X93699862Y-87689410D01*
X93818597Y-87713567D01*
X93823772Y-87713757D01*
X93823774Y-87713757D01*
X94036673Y-87721564D01*
X94036677Y-87721564D01*
X94041837Y-87721753D01*
X94046957Y-87721097D01*
X94046959Y-87721097D01*
X94258288Y-87694025D01*
X94258289Y-87694025D01*
X94263416Y-87693368D01*
X94268366Y-87691883D01*
X94472429Y-87630661D01*
X94472434Y-87630659D01*
X94477384Y-87629174D01*
X94677994Y-87530896D01*
X94859860Y-87401173D01*
X95018096Y-87243489D01*
X95077594Y-87160689D01*
X95148453Y-87062077D01*
X95149776Y-87063028D01*
X95196645Y-87019857D01*
X95266580Y-87007625D01*
X95332026Y-87035144D01*
X95359875Y-87066994D01*
X95419987Y-87165088D01*
X95566250Y-87333938D01*
X95738126Y-87476632D01*
X95931000Y-87589338D01*
X96139692Y-87669030D01*
X96144760Y-87670061D01*
X96144763Y-87670062D01*
X96239862Y-87689410D01*
X96358597Y-87713567D01*
X96363772Y-87713757D01*
X96363774Y-87713757D01*
X96576673Y-87721564D01*
X96576677Y-87721564D01*
X96581837Y-87721753D01*
X96586957Y-87721097D01*
X96586959Y-87721097D01*
X96798288Y-87694025D01*
X96798289Y-87694025D01*
X96803416Y-87693368D01*
X96808366Y-87691883D01*
X97012429Y-87630661D01*
X97012434Y-87630659D01*
X97017384Y-87629174D01*
X97217994Y-87530896D01*
X97399860Y-87401173D01*
X97558096Y-87243489D01*
X97617594Y-87160689D01*
X97688453Y-87062077D01*
X97689640Y-87062930D01*
X97736960Y-87019362D01*
X97806897Y-87007145D01*
X97872338Y-87034678D01*
X97900166Y-87066511D01*
X97957694Y-87160388D01*
X97963777Y-87168699D01*
X98103213Y-87329667D01*
X98110580Y-87336883D01*
X98274434Y-87472916D01*
X98282881Y-87478831D01*
X98466756Y-87586279D01*
X98476042Y-87590729D01*
X98675001Y-87666703D01*
X98684899Y-87669579D01*
X98788250Y-87690606D01*
X98802299Y-87689410D01*
X98806000Y-87679065D01*
X98806000Y-87678517D01*
X99314000Y-87678517D01*
X99318064Y-87692359D01*
X99331478Y-87694393D01*
X99338184Y-87693534D01*
X99348262Y-87691392D01*
X99552255Y-87630191D01*
X99561842Y-87626433D01*
X99753095Y-87532739D01*
X99761945Y-87527464D01*
X99935328Y-87403792D01*
X99943200Y-87397139D01*
X100094052Y-87246812D01*
X100100730Y-87238965D01*
X100225003Y-87066020D01*
X100230313Y-87057183D01*
X100324670Y-86866267D01*
X100328469Y-86856672D01*
X100390377Y-86652910D01*
X100392555Y-86642837D01*
X100393986Y-86631962D01*
X100391775Y-86617778D01*
X100378617Y-86614000D01*
X99332115Y-86614000D01*
X99316876Y-86618475D01*
X99315671Y-86619865D01*
X99314000Y-86627548D01*
X99314000Y-87678517D01*
X98806000Y-87678517D01*
X98806000Y-86087885D01*
X99314000Y-86087885D01*
X99318475Y-86103124D01*
X99319865Y-86104329D01*
X99327548Y-86106000D01*
X100378344Y-86106000D01*
X100391875Y-86102027D01*
X100393180Y-86092947D01*
X100351214Y-85925875D01*
X100347894Y-85916124D01*
X100262972Y-85720814D01*
X100258105Y-85711739D01*
X100142426Y-85532926D01*
X100136136Y-85524757D01*
X99991931Y-85366279D01*
X99960879Y-85302433D01*
X99969273Y-85231934D01*
X100014450Y-85177166D01*
X100040894Y-85163497D01*
X100148054Y-85123324D01*
X100163649Y-85114786D01*
X100265724Y-85038285D01*
X100278285Y-85025724D01*
X100354786Y-84923649D01*
X100363324Y-84908054D01*
X100408478Y-84787606D01*
X100412105Y-84772351D01*
X100417631Y-84721486D01*
X100418000Y-84714672D01*
X100418000Y-84092115D01*
X100413525Y-84076876D01*
X100412135Y-84075671D01*
X100404452Y-84074000D01*
X99332115Y-84074000D01*
X99316876Y-84078475D01*
X99315671Y-84079865D01*
X99314000Y-84087548D01*
X99314000Y-86087885D01*
X98806000Y-86087885D01*
X98806000Y-83547885D01*
X99314000Y-83547885D01*
X99318475Y-83563124D01*
X99319865Y-83564329D01*
X99327548Y-83566000D01*
X100399884Y-83566000D01*
X100415123Y-83561525D01*
X100416328Y-83560135D01*
X100417999Y-83552452D01*
X100417999Y-82925331D01*
X100417629Y-82918510D01*
X100412105Y-82867648D01*
X100408479Y-82852396D01*
X100363324Y-82731946D01*
X100354786Y-82716351D01*
X100278285Y-82614276D01*
X100265724Y-82601715D01*
X100163649Y-82525214D01*
X100148054Y-82516676D01*
X100027606Y-82471522D01*
X100012351Y-82467895D01*
X99961486Y-82462369D01*
X99954672Y-82462000D01*
X99332115Y-82462000D01*
X99316876Y-82466475D01*
X99315671Y-82467865D01*
X99314000Y-82475548D01*
X99314000Y-83547885D01*
X98806000Y-83547885D01*
X98806000Y-82480116D01*
X98801525Y-82464877D01*
X98800135Y-82463672D01*
X98792452Y-82462001D01*
X98165331Y-82462001D01*
X98158510Y-82462371D01*
X98107648Y-82467895D01*
X98092396Y-82471521D01*
X97971946Y-82516676D01*
X97956351Y-82525214D01*
X97854276Y-82601715D01*
X97841715Y-82614276D01*
X97765214Y-82716351D01*
X97756676Y-82731946D01*
X97715297Y-82842322D01*
X97672655Y-82899087D01*
X97606093Y-82923786D01*
X97536744Y-82908578D01*
X97504121Y-82882891D01*
X97453151Y-82826876D01*
X97453145Y-82826870D01*
X97449670Y-82823051D01*
X97445619Y-82819852D01*
X97445615Y-82819848D01*
X97278414Y-82687800D01*
X97278410Y-82687798D01*
X97274359Y-82684598D01*
X97269831Y-82682098D01*
X97218608Y-82653822D01*
X97078789Y-82576638D01*
X97073920Y-82574914D01*
X97073916Y-82574912D01*
X96873087Y-82503795D01*
X96873083Y-82503794D01*
X96868212Y-82502069D01*
X96863119Y-82501162D01*
X96863116Y-82501161D01*
X96653373Y-82463800D01*
X96653367Y-82463799D01*
X96648284Y-82462894D01*
X96574452Y-82461992D01*
X96430081Y-82460228D01*
X96430079Y-82460228D01*
X96424911Y-82460165D01*
X96204091Y-82493955D01*
X95991756Y-82563357D01*
X95961443Y-82579137D01*
X95817975Y-82653822D01*
X95793607Y-82666507D01*
X95789474Y-82669610D01*
X95789471Y-82669612D01*
X95706450Y-82731946D01*
X95614965Y-82800635D01*
X95460629Y-82962138D01*
X95353201Y-83119621D01*
X95298293Y-83164621D01*
X95227768Y-83172792D01*
X95164021Y-83141538D01*
X95143324Y-83117054D01*
X95062822Y-82992617D01*
X95062820Y-82992614D01*
X95060014Y-82988277D01*
X94909670Y-82823051D01*
X94905619Y-82819852D01*
X94905615Y-82819848D01*
X94738414Y-82687800D01*
X94738410Y-82687798D01*
X94734359Y-82684598D01*
X94729835Y-82682101D01*
X94729831Y-82682098D01*
X94678608Y-82653822D01*
X94628636Y-82603390D01*
X94613500Y-82543513D01*
X94613500Y-69860427D01*
X94633502Y-69792306D01*
X94674618Y-69752550D01*
X94677994Y-69750896D01*
X94859860Y-69621173D01*
X95018096Y-69463489D01*
X95148453Y-69282077D01*
X95149776Y-69283028D01*
X95196645Y-69239857D01*
X95266580Y-69227625D01*
X95332026Y-69255144D01*
X95359875Y-69286994D01*
X95419987Y-69385088D01*
X95566250Y-69553938D01*
X95738126Y-69696632D01*
X95931000Y-69809338D01*
X96139692Y-69889030D01*
X96144760Y-69890061D01*
X96144763Y-69890062D01*
X96239862Y-69909410D01*
X96358597Y-69933567D01*
X96363772Y-69933757D01*
X96363774Y-69933757D01*
X96576673Y-69941564D01*
X96576677Y-69941564D01*
X96581837Y-69941753D01*
X96586957Y-69941097D01*
X96586959Y-69941097D01*
X96798288Y-69914025D01*
X96798289Y-69914025D01*
X96803416Y-69913368D01*
X96808366Y-69911883D01*
X97012429Y-69850661D01*
X97012434Y-69850659D01*
X97017384Y-69849174D01*
X97217994Y-69750896D01*
X97399860Y-69621173D01*
X97558096Y-69463489D01*
X97688453Y-69282077D01*
X97689640Y-69282930D01*
X97736960Y-69239362D01*
X97806897Y-69227145D01*
X97872338Y-69254678D01*
X97900166Y-69286511D01*
X97957694Y-69380388D01*
X97963777Y-69388699D01*
X98103213Y-69549667D01*
X98110580Y-69556883D01*
X98274434Y-69692916D01*
X98282881Y-69698831D01*
X98466756Y-69806279D01*
X98476042Y-69810729D01*
X98675001Y-69886703D01*
X98684899Y-69889579D01*
X98788250Y-69910606D01*
X98802299Y-69909410D01*
X98806000Y-69899065D01*
X98806000Y-69898517D01*
X99314000Y-69898517D01*
X99318064Y-69912359D01*
X99331478Y-69914393D01*
X99338184Y-69913534D01*
X99348262Y-69911392D01*
X99552255Y-69850191D01*
X99561842Y-69846433D01*
X99753095Y-69752739D01*
X99761945Y-69747464D01*
X99935328Y-69623792D01*
X99943200Y-69617139D01*
X100094052Y-69466812D01*
X100100730Y-69458965D01*
X100225003Y-69286020D01*
X100230313Y-69277183D01*
X100324670Y-69086267D01*
X100328469Y-69076672D01*
X100390377Y-68872910D01*
X100392555Y-68862837D01*
X100393986Y-68851962D01*
X100391775Y-68837778D01*
X100378617Y-68834000D01*
X99332115Y-68834000D01*
X99316876Y-68838475D01*
X99315671Y-68839865D01*
X99314000Y-68847548D01*
X99314000Y-69898517D01*
X98806000Y-69898517D01*
X98806000Y-68307885D01*
X99314000Y-68307885D01*
X99318475Y-68323124D01*
X99319865Y-68324329D01*
X99327548Y-68326000D01*
X100378344Y-68326000D01*
X100391875Y-68322027D01*
X100393180Y-68312947D01*
X100351214Y-68145875D01*
X100347894Y-68136124D01*
X100262972Y-67940814D01*
X100258105Y-67931739D01*
X100142426Y-67752926D01*
X100136136Y-67744757D01*
X99992806Y-67587240D01*
X99985273Y-67580215D01*
X99818139Y-67448222D01*
X99809552Y-67442517D01*
X99772116Y-67421851D01*
X99722146Y-67371419D01*
X99707374Y-67301976D01*
X99732490Y-67235571D01*
X99759842Y-67208964D01*
X99780184Y-67194454D01*
X107407269Y-67194454D01*
X107408015Y-67202346D01*
X107411430Y-67238472D01*
X107411989Y-67250330D01*
X107411989Y-85106722D01*
X107411462Y-85117905D01*
X107409787Y-85125398D01*
X107410036Y-85133324D01*
X107410036Y-85133325D01*
X107411927Y-85193475D01*
X107411989Y-85197434D01*
X107411989Y-85225345D01*
X107412486Y-85229279D01*
X107412486Y-85229280D01*
X107412494Y-85229345D01*
X107413427Y-85241182D01*
X107414816Y-85285378D01*
X107419771Y-85302433D01*
X107420467Y-85304828D01*
X107424476Y-85324189D01*
X107427015Y-85344286D01*
X107429934Y-85351657D01*
X107429934Y-85351659D01*
X107443293Y-85385401D01*
X107447138Y-85396631D01*
X107459471Y-85439082D01*
X107463504Y-85445901D01*
X107463506Y-85445906D01*
X107469782Y-85456517D01*
X107478477Y-85474265D01*
X107485937Y-85493106D01*
X107490599Y-85499522D01*
X107490599Y-85499523D01*
X107511925Y-85528876D01*
X107518441Y-85538796D01*
X107540947Y-85576851D01*
X107555268Y-85591172D01*
X107568108Y-85606205D01*
X107580017Y-85622596D01*
X107586123Y-85627647D01*
X107614094Y-85650787D01*
X107622873Y-85658777D01*
X107869778Y-85905682D01*
X107903804Y-85967994D01*
X107902100Y-86028448D01*
X107880989Y-86104570D01*
X107880441Y-86109700D01*
X107880440Y-86109704D01*
X107870654Y-86201281D01*
X107857251Y-86326695D01*
X107870110Y-86549715D01*
X107871247Y-86554761D01*
X107871248Y-86554767D01*
X107885449Y-86617778D01*
X107919222Y-86767639D01*
X108003266Y-86974616D01*
X108043918Y-87040954D01*
X108117291Y-87160688D01*
X108119987Y-87165088D01*
X108266250Y-87333938D01*
X108438126Y-87476632D01*
X108631000Y-87589338D01*
X108839692Y-87669030D01*
X108844760Y-87670061D01*
X108844763Y-87670062D01*
X108939862Y-87689410D01*
X109058597Y-87713567D01*
X109063772Y-87713757D01*
X109063774Y-87713757D01*
X109276673Y-87721564D01*
X109276677Y-87721564D01*
X109281837Y-87721753D01*
X109286957Y-87721097D01*
X109286959Y-87721097D01*
X109498288Y-87694025D01*
X109498289Y-87694025D01*
X109503416Y-87693368D01*
X109508366Y-87691883D01*
X109712429Y-87630661D01*
X109712434Y-87630659D01*
X109717384Y-87629174D01*
X109917994Y-87530896D01*
X110099860Y-87401173D01*
X110258096Y-87243489D01*
X110317594Y-87160689D01*
X110388453Y-87062077D01*
X110389776Y-87063028D01*
X110436645Y-87019857D01*
X110506580Y-87007625D01*
X110572026Y-87035144D01*
X110599875Y-87066994D01*
X110659987Y-87165088D01*
X110806250Y-87333938D01*
X110978126Y-87476632D01*
X111171000Y-87589338D01*
X111379692Y-87669030D01*
X111384760Y-87670061D01*
X111384763Y-87670062D01*
X111479862Y-87689410D01*
X111598597Y-87713567D01*
X111603772Y-87713757D01*
X111603774Y-87713757D01*
X111816673Y-87721564D01*
X111816677Y-87721564D01*
X111821837Y-87721753D01*
X111826957Y-87721097D01*
X111826959Y-87721097D01*
X112038288Y-87694025D01*
X112038289Y-87694025D01*
X112043416Y-87693368D01*
X112048366Y-87691883D01*
X112252429Y-87630661D01*
X112252434Y-87630659D01*
X112257384Y-87629174D01*
X112457994Y-87530896D01*
X112639860Y-87401173D01*
X112798096Y-87243489D01*
X112857594Y-87160689D01*
X112928453Y-87062077D01*
X112929776Y-87063028D01*
X112976645Y-87019857D01*
X113046580Y-87007625D01*
X113112026Y-87035144D01*
X113139875Y-87066994D01*
X113199987Y-87165088D01*
X113346250Y-87333938D01*
X113518126Y-87476632D01*
X113711000Y-87589338D01*
X113919692Y-87669030D01*
X113924760Y-87670061D01*
X113924763Y-87670062D01*
X114019862Y-87689410D01*
X114138597Y-87713567D01*
X114143772Y-87713757D01*
X114143774Y-87713757D01*
X114356673Y-87721564D01*
X114356677Y-87721564D01*
X114361837Y-87721753D01*
X114366957Y-87721097D01*
X114366959Y-87721097D01*
X114578288Y-87694025D01*
X114578289Y-87694025D01*
X114583416Y-87693368D01*
X114588366Y-87691883D01*
X114792429Y-87630661D01*
X114792434Y-87630659D01*
X114797384Y-87629174D01*
X114997994Y-87530896D01*
X115179860Y-87401173D01*
X115338096Y-87243489D01*
X115397594Y-87160689D01*
X115468453Y-87062077D01*
X115469776Y-87063028D01*
X115516645Y-87019857D01*
X115586580Y-87007625D01*
X115652026Y-87035144D01*
X115679875Y-87066994D01*
X115739987Y-87165088D01*
X115886250Y-87333938D01*
X116058126Y-87476632D01*
X116251000Y-87589338D01*
X116459692Y-87669030D01*
X116464760Y-87670061D01*
X116464763Y-87670062D01*
X116559862Y-87689410D01*
X116678597Y-87713567D01*
X116683772Y-87713757D01*
X116683774Y-87713757D01*
X116896673Y-87721564D01*
X116896677Y-87721564D01*
X116901837Y-87721753D01*
X116906957Y-87721097D01*
X116906959Y-87721097D01*
X117118288Y-87694025D01*
X117118289Y-87694025D01*
X117123416Y-87693368D01*
X117128366Y-87691883D01*
X117332429Y-87630661D01*
X117332434Y-87630659D01*
X117337384Y-87629174D01*
X117537994Y-87530896D01*
X117719860Y-87401173D01*
X117878096Y-87243489D01*
X117937594Y-87160689D01*
X118008453Y-87062077D01*
X118009776Y-87063028D01*
X118056645Y-87019857D01*
X118126580Y-87007625D01*
X118192026Y-87035144D01*
X118219875Y-87066994D01*
X118279987Y-87165088D01*
X118426250Y-87333938D01*
X118598126Y-87476632D01*
X118791000Y-87589338D01*
X118999692Y-87669030D01*
X119004760Y-87670061D01*
X119004763Y-87670062D01*
X119099862Y-87689410D01*
X119218597Y-87713567D01*
X119223772Y-87713757D01*
X119223774Y-87713757D01*
X119436673Y-87721564D01*
X119436677Y-87721564D01*
X119441837Y-87721753D01*
X119446957Y-87721097D01*
X119446959Y-87721097D01*
X119658288Y-87694025D01*
X119658289Y-87694025D01*
X119663416Y-87693368D01*
X119668366Y-87691883D01*
X119872429Y-87630661D01*
X119872434Y-87630659D01*
X119877384Y-87629174D01*
X120077994Y-87530896D01*
X120259860Y-87401173D01*
X120418096Y-87243489D01*
X120477594Y-87160689D01*
X120548453Y-87062077D01*
X120549640Y-87062930D01*
X120596960Y-87019362D01*
X120666897Y-87007145D01*
X120732338Y-87034678D01*
X120760166Y-87066511D01*
X120817694Y-87160388D01*
X120823777Y-87168699D01*
X120963213Y-87329667D01*
X120970580Y-87336883D01*
X121134434Y-87472916D01*
X121142881Y-87478831D01*
X121326756Y-87586279D01*
X121336042Y-87590729D01*
X121535001Y-87666703D01*
X121544899Y-87669579D01*
X121648250Y-87690606D01*
X121662299Y-87689410D01*
X121666000Y-87679065D01*
X121666000Y-87678517D01*
X122174000Y-87678517D01*
X122178064Y-87692359D01*
X122191478Y-87694393D01*
X122198184Y-87693534D01*
X122208262Y-87691392D01*
X122412255Y-87630191D01*
X122421842Y-87626433D01*
X122613095Y-87532739D01*
X122621945Y-87527464D01*
X122795328Y-87403792D01*
X122803200Y-87397139D01*
X122954052Y-87246812D01*
X122960730Y-87238965D01*
X123085003Y-87066020D01*
X123090313Y-87057183D01*
X123184670Y-86866267D01*
X123188469Y-86856672D01*
X123250377Y-86652910D01*
X123252555Y-86642837D01*
X123253986Y-86631962D01*
X123251775Y-86617778D01*
X123238617Y-86614000D01*
X122192115Y-86614000D01*
X122176876Y-86618475D01*
X122175671Y-86619865D01*
X122174000Y-86627548D01*
X122174000Y-87678517D01*
X121666000Y-87678517D01*
X121666000Y-86087885D01*
X122174000Y-86087885D01*
X122178475Y-86103124D01*
X122179865Y-86104329D01*
X122187548Y-86106000D01*
X123238344Y-86106000D01*
X123251875Y-86102027D01*
X123253180Y-86092947D01*
X123211214Y-85925875D01*
X123207894Y-85916124D01*
X123122972Y-85720814D01*
X123118105Y-85711739D01*
X123002426Y-85532926D01*
X122996136Y-85524757D01*
X122851931Y-85366279D01*
X122820879Y-85302433D01*
X122829273Y-85231934D01*
X122874450Y-85177166D01*
X122900894Y-85163497D01*
X123008054Y-85123324D01*
X123023649Y-85114786D01*
X123125724Y-85038285D01*
X123138285Y-85025724D01*
X123214786Y-84923649D01*
X123223324Y-84908054D01*
X123268478Y-84787606D01*
X123272105Y-84772351D01*
X123277631Y-84721486D01*
X123278000Y-84714672D01*
X123278000Y-84092115D01*
X123273525Y-84076876D01*
X123272135Y-84075671D01*
X123264452Y-84074000D01*
X122192115Y-84074000D01*
X122176876Y-84078475D01*
X122175671Y-84079865D01*
X122174000Y-84087548D01*
X122174000Y-86087885D01*
X121666000Y-86087885D01*
X121666000Y-83547885D01*
X122174000Y-83547885D01*
X122178475Y-83563124D01*
X122179865Y-83564329D01*
X122187548Y-83566000D01*
X123259884Y-83566000D01*
X123275123Y-83561525D01*
X123276328Y-83560135D01*
X123277999Y-83552452D01*
X123277999Y-82925331D01*
X123277629Y-82918510D01*
X123272105Y-82867648D01*
X123268479Y-82852396D01*
X123223324Y-82731946D01*
X123214786Y-82716351D01*
X123138285Y-82614276D01*
X123125724Y-82601715D01*
X123023649Y-82525214D01*
X123008054Y-82516676D01*
X122887606Y-82471522D01*
X122872351Y-82467895D01*
X122821486Y-82462369D01*
X122814672Y-82462000D01*
X122192115Y-82462000D01*
X122176876Y-82466475D01*
X122175671Y-82467865D01*
X122174000Y-82475548D01*
X122174000Y-83547885D01*
X121666000Y-83547885D01*
X121666000Y-82480116D01*
X121661525Y-82464877D01*
X121660135Y-82463672D01*
X121652452Y-82462001D01*
X121025331Y-82462001D01*
X121018510Y-82462371D01*
X120967648Y-82467895D01*
X120952396Y-82471521D01*
X120831946Y-82516676D01*
X120816351Y-82525214D01*
X120714276Y-82601715D01*
X120701715Y-82614276D01*
X120625214Y-82716351D01*
X120616676Y-82731946D01*
X120575297Y-82842322D01*
X120532655Y-82899087D01*
X120466093Y-82923786D01*
X120396744Y-82908578D01*
X120364121Y-82882891D01*
X120313151Y-82826876D01*
X120313145Y-82826870D01*
X120309670Y-82823051D01*
X120305619Y-82819852D01*
X120305615Y-82819848D01*
X120138414Y-82687800D01*
X120138410Y-82687798D01*
X120134359Y-82684598D01*
X120129831Y-82682098D01*
X120078608Y-82653822D01*
X119938789Y-82576638D01*
X119933920Y-82574914D01*
X119933916Y-82574912D01*
X119733087Y-82503795D01*
X119733083Y-82503794D01*
X119728212Y-82502069D01*
X119723119Y-82501162D01*
X119723116Y-82501161D01*
X119513373Y-82463800D01*
X119513367Y-82463799D01*
X119508284Y-82462894D01*
X119434452Y-82461992D01*
X119290081Y-82460228D01*
X119290079Y-82460228D01*
X119284911Y-82460165D01*
X119064091Y-82493955D01*
X118851756Y-82563357D01*
X118821443Y-82579137D01*
X118677975Y-82653822D01*
X118653607Y-82666507D01*
X118649474Y-82669610D01*
X118649471Y-82669612D01*
X118566450Y-82731946D01*
X118474965Y-82800635D01*
X118320629Y-82962138D01*
X118213201Y-83119621D01*
X118158293Y-83164621D01*
X118087768Y-83172792D01*
X118024021Y-83141538D01*
X118003324Y-83117054D01*
X117922822Y-82992617D01*
X117922820Y-82992614D01*
X117920014Y-82988277D01*
X117769670Y-82823051D01*
X117765619Y-82819852D01*
X117765615Y-82819848D01*
X117598414Y-82687800D01*
X117598410Y-82687798D01*
X117594359Y-82684598D01*
X117589835Y-82682101D01*
X117589831Y-82682098D01*
X117538608Y-82653822D01*
X117488636Y-82603390D01*
X117473500Y-82543513D01*
X117473500Y-69860427D01*
X117493502Y-69792306D01*
X117534618Y-69752550D01*
X117537994Y-69750896D01*
X117719860Y-69621173D01*
X117878096Y-69463489D01*
X118008453Y-69282077D01*
X118009776Y-69283028D01*
X118056645Y-69239857D01*
X118126580Y-69227625D01*
X118192026Y-69255144D01*
X118219875Y-69286994D01*
X118279987Y-69385088D01*
X118426250Y-69553938D01*
X118598126Y-69696632D01*
X118791000Y-69809338D01*
X118999692Y-69889030D01*
X119004760Y-69890061D01*
X119004763Y-69890062D01*
X119099862Y-69909410D01*
X119218597Y-69933567D01*
X119223772Y-69933757D01*
X119223774Y-69933757D01*
X119436673Y-69941564D01*
X119436677Y-69941564D01*
X119441837Y-69941753D01*
X119446957Y-69941097D01*
X119446959Y-69941097D01*
X119658288Y-69914025D01*
X119658289Y-69914025D01*
X119663416Y-69913368D01*
X119668366Y-69911883D01*
X119872429Y-69850661D01*
X119872434Y-69850659D01*
X119877384Y-69849174D01*
X120077994Y-69750896D01*
X120259860Y-69621173D01*
X120418096Y-69463489D01*
X120548453Y-69282077D01*
X120549640Y-69282930D01*
X120596960Y-69239362D01*
X120666897Y-69227145D01*
X120732338Y-69254678D01*
X120760166Y-69286511D01*
X120817694Y-69380388D01*
X120823777Y-69388699D01*
X120963213Y-69549667D01*
X120970580Y-69556883D01*
X121134434Y-69692916D01*
X121142881Y-69698831D01*
X121326756Y-69806279D01*
X121336042Y-69810729D01*
X121535001Y-69886703D01*
X121544899Y-69889579D01*
X121648250Y-69910606D01*
X121662299Y-69909410D01*
X121666000Y-69899065D01*
X121666000Y-69898517D01*
X122174000Y-69898517D01*
X122178064Y-69912359D01*
X122191478Y-69914393D01*
X122198184Y-69913534D01*
X122208262Y-69911392D01*
X122412255Y-69850191D01*
X122421842Y-69846433D01*
X122613095Y-69752739D01*
X122621945Y-69747464D01*
X122795328Y-69623792D01*
X122803200Y-69617139D01*
X122954052Y-69466812D01*
X122960730Y-69458965D01*
X123085003Y-69286020D01*
X123090313Y-69277183D01*
X123184670Y-69086267D01*
X123188469Y-69076672D01*
X123250377Y-68872910D01*
X123252555Y-68862837D01*
X123253986Y-68851962D01*
X123251775Y-68837778D01*
X123238617Y-68834000D01*
X122192115Y-68834000D01*
X122176876Y-68838475D01*
X122175671Y-68839865D01*
X122174000Y-68847548D01*
X122174000Y-69898517D01*
X121666000Y-69898517D01*
X121666000Y-68307885D01*
X122174000Y-68307885D01*
X122178475Y-68323124D01*
X122179865Y-68324329D01*
X122187548Y-68326000D01*
X123238344Y-68326000D01*
X123251875Y-68322027D01*
X123253180Y-68312947D01*
X123211214Y-68145875D01*
X123207894Y-68136124D01*
X123122972Y-67940814D01*
X123118105Y-67931739D01*
X123002426Y-67752926D01*
X122996136Y-67744757D01*
X122852806Y-67587240D01*
X122845273Y-67580215D01*
X122678139Y-67448222D01*
X122669552Y-67442517D01*
X122632116Y-67421851D01*
X122582146Y-67371419D01*
X122567374Y-67301976D01*
X122592490Y-67235571D01*
X122619842Y-67208964D01*
X122795327Y-67083792D01*
X122803200Y-67077139D01*
X122954052Y-66926812D01*
X122960730Y-66918965D01*
X123085003Y-66746020D01*
X123090313Y-66737183D01*
X123184670Y-66546267D01*
X123188469Y-66536672D01*
X123250377Y-66332910D01*
X123252555Y-66322837D01*
X123253986Y-66311962D01*
X123251775Y-66297778D01*
X123238617Y-66294000D01*
X122192115Y-66294000D01*
X122176876Y-66298475D01*
X122175671Y-66299865D01*
X122174000Y-66307548D01*
X122174000Y-68307885D01*
X121666000Y-68307885D01*
X121666000Y-65767885D01*
X122174000Y-65767885D01*
X122178475Y-65783124D01*
X122179865Y-65784329D01*
X122187548Y-65786000D01*
X123238344Y-65786000D01*
X123251875Y-65782027D01*
X123253180Y-65772947D01*
X123211214Y-65605875D01*
X123207894Y-65596124D01*
X123122972Y-65400814D01*
X123118105Y-65391739D01*
X123002426Y-65212926D01*
X122996136Y-65204757D01*
X122852806Y-65047240D01*
X122845273Y-65040215D01*
X122678139Y-64908222D01*
X122669552Y-64902517D01*
X122483117Y-64799599D01*
X122473705Y-64795369D01*
X122272959Y-64724280D01*
X122262988Y-64721646D01*
X122191837Y-64708972D01*
X122178540Y-64710432D01*
X122174000Y-64724989D01*
X122174000Y-65767885D01*
X121666000Y-65767885D01*
X121666000Y-64723102D01*
X121662082Y-64709758D01*
X121647806Y-64707771D01*
X121609324Y-64713660D01*
X121599288Y-64716051D01*
X121396868Y-64782212D01*
X121387359Y-64786209D01*
X121198463Y-64884542D01*
X121189738Y-64890036D01*
X121019433Y-65017905D01*
X121011726Y-65024748D01*
X120864590Y-65178717D01*
X120858109Y-65186722D01*
X120753498Y-65340074D01*
X120698587Y-65385076D01*
X120628062Y-65393247D01*
X120564315Y-65361993D01*
X120543618Y-65337509D01*
X120462822Y-65212617D01*
X120462820Y-65212614D01*
X120460014Y-65208277D01*
X120309670Y-65043051D01*
X120305619Y-65039852D01*
X120305615Y-65039848D01*
X120138414Y-64907800D01*
X120138410Y-64907798D01*
X120134359Y-64904598D01*
X120098028Y-64884542D01*
X120082136Y-64875769D01*
X119938789Y-64796638D01*
X119933920Y-64794914D01*
X119933916Y-64794912D01*
X119733087Y-64723795D01*
X119733083Y-64723794D01*
X119728212Y-64722069D01*
X119723119Y-64721162D01*
X119723116Y-64721161D01*
X119513373Y-64683800D01*
X119513367Y-64683799D01*
X119508284Y-64682894D01*
X119434452Y-64681992D01*
X119290081Y-64680228D01*
X119290079Y-64680228D01*
X119284911Y-64680165D01*
X119064091Y-64713955D01*
X118851756Y-64783357D01*
X118832190Y-64793542D01*
X118762532Y-64807255D01*
X118696517Y-64781130D01*
X118655105Y-64723462D01*
X118648011Y-64681779D01*
X118648011Y-62317725D01*
X118668013Y-62249604D01*
X118721669Y-62203111D01*
X118791943Y-62193007D01*
X118818961Y-62200015D01*
X118999692Y-62269030D01*
X119004760Y-62270061D01*
X119004763Y-62270062D01*
X119112003Y-62291880D01*
X119218597Y-62313567D01*
X119223772Y-62313757D01*
X119223774Y-62313757D01*
X119436673Y-62321564D01*
X119436677Y-62321564D01*
X119441837Y-62321753D01*
X119446957Y-62321097D01*
X119446959Y-62321097D01*
X119658288Y-62294025D01*
X119658289Y-62294025D01*
X119663416Y-62293368D01*
X119668376Y-62291880D01*
X119872429Y-62230661D01*
X119872434Y-62230659D01*
X119877384Y-62229174D01*
X120077994Y-62130896D01*
X120259860Y-62001173D01*
X120327331Y-61933938D01*
X120368479Y-61892933D01*
X120430851Y-61859017D01*
X120501658Y-61864205D01*
X120558419Y-61906851D01*
X120575401Y-61937954D01*
X120616676Y-62048054D01*
X120625214Y-62063649D01*
X120701715Y-62165724D01*
X120714276Y-62178285D01*
X120816351Y-62254786D01*
X120831946Y-62263324D01*
X120952394Y-62308478D01*
X120967649Y-62312105D01*
X121018514Y-62317631D01*
X121025328Y-62318000D01*
X121647885Y-62318000D01*
X121663124Y-62313525D01*
X121664329Y-62312135D01*
X121666000Y-62304452D01*
X121666000Y-62299884D01*
X122174000Y-62299884D01*
X122178475Y-62315123D01*
X122179865Y-62316328D01*
X122187548Y-62317999D01*
X122814669Y-62317999D01*
X122821490Y-62317629D01*
X122872352Y-62312105D01*
X122887604Y-62308479D01*
X123008054Y-62263324D01*
X123023649Y-62254786D01*
X123125724Y-62178285D01*
X123138285Y-62165724D01*
X123214786Y-62063649D01*
X123223324Y-62048054D01*
X123268478Y-61927606D01*
X123272105Y-61912351D01*
X123277631Y-61861486D01*
X123278000Y-61854672D01*
X123278000Y-61232115D01*
X123273525Y-61216876D01*
X123272135Y-61215671D01*
X123264452Y-61214000D01*
X122192115Y-61214000D01*
X122176876Y-61218475D01*
X122175671Y-61219865D01*
X122174000Y-61227548D01*
X122174000Y-62299884D01*
X121666000Y-62299884D01*
X121666000Y-60687885D01*
X122174000Y-60687885D01*
X122178475Y-60703124D01*
X122179865Y-60704329D01*
X122187548Y-60706000D01*
X123259884Y-60706000D01*
X123275123Y-60701525D01*
X123276328Y-60700135D01*
X123277999Y-60692452D01*
X123277999Y-60065331D01*
X123277629Y-60058510D01*
X123272105Y-60007648D01*
X123268479Y-59992396D01*
X123223324Y-59871946D01*
X123214786Y-59856351D01*
X123138285Y-59754276D01*
X123125724Y-59741715D01*
X123023649Y-59665214D01*
X123008054Y-59656676D01*
X122897297Y-59615155D01*
X122840533Y-59572513D01*
X122815833Y-59505952D01*
X122831040Y-59436603D01*
X122852587Y-59407922D01*
X122954057Y-59306805D01*
X122960730Y-59298965D01*
X123085003Y-59126020D01*
X123090313Y-59117183D01*
X123184670Y-58926267D01*
X123188469Y-58916672D01*
X123250377Y-58712910D01*
X123252555Y-58702837D01*
X123253986Y-58691962D01*
X123251775Y-58677778D01*
X123238617Y-58674000D01*
X122192115Y-58674000D01*
X122176876Y-58678475D01*
X122175671Y-58679865D01*
X122174000Y-58687548D01*
X122174000Y-60687885D01*
X121666000Y-60687885D01*
X121666000Y-58147885D01*
X122174000Y-58147885D01*
X122178475Y-58163124D01*
X122179865Y-58164329D01*
X122187548Y-58166000D01*
X123238344Y-58166000D01*
X123251875Y-58162027D01*
X123253180Y-58152947D01*
X123211214Y-57985875D01*
X123207894Y-57976124D01*
X123122972Y-57780814D01*
X123118105Y-57771739D01*
X123002426Y-57592926D01*
X122996136Y-57584757D01*
X122852806Y-57427240D01*
X122845273Y-57420215D01*
X122678139Y-57288222D01*
X122669552Y-57282517D01*
X122483117Y-57179599D01*
X122473705Y-57175369D01*
X122272959Y-57104280D01*
X122262988Y-57101646D01*
X122191837Y-57088972D01*
X122178540Y-57090432D01*
X122174000Y-57104989D01*
X122174000Y-58147885D01*
X121666000Y-58147885D01*
X121666000Y-57103102D01*
X121662082Y-57089758D01*
X121647806Y-57087771D01*
X121609324Y-57093660D01*
X121599288Y-57096051D01*
X121396868Y-57162212D01*
X121387359Y-57166209D01*
X121198463Y-57264542D01*
X121189738Y-57270036D01*
X121019433Y-57397905D01*
X121011726Y-57404748D01*
X120864590Y-57558717D01*
X120858109Y-57566722D01*
X120753498Y-57720074D01*
X120698587Y-57765076D01*
X120628062Y-57773247D01*
X120564315Y-57741993D01*
X120543618Y-57717509D01*
X120462822Y-57592617D01*
X120462820Y-57592614D01*
X120460014Y-57588277D01*
X120309670Y-57423051D01*
X120305619Y-57419852D01*
X120305615Y-57419848D01*
X120138414Y-57287800D01*
X120138410Y-57287798D01*
X120134359Y-57284598D01*
X120098028Y-57264542D01*
X120039661Y-57232322D01*
X119938789Y-57176638D01*
X119933920Y-57174914D01*
X119933916Y-57174912D01*
X119733087Y-57103795D01*
X119733083Y-57103794D01*
X119728212Y-57102069D01*
X119723119Y-57101162D01*
X119723116Y-57101161D01*
X119513373Y-57063800D01*
X119513367Y-57063799D01*
X119508284Y-57062894D01*
X119434452Y-57061992D01*
X119290081Y-57060228D01*
X119290079Y-57060228D01*
X119284911Y-57060165D01*
X119064091Y-57093955D01*
X118851756Y-57163357D01*
X118773455Y-57204118D01*
X118715899Y-57234080D01*
X118653607Y-57266507D01*
X118649474Y-57269610D01*
X118649471Y-57269612D01*
X118625247Y-57287800D01*
X118474965Y-57400635D01*
X118320629Y-57562138D01*
X118213201Y-57719621D01*
X118158293Y-57764621D01*
X118087768Y-57772792D01*
X118024021Y-57741538D01*
X118003324Y-57717054D01*
X117922822Y-57592617D01*
X117922820Y-57592614D01*
X117920014Y-57588277D01*
X117769670Y-57423051D01*
X117765619Y-57419852D01*
X117765615Y-57419848D01*
X117598414Y-57287800D01*
X117598410Y-57287798D01*
X117594359Y-57284598D01*
X117558028Y-57264542D01*
X117499661Y-57232322D01*
X117398789Y-57176638D01*
X117393920Y-57174914D01*
X117393916Y-57174912D01*
X117193087Y-57103795D01*
X117193083Y-57103794D01*
X117188212Y-57102069D01*
X117183119Y-57101162D01*
X117183116Y-57101161D01*
X116973373Y-57063800D01*
X116973367Y-57063799D01*
X116968284Y-57062894D01*
X116894452Y-57061992D01*
X116750081Y-57060228D01*
X116750079Y-57060228D01*
X116744911Y-57060165D01*
X116524091Y-57093955D01*
X116311756Y-57163357D01*
X116233455Y-57204118D01*
X116175899Y-57234080D01*
X116113607Y-57266507D01*
X116109474Y-57269610D01*
X116109471Y-57269612D01*
X116085247Y-57287800D01*
X115934965Y-57400635D01*
X115780629Y-57562138D01*
X115673201Y-57719621D01*
X115618293Y-57764621D01*
X115547768Y-57772792D01*
X115484021Y-57741538D01*
X115463324Y-57717054D01*
X115382822Y-57592617D01*
X115382820Y-57592614D01*
X115380014Y-57588277D01*
X115229670Y-57423051D01*
X115225619Y-57419852D01*
X115225615Y-57419848D01*
X115058414Y-57287800D01*
X115058410Y-57287798D01*
X115054359Y-57284598D01*
X115018028Y-57264542D01*
X114959661Y-57232322D01*
X114858789Y-57176638D01*
X114853920Y-57174914D01*
X114853916Y-57174912D01*
X114653087Y-57103795D01*
X114653083Y-57103794D01*
X114648212Y-57102069D01*
X114643119Y-57101162D01*
X114643116Y-57101161D01*
X114433373Y-57063800D01*
X114433367Y-57063799D01*
X114428284Y-57062894D01*
X114354452Y-57061992D01*
X114210081Y-57060228D01*
X114210079Y-57060228D01*
X114204911Y-57060165D01*
X113984091Y-57093955D01*
X113771756Y-57163357D01*
X113693455Y-57204118D01*
X113635899Y-57234080D01*
X113573607Y-57266507D01*
X113569474Y-57269610D01*
X113569471Y-57269612D01*
X113545247Y-57287800D01*
X113394965Y-57400635D01*
X113240629Y-57562138D01*
X113133201Y-57719621D01*
X113078293Y-57764621D01*
X113007768Y-57772792D01*
X112944021Y-57741538D01*
X112923324Y-57717054D01*
X112842822Y-57592617D01*
X112842820Y-57592614D01*
X112840014Y-57588277D01*
X112689670Y-57423051D01*
X112685619Y-57419852D01*
X112685615Y-57419848D01*
X112518414Y-57287800D01*
X112518410Y-57287798D01*
X112514359Y-57284598D01*
X112478028Y-57264542D01*
X112419661Y-57232322D01*
X112318789Y-57176638D01*
X112313920Y-57174914D01*
X112313916Y-57174912D01*
X112113087Y-57103795D01*
X112113083Y-57103794D01*
X112108212Y-57102069D01*
X112103119Y-57101162D01*
X112103116Y-57101161D01*
X111893373Y-57063800D01*
X111893367Y-57063799D01*
X111888284Y-57062894D01*
X111814452Y-57061992D01*
X111670081Y-57060228D01*
X111670079Y-57060228D01*
X111664911Y-57060165D01*
X111444091Y-57093955D01*
X111231756Y-57163357D01*
X111153455Y-57204118D01*
X111095899Y-57234080D01*
X111033607Y-57266507D01*
X111029474Y-57269610D01*
X111029471Y-57269612D01*
X111005247Y-57287800D01*
X110854965Y-57400635D01*
X110700629Y-57562138D01*
X110593201Y-57719621D01*
X110538293Y-57764621D01*
X110467768Y-57772792D01*
X110404021Y-57741538D01*
X110383324Y-57717054D01*
X110302822Y-57592617D01*
X110302820Y-57592614D01*
X110300014Y-57588277D01*
X110149670Y-57423051D01*
X110145619Y-57419852D01*
X110145615Y-57419848D01*
X109978414Y-57287800D01*
X109978410Y-57287798D01*
X109974359Y-57284598D01*
X109938028Y-57264542D01*
X109879661Y-57232322D01*
X109778789Y-57176638D01*
X109773920Y-57174914D01*
X109773916Y-57174912D01*
X109573087Y-57103795D01*
X109573083Y-57103794D01*
X109568212Y-57102069D01*
X109563119Y-57101162D01*
X109563116Y-57101161D01*
X109353373Y-57063800D01*
X109353367Y-57063799D01*
X109348284Y-57062894D01*
X109274452Y-57061992D01*
X109130081Y-57060228D01*
X109130079Y-57060228D01*
X109124911Y-57060165D01*
X108904091Y-57093955D01*
X108691756Y-57163357D01*
X108613455Y-57204118D01*
X108555899Y-57234080D01*
X108493607Y-57266507D01*
X108489474Y-57269610D01*
X108489471Y-57269612D01*
X108465247Y-57287800D01*
X108314965Y-57400635D01*
X108160629Y-57562138D01*
X108034743Y-57746680D01*
X107940688Y-57949305D01*
X107880989Y-58164570D01*
X107857251Y-58386695D01*
X107870110Y-58609715D01*
X107871247Y-58614761D01*
X107871248Y-58614767D01*
X107884597Y-58674000D01*
X107919222Y-58827639D01*
X108003266Y-59034616D01*
X108119987Y-59225088D01*
X108266250Y-59393938D01*
X108438126Y-59536632D01*
X108499529Y-59572513D01*
X108511445Y-59579476D01*
X108560169Y-59631114D01*
X108573240Y-59700897D01*
X108546509Y-59766669D01*
X108506055Y-59800027D01*
X108493607Y-59806507D01*
X108489474Y-59809610D01*
X108489471Y-59809612D01*
X108406450Y-59871946D01*
X108314965Y-59940635D01*
X108160629Y-60102138D01*
X108034743Y-60286680D01*
X107940688Y-60489305D01*
X107880989Y-60704570D01*
X107857251Y-60926695D01*
X107870110Y-61149715D01*
X107871247Y-61154761D01*
X107871248Y-61154767D01*
X107885606Y-61218475D01*
X107919222Y-61367639D01*
X108003266Y-61574616D01*
X108119987Y-61765088D01*
X108266250Y-61933938D01*
X108438126Y-62076632D01*
X108631000Y-62189338D01*
X108839692Y-62269030D01*
X108844760Y-62270061D01*
X108844763Y-62270062D01*
X108952003Y-62291880D01*
X109058597Y-62313567D01*
X109063772Y-62313757D01*
X109063774Y-62313757D01*
X109276673Y-62321564D01*
X109276677Y-62321564D01*
X109281837Y-62321753D01*
X109286957Y-62321097D01*
X109286959Y-62321097D01*
X109498288Y-62294025D01*
X109498289Y-62294025D01*
X109503416Y-62293368D01*
X109508373Y-62291881D01*
X109508377Y-62291880D01*
X109598803Y-62264751D01*
X109669798Y-62264333D01*
X109729749Y-62302365D01*
X109759621Y-62366772D01*
X109761011Y-62385436D01*
X109761011Y-64550894D01*
X109741009Y-64619015D01*
X109724106Y-64639989D01*
X109677345Y-64686750D01*
X109615033Y-64720776D01*
X109566154Y-64721702D01*
X109353373Y-64683800D01*
X109353367Y-64683799D01*
X109348284Y-64682894D01*
X109274452Y-64681992D01*
X109130081Y-64680228D01*
X109130079Y-64680228D01*
X109124911Y-64680165D01*
X108904091Y-64713955D01*
X108691756Y-64783357D01*
X108493607Y-64886507D01*
X108489474Y-64889610D01*
X108489471Y-64889612D01*
X108465247Y-64907800D01*
X108314965Y-65020635D01*
X108160629Y-65182138D01*
X108034743Y-65366680D01*
X107940688Y-65569305D01*
X107880989Y-65784570D01*
X107857251Y-66006695D01*
X107870110Y-66229715D01*
X107871247Y-66234761D01*
X107871248Y-66234767D01*
X107903453Y-66377668D01*
X107898917Y-66448520D01*
X107869631Y-66494464D01*
X107653236Y-66710859D01*
X107644950Y-66718399D01*
X107638471Y-66722511D01*
X107633046Y-66728288D01*
X107591846Y-66772162D01*
X107589091Y-66775004D01*
X107569354Y-66794741D01*
X107566874Y-66797938D01*
X107559171Y-66806958D01*
X107528903Y-66839190D01*
X107525084Y-66846136D01*
X107525082Y-66846139D01*
X107519141Y-66856945D01*
X107508290Y-66873464D01*
X107495875Y-66889470D01*
X107492730Y-66896739D01*
X107492727Y-66896743D01*
X107478315Y-66930048D01*
X107473098Y-66940698D01*
X107451794Y-66979451D01*
X107449823Y-66987126D01*
X107449823Y-66987127D01*
X107446756Y-66999073D01*
X107440352Y-67017777D01*
X107432308Y-67036366D01*
X107431069Y-67044189D01*
X107431066Y-67044199D01*
X107425390Y-67080035D01*
X107422984Y-67091655D01*
X107411989Y-67134481D01*
X107411989Y-67154735D01*
X107410438Y-67174445D01*
X107407269Y-67194454D01*
X99780184Y-67194454D01*
X99935327Y-67083792D01*
X99943200Y-67077139D01*
X100094052Y-66926812D01*
X100100730Y-66918965D01*
X100225003Y-66746020D01*
X100230313Y-66737183D01*
X100324670Y-66546267D01*
X100328469Y-66536672D01*
X100390377Y-66332910D01*
X100392555Y-66322837D01*
X100393986Y-66311962D01*
X100391775Y-66297778D01*
X100378617Y-66294000D01*
X99332115Y-66294000D01*
X99316876Y-66298475D01*
X99315671Y-66299865D01*
X99314000Y-66307548D01*
X99314000Y-68307885D01*
X98806000Y-68307885D01*
X98806000Y-65767885D01*
X99314000Y-65767885D01*
X99318475Y-65783124D01*
X99319865Y-65784329D01*
X99327548Y-65786000D01*
X100378344Y-65786000D01*
X100391875Y-65782027D01*
X100393180Y-65772947D01*
X100351214Y-65605875D01*
X100347894Y-65596124D01*
X100262972Y-65400814D01*
X100258105Y-65391739D01*
X100142426Y-65212926D01*
X100136136Y-65204757D01*
X99992806Y-65047240D01*
X99985273Y-65040215D01*
X99818139Y-64908222D01*
X99809552Y-64902517D01*
X99623117Y-64799599D01*
X99613705Y-64795369D01*
X99412959Y-64724280D01*
X99402988Y-64721646D01*
X99331837Y-64708972D01*
X99318540Y-64710432D01*
X99314000Y-64724989D01*
X99314000Y-65767885D01*
X98806000Y-65767885D01*
X98806000Y-64723102D01*
X98802082Y-64709758D01*
X98787806Y-64707771D01*
X98749324Y-64713660D01*
X98739288Y-64716051D01*
X98536868Y-64782212D01*
X98527359Y-64786209D01*
X98338463Y-64884542D01*
X98329738Y-64890036D01*
X98159433Y-65017905D01*
X98151726Y-65024748D01*
X98004590Y-65178717D01*
X97998109Y-65186722D01*
X97893498Y-65340074D01*
X97838587Y-65385076D01*
X97768062Y-65393247D01*
X97704315Y-65361993D01*
X97683618Y-65337509D01*
X97602822Y-65212617D01*
X97602820Y-65212614D01*
X97600014Y-65208277D01*
X97449670Y-65043051D01*
X97445619Y-65039852D01*
X97445615Y-65039848D01*
X97278414Y-64907800D01*
X97278410Y-64907798D01*
X97274359Y-64904598D01*
X97238028Y-64884542D01*
X97222136Y-64875769D01*
X97078789Y-64796638D01*
X97073920Y-64794914D01*
X97073916Y-64794912D01*
X96873087Y-64723795D01*
X96873083Y-64723794D01*
X96868212Y-64722069D01*
X96863119Y-64721162D01*
X96863116Y-64721161D01*
X96653373Y-64683800D01*
X96653367Y-64683799D01*
X96648284Y-64682894D01*
X96574452Y-64681992D01*
X96430081Y-64680228D01*
X96430079Y-64680228D01*
X96424911Y-64680165D01*
X96204091Y-64713955D01*
X95991756Y-64783357D01*
X95972190Y-64793542D01*
X95902532Y-64807255D01*
X95836517Y-64781130D01*
X95795105Y-64723462D01*
X95788011Y-64681779D01*
X95788011Y-62317725D01*
X95808013Y-62249604D01*
X95861669Y-62203111D01*
X95931943Y-62193007D01*
X95958961Y-62200015D01*
X96139692Y-62269030D01*
X96144760Y-62270061D01*
X96144763Y-62270062D01*
X96252003Y-62291880D01*
X96358597Y-62313567D01*
X96363772Y-62313757D01*
X96363774Y-62313757D01*
X96576673Y-62321564D01*
X96576677Y-62321564D01*
X96581837Y-62321753D01*
X96586957Y-62321097D01*
X96586959Y-62321097D01*
X96798288Y-62294025D01*
X96798289Y-62294025D01*
X96803416Y-62293368D01*
X96808376Y-62291880D01*
X97012429Y-62230661D01*
X97012434Y-62230659D01*
X97017384Y-62229174D01*
X97217994Y-62130896D01*
X97399860Y-62001173D01*
X97467331Y-61933938D01*
X97508479Y-61892933D01*
X97570851Y-61859017D01*
X97641658Y-61864205D01*
X97698419Y-61906851D01*
X97715401Y-61937954D01*
X97756676Y-62048054D01*
X97765214Y-62063649D01*
X97841715Y-62165724D01*
X97854276Y-62178285D01*
X97956351Y-62254786D01*
X97971946Y-62263324D01*
X98092394Y-62308478D01*
X98107649Y-62312105D01*
X98158514Y-62317631D01*
X98165328Y-62318000D01*
X98787885Y-62318000D01*
X98803124Y-62313525D01*
X98804329Y-62312135D01*
X98806000Y-62304452D01*
X98806000Y-62299884D01*
X99314000Y-62299884D01*
X99318475Y-62315123D01*
X99319865Y-62316328D01*
X99327548Y-62317999D01*
X99954669Y-62317999D01*
X99961490Y-62317629D01*
X100012352Y-62312105D01*
X100027604Y-62308479D01*
X100148054Y-62263324D01*
X100163649Y-62254786D01*
X100265724Y-62178285D01*
X100278285Y-62165724D01*
X100354786Y-62063649D01*
X100363324Y-62048054D01*
X100408478Y-61927606D01*
X100412105Y-61912351D01*
X100417631Y-61861486D01*
X100418000Y-61854672D01*
X100418000Y-61232115D01*
X100413525Y-61216876D01*
X100412135Y-61215671D01*
X100404452Y-61214000D01*
X99332115Y-61214000D01*
X99316876Y-61218475D01*
X99315671Y-61219865D01*
X99314000Y-61227548D01*
X99314000Y-62299884D01*
X98806000Y-62299884D01*
X98806000Y-60687885D01*
X99314000Y-60687885D01*
X99318475Y-60703124D01*
X99319865Y-60704329D01*
X99327548Y-60706000D01*
X100399884Y-60706000D01*
X100415123Y-60701525D01*
X100416328Y-60700135D01*
X100417999Y-60692452D01*
X100417999Y-60065331D01*
X100417629Y-60058510D01*
X100412105Y-60007648D01*
X100408479Y-59992396D01*
X100363324Y-59871946D01*
X100354786Y-59856351D01*
X100278285Y-59754276D01*
X100265724Y-59741715D01*
X100163649Y-59665214D01*
X100148054Y-59656676D01*
X100037297Y-59615155D01*
X99980533Y-59572513D01*
X99955833Y-59505952D01*
X99971040Y-59436603D01*
X99992587Y-59407922D01*
X100094057Y-59306805D01*
X100100730Y-59298965D01*
X100225003Y-59126020D01*
X100230313Y-59117183D01*
X100324670Y-58926267D01*
X100328469Y-58916672D01*
X100390377Y-58712910D01*
X100392555Y-58702837D01*
X100393986Y-58691962D01*
X100391775Y-58677778D01*
X100378617Y-58674000D01*
X99332115Y-58674000D01*
X99316876Y-58678475D01*
X99315671Y-58679865D01*
X99314000Y-58687548D01*
X99314000Y-60687885D01*
X98806000Y-60687885D01*
X98806000Y-58147885D01*
X99314000Y-58147885D01*
X99318475Y-58163124D01*
X99319865Y-58164329D01*
X99327548Y-58166000D01*
X100378344Y-58166000D01*
X100391875Y-58162027D01*
X100393180Y-58152947D01*
X100351214Y-57985875D01*
X100347894Y-57976124D01*
X100262972Y-57780814D01*
X100258105Y-57771739D01*
X100142426Y-57592926D01*
X100136136Y-57584757D01*
X99992806Y-57427240D01*
X99985273Y-57420215D01*
X99818139Y-57288222D01*
X99809552Y-57282517D01*
X99623117Y-57179599D01*
X99613705Y-57175369D01*
X99412959Y-57104280D01*
X99402988Y-57101646D01*
X99331837Y-57088972D01*
X99318540Y-57090432D01*
X99314000Y-57104989D01*
X99314000Y-58147885D01*
X98806000Y-58147885D01*
X98806000Y-57103102D01*
X98802082Y-57089758D01*
X98787806Y-57087771D01*
X98749324Y-57093660D01*
X98739288Y-57096051D01*
X98536868Y-57162212D01*
X98527359Y-57166209D01*
X98338463Y-57264542D01*
X98329738Y-57270036D01*
X98159433Y-57397905D01*
X98151726Y-57404748D01*
X98004590Y-57558717D01*
X97998109Y-57566722D01*
X97893498Y-57720074D01*
X97838587Y-57765076D01*
X97768062Y-57773247D01*
X97704315Y-57741993D01*
X97683618Y-57717509D01*
X97602822Y-57592617D01*
X97602820Y-57592614D01*
X97600014Y-57588277D01*
X97449670Y-57423051D01*
X97445619Y-57419852D01*
X97445615Y-57419848D01*
X97278414Y-57287800D01*
X97278410Y-57287798D01*
X97274359Y-57284598D01*
X97238028Y-57264542D01*
X97179661Y-57232322D01*
X97078789Y-57176638D01*
X97073920Y-57174914D01*
X97073916Y-57174912D01*
X96873087Y-57103795D01*
X96873083Y-57103794D01*
X96868212Y-57102069D01*
X96863119Y-57101162D01*
X96863116Y-57101161D01*
X96653373Y-57063800D01*
X96653367Y-57063799D01*
X96648284Y-57062894D01*
X96574452Y-57061992D01*
X96430081Y-57060228D01*
X96430079Y-57060228D01*
X96424911Y-57060165D01*
X96204091Y-57093955D01*
X95991756Y-57163357D01*
X95913455Y-57204118D01*
X95855899Y-57234080D01*
X95793607Y-57266507D01*
X95789474Y-57269610D01*
X95789471Y-57269612D01*
X95765247Y-57287800D01*
X95614965Y-57400635D01*
X95460629Y-57562138D01*
X95353201Y-57719621D01*
X95298293Y-57764621D01*
X95227768Y-57772792D01*
X95164021Y-57741538D01*
X95143324Y-57717054D01*
X95062822Y-57592617D01*
X95062820Y-57592614D01*
X95060014Y-57588277D01*
X94909670Y-57423051D01*
X94905619Y-57419852D01*
X94905615Y-57419848D01*
X94738414Y-57287800D01*
X94738410Y-57287798D01*
X94734359Y-57284598D01*
X94698028Y-57264542D01*
X94639661Y-57232322D01*
X94538789Y-57176638D01*
X94533920Y-57174914D01*
X94533916Y-57174912D01*
X94333087Y-57103795D01*
X94333083Y-57103794D01*
X94328212Y-57102069D01*
X94323119Y-57101162D01*
X94323116Y-57101161D01*
X94113373Y-57063800D01*
X94113367Y-57063799D01*
X94108284Y-57062894D01*
X94034452Y-57061992D01*
X93890081Y-57060228D01*
X93890079Y-57060228D01*
X93884911Y-57060165D01*
X93664091Y-57093955D01*
X93451756Y-57163357D01*
X93373455Y-57204118D01*
X93315899Y-57234080D01*
X93253607Y-57266507D01*
X93249474Y-57269610D01*
X93249471Y-57269612D01*
X93225247Y-57287800D01*
X93074965Y-57400635D01*
X92920629Y-57562138D01*
X92813201Y-57719621D01*
X92758293Y-57764621D01*
X92687768Y-57772792D01*
X92624021Y-57741538D01*
X92603324Y-57717054D01*
X92522822Y-57592617D01*
X92522820Y-57592614D01*
X92520014Y-57588277D01*
X92369670Y-57423051D01*
X92365619Y-57419852D01*
X92365615Y-57419848D01*
X92198414Y-57287800D01*
X92198410Y-57287798D01*
X92194359Y-57284598D01*
X92158028Y-57264542D01*
X92099661Y-57232322D01*
X91998789Y-57176638D01*
X91993920Y-57174914D01*
X91993916Y-57174912D01*
X91793087Y-57103795D01*
X91793083Y-57103794D01*
X91788212Y-57102069D01*
X91783119Y-57101162D01*
X91783116Y-57101161D01*
X91573373Y-57063800D01*
X91573367Y-57063799D01*
X91568284Y-57062894D01*
X91494452Y-57061992D01*
X91350081Y-57060228D01*
X91350079Y-57060228D01*
X91344911Y-57060165D01*
X91124091Y-57093955D01*
X90911756Y-57163357D01*
X90833455Y-57204118D01*
X90775899Y-57234080D01*
X90713607Y-57266507D01*
X90709474Y-57269610D01*
X90709471Y-57269612D01*
X90685247Y-57287800D01*
X90534965Y-57400635D01*
X90380629Y-57562138D01*
X90273201Y-57719621D01*
X90218293Y-57764621D01*
X90147768Y-57772792D01*
X90084021Y-57741538D01*
X90063324Y-57717054D01*
X89982822Y-57592617D01*
X89982820Y-57592614D01*
X89980014Y-57588277D01*
X89829670Y-57423051D01*
X89825619Y-57419852D01*
X89825615Y-57419848D01*
X89658414Y-57287800D01*
X89658410Y-57287798D01*
X89654359Y-57284598D01*
X89618028Y-57264542D01*
X89559661Y-57232322D01*
X89458789Y-57176638D01*
X89453920Y-57174914D01*
X89453916Y-57174912D01*
X89253087Y-57103795D01*
X89253083Y-57103794D01*
X89248212Y-57102069D01*
X89243119Y-57101162D01*
X89243116Y-57101161D01*
X89033373Y-57063800D01*
X89033367Y-57063799D01*
X89028284Y-57062894D01*
X88954452Y-57061992D01*
X88810081Y-57060228D01*
X88810079Y-57060228D01*
X88804911Y-57060165D01*
X88584091Y-57093955D01*
X88371756Y-57163357D01*
X88293455Y-57204118D01*
X88235899Y-57234080D01*
X88173607Y-57266507D01*
X88169474Y-57269610D01*
X88169471Y-57269612D01*
X88145247Y-57287800D01*
X87994965Y-57400635D01*
X87840629Y-57562138D01*
X87733201Y-57719621D01*
X87678293Y-57764621D01*
X87607768Y-57772792D01*
X87544021Y-57741538D01*
X87523324Y-57717054D01*
X87442822Y-57592617D01*
X87442820Y-57592614D01*
X87440014Y-57588277D01*
X87289670Y-57423051D01*
X87285619Y-57419852D01*
X87285615Y-57419848D01*
X87118414Y-57287800D01*
X87118410Y-57287798D01*
X87114359Y-57284598D01*
X87078028Y-57264542D01*
X87019661Y-57232322D01*
X86918789Y-57176638D01*
X86913920Y-57174914D01*
X86913916Y-57174912D01*
X86713087Y-57103795D01*
X86713083Y-57103794D01*
X86708212Y-57102069D01*
X86703119Y-57101162D01*
X86703116Y-57101161D01*
X86493373Y-57063800D01*
X86493367Y-57063799D01*
X86488284Y-57062894D01*
X86414452Y-57061992D01*
X86270081Y-57060228D01*
X86270079Y-57060228D01*
X86264911Y-57060165D01*
X86044091Y-57093955D01*
X85831756Y-57163357D01*
X85753455Y-57204118D01*
X85695899Y-57234080D01*
X85633607Y-57266507D01*
X85629474Y-57269610D01*
X85629471Y-57269612D01*
X85605247Y-57287800D01*
X85454965Y-57400635D01*
X85300629Y-57562138D01*
X85174743Y-57746680D01*
X85080688Y-57949305D01*
X85020989Y-58164570D01*
X84997251Y-58386695D01*
X85010110Y-58609715D01*
X85011247Y-58614761D01*
X85011248Y-58614767D01*
X85024597Y-58674000D01*
X85059222Y-58827639D01*
X85143266Y-59034616D01*
X85259987Y-59225088D01*
X85406250Y-59393938D01*
X85578126Y-59536632D01*
X85639529Y-59572513D01*
X85651445Y-59579476D01*
X85700169Y-59631114D01*
X85713240Y-59700897D01*
X85686509Y-59766669D01*
X85646055Y-59800027D01*
X85633607Y-59806507D01*
X85629474Y-59809610D01*
X85629471Y-59809612D01*
X85546450Y-59871946D01*
X85454965Y-59940635D01*
X85300629Y-60102138D01*
X85174743Y-60286680D01*
X85080688Y-60489305D01*
X85020989Y-60704570D01*
X84997251Y-60926695D01*
X85010110Y-61149715D01*
X85011247Y-61154761D01*
X85011248Y-61154767D01*
X85025606Y-61218475D01*
X85059222Y-61367639D01*
X85143266Y-61574616D01*
X85259987Y-61765088D01*
X85406250Y-61933938D01*
X85578126Y-62076632D01*
X85771000Y-62189338D01*
X85979692Y-62269030D01*
X85984760Y-62270061D01*
X85984763Y-62270062D01*
X86092003Y-62291880D01*
X86198597Y-62313567D01*
X86203772Y-62313757D01*
X86203774Y-62313757D01*
X86416673Y-62321564D01*
X86416677Y-62321564D01*
X86421837Y-62321753D01*
X86426957Y-62321097D01*
X86426959Y-62321097D01*
X86638288Y-62294025D01*
X86638289Y-62294025D01*
X86643416Y-62293368D01*
X86648373Y-62291881D01*
X86648377Y-62291880D01*
X86738803Y-62264751D01*
X86809798Y-62264333D01*
X86869749Y-62302365D01*
X86899621Y-62366772D01*
X86901011Y-62385436D01*
X86901011Y-64550894D01*
X86881009Y-64619015D01*
X86864106Y-64639989D01*
X86817345Y-64686750D01*
X86755033Y-64720776D01*
X86706154Y-64721702D01*
X86493373Y-64683800D01*
X86493367Y-64683799D01*
X86488284Y-64682894D01*
X86414452Y-64681992D01*
X86270081Y-64680228D01*
X86270079Y-64680228D01*
X86264911Y-64680165D01*
X86044091Y-64713955D01*
X85831756Y-64783357D01*
X85633607Y-64886507D01*
X85629474Y-64889610D01*
X85629471Y-64889612D01*
X85605247Y-64907800D01*
X85454965Y-65020635D01*
X85300629Y-65182138D01*
X85174743Y-65366680D01*
X85080688Y-65569305D01*
X85020989Y-65784570D01*
X84997251Y-66006695D01*
X85010110Y-66229715D01*
X85011247Y-66234761D01*
X85011248Y-66234767D01*
X85043453Y-66377668D01*
X85038917Y-66448520D01*
X85009631Y-66494464D01*
X84793236Y-66710859D01*
X84784950Y-66718399D01*
X84778471Y-66722511D01*
X84773046Y-66728288D01*
X84731846Y-66772162D01*
X84729091Y-66775004D01*
X84709354Y-66794741D01*
X84706874Y-66797938D01*
X84699171Y-66806958D01*
X84668903Y-66839190D01*
X84665084Y-66846136D01*
X84665082Y-66846139D01*
X84659141Y-66856945D01*
X84648290Y-66873464D01*
X84635875Y-66889470D01*
X84632730Y-66896739D01*
X84632727Y-66896743D01*
X84618315Y-66930048D01*
X84613098Y-66940698D01*
X84591794Y-66979451D01*
X84589823Y-66987126D01*
X84589823Y-66987127D01*
X84586756Y-66999073D01*
X84580352Y-67017777D01*
X84572308Y-67036366D01*
X84571069Y-67044189D01*
X84571066Y-67044199D01*
X84565390Y-67080035D01*
X84562984Y-67091655D01*
X84551989Y-67134481D01*
X84551989Y-67154735D01*
X84550438Y-67174445D01*
X84547269Y-67194454D01*
X76920184Y-67194454D01*
X77075327Y-67083792D01*
X77083200Y-67077139D01*
X77234052Y-66926812D01*
X77240730Y-66918965D01*
X77365003Y-66746020D01*
X77370313Y-66737183D01*
X77464670Y-66546267D01*
X77468469Y-66536672D01*
X77530377Y-66332910D01*
X77532555Y-66322837D01*
X77533986Y-66311962D01*
X77531775Y-66297778D01*
X77518617Y-66294000D01*
X76472115Y-66294000D01*
X76456876Y-66298475D01*
X76455671Y-66299865D01*
X76454000Y-66307548D01*
X76454000Y-68307885D01*
X75946000Y-68307885D01*
X75946000Y-65767885D01*
X76454000Y-65767885D01*
X76458475Y-65783124D01*
X76459865Y-65784329D01*
X76467548Y-65786000D01*
X77518344Y-65786000D01*
X77531875Y-65782027D01*
X77533180Y-65772947D01*
X77491214Y-65605875D01*
X77487894Y-65596124D01*
X77402972Y-65400814D01*
X77398105Y-65391739D01*
X77282426Y-65212926D01*
X77276136Y-65204757D01*
X77132806Y-65047240D01*
X77125273Y-65040215D01*
X76958139Y-64908222D01*
X76949552Y-64902517D01*
X76763117Y-64799599D01*
X76753705Y-64795369D01*
X76552959Y-64724280D01*
X76542988Y-64721646D01*
X76471837Y-64708972D01*
X76458540Y-64710432D01*
X76454000Y-64724989D01*
X76454000Y-65767885D01*
X75946000Y-65767885D01*
X75946000Y-64723102D01*
X75942082Y-64709758D01*
X75927806Y-64707771D01*
X75889324Y-64713660D01*
X75879288Y-64716051D01*
X75676868Y-64782212D01*
X75667359Y-64786209D01*
X75478463Y-64884542D01*
X75469738Y-64890036D01*
X75299433Y-65017905D01*
X75291726Y-65024748D01*
X75144590Y-65178717D01*
X75138109Y-65186722D01*
X75033498Y-65340074D01*
X74978587Y-65385076D01*
X74908062Y-65393247D01*
X74844315Y-65361993D01*
X74823618Y-65337509D01*
X74742822Y-65212617D01*
X74742820Y-65212614D01*
X74740014Y-65208277D01*
X74589670Y-65043051D01*
X74585619Y-65039852D01*
X74585615Y-65039848D01*
X74418414Y-64907800D01*
X74418410Y-64907798D01*
X74414359Y-64904598D01*
X74378028Y-64884542D01*
X74362136Y-64875769D01*
X74218789Y-64796638D01*
X74213920Y-64794914D01*
X74213916Y-64794912D01*
X74013087Y-64723795D01*
X74013083Y-64723794D01*
X74008212Y-64722069D01*
X74003119Y-64721162D01*
X74003116Y-64721161D01*
X73793373Y-64683800D01*
X73793367Y-64683799D01*
X73788284Y-64682894D01*
X73714452Y-64681992D01*
X73570081Y-64680228D01*
X73570079Y-64680228D01*
X73564911Y-64680165D01*
X73344091Y-64713955D01*
X73131756Y-64783357D01*
X73112190Y-64793542D01*
X73042532Y-64807255D01*
X72976517Y-64781130D01*
X72935105Y-64723462D01*
X72928011Y-64681779D01*
X72928011Y-62317725D01*
X72948013Y-62249604D01*
X73001669Y-62203111D01*
X73071943Y-62193007D01*
X73098961Y-62200015D01*
X73279692Y-62269030D01*
X73284760Y-62270061D01*
X73284763Y-62270062D01*
X73392003Y-62291880D01*
X73498597Y-62313567D01*
X73503772Y-62313757D01*
X73503774Y-62313757D01*
X73716673Y-62321564D01*
X73716677Y-62321564D01*
X73721837Y-62321753D01*
X73726957Y-62321097D01*
X73726959Y-62321097D01*
X73938288Y-62294025D01*
X73938289Y-62294025D01*
X73943416Y-62293368D01*
X73948376Y-62291880D01*
X74152429Y-62230661D01*
X74152434Y-62230659D01*
X74157384Y-62229174D01*
X74357994Y-62130896D01*
X74539860Y-62001173D01*
X74607331Y-61933938D01*
X74648479Y-61892933D01*
X74710851Y-61859017D01*
X74781658Y-61864205D01*
X74838419Y-61906851D01*
X74855401Y-61937954D01*
X74896676Y-62048054D01*
X74905214Y-62063649D01*
X74981715Y-62165724D01*
X74994276Y-62178285D01*
X75096351Y-62254786D01*
X75111946Y-62263324D01*
X75232394Y-62308478D01*
X75247649Y-62312105D01*
X75298514Y-62317631D01*
X75305328Y-62318000D01*
X75927885Y-62318000D01*
X75943124Y-62313525D01*
X75944329Y-62312135D01*
X75946000Y-62304452D01*
X75946000Y-62299884D01*
X76454000Y-62299884D01*
X76458475Y-62315123D01*
X76459865Y-62316328D01*
X76467548Y-62317999D01*
X77094669Y-62317999D01*
X77101490Y-62317629D01*
X77152352Y-62312105D01*
X77167604Y-62308479D01*
X77288054Y-62263324D01*
X77303649Y-62254786D01*
X77405724Y-62178285D01*
X77418285Y-62165724D01*
X77494786Y-62063649D01*
X77503324Y-62048054D01*
X77548478Y-61927606D01*
X77552105Y-61912351D01*
X77557631Y-61861486D01*
X77558000Y-61854672D01*
X77558000Y-61232115D01*
X77553525Y-61216876D01*
X77552135Y-61215671D01*
X77544452Y-61214000D01*
X76472115Y-61214000D01*
X76456876Y-61218475D01*
X76455671Y-61219865D01*
X76454000Y-61227548D01*
X76454000Y-62299884D01*
X75946000Y-62299884D01*
X75946000Y-60687885D01*
X76454000Y-60687885D01*
X76458475Y-60703124D01*
X76459865Y-60704329D01*
X76467548Y-60706000D01*
X77539884Y-60706000D01*
X77555123Y-60701525D01*
X77556328Y-60700135D01*
X77557999Y-60692452D01*
X77557999Y-60065331D01*
X77557629Y-60058510D01*
X77552105Y-60007648D01*
X77548479Y-59992396D01*
X77503324Y-59871946D01*
X77494786Y-59856351D01*
X77418285Y-59754276D01*
X77405724Y-59741715D01*
X77303649Y-59665214D01*
X77288054Y-59656676D01*
X77177297Y-59615155D01*
X77120533Y-59572513D01*
X77095833Y-59505952D01*
X77111040Y-59436603D01*
X77132587Y-59407922D01*
X77234057Y-59306805D01*
X77240730Y-59298965D01*
X77365003Y-59126020D01*
X77370313Y-59117183D01*
X77464670Y-58926267D01*
X77468469Y-58916672D01*
X77530377Y-58712910D01*
X77532555Y-58702837D01*
X77533986Y-58691962D01*
X77531775Y-58677778D01*
X77518617Y-58674000D01*
X76472115Y-58674000D01*
X76456876Y-58678475D01*
X76455671Y-58679865D01*
X76454000Y-58687548D01*
X76454000Y-60687885D01*
X75946000Y-60687885D01*
X75946000Y-58147885D01*
X76454000Y-58147885D01*
X76458475Y-58163124D01*
X76459865Y-58164329D01*
X76467548Y-58166000D01*
X77518344Y-58166000D01*
X77531875Y-58162027D01*
X77533180Y-58152947D01*
X77491214Y-57985875D01*
X77487894Y-57976124D01*
X77402972Y-57780814D01*
X77398105Y-57771739D01*
X77282426Y-57592926D01*
X77276136Y-57584757D01*
X77132806Y-57427240D01*
X77125273Y-57420215D01*
X76958139Y-57288222D01*
X76949552Y-57282517D01*
X76763117Y-57179599D01*
X76753705Y-57175369D01*
X76552959Y-57104280D01*
X76542988Y-57101646D01*
X76471837Y-57088972D01*
X76458540Y-57090432D01*
X76454000Y-57104989D01*
X76454000Y-58147885D01*
X75946000Y-58147885D01*
X75946000Y-57103102D01*
X75942082Y-57089758D01*
X75927806Y-57087771D01*
X75889324Y-57093660D01*
X75879288Y-57096051D01*
X75676868Y-57162212D01*
X75667359Y-57166209D01*
X75478463Y-57264542D01*
X75469738Y-57270036D01*
X75299433Y-57397905D01*
X75291726Y-57404748D01*
X75144590Y-57558717D01*
X75138109Y-57566722D01*
X75033498Y-57720074D01*
X74978587Y-57765076D01*
X74908062Y-57773247D01*
X74844315Y-57741993D01*
X74823618Y-57717509D01*
X74742822Y-57592617D01*
X74742820Y-57592614D01*
X74740014Y-57588277D01*
X74589670Y-57423051D01*
X74585619Y-57419852D01*
X74585615Y-57419848D01*
X74418414Y-57287800D01*
X74418410Y-57287798D01*
X74414359Y-57284598D01*
X74378028Y-57264542D01*
X74319661Y-57232322D01*
X74218789Y-57176638D01*
X74213920Y-57174914D01*
X74213916Y-57174912D01*
X74013087Y-57103795D01*
X74013083Y-57103794D01*
X74008212Y-57102069D01*
X74003119Y-57101162D01*
X74003116Y-57101161D01*
X73793373Y-57063800D01*
X73793367Y-57063799D01*
X73788284Y-57062894D01*
X73714452Y-57061992D01*
X73570081Y-57060228D01*
X73570079Y-57060228D01*
X73564911Y-57060165D01*
X73344091Y-57093955D01*
X73131756Y-57163357D01*
X73053455Y-57204118D01*
X72995899Y-57234080D01*
X72933607Y-57266507D01*
X72929474Y-57269610D01*
X72929471Y-57269612D01*
X72905247Y-57287800D01*
X72754965Y-57400635D01*
X72600629Y-57562138D01*
X72493201Y-57719621D01*
X72438293Y-57764621D01*
X72367768Y-57772792D01*
X72304021Y-57741538D01*
X72283324Y-57717054D01*
X72202822Y-57592617D01*
X72202820Y-57592614D01*
X72200014Y-57588277D01*
X72049670Y-57423051D01*
X72045619Y-57419852D01*
X72045615Y-57419848D01*
X71878414Y-57287800D01*
X71878410Y-57287798D01*
X71874359Y-57284598D01*
X71838028Y-57264542D01*
X71779661Y-57232322D01*
X71678789Y-57176638D01*
X71673920Y-57174914D01*
X71673916Y-57174912D01*
X71473087Y-57103795D01*
X71473083Y-57103794D01*
X71468212Y-57102069D01*
X71463119Y-57101162D01*
X71463116Y-57101161D01*
X71253373Y-57063800D01*
X71253367Y-57063799D01*
X71248284Y-57062894D01*
X71174452Y-57061992D01*
X71030081Y-57060228D01*
X71030079Y-57060228D01*
X71024911Y-57060165D01*
X70804091Y-57093955D01*
X70591756Y-57163357D01*
X70513455Y-57204118D01*
X70455899Y-57234080D01*
X70393607Y-57266507D01*
X70389474Y-57269610D01*
X70389471Y-57269612D01*
X70365247Y-57287800D01*
X70214965Y-57400635D01*
X70060629Y-57562138D01*
X69953201Y-57719621D01*
X69898293Y-57764621D01*
X69827768Y-57772792D01*
X69764021Y-57741538D01*
X69743324Y-57717054D01*
X69662822Y-57592617D01*
X69662820Y-57592614D01*
X69660014Y-57588277D01*
X69509670Y-57423051D01*
X69505619Y-57419852D01*
X69505615Y-57419848D01*
X69338414Y-57287800D01*
X69338410Y-57287798D01*
X69334359Y-57284598D01*
X69298028Y-57264542D01*
X69239661Y-57232322D01*
X69138789Y-57176638D01*
X69133920Y-57174914D01*
X69133916Y-57174912D01*
X68933087Y-57103795D01*
X68933083Y-57103794D01*
X68928212Y-57102069D01*
X68923119Y-57101162D01*
X68923116Y-57101161D01*
X68713373Y-57063800D01*
X68713367Y-57063799D01*
X68708284Y-57062894D01*
X68634452Y-57061992D01*
X68490081Y-57060228D01*
X68490079Y-57060228D01*
X68484911Y-57060165D01*
X68264091Y-57093955D01*
X68051756Y-57163357D01*
X67973455Y-57204118D01*
X67915899Y-57234080D01*
X67853607Y-57266507D01*
X67849474Y-57269610D01*
X67849471Y-57269612D01*
X67825247Y-57287800D01*
X67674965Y-57400635D01*
X67520629Y-57562138D01*
X67413201Y-57719621D01*
X67358293Y-57764621D01*
X67287768Y-57772792D01*
X67224021Y-57741538D01*
X67203324Y-57717054D01*
X67122822Y-57592617D01*
X67122820Y-57592614D01*
X67120014Y-57588277D01*
X66969670Y-57423051D01*
X66965619Y-57419852D01*
X66965615Y-57419848D01*
X66798414Y-57287800D01*
X66798410Y-57287798D01*
X66794359Y-57284598D01*
X66758028Y-57264542D01*
X66699661Y-57232322D01*
X66598789Y-57176638D01*
X66593920Y-57174914D01*
X66593916Y-57174912D01*
X66393087Y-57103795D01*
X66393083Y-57103794D01*
X66388212Y-57102069D01*
X66383119Y-57101162D01*
X66383116Y-57101161D01*
X66173373Y-57063800D01*
X66173367Y-57063799D01*
X66168284Y-57062894D01*
X66094452Y-57061992D01*
X65950081Y-57060228D01*
X65950079Y-57060228D01*
X65944911Y-57060165D01*
X65724091Y-57093955D01*
X65511756Y-57163357D01*
X65433455Y-57204118D01*
X65375899Y-57234080D01*
X65313607Y-57266507D01*
X65309474Y-57269610D01*
X65309471Y-57269612D01*
X65285247Y-57287800D01*
X65134965Y-57400635D01*
X64980629Y-57562138D01*
X64873201Y-57719621D01*
X64818293Y-57764621D01*
X64747768Y-57772792D01*
X64684021Y-57741538D01*
X64663324Y-57717054D01*
X64582822Y-57592617D01*
X64582820Y-57592614D01*
X64580014Y-57588277D01*
X64429670Y-57423051D01*
X64425619Y-57419852D01*
X64425615Y-57419848D01*
X64258414Y-57287800D01*
X64258410Y-57287798D01*
X64254359Y-57284598D01*
X64218028Y-57264542D01*
X64159661Y-57232322D01*
X64058789Y-57176638D01*
X64053920Y-57174914D01*
X64053916Y-57174912D01*
X63853087Y-57103795D01*
X63853083Y-57103794D01*
X63848212Y-57102069D01*
X63843119Y-57101162D01*
X63843116Y-57101161D01*
X63633373Y-57063800D01*
X63633367Y-57063799D01*
X63628284Y-57062894D01*
X63554452Y-57061992D01*
X63410081Y-57060228D01*
X63410079Y-57060228D01*
X63404911Y-57060165D01*
X63184091Y-57093955D01*
X62971756Y-57163357D01*
X62893455Y-57204118D01*
X62835899Y-57234080D01*
X62773607Y-57266507D01*
X62769474Y-57269610D01*
X62769471Y-57269612D01*
X62745247Y-57287800D01*
X62594965Y-57400635D01*
X62440629Y-57562138D01*
X62314743Y-57746680D01*
X62220688Y-57949305D01*
X62160989Y-58164570D01*
X62137251Y-58386695D01*
X62150110Y-58609715D01*
X62151247Y-58614761D01*
X62151248Y-58614767D01*
X62164597Y-58674000D01*
X62199222Y-58827639D01*
X62283266Y-59034616D01*
X62399987Y-59225088D01*
X62546250Y-59393938D01*
X62718126Y-59536632D01*
X62779529Y-59572513D01*
X62791445Y-59579476D01*
X62840169Y-59631114D01*
X62853240Y-59700897D01*
X62826509Y-59766669D01*
X62786055Y-59800027D01*
X62773607Y-59806507D01*
X62769474Y-59809610D01*
X62769471Y-59809612D01*
X62686450Y-59871946D01*
X62594965Y-59940635D01*
X62440629Y-60102138D01*
X62314743Y-60286680D01*
X62220688Y-60489305D01*
X62160989Y-60704570D01*
X62137251Y-60926695D01*
X62150110Y-61149715D01*
X62151247Y-61154761D01*
X62151248Y-61154767D01*
X62165606Y-61218475D01*
X62199222Y-61367639D01*
X62283266Y-61574616D01*
X62399987Y-61765088D01*
X62546250Y-61933938D01*
X62718126Y-62076632D01*
X62911000Y-62189338D01*
X63119692Y-62269030D01*
X63124760Y-62270061D01*
X63124763Y-62270062D01*
X63232003Y-62291880D01*
X63338597Y-62313567D01*
X63343772Y-62313757D01*
X63343774Y-62313757D01*
X63556673Y-62321564D01*
X63556677Y-62321564D01*
X63561837Y-62321753D01*
X63566957Y-62321097D01*
X63566959Y-62321097D01*
X63778288Y-62294025D01*
X63778289Y-62294025D01*
X63783416Y-62293368D01*
X63788373Y-62291881D01*
X63788377Y-62291880D01*
X63878803Y-62264751D01*
X63949798Y-62264333D01*
X64009749Y-62302365D01*
X64039621Y-62366772D01*
X64041011Y-62385436D01*
X64041011Y-64550894D01*
X64021009Y-64619015D01*
X64004106Y-64639989D01*
X63957345Y-64686750D01*
X63895033Y-64720776D01*
X63846154Y-64721702D01*
X63633373Y-64683800D01*
X63633367Y-64683799D01*
X63628284Y-64682894D01*
X63554452Y-64681992D01*
X63410081Y-64680228D01*
X63410079Y-64680228D01*
X63404911Y-64680165D01*
X63184091Y-64713955D01*
X62971756Y-64783357D01*
X62773607Y-64886507D01*
X62769474Y-64889610D01*
X62769471Y-64889612D01*
X62745247Y-64907800D01*
X62594965Y-65020635D01*
X62440629Y-65182138D01*
X62314743Y-65366680D01*
X62220688Y-65569305D01*
X62160989Y-65784570D01*
X62137251Y-66006695D01*
X62150110Y-66229715D01*
X62151247Y-66234761D01*
X62151248Y-66234767D01*
X62183453Y-66377668D01*
X62178917Y-66448520D01*
X62149631Y-66494464D01*
X61933236Y-66710859D01*
X61924950Y-66718399D01*
X61918471Y-66722511D01*
X61913046Y-66728288D01*
X61871846Y-66772162D01*
X61869091Y-66775004D01*
X61849354Y-66794741D01*
X61846874Y-66797938D01*
X61839171Y-66806958D01*
X61808903Y-66839190D01*
X61805084Y-66846136D01*
X61805082Y-66846139D01*
X61799141Y-66856945D01*
X61788290Y-66873464D01*
X61775875Y-66889470D01*
X61772730Y-66896739D01*
X61772727Y-66896743D01*
X61758315Y-66930048D01*
X61753098Y-66940698D01*
X61731794Y-66979451D01*
X61729823Y-66987126D01*
X61729823Y-66987127D01*
X61726756Y-66999073D01*
X61720352Y-67017777D01*
X61712308Y-67036366D01*
X61711069Y-67044189D01*
X61711066Y-67044199D01*
X61705390Y-67080035D01*
X61702984Y-67091655D01*
X61691989Y-67134481D01*
X61691989Y-67154735D01*
X61690438Y-67174445D01*
X61687269Y-67194454D01*
X48768500Y-67194454D01*
X48768500Y-55483017D01*
X48788502Y-55414896D01*
X48842158Y-55368403D01*
X48912432Y-55358299D01*
X48977012Y-55387793D01*
X49007213Y-55426698D01*
X49112161Y-55636731D01*
X49134231Y-55680901D01*
X49358974Y-56045502D01*
X49615239Y-56388682D01*
X49617100Y-56390760D01*
X49617101Y-56390761D01*
X49899127Y-56705637D01*
X49899133Y-56705643D01*
X49900995Y-56707722D01*
X50213981Y-57000098D01*
X50551719Y-57263493D01*
X50911533Y-57495822D01*
X50914012Y-57497126D01*
X50914015Y-57497128D01*
X51288077Y-57693932D01*
X51288083Y-57693935D01*
X51290577Y-57695247D01*
X51293175Y-57696331D01*
X51293179Y-57696333D01*
X51683263Y-57859109D01*
X51683268Y-57859111D01*
X51685847Y-57860187D01*
X51688512Y-57861030D01*
X51688518Y-57861032D01*
X51910561Y-57931254D01*
X52094214Y-57989336D01*
X52512446Y-58081673D01*
X52515220Y-58082031D01*
X52515221Y-58082031D01*
X52934460Y-58136109D01*
X52934467Y-58136110D01*
X52937230Y-58136466D01*
X52940017Y-58136576D01*
X52940023Y-58136576D01*
X53188238Y-58146328D01*
X53365203Y-58153281D01*
X53367995Y-58153142D01*
X53368000Y-58153142D01*
X53790172Y-58132125D01*
X53790181Y-58132124D01*
X53792976Y-58131985D01*
X53795753Y-58131597D01*
X53795755Y-58131597D01*
X53870066Y-58121219D01*
X54217163Y-58072747D01*
X54634404Y-57976036D01*
X54848307Y-57905915D01*
X55038744Y-57843487D01*
X55038750Y-57843485D01*
X55041397Y-57842617D01*
X55434918Y-57673547D01*
X55811852Y-57470164D01*
X56169214Y-57234080D01*
X56504175Y-56967162D01*
X56814082Y-56671525D01*
X56815919Y-56669431D01*
X56815927Y-56669422D01*
X57094635Y-56351616D01*
X57096482Y-56349510D01*
X57349139Y-56003666D01*
X57350585Y-56001265D01*
X57568601Y-55639142D01*
X57568606Y-55639133D01*
X57570052Y-55636731D01*
X57705551Y-55358299D01*
X57756238Y-55254145D01*
X57756239Y-55254142D01*
X57757471Y-55251611D01*
X57890724Y-54901741D01*
X57908918Y-54853971D01*
X57908920Y-54853964D01*
X57909914Y-54851355D01*
X58026173Y-54439132D01*
X58095433Y-54070822D01*
X58104811Y-54020954D01*
X58104813Y-54020942D01*
X58105327Y-54018207D01*
X58146750Y-53591911D01*
X58148194Y-53536780D01*
X58153289Y-53342234D01*
X58153289Y-53342220D01*
X58153347Y-53340000D01*
X58134291Y-52912121D01*
X58077275Y-52487630D01*
X58048666Y-52361193D01*
X57983368Y-52072618D01*
X57983368Y-52072617D01*
X57982750Y-52069887D01*
X57851463Y-51662202D01*
X57698635Y-51301285D01*
X57685550Y-51270384D01*
X57685548Y-51270379D01*
X57684456Y-51267801D01*
X57483050Y-50889807D01*
X57248840Y-50531214D01*
X56983680Y-50194860D01*
X56689670Y-49883409D01*
X56687579Y-49881556D01*
X56687571Y-49881548D01*
X56371237Y-49601188D01*
X56371235Y-49601186D01*
X56369137Y-49599327D01*
X56024621Y-49344863D01*
X55831733Y-49227355D01*
X55661237Y-49123487D01*
X55661230Y-49123483D01*
X55658848Y-49122032D01*
X55541514Y-49064169D01*
X55526022Y-49056529D01*
X55426612Y-49007506D01*
X55374363Y-48959438D01*
X55356396Y-48890752D01*
X55378415Y-48823256D01*
X55433430Y-48778380D01*
X55482340Y-48768500D01*
X129936422Y-48768500D01*
X130004543Y-48788502D01*
G37*
%TD.AperFunction*%
%TD*%
M02*
