M48
; DRILL file {KiCad 5.1.10} date Fri Sep 24 20:41:13 2021
; FORMAT={-:-/ absolute / inch / decimal}
; #@! TF.CreationDate,2021-09-24T20:41:13+02:00
; #@! TF.GenerationSoftware,Kicad,Pcbnew,5.1.10
; #@! TF.FileFunction,Plated,1,2,PTH
FMAT,2
INCH
T1C0.0157
T2C0.0177
T3C0.0197
T4C0.0256
T5C0.0300
T6C0.0394
T7C0.1260
%
G90
G05
T1
X2.5Y-2.4
X2.5Y-2.5
X2.5Y-2.7
X2.7Y-3.35
X2.8Y-1.6
X2.8Y-2.5
X2.8Y-3.25
X2.85Y-1.7
X2.9Y-1.9
X2.9Y-2.5
X2.9Y-3.15
X2.95Y-2.4
X3.0Y-1.8
X3.0Y-3.05
X3.1Y-1.9
X3.15Y-2.45
X3.2Y-1.8
X3.25Y-2.5
X3.3Y-2.6
X3.4Y-1.6
X3.4Y-2.6
X3.5Y-2.55
X3.55Y-2.6
X3.6Y-1.55
X3.65Y-1.6
X3.7Y-1.65
X3.7Y-3.3
X3.75Y-1.7
X3.8Y-1.8
X3.8Y-3.2
X3.9Y-1.55
X3.9Y-1.65
X3.9Y-3.1
X4.0Y-1.6
X4.0Y-1.8
X4.0Y-3.0
X4.1Y-2.4
X4.2Y-1.7
X4.475Y-1.8
X4.5Y-2.7
X4.55Y-3.35
X4.6Y-3.3
X4.65Y-3.25
X4.7Y-3.2
X4.75Y-3.15
X4.8Y-3.1
X4.85Y-3.05
X4.9Y-3.0
X4.95Y-2.15
X4.95Y-2.5
X5.0Y-2.25
X5.0Y-2.45
X5.0Y-2.7
X5.2Y-2.6
X5.25Y-2.05
X5.25Y-2.65
X5.3Y-2.15
X5.3Y-2.75
X5.4Y-2.0
X5.4Y-2.15
X5.4Y-2.25
X5.4Y-2.45
X5.5Y-1.9
X5.65Y-2.05
X5.65Y-2.1
X5.65Y-2.3
X5.65Y-2.4
X5.7Y-1.8
X5.7Y-2.0
X5.7Y-2.15
X5.7Y-2.25
X5.7Y-2.45
X5.75Y-2.2
X5.75Y-2.6
T3
X2.2055Y-1.2
X2.211Y-3.2
X2.2332Y-1.1332
X2.2332Y-1.2668
X2.2387Y-3.1332
X2.2387Y-3.2668
X2.3Y-1.1055
X2.3Y-1.2945
X2.3055Y-3.1055
X2.3055Y-3.2945
X2.3668Y-1.1332
X2.3668Y-1.2668
X2.3723Y-3.1332
X2.3723Y-3.2668
X2.3945Y-1.2
X2.4Y-3.2
X5.5055Y-1.2
X5.5055Y-3.175
X5.5332Y-1.1332
X5.5332Y-1.2668
X5.5332Y-3.1082
X5.5332Y-3.2418
X5.6Y-1.1055
X5.6Y-1.2945
X5.6Y-3.0805
X5.6Y-3.2695
X5.6668Y-1.1332
X5.6668Y-1.2668
X5.6668Y-3.1082
X5.6668Y-3.2418
X5.6945Y-1.2
X5.6945Y-3.175
T4
X5.5Y-2.1
X5.5Y-2.15
X5.5Y-2.2
X5.5Y-2.25
X5.5Y-2.3
X5.55Y-2.1
X5.55Y-2.15
X5.55Y-2.2
X5.55Y-2.25
X5.55Y-2.3
T5
X2.6Y-2.0
X2.6Y-2.2
X2.6Y-2.3
X2.6Y-2.7
X2.6Y-2.8
X2.6Y-2.9
X2.7Y-2.0
X2.7Y-2.2
X2.7Y-2.3
X2.7Y-2.7
X2.7Y-2.8
X2.7Y-2.9
X2.8Y-2.0
X2.8Y-2.2
X2.8Y-2.3
X2.8Y-2.7
X2.8Y-2.8
X2.8Y-2.9
X2.9Y-2.0
X2.9Y-2.2
X2.9Y-2.3
X2.9Y-2.7
X2.9Y-2.8
X2.9Y-2.9
X3.0Y-2.0
X3.0Y-2.2
X3.0Y-2.3
X3.0Y-2.7
X3.0Y-2.8
X3.0Y-2.9
X3.1Y-2.0
X3.1Y-2.2
X3.1Y-2.3
X3.1Y-2.7
X3.1Y-2.8
X3.1Y-2.9
X3.2Y-2.0
X3.2Y-2.2
X3.2Y-2.3
X3.2Y-2.7
X3.2Y-2.8
X3.2Y-2.9
X3.3Y-2.0
X3.3Y-2.2
X3.3Y-2.3
X3.3Y-2.7
X3.3Y-2.8
X3.3Y-2.9
X3.4Y-2.0
X3.4Y-2.2
X3.4Y-2.3
X3.4Y-2.7
X3.4Y-2.8
X3.4Y-2.9
X3.5Y-2.2
X3.5Y-2.3
X3.5Y-2.8
X3.5Y-2.9
X3.6Y-2.0
X3.6Y-2.2
X3.6Y-2.3
X3.6Y-2.7
X3.6Y-2.8
X3.6Y-2.9
X3.7Y-2.0
X3.7Y-2.2
X3.7Y-2.3
X3.7Y-2.7
X3.7Y-2.8
X3.7Y-2.9
X3.8Y-2.0
X3.8Y-2.2
X3.8Y-2.3
X3.8Y-2.7
X3.8Y-2.8
X3.8Y-2.9
X3.9Y-2.0
X3.9Y-2.2
X3.9Y-2.3
X3.9Y-2.7
X3.9Y-2.8
X3.9Y-2.9
X4.0Y-2.0
X4.0Y-2.2
X4.0Y-2.3
X4.0Y-2.7
X4.0Y-2.8
X4.0Y-2.9
X4.1Y-2.0
X4.1Y-2.2
X4.1Y-2.3
X4.1Y-2.7
X4.1Y-2.8
X4.1Y-2.9
X4.2Y-2.0
X4.2Y-2.2
X4.2Y-2.3
X4.2Y-2.7
X4.2Y-2.8
X4.2Y-2.9
X4.3Y-2.0
X4.3Y-2.2
X4.3Y-2.3
X4.3Y-2.7
X4.3Y-2.8
X4.3Y-2.9
X4.4Y-2.2
X4.4Y-2.3
X4.4Y-2.8
X4.4Y-2.9
X4.5Y-2.2
X4.5Y-2.3
X4.5Y-2.8
X4.5Y-2.9
T6
X2.8Y-1.1
X2.8Y-1.2
X2.9Y-1.1
X2.9Y-1.2
X3.0Y-1.1
X3.0Y-1.2
X3.1Y-1.1
X3.1Y-1.2
X3.2Y-1.1
X3.2Y-1.2
X3.3Y-1.1
X3.3Y-1.2
X3.7Y-1.1
X3.7Y-1.2
X3.8Y-1.1
X3.8Y-1.2
X3.9Y-1.1
X3.9Y-1.2
X4.0Y-1.1
X4.0Y-1.2
X4.1Y-1.1
X4.1Y-1.2
X4.2Y-1.1
X4.2Y-1.2
X4.6Y-1.1
X4.6Y-1.2
X4.7Y-1.1
X4.7Y-1.2
X4.8Y-1.1
X4.8Y-1.2
X4.9Y-1.1
X4.9Y-1.2
X5.0Y-1.1
X5.0Y-1.2
X5.1Y-1.1
X5.1Y-1.2
X5.1Y-2.05
X5.1Y-2.15
X5.1Y-2.25
X5.1Y-2.35
X5.1Y-2.55
X5.1Y-2.65
X5.1Y-2.75
X5.1Y-2.85
X5.2Y-2.05
X5.2Y-2.15
X5.2Y-2.25
X5.2Y-2.35
T7
X2.3Y-1.2
X2.3055Y-3.2
X5.6Y-1.2
X5.6Y-3.175
T2
G00X2.1634Y-2.3093
M15
G01X2.1319Y-2.3093
M16
G05
G00X2.1634Y-2.5907
M15
G01X2.1319Y-2.5907
M16
G05
G00X2.2992Y-2.3093
M15
G01X2.2677Y-2.3093
M16
G05
G00X2.2992Y-2.5898
M15
G01X2.2677Y-2.5898
M16
G05
T0
M30
