%TF.GenerationSoftware,KiCad,Pcbnew,5.1.10*%
%TF.CreationDate,2021-09-24T20:41:10+02:00*%
%TF.ProjectId,ucdev_board,75636465-765f-4626-9f61-72642e6b6963,rev?*%
%TF.SameCoordinates,Original*%
%TF.FileFunction,Soldermask,Bot*%
%TF.FilePolarity,Negative*%
%FSLAX46Y46*%
G04 Gerber Fmt 4.6, Leading zero omitted, Abs format (unit mm)*
G04 Created by KiCad (PCBNEW 5.1.10) date 2021-09-24 20:41:10*
%MOMM*%
%LPD*%
G01*
G04 APERTURE LIST*
%ADD10C,0.650000*%
%ADD11O,1.850000X1.050000*%
%ADD12C,1.200000*%
%ADD13O,1.000000X1.000000*%
%ADD14R,1.000000X1.000000*%
%ADD15C,1.524000*%
%ADD16C,0.800000*%
%ADD17C,6.400000*%
%ADD18O,1.700000X1.700000*%
%ADD19R,1.700000X1.700000*%
G04 APERTURE END LIST*
D10*
%TO.C,J8*%
X56680000Y-60230000D03*
X56680000Y-64230000D03*
D11*
X58000000Y-65780000D03*
X58000000Y-58655000D03*
X54550000Y-58655000D03*
X54550000Y-65805000D03*
%TD*%
D12*
%TO.C,BT1*%
X139790000Y-41910000D03*
X132290000Y-41910000D03*
%TD*%
D13*
%TO.C,JTAG1*%
X140970000Y-58420000D03*
X139700000Y-58420000D03*
X140970000Y-57150000D03*
X139700000Y-57150000D03*
X140970000Y-55880000D03*
X139700000Y-55880000D03*
X140970000Y-54610000D03*
X139700000Y-54610000D03*
X140970000Y-53340000D03*
D14*
X139700000Y-53340000D03*
%TD*%
D15*
%TO.C,U2*%
X66040000Y-58420000D03*
X68580000Y-58420000D03*
X71120000Y-58420000D03*
X73660000Y-58420000D03*
X76200000Y-58420000D03*
X78740000Y-58420000D03*
X81280000Y-58420000D03*
X83820000Y-58420000D03*
X86360000Y-58420000D03*
X88900000Y-58420000D03*
X91440000Y-58420000D03*
X93980000Y-58420000D03*
X96520000Y-58420000D03*
X99060000Y-58420000D03*
X101600000Y-58420000D03*
X104140000Y-58420000D03*
X106680000Y-58420000D03*
X109220000Y-58420000D03*
X111760000Y-58420000D03*
X114300000Y-58420000D03*
X114300000Y-73660000D03*
X111760000Y-73660000D03*
X109220000Y-73660000D03*
X106680000Y-73660000D03*
X104140000Y-73660000D03*
X101600000Y-73660000D03*
X99060000Y-73660000D03*
X96520000Y-73660000D03*
X93980000Y-73660000D03*
X91440000Y-73660000D03*
X88900000Y-73660000D03*
X86360000Y-73660000D03*
X83820000Y-73660000D03*
X81280000Y-73660000D03*
X78740000Y-73660000D03*
X76200000Y-73660000D03*
X73660000Y-73660000D03*
X71120000Y-73660000D03*
X68580000Y-73660000D03*
X66040000Y-73660000D03*
%TD*%
D16*
%TO.C,H4*%
X143937056Y-78947944D03*
X142240000Y-78245000D03*
X140542944Y-78947944D03*
X139840000Y-80645000D03*
X140542944Y-82342056D03*
X142240000Y-83045000D03*
X143937056Y-82342056D03*
X144640000Y-80645000D03*
D17*
X142240000Y-80645000D03*
%TD*%
D16*
%TO.C,H3*%
X60257056Y-79582944D03*
X58560000Y-78880000D03*
X56862944Y-79582944D03*
X56160000Y-81280000D03*
X56862944Y-82977056D03*
X58560000Y-83680000D03*
X60257056Y-82977056D03*
X60960000Y-81280000D03*
D17*
X58560000Y-81280000D03*
%TD*%
D16*
%TO.C,H2*%
X143937056Y-28782944D03*
X142240000Y-28080000D03*
X140542944Y-28782944D03*
X139840000Y-30480000D03*
X140542944Y-32177056D03*
X142240000Y-32880000D03*
X143937056Y-32177056D03*
X144640000Y-30480000D03*
D17*
X142240000Y-30480000D03*
%TD*%
D16*
%TO.C,H1*%
X60117056Y-28782944D03*
X58420000Y-28080000D03*
X56722944Y-28782944D03*
X56020000Y-30480000D03*
X56722944Y-32177056D03*
X58420000Y-32880000D03*
X60117056Y-32177056D03*
X60820000Y-30480000D03*
D17*
X58420000Y-30480000D03*
%TD*%
D18*
%TO.C,PMOD4*%
X116840000Y-27940000D03*
X116840000Y-30480000D03*
X119380000Y-27940000D03*
X119380000Y-30480000D03*
X121920000Y-27940000D03*
X121920000Y-30480000D03*
X124460000Y-27940000D03*
X124460000Y-30480000D03*
X127000000Y-27940000D03*
X127000000Y-30480000D03*
X129540000Y-27940000D03*
D19*
X129540000Y-30480000D03*
%TD*%
D18*
%TO.C,PMOD3*%
X93980000Y-27940000D03*
X93980000Y-30480000D03*
X96520000Y-27940000D03*
X96520000Y-30480000D03*
X99060000Y-27940000D03*
X99060000Y-30480000D03*
X101600000Y-27940000D03*
X101600000Y-30480000D03*
X104140000Y-27940000D03*
X104140000Y-30480000D03*
X106680000Y-27940000D03*
D19*
X106680000Y-30480000D03*
%TD*%
D18*
%TO.C,PMOD2*%
X71120000Y-27940000D03*
X71120000Y-30480000D03*
X73660000Y-27940000D03*
X73660000Y-30480000D03*
X76200000Y-27940000D03*
X76200000Y-30480000D03*
X78740000Y-27940000D03*
X78740000Y-30480000D03*
X81280000Y-27940000D03*
X81280000Y-30480000D03*
X83820000Y-27940000D03*
D19*
X83820000Y-30480000D03*
%TD*%
D18*
%TO.C,J3*%
X129540000Y-52070000D03*
X132080000Y-52070000D03*
X129540000Y-54610000D03*
X132080000Y-54610000D03*
X129540000Y-57150000D03*
X132080000Y-57150000D03*
X129540000Y-59690000D03*
D19*
X132080000Y-59690000D03*
%TD*%
D18*
%TO.C,J2*%
X129540000Y-64770000D03*
X129540000Y-67310000D03*
X129540000Y-69850000D03*
D19*
X129540000Y-72390000D03*
%TD*%
D15*
%TO.C,U3*%
X66040000Y-50800000D03*
X68580000Y-50800000D03*
X71120000Y-50800000D03*
X73660000Y-50800000D03*
X76200000Y-50800000D03*
X78740000Y-50800000D03*
X81280000Y-50800000D03*
X83820000Y-50800000D03*
X86360000Y-50800000D03*
X91440000Y-50800000D03*
X93980000Y-50800000D03*
X96520000Y-50800000D03*
X99060000Y-50800000D03*
X101600000Y-50800000D03*
X104140000Y-50800000D03*
X106680000Y-50800000D03*
X109220000Y-50800000D03*
X109220000Y-68580000D03*
X106680000Y-68580000D03*
X101600000Y-68580000D03*
X99060000Y-68580000D03*
X96520000Y-68580000D03*
X93980000Y-68580000D03*
X91440000Y-68580000D03*
X86360000Y-68580000D03*
X83820000Y-68580000D03*
X81280000Y-68580000D03*
X78740000Y-68580000D03*
X76200000Y-68580000D03*
X73660000Y-68580000D03*
X71120000Y-68580000D03*
X68580000Y-68580000D03*
X66040000Y-68580000D03*
X104140000Y-68580000D03*
%TD*%
%TO.C,U1*%
X66040000Y-55880000D03*
X68580000Y-55880000D03*
X71120000Y-55880000D03*
X73660000Y-55880000D03*
X76200000Y-55880000D03*
X78740000Y-55880000D03*
X81280000Y-55880000D03*
X83820000Y-55880000D03*
X86360000Y-55880000D03*
X88900000Y-55880000D03*
X91440000Y-55880000D03*
X93980000Y-55880000D03*
X96520000Y-55880000D03*
X99060000Y-55880000D03*
X101600000Y-55880000D03*
X104140000Y-55880000D03*
X106680000Y-55880000D03*
X109220000Y-55880000D03*
X111760000Y-55880000D03*
X114300000Y-55880000D03*
X114300000Y-71120000D03*
X111760000Y-71120000D03*
X109220000Y-71120000D03*
X106680000Y-71120000D03*
X104140000Y-71120000D03*
X101600000Y-71120000D03*
X99060000Y-71120000D03*
X96520000Y-71120000D03*
X93980000Y-71120000D03*
X91440000Y-71120000D03*
X88900000Y-71120000D03*
X86360000Y-71120000D03*
X83820000Y-71120000D03*
X81280000Y-71120000D03*
X78740000Y-71120000D03*
X76200000Y-71120000D03*
X73660000Y-71120000D03*
X71120000Y-71120000D03*
X68580000Y-71120000D03*
X66040000Y-71120000D03*
%TD*%
M02*
