%TF.GenerationSoftware,KiCad,Pcbnew,5.1.10*%
%TF.CreationDate,2021-09-24T20:41:10+02:00*%
%TF.ProjectId,ucdev_board,75636465-765f-4626-9f61-72642e6b6963,rev?*%
%TF.SameCoordinates,Original*%
%TF.FileFunction,Soldermask,Top*%
%TF.FilePolarity,Negative*%
%FSLAX46Y46*%
G04 Gerber Fmt 4.6, Leading zero omitted, Abs format (unit mm)*
G04 Created by KiCad (PCBNEW 5.1.10) date 2021-09-24 20:41:10*
%MOMM*%
%LPD*%
G01*
G04 APERTURE LIST*
%ADD10R,1.400000X0.400000*%
%ADD11C,0.650000*%
%ADD12O,1.850000X1.050000*%
%ADD13R,4.400000X2.300000*%
%ADD14R,4.000000X2.300000*%
%ADD15C,1.200000*%
%ADD16O,1.000000X1.000000*%
%ADD17R,1.000000X1.000000*%
%ADD18C,1.524000*%
%ADD19C,0.800000*%
%ADD20C,6.400000*%
%ADD21O,1.700000X1.700000*%
%ADD22R,1.700000X1.700000*%
G04 APERTURE END LIST*
D10*
%TO.C,J8*%
X57500000Y-60930000D03*
X57500000Y-63530000D03*
X57500000Y-62880000D03*
X57500000Y-61580000D03*
X57500000Y-62230000D03*
D11*
X56680000Y-60230000D03*
X56680000Y-64230000D03*
D12*
X58000000Y-65780000D03*
X58000000Y-58655000D03*
X54550000Y-58655000D03*
X54550000Y-65805000D03*
%TD*%
D13*
%TO.C,BT1*%
X143890000Y-41910000D03*
D14*
X127890000Y-41910000D03*
D15*
X139790000Y-41910000D03*
X132290000Y-41910000D03*
%TD*%
D16*
%TO.C,JTAG1*%
X140970000Y-58420000D03*
X139700000Y-58420000D03*
X140970000Y-57150000D03*
X139700000Y-57150000D03*
X140970000Y-55880000D03*
X139700000Y-55880000D03*
X140970000Y-54610000D03*
X139700000Y-54610000D03*
X140970000Y-53340000D03*
D17*
X139700000Y-53340000D03*
%TD*%
D18*
%TO.C,U2*%
X66040000Y-58420000D03*
X68580000Y-58420000D03*
X71120000Y-58420000D03*
X73660000Y-58420000D03*
X76200000Y-58420000D03*
X78740000Y-58420000D03*
X81280000Y-58420000D03*
X83820000Y-58420000D03*
X86360000Y-58420000D03*
X88900000Y-58420000D03*
X91440000Y-58420000D03*
X93980000Y-58420000D03*
X96520000Y-58420000D03*
X99060000Y-58420000D03*
X101600000Y-58420000D03*
X104140000Y-58420000D03*
X106680000Y-58420000D03*
X109220000Y-58420000D03*
X111760000Y-58420000D03*
X114300000Y-58420000D03*
X114300000Y-73660000D03*
X111760000Y-73660000D03*
X109220000Y-73660000D03*
X106680000Y-73660000D03*
X104140000Y-73660000D03*
X101600000Y-73660000D03*
X99060000Y-73660000D03*
X96520000Y-73660000D03*
X93980000Y-73660000D03*
X91440000Y-73660000D03*
X88900000Y-73660000D03*
X86360000Y-73660000D03*
X83820000Y-73660000D03*
X81280000Y-73660000D03*
X78740000Y-73660000D03*
X76200000Y-73660000D03*
X73660000Y-73660000D03*
X71120000Y-73660000D03*
X68580000Y-73660000D03*
X66040000Y-73660000D03*
%TD*%
D19*
%TO.C,H4*%
X143937056Y-78947944D03*
X142240000Y-78245000D03*
X140542944Y-78947944D03*
X139840000Y-80645000D03*
X140542944Y-82342056D03*
X142240000Y-83045000D03*
X143937056Y-82342056D03*
X144640000Y-80645000D03*
D20*
X142240000Y-80645000D03*
%TD*%
D19*
%TO.C,H3*%
X60257056Y-79582944D03*
X58560000Y-78880000D03*
X56862944Y-79582944D03*
X56160000Y-81280000D03*
X56862944Y-82977056D03*
X58560000Y-83680000D03*
X60257056Y-82977056D03*
X60960000Y-81280000D03*
D20*
X58560000Y-81280000D03*
%TD*%
D19*
%TO.C,H2*%
X143937056Y-28782944D03*
X142240000Y-28080000D03*
X140542944Y-28782944D03*
X139840000Y-30480000D03*
X140542944Y-32177056D03*
X142240000Y-32880000D03*
X143937056Y-32177056D03*
X144640000Y-30480000D03*
D20*
X142240000Y-30480000D03*
%TD*%
D19*
%TO.C,H1*%
X60117056Y-28782944D03*
X58420000Y-28080000D03*
X56722944Y-28782944D03*
X56020000Y-30480000D03*
X56722944Y-32177056D03*
X58420000Y-32880000D03*
X60117056Y-32177056D03*
X60820000Y-30480000D03*
D20*
X58420000Y-30480000D03*
%TD*%
%TO.C,D3*%
G36*
G01*
X112210000Y-46176250D02*
X112210000Y-45263750D01*
G75*
G02*
X112453750Y-45020000I243750J0D01*
G01*
X112941250Y-45020000D01*
G75*
G02*
X113185000Y-45263750I0J-243750D01*
G01*
X113185000Y-46176250D01*
G75*
G02*
X112941250Y-46420000I-243750J0D01*
G01*
X112453750Y-46420000D01*
G75*
G02*
X112210000Y-46176250I0J243750D01*
G01*
G37*
G36*
G01*
X110335000Y-46176250D02*
X110335000Y-45263750D01*
G75*
G02*
X110578750Y-45020000I243750J0D01*
G01*
X111066250Y-45020000D01*
G75*
G02*
X111310000Y-45263750I0J-243750D01*
G01*
X111310000Y-46176250D01*
G75*
G02*
X111066250Y-46420000I-243750J0D01*
G01*
X110578750Y-46420000D01*
G75*
G02*
X110335000Y-46176250I0J243750D01*
G01*
G37*
%TD*%
%TO.C,D2*%
G36*
G01*
X106230000Y-45263750D02*
X106230000Y-46176250D01*
G75*
G02*
X105986250Y-46420000I-243750J0D01*
G01*
X105498750Y-46420000D01*
G75*
G02*
X105255000Y-46176250I0J243750D01*
G01*
X105255000Y-45263750D01*
G75*
G02*
X105498750Y-45020000I243750J0D01*
G01*
X105986250Y-45020000D01*
G75*
G02*
X106230000Y-45263750I0J-243750D01*
G01*
G37*
G36*
G01*
X108105000Y-45263750D02*
X108105000Y-46176250D01*
G75*
G02*
X107861250Y-46420000I-243750J0D01*
G01*
X107373750Y-46420000D01*
G75*
G02*
X107130000Y-46176250I0J243750D01*
G01*
X107130000Y-45263750D01*
G75*
G02*
X107373750Y-45020000I243750J0D01*
G01*
X107861250Y-45020000D01*
G75*
G02*
X108105000Y-45263750I0J-243750D01*
G01*
G37*
%TD*%
%TO.C,D1*%
G36*
G01*
X57963750Y-54727500D02*
X58876250Y-54727500D01*
G75*
G02*
X59120000Y-54971250I0J-243750D01*
G01*
X59120000Y-55458750D01*
G75*
G02*
X58876250Y-55702500I-243750J0D01*
G01*
X57963750Y-55702500D01*
G75*
G02*
X57720000Y-55458750I0J243750D01*
G01*
X57720000Y-54971250D01*
G75*
G02*
X57963750Y-54727500I243750J0D01*
G01*
G37*
G36*
G01*
X57963750Y-52852500D02*
X58876250Y-52852500D01*
G75*
G02*
X59120000Y-53096250I0J-243750D01*
G01*
X59120000Y-53583750D01*
G75*
G02*
X58876250Y-53827500I-243750J0D01*
G01*
X57963750Y-53827500D01*
G75*
G02*
X57720000Y-53583750I0J243750D01*
G01*
X57720000Y-53096250D01*
G75*
G02*
X57963750Y-52852500I243750J0D01*
G01*
G37*
%TD*%
D21*
%TO.C,PMOD4*%
X116840000Y-27940000D03*
X116840000Y-30480000D03*
X119380000Y-27940000D03*
X119380000Y-30480000D03*
X121920000Y-27940000D03*
X121920000Y-30480000D03*
X124460000Y-27940000D03*
X124460000Y-30480000D03*
X127000000Y-27940000D03*
X127000000Y-30480000D03*
X129540000Y-27940000D03*
D22*
X129540000Y-30480000D03*
%TD*%
D21*
%TO.C,PMOD3*%
X93980000Y-27940000D03*
X93980000Y-30480000D03*
X96520000Y-27940000D03*
X96520000Y-30480000D03*
X99060000Y-27940000D03*
X99060000Y-30480000D03*
X101600000Y-27940000D03*
X101600000Y-30480000D03*
X104140000Y-27940000D03*
X104140000Y-30480000D03*
X106680000Y-27940000D03*
D22*
X106680000Y-30480000D03*
%TD*%
D21*
%TO.C,PMOD2*%
X71120000Y-27940000D03*
X71120000Y-30480000D03*
X73660000Y-27940000D03*
X73660000Y-30480000D03*
X76200000Y-27940000D03*
X76200000Y-30480000D03*
X78740000Y-27940000D03*
X78740000Y-30480000D03*
X81280000Y-27940000D03*
X81280000Y-30480000D03*
X83820000Y-27940000D03*
D22*
X83820000Y-30480000D03*
%TD*%
D21*
%TO.C,J3*%
X129540000Y-52070000D03*
X132080000Y-52070000D03*
X129540000Y-54610000D03*
X132080000Y-54610000D03*
X129540000Y-57150000D03*
X132080000Y-57150000D03*
X129540000Y-59690000D03*
D22*
X132080000Y-59690000D03*
%TD*%
D21*
%TO.C,J2*%
X129540000Y-64770000D03*
X129540000Y-67310000D03*
X129540000Y-69850000D03*
D22*
X129540000Y-72390000D03*
%TD*%
D18*
%TO.C,U3*%
X66040000Y-50800000D03*
X68580000Y-50800000D03*
X71120000Y-50800000D03*
X73660000Y-50800000D03*
X76200000Y-50800000D03*
X78740000Y-50800000D03*
X81280000Y-50800000D03*
X83820000Y-50800000D03*
X86360000Y-50800000D03*
X91440000Y-50800000D03*
X93980000Y-50800000D03*
X96520000Y-50800000D03*
X99060000Y-50800000D03*
X101600000Y-50800000D03*
X104140000Y-50800000D03*
X106680000Y-50800000D03*
X109220000Y-50800000D03*
X109220000Y-68580000D03*
X106680000Y-68580000D03*
X101600000Y-68580000D03*
X99060000Y-68580000D03*
X96520000Y-68580000D03*
X93980000Y-68580000D03*
X91440000Y-68580000D03*
X86360000Y-68580000D03*
X83820000Y-68580000D03*
X81280000Y-68580000D03*
X78740000Y-68580000D03*
X76200000Y-68580000D03*
X73660000Y-68580000D03*
X71120000Y-68580000D03*
X68580000Y-68580000D03*
X66040000Y-68580000D03*
X104140000Y-68580000D03*
%TD*%
%TO.C,U1*%
X66040000Y-55880000D03*
X68580000Y-55880000D03*
X71120000Y-55880000D03*
X73660000Y-55880000D03*
X76200000Y-55880000D03*
X78740000Y-55880000D03*
X81280000Y-55880000D03*
X83820000Y-55880000D03*
X86360000Y-55880000D03*
X88900000Y-55880000D03*
X91440000Y-55880000D03*
X93980000Y-55880000D03*
X96520000Y-55880000D03*
X99060000Y-55880000D03*
X101600000Y-55880000D03*
X104140000Y-55880000D03*
X106680000Y-55880000D03*
X109220000Y-55880000D03*
X111760000Y-55880000D03*
X114300000Y-55880000D03*
X114300000Y-71120000D03*
X111760000Y-71120000D03*
X109220000Y-71120000D03*
X106680000Y-71120000D03*
X104140000Y-71120000D03*
X101600000Y-71120000D03*
X99060000Y-71120000D03*
X96520000Y-71120000D03*
X93980000Y-71120000D03*
X91440000Y-71120000D03*
X88900000Y-71120000D03*
X86360000Y-71120000D03*
X83820000Y-71120000D03*
X81280000Y-71120000D03*
X78740000Y-71120000D03*
X76200000Y-71120000D03*
X73660000Y-71120000D03*
X71120000Y-71120000D03*
X68580000Y-71120000D03*
X66040000Y-71120000D03*
%TD*%
M02*
