%TF.GenerationSoftware,KiCad,Pcbnew,7.0.10*%
%TF.CreationDate,2024-01-17T20:38:39+01:00*%
%TF.ProjectId,C1101_868,43313130-315f-4383-9638-2e6b69636164,rev?*%
%TF.SameCoordinates,Original*%
%TF.FileFunction,Legend,Bot*%
%TF.FilePolarity,Positive*%
%FSLAX46Y46*%
G04 Gerber Fmt 4.6, Leading zero omitted, Abs format (unit mm)*
G04 Created by KiCad (PCBNEW 7.0.10) date 2024-01-17 20:38:39*
%MOMM*%
%LPD*%
G01*
G04 APERTURE LIST*
%ADD10C,0.150000*%
%ADD11C,0.120000*%
G04 APERTURE END LIST*
D10*
X120419819Y-43371190D02*
X119419819Y-43371190D01*
X119419819Y-43371190D02*
X119419819Y-43752142D01*
X119419819Y-43752142D02*
X119467438Y-43847380D01*
X119467438Y-43847380D02*
X119515057Y-43894999D01*
X119515057Y-43894999D02*
X119610295Y-43942618D01*
X119610295Y-43942618D02*
X119753152Y-43942618D01*
X119753152Y-43942618D02*
X119848390Y-43894999D01*
X119848390Y-43894999D02*
X119896009Y-43847380D01*
X119896009Y-43847380D02*
X119943628Y-43752142D01*
X119943628Y-43752142D02*
X119943628Y-43371190D01*
X120419819Y-44371190D02*
X119419819Y-44371190D01*
X119419819Y-44371190D02*
X120134104Y-44704523D01*
X120134104Y-44704523D02*
X119419819Y-45037856D01*
X119419819Y-45037856D02*
X120419819Y-45037856D01*
X119419819Y-45704523D02*
X119419819Y-45894999D01*
X119419819Y-45894999D02*
X119467438Y-45990237D01*
X119467438Y-45990237D02*
X119562676Y-46085475D01*
X119562676Y-46085475D02*
X119753152Y-46133094D01*
X119753152Y-46133094D02*
X120086485Y-46133094D01*
X120086485Y-46133094D02*
X120276961Y-46085475D01*
X120276961Y-46085475D02*
X120372200Y-45990237D01*
X120372200Y-45990237D02*
X120419819Y-45894999D01*
X120419819Y-45894999D02*
X120419819Y-45704523D01*
X120419819Y-45704523D02*
X120372200Y-45609285D01*
X120372200Y-45609285D02*
X120276961Y-45514047D01*
X120276961Y-45514047D02*
X120086485Y-45466428D01*
X120086485Y-45466428D02*
X119753152Y-45466428D01*
X119753152Y-45466428D02*
X119562676Y-45514047D01*
X119562676Y-45514047D02*
X119467438Y-45609285D01*
X119467438Y-45609285D02*
X119419819Y-45704523D01*
X120419819Y-46561666D02*
X119419819Y-46561666D01*
X119419819Y-46561666D02*
X119419819Y-46799761D01*
X119419819Y-46799761D02*
X119467438Y-46942618D01*
X119467438Y-46942618D02*
X119562676Y-47037856D01*
X119562676Y-47037856D02*
X119657914Y-47085475D01*
X119657914Y-47085475D02*
X119848390Y-47133094D01*
X119848390Y-47133094D02*
X119991247Y-47133094D01*
X119991247Y-47133094D02*
X120181723Y-47085475D01*
X120181723Y-47085475D02*
X120276961Y-47037856D01*
X120276961Y-47037856D02*
X120372200Y-46942618D01*
X120372200Y-46942618D02*
X120419819Y-46799761D01*
X120419819Y-46799761D02*
X120419819Y-46561666D01*
X119896009Y-48656904D02*
X119943628Y-48799761D01*
X119943628Y-48799761D02*
X119991247Y-48847380D01*
X119991247Y-48847380D02*
X120086485Y-48894999D01*
X120086485Y-48894999D02*
X120229342Y-48894999D01*
X120229342Y-48894999D02*
X120324580Y-48847380D01*
X120324580Y-48847380D02*
X120372200Y-48799761D01*
X120372200Y-48799761D02*
X120419819Y-48704523D01*
X120419819Y-48704523D02*
X120419819Y-48323571D01*
X120419819Y-48323571D02*
X119419819Y-48323571D01*
X119419819Y-48323571D02*
X119419819Y-48656904D01*
X119419819Y-48656904D02*
X119467438Y-48752142D01*
X119467438Y-48752142D02*
X119515057Y-48799761D01*
X119515057Y-48799761D02*
X119610295Y-48847380D01*
X119610295Y-48847380D02*
X119705533Y-48847380D01*
X119705533Y-48847380D02*
X119800771Y-48799761D01*
X119800771Y-48799761D02*
X119848390Y-48752142D01*
X119848390Y-48752142D02*
X119896009Y-48656904D01*
X119896009Y-48656904D02*
X119896009Y-48323571D01*
X120419819Y-49323571D02*
X119753152Y-49323571D01*
X119943628Y-49323571D02*
X119848390Y-49371190D01*
X119848390Y-49371190D02*
X119800771Y-49418809D01*
X119800771Y-49418809D02*
X119753152Y-49514047D01*
X119753152Y-49514047D02*
X119753152Y-49609285D01*
X120372200Y-50323571D02*
X120419819Y-50228333D01*
X120419819Y-50228333D02*
X120419819Y-50037857D01*
X120419819Y-50037857D02*
X120372200Y-49942619D01*
X120372200Y-49942619D02*
X120276961Y-49895000D01*
X120276961Y-49895000D02*
X119896009Y-49895000D01*
X119896009Y-49895000D02*
X119800771Y-49942619D01*
X119800771Y-49942619D02*
X119753152Y-50037857D01*
X119753152Y-50037857D02*
X119753152Y-50228333D01*
X119753152Y-50228333D02*
X119800771Y-50323571D01*
X119800771Y-50323571D02*
X119896009Y-50371190D01*
X119896009Y-50371190D02*
X119991247Y-50371190D01*
X119991247Y-50371190D02*
X120086485Y-49895000D01*
X120419819Y-51228333D02*
X119896009Y-51228333D01*
X119896009Y-51228333D02*
X119800771Y-51180714D01*
X119800771Y-51180714D02*
X119753152Y-51085476D01*
X119753152Y-51085476D02*
X119753152Y-50895000D01*
X119753152Y-50895000D02*
X119800771Y-50799762D01*
X120372200Y-51228333D02*
X120419819Y-51133095D01*
X120419819Y-51133095D02*
X120419819Y-50895000D01*
X120419819Y-50895000D02*
X120372200Y-50799762D01*
X120372200Y-50799762D02*
X120276961Y-50752143D01*
X120276961Y-50752143D02*
X120181723Y-50752143D01*
X120181723Y-50752143D02*
X120086485Y-50799762D01*
X120086485Y-50799762D02*
X120038866Y-50895000D01*
X120038866Y-50895000D02*
X120038866Y-51133095D01*
X120038866Y-51133095D02*
X119991247Y-51228333D01*
X120419819Y-51704524D02*
X119419819Y-51704524D01*
X120038866Y-51799762D02*
X120419819Y-52085476D01*
X119753152Y-52085476D02*
X120134104Y-51704524D01*
X120419819Y-52656905D02*
X120372200Y-52561667D01*
X120372200Y-52561667D02*
X120324580Y-52514048D01*
X120324580Y-52514048D02*
X120229342Y-52466429D01*
X120229342Y-52466429D02*
X119943628Y-52466429D01*
X119943628Y-52466429D02*
X119848390Y-52514048D01*
X119848390Y-52514048D02*
X119800771Y-52561667D01*
X119800771Y-52561667D02*
X119753152Y-52656905D01*
X119753152Y-52656905D02*
X119753152Y-52799762D01*
X119753152Y-52799762D02*
X119800771Y-52895000D01*
X119800771Y-52895000D02*
X119848390Y-52942619D01*
X119848390Y-52942619D02*
X119943628Y-52990238D01*
X119943628Y-52990238D02*
X120229342Y-52990238D01*
X120229342Y-52990238D02*
X120324580Y-52942619D01*
X120324580Y-52942619D02*
X120372200Y-52895000D01*
X120372200Y-52895000D02*
X120419819Y-52799762D01*
X120419819Y-52799762D02*
X120419819Y-52656905D01*
X119753152Y-53847381D02*
X120419819Y-53847381D01*
X119753152Y-53418810D02*
X120276961Y-53418810D01*
X120276961Y-53418810D02*
X120372200Y-53466429D01*
X120372200Y-53466429D02*
X120419819Y-53561667D01*
X120419819Y-53561667D02*
X120419819Y-53704524D01*
X120419819Y-53704524D02*
X120372200Y-53799762D01*
X120372200Y-53799762D02*
X120324580Y-53847381D01*
X119753152Y-54180715D02*
X119753152Y-54561667D01*
X119419819Y-54323572D02*
X120276961Y-54323572D01*
X120276961Y-54323572D02*
X120372200Y-54371191D01*
X120372200Y-54371191D02*
X120419819Y-54466429D01*
X120419819Y-54466429D02*
X120419819Y-54561667D01*
X121934580Y-46799761D02*
X121982200Y-46752142D01*
X121982200Y-46752142D02*
X122029819Y-46609285D01*
X122029819Y-46609285D02*
X122029819Y-46514047D01*
X122029819Y-46514047D02*
X121982200Y-46371190D01*
X121982200Y-46371190D02*
X121886961Y-46275952D01*
X121886961Y-46275952D02*
X121791723Y-46228333D01*
X121791723Y-46228333D02*
X121601247Y-46180714D01*
X121601247Y-46180714D02*
X121458390Y-46180714D01*
X121458390Y-46180714D02*
X121267914Y-46228333D01*
X121267914Y-46228333D02*
X121172676Y-46275952D01*
X121172676Y-46275952D02*
X121077438Y-46371190D01*
X121077438Y-46371190D02*
X121029819Y-46514047D01*
X121029819Y-46514047D02*
X121029819Y-46609285D01*
X121029819Y-46609285D02*
X121077438Y-46752142D01*
X121077438Y-46752142D02*
X121125057Y-46799761D01*
X121934580Y-47799761D02*
X121982200Y-47752142D01*
X121982200Y-47752142D02*
X122029819Y-47609285D01*
X122029819Y-47609285D02*
X122029819Y-47514047D01*
X122029819Y-47514047D02*
X121982200Y-47371190D01*
X121982200Y-47371190D02*
X121886961Y-47275952D01*
X121886961Y-47275952D02*
X121791723Y-47228333D01*
X121791723Y-47228333D02*
X121601247Y-47180714D01*
X121601247Y-47180714D02*
X121458390Y-47180714D01*
X121458390Y-47180714D02*
X121267914Y-47228333D01*
X121267914Y-47228333D02*
X121172676Y-47275952D01*
X121172676Y-47275952D02*
X121077438Y-47371190D01*
X121077438Y-47371190D02*
X121029819Y-47514047D01*
X121029819Y-47514047D02*
X121029819Y-47609285D01*
X121029819Y-47609285D02*
X121077438Y-47752142D01*
X121077438Y-47752142D02*
X121125057Y-47799761D01*
X122029819Y-48752142D02*
X122029819Y-48180714D01*
X122029819Y-48466428D02*
X121029819Y-48466428D01*
X121029819Y-48466428D02*
X121172676Y-48371190D01*
X121172676Y-48371190D02*
X121267914Y-48275952D01*
X121267914Y-48275952D02*
X121315533Y-48180714D01*
X122029819Y-49704523D02*
X122029819Y-49133095D01*
X122029819Y-49418809D02*
X121029819Y-49418809D01*
X121029819Y-49418809D02*
X121172676Y-49323571D01*
X121172676Y-49323571D02*
X121267914Y-49228333D01*
X121267914Y-49228333D02*
X121315533Y-49133095D01*
X121029819Y-50323571D02*
X121029819Y-50418809D01*
X121029819Y-50418809D02*
X121077438Y-50514047D01*
X121077438Y-50514047D02*
X121125057Y-50561666D01*
X121125057Y-50561666D02*
X121220295Y-50609285D01*
X121220295Y-50609285D02*
X121410771Y-50656904D01*
X121410771Y-50656904D02*
X121648866Y-50656904D01*
X121648866Y-50656904D02*
X121839342Y-50609285D01*
X121839342Y-50609285D02*
X121934580Y-50561666D01*
X121934580Y-50561666D02*
X121982200Y-50514047D01*
X121982200Y-50514047D02*
X122029819Y-50418809D01*
X122029819Y-50418809D02*
X122029819Y-50323571D01*
X122029819Y-50323571D02*
X121982200Y-50228333D01*
X121982200Y-50228333D02*
X121934580Y-50180714D01*
X121934580Y-50180714D02*
X121839342Y-50133095D01*
X121839342Y-50133095D02*
X121648866Y-50085476D01*
X121648866Y-50085476D02*
X121410771Y-50085476D01*
X121410771Y-50085476D02*
X121220295Y-50133095D01*
X121220295Y-50133095D02*
X121125057Y-50180714D01*
X121125057Y-50180714D02*
X121077438Y-50228333D01*
X121077438Y-50228333D02*
X121029819Y-50323571D01*
X122029819Y-51609285D02*
X122029819Y-51037857D01*
X122029819Y-51323571D02*
X121029819Y-51323571D01*
X121029819Y-51323571D02*
X121172676Y-51228333D01*
X121172676Y-51228333D02*
X121267914Y-51133095D01*
X121267914Y-51133095D02*
X121315533Y-51037857D01*
X123068390Y-45966428D02*
X123020771Y-45871190D01*
X123020771Y-45871190D02*
X122973152Y-45823571D01*
X122973152Y-45823571D02*
X122877914Y-45775952D01*
X122877914Y-45775952D02*
X122830295Y-45775952D01*
X122830295Y-45775952D02*
X122735057Y-45823571D01*
X122735057Y-45823571D02*
X122687438Y-45871190D01*
X122687438Y-45871190D02*
X122639819Y-45966428D01*
X122639819Y-45966428D02*
X122639819Y-46156904D01*
X122639819Y-46156904D02*
X122687438Y-46252142D01*
X122687438Y-46252142D02*
X122735057Y-46299761D01*
X122735057Y-46299761D02*
X122830295Y-46347380D01*
X122830295Y-46347380D02*
X122877914Y-46347380D01*
X122877914Y-46347380D02*
X122973152Y-46299761D01*
X122973152Y-46299761D02*
X123020771Y-46252142D01*
X123020771Y-46252142D02*
X123068390Y-46156904D01*
X123068390Y-46156904D02*
X123068390Y-45966428D01*
X123068390Y-45966428D02*
X123116009Y-45871190D01*
X123116009Y-45871190D02*
X123163628Y-45823571D01*
X123163628Y-45823571D02*
X123258866Y-45775952D01*
X123258866Y-45775952D02*
X123449342Y-45775952D01*
X123449342Y-45775952D02*
X123544580Y-45823571D01*
X123544580Y-45823571D02*
X123592200Y-45871190D01*
X123592200Y-45871190D02*
X123639819Y-45966428D01*
X123639819Y-45966428D02*
X123639819Y-46156904D01*
X123639819Y-46156904D02*
X123592200Y-46252142D01*
X123592200Y-46252142D02*
X123544580Y-46299761D01*
X123544580Y-46299761D02*
X123449342Y-46347380D01*
X123449342Y-46347380D02*
X123258866Y-46347380D01*
X123258866Y-46347380D02*
X123163628Y-46299761D01*
X123163628Y-46299761D02*
X123116009Y-46252142D01*
X123116009Y-46252142D02*
X123068390Y-46156904D01*
X122639819Y-47204523D02*
X122639819Y-47014047D01*
X122639819Y-47014047D02*
X122687438Y-46918809D01*
X122687438Y-46918809D02*
X122735057Y-46871190D01*
X122735057Y-46871190D02*
X122877914Y-46775952D01*
X122877914Y-46775952D02*
X123068390Y-46728333D01*
X123068390Y-46728333D02*
X123449342Y-46728333D01*
X123449342Y-46728333D02*
X123544580Y-46775952D01*
X123544580Y-46775952D02*
X123592200Y-46823571D01*
X123592200Y-46823571D02*
X123639819Y-46918809D01*
X123639819Y-46918809D02*
X123639819Y-47109285D01*
X123639819Y-47109285D02*
X123592200Y-47204523D01*
X123592200Y-47204523D02*
X123544580Y-47252142D01*
X123544580Y-47252142D02*
X123449342Y-47299761D01*
X123449342Y-47299761D02*
X123211247Y-47299761D01*
X123211247Y-47299761D02*
X123116009Y-47252142D01*
X123116009Y-47252142D02*
X123068390Y-47204523D01*
X123068390Y-47204523D02*
X123020771Y-47109285D01*
X123020771Y-47109285D02*
X123020771Y-46918809D01*
X123020771Y-46918809D02*
X123068390Y-46823571D01*
X123068390Y-46823571D02*
X123116009Y-46775952D01*
X123116009Y-46775952D02*
X123211247Y-46728333D01*
X123068390Y-47871190D02*
X123020771Y-47775952D01*
X123020771Y-47775952D02*
X122973152Y-47728333D01*
X122973152Y-47728333D02*
X122877914Y-47680714D01*
X122877914Y-47680714D02*
X122830295Y-47680714D01*
X122830295Y-47680714D02*
X122735057Y-47728333D01*
X122735057Y-47728333D02*
X122687438Y-47775952D01*
X122687438Y-47775952D02*
X122639819Y-47871190D01*
X122639819Y-47871190D02*
X122639819Y-48061666D01*
X122639819Y-48061666D02*
X122687438Y-48156904D01*
X122687438Y-48156904D02*
X122735057Y-48204523D01*
X122735057Y-48204523D02*
X122830295Y-48252142D01*
X122830295Y-48252142D02*
X122877914Y-48252142D01*
X122877914Y-48252142D02*
X122973152Y-48204523D01*
X122973152Y-48204523D02*
X123020771Y-48156904D01*
X123020771Y-48156904D02*
X123068390Y-48061666D01*
X123068390Y-48061666D02*
X123068390Y-47871190D01*
X123068390Y-47871190D02*
X123116009Y-47775952D01*
X123116009Y-47775952D02*
X123163628Y-47728333D01*
X123163628Y-47728333D02*
X123258866Y-47680714D01*
X123258866Y-47680714D02*
X123449342Y-47680714D01*
X123449342Y-47680714D02*
X123544580Y-47728333D01*
X123544580Y-47728333D02*
X123592200Y-47775952D01*
X123592200Y-47775952D02*
X123639819Y-47871190D01*
X123639819Y-47871190D02*
X123639819Y-48061666D01*
X123639819Y-48061666D02*
X123592200Y-48156904D01*
X123592200Y-48156904D02*
X123544580Y-48204523D01*
X123544580Y-48204523D02*
X123449342Y-48252142D01*
X123449342Y-48252142D02*
X123258866Y-48252142D01*
X123258866Y-48252142D02*
X123163628Y-48204523D01*
X123163628Y-48204523D02*
X123116009Y-48156904D01*
X123116009Y-48156904D02*
X123068390Y-48061666D01*
X123639819Y-49442619D02*
X122639819Y-49442619D01*
X122639819Y-49442619D02*
X123354104Y-49775952D01*
X123354104Y-49775952D02*
X122639819Y-50109285D01*
X122639819Y-50109285D02*
X123639819Y-50109285D01*
X123639819Y-50585476D02*
X122639819Y-50585476D01*
X123116009Y-50585476D02*
X123116009Y-51156904D01*
X123639819Y-51156904D02*
X122639819Y-51156904D01*
X122973152Y-51537857D02*
X122973152Y-52061666D01*
X122973152Y-52061666D02*
X123639819Y-51537857D01*
X123639819Y-51537857D02*
X123639819Y-52061666D01*
X124249819Y-44704524D02*
X125249819Y-45037857D01*
X125249819Y-45037857D02*
X124249819Y-45371190D01*
X125202200Y-46085476D02*
X125249819Y-45990238D01*
X125249819Y-45990238D02*
X125249819Y-45799762D01*
X125249819Y-45799762D02*
X125202200Y-45704524D01*
X125202200Y-45704524D02*
X125106961Y-45656905D01*
X125106961Y-45656905D02*
X124726009Y-45656905D01*
X124726009Y-45656905D02*
X124630771Y-45704524D01*
X124630771Y-45704524D02*
X124583152Y-45799762D01*
X124583152Y-45799762D02*
X124583152Y-45990238D01*
X124583152Y-45990238D02*
X124630771Y-46085476D01*
X124630771Y-46085476D02*
X124726009Y-46133095D01*
X124726009Y-46133095D02*
X124821247Y-46133095D01*
X124821247Y-46133095D02*
X124916485Y-45656905D01*
X125249819Y-46561667D02*
X124583152Y-46561667D01*
X124773628Y-46561667D02*
X124678390Y-46609286D01*
X124678390Y-46609286D02*
X124630771Y-46656905D01*
X124630771Y-46656905D02*
X124583152Y-46752143D01*
X124583152Y-46752143D02*
X124583152Y-46847381D01*
X125202200Y-47133096D02*
X125249819Y-47228334D01*
X125249819Y-47228334D02*
X125249819Y-47418810D01*
X125249819Y-47418810D02*
X125202200Y-47514048D01*
X125202200Y-47514048D02*
X125106961Y-47561667D01*
X125106961Y-47561667D02*
X125059342Y-47561667D01*
X125059342Y-47561667D02*
X124964104Y-47514048D01*
X124964104Y-47514048D02*
X124916485Y-47418810D01*
X124916485Y-47418810D02*
X124916485Y-47275953D01*
X124916485Y-47275953D02*
X124868866Y-47180715D01*
X124868866Y-47180715D02*
X124773628Y-47133096D01*
X124773628Y-47133096D02*
X124726009Y-47133096D01*
X124726009Y-47133096D02*
X124630771Y-47180715D01*
X124630771Y-47180715D02*
X124583152Y-47275953D01*
X124583152Y-47275953D02*
X124583152Y-47418810D01*
X124583152Y-47418810D02*
X124630771Y-47514048D01*
X125249819Y-47990239D02*
X124583152Y-47990239D01*
X124249819Y-47990239D02*
X124297438Y-47942620D01*
X124297438Y-47942620D02*
X124345057Y-47990239D01*
X124345057Y-47990239D02*
X124297438Y-48037858D01*
X124297438Y-48037858D02*
X124249819Y-47990239D01*
X124249819Y-47990239D02*
X124345057Y-47990239D01*
X125249819Y-48609286D02*
X125202200Y-48514048D01*
X125202200Y-48514048D02*
X125154580Y-48466429D01*
X125154580Y-48466429D02*
X125059342Y-48418810D01*
X125059342Y-48418810D02*
X124773628Y-48418810D01*
X124773628Y-48418810D02*
X124678390Y-48466429D01*
X124678390Y-48466429D02*
X124630771Y-48514048D01*
X124630771Y-48514048D02*
X124583152Y-48609286D01*
X124583152Y-48609286D02*
X124583152Y-48752143D01*
X124583152Y-48752143D02*
X124630771Y-48847381D01*
X124630771Y-48847381D02*
X124678390Y-48895000D01*
X124678390Y-48895000D02*
X124773628Y-48942619D01*
X124773628Y-48942619D02*
X125059342Y-48942619D01*
X125059342Y-48942619D02*
X125154580Y-48895000D01*
X125154580Y-48895000D02*
X125202200Y-48847381D01*
X125202200Y-48847381D02*
X125249819Y-48752143D01*
X125249819Y-48752143D02*
X125249819Y-48609286D01*
X124583152Y-49371191D02*
X125249819Y-49371191D01*
X124678390Y-49371191D02*
X124630771Y-49418810D01*
X124630771Y-49418810D02*
X124583152Y-49514048D01*
X124583152Y-49514048D02*
X124583152Y-49656905D01*
X124583152Y-49656905D02*
X124630771Y-49752143D01*
X124630771Y-49752143D02*
X124726009Y-49799762D01*
X124726009Y-49799762D02*
X125249819Y-49799762D01*
X124249819Y-51228334D02*
X124249819Y-51323572D01*
X124249819Y-51323572D02*
X124297438Y-51418810D01*
X124297438Y-51418810D02*
X124345057Y-51466429D01*
X124345057Y-51466429D02*
X124440295Y-51514048D01*
X124440295Y-51514048D02*
X124630771Y-51561667D01*
X124630771Y-51561667D02*
X124868866Y-51561667D01*
X124868866Y-51561667D02*
X125059342Y-51514048D01*
X125059342Y-51514048D02*
X125154580Y-51466429D01*
X125154580Y-51466429D02*
X125202200Y-51418810D01*
X125202200Y-51418810D02*
X125249819Y-51323572D01*
X125249819Y-51323572D02*
X125249819Y-51228334D01*
X125249819Y-51228334D02*
X125202200Y-51133096D01*
X125202200Y-51133096D02*
X125154580Y-51085477D01*
X125154580Y-51085477D02*
X125059342Y-51037858D01*
X125059342Y-51037858D02*
X124868866Y-50990239D01*
X124868866Y-50990239D02*
X124630771Y-50990239D01*
X124630771Y-50990239D02*
X124440295Y-51037858D01*
X124440295Y-51037858D02*
X124345057Y-51085477D01*
X124345057Y-51085477D02*
X124297438Y-51133096D01*
X124297438Y-51133096D02*
X124249819Y-51228334D01*
X125154580Y-51990239D02*
X125202200Y-52037858D01*
X125202200Y-52037858D02*
X125249819Y-51990239D01*
X125249819Y-51990239D02*
X125202200Y-51942620D01*
X125202200Y-51942620D02*
X125154580Y-51990239D01*
X125154580Y-51990239D02*
X125249819Y-51990239D01*
X124249819Y-52371191D02*
X124249819Y-53037857D01*
X124249819Y-53037857D02*
X125249819Y-52609286D01*
X146443458Y-52209819D02*
X146205363Y-53209819D01*
X146205363Y-53209819D02*
X146014887Y-52495533D01*
X146014887Y-52495533D02*
X145824411Y-53209819D01*
X145824411Y-53209819D02*
X145586316Y-52209819D01*
X145776792Y-46859819D02*
X146110125Y-46383628D01*
X146348220Y-46859819D02*
X146348220Y-45859819D01*
X146348220Y-45859819D02*
X145967268Y-45859819D01*
X145967268Y-45859819D02*
X145872030Y-45907438D01*
X145872030Y-45907438D02*
X145824411Y-45955057D01*
X145824411Y-45955057D02*
X145776792Y-46050295D01*
X145776792Y-46050295D02*
X145776792Y-46193152D01*
X145776792Y-46193152D02*
X145824411Y-46288390D01*
X145824411Y-46288390D02*
X145872030Y-46336009D01*
X145872030Y-46336009D02*
X145967268Y-46383628D01*
X145967268Y-46383628D02*
X146348220Y-46383628D01*
X147409819Y-48696666D02*
X148124104Y-48696666D01*
X148124104Y-48696666D02*
X148266961Y-48649047D01*
X148266961Y-48649047D02*
X148362200Y-48553809D01*
X148362200Y-48553809D02*
X148409819Y-48410952D01*
X148409819Y-48410952D02*
X148409819Y-48315714D01*
X148409819Y-49172857D02*
X147409819Y-49172857D01*
X147409819Y-49172857D02*
X147409819Y-49553809D01*
X147409819Y-49553809D02*
X147457438Y-49649047D01*
X147457438Y-49649047D02*
X147505057Y-49696666D01*
X147505057Y-49696666D02*
X147600295Y-49744285D01*
X147600295Y-49744285D02*
X147743152Y-49744285D01*
X147743152Y-49744285D02*
X147838390Y-49696666D01*
X147838390Y-49696666D02*
X147886009Y-49649047D01*
X147886009Y-49649047D02*
X147933628Y-49553809D01*
X147933628Y-49553809D02*
X147933628Y-49172857D01*
X148409819Y-50696666D02*
X148409819Y-50125238D01*
X148409819Y-50410952D02*
X147409819Y-50410952D01*
X147409819Y-50410952D02*
X147552676Y-50315714D01*
X147552676Y-50315714D02*
X147647914Y-50220476D01*
X147647914Y-50220476D02*
X147695533Y-50125238D01*
X143930666Y-40999580D02*
X143978285Y-41047200D01*
X143978285Y-41047200D02*
X144121142Y-41094819D01*
X144121142Y-41094819D02*
X144216380Y-41094819D01*
X144216380Y-41094819D02*
X144359237Y-41047200D01*
X144359237Y-41047200D02*
X144454475Y-40951961D01*
X144454475Y-40951961D02*
X144502094Y-40856723D01*
X144502094Y-40856723D02*
X144549713Y-40666247D01*
X144549713Y-40666247D02*
X144549713Y-40523390D01*
X144549713Y-40523390D02*
X144502094Y-40332914D01*
X144502094Y-40332914D02*
X144454475Y-40237676D01*
X144454475Y-40237676D02*
X144359237Y-40142438D01*
X144359237Y-40142438D02*
X144216380Y-40094819D01*
X144216380Y-40094819D02*
X144121142Y-40094819D01*
X144121142Y-40094819D02*
X143978285Y-40142438D01*
X143978285Y-40142438D02*
X143930666Y-40190057D01*
X142978285Y-41094819D02*
X143549713Y-41094819D01*
X143263999Y-41094819D02*
X143263999Y-40094819D01*
X143263999Y-40094819D02*
X143359237Y-40237676D01*
X143359237Y-40237676D02*
X143454475Y-40332914D01*
X143454475Y-40332914D02*
X143549713Y-40380533D01*
X143676666Y-58239819D02*
X144009999Y-57763628D01*
X144248094Y-58239819D02*
X144248094Y-57239819D01*
X144248094Y-57239819D02*
X143867142Y-57239819D01*
X143867142Y-57239819D02*
X143771904Y-57287438D01*
X143771904Y-57287438D02*
X143724285Y-57335057D01*
X143724285Y-57335057D02*
X143676666Y-57430295D01*
X143676666Y-57430295D02*
X143676666Y-57573152D01*
X143676666Y-57573152D02*
X143724285Y-57668390D01*
X143724285Y-57668390D02*
X143771904Y-57716009D01*
X143771904Y-57716009D02*
X143867142Y-57763628D01*
X143867142Y-57763628D02*
X144248094Y-57763628D01*
X143295713Y-57335057D02*
X143248094Y-57287438D01*
X143248094Y-57287438D02*
X143152856Y-57239819D01*
X143152856Y-57239819D02*
X142914761Y-57239819D01*
X142914761Y-57239819D02*
X142819523Y-57287438D01*
X142819523Y-57287438D02*
X142771904Y-57335057D01*
X142771904Y-57335057D02*
X142724285Y-57430295D01*
X142724285Y-57430295D02*
X142724285Y-57525533D01*
X142724285Y-57525533D02*
X142771904Y-57668390D01*
X142771904Y-57668390D02*
X143343332Y-58239819D01*
X143343332Y-58239819D02*
X142724285Y-58239819D01*
X141136666Y-41094819D02*
X141469999Y-40618628D01*
X141708094Y-41094819D02*
X141708094Y-40094819D01*
X141708094Y-40094819D02*
X141327142Y-40094819D01*
X141327142Y-40094819D02*
X141231904Y-40142438D01*
X141231904Y-40142438D02*
X141184285Y-40190057D01*
X141184285Y-40190057D02*
X141136666Y-40285295D01*
X141136666Y-40285295D02*
X141136666Y-40428152D01*
X141136666Y-40428152D02*
X141184285Y-40523390D01*
X141184285Y-40523390D02*
X141231904Y-40571009D01*
X141231904Y-40571009D02*
X141327142Y-40618628D01*
X141327142Y-40618628D02*
X141708094Y-40618628D01*
X140184285Y-41094819D02*
X140755713Y-41094819D01*
X140469999Y-41094819D02*
X140469999Y-40094819D01*
X140469999Y-40094819D02*
X140565237Y-40237676D01*
X140565237Y-40237676D02*
X140660475Y-40332914D01*
X140660475Y-40332914D02*
X140755713Y-40380533D01*
X138596666Y-40999580D02*
X138644285Y-41047200D01*
X138644285Y-41047200D02*
X138787142Y-41094819D01*
X138787142Y-41094819D02*
X138882380Y-41094819D01*
X138882380Y-41094819D02*
X139025237Y-41047200D01*
X139025237Y-41047200D02*
X139120475Y-40951961D01*
X139120475Y-40951961D02*
X139168094Y-40856723D01*
X139168094Y-40856723D02*
X139215713Y-40666247D01*
X139215713Y-40666247D02*
X139215713Y-40523390D01*
X139215713Y-40523390D02*
X139168094Y-40332914D01*
X139168094Y-40332914D02*
X139120475Y-40237676D01*
X139120475Y-40237676D02*
X139025237Y-40142438D01*
X139025237Y-40142438D02*
X138882380Y-40094819D01*
X138882380Y-40094819D02*
X138787142Y-40094819D01*
X138787142Y-40094819D02*
X138644285Y-40142438D01*
X138644285Y-40142438D02*
X138596666Y-40190057D01*
X138215713Y-40190057D02*
X138168094Y-40142438D01*
X138168094Y-40142438D02*
X138072856Y-40094819D01*
X138072856Y-40094819D02*
X137834761Y-40094819D01*
X137834761Y-40094819D02*
X137739523Y-40142438D01*
X137739523Y-40142438D02*
X137691904Y-40190057D01*
X137691904Y-40190057D02*
X137644285Y-40285295D01*
X137644285Y-40285295D02*
X137644285Y-40380533D01*
X137644285Y-40380533D02*
X137691904Y-40523390D01*
X137691904Y-40523390D02*
X138263332Y-41094819D01*
X138263332Y-41094819D02*
X137644285Y-41094819D01*
X141816904Y-45584819D02*
X141816904Y-46394342D01*
X141816904Y-46394342D02*
X141769285Y-46489580D01*
X141769285Y-46489580D02*
X141721666Y-46537200D01*
X141721666Y-46537200D02*
X141626428Y-46584819D01*
X141626428Y-46584819D02*
X141435952Y-46584819D01*
X141435952Y-46584819D02*
X141340714Y-46537200D01*
X141340714Y-46537200D02*
X141293095Y-46489580D01*
X141293095Y-46489580D02*
X141245476Y-46394342D01*
X141245476Y-46394342D02*
X141245476Y-45584819D01*
X140816904Y-45680057D02*
X140769285Y-45632438D01*
X140769285Y-45632438D02*
X140674047Y-45584819D01*
X140674047Y-45584819D02*
X140435952Y-45584819D01*
X140435952Y-45584819D02*
X140340714Y-45632438D01*
X140340714Y-45632438D02*
X140293095Y-45680057D01*
X140293095Y-45680057D02*
X140245476Y-45775295D01*
X140245476Y-45775295D02*
X140245476Y-45870533D01*
X140245476Y-45870533D02*
X140293095Y-46013390D01*
X140293095Y-46013390D02*
X140864523Y-46584819D01*
X140864523Y-46584819D02*
X140245476Y-46584819D01*
D11*
%TO.C,JP1*%
X145050000Y-50850000D02*
G75*
G03*
X145750000Y-51550000I700000J0D01*
G01*
X146350000Y-51550000D02*
G75*
G03*
X147050000Y-50850000I0J700000D01*
G01*
X145750000Y-47450000D02*
G75*
G03*
X145050000Y-48150000I-1J-699999D01*
G01*
X147050000Y-48150000D02*
G75*
G03*
X146350000Y-47450000I-699999J1D01*
G01*
X145750000Y-51550000D02*
X146350000Y-51550000D01*
X147050000Y-50900000D02*
X147050000Y-48100000D01*
X147250000Y-48300000D02*
X147550000Y-48600000D01*
X147250000Y-48300000D02*
X147550000Y-48000000D01*
X145050000Y-48100000D02*
X145050000Y-50900000D01*
X147550000Y-48000000D02*
X147550000Y-48600000D01*
X146350000Y-47450000D02*
X145750000Y-47450000D01*
%TO.C,C1*%
X143029000Y-42918748D02*
X143029000Y-43441252D01*
X144499000Y-42918748D02*
X144499000Y-43441252D01*
%TO.C,R2*%
X142775000Y-55017936D02*
X142775000Y-55472064D01*
X144245000Y-55017936D02*
X144245000Y-55472064D01*
%TO.C,R1*%
X140235000Y-42952936D02*
X140235000Y-43407064D01*
X141705000Y-42952936D02*
X141705000Y-43407064D01*
%TO.C,C2*%
X139165000Y-43441252D02*
X139165000Y-42918748D01*
X137695000Y-43441252D02*
X137695000Y-42918748D01*
%TO.C,U2*%
X141055000Y-46970000D02*
X139105000Y-46970000D01*
X141055000Y-46970000D02*
X144505000Y-46970000D01*
X141055000Y-52090000D02*
X139105000Y-52090000D01*
X141055000Y-52090000D02*
X143005000Y-52090000D01*
%TD*%
M02*
