%TF.GenerationSoftware,KiCad,Pcbnew,7.0.10*%
%TF.CreationDate,2024-01-17T20:38:39+01:00*%
%TF.ProjectId,C1101_868,43313130-315f-4383-9638-2e6b69636164,rev?*%
%TF.SameCoordinates,Original*%
%TF.FileFunction,Copper,L2,Bot*%
%TF.FilePolarity,Positive*%
%FSLAX46Y46*%
G04 Gerber Fmt 4.6, Leading zero omitted, Abs format (unit mm)*
G04 Created by KiCad (PCBNEW 7.0.10) date 2024-01-17 20:38:39*
%MOMM*%
%LPD*%
G01*
G04 APERTURE LIST*
G04 Aperture macros list*
%AMRoundRect*
0 Rectangle with rounded corners*
0 $1 Rounding radius*
0 $2 $3 $4 $5 $6 $7 $8 $9 X,Y pos of 4 corners*
0 Add a 4 corners polygon primitive as box body*
4,1,4,$2,$3,$4,$5,$6,$7,$8,$9,$2,$3,0*
0 Add four circle primitives for the rounded corners*
1,1,$1+$1,$2,$3*
1,1,$1+$1,$4,$5*
1,1,$1+$1,$6,$7*
1,1,$1+$1,$8,$9*
0 Add four rect primitives between the rounded corners*
20,1,$1+$1,$2,$3,$4,$5,0*
20,1,$1+$1,$4,$5,$6,$7,0*
20,1,$1+$1,$6,$7,$8,$9,0*
20,1,$1+$1,$8,$9,$2,$3,0*%
%AMFreePoly0*
4,1,19,0.000000,0.744911,0.071157,0.744911,0.207708,0.704816,0.327430,0.627875,0.420627,0.520320,0.479746,0.390866,0.500000,0.250000,0.500000,-0.250000,0.479746,-0.390866,0.420627,-0.520320,0.327430,-0.627875,0.207708,-0.704816,0.071157,-0.744911,0.000000,-0.744911,0.000000,-0.750000,-0.550000,-0.750000,-0.550000,0.750000,0.000000,0.750000,0.000000,0.744911,0.000000,0.744911,
$1*%
%AMFreePoly1*
4,1,19,0.550000,-0.750000,0.000000,-0.750000,0.000000,-0.744911,-0.071157,-0.744911,-0.207708,-0.704816,-0.327430,-0.627875,-0.420627,-0.520320,-0.479746,-0.390866,-0.500000,-0.250000,-0.500000,0.250000,-0.479746,0.390866,-0.420627,0.520320,-0.327430,0.627875,-0.207708,0.704816,-0.071157,0.744911,0.000000,0.744911,0.000000,0.750000,0.550000,0.750000,0.550000,-0.750000,0.550000,-0.750000,
$1*%
G04 Aperture macros list end*
%TA.AperFunction,EtchedComponent*%
%ADD10C,1.000000*%
%TD*%
%TA.AperFunction,ComponentPad*%
%ADD11O,1.700000X1.700000*%
%TD*%
%TA.AperFunction,ComponentPad*%
%ADD12R,1.700000X1.700000*%
%TD*%
%TA.AperFunction,ComponentPad*%
%ADD13C,1.000000*%
%TD*%
%TA.AperFunction,SMDPad,CuDef*%
%ADD14FreePoly0,270.000000*%
%TD*%
%TA.AperFunction,SMDPad,CuDef*%
%ADD15R,1.500000X1.000000*%
%TD*%
%TA.AperFunction,SMDPad,CuDef*%
%ADD16FreePoly1,270.000000*%
%TD*%
%TA.AperFunction,SMDPad,CuDef*%
%ADD17RoundRect,0.250000X-0.475000X0.250000X-0.475000X-0.250000X0.475000X-0.250000X0.475000X0.250000X0*%
%TD*%
%TA.AperFunction,SMDPad,CuDef*%
%ADD18RoundRect,0.250000X-0.450000X0.262500X-0.450000X-0.262500X0.450000X-0.262500X0.450000X0.262500X0*%
%TD*%
%TA.AperFunction,SMDPad,CuDef*%
%ADD19RoundRect,0.250000X0.475000X-0.250000X0.475000X0.250000X-0.475000X0.250000X-0.475000X-0.250000X0*%
%TD*%
%TA.AperFunction,SMDPad,CuDef*%
%ADD20RoundRect,0.150000X0.675000X0.150000X-0.675000X0.150000X-0.675000X-0.150000X0.675000X-0.150000X0*%
%TD*%
%TA.AperFunction,ViaPad*%
%ADD21C,0.800000*%
%TD*%
%TA.AperFunction,Conductor*%
%ADD22C,0.250000*%
%TD*%
G04 APERTURE END LIST*
D10*
%TO.C,AE1*%
X105960000Y-58530000D02*
X106960000Y-57530000D01*
X106960000Y-57530000D02*
X109960000Y-57530000D01*
X109960000Y-57530000D02*
X110960000Y-56530000D01*
X105960000Y-56530000D02*
X106960000Y-55530000D01*
X106960000Y-55530000D02*
X109960000Y-55530000D01*
X109960000Y-55530000D02*
X110960000Y-54530000D01*
X105960000Y-54530000D02*
X106960000Y-53530000D01*
X106960000Y-53530000D02*
X109960000Y-53530000D01*
X109960000Y-53530000D02*
X110960000Y-52530000D01*
X105960000Y-52530000D02*
X106960000Y-51530000D01*
X106960000Y-51530000D02*
X109960000Y-51530000D01*
X109960000Y-51530000D02*
X110960000Y-50530000D01*
X105960000Y-50530000D02*
X106960000Y-49530000D01*
X106960000Y-49530000D02*
X109960000Y-49530000D01*
X109960000Y-49530000D02*
X110960000Y-48530000D01*
X105960000Y-48530000D02*
X106960000Y-47530000D01*
X106960000Y-47530000D02*
X109960000Y-47530000D01*
X109960000Y-47530000D02*
X110960000Y-46530000D01*
X105960000Y-46530000D02*
X106960000Y-45530000D01*
X106960000Y-45530000D02*
X109960000Y-45530000D01*
X109960000Y-45530000D02*
X110960000Y-44530000D01*
X105960000Y-44530000D02*
X106960000Y-43530000D01*
X106960000Y-43530000D02*
X109960000Y-43530000D01*
X109960000Y-43530000D02*
X110960000Y-42530000D01*
X105960000Y-42530000D02*
X106960000Y-41530000D01*
X106960000Y-41530000D02*
X109960000Y-41530000D01*
X109960000Y-41530000D02*
X110960000Y-40530000D01*
%TD*%
D11*
%TO.P,J1,12,Pin_12*%
%TO.N,INT*%
X152400000Y-55880000D03*
%TO.P,J1,11,Pin_11*%
%TO.N,nCS*%
X149860000Y-55880000D03*
%TO.P,J1,10,Pin_10*%
%TO.N,nRESET*%
X152400000Y-53340000D03*
%TO.P,J1,9,Pin_9*%
%TO.N,MOSI*%
X149860000Y-53340000D03*
%TO.P,J1,8,Pin_8*%
%TO.N,nCS2*%
X152400000Y-50800000D03*
%TO.P,J1,7,Pin_7*%
%TO.N,MISO*%
X149860000Y-50800000D03*
%TO.P,J1,6,Pin_6*%
%TO.N,unconnected-(J1-Pin_6-Pad6)*%
X152400000Y-48260000D03*
%TO.P,J1,5,Pin_5*%
%TO.N,SCK*%
X149860000Y-48260000D03*
%TO.P,J1,4,Pin_4*%
%TO.N,GND*%
X152400000Y-45720000D03*
%TO.P,J1,3,Pin_3*%
X149860000Y-45720000D03*
%TO.P,J1,2,Pin_2*%
%TO.N,VCC*%
X152400000Y-43180000D03*
D12*
%TO.P,J1,1,Pin_1*%
X149860000Y-43180000D03*
%TD*%
D13*
%TO.P,AE1,*%
%TO.N,*%
X105960000Y-58530000D03*
X105960000Y-56530000D03*
X110960000Y-56530000D03*
X105960000Y-54530000D03*
X110960000Y-54530000D03*
X105960000Y-52530000D03*
X110960000Y-52530000D03*
X105960000Y-50530000D03*
X110960000Y-50530000D03*
X105960000Y-48530000D03*
X110960000Y-48530000D03*
X105960000Y-46530000D03*
X110960000Y-46530000D03*
X105960000Y-44530000D03*
X110960000Y-44530000D03*
X105960000Y-42530000D03*
X110960000Y-42530000D03*
X105960000Y-40530000D03*
X110960000Y-40530000D03*
%TD*%
D14*
%TO.P,JP1,3,B*%
%TO.N,VCC*%
X146050000Y-50800000D03*
D15*
%TO.P,JP1,2,C*%
%TO.N,Net-(JP1-C)*%
X146050000Y-49500000D03*
D16*
%TO.P,JP1,1,A*%
%TO.N,GND*%
X146050000Y-48200000D03*
%TD*%
D17*
%TO.P,C1,2*%
%TO.N,GND*%
X143764000Y-44130000D03*
%TO.P,C1,1*%
%TO.N,VCC*%
X143764000Y-42230000D03*
%TD*%
D18*
%TO.P,R2,2*%
%TO.N,nCS*%
X143510000Y-56157500D03*
%TO.P,R2,1*%
%TO.N,VCC*%
X143510000Y-54332500D03*
%TD*%
%TO.P,R1,2*%
%TO.N,nCS2*%
X140970000Y-44092500D03*
%TO.P,R1,1*%
%TO.N,VCC*%
X140970000Y-42267500D03*
%TD*%
D19*
%TO.P,C2,2*%
%TO.N,GND*%
X138430000Y-42230000D03*
%TO.P,C2,1*%
%TO.N,VCC*%
X138430000Y-44130000D03*
%TD*%
D20*
%TO.P,U2,8,VCC*%
%TO.N,VCC*%
X138430000Y-47625000D03*
%TO.P,U2,7,NC*%
%TO.N,unconnected-(U2-NC-Pad7)*%
X138430000Y-48895000D03*
%TO.P,U2,6,SCLK*%
%TO.N,SCK*%
X138430000Y-50165000D03*
%TO.P,U2,5,SI/IO0*%
%TO.N,MOSI*%
X138430000Y-51435000D03*
%TO.P,U2,4,VSS*%
%TO.N,GND*%
X143680000Y-51435000D03*
%TO.P,U2,3,~{WP}*%
%TO.N,Net-(JP1-C)*%
X143680000Y-50165000D03*
%TO.P,U2,2,O1/SO*%
%TO.N,MISO*%
X143680000Y-48895000D03*
%TO.P,U2,1,~{CS}*%
%TO.N,nCS2*%
X143680000Y-47625000D03*
%TD*%
D21*
%TO.N,GND*%
X143764000Y-44130000D03*
%TO.N,VCC*%
X143764000Y-42230000D03*
%TO.N,nCS*%
X143510000Y-56157500D03*
%TO.N,GND*%
X142875000Y-38735000D03*
X155575000Y-40005000D03*
X154305000Y-60325000D03*
X155575000Y-56515000D03*
X128905000Y-60325000D03*
X123825000Y-60325000D03*
X155575000Y-55245000D03*
X126365000Y-38735000D03*
X155575000Y-41275000D03*
X130175000Y-38735000D03*
X135255000Y-38735000D03*
X132715000Y-60325000D03*
X149225000Y-60325000D03*
X128905000Y-38735000D03*
X155575000Y-57785000D03*
X139065000Y-60325000D03*
X126365000Y-60325000D03*
X144145000Y-38735000D03*
X150495000Y-38735000D03*
X132715000Y-38735000D03*
X131445000Y-60325000D03*
X155575000Y-59055000D03*
X151765000Y-60325000D03*
X137795000Y-60325000D03*
X122555000Y-38735000D03*
X155575000Y-38735000D03*
X121285000Y-60325000D03*
X153035000Y-60325000D03*
X145415000Y-38735000D03*
X154305000Y-38735000D03*
X127635000Y-38735000D03*
X133985000Y-60325000D03*
X155575000Y-43815000D03*
X144145000Y-60325000D03*
X155575000Y-45085000D03*
X127635000Y-60325000D03*
X155575000Y-53975000D03*
X155575000Y-51435000D03*
X125095000Y-38735000D03*
X150495000Y-60325000D03*
X155575000Y-42545000D03*
X122555000Y-60325000D03*
X151765000Y-38735000D03*
X137795000Y-38735000D03*
X121285000Y-38735000D03*
X153035000Y-38735000D03*
X155575000Y-52705000D03*
X125095000Y-60325000D03*
X142875000Y-60325000D03*
X120015000Y-38735000D03*
X140335000Y-60325000D03*
X130175000Y-60325000D03*
X149225000Y-38735000D03*
X118745000Y-38735000D03*
X155575000Y-50165000D03*
X155575000Y-47625000D03*
X146685000Y-38735000D03*
X118745000Y-60325000D03*
X146685000Y-60325000D03*
X155575000Y-46355000D03*
X135255000Y-60325000D03*
X141605000Y-60325000D03*
X155575000Y-60325000D03*
X136525000Y-38735000D03*
X133985000Y-38735000D03*
X155575000Y-48895000D03*
X139065000Y-38735000D03*
X120015000Y-60325000D03*
X123825000Y-38735000D03*
X145415000Y-60325000D03*
X141605000Y-38735000D03*
X147955000Y-38735000D03*
X147955000Y-60325000D03*
X136525000Y-60325000D03*
X140335000Y-38735000D03*
X131445000Y-38735000D03*
%TD*%
D22*
%TO.N,nCS2*%
X143680000Y-47625000D02*
X140970000Y-44915000D01*
X140970000Y-44915000D02*
X140970000Y-44092500D01*
%TO.N,VCC*%
X138430000Y-44130000D02*
X138430000Y-47625000D01*
X140970000Y-42267500D02*
X140292500Y-42267500D01*
X140292500Y-42267500D02*
X138430000Y-44130000D01*
X143764000Y-42230000D02*
X141007500Y-42230000D01*
X141007500Y-42230000D02*
X140970000Y-42267500D01*
X143510000Y-54332500D02*
X139421104Y-54332500D01*
X139421104Y-54332500D02*
X137160000Y-52071396D01*
X137160000Y-52071396D02*
X137160000Y-48070001D01*
X137160000Y-48070001D02*
X137605001Y-47625000D01*
X137605001Y-47625000D02*
X138430000Y-47625000D01*
%TO.N,nCS2*%
X143680000Y-47625000D02*
X144385142Y-46919858D01*
X144385142Y-46919858D02*
X152721559Y-46919858D01*
X152721559Y-46919858D02*
X153575000Y-47773299D01*
X153575000Y-49625000D02*
X152400000Y-50800000D01*
X153575000Y-47773299D02*
X153575000Y-49625000D01*
%TO.N,VCC*%
X146050000Y-50800000D02*
X142814092Y-50800000D01*
X142814092Y-50800000D02*
X139639092Y-47625000D01*
X139639092Y-47625000D02*
X138430000Y-47625000D01*
%TO.N,SCK*%
X138430000Y-50165000D02*
X139254999Y-50165000D01*
X150251701Y-52070000D02*
X151130000Y-51191701D01*
X139254999Y-50165000D02*
X141159999Y-52070000D01*
X141159999Y-52070000D02*
X150251701Y-52070000D01*
X151130000Y-51191701D02*
X151130000Y-49530000D01*
X151130000Y-49530000D02*
X149860000Y-48260000D01*
%TO.N,Net-(JP1-C)*%
X143680000Y-50165000D02*
X144504999Y-50165000D01*
X144504999Y-50165000D02*
X145169999Y-49500000D01*
X145169999Y-49500000D02*
X146050000Y-49500000D01*
%TO.N,MISO*%
X143680000Y-48895000D02*
X143910908Y-48895000D01*
X143910908Y-48895000D02*
X145436050Y-47369858D01*
X145436050Y-47369858D02*
X146642038Y-47369858D01*
X146642038Y-47369858D02*
X149860000Y-50587820D01*
X149860000Y-50587820D02*
X149860000Y-50800000D01*
%TO.N,MOSI*%
X139065000Y-53340000D02*
X138430000Y-52705000D01*
X149860000Y-53340000D02*
X139065000Y-53340000D01*
X138430000Y-52705000D02*
X138430000Y-51435000D01*
%TO.N,nCS2*%
X140970000Y-43537500D02*
X140292500Y-43537500D01*
%TD*%
%TA.AperFunction,Conductor*%
%TO.N,GND*%
G36*
X156143691Y-38144407D02*
G01*
X156179655Y-38193907D01*
X156184500Y-38224500D01*
X156184500Y-60835500D01*
X156165593Y-60893691D01*
X156116093Y-60929655D01*
X156085500Y-60934500D01*
X118209000Y-60934500D01*
X118150809Y-60915593D01*
X118114845Y-60866093D01*
X118110000Y-60835500D01*
X118110000Y-56474274D01*
X142609500Y-56474274D01*
X142612353Y-56504694D01*
X142612355Y-56504703D01*
X142657207Y-56632883D01*
X142737845Y-56742144D01*
X142737847Y-56742146D01*
X142737850Y-56742150D01*
X142737853Y-56742152D01*
X142737855Y-56742154D01*
X142847116Y-56822792D01*
X142847117Y-56822792D01*
X142847118Y-56822793D01*
X142975301Y-56867646D01*
X143005725Y-56870499D01*
X143005727Y-56870500D01*
X143005734Y-56870500D01*
X144014273Y-56870500D01*
X144014273Y-56870499D01*
X144044699Y-56867646D01*
X144172882Y-56822793D01*
X144282150Y-56742150D01*
X144362793Y-56632882D01*
X144407646Y-56504699D01*
X144410499Y-56474273D01*
X144410500Y-56474273D01*
X144410500Y-55880003D01*
X148804417Y-55880003D01*
X148824698Y-56085929D01*
X148824699Y-56085934D01*
X148884768Y-56283954D01*
X148982316Y-56466452D01*
X149013708Y-56504703D01*
X149113590Y-56626410D01*
X149142838Y-56650413D01*
X149273547Y-56757683D01*
X149273548Y-56757683D01*
X149273550Y-56757685D01*
X149456046Y-56855232D01*
X149593997Y-56897078D01*
X149654065Y-56915300D01*
X149654070Y-56915301D01*
X149859997Y-56935583D01*
X149860000Y-56935583D01*
X149860003Y-56935583D01*
X150065929Y-56915301D01*
X150065934Y-56915300D01*
X150263954Y-56855232D01*
X150446450Y-56757685D01*
X150606410Y-56626410D01*
X150737685Y-56466450D01*
X150835232Y-56283954D01*
X150895300Y-56085934D01*
X150895301Y-56085929D01*
X150915583Y-55880003D01*
X151344417Y-55880003D01*
X151364698Y-56085929D01*
X151364699Y-56085934D01*
X151424768Y-56283954D01*
X151522316Y-56466452D01*
X151553708Y-56504703D01*
X151653590Y-56626410D01*
X151682838Y-56650413D01*
X151813547Y-56757683D01*
X151813548Y-56757683D01*
X151813550Y-56757685D01*
X151996046Y-56855232D01*
X152133997Y-56897078D01*
X152194065Y-56915300D01*
X152194070Y-56915301D01*
X152399997Y-56935583D01*
X152400000Y-56935583D01*
X152400003Y-56935583D01*
X152605929Y-56915301D01*
X152605934Y-56915300D01*
X152803954Y-56855232D01*
X152986450Y-56757685D01*
X153146410Y-56626410D01*
X153277685Y-56466450D01*
X153375232Y-56283954D01*
X153435300Y-56085934D01*
X153435301Y-56085929D01*
X153455583Y-55880003D01*
X153455583Y-55879996D01*
X153435301Y-55674070D01*
X153435300Y-55674065D01*
X153380134Y-55492207D01*
X153375232Y-55476046D01*
X153277685Y-55293550D01*
X153146410Y-55133590D01*
X153146404Y-55133585D01*
X152986452Y-55002316D01*
X152803954Y-54904768D01*
X152605934Y-54844699D01*
X152605929Y-54844698D01*
X152400003Y-54824417D01*
X152399997Y-54824417D01*
X152194070Y-54844698D01*
X152194065Y-54844699D01*
X151996045Y-54904768D01*
X151813547Y-55002316D01*
X151653595Y-55133585D01*
X151653585Y-55133595D01*
X151522316Y-55293547D01*
X151424768Y-55476045D01*
X151364699Y-55674065D01*
X151364698Y-55674070D01*
X151344417Y-55879996D01*
X151344417Y-55880003D01*
X150915583Y-55880003D01*
X150915583Y-55879996D01*
X150895301Y-55674070D01*
X150895300Y-55674065D01*
X150840134Y-55492207D01*
X150835232Y-55476046D01*
X150737685Y-55293550D01*
X150606410Y-55133590D01*
X150606404Y-55133585D01*
X150446452Y-55002316D01*
X150263954Y-54904768D01*
X150065934Y-54844699D01*
X150065929Y-54844698D01*
X149860003Y-54824417D01*
X149859997Y-54824417D01*
X149654070Y-54844698D01*
X149654065Y-54844699D01*
X149456045Y-54904768D01*
X149273547Y-55002316D01*
X149113595Y-55133585D01*
X149113585Y-55133595D01*
X148982316Y-55293547D01*
X148884768Y-55476045D01*
X148824699Y-55674065D01*
X148824698Y-55674070D01*
X148804417Y-55879996D01*
X148804417Y-55880003D01*
X144410500Y-55880003D01*
X144410500Y-55840727D01*
X144410499Y-55840725D01*
X144407646Y-55810305D01*
X144407646Y-55810301D01*
X144362793Y-55682118D01*
X144356853Y-55674070D01*
X144282154Y-55572855D01*
X144282152Y-55572853D01*
X144282150Y-55572850D01*
X144282146Y-55572847D01*
X144282144Y-55572845D01*
X144172883Y-55492207D01*
X144044703Y-55447355D01*
X144044694Y-55447353D01*
X144014274Y-55444500D01*
X144014266Y-55444500D01*
X143005734Y-55444500D01*
X143005725Y-55444500D01*
X142975305Y-55447353D01*
X142975296Y-55447355D01*
X142847116Y-55492207D01*
X142737855Y-55572845D01*
X142737845Y-55572855D01*
X142657207Y-55682116D01*
X142612355Y-55810296D01*
X142612353Y-55810305D01*
X142609500Y-55840725D01*
X142609500Y-56474274D01*
X118110000Y-56474274D01*
X118110000Y-52100203D01*
X136830736Y-52100203D01*
X136835150Y-52116678D01*
X136840795Y-52137746D01*
X136842664Y-52146175D01*
X136849411Y-52184441D01*
X136850164Y-52185744D01*
X136860054Y-52209620D01*
X136860443Y-52211075D01*
X136860446Y-52211081D01*
X136882732Y-52242908D01*
X136887371Y-52250189D01*
X136906806Y-52283851D01*
X136931650Y-52304698D01*
X136936569Y-52308825D01*
X136942938Y-52314660D01*
X139177834Y-54549556D01*
X139183668Y-54555923D01*
X139208649Y-54585694D01*
X139242313Y-54605130D01*
X139249586Y-54609764D01*
X139270277Y-54624252D01*
X139281420Y-54632054D01*
X139282871Y-54632442D01*
X139306763Y-54642340D01*
X139308058Y-54643088D01*
X139346324Y-54649835D01*
X139354756Y-54651704D01*
X139392297Y-54661764D01*
X139431009Y-54658376D01*
X139439638Y-54658000D01*
X142534517Y-54658000D01*
X142592708Y-54676907D01*
X142627961Y-54724302D01*
X142657207Y-54807883D01*
X142737845Y-54917144D01*
X142737847Y-54917146D01*
X142737850Y-54917150D01*
X142737853Y-54917152D01*
X142737855Y-54917154D01*
X142847116Y-54997792D01*
X142847117Y-54997792D01*
X142847118Y-54997793D01*
X142975301Y-55042646D01*
X143005725Y-55045499D01*
X143005727Y-55045500D01*
X143005734Y-55045500D01*
X144014273Y-55045500D01*
X144014273Y-55045499D01*
X144044699Y-55042646D01*
X144172882Y-54997793D01*
X144282150Y-54917150D01*
X144362793Y-54807882D01*
X144407646Y-54679699D01*
X144410499Y-54649273D01*
X144410500Y-54649273D01*
X144410500Y-54015727D01*
X144410499Y-54015725D01*
X144408028Y-53989378D01*
X144407646Y-53985301D01*
X144362793Y-53857118D01*
X144362792Y-53857116D01*
X144337826Y-53823288D01*
X144318484Y-53765241D01*
X144336955Y-53706910D01*
X144386185Y-53670577D01*
X144417481Y-53665500D01*
X148787546Y-53665500D01*
X148845737Y-53684407D01*
X148881701Y-53733907D01*
X148882267Y-53735709D01*
X148884768Y-53743954D01*
X148884769Y-53743956D01*
X148982316Y-53926452D01*
X149055582Y-54015727D01*
X149113590Y-54086410D01*
X149113595Y-54086414D01*
X149273547Y-54217683D01*
X149273548Y-54217683D01*
X149273550Y-54217685D01*
X149456046Y-54315232D01*
X149593997Y-54357078D01*
X149654065Y-54375300D01*
X149654070Y-54375301D01*
X149859997Y-54395583D01*
X149860000Y-54395583D01*
X149860003Y-54395583D01*
X150065929Y-54375301D01*
X150065934Y-54375300D01*
X150263954Y-54315232D01*
X150446450Y-54217685D01*
X150606410Y-54086410D01*
X150737685Y-53926450D01*
X150835232Y-53743954D01*
X150895300Y-53545934D01*
X150895301Y-53545929D01*
X150915583Y-53340003D01*
X151344417Y-53340003D01*
X151364698Y-53545929D01*
X151364699Y-53545934D01*
X151424768Y-53743954D01*
X151522316Y-53926452D01*
X151595582Y-54015727D01*
X151653590Y-54086410D01*
X151653595Y-54086414D01*
X151813547Y-54217683D01*
X151813548Y-54217683D01*
X151813550Y-54217685D01*
X151996046Y-54315232D01*
X152133997Y-54357078D01*
X152194065Y-54375300D01*
X152194070Y-54375301D01*
X152399997Y-54395583D01*
X152400000Y-54395583D01*
X152400003Y-54395583D01*
X152605929Y-54375301D01*
X152605934Y-54375300D01*
X152803954Y-54315232D01*
X152986450Y-54217685D01*
X153146410Y-54086410D01*
X153277685Y-53926450D01*
X153375232Y-53743954D01*
X153435300Y-53545934D01*
X153435301Y-53545929D01*
X153455583Y-53340003D01*
X153455583Y-53339996D01*
X153435301Y-53134070D01*
X153435300Y-53134065D01*
X153399030Y-53014500D01*
X153375232Y-52936046D01*
X153277685Y-52753550D01*
X153146410Y-52593590D01*
X153118918Y-52571028D01*
X152986452Y-52462316D01*
X152803954Y-52364768D01*
X152605934Y-52304699D01*
X152605929Y-52304698D01*
X152400003Y-52284417D01*
X152399997Y-52284417D01*
X152194070Y-52304698D01*
X152194065Y-52304699D01*
X151996045Y-52364768D01*
X151813547Y-52462316D01*
X151653595Y-52593585D01*
X151653585Y-52593595D01*
X151522316Y-52753547D01*
X151424768Y-52936045D01*
X151364699Y-53134065D01*
X151364698Y-53134070D01*
X151344417Y-53339996D01*
X151344417Y-53340003D01*
X150915583Y-53340003D01*
X150915583Y-53339996D01*
X150895301Y-53134070D01*
X150895300Y-53134065D01*
X150859030Y-53014500D01*
X150835232Y-52936046D01*
X150737685Y-52753550D01*
X150606410Y-52593590D01*
X150463800Y-52476553D01*
X150430814Y-52425024D01*
X150434416Y-52363945D01*
X150458794Y-52330004D01*
X150458587Y-52329831D01*
X150460894Y-52327081D01*
X150462973Y-52324187D01*
X150464153Y-52323196D01*
X150464153Y-52323195D01*
X150464156Y-52323194D01*
X150489144Y-52293413D01*
X150494955Y-52287070D01*
X151347072Y-51434954D01*
X151353431Y-51429129D01*
X151383194Y-51404156D01*
X151383199Y-51404146D01*
X151384181Y-51402978D01*
X151385815Y-51401956D01*
X151389830Y-51398588D01*
X151390302Y-51399151D01*
X151436065Y-51370549D01*
X151497102Y-51374811D01*
X151536554Y-51403801D01*
X151644226Y-51535000D01*
X151653590Y-51546410D01*
X151653595Y-51546414D01*
X151813547Y-51677683D01*
X151813548Y-51677683D01*
X151813550Y-51677685D01*
X151996046Y-51775232D01*
X152133997Y-51817078D01*
X152194065Y-51835300D01*
X152194070Y-51835301D01*
X152399997Y-51855583D01*
X152400000Y-51855583D01*
X152400003Y-51855583D01*
X152605929Y-51835301D01*
X152605934Y-51835300D01*
X152803954Y-51775232D01*
X152986450Y-51677685D01*
X153146410Y-51546410D01*
X153277685Y-51386450D01*
X153375232Y-51203954D01*
X153435300Y-51005934D01*
X153435301Y-51005929D01*
X153455583Y-50800003D01*
X153455583Y-50799996D01*
X153435301Y-50594070D01*
X153435300Y-50594065D01*
X153399030Y-50474500D01*
X153375232Y-50396046D01*
X153371195Y-50388493D01*
X153360440Y-50328261D01*
X153387142Y-50273210D01*
X153388453Y-50271871D01*
X153792066Y-49868258D01*
X153798425Y-49862433D01*
X153828194Y-49837455D01*
X153847635Y-49803779D01*
X153852251Y-49796533D01*
X153874554Y-49764684D01*
X153874942Y-49763236D01*
X153884838Y-49739345D01*
X153885588Y-49738045D01*
X153887747Y-49725801D01*
X153892334Y-49699782D01*
X153894204Y-49691348D01*
X153898473Y-49675419D01*
X153904264Y-49653807D01*
X153900877Y-49615094D01*
X153900500Y-49606465D01*
X153900500Y-47791832D01*
X153900877Y-47783203D01*
X153904264Y-47744492D01*
X153894204Y-47706951D01*
X153892335Y-47698519D01*
X153885588Y-47660253D01*
X153884840Y-47658958D01*
X153874942Y-47635066D01*
X153874554Y-47633615D01*
X153852264Y-47601781D01*
X153847630Y-47594508D01*
X153828194Y-47560844D01*
X153798428Y-47535867D01*
X153792060Y-47530033D01*
X152993722Y-46731695D01*
X152965945Y-46677178D01*
X152975516Y-46616746D01*
X153000921Y-46585163D01*
X153146050Y-46466059D01*
X153146059Y-46466050D01*
X153277268Y-46306170D01*
X153277275Y-46306160D01*
X153374765Y-46123767D01*
X153374767Y-46123762D01*
X153434808Y-45925836D01*
X153434809Y-45925831D01*
X153445232Y-45820000D01*
X152891746Y-45820000D01*
X152900000Y-45791889D01*
X152900000Y-45648111D01*
X152891746Y-45620000D01*
X153445232Y-45620000D01*
X153445232Y-45619999D01*
X153434809Y-45514168D01*
X153434808Y-45514163D01*
X153374767Y-45316237D01*
X153374765Y-45316232D01*
X153277275Y-45133839D01*
X153277268Y-45133829D01*
X153146059Y-44973949D01*
X153146050Y-44973940D01*
X152986170Y-44842731D01*
X152986160Y-44842724D01*
X152803767Y-44745234D01*
X152803762Y-44745232D01*
X152605836Y-44685191D01*
X152605831Y-44685190D01*
X152500000Y-44674767D01*
X152500000Y-45229235D01*
X152435763Y-45220000D01*
X152364237Y-45220000D01*
X152300000Y-45229235D01*
X152300000Y-44674767D01*
X152299999Y-44674767D01*
X152194168Y-44685190D01*
X152194163Y-44685191D01*
X151996237Y-44745232D01*
X151996232Y-44745234D01*
X151813839Y-44842724D01*
X151813829Y-44842731D01*
X151653949Y-44973940D01*
X151653940Y-44973949D01*
X151522731Y-45133829D01*
X151522724Y-45133839D01*
X151425234Y-45316232D01*
X151425232Y-45316237D01*
X151365191Y-45514163D01*
X151365190Y-45514168D01*
X151354767Y-45619999D01*
X151354768Y-45620000D01*
X151908254Y-45620000D01*
X151900000Y-45648111D01*
X151900000Y-45791889D01*
X151908254Y-45820000D01*
X151354767Y-45820000D01*
X151365190Y-45925831D01*
X151365191Y-45925836D01*
X151425232Y-46123762D01*
X151425234Y-46123767D01*
X151522724Y-46306160D01*
X151522731Y-46306170D01*
X151626450Y-46432553D01*
X151648750Y-46489530D01*
X151633301Y-46548733D01*
X151586004Y-46587548D01*
X151549922Y-46594358D01*
X150710078Y-46594358D01*
X150651887Y-46575451D01*
X150615923Y-46525951D01*
X150615923Y-46464765D01*
X150633550Y-46432553D01*
X150737268Y-46306170D01*
X150737275Y-46306160D01*
X150834765Y-46123767D01*
X150834767Y-46123762D01*
X150894808Y-45925836D01*
X150894809Y-45925831D01*
X150905232Y-45820000D01*
X150351746Y-45820000D01*
X150360000Y-45791889D01*
X150360000Y-45648111D01*
X150351746Y-45620000D01*
X150905232Y-45620000D01*
X150905232Y-45619999D01*
X150894809Y-45514168D01*
X150894808Y-45514163D01*
X150834767Y-45316237D01*
X150834765Y-45316232D01*
X150737275Y-45133839D01*
X150737268Y-45133829D01*
X150606059Y-44973949D01*
X150606050Y-44973940D01*
X150446170Y-44842731D01*
X150446160Y-44842724D01*
X150263767Y-44745234D01*
X150263762Y-44745232D01*
X150065836Y-44685191D01*
X150065831Y-44685190D01*
X149960000Y-44674767D01*
X149960000Y-45229235D01*
X149895763Y-45220000D01*
X149824237Y-45220000D01*
X149760000Y-45229235D01*
X149760000Y-44674767D01*
X149759999Y-44674767D01*
X149654168Y-44685190D01*
X149654163Y-44685191D01*
X149456237Y-44745232D01*
X149456232Y-44745234D01*
X149273839Y-44842724D01*
X149273829Y-44842731D01*
X149113949Y-44973940D01*
X149113940Y-44973949D01*
X148982731Y-45133829D01*
X148982724Y-45133839D01*
X148885234Y-45316232D01*
X148885232Y-45316237D01*
X148825191Y-45514163D01*
X148825190Y-45514168D01*
X148814767Y-45619999D01*
X148814768Y-45620000D01*
X149368254Y-45620000D01*
X149360000Y-45648111D01*
X149360000Y-45791889D01*
X149368254Y-45820000D01*
X148814767Y-45820000D01*
X148825190Y-45925831D01*
X148825191Y-45925836D01*
X148885232Y-46123762D01*
X148885234Y-46123767D01*
X148982724Y-46306160D01*
X148982731Y-46306170D01*
X149086450Y-46432553D01*
X149108750Y-46489530D01*
X149093301Y-46548733D01*
X149046004Y-46587548D01*
X149009922Y-46594358D01*
X144403665Y-46594358D01*
X144395036Y-46593981D01*
X144356336Y-46590595D01*
X144356327Y-46590595D01*
X144318801Y-46600650D01*
X144310377Y-46602518D01*
X144272100Y-46609268D01*
X144272093Y-46609271D01*
X144270774Y-46610033D01*
X144246932Y-46619908D01*
X144245468Y-46620300D01*
X144245454Y-46620306D01*
X144213630Y-46642589D01*
X144206351Y-46647226D01*
X144172688Y-46666662D01*
X144147710Y-46696429D01*
X144141877Y-46702794D01*
X143750004Y-47094669D01*
X143695487Y-47122447D01*
X143635055Y-47112876D01*
X143609996Y-47094670D01*
X141477784Y-44962458D01*
X141450007Y-44907941D01*
X141459578Y-44847509D01*
X141502843Y-44804244D01*
X141515082Y-44799012D01*
X141632882Y-44757793D01*
X141742150Y-44677150D01*
X141822793Y-44567882D01*
X141867646Y-44439699D01*
X141868161Y-44434203D01*
X142839001Y-44434203D01*
X142841850Y-44464600D01*
X142841850Y-44464602D01*
X142886654Y-44592647D01*
X142967207Y-44701790D01*
X142967209Y-44701792D01*
X143076352Y-44782345D01*
X143204398Y-44827149D01*
X143234789Y-44829999D01*
X143663998Y-44829999D01*
X143664000Y-44829998D01*
X143864000Y-44829998D01*
X143864001Y-44829999D01*
X144293203Y-44829999D01*
X144323600Y-44827149D01*
X144323602Y-44827149D01*
X144451647Y-44782345D01*
X144560790Y-44701792D01*
X144560792Y-44701790D01*
X144641345Y-44592647D01*
X144686149Y-44464601D01*
X144688999Y-44434211D01*
X144689000Y-44434210D01*
X144689000Y-44230001D01*
X144688999Y-44230000D01*
X143864001Y-44230000D01*
X143864000Y-44230001D01*
X143864000Y-44829998D01*
X143664000Y-44829998D01*
X143664000Y-44230001D01*
X143663999Y-44230000D01*
X142839002Y-44230000D01*
X142839001Y-44230001D01*
X142839001Y-44434203D01*
X141868161Y-44434203D01*
X141870499Y-44409273D01*
X141870500Y-44409273D01*
X141870500Y-44049746D01*
X148809500Y-44049746D01*
X148809501Y-44049758D01*
X148821132Y-44108227D01*
X148821134Y-44108233D01*
X148865445Y-44174548D01*
X148865448Y-44174552D01*
X148931769Y-44218867D01*
X148976231Y-44227711D01*
X148990241Y-44230498D01*
X148990246Y-44230498D01*
X148990252Y-44230500D01*
X148990253Y-44230500D01*
X150729747Y-44230500D01*
X150729748Y-44230500D01*
X150788231Y-44218867D01*
X150854552Y-44174552D01*
X150898867Y-44108231D01*
X150910500Y-44049748D01*
X150910500Y-43180003D01*
X151344417Y-43180003D01*
X151364698Y-43385929D01*
X151364699Y-43385934D01*
X151424768Y-43583954D01*
X151522316Y-43766452D01*
X151653585Y-43926404D01*
X151653590Y-43926410D01*
X151653595Y-43926414D01*
X151813547Y-44057683D01*
X151813548Y-44057683D01*
X151813550Y-44057685D01*
X151996046Y-44155232D01*
X152133997Y-44197078D01*
X152194065Y-44215300D01*
X152194070Y-44215301D01*
X152399997Y-44235583D01*
X152400000Y-44235583D01*
X152400003Y-44235583D01*
X152605929Y-44215301D01*
X152605934Y-44215300D01*
X152803954Y-44155232D01*
X152986450Y-44057685D01*
X153146410Y-43926410D01*
X153277685Y-43766450D01*
X153375232Y-43583954D01*
X153435300Y-43385934D01*
X153435301Y-43385929D01*
X153455583Y-43180003D01*
X153455583Y-43179996D01*
X153435301Y-42974070D01*
X153435300Y-42974065D01*
X153407477Y-42882345D01*
X153375232Y-42776046D01*
X153277685Y-42593550D01*
X153260920Y-42573122D01*
X153146414Y-42433595D01*
X153146410Y-42433590D01*
X153020186Y-42330001D01*
X152986452Y-42302316D01*
X152803954Y-42204768D01*
X152605934Y-42144699D01*
X152605929Y-42144698D01*
X152400003Y-42124417D01*
X152399997Y-42124417D01*
X152194070Y-42144698D01*
X152194065Y-42144699D01*
X151996045Y-42204768D01*
X151813547Y-42302316D01*
X151653595Y-42433585D01*
X151653585Y-42433595D01*
X151522316Y-42593547D01*
X151424768Y-42776045D01*
X151364699Y-42974065D01*
X151364698Y-42974070D01*
X151344417Y-43179996D01*
X151344417Y-43180003D01*
X150910500Y-43180003D01*
X150910500Y-42310252D01*
X150908921Y-42302316D01*
X150907711Y-42296231D01*
X150898867Y-42251769D01*
X150854552Y-42185448D01*
X150854548Y-42185445D01*
X150788233Y-42141134D01*
X150788231Y-42141133D01*
X150788228Y-42141132D01*
X150788227Y-42141132D01*
X150729758Y-42129501D01*
X150729748Y-42129500D01*
X148990252Y-42129500D01*
X148990251Y-42129500D01*
X148990241Y-42129501D01*
X148931772Y-42141132D01*
X148931766Y-42141134D01*
X148865451Y-42185445D01*
X148865445Y-42185451D01*
X148821134Y-42251766D01*
X148821132Y-42251772D01*
X148809501Y-42310241D01*
X148809500Y-42310253D01*
X148809500Y-44049746D01*
X141870500Y-44049746D01*
X141870500Y-44029999D01*
X142839000Y-44029999D01*
X142839001Y-44030000D01*
X143663999Y-44030000D01*
X143664000Y-44029999D01*
X143864000Y-44029999D01*
X143864001Y-44030000D01*
X144688998Y-44030000D01*
X144688999Y-44029999D01*
X144688999Y-43825796D01*
X144686149Y-43795399D01*
X144686149Y-43795397D01*
X144641345Y-43667352D01*
X144560792Y-43558209D01*
X144560790Y-43558207D01*
X144451647Y-43477654D01*
X144323601Y-43432850D01*
X144293211Y-43430000D01*
X143864001Y-43430000D01*
X143864000Y-43430001D01*
X143864000Y-44029999D01*
X143664000Y-44029999D01*
X143664000Y-43430001D01*
X143663999Y-43430000D01*
X143234796Y-43430000D01*
X143204399Y-43432850D01*
X143204397Y-43432850D01*
X143076352Y-43477654D01*
X142967209Y-43558207D01*
X142967207Y-43558209D01*
X142886654Y-43667352D01*
X142841850Y-43795398D01*
X142839000Y-43825788D01*
X142839000Y-44029999D01*
X141870500Y-44029999D01*
X141870500Y-43775727D01*
X141870499Y-43775725D01*
X141867646Y-43745301D01*
X141822793Y-43617118D01*
X141779316Y-43558209D01*
X141742154Y-43507855D01*
X141742152Y-43507853D01*
X141742150Y-43507850D01*
X141742146Y-43507847D01*
X141742144Y-43507845D01*
X141632883Y-43427207D01*
X141504703Y-43382355D01*
X141504694Y-43382353D01*
X141474274Y-43379500D01*
X141474266Y-43379500D01*
X141308497Y-43379500D01*
X141250306Y-43360593D01*
X141232659Y-43344136D01*
X141182456Y-43284307D01*
X141182455Y-43284306D01*
X141083045Y-43226912D01*
X141083044Y-43226911D01*
X141083043Y-43226911D01*
X140998479Y-43212000D01*
X140998475Y-43212000D01*
X140264025Y-43212000D01*
X140264020Y-43212000D01*
X140179456Y-43226911D01*
X140080043Y-43284307D01*
X140006262Y-43372235D01*
X140006261Y-43372237D01*
X140006260Y-43372238D01*
X140006260Y-43372239D01*
X139967000Y-43480106D01*
X139967000Y-43594894D01*
X140006260Y-43702760D01*
X140046338Y-43750523D01*
X140069259Y-43807252D01*
X140069500Y-43814159D01*
X140069500Y-44409274D01*
X140072353Y-44439694D01*
X140072355Y-44439703D01*
X140117207Y-44567883D01*
X140197845Y-44677144D01*
X140197847Y-44677146D01*
X140197850Y-44677150D01*
X140197853Y-44677152D01*
X140197855Y-44677154D01*
X140307116Y-44757792D01*
X140307117Y-44757792D01*
X140307118Y-44757793D01*
X140435301Y-44802646D01*
X140465725Y-44805499D01*
X140465727Y-44805500D01*
X140465734Y-44805500D01*
X140544797Y-44805500D01*
X140602988Y-44824407D01*
X140638952Y-44873907D01*
X140643420Y-44913129D01*
X140640736Y-44943805D01*
X140640736Y-44943806D01*
X140650795Y-44981350D01*
X140652664Y-44989779D01*
X140659411Y-45028045D01*
X140660164Y-45029348D01*
X140670054Y-45053224D01*
X140670443Y-45054679D01*
X140670446Y-45054685D01*
X140692732Y-45086512D01*
X140697372Y-45093795D01*
X140716806Y-45127455D01*
X140746569Y-45152429D01*
X140752938Y-45158264D01*
X142719492Y-47124818D01*
X142747269Y-47179335D01*
X142737698Y-47239767D01*
X142719499Y-47264818D01*
X142715803Y-47268514D01*
X142664427Y-47373604D01*
X142664427Y-47373607D01*
X142654500Y-47441740D01*
X142654500Y-47808260D01*
X142658041Y-47832560D01*
X142664427Y-47876395D01*
X142715547Y-47980961D01*
X142715802Y-47981483D01*
X142798517Y-48064198D01*
X142850644Y-48089681D01*
X142903604Y-48115572D01*
X142903605Y-48115572D01*
X142903607Y-48115573D01*
X142971740Y-48125500D01*
X143981074Y-48125500D01*
X144039265Y-48144407D01*
X144075229Y-48193907D01*
X144075229Y-48255093D01*
X144051078Y-48294504D01*
X143980078Y-48365504D01*
X143925561Y-48393281D01*
X143910074Y-48394500D01*
X142971740Y-48394500D01*
X142937673Y-48399463D01*
X142903604Y-48404427D01*
X142798518Y-48455801D01*
X142715801Y-48538518D01*
X142664427Y-48643604D01*
X142659463Y-48677673D01*
X142654500Y-48711740D01*
X142654500Y-49078260D01*
X142661118Y-49123682D01*
X142664427Y-49146395D01*
X142702959Y-49225212D01*
X142715802Y-49251483D01*
X142798517Y-49334198D01*
X142833302Y-49351203D01*
X142903604Y-49385572D01*
X142903605Y-49385572D01*
X142903607Y-49385573D01*
X142971740Y-49395500D01*
X142971743Y-49395500D01*
X144388257Y-49395500D01*
X144388260Y-49395500D01*
X144456393Y-49385573D01*
X144561483Y-49334198D01*
X144644198Y-49251483D01*
X144695573Y-49146393D01*
X144705500Y-49078260D01*
X144705500Y-48711740D01*
X144695573Y-48643607D01*
X144695572Y-48643604D01*
X144694464Y-48635999D01*
X144696106Y-48635759D01*
X144696861Y-48583724D01*
X144720558Y-48545675D01*
X145121827Y-48144407D01*
X145541880Y-47724354D01*
X145596397Y-47696577D01*
X145611884Y-47695358D01*
X146466204Y-47695358D01*
X146524395Y-47714265D01*
X146536208Y-47724354D01*
X148945405Y-50133551D01*
X148973182Y-50188068D01*
X148963611Y-50248500D01*
X148962711Y-50250223D01*
X148884770Y-50396040D01*
X148884768Y-50396045D01*
X148824699Y-50594065D01*
X148824698Y-50594070D01*
X148804417Y-50799996D01*
X148804417Y-50800003D01*
X148824698Y-51005929D01*
X148824699Y-51005934D01*
X148884768Y-51203954D01*
X148982316Y-51386452D01*
X149104226Y-51535000D01*
X149113590Y-51546410D01*
X149113595Y-51546414D01*
X149141082Y-51568972D01*
X149174069Y-51620503D01*
X149170467Y-51681583D01*
X149131652Y-51728879D01*
X149078277Y-51744500D01*
X144801070Y-51744500D01*
X144742879Y-51725593D01*
X144706915Y-51676093D01*
X144703105Y-51631224D01*
X144704999Y-51618222D01*
X144705000Y-51618217D01*
X144705000Y-51535001D01*
X144704999Y-51535000D01*
X142655002Y-51535000D01*
X142655001Y-51535001D01*
X142655001Y-51618213D01*
X142656897Y-51631227D01*
X142646576Y-51691536D01*
X142602779Y-51734260D01*
X142558931Y-51744500D01*
X141335833Y-51744500D01*
X141277642Y-51725593D01*
X141265829Y-51715504D01*
X139498267Y-49947942D01*
X139492433Y-49941574D01*
X139467456Y-49911808D01*
X139467452Y-49911804D01*
X139461910Y-49908605D01*
X139422469Y-49866348D01*
X139394199Y-49808519D01*
X139394198Y-49808518D01*
X139394198Y-49808517D01*
X139311483Y-49725802D01*
X139311481Y-49725801D01*
X139206395Y-49674427D01*
X139179139Y-49670456D01*
X139138260Y-49664500D01*
X137721740Y-49664500D01*
X137692540Y-49668754D01*
X137653603Y-49674427D01*
X137627978Y-49686955D01*
X137567396Y-49695524D01*
X137513347Y-49666848D01*
X137486476Y-49611879D01*
X137485500Y-49598013D01*
X137485500Y-49461986D01*
X137504407Y-49403795D01*
X137553907Y-49367831D01*
X137615093Y-49367831D01*
X137627977Y-49373043D01*
X137653607Y-49385573D01*
X137721740Y-49395500D01*
X137721743Y-49395500D01*
X139138257Y-49395500D01*
X139138260Y-49395500D01*
X139206393Y-49385573D01*
X139311483Y-49334198D01*
X139394198Y-49251483D01*
X139445573Y-49146393D01*
X139455500Y-49078260D01*
X139455500Y-48711740D01*
X139445573Y-48643607D01*
X139441736Y-48635759D01*
X139394198Y-48538518D01*
X139394198Y-48538517D01*
X139311483Y-48455802D01*
X139311481Y-48455801D01*
X139206395Y-48404427D01*
X139179139Y-48400456D01*
X139138260Y-48394500D01*
X137721740Y-48394500D01*
X137692540Y-48398754D01*
X137653603Y-48404427D01*
X137627978Y-48416955D01*
X137567396Y-48425524D01*
X137513347Y-48396848D01*
X137486476Y-48341879D01*
X137485500Y-48328013D01*
X137485500Y-48245833D01*
X137504407Y-48187642D01*
X137514485Y-48175840D01*
X137551164Y-48139161D01*
X137605679Y-48111386D01*
X137650396Y-48114580D01*
X137653599Y-48115569D01*
X137653607Y-48115573D01*
X137721740Y-48125500D01*
X137721743Y-48125500D01*
X139138257Y-48125500D01*
X139138260Y-48125500D01*
X139206393Y-48115573D01*
X139311483Y-48064198D01*
X139394198Y-47981483D01*
X139394198Y-47981481D01*
X139394719Y-47980961D01*
X139449236Y-47953184D01*
X139509668Y-47962755D01*
X139534727Y-47980961D01*
X142570822Y-51017056D01*
X142576656Y-51023423D01*
X142601637Y-51053194D01*
X142621158Y-51064464D01*
X142662099Y-51109932D01*
X142668496Y-51170782D01*
X142666250Y-51179418D01*
X142664913Y-51183745D01*
X142655000Y-51251784D01*
X142655000Y-51334999D01*
X142655001Y-51335000D01*
X144704998Y-51335000D01*
X144704999Y-51334999D01*
X144704999Y-51251786D01*
X144703103Y-51238773D01*
X144713424Y-51178464D01*
X144757221Y-51135740D01*
X144801069Y-51125500D01*
X145117772Y-51125500D01*
X145175963Y-51144407D01*
X145201054Y-51170974D01*
X145246263Y-51241320D01*
X145284368Y-51285295D01*
X145284375Y-51285301D01*
X145284377Y-51285303D01*
X145393023Y-51379445D01*
X145393036Y-51379454D01*
X145441967Y-51410900D01*
X145441971Y-51410902D01*
X145441977Y-51410906D01*
X145572762Y-51470634D01*
X145628592Y-51487027D01*
X145676030Y-51493847D01*
X145770903Y-51507489D01*
X145770907Y-51507489D01*
X145829095Y-51507489D01*
X145838261Y-51506170D01*
X145843373Y-51505435D01*
X145857463Y-51504428D01*
X146242537Y-51504428D01*
X146256626Y-51505435D01*
X146261738Y-51506170D01*
X146270905Y-51507489D01*
X146270907Y-51507489D01*
X146329097Y-51507489D01*
X146410415Y-51495796D01*
X146471408Y-51487027D01*
X146527238Y-51470634D01*
X146658023Y-51410906D01*
X146706971Y-51379449D01*
X146717243Y-51370549D01*
X146743191Y-51348064D01*
X146815632Y-51285295D01*
X146853737Y-51241320D01*
X146853739Y-51241315D01*
X146853744Y-51241310D01*
X146921589Y-51135740D01*
X146931469Y-51120366D01*
X146955640Y-51067438D01*
X146996147Y-50929483D01*
X147004428Y-50871889D01*
X147004428Y-50250000D01*
X146988867Y-50171769D01*
X146988865Y-50171766D01*
X146988865Y-50171765D01*
X146985187Y-50162885D01*
X146980386Y-50101888D01*
X146985187Y-50087113D01*
X146988863Y-50078236D01*
X146988867Y-50078231D01*
X147000500Y-50019748D01*
X147000500Y-48980252D01*
X146988867Y-48921769D01*
X146944552Y-48855448D01*
X146931086Y-48846450D01*
X146878233Y-48811134D01*
X146878231Y-48811133D01*
X146878228Y-48811132D01*
X146878227Y-48811132D01*
X146819758Y-48799501D01*
X146819748Y-48799500D01*
X145280252Y-48799500D01*
X145280251Y-48799500D01*
X145280241Y-48799501D01*
X145221772Y-48811132D01*
X145221766Y-48811134D01*
X145155451Y-48855445D01*
X145155445Y-48855451D01*
X145111134Y-48921766D01*
X145111132Y-48921772D01*
X145099501Y-48980241D01*
X145099500Y-48980253D01*
X145099500Y-49105942D01*
X145080593Y-49164133D01*
X145037528Y-49195421D01*
X145038165Y-49196786D01*
X145031143Y-49200060D01*
X145031093Y-49200097D01*
X145031015Y-49200119D01*
X145030317Y-49200445D01*
X145030315Y-49200446D01*
X144998474Y-49222740D01*
X144991204Y-49227371D01*
X144957544Y-49246805D01*
X144932568Y-49276570D01*
X144926735Y-49282936D01*
X144558835Y-49650836D01*
X144504318Y-49678613D01*
X144459602Y-49675419D01*
X144456393Y-49674427D01*
X144388260Y-49664500D01*
X142971740Y-49664500D01*
X142937673Y-49669463D01*
X142903604Y-49674427D01*
X142798518Y-49725801D01*
X142715801Y-49808518D01*
X142664427Y-49913604D01*
X142664427Y-49913607D01*
X142659870Y-49944887D01*
X142657725Y-49959607D01*
X142630625Y-50014464D01*
X142576456Y-50042915D01*
X142515910Y-50034093D01*
X142489755Y-50015337D01*
X139882360Y-47407942D01*
X139876526Y-47401574D01*
X139851548Y-47371806D01*
X139817887Y-47352372D01*
X139810604Y-47347732D01*
X139778777Y-47325446D01*
X139778771Y-47325443D01*
X139777316Y-47325054D01*
X139753440Y-47315164D01*
X139752137Y-47314411D01*
X139713871Y-47307664D01*
X139705442Y-47305795D01*
X139680540Y-47299123D01*
X139667899Y-47295736D01*
X139667898Y-47295736D01*
X139667897Y-47295736D01*
X139629187Y-47299123D01*
X139620558Y-47299500D01*
X139466188Y-47299500D01*
X139407997Y-47280593D01*
X139396184Y-47270504D01*
X139394198Y-47268518D01*
X139394198Y-47268517D01*
X139311483Y-47185802D01*
X139311481Y-47185801D01*
X139206395Y-47134427D01*
X139179139Y-47130456D01*
X139138260Y-47124500D01*
X139138257Y-47124500D01*
X138854500Y-47124500D01*
X138796309Y-47105593D01*
X138760345Y-47056093D01*
X138755500Y-47025500D01*
X138755500Y-44929500D01*
X138774407Y-44871309D01*
X138823907Y-44835345D01*
X138854500Y-44830500D01*
X138959273Y-44830500D01*
X138959273Y-44830499D01*
X138989699Y-44827646D01*
X139117882Y-44782793D01*
X139227150Y-44702150D01*
X139307793Y-44592882D01*
X139352646Y-44464699D01*
X139355499Y-44434273D01*
X139355500Y-44434273D01*
X139355500Y-43825727D01*
X139355499Y-43825725D01*
X139352646Y-43795302D01*
X139345799Y-43775734D01*
X139340109Y-43759474D01*
X139338736Y-43698306D01*
X139363548Y-43656776D01*
X140120535Y-42899789D01*
X140175050Y-42872014D01*
X140235482Y-42881585D01*
X140249319Y-42890135D01*
X140307118Y-42932793D01*
X140435301Y-42977646D01*
X140465725Y-42980499D01*
X140465727Y-42980500D01*
X140465734Y-42980500D01*
X141474273Y-42980500D01*
X141474273Y-42980499D01*
X141504699Y-42977646D01*
X141632882Y-42932793D01*
X141742150Y-42852150D01*
X141822793Y-42742882D01*
X141865161Y-42621802D01*
X141902226Y-42573122D01*
X141958605Y-42555500D01*
X142767891Y-42555500D01*
X142826082Y-42574407D01*
X142861335Y-42621802D01*
X142886207Y-42692883D01*
X142966845Y-42802144D01*
X142966847Y-42802146D01*
X142966850Y-42802150D01*
X142966853Y-42802152D01*
X142966855Y-42802154D01*
X143076116Y-42882792D01*
X143076117Y-42882792D01*
X143076118Y-42882793D01*
X143204301Y-42927646D01*
X143234725Y-42930499D01*
X143234727Y-42930500D01*
X143234734Y-42930500D01*
X144293273Y-42930500D01*
X144293273Y-42930499D01*
X144323699Y-42927646D01*
X144451882Y-42882793D01*
X144561150Y-42802150D01*
X144641793Y-42692882D01*
X144686646Y-42564699D01*
X144689499Y-42534273D01*
X144689500Y-42534273D01*
X144689500Y-41925727D01*
X144689499Y-41925725D01*
X144688990Y-41920296D01*
X144686646Y-41895301D01*
X144641793Y-41767118D01*
X144579604Y-41682855D01*
X144561154Y-41657855D01*
X144561152Y-41657853D01*
X144561150Y-41657850D01*
X144561146Y-41657847D01*
X144561144Y-41657845D01*
X144451883Y-41577207D01*
X144323703Y-41532355D01*
X144323694Y-41532353D01*
X144293274Y-41529500D01*
X144293266Y-41529500D01*
X143234734Y-41529500D01*
X143234725Y-41529500D01*
X143204305Y-41532353D01*
X143204296Y-41532355D01*
X143076116Y-41577207D01*
X142966855Y-41657845D01*
X142966845Y-41657855D01*
X142886207Y-41767116D01*
X142861335Y-41838198D01*
X142824270Y-41886878D01*
X142767891Y-41904500D01*
X141932361Y-41904500D01*
X141874170Y-41885593D01*
X141838917Y-41838198D01*
X141822793Y-41792118D01*
X141822791Y-41792116D01*
X141822791Y-41792114D01*
X141742154Y-41682855D01*
X141742152Y-41682853D01*
X141742150Y-41682850D01*
X141742146Y-41682847D01*
X141742144Y-41682845D01*
X141632883Y-41602207D01*
X141504703Y-41557355D01*
X141504694Y-41557353D01*
X141474274Y-41554500D01*
X141474266Y-41554500D01*
X140465734Y-41554500D01*
X140465725Y-41554500D01*
X140435305Y-41557353D01*
X140435296Y-41557355D01*
X140307116Y-41602207D01*
X140197855Y-41682845D01*
X140197845Y-41682855D01*
X140117207Y-41792116D01*
X140072355Y-41920296D01*
X140072353Y-41920305D01*
X140069500Y-41950725D01*
X140069500Y-41989165D01*
X140050593Y-42047356D01*
X140040504Y-42059169D01*
X139524004Y-42575669D01*
X139469487Y-42603446D01*
X139409055Y-42593875D01*
X139365790Y-42550610D01*
X139355000Y-42505665D01*
X139355000Y-42330001D01*
X139354999Y-42330000D01*
X138530001Y-42330000D01*
X138530000Y-42330001D01*
X138530000Y-42929998D01*
X138530001Y-42929999D01*
X138930667Y-42929999D01*
X138988858Y-42948906D01*
X139024822Y-42998406D01*
X139024822Y-43059592D01*
X139000671Y-43099003D01*
X138699170Y-43400504D01*
X138644653Y-43428281D01*
X138629166Y-43429500D01*
X137900725Y-43429500D01*
X137870305Y-43432353D01*
X137870296Y-43432355D01*
X137742116Y-43477207D01*
X137632855Y-43557845D01*
X137632845Y-43557855D01*
X137552207Y-43667116D01*
X137507355Y-43795296D01*
X137507353Y-43795305D01*
X137504500Y-43825725D01*
X137504500Y-44434274D01*
X137507353Y-44464694D01*
X137507355Y-44464703D01*
X137552207Y-44592883D01*
X137632845Y-44702144D01*
X137632847Y-44702146D01*
X137632850Y-44702150D01*
X137632853Y-44702152D01*
X137632855Y-44702154D01*
X137742116Y-44782792D01*
X137742117Y-44782792D01*
X137742118Y-44782793D01*
X137870301Y-44827646D01*
X137900725Y-44830499D01*
X137900727Y-44830500D01*
X137900734Y-44830500D01*
X138005500Y-44830500D01*
X138063691Y-44849407D01*
X138099655Y-44898907D01*
X138104500Y-44929500D01*
X138104500Y-47025500D01*
X138085593Y-47083691D01*
X138036093Y-47119655D01*
X138005500Y-47124500D01*
X137721740Y-47124500D01*
X137687673Y-47129463D01*
X137653604Y-47134427D01*
X137548518Y-47185801D01*
X137465800Y-47268519D01*
X137465799Y-47268521D01*
X137437528Y-47326350D01*
X137398091Y-47368604D01*
X137392546Y-47371805D01*
X137367569Y-47401571D01*
X137361736Y-47407936D01*
X136942946Y-47826727D01*
X136936580Y-47832560D01*
X136906807Y-47857543D01*
X136906805Y-47857545D01*
X136887371Y-47891206D01*
X136882740Y-47898476D01*
X136860446Y-47930317D01*
X136860446Y-47930318D01*
X136860442Y-47930325D01*
X136860051Y-47931787D01*
X136850170Y-47955641D01*
X136849414Y-47956949D01*
X136849410Y-47956961D01*
X136842662Y-47995224D01*
X136840794Y-48003650D01*
X136830736Y-48041188D01*
X136830736Y-48041195D01*
X136834123Y-48079905D01*
X136834500Y-48088534D01*
X136834500Y-52052861D01*
X136834123Y-52061490D01*
X136830736Y-52100203D01*
X118110000Y-52100203D01*
X118110000Y-42534203D01*
X137505001Y-42534203D01*
X137507850Y-42564600D01*
X137507850Y-42564602D01*
X137552654Y-42692647D01*
X137633207Y-42801790D01*
X137633209Y-42801792D01*
X137742352Y-42882345D01*
X137870398Y-42927149D01*
X137900789Y-42929999D01*
X138329998Y-42929999D01*
X138330000Y-42929998D01*
X138330000Y-42330001D01*
X138329999Y-42330000D01*
X137505002Y-42330000D01*
X137505001Y-42330001D01*
X137505001Y-42534203D01*
X118110000Y-42534203D01*
X118110000Y-42129999D01*
X137505000Y-42129999D01*
X137505001Y-42130000D01*
X138329999Y-42130000D01*
X138330000Y-42129999D01*
X138530000Y-42129999D01*
X138530001Y-42130000D01*
X139354998Y-42130000D01*
X139354999Y-42129999D01*
X139354999Y-41925796D01*
X139352149Y-41895399D01*
X139352149Y-41895397D01*
X139307345Y-41767352D01*
X139226792Y-41658209D01*
X139226790Y-41658207D01*
X139117647Y-41577654D01*
X138989601Y-41532850D01*
X138959211Y-41530000D01*
X138530001Y-41530000D01*
X138530000Y-41530001D01*
X138530000Y-42129999D01*
X138330000Y-42129999D01*
X138330000Y-41530001D01*
X138329999Y-41530000D01*
X137900796Y-41530000D01*
X137870399Y-41532850D01*
X137870397Y-41532850D01*
X137742352Y-41577654D01*
X137633209Y-41658207D01*
X137633207Y-41658209D01*
X137552654Y-41767352D01*
X137507850Y-41895398D01*
X137505000Y-41925788D01*
X137505000Y-42129999D01*
X118110000Y-42129999D01*
X118110000Y-38224500D01*
X118128907Y-38166309D01*
X118178407Y-38130345D01*
X118209000Y-38125500D01*
X156085500Y-38125500D01*
X156143691Y-38144407D01*
G37*
%TD.AperFunction*%
%TD*%
M02*
