M48
; DRILL file {KiCad (6.0.1)} date za 05 feb 2022 13:29:05 CET
; FORMAT={-:-/ absolute / inch / decimal}
; #@! TF.CreationDate,2022-02-05T13:29:05+01:00
; #@! TF.GenerationSoftware,Kicad,Pcbnew,(6.0.1)
; #@! TF.FileFunction,Plated,1,2,PTH
FMAT,2
INCH
; #@! TA.AperFunction,Plated,PTH,ViaDrill
T1C0.0157
; #@! TA.AperFunction,Plated,PTH,ComponentDrill
T2C0.0197
; #@! TA.AperFunction,Plated,PTH,ComponentDrill
T3C0.0300
; #@! TA.AperFunction,Plated,PTH,ComponentDrill
T4C0.0315
; #@! TA.AperFunction,Plated,PTH,ComponentDrill
T5C0.0394
; #@! TA.AperFunction,Plated,PTH,ComponentDrill
T6C0.1260
%
G90
G05
T1
X2.7Y-3.1
X2.75Y-3.05
X2.95Y-2.45
X3.0Y-3.1
X3.05Y-2.25
X3.05Y-3.05
X3.2Y-2.25
X3.3Y-2.15
X3.4Y-2.2
X3.5Y-2.0
X3.6Y-2.25
X3.65Y-2.35
X3.7Y-2.5
X3.75Y-2.15
X3.8Y-2.6
X3.9Y-2.15
X3.9Y-2.7
X4.2Y-2.1
X4.2Y-2.2
X4.3Y-2.4
X4.35Y-3.05
X4.4Y-2.5538
X4.4Y-3.1
X4.5Y-2.6538
X4.6Y-2.0
X4.65Y-3.05
X4.7Y-3.1
T2
X2.411Y-1.9
X2.411Y-5.2
X2.4387Y-1.8332
X2.4387Y-1.9668
X2.4387Y-5.1332
X2.4387Y-5.2668
X2.5055Y-1.8055
X2.5055Y-1.9945
X2.5055Y-5.1055
X2.5055Y-5.2945
X2.5723Y-1.8332
X2.5723Y-1.9668
X2.5723Y-5.1332
X2.5723Y-5.2668
X2.6Y-1.9
X2.6Y-5.2
X4.8055Y-1.9
X4.8055Y-5.2
X4.8332Y-1.8332
X4.8332Y-1.9668
X4.8332Y-5.1332
X4.8332Y-5.2668
X4.9Y-1.8055
X4.9Y-1.9945
X4.9Y-5.1055
X4.9Y-5.2945
X4.9668Y-1.8332
X4.9668Y-1.9668
X4.9668Y-5.1332
X4.9668Y-5.2668
X4.9945Y-1.9
X4.9945Y-5.2
T3
X3.3Y-3.0
X3.4Y-3.0
X3.5Y-3.0
X3.6Y-3.0
X3.7Y-3.0
X3.8Y-3.0
X3.9Y-3.0
X4.0Y-3.0
X4.1Y-3.0
T4
X2.8Y-1.9
X3.2Y-1.9
X3.5Y-1.9
X3.9Y-1.9
X4.2Y-1.9
X4.6Y-1.9
T5
X2.4Y-2.4
X2.4Y-2.5
X2.4Y-2.6
X2.4Y-2.7
X2.4Y-2.8
X2.4Y-2.9
X2.4Y-3.3
X2.4Y-3.4
X2.4Y-3.5
X2.4Y-3.6
X2.4Y-3.7
X2.4Y-3.8
X2.4Y-4.2
X2.4Y-4.3
X2.4Y-4.4
X2.4Y-4.5
X2.4Y-4.6
X2.4Y-4.7
X2.5Y-2.4
X2.5Y-2.5
X2.5Y-2.6
X2.5Y-2.7
X2.5Y-2.8
X2.5Y-2.9
X2.5Y-3.3
X2.5Y-3.4
X2.5Y-3.5
X2.5Y-3.6
X2.5Y-3.7
X2.5Y-3.8
X2.5Y-4.2
X2.5Y-4.3
X2.5Y-4.4
X2.5Y-4.5
X2.5Y-4.6
X2.5Y-4.7
X2.95Y-2.1
X3.05Y-2.1
X3.65Y-2.1
X3.75Y-2.1
X4.3Y-2.1
X4.3Y-2.2
X4.4Y-2.1
X4.4Y-2.2
X4.5Y-2.1
X4.5Y-2.2
X4.9Y-2.4
X4.9Y-2.5
X4.9Y-2.6
X4.9Y-2.7
X4.9Y-2.8
X4.9Y-2.9
X4.9Y-3.3
X4.9Y-3.4
X4.9Y-3.5
X4.9Y-3.6
X4.9Y-3.7
X4.9Y-3.8
X4.9Y-4.2
X4.9Y-4.3
X4.9Y-4.4
X4.9Y-4.5
X4.9Y-4.6
X4.9Y-4.7
X5.0Y-2.4
X5.0Y-2.5
X5.0Y-2.6
X5.0Y-2.7
X5.0Y-2.8
X5.0Y-2.9
X5.0Y-3.3
X5.0Y-3.4
X5.0Y-3.5
X5.0Y-3.6
X5.0Y-3.7
X5.0Y-3.8
X5.0Y-4.2
X5.0Y-4.3
X5.0Y-4.4
X5.0Y-4.5
X5.0Y-4.6
X5.0Y-4.7
T6
X2.5055Y-1.9
X2.5055Y-5.2
X4.9Y-1.9
X4.9Y-5.2
T0
M30
