%TF.GenerationSoftware,KiCad,Pcbnew,(6.0.1)*%
%TF.CreationDate,2022-02-05T13:29:02+01:00*%
%TF.ProjectId,modules_board,6d6f6475-6c65-4735-9f62-6f6172642e6b,rev?*%
%TF.SameCoordinates,Original*%
%TF.FileFunction,Copper,L2,Bot*%
%TF.FilePolarity,Positive*%
%FSLAX46Y46*%
G04 Gerber Fmt 4.6, Leading zero omitted, Abs format (unit mm)*
G04 Created by KiCad (PCBNEW (6.0.1)) date 2022-02-05 13:29:02*
%MOMM*%
%LPD*%
G01*
G04 APERTURE LIST*
%TA.AperFunction,ComponentPad*%
%ADD10R,1.700000X1.700000*%
%TD*%
%TA.AperFunction,ComponentPad*%
%ADD11O,1.700000X1.700000*%
%TD*%
%TA.AperFunction,ComponentPad*%
%ADD12C,0.800000*%
%TD*%
%TA.AperFunction,ComponentPad*%
%ADD13C,6.400000*%
%TD*%
%TA.AperFunction,ComponentPad*%
%ADD14C,1.600000*%
%TD*%
%TA.AperFunction,ComponentPad*%
%ADD15O,1.600000X1.600000*%
%TD*%
%TA.AperFunction,ComponentPad*%
%ADD16C,1.524000*%
%TD*%
%TA.AperFunction,ViaPad*%
%ADD17C,0.800000*%
%TD*%
%TA.AperFunction,Conductor*%
%ADD18C,0.250000*%
%TD*%
G04 APERTURE END LIST*
D10*
%TO.P,J1,1,Pin_1*%
%TO.N,VCC*%
X63500000Y-119380000D03*
D11*
%TO.P,J1,2,Pin_2*%
X60960000Y-119380000D03*
%TO.P,J1,3,Pin_3*%
%TO.N,GND*%
X63500000Y-116840000D03*
%TO.P,J1,4,Pin_4*%
X60960000Y-116840000D03*
%TO.P,J1,5,Pin_5*%
%TO.N,PMOD_I2C_SDA*%
X63500000Y-114300000D03*
%TO.P,J1,6,Pin_6*%
%TO.N,PMOD_I2C_GPIO4*%
X60960000Y-114300000D03*
%TO.P,J1,7,Pin_7*%
%TO.N,PMOD_I2C_SCL*%
X63500000Y-111760000D03*
%TO.P,J1,8,Pin_8*%
%TO.N,PMOD_I2C_GPIO3*%
X60960000Y-111760000D03*
%TO.P,J1,9,Pin_9*%
%TO.N,PMOD_I2C_RESET*%
X63500000Y-109220000D03*
%TO.P,J1,10,Pin_10*%
%TO.N,PMOD_I2C_GPIO2*%
X60960000Y-109220000D03*
%TO.P,J1,11,Pin_11*%
%TO.N,PMOD_I2C_INT*%
X63500000Y-106680000D03*
%TO.P,J1,12,Pin_12*%
%TO.N,PMOD_I2C_GPIO1*%
X60960000Y-106680000D03*
%TD*%
D10*
%TO.P,J2,1,Pin_1*%
%TO.N,VCC*%
X63500000Y-96520000D03*
D11*
%TO.P,J2,2,Pin_2*%
X60960000Y-96520000D03*
%TO.P,J2,3,Pin_3*%
%TO.N,GND*%
X63500000Y-93980000D03*
%TO.P,J2,4,Pin_4*%
X60960000Y-93980000D03*
%TO.P,J2,5,Pin_5*%
%TO.N,PMOD_UART_RTS*%
X63500000Y-91440000D03*
%TO.P,J2,6,Pin_6*%
%TO.N,PMOD_UART_GPIO4*%
X60960000Y-91440000D03*
%TO.P,J2,7,Pin_7*%
%TO.N,PMOD_UART_RXD*%
X63500000Y-88900000D03*
%TO.P,J2,8,Pin_8*%
%TO.N,PMOD_UART_GPIO3*%
X60960000Y-88900000D03*
%TO.P,J2,9,Pin_9*%
%TO.N,PMOD_UART_TXD*%
X63500000Y-86360000D03*
%TO.P,J2,10,Pin_10*%
%TO.N,PMOD_UART_RESET*%
X60960000Y-86360000D03*
%TO.P,J2,11,Pin_11*%
%TO.N,PMOD_UART_CTS*%
X63500000Y-83820000D03*
%TO.P,J2,12,Pin_12*%
%TO.N,PMOD_UART_INT*%
X60960000Y-83820000D03*
%TD*%
D10*
%TO.P,J3,1,Pin_1*%
%TO.N,VCC*%
X63500000Y-73660000D03*
D11*
%TO.P,J3,2,Pin_2*%
X60960000Y-73660000D03*
%TO.P,J3,3,Pin_3*%
%TO.N,GND*%
X63500000Y-71120000D03*
%TO.P,J3,4,Pin_4*%
X60960000Y-71120000D03*
%TO.P,J3,5,Pin_5*%
%TO.N,PMOD_SPI_SCK*%
X63500000Y-68580000D03*
%TO.P,J3,6,Pin_6*%
%TO.N,PMOD_SPI_CS3*%
X60960000Y-68580000D03*
%TO.P,J3,7,Pin_7*%
%TO.N,PMOD_SPI_MISO*%
X63500000Y-66040000D03*
%TO.P,J3,8,Pin_8*%
%TO.N,PMOD_SPI_CS2*%
X60960000Y-66040000D03*
%TO.P,J3,9,Pin_9*%
%TO.N,PMOD_SPI_MOSI*%
X63500000Y-63500000D03*
%TO.P,J3,10,Pin_10*%
%TO.N,PMOD_SPI_RESET*%
X60960000Y-63500000D03*
%TO.P,J3,11,Pin_11*%
%TO.N,PMOD_SPI_CS*%
X63500000Y-60960000D03*
%TO.P,J3,12,Pin_12*%
%TO.N,PMOD_SPI_INT*%
X60960000Y-60960000D03*
%TD*%
D10*
%TO.P,J7,1,Pin_1*%
%TO.N,VCC*%
X124460000Y-119380000D03*
D11*
%TO.P,J7,2,Pin_2*%
X127000000Y-119380000D03*
%TO.P,J7,3,Pin_3*%
%TO.N,GND*%
X124460000Y-116840000D03*
%TO.P,J7,4,Pin_4*%
X127000000Y-116840000D03*
%TO.P,J7,5,Pin_5*%
%TO.N,PMOD_I2C_SDA*%
X124460000Y-114300000D03*
%TO.P,J7,6,Pin_6*%
%TO.N,PMOD_I2C_GPIO4*%
X127000000Y-114300000D03*
%TO.P,J7,7,Pin_7*%
%TO.N,PMOD_I2C_SCL*%
X124460000Y-111760000D03*
%TO.P,J7,8,Pin_8*%
%TO.N,PMOD_I2C_GPIO3*%
X127000000Y-111760000D03*
%TO.P,J7,9,Pin_9*%
%TO.N,PMOD_I2C_RESET*%
X124460000Y-109220000D03*
%TO.P,J7,10,Pin_10*%
%TO.N,PMOD_I2C_GPIO2*%
X127000000Y-109220000D03*
%TO.P,J7,11,Pin_11*%
%TO.N,PMOD_I2C_INT*%
X124460000Y-106680000D03*
%TO.P,J7,12,Pin_12*%
%TO.N,PMOD_I2C_GPIO1*%
X127000000Y-106680000D03*
%TD*%
D10*
%TO.P,J8,1,Pin_1*%
%TO.N,VCC*%
X124460000Y-96520000D03*
D11*
%TO.P,J8,2,Pin_2*%
X127000000Y-96520000D03*
%TO.P,J8,3,Pin_3*%
%TO.N,GND*%
X124460000Y-93980000D03*
%TO.P,J8,4,Pin_4*%
X127000000Y-93980000D03*
%TO.P,J8,5,Pin_5*%
%TO.N,PMOD_UART_RTS*%
X124460000Y-91440000D03*
%TO.P,J8,6,Pin_6*%
%TO.N,PMOD_UART_GPIO4*%
X127000000Y-91440000D03*
%TO.P,J8,7,Pin_7*%
%TO.N,PMOD_UART_RXD*%
X124460000Y-88900000D03*
%TO.P,J8,8,Pin_8*%
%TO.N,PMOD_UART_GPIO3*%
X127000000Y-88900000D03*
%TO.P,J8,9,Pin_9*%
%TO.N,PMOD_UART_TXD*%
X124460000Y-86360000D03*
%TO.P,J8,10,Pin_10*%
%TO.N,PMOD_UART_RESET*%
X127000000Y-86360000D03*
%TO.P,J8,11,Pin_11*%
%TO.N,PMOD_UART_CTS*%
X124460000Y-83820000D03*
%TO.P,J8,12,Pin_12*%
%TO.N,PMOD_UART_INT*%
X127000000Y-83820000D03*
%TD*%
D10*
%TO.P,J9,1,Pin_1*%
%TO.N,VCC*%
X124460000Y-73660000D03*
D11*
%TO.P,J9,2,Pin_2*%
X127000000Y-73660000D03*
%TO.P,J9,3,Pin_3*%
%TO.N,GND*%
X124460000Y-71120000D03*
%TO.P,J9,4,Pin_4*%
X127000000Y-71120000D03*
%TO.P,J9,5,Pin_5*%
%TO.N,PMOD_SPI_SCK*%
X124460000Y-68580000D03*
%TO.P,J9,6,Pin_6*%
%TO.N,PMOD_SPI_CS3*%
X127000000Y-68580000D03*
%TO.P,J9,7,Pin_7*%
%TO.N,PMOD_SPI_MISO*%
X124460000Y-66040000D03*
%TO.P,J9,8,Pin_8*%
%TO.N,PMOD_SPI_CS2*%
X127000000Y-66040000D03*
%TO.P,J9,9,Pin_9*%
%TO.N,PMOD_SPI_MOSI*%
X124460000Y-63500000D03*
%TO.P,J9,10,Pin_10*%
%TO.N,PMOD_SPI_RESET*%
X127000000Y-63500000D03*
%TO.P,J9,11,Pin_11*%
%TO.N,PMOD_SPI_CS*%
X124460000Y-60960000D03*
%TO.P,J9,12,Pin_12*%
%TO.N,PMOD_SPI_INT*%
X127000000Y-60960000D03*
%TD*%
D12*
%TO.P,H1,1*%
%TO.N,N/C*%
X66040000Y-48260000D03*
X61942944Y-49957056D03*
X63640000Y-45860000D03*
X65337056Y-46562944D03*
X63640000Y-50660000D03*
X61240000Y-48260000D03*
X65337056Y-49957056D03*
D13*
X63640000Y-48260000D03*
D12*
X61942944Y-46562944D03*
%TD*%
D13*
%TO.P,H2,1*%
%TO.N,N/C*%
X63640000Y-132080000D03*
D12*
X63640000Y-134480000D03*
X66040000Y-132080000D03*
X65337056Y-133777056D03*
X61240000Y-132080000D03*
X61942944Y-130382944D03*
X65337056Y-130382944D03*
X63640000Y-129680000D03*
X61942944Y-133777056D03*
%TD*%
%TO.P,H3,1*%
%TO.N,N/C*%
X126860000Y-48260000D03*
D13*
X124460000Y-48260000D03*
D12*
X124460000Y-45860000D03*
X122060000Y-48260000D03*
X126157056Y-46562944D03*
X124460000Y-50660000D03*
X122762944Y-49957056D03*
X122762944Y-46562944D03*
X126157056Y-49957056D03*
%TD*%
%TO.P,H4,1*%
%TO.N,N/C*%
X122762944Y-133777056D03*
X122060000Y-132080000D03*
X122762944Y-130382944D03*
X126157056Y-130382944D03*
X126860000Y-132080000D03*
X124460000Y-134480000D03*
D13*
X124460000Y-132080000D03*
D12*
X126157056Y-133777056D03*
X124460000Y-129680000D03*
%TD*%
D14*
%TO.P,R2,1*%
%TO.N,VCC*%
X88900000Y-48260000D03*
D15*
%TO.P,R2,2*%
%TO.N,INT*%
X99060000Y-48260000D03*
%TD*%
D14*
%TO.P,R1,1*%
%TO.N,VCC*%
X71120000Y-48260000D03*
D15*
%TO.P,R1,2*%
%TO.N,RESET*%
X81280000Y-48260000D03*
%TD*%
D14*
%TO.P,R3,1*%
%TO.N,GND*%
X106680000Y-48260000D03*
D15*
%TO.P,R3,2*%
%TO.N,STB*%
X116840000Y-48260000D03*
%TD*%
D10*
%TO.P,J6,1,Pin_1*%
%TO.N,PMOD_SPI_INT*%
X92710000Y-53340000D03*
D11*
%TO.P,J6,2,Pin_2*%
%TO.N,INT*%
X95250000Y-53340000D03*
%TD*%
D16*
%TO.P,U1,1,INT*%
%TO.N,INT*%
X83820000Y-76200000D03*
%TO.P,U1,2,~{CS}*%
%TO.N,CS*%
X86360000Y-76200000D03*
%TO.P,U1,3,STB*%
%TO.N,STB*%
X88900000Y-76200000D03*
%TO.P,U1,4,~{RST}*%
%TO.N,RESET*%
X91440000Y-76200000D03*
%TO.P,U1,5,MOSI*%
%TO.N,PMOD_SPI_MOSI*%
X93980000Y-76200000D03*
%TO.P,U1,6,MISO*%
%TO.N,PMOD_SPI_MISO*%
X96520000Y-76200000D03*
%TO.P,U1,7,SCK*%
%TO.N,PMOD_SPI_SCK*%
X99060000Y-76200000D03*
%TO.P,U1,8,VCC*%
%TO.N,VCC*%
X101600000Y-76200000D03*
%TO.P,U1,9,GND*%
%TO.N,GND*%
X104140000Y-76200000D03*
%TD*%
D10*
%TO.P,J4,1,Pin_1*%
%TO.N,PMOD_SPI_CS*%
X109220000Y-55880000D03*
D11*
%TO.P,J4,2,Pin_2*%
%TO.N,CS*%
X109220000Y-53340000D03*
%TO.P,J4,3,Pin_3*%
%TO.N,PMOD_SPI_CS2*%
X111760000Y-55880000D03*
%TO.P,J4,4,Pin_4*%
%TO.N,CS*%
X111760000Y-53340000D03*
%TO.P,J4,5,Pin_5*%
%TO.N,PMOD_SPI_CS3*%
X114300000Y-55880000D03*
%TO.P,J4,6,Pin_6*%
%TO.N,CS*%
X114300000Y-53340000D03*
%TD*%
D10*
%TO.P,J5,1,Pin_1*%
%TO.N,PMOD_SPI_RESET*%
X74930000Y-53340000D03*
D11*
%TO.P,J5,2,Pin_2*%
%TO.N,RESET*%
X77470000Y-53340000D03*
%TD*%
D17*
%TO.N,GND*%
X111760000Y-78740000D03*
X76200000Y-78740000D03*
X68580000Y-78740000D03*
X110490000Y-77470000D03*
X77470000Y-77470000D03*
X119380000Y-78740000D03*
X69850000Y-77470000D03*
X118110000Y-77470000D03*
%TO.N,PMOD_SPI_INT*%
X92710000Y-59690000D03*
%TO.N,PMOD_SPI_CS*%
X109220000Y-60960000D03*
%TO.N,PMOD_SPI_RESET*%
X74930000Y-62230000D03*
%TO.N,PMOD_SPI_MOSI*%
X93980000Y-63500000D03*
%TO.N,PMOD_SPI_CS2*%
X111760000Y-64865489D03*
%TO.N,PMOD_SPI_MISO*%
X96520000Y-66040000D03*
%TO.N,PMOD_SPI_CS3*%
X114300000Y-67405489D03*
%TO.N,PMOD_SPI_SCK*%
X99060000Y-68580000D03*
%TO.N,CS*%
X106680000Y-55880000D03*
X106680000Y-53340000D03*
X86360000Y-55880000D03*
%TO.N,RESET*%
X77470000Y-57150000D03*
X91440000Y-57150000D03*
X81280000Y-57150000D03*
%TO.N,INT*%
X99060000Y-54610000D03*
X83820000Y-54610000D03*
X95250000Y-54610000D03*
%TO.N,STB*%
X116840000Y-50800000D03*
X88900000Y-50800000D03*
%TD*%
D18*
%TO.N,GND*%
X77470000Y-77470000D02*
X76200000Y-78740000D01*
X118110000Y-77470000D02*
X119380000Y-78740000D01*
X69850000Y-77470000D02*
X68580000Y-78740000D01*
X111760000Y-78740000D02*
X119380000Y-78740000D01*
X111760000Y-78740000D02*
X110490000Y-77470000D01*
X110490000Y-77470000D02*
X118110000Y-77470000D01*
X69850000Y-77470000D02*
X77470000Y-77470000D01*
X76200000Y-78740000D02*
X68580000Y-78740000D01*
%TO.N,PMOD_SPI_INT*%
X92710000Y-53340000D02*
X92710000Y-59690000D01*
%TO.N,PMOD_SPI_CS*%
X109220000Y-55880000D02*
X109220000Y-60960000D01*
%TO.N,PMOD_SPI_RESET*%
X74930000Y-53340000D02*
X74930000Y-62230000D01*
%TO.N,PMOD_SPI_MOSI*%
X93980000Y-76200000D02*
X93980000Y-63500000D01*
%TO.N,PMOD_SPI_CS2*%
X111760000Y-64770000D02*
X111664511Y-64865489D01*
X111760000Y-55880000D02*
X111760000Y-64770000D01*
%TO.N,PMOD_SPI_MISO*%
X96520000Y-76200000D02*
X96520000Y-66040000D01*
%TO.N,PMOD_SPI_CS3*%
X114300000Y-67310000D02*
X114204511Y-67405489D01*
X114300000Y-55880000D02*
X114300000Y-67310000D01*
%TO.N,PMOD_SPI_SCK*%
X99060000Y-76200000D02*
X99060000Y-68580000D01*
%TO.N,CS*%
X106680000Y-55880000D02*
X106680000Y-53340000D01*
X86360000Y-76200000D02*
X86360000Y-55880000D01*
%TO.N,RESET*%
X77470000Y-57150000D02*
X77470000Y-53340000D01*
X81280000Y-48260000D02*
X81280000Y-57150000D01*
X91440000Y-76200000D02*
X91440000Y-57150000D01*
%TO.N,INT*%
X99060000Y-48260000D02*
X99060000Y-54610000D01*
X95250000Y-54610000D02*
X95250000Y-53340000D01*
X83820000Y-76200000D02*
X83820000Y-54610000D01*
%TO.N,STB*%
X116840000Y-50800000D02*
X116840000Y-48260000D01*
X88900000Y-76200000D02*
X88900000Y-50800000D01*
%TD*%
%TA.AperFunction,Conductor*%
%TO.N,VCC*%
G36*
X129482121Y-43708002D02*
G01*
X129528614Y-43761658D01*
X129540000Y-43814000D01*
X129540000Y-136526000D01*
X129519998Y-136594121D01*
X129466342Y-136640614D01*
X129414000Y-136652000D01*
X58546000Y-136652000D01*
X58477879Y-136631998D01*
X58431386Y-136578342D01*
X58420000Y-136526000D01*
X58420000Y-132080000D01*
X59926411Y-132080000D01*
X59946754Y-132468176D01*
X60007562Y-132852099D01*
X60108167Y-133227562D01*
X60247468Y-133590453D01*
X60423938Y-133936794D01*
X60635643Y-134262793D01*
X60880266Y-134564876D01*
X61155124Y-134839734D01*
X61457207Y-135084357D01*
X61783205Y-135296062D01*
X61786139Y-135297557D01*
X61786146Y-135297561D01*
X62126607Y-135471034D01*
X62129547Y-135472532D01*
X62492438Y-135611833D01*
X62867901Y-135712438D01*
X63071793Y-135744732D01*
X63248576Y-135772732D01*
X63248584Y-135772733D01*
X63251824Y-135773246D01*
X63640000Y-135793589D01*
X64028176Y-135773246D01*
X64031416Y-135772733D01*
X64031424Y-135772732D01*
X64208207Y-135744732D01*
X64412099Y-135712438D01*
X64787562Y-135611833D01*
X65150453Y-135472532D01*
X65153393Y-135471034D01*
X65493854Y-135297561D01*
X65493861Y-135297557D01*
X65496795Y-135296062D01*
X65822793Y-135084357D01*
X66124876Y-134839734D01*
X66344610Y-134620000D01*
X73660000Y-134620000D01*
X114300000Y-134620000D01*
X114300000Y-132080000D01*
X120746411Y-132080000D01*
X120766754Y-132468176D01*
X120827562Y-132852099D01*
X120928167Y-133227562D01*
X121067468Y-133590453D01*
X121243938Y-133936794D01*
X121455643Y-134262793D01*
X121700266Y-134564876D01*
X121975124Y-134839734D01*
X122277207Y-135084357D01*
X122603205Y-135296062D01*
X122606139Y-135297557D01*
X122606146Y-135297561D01*
X122946607Y-135471034D01*
X122949547Y-135472532D01*
X123312438Y-135611833D01*
X123687901Y-135712438D01*
X123891793Y-135744732D01*
X124068576Y-135772732D01*
X124068584Y-135772733D01*
X124071824Y-135773246D01*
X124460000Y-135793589D01*
X124848176Y-135773246D01*
X124851416Y-135772733D01*
X124851424Y-135772732D01*
X125028207Y-135744732D01*
X125232099Y-135712438D01*
X125607562Y-135611833D01*
X125970453Y-135472532D01*
X125973393Y-135471034D01*
X126313854Y-135297561D01*
X126313861Y-135297557D01*
X126316795Y-135296062D01*
X126642793Y-135084357D01*
X126944876Y-134839734D01*
X127219734Y-134564876D01*
X127464357Y-134262793D01*
X127676062Y-133936794D01*
X127852532Y-133590453D01*
X127991833Y-133227562D01*
X128092438Y-132852099D01*
X128153246Y-132468176D01*
X128173589Y-132080000D01*
X128153246Y-131691824D01*
X128092438Y-131307901D01*
X127991833Y-130932438D01*
X127852532Y-130569547D01*
X127676062Y-130223206D01*
X127464357Y-129897207D01*
X127219734Y-129595124D01*
X126944876Y-129320266D01*
X126642793Y-129075643D01*
X126316795Y-128863938D01*
X126313861Y-128862443D01*
X126313854Y-128862439D01*
X125973393Y-128688966D01*
X125970453Y-128687468D01*
X125607562Y-128548167D01*
X125232099Y-128447562D01*
X125028207Y-128415268D01*
X124851424Y-128387268D01*
X124851416Y-128387267D01*
X124848176Y-128386754D01*
X124460000Y-128366411D01*
X124071824Y-128386754D01*
X124068584Y-128387267D01*
X124068576Y-128387268D01*
X123891793Y-128415268D01*
X123687901Y-128447562D01*
X123312438Y-128548167D01*
X122949547Y-128687468D01*
X122946607Y-128688966D01*
X122606147Y-128862439D01*
X122606140Y-128862443D01*
X122603206Y-128863938D01*
X122277207Y-129075643D01*
X121975124Y-129320266D01*
X121700266Y-129595124D01*
X121455643Y-129897207D01*
X121243938Y-130223206D01*
X121067468Y-130569547D01*
X120928167Y-130932438D01*
X120827562Y-131307901D01*
X120766754Y-131691824D01*
X120746411Y-132080000D01*
X114300000Y-132080000D01*
X114300000Y-120274669D01*
X123102001Y-120274669D01*
X123102371Y-120281490D01*
X123107895Y-120332352D01*
X123111521Y-120347604D01*
X123156676Y-120468054D01*
X123165214Y-120483649D01*
X123241715Y-120585724D01*
X123254276Y-120598285D01*
X123356351Y-120674786D01*
X123371946Y-120683324D01*
X123492394Y-120728478D01*
X123507649Y-120732105D01*
X123558514Y-120737631D01*
X123565328Y-120738000D01*
X124187885Y-120738000D01*
X124203124Y-120733525D01*
X124204329Y-120732135D01*
X124206000Y-120724452D01*
X124206000Y-120719884D01*
X124714000Y-120719884D01*
X124718475Y-120735123D01*
X124719865Y-120736328D01*
X124727548Y-120737999D01*
X125354669Y-120737999D01*
X125361490Y-120737629D01*
X125412352Y-120732105D01*
X125427604Y-120728479D01*
X125548054Y-120683324D01*
X125563649Y-120674786D01*
X125665724Y-120598285D01*
X125678285Y-120585724D01*
X125754786Y-120483649D01*
X125763325Y-120468052D01*
X125804425Y-120358418D01*
X125847066Y-120301653D01*
X125913628Y-120276953D01*
X125982977Y-120292160D01*
X126017645Y-120320150D01*
X126043219Y-120349674D01*
X126050580Y-120356883D01*
X126214434Y-120492916D01*
X126222881Y-120498831D01*
X126406756Y-120606279D01*
X126416042Y-120610729D01*
X126615001Y-120686703D01*
X126624899Y-120689579D01*
X126728250Y-120710606D01*
X126742299Y-120709410D01*
X126746000Y-120699065D01*
X126746000Y-120698517D01*
X127254000Y-120698517D01*
X127258064Y-120712359D01*
X127271478Y-120714393D01*
X127278184Y-120713534D01*
X127288262Y-120711392D01*
X127492255Y-120650191D01*
X127501842Y-120646433D01*
X127693095Y-120552739D01*
X127701945Y-120547464D01*
X127875328Y-120423792D01*
X127883200Y-120417139D01*
X128034052Y-120266812D01*
X128040730Y-120258965D01*
X128165003Y-120086020D01*
X128170313Y-120077183D01*
X128264670Y-119886267D01*
X128268469Y-119876672D01*
X128330377Y-119672910D01*
X128332555Y-119662837D01*
X128333986Y-119651962D01*
X128331775Y-119637778D01*
X128318617Y-119634000D01*
X127272115Y-119634000D01*
X127256876Y-119638475D01*
X127255671Y-119639865D01*
X127254000Y-119647548D01*
X127254000Y-120698517D01*
X126746000Y-120698517D01*
X126746000Y-119652115D01*
X126741525Y-119636876D01*
X126740135Y-119635671D01*
X126732452Y-119634000D01*
X124732115Y-119634000D01*
X124716876Y-119638475D01*
X124715671Y-119639865D01*
X124714000Y-119647548D01*
X124714000Y-120719884D01*
X124206000Y-120719884D01*
X124206000Y-119652115D01*
X124201525Y-119636876D01*
X124200135Y-119635671D01*
X124192452Y-119634000D01*
X123120116Y-119634000D01*
X123104877Y-119638475D01*
X123103672Y-119639865D01*
X123102001Y-119647548D01*
X123102001Y-120274669D01*
X114300000Y-120274669D01*
X114300000Y-116806695D01*
X123097251Y-116806695D01*
X123097548Y-116811848D01*
X123097548Y-116811851D01*
X123103011Y-116906590D01*
X123110110Y-117029715D01*
X123111247Y-117034761D01*
X123111248Y-117034767D01*
X123131119Y-117122939D01*
X123159222Y-117247639D01*
X123243266Y-117454616D01*
X123294019Y-117537438D01*
X123357291Y-117640688D01*
X123359987Y-117645088D01*
X123506250Y-117813938D01*
X123510225Y-117817238D01*
X123510231Y-117817244D01*
X123515425Y-117821556D01*
X123555059Y-117880460D01*
X123556555Y-117951441D01*
X123519439Y-118011962D01*
X123479168Y-118036480D01*
X123371946Y-118076676D01*
X123356351Y-118085214D01*
X123254276Y-118161715D01*
X123241715Y-118174276D01*
X123165214Y-118276351D01*
X123156676Y-118291946D01*
X123111522Y-118412394D01*
X123107895Y-118427649D01*
X123102369Y-118478514D01*
X123102000Y-118485328D01*
X123102000Y-119107885D01*
X123106475Y-119123124D01*
X123107865Y-119124329D01*
X123115548Y-119126000D01*
X128318344Y-119126000D01*
X128331875Y-119122027D01*
X128333180Y-119112947D01*
X128291214Y-118945875D01*
X128287894Y-118936124D01*
X128202972Y-118740814D01*
X128198105Y-118731739D01*
X128082426Y-118552926D01*
X128076136Y-118544757D01*
X127932806Y-118387240D01*
X127925273Y-118380215D01*
X127758139Y-118248222D01*
X127749556Y-118242520D01*
X127712602Y-118222120D01*
X127662631Y-118171687D01*
X127647859Y-118102245D01*
X127672975Y-118035839D01*
X127700327Y-118009232D01*
X127723797Y-117992491D01*
X127879860Y-117881173D01*
X127904323Y-117856796D01*
X128034435Y-117727137D01*
X128038096Y-117723489D01*
X128097594Y-117640689D01*
X128165435Y-117546277D01*
X128168453Y-117542077D01*
X128189320Y-117499857D01*
X128265136Y-117346453D01*
X128265137Y-117346451D01*
X128267430Y-117341811D01*
X128332370Y-117128069D01*
X128361529Y-116906590D01*
X128363156Y-116840000D01*
X128344852Y-116617361D01*
X128290431Y-116400702D01*
X128201354Y-116195840D01*
X128080014Y-116008277D01*
X127929670Y-115843051D01*
X127925619Y-115839852D01*
X127925615Y-115839848D01*
X127758414Y-115707800D01*
X127758410Y-115707798D01*
X127754359Y-115704598D01*
X127713053Y-115681796D01*
X127663084Y-115631364D01*
X127648312Y-115561921D01*
X127673428Y-115495516D01*
X127700780Y-115468909D01*
X127744603Y-115437650D01*
X127879860Y-115341173D01*
X128038096Y-115183489D01*
X128097594Y-115100689D01*
X128165435Y-115006277D01*
X128168453Y-115002077D01*
X128189320Y-114959857D01*
X128265136Y-114806453D01*
X128265137Y-114806451D01*
X128267430Y-114801811D01*
X128332370Y-114588069D01*
X128361529Y-114366590D01*
X128363156Y-114300000D01*
X128344852Y-114077361D01*
X128290431Y-113860702D01*
X128201354Y-113655840D01*
X128080014Y-113468277D01*
X127929670Y-113303051D01*
X127925619Y-113299852D01*
X127925615Y-113299848D01*
X127758414Y-113167800D01*
X127758410Y-113167798D01*
X127754359Y-113164598D01*
X127713053Y-113141796D01*
X127663084Y-113091364D01*
X127648312Y-113021921D01*
X127673428Y-112955516D01*
X127700780Y-112928909D01*
X127744603Y-112897650D01*
X127879860Y-112801173D01*
X128038096Y-112643489D01*
X128097594Y-112560689D01*
X128165435Y-112466277D01*
X128168453Y-112462077D01*
X128189320Y-112419857D01*
X128265136Y-112266453D01*
X128265137Y-112266451D01*
X128267430Y-112261811D01*
X128332370Y-112048069D01*
X128361529Y-111826590D01*
X128363156Y-111760000D01*
X128344852Y-111537361D01*
X128290431Y-111320702D01*
X128201354Y-111115840D01*
X128080014Y-110928277D01*
X127929670Y-110763051D01*
X127925619Y-110759852D01*
X127925615Y-110759848D01*
X127758414Y-110627800D01*
X127758410Y-110627798D01*
X127754359Y-110624598D01*
X127713053Y-110601796D01*
X127663084Y-110551364D01*
X127648312Y-110481921D01*
X127673428Y-110415516D01*
X127700780Y-110388909D01*
X127744603Y-110357650D01*
X127879860Y-110261173D01*
X128038096Y-110103489D01*
X128097594Y-110020689D01*
X128165435Y-109926277D01*
X128168453Y-109922077D01*
X128189320Y-109879857D01*
X128265136Y-109726453D01*
X128265137Y-109726451D01*
X128267430Y-109721811D01*
X128332370Y-109508069D01*
X128361529Y-109286590D01*
X128363156Y-109220000D01*
X128344852Y-108997361D01*
X128290431Y-108780702D01*
X128201354Y-108575840D01*
X128080014Y-108388277D01*
X127929670Y-108223051D01*
X127925619Y-108219852D01*
X127925615Y-108219848D01*
X127758414Y-108087800D01*
X127758410Y-108087798D01*
X127754359Y-108084598D01*
X127713053Y-108061796D01*
X127663084Y-108011364D01*
X127648312Y-107941921D01*
X127673428Y-107875516D01*
X127700780Y-107848909D01*
X127744603Y-107817650D01*
X127879860Y-107721173D01*
X128038096Y-107563489D01*
X128097594Y-107480689D01*
X128165435Y-107386277D01*
X128168453Y-107382077D01*
X128189320Y-107339857D01*
X128265136Y-107186453D01*
X128265137Y-107186451D01*
X128267430Y-107181811D01*
X128332370Y-106968069D01*
X128361529Y-106746590D01*
X128363156Y-106680000D01*
X128344852Y-106457361D01*
X128290431Y-106240702D01*
X128201354Y-106035840D01*
X128080014Y-105848277D01*
X127929670Y-105683051D01*
X127925619Y-105679852D01*
X127925615Y-105679848D01*
X127758414Y-105547800D01*
X127758410Y-105547798D01*
X127754359Y-105544598D01*
X127558789Y-105436638D01*
X127553920Y-105434914D01*
X127553916Y-105434912D01*
X127353087Y-105363795D01*
X127353083Y-105363794D01*
X127348212Y-105362069D01*
X127343119Y-105361162D01*
X127343116Y-105361161D01*
X127133373Y-105323800D01*
X127133367Y-105323799D01*
X127128284Y-105322894D01*
X127054452Y-105321992D01*
X126910081Y-105320228D01*
X126910079Y-105320228D01*
X126904911Y-105320165D01*
X126684091Y-105353955D01*
X126471756Y-105423357D01*
X126273607Y-105526507D01*
X126269474Y-105529610D01*
X126269471Y-105529612D01*
X126245247Y-105547800D01*
X126094965Y-105660635D01*
X125940629Y-105822138D01*
X125833201Y-105979621D01*
X125778293Y-106024621D01*
X125707768Y-106032792D01*
X125644021Y-106001538D01*
X125623324Y-105977054D01*
X125542822Y-105852617D01*
X125542820Y-105852614D01*
X125540014Y-105848277D01*
X125389670Y-105683051D01*
X125385619Y-105679852D01*
X125385615Y-105679848D01*
X125218414Y-105547800D01*
X125218410Y-105547798D01*
X125214359Y-105544598D01*
X125018789Y-105436638D01*
X125013920Y-105434914D01*
X125013916Y-105434912D01*
X124813087Y-105363795D01*
X124813083Y-105363794D01*
X124808212Y-105362069D01*
X124803119Y-105361162D01*
X124803116Y-105361161D01*
X124593373Y-105323800D01*
X124593367Y-105323799D01*
X124588284Y-105322894D01*
X124514452Y-105321992D01*
X124370081Y-105320228D01*
X124370079Y-105320228D01*
X124364911Y-105320165D01*
X124144091Y-105353955D01*
X123931756Y-105423357D01*
X123733607Y-105526507D01*
X123729474Y-105529610D01*
X123729471Y-105529612D01*
X123705247Y-105547800D01*
X123554965Y-105660635D01*
X123400629Y-105822138D01*
X123274743Y-106006680D01*
X123180688Y-106209305D01*
X123120989Y-106424570D01*
X123097251Y-106646695D01*
X123097548Y-106651848D01*
X123097548Y-106651851D01*
X123103011Y-106746590D01*
X123110110Y-106869715D01*
X123111247Y-106874761D01*
X123111248Y-106874767D01*
X123131119Y-106962939D01*
X123159222Y-107087639D01*
X123243266Y-107294616D01*
X123294019Y-107377438D01*
X123357291Y-107480688D01*
X123359987Y-107485088D01*
X123506250Y-107653938D01*
X123678126Y-107796632D01*
X123748595Y-107837811D01*
X123751445Y-107839476D01*
X123800169Y-107891114D01*
X123813240Y-107960897D01*
X123786509Y-108026669D01*
X123746055Y-108060027D01*
X123733607Y-108066507D01*
X123729474Y-108069610D01*
X123729471Y-108069612D01*
X123705247Y-108087800D01*
X123554965Y-108200635D01*
X123400629Y-108362138D01*
X123274743Y-108546680D01*
X123180688Y-108749305D01*
X123120989Y-108964570D01*
X123097251Y-109186695D01*
X123097548Y-109191848D01*
X123097548Y-109191851D01*
X123103011Y-109286590D01*
X123110110Y-109409715D01*
X123111247Y-109414761D01*
X123111248Y-109414767D01*
X123131119Y-109502939D01*
X123159222Y-109627639D01*
X123243266Y-109834616D01*
X123294019Y-109917438D01*
X123357291Y-110020688D01*
X123359987Y-110025088D01*
X123506250Y-110193938D01*
X123678126Y-110336632D01*
X123748595Y-110377811D01*
X123751445Y-110379476D01*
X123800169Y-110431114D01*
X123813240Y-110500897D01*
X123786509Y-110566669D01*
X123746055Y-110600027D01*
X123733607Y-110606507D01*
X123729474Y-110609610D01*
X123729471Y-110609612D01*
X123705247Y-110627800D01*
X123554965Y-110740635D01*
X123400629Y-110902138D01*
X123274743Y-111086680D01*
X123180688Y-111289305D01*
X123120989Y-111504570D01*
X123097251Y-111726695D01*
X123097548Y-111731848D01*
X123097548Y-111731851D01*
X123103011Y-111826590D01*
X123110110Y-111949715D01*
X123111247Y-111954761D01*
X123111248Y-111954767D01*
X123131119Y-112042939D01*
X123159222Y-112167639D01*
X123243266Y-112374616D01*
X123294019Y-112457438D01*
X123357291Y-112560688D01*
X123359987Y-112565088D01*
X123506250Y-112733938D01*
X123678126Y-112876632D01*
X123748595Y-112917811D01*
X123751445Y-112919476D01*
X123800169Y-112971114D01*
X123813240Y-113040897D01*
X123786509Y-113106669D01*
X123746055Y-113140027D01*
X123733607Y-113146507D01*
X123729474Y-113149610D01*
X123729471Y-113149612D01*
X123705247Y-113167800D01*
X123554965Y-113280635D01*
X123400629Y-113442138D01*
X123274743Y-113626680D01*
X123180688Y-113829305D01*
X123120989Y-114044570D01*
X123097251Y-114266695D01*
X123097548Y-114271848D01*
X123097548Y-114271851D01*
X123103011Y-114366590D01*
X123110110Y-114489715D01*
X123111247Y-114494761D01*
X123111248Y-114494767D01*
X123131119Y-114582939D01*
X123159222Y-114707639D01*
X123243266Y-114914616D01*
X123294019Y-114997438D01*
X123357291Y-115100688D01*
X123359987Y-115105088D01*
X123506250Y-115273938D01*
X123678126Y-115416632D01*
X123748595Y-115457811D01*
X123751445Y-115459476D01*
X123800169Y-115511114D01*
X123813240Y-115580897D01*
X123786509Y-115646669D01*
X123746055Y-115680027D01*
X123733607Y-115686507D01*
X123729474Y-115689610D01*
X123729471Y-115689612D01*
X123705247Y-115707800D01*
X123554965Y-115820635D01*
X123400629Y-115982138D01*
X123274743Y-116166680D01*
X123180688Y-116369305D01*
X123120989Y-116584570D01*
X123097251Y-116806695D01*
X114300000Y-116806695D01*
X114300000Y-97414669D01*
X123102001Y-97414669D01*
X123102371Y-97421490D01*
X123107895Y-97472352D01*
X123111521Y-97487604D01*
X123156676Y-97608054D01*
X123165214Y-97623649D01*
X123241715Y-97725724D01*
X123254276Y-97738285D01*
X123356351Y-97814786D01*
X123371946Y-97823324D01*
X123492394Y-97868478D01*
X123507649Y-97872105D01*
X123558514Y-97877631D01*
X123565328Y-97878000D01*
X124187885Y-97878000D01*
X124203124Y-97873525D01*
X124204329Y-97872135D01*
X124206000Y-97864452D01*
X124206000Y-97859884D01*
X124714000Y-97859884D01*
X124718475Y-97875123D01*
X124719865Y-97876328D01*
X124727548Y-97877999D01*
X125354669Y-97877999D01*
X125361490Y-97877629D01*
X125412352Y-97872105D01*
X125427604Y-97868479D01*
X125548054Y-97823324D01*
X125563649Y-97814786D01*
X125665724Y-97738285D01*
X125678285Y-97725724D01*
X125754786Y-97623649D01*
X125763325Y-97608052D01*
X125804425Y-97498418D01*
X125847066Y-97441653D01*
X125913628Y-97416953D01*
X125982977Y-97432160D01*
X126017645Y-97460150D01*
X126043219Y-97489674D01*
X126050580Y-97496883D01*
X126214434Y-97632916D01*
X126222881Y-97638831D01*
X126406756Y-97746279D01*
X126416042Y-97750729D01*
X126615001Y-97826703D01*
X126624899Y-97829579D01*
X126728250Y-97850606D01*
X126742299Y-97849410D01*
X126746000Y-97839065D01*
X126746000Y-97838517D01*
X127254000Y-97838517D01*
X127258064Y-97852359D01*
X127271478Y-97854393D01*
X127278184Y-97853534D01*
X127288262Y-97851392D01*
X127492255Y-97790191D01*
X127501842Y-97786433D01*
X127693095Y-97692739D01*
X127701945Y-97687464D01*
X127875328Y-97563792D01*
X127883200Y-97557139D01*
X128034052Y-97406812D01*
X128040730Y-97398965D01*
X128165003Y-97226020D01*
X128170313Y-97217183D01*
X128264670Y-97026267D01*
X128268469Y-97016672D01*
X128330377Y-96812910D01*
X128332555Y-96802837D01*
X128333986Y-96791962D01*
X128331775Y-96777778D01*
X128318617Y-96774000D01*
X127272115Y-96774000D01*
X127256876Y-96778475D01*
X127255671Y-96779865D01*
X127254000Y-96787548D01*
X127254000Y-97838517D01*
X126746000Y-97838517D01*
X126746000Y-96792115D01*
X126741525Y-96776876D01*
X126740135Y-96775671D01*
X126732452Y-96774000D01*
X124732115Y-96774000D01*
X124716876Y-96778475D01*
X124715671Y-96779865D01*
X124714000Y-96787548D01*
X124714000Y-97859884D01*
X124206000Y-97859884D01*
X124206000Y-96792115D01*
X124201525Y-96776876D01*
X124200135Y-96775671D01*
X124192452Y-96774000D01*
X123120116Y-96774000D01*
X123104877Y-96778475D01*
X123103672Y-96779865D01*
X123102001Y-96787548D01*
X123102001Y-97414669D01*
X114300000Y-97414669D01*
X114300000Y-93946695D01*
X123097251Y-93946695D01*
X123097548Y-93951848D01*
X123097548Y-93951851D01*
X123103011Y-94046590D01*
X123110110Y-94169715D01*
X123111247Y-94174761D01*
X123111248Y-94174767D01*
X123131119Y-94262939D01*
X123159222Y-94387639D01*
X123243266Y-94594616D01*
X123294019Y-94677438D01*
X123357291Y-94780688D01*
X123359987Y-94785088D01*
X123506250Y-94953938D01*
X123510225Y-94957238D01*
X123510231Y-94957244D01*
X123515425Y-94961556D01*
X123555059Y-95020460D01*
X123556555Y-95091441D01*
X123519439Y-95151962D01*
X123479168Y-95176480D01*
X123371946Y-95216676D01*
X123356351Y-95225214D01*
X123254276Y-95301715D01*
X123241715Y-95314276D01*
X123165214Y-95416351D01*
X123156676Y-95431946D01*
X123111522Y-95552394D01*
X123107895Y-95567649D01*
X123102369Y-95618514D01*
X123102000Y-95625328D01*
X123102000Y-96247885D01*
X123106475Y-96263124D01*
X123107865Y-96264329D01*
X123115548Y-96266000D01*
X128318344Y-96266000D01*
X128331875Y-96262027D01*
X128333180Y-96252947D01*
X128291214Y-96085875D01*
X128287894Y-96076124D01*
X128202972Y-95880814D01*
X128198105Y-95871739D01*
X128082426Y-95692926D01*
X128076136Y-95684757D01*
X127932806Y-95527240D01*
X127925273Y-95520215D01*
X127758139Y-95388222D01*
X127749556Y-95382520D01*
X127712602Y-95362120D01*
X127662631Y-95311687D01*
X127647859Y-95242245D01*
X127672975Y-95175839D01*
X127700327Y-95149232D01*
X127723797Y-95132491D01*
X127879860Y-95021173D01*
X127904323Y-94996796D01*
X128034435Y-94867137D01*
X128038096Y-94863489D01*
X128097594Y-94780689D01*
X128165435Y-94686277D01*
X128168453Y-94682077D01*
X128189320Y-94639857D01*
X128265136Y-94486453D01*
X128265137Y-94486451D01*
X128267430Y-94481811D01*
X128332370Y-94268069D01*
X128361529Y-94046590D01*
X128363156Y-93980000D01*
X128344852Y-93757361D01*
X128290431Y-93540702D01*
X128201354Y-93335840D01*
X128080014Y-93148277D01*
X127929670Y-92983051D01*
X127925619Y-92979852D01*
X127925615Y-92979848D01*
X127758414Y-92847800D01*
X127758410Y-92847798D01*
X127754359Y-92844598D01*
X127713053Y-92821796D01*
X127663084Y-92771364D01*
X127648312Y-92701921D01*
X127673428Y-92635516D01*
X127700780Y-92608909D01*
X127744603Y-92577650D01*
X127879860Y-92481173D01*
X128038096Y-92323489D01*
X128097594Y-92240689D01*
X128165435Y-92146277D01*
X128168453Y-92142077D01*
X128189320Y-92099857D01*
X128265136Y-91946453D01*
X128265137Y-91946451D01*
X128267430Y-91941811D01*
X128332370Y-91728069D01*
X128361529Y-91506590D01*
X128363156Y-91440000D01*
X128344852Y-91217361D01*
X128290431Y-91000702D01*
X128201354Y-90795840D01*
X128080014Y-90608277D01*
X127929670Y-90443051D01*
X127925619Y-90439852D01*
X127925615Y-90439848D01*
X127758414Y-90307800D01*
X127758410Y-90307798D01*
X127754359Y-90304598D01*
X127713053Y-90281796D01*
X127663084Y-90231364D01*
X127648312Y-90161921D01*
X127673428Y-90095516D01*
X127700780Y-90068909D01*
X127744603Y-90037650D01*
X127879860Y-89941173D01*
X128038096Y-89783489D01*
X128097594Y-89700689D01*
X128165435Y-89606277D01*
X128168453Y-89602077D01*
X128189320Y-89559857D01*
X128265136Y-89406453D01*
X128265137Y-89406451D01*
X128267430Y-89401811D01*
X128332370Y-89188069D01*
X128361529Y-88966590D01*
X128363156Y-88900000D01*
X128344852Y-88677361D01*
X128290431Y-88460702D01*
X128201354Y-88255840D01*
X128080014Y-88068277D01*
X127929670Y-87903051D01*
X127925619Y-87899852D01*
X127925615Y-87899848D01*
X127758414Y-87767800D01*
X127758410Y-87767798D01*
X127754359Y-87764598D01*
X127713053Y-87741796D01*
X127663084Y-87691364D01*
X127648312Y-87621921D01*
X127673428Y-87555516D01*
X127700780Y-87528909D01*
X127744603Y-87497650D01*
X127879860Y-87401173D01*
X128038096Y-87243489D01*
X128097594Y-87160689D01*
X128165435Y-87066277D01*
X128168453Y-87062077D01*
X128189320Y-87019857D01*
X128265136Y-86866453D01*
X128265137Y-86866451D01*
X128267430Y-86861811D01*
X128332370Y-86648069D01*
X128361529Y-86426590D01*
X128363156Y-86360000D01*
X128344852Y-86137361D01*
X128290431Y-85920702D01*
X128201354Y-85715840D01*
X128080014Y-85528277D01*
X127929670Y-85363051D01*
X127925619Y-85359852D01*
X127925615Y-85359848D01*
X127758414Y-85227800D01*
X127758410Y-85227798D01*
X127754359Y-85224598D01*
X127713053Y-85201796D01*
X127663084Y-85151364D01*
X127648312Y-85081921D01*
X127673428Y-85015516D01*
X127700780Y-84988909D01*
X127744603Y-84957650D01*
X127879860Y-84861173D01*
X128038096Y-84703489D01*
X128097594Y-84620689D01*
X128165435Y-84526277D01*
X128168453Y-84522077D01*
X128189320Y-84479857D01*
X128265136Y-84326453D01*
X128265137Y-84326451D01*
X128267430Y-84321811D01*
X128332370Y-84108069D01*
X128361529Y-83886590D01*
X128363156Y-83820000D01*
X128344852Y-83597361D01*
X128290431Y-83380702D01*
X128201354Y-83175840D01*
X128080014Y-82988277D01*
X127929670Y-82823051D01*
X127925619Y-82819852D01*
X127925615Y-82819848D01*
X127758414Y-82687800D01*
X127758410Y-82687798D01*
X127754359Y-82684598D01*
X127558789Y-82576638D01*
X127553920Y-82574914D01*
X127553916Y-82574912D01*
X127353087Y-82503795D01*
X127353083Y-82503794D01*
X127348212Y-82502069D01*
X127343119Y-82501162D01*
X127343116Y-82501161D01*
X127133373Y-82463800D01*
X127133367Y-82463799D01*
X127128284Y-82462894D01*
X127054452Y-82461992D01*
X126910081Y-82460228D01*
X126910079Y-82460228D01*
X126904911Y-82460165D01*
X126684091Y-82493955D01*
X126471756Y-82563357D01*
X126273607Y-82666507D01*
X126269474Y-82669610D01*
X126269471Y-82669612D01*
X126245247Y-82687800D01*
X126094965Y-82800635D01*
X125940629Y-82962138D01*
X125833201Y-83119621D01*
X125778293Y-83164621D01*
X125707768Y-83172792D01*
X125644021Y-83141538D01*
X125623324Y-83117054D01*
X125542822Y-82992617D01*
X125542820Y-82992614D01*
X125540014Y-82988277D01*
X125389670Y-82823051D01*
X125385619Y-82819852D01*
X125385615Y-82819848D01*
X125218414Y-82687800D01*
X125218410Y-82687798D01*
X125214359Y-82684598D01*
X125018789Y-82576638D01*
X125013920Y-82574914D01*
X125013916Y-82574912D01*
X124813087Y-82503795D01*
X124813083Y-82503794D01*
X124808212Y-82502069D01*
X124803119Y-82501162D01*
X124803116Y-82501161D01*
X124593373Y-82463800D01*
X124593367Y-82463799D01*
X124588284Y-82462894D01*
X124514452Y-82461992D01*
X124370081Y-82460228D01*
X124370079Y-82460228D01*
X124364911Y-82460165D01*
X124144091Y-82493955D01*
X123931756Y-82563357D01*
X123733607Y-82666507D01*
X123729474Y-82669610D01*
X123729471Y-82669612D01*
X123705247Y-82687800D01*
X123554965Y-82800635D01*
X123400629Y-82962138D01*
X123274743Y-83146680D01*
X123180688Y-83349305D01*
X123120989Y-83564570D01*
X123097251Y-83786695D01*
X123097548Y-83791848D01*
X123097548Y-83791851D01*
X123103011Y-83886590D01*
X123110110Y-84009715D01*
X123111247Y-84014761D01*
X123111248Y-84014767D01*
X123131119Y-84102939D01*
X123159222Y-84227639D01*
X123243266Y-84434616D01*
X123294019Y-84517438D01*
X123357291Y-84620688D01*
X123359987Y-84625088D01*
X123506250Y-84793938D01*
X123678126Y-84936632D01*
X123748595Y-84977811D01*
X123751445Y-84979476D01*
X123800169Y-85031114D01*
X123813240Y-85100897D01*
X123786509Y-85166669D01*
X123746055Y-85200027D01*
X123733607Y-85206507D01*
X123729474Y-85209610D01*
X123729471Y-85209612D01*
X123705247Y-85227800D01*
X123554965Y-85340635D01*
X123400629Y-85502138D01*
X123274743Y-85686680D01*
X123180688Y-85889305D01*
X123120989Y-86104570D01*
X123097251Y-86326695D01*
X123097548Y-86331848D01*
X123097548Y-86331851D01*
X123103011Y-86426590D01*
X123110110Y-86549715D01*
X123111247Y-86554761D01*
X123111248Y-86554767D01*
X123131119Y-86642939D01*
X123159222Y-86767639D01*
X123243266Y-86974616D01*
X123294019Y-87057438D01*
X123357291Y-87160688D01*
X123359987Y-87165088D01*
X123506250Y-87333938D01*
X123678126Y-87476632D01*
X123748595Y-87517811D01*
X123751445Y-87519476D01*
X123800169Y-87571114D01*
X123813240Y-87640897D01*
X123786509Y-87706669D01*
X123746055Y-87740027D01*
X123733607Y-87746507D01*
X123729474Y-87749610D01*
X123729471Y-87749612D01*
X123705247Y-87767800D01*
X123554965Y-87880635D01*
X123400629Y-88042138D01*
X123274743Y-88226680D01*
X123180688Y-88429305D01*
X123120989Y-88644570D01*
X123097251Y-88866695D01*
X123097548Y-88871848D01*
X123097548Y-88871851D01*
X123103011Y-88966590D01*
X123110110Y-89089715D01*
X123111247Y-89094761D01*
X123111248Y-89094767D01*
X123131119Y-89182939D01*
X123159222Y-89307639D01*
X123243266Y-89514616D01*
X123294019Y-89597438D01*
X123357291Y-89700688D01*
X123359987Y-89705088D01*
X123506250Y-89873938D01*
X123678126Y-90016632D01*
X123748595Y-90057811D01*
X123751445Y-90059476D01*
X123800169Y-90111114D01*
X123813240Y-90180897D01*
X123786509Y-90246669D01*
X123746055Y-90280027D01*
X123733607Y-90286507D01*
X123729474Y-90289610D01*
X123729471Y-90289612D01*
X123705247Y-90307800D01*
X123554965Y-90420635D01*
X123400629Y-90582138D01*
X123274743Y-90766680D01*
X123180688Y-90969305D01*
X123120989Y-91184570D01*
X123097251Y-91406695D01*
X123097548Y-91411848D01*
X123097548Y-91411851D01*
X123103011Y-91506590D01*
X123110110Y-91629715D01*
X123111247Y-91634761D01*
X123111248Y-91634767D01*
X123131119Y-91722939D01*
X123159222Y-91847639D01*
X123243266Y-92054616D01*
X123294019Y-92137438D01*
X123357291Y-92240688D01*
X123359987Y-92245088D01*
X123506250Y-92413938D01*
X123678126Y-92556632D01*
X123748595Y-92597811D01*
X123751445Y-92599476D01*
X123800169Y-92651114D01*
X123813240Y-92720897D01*
X123786509Y-92786669D01*
X123746055Y-92820027D01*
X123733607Y-92826507D01*
X123729474Y-92829610D01*
X123729471Y-92829612D01*
X123705247Y-92847800D01*
X123554965Y-92960635D01*
X123400629Y-93122138D01*
X123274743Y-93306680D01*
X123180688Y-93509305D01*
X123120989Y-93724570D01*
X123097251Y-93946695D01*
X114300000Y-93946695D01*
X114300000Y-85090000D01*
X73660000Y-85090000D01*
X73660000Y-134620000D01*
X66344610Y-134620000D01*
X66399734Y-134564876D01*
X66644357Y-134262793D01*
X66856062Y-133936794D01*
X67032532Y-133590453D01*
X67171833Y-133227562D01*
X67272438Y-132852099D01*
X67333246Y-132468176D01*
X67353589Y-132080000D01*
X67333246Y-131691824D01*
X67272438Y-131307901D01*
X67171833Y-130932438D01*
X67032532Y-130569547D01*
X66856062Y-130223206D01*
X66644357Y-129897207D01*
X66399734Y-129595124D01*
X66124876Y-129320266D01*
X65822793Y-129075643D01*
X65496795Y-128863938D01*
X65493861Y-128862443D01*
X65493854Y-128862439D01*
X65153393Y-128688966D01*
X65150453Y-128687468D01*
X64787562Y-128548167D01*
X64412099Y-128447562D01*
X64208207Y-128415268D01*
X64031424Y-128387268D01*
X64031416Y-128387267D01*
X64028176Y-128386754D01*
X63640000Y-128366411D01*
X63251824Y-128386754D01*
X63248584Y-128387267D01*
X63248576Y-128387268D01*
X63071793Y-128415268D01*
X62867901Y-128447562D01*
X62492438Y-128548167D01*
X62129547Y-128687468D01*
X62126607Y-128688966D01*
X61786147Y-128862439D01*
X61786140Y-128862443D01*
X61783206Y-128863938D01*
X61457207Y-129075643D01*
X61155124Y-129320266D01*
X60880266Y-129595124D01*
X60635643Y-129897207D01*
X60423938Y-130223206D01*
X60247468Y-130569547D01*
X60108167Y-130932438D01*
X60007562Y-131307901D01*
X59946754Y-131691824D01*
X59926411Y-132080000D01*
X58420000Y-132080000D01*
X58420000Y-119647966D01*
X59628257Y-119647966D01*
X59658565Y-119782446D01*
X59661645Y-119792275D01*
X59741770Y-119989603D01*
X59746413Y-119998794D01*
X59857694Y-120180388D01*
X59863777Y-120188699D01*
X60003213Y-120349667D01*
X60010580Y-120356883D01*
X60174434Y-120492916D01*
X60182881Y-120498831D01*
X60366756Y-120606279D01*
X60376042Y-120610729D01*
X60575001Y-120686703D01*
X60584899Y-120689579D01*
X60688250Y-120710606D01*
X60702299Y-120709410D01*
X60706000Y-120699065D01*
X60706000Y-120698517D01*
X61214000Y-120698517D01*
X61218064Y-120712359D01*
X61231478Y-120714393D01*
X61238184Y-120713534D01*
X61248262Y-120711392D01*
X61452255Y-120650191D01*
X61461842Y-120646433D01*
X61653095Y-120552739D01*
X61661945Y-120547464D01*
X61835328Y-120423792D01*
X61843200Y-120417139D01*
X61948286Y-120312418D01*
X62010657Y-120278501D01*
X62081464Y-120283689D01*
X62138226Y-120326335D01*
X62155208Y-120357439D01*
X62196675Y-120468052D01*
X62205214Y-120483649D01*
X62281715Y-120585724D01*
X62294276Y-120598285D01*
X62396351Y-120674786D01*
X62411946Y-120683324D01*
X62532394Y-120728478D01*
X62547649Y-120732105D01*
X62598514Y-120737631D01*
X62605328Y-120738000D01*
X63227885Y-120738000D01*
X63243124Y-120733525D01*
X63244329Y-120732135D01*
X63246000Y-120724452D01*
X63246000Y-120719884D01*
X63754000Y-120719884D01*
X63758475Y-120735123D01*
X63759865Y-120736328D01*
X63767548Y-120737999D01*
X64394669Y-120737999D01*
X64401490Y-120737629D01*
X64452352Y-120732105D01*
X64467604Y-120728479D01*
X64588054Y-120683324D01*
X64603649Y-120674786D01*
X64705724Y-120598285D01*
X64718285Y-120585724D01*
X64794786Y-120483649D01*
X64803324Y-120468054D01*
X64848478Y-120347606D01*
X64852105Y-120332351D01*
X64857631Y-120281486D01*
X64858000Y-120274672D01*
X64858000Y-119652115D01*
X64853525Y-119636876D01*
X64852135Y-119635671D01*
X64844452Y-119634000D01*
X63772115Y-119634000D01*
X63756876Y-119638475D01*
X63755671Y-119639865D01*
X63754000Y-119647548D01*
X63754000Y-120719884D01*
X63246000Y-120719884D01*
X63246000Y-119652115D01*
X63241525Y-119636876D01*
X63240135Y-119635671D01*
X63232452Y-119634000D01*
X61232115Y-119634000D01*
X61216876Y-119638475D01*
X61215671Y-119639865D01*
X61214000Y-119647548D01*
X61214000Y-120698517D01*
X60706000Y-120698517D01*
X60706000Y-119652115D01*
X60701525Y-119636876D01*
X60700135Y-119635671D01*
X60692452Y-119634000D01*
X59643225Y-119634000D01*
X59629694Y-119637973D01*
X59628257Y-119647966D01*
X58420000Y-119647966D01*
X58420000Y-116806695D01*
X59597251Y-116806695D01*
X59597548Y-116811848D01*
X59597548Y-116811851D01*
X59603011Y-116906590D01*
X59610110Y-117029715D01*
X59611247Y-117034761D01*
X59611248Y-117034767D01*
X59631119Y-117122939D01*
X59659222Y-117247639D01*
X59743266Y-117454616D01*
X59794019Y-117537438D01*
X59857291Y-117640688D01*
X59859987Y-117645088D01*
X60006250Y-117813938D01*
X60178126Y-117956632D01*
X60239860Y-117992706D01*
X60251955Y-117999774D01*
X60300679Y-118051412D01*
X60313750Y-118121195D01*
X60287019Y-118186967D01*
X60246562Y-118220327D01*
X60238457Y-118224546D01*
X60229738Y-118230036D01*
X60059433Y-118357905D01*
X60051726Y-118364748D01*
X59904590Y-118518717D01*
X59898104Y-118526727D01*
X59778098Y-118702649D01*
X59773000Y-118711623D01*
X59683338Y-118904783D01*
X59679775Y-118914470D01*
X59624389Y-119114183D01*
X59625912Y-119122607D01*
X59638292Y-119126000D01*
X64839884Y-119126000D01*
X64855123Y-119121525D01*
X64856328Y-119120135D01*
X64857999Y-119112452D01*
X64857999Y-118485331D01*
X64857629Y-118478510D01*
X64852105Y-118427648D01*
X64848479Y-118412396D01*
X64803324Y-118291946D01*
X64794786Y-118276351D01*
X64718285Y-118174276D01*
X64705724Y-118161715D01*
X64603649Y-118085214D01*
X64588054Y-118076676D01*
X64477813Y-118035348D01*
X64421049Y-117992706D01*
X64396349Y-117926145D01*
X64411557Y-117856796D01*
X64433104Y-117828115D01*
X64534430Y-117727144D01*
X64534440Y-117727132D01*
X64538096Y-117723489D01*
X64597594Y-117640689D01*
X64665435Y-117546277D01*
X64668453Y-117542077D01*
X64689320Y-117499857D01*
X64765136Y-117346453D01*
X64765137Y-117346451D01*
X64767430Y-117341811D01*
X64832370Y-117128069D01*
X64861529Y-116906590D01*
X64863156Y-116840000D01*
X64844852Y-116617361D01*
X64790431Y-116400702D01*
X64701354Y-116195840D01*
X64580014Y-116008277D01*
X64429670Y-115843051D01*
X64425619Y-115839852D01*
X64425615Y-115839848D01*
X64258414Y-115707800D01*
X64258410Y-115707798D01*
X64254359Y-115704598D01*
X64213053Y-115681796D01*
X64163084Y-115631364D01*
X64148312Y-115561921D01*
X64173428Y-115495516D01*
X64200780Y-115468909D01*
X64244603Y-115437650D01*
X64379860Y-115341173D01*
X64538096Y-115183489D01*
X64597594Y-115100689D01*
X64665435Y-115006277D01*
X64668453Y-115002077D01*
X64689320Y-114959857D01*
X64765136Y-114806453D01*
X64765137Y-114806451D01*
X64767430Y-114801811D01*
X64832370Y-114588069D01*
X64861529Y-114366590D01*
X64863156Y-114300000D01*
X64844852Y-114077361D01*
X64790431Y-113860702D01*
X64701354Y-113655840D01*
X64580014Y-113468277D01*
X64429670Y-113303051D01*
X64425619Y-113299852D01*
X64425615Y-113299848D01*
X64258414Y-113167800D01*
X64258410Y-113167798D01*
X64254359Y-113164598D01*
X64213053Y-113141796D01*
X64163084Y-113091364D01*
X64148312Y-113021921D01*
X64173428Y-112955516D01*
X64200780Y-112928909D01*
X64244603Y-112897650D01*
X64379860Y-112801173D01*
X64538096Y-112643489D01*
X64597594Y-112560689D01*
X64665435Y-112466277D01*
X64668453Y-112462077D01*
X64689320Y-112419857D01*
X64765136Y-112266453D01*
X64765137Y-112266451D01*
X64767430Y-112261811D01*
X64832370Y-112048069D01*
X64861529Y-111826590D01*
X64863156Y-111760000D01*
X64844852Y-111537361D01*
X64790431Y-111320702D01*
X64701354Y-111115840D01*
X64580014Y-110928277D01*
X64429670Y-110763051D01*
X64425619Y-110759852D01*
X64425615Y-110759848D01*
X64258414Y-110627800D01*
X64258410Y-110627798D01*
X64254359Y-110624598D01*
X64213053Y-110601796D01*
X64163084Y-110551364D01*
X64148312Y-110481921D01*
X64173428Y-110415516D01*
X64200780Y-110388909D01*
X64244603Y-110357650D01*
X64379860Y-110261173D01*
X64538096Y-110103489D01*
X64597594Y-110020689D01*
X64665435Y-109926277D01*
X64668453Y-109922077D01*
X64689320Y-109879857D01*
X64765136Y-109726453D01*
X64765137Y-109726451D01*
X64767430Y-109721811D01*
X64832370Y-109508069D01*
X64861529Y-109286590D01*
X64863156Y-109220000D01*
X64844852Y-108997361D01*
X64790431Y-108780702D01*
X64701354Y-108575840D01*
X64580014Y-108388277D01*
X64429670Y-108223051D01*
X64425619Y-108219852D01*
X64425615Y-108219848D01*
X64258414Y-108087800D01*
X64258410Y-108087798D01*
X64254359Y-108084598D01*
X64213053Y-108061796D01*
X64163084Y-108011364D01*
X64148312Y-107941921D01*
X64173428Y-107875516D01*
X64200780Y-107848909D01*
X64244603Y-107817650D01*
X64379860Y-107721173D01*
X64538096Y-107563489D01*
X64597594Y-107480689D01*
X64665435Y-107386277D01*
X64668453Y-107382077D01*
X64689320Y-107339857D01*
X64765136Y-107186453D01*
X64765137Y-107186451D01*
X64767430Y-107181811D01*
X64832370Y-106968069D01*
X64861529Y-106746590D01*
X64863156Y-106680000D01*
X64844852Y-106457361D01*
X64790431Y-106240702D01*
X64701354Y-106035840D01*
X64580014Y-105848277D01*
X64429670Y-105683051D01*
X64425619Y-105679852D01*
X64425615Y-105679848D01*
X64258414Y-105547800D01*
X64258410Y-105547798D01*
X64254359Y-105544598D01*
X64058789Y-105436638D01*
X64053920Y-105434914D01*
X64053916Y-105434912D01*
X63853087Y-105363795D01*
X63853083Y-105363794D01*
X63848212Y-105362069D01*
X63843119Y-105361162D01*
X63843116Y-105361161D01*
X63633373Y-105323800D01*
X63633367Y-105323799D01*
X63628284Y-105322894D01*
X63554452Y-105321992D01*
X63410081Y-105320228D01*
X63410079Y-105320228D01*
X63404911Y-105320165D01*
X63184091Y-105353955D01*
X62971756Y-105423357D01*
X62773607Y-105526507D01*
X62769474Y-105529610D01*
X62769471Y-105529612D01*
X62745247Y-105547800D01*
X62594965Y-105660635D01*
X62440629Y-105822138D01*
X62333201Y-105979621D01*
X62278293Y-106024621D01*
X62207768Y-106032792D01*
X62144021Y-106001538D01*
X62123324Y-105977054D01*
X62042822Y-105852617D01*
X62042820Y-105852614D01*
X62040014Y-105848277D01*
X61889670Y-105683051D01*
X61885619Y-105679852D01*
X61885615Y-105679848D01*
X61718414Y-105547800D01*
X61718410Y-105547798D01*
X61714359Y-105544598D01*
X61518789Y-105436638D01*
X61513920Y-105434914D01*
X61513916Y-105434912D01*
X61313087Y-105363795D01*
X61313083Y-105363794D01*
X61308212Y-105362069D01*
X61303119Y-105361162D01*
X61303116Y-105361161D01*
X61093373Y-105323800D01*
X61093367Y-105323799D01*
X61088284Y-105322894D01*
X61014452Y-105321992D01*
X60870081Y-105320228D01*
X60870079Y-105320228D01*
X60864911Y-105320165D01*
X60644091Y-105353955D01*
X60431756Y-105423357D01*
X60233607Y-105526507D01*
X60229474Y-105529610D01*
X60229471Y-105529612D01*
X60205247Y-105547800D01*
X60054965Y-105660635D01*
X59900629Y-105822138D01*
X59774743Y-106006680D01*
X59680688Y-106209305D01*
X59620989Y-106424570D01*
X59597251Y-106646695D01*
X59597548Y-106651848D01*
X59597548Y-106651851D01*
X59603011Y-106746590D01*
X59610110Y-106869715D01*
X59611247Y-106874761D01*
X59611248Y-106874767D01*
X59631119Y-106962939D01*
X59659222Y-107087639D01*
X59743266Y-107294616D01*
X59794019Y-107377438D01*
X59857291Y-107480688D01*
X59859987Y-107485088D01*
X60006250Y-107653938D01*
X60178126Y-107796632D01*
X60248595Y-107837811D01*
X60251445Y-107839476D01*
X60300169Y-107891114D01*
X60313240Y-107960897D01*
X60286509Y-108026669D01*
X60246055Y-108060027D01*
X60233607Y-108066507D01*
X60229474Y-108069610D01*
X60229471Y-108069612D01*
X60205247Y-108087800D01*
X60054965Y-108200635D01*
X59900629Y-108362138D01*
X59774743Y-108546680D01*
X59680688Y-108749305D01*
X59620989Y-108964570D01*
X59597251Y-109186695D01*
X59597548Y-109191848D01*
X59597548Y-109191851D01*
X59603011Y-109286590D01*
X59610110Y-109409715D01*
X59611247Y-109414761D01*
X59611248Y-109414767D01*
X59631119Y-109502939D01*
X59659222Y-109627639D01*
X59743266Y-109834616D01*
X59794019Y-109917438D01*
X59857291Y-110020688D01*
X59859987Y-110025088D01*
X60006250Y-110193938D01*
X60178126Y-110336632D01*
X60248595Y-110377811D01*
X60251445Y-110379476D01*
X60300169Y-110431114D01*
X60313240Y-110500897D01*
X60286509Y-110566669D01*
X60246055Y-110600027D01*
X60233607Y-110606507D01*
X60229474Y-110609610D01*
X60229471Y-110609612D01*
X60205247Y-110627800D01*
X60054965Y-110740635D01*
X59900629Y-110902138D01*
X59774743Y-111086680D01*
X59680688Y-111289305D01*
X59620989Y-111504570D01*
X59597251Y-111726695D01*
X59597548Y-111731848D01*
X59597548Y-111731851D01*
X59603011Y-111826590D01*
X59610110Y-111949715D01*
X59611247Y-111954761D01*
X59611248Y-111954767D01*
X59631119Y-112042939D01*
X59659222Y-112167639D01*
X59743266Y-112374616D01*
X59794019Y-112457438D01*
X59857291Y-112560688D01*
X59859987Y-112565088D01*
X60006250Y-112733938D01*
X60178126Y-112876632D01*
X60248595Y-112917811D01*
X60251445Y-112919476D01*
X60300169Y-112971114D01*
X60313240Y-113040897D01*
X60286509Y-113106669D01*
X60246055Y-113140027D01*
X60233607Y-113146507D01*
X60229474Y-113149610D01*
X60229471Y-113149612D01*
X60205247Y-113167800D01*
X60054965Y-113280635D01*
X59900629Y-113442138D01*
X59774743Y-113626680D01*
X59680688Y-113829305D01*
X59620989Y-114044570D01*
X59597251Y-114266695D01*
X59597548Y-114271848D01*
X59597548Y-114271851D01*
X59603011Y-114366590D01*
X59610110Y-114489715D01*
X59611247Y-114494761D01*
X59611248Y-114494767D01*
X59631119Y-114582939D01*
X59659222Y-114707639D01*
X59743266Y-114914616D01*
X59794019Y-114997438D01*
X59857291Y-115100688D01*
X59859987Y-115105088D01*
X60006250Y-115273938D01*
X60178126Y-115416632D01*
X60248595Y-115457811D01*
X60251445Y-115459476D01*
X60300169Y-115511114D01*
X60313240Y-115580897D01*
X60286509Y-115646669D01*
X60246055Y-115680027D01*
X60233607Y-115686507D01*
X60229474Y-115689610D01*
X60229471Y-115689612D01*
X60205247Y-115707800D01*
X60054965Y-115820635D01*
X59900629Y-115982138D01*
X59774743Y-116166680D01*
X59680688Y-116369305D01*
X59620989Y-116584570D01*
X59597251Y-116806695D01*
X58420000Y-116806695D01*
X58420000Y-96787966D01*
X59628257Y-96787966D01*
X59658565Y-96922446D01*
X59661645Y-96932275D01*
X59741770Y-97129603D01*
X59746413Y-97138794D01*
X59857694Y-97320388D01*
X59863777Y-97328699D01*
X60003213Y-97489667D01*
X60010580Y-97496883D01*
X60174434Y-97632916D01*
X60182881Y-97638831D01*
X60366756Y-97746279D01*
X60376042Y-97750729D01*
X60575001Y-97826703D01*
X60584899Y-97829579D01*
X60688250Y-97850606D01*
X60702299Y-97849410D01*
X60706000Y-97839065D01*
X60706000Y-97838517D01*
X61214000Y-97838517D01*
X61218064Y-97852359D01*
X61231478Y-97854393D01*
X61238184Y-97853534D01*
X61248262Y-97851392D01*
X61452255Y-97790191D01*
X61461842Y-97786433D01*
X61653095Y-97692739D01*
X61661945Y-97687464D01*
X61835328Y-97563792D01*
X61843200Y-97557139D01*
X61948286Y-97452418D01*
X62010657Y-97418501D01*
X62081464Y-97423689D01*
X62138226Y-97466335D01*
X62155208Y-97497439D01*
X62196675Y-97608052D01*
X62205214Y-97623649D01*
X62281715Y-97725724D01*
X62294276Y-97738285D01*
X62396351Y-97814786D01*
X62411946Y-97823324D01*
X62532394Y-97868478D01*
X62547649Y-97872105D01*
X62598514Y-97877631D01*
X62605328Y-97878000D01*
X63227885Y-97878000D01*
X63243124Y-97873525D01*
X63244329Y-97872135D01*
X63246000Y-97864452D01*
X63246000Y-97859884D01*
X63754000Y-97859884D01*
X63758475Y-97875123D01*
X63759865Y-97876328D01*
X63767548Y-97877999D01*
X64394669Y-97877999D01*
X64401490Y-97877629D01*
X64452352Y-97872105D01*
X64467604Y-97868479D01*
X64588054Y-97823324D01*
X64603649Y-97814786D01*
X64705724Y-97738285D01*
X64718285Y-97725724D01*
X64794786Y-97623649D01*
X64803324Y-97608054D01*
X64848478Y-97487606D01*
X64852105Y-97472351D01*
X64857631Y-97421486D01*
X64858000Y-97414672D01*
X64858000Y-96792115D01*
X64853525Y-96776876D01*
X64852135Y-96775671D01*
X64844452Y-96774000D01*
X63772115Y-96774000D01*
X63756876Y-96778475D01*
X63755671Y-96779865D01*
X63754000Y-96787548D01*
X63754000Y-97859884D01*
X63246000Y-97859884D01*
X63246000Y-96792115D01*
X63241525Y-96776876D01*
X63240135Y-96775671D01*
X63232452Y-96774000D01*
X61232115Y-96774000D01*
X61216876Y-96778475D01*
X61215671Y-96779865D01*
X61214000Y-96787548D01*
X61214000Y-97838517D01*
X60706000Y-97838517D01*
X60706000Y-96792115D01*
X60701525Y-96776876D01*
X60700135Y-96775671D01*
X60692452Y-96774000D01*
X59643225Y-96774000D01*
X59629694Y-96777973D01*
X59628257Y-96787966D01*
X58420000Y-96787966D01*
X58420000Y-93946695D01*
X59597251Y-93946695D01*
X59597548Y-93951848D01*
X59597548Y-93951851D01*
X59603011Y-94046590D01*
X59610110Y-94169715D01*
X59611247Y-94174761D01*
X59611248Y-94174767D01*
X59631119Y-94262939D01*
X59659222Y-94387639D01*
X59743266Y-94594616D01*
X59794019Y-94677438D01*
X59857291Y-94780688D01*
X59859987Y-94785088D01*
X60006250Y-94953938D01*
X60178126Y-95096632D01*
X60239860Y-95132706D01*
X60251955Y-95139774D01*
X60300679Y-95191412D01*
X60313750Y-95261195D01*
X60287019Y-95326967D01*
X60246562Y-95360327D01*
X60238457Y-95364546D01*
X60229738Y-95370036D01*
X60059433Y-95497905D01*
X60051726Y-95504748D01*
X59904590Y-95658717D01*
X59898104Y-95666727D01*
X59778098Y-95842649D01*
X59773000Y-95851623D01*
X59683338Y-96044783D01*
X59679775Y-96054470D01*
X59624389Y-96254183D01*
X59625912Y-96262607D01*
X59638292Y-96266000D01*
X64839884Y-96266000D01*
X64855123Y-96261525D01*
X64856328Y-96260135D01*
X64857999Y-96252452D01*
X64857999Y-95625331D01*
X64857629Y-95618510D01*
X64852105Y-95567648D01*
X64848479Y-95552396D01*
X64803324Y-95431946D01*
X64794786Y-95416351D01*
X64718285Y-95314276D01*
X64705724Y-95301715D01*
X64603649Y-95225214D01*
X64588054Y-95216676D01*
X64477813Y-95175348D01*
X64421049Y-95132706D01*
X64396349Y-95066145D01*
X64411557Y-94996796D01*
X64433104Y-94968115D01*
X64534430Y-94867144D01*
X64534440Y-94867132D01*
X64538096Y-94863489D01*
X64597594Y-94780689D01*
X64665435Y-94686277D01*
X64668453Y-94682077D01*
X64689320Y-94639857D01*
X64765136Y-94486453D01*
X64765137Y-94486451D01*
X64767430Y-94481811D01*
X64832370Y-94268069D01*
X64861529Y-94046590D01*
X64863156Y-93980000D01*
X64844852Y-93757361D01*
X64790431Y-93540702D01*
X64701354Y-93335840D01*
X64580014Y-93148277D01*
X64429670Y-92983051D01*
X64425619Y-92979852D01*
X64425615Y-92979848D01*
X64258414Y-92847800D01*
X64258410Y-92847798D01*
X64254359Y-92844598D01*
X64213053Y-92821796D01*
X64163084Y-92771364D01*
X64148312Y-92701921D01*
X64173428Y-92635516D01*
X64200780Y-92608909D01*
X64244603Y-92577650D01*
X64379860Y-92481173D01*
X64538096Y-92323489D01*
X64597594Y-92240689D01*
X64665435Y-92146277D01*
X64668453Y-92142077D01*
X64689320Y-92099857D01*
X64765136Y-91946453D01*
X64765137Y-91946451D01*
X64767430Y-91941811D01*
X64832370Y-91728069D01*
X64861529Y-91506590D01*
X64863156Y-91440000D01*
X64844852Y-91217361D01*
X64790431Y-91000702D01*
X64701354Y-90795840D01*
X64580014Y-90608277D01*
X64429670Y-90443051D01*
X64425619Y-90439852D01*
X64425615Y-90439848D01*
X64258414Y-90307800D01*
X64258410Y-90307798D01*
X64254359Y-90304598D01*
X64213053Y-90281796D01*
X64163084Y-90231364D01*
X64148312Y-90161921D01*
X64173428Y-90095516D01*
X64200780Y-90068909D01*
X64244603Y-90037650D01*
X64379860Y-89941173D01*
X64538096Y-89783489D01*
X64597594Y-89700689D01*
X64665435Y-89606277D01*
X64668453Y-89602077D01*
X64689320Y-89559857D01*
X64765136Y-89406453D01*
X64765137Y-89406451D01*
X64767430Y-89401811D01*
X64832370Y-89188069D01*
X64861529Y-88966590D01*
X64863156Y-88900000D01*
X64844852Y-88677361D01*
X64790431Y-88460702D01*
X64701354Y-88255840D01*
X64580014Y-88068277D01*
X64429670Y-87903051D01*
X64425619Y-87899852D01*
X64425615Y-87899848D01*
X64258414Y-87767800D01*
X64258410Y-87767798D01*
X64254359Y-87764598D01*
X64213053Y-87741796D01*
X64163084Y-87691364D01*
X64148312Y-87621921D01*
X64173428Y-87555516D01*
X64200780Y-87528909D01*
X64244603Y-87497650D01*
X64379860Y-87401173D01*
X64538096Y-87243489D01*
X64597594Y-87160689D01*
X64665435Y-87066277D01*
X64668453Y-87062077D01*
X64689320Y-87019857D01*
X64765136Y-86866453D01*
X64765137Y-86866451D01*
X64767430Y-86861811D01*
X64832370Y-86648069D01*
X64861529Y-86426590D01*
X64863156Y-86360000D01*
X64844852Y-86137361D01*
X64790431Y-85920702D01*
X64701354Y-85715840D01*
X64580014Y-85528277D01*
X64429670Y-85363051D01*
X64425619Y-85359852D01*
X64425615Y-85359848D01*
X64258414Y-85227800D01*
X64258410Y-85227798D01*
X64254359Y-85224598D01*
X64213053Y-85201796D01*
X64163084Y-85151364D01*
X64148312Y-85081921D01*
X64173428Y-85015516D01*
X64200780Y-84988909D01*
X64244603Y-84957650D01*
X64379860Y-84861173D01*
X64538096Y-84703489D01*
X64597594Y-84620689D01*
X64665435Y-84526277D01*
X64668453Y-84522077D01*
X64689320Y-84479857D01*
X64765136Y-84326453D01*
X64765137Y-84326451D01*
X64767430Y-84321811D01*
X64832370Y-84108069D01*
X64861529Y-83886590D01*
X64863156Y-83820000D01*
X64844852Y-83597361D01*
X64790431Y-83380702D01*
X64701354Y-83175840D01*
X64580014Y-82988277D01*
X64429670Y-82823051D01*
X64425619Y-82819852D01*
X64425615Y-82819848D01*
X64258414Y-82687800D01*
X64258410Y-82687798D01*
X64254359Y-82684598D01*
X64058789Y-82576638D01*
X64053920Y-82574914D01*
X64053916Y-82574912D01*
X63853087Y-82503795D01*
X63853083Y-82503794D01*
X63848212Y-82502069D01*
X63843119Y-82501162D01*
X63843116Y-82501161D01*
X63633373Y-82463800D01*
X63633367Y-82463799D01*
X63628284Y-82462894D01*
X63554452Y-82461992D01*
X63410081Y-82460228D01*
X63410079Y-82460228D01*
X63404911Y-82460165D01*
X63184091Y-82493955D01*
X62971756Y-82563357D01*
X62773607Y-82666507D01*
X62769474Y-82669610D01*
X62769471Y-82669612D01*
X62745247Y-82687800D01*
X62594965Y-82800635D01*
X62440629Y-82962138D01*
X62333201Y-83119621D01*
X62278293Y-83164621D01*
X62207768Y-83172792D01*
X62144021Y-83141538D01*
X62123324Y-83117054D01*
X62042822Y-82992617D01*
X62042820Y-82992614D01*
X62040014Y-82988277D01*
X61889670Y-82823051D01*
X61885619Y-82819852D01*
X61885615Y-82819848D01*
X61718414Y-82687800D01*
X61718410Y-82687798D01*
X61714359Y-82684598D01*
X61518789Y-82576638D01*
X61513920Y-82574914D01*
X61513916Y-82574912D01*
X61313087Y-82503795D01*
X61313083Y-82503794D01*
X61308212Y-82502069D01*
X61303119Y-82501162D01*
X61303116Y-82501161D01*
X61093373Y-82463800D01*
X61093367Y-82463799D01*
X61088284Y-82462894D01*
X61014452Y-82461992D01*
X60870081Y-82460228D01*
X60870079Y-82460228D01*
X60864911Y-82460165D01*
X60644091Y-82493955D01*
X60431756Y-82563357D01*
X60233607Y-82666507D01*
X60229474Y-82669610D01*
X60229471Y-82669612D01*
X60205247Y-82687800D01*
X60054965Y-82800635D01*
X59900629Y-82962138D01*
X59774743Y-83146680D01*
X59680688Y-83349305D01*
X59620989Y-83564570D01*
X59597251Y-83786695D01*
X59597548Y-83791848D01*
X59597548Y-83791851D01*
X59603011Y-83886590D01*
X59610110Y-84009715D01*
X59611247Y-84014761D01*
X59611248Y-84014767D01*
X59631119Y-84102939D01*
X59659222Y-84227639D01*
X59743266Y-84434616D01*
X59794019Y-84517438D01*
X59857291Y-84620688D01*
X59859987Y-84625088D01*
X60006250Y-84793938D01*
X60178126Y-84936632D01*
X60248595Y-84977811D01*
X60251445Y-84979476D01*
X60300169Y-85031114D01*
X60313240Y-85100897D01*
X60286509Y-85166669D01*
X60246055Y-85200027D01*
X60233607Y-85206507D01*
X60229474Y-85209610D01*
X60229471Y-85209612D01*
X60205247Y-85227800D01*
X60054965Y-85340635D01*
X59900629Y-85502138D01*
X59774743Y-85686680D01*
X59680688Y-85889305D01*
X59620989Y-86104570D01*
X59597251Y-86326695D01*
X59597548Y-86331848D01*
X59597548Y-86331851D01*
X59603011Y-86426590D01*
X59610110Y-86549715D01*
X59611247Y-86554761D01*
X59611248Y-86554767D01*
X59631119Y-86642939D01*
X59659222Y-86767639D01*
X59743266Y-86974616D01*
X59794019Y-87057438D01*
X59857291Y-87160688D01*
X59859987Y-87165088D01*
X60006250Y-87333938D01*
X60178126Y-87476632D01*
X60248595Y-87517811D01*
X60251445Y-87519476D01*
X60300169Y-87571114D01*
X60313240Y-87640897D01*
X60286509Y-87706669D01*
X60246055Y-87740027D01*
X60233607Y-87746507D01*
X60229474Y-87749610D01*
X60229471Y-87749612D01*
X60205247Y-87767800D01*
X60054965Y-87880635D01*
X59900629Y-88042138D01*
X59774743Y-88226680D01*
X59680688Y-88429305D01*
X59620989Y-88644570D01*
X59597251Y-88866695D01*
X59597548Y-88871848D01*
X59597548Y-88871851D01*
X59603011Y-88966590D01*
X59610110Y-89089715D01*
X59611247Y-89094761D01*
X59611248Y-89094767D01*
X59631119Y-89182939D01*
X59659222Y-89307639D01*
X59743266Y-89514616D01*
X59794019Y-89597438D01*
X59857291Y-89700688D01*
X59859987Y-89705088D01*
X60006250Y-89873938D01*
X60178126Y-90016632D01*
X60248595Y-90057811D01*
X60251445Y-90059476D01*
X60300169Y-90111114D01*
X60313240Y-90180897D01*
X60286509Y-90246669D01*
X60246055Y-90280027D01*
X60233607Y-90286507D01*
X60229474Y-90289610D01*
X60229471Y-90289612D01*
X60205247Y-90307800D01*
X60054965Y-90420635D01*
X59900629Y-90582138D01*
X59774743Y-90766680D01*
X59680688Y-90969305D01*
X59620989Y-91184570D01*
X59597251Y-91406695D01*
X59597548Y-91411848D01*
X59597548Y-91411851D01*
X59603011Y-91506590D01*
X59610110Y-91629715D01*
X59611247Y-91634761D01*
X59611248Y-91634767D01*
X59631119Y-91722939D01*
X59659222Y-91847639D01*
X59743266Y-92054616D01*
X59794019Y-92137438D01*
X59857291Y-92240688D01*
X59859987Y-92245088D01*
X60006250Y-92413938D01*
X60178126Y-92556632D01*
X60248595Y-92597811D01*
X60251445Y-92599476D01*
X60300169Y-92651114D01*
X60313240Y-92720897D01*
X60286509Y-92786669D01*
X60246055Y-92820027D01*
X60233607Y-92826507D01*
X60229474Y-92829610D01*
X60229471Y-92829612D01*
X60205247Y-92847800D01*
X60054965Y-92960635D01*
X59900629Y-93122138D01*
X59774743Y-93306680D01*
X59680688Y-93509305D01*
X59620989Y-93724570D01*
X59597251Y-93946695D01*
X58420000Y-93946695D01*
X58420000Y-78740000D01*
X67666496Y-78740000D01*
X67686458Y-78929928D01*
X67745473Y-79111556D01*
X67840960Y-79276944D01*
X67968747Y-79418866D01*
X68123248Y-79531118D01*
X68129276Y-79533802D01*
X68129278Y-79533803D01*
X68291681Y-79606109D01*
X68297712Y-79608794D01*
X68391113Y-79628647D01*
X68478056Y-79647128D01*
X68478061Y-79647128D01*
X68484513Y-79648500D01*
X68675487Y-79648500D01*
X68681939Y-79647128D01*
X68681944Y-79647128D01*
X68768887Y-79628647D01*
X68862288Y-79608794D01*
X68868319Y-79606109D01*
X69030722Y-79533803D01*
X69030724Y-79533802D01*
X69036752Y-79531118D01*
X69191253Y-79418866D01*
X69195668Y-79413963D01*
X69200580Y-79409540D01*
X69201705Y-79410789D01*
X69255014Y-79377949D01*
X69288200Y-79373500D01*
X75491800Y-79373500D01*
X75559921Y-79393502D01*
X75579147Y-79409843D01*
X75579420Y-79409540D01*
X75584332Y-79413963D01*
X75588747Y-79418866D01*
X75743248Y-79531118D01*
X75749276Y-79533802D01*
X75749278Y-79533803D01*
X75911681Y-79606109D01*
X75917712Y-79608794D01*
X76011113Y-79628647D01*
X76098056Y-79647128D01*
X76098061Y-79647128D01*
X76104513Y-79648500D01*
X76295487Y-79648500D01*
X76301939Y-79647128D01*
X76301944Y-79647128D01*
X76388887Y-79628647D01*
X76482288Y-79608794D01*
X76488319Y-79606109D01*
X76650722Y-79533803D01*
X76650724Y-79533802D01*
X76656752Y-79531118D01*
X76811253Y-79418866D01*
X76939040Y-79276944D01*
X77034527Y-79111556D01*
X77093542Y-78929928D01*
X77110907Y-78764706D01*
X77137920Y-78699050D01*
X77147122Y-78688782D01*
X77420499Y-78415405D01*
X77482811Y-78381379D01*
X77509594Y-78378500D01*
X77565487Y-78378500D01*
X77571939Y-78377128D01*
X77571944Y-78377128D01*
X77658888Y-78358647D01*
X77752288Y-78338794D01*
X77758319Y-78336109D01*
X77920722Y-78263803D01*
X77920724Y-78263802D01*
X77926752Y-78261118D01*
X78081253Y-78148866D01*
X78085675Y-78143955D01*
X78204621Y-78011852D01*
X78204622Y-78011851D01*
X78209040Y-78006944D01*
X78304527Y-77841556D01*
X78363542Y-77659928D01*
X78383504Y-77470000D01*
X78366108Y-77304488D01*
X78364232Y-77286635D01*
X78364232Y-77286633D01*
X78363542Y-77280072D01*
X78304527Y-77098444D01*
X78209040Y-76933056D01*
X78127220Y-76842185D01*
X78085675Y-76796045D01*
X78085674Y-76796044D01*
X78081253Y-76791134D01*
X77926752Y-76678882D01*
X77920724Y-76676198D01*
X77920722Y-76676197D01*
X77758319Y-76603891D01*
X77758318Y-76603891D01*
X77752288Y-76601206D01*
X77658887Y-76581353D01*
X77571944Y-76562872D01*
X77571939Y-76562872D01*
X77565487Y-76561500D01*
X77374513Y-76561500D01*
X77368061Y-76562872D01*
X77368056Y-76562872D01*
X77281113Y-76581353D01*
X77187712Y-76601206D01*
X77181682Y-76603891D01*
X77181681Y-76603891D01*
X77019278Y-76676197D01*
X77019276Y-76676198D01*
X77013248Y-76678882D01*
X77007907Y-76682762D01*
X77007906Y-76682763D01*
X76880329Y-76775454D01*
X76858747Y-76791134D01*
X76854332Y-76796037D01*
X76849420Y-76800460D01*
X76848295Y-76799211D01*
X76794986Y-76832051D01*
X76761800Y-76836500D01*
X70558200Y-76836500D01*
X70490079Y-76816498D01*
X70470853Y-76800157D01*
X70470580Y-76800460D01*
X70465668Y-76796037D01*
X70461253Y-76791134D01*
X70439671Y-76775454D01*
X70312094Y-76682763D01*
X70312093Y-76682762D01*
X70306752Y-76678882D01*
X70300724Y-76676198D01*
X70300722Y-76676197D01*
X70138319Y-76603891D01*
X70138318Y-76603891D01*
X70132288Y-76601206D01*
X70038887Y-76581353D01*
X69951944Y-76562872D01*
X69951939Y-76562872D01*
X69945487Y-76561500D01*
X69754513Y-76561500D01*
X69748061Y-76562872D01*
X69748056Y-76562872D01*
X69661113Y-76581353D01*
X69567712Y-76601206D01*
X69561682Y-76603891D01*
X69561681Y-76603891D01*
X69399278Y-76676197D01*
X69399276Y-76676198D01*
X69393248Y-76678882D01*
X69238747Y-76791134D01*
X69234326Y-76796044D01*
X69234325Y-76796045D01*
X69192781Y-76842185D01*
X69110960Y-76933056D01*
X69015473Y-77098444D01*
X68956458Y-77280072D01*
X68955768Y-77286633D01*
X68955768Y-77286635D01*
X68939093Y-77445292D01*
X68912080Y-77510949D01*
X68902878Y-77521217D01*
X68629500Y-77794595D01*
X68567188Y-77828621D01*
X68540405Y-77831500D01*
X68484513Y-77831500D01*
X68478061Y-77832872D01*
X68478056Y-77832872D01*
X68410279Y-77847279D01*
X68297712Y-77871206D01*
X68291682Y-77873891D01*
X68291681Y-77873891D01*
X68129278Y-77946197D01*
X68129276Y-77946198D01*
X68123248Y-77948882D01*
X67968747Y-78061134D01*
X67964326Y-78066044D01*
X67964325Y-78066045D01*
X67886257Y-78152749D01*
X67840960Y-78203056D01*
X67745473Y-78368444D01*
X67686458Y-78550072D01*
X67666496Y-78740000D01*
X58420000Y-78740000D01*
X58420000Y-76200000D01*
X82544647Y-76200000D01*
X82564022Y-76421463D01*
X82621560Y-76636196D01*
X82623882Y-76641177D01*
X82623883Y-76641178D01*
X82713186Y-76832689D01*
X82713189Y-76832694D01*
X82715512Y-76837676D01*
X82718668Y-76842183D01*
X82718669Y-76842185D01*
X82782298Y-76933056D01*
X82843023Y-77019781D01*
X83000219Y-77176977D01*
X83004727Y-77180134D01*
X83004730Y-77180136D01*
X83080495Y-77233187D01*
X83182323Y-77304488D01*
X83187305Y-77306811D01*
X83187310Y-77306814D01*
X83377810Y-77395645D01*
X83383804Y-77398440D01*
X83389112Y-77399862D01*
X83389114Y-77399863D01*
X83454949Y-77417503D01*
X83598537Y-77455978D01*
X83820000Y-77475353D01*
X84041463Y-77455978D01*
X84185051Y-77417503D01*
X84250886Y-77399863D01*
X84250888Y-77399862D01*
X84256196Y-77398440D01*
X84262190Y-77395645D01*
X84452690Y-77306814D01*
X84452695Y-77306811D01*
X84457677Y-77304488D01*
X84559505Y-77233187D01*
X84635270Y-77180136D01*
X84635273Y-77180134D01*
X84639781Y-77176977D01*
X84796977Y-77019781D01*
X84857703Y-76933056D01*
X84921331Y-76842185D01*
X84921332Y-76842183D01*
X84924488Y-76837676D01*
X84926811Y-76832694D01*
X84926814Y-76832689D01*
X84975805Y-76727627D01*
X85022723Y-76674342D01*
X85091000Y-76654881D01*
X85158960Y-76675423D01*
X85204195Y-76727627D01*
X85253186Y-76832689D01*
X85253189Y-76832694D01*
X85255512Y-76837676D01*
X85258668Y-76842183D01*
X85258669Y-76842185D01*
X85322298Y-76933056D01*
X85383023Y-77019781D01*
X85540219Y-77176977D01*
X85544727Y-77180134D01*
X85544730Y-77180136D01*
X85620495Y-77233187D01*
X85722323Y-77304488D01*
X85727305Y-77306811D01*
X85727310Y-77306814D01*
X85917810Y-77395645D01*
X85923804Y-77398440D01*
X85929112Y-77399862D01*
X85929114Y-77399863D01*
X85994949Y-77417503D01*
X86138537Y-77455978D01*
X86360000Y-77475353D01*
X86581463Y-77455978D01*
X86725051Y-77417503D01*
X86790886Y-77399863D01*
X86790888Y-77399862D01*
X86796196Y-77398440D01*
X86802190Y-77395645D01*
X86992690Y-77306814D01*
X86992695Y-77306811D01*
X86997677Y-77304488D01*
X87099505Y-77233187D01*
X87175270Y-77180136D01*
X87175273Y-77180134D01*
X87179781Y-77176977D01*
X87336977Y-77019781D01*
X87397703Y-76933056D01*
X87461331Y-76842185D01*
X87461332Y-76842183D01*
X87464488Y-76837676D01*
X87466811Y-76832694D01*
X87466814Y-76832689D01*
X87515805Y-76727627D01*
X87562723Y-76674342D01*
X87631000Y-76654881D01*
X87698960Y-76675423D01*
X87744195Y-76727627D01*
X87793186Y-76832689D01*
X87793189Y-76832694D01*
X87795512Y-76837676D01*
X87798668Y-76842183D01*
X87798669Y-76842185D01*
X87862298Y-76933056D01*
X87923023Y-77019781D01*
X88080219Y-77176977D01*
X88084727Y-77180134D01*
X88084730Y-77180136D01*
X88160495Y-77233187D01*
X88262323Y-77304488D01*
X88267305Y-77306811D01*
X88267310Y-77306814D01*
X88457810Y-77395645D01*
X88463804Y-77398440D01*
X88469112Y-77399862D01*
X88469114Y-77399863D01*
X88534949Y-77417503D01*
X88678537Y-77455978D01*
X88900000Y-77475353D01*
X89121463Y-77455978D01*
X89265051Y-77417503D01*
X89330886Y-77399863D01*
X89330888Y-77399862D01*
X89336196Y-77398440D01*
X89342190Y-77395645D01*
X89532690Y-77306814D01*
X89532695Y-77306811D01*
X89537677Y-77304488D01*
X89639505Y-77233187D01*
X89715270Y-77180136D01*
X89715273Y-77180134D01*
X89719781Y-77176977D01*
X89876977Y-77019781D01*
X89937703Y-76933056D01*
X90001331Y-76842185D01*
X90001332Y-76842183D01*
X90004488Y-76837676D01*
X90006811Y-76832694D01*
X90006814Y-76832689D01*
X90055805Y-76727627D01*
X90102723Y-76674342D01*
X90171000Y-76654881D01*
X90238960Y-76675423D01*
X90284195Y-76727627D01*
X90333186Y-76832689D01*
X90333189Y-76832694D01*
X90335512Y-76837676D01*
X90338668Y-76842183D01*
X90338669Y-76842185D01*
X90402298Y-76933056D01*
X90463023Y-77019781D01*
X90620219Y-77176977D01*
X90624727Y-77180134D01*
X90624730Y-77180136D01*
X90700495Y-77233187D01*
X90802323Y-77304488D01*
X90807305Y-77306811D01*
X90807310Y-77306814D01*
X90997810Y-77395645D01*
X91003804Y-77398440D01*
X91009112Y-77399862D01*
X91009114Y-77399863D01*
X91074949Y-77417503D01*
X91218537Y-77455978D01*
X91440000Y-77475353D01*
X91661463Y-77455978D01*
X91805051Y-77417503D01*
X91870886Y-77399863D01*
X91870888Y-77399862D01*
X91876196Y-77398440D01*
X91882190Y-77395645D01*
X92072690Y-77306814D01*
X92072695Y-77306811D01*
X92077677Y-77304488D01*
X92179505Y-77233187D01*
X92255270Y-77180136D01*
X92255273Y-77180134D01*
X92259781Y-77176977D01*
X92416977Y-77019781D01*
X92477703Y-76933056D01*
X92541331Y-76842185D01*
X92541332Y-76842183D01*
X92544488Y-76837676D01*
X92546811Y-76832694D01*
X92546814Y-76832689D01*
X92595805Y-76727627D01*
X92642723Y-76674342D01*
X92711000Y-76654881D01*
X92778960Y-76675423D01*
X92824195Y-76727627D01*
X92873186Y-76832689D01*
X92873189Y-76832694D01*
X92875512Y-76837676D01*
X92878668Y-76842183D01*
X92878669Y-76842185D01*
X92942298Y-76933056D01*
X93003023Y-77019781D01*
X93160219Y-77176977D01*
X93164727Y-77180134D01*
X93164730Y-77180136D01*
X93240495Y-77233187D01*
X93342323Y-77304488D01*
X93347305Y-77306811D01*
X93347310Y-77306814D01*
X93537810Y-77395645D01*
X93543804Y-77398440D01*
X93549112Y-77399862D01*
X93549114Y-77399863D01*
X93614949Y-77417503D01*
X93758537Y-77455978D01*
X93980000Y-77475353D01*
X94201463Y-77455978D01*
X94345051Y-77417503D01*
X94410886Y-77399863D01*
X94410888Y-77399862D01*
X94416196Y-77398440D01*
X94422190Y-77395645D01*
X94612690Y-77306814D01*
X94612695Y-77306811D01*
X94617677Y-77304488D01*
X94719505Y-77233187D01*
X94795270Y-77180136D01*
X94795273Y-77180134D01*
X94799781Y-77176977D01*
X94956977Y-77019781D01*
X95017703Y-76933056D01*
X95081331Y-76842185D01*
X95081332Y-76842183D01*
X95084488Y-76837676D01*
X95086811Y-76832694D01*
X95086814Y-76832689D01*
X95135805Y-76727627D01*
X95182723Y-76674342D01*
X95251000Y-76654881D01*
X95318960Y-76675423D01*
X95364195Y-76727627D01*
X95413186Y-76832689D01*
X95413189Y-76832694D01*
X95415512Y-76837676D01*
X95418668Y-76842183D01*
X95418669Y-76842185D01*
X95482298Y-76933056D01*
X95543023Y-77019781D01*
X95700219Y-77176977D01*
X95704727Y-77180134D01*
X95704730Y-77180136D01*
X95780495Y-77233187D01*
X95882323Y-77304488D01*
X95887305Y-77306811D01*
X95887310Y-77306814D01*
X96077810Y-77395645D01*
X96083804Y-77398440D01*
X96089112Y-77399862D01*
X96089114Y-77399863D01*
X96154949Y-77417503D01*
X96298537Y-77455978D01*
X96520000Y-77475353D01*
X96741463Y-77455978D01*
X96885051Y-77417503D01*
X96950886Y-77399863D01*
X96950888Y-77399862D01*
X96956196Y-77398440D01*
X96962190Y-77395645D01*
X97152690Y-77306814D01*
X97152695Y-77306811D01*
X97157677Y-77304488D01*
X97259505Y-77233187D01*
X97335270Y-77180136D01*
X97335273Y-77180134D01*
X97339781Y-77176977D01*
X97496977Y-77019781D01*
X97557703Y-76933056D01*
X97621331Y-76842185D01*
X97621332Y-76842183D01*
X97624488Y-76837676D01*
X97626811Y-76832694D01*
X97626814Y-76832689D01*
X97675805Y-76727627D01*
X97722723Y-76674342D01*
X97791000Y-76654881D01*
X97858960Y-76675423D01*
X97904195Y-76727627D01*
X97953186Y-76832689D01*
X97953189Y-76832694D01*
X97955512Y-76837676D01*
X97958668Y-76842183D01*
X97958669Y-76842185D01*
X98022298Y-76933056D01*
X98083023Y-77019781D01*
X98240219Y-77176977D01*
X98244727Y-77180134D01*
X98244730Y-77180136D01*
X98320495Y-77233187D01*
X98422323Y-77304488D01*
X98427305Y-77306811D01*
X98427310Y-77306814D01*
X98617810Y-77395645D01*
X98623804Y-77398440D01*
X98629112Y-77399862D01*
X98629114Y-77399863D01*
X98694949Y-77417503D01*
X98838537Y-77455978D01*
X99060000Y-77475353D01*
X99281463Y-77455978D01*
X99425051Y-77417503D01*
X99490886Y-77399863D01*
X99490888Y-77399862D01*
X99496196Y-77398440D01*
X99502190Y-77395645D01*
X99692690Y-77306814D01*
X99692695Y-77306811D01*
X99697677Y-77304488D01*
X99762959Y-77258777D01*
X100905777Y-77258777D01*
X100915074Y-77270793D01*
X100958069Y-77300898D01*
X100967555Y-77306376D01*
X101158993Y-77395645D01*
X101169285Y-77399391D01*
X101373309Y-77454059D01*
X101384104Y-77455962D01*
X101594525Y-77474372D01*
X101605475Y-77474372D01*
X101815896Y-77455962D01*
X101826691Y-77454059D01*
X102030715Y-77399391D01*
X102041007Y-77395645D01*
X102232445Y-77306376D01*
X102241931Y-77300898D01*
X102285764Y-77270207D01*
X102294139Y-77259729D01*
X102287071Y-77246281D01*
X101612812Y-76572022D01*
X101598868Y-76564408D01*
X101597035Y-76564539D01*
X101590420Y-76568790D01*
X100912207Y-77247003D01*
X100905777Y-77258777D01*
X99762959Y-77258777D01*
X99799505Y-77233187D01*
X99875270Y-77180136D01*
X99875273Y-77180134D01*
X99879781Y-77176977D01*
X100036977Y-77019781D01*
X100097703Y-76933056D01*
X100161331Y-76842185D01*
X100161332Y-76842183D01*
X100164488Y-76837676D01*
X100166811Y-76832694D01*
X100166814Y-76832689D01*
X100216081Y-76727035D01*
X100262999Y-76673750D01*
X100331276Y-76654289D01*
X100399236Y-76674831D01*
X100444471Y-76727035D01*
X100493623Y-76832441D01*
X100499103Y-76841932D01*
X100529794Y-76885765D01*
X100540271Y-76894140D01*
X100553718Y-76887072D01*
X101227978Y-76212812D01*
X101234356Y-76201132D01*
X101964408Y-76201132D01*
X101964539Y-76202965D01*
X101968790Y-76209580D01*
X102647003Y-76887793D01*
X102658777Y-76894223D01*
X102670793Y-76884926D01*
X102700897Y-76841932D01*
X102706377Y-76832441D01*
X102755529Y-76727035D01*
X102802447Y-76673750D01*
X102870724Y-76654289D01*
X102938684Y-76674831D01*
X102983919Y-76727035D01*
X103033186Y-76832689D01*
X103033189Y-76832694D01*
X103035512Y-76837676D01*
X103038668Y-76842183D01*
X103038669Y-76842185D01*
X103102298Y-76933056D01*
X103163023Y-77019781D01*
X103320219Y-77176977D01*
X103324727Y-77180134D01*
X103324730Y-77180136D01*
X103400495Y-77233187D01*
X103502323Y-77304488D01*
X103507305Y-77306811D01*
X103507310Y-77306814D01*
X103697810Y-77395645D01*
X103703804Y-77398440D01*
X103709112Y-77399862D01*
X103709114Y-77399863D01*
X103774949Y-77417503D01*
X103918537Y-77455978D01*
X104140000Y-77475353D01*
X104201187Y-77470000D01*
X109576496Y-77470000D01*
X109596458Y-77659928D01*
X109655473Y-77841556D01*
X109750960Y-78006944D01*
X109755378Y-78011851D01*
X109755379Y-78011852D01*
X109874325Y-78143955D01*
X109878747Y-78148866D01*
X110033248Y-78261118D01*
X110039276Y-78263802D01*
X110039278Y-78263803D01*
X110201681Y-78336109D01*
X110207712Y-78338794D01*
X110301112Y-78358647D01*
X110388056Y-78377128D01*
X110388061Y-78377128D01*
X110394513Y-78378500D01*
X110450406Y-78378500D01*
X110518527Y-78398502D01*
X110539501Y-78415405D01*
X110812878Y-78688782D01*
X110846904Y-78751094D01*
X110849092Y-78764703D01*
X110866458Y-78929928D01*
X110925473Y-79111556D01*
X111020960Y-79276944D01*
X111148747Y-79418866D01*
X111303248Y-79531118D01*
X111309276Y-79533802D01*
X111309278Y-79533803D01*
X111471681Y-79606109D01*
X111477712Y-79608794D01*
X111571113Y-79628647D01*
X111658056Y-79647128D01*
X111658061Y-79647128D01*
X111664513Y-79648500D01*
X111855487Y-79648500D01*
X111861939Y-79647128D01*
X111861944Y-79647128D01*
X111948887Y-79628647D01*
X112042288Y-79608794D01*
X112048319Y-79606109D01*
X112210722Y-79533803D01*
X112210724Y-79533802D01*
X112216752Y-79531118D01*
X112371253Y-79418866D01*
X112375668Y-79413963D01*
X112380580Y-79409540D01*
X112381705Y-79410789D01*
X112435014Y-79377949D01*
X112468200Y-79373500D01*
X118671800Y-79373500D01*
X118739921Y-79393502D01*
X118759147Y-79409843D01*
X118759420Y-79409540D01*
X118764332Y-79413963D01*
X118768747Y-79418866D01*
X118923248Y-79531118D01*
X118929276Y-79533802D01*
X118929278Y-79533803D01*
X119091681Y-79606109D01*
X119097712Y-79608794D01*
X119191113Y-79628647D01*
X119278056Y-79647128D01*
X119278061Y-79647128D01*
X119284513Y-79648500D01*
X119475487Y-79648500D01*
X119481939Y-79647128D01*
X119481944Y-79647128D01*
X119568887Y-79628647D01*
X119662288Y-79608794D01*
X119668319Y-79606109D01*
X119830722Y-79533803D01*
X119830724Y-79533802D01*
X119836752Y-79531118D01*
X119991253Y-79418866D01*
X120119040Y-79276944D01*
X120214527Y-79111556D01*
X120273542Y-78929928D01*
X120293504Y-78740000D01*
X120273542Y-78550072D01*
X120214527Y-78368444D01*
X120119040Y-78203056D01*
X120073744Y-78152749D01*
X119995675Y-78066045D01*
X119995674Y-78066044D01*
X119991253Y-78061134D01*
X119836752Y-77948882D01*
X119830724Y-77946198D01*
X119830722Y-77946197D01*
X119668319Y-77873891D01*
X119668318Y-77873891D01*
X119662288Y-77871206D01*
X119549721Y-77847279D01*
X119481944Y-77832872D01*
X119481939Y-77832872D01*
X119475487Y-77831500D01*
X119419595Y-77831500D01*
X119351474Y-77811498D01*
X119330500Y-77794595D01*
X119057122Y-77521217D01*
X119023096Y-77458905D01*
X119020907Y-77445292D01*
X119004232Y-77286635D01*
X119004232Y-77286633D01*
X119003542Y-77280072D01*
X118944527Y-77098444D01*
X118849040Y-76933056D01*
X118767220Y-76842185D01*
X118725675Y-76796045D01*
X118725674Y-76796044D01*
X118721253Y-76791134D01*
X118566752Y-76678882D01*
X118560724Y-76676198D01*
X118560722Y-76676197D01*
X118398319Y-76603891D01*
X118398318Y-76603891D01*
X118392288Y-76601206D01*
X118298887Y-76581353D01*
X118211944Y-76562872D01*
X118211939Y-76562872D01*
X118205487Y-76561500D01*
X118014513Y-76561500D01*
X118008061Y-76562872D01*
X118008056Y-76562872D01*
X117921113Y-76581353D01*
X117827712Y-76601206D01*
X117821682Y-76603891D01*
X117821681Y-76603891D01*
X117659278Y-76676197D01*
X117659276Y-76676198D01*
X117653248Y-76678882D01*
X117647907Y-76682762D01*
X117647906Y-76682763D01*
X117520329Y-76775454D01*
X117498747Y-76791134D01*
X117494332Y-76796037D01*
X117489420Y-76800460D01*
X117488295Y-76799211D01*
X117434986Y-76832051D01*
X117401800Y-76836500D01*
X111198200Y-76836500D01*
X111130079Y-76816498D01*
X111110853Y-76800157D01*
X111110580Y-76800460D01*
X111105668Y-76796037D01*
X111101253Y-76791134D01*
X111079671Y-76775454D01*
X110952094Y-76682763D01*
X110952093Y-76682762D01*
X110946752Y-76678882D01*
X110940724Y-76676198D01*
X110940722Y-76676197D01*
X110778319Y-76603891D01*
X110778318Y-76603891D01*
X110772288Y-76601206D01*
X110678887Y-76581353D01*
X110591944Y-76562872D01*
X110591939Y-76562872D01*
X110585487Y-76561500D01*
X110394513Y-76561500D01*
X110388061Y-76562872D01*
X110388056Y-76562872D01*
X110301113Y-76581353D01*
X110207712Y-76601206D01*
X110201682Y-76603891D01*
X110201681Y-76603891D01*
X110039278Y-76676197D01*
X110039276Y-76676198D01*
X110033248Y-76678882D01*
X109878747Y-76791134D01*
X109874326Y-76796044D01*
X109874325Y-76796045D01*
X109832781Y-76842185D01*
X109750960Y-76933056D01*
X109655473Y-77098444D01*
X109596458Y-77280072D01*
X109595768Y-77286633D01*
X109595768Y-77286635D01*
X109593892Y-77304488D01*
X109576496Y-77470000D01*
X104201187Y-77470000D01*
X104361463Y-77455978D01*
X104505051Y-77417503D01*
X104570886Y-77399863D01*
X104570888Y-77399862D01*
X104576196Y-77398440D01*
X104582190Y-77395645D01*
X104772690Y-77306814D01*
X104772695Y-77306811D01*
X104777677Y-77304488D01*
X104879505Y-77233187D01*
X104955270Y-77180136D01*
X104955273Y-77180134D01*
X104959781Y-77176977D01*
X105116977Y-77019781D01*
X105177703Y-76933056D01*
X105241331Y-76842185D01*
X105241332Y-76842183D01*
X105244488Y-76837676D01*
X105246811Y-76832694D01*
X105246814Y-76832689D01*
X105336117Y-76641178D01*
X105336118Y-76641177D01*
X105338440Y-76636196D01*
X105395978Y-76421463D01*
X105415353Y-76200000D01*
X105395978Y-75978537D01*
X105338440Y-75763804D01*
X105295805Y-75672373D01*
X105246814Y-75567311D01*
X105246811Y-75567306D01*
X105244488Y-75562324D01*
X105241331Y-75557815D01*
X105120136Y-75384730D01*
X105120134Y-75384727D01*
X105116977Y-75380219D01*
X104959781Y-75223023D01*
X104955273Y-75219866D01*
X104955270Y-75219864D01*
X104879505Y-75166813D01*
X104777677Y-75095512D01*
X104772695Y-75093189D01*
X104772690Y-75093186D01*
X104581178Y-75003883D01*
X104581177Y-75003882D01*
X104576196Y-75001560D01*
X104570888Y-75000138D01*
X104570886Y-75000137D01*
X104456842Y-74969579D01*
X104361463Y-74944022D01*
X104140000Y-74924647D01*
X103918537Y-74944022D01*
X103823158Y-74969579D01*
X103709114Y-75000137D01*
X103709112Y-75000138D01*
X103703804Y-75001560D01*
X103698823Y-75003882D01*
X103698822Y-75003883D01*
X103507311Y-75093186D01*
X103507306Y-75093189D01*
X103502324Y-75095512D01*
X103497817Y-75098668D01*
X103497815Y-75098669D01*
X103324730Y-75219864D01*
X103324727Y-75219866D01*
X103320219Y-75223023D01*
X103163023Y-75380219D01*
X103159866Y-75384727D01*
X103159864Y-75384730D01*
X103038669Y-75557815D01*
X103035512Y-75562324D01*
X103033189Y-75567306D01*
X103033186Y-75567311D01*
X102983919Y-75672965D01*
X102937001Y-75726250D01*
X102868724Y-75745711D01*
X102800764Y-75725169D01*
X102755529Y-75672965D01*
X102706377Y-75567559D01*
X102700897Y-75558068D01*
X102670206Y-75514235D01*
X102659729Y-75505860D01*
X102646282Y-75512928D01*
X101972022Y-76187188D01*
X101964408Y-76201132D01*
X101234356Y-76201132D01*
X101235592Y-76198868D01*
X101235461Y-76197035D01*
X101231210Y-76190420D01*
X100552997Y-75512207D01*
X100541223Y-75505777D01*
X100529207Y-75515074D01*
X100499103Y-75558068D01*
X100493623Y-75567559D01*
X100444471Y-75672965D01*
X100397553Y-75726250D01*
X100329276Y-75745711D01*
X100261316Y-75725169D01*
X100216081Y-75672965D01*
X100166814Y-75567311D01*
X100166811Y-75567306D01*
X100164488Y-75562324D01*
X100161331Y-75557815D01*
X100040136Y-75384730D01*
X100040134Y-75384727D01*
X100036977Y-75380219D01*
X99879781Y-75223023D01*
X99875273Y-75219866D01*
X99875270Y-75219864D01*
X99794275Y-75163151D01*
X99761599Y-75140271D01*
X100905860Y-75140271D01*
X100912928Y-75153718D01*
X101587188Y-75827978D01*
X101601132Y-75835592D01*
X101602965Y-75835461D01*
X101609580Y-75831210D01*
X102287793Y-75152997D01*
X102294223Y-75141223D01*
X102284926Y-75129207D01*
X102241931Y-75099102D01*
X102232445Y-75093624D01*
X102041007Y-75004355D01*
X102030715Y-75000609D01*
X101826691Y-74945941D01*
X101815896Y-74944038D01*
X101605475Y-74925628D01*
X101594525Y-74925628D01*
X101384104Y-74944038D01*
X101373309Y-74945941D01*
X101169285Y-75000609D01*
X101158993Y-75004355D01*
X100967559Y-75093623D01*
X100958068Y-75099103D01*
X100914235Y-75129794D01*
X100905860Y-75140271D01*
X99761599Y-75140271D01*
X99747229Y-75130209D01*
X99702901Y-75074752D01*
X99693500Y-75026996D01*
X99693500Y-74554669D01*
X123102001Y-74554669D01*
X123102371Y-74561490D01*
X123107895Y-74612352D01*
X123111521Y-74627604D01*
X123156676Y-74748054D01*
X123165214Y-74763649D01*
X123241715Y-74865724D01*
X123254276Y-74878285D01*
X123356351Y-74954786D01*
X123371946Y-74963324D01*
X123492394Y-75008478D01*
X123507649Y-75012105D01*
X123558514Y-75017631D01*
X123565328Y-75018000D01*
X124187885Y-75018000D01*
X124203124Y-75013525D01*
X124204329Y-75012135D01*
X124206000Y-75004452D01*
X124206000Y-74999884D01*
X124714000Y-74999884D01*
X124718475Y-75015123D01*
X124719865Y-75016328D01*
X124727548Y-75017999D01*
X125354669Y-75017999D01*
X125361490Y-75017629D01*
X125412352Y-75012105D01*
X125427604Y-75008479D01*
X125548054Y-74963324D01*
X125563649Y-74954786D01*
X125665724Y-74878285D01*
X125678285Y-74865724D01*
X125754786Y-74763649D01*
X125763325Y-74748052D01*
X125804425Y-74638418D01*
X125847066Y-74581653D01*
X125913628Y-74556953D01*
X125982977Y-74572160D01*
X126017645Y-74600150D01*
X126043219Y-74629674D01*
X126050580Y-74636883D01*
X126214434Y-74772916D01*
X126222881Y-74778831D01*
X126406756Y-74886279D01*
X126416042Y-74890729D01*
X126615001Y-74966703D01*
X126624899Y-74969579D01*
X126728250Y-74990606D01*
X126742299Y-74989410D01*
X126746000Y-74979065D01*
X126746000Y-74978517D01*
X127254000Y-74978517D01*
X127258064Y-74992359D01*
X127271478Y-74994393D01*
X127278184Y-74993534D01*
X127288262Y-74991392D01*
X127492255Y-74930191D01*
X127501842Y-74926433D01*
X127693095Y-74832739D01*
X127701945Y-74827464D01*
X127875328Y-74703792D01*
X127883200Y-74697139D01*
X128034052Y-74546812D01*
X128040730Y-74538965D01*
X128165003Y-74366020D01*
X128170313Y-74357183D01*
X128264670Y-74166267D01*
X128268469Y-74156672D01*
X128330377Y-73952910D01*
X128332555Y-73942837D01*
X128333986Y-73931962D01*
X128331775Y-73917778D01*
X128318617Y-73914000D01*
X127272115Y-73914000D01*
X127256876Y-73918475D01*
X127255671Y-73919865D01*
X127254000Y-73927548D01*
X127254000Y-74978517D01*
X126746000Y-74978517D01*
X126746000Y-73932115D01*
X126741525Y-73916876D01*
X126740135Y-73915671D01*
X126732452Y-73914000D01*
X124732115Y-73914000D01*
X124716876Y-73918475D01*
X124715671Y-73919865D01*
X124714000Y-73927548D01*
X124714000Y-74999884D01*
X124206000Y-74999884D01*
X124206000Y-73932115D01*
X124201525Y-73916876D01*
X124200135Y-73915671D01*
X124192452Y-73914000D01*
X123120116Y-73914000D01*
X123104877Y-73918475D01*
X123103672Y-73919865D01*
X123102001Y-73927548D01*
X123102001Y-74554669D01*
X99693500Y-74554669D01*
X99693500Y-71086695D01*
X123097251Y-71086695D01*
X123097548Y-71091848D01*
X123097548Y-71091851D01*
X123103011Y-71186590D01*
X123110110Y-71309715D01*
X123111247Y-71314761D01*
X123111248Y-71314767D01*
X123131119Y-71402939D01*
X123159222Y-71527639D01*
X123243266Y-71734616D01*
X123294019Y-71817438D01*
X123357291Y-71920688D01*
X123359987Y-71925088D01*
X123506250Y-72093938D01*
X123510225Y-72097238D01*
X123510231Y-72097244D01*
X123515425Y-72101556D01*
X123555059Y-72160460D01*
X123556555Y-72231441D01*
X123519439Y-72291962D01*
X123479168Y-72316480D01*
X123371946Y-72356676D01*
X123356351Y-72365214D01*
X123254276Y-72441715D01*
X123241715Y-72454276D01*
X123165214Y-72556351D01*
X123156676Y-72571946D01*
X123111522Y-72692394D01*
X123107895Y-72707649D01*
X123102369Y-72758514D01*
X123102000Y-72765328D01*
X123102000Y-73387885D01*
X123106475Y-73403124D01*
X123107865Y-73404329D01*
X123115548Y-73406000D01*
X128318344Y-73406000D01*
X128331875Y-73402027D01*
X128333180Y-73392947D01*
X128291214Y-73225875D01*
X128287894Y-73216124D01*
X128202972Y-73020814D01*
X128198105Y-73011739D01*
X128082426Y-72832926D01*
X128076136Y-72824757D01*
X127932806Y-72667240D01*
X127925273Y-72660215D01*
X127758139Y-72528222D01*
X127749556Y-72522520D01*
X127712602Y-72502120D01*
X127662631Y-72451687D01*
X127647859Y-72382245D01*
X127672975Y-72315839D01*
X127700327Y-72289232D01*
X127723797Y-72272491D01*
X127879860Y-72161173D01*
X127904323Y-72136796D01*
X128034435Y-72007137D01*
X128038096Y-72003489D01*
X128097594Y-71920689D01*
X128165435Y-71826277D01*
X128168453Y-71822077D01*
X128189320Y-71779857D01*
X128265136Y-71626453D01*
X128265137Y-71626451D01*
X128267430Y-71621811D01*
X128332370Y-71408069D01*
X128361529Y-71186590D01*
X128363156Y-71120000D01*
X128344852Y-70897361D01*
X128290431Y-70680702D01*
X128201354Y-70475840D01*
X128080014Y-70288277D01*
X127929670Y-70123051D01*
X127925619Y-70119852D01*
X127925615Y-70119848D01*
X127758414Y-69987800D01*
X127758410Y-69987798D01*
X127754359Y-69984598D01*
X127713053Y-69961796D01*
X127663084Y-69911364D01*
X127648312Y-69841921D01*
X127673428Y-69775516D01*
X127700780Y-69748909D01*
X127744603Y-69717650D01*
X127879860Y-69621173D01*
X128038096Y-69463489D01*
X128097594Y-69380689D01*
X128165435Y-69286277D01*
X128168453Y-69282077D01*
X128178267Y-69262221D01*
X128265136Y-69086453D01*
X128265137Y-69086451D01*
X128267430Y-69081811D01*
X128332370Y-68868069D01*
X128361529Y-68646590D01*
X128363156Y-68580000D01*
X128344852Y-68357361D01*
X128290431Y-68140702D01*
X128201354Y-67935840D01*
X128161906Y-67874862D01*
X128082822Y-67752617D01*
X128082820Y-67752614D01*
X128080014Y-67748277D01*
X127929670Y-67583051D01*
X127925619Y-67579852D01*
X127925615Y-67579848D01*
X127758414Y-67447800D01*
X127758410Y-67447798D01*
X127754359Y-67444598D01*
X127713053Y-67421796D01*
X127663084Y-67371364D01*
X127648312Y-67301921D01*
X127673428Y-67235516D01*
X127700780Y-67208909D01*
X127744603Y-67177650D01*
X127879860Y-67081173D01*
X128038096Y-66923489D01*
X128097594Y-66840689D01*
X128165435Y-66746277D01*
X128168453Y-66742077D01*
X128178267Y-66722221D01*
X128265136Y-66546453D01*
X128265137Y-66546451D01*
X128267430Y-66541811D01*
X128332370Y-66328069D01*
X128361529Y-66106590D01*
X128363156Y-66040000D01*
X128344852Y-65817361D01*
X128290431Y-65600702D01*
X128201354Y-65395840D01*
X128161906Y-65334862D01*
X128082822Y-65212617D01*
X128082820Y-65212614D01*
X128080014Y-65208277D01*
X127929670Y-65043051D01*
X127925619Y-65039852D01*
X127925615Y-65039848D01*
X127758414Y-64907800D01*
X127758410Y-64907798D01*
X127754359Y-64904598D01*
X127713053Y-64881796D01*
X127663084Y-64831364D01*
X127648312Y-64761921D01*
X127673428Y-64695516D01*
X127700780Y-64668909D01*
X127744603Y-64637650D01*
X127879860Y-64541173D01*
X128038096Y-64383489D01*
X128097594Y-64300689D01*
X128165435Y-64206277D01*
X128168453Y-64202077D01*
X128178267Y-64182221D01*
X128265136Y-64006453D01*
X128265137Y-64006451D01*
X128267430Y-64001811D01*
X128332370Y-63788069D01*
X128361529Y-63566590D01*
X128363156Y-63500000D01*
X128344852Y-63277361D01*
X128290431Y-63060702D01*
X128201354Y-62855840D01*
X128143845Y-62766944D01*
X128082822Y-62672617D01*
X128082820Y-62672614D01*
X128080014Y-62668277D01*
X127929670Y-62503051D01*
X127925619Y-62499852D01*
X127925615Y-62499848D01*
X127758414Y-62367800D01*
X127758410Y-62367798D01*
X127754359Y-62364598D01*
X127713053Y-62341796D01*
X127663084Y-62291364D01*
X127648312Y-62221921D01*
X127673428Y-62155516D01*
X127700780Y-62128909D01*
X127744603Y-62097650D01*
X127879860Y-62001173D01*
X128038096Y-61843489D01*
X128047670Y-61830166D01*
X128165435Y-61666277D01*
X128168453Y-61662077D01*
X128178006Y-61642749D01*
X128265136Y-61466453D01*
X128265137Y-61466451D01*
X128267430Y-61461811D01*
X128332370Y-61248069D01*
X128361529Y-61026590D01*
X128363156Y-60960000D01*
X128344852Y-60737361D01*
X128290431Y-60520702D01*
X128201354Y-60315840D01*
X128143845Y-60226944D01*
X128082822Y-60132617D01*
X128082820Y-60132614D01*
X128080014Y-60128277D01*
X127929670Y-59963051D01*
X127925619Y-59959852D01*
X127925615Y-59959848D01*
X127758414Y-59827800D01*
X127758410Y-59827798D01*
X127754359Y-59824598D01*
X127558789Y-59716638D01*
X127553920Y-59714914D01*
X127553916Y-59714912D01*
X127353087Y-59643795D01*
X127353083Y-59643794D01*
X127348212Y-59642069D01*
X127343119Y-59641162D01*
X127343116Y-59641161D01*
X127133373Y-59603800D01*
X127133367Y-59603799D01*
X127128284Y-59602894D01*
X127054452Y-59601992D01*
X126910081Y-59600228D01*
X126910079Y-59600228D01*
X126904911Y-59600165D01*
X126684091Y-59633955D01*
X126471756Y-59703357D01*
X126273607Y-59806507D01*
X126269474Y-59809610D01*
X126269471Y-59809612D01*
X126099100Y-59937530D01*
X126094965Y-59940635D01*
X125940629Y-60102138D01*
X125833201Y-60259621D01*
X125778293Y-60304621D01*
X125707768Y-60312792D01*
X125644021Y-60281538D01*
X125623324Y-60257054D01*
X125542822Y-60132617D01*
X125542820Y-60132614D01*
X125540014Y-60128277D01*
X125389670Y-59963051D01*
X125385619Y-59959852D01*
X125385615Y-59959848D01*
X125218414Y-59827800D01*
X125218410Y-59827798D01*
X125214359Y-59824598D01*
X125018789Y-59716638D01*
X125013920Y-59714914D01*
X125013916Y-59714912D01*
X124813087Y-59643795D01*
X124813083Y-59643794D01*
X124808212Y-59642069D01*
X124803119Y-59641162D01*
X124803116Y-59641161D01*
X124593373Y-59603800D01*
X124593367Y-59603799D01*
X124588284Y-59602894D01*
X124514452Y-59601992D01*
X124370081Y-59600228D01*
X124370079Y-59600228D01*
X124364911Y-59600165D01*
X124144091Y-59633955D01*
X123931756Y-59703357D01*
X123733607Y-59806507D01*
X123729474Y-59809610D01*
X123729471Y-59809612D01*
X123559100Y-59937530D01*
X123554965Y-59940635D01*
X123400629Y-60102138D01*
X123274743Y-60286680D01*
X123249163Y-60341787D01*
X123186290Y-60477237D01*
X123180688Y-60489305D01*
X123120989Y-60704570D01*
X123097251Y-60926695D01*
X123097548Y-60931848D01*
X123097548Y-60931851D01*
X123103011Y-61026590D01*
X123110110Y-61149715D01*
X123111247Y-61154761D01*
X123111248Y-61154767D01*
X123131119Y-61242939D01*
X123159222Y-61367639D01*
X123243266Y-61574616D01*
X123282638Y-61638866D01*
X123357291Y-61760688D01*
X123359987Y-61765088D01*
X123506250Y-61933938D01*
X123678126Y-62076632D01*
X123748595Y-62117811D01*
X123751445Y-62119476D01*
X123800169Y-62171114D01*
X123813240Y-62240897D01*
X123786509Y-62306669D01*
X123746055Y-62340027D01*
X123733607Y-62346507D01*
X123729474Y-62349610D01*
X123729471Y-62349612D01*
X123559100Y-62477530D01*
X123554965Y-62480635D01*
X123400629Y-62642138D01*
X123274743Y-62826680D01*
X123259003Y-62860590D01*
X123186290Y-63017237D01*
X123180688Y-63029305D01*
X123120989Y-63244570D01*
X123097251Y-63466695D01*
X123097548Y-63471848D01*
X123097548Y-63471851D01*
X123103011Y-63566590D01*
X123110110Y-63689715D01*
X123111247Y-63694761D01*
X123111248Y-63694767D01*
X123131119Y-63782939D01*
X123159222Y-63907639D01*
X123243266Y-64114616D01*
X123284694Y-64182221D01*
X123357291Y-64300688D01*
X123359987Y-64305088D01*
X123506250Y-64473938D01*
X123678126Y-64616632D01*
X123748595Y-64657811D01*
X123751445Y-64659476D01*
X123800169Y-64711114D01*
X123813240Y-64780897D01*
X123786509Y-64846669D01*
X123746055Y-64880027D01*
X123733607Y-64886507D01*
X123729474Y-64889610D01*
X123729471Y-64889612D01*
X123705247Y-64907800D01*
X123554965Y-65020635D01*
X123400629Y-65182138D01*
X123274743Y-65366680D01*
X123180688Y-65569305D01*
X123120989Y-65784570D01*
X123097251Y-66006695D01*
X123097548Y-66011848D01*
X123097548Y-66011851D01*
X123103011Y-66106590D01*
X123110110Y-66229715D01*
X123111247Y-66234761D01*
X123111248Y-66234767D01*
X123131119Y-66322939D01*
X123159222Y-66447639D01*
X123243266Y-66654616D01*
X123284694Y-66722221D01*
X123357291Y-66840688D01*
X123359987Y-66845088D01*
X123506250Y-67013938D01*
X123678126Y-67156632D01*
X123748595Y-67197811D01*
X123751445Y-67199476D01*
X123800169Y-67251114D01*
X123813240Y-67320897D01*
X123786509Y-67386669D01*
X123746055Y-67420027D01*
X123733607Y-67426507D01*
X123729474Y-67429610D01*
X123729471Y-67429612D01*
X123705247Y-67447800D01*
X123554965Y-67560635D01*
X123400629Y-67722138D01*
X123274743Y-67906680D01*
X123180688Y-68109305D01*
X123120989Y-68324570D01*
X123097251Y-68546695D01*
X123097548Y-68551848D01*
X123097548Y-68551851D01*
X123103011Y-68646590D01*
X123110110Y-68769715D01*
X123111247Y-68774761D01*
X123111248Y-68774767D01*
X123131119Y-68862939D01*
X123159222Y-68987639D01*
X123243266Y-69194616D01*
X123284694Y-69262221D01*
X123357291Y-69380688D01*
X123359987Y-69385088D01*
X123506250Y-69553938D01*
X123678126Y-69696632D01*
X123748595Y-69737811D01*
X123751445Y-69739476D01*
X123800169Y-69791114D01*
X123813240Y-69860897D01*
X123786509Y-69926669D01*
X123746055Y-69960027D01*
X123733607Y-69966507D01*
X123729474Y-69969610D01*
X123729471Y-69969612D01*
X123705247Y-69987800D01*
X123554965Y-70100635D01*
X123400629Y-70262138D01*
X123274743Y-70446680D01*
X123180688Y-70649305D01*
X123120989Y-70864570D01*
X123097251Y-71086695D01*
X99693500Y-71086695D01*
X99693500Y-69282524D01*
X99713502Y-69214403D01*
X99725858Y-69198221D01*
X99799040Y-69116944D01*
X99870931Y-68992425D01*
X99891223Y-68957279D01*
X99891224Y-68957278D01*
X99894527Y-68951556D01*
X99953542Y-68769928D01*
X99966157Y-68649908D01*
X99972814Y-68586565D01*
X99973504Y-68580000D01*
X99953542Y-68390072D01*
X99894527Y-68208444D01*
X99799040Y-68043056D01*
X99702503Y-67935840D01*
X99675675Y-67906045D01*
X99675674Y-67906044D01*
X99671253Y-67901134D01*
X99516752Y-67788882D01*
X99510724Y-67786198D01*
X99510722Y-67786197D01*
X99348319Y-67713891D01*
X99348318Y-67713891D01*
X99342288Y-67711206D01*
X99248888Y-67691353D01*
X99161944Y-67672872D01*
X99161939Y-67672872D01*
X99155487Y-67671500D01*
X98964513Y-67671500D01*
X98958061Y-67672872D01*
X98958056Y-67672872D01*
X98871112Y-67691353D01*
X98777712Y-67711206D01*
X98771682Y-67713891D01*
X98771681Y-67713891D01*
X98609278Y-67786197D01*
X98609276Y-67786198D01*
X98603248Y-67788882D01*
X98448747Y-67901134D01*
X98444326Y-67906044D01*
X98444325Y-67906045D01*
X98417498Y-67935840D01*
X98320960Y-68043056D01*
X98225473Y-68208444D01*
X98166458Y-68390072D01*
X98146496Y-68580000D01*
X98147186Y-68586565D01*
X98153844Y-68649908D01*
X98166458Y-68769928D01*
X98225473Y-68951556D01*
X98228776Y-68957278D01*
X98228777Y-68957279D01*
X98249069Y-68992425D01*
X98320960Y-69116944D01*
X98394137Y-69198215D01*
X98424853Y-69262221D01*
X98426500Y-69282524D01*
X98426500Y-75026996D01*
X98406498Y-75095117D01*
X98372771Y-75130209D01*
X98244730Y-75219864D01*
X98244727Y-75219866D01*
X98240219Y-75223023D01*
X98083023Y-75380219D01*
X98079866Y-75384727D01*
X98079864Y-75384730D01*
X97958669Y-75557815D01*
X97955512Y-75562324D01*
X97953189Y-75567306D01*
X97953186Y-75567311D01*
X97904195Y-75672373D01*
X97857277Y-75725658D01*
X97789000Y-75745119D01*
X97721040Y-75724577D01*
X97675805Y-75672373D01*
X97626814Y-75567311D01*
X97626811Y-75567306D01*
X97624488Y-75562324D01*
X97621331Y-75557815D01*
X97500136Y-75384730D01*
X97500134Y-75384727D01*
X97496977Y-75380219D01*
X97339781Y-75223023D01*
X97335273Y-75219866D01*
X97335270Y-75219864D01*
X97254275Y-75163151D01*
X97207229Y-75130209D01*
X97162901Y-75074752D01*
X97153500Y-75026996D01*
X97153500Y-66742524D01*
X97173502Y-66674403D01*
X97185858Y-66658221D01*
X97259040Y-66576944D01*
X97330931Y-66452425D01*
X97351223Y-66417279D01*
X97351224Y-66417278D01*
X97354527Y-66411556D01*
X97413542Y-66229928D01*
X97426157Y-66109908D01*
X97432814Y-66046565D01*
X97433504Y-66040000D01*
X97413542Y-65850072D01*
X97354527Y-65668444D01*
X97259040Y-65503056D01*
X97162503Y-65395840D01*
X97135675Y-65366045D01*
X97135674Y-65366044D01*
X97131253Y-65361134D01*
X96976752Y-65248882D01*
X96970724Y-65246198D01*
X96970722Y-65246197D01*
X96808319Y-65173891D01*
X96808318Y-65173891D01*
X96802288Y-65171206D01*
X96708887Y-65151353D01*
X96621944Y-65132872D01*
X96621939Y-65132872D01*
X96615487Y-65131500D01*
X96424513Y-65131500D01*
X96418061Y-65132872D01*
X96418056Y-65132872D01*
X96331113Y-65151353D01*
X96237712Y-65171206D01*
X96231682Y-65173891D01*
X96231681Y-65173891D01*
X96069278Y-65246197D01*
X96069276Y-65246198D01*
X96063248Y-65248882D01*
X95908747Y-65361134D01*
X95904326Y-65366044D01*
X95904325Y-65366045D01*
X95877498Y-65395840D01*
X95780960Y-65503056D01*
X95685473Y-65668444D01*
X95626458Y-65850072D01*
X95606496Y-66040000D01*
X95607186Y-66046565D01*
X95613844Y-66109908D01*
X95626458Y-66229928D01*
X95685473Y-66411556D01*
X95688776Y-66417278D01*
X95688777Y-66417279D01*
X95709069Y-66452425D01*
X95780960Y-66576944D01*
X95854137Y-66658215D01*
X95884853Y-66722221D01*
X95886500Y-66742524D01*
X95886500Y-75026996D01*
X95866498Y-75095117D01*
X95832771Y-75130209D01*
X95704730Y-75219864D01*
X95704727Y-75219866D01*
X95700219Y-75223023D01*
X95543023Y-75380219D01*
X95539866Y-75384727D01*
X95539864Y-75384730D01*
X95418669Y-75557815D01*
X95415512Y-75562324D01*
X95413189Y-75567306D01*
X95413186Y-75567311D01*
X95364195Y-75672373D01*
X95317277Y-75725658D01*
X95249000Y-75745119D01*
X95181040Y-75724577D01*
X95135805Y-75672373D01*
X95086814Y-75567311D01*
X95086811Y-75567306D01*
X95084488Y-75562324D01*
X95081331Y-75557815D01*
X94960136Y-75384730D01*
X94960134Y-75384727D01*
X94956977Y-75380219D01*
X94799781Y-75223023D01*
X94795273Y-75219866D01*
X94795270Y-75219864D01*
X94714275Y-75163151D01*
X94667229Y-75130209D01*
X94622901Y-75074752D01*
X94613500Y-75026996D01*
X94613500Y-64202524D01*
X94633502Y-64134403D01*
X94645858Y-64118221D01*
X94719040Y-64036944D01*
X94790931Y-63912425D01*
X94811223Y-63877279D01*
X94811224Y-63877278D01*
X94814527Y-63871556D01*
X94873542Y-63689928D01*
X94886157Y-63569908D01*
X94892814Y-63506565D01*
X94893504Y-63500000D01*
X94873542Y-63310072D01*
X94814527Y-63128444D01*
X94719040Y-62963056D01*
X94673744Y-62912749D01*
X94595675Y-62826045D01*
X94595674Y-62826044D01*
X94591253Y-62821134D01*
X94436752Y-62708882D01*
X94430724Y-62706198D01*
X94430722Y-62706197D01*
X94268319Y-62633891D01*
X94268318Y-62633891D01*
X94262288Y-62631206D01*
X94149721Y-62607279D01*
X94081944Y-62592872D01*
X94081939Y-62592872D01*
X94075487Y-62591500D01*
X93884513Y-62591500D01*
X93878061Y-62592872D01*
X93878056Y-62592872D01*
X93810279Y-62607279D01*
X93697712Y-62631206D01*
X93691682Y-62633891D01*
X93691681Y-62633891D01*
X93529278Y-62706197D01*
X93529276Y-62706198D01*
X93523248Y-62708882D01*
X93368747Y-62821134D01*
X93364326Y-62826044D01*
X93364325Y-62826045D01*
X93286257Y-62912749D01*
X93240960Y-62963056D01*
X93145473Y-63128444D01*
X93086458Y-63310072D01*
X93066496Y-63500000D01*
X93067186Y-63506565D01*
X93073844Y-63569908D01*
X93086458Y-63689928D01*
X93145473Y-63871556D01*
X93148776Y-63877278D01*
X93148777Y-63877279D01*
X93169069Y-63912425D01*
X93240960Y-64036944D01*
X93314137Y-64118215D01*
X93344853Y-64182221D01*
X93346500Y-64202524D01*
X93346500Y-75026996D01*
X93326498Y-75095117D01*
X93292771Y-75130209D01*
X93164730Y-75219864D01*
X93164727Y-75219866D01*
X93160219Y-75223023D01*
X93003023Y-75380219D01*
X92999866Y-75384727D01*
X92999864Y-75384730D01*
X92878669Y-75557815D01*
X92875512Y-75562324D01*
X92873189Y-75567306D01*
X92873186Y-75567311D01*
X92824195Y-75672373D01*
X92777277Y-75725658D01*
X92709000Y-75745119D01*
X92641040Y-75724577D01*
X92595805Y-75672373D01*
X92546814Y-75567311D01*
X92546811Y-75567306D01*
X92544488Y-75562324D01*
X92541331Y-75557815D01*
X92420136Y-75384730D01*
X92420134Y-75384727D01*
X92416977Y-75380219D01*
X92259781Y-75223023D01*
X92255273Y-75219866D01*
X92255270Y-75219864D01*
X92174275Y-75163151D01*
X92127229Y-75130209D01*
X92082901Y-75074752D01*
X92073500Y-75026996D01*
X92073500Y-60594782D01*
X92093502Y-60526661D01*
X92147158Y-60480168D01*
X92217432Y-60470064D01*
X92252730Y-60482282D01*
X92253248Y-60481118D01*
X92342156Y-60520702D01*
X92427712Y-60558794D01*
X92521113Y-60578647D01*
X92608056Y-60597128D01*
X92608061Y-60597128D01*
X92614513Y-60598500D01*
X92805487Y-60598500D01*
X92811939Y-60597128D01*
X92811944Y-60597128D01*
X92898887Y-60578647D01*
X92992288Y-60558794D01*
X92998319Y-60556109D01*
X93160722Y-60483803D01*
X93160724Y-60483802D01*
X93166752Y-60481118D01*
X93180120Y-60471406D01*
X93246667Y-60423056D01*
X93321253Y-60368866D01*
X93378000Y-60305842D01*
X93444621Y-60231852D01*
X93444622Y-60231851D01*
X93449040Y-60226944D01*
X93521097Y-60102138D01*
X93541223Y-60067279D01*
X93541224Y-60067278D01*
X93544527Y-60061556D01*
X93603542Y-59879928D01*
X93610933Y-59809612D01*
X93622814Y-59696565D01*
X93623504Y-59690000D01*
X93603542Y-59500072D01*
X93544527Y-59318444D01*
X93449040Y-59153056D01*
X93375863Y-59071785D01*
X93345147Y-59007779D01*
X93343500Y-58987476D01*
X93343500Y-55880000D01*
X105766496Y-55880000D01*
X105767186Y-55886565D01*
X105773844Y-55949908D01*
X105786458Y-56069928D01*
X105845473Y-56251556D01*
X105848776Y-56257278D01*
X105848777Y-56257279D01*
X105882686Y-56316010D01*
X105940960Y-56416944D01*
X105945375Y-56421847D01*
X105945379Y-56421852D01*
X106064325Y-56553955D01*
X106068747Y-56558866D01*
X106223248Y-56671118D01*
X106229276Y-56673802D01*
X106229278Y-56673803D01*
X106254625Y-56685088D01*
X106397712Y-56748794D01*
X106484009Y-56767137D01*
X106578056Y-56787128D01*
X106578061Y-56787128D01*
X106584513Y-56788500D01*
X106775487Y-56788500D01*
X106781939Y-56787128D01*
X106781944Y-56787128D01*
X106875991Y-56767137D01*
X106962288Y-56748794D01*
X107105375Y-56685088D01*
X107130722Y-56673803D01*
X107130724Y-56673802D01*
X107136752Y-56671118D01*
X107291253Y-56558866D01*
X107295675Y-56553955D01*
X107414621Y-56421852D01*
X107414625Y-56421847D01*
X107419040Y-56416944D01*
X107477314Y-56316010D01*
X107511223Y-56257279D01*
X107511224Y-56257278D01*
X107514527Y-56251556D01*
X107573542Y-56069928D01*
X107586157Y-55949908D01*
X107592814Y-55886565D01*
X107593504Y-55880000D01*
X107573542Y-55690072D01*
X107514527Y-55508444D01*
X107419040Y-55343056D01*
X107345863Y-55261785D01*
X107315147Y-55197779D01*
X107313500Y-55177476D01*
X107313500Y-54042524D01*
X107333502Y-53974403D01*
X107345858Y-53958221D01*
X107419040Y-53876944D01*
X107490931Y-53752425D01*
X107511223Y-53717279D01*
X107511224Y-53717278D01*
X107514527Y-53711556D01*
X107573542Y-53529928D01*
X107586157Y-53409908D01*
X107592814Y-53346565D01*
X107593504Y-53340000D01*
X107590004Y-53306695D01*
X107857251Y-53306695D01*
X107857548Y-53311848D01*
X107857548Y-53311851D01*
X107863011Y-53406590D01*
X107870110Y-53529715D01*
X107871247Y-53534761D01*
X107871248Y-53534767D01*
X107891119Y-53622939D01*
X107919222Y-53747639D01*
X108003266Y-53954616D01*
X108044694Y-54022221D01*
X108117291Y-54140688D01*
X108119987Y-54145088D01*
X108266250Y-54313938D01*
X108270230Y-54317242D01*
X108274981Y-54321187D01*
X108314616Y-54380090D01*
X108316113Y-54451071D01*
X108278997Y-54511593D01*
X108238725Y-54536112D01*
X108178627Y-54558642D01*
X108123295Y-54579385D01*
X108006739Y-54666739D01*
X107919385Y-54783295D01*
X107868255Y-54919684D01*
X107861500Y-54981866D01*
X107861500Y-56778134D01*
X107868255Y-56840316D01*
X107919385Y-56976705D01*
X108006739Y-57093261D01*
X108123295Y-57180615D01*
X108259684Y-57231745D01*
X108321866Y-57238500D01*
X108460500Y-57238500D01*
X108528621Y-57258502D01*
X108575114Y-57312158D01*
X108586500Y-57364500D01*
X108586500Y-60257476D01*
X108566498Y-60325597D01*
X108554142Y-60341779D01*
X108480960Y-60423056D01*
X108477659Y-60428774D01*
X108421144Y-60526661D01*
X108385473Y-60588444D01*
X108326458Y-60770072D01*
X108306496Y-60960000D01*
X108307186Y-60966565D01*
X108313844Y-61029908D01*
X108326458Y-61149928D01*
X108385473Y-61331556D01*
X108388776Y-61337278D01*
X108388777Y-61337279D01*
X108409069Y-61372425D01*
X108480960Y-61496944D01*
X108485378Y-61501851D01*
X108485379Y-61501852D01*
X108584365Y-61611787D01*
X108608747Y-61638866D01*
X108763248Y-61751118D01*
X108769276Y-61753802D01*
X108769278Y-61753803D01*
X108794625Y-61765088D01*
X108937712Y-61828794D01*
X109024009Y-61847137D01*
X109118056Y-61867128D01*
X109118061Y-61867128D01*
X109124513Y-61868500D01*
X109315487Y-61868500D01*
X109321939Y-61867128D01*
X109321944Y-61867128D01*
X109415991Y-61847137D01*
X109502288Y-61828794D01*
X109645375Y-61765088D01*
X109670722Y-61753803D01*
X109670724Y-61753802D01*
X109676752Y-61751118D01*
X109831253Y-61638866D01*
X109855635Y-61611787D01*
X109954621Y-61501852D01*
X109954622Y-61501851D01*
X109959040Y-61496944D01*
X110030931Y-61372425D01*
X110051223Y-61337279D01*
X110051224Y-61337278D01*
X110054527Y-61331556D01*
X110113542Y-61149928D01*
X110126157Y-61029908D01*
X110132814Y-60966565D01*
X110133504Y-60960000D01*
X110113542Y-60770072D01*
X110054527Y-60588444D01*
X110018857Y-60526661D01*
X109962341Y-60428774D01*
X109959040Y-60423056D01*
X109885863Y-60341785D01*
X109855147Y-60277779D01*
X109853500Y-60257476D01*
X109853500Y-57364500D01*
X109873502Y-57296379D01*
X109927158Y-57249886D01*
X109979500Y-57238500D01*
X110118134Y-57238500D01*
X110180316Y-57231745D01*
X110316705Y-57180615D01*
X110433261Y-57093261D01*
X110520615Y-56976705D01*
X110542799Y-56917529D01*
X110564598Y-56859382D01*
X110607240Y-56802618D01*
X110673802Y-56777918D01*
X110743150Y-56793126D01*
X110777817Y-56821114D01*
X110806250Y-56853938D01*
X110978126Y-56996632D01*
X110982593Y-56999242D01*
X111064070Y-57046853D01*
X111112794Y-57098491D01*
X111126500Y-57155641D01*
X111126500Y-64162965D01*
X111106498Y-64231086D01*
X111094142Y-64247268D01*
X111020960Y-64328545D01*
X110925473Y-64493933D01*
X110866458Y-64675561D01*
X110865768Y-64682122D01*
X110865768Y-64682124D01*
X110862721Y-64711114D01*
X110846496Y-64865489D01*
X110847186Y-64872054D01*
X110865560Y-65046870D01*
X110866458Y-65055417D01*
X110925473Y-65237045D01*
X111020960Y-65402433D01*
X111148747Y-65544355D01*
X111303248Y-65656607D01*
X111309276Y-65659291D01*
X111309278Y-65659292D01*
X111471681Y-65731598D01*
X111477712Y-65734283D01*
X111571112Y-65754136D01*
X111658056Y-65772617D01*
X111658061Y-65772617D01*
X111664513Y-65773989D01*
X111855487Y-65773989D01*
X111861939Y-65772617D01*
X111861944Y-65772617D01*
X111948888Y-65754136D01*
X112042288Y-65734283D01*
X112048319Y-65731598D01*
X112210722Y-65659292D01*
X112210724Y-65659291D01*
X112216752Y-65656607D01*
X112371253Y-65544355D01*
X112499040Y-65402433D01*
X112594527Y-65237045D01*
X112653542Y-65055417D01*
X112654441Y-65046870D01*
X112672814Y-64872054D01*
X112673504Y-64865489D01*
X112657279Y-64711114D01*
X112654232Y-64682124D01*
X112654232Y-64682122D01*
X112653542Y-64675561D01*
X112594527Y-64493933D01*
X112499040Y-64328545D01*
X112425863Y-64247274D01*
X112395147Y-64183268D01*
X112393500Y-64162965D01*
X112393500Y-57160427D01*
X112413502Y-57092306D01*
X112454618Y-57052550D01*
X112457994Y-57050896D01*
X112639860Y-56921173D01*
X112798096Y-56763489D01*
X112807670Y-56750166D01*
X112928453Y-56582077D01*
X112929776Y-56583028D01*
X112976645Y-56539857D01*
X113046580Y-56527625D01*
X113112026Y-56555144D01*
X113139875Y-56586994D01*
X113199987Y-56685088D01*
X113346250Y-56853938D01*
X113518126Y-56996632D01*
X113522593Y-56999242D01*
X113604070Y-57046853D01*
X113652794Y-57098491D01*
X113666500Y-57155641D01*
X113666500Y-66702965D01*
X113646498Y-66771086D01*
X113634142Y-66787268D01*
X113560960Y-66868545D01*
X113465473Y-67033933D01*
X113406458Y-67215561D01*
X113405768Y-67222122D01*
X113405768Y-67222124D01*
X113402721Y-67251114D01*
X113386496Y-67405489D01*
X113387186Y-67412054D01*
X113405560Y-67586870D01*
X113406458Y-67595417D01*
X113465473Y-67777045D01*
X113560960Y-67942433D01*
X113688747Y-68084355D01*
X113843248Y-68196607D01*
X113849276Y-68199291D01*
X113849278Y-68199292D01*
X114011681Y-68271598D01*
X114017712Y-68274283D01*
X114111112Y-68294136D01*
X114198056Y-68312617D01*
X114198061Y-68312617D01*
X114204513Y-68313989D01*
X114395487Y-68313989D01*
X114401939Y-68312617D01*
X114401944Y-68312617D01*
X114488888Y-68294136D01*
X114582288Y-68274283D01*
X114588319Y-68271598D01*
X114750722Y-68199292D01*
X114750724Y-68199291D01*
X114756752Y-68196607D01*
X114911253Y-68084355D01*
X115039040Y-67942433D01*
X115134527Y-67777045D01*
X115193542Y-67595417D01*
X115194441Y-67586870D01*
X115212814Y-67412054D01*
X115213504Y-67405489D01*
X115197279Y-67251114D01*
X115194232Y-67222124D01*
X115194232Y-67222122D01*
X115193542Y-67215561D01*
X115134527Y-67033933D01*
X115039040Y-66868545D01*
X114965863Y-66787274D01*
X114935147Y-66723268D01*
X114933500Y-66702965D01*
X114933500Y-57160427D01*
X114953502Y-57092306D01*
X114994618Y-57052550D01*
X114997994Y-57050896D01*
X115179860Y-56921173D01*
X115338096Y-56763489D01*
X115347670Y-56750166D01*
X115465435Y-56586277D01*
X115468453Y-56582077D01*
X115478006Y-56562749D01*
X115565136Y-56386453D01*
X115565137Y-56386451D01*
X115567430Y-56381811D01*
X115632370Y-56168069D01*
X115661529Y-55946590D01*
X115663156Y-55880000D01*
X115644852Y-55657361D01*
X115590431Y-55440702D01*
X115501354Y-55235840D01*
X115447020Y-55151852D01*
X115382822Y-55052617D01*
X115382820Y-55052614D01*
X115380014Y-55048277D01*
X115229670Y-54883051D01*
X115225619Y-54879852D01*
X115225615Y-54879848D01*
X115058414Y-54747800D01*
X115058410Y-54747798D01*
X115054359Y-54744598D01*
X115013053Y-54721796D01*
X114963084Y-54671364D01*
X114948312Y-54601921D01*
X114973428Y-54535516D01*
X115000780Y-54508909D01*
X115044603Y-54477650D01*
X115179860Y-54381173D01*
X115338096Y-54223489D01*
X115397594Y-54140689D01*
X115465435Y-54046277D01*
X115468453Y-54042077D01*
X115478267Y-54022221D01*
X115565136Y-53846453D01*
X115565137Y-53846451D01*
X115567430Y-53841811D01*
X115632370Y-53628069D01*
X115661529Y-53406590D01*
X115663156Y-53340000D01*
X115644852Y-53117361D01*
X115590431Y-52900702D01*
X115501354Y-52695840D01*
X115461906Y-52634862D01*
X115382822Y-52512617D01*
X115382820Y-52512614D01*
X115380014Y-52508277D01*
X115229670Y-52343051D01*
X115225619Y-52339852D01*
X115225615Y-52339848D01*
X115058414Y-52207800D01*
X115058410Y-52207798D01*
X115054359Y-52204598D01*
X114858789Y-52096638D01*
X114853920Y-52094914D01*
X114853916Y-52094912D01*
X114653087Y-52023795D01*
X114653083Y-52023794D01*
X114648212Y-52022069D01*
X114643119Y-52021162D01*
X114643116Y-52021161D01*
X114433373Y-51983800D01*
X114433367Y-51983799D01*
X114428284Y-51982894D01*
X114354452Y-51981992D01*
X114210081Y-51980228D01*
X114210079Y-51980228D01*
X114204911Y-51980165D01*
X113984091Y-52013955D01*
X113771756Y-52083357D01*
X113573607Y-52186507D01*
X113569474Y-52189610D01*
X113569471Y-52189612D01*
X113399100Y-52317530D01*
X113394965Y-52320635D01*
X113391393Y-52324373D01*
X113283729Y-52437037D01*
X113240629Y-52482138D01*
X113133201Y-52639621D01*
X113078293Y-52684621D01*
X113007768Y-52692792D01*
X112944021Y-52661538D01*
X112923324Y-52637054D01*
X112842822Y-52512617D01*
X112842820Y-52512614D01*
X112840014Y-52508277D01*
X112689670Y-52343051D01*
X112685619Y-52339852D01*
X112685615Y-52339848D01*
X112518414Y-52207800D01*
X112518410Y-52207798D01*
X112514359Y-52204598D01*
X112318789Y-52096638D01*
X112313920Y-52094914D01*
X112313916Y-52094912D01*
X112113087Y-52023795D01*
X112113083Y-52023794D01*
X112108212Y-52022069D01*
X112103119Y-52021162D01*
X112103116Y-52021161D01*
X111893373Y-51983800D01*
X111893367Y-51983799D01*
X111888284Y-51982894D01*
X111814452Y-51981992D01*
X111670081Y-51980228D01*
X111670079Y-51980228D01*
X111664911Y-51980165D01*
X111444091Y-52013955D01*
X111231756Y-52083357D01*
X111033607Y-52186507D01*
X111029474Y-52189610D01*
X111029471Y-52189612D01*
X110859100Y-52317530D01*
X110854965Y-52320635D01*
X110851393Y-52324373D01*
X110743729Y-52437037D01*
X110700629Y-52482138D01*
X110593201Y-52639621D01*
X110538293Y-52684621D01*
X110467768Y-52692792D01*
X110404021Y-52661538D01*
X110383324Y-52637054D01*
X110302822Y-52512617D01*
X110302820Y-52512614D01*
X110300014Y-52508277D01*
X110149670Y-52343051D01*
X110145619Y-52339852D01*
X110145615Y-52339848D01*
X109978414Y-52207800D01*
X109978410Y-52207798D01*
X109974359Y-52204598D01*
X109778789Y-52096638D01*
X109773920Y-52094914D01*
X109773916Y-52094912D01*
X109573087Y-52023795D01*
X109573083Y-52023794D01*
X109568212Y-52022069D01*
X109563119Y-52021162D01*
X109563116Y-52021161D01*
X109353373Y-51983800D01*
X109353367Y-51983799D01*
X109348284Y-51982894D01*
X109274452Y-51981992D01*
X109130081Y-51980228D01*
X109130079Y-51980228D01*
X109124911Y-51980165D01*
X108904091Y-52013955D01*
X108691756Y-52083357D01*
X108493607Y-52186507D01*
X108489474Y-52189610D01*
X108489471Y-52189612D01*
X108319100Y-52317530D01*
X108314965Y-52320635D01*
X108311393Y-52324373D01*
X108203729Y-52437037D01*
X108160629Y-52482138D01*
X108034743Y-52666680D01*
X107940688Y-52869305D01*
X107880989Y-53084570D01*
X107857251Y-53306695D01*
X107590004Y-53306695D01*
X107573542Y-53150072D01*
X107514527Y-52968444D01*
X107419040Y-52803056D01*
X107322503Y-52695840D01*
X107295675Y-52666045D01*
X107295674Y-52666044D01*
X107291253Y-52661134D01*
X107136752Y-52548882D01*
X107130724Y-52546198D01*
X107130722Y-52546197D01*
X106968319Y-52473891D01*
X106968318Y-52473891D01*
X106962288Y-52471206D01*
X106840331Y-52445283D01*
X106781944Y-52432872D01*
X106781939Y-52432872D01*
X106775487Y-52431500D01*
X106584513Y-52431500D01*
X106578061Y-52432872D01*
X106578056Y-52432872D01*
X106519669Y-52445283D01*
X106397712Y-52471206D01*
X106391682Y-52473891D01*
X106391681Y-52473891D01*
X106229278Y-52546197D01*
X106229276Y-52546198D01*
X106223248Y-52548882D01*
X106068747Y-52661134D01*
X106064326Y-52666044D01*
X106064325Y-52666045D01*
X106037498Y-52695840D01*
X105940960Y-52803056D01*
X105845473Y-52968444D01*
X105786458Y-53150072D01*
X105766496Y-53340000D01*
X105767186Y-53346565D01*
X105773844Y-53409908D01*
X105786458Y-53529928D01*
X105845473Y-53711556D01*
X105848776Y-53717278D01*
X105848777Y-53717279D01*
X105869069Y-53752425D01*
X105940960Y-53876944D01*
X106014137Y-53958215D01*
X106044853Y-54022221D01*
X106046500Y-54042524D01*
X106046500Y-55177476D01*
X106026498Y-55245597D01*
X106014142Y-55261779D01*
X105940960Y-55343056D01*
X105845473Y-55508444D01*
X105786458Y-55690072D01*
X105766496Y-55880000D01*
X93343500Y-55880000D01*
X93343500Y-54824500D01*
X93363502Y-54756379D01*
X93417158Y-54709886D01*
X93469500Y-54698500D01*
X93608134Y-54698500D01*
X93670316Y-54691745D01*
X93806705Y-54640615D01*
X93923261Y-54553261D01*
X94010615Y-54436705D01*
X94031433Y-54381173D01*
X94054598Y-54319382D01*
X94097240Y-54262618D01*
X94163802Y-54237918D01*
X94233150Y-54253126D01*
X94267817Y-54281114D01*
X94296250Y-54313938D01*
X94310013Y-54325364D01*
X94349649Y-54384267D01*
X94354839Y-54435478D01*
X94336496Y-54610000D01*
X94337186Y-54616565D01*
X94355594Y-54791703D01*
X94356458Y-54799928D01*
X94415473Y-54981556D01*
X94418776Y-54987278D01*
X94418777Y-54987279D01*
X94438903Y-55022138D01*
X94510960Y-55146944D01*
X94515375Y-55151847D01*
X94515379Y-55151852D01*
X94582000Y-55225842D01*
X94638747Y-55288866D01*
X94713333Y-55343056D01*
X94779881Y-55391406D01*
X94793248Y-55401118D01*
X94799276Y-55403802D01*
X94799278Y-55403803D01*
X94893426Y-55445720D01*
X94967712Y-55478794D01*
X95061113Y-55498647D01*
X95148056Y-55517128D01*
X95148061Y-55517128D01*
X95154513Y-55518500D01*
X95345487Y-55518500D01*
X95351939Y-55517128D01*
X95351944Y-55517128D01*
X95438888Y-55498647D01*
X95532288Y-55478794D01*
X95606574Y-55445720D01*
X95700722Y-55403803D01*
X95700724Y-55403802D01*
X95706752Y-55401118D01*
X95720120Y-55391406D01*
X95786667Y-55343056D01*
X95861253Y-55288866D01*
X95918000Y-55225842D01*
X95984621Y-55151852D01*
X95984625Y-55151847D01*
X95989040Y-55146944D01*
X96061097Y-55022138D01*
X96081223Y-54987279D01*
X96081224Y-54987278D01*
X96084527Y-54981556D01*
X96143542Y-54799928D01*
X96144407Y-54791703D01*
X96162814Y-54616565D01*
X96163504Y-54610000D01*
X96144840Y-54432423D01*
X96157612Y-54362585D01*
X96181210Y-54330002D01*
X96185865Y-54325364D01*
X96288096Y-54223489D01*
X96347594Y-54140689D01*
X96415435Y-54046277D01*
X96418453Y-54042077D01*
X96428267Y-54022221D01*
X96515136Y-53846453D01*
X96515137Y-53846451D01*
X96517430Y-53841811D01*
X96582370Y-53628069D01*
X96611529Y-53406590D01*
X96613156Y-53340000D01*
X96594852Y-53117361D01*
X96540431Y-52900702D01*
X96451354Y-52695840D01*
X96411906Y-52634862D01*
X96332822Y-52512617D01*
X96332820Y-52512614D01*
X96330014Y-52508277D01*
X96179670Y-52343051D01*
X96175619Y-52339852D01*
X96175615Y-52339848D01*
X96008414Y-52207800D01*
X96008410Y-52207798D01*
X96004359Y-52204598D01*
X95808789Y-52096638D01*
X95803920Y-52094914D01*
X95803916Y-52094912D01*
X95603087Y-52023795D01*
X95603083Y-52023794D01*
X95598212Y-52022069D01*
X95593119Y-52021162D01*
X95593116Y-52021161D01*
X95383373Y-51983800D01*
X95383367Y-51983799D01*
X95378284Y-51982894D01*
X95304452Y-51981992D01*
X95160081Y-51980228D01*
X95160079Y-51980228D01*
X95154911Y-51980165D01*
X94934091Y-52013955D01*
X94721756Y-52083357D01*
X94523607Y-52186507D01*
X94519474Y-52189610D01*
X94519471Y-52189612D01*
X94349100Y-52317530D01*
X94344965Y-52320635D01*
X94288537Y-52379684D01*
X94264283Y-52405064D01*
X94202759Y-52440494D01*
X94131846Y-52437037D01*
X94074060Y-52395791D01*
X94055207Y-52362243D01*
X94013767Y-52251703D01*
X94010615Y-52243295D01*
X93923261Y-52126739D01*
X93806705Y-52039385D01*
X93670316Y-51988255D01*
X93608134Y-51981500D01*
X91811866Y-51981500D01*
X91749684Y-51988255D01*
X91613295Y-52039385D01*
X91496739Y-52126739D01*
X91409385Y-52243295D01*
X91358255Y-52379684D01*
X91351500Y-52441866D01*
X91351500Y-54238134D01*
X91358255Y-54300316D01*
X91409385Y-54436705D01*
X91496739Y-54553261D01*
X91613295Y-54640615D01*
X91749684Y-54691745D01*
X91811866Y-54698500D01*
X91950500Y-54698500D01*
X92018621Y-54718502D01*
X92065114Y-54772158D01*
X92076500Y-54824500D01*
X92076500Y-56245218D01*
X92056498Y-56313339D01*
X92002842Y-56359832D01*
X91932568Y-56369936D01*
X91897270Y-56357718D01*
X91896752Y-56358882D01*
X91728319Y-56283891D01*
X91728318Y-56283891D01*
X91722288Y-56281206D01*
X91609721Y-56257279D01*
X91541944Y-56242872D01*
X91541939Y-56242872D01*
X91535487Y-56241500D01*
X91344513Y-56241500D01*
X91338061Y-56242872D01*
X91338056Y-56242872D01*
X91270279Y-56257279D01*
X91157712Y-56281206D01*
X91151682Y-56283891D01*
X91151681Y-56283891D01*
X90989278Y-56356197D01*
X90989276Y-56356198D01*
X90983248Y-56358882D01*
X90977907Y-56362762D01*
X90977906Y-56362763D01*
X90951689Y-56381811D01*
X90828747Y-56471134D01*
X90824326Y-56476044D01*
X90824325Y-56476045D01*
X90728854Y-56582077D01*
X90700960Y-56613056D01*
X90605473Y-56778444D01*
X90546458Y-56960072D01*
X90545768Y-56966633D01*
X90545768Y-56966635D01*
X90542963Y-56993327D01*
X90526496Y-57150000D01*
X90546458Y-57339928D01*
X90605473Y-57521556D01*
X90700960Y-57686944D01*
X90774137Y-57768215D01*
X90804853Y-57832221D01*
X90806500Y-57852524D01*
X90806500Y-75026996D01*
X90786498Y-75095117D01*
X90752771Y-75130209D01*
X90624730Y-75219864D01*
X90624727Y-75219866D01*
X90620219Y-75223023D01*
X90463023Y-75380219D01*
X90459866Y-75384727D01*
X90459864Y-75384730D01*
X90338669Y-75557815D01*
X90335512Y-75562324D01*
X90333189Y-75567306D01*
X90333186Y-75567311D01*
X90284195Y-75672373D01*
X90237277Y-75725658D01*
X90169000Y-75745119D01*
X90101040Y-75724577D01*
X90055805Y-75672373D01*
X90006814Y-75567311D01*
X90006811Y-75567306D01*
X90004488Y-75562324D01*
X90001331Y-75557815D01*
X89880136Y-75384730D01*
X89880134Y-75384727D01*
X89876977Y-75380219D01*
X89719781Y-75223023D01*
X89715273Y-75219866D01*
X89715270Y-75219864D01*
X89634275Y-75163151D01*
X89587229Y-75130209D01*
X89542901Y-75074752D01*
X89533500Y-75026996D01*
X89533500Y-51502524D01*
X89553502Y-51434403D01*
X89565858Y-51418221D01*
X89639040Y-51336944D01*
X89734527Y-51171556D01*
X89793542Y-50989928D01*
X89813504Y-50800000D01*
X89793542Y-50610072D01*
X89734527Y-50428444D01*
X89639040Y-50263056D01*
X89511253Y-50121134D01*
X89356752Y-50008882D01*
X89350724Y-50006198D01*
X89350722Y-50006197D01*
X89188319Y-49933891D01*
X89188318Y-49933891D01*
X89182288Y-49931206D01*
X89088888Y-49911353D01*
X89001944Y-49892872D01*
X89001939Y-49892872D01*
X88995487Y-49891500D01*
X88804513Y-49891500D01*
X88798061Y-49892872D01*
X88798056Y-49892872D01*
X88711112Y-49911353D01*
X88617712Y-49931206D01*
X88611682Y-49933891D01*
X88611681Y-49933891D01*
X88449278Y-50006197D01*
X88449276Y-50006198D01*
X88443248Y-50008882D01*
X88288747Y-50121134D01*
X88160960Y-50263056D01*
X88065473Y-50428444D01*
X88006458Y-50610072D01*
X87986496Y-50800000D01*
X88006458Y-50989928D01*
X88065473Y-51171556D01*
X88160960Y-51336944D01*
X88234137Y-51418215D01*
X88264853Y-51482221D01*
X88266500Y-51502524D01*
X88266500Y-75026996D01*
X88246498Y-75095117D01*
X88212771Y-75130209D01*
X88084730Y-75219864D01*
X88084727Y-75219866D01*
X88080219Y-75223023D01*
X87923023Y-75380219D01*
X87919866Y-75384727D01*
X87919864Y-75384730D01*
X87798669Y-75557815D01*
X87795512Y-75562324D01*
X87793189Y-75567306D01*
X87793186Y-75567311D01*
X87744195Y-75672373D01*
X87697277Y-75725658D01*
X87629000Y-75745119D01*
X87561040Y-75724577D01*
X87515805Y-75672373D01*
X87466814Y-75567311D01*
X87466811Y-75567306D01*
X87464488Y-75562324D01*
X87461331Y-75557815D01*
X87340136Y-75384730D01*
X87340134Y-75384727D01*
X87336977Y-75380219D01*
X87179781Y-75223023D01*
X87175273Y-75219866D01*
X87175270Y-75219864D01*
X87094275Y-75163151D01*
X87047229Y-75130209D01*
X87002901Y-75074752D01*
X86993500Y-75026996D01*
X86993500Y-56582524D01*
X87013502Y-56514403D01*
X87025858Y-56498221D01*
X87099040Y-56416944D01*
X87157314Y-56316010D01*
X87191223Y-56257279D01*
X87191224Y-56257278D01*
X87194527Y-56251556D01*
X87253542Y-56069928D01*
X87266157Y-55949908D01*
X87272814Y-55886565D01*
X87273504Y-55880000D01*
X87253542Y-55690072D01*
X87194527Y-55508444D01*
X87099040Y-55343056D01*
X87053744Y-55292749D01*
X86975675Y-55206045D01*
X86975674Y-55206044D01*
X86971253Y-55201134D01*
X86816752Y-55088882D01*
X86810724Y-55086198D01*
X86810722Y-55086197D01*
X86648319Y-55013891D01*
X86648318Y-55013891D01*
X86642288Y-55011206D01*
X86520331Y-54985283D01*
X86461944Y-54972872D01*
X86461939Y-54972872D01*
X86455487Y-54971500D01*
X86264513Y-54971500D01*
X86258061Y-54972872D01*
X86258056Y-54972872D01*
X86199669Y-54985283D01*
X86077712Y-55011206D01*
X86071682Y-55013891D01*
X86071681Y-55013891D01*
X85909278Y-55086197D01*
X85909276Y-55086198D01*
X85903248Y-55088882D01*
X85748747Y-55201134D01*
X85744326Y-55206044D01*
X85744325Y-55206045D01*
X85666257Y-55292749D01*
X85620960Y-55343056D01*
X85525473Y-55508444D01*
X85466458Y-55690072D01*
X85446496Y-55880000D01*
X85447186Y-55886565D01*
X85453844Y-55949908D01*
X85466458Y-56069928D01*
X85525473Y-56251556D01*
X85528776Y-56257278D01*
X85528777Y-56257279D01*
X85562686Y-56316010D01*
X85620960Y-56416944D01*
X85694137Y-56498215D01*
X85724853Y-56562221D01*
X85726500Y-56582524D01*
X85726500Y-75026996D01*
X85706498Y-75095117D01*
X85672771Y-75130209D01*
X85544730Y-75219864D01*
X85544727Y-75219866D01*
X85540219Y-75223023D01*
X85383023Y-75380219D01*
X85379866Y-75384727D01*
X85379864Y-75384730D01*
X85258669Y-75557815D01*
X85255512Y-75562324D01*
X85253189Y-75567306D01*
X85253186Y-75567311D01*
X85204195Y-75672373D01*
X85157277Y-75725658D01*
X85089000Y-75745119D01*
X85021040Y-75724577D01*
X84975805Y-75672373D01*
X84926814Y-75567311D01*
X84926811Y-75567306D01*
X84924488Y-75562324D01*
X84921331Y-75557815D01*
X84800136Y-75384730D01*
X84800134Y-75384727D01*
X84796977Y-75380219D01*
X84639781Y-75223023D01*
X84635273Y-75219866D01*
X84635270Y-75219864D01*
X84554275Y-75163151D01*
X84507229Y-75130209D01*
X84462901Y-75074752D01*
X84453500Y-75026996D01*
X84453500Y-55312524D01*
X84473502Y-55244403D01*
X84485858Y-55228221D01*
X84559040Y-55146944D01*
X84631097Y-55022138D01*
X84651223Y-54987279D01*
X84651224Y-54987278D01*
X84654527Y-54981556D01*
X84713542Y-54799928D01*
X84714407Y-54791703D01*
X84732814Y-54616565D01*
X84733504Y-54610000D01*
X84716800Y-54451071D01*
X84714232Y-54426635D01*
X84714232Y-54426633D01*
X84713542Y-54420072D01*
X84654527Y-54238444D01*
X84559040Y-54073056D01*
X84531147Y-54042077D01*
X84435675Y-53936045D01*
X84435674Y-53936044D01*
X84431253Y-53931134D01*
X84308311Y-53841811D01*
X84282094Y-53822763D01*
X84282093Y-53822762D01*
X84276752Y-53818882D01*
X84270724Y-53816198D01*
X84270722Y-53816197D01*
X84108319Y-53743891D01*
X84108318Y-53743891D01*
X84102288Y-53741206D01*
X83989721Y-53717279D01*
X83921944Y-53702872D01*
X83921939Y-53702872D01*
X83915487Y-53701500D01*
X83724513Y-53701500D01*
X83718061Y-53702872D01*
X83718056Y-53702872D01*
X83650279Y-53717279D01*
X83537712Y-53741206D01*
X83531682Y-53743891D01*
X83531681Y-53743891D01*
X83369278Y-53816197D01*
X83369276Y-53816198D01*
X83363248Y-53818882D01*
X83357907Y-53822762D01*
X83357906Y-53822763D01*
X83331689Y-53841811D01*
X83208747Y-53931134D01*
X83204326Y-53936044D01*
X83204325Y-53936045D01*
X83108854Y-54042077D01*
X83080960Y-54073056D01*
X82985473Y-54238444D01*
X82926458Y-54420072D01*
X82925768Y-54426633D01*
X82925768Y-54426635D01*
X82923200Y-54451071D01*
X82906496Y-54610000D01*
X82907186Y-54616565D01*
X82925594Y-54791703D01*
X82926458Y-54799928D01*
X82985473Y-54981556D01*
X82988776Y-54987278D01*
X82988777Y-54987279D01*
X83008903Y-55022138D01*
X83080960Y-55146944D01*
X83154137Y-55228215D01*
X83184853Y-55292221D01*
X83186500Y-55312524D01*
X83186500Y-75026996D01*
X83166498Y-75095117D01*
X83132771Y-75130209D01*
X83004730Y-75219864D01*
X83004727Y-75219866D01*
X83000219Y-75223023D01*
X82843023Y-75380219D01*
X82839866Y-75384727D01*
X82839864Y-75384730D01*
X82718669Y-75557815D01*
X82715512Y-75562324D01*
X82713189Y-75567306D01*
X82713186Y-75567311D01*
X82664195Y-75672373D01*
X82621560Y-75763804D01*
X82564022Y-75978537D01*
X82544647Y-76200000D01*
X58420000Y-76200000D01*
X58420000Y-73927966D01*
X59628257Y-73927966D01*
X59658565Y-74062446D01*
X59661645Y-74072275D01*
X59741770Y-74269603D01*
X59746413Y-74278794D01*
X59857694Y-74460388D01*
X59863777Y-74468699D01*
X60003213Y-74629667D01*
X60010580Y-74636883D01*
X60174434Y-74772916D01*
X60182881Y-74778831D01*
X60366756Y-74886279D01*
X60376042Y-74890729D01*
X60575001Y-74966703D01*
X60584899Y-74969579D01*
X60688250Y-74990606D01*
X60702299Y-74989410D01*
X60706000Y-74979065D01*
X60706000Y-74978517D01*
X61214000Y-74978517D01*
X61218064Y-74992359D01*
X61231478Y-74994393D01*
X61238184Y-74993534D01*
X61248262Y-74991392D01*
X61452255Y-74930191D01*
X61461842Y-74926433D01*
X61653095Y-74832739D01*
X61661945Y-74827464D01*
X61835328Y-74703792D01*
X61843200Y-74697139D01*
X61948286Y-74592418D01*
X62010657Y-74558501D01*
X62081464Y-74563689D01*
X62138226Y-74606335D01*
X62155208Y-74637439D01*
X62196675Y-74748052D01*
X62205214Y-74763649D01*
X62281715Y-74865724D01*
X62294276Y-74878285D01*
X62396351Y-74954786D01*
X62411946Y-74963324D01*
X62532394Y-75008478D01*
X62547649Y-75012105D01*
X62598514Y-75017631D01*
X62605328Y-75018000D01*
X63227885Y-75018000D01*
X63243124Y-75013525D01*
X63244329Y-75012135D01*
X63246000Y-75004452D01*
X63246000Y-74999884D01*
X63754000Y-74999884D01*
X63758475Y-75015123D01*
X63759865Y-75016328D01*
X63767548Y-75017999D01*
X64394669Y-75017999D01*
X64401490Y-75017629D01*
X64452352Y-75012105D01*
X64467604Y-75008479D01*
X64588054Y-74963324D01*
X64603649Y-74954786D01*
X64705724Y-74878285D01*
X64718285Y-74865724D01*
X64794786Y-74763649D01*
X64803324Y-74748054D01*
X64848478Y-74627606D01*
X64852105Y-74612351D01*
X64857631Y-74561486D01*
X64858000Y-74554672D01*
X64858000Y-73932115D01*
X64853525Y-73916876D01*
X64852135Y-73915671D01*
X64844452Y-73914000D01*
X63772115Y-73914000D01*
X63756876Y-73918475D01*
X63755671Y-73919865D01*
X63754000Y-73927548D01*
X63754000Y-74999884D01*
X63246000Y-74999884D01*
X63246000Y-73932115D01*
X63241525Y-73916876D01*
X63240135Y-73915671D01*
X63232452Y-73914000D01*
X61232115Y-73914000D01*
X61216876Y-73918475D01*
X61215671Y-73919865D01*
X61214000Y-73927548D01*
X61214000Y-74978517D01*
X60706000Y-74978517D01*
X60706000Y-73932115D01*
X60701525Y-73916876D01*
X60700135Y-73915671D01*
X60692452Y-73914000D01*
X59643225Y-73914000D01*
X59629694Y-73917973D01*
X59628257Y-73927966D01*
X58420000Y-73927966D01*
X58420000Y-71086695D01*
X59597251Y-71086695D01*
X59597548Y-71091848D01*
X59597548Y-71091851D01*
X59603011Y-71186590D01*
X59610110Y-71309715D01*
X59611247Y-71314761D01*
X59611248Y-71314767D01*
X59631119Y-71402939D01*
X59659222Y-71527639D01*
X59743266Y-71734616D01*
X59794019Y-71817438D01*
X59857291Y-71920688D01*
X59859987Y-71925088D01*
X60006250Y-72093938D01*
X60178126Y-72236632D01*
X60239860Y-72272706D01*
X60251955Y-72279774D01*
X60300679Y-72331412D01*
X60313750Y-72401195D01*
X60287019Y-72466967D01*
X60246562Y-72500327D01*
X60238457Y-72504546D01*
X60229738Y-72510036D01*
X60059433Y-72637905D01*
X60051726Y-72644748D01*
X59904590Y-72798717D01*
X59898104Y-72806727D01*
X59778098Y-72982649D01*
X59773000Y-72991623D01*
X59683338Y-73184783D01*
X59679775Y-73194470D01*
X59624389Y-73394183D01*
X59625912Y-73402607D01*
X59638292Y-73406000D01*
X64839884Y-73406000D01*
X64855123Y-73401525D01*
X64856328Y-73400135D01*
X64857999Y-73392452D01*
X64857999Y-72765331D01*
X64857629Y-72758510D01*
X64852105Y-72707648D01*
X64848479Y-72692396D01*
X64803324Y-72571946D01*
X64794786Y-72556351D01*
X64718285Y-72454276D01*
X64705724Y-72441715D01*
X64603649Y-72365214D01*
X64588054Y-72356676D01*
X64477813Y-72315348D01*
X64421049Y-72272706D01*
X64396349Y-72206145D01*
X64411557Y-72136796D01*
X64433104Y-72108115D01*
X64534430Y-72007144D01*
X64534440Y-72007132D01*
X64538096Y-72003489D01*
X64597594Y-71920689D01*
X64665435Y-71826277D01*
X64668453Y-71822077D01*
X64689320Y-71779857D01*
X64765136Y-71626453D01*
X64765137Y-71626451D01*
X64767430Y-71621811D01*
X64832370Y-71408069D01*
X64861529Y-71186590D01*
X64863156Y-71120000D01*
X64844852Y-70897361D01*
X64790431Y-70680702D01*
X64701354Y-70475840D01*
X64580014Y-70288277D01*
X64429670Y-70123051D01*
X64425619Y-70119852D01*
X64425615Y-70119848D01*
X64258414Y-69987800D01*
X64258410Y-69987798D01*
X64254359Y-69984598D01*
X64213053Y-69961796D01*
X64163084Y-69911364D01*
X64148312Y-69841921D01*
X64173428Y-69775516D01*
X64200780Y-69748909D01*
X64244603Y-69717650D01*
X64379860Y-69621173D01*
X64538096Y-69463489D01*
X64597594Y-69380689D01*
X64665435Y-69286277D01*
X64668453Y-69282077D01*
X64678267Y-69262221D01*
X64765136Y-69086453D01*
X64765137Y-69086451D01*
X64767430Y-69081811D01*
X64832370Y-68868069D01*
X64861529Y-68646590D01*
X64863156Y-68580000D01*
X64844852Y-68357361D01*
X64790431Y-68140702D01*
X64701354Y-67935840D01*
X64661906Y-67874862D01*
X64582822Y-67752617D01*
X64582820Y-67752614D01*
X64580014Y-67748277D01*
X64429670Y-67583051D01*
X64425619Y-67579852D01*
X64425615Y-67579848D01*
X64258414Y-67447800D01*
X64258410Y-67447798D01*
X64254359Y-67444598D01*
X64213053Y-67421796D01*
X64163084Y-67371364D01*
X64148312Y-67301921D01*
X64173428Y-67235516D01*
X64200780Y-67208909D01*
X64244603Y-67177650D01*
X64379860Y-67081173D01*
X64538096Y-66923489D01*
X64597594Y-66840689D01*
X64665435Y-66746277D01*
X64668453Y-66742077D01*
X64678267Y-66722221D01*
X64765136Y-66546453D01*
X64765137Y-66546451D01*
X64767430Y-66541811D01*
X64832370Y-66328069D01*
X64861529Y-66106590D01*
X64863156Y-66040000D01*
X64844852Y-65817361D01*
X64790431Y-65600702D01*
X64701354Y-65395840D01*
X64661906Y-65334862D01*
X64582822Y-65212617D01*
X64582820Y-65212614D01*
X64580014Y-65208277D01*
X64429670Y-65043051D01*
X64425619Y-65039852D01*
X64425615Y-65039848D01*
X64258414Y-64907800D01*
X64258410Y-64907798D01*
X64254359Y-64904598D01*
X64213053Y-64881796D01*
X64163084Y-64831364D01*
X64148312Y-64761921D01*
X64173428Y-64695516D01*
X64200780Y-64668909D01*
X64244603Y-64637650D01*
X64379860Y-64541173D01*
X64538096Y-64383489D01*
X64597594Y-64300689D01*
X64665435Y-64206277D01*
X64668453Y-64202077D01*
X64678267Y-64182221D01*
X64765136Y-64006453D01*
X64765137Y-64006451D01*
X64767430Y-64001811D01*
X64832370Y-63788069D01*
X64861529Y-63566590D01*
X64863156Y-63500000D01*
X64844852Y-63277361D01*
X64790431Y-63060702D01*
X64701354Y-62855840D01*
X64643845Y-62766944D01*
X64582822Y-62672617D01*
X64582820Y-62672614D01*
X64580014Y-62668277D01*
X64429670Y-62503051D01*
X64425619Y-62499852D01*
X64425615Y-62499848D01*
X64258414Y-62367800D01*
X64258410Y-62367798D01*
X64254359Y-62364598D01*
X64213053Y-62341796D01*
X64163084Y-62291364D01*
X64148312Y-62221921D01*
X64173428Y-62155516D01*
X64200780Y-62128909D01*
X64244603Y-62097650D01*
X64379860Y-62001173D01*
X64538096Y-61843489D01*
X64547670Y-61830166D01*
X64665435Y-61666277D01*
X64668453Y-61662077D01*
X64678006Y-61642749D01*
X64765136Y-61466453D01*
X64765137Y-61466451D01*
X64767430Y-61461811D01*
X64832370Y-61248069D01*
X64861529Y-61026590D01*
X64863156Y-60960000D01*
X64844852Y-60737361D01*
X64790431Y-60520702D01*
X64701354Y-60315840D01*
X64643845Y-60226944D01*
X64582822Y-60132617D01*
X64582820Y-60132614D01*
X64580014Y-60128277D01*
X64429670Y-59963051D01*
X64425619Y-59959852D01*
X64425615Y-59959848D01*
X64258414Y-59827800D01*
X64258410Y-59827798D01*
X64254359Y-59824598D01*
X64058789Y-59716638D01*
X64053920Y-59714914D01*
X64053916Y-59714912D01*
X63853087Y-59643795D01*
X63853083Y-59643794D01*
X63848212Y-59642069D01*
X63843119Y-59641162D01*
X63843116Y-59641161D01*
X63633373Y-59603800D01*
X63633367Y-59603799D01*
X63628284Y-59602894D01*
X63554452Y-59601992D01*
X63410081Y-59600228D01*
X63410079Y-59600228D01*
X63404911Y-59600165D01*
X63184091Y-59633955D01*
X62971756Y-59703357D01*
X62773607Y-59806507D01*
X62769474Y-59809610D01*
X62769471Y-59809612D01*
X62599100Y-59937530D01*
X62594965Y-59940635D01*
X62440629Y-60102138D01*
X62333201Y-60259621D01*
X62278293Y-60304621D01*
X62207768Y-60312792D01*
X62144021Y-60281538D01*
X62123324Y-60257054D01*
X62042822Y-60132617D01*
X62042820Y-60132614D01*
X62040014Y-60128277D01*
X61889670Y-59963051D01*
X61885619Y-59959852D01*
X61885615Y-59959848D01*
X61718414Y-59827800D01*
X61718410Y-59827798D01*
X61714359Y-59824598D01*
X61518789Y-59716638D01*
X61513920Y-59714914D01*
X61513916Y-59714912D01*
X61313087Y-59643795D01*
X61313083Y-59643794D01*
X61308212Y-59642069D01*
X61303119Y-59641162D01*
X61303116Y-59641161D01*
X61093373Y-59603800D01*
X61093367Y-59603799D01*
X61088284Y-59602894D01*
X61014452Y-59601992D01*
X60870081Y-59600228D01*
X60870079Y-59600228D01*
X60864911Y-59600165D01*
X60644091Y-59633955D01*
X60431756Y-59703357D01*
X60233607Y-59806507D01*
X60229474Y-59809610D01*
X60229471Y-59809612D01*
X60059100Y-59937530D01*
X60054965Y-59940635D01*
X59900629Y-60102138D01*
X59774743Y-60286680D01*
X59749163Y-60341787D01*
X59686290Y-60477237D01*
X59680688Y-60489305D01*
X59620989Y-60704570D01*
X59597251Y-60926695D01*
X59597548Y-60931848D01*
X59597548Y-60931851D01*
X59603011Y-61026590D01*
X59610110Y-61149715D01*
X59611247Y-61154761D01*
X59611248Y-61154767D01*
X59631119Y-61242939D01*
X59659222Y-61367639D01*
X59743266Y-61574616D01*
X59782638Y-61638866D01*
X59857291Y-61760688D01*
X59859987Y-61765088D01*
X60006250Y-61933938D01*
X60178126Y-62076632D01*
X60248595Y-62117811D01*
X60251445Y-62119476D01*
X60300169Y-62171114D01*
X60313240Y-62240897D01*
X60286509Y-62306669D01*
X60246055Y-62340027D01*
X60233607Y-62346507D01*
X60229474Y-62349610D01*
X60229471Y-62349612D01*
X60059100Y-62477530D01*
X60054965Y-62480635D01*
X59900629Y-62642138D01*
X59774743Y-62826680D01*
X59759003Y-62860590D01*
X59686290Y-63017237D01*
X59680688Y-63029305D01*
X59620989Y-63244570D01*
X59597251Y-63466695D01*
X59597548Y-63471848D01*
X59597548Y-63471851D01*
X59603011Y-63566590D01*
X59610110Y-63689715D01*
X59611247Y-63694761D01*
X59611248Y-63694767D01*
X59631119Y-63782939D01*
X59659222Y-63907639D01*
X59743266Y-64114616D01*
X59784694Y-64182221D01*
X59857291Y-64300688D01*
X59859987Y-64305088D01*
X60006250Y-64473938D01*
X60178126Y-64616632D01*
X60248595Y-64657811D01*
X60251445Y-64659476D01*
X60300169Y-64711114D01*
X60313240Y-64780897D01*
X60286509Y-64846669D01*
X60246055Y-64880027D01*
X60233607Y-64886507D01*
X60229474Y-64889610D01*
X60229471Y-64889612D01*
X60205247Y-64907800D01*
X60054965Y-65020635D01*
X59900629Y-65182138D01*
X59774743Y-65366680D01*
X59680688Y-65569305D01*
X59620989Y-65784570D01*
X59597251Y-66006695D01*
X59597548Y-66011848D01*
X59597548Y-66011851D01*
X59603011Y-66106590D01*
X59610110Y-66229715D01*
X59611247Y-66234761D01*
X59611248Y-66234767D01*
X59631119Y-66322939D01*
X59659222Y-66447639D01*
X59743266Y-66654616D01*
X59784694Y-66722221D01*
X59857291Y-66840688D01*
X59859987Y-66845088D01*
X60006250Y-67013938D01*
X60178126Y-67156632D01*
X60248595Y-67197811D01*
X60251445Y-67199476D01*
X60300169Y-67251114D01*
X60313240Y-67320897D01*
X60286509Y-67386669D01*
X60246055Y-67420027D01*
X60233607Y-67426507D01*
X60229474Y-67429610D01*
X60229471Y-67429612D01*
X60205247Y-67447800D01*
X60054965Y-67560635D01*
X59900629Y-67722138D01*
X59774743Y-67906680D01*
X59680688Y-68109305D01*
X59620989Y-68324570D01*
X59597251Y-68546695D01*
X59597548Y-68551848D01*
X59597548Y-68551851D01*
X59603011Y-68646590D01*
X59610110Y-68769715D01*
X59611247Y-68774761D01*
X59611248Y-68774767D01*
X59631119Y-68862939D01*
X59659222Y-68987639D01*
X59743266Y-69194616D01*
X59784694Y-69262221D01*
X59857291Y-69380688D01*
X59859987Y-69385088D01*
X60006250Y-69553938D01*
X60178126Y-69696632D01*
X60248595Y-69737811D01*
X60251445Y-69739476D01*
X60300169Y-69791114D01*
X60313240Y-69860897D01*
X60286509Y-69926669D01*
X60246055Y-69960027D01*
X60233607Y-69966507D01*
X60229474Y-69969610D01*
X60229471Y-69969612D01*
X60205247Y-69987800D01*
X60054965Y-70100635D01*
X59900629Y-70262138D01*
X59774743Y-70446680D01*
X59680688Y-70649305D01*
X59620989Y-70864570D01*
X59597251Y-71086695D01*
X58420000Y-71086695D01*
X58420000Y-54238134D01*
X73571500Y-54238134D01*
X73578255Y-54300316D01*
X73629385Y-54436705D01*
X73716739Y-54553261D01*
X73833295Y-54640615D01*
X73969684Y-54691745D01*
X74031866Y-54698500D01*
X74170500Y-54698500D01*
X74238621Y-54718502D01*
X74285114Y-54772158D01*
X74296500Y-54824500D01*
X74296500Y-61527476D01*
X74276498Y-61595597D01*
X74264142Y-61611779D01*
X74190960Y-61693056D01*
X74095473Y-61858444D01*
X74036458Y-62040072D01*
X74016496Y-62230000D01*
X74017186Y-62236565D01*
X74030381Y-62362104D01*
X74036458Y-62419928D01*
X74095473Y-62601556D01*
X74098776Y-62607278D01*
X74098777Y-62607279D01*
X74118903Y-62642138D01*
X74190960Y-62766944D01*
X74195378Y-62771851D01*
X74195379Y-62771852D01*
X74267087Y-62851492D01*
X74318747Y-62908866D01*
X74386578Y-62958148D01*
X74459881Y-63011406D01*
X74473248Y-63021118D01*
X74479276Y-63023802D01*
X74479278Y-63023803D01*
X74573426Y-63065720D01*
X74647712Y-63098794D01*
X74741113Y-63118647D01*
X74828056Y-63137128D01*
X74828061Y-63137128D01*
X74834513Y-63138500D01*
X75025487Y-63138500D01*
X75031939Y-63137128D01*
X75031944Y-63137128D01*
X75118887Y-63118647D01*
X75212288Y-63098794D01*
X75286574Y-63065720D01*
X75380722Y-63023803D01*
X75380724Y-63023802D01*
X75386752Y-63021118D01*
X75400120Y-63011406D01*
X75473422Y-62958148D01*
X75541253Y-62908866D01*
X75592913Y-62851492D01*
X75664621Y-62771852D01*
X75664622Y-62771851D01*
X75669040Y-62766944D01*
X75741097Y-62642138D01*
X75761223Y-62607279D01*
X75761224Y-62607278D01*
X75764527Y-62601556D01*
X75823542Y-62419928D01*
X75829620Y-62362104D01*
X75842814Y-62236565D01*
X75843504Y-62230000D01*
X75823542Y-62040072D01*
X75764527Y-61858444D01*
X75669040Y-61693056D01*
X75595863Y-61611785D01*
X75565147Y-61547779D01*
X75563500Y-61527476D01*
X75563500Y-54824500D01*
X75583502Y-54756379D01*
X75637158Y-54709886D01*
X75689500Y-54698500D01*
X75828134Y-54698500D01*
X75890316Y-54691745D01*
X76026705Y-54640615D01*
X76143261Y-54553261D01*
X76230615Y-54436705D01*
X76251433Y-54381173D01*
X76274598Y-54319382D01*
X76317240Y-54262618D01*
X76383802Y-54237918D01*
X76453150Y-54253126D01*
X76487817Y-54281114D01*
X76516250Y-54313938D01*
X76688126Y-54456632D01*
X76774070Y-54506853D01*
X76822794Y-54558491D01*
X76836500Y-54615641D01*
X76836500Y-56447476D01*
X76816498Y-56515597D01*
X76804142Y-56531779D01*
X76730960Y-56613056D01*
X76635473Y-56778444D01*
X76576458Y-56960072D01*
X76575768Y-56966633D01*
X76575768Y-56966635D01*
X76572963Y-56993327D01*
X76556496Y-57150000D01*
X76576458Y-57339928D01*
X76635473Y-57521556D01*
X76730960Y-57686944D01*
X76858747Y-57828866D01*
X77013248Y-57941118D01*
X77019276Y-57943802D01*
X77019278Y-57943803D01*
X77181681Y-58016109D01*
X77187712Y-58018794D01*
X77281112Y-58038647D01*
X77368056Y-58057128D01*
X77368061Y-58057128D01*
X77374513Y-58058500D01*
X77565487Y-58058500D01*
X77571939Y-58057128D01*
X77571944Y-58057128D01*
X77658888Y-58038647D01*
X77752288Y-58018794D01*
X77758319Y-58016109D01*
X77920722Y-57943803D01*
X77920724Y-57943802D01*
X77926752Y-57941118D01*
X78081253Y-57828866D01*
X78209040Y-57686944D01*
X78304527Y-57521556D01*
X78363542Y-57339928D01*
X78383504Y-57150000D01*
X78367037Y-56993327D01*
X78364232Y-56966635D01*
X78364232Y-56966633D01*
X78363542Y-56960072D01*
X78304527Y-56778444D01*
X78209040Y-56613056D01*
X78135863Y-56531785D01*
X78105147Y-56467779D01*
X78103500Y-56447476D01*
X78103500Y-54620427D01*
X78123502Y-54552306D01*
X78164618Y-54512550D01*
X78167994Y-54510896D01*
X78349860Y-54381173D01*
X78508096Y-54223489D01*
X78567594Y-54140689D01*
X78635435Y-54046277D01*
X78638453Y-54042077D01*
X78648267Y-54022221D01*
X78735136Y-53846453D01*
X78735137Y-53846451D01*
X78737430Y-53841811D01*
X78802370Y-53628069D01*
X78831529Y-53406590D01*
X78833156Y-53340000D01*
X78814852Y-53117361D01*
X78760431Y-52900702D01*
X78671354Y-52695840D01*
X78631906Y-52634862D01*
X78552822Y-52512617D01*
X78552820Y-52512614D01*
X78550014Y-52508277D01*
X78399670Y-52343051D01*
X78395619Y-52339852D01*
X78395615Y-52339848D01*
X78228414Y-52207800D01*
X78228410Y-52207798D01*
X78224359Y-52204598D01*
X78028789Y-52096638D01*
X78023920Y-52094914D01*
X78023916Y-52094912D01*
X77823087Y-52023795D01*
X77823083Y-52023794D01*
X77818212Y-52022069D01*
X77813119Y-52021162D01*
X77813116Y-52021161D01*
X77603373Y-51983800D01*
X77603367Y-51983799D01*
X77598284Y-51982894D01*
X77524452Y-51981992D01*
X77380081Y-51980228D01*
X77380079Y-51980228D01*
X77374911Y-51980165D01*
X77154091Y-52013955D01*
X76941756Y-52083357D01*
X76743607Y-52186507D01*
X76739474Y-52189610D01*
X76739471Y-52189612D01*
X76569100Y-52317530D01*
X76564965Y-52320635D01*
X76508537Y-52379684D01*
X76484283Y-52405064D01*
X76422759Y-52440494D01*
X76351846Y-52437037D01*
X76294060Y-52395791D01*
X76275207Y-52362243D01*
X76233767Y-52251703D01*
X76230615Y-52243295D01*
X76143261Y-52126739D01*
X76026705Y-52039385D01*
X75890316Y-51988255D01*
X75828134Y-51981500D01*
X74031866Y-51981500D01*
X73969684Y-51988255D01*
X73833295Y-52039385D01*
X73716739Y-52126739D01*
X73629385Y-52243295D01*
X73578255Y-52379684D01*
X73571500Y-52441866D01*
X73571500Y-54238134D01*
X58420000Y-54238134D01*
X58420000Y-48260000D01*
X59926411Y-48260000D01*
X59946754Y-48648176D01*
X60007562Y-49032099D01*
X60108167Y-49407562D01*
X60109352Y-49410650D01*
X60109353Y-49410652D01*
X60141822Y-49495236D01*
X60247468Y-49770453D01*
X60423938Y-50116794D01*
X60425734Y-50119560D01*
X60425736Y-50119563D01*
X60442802Y-50145842D01*
X60635643Y-50442793D01*
X60880266Y-50744876D01*
X61155124Y-51019734D01*
X61457207Y-51264357D01*
X61459970Y-51266152D01*
X61459971Y-51266152D01*
X61749476Y-51454158D01*
X61783205Y-51476062D01*
X61786139Y-51477557D01*
X61786146Y-51477561D01*
X62126607Y-51651034D01*
X62129547Y-51652532D01*
X62492438Y-51791833D01*
X62867901Y-51892438D01*
X63071793Y-51924732D01*
X63248576Y-51952732D01*
X63248584Y-51952733D01*
X63251824Y-51953246D01*
X63640000Y-51973589D01*
X64028176Y-51953246D01*
X64031416Y-51952733D01*
X64031424Y-51952732D01*
X64208207Y-51924732D01*
X64412099Y-51892438D01*
X64787562Y-51791833D01*
X65150453Y-51652532D01*
X65153393Y-51651034D01*
X65493854Y-51477561D01*
X65493861Y-51477557D01*
X65496795Y-51476062D01*
X65530525Y-51454158D01*
X65820029Y-51266152D01*
X65820030Y-51266152D01*
X65822793Y-51264357D01*
X66124876Y-51019734D01*
X66399734Y-50744876D01*
X66644357Y-50442793D01*
X66837198Y-50145842D01*
X66854264Y-50119563D01*
X66854266Y-50119560D01*
X66856062Y-50116794D01*
X67032532Y-49770453D01*
X67138178Y-49495236D01*
X67170647Y-49410652D01*
X67170648Y-49410650D01*
X67171833Y-49407562D01*
X67188312Y-49346062D01*
X70398493Y-49346062D01*
X70407789Y-49358077D01*
X70458994Y-49393931D01*
X70468489Y-49399414D01*
X70665947Y-49491490D01*
X70676239Y-49495236D01*
X70886688Y-49551625D01*
X70897481Y-49553528D01*
X71114525Y-49572517D01*
X71125475Y-49572517D01*
X71342519Y-49553528D01*
X71353312Y-49551625D01*
X71563761Y-49495236D01*
X71574053Y-49491490D01*
X71771511Y-49399414D01*
X71781006Y-49393931D01*
X71833048Y-49357491D01*
X71841424Y-49347012D01*
X71834356Y-49333566D01*
X71132812Y-48632022D01*
X71118868Y-48624408D01*
X71117035Y-48624539D01*
X71110420Y-48628790D01*
X70404923Y-49334287D01*
X70398493Y-49346062D01*
X67188312Y-49346062D01*
X67272438Y-49032099D01*
X67333246Y-48648176D01*
X67353302Y-48265475D01*
X69807483Y-48265475D01*
X69826472Y-48482519D01*
X69828375Y-48493312D01*
X69884764Y-48703761D01*
X69888510Y-48714053D01*
X69980586Y-48911511D01*
X69986069Y-48921006D01*
X70022509Y-48973048D01*
X70032988Y-48981424D01*
X70046434Y-48974356D01*
X70747978Y-48272812D01*
X70754356Y-48261132D01*
X71484408Y-48261132D01*
X71484539Y-48262965D01*
X71488790Y-48269580D01*
X72194287Y-48975077D01*
X72206062Y-48981507D01*
X72218077Y-48972211D01*
X72253931Y-48921006D01*
X72259414Y-48911511D01*
X72351490Y-48714053D01*
X72355236Y-48703761D01*
X72411625Y-48493312D01*
X72413528Y-48482519D01*
X72432517Y-48265475D01*
X72432517Y-48260000D01*
X79966502Y-48260000D01*
X79986457Y-48488087D01*
X79987881Y-48493400D01*
X79987881Y-48493402D01*
X80025025Y-48632022D01*
X80045716Y-48709243D01*
X80048039Y-48714224D01*
X80048039Y-48714225D01*
X80140151Y-48911762D01*
X80140154Y-48911767D01*
X80142477Y-48916749D01*
X80273802Y-49104300D01*
X80435700Y-49266198D01*
X80440208Y-49269355D01*
X80440211Y-49269357D01*
X80592771Y-49376181D01*
X80637099Y-49431638D01*
X80646500Y-49479394D01*
X80646500Y-56447476D01*
X80626498Y-56515597D01*
X80614142Y-56531779D01*
X80540960Y-56613056D01*
X80445473Y-56778444D01*
X80386458Y-56960072D01*
X80385768Y-56966633D01*
X80385768Y-56966635D01*
X80382963Y-56993327D01*
X80366496Y-57150000D01*
X80386458Y-57339928D01*
X80445473Y-57521556D01*
X80540960Y-57686944D01*
X80668747Y-57828866D01*
X80823248Y-57941118D01*
X80829276Y-57943802D01*
X80829278Y-57943803D01*
X80991681Y-58016109D01*
X80997712Y-58018794D01*
X81091112Y-58038647D01*
X81178056Y-58057128D01*
X81178061Y-58057128D01*
X81184513Y-58058500D01*
X81375487Y-58058500D01*
X81381939Y-58057128D01*
X81381944Y-58057128D01*
X81468888Y-58038647D01*
X81562288Y-58018794D01*
X81568319Y-58016109D01*
X81730722Y-57943803D01*
X81730724Y-57943802D01*
X81736752Y-57941118D01*
X81891253Y-57828866D01*
X82019040Y-57686944D01*
X82114527Y-57521556D01*
X82173542Y-57339928D01*
X82193504Y-57150000D01*
X82177037Y-56993327D01*
X82174232Y-56966635D01*
X82174232Y-56966633D01*
X82173542Y-56960072D01*
X82114527Y-56778444D01*
X82019040Y-56613056D01*
X81945863Y-56531785D01*
X81915147Y-56467779D01*
X81913500Y-56447476D01*
X81913500Y-49479394D01*
X81933502Y-49411273D01*
X81967229Y-49376181D01*
X82010243Y-49346062D01*
X88178493Y-49346062D01*
X88187789Y-49358077D01*
X88238994Y-49393931D01*
X88248489Y-49399414D01*
X88445947Y-49491490D01*
X88456239Y-49495236D01*
X88666688Y-49551625D01*
X88677481Y-49553528D01*
X88894525Y-49572517D01*
X88905475Y-49572517D01*
X89122519Y-49553528D01*
X89133312Y-49551625D01*
X89343761Y-49495236D01*
X89354053Y-49491490D01*
X89551511Y-49399414D01*
X89561006Y-49393931D01*
X89613048Y-49357491D01*
X89621424Y-49347012D01*
X89614356Y-49333566D01*
X88912812Y-48632022D01*
X88898868Y-48624408D01*
X88897035Y-48624539D01*
X88890420Y-48628790D01*
X88184923Y-49334287D01*
X88178493Y-49346062D01*
X82010243Y-49346062D01*
X82119789Y-49269357D01*
X82119792Y-49269355D01*
X82124300Y-49266198D01*
X82286198Y-49104300D01*
X82417523Y-48916749D01*
X82419846Y-48911767D01*
X82419849Y-48911762D01*
X82511961Y-48714225D01*
X82511961Y-48714224D01*
X82514284Y-48709243D01*
X82534976Y-48632022D01*
X82572119Y-48493402D01*
X82572119Y-48493400D01*
X82573543Y-48488087D01*
X82593019Y-48265475D01*
X87587483Y-48265475D01*
X87606472Y-48482519D01*
X87608375Y-48493312D01*
X87664764Y-48703761D01*
X87668510Y-48714053D01*
X87760586Y-48911511D01*
X87766069Y-48921006D01*
X87802509Y-48973048D01*
X87812988Y-48981424D01*
X87826434Y-48974356D01*
X88527978Y-48272812D01*
X88534356Y-48261132D01*
X89264408Y-48261132D01*
X89264539Y-48262965D01*
X89268790Y-48269580D01*
X89974287Y-48975077D01*
X89986062Y-48981507D01*
X89998077Y-48972211D01*
X90033931Y-48921006D01*
X90039414Y-48911511D01*
X90131490Y-48714053D01*
X90135236Y-48703761D01*
X90191625Y-48493312D01*
X90193528Y-48482519D01*
X90212517Y-48265475D01*
X90212517Y-48260000D01*
X97746502Y-48260000D01*
X97766457Y-48488087D01*
X97767881Y-48493400D01*
X97767881Y-48493402D01*
X97805025Y-48632022D01*
X97825716Y-48709243D01*
X97828039Y-48714224D01*
X97828039Y-48714225D01*
X97920151Y-48911762D01*
X97920154Y-48911767D01*
X97922477Y-48916749D01*
X98053802Y-49104300D01*
X98215700Y-49266198D01*
X98220208Y-49269355D01*
X98220211Y-49269357D01*
X98372771Y-49376181D01*
X98417099Y-49431638D01*
X98426500Y-49479394D01*
X98426500Y-53907476D01*
X98406498Y-53975597D01*
X98394142Y-53991779D01*
X98320960Y-54073056D01*
X98225473Y-54238444D01*
X98166458Y-54420072D01*
X98165768Y-54426633D01*
X98165768Y-54426635D01*
X98163200Y-54451071D01*
X98146496Y-54610000D01*
X98147186Y-54616565D01*
X98165594Y-54791703D01*
X98166458Y-54799928D01*
X98225473Y-54981556D01*
X98228776Y-54987278D01*
X98228777Y-54987279D01*
X98248903Y-55022138D01*
X98320960Y-55146944D01*
X98325375Y-55151847D01*
X98325379Y-55151852D01*
X98392000Y-55225842D01*
X98448747Y-55288866D01*
X98523333Y-55343056D01*
X98589881Y-55391406D01*
X98603248Y-55401118D01*
X98609276Y-55403802D01*
X98609278Y-55403803D01*
X98703426Y-55445720D01*
X98777712Y-55478794D01*
X98871113Y-55498647D01*
X98958056Y-55517128D01*
X98958061Y-55517128D01*
X98964513Y-55518500D01*
X99155487Y-55518500D01*
X99161939Y-55517128D01*
X99161944Y-55517128D01*
X99248888Y-55498647D01*
X99342288Y-55478794D01*
X99416574Y-55445720D01*
X99510722Y-55403803D01*
X99510724Y-55403802D01*
X99516752Y-55401118D01*
X99530120Y-55391406D01*
X99596667Y-55343056D01*
X99671253Y-55288866D01*
X99728000Y-55225842D01*
X99794621Y-55151852D01*
X99794625Y-55151847D01*
X99799040Y-55146944D01*
X99871097Y-55022138D01*
X99891223Y-54987279D01*
X99891224Y-54987278D01*
X99894527Y-54981556D01*
X99953542Y-54799928D01*
X99954407Y-54791703D01*
X99972814Y-54616565D01*
X99973504Y-54610000D01*
X99956800Y-54451071D01*
X99954232Y-54426635D01*
X99954232Y-54426633D01*
X99953542Y-54420072D01*
X99894527Y-54238444D01*
X99799040Y-54073056D01*
X99725863Y-53991785D01*
X99695147Y-53927779D01*
X99693500Y-53907476D01*
X99693500Y-49479394D01*
X99713502Y-49411273D01*
X99747229Y-49376181D01*
X99899789Y-49269357D01*
X99899792Y-49269355D01*
X99904300Y-49266198D01*
X100066198Y-49104300D01*
X100197523Y-48916749D01*
X100199846Y-48911767D01*
X100199849Y-48911762D01*
X100291961Y-48714225D01*
X100291961Y-48714224D01*
X100294284Y-48709243D01*
X100314976Y-48632022D01*
X100352119Y-48493402D01*
X100352119Y-48493400D01*
X100353543Y-48488087D01*
X100373498Y-48260000D01*
X105366502Y-48260000D01*
X105386457Y-48488087D01*
X105387881Y-48493400D01*
X105387881Y-48493402D01*
X105425025Y-48632022D01*
X105445716Y-48709243D01*
X105448039Y-48714224D01*
X105448039Y-48714225D01*
X105540151Y-48911762D01*
X105540154Y-48911767D01*
X105542477Y-48916749D01*
X105673802Y-49104300D01*
X105835700Y-49266198D01*
X105840208Y-49269355D01*
X105840211Y-49269357D01*
X105918389Y-49324098D01*
X106023251Y-49397523D01*
X106028233Y-49399846D01*
X106028238Y-49399849D01*
X106198825Y-49479394D01*
X106230757Y-49494284D01*
X106236065Y-49495706D01*
X106236067Y-49495707D01*
X106446598Y-49552119D01*
X106446600Y-49552119D01*
X106451913Y-49553543D01*
X106680000Y-49573498D01*
X106908087Y-49553543D01*
X106913400Y-49552119D01*
X106913402Y-49552119D01*
X107123933Y-49495707D01*
X107123935Y-49495706D01*
X107129243Y-49494284D01*
X107161175Y-49479394D01*
X107331762Y-49399849D01*
X107331767Y-49399846D01*
X107336749Y-49397523D01*
X107441611Y-49324098D01*
X107519789Y-49269357D01*
X107519792Y-49269355D01*
X107524300Y-49266198D01*
X107686198Y-49104300D01*
X107817523Y-48916749D01*
X107819846Y-48911767D01*
X107819849Y-48911762D01*
X107911961Y-48714225D01*
X107911961Y-48714224D01*
X107914284Y-48709243D01*
X107934976Y-48632022D01*
X107972119Y-48493402D01*
X107972119Y-48493400D01*
X107973543Y-48488087D01*
X107993498Y-48260000D01*
X115526502Y-48260000D01*
X115546457Y-48488087D01*
X115547881Y-48493400D01*
X115547881Y-48493402D01*
X115585025Y-48632022D01*
X115605716Y-48709243D01*
X115608039Y-48714224D01*
X115608039Y-48714225D01*
X115700151Y-48911762D01*
X115700154Y-48911767D01*
X115702477Y-48916749D01*
X115833802Y-49104300D01*
X115995700Y-49266198D01*
X116000208Y-49269355D01*
X116000211Y-49269357D01*
X116152771Y-49376181D01*
X116197099Y-49431638D01*
X116206500Y-49479394D01*
X116206500Y-50097476D01*
X116186498Y-50165597D01*
X116174142Y-50181779D01*
X116100960Y-50263056D01*
X116005473Y-50428444D01*
X115946458Y-50610072D01*
X115926496Y-50800000D01*
X115946458Y-50989928D01*
X116005473Y-51171556D01*
X116100960Y-51336944D01*
X116228747Y-51478866D01*
X116383248Y-51591118D01*
X116389276Y-51593802D01*
X116389278Y-51593803D01*
X116523846Y-51653716D01*
X116557712Y-51668794D01*
X116651113Y-51688647D01*
X116738056Y-51707128D01*
X116738061Y-51707128D01*
X116744513Y-51708500D01*
X116935487Y-51708500D01*
X116941939Y-51707128D01*
X116941944Y-51707128D01*
X117028888Y-51688647D01*
X117122288Y-51668794D01*
X117156154Y-51653716D01*
X117290722Y-51593803D01*
X117290724Y-51593802D01*
X117296752Y-51591118D01*
X117451253Y-51478866D01*
X117579040Y-51336944D01*
X117674527Y-51171556D01*
X117733542Y-50989928D01*
X117753504Y-50800000D01*
X117733542Y-50610072D01*
X117674527Y-50428444D01*
X117579040Y-50263056D01*
X117505863Y-50181785D01*
X117475147Y-50117779D01*
X117473500Y-50097476D01*
X117473500Y-49479394D01*
X117493502Y-49411273D01*
X117527229Y-49376181D01*
X117679789Y-49269357D01*
X117679792Y-49269355D01*
X117684300Y-49266198D01*
X117846198Y-49104300D01*
X117977523Y-48916749D01*
X117979846Y-48911767D01*
X117979849Y-48911762D01*
X118071961Y-48714225D01*
X118071961Y-48714224D01*
X118074284Y-48709243D01*
X118094976Y-48632022D01*
X118132119Y-48493402D01*
X118132119Y-48493400D01*
X118133543Y-48488087D01*
X118153498Y-48260000D01*
X120746411Y-48260000D01*
X120766754Y-48648176D01*
X120827562Y-49032099D01*
X120928167Y-49407562D01*
X120929352Y-49410650D01*
X120929353Y-49410652D01*
X120961822Y-49495236D01*
X121067468Y-49770453D01*
X121243938Y-50116794D01*
X121245734Y-50119560D01*
X121245736Y-50119563D01*
X121262802Y-50145842D01*
X121455643Y-50442793D01*
X121700266Y-50744876D01*
X121975124Y-51019734D01*
X122277207Y-51264357D01*
X122279970Y-51266152D01*
X122279971Y-51266152D01*
X122569476Y-51454158D01*
X122603205Y-51476062D01*
X122606139Y-51477557D01*
X122606146Y-51477561D01*
X122946607Y-51651034D01*
X122949547Y-51652532D01*
X123312438Y-51791833D01*
X123687901Y-51892438D01*
X123891793Y-51924732D01*
X124068576Y-51952732D01*
X124068584Y-51952733D01*
X124071824Y-51953246D01*
X124460000Y-51973589D01*
X124848176Y-51953246D01*
X124851416Y-51952733D01*
X124851424Y-51952732D01*
X125028207Y-51924732D01*
X125232099Y-51892438D01*
X125607562Y-51791833D01*
X125970453Y-51652532D01*
X125973393Y-51651034D01*
X126313854Y-51477561D01*
X126313861Y-51477557D01*
X126316795Y-51476062D01*
X126350525Y-51454158D01*
X126640029Y-51266152D01*
X126640030Y-51266152D01*
X126642793Y-51264357D01*
X126944876Y-51019734D01*
X127219734Y-50744876D01*
X127464357Y-50442793D01*
X127657198Y-50145842D01*
X127674264Y-50119563D01*
X127674266Y-50119560D01*
X127676062Y-50116794D01*
X127852532Y-49770453D01*
X127958178Y-49495236D01*
X127990647Y-49410652D01*
X127990648Y-49410650D01*
X127991833Y-49407562D01*
X128092438Y-49032099D01*
X128153246Y-48648176D01*
X128173589Y-48260000D01*
X128153246Y-47871824D01*
X128092438Y-47487901D01*
X127991833Y-47112438D01*
X127958544Y-47025716D01*
X127853716Y-46752632D01*
X127852532Y-46749547D01*
X127676062Y-46403206D01*
X127464357Y-46077207D01*
X127219734Y-45775124D01*
X126944876Y-45500266D01*
X126642793Y-45255643D01*
X126316795Y-45043938D01*
X126313861Y-45042443D01*
X126313854Y-45042439D01*
X125973393Y-44868966D01*
X125970453Y-44867468D01*
X125607562Y-44728167D01*
X125232099Y-44627562D01*
X125028207Y-44595268D01*
X124851424Y-44567268D01*
X124851416Y-44567267D01*
X124848176Y-44566754D01*
X124460000Y-44546411D01*
X124071824Y-44566754D01*
X124068584Y-44567267D01*
X124068576Y-44567268D01*
X123891793Y-44595268D01*
X123687901Y-44627562D01*
X123312438Y-44728167D01*
X122949547Y-44867468D01*
X122946607Y-44868966D01*
X122606147Y-45042439D01*
X122606140Y-45042443D01*
X122603206Y-45043938D01*
X122277207Y-45255643D01*
X121975124Y-45500266D01*
X121700266Y-45775124D01*
X121455643Y-46077207D01*
X121243938Y-46403206D01*
X121067468Y-46749547D01*
X121066284Y-46752632D01*
X120961457Y-47025716D01*
X120928167Y-47112438D01*
X120827562Y-47487901D01*
X120766754Y-47871824D01*
X120746411Y-48260000D01*
X118153498Y-48260000D01*
X118133543Y-48031913D01*
X118096981Y-47895461D01*
X118075707Y-47816067D01*
X118075706Y-47816065D01*
X118074284Y-47810757D01*
X117979966Y-47608489D01*
X117979849Y-47608238D01*
X117979846Y-47608233D01*
X117977523Y-47603251D01*
X117846198Y-47415700D01*
X117684300Y-47253802D01*
X117679792Y-47250645D01*
X117679789Y-47250643D01*
X117553920Y-47162509D01*
X117496749Y-47122477D01*
X117491767Y-47120154D01*
X117491762Y-47120151D01*
X117294225Y-47028039D01*
X117294224Y-47028039D01*
X117289243Y-47025716D01*
X117283935Y-47024294D01*
X117283933Y-47024293D01*
X117073402Y-46967881D01*
X117073400Y-46967881D01*
X117068087Y-46966457D01*
X116840000Y-46946502D01*
X116611913Y-46966457D01*
X116606600Y-46967881D01*
X116606598Y-46967881D01*
X116396067Y-47024293D01*
X116396065Y-47024294D01*
X116390757Y-47025716D01*
X116385776Y-47028039D01*
X116385775Y-47028039D01*
X116188238Y-47120151D01*
X116188233Y-47120154D01*
X116183251Y-47122477D01*
X116126080Y-47162509D01*
X116000211Y-47250643D01*
X116000208Y-47250645D01*
X115995700Y-47253802D01*
X115833802Y-47415700D01*
X115702477Y-47603251D01*
X115700154Y-47608233D01*
X115700151Y-47608238D01*
X115700034Y-47608489D01*
X115605716Y-47810757D01*
X115604294Y-47816065D01*
X115604293Y-47816067D01*
X115583019Y-47895461D01*
X115546457Y-48031913D01*
X115526502Y-48260000D01*
X107993498Y-48260000D01*
X107973543Y-48031913D01*
X107936981Y-47895461D01*
X107915707Y-47816067D01*
X107915706Y-47816065D01*
X107914284Y-47810757D01*
X107819966Y-47608489D01*
X107819849Y-47608238D01*
X107819846Y-47608233D01*
X107817523Y-47603251D01*
X107686198Y-47415700D01*
X107524300Y-47253802D01*
X107519792Y-47250645D01*
X107519789Y-47250643D01*
X107393920Y-47162509D01*
X107336749Y-47122477D01*
X107331767Y-47120154D01*
X107331762Y-47120151D01*
X107134225Y-47028039D01*
X107134224Y-47028039D01*
X107129243Y-47025716D01*
X107123935Y-47024294D01*
X107123933Y-47024293D01*
X106913402Y-46967881D01*
X106913400Y-46967881D01*
X106908087Y-46966457D01*
X106680000Y-46946502D01*
X106451913Y-46966457D01*
X106446600Y-46967881D01*
X106446598Y-46967881D01*
X106236067Y-47024293D01*
X106236065Y-47024294D01*
X106230757Y-47025716D01*
X106225776Y-47028039D01*
X106225775Y-47028039D01*
X106028238Y-47120151D01*
X106028233Y-47120154D01*
X106023251Y-47122477D01*
X105966080Y-47162509D01*
X105840211Y-47250643D01*
X105840208Y-47250645D01*
X105835700Y-47253802D01*
X105673802Y-47415700D01*
X105542477Y-47603251D01*
X105540154Y-47608233D01*
X105540151Y-47608238D01*
X105540034Y-47608489D01*
X105445716Y-47810757D01*
X105444294Y-47816065D01*
X105444293Y-47816067D01*
X105423019Y-47895461D01*
X105386457Y-48031913D01*
X105366502Y-48260000D01*
X100373498Y-48260000D01*
X100353543Y-48031913D01*
X100316981Y-47895461D01*
X100295707Y-47816067D01*
X100295706Y-47816065D01*
X100294284Y-47810757D01*
X100199966Y-47608489D01*
X100199849Y-47608238D01*
X100199846Y-47608233D01*
X100197523Y-47603251D01*
X100066198Y-47415700D01*
X99904300Y-47253802D01*
X99899792Y-47250645D01*
X99899789Y-47250643D01*
X99773920Y-47162509D01*
X99716749Y-47122477D01*
X99711767Y-47120154D01*
X99711762Y-47120151D01*
X99514225Y-47028039D01*
X99514224Y-47028039D01*
X99509243Y-47025716D01*
X99503935Y-47024294D01*
X99503933Y-47024293D01*
X99293402Y-46967881D01*
X99293400Y-46967881D01*
X99288087Y-46966457D01*
X99060000Y-46946502D01*
X98831913Y-46966457D01*
X98826600Y-46967881D01*
X98826598Y-46967881D01*
X98616067Y-47024293D01*
X98616065Y-47024294D01*
X98610757Y-47025716D01*
X98605776Y-47028039D01*
X98605775Y-47028039D01*
X98408238Y-47120151D01*
X98408233Y-47120154D01*
X98403251Y-47122477D01*
X98346080Y-47162509D01*
X98220211Y-47250643D01*
X98220208Y-47250645D01*
X98215700Y-47253802D01*
X98053802Y-47415700D01*
X97922477Y-47603251D01*
X97920154Y-47608233D01*
X97920151Y-47608238D01*
X97920034Y-47608489D01*
X97825716Y-47810757D01*
X97824294Y-47816065D01*
X97824293Y-47816067D01*
X97803019Y-47895461D01*
X97766457Y-48031913D01*
X97746502Y-48260000D01*
X90212517Y-48260000D01*
X90212517Y-48254525D01*
X90193528Y-48037481D01*
X90191625Y-48026688D01*
X90135236Y-47816239D01*
X90131490Y-47805947D01*
X90039414Y-47608489D01*
X90033931Y-47598994D01*
X89997491Y-47546952D01*
X89987012Y-47538576D01*
X89973566Y-47545644D01*
X89272022Y-48247188D01*
X89264408Y-48261132D01*
X88534356Y-48261132D01*
X88535592Y-48258868D01*
X88535461Y-48257035D01*
X88531210Y-48250420D01*
X87825713Y-47544923D01*
X87813938Y-47538493D01*
X87801923Y-47547789D01*
X87766069Y-47598994D01*
X87760586Y-47608489D01*
X87668510Y-47805947D01*
X87664764Y-47816239D01*
X87608375Y-48026688D01*
X87606472Y-48037481D01*
X87587483Y-48254525D01*
X87587483Y-48265475D01*
X82593019Y-48265475D01*
X82593498Y-48260000D01*
X82573543Y-48031913D01*
X82536981Y-47895461D01*
X82515707Y-47816067D01*
X82515706Y-47816065D01*
X82514284Y-47810757D01*
X82419966Y-47608489D01*
X82419849Y-47608238D01*
X82419846Y-47608233D01*
X82417523Y-47603251D01*
X82286198Y-47415700D01*
X82124300Y-47253802D01*
X82119792Y-47250645D01*
X82119789Y-47250643D01*
X82008886Y-47172988D01*
X88178576Y-47172988D01*
X88185644Y-47186434D01*
X88887188Y-47887978D01*
X88901132Y-47895592D01*
X88902965Y-47895461D01*
X88909580Y-47891210D01*
X89615077Y-47185713D01*
X89621507Y-47173938D01*
X89612211Y-47161923D01*
X89561006Y-47126069D01*
X89551511Y-47120586D01*
X89354053Y-47028510D01*
X89343761Y-47024764D01*
X89133312Y-46968375D01*
X89122519Y-46966472D01*
X88905475Y-46947483D01*
X88894525Y-46947483D01*
X88677481Y-46966472D01*
X88666688Y-46968375D01*
X88456239Y-47024764D01*
X88445947Y-47028510D01*
X88248489Y-47120586D01*
X88238994Y-47126069D01*
X88186952Y-47162509D01*
X88178576Y-47172988D01*
X82008886Y-47172988D01*
X81993920Y-47162509D01*
X81936749Y-47122477D01*
X81931767Y-47120154D01*
X81931762Y-47120151D01*
X81734225Y-47028039D01*
X81734224Y-47028039D01*
X81729243Y-47025716D01*
X81723935Y-47024294D01*
X81723933Y-47024293D01*
X81513402Y-46967881D01*
X81513400Y-46967881D01*
X81508087Y-46966457D01*
X81280000Y-46946502D01*
X81051913Y-46966457D01*
X81046600Y-46967881D01*
X81046598Y-46967881D01*
X80836067Y-47024293D01*
X80836065Y-47024294D01*
X80830757Y-47025716D01*
X80825776Y-47028039D01*
X80825775Y-47028039D01*
X80628238Y-47120151D01*
X80628233Y-47120154D01*
X80623251Y-47122477D01*
X80566080Y-47162509D01*
X80440211Y-47250643D01*
X80440208Y-47250645D01*
X80435700Y-47253802D01*
X80273802Y-47415700D01*
X80142477Y-47603251D01*
X80140154Y-47608233D01*
X80140151Y-47608238D01*
X80140034Y-47608489D01*
X80045716Y-47810757D01*
X80044294Y-47816065D01*
X80044293Y-47816067D01*
X80023019Y-47895461D01*
X79986457Y-48031913D01*
X79966502Y-48260000D01*
X72432517Y-48260000D01*
X72432517Y-48254525D01*
X72413528Y-48037481D01*
X72411625Y-48026688D01*
X72355236Y-47816239D01*
X72351490Y-47805947D01*
X72259414Y-47608489D01*
X72253931Y-47598994D01*
X72217491Y-47546952D01*
X72207012Y-47538576D01*
X72193566Y-47545644D01*
X71492022Y-48247188D01*
X71484408Y-48261132D01*
X70754356Y-48261132D01*
X70755592Y-48258868D01*
X70755461Y-48257035D01*
X70751210Y-48250420D01*
X70045713Y-47544923D01*
X70033938Y-47538493D01*
X70021923Y-47547789D01*
X69986069Y-47598994D01*
X69980586Y-47608489D01*
X69888510Y-47805947D01*
X69884764Y-47816239D01*
X69828375Y-48026688D01*
X69826472Y-48037481D01*
X69807483Y-48254525D01*
X69807483Y-48265475D01*
X67353302Y-48265475D01*
X67353589Y-48260000D01*
X67333246Y-47871824D01*
X67272438Y-47487901D01*
X67188057Y-47172988D01*
X70398576Y-47172988D01*
X70405644Y-47186434D01*
X71107188Y-47887978D01*
X71121132Y-47895592D01*
X71122965Y-47895461D01*
X71129580Y-47891210D01*
X71835077Y-47185713D01*
X71841507Y-47173938D01*
X71832211Y-47161923D01*
X71781006Y-47126069D01*
X71771511Y-47120586D01*
X71574053Y-47028510D01*
X71563761Y-47024764D01*
X71353312Y-46968375D01*
X71342519Y-46966472D01*
X71125475Y-46947483D01*
X71114525Y-46947483D01*
X70897481Y-46966472D01*
X70886688Y-46968375D01*
X70676239Y-47024764D01*
X70665947Y-47028510D01*
X70468489Y-47120586D01*
X70458994Y-47126069D01*
X70406952Y-47162509D01*
X70398576Y-47172988D01*
X67188057Y-47172988D01*
X67171833Y-47112438D01*
X67138544Y-47025716D01*
X67033716Y-46752632D01*
X67032532Y-46749547D01*
X66856062Y-46403206D01*
X66644357Y-46077207D01*
X66399734Y-45775124D01*
X66124876Y-45500266D01*
X65822793Y-45255643D01*
X65496795Y-45043938D01*
X65493861Y-45042443D01*
X65493854Y-45042439D01*
X65153393Y-44868966D01*
X65150453Y-44867468D01*
X64787562Y-44728167D01*
X64412099Y-44627562D01*
X64208207Y-44595268D01*
X64031424Y-44567268D01*
X64031416Y-44567267D01*
X64028176Y-44566754D01*
X63640000Y-44546411D01*
X63251824Y-44566754D01*
X63248584Y-44567267D01*
X63248576Y-44567268D01*
X63071793Y-44595268D01*
X62867901Y-44627562D01*
X62492438Y-44728167D01*
X62129547Y-44867468D01*
X62126607Y-44868966D01*
X61786147Y-45042439D01*
X61786140Y-45042443D01*
X61783206Y-45043938D01*
X61457207Y-45255643D01*
X61155124Y-45500266D01*
X60880266Y-45775124D01*
X60635643Y-46077207D01*
X60423938Y-46403206D01*
X60247468Y-46749547D01*
X60246284Y-46752632D01*
X60141457Y-47025716D01*
X60108167Y-47112438D01*
X60007562Y-47487901D01*
X59946754Y-47871824D01*
X59926411Y-48260000D01*
X58420000Y-48260000D01*
X58420000Y-43814000D01*
X58440002Y-43745879D01*
X58493658Y-43699386D01*
X58546000Y-43688000D01*
X129414000Y-43688000D01*
X129482121Y-43708002D01*
G37*
%TD.AperFunction*%
%TD*%
M02*
