%TF.GenerationSoftware,KiCad,Pcbnew,(6.0.1)*%
%TF.CreationDate,2022-02-05T13:29:02+01:00*%
%TF.ProjectId,modules_board,6d6f6475-6c65-4735-9f62-6f6172642e6b,rev?*%
%TF.SameCoordinates,Original*%
%TF.FileFunction,Copper,L1,Top*%
%TF.FilePolarity,Positive*%
%FSLAX46Y46*%
G04 Gerber Fmt 4.6, Leading zero omitted, Abs format (unit mm)*
G04 Created by KiCad (PCBNEW (6.0.1)) date 2022-02-05 13:29:02*
%MOMM*%
%LPD*%
G01*
G04 APERTURE LIST*
%TA.AperFunction,ComponentPad*%
%ADD10R,1.700000X1.700000*%
%TD*%
%TA.AperFunction,ComponentPad*%
%ADD11O,1.700000X1.700000*%
%TD*%
%TA.AperFunction,ComponentPad*%
%ADD12C,0.800000*%
%TD*%
%TA.AperFunction,ComponentPad*%
%ADD13C,6.400000*%
%TD*%
%TA.AperFunction,ComponentPad*%
%ADD14C,1.600000*%
%TD*%
%TA.AperFunction,ComponentPad*%
%ADD15O,1.600000X1.600000*%
%TD*%
%TA.AperFunction,ComponentPad*%
%ADD16C,1.524000*%
%TD*%
%TA.AperFunction,ViaPad*%
%ADD17C,0.800000*%
%TD*%
%TA.AperFunction,Conductor*%
%ADD18C,0.250000*%
%TD*%
G04 APERTURE END LIST*
D10*
%TO.P,J1,1,Pin_1*%
%TO.N,VCC*%
X63500000Y-119380000D03*
D11*
%TO.P,J1,2,Pin_2*%
X60960000Y-119380000D03*
%TO.P,J1,3,Pin_3*%
%TO.N,GND*%
X63500000Y-116840000D03*
%TO.P,J1,4,Pin_4*%
X60960000Y-116840000D03*
%TO.P,J1,5,Pin_5*%
%TO.N,PMOD_I2C_SDA*%
X63500000Y-114300000D03*
%TO.P,J1,6,Pin_6*%
%TO.N,PMOD_I2C_GPIO4*%
X60960000Y-114300000D03*
%TO.P,J1,7,Pin_7*%
%TO.N,PMOD_I2C_SCL*%
X63500000Y-111760000D03*
%TO.P,J1,8,Pin_8*%
%TO.N,PMOD_I2C_GPIO3*%
X60960000Y-111760000D03*
%TO.P,J1,9,Pin_9*%
%TO.N,PMOD_I2C_RESET*%
X63500000Y-109220000D03*
%TO.P,J1,10,Pin_10*%
%TO.N,PMOD_I2C_GPIO2*%
X60960000Y-109220000D03*
%TO.P,J1,11,Pin_11*%
%TO.N,PMOD_I2C_INT*%
X63500000Y-106680000D03*
%TO.P,J1,12,Pin_12*%
%TO.N,PMOD_I2C_GPIO1*%
X60960000Y-106680000D03*
%TD*%
D10*
%TO.P,J2,1,Pin_1*%
%TO.N,VCC*%
X63500000Y-96520000D03*
D11*
%TO.P,J2,2,Pin_2*%
X60960000Y-96520000D03*
%TO.P,J2,3,Pin_3*%
%TO.N,GND*%
X63500000Y-93980000D03*
%TO.P,J2,4,Pin_4*%
X60960000Y-93980000D03*
%TO.P,J2,5,Pin_5*%
%TO.N,PMOD_UART_RTS*%
X63500000Y-91440000D03*
%TO.P,J2,6,Pin_6*%
%TO.N,PMOD_UART_GPIO4*%
X60960000Y-91440000D03*
%TO.P,J2,7,Pin_7*%
%TO.N,PMOD_UART_RXD*%
X63500000Y-88900000D03*
%TO.P,J2,8,Pin_8*%
%TO.N,PMOD_UART_GPIO3*%
X60960000Y-88900000D03*
%TO.P,J2,9,Pin_9*%
%TO.N,PMOD_UART_TXD*%
X63500000Y-86360000D03*
%TO.P,J2,10,Pin_10*%
%TO.N,PMOD_UART_RESET*%
X60960000Y-86360000D03*
%TO.P,J2,11,Pin_11*%
%TO.N,PMOD_UART_CTS*%
X63500000Y-83820000D03*
%TO.P,J2,12,Pin_12*%
%TO.N,PMOD_UART_INT*%
X60960000Y-83820000D03*
%TD*%
D10*
%TO.P,J3,1,Pin_1*%
%TO.N,VCC*%
X63500000Y-73660000D03*
D11*
%TO.P,J3,2,Pin_2*%
X60960000Y-73660000D03*
%TO.P,J3,3,Pin_3*%
%TO.N,GND*%
X63500000Y-71120000D03*
%TO.P,J3,4,Pin_4*%
X60960000Y-71120000D03*
%TO.P,J3,5,Pin_5*%
%TO.N,PMOD_SPI_SCK*%
X63500000Y-68580000D03*
%TO.P,J3,6,Pin_6*%
%TO.N,PMOD_SPI_CS3*%
X60960000Y-68580000D03*
%TO.P,J3,7,Pin_7*%
%TO.N,PMOD_SPI_MISO*%
X63500000Y-66040000D03*
%TO.P,J3,8,Pin_8*%
%TO.N,PMOD_SPI_CS2*%
X60960000Y-66040000D03*
%TO.P,J3,9,Pin_9*%
%TO.N,PMOD_SPI_MOSI*%
X63500000Y-63500000D03*
%TO.P,J3,10,Pin_10*%
%TO.N,PMOD_SPI_RESET*%
X60960000Y-63500000D03*
%TO.P,J3,11,Pin_11*%
%TO.N,PMOD_SPI_CS*%
X63500000Y-60960000D03*
%TO.P,J3,12,Pin_12*%
%TO.N,PMOD_SPI_INT*%
X60960000Y-60960000D03*
%TD*%
D10*
%TO.P,J7,1,Pin_1*%
%TO.N,VCC*%
X124460000Y-119380000D03*
D11*
%TO.P,J7,2,Pin_2*%
X127000000Y-119380000D03*
%TO.P,J7,3,Pin_3*%
%TO.N,GND*%
X124460000Y-116840000D03*
%TO.P,J7,4,Pin_4*%
X127000000Y-116840000D03*
%TO.P,J7,5,Pin_5*%
%TO.N,PMOD_I2C_SDA*%
X124460000Y-114300000D03*
%TO.P,J7,6,Pin_6*%
%TO.N,PMOD_I2C_GPIO4*%
X127000000Y-114300000D03*
%TO.P,J7,7,Pin_7*%
%TO.N,PMOD_I2C_SCL*%
X124460000Y-111760000D03*
%TO.P,J7,8,Pin_8*%
%TO.N,PMOD_I2C_GPIO3*%
X127000000Y-111760000D03*
%TO.P,J7,9,Pin_9*%
%TO.N,PMOD_I2C_RESET*%
X124460000Y-109220000D03*
%TO.P,J7,10,Pin_10*%
%TO.N,PMOD_I2C_GPIO2*%
X127000000Y-109220000D03*
%TO.P,J7,11,Pin_11*%
%TO.N,PMOD_I2C_INT*%
X124460000Y-106680000D03*
%TO.P,J7,12,Pin_12*%
%TO.N,PMOD_I2C_GPIO1*%
X127000000Y-106680000D03*
%TD*%
D10*
%TO.P,J8,1,Pin_1*%
%TO.N,VCC*%
X124460000Y-96520000D03*
D11*
%TO.P,J8,2,Pin_2*%
X127000000Y-96520000D03*
%TO.P,J8,3,Pin_3*%
%TO.N,GND*%
X124460000Y-93980000D03*
%TO.P,J8,4,Pin_4*%
X127000000Y-93980000D03*
%TO.P,J8,5,Pin_5*%
%TO.N,PMOD_UART_RTS*%
X124460000Y-91440000D03*
%TO.P,J8,6,Pin_6*%
%TO.N,PMOD_UART_GPIO4*%
X127000000Y-91440000D03*
%TO.P,J8,7,Pin_7*%
%TO.N,PMOD_UART_RXD*%
X124460000Y-88900000D03*
%TO.P,J8,8,Pin_8*%
%TO.N,PMOD_UART_GPIO3*%
X127000000Y-88900000D03*
%TO.P,J8,9,Pin_9*%
%TO.N,PMOD_UART_TXD*%
X124460000Y-86360000D03*
%TO.P,J8,10,Pin_10*%
%TO.N,PMOD_UART_RESET*%
X127000000Y-86360000D03*
%TO.P,J8,11,Pin_11*%
%TO.N,PMOD_UART_CTS*%
X124460000Y-83820000D03*
%TO.P,J8,12,Pin_12*%
%TO.N,PMOD_UART_INT*%
X127000000Y-83820000D03*
%TD*%
D10*
%TO.P,J9,1,Pin_1*%
%TO.N,VCC*%
X124460000Y-73660000D03*
D11*
%TO.P,J9,2,Pin_2*%
X127000000Y-73660000D03*
%TO.P,J9,3,Pin_3*%
%TO.N,GND*%
X124460000Y-71120000D03*
%TO.P,J9,4,Pin_4*%
X127000000Y-71120000D03*
%TO.P,J9,5,Pin_5*%
%TO.N,PMOD_SPI_SCK*%
X124460000Y-68580000D03*
%TO.P,J9,6,Pin_6*%
%TO.N,PMOD_SPI_CS3*%
X127000000Y-68580000D03*
%TO.P,J9,7,Pin_7*%
%TO.N,PMOD_SPI_MISO*%
X124460000Y-66040000D03*
%TO.P,J9,8,Pin_8*%
%TO.N,PMOD_SPI_CS2*%
X127000000Y-66040000D03*
%TO.P,J9,9,Pin_9*%
%TO.N,PMOD_SPI_MOSI*%
X124460000Y-63500000D03*
%TO.P,J9,10,Pin_10*%
%TO.N,PMOD_SPI_RESET*%
X127000000Y-63500000D03*
%TO.P,J9,11,Pin_11*%
%TO.N,PMOD_SPI_CS*%
X124460000Y-60960000D03*
%TO.P,J9,12,Pin_12*%
%TO.N,PMOD_SPI_INT*%
X127000000Y-60960000D03*
%TD*%
D12*
%TO.P,H1,1*%
%TO.N,N/C*%
X66040000Y-48260000D03*
X61942944Y-49957056D03*
X63640000Y-45860000D03*
X65337056Y-46562944D03*
X63640000Y-50660000D03*
X61240000Y-48260000D03*
X65337056Y-49957056D03*
D13*
X63640000Y-48260000D03*
D12*
X61942944Y-46562944D03*
%TD*%
D13*
%TO.P,H2,1*%
%TO.N,N/C*%
X63640000Y-132080000D03*
D12*
X63640000Y-134480000D03*
X66040000Y-132080000D03*
X65337056Y-133777056D03*
X61240000Y-132080000D03*
X61942944Y-130382944D03*
X65337056Y-130382944D03*
X63640000Y-129680000D03*
X61942944Y-133777056D03*
%TD*%
%TO.P,H3,1*%
%TO.N,N/C*%
X126860000Y-48260000D03*
D13*
X124460000Y-48260000D03*
D12*
X124460000Y-45860000D03*
X122060000Y-48260000D03*
X126157056Y-46562944D03*
X124460000Y-50660000D03*
X122762944Y-49957056D03*
X122762944Y-46562944D03*
X126157056Y-49957056D03*
%TD*%
%TO.P,H4,1*%
%TO.N,N/C*%
X122762944Y-133777056D03*
X122060000Y-132080000D03*
X122762944Y-130382944D03*
X126157056Y-130382944D03*
X126860000Y-132080000D03*
X124460000Y-134480000D03*
D13*
X124460000Y-132080000D03*
D12*
X126157056Y-133777056D03*
X124460000Y-129680000D03*
%TD*%
D14*
%TO.P,R2,1*%
%TO.N,VCC*%
X88900000Y-48260000D03*
D15*
%TO.P,R2,2*%
%TO.N,INT*%
X99060000Y-48260000D03*
%TD*%
D14*
%TO.P,R1,1*%
%TO.N,VCC*%
X71120000Y-48260000D03*
D15*
%TO.P,R1,2*%
%TO.N,RESET*%
X81280000Y-48260000D03*
%TD*%
D14*
%TO.P,R3,1*%
%TO.N,GND*%
X106680000Y-48260000D03*
D15*
%TO.P,R3,2*%
%TO.N,STB*%
X116840000Y-48260000D03*
%TD*%
D10*
%TO.P,J6,1,Pin_1*%
%TO.N,PMOD_SPI_INT*%
X92710000Y-53340000D03*
D11*
%TO.P,J6,2,Pin_2*%
%TO.N,INT*%
X95250000Y-53340000D03*
%TD*%
D16*
%TO.P,U1,1,INT*%
%TO.N,INT*%
X83820000Y-76200000D03*
%TO.P,U1,2,~{CS}*%
%TO.N,CS*%
X86360000Y-76200000D03*
%TO.P,U1,3,STB*%
%TO.N,STB*%
X88900000Y-76200000D03*
%TO.P,U1,4,~{RST}*%
%TO.N,RESET*%
X91440000Y-76200000D03*
%TO.P,U1,5,MOSI*%
%TO.N,PMOD_SPI_MOSI*%
X93980000Y-76200000D03*
%TO.P,U1,6,MISO*%
%TO.N,PMOD_SPI_MISO*%
X96520000Y-76200000D03*
%TO.P,U1,7,SCK*%
%TO.N,PMOD_SPI_SCK*%
X99060000Y-76200000D03*
%TO.P,U1,8,VCC*%
%TO.N,VCC*%
X101600000Y-76200000D03*
%TO.P,U1,9,GND*%
%TO.N,GND*%
X104140000Y-76200000D03*
%TD*%
D10*
%TO.P,J4,1,Pin_1*%
%TO.N,PMOD_SPI_CS*%
X109220000Y-55880000D03*
D11*
%TO.P,J4,2,Pin_2*%
%TO.N,CS*%
X109220000Y-53340000D03*
%TO.P,J4,3,Pin_3*%
%TO.N,PMOD_SPI_CS2*%
X111760000Y-55880000D03*
%TO.P,J4,4,Pin_4*%
%TO.N,CS*%
X111760000Y-53340000D03*
%TO.P,J4,5,Pin_5*%
%TO.N,PMOD_SPI_CS3*%
X114300000Y-55880000D03*
%TO.P,J4,6,Pin_6*%
%TO.N,CS*%
X114300000Y-53340000D03*
%TD*%
D10*
%TO.P,J5,1,Pin_1*%
%TO.N,PMOD_SPI_RESET*%
X74930000Y-53340000D03*
D11*
%TO.P,J5,2,Pin_2*%
%TO.N,RESET*%
X77470000Y-53340000D03*
%TD*%
D17*
%TO.N,GND*%
X111760000Y-78740000D03*
X76200000Y-78740000D03*
X68580000Y-78740000D03*
X110490000Y-77470000D03*
X77470000Y-77470000D03*
X119380000Y-78740000D03*
X69850000Y-77470000D03*
X118110000Y-77470000D03*
%TO.N,PMOD_SPI_INT*%
X92710000Y-59690000D03*
%TO.N,PMOD_SPI_CS*%
X109220000Y-60960000D03*
%TO.N,PMOD_SPI_RESET*%
X74930000Y-62230000D03*
%TO.N,PMOD_SPI_MOSI*%
X93980000Y-63500000D03*
%TO.N,PMOD_SPI_CS2*%
X111760000Y-64865489D03*
%TO.N,PMOD_SPI_MISO*%
X96520000Y-66040000D03*
%TO.N,PMOD_SPI_CS3*%
X114300000Y-67405489D03*
%TO.N,PMOD_SPI_SCK*%
X99060000Y-68580000D03*
%TO.N,CS*%
X106680000Y-55880000D03*
X106680000Y-53340000D03*
X86360000Y-55880000D03*
%TO.N,RESET*%
X77470000Y-57150000D03*
X91440000Y-57150000D03*
X81280000Y-57150000D03*
%TO.N,INT*%
X99060000Y-54610000D03*
X83820000Y-54610000D03*
X95250000Y-54610000D03*
%TO.N,STB*%
X116840000Y-50800000D03*
X88900000Y-50800000D03*
%TD*%
D18*
%TO.N,PMOD_UART_INT*%
X125730000Y-82550000D02*
X127000000Y-83820000D01*
X78083850Y-70485000D02*
X109855000Y-70485000D01*
X109855000Y-70485000D02*
X110039990Y-70669990D01*
X62240575Y-82539425D02*
X66029425Y-82539425D01*
X60960000Y-83820000D02*
X62240575Y-82539425D01*
X66029425Y-82539425D02*
X78083850Y-70485000D01*
X121941150Y-82550000D02*
X125730000Y-82550000D01*
X110039990Y-70669990D02*
X110061141Y-70669991D01*
X110061141Y-70669991D02*
X121941150Y-82550000D01*
%TO.N,PMOD_UART_CTS*%
X77920009Y-71304991D02*
X77900269Y-71304991D01*
X109874740Y-71120000D02*
X78105000Y-71120000D01*
X122574740Y-83820000D02*
X109874740Y-71120000D01*
X65385260Y-83820000D02*
X63500000Y-83820000D01*
X77900269Y-71304991D02*
X65385260Y-83820000D01*
X78105000Y-71120000D02*
X77920009Y-71304991D01*
X124460000Y-83820000D02*
X122574740Y-83820000D01*
%TO.N,PMOD_UART_RESET*%
X110039990Y-71939990D02*
X110058321Y-71939991D01*
X64846669Y-84995001D02*
X78086670Y-71755000D01*
X125720835Y-85080835D02*
X127000000Y-86360000D01*
X78086670Y-71755000D02*
X109855000Y-71755000D01*
X60960000Y-86360000D02*
X62324999Y-84995001D01*
X62324999Y-84995001D02*
X64846669Y-84995001D01*
X110058321Y-71939991D02*
X123199165Y-85080835D01*
X109855000Y-71755000D02*
X110039990Y-71939990D01*
X123199165Y-85080835D02*
X125720835Y-85080835D01*
%TO.N,PMOD_UART_TXD*%
X65405000Y-85073080D02*
X78088080Y-72390000D01*
X123841920Y-86360000D02*
X124460000Y-86360000D01*
X78088080Y-72390000D02*
X109871920Y-72390000D01*
X65405000Y-85725000D02*
X65405000Y-85073080D01*
X109871920Y-72390000D02*
X123841920Y-86360000D01*
X63500000Y-86360000D02*
X64770000Y-86360000D01*
X64770000Y-86360000D02*
X65405000Y-85725000D01*
%TO.N,PMOD_UART_GPIO3*%
X122555000Y-87630000D02*
X121920000Y-86995000D01*
X77904499Y-73209991D02*
X77920009Y-73209991D01*
X66040000Y-85074490D02*
X66224991Y-84889499D01*
X77920009Y-73209991D02*
X78105000Y-73025000D01*
X121920000Y-86995000D02*
X121920000Y-85090000D01*
X121920000Y-85090000D02*
X121735010Y-84905010D01*
X66224991Y-84889499D02*
X66667245Y-84447245D01*
X78105000Y-73025000D02*
X80010000Y-73025000D01*
X125730000Y-87630000D02*
X122555000Y-87630000D01*
X66667245Y-84447245D02*
X77904499Y-73209991D01*
X80010000Y-73025000D02*
X80645000Y-73025000D01*
X127000000Y-88900000D02*
X125730000Y-87630000D01*
X121735009Y-84889499D02*
X109870510Y-73025000D01*
X66040000Y-86995000D02*
X66040000Y-85074490D01*
X109870510Y-73025000D02*
X80010000Y-73025000D01*
X65405000Y-87630000D02*
X66040000Y-86995000D01*
X121735010Y-84905010D02*
X121735009Y-84889499D01*
X60960000Y-88900000D02*
X62230000Y-87630000D01*
X62230000Y-87630000D02*
X65405000Y-87630000D01*
%TO.N,PMOD_UART_RXD*%
X66675000Y-88265000D02*
X66675000Y-85075900D01*
X66675000Y-85075900D02*
X78090900Y-73660000D01*
X66040000Y-88900000D02*
X66675000Y-88265000D01*
X121285000Y-85075900D02*
X121285000Y-88265000D01*
X109855000Y-73660000D02*
X110039990Y-73844990D01*
X121920000Y-88900000D02*
X124460000Y-88900000D01*
X78090900Y-73660000D02*
X109855000Y-73660000D01*
X63500000Y-88900000D02*
X66040000Y-88900000D01*
X121285000Y-88265000D02*
X121920000Y-88900000D01*
X110054091Y-73844991D02*
X121285000Y-85075900D01*
X110039990Y-73844990D02*
X110054091Y-73844991D01*
%TO.N,PMOD_UART_GPIO4*%
X120465010Y-84905010D02*
X120465009Y-84892319D01*
X67494991Y-84892319D02*
X67494990Y-84905010D01*
X62230000Y-90170000D02*
X60960000Y-91440000D01*
X78092310Y-74295000D02*
X67494991Y-84892319D01*
X120650000Y-85090000D02*
X120465010Y-84905010D01*
X120650000Y-89535000D02*
X120650000Y-85090000D01*
X121379999Y-90264999D02*
X120650000Y-89535000D01*
X66675000Y-90170000D02*
X62230000Y-90170000D01*
X120465009Y-84892319D02*
X109867690Y-74295000D01*
X67310000Y-85090000D02*
X67310000Y-89535000D01*
X109867690Y-74295000D02*
X78092310Y-74295000D01*
X67494990Y-84905010D02*
X67310000Y-85090000D01*
X125824999Y-90264999D02*
X121379999Y-90264999D01*
X127000000Y-91440000D02*
X125824999Y-90264999D01*
X67310000Y-89535000D02*
X66675000Y-90170000D01*
%TO.N,PMOD_UART_RTS*%
X109866280Y-74930000D02*
X120015000Y-85078720D01*
X80645000Y-74930000D02*
X80010000Y-74930000D01*
X80645000Y-74930000D02*
X109866280Y-74930000D01*
X66675000Y-91440000D02*
X67945000Y-90170000D01*
X120015000Y-85078720D02*
X120015000Y-90805000D01*
X78093720Y-74930000D02*
X80645000Y-74930000D01*
X67945000Y-85078720D02*
X78093720Y-74930000D01*
X120650000Y-91440000D02*
X124460000Y-91440000D01*
X120015000Y-90805000D02*
X120650000Y-91440000D01*
X63500000Y-91440000D02*
X66675000Y-91440000D01*
X67945000Y-90170000D02*
X67945000Y-85078720D01*
%TO.N,PMOD_SPI_INT*%
X60960000Y-60960000D02*
X62134511Y-59785489D01*
X125825489Y-59785489D02*
X127000000Y-60960000D01*
X62134511Y-59785489D02*
X125825489Y-59785489D01*
%TO.N,PMOD_SPI_CS*%
X63500000Y-60960000D02*
X80010000Y-60960000D01*
X109220000Y-60960000D02*
X124460000Y-60960000D01*
X80010000Y-60960000D02*
X109220000Y-60960000D01*
%TO.N,PMOD_SPI_RESET*%
X108045489Y-62134511D02*
X125634511Y-62134511D01*
X125634511Y-62134511D02*
X127000000Y-63500000D01*
X60960000Y-63500000D02*
X62325489Y-62134511D01*
X62325489Y-62134511D02*
X108045489Y-62134511D01*
%TO.N,PMOD_SPI_MOSI*%
X99060000Y-63500000D02*
X124460000Y-63500000D01*
X63500000Y-63500000D02*
X99060000Y-63500000D01*
%TO.N,PMOD_SPI_CS2*%
X77565489Y-64865489D02*
X62134511Y-64865489D01*
X111664511Y-64865489D02*
X77565489Y-64865489D01*
X62134511Y-64865489D02*
X60960000Y-66040000D01*
X111855489Y-64865489D02*
X111664511Y-64865489D01*
X125825489Y-64865489D02*
X111855489Y-64865489D01*
X127000000Y-66040000D02*
X125825489Y-64865489D01*
%TO.N,PMOD_SPI_MISO*%
X96520000Y-66040000D02*
X124460000Y-66040000D01*
X63500000Y-66040000D02*
X96520000Y-66040000D01*
%TO.N,PMOD_SPI_CS3*%
X125825489Y-67405489D02*
X127000000Y-68580000D01*
X62134511Y-67405489D02*
X114204511Y-67405489D01*
X114204511Y-67405489D02*
X125825489Y-67405489D01*
X60960000Y-68580000D02*
X62134511Y-67405489D01*
%TO.N,PMOD_SPI_SCK*%
X99060000Y-68580000D02*
X124460000Y-68580000D01*
X63500000Y-68580000D02*
X99060000Y-68580000D01*
%TO.N,PMOD_I2C_GPIO1*%
X68580000Y-104137180D02*
X68580000Y-85080130D01*
X60960000Y-106680000D02*
X62230000Y-105410000D01*
X119195715Y-84895845D02*
X114622435Y-80322565D01*
X114622435Y-80322565D02*
X114494860Y-80194990D01*
X67307180Y-105410000D02*
X68580000Y-104137180D01*
X120651410Y-105408590D02*
X119380000Y-104137180D01*
X119380000Y-104137180D02*
X119380000Y-102870000D01*
X119380000Y-85090000D02*
X119380000Y-85080130D01*
X119380000Y-102870000D02*
X119380000Y-85090000D01*
X73650130Y-80010000D02*
X114309870Y-80010000D01*
X114309870Y-80010000D02*
X114622435Y-80322565D01*
X125728590Y-105408590D02*
X120651410Y-105408590D01*
X127000000Y-106680000D02*
X125728590Y-105408590D01*
X68580000Y-85080130D02*
X73650130Y-80010000D01*
X62230000Y-105410000D02*
X67307180Y-105410000D01*
X119380000Y-85080130D02*
X114494860Y-80194990D01*
%TO.N,PMOD_I2C_INT*%
X69399991Y-84896549D02*
X69399990Y-84905010D01*
X69399990Y-84905010D02*
X69215000Y-85090000D01*
X118560009Y-84896549D02*
X114308460Y-80645000D01*
X118745705Y-104139295D02*
X118745705Y-85090705D01*
X67308590Y-106045000D02*
X67307180Y-106045000D01*
X69215000Y-85090000D02*
X69215000Y-104138590D01*
X66672180Y-106680000D02*
X63500000Y-106680000D01*
X118745705Y-104139295D02*
X118745000Y-104138590D01*
X69215000Y-104138590D02*
X67308590Y-106045000D01*
X114308460Y-80645000D02*
X73651540Y-80645000D01*
X124460000Y-106680000D02*
X121286410Y-106680000D01*
X67307180Y-106045000D02*
X66672180Y-106680000D01*
X121286410Y-106680000D02*
X118745705Y-104139295D01*
X118560010Y-84905010D02*
X118560009Y-84896549D01*
X118745705Y-85090705D02*
X118560010Y-84905010D01*
X73651540Y-80645000D02*
X69399991Y-84896549D01*
%TO.N,PMOD_I2C_GPIO2*%
X114307050Y-81280000D02*
X118110000Y-85082950D01*
X67310001Y-106679999D02*
X69850000Y-104140000D01*
X118110000Y-104140000D02*
X118110000Y-102870000D01*
X121920000Y-107950000D02*
X118110000Y-104140000D01*
X125730000Y-107950000D02*
X121920000Y-107950000D01*
X66039295Y-107949295D02*
X66674295Y-107314295D01*
X74295000Y-81280000D02*
X114300000Y-81280000D01*
X69850000Y-104140000D02*
X69850000Y-86360000D01*
X62230705Y-107949295D02*
X66039295Y-107949295D01*
X67308591Y-106679999D02*
X67310001Y-106679999D01*
X69850000Y-85090000D02*
X69850000Y-85082950D01*
X66674295Y-107314295D02*
X67308591Y-106679999D01*
X114300000Y-81280000D02*
X114307050Y-81280000D01*
X73652950Y-81280000D02*
X74295000Y-81280000D01*
X118110000Y-85082950D02*
X118110000Y-103505000D01*
X69850000Y-86360000D02*
X69850000Y-85090000D01*
X69850000Y-85082950D02*
X73652950Y-81280000D01*
X60960000Y-109220000D02*
X62230705Y-107949295D01*
X127000000Y-109220000D02*
X125730000Y-107950000D01*
%TO.N,PMOD_I2C_RESET*%
X67499221Y-107130009D02*
X67494991Y-107130009D01*
X114300000Y-81915000D02*
X73654360Y-81915000D01*
X73654360Y-81915000D02*
X70485000Y-85084360D01*
X67494991Y-107130009D02*
X65405000Y-109220000D01*
X117475000Y-85084360D02*
X114490631Y-82099991D01*
X117475000Y-104141410D02*
X117475000Y-85084360D01*
X70485000Y-104140000D02*
X70300010Y-104324990D01*
X70300009Y-104329221D02*
X67499221Y-107130009D01*
X122553590Y-109220000D02*
X117475000Y-104141410D01*
X70485000Y-85084360D02*
X70485000Y-104140000D01*
X65405000Y-109220000D02*
X63500000Y-109220000D01*
X124460000Y-109220000D02*
X122553590Y-109220000D01*
X70300010Y-104324990D02*
X70300009Y-104329221D01*
X114484990Y-82099990D02*
X114300000Y-81915000D01*
X114490631Y-82099991D02*
X114484990Y-82099990D01*
%TO.N,PMOD_I2C_GPIO3*%
X64676411Y-110584999D02*
X67681392Y-107580018D01*
X125824999Y-110584999D02*
X127000000Y-111760000D01*
X71120000Y-85090000D02*
X71304990Y-84905010D01*
X67681392Y-107580018D02*
X67685622Y-107580018D01*
X73655770Y-82550000D02*
X114304230Y-82550000D01*
X67685622Y-107580018D02*
X71120000Y-104145640D01*
X71120000Y-104145640D02*
X71120000Y-85090000D01*
X123282179Y-110584999D02*
X125824999Y-110584999D01*
X71304991Y-84900779D02*
X73655770Y-82550000D01*
X116840000Y-85085770D02*
X116840000Y-104142820D01*
X62135001Y-110584999D02*
X64676411Y-110584999D01*
X114304230Y-82550000D02*
X116840000Y-85085770D01*
X116840000Y-104142820D02*
X123282179Y-110584999D01*
X71304990Y-84905010D02*
X71304991Y-84900779D01*
X60960000Y-111760000D02*
X62135001Y-110584999D01*
%TO.N,PMOD_I2C_SCL*%
X116205000Y-85087180D02*
X114487811Y-83369991D01*
X71755000Y-104140000D02*
X71570010Y-104324990D01*
X71755000Y-85087180D02*
X71755000Y-104140000D01*
X73657180Y-83185000D02*
X71755000Y-85087180D01*
X114484990Y-83369990D02*
X114300000Y-83185000D01*
X71570010Y-104324990D02*
X71570009Y-104332041D01*
X124460000Y-111760000D02*
X123820770Y-111760000D01*
X116205000Y-104140000D02*
X116205000Y-85087180D01*
X123820770Y-111760000D02*
X116389991Y-104329221D01*
X116389990Y-104324990D02*
X116205000Y-104140000D01*
X71570009Y-104332041D02*
X64142050Y-111760000D01*
X64142050Y-111760000D02*
X63500000Y-111760000D01*
X114300000Y-83185000D02*
X73657180Y-83185000D01*
X116389991Y-104329221D02*
X116389990Y-104324990D01*
X114487811Y-83369991D02*
X114484990Y-83369990D01*
%TO.N,PMOD_I2C_GPIO4*%
X72574990Y-84905010D02*
X72390000Y-85090000D01*
X64140640Y-113024360D02*
X64140640Y-113030000D01*
X114301410Y-83820000D02*
X73658590Y-83820000D01*
X115570000Y-85088590D02*
X114301410Y-83820000D01*
X124085997Y-113124999D02*
X123284999Y-112324001D01*
X115570000Y-104145640D02*
X115570000Y-85088590D01*
X72574991Y-84903599D02*
X72574990Y-84905010D01*
X72390000Y-85090000D02*
X72390000Y-104148460D01*
X64675001Y-111863459D02*
X64675001Y-112489999D01*
X64675001Y-112489999D02*
X64140640Y-113024360D01*
X127000000Y-114300000D02*
X125824999Y-113124999D01*
X123284999Y-112324001D02*
X123284999Y-111860639D01*
X73658590Y-83820000D02*
X72574991Y-84903599D01*
X125824999Y-113124999D02*
X124085997Y-113124999D01*
X72390000Y-104148460D02*
X64675001Y-111863459D01*
X123284999Y-111860639D02*
X115570000Y-104145640D01*
X62230000Y-113030000D02*
X60960000Y-114300000D01*
X64140640Y-113030000D02*
X62230000Y-113030000D01*
%TO.N,PMOD_I2C_SDA*%
X72840009Y-104334861D02*
X65125011Y-112049859D01*
X114935000Y-85090000D02*
X114935000Y-104140000D01*
X115119991Y-104332041D02*
X122834989Y-112047039D01*
X65125011Y-112049859D02*
X65125011Y-112682039D01*
X114935000Y-104140000D02*
X115119990Y-104324990D01*
X73660000Y-84455000D02*
X74930000Y-84455000D01*
X74930000Y-84455000D02*
X75565000Y-84455000D01*
X65125011Y-112682039D02*
X63507050Y-114300000D01*
X122834989Y-112674989D02*
X124460000Y-114300000D01*
X74930000Y-84455000D02*
X114300000Y-84455000D01*
X72840010Y-104324990D02*
X72840009Y-104334861D01*
X73025000Y-85265364D02*
X73025000Y-85090000D01*
X73025000Y-85090000D02*
X73660000Y-84455000D01*
X115119990Y-104324990D02*
X115119991Y-104332041D01*
X114300000Y-84455000D02*
X114935000Y-85090000D01*
X73025000Y-85090000D02*
X73025000Y-104140000D01*
X122834989Y-112047039D02*
X122834989Y-112674989D01*
X73025000Y-104140000D02*
X72840010Y-104324990D01*
X63507050Y-114300000D02*
X63500000Y-114300000D01*
%TO.N,CS*%
X106680000Y-53340000D02*
X114300000Y-53340000D01*
X86360000Y-55880000D02*
X106680000Y-55880000D01*
%TO.N,RESET*%
X91440000Y-57150000D02*
X77470000Y-57150000D01*
%TO.N,INT*%
X83820000Y-54610000D02*
X95250000Y-54610000D01*
X99060000Y-54610000D02*
X95250000Y-54610000D01*
%TO.N,STB*%
X88900000Y-50800000D02*
X116840000Y-50800000D01*
%TD*%
%TA.AperFunction,Conductor*%
%TO.N,GND*%
G36*
X129482121Y-43708002D02*
G01*
X129528614Y-43761658D01*
X129540000Y-43814000D01*
X129540000Y-136526000D01*
X129519998Y-136594121D01*
X129466342Y-136640614D01*
X129414000Y-136652000D01*
X58546000Y-136652000D01*
X58477879Y-136631998D01*
X58431386Y-136578342D01*
X58420000Y-136526000D01*
X58420000Y-132080000D01*
X59926411Y-132080000D01*
X59946754Y-132468176D01*
X60007562Y-132852099D01*
X60108167Y-133227562D01*
X60247468Y-133590453D01*
X60423938Y-133936794D01*
X60635643Y-134262793D01*
X60880266Y-134564876D01*
X61155124Y-134839734D01*
X61457207Y-135084357D01*
X61783205Y-135296062D01*
X61786139Y-135297557D01*
X61786146Y-135297561D01*
X62126607Y-135471034D01*
X62129547Y-135472532D01*
X62492438Y-135611833D01*
X62867901Y-135712438D01*
X63071793Y-135744732D01*
X63248576Y-135772732D01*
X63248584Y-135772733D01*
X63251824Y-135773246D01*
X63640000Y-135793589D01*
X64028176Y-135773246D01*
X64031416Y-135772733D01*
X64031424Y-135772732D01*
X64208207Y-135744732D01*
X64412099Y-135712438D01*
X64787562Y-135611833D01*
X65150453Y-135472532D01*
X65153393Y-135471034D01*
X65493854Y-135297561D01*
X65493861Y-135297557D01*
X65496795Y-135296062D01*
X65822793Y-135084357D01*
X66124876Y-134839734D01*
X66399734Y-134564876D01*
X66644357Y-134262793D01*
X66856062Y-133936794D01*
X67032532Y-133590453D01*
X67171833Y-133227562D01*
X67272438Y-132852099D01*
X67333246Y-132468176D01*
X67353589Y-132080000D01*
X67333246Y-131691824D01*
X67272438Y-131307901D01*
X67171833Y-130932438D01*
X67032532Y-130569547D01*
X66856062Y-130223206D01*
X66644357Y-129897207D01*
X66399734Y-129595124D01*
X66124876Y-129320266D01*
X65822793Y-129075643D01*
X65496795Y-128863938D01*
X65493861Y-128862443D01*
X65493854Y-128862439D01*
X65153393Y-128688966D01*
X65150453Y-128687468D01*
X64787562Y-128548167D01*
X64412099Y-128447562D01*
X64208207Y-128415268D01*
X64031424Y-128387268D01*
X64031416Y-128387267D01*
X64028176Y-128386754D01*
X63640000Y-128366411D01*
X63251824Y-128386754D01*
X63248584Y-128387267D01*
X63248576Y-128387268D01*
X63071793Y-128415268D01*
X62867901Y-128447562D01*
X62492438Y-128548167D01*
X62129547Y-128687468D01*
X62126607Y-128688966D01*
X61786147Y-128862439D01*
X61786140Y-128862443D01*
X61783206Y-128863938D01*
X61457207Y-129075643D01*
X61155124Y-129320266D01*
X60880266Y-129595124D01*
X60635643Y-129897207D01*
X60423938Y-130223206D01*
X60247468Y-130569547D01*
X60108167Y-130932438D01*
X60007562Y-131307901D01*
X59946754Y-131691824D01*
X59926411Y-132080000D01*
X58420000Y-132080000D01*
X58420000Y-119346695D01*
X59597251Y-119346695D01*
X59597548Y-119351848D01*
X59597548Y-119351851D01*
X59603011Y-119446590D01*
X59610110Y-119569715D01*
X59611247Y-119574761D01*
X59611248Y-119574767D01*
X59631119Y-119662939D01*
X59659222Y-119787639D01*
X59743266Y-119994616D01*
X59859987Y-120185088D01*
X60006250Y-120353938D01*
X60178126Y-120496632D01*
X60371000Y-120609338D01*
X60579692Y-120689030D01*
X60584760Y-120690061D01*
X60584763Y-120690062D01*
X60692017Y-120711883D01*
X60798597Y-120733567D01*
X60803772Y-120733757D01*
X60803774Y-120733757D01*
X61016673Y-120741564D01*
X61016677Y-120741564D01*
X61021837Y-120741753D01*
X61026957Y-120741097D01*
X61026959Y-120741097D01*
X61238288Y-120714025D01*
X61238289Y-120714025D01*
X61243416Y-120713368D01*
X61248366Y-120711883D01*
X61452429Y-120650661D01*
X61452434Y-120650659D01*
X61457384Y-120649174D01*
X61657994Y-120550896D01*
X61839860Y-120421173D01*
X61948091Y-120313319D01*
X62010462Y-120279404D01*
X62081268Y-120284592D01*
X62138030Y-120327238D01*
X62155012Y-120358341D01*
X62177201Y-120417529D01*
X62199385Y-120476705D01*
X62286739Y-120593261D01*
X62403295Y-120680615D01*
X62539684Y-120731745D01*
X62601866Y-120738500D01*
X64398134Y-120738500D01*
X64460316Y-120731745D01*
X64596705Y-120680615D01*
X64713261Y-120593261D01*
X64800615Y-120476705D01*
X64851745Y-120340316D01*
X64858500Y-120278134D01*
X64858500Y-118481866D01*
X64851745Y-118419684D01*
X64800615Y-118283295D01*
X64713261Y-118166739D01*
X64596705Y-118079385D01*
X64477687Y-118034767D01*
X64420923Y-117992125D01*
X64396223Y-117925564D01*
X64411430Y-117856215D01*
X64432977Y-117827535D01*
X64534052Y-117726812D01*
X64540730Y-117718965D01*
X64665003Y-117546020D01*
X64670313Y-117537183D01*
X64764670Y-117346267D01*
X64768469Y-117336672D01*
X64830377Y-117132910D01*
X64832555Y-117122837D01*
X64833986Y-117111962D01*
X64831775Y-117097778D01*
X64818617Y-117094000D01*
X59643225Y-117094000D01*
X59629694Y-117097973D01*
X59628257Y-117107966D01*
X59658565Y-117242446D01*
X59661645Y-117252275D01*
X59741770Y-117449603D01*
X59746413Y-117458794D01*
X59857694Y-117640388D01*
X59863777Y-117648699D01*
X60003213Y-117809667D01*
X60010580Y-117816883D01*
X60174434Y-117952916D01*
X60182881Y-117958831D01*
X60251969Y-117999203D01*
X60300693Y-118050842D01*
X60313764Y-118120625D01*
X60287033Y-118186396D01*
X60246584Y-118219752D01*
X60233607Y-118226507D01*
X60229474Y-118229610D01*
X60229471Y-118229612D01*
X60059100Y-118357530D01*
X60054965Y-118360635D01*
X60015525Y-118401907D01*
X59943729Y-118477037D01*
X59900629Y-118522138D01*
X59774743Y-118706680D01*
X59680688Y-118909305D01*
X59620989Y-119124570D01*
X59597251Y-119346695D01*
X58420000Y-119346695D01*
X58420000Y-114266695D01*
X59597251Y-114266695D01*
X59597548Y-114271848D01*
X59597548Y-114271851D01*
X59603011Y-114366590D01*
X59610110Y-114489715D01*
X59611247Y-114494761D01*
X59611248Y-114494767D01*
X59631119Y-114582939D01*
X59659222Y-114707639D01*
X59743266Y-114914616D01*
X59794019Y-114997438D01*
X59857291Y-115100688D01*
X59859987Y-115105088D01*
X60006250Y-115273938D01*
X60178126Y-115416632D01*
X60251955Y-115459774D01*
X60300679Y-115511412D01*
X60313750Y-115581195D01*
X60287019Y-115646967D01*
X60246562Y-115680327D01*
X60238457Y-115684546D01*
X60229738Y-115690036D01*
X60059433Y-115817905D01*
X60051726Y-115824748D01*
X59904590Y-115978717D01*
X59898104Y-115986727D01*
X59778098Y-116162649D01*
X59773000Y-116171623D01*
X59683338Y-116364783D01*
X59679775Y-116374470D01*
X59624389Y-116574183D01*
X59625912Y-116582607D01*
X59638292Y-116586000D01*
X64818344Y-116586000D01*
X64831875Y-116582027D01*
X64833180Y-116572947D01*
X64791214Y-116405875D01*
X64787894Y-116396124D01*
X64702972Y-116200814D01*
X64698105Y-116191739D01*
X64582426Y-116012926D01*
X64576136Y-116004757D01*
X64432806Y-115847240D01*
X64425273Y-115840215D01*
X64258139Y-115708222D01*
X64249556Y-115702520D01*
X64212602Y-115682120D01*
X64162631Y-115631687D01*
X64147859Y-115562245D01*
X64172975Y-115495839D01*
X64200327Y-115469232D01*
X64223797Y-115452491D01*
X64379860Y-115341173D01*
X64538096Y-115183489D01*
X64597594Y-115100689D01*
X64665435Y-115006277D01*
X64668453Y-115002077D01*
X64689320Y-114959857D01*
X64765136Y-114806453D01*
X64765137Y-114806451D01*
X64767430Y-114801811D01*
X64832370Y-114588069D01*
X64861529Y-114366590D01*
X64863156Y-114300000D01*
X64844852Y-114077361D01*
X64818236Y-113971400D01*
X64821040Y-113900459D01*
X64851345Y-113851609D01*
X65517258Y-113185696D01*
X65525548Y-113178152D01*
X65532029Y-113174039D01*
X65578670Y-113124371D01*
X65581424Y-113121530D01*
X65601145Y-113101809D01*
X65603623Y-113098614D01*
X65611329Y-113089592D01*
X65636169Y-113063140D01*
X65641597Y-113057360D01*
X65651357Y-113039607D01*
X65662210Y-113023084D01*
X65669764Y-113013345D01*
X65674624Y-113007080D01*
X65692187Y-112966496D01*
X65697394Y-112955866D01*
X65718706Y-112917099D01*
X65720677Y-112909422D01*
X65720679Y-112909417D01*
X65723743Y-112897481D01*
X65730149Y-112878769D01*
X65735045Y-112867456D01*
X65738192Y-112860184D01*
X65741206Y-112841159D01*
X65745108Y-112816520D01*
X65747515Y-112804899D01*
X65756539Y-112769750D01*
X65756539Y-112769749D01*
X65758511Y-112762069D01*
X65758511Y-112741808D01*
X65760062Y-112722097D01*
X65760588Y-112718780D01*
X65763230Y-112702096D01*
X65759070Y-112658085D01*
X65758511Y-112646228D01*
X65758511Y-112364453D01*
X65778513Y-112296332D01*
X65795416Y-112275358D01*
X69499283Y-108571492D01*
X73232269Y-104838506D01*
X73240519Y-104831000D01*
X73246977Y-104826902D01*
X73293636Y-104777225D01*
X73296382Y-104774393D01*
X73316144Y-104754631D01*
X73318611Y-104751451D01*
X73326307Y-104742442D01*
X73356557Y-104710234D01*
X73360379Y-104703284D01*
X73361891Y-104701203D01*
X73374725Y-104686179D01*
X73417247Y-104643657D01*
X73425537Y-104636113D01*
X73432018Y-104632000D01*
X73442149Y-104621211D01*
X73503360Y-104585245D01*
X73574300Y-104588082D01*
X73632445Y-104628821D01*
X73659334Y-104694528D01*
X73660000Y-104707463D01*
X73660000Y-134620000D01*
X114300000Y-134620000D01*
X114300000Y-132080000D01*
X120746411Y-132080000D01*
X120766754Y-132468176D01*
X120827562Y-132852099D01*
X120928167Y-133227562D01*
X121067468Y-133590453D01*
X121243938Y-133936794D01*
X121455643Y-134262793D01*
X121700266Y-134564876D01*
X121975124Y-134839734D01*
X122277207Y-135084357D01*
X122603205Y-135296062D01*
X122606139Y-135297557D01*
X122606146Y-135297561D01*
X122946607Y-135471034D01*
X122949547Y-135472532D01*
X123312438Y-135611833D01*
X123687901Y-135712438D01*
X123891793Y-135744732D01*
X124068576Y-135772732D01*
X124068584Y-135772733D01*
X124071824Y-135773246D01*
X124460000Y-135793589D01*
X124848176Y-135773246D01*
X124851416Y-135772733D01*
X124851424Y-135772732D01*
X125028207Y-135744732D01*
X125232099Y-135712438D01*
X125607562Y-135611833D01*
X125970453Y-135472532D01*
X125973393Y-135471034D01*
X126313854Y-135297561D01*
X126313861Y-135297557D01*
X126316795Y-135296062D01*
X126642793Y-135084357D01*
X126944876Y-134839734D01*
X127219734Y-134564876D01*
X127464357Y-134262793D01*
X127676062Y-133936794D01*
X127852532Y-133590453D01*
X127991833Y-133227562D01*
X128092438Y-132852099D01*
X128153246Y-132468176D01*
X128173589Y-132080000D01*
X128153246Y-131691824D01*
X128092438Y-131307901D01*
X127991833Y-130932438D01*
X127852532Y-130569547D01*
X127676062Y-130223206D01*
X127464357Y-129897207D01*
X127219734Y-129595124D01*
X126944876Y-129320266D01*
X126642793Y-129075643D01*
X126316795Y-128863938D01*
X126313861Y-128862443D01*
X126313854Y-128862439D01*
X125973393Y-128688966D01*
X125970453Y-128687468D01*
X125607562Y-128548167D01*
X125232099Y-128447562D01*
X125028207Y-128415268D01*
X124851424Y-128387268D01*
X124851416Y-128387267D01*
X124848176Y-128386754D01*
X124460000Y-128366411D01*
X124071824Y-128386754D01*
X124068584Y-128387267D01*
X124068576Y-128387268D01*
X123891793Y-128415268D01*
X123687901Y-128447562D01*
X123312438Y-128548167D01*
X122949547Y-128687468D01*
X122946607Y-128688966D01*
X122606147Y-128862439D01*
X122606140Y-128862443D01*
X122603206Y-128863938D01*
X122277207Y-129075643D01*
X121975124Y-129320266D01*
X121700266Y-129595124D01*
X121455643Y-129897207D01*
X121243938Y-130223206D01*
X121067468Y-130569547D01*
X120928167Y-130932438D01*
X120827562Y-131307901D01*
X120766754Y-131691824D01*
X120746411Y-132080000D01*
X114300000Y-132080000D01*
X114300000Y-120278134D01*
X123101500Y-120278134D01*
X123108255Y-120340316D01*
X123159385Y-120476705D01*
X123246739Y-120593261D01*
X123363295Y-120680615D01*
X123499684Y-120731745D01*
X123561866Y-120738500D01*
X125358134Y-120738500D01*
X125420316Y-120731745D01*
X125556705Y-120680615D01*
X125673261Y-120593261D01*
X125760615Y-120476705D01*
X125782799Y-120417529D01*
X125804598Y-120359382D01*
X125847240Y-120302618D01*
X125913802Y-120277918D01*
X125983150Y-120293126D01*
X126017817Y-120321114D01*
X126046250Y-120353938D01*
X126218126Y-120496632D01*
X126411000Y-120609338D01*
X126619692Y-120689030D01*
X126624760Y-120690061D01*
X126624763Y-120690062D01*
X126732017Y-120711883D01*
X126838597Y-120733567D01*
X126843772Y-120733757D01*
X126843774Y-120733757D01*
X127056673Y-120741564D01*
X127056677Y-120741564D01*
X127061837Y-120741753D01*
X127066957Y-120741097D01*
X127066959Y-120741097D01*
X127278288Y-120714025D01*
X127278289Y-120714025D01*
X127283416Y-120713368D01*
X127288366Y-120711883D01*
X127492429Y-120650661D01*
X127492434Y-120650659D01*
X127497384Y-120649174D01*
X127697994Y-120550896D01*
X127879860Y-120421173D01*
X128038096Y-120263489D01*
X128097594Y-120180689D01*
X128165435Y-120086277D01*
X128168453Y-120082077D01*
X128267430Y-119881811D01*
X128332370Y-119668069D01*
X128361529Y-119446590D01*
X128363156Y-119380000D01*
X128344852Y-119157361D01*
X128290431Y-118940702D01*
X128201354Y-118735840D01*
X128080014Y-118548277D01*
X127929670Y-118383051D01*
X127925619Y-118379852D01*
X127925615Y-118379848D01*
X127758414Y-118247800D01*
X127758410Y-118247798D01*
X127754359Y-118244598D01*
X127712569Y-118221529D01*
X127662598Y-118171097D01*
X127647826Y-118101654D01*
X127672942Y-118035248D01*
X127700294Y-118008641D01*
X127875328Y-117883792D01*
X127883200Y-117877139D01*
X128034052Y-117726812D01*
X128040730Y-117718965D01*
X128165003Y-117546020D01*
X128170313Y-117537183D01*
X128264670Y-117346267D01*
X128268469Y-117336672D01*
X128330377Y-117132910D01*
X128332555Y-117122837D01*
X128333986Y-117111962D01*
X128331775Y-117097778D01*
X128318617Y-117094000D01*
X123143225Y-117094000D01*
X123129694Y-117097973D01*
X123128257Y-117107966D01*
X123158565Y-117242446D01*
X123161645Y-117252275D01*
X123241770Y-117449603D01*
X123246413Y-117458794D01*
X123357694Y-117640388D01*
X123363777Y-117648699D01*
X123503213Y-117809667D01*
X123510577Y-117816879D01*
X123515522Y-117820985D01*
X123555156Y-117879889D01*
X123556653Y-117950870D01*
X123519537Y-118011392D01*
X123479264Y-118035910D01*
X123371705Y-118076232D01*
X123371704Y-118076233D01*
X123363295Y-118079385D01*
X123246739Y-118166739D01*
X123159385Y-118283295D01*
X123108255Y-118419684D01*
X123101500Y-118481866D01*
X123101500Y-120278134D01*
X114300000Y-120278134D01*
X114300000Y-104705094D01*
X114320002Y-104636973D01*
X114373658Y-104590480D01*
X114443932Y-104580376D01*
X114508512Y-104609870D01*
X114515095Y-104615999D01*
X114593989Y-104694893D01*
X114606179Y-104710607D01*
X114606555Y-104710315D01*
X114611411Y-104716576D01*
X114615449Y-104723403D01*
X114629808Y-104737762D01*
X114642639Y-104752782D01*
X114654581Y-104769214D01*
X114666508Y-104779078D01*
X114688618Y-104797364D01*
X114697411Y-104805365D01*
X122164584Y-112272539D01*
X122198610Y-112334851D01*
X122201489Y-112361634D01*
X122201489Y-112596222D01*
X122200962Y-112607405D01*
X122199287Y-112614898D01*
X122199536Y-112622824D01*
X122199536Y-112622825D01*
X122201427Y-112682975D01*
X122201489Y-112686934D01*
X122201489Y-112714845D01*
X122201986Y-112718779D01*
X122201986Y-112718780D01*
X122201994Y-112718845D01*
X122202927Y-112730682D01*
X122204316Y-112774878D01*
X122209967Y-112794328D01*
X122213976Y-112813689D01*
X122216515Y-112833786D01*
X122219434Y-112841157D01*
X122219434Y-112841159D01*
X122232793Y-112874901D01*
X122236638Y-112886131D01*
X122246760Y-112920972D01*
X122248971Y-112928582D01*
X122253004Y-112935401D01*
X122253006Y-112935406D01*
X122259282Y-112946017D01*
X122267977Y-112963765D01*
X122275437Y-112982606D01*
X122280099Y-112989022D01*
X122280099Y-112989023D01*
X122301425Y-113018376D01*
X122307941Y-113028296D01*
X122325130Y-113057360D01*
X122330447Y-113066351D01*
X122344768Y-113080672D01*
X122357608Y-113095705D01*
X122369517Y-113112096D01*
X122375623Y-113117147D01*
X122403594Y-113140287D01*
X122412373Y-113148277D01*
X123109778Y-113845682D01*
X123143804Y-113907994D01*
X123142100Y-113968448D01*
X123120989Y-114044570D01*
X123120441Y-114049700D01*
X123120440Y-114049704D01*
X123116933Y-114082522D01*
X123097251Y-114266695D01*
X123097548Y-114271848D01*
X123097548Y-114271851D01*
X123103011Y-114366590D01*
X123110110Y-114489715D01*
X123111247Y-114494761D01*
X123111248Y-114494767D01*
X123131119Y-114582939D01*
X123159222Y-114707639D01*
X123243266Y-114914616D01*
X123294019Y-114997438D01*
X123357291Y-115100688D01*
X123359987Y-115105088D01*
X123506250Y-115273938D01*
X123678126Y-115416632D01*
X123751955Y-115459774D01*
X123800679Y-115511412D01*
X123813750Y-115581195D01*
X123787019Y-115646967D01*
X123746562Y-115680327D01*
X123738457Y-115684546D01*
X123729738Y-115690036D01*
X123559433Y-115817905D01*
X123551726Y-115824748D01*
X123404590Y-115978717D01*
X123398104Y-115986727D01*
X123278098Y-116162649D01*
X123273000Y-116171623D01*
X123183338Y-116364783D01*
X123179775Y-116374470D01*
X123124389Y-116574183D01*
X123125912Y-116582607D01*
X123138292Y-116586000D01*
X128318344Y-116586000D01*
X128331875Y-116582027D01*
X128333180Y-116572947D01*
X128291214Y-116405875D01*
X128287894Y-116396124D01*
X128202972Y-116200814D01*
X128198105Y-116191739D01*
X128082426Y-116012926D01*
X128076136Y-116004757D01*
X127932806Y-115847240D01*
X127925273Y-115840215D01*
X127758139Y-115708222D01*
X127749556Y-115702520D01*
X127712602Y-115682120D01*
X127662631Y-115631687D01*
X127647859Y-115562245D01*
X127672975Y-115495839D01*
X127700327Y-115469232D01*
X127723797Y-115452491D01*
X127879860Y-115341173D01*
X128038096Y-115183489D01*
X128097594Y-115100689D01*
X128165435Y-115006277D01*
X128168453Y-115002077D01*
X128189320Y-114959857D01*
X128265136Y-114806453D01*
X128265137Y-114806451D01*
X128267430Y-114801811D01*
X128332370Y-114588069D01*
X128361529Y-114366590D01*
X128363156Y-114300000D01*
X128344852Y-114077361D01*
X128290431Y-113860702D01*
X128201354Y-113655840D01*
X128080014Y-113468277D01*
X127929670Y-113303051D01*
X127925619Y-113299852D01*
X127925615Y-113299848D01*
X127758414Y-113167800D01*
X127758410Y-113167798D01*
X127754359Y-113164598D01*
X127713053Y-113141796D01*
X127663084Y-113091364D01*
X127648312Y-113021921D01*
X127673428Y-112955516D01*
X127700780Y-112928909D01*
X127758312Y-112887872D01*
X127879860Y-112801173D01*
X127898613Y-112782486D01*
X128023449Y-112658085D01*
X128038096Y-112643489D01*
X128097594Y-112560689D01*
X128165435Y-112466277D01*
X128168453Y-112462077D01*
X128201952Y-112394298D01*
X128265136Y-112266453D01*
X128265137Y-112266451D01*
X128267430Y-112261811D01*
X128332370Y-112048069D01*
X128361529Y-111826590D01*
X128363156Y-111760000D01*
X128344852Y-111537361D01*
X128290431Y-111320702D01*
X128201354Y-111115840D01*
X128080014Y-110928277D01*
X127929670Y-110763051D01*
X127925619Y-110759852D01*
X127925615Y-110759848D01*
X127758414Y-110627800D01*
X127758410Y-110627798D01*
X127754359Y-110624598D01*
X127713053Y-110601796D01*
X127663084Y-110551364D01*
X127648312Y-110481921D01*
X127673428Y-110415516D01*
X127700780Y-110388909D01*
X127744603Y-110357650D01*
X127879860Y-110261173D01*
X128038096Y-110103489D01*
X128097594Y-110020689D01*
X128165435Y-109926277D01*
X128168453Y-109922077D01*
X128267430Y-109721811D01*
X128332370Y-109508069D01*
X128361529Y-109286590D01*
X128363156Y-109220000D01*
X128344852Y-108997361D01*
X128290431Y-108780702D01*
X128201354Y-108575840D01*
X128080014Y-108388277D01*
X127929670Y-108223051D01*
X127925619Y-108219852D01*
X127925615Y-108219848D01*
X127758414Y-108087800D01*
X127758410Y-108087798D01*
X127754359Y-108084598D01*
X127713053Y-108061796D01*
X127663084Y-108011364D01*
X127648312Y-107941921D01*
X127673428Y-107875516D01*
X127700780Y-107848909D01*
X127744603Y-107817650D01*
X127879860Y-107721173D01*
X128038096Y-107563489D01*
X128097594Y-107480689D01*
X128165435Y-107386277D01*
X128168453Y-107382077D01*
X128201212Y-107315795D01*
X128265136Y-107186453D01*
X128265137Y-107186451D01*
X128267430Y-107181811D01*
X128332370Y-106968069D01*
X128361529Y-106746590D01*
X128363156Y-106680000D01*
X128344852Y-106457361D01*
X128290431Y-106240702D01*
X128201354Y-106035840D01*
X128080014Y-105848277D01*
X127929670Y-105683051D01*
X127925619Y-105679852D01*
X127925615Y-105679848D01*
X127758414Y-105547800D01*
X127758410Y-105547798D01*
X127754359Y-105544598D01*
X127558789Y-105436638D01*
X127553920Y-105434914D01*
X127553916Y-105434912D01*
X127353087Y-105363795D01*
X127353083Y-105363794D01*
X127348212Y-105362069D01*
X127343119Y-105361162D01*
X127343116Y-105361161D01*
X127133373Y-105323800D01*
X127133367Y-105323799D01*
X127128284Y-105322894D01*
X127054452Y-105321992D01*
X126910081Y-105320228D01*
X126910079Y-105320228D01*
X126904911Y-105320165D01*
X126684091Y-105353955D01*
X126671532Y-105358060D01*
X126600568Y-105360210D01*
X126543294Y-105327389D01*
X126232242Y-105016337D01*
X126224702Y-105008051D01*
X126220590Y-105001572D01*
X126205470Y-104987373D01*
X126170939Y-104954947D01*
X126168097Y-104952192D01*
X126148360Y-104932455D01*
X126145163Y-104929975D01*
X126136141Y-104922270D01*
X126109690Y-104897431D01*
X126103911Y-104892004D01*
X126096965Y-104888185D01*
X126096962Y-104888183D01*
X126086156Y-104882242D01*
X126069637Y-104871391D01*
X126069173Y-104871031D01*
X126053631Y-104858976D01*
X126046362Y-104855831D01*
X126046358Y-104855828D01*
X126013053Y-104841416D01*
X126002403Y-104836199D01*
X125963650Y-104814895D01*
X125944027Y-104809857D01*
X125925324Y-104803453D01*
X125914010Y-104798557D01*
X125914009Y-104798557D01*
X125906735Y-104795409D01*
X125898912Y-104794170D01*
X125898902Y-104794167D01*
X125863066Y-104788491D01*
X125851446Y-104786085D01*
X125816301Y-104777062D01*
X125816300Y-104777062D01*
X125808620Y-104775090D01*
X125788366Y-104775090D01*
X125768655Y-104773539D01*
X125756476Y-104771610D01*
X125748647Y-104770370D01*
X125706089Y-104774393D01*
X125704629Y-104774531D01*
X125692771Y-104775090D01*
X120966005Y-104775090D01*
X120897884Y-104755088D01*
X120876910Y-104738185D01*
X120050405Y-103911680D01*
X120016379Y-103849368D01*
X120013500Y-103822585D01*
X120013500Y-97418134D01*
X123101500Y-97418134D01*
X123108255Y-97480316D01*
X123159385Y-97616705D01*
X123246739Y-97733261D01*
X123363295Y-97820615D01*
X123499684Y-97871745D01*
X123561866Y-97878500D01*
X125358134Y-97878500D01*
X125420316Y-97871745D01*
X125556705Y-97820615D01*
X125673261Y-97733261D01*
X125760615Y-97616705D01*
X125782799Y-97557529D01*
X125804598Y-97499382D01*
X125847240Y-97442618D01*
X125913802Y-97417918D01*
X125983150Y-97433126D01*
X126017817Y-97461114D01*
X126046250Y-97493938D01*
X126218126Y-97636632D01*
X126411000Y-97749338D01*
X126619692Y-97829030D01*
X126624760Y-97830061D01*
X126624763Y-97830062D01*
X126732017Y-97851883D01*
X126838597Y-97873567D01*
X126843772Y-97873757D01*
X126843774Y-97873757D01*
X127056673Y-97881564D01*
X127056677Y-97881564D01*
X127061837Y-97881753D01*
X127066957Y-97881097D01*
X127066959Y-97881097D01*
X127278288Y-97854025D01*
X127278289Y-97854025D01*
X127283416Y-97853368D01*
X127288366Y-97851883D01*
X127492429Y-97790661D01*
X127492434Y-97790659D01*
X127497384Y-97789174D01*
X127697994Y-97690896D01*
X127879860Y-97561173D01*
X128038096Y-97403489D01*
X128097594Y-97320689D01*
X128165435Y-97226277D01*
X128168453Y-97222077D01*
X128267430Y-97021811D01*
X128332370Y-96808069D01*
X128361529Y-96586590D01*
X128363156Y-96520000D01*
X128344852Y-96297361D01*
X128290431Y-96080702D01*
X128201354Y-95875840D01*
X128080014Y-95688277D01*
X127929670Y-95523051D01*
X127925619Y-95519852D01*
X127925615Y-95519848D01*
X127758414Y-95387800D01*
X127758410Y-95387798D01*
X127754359Y-95384598D01*
X127712569Y-95361529D01*
X127662598Y-95311097D01*
X127647826Y-95241654D01*
X127672942Y-95175248D01*
X127700294Y-95148641D01*
X127875328Y-95023792D01*
X127883200Y-95017139D01*
X128034052Y-94866812D01*
X128040730Y-94858965D01*
X128165003Y-94686020D01*
X128170313Y-94677183D01*
X128264670Y-94486267D01*
X128268469Y-94476672D01*
X128330377Y-94272910D01*
X128332555Y-94262837D01*
X128333986Y-94251962D01*
X128331775Y-94237778D01*
X128318617Y-94234000D01*
X123143225Y-94234000D01*
X123129694Y-94237973D01*
X123128257Y-94247966D01*
X123158565Y-94382446D01*
X123161645Y-94392275D01*
X123241770Y-94589603D01*
X123246413Y-94598794D01*
X123357694Y-94780388D01*
X123363777Y-94788699D01*
X123503213Y-94949667D01*
X123510577Y-94956879D01*
X123515522Y-94960985D01*
X123555156Y-95019889D01*
X123556653Y-95090870D01*
X123519537Y-95151392D01*
X123479264Y-95175910D01*
X123371705Y-95216232D01*
X123371704Y-95216233D01*
X123363295Y-95219385D01*
X123246739Y-95306739D01*
X123159385Y-95423295D01*
X123108255Y-95559684D01*
X123101500Y-95621866D01*
X123101500Y-97418134D01*
X120013500Y-97418134D01*
X120013500Y-92003594D01*
X120033502Y-91935473D01*
X120087158Y-91888980D01*
X120157432Y-91878876D01*
X120222012Y-91908370D01*
X120225794Y-91911892D01*
X120227434Y-91913338D01*
X120230231Y-91916135D01*
X120233355Y-91918558D01*
X120233359Y-91918562D01*
X120233424Y-91918612D01*
X120242445Y-91926317D01*
X120274679Y-91956586D01*
X120281627Y-91960405D01*
X120281629Y-91960407D01*
X120292432Y-91966346D01*
X120308959Y-91977202D01*
X120318698Y-91984757D01*
X120318700Y-91984758D01*
X120324960Y-91989614D01*
X120365540Y-92007174D01*
X120376188Y-92012391D01*
X120400976Y-92026018D01*
X120414940Y-92033695D01*
X120422616Y-92035666D01*
X120422619Y-92035667D01*
X120434562Y-92038733D01*
X120453267Y-92045137D01*
X120471855Y-92053181D01*
X120479678Y-92054420D01*
X120479688Y-92054423D01*
X120515524Y-92060099D01*
X120527144Y-92062505D01*
X120558959Y-92070673D01*
X120569970Y-92073500D01*
X120590224Y-92073500D01*
X120609934Y-92075051D01*
X120629943Y-92078220D01*
X120637835Y-92077474D01*
X120656580Y-92075702D01*
X120673962Y-92074059D01*
X120685819Y-92073500D01*
X123184274Y-92073500D01*
X123252395Y-92093502D01*
X123291707Y-92133665D01*
X123359987Y-92245088D01*
X123506250Y-92413938D01*
X123678126Y-92556632D01*
X123751955Y-92599774D01*
X123800679Y-92651412D01*
X123813750Y-92721195D01*
X123787019Y-92786967D01*
X123746562Y-92820327D01*
X123738457Y-92824546D01*
X123729738Y-92830036D01*
X123559433Y-92957905D01*
X123551726Y-92964748D01*
X123404590Y-93118717D01*
X123398104Y-93126727D01*
X123278098Y-93302649D01*
X123273000Y-93311623D01*
X123183338Y-93504783D01*
X123179775Y-93514470D01*
X123124389Y-93714183D01*
X123125912Y-93722607D01*
X123138292Y-93726000D01*
X128318344Y-93726000D01*
X128331875Y-93722027D01*
X128333180Y-93712947D01*
X128291214Y-93545875D01*
X128287894Y-93536124D01*
X128202972Y-93340814D01*
X128198105Y-93331739D01*
X128082426Y-93152926D01*
X128076136Y-93144757D01*
X127932806Y-92987240D01*
X127925273Y-92980215D01*
X127758139Y-92848222D01*
X127749556Y-92842520D01*
X127712602Y-92822120D01*
X127662631Y-92771687D01*
X127647859Y-92702245D01*
X127672975Y-92635839D01*
X127700327Y-92609232D01*
X127723797Y-92592491D01*
X127879860Y-92481173D01*
X128038096Y-92323489D01*
X128097594Y-92240689D01*
X128165435Y-92146277D01*
X128168453Y-92142077D01*
X128172145Y-92134608D01*
X128265136Y-91946453D01*
X128265137Y-91946451D01*
X128267430Y-91941811D01*
X128332370Y-91728069D01*
X128361529Y-91506590D01*
X128363156Y-91440000D01*
X128344852Y-91217361D01*
X128290431Y-91000702D01*
X128201354Y-90795840D01*
X128121249Y-90672017D01*
X128082822Y-90612617D01*
X128082820Y-90612614D01*
X128080014Y-90608277D01*
X127929670Y-90443051D01*
X127925619Y-90439852D01*
X127925615Y-90439848D01*
X127758414Y-90307800D01*
X127758410Y-90307798D01*
X127754359Y-90304598D01*
X127713053Y-90281796D01*
X127663084Y-90231364D01*
X127648312Y-90161921D01*
X127673428Y-90095516D01*
X127700780Y-90068909D01*
X127744603Y-90037650D01*
X127879860Y-89941173D01*
X128038096Y-89783489D01*
X128097594Y-89700689D01*
X128165435Y-89606277D01*
X128168453Y-89602077D01*
X128201258Y-89535702D01*
X128265136Y-89406453D01*
X128265137Y-89406451D01*
X128267430Y-89401811D01*
X128332370Y-89188069D01*
X128361529Y-88966590D01*
X128363156Y-88900000D01*
X128344852Y-88677361D01*
X128290431Y-88460702D01*
X128201354Y-88255840D01*
X128139400Y-88160073D01*
X128082822Y-88072617D01*
X128082820Y-88072614D01*
X128080014Y-88068277D01*
X127929670Y-87903051D01*
X127925619Y-87899852D01*
X127925615Y-87899848D01*
X127758414Y-87767800D01*
X127758410Y-87767798D01*
X127754359Y-87764598D01*
X127713053Y-87741796D01*
X127663084Y-87691364D01*
X127648312Y-87621921D01*
X127673428Y-87555516D01*
X127700780Y-87528909D01*
X127744603Y-87497650D01*
X127879860Y-87401173D01*
X128038096Y-87243489D01*
X128097594Y-87160689D01*
X128165435Y-87066277D01*
X128168453Y-87062077D01*
X128201258Y-86995702D01*
X128265136Y-86866453D01*
X128265137Y-86866451D01*
X128267430Y-86861811D01*
X128332370Y-86648069D01*
X128361529Y-86426590D01*
X128363156Y-86360000D01*
X128344852Y-86137361D01*
X128290431Y-85920702D01*
X128201354Y-85715840D01*
X128080014Y-85528277D01*
X127929670Y-85363051D01*
X127925619Y-85359852D01*
X127925615Y-85359848D01*
X127758414Y-85227800D01*
X127758410Y-85227798D01*
X127754359Y-85224598D01*
X127713053Y-85201796D01*
X127663084Y-85151364D01*
X127648312Y-85081921D01*
X127673428Y-85015516D01*
X127700780Y-84988909D01*
X127744603Y-84957650D01*
X127879860Y-84861173D01*
X128038096Y-84703489D01*
X128097594Y-84620689D01*
X128165435Y-84526277D01*
X128168453Y-84522077D01*
X128207726Y-84442615D01*
X128265136Y-84326453D01*
X128265137Y-84326451D01*
X128267430Y-84321811D01*
X128332370Y-84108069D01*
X128361529Y-83886590D01*
X128363156Y-83820000D01*
X128344852Y-83597361D01*
X128290431Y-83380702D01*
X128201354Y-83175840D01*
X128080014Y-82988277D01*
X127929670Y-82823051D01*
X127925619Y-82819852D01*
X127925615Y-82819848D01*
X127758414Y-82687800D01*
X127758410Y-82687798D01*
X127754359Y-82684598D01*
X127558789Y-82576638D01*
X127553920Y-82574914D01*
X127553916Y-82574912D01*
X127353087Y-82503795D01*
X127353083Y-82503794D01*
X127348212Y-82502069D01*
X127343119Y-82501162D01*
X127343116Y-82501161D01*
X127133373Y-82463800D01*
X127133367Y-82463799D01*
X127128284Y-82462894D01*
X127054452Y-82461992D01*
X126910081Y-82460228D01*
X126910079Y-82460228D01*
X126904911Y-82460165D01*
X126684091Y-82493955D01*
X126671532Y-82498060D01*
X126600568Y-82500210D01*
X126543294Y-82467389D01*
X126233652Y-82157747D01*
X126226112Y-82149461D01*
X126222000Y-82142982D01*
X126172348Y-82096356D01*
X126169507Y-82093602D01*
X126149770Y-82073865D01*
X126146573Y-82071385D01*
X126137551Y-82063680D01*
X126111100Y-82038841D01*
X126105321Y-82033414D01*
X126098375Y-82029595D01*
X126098372Y-82029593D01*
X126087566Y-82023652D01*
X126071047Y-82012801D01*
X126066599Y-82009351D01*
X126055041Y-82000386D01*
X126047772Y-81997241D01*
X126047768Y-81997238D01*
X126014463Y-81982826D01*
X126003813Y-81977609D01*
X125965060Y-81956305D01*
X125945437Y-81951267D01*
X125926734Y-81944863D01*
X125915420Y-81939967D01*
X125915419Y-81939967D01*
X125908145Y-81936819D01*
X125900322Y-81935580D01*
X125900312Y-81935577D01*
X125864476Y-81929901D01*
X125852856Y-81927495D01*
X125817711Y-81918472D01*
X125817710Y-81918472D01*
X125810030Y-81916500D01*
X125789776Y-81916500D01*
X125770065Y-81914949D01*
X125757886Y-81913020D01*
X125750057Y-81911780D01*
X125742165Y-81912526D01*
X125706039Y-81915941D01*
X125694181Y-81916500D01*
X122255744Y-81916500D01*
X122187623Y-81896498D01*
X122166649Y-81879595D01*
X114845189Y-74558134D01*
X123101500Y-74558134D01*
X123108255Y-74620316D01*
X123159385Y-74756705D01*
X123246739Y-74873261D01*
X123363295Y-74960615D01*
X123499684Y-75011745D01*
X123561866Y-75018500D01*
X125358134Y-75018500D01*
X125420316Y-75011745D01*
X125556705Y-74960615D01*
X125673261Y-74873261D01*
X125760615Y-74756705D01*
X125782799Y-74697529D01*
X125804598Y-74639382D01*
X125847240Y-74582618D01*
X125913802Y-74557918D01*
X125983150Y-74573126D01*
X126017817Y-74601114D01*
X126046250Y-74633938D01*
X126218126Y-74776632D01*
X126411000Y-74889338D01*
X126619692Y-74969030D01*
X126624760Y-74970061D01*
X126624763Y-74970062D01*
X126732017Y-74991883D01*
X126838597Y-75013567D01*
X126843772Y-75013757D01*
X126843774Y-75013757D01*
X127056673Y-75021564D01*
X127056677Y-75021564D01*
X127061837Y-75021753D01*
X127066957Y-75021097D01*
X127066959Y-75021097D01*
X127278288Y-74994025D01*
X127278289Y-74994025D01*
X127283416Y-74993368D01*
X127288366Y-74991883D01*
X127492429Y-74930661D01*
X127492434Y-74930659D01*
X127497384Y-74929174D01*
X127697994Y-74830896D01*
X127879860Y-74701173D01*
X128038096Y-74543489D01*
X128097594Y-74460689D01*
X128165435Y-74366277D01*
X128168453Y-74362077D01*
X128267430Y-74161811D01*
X128332370Y-73948069D01*
X128361529Y-73726590D01*
X128363156Y-73660000D01*
X128344852Y-73437361D01*
X128290431Y-73220702D01*
X128201354Y-73015840D01*
X128080014Y-72828277D01*
X127929670Y-72663051D01*
X127925619Y-72659852D01*
X127925615Y-72659848D01*
X127758414Y-72527800D01*
X127758410Y-72527798D01*
X127754359Y-72524598D01*
X127712569Y-72501529D01*
X127662598Y-72451097D01*
X127647826Y-72381654D01*
X127672942Y-72315248D01*
X127700294Y-72288641D01*
X127875328Y-72163792D01*
X127883200Y-72157139D01*
X128034052Y-72006812D01*
X128040730Y-71998965D01*
X128165003Y-71826020D01*
X128170313Y-71817183D01*
X128264670Y-71626267D01*
X128268469Y-71616672D01*
X128330377Y-71412910D01*
X128332555Y-71402837D01*
X128333986Y-71391962D01*
X128331775Y-71377778D01*
X128318617Y-71374000D01*
X123143225Y-71374000D01*
X123129694Y-71377973D01*
X123128257Y-71387966D01*
X123158565Y-71522446D01*
X123161645Y-71532275D01*
X123241770Y-71729603D01*
X123246413Y-71738794D01*
X123357694Y-71920388D01*
X123363777Y-71928699D01*
X123503213Y-72089667D01*
X123510577Y-72096879D01*
X123515522Y-72100985D01*
X123555156Y-72159889D01*
X123556653Y-72230870D01*
X123519537Y-72291392D01*
X123479264Y-72315910D01*
X123371705Y-72356232D01*
X123371704Y-72356233D01*
X123363295Y-72359385D01*
X123246739Y-72446739D01*
X123159385Y-72563295D01*
X123108255Y-72699684D01*
X123101500Y-72761866D01*
X123101500Y-74558134D01*
X114845189Y-74558134D01*
X110564788Y-70277733D01*
X110557266Y-70269467D01*
X110553160Y-70262996D01*
X110503490Y-70216349D01*
X110500652Y-70213597D01*
X110480911Y-70193856D01*
X110477725Y-70191385D01*
X110468698Y-70183675D01*
X110442263Y-70158848D01*
X110442261Y-70158847D01*
X110436486Y-70153423D01*
X110429542Y-70149605D01*
X110429539Y-70149603D01*
X110418723Y-70143656D01*
X110402205Y-70132806D01*
X110392885Y-70125576D01*
X110381019Y-70115114D01*
X110358652Y-70092747D01*
X110351112Y-70084461D01*
X110347000Y-70077982D01*
X110297348Y-70031356D01*
X110294507Y-70028602D01*
X110274770Y-70008865D01*
X110271573Y-70006385D01*
X110262551Y-69998680D01*
X110245342Y-69982520D01*
X110230321Y-69968414D01*
X110223375Y-69964595D01*
X110223372Y-69964593D01*
X110212566Y-69958652D01*
X110196047Y-69947801D01*
X110195583Y-69947441D01*
X110180041Y-69935386D01*
X110172772Y-69932241D01*
X110172768Y-69932238D01*
X110139463Y-69917826D01*
X110128813Y-69912609D01*
X110090060Y-69891305D01*
X110070437Y-69886267D01*
X110051734Y-69879863D01*
X110040420Y-69874967D01*
X110040419Y-69874967D01*
X110033145Y-69871819D01*
X110025322Y-69870580D01*
X110025312Y-69870577D01*
X109989476Y-69864901D01*
X109977856Y-69862495D01*
X109942711Y-69853472D01*
X109942710Y-69853472D01*
X109935030Y-69851500D01*
X109914776Y-69851500D01*
X109895065Y-69849949D01*
X109892534Y-69849548D01*
X109875057Y-69846780D01*
X109867165Y-69847526D01*
X109831039Y-69850941D01*
X109819181Y-69851500D01*
X78162613Y-69851500D01*
X78151429Y-69850973D01*
X78143941Y-69849299D01*
X78136018Y-69849548D01*
X78075883Y-69851438D01*
X78071925Y-69851500D01*
X78043994Y-69851500D01*
X78040079Y-69851995D01*
X78040075Y-69851995D01*
X78040017Y-69852003D01*
X78039988Y-69852006D01*
X78028146Y-69852939D01*
X77983960Y-69854327D01*
X77966594Y-69859372D01*
X77964508Y-69859978D01*
X77945156Y-69863986D01*
X77938085Y-69864880D01*
X77925053Y-69866526D01*
X77917684Y-69869443D01*
X77917682Y-69869444D01*
X77883947Y-69882800D01*
X77872719Y-69886645D01*
X77830257Y-69898982D01*
X77823435Y-69903016D01*
X77823429Y-69903019D01*
X77812818Y-69909294D01*
X77795068Y-69917990D01*
X77783606Y-69922528D01*
X77783601Y-69922531D01*
X77776233Y-69925448D01*
X77758820Y-69938099D01*
X77740475Y-69951427D01*
X77730557Y-69957943D01*
X77719313Y-69964593D01*
X77692487Y-69980458D01*
X77678163Y-69994782D01*
X77663131Y-70007621D01*
X77646743Y-70019528D01*
X77618562Y-70053593D01*
X77610572Y-70062373D01*
X65803925Y-81869020D01*
X65741613Y-81903046D01*
X65714830Y-81905925D01*
X62319343Y-81905925D01*
X62308160Y-81905398D01*
X62300667Y-81903723D01*
X62292741Y-81903972D01*
X62292740Y-81903972D01*
X62232577Y-81905863D01*
X62228619Y-81905925D01*
X62200719Y-81905925D01*
X62196729Y-81906429D01*
X62184895Y-81907361D01*
X62140686Y-81908751D01*
X62133070Y-81910964D01*
X62133068Y-81910964D01*
X62121227Y-81914404D01*
X62101868Y-81918413D01*
X62100558Y-81918579D01*
X62081778Y-81920951D01*
X62074412Y-81923867D01*
X62074406Y-81923869D01*
X62040673Y-81937225D01*
X62029443Y-81941070D01*
X61994592Y-81951195D01*
X61986982Y-81953406D01*
X61980159Y-81957441D01*
X61969541Y-81963720D01*
X61951788Y-81972417D01*
X61944143Y-81975444D01*
X61932958Y-81979873D01*
X61926543Y-81984534D01*
X61897187Y-82005862D01*
X61887270Y-82012376D01*
X61849213Y-82034883D01*
X61834892Y-82049204D01*
X61819859Y-82062044D01*
X61803468Y-82073953D01*
X61798418Y-82080057D01*
X61798413Y-82080062D01*
X61775282Y-82108023D01*
X61767292Y-82116804D01*
X61417344Y-82466751D01*
X61355032Y-82500776D01*
X61306153Y-82501702D01*
X61093373Y-82463800D01*
X61093367Y-82463799D01*
X61088284Y-82462894D01*
X61014452Y-82461992D01*
X60870081Y-82460228D01*
X60870079Y-82460228D01*
X60864911Y-82460165D01*
X60644091Y-82493955D01*
X60431756Y-82563357D01*
X60233607Y-82666507D01*
X60229474Y-82669610D01*
X60229471Y-82669612D01*
X60205247Y-82687800D01*
X60054965Y-82800635D01*
X59900629Y-82962138D01*
X59774743Y-83146680D01*
X59680688Y-83349305D01*
X59620989Y-83564570D01*
X59597251Y-83786695D01*
X59597548Y-83791848D01*
X59597548Y-83791851D01*
X59603011Y-83886590D01*
X59610110Y-84009715D01*
X59611247Y-84014761D01*
X59611248Y-84014767D01*
X59631119Y-84102939D01*
X59659222Y-84227639D01*
X59743266Y-84434616D01*
X59859987Y-84625088D01*
X60006250Y-84793938D01*
X60178126Y-84936632D01*
X60248595Y-84977811D01*
X60251445Y-84979476D01*
X60300169Y-85031114D01*
X60313240Y-85100897D01*
X60286509Y-85166669D01*
X60246055Y-85200027D01*
X60233607Y-85206507D01*
X60229474Y-85209610D01*
X60229471Y-85209612D01*
X60205247Y-85227800D01*
X60054965Y-85340635D01*
X59900629Y-85502138D01*
X59774743Y-85686680D01*
X59680688Y-85889305D01*
X59620989Y-86104570D01*
X59597251Y-86326695D01*
X59597548Y-86331848D01*
X59597548Y-86331851D01*
X59603011Y-86426590D01*
X59610110Y-86549715D01*
X59611247Y-86554761D01*
X59611248Y-86554767D01*
X59625815Y-86619404D01*
X59659222Y-86767639D01*
X59697461Y-86861811D01*
X59737167Y-86959595D01*
X59743266Y-86974616D01*
X59859987Y-87165088D01*
X60006250Y-87333938D01*
X60178126Y-87476632D01*
X60248595Y-87517811D01*
X60251445Y-87519476D01*
X60300169Y-87571114D01*
X60313240Y-87640897D01*
X60286509Y-87706669D01*
X60246055Y-87740027D01*
X60233607Y-87746507D01*
X60229474Y-87749610D01*
X60229471Y-87749612D01*
X60205247Y-87767800D01*
X60054965Y-87880635D01*
X60051393Y-87884373D01*
X59913667Y-88028495D01*
X59900629Y-88042138D01*
X59774743Y-88226680D01*
X59680688Y-88429305D01*
X59620989Y-88644570D01*
X59597251Y-88866695D01*
X59597548Y-88871848D01*
X59597548Y-88871851D01*
X59603011Y-88966590D01*
X59610110Y-89089715D01*
X59611247Y-89094761D01*
X59611248Y-89094767D01*
X59625815Y-89159404D01*
X59659222Y-89307639D01*
X59743266Y-89514616D01*
X59859987Y-89705088D01*
X60006250Y-89873938D01*
X60178126Y-90016632D01*
X60248595Y-90057811D01*
X60251445Y-90059476D01*
X60300169Y-90111114D01*
X60313240Y-90180897D01*
X60286509Y-90246669D01*
X60246055Y-90280027D01*
X60233607Y-90286507D01*
X60229474Y-90289610D01*
X60229471Y-90289612D01*
X60205247Y-90307800D01*
X60054965Y-90420635D01*
X59900629Y-90582138D01*
X59774743Y-90766680D01*
X59680688Y-90969305D01*
X59620989Y-91184570D01*
X59597251Y-91406695D01*
X59597548Y-91411848D01*
X59597548Y-91411851D01*
X59603011Y-91506590D01*
X59610110Y-91629715D01*
X59611247Y-91634761D01*
X59611248Y-91634767D01*
X59625815Y-91699404D01*
X59659222Y-91847639D01*
X59711832Y-91977202D01*
X59736817Y-92038733D01*
X59743266Y-92054616D01*
X59791707Y-92133665D01*
X59857291Y-92240688D01*
X59859987Y-92245088D01*
X60006250Y-92413938D01*
X60178126Y-92556632D01*
X60251955Y-92599774D01*
X60300679Y-92651412D01*
X60313750Y-92721195D01*
X60287019Y-92786967D01*
X60246562Y-92820327D01*
X60238457Y-92824546D01*
X60229738Y-92830036D01*
X60059433Y-92957905D01*
X60051726Y-92964748D01*
X59904590Y-93118717D01*
X59898104Y-93126727D01*
X59778098Y-93302649D01*
X59773000Y-93311623D01*
X59683338Y-93504783D01*
X59679775Y-93514470D01*
X59624389Y-93714183D01*
X59625912Y-93722607D01*
X59638292Y-93726000D01*
X64818344Y-93726000D01*
X64831875Y-93722027D01*
X64833180Y-93712947D01*
X64791214Y-93545875D01*
X64787894Y-93536124D01*
X64702972Y-93340814D01*
X64698105Y-93331739D01*
X64582426Y-93152926D01*
X64576136Y-93144757D01*
X64432806Y-92987240D01*
X64425273Y-92980215D01*
X64258139Y-92848222D01*
X64249556Y-92842520D01*
X64212602Y-92822120D01*
X64162631Y-92771687D01*
X64147859Y-92702245D01*
X64172975Y-92635839D01*
X64200327Y-92609232D01*
X64223797Y-92592491D01*
X64379860Y-92481173D01*
X64538096Y-92323489D01*
X64597594Y-92240689D01*
X64665435Y-92146277D01*
X64668453Y-92142077D01*
X64670746Y-92137437D01*
X64672446Y-92134608D01*
X64724674Y-92086518D01*
X64780451Y-92073500D01*
X66596233Y-92073500D01*
X66607416Y-92074027D01*
X66614909Y-92075702D01*
X66622835Y-92075453D01*
X66622836Y-92075453D01*
X66682986Y-92073562D01*
X66686945Y-92073500D01*
X66714856Y-92073500D01*
X66718791Y-92073003D01*
X66718856Y-92072995D01*
X66730693Y-92072062D01*
X66762951Y-92071048D01*
X66766970Y-92070922D01*
X66774889Y-92070673D01*
X66794343Y-92065021D01*
X66813700Y-92061013D01*
X66825930Y-92059468D01*
X66825931Y-92059468D01*
X66833797Y-92058474D01*
X66841168Y-92055555D01*
X66841170Y-92055555D01*
X66874912Y-92042196D01*
X66886142Y-92038351D01*
X66920983Y-92028229D01*
X66920984Y-92028229D01*
X66928593Y-92026018D01*
X66935412Y-92021985D01*
X66935417Y-92021983D01*
X66946028Y-92015707D01*
X66963776Y-92007012D01*
X66982617Y-91999552D01*
X67018387Y-91973564D01*
X67028307Y-91967048D01*
X67059535Y-91948580D01*
X67059538Y-91948578D01*
X67066362Y-91944542D01*
X67080683Y-91930221D01*
X67095717Y-91917380D01*
X67097431Y-91916135D01*
X67112107Y-91905472D01*
X67140298Y-91871395D01*
X67148288Y-91862616D01*
X67731405Y-91279499D01*
X67793717Y-91245473D01*
X67864532Y-91250538D01*
X67921368Y-91293085D01*
X67946179Y-91359605D01*
X67946500Y-91368594D01*
X67946500Y-103822585D01*
X67926498Y-103890706D01*
X67909595Y-103911680D01*
X67081680Y-104739595D01*
X67019368Y-104773621D01*
X66992585Y-104776500D01*
X62308767Y-104776500D01*
X62297584Y-104775973D01*
X62290091Y-104774298D01*
X62282165Y-104774547D01*
X62282164Y-104774547D01*
X62222014Y-104776438D01*
X62218055Y-104776500D01*
X62190144Y-104776500D01*
X62186210Y-104776997D01*
X62186209Y-104776997D01*
X62186144Y-104777005D01*
X62174307Y-104777938D01*
X62142490Y-104778938D01*
X62138029Y-104779078D01*
X62130110Y-104779327D01*
X62112454Y-104784456D01*
X62110658Y-104784978D01*
X62091306Y-104788986D01*
X62084235Y-104789880D01*
X62071203Y-104791526D01*
X62063834Y-104794443D01*
X62063832Y-104794444D01*
X62030097Y-104807800D01*
X62018869Y-104811645D01*
X61976407Y-104823982D01*
X61969585Y-104828016D01*
X61969579Y-104828019D01*
X61958968Y-104834294D01*
X61941218Y-104842990D01*
X61929756Y-104847528D01*
X61929751Y-104847531D01*
X61922383Y-104850448D01*
X61915968Y-104855109D01*
X61886625Y-104876427D01*
X61876707Y-104882943D01*
X61858019Y-104893995D01*
X61838637Y-104905458D01*
X61824313Y-104919782D01*
X61809281Y-104932621D01*
X61792893Y-104944528D01*
X61784274Y-104954947D01*
X61764712Y-104978593D01*
X61756722Y-104987373D01*
X61417345Y-105326750D01*
X61355033Y-105360776D01*
X61306154Y-105361702D01*
X61093373Y-105323800D01*
X61093367Y-105323799D01*
X61088284Y-105322894D01*
X61014452Y-105321992D01*
X60870081Y-105320228D01*
X60870079Y-105320228D01*
X60864911Y-105320165D01*
X60644091Y-105353955D01*
X60431756Y-105423357D01*
X60233607Y-105526507D01*
X60229474Y-105529610D01*
X60229471Y-105529612D01*
X60205247Y-105547800D01*
X60054965Y-105660635D01*
X59900629Y-105822138D01*
X59774743Y-106006680D01*
X59680688Y-106209305D01*
X59620989Y-106424570D01*
X59597251Y-106646695D01*
X59597548Y-106651848D01*
X59597548Y-106651851D01*
X59603011Y-106746590D01*
X59610110Y-106869715D01*
X59611247Y-106874761D01*
X59611248Y-106874767D01*
X59631119Y-106962939D01*
X59659222Y-107087639D01*
X59743266Y-107294616D01*
X59859987Y-107485088D01*
X60006250Y-107653938D01*
X60178126Y-107796632D01*
X60248595Y-107837811D01*
X60251445Y-107839476D01*
X60300169Y-107891114D01*
X60313240Y-107960897D01*
X60286509Y-108026669D01*
X60246055Y-108060027D01*
X60233607Y-108066507D01*
X60229474Y-108069610D01*
X60229471Y-108069612D01*
X60205247Y-108087800D01*
X60054965Y-108200635D01*
X59900629Y-108362138D01*
X59774743Y-108546680D01*
X59680688Y-108749305D01*
X59620989Y-108964570D01*
X59597251Y-109186695D01*
X59597548Y-109191848D01*
X59597548Y-109191851D01*
X59603011Y-109286590D01*
X59610110Y-109409715D01*
X59611247Y-109414761D01*
X59611248Y-109414767D01*
X59631119Y-109502939D01*
X59659222Y-109627639D01*
X59743266Y-109834616D01*
X59859987Y-110025088D01*
X60006250Y-110193938D01*
X60178126Y-110336632D01*
X60248595Y-110377811D01*
X60251445Y-110379476D01*
X60300169Y-110431114D01*
X60313240Y-110500897D01*
X60286509Y-110566669D01*
X60246055Y-110600027D01*
X60233607Y-110606507D01*
X60229474Y-110609610D01*
X60229471Y-110609612D01*
X60205247Y-110627800D01*
X60054965Y-110740635D01*
X59900629Y-110902138D01*
X59774743Y-111086680D01*
X59680688Y-111289305D01*
X59620989Y-111504570D01*
X59597251Y-111726695D01*
X59597548Y-111731848D01*
X59597548Y-111731851D01*
X59603011Y-111826590D01*
X59610110Y-111949715D01*
X59611247Y-111954761D01*
X59611248Y-111954767D01*
X59631119Y-112042939D01*
X59659222Y-112167639D01*
X59716803Y-112309444D01*
X59737995Y-112361634D01*
X59743266Y-112374616D01*
X59859987Y-112565088D01*
X60006250Y-112733938D01*
X60178126Y-112876632D01*
X60194382Y-112886131D01*
X60251445Y-112919476D01*
X60300169Y-112971114D01*
X60313240Y-113040897D01*
X60286509Y-113106669D01*
X60246055Y-113140027D01*
X60233607Y-113146507D01*
X60229474Y-113149610D01*
X60229471Y-113149612D01*
X60181412Y-113185696D01*
X60054965Y-113280635D01*
X59900629Y-113442138D01*
X59774743Y-113626680D01*
X59680688Y-113829305D01*
X59620989Y-114044570D01*
X59597251Y-114266695D01*
X58420000Y-114266695D01*
X58420000Y-96486695D01*
X59597251Y-96486695D01*
X59597548Y-96491848D01*
X59597548Y-96491851D01*
X59603011Y-96586590D01*
X59610110Y-96709715D01*
X59611247Y-96714761D01*
X59611248Y-96714767D01*
X59631119Y-96802939D01*
X59659222Y-96927639D01*
X59743266Y-97134616D01*
X59859987Y-97325088D01*
X60006250Y-97493938D01*
X60178126Y-97636632D01*
X60371000Y-97749338D01*
X60579692Y-97829030D01*
X60584760Y-97830061D01*
X60584763Y-97830062D01*
X60692017Y-97851883D01*
X60798597Y-97873567D01*
X60803772Y-97873757D01*
X60803774Y-97873757D01*
X61016673Y-97881564D01*
X61016677Y-97881564D01*
X61021837Y-97881753D01*
X61026957Y-97881097D01*
X61026959Y-97881097D01*
X61238288Y-97854025D01*
X61238289Y-97854025D01*
X61243416Y-97853368D01*
X61248366Y-97851883D01*
X61452429Y-97790661D01*
X61452434Y-97790659D01*
X61457384Y-97789174D01*
X61657994Y-97690896D01*
X61839860Y-97561173D01*
X61948091Y-97453319D01*
X62010462Y-97419404D01*
X62081268Y-97424592D01*
X62138030Y-97467238D01*
X62155012Y-97498341D01*
X62177201Y-97557529D01*
X62199385Y-97616705D01*
X62286739Y-97733261D01*
X62403295Y-97820615D01*
X62539684Y-97871745D01*
X62601866Y-97878500D01*
X64398134Y-97878500D01*
X64460316Y-97871745D01*
X64596705Y-97820615D01*
X64713261Y-97733261D01*
X64800615Y-97616705D01*
X64851745Y-97480316D01*
X64858500Y-97418134D01*
X64858500Y-95621866D01*
X64851745Y-95559684D01*
X64800615Y-95423295D01*
X64713261Y-95306739D01*
X64596705Y-95219385D01*
X64477687Y-95174767D01*
X64420923Y-95132125D01*
X64396223Y-95065564D01*
X64411430Y-94996215D01*
X64432977Y-94967535D01*
X64534052Y-94866812D01*
X64540730Y-94858965D01*
X64665003Y-94686020D01*
X64670313Y-94677183D01*
X64764670Y-94486267D01*
X64768469Y-94476672D01*
X64830377Y-94272910D01*
X64832555Y-94262837D01*
X64833986Y-94251962D01*
X64831775Y-94237778D01*
X64818617Y-94234000D01*
X59643225Y-94234000D01*
X59629694Y-94237973D01*
X59628257Y-94247966D01*
X59658565Y-94382446D01*
X59661645Y-94392275D01*
X59741770Y-94589603D01*
X59746413Y-94598794D01*
X59857694Y-94780388D01*
X59863777Y-94788699D01*
X60003213Y-94949667D01*
X60010580Y-94956883D01*
X60174434Y-95092916D01*
X60182881Y-95098831D01*
X60251969Y-95139203D01*
X60300693Y-95190842D01*
X60313764Y-95260625D01*
X60287033Y-95326396D01*
X60246584Y-95359752D01*
X60233607Y-95366507D01*
X60229474Y-95369610D01*
X60229471Y-95369612D01*
X60059100Y-95497530D01*
X60054965Y-95500635D01*
X60015525Y-95541907D01*
X59943729Y-95617037D01*
X59900629Y-95662138D01*
X59774743Y-95846680D01*
X59680688Y-96049305D01*
X59620989Y-96264570D01*
X59597251Y-96486695D01*
X58420000Y-96486695D01*
X58420000Y-73626695D01*
X59597251Y-73626695D01*
X59597548Y-73631848D01*
X59597548Y-73631851D01*
X59603011Y-73726590D01*
X59610110Y-73849715D01*
X59611247Y-73854761D01*
X59611248Y-73854767D01*
X59631119Y-73942939D01*
X59659222Y-74067639D01*
X59743266Y-74274616D01*
X59859987Y-74465088D01*
X60006250Y-74633938D01*
X60178126Y-74776632D01*
X60371000Y-74889338D01*
X60579692Y-74969030D01*
X60584760Y-74970061D01*
X60584763Y-74970062D01*
X60692017Y-74991883D01*
X60798597Y-75013567D01*
X60803772Y-75013757D01*
X60803774Y-75013757D01*
X61016673Y-75021564D01*
X61016677Y-75021564D01*
X61021837Y-75021753D01*
X61026957Y-75021097D01*
X61026959Y-75021097D01*
X61238288Y-74994025D01*
X61238289Y-74994025D01*
X61243416Y-74993368D01*
X61248366Y-74991883D01*
X61452429Y-74930661D01*
X61452434Y-74930659D01*
X61457384Y-74929174D01*
X61657994Y-74830896D01*
X61839860Y-74701173D01*
X61948091Y-74593319D01*
X62010462Y-74559404D01*
X62081268Y-74564592D01*
X62138030Y-74607238D01*
X62155012Y-74638341D01*
X62177201Y-74697529D01*
X62199385Y-74756705D01*
X62286739Y-74873261D01*
X62403295Y-74960615D01*
X62539684Y-75011745D01*
X62601866Y-75018500D01*
X64398134Y-75018500D01*
X64460316Y-75011745D01*
X64596705Y-74960615D01*
X64713261Y-74873261D01*
X64800615Y-74756705D01*
X64851745Y-74620316D01*
X64858500Y-74558134D01*
X64858500Y-72761866D01*
X64851745Y-72699684D01*
X64800615Y-72563295D01*
X64713261Y-72446739D01*
X64596705Y-72359385D01*
X64477687Y-72314767D01*
X64420923Y-72272125D01*
X64396223Y-72205564D01*
X64411430Y-72136215D01*
X64432977Y-72107535D01*
X64534052Y-72006812D01*
X64540730Y-71998965D01*
X64665003Y-71826020D01*
X64670313Y-71817183D01*
X64764670Y-71626267D01*
X64768469Y-71616672D01*
X64830377Y-71412910D01*
X64832555Y-71402837D01*
X64833986Y-71391962D01*
X64831775Y-71377778D01*
X64818617Y-71374000D01*
X59643225Y-71374000D01*
X59629694Y-71377973D01*
X59628257Y-71387966D01*
X59658565Y-71522446D01*
X59661645Y-71532275D01*
X59741770Y-71729603D01*
X59746413Y-71738794D01*
X59857694Y-71920388D01*
X59863777Y-71928699D01*
X60003213Y-72089667D01*
X60010580Y-72096883D01*
X60174434Y-72232916D01*
X60182881Y-72238831D01*
X60251969Y-72279203D01*
X60300693Y-72330842D01*
X60313764Y-72400625D01*
X60287033Y-72466396D01*
X60246584Y-72499752D01*
X60233607Y-72506507D01*
X60229474Y-72509610D01*
X60229471Y-72509612D01*
X60059100Y-72637530D01*
X60054965Y-72640635D01*
X60015525Y-72681907D01*
X59943729Y-72757037D01*
X59900629Y-72802138D01*
X59774743Y-72986680D01*
X59680688Y-73189305D01*
X59620989Y-73404570D01*
X59597251Y-73626695D01*
X58420000Y-73626695D01*
X58420000Y-68546695D01*
X59597251Y-68546695D01*
X59597548Y-68551848D01*
X59597548Y-68551851D01*
X59603011Y-68646590D01*
X59610110Y-68769715D01*
X59611247Y-68774761D01*
X59611248Y-68774767D01*
X59631119Y-68862939D01*
X59659222Y-68987639D01*
X59743266Y-69194616D01*
X59782638Y-69258866D01*
X59857291Y-69380688D01*
X59859987Y-69385088D01*
X60006250Y-69553938D01*
X60178126Y-69696632D01*
X60251955Y-69739774D01*
X60300679Y-69791412D01*
X60313750Y-69861195D01*
X60287019Y-69926967D01*
X60246562Y-69960327D01*
X60238457Y-69964546D01*
X60229738Y-69970036D01*
X60059433Y-70097905D01*
X60051726Y-70104748D01*
X59904590Y-70258717D01*
X59898104Y-70266727D01*
X59778098Y-70442649D01*
X59773000Y-70451623D01*
X59683338Y-70644783D01*
X59679775Y-70654470D01*
X59624389Y-70854183D01*
X59625912Y-70862607D01*
X59638292Y-70866000D01*
X64818344Y-70866000D01*
X64831875Y-70862027D01*
X64833180Y-70852947D01*
X64791214Y-70685875D01*
X64787894Y-70676124D01*
X64702972Y-70480814D01*
X64698105Y-70471739D01*
X64582426Y-70292926D01*
X64576136Y-70284757D01*
X64432806Y-70127240D01*
X64425273Y-70120215D01*
X64258139Y-69988222D01*
X64249556Y-69982520D01*
X64212602Y-69962120D01*
X64162631Y-69911687D01*
X64147859Y-69842245D01*
X64172975Y-69775839D01*
X64200327Y-69749232D01*
X64223797Y-69732491D01*
X64379860Y-69621173D01*
X64538096Y-69463489D01*
X64547670Y-69450166D01*
X64665435Y-69286277D01*
X64668453Y-69282077D01*
X64670746Y-69277437D01*
X64672446Y-69274608D01*
X64724674Y-69226518D01*
X64780451Y-69213500D01*
X98351800Y-69213500D01*
X98419921Y-69233502D01*
X98439147Y-69249843D01*
X98439420Y-69249540D01*
X98444332Y-69253963D01*
X98448747Y-69258866D01*
X98603248Y-69371118D01*
X98609276Y-69373802D01*
X98609278Y-69373803D01*
X98634625Y-69385088D01*
X98777712Y-69448794D01*
X98864009Y-69467137D01*
X98958056Y-69487128D01*
X98958061Y-69487128D01*
X98964513Y-69488500D01*
X99155487Y-69488500D01*
X99161939Y-69487128D01*
X99161944Y-69487128D01*
X99255991Y-69467137D01*
X99342288Y-69448794D01*
X99485375Y-69385088D01*
X99510722Y-69373803D01*
X99510724Y-69373802D01*
X99516752Y-69371118D01*
X99671253Y-69258866D01*
X99675668Y-69253963D01*
X99680580Y-69249540D01*
X99681705Y-69250789D01*
X99735014Y-69217949D01*
X99768200Y-69213500D01*
X123184274Y-69213500D01*
X123252395Y-69233502D01*
X123291707Y-69273665D01*
X123359987Y-69385088D01*
X123506250Y-69553938D01*
X123678126Y-69696632D01*
X123751955Y-69739774D01*
X123800679Y-69791412D01*
X123813750Y-69861195D01*
X123787019Y-69926967D01*
X123746562Y-69960327D01*
X123738457Y-69964546D01*
X123729738Y-69970036D01*
X123559433Y-70097905D01*
X123551726Y-70104748D01*
X123404590Y-70258717D01*
X123398104Y-70266727D01*
X123278098Y-70442649D01*
X123273000Y-70451623D01*
X123183338Y-70644783D01*
X123179775Y-70654470D01*
X123124389Y-70854183D01*
X123125912Y-70862607D01*
X123138292Y-70866000D01*
X128318344Y-70866000D01*
X128331875Y-70862027D01*
X128333180Y-70852947D01*
X128291214Y-70685875D01*
X128287894Y-70676124D01*
X128202972Y-70480814D01*
X128198105Y-70471739D01*
X128082426Y-70292926D01*
X128076136Y-70284757D01*
X127932806Y-70127240D01*
X127925273Y-70120215D01*
X127758139Y-69988222D01*
X127749556Y-69982520D01*
X127712602Y-69962120D01*
X127662631Y-69911687D01*
X127647859Y-69842245D01*
X127672975Y-69775839D01*
X127700327Y-69749232D01*
X127723797Y-69732491D01*
X127879860Y-69621173D01*
X128038096Y-69463489D01*
X128047670Y-69450166D01*
X128165435Y-69286277D01*
X128168453Y-69282077D01*
X128172145Y-69274608D01*
X128265136Y-69086453D01*
X128265137Y-69086451D01*
X128267430Y-69081811D01*
X128332370Y-68868069D01*
X128361529Y-68646590D01*
X128363156Y-68580000D01*
X128344852Y-68357361D01*
X128290431Y-68140702D01*
X128201354Y-67935840D01*
X128080014Y-67748277D01*
X127929670Y-67583051D01*
X127925619Y-67579852D01*
X127925615Y-67579848D01*
X127758414Y-67447800D01*
X127758410Y-67447798D01*
X127754359Y-67444598D01*
X127713053Y-67421796D01*
X127663084Y-67371364D01*
X127648312Y-67301921D01*
X127673428Y-67235516D01*
X127700780Y-67208909D01*
X127744603Y-67177650D01*
X127879860Y-67081173D01*
X128038096Y-66923489D01*
X128097594Y-66840689D01*
X128165435Y-66746277D01*
X128168453Y-66742077D01*
X128267430Y-66541811D01*
X128332370Y-66328069D01*
X128361529Y-66106590D01*
X128363156Y-66040000D01*
X128344852Y-65817361D01*
X128290431Y-65600702D01*
X128201354Y-65395840D01*
X128080014Y-65208277D01*
X127929670Y-65043051D01*
X127925619Y-65039852D01*
X127925615Y-65039848D01*
X127758414Y-64907800D01*
X127758410Y-64907798D01*
X127754359Y-64904598D01*
X127713053Y-64881796D01*
X127663084Y-64831364D01*
X127648312Y-64761921D01*
X127673428Y-64695516D01*
X127700780Y-64668909D01*
X127744603Y-64637650D01*
X127879860Y-64541173D01*
X128038096Y-64383489D01*
X128097594Y-64300689D01*
X128165435Y-64206277D01*
X128168453Y-64202077D01*
X128267430Y-64001811D01*
X128332370Y-63788069D01*
X128361529Y-63566590D01*
X128363156Y-63500000D01*
X128344852Y-63277361D01*
X128290431Y-63060702D01*
X128201354Y-62855840D01*
X128080014Y-62668277D01*
X127929670Y-62503051D01*
X127925619Y-62499852D01*
X127925615Y-62499848D01*
X127758414Y-62367800D01*
X127758410Y-62367798D01*
X127754359Y-62364598D01*
X127713053Y-62341796D01*
X127663084Y-62291364D01*
X127648312Y-62221921D01*
X127673428Y-62155516D01*
X127700780Y-62128909D01*
X127744603Y-62097650D01*
X127879860Y-62001173D01*
X128038096Y-61843489D01*
X128097594Y-61760689D01*
X128165435Y-61666277D01*
X128168453Y-61662077D01*
X128267430Y-61461811D01*
X128332370Y-61248069D01*
X128361529Y-61026590D01*
X128363156Y-60960000D01*
X128344852Y-60737361D01*
X128290431Y-60520702D01*
X128201354Y-60315840D01*
X128080014Y-60128277D01*
X127929670Y-59963051D01*
X127925619Y-59959852D01*
X127925615Y-59959848D01*
X127758414Y-59827800D01*
X127758410Y-59827798D01*
X127754359Y-59824598D01*
X127558789Y-59716638D01*
X127553920Y-59714914D01*
X127553916Y-59714912D01*
X127353087Y-59643795D01*
X127353083Y-59643794D01*
X127348212Y-59642069D01*
X127343119Y-59641162D01*
X127343116Y-59641161D01*
X127133373Y-59603800D01*
X127133367Y-59603799D01*
X127128284Y-59602894D01*
X127054452Y-59601992D01*
X126910081Y-59600228D01*
X126910079Y-59600228D01*
X126904911Y-59600165D01*
X126684091Y-59633955D01*
X126671532Y-59638060D01*
X126600568Y-59640210D01*
X126543294Y-59607389D01*
X126329141Y-59393236D01*
X126321601Y-59384950D01*
X126317489Y-59378471D01*
X126267837Y-59331845D01*
X126264996Y-59329091D01*
X126245259Y-59309354D01*
X126242062Y-59306874D01*
X126233040Y-59299169D01*
X126219605Y-59286553D01*
X126200810Y-59268903D01*
X126193864Y-59265084D01*
X126193861Y-59265082D01*
X126183055Y-59259141D01*
X126166536Y-59248290D01*
X126166072Y-59247930D01*
X126150530Y-59235875D01*
X126143261Y-59232730D01*
X126143257Y-59232727D01*
X126109952Y-59218315D01*
X126099302Y-59213098D01*
X126060549Y-59191794D01*
X126040926Y-59186756D01*
X126022223Y-59180352D01*
X126010909Y-59175456D01*
X126010908Y-59175456D01*
X126003634Y-59172308D01*
X125995811Y-59171069D01*
X125995801Y-59171066D01*
X125959965Y-59165390D01*
X125948345Y-59162984D01*
X125913200Y-59153961D01*
X125913199Y-59153961D01*
X125905519Y-59151989D01*
X125885265Y-59151989D01*
X125865554Y-59150438D01*
X125863023Y-59150037D01*
X125845546Y-59147269D01*
X125837654Y-59148015D01*
X125801528Y-59151430D01*
X125789670Y-59151989D01*
X93504177Y-59151989D01*
X93436056Y-59131987D01*
X93410545Y-59110304D01*
X93321253Y-59011134D01*
X93166752Y-58898882D01*
X93160724Y-58896198D01*
X93160722Y-58896197D01*
X92998319Y-58823891D01*
X92998318Y-58823891D01*
X92992288Y-58821206D01*
X92898887Y-58801353D01*
X92811944Y-58782872D01*
X92811939Y-58782872D01*
X92805487Y-58781500D01*
X92614513Y-58781500D01*
X92608061Y-58782872D01*
X92608056Y-58782872D01*
X92521113Y-58801353D01*
X92427712Y-58821206D01*
X92421682Y-58823891D01*
X92421681Y-58823891D01*
X92259278Y-58896197D01*
X92259276Y-58896198D01*
X92253248Y-58898882D01*
X92098747Y-59011134D01*
X92009457Y-59110301D01*
X91949014Y-59147539D01*
X91915823Y-59151989D01*
X62213274Y-59151989D01*
X62202090Y-59151462D01*
X62194602Y-59149788D01*
X62186679Y-59150037D01*
X62126544Y-59151927D01*
X62122586Y-59151989D01*
X62094655Y-59151989D01*
X62090740Y-59152484D01*
X62090736Y-59152484D01*
X62090678Y-59152492D01*
X62090649Y-59152495D01*
X62078807Y-59153428D01*
X62034621Y-59154816D01*
X62017255Y-59159861D01*
X62015169Y-59160467D01*
X61995817Y-59164475D01*
X61983579Y-59166021D01*
X61983577Y-59166022D01*
X61975714Y-59167015D01*
X61934597Y-59183295D01*
X61923396Y-59187130D01*
X61880917Y-59199471D01*
X61874098Y-59203504D01*
X61874093Y-59203506D01*
X61863482Y-59209782D01*
X61845732Y-59218479D01*
X61826894Y-59225937D01*
X61820478Y-59230598D01*
X61820477Y-59230599D01*
X61791136Y-59251917D01*
X61781212Y-59258436D01*
X61749971Y-59276911D01*
X61749966Y-59276915D01*
X61743148Y-59280947D01*
X61728824Y-59295271D01*
X61713792Y-59308110D01*
X61697404Y-59320017D01*
X61669223Y-59354082D01*
X61661233Y-59362862D01*
X61417345Y-59606750D01*
X61355033Y-59640776D01*
X61306154Y-59641702D01*
X61093373Y-59603800D01*
X61093367Y-59603799D01*
X61088284Y-59602894D01*
X61014452Y-59601992D01*
X60870081Y-59600228D01*
X60870079Y-59600228D01*
X60864911Y-59600165D01*
X60644091Y-59633955D01*
X60431756Y-59703357D01*
X60233607Y-59806507D01*
X60229474Y-59809610D01*
X60229471Y-59809612D01*
X60205247Y-59827800D01*
X60054965Y-59940635D01*
X59900629Y-60102138D01*
X59774743Y-60286680D01*
X59680688Y-60489305D01*
X59620989Y-60704570D01*
X59597251Y-60926695D01*
X59597548Y-60931848D01*
X59597548Y-60931851D01*
X59603011Y-61026590D01*
X59610110Y-61149715D01*
X59611247Y-61154761D01*
X59611248Y-61154767D01*
X59631119Y-61242939D01*
X59659222Y-61367639D01*
X59743266Y-61574616D01*
X59859987Y-61765088D01*
X60006250Y-61933938D01*
X60178126Y-62076632D01*
X60248595Y-62117811D01*
X60251445Y-62119476D01*
X60300169Y-62171114D01*
X60313240Y-62240897D01*
X60286509Y-62306669D01*
X60246055Y-62340027D01*
X60233607Y-62346507D01*
X60229474Y-62349610D01*
X60229471Y-62349612D01*
X60205247Y-62367800D01*
X60054965Y-62480635D01*
X59900629Y-62642138D01*
X59774743Y-62826680D01*
X59680688Y-63029305D01*
X59620989Y-63244570D01*
X59597251Y-63466695D01*
X59597548Y-63471848D01*
X59597548Y-63471851D01*
X59603011Y-63566590D01*
X59610110Y-63689715D01*
X59611247Y-63694761D01*
X59611248Y-63694767D01*
X59631119Y-63782939D01*
X59659222Y-63907639D01*
X59743266Y-64114616D01*
X59859987Y-64305088D01*
X60006250Y-64473938D01*
X60178126Y-64616632D01*
X60248595Y-64657811D01*
X60251445Y-64659476D01*
X60300169Y-64711114D01*
X60313240Y-64780897D01*
X60286509Y-64846669D01*
X60246055Y-64880027D01*
X60233607Y-64886507D01*
X60229474Y-64889610D01*
X60229471Y-64889612D01*
X60205247Y-64907800D01*
X60054965Y-65020635D01*
X59900629Y-65182138D01*
X59774743Y-65366680D01*
X59680688Y-65569305D01*
X59620989Y-65784570D01*
X59597251Y-66006695D01*
X59597548Y-66011848D01*
X59597548Y-66011851D01*
X59603011Y-66106590D01*
X59610110Y-66229715D01*
X59611247Y-66234761D01*
X59611248Y-66234767D01*
X59631119Y-66322939D01*
X59659222Y-66447639D01*
X59743266Y-66654616D01*
X59859987Y-66845088D01*
X60006250Y-67013938D01*
X60178126Y-67156632D01*
X60248595Y-67197811D01*
X60251445Y-67199476D01*
X60300169Y-67251114D01*
X60313240Y-67320897D01*
X60286509Y-67386669D01*
X60246055Y-67420027D01*
X60233607Y-67426507D01*
X60229474Y-67429610D01*
X60229471Y-67429612D01*
X60205247Y-67447800D01*
X60054965Y-67560635D01*
X59900629Y-67722138D01*
X59774743Y-67906680D01*
X59680688Y-68109305D01*
X59620989Y-68324570D01*
X59597251Y-68546695D01*
X58420000Y-68546695D01*
X58420000Y-57150000D01*
X76556496Y-57150000D01*
X76557186Y-57156565D01*
X76566140Y-57241753D01*
X76576458Y-57339928D01*
X76635473Y-57521556D01*
X76730960Y-57686944D01*
X76858747Y-57828866D01*
X77013248Y-57941118D01*
X77019276Y-57943802D01*
X77019278Y-57943803D01*
X77181681Y-58016109D01*
X77187712Y-58018794D01*
X77281112Y-58038647D01*
X77368056Y-58057128D01*
X77368061Y-58057128D01*
X77374513Y-58058500D01*
X77565487Y-58058500D01*
X77571939Y-58057128D01*
X77571944Y-58057128D01*
X77658888Y-58038647D01*
X77752288Y-58018794D01*
X77758319Y-58016109D01*
X77920722Y-57943803D01*
X77920724Y-57943802D01*
X77926752Y-57941118D01*
X78081253Y-57828866D01*
X78085668Y-57823963D01*
X78090580Y-57819540D01*
X78091705Y-57820789D01*
X78145014Y-57787949D01*
X78178200Y-57783500D01*
X80571800Y-57783500D01*
X80639921Y-57803502D01*
X80659147Y-57819843D01*
X80659420Y-57819540D01*
X80664332Y-57823963D01*
X80668747Y-57828866D01*
X80823248Y-57941118D01*
X80829276Y-57943802D01*
X80829278Y-57943803D01*
X80991681Y-58016109D01*
X80997712Y-58018794D01*
X81091112Y-58038647D01*
X81178056Y-58057128D01*
X81178061Y-58057128D01*
X81184513Y-58058500D01*
X81375487Y-58058500D01*
X81381939Y-58057128D01*
X81381944Y-58057128D01*
X81468888Y-58038647D01*
X81562288Y-58018794D01*
X81568319Y-58016109D01*
X81730722Y-57943803D01*
X81730724Y-57943802D01*
X81736752Y-57941118D01*
X81891253Y-57828866D01*
X81895668Y-57823963D01*
X81900580Y-57819540D01*
X81901705Y-57820789D01*
X81955014Y-57787949D01*
X81988200Y-57783500D01*
X90731800Y-57783500D01*
X90799921Y-57803502D01*
X90819147Y-57819843D01*
X90819420Y-57819540D01*
X90824332Y-57823963D01*
X90828747Y-57828866D01*
X90983248Y-57941118D01*
X90989276Y-57943802D01*
X90989278Y-57943803D01*
X91151681Y-58016109D01*
X91157712Y-58018794D01*
X91251112Y-58038647D01*
X91338056Y-58057128D01*
X91338061Y-58057128D01*
X91344513Y-58058500D01*
X91535487Y-58058500D01*
X91541939Y-58057128D01*
X91541944Y-58057128D01*
X91628888Y-58038647D01*
X91722288Y-58018794D01*
X91728319Y-58016109D01*
X91890722Y-57943803D01*
X91890724Y-57943802D01*
X91896752Y-57941118D01*
X92051253Y-57828866D01*
X92179040Y-57686944D01*
X92274527Y-57521556D01*
X92333542Y-57339928D01*
X92343861Y-57241753D01*
X92352814Y-57156565D01*
X92353504Y-57150000D01*
X92337037Y-56993327D01*
X92334232Y-56966635D01*
X92334232Y-56966633D01*
X92333542Y-56960072D01*
X92274527Y-56778444D01*
X92257409Y-56748794D01*
X92230681Y-56702500D01*
X92213943Y-56633504D01*
X92237164Y-56566413D01*
X92292971Y-56522526D01*
X92339800Y-56513500D01*
X105971800Y-56513500D01*
X106039921Y-56533502D01*
X106059147Y-56549843D01*
X106059420Y-56549540D01*
X106064332Y-56553963D01*
X106068747Y-56558866D01*
X106079135Y-56566413D01*
X106136578Y-56608148D01*
X106223248Y-56671118D01*
X106229276Y-56673802D01*
X106229278Y-56673803D01*
X106254625Y-56685088D01*
X106397712Y-56748794D01*
X106484009Y-56767137D01*
X106578056Y-56787128D01*
X106578061Y-56787128D01*
X106584513Y-56788500D01*
X106775487Y-56788500D01*
X106781939Y-56787128D01*
X106781944Y-56787128D01*
X106875991Y-56767137D01*
X106962288Y-56748794D01*
X107105375Y-56685088D01*
X107130722Y-56673803D01*
X107130724Y-56673802D01*
X107136752Y-56671118D01*
X107291253Y-56558866D01*
X107295675Y-56553955D01*
X107414621Y-56421852D01*
X107414622Y-56421851D01*
X107419040Y-56416944D01*
X107514527Y-56251556D01*
X107573542Y-56069928D01*
X107586157Y-55949908D01*
X107592814Y-55886565D01*
X107593504Y-55880000D01*
X107573542Y-55690072D01*
X107514527Y-55508444D01*
X107419040Y-55343056D01*
X107395722Y-55317158D01*
X107295675Y-55206045D01*
X107295674Y-55206044D01*
X107291253Y-55201134D01*
X107136752Y-55088882D01*
X107130724Y-55086198D01*
X107130722Y-55086197D01*
X106968319Y-55013891D01*
X106968318Y-55013891D01*
X106962288Y-55011206D01*
X106840331Y-54985283D01*
X106781944Y-54972872D01*
X106781939Y-54972872D01*
X106775487Y-54971500D01*
X106584513Y-54971500D01*
X106578061Y-54972872D01*
X106578056Y-54972872D01*
X106519669Y-54985283D01*
X106397712Y-55011206D01*
X106391682Y-55013891D01*
X106391681Y-55013891D01*
X106229278Y-55086197D01*
X106229276Y-55086198D01*
X106223248Y-55088882D01*
X106217907Y-55092762D01*
X106217906Y-55092763D01*
X106107687Y-55172842D01*
X106068747Y-55201134D01*
X106064332Y-55206037D01*
X106059420Y-55210460D01*
X106058295Y-55209211D01*
X106004986Y-55242051D01*
X105971800Y-55246500D01*
X99959800Y-55246500D01*
X99891679Y-55226498D01*
X99845186Y-55172842D01*
X99835082Y-55102568D01*
X99850681Y-55057500D01*
X99891223Y-54987279D01*
X99891224Y-54987278D01*
X99894527Y-54981556D01*
X99953542Y-54799928D01*
X99954407Y-54791703D01*
X99972814Y-54616565D01*
X99973504Y-54610000D01*
X99956800Y-54451071D01*
X99954232Y-54426635D01*
X99954232Y-54426633D01*
X99953542Y-54420072D01*
X99894527Y-54238444D01*
X99799040Y-54073056D01*
X99771147Y-54042077D01*
X99675675Y-53936045D01*
X99675674Y-53936044D01*
X99671253Y-53931134D01*
X99548311Y-53841811D01*
X99522094Y-53822763D01*
X99522093Y-53822762D01*
X99516752Y-53818882D01*
X99510724Y-53816198D01*
X99510722Y-53816197D01*
X99348319Y-53743891D01*
X99348318Y-53743891D01*
X99342288Y-53741206D01*
X99229721Y-53717279D01*
X99161944Y-53702872D01*
X99161939Y-53702872D01*
X99155487Y-53701500D01*
X98964513Y-53701500D01*
X98958061Y-53702872D01*
X98958056Y-53702872D01*
X98890279Y-53717279D01*
X98777712Y-53741206D01*
X98771682Y-53743891D01*
X98771681Y-53743891D01*
X98609278Y-53816197D01*
X98609276Y-53816198D01*
X98603248Y-53818882D01*
X98597907Y-53822762D01*
X98597906Y-53822763D01*
X98487687Y-53902842D01*
X98448747Y-53931134D01*
X98444332Y-53936037D01*
X98439420Y-53940460D01*
X98438295Y-53939211D01*
X98384986Y-53972051D01*
X98351800Y-53976500D01*
X96646477Y-53976500D01*
X96578356Y-53956498D01*
X96531863Y-53902842D01*
X96521759Y-53832568D01*
X96525917Y-53813879D01*
X96582370Y-53628069D01*
X96611529Y-53406590D01*
X96613156Y-53340000D01*
X105766496Y-53340000D01*
X105767186Y-53346565D01*
X105773844Y-53409908D01*
X105786458Y-53529928D01*
X105845473Y-53711556D01*
X105940960Y-53876944D01*
X105945378Y-53881851D01*
X105945379Y-53881852D01*
X106064325Y-54013955D01*
X106068747Y-54018866D01*
X106223248Y-54131118D01*
X106229276Y-54133802D01*
X106229278Y-54133803D01*
X106254625Y-54145088D01*
X106397712Y-54208794D01*
X106484009Y-54227137D01*
X106578056Y-54247128D01*
X106578061Y-54247128D01*
X106584513Y-54248500D01*
X106775487Y-54248500D01*
X106781939Y-54247128D01*
X106781944Y-54247128D01*
X106875991Y-54227137D01*
X106962288Y-54208794D01*
X107105375Y-54145088D01*
X107130722Y-54133803D01*
X107130724Y-54133802D01*
X107136752Y-54131118D01*
X107223423Y-54068148D01*
X107270884Y-54033665D01*
X107291253Y-54018866D01*
X107295668Y-54013963D01*
X107300580Y-54009540D01*
X107301705Y-54010789D01*
X107355014Y-53977949D01*
X107388200Y-53973500D01*
X107944274Y-53973500D01*
X108012395Y-53993502D01*
X108051707Y-54033665D01*
X108119987Y-54145088D01*
X108266250Y-54313938D01*
X108270230Y-54317242D01*
X108274981Y-54321187D01*
X108314616Y-54380090D01*
X108316113Y-54451071D01*
X108278997Y-54511593D01*
X108238725Y-54536112D01*
X108178627Y-54558642D01*
X108123295Y-54579385D01*
X108006739Y-54666739D01*
X107919385Y-54783295D01*
X107868255Y-54919684D01*
X107861500Y-54981866D01*
X107861500Y-56778134D01*
X107868255Y-56840316D01*
X107919385Y-56976705D01*
X108006739Y-57093261D01*
X108123295Y-57180615D01*
X108259684Y-57231745D01*
X108321866Y-57238500D01*
X110118134Y-57238500D01*
X110180316Y-57231745D01*
X110316705Y-57180615D01*
X110433261Y-57093261D01*
X110520615Y-56976705D01*
X110542799Y-56917529D01*
X110564598Y-56859382D01*
X110607240Y-56802618D01*
X110673802Y-56777918D01*
X110743150Y-56793126D01*
X110777817Y-56821114D01*
X110806250Y-56853938D01*
X110978126Y-56996632D01*
X111171000Y-57109338D01*
X111379692Y-57189030D01*
X111384760Y-57190061D01*
X111384763Y-57190062D01*
X111492017Y-57211883D01*
X111598597Y-57233567D01*
X111603772Y-57233757D01*
X111603774Y-57233757D01*
X111816673Y-57241564D01*
X111816677Y-57241564D01*
X111821837Y-57241753D01*
X111826957Y-57241097D01*
X111826959Y-57241097D01*
X112038288Y-57214025D01*
X112038289Y-57214025D01*
X112043416Y-57213368D01*
X112048366Y-57211883D01*
X112252429Y-57150661D01*
X112252434Y-57150659D01*
X112257384Y-57149174D01*
X112457994Y-57050896D01*
X112639860Y-56921173D01*
X112798096Y-56763489D01*
X112807670Y-56750166D01*
X112928453Y-56582077D01*
X112929776Y-56583028D01*
X112976645Y-56539857D01*
X113046580Y-56527625D01*
X113112026Y-56555144D01*
X113139875Y-56586994D01*
X113199987Y-56685088D01*
X113346250Y-56853938D01*
X113518126Y-56996632D01*
X113711000Y-57109338D01*
X113919692Y-57189030D01*
X113924760Y-57190061D01*
X113924763Y-57190062D01*
X114032017Y-57211883D01*
X114138597Y-57233567D01*
X114143772Y-57233757D01*
X114143774Y-57233757D01*
X114356673Y-57241564D01*
X114356677Y-57241564D01*
X114361837Y-57241753D01*
X114366957Y-57241097D01*
X114366959Y-57241097D01*
X114578288Y-57214025D01*
X114578289Y-57214025D01*
X114583416Y-57213368D01*
X114588366Y-57211883D01*
X114792429Y-57150661D01*
X114792434Y-57150659D01*
X114797384Y-57149174D01*
X114997994Y-57050896D01*
X115179860Y-56921173D01*
X115338096Y-56763489D01*
X115347670Y-56750166D01*
X115465435Y-56586277D01*
X115468453Y-56582077D01*
X115478006Y-56562749D01*
X115565136Y-56386453D01*
X115565137Y-56386451D01*
X115567430Y-56381811D01*
X115632370Y-56168069D01*
X115661529Y-55946590D01*
X115663156Y-55880000D01*
X115644852Y-55657361D01*
X115590431Y-55440702D01*
X115501354Y-55235840D01*
X115443845Y-55146944D01*
X115382822Y-55052617D01*
X115382820Y-55052614D01*
X115380014Y-55048277D01*
X115229670Y-54883051D01*
X115225619Y-54879852D01*
X115225615Y-54879848D01*
X115058414Y-54747800D01*
X115058410Y-54747798D01*
X115054359Y-54744598D01*
X115013053Y-54721796D01*
X114963084Y-54671364D01*
X114948312Y-54601921D01*
X114973428Y-54535516D01*
X115000780Y-54508909D01*
X115044603Y-54477650D01*
X115179860Y-54381173D01*
X115338096Y-54223489D01*
X115347670Y-54210166D01*
X115465435Y-54046277D01*
X115468453Y-54042077D01*
X115472611Y-54033665D01*
X115565136Y-53846453D01*
X115565137Y-53846451D01*
X115567430Y-53841811D01*
X115632370Y-53628069D01*
X115661529Y-53406590D01*
X115663156Y-53340000D01*
X115644852Y-53117361D01*
X115590431Y-52900702D01*
X115501354Y-52695840D01*
X115461906Y-52634862D01*
X115382822Y-52512617D01*
X115382820Y-52512614D01*
X115380014Y-52508277D01*
X115229670Y-52343051D01*
X115225619Y-52339852D01*
X115225615Y-52339848D01*
X115058414Y-52207800D01*
X115058410Y-52207798D01*
X115054359Y-52204598D01*
X114858789Y-52096638D01*
X114853920Y-52094914D01*
X114853916Y-52094912D01*
X114653087Y-52023795D01*
X114653083Y-52023794D01*
X114648212Y-52022069D01*
X114643119Y-52021162D01*
X114643116Y-52021161D01*
X114433373Y-51983800D01*
X114433367Y-51983799D01*
X114428284Y-51982894D01*
X114354452Y-51981992D01*
X114210081Y-51980228D01*
X114210079Y-51980228D01*
X114204911Y-51980165D01*
X113984091Y-52013955D01*
X113771756Y-52083357D01*
X113573607Y-52186507D01*
X113569474Y-52189610D01*
X113569471Y-52189612D01*
X113399100Y-52317530D01*
X113394965Y-52320635D01*
X113391393Y-52324373D01*
X113283729Y-52437037D01*
X113240629Y-52482138D01*
X113133201Y-52639621D01*
X113078293Y-52684621D01*
X113007768Y-52692792D01*
X112944021Y-52661538D01*
X112923324Y-52637054D01*
X112842822Y-52512617D01*
X112842820Y-52512614D01*
X112840014Y-52508277D01*
X112689670Y-52343051D01*
X112685619Y-52339852D01*
X112685615Y-52339848D01*
X112518414Y-52207800D01*
X112518410Y-52207798D01*
X112514359Y-52204598D01*
X112318789Y-52096638D01*
X112313920Y-52094914D01*
X112313916Y-52094912D01*
X112113087Y-52023795D01*
X112113083Y-52023794D01*
X112108212Y-52022069D01*
X112103119Y-52021162D01*
X112103116Y-52021161D01*
X111893373Y-51983800D01*
X111893367Y-51983799D01*
X111888284Y-51982894D01*
X111814452Y-51981992D01*
X111670081Y-51980228D01*
X111670079Y-51980228D01*
X111664911Y-51980165D01*
X111444091Y-52013955D01*
X111231756Y-52083357D01*
X111033607Y-52186507D01*
X111029474Y-52189610D01*
X111029471Y-52189612D01*
X110859100Y-52317530D01*
X110854965Y-52320635D01*
X110851393Y-52324373D01*
X110743729Y-52437037D01*
X110700629Y-52482138D01*
X110593201Y-52639621D01*
X110538293Y-52684621D01*
X110467768Y-52692792D01*
X110404021Y-52661538D01*
X110383324Y-52637054D01*
X110302822Y-52512617D01*
X110302820Y-52512614D01*
X110300014Y-52508277D01*
X110149670Y-52343051D01*
X110145619Y-52339852D01*
X110145615Y-52339848D01*
X109978414Y-52207800D01*
X109978410Y-52207798D01*
X109974359Y-52204598D01*
X109778789Y-52096638D01*
X109773920Y-52094914D01*
X109773916Y-52094912D01*
X109573087Y-52023795D01*
X109573083Y-52023794D01*
X109568212Y-52022069D01*
X109563119Y-52021162D01*
X109563116Y-52021161D01*
X109353373Y-51983800D01*
X109353367Y-51983799D01*
X109348284Y-51982894D01*
X109274452Y-51981992D01*
X109130081Y-51980228D01*
X109130079Y-51980228D01*
X109124911Y-51980165D01*
X108904091Y-52013955D01*
X108691756Y-52083357D01*
X108493607Y-52186507D01*
X108489474Y-52189610D01*
X108489471Y-52189612D01*
X108319100Y-52317530D01*
X108314965Y-52320635D01*
X108311393Y-52324373D01*
X108203729Y-52437037D01*
X108160629Y-52482138D01*
X108157720Y-52486403D01*
X108157714Y-52486411D01*
X108045095Y-52651504D01*
X107990184Y-52696507D01*
X107941007Y-52706500D01*
X107388200Y-52706500D01*
X107320079Y-52686498D01*
X107300853Y-52670157D01*
X107300580Y-52670460D01*
X107295668Y-52666037D01*
X107291253Y-52661134D01*
X107136752Y-52548882D01*
X107130724Y-52546198D01*
X107130722Y-52546197D01*
X106968319Y-52473891D01*
X106968318Y-52473891D01*
X106962288Y-52471206D01*
X106840331Y-52445283D01*
X106781944Y-52432872D01*
X106781939Y-52432872D01*
X106775487Y-52431500D01*
X106584513Y-52431500D01*
X106578061Y-52432872D01*
X106578056Y-52432872D01*
X106519669Y-52445283D01*
X106397712Y-52471206D01*
X106391682Y-52473891D01*
X106391681Y-52473891D01*
X106229278Y-52546197D01*
X106229276Y-52546198D01*
X106223248Y-52548882D01*
X106068747Y-52661134D01*
X106064326Y-52666044D01*
X106064325Y-52666045D01*
X106037498Y-52695840D01*
X105940960Y-52803056D01*
X105845473Y-52968444D01*
X105786458Y-53150072D01*
X105766496Y-53340000D01*
X96613156Y-53340000D01*
X96594852Y-53117361D01*
X96540431Y-52900702D01*
X96451354Y-52695840D01*
X96411906Y-52634862D01*
X96332822Y-52512617D01*
X96332820Y-52512614D01*
X96330014Y-52508277D01*
X96179670Y-52343051D01*
X96175619Y-52339852D01*
X96175615Y-52339848D01*
X96008414Y-52207800D01*
X96008410Y-52207798D01*
X96004359Y-52204598D01*
X95808789Y-52096638D01*
X95803920Y-52094914D01*
X95803916Y-52094912D01*
X95603087Y-52023795D01*
X95603083Y-52023794D01*
X95598212Y-52022069D01*
X95593119Y-52021162D01*
X95593116Y-52021161D01*
X95383373Y-51983800D01*
X95383367Y-51983799D01*
X95378284Y-51982894D01*
X95304452Y-51981992D01*
X95160081Y-51980228D01*
X95160079Y-51980228D01*
X95154911Y-51980165D01*
X94934091Y-52013955D01*
X94721756Y-52083357D01*
X94523607Y-52186507D01*
X94519474Y-52189610D01*
X94519471Y-52189612D01*
X94349100Y-52317530D01*
X94344965Y-52320635D01*
X94288537Y-52379684D01*
X94264283Y-52405064D01*
X94202759Y-52440494D01*
X94131846Y-52437037D01*
X94074060Y-52395791D01*
X94055207Y-52362243D01*
X94013767Y-52251703D01*
X94010615Y-52243295D01*
X93923261Y-52126739D01*
X93806705Y-52039385D01*
X93670316Y-51988255D01*
X93608134Y-51981500D01*
X91811866Y-51981500D01*
X91749684Y-51988255D01*
X91613295Y-52039385D01*
X91496739Y-52126739D01*
X91409385Y-52243295D01*
X91358255Y-52379684D01*
X91351500Y-52441866D01*
X91351500Y-53850500D01*
X91331498Y-53918621D01*
X91277842Y-53965114D01*
X91225500Y-53976500D01*
X84528200Y-53976500D01*
X84460079Y-53956498D01*
X84440853Y-53940157D01*
X84440580Y-53940460D01*
X84435668Y-53936037D01*
X84431253Y-53931134D01*
X84392313Y-53902842D01*
X84282094Y-53822763D01*
X84282093Y-53822762D01*
X84276752Y-53818882D01*
X84270724Y-53816198D01*
X84270722Y-53816197D01*
X84108319Y-53743891D01*
X84108318Y-53743891D01*
X84102288Y-53741206D01*
X83989721Y-53717279D01*
X83921944Y-53702872D01*
X83921939Y-53702872D01*
X83915487Y-53701500D01*
X83724513Y-53701500D01*
X83718061Y-53702872D01*
X83718056Y-53702872D01*
X83650279Y-53717279D01*
X83537712Y-53741206D01*
X83531682Y-53743891D01*
X83531681Y-53743891D01*
X83369278Y-53816197D01*
X83369276Y-53816198D01*
X83363248Y-53818882D01*
X83357907Y-53822762D01*
X83357906Y-53822763D01*
X83331689Y-53841811D01*
X83208747Y-53931134D01*
X83204326Y-53936044D01*
X83204325Y-53936045D01*
X83108854Y-54042077D01*
X83080960Y-54073056D01*
X82985473Y-54238444D01*
X82926458Y-54420072D01*
X82925768Y-54426633D01*
X82925768Y-54426635D01*
X82923200Y-54451071D01*
X82906496Y-54610000D01*
X82907186Y-54616565D01*
X82925594Y-54791703D01*
X82926458Y-54799928D01*
X82985473Y-54981556D01*
X82988776Y-54987278D01*
X82988777Y-54987279D01*
X83008903Y-55022138D01*
X83080960Y-55146944D01*
X83085378Y-55151851D01*
X83085379Y-55151852D01*
X83171905Y-55247949D01*
X83208747Y-55288866D01*
X83276578Y-55338148D01*
X83349881Y-55391406D01*
X83363248Y-55401118D01*
X83369276Y-55403802D01*
X83369278Y-55403803D01*
X83463426Y-55445720D01*
X83537712Y-55478794D01*
X83631113Y-55498647D01*
X83718056Y-55517128D01*
X83718061Y-55517128D01*
X83724513Y-55518500D01*
X83915487Y-55518500D01*
X83921939Y-55517128D01*
X83921944Y-55517128D01*
X84008888Y-55498647D01*
X84102288Y-55478794D01*
X84176574Y-55445720D01*
X84270722Y-55403803D01*
X84270724Y-55403802D01*
X84276752Y-55401118D01*
X84290120Y-55391406D01*
X84409671Y-55304546D01*
X84431253Y-55288866D01*
X84435668Y-55283963D01*
X84440580Y-55279540D01*
X84441705Y-55280789D01*
X84495014Y-55247949D01*
X84528200Y-55243500D01*
X85460200Y-55243500D01*
X85528321Y-55263502D01*
X85574814Y-55317158D01*
X85584918Y-55387432D01*
X85569319Y-55432500D01*
X85542591Y-55478794D01*
X85525473Y-55508444D01*
X85466458Y-55690072D01*
X85446496Y-55880000D01*
X85447186Y-55886565D01*
X85453844Y-55949908D01*
X85466458Y-56069928D01*
X85525473Y-56251556D01*
X85528776Y-56257278D01*
X85528777Y-56257279D01*
X85569319Y-56327500D01*
X85586057Y-56396496D01*
X85562836Y-56463587D01*
X85507029Y-56507474D01*
X85460200Y-56516500D01*
X81988200Y-56516500D01*
X81920079Y-56496498D01*
X81900853Y-56480157D01*
X81900580Y-56480460D01*
X81895668Y-56476037D01*
X81891253Y-56471134D01*
X81869671Y-56455454D01*
X81742094Y-56362763D01*
X81742093Y-56362762D01*
X81736752Y-56358882D01*
X81730724Y-56356198D01*
X81730722Y-56356197D01*
X81568319Y-56283891D01*
X81568318Y-56283891D01*
X81562288Y-56281206D01*
X81449721Y-56257279D01*
X81381944Y-56242872D01*
X81381939Y-56242872D01*
X81375487Y-56241500D01*
X81184513Y-56241500D01*
X81178061Y-56242872D01*
X81178056Y-56242872D01*
X81110279Y-56257279D01*
X80997712Y-56281206D01*
X80991682Y-56283891D01*
X80991681Y-56283891D01*
X80829278Y-56356197D01*
X80829276Y-56356198D01*
X80823248Y-56358882D01*
X80817907Y-56362762D01*
X80817906Y-56362763D01*
X80690329Y-56455454D01*
X80668747Y-56471134D01*
X80664332Y-56476037D01*
X80659420Y-56480460D01*
X80658295Y-56479211D01*
X80604986Y-56512051D01*
X80571800Y-56516500D01*
X78178200Y-56516500D01*
X78110079Y-56496498D01*
X78090853Y-56480157D01*
X78090580Y-56480460D01*
X78085668Y-56476037D01*
X78081253Y-56471134D01*
X78059671Y-56455454D01*
X77932094Y-56362763D01*
X77932093Y-56362762D01*
X77926752Y-56358882D01*
X77920724Y-56356198D01*
X77920722Y-56356197D01*
X77758319Y-56283891D01*
X77758318Y-56283891D01*
X77752288Y-56281206D01*
X77639721Y-56257279D01*
X77571944Y-56242872D01*
X77571939Y-56242872D01*
X77565487Y-56241500D01*
X77374513Y-56241500D01*
X77368061Y-56242872D01*
X77368056Y-56242872D01*
X77300279Y-56257279D01*
X77187712Y-56281206D01*
X77181682Y-56283891D01*
X77181681Y-56283891D01*
X77019278Y-56356197D01*
X77019276Y-56356198D01*
X77013248Y-56358882D01*
X77007907Y-56362762D01*
X77007906Y-56362763D01*
X76981689Y-56381811D01*
X76858747Y-56471134D01*
X76854326Y-56476044D01*
X76854325Y-56476045D01*
X76758854Y-56582077D01*
X76730960Y-56613056D01*
X76635473Y-56778444D01*
X76576458Y-56960072D01*
X76575768Y-56966633D01*
X76575768Y-56966635D01*
X76572963Y-56993327D01*
X76556496Y-57150000D01*
X58420000Y-57150000D01*
X58420000Y-54238134D01*
X73571500Y-54238134D01*
X73578255Y-54300316D01*
X73629385Y-54436705D01*
X73716739Y-54553261D01*
X73833295Y-54640615D01*
X73969684Y-54691745D01*
X74031866Y-54698500D01*
X75828134Y-54698500D01*
X75890316Y-54691745D01*
X76026705Y-54640615D01*
X76143261Y-54553261D01*
X76230615Y-54436705D01*
X76260717Y-54356408D01*
X76274598Y-54319382D01*
X76317240Y-54262618D01*
X76383802Y-54237918D01*
X76453150Y-54253126D01*
X76487817Y-54281114D01*
X76516250Y-54313938D01*
X76688126Y-54456632D01*
X76881000Y-54569338D01*
X77089692Y-54649030D01*
X77094760Y-54650061D01*
X77094763Y-54650062D01*
X77176734Y-54666739D01*
X77308597Y-54693567D01*
X77313772Y-54693757D01*
X77313774Y-54693757D01*
X77526673Y-54701564D01*
X77526677Y-54701564D01*
X77531837Y-54701753D01*
X77536957Y-54701097D01*
X77536959Y-54701097D01*
X77748288Y-54674025D01*
X77748289Y-54674025D01*
X77753416Y-54673368D01*
X77760096Y-54671364D01*
X77962429Y-54610661D01*
X77962434Y-54610659D01*
X77967384Y-54609174D01*
X78167994Y-54510896D01*
X78349860Y-54381173D01*
X78508096Y-54223489D01*
X78517670Y-54210166D01*
X78635435Y-54046277D01*
X78638453Y-54042077D01*
X78642611Y-54033665D01*
X78735136Y-53846453D01*
X78735137Y-53846451D01*
X78737430Y-53841811D01*
X78802370Y-53628069D01*
X78831529Y-53406590D01*
X78833156Y-53340000D01*
X78814852Y-53117361D01*
X78760431Y-52900702D01*
X78671354Y-52695840D01*
X78631906Y-52634862D01*
X78552822Y-52512617D01*
X78552820Y-52512614D01*
X78550014Y-52508277D01*
X78399670Y-52343051D01*
X78395619Y-52339852D01*
X78395615Y-52339848D01*
X78228414Y-52207800D01*
X78228410Y-52207798D01*
X78224359Y-52204598D01*
X78028789Y-52096638D01*
X78023920Y-52094914D01*
X78023916Y-52094912D01*
X77823087Y-52023795D01*
X77823083Y-52023794D01*
X77818212Y-52022069D01*
X77813119Y-52021162D01*
X77813116Y-52021161D01*
X77603373Y-51983800D01*
X77603367Y-51983799D01*
X77598284Y-51982894D01*
X77524452Y-51981992D01*
X77380081Y-51980228D01*
X77380079Y-51980228D01*
X77374911Y-51980165D01*
X77154091Y-52013955D01*
X76941756Y-52083357D01*
X76743607Y-52186507D01*
X76739474Y-52189610D01*
X76739471Y-52189612D01*
X76569100Y-52317530D01*
X76564965Y-52320635D01*
X76508537Y-52379684D01*
X76484283Y-52405064D01*
X76422759Y-52440494D01*
X76351846Y-52437037D01*
X76294060Y-52395791D01*
X76275207Y-52362243D01*
X76233767Y-52251703D01*
X76230615Y-52243295D01*
X76143261Y-52126739D01*
X76026705Y-52039385D01*
X75890316Y-51988255D01*
X75828134Y-51981500D01*
X74031866Y-51981500D01*
X73969684Y-51988255D01*
X73833295Y-52039385D01*
X73716739Y-52126739D01*
X73629385Y-52243295D01*
X73578255Y-52379684D01*
X73571500Y-52441866D01*
X73571500Y-54238134D01*
X58420000Y-54238134D01*
X58420000Y-48260000D01*
X59926411Y-48260000D01*
X59946754Y-48648176D01*
X60007562Y-49032099D01*
X60108167Y-49407562D01*
X60109352Y-49410650D01*
X60109353Y-49410652D01*
X60141822Y-49495236D01*
X60247468Y-49770453D01*
X60423938Y-50116794D01*
X60425734Y-50119560D01*
X60425736Y-50119563D01*
X60432616Y-50130157D01*
X60635643Y-50442793D01*
X60880266Y-50744876D01*
X61155124Y-51019734D01*
X61457207Y-51264357D01*
X61459970Y-51266152D01*
X61459971Y-51266152D01*
X61773629Y-51469843D01*
X61783205Y-51476062D01*
X61786139Y-51477557D01*
X61786146Y-51477561D01*
X62126607Y-51651034D01*
X62129547Y-51652532D01*
X62492438Y-51791833D01*
X62867901Y-51892438D01*
X63071793Y-51924732D01*
X63248576Y-51952732D01*
X63248584Y-51952733D01*
X63251824Y-51953246D01*
X63640000Y-51973589D01*
X64028176Y-51953246D01*
X64031416Y-51952733D01*
X64031424Y-51952732D01*
X64208207Y-51924732D01*
X64412099Y-51892438D01*
X64787562Y-51791833D01*
X65150453Y-51652532D01*
X65153393Y-51651034D01*
X65493854Y-51477561D01*
X65493861Y-51477557D01*
X65496795Y-51476062D01*
X65506372Y-51469843D01*
X65820029Y-51266152D01*
X65820030Y-51266152D01*
X65822793Y-51264357D01*
X66124876Y-51019734D01*
X66344610Y-50800000D01*
X87986496Y-50800000D01*
X88006458Y-50989928D01*
X88065473Y-51171556D01*
X88160960Y-51336944D01*
X88288747Y-51478866D01*
X88443248Y-51591118D01*
X88449276Y-51593802D01*
X88449278Y-51593803D01*
X88583846Y-51653716D01*
X88617712Y-51668794D01*
X88711113Y-51688647D01*
X88798056Y-51707128D01*
X88798061Y-51707128D01*
X88804513Y-51708500D01*
X88995487Y-51708500D01*
X89001939Y-51707128D01*
X89001944Y-51707128D01*
X89088888Y-51688647D01*
X89182288Y-51668794D01*
X89216154Y-51653716D01*
X89350722Y-51593803D01*
X89350724Y-51593802D01*
X89356752Y-51591118D01*
X89511253Y-51478866D01*
X89515668Y-51473963D01*
X89520580Y-51469540D01*
X89521705Y-51470789D01*
X89575014Y-51437949D01*
X89608200Y-51433500D01*
X116131800Y-51433500D01*
X116199921Y-51453502D01*
X116219147Y-51469843D01*
X116219420Y-51469540D01*
X116224332Y-51473963D01*
X116228747Y-51478866D01*
X116383248Y-51591118D01*
X116389276Y-51593802D01*
X116389278Y-51593803D01*
X116523846Y-51653716D01*
X116557712Y-51668794D01*
X116651113Y-51688647D01*
X116738056Y-51707128D01*
X116738061Y-51707128D01*
X116744513Y-51708500D01*
X116935487Y-51708500D01*
X116941939Y-51707128D01*
X116941944Y-51707128D01*
X117028888Y-51688647D01*
X117122288Y-51668794D01*
X117156154Y-51653716D01*
X117290722Y-51593803D01*
X117290724Y-51593802D01*
X117296752Y-51591118D01*
X117451253Y-51478866D01*
X117579040Y-51336944D01*
X117674527Y-51171556D01*
X117733542Y-50989928D01*
X117753504Y-50800000D01*
X117733542Y-50610072D01*
X117674527Y-50428444D01*
X117579040Y-50263056D01*
X117451253Y-50121134D01*
X117296752Y-50008882D01*
X117290724Y-50006198D01*
X117290722Y-50006197D01*
X117128319Y-49933891D01*
X117128318Y-49933891D01*
X117122288Y-49931206D01*
X117028888Y-49911353D01*
X116941944Y-49892872D01*
X116941939Y-49892872D01*
X116935487Y-49891500D01*
X116744513Y-49891500D01*
X116738061Y-49892872D01*
X116738056Y-49892872D01*
X116651112Y-49911353D01*
X116557712Y-49931206D01*
X116551682Y-49933891D01*
X116551681Y-49933891D01*
X116389278Y-50006197D01*
X116389276Y-50006198D01*
X116383248Y-50008882D01*
X116228747Y-50121134D01*
X116224332Y-50126037D01*
X116219420Y-50130460D01*
X116218295Y-50129211D01*
X116164986Y-50162051D01*
X116131800Y-50166500D01*
X89608200Y-50166500D01*
X89540079Y-50146498D01*
X89520853Y-50130157D01*
X89520580Y-50130460D01*
X89515668Y-50126037D01*
X89511253Y-50121134D01*
X89356752Y-50008882D01*
X89350724Y-50006198D01*
X89350722Y-50006197D01*
X89188319Y-49933891D01*
X89188318Y-49933891D01*
X89182288Y-49931206D01*
X89088888Y-49911353D01*
X89001944Y-49892872D01*
X89001939Y-49892872D01*
X88995487Y-49891500D01*
X88804513Y-49891500D01*
X88798061Y-49892872D01*
X88798056Y-49892872D01*
X88711112Y-49911353D01*
X88617712Y-49931206D01*
X88611682Y-49933891D01*
X88611681Y-49933891D01*
X88449278Y-50006197D01*
X88449276Y-50006198D01*
X88443248Y-50008882D01*
X88288747Y-50121134D01*
X88160960Y-50263056D01*
X88065473Y-50428444D01*
X88006458Y-50610072D01*
X87986496Y-50800000D01*
X66344610Y-50800000D01*
X66399734Y-50744876D01*
X66644357Y-50442793D01*
X66847384Y-50130157D01*
X66854264Y-50119563D01*
X66854266Y-50119560D01*
X66856062Y-50116794D01*
X67032532Y-49770453D01*
X67138178Y-49495236D01*
X67170647Y-49410652D01*
X67170648Y-49410650D01*
X67171833Y-49407562D01*
X67272438Y-49032099D01*
X67333246Y-48648176D01*
X67353589Y-48260000D01*
X69806502Y-48260000D01*
X69826457Y-48488087D01*
X69827881Y-48493400D01*
X69827881Y-48493402D01*
X69865025Y-48632022D01*
X69885716Y-48709243D01*
X69888039Y-48714224D01*
X69888039Y-48714225D01*
X69980151Y-48911762D01*
X69980154Y-48911767D01*
X69982477Y-48916749D01*
X70113802Y-49104300D01*
X70275700Y-49266198D01*
X70280208Y-49269355D01*
X70280211Y-49269357D01*
X70358389Y-49324098D01*
X70463251Y-49397523D01*
X70468233Y-49399846D01*
X70468238Y-49399849D01*
X70664765Y-49491490D01*
X70670757Y-49494284D01*
X70676065Y-49495706D01*
X70676067Y-49495707D01*
X70886598Y-49552119D01*
X70886600Y-49552119D01*
X70891913Y-49553543D01*
X71120000Y-49573498D01*
X71348087Y-49553543D01*
X71353400Y-49552119D01*
X71353402Y-49552119D01*
X71563933Y-49495707D01*
X71563935Y-49495706D01*
X71569243Y-49494284D01*
X71575235Y-49491490D01*
X71771762Y-49399849D01*
X71771767Y-49399846D01*
X71776749Y-49397523D01*
X71881611Y-49324098D01*
X71959789Y-49269357D01*
X71959792Y-49269355D01*
X71964300Y-49266198D01*
X72126198Y-49104300D01*
X72257523Y-48916749D01*
X72259846Y-48911767D01*
X72259849Y-48911762D01*
X72351961Y-48714225D01*
X72351961Y-48714224D01*
X72354284Y-48709243D01*
X72374976Y-48632022D01*
X72412119Y-48493402D01*
X72412119Y-48493400D01*
X72413543Y-48488087D01*
X72433498Y-48260000D01*
X79966502Y-48260000D01*
X79986457Y-48488087D01*
X79987881Y-48493400D01*
X79987881Y-48493402D01*
X80025025Y-48632022D01*
X80045716Y-48709243D01*
X80048039Y-48714224D01*
X80048039Y-48714225D01*
X80140151Y-48911762D01*
X80140154Y-48911767D01*
X80142477Y-48916749D01*
X80273802Y-49104300D01*
X80435700Y-49266198D01*
X80440208Y-49269355D01*
X80440211Y-49269357D01*
X80518389Y-49324098D01*
X80623251Y-49397523D01*
X80628233Y-49399846D01*
X80628238Y-49399849D01*
X80824765Y-49491490D01*
X80830757Y-49494284D01*
X80836065Y-49495706D01*
X80836067Y-49495707D01*
X81046598Y-49552119D01*
X81046600Y-49552119D01*
X81051913Y-49553543D01*
X81280000Y-49573498D01*
X81508087Y-49553543D01*
X81513400Y-49552119D01*
X81513402Y-49552119D01*
X81723933Y-49495707D01*
X81723935Y-49495706D01*
X81729243Y-49494284D01*
X81735235Y-49491490D01*
X81931762Y-49399849D01*
X81931767Y-49399846D01*
X81936749Y-49397523D01*
X82041611Y-49324098D01*
X82119789Y-49269357D01*
X82119792Y-49269355D01*
X82124300Y-49266198D01*
X82286198Y-49104300D01*
X82417523Y-48916749D01*
X82419846Y-48911767D01*
X82419849Y-48911762D01*
X82511961Y-48714225D01*
X82511961Y-48714224D01*
X82514284Y-48709243D01*
X82534976Y-48632022D01*
X82572119Y-48493402D01*
X82572119Y-48493400D01*
X82573543Y-48488087D01*
X82593498Y-48260000D01*
X87586502Y-48260000D01*
X87606457Y-48488087D01*
X87607881Y-48493400D01*
X87607881Y-48493402D01*
X87645025Y-48632022D01*
X87665716Y-48709243D01*
X87668039Y-48714224D01*
X87668039Y-48714225D01*
X87760151Y-48911762D01*
X87760154Y-48911767D01*
X87762477Y-48916749D01*
X87893802Y-49104300D01*
X88055700Y-49266198D01*
X88060208Y-49269355D01*
X88060211Y-49269357D01*
X88138389Y-49324098D01*
X88243251Y-49397523D01*
X88248233Y-49399846D01*
X88248238Y-49399849D01*
X88444765Y-49491490D01*
X88450757Y-49494284D01*
X88456065Y-49495706D01*
X88456067Y-49495707D01*
X88666598Y-49552119D01*
X88666600Y-49552119D01*
X88671913Y-49553543D01*
X88900000Y-49573498D01*
X89128087Y-49553543D01*
X89133400Y-49552119D01*
X89133402Y-49552119D01*
X89343933Y-49495707D01*
X89343935Y-49495706D01*
X89349243Y-49494284D01*
X89355235Y-49491490D01*
X89551762Y-49399849D01*
X89551767Y-49399846D01*
X89556749Y-49397523D01*
X89661611Y-49324098D01*
X89739789Y-49269357D01*
X89739792Y-49269355D01*
X89744300Y-49266198D01*
X89906198Y-49104300D01*
X90037523Y-48916749D01*
X90039846Y-48911767D01*
X90039849Y-48911762D01*
X90131961Y-48714225D01*
X90131961Y-48714224D01*
X90134284Y-48709243D01*
X90154976Y-48632022D01*
X90192119Y-48493402D01*
X90192119Y-48493400D01*
X90193543Y-48488087D01*
X90213498Y-48260000D01*
X97746502Y-48260000D01*
X97766457Y-48488087D01*
X97767881Y-48493400D01*
X97767881Y-48493402D01*
X97805025Y-48632022D01*
X97825716Y-48709243D01*
X97828039Y-48714224D01*
X97828039Y-48714225D01*
X97920151Y-48911762D01*
X97920154Y-48911767D01*
X97922477Y-48916749D01*
X98053802Y-49104300D01*
X98215700Y-49266198D01*
X98220208Y-49269355D01*
X98220211Y-49269357D01*
X98298389Y-49324098D01*
X98403251Y-49397523D01*
X98408233Y-49399846D01*
X98408238Y-49399849D01*
X98604765Y-49491490D01*
X98610757Y-49494284D01*
X98616065Y-49495706D01*
X98616067Y-49495707D01*
X98826598Y-49552119D01*
X98826600Y-49552119D01*
X98831913Y-49553543D01*
X99060000Y-49573498D01*
X99288087Y-49553543D01*
X99293400Y-49552119D01*
X99293402Y-49552119D01*
X99503933Y-49495707D01*
X99503935Y-49495706D01*
X99509243Y-49494284D01*
X99515235Y-49491490D01*
X99711762Y-49399849D01*
X99711767Y-49399846D01*
X99716749Y-49397523D01*
X99790243Y-49346062D01*
X105958493Y-49346062D01*
X105967789Y-49358077D01*
X106018994Y-49393931D01*
X106028489Y-49399414D01*
X106225947Y-49491490D01*
X106236239Y-49495236D01*
X106446688Y-49551625D01*
X106457481Y-49553528D01*
X106674525Y-49572517D01*
X106685475Y-49572517D01*
X106902519Y-49553528D01*
X106913312Y-49551625D01*
X107123761Y-49495236D01*
X107134053Y-49491490D01*
X107331511Y-49399414D01*
X107341006Y-49393931D01*
X107393048Y-49357491D01*
X107401424Y-49347012D01*
X107394356Y-49333566D01*
X106692812Y-48632022D01*
X106678868Y-48624408D01*
X106677035Y-48624539D01*
X106670420Y-48628790D01*
X105964923Y-49334287D01*
X105958493Y-49346062D01*
X99790243Y-49346062D01*
X99821611Y-49324098D01*
X99899789Y-49269357D01*
X99899792Y-49269355D01*
X99904300Y-49266198D01*
X100066198Y-49104300D01*
X100197523Y-48916749D01*
X100199846Y-48911767D01*
X100199849Y-48911762D01*
X100291961Y-48714225D01*
X100291961Y-48714224D01*
X100294284Y-48709243D01*
X100314976Y-48632022D01*
X100352119Y-48493402D01*
X100352119Y-48493400D01*
X100353543Y-48488087D01*
X100373019Y-48265475D01*
X105367483Y-48265475D01*
X105386472Y-48482519D01*
X105388375Y-48493312D01*
X105444764Y-48703761D01*
X105448510Y-48714053D01*
X105540586Y-48911511D01*
X105546069Y-48921006D01*
X105582509Y-48973048D01*
X105592988Y-48981424D01*
X105606434Y-48974356D01*
X106307978Y-48272812D01*
X106314356Y-48261132D01*
X107044408Y-48261132D01*
X107044539Y-48262965D01*
X107048790Y-48269580D01*
X107754287Y-48975077D01*
X107766062Y-48981507D01*
X107778077Y-48972211D01*
X107813931Y-48921006D01*
X107819414Y-48911511D01*
X107911490Y-48714053D01*
X107915236Y-48703761D01*
X107971625Y-48493312D01*
X107973528Y-48482519D01*
X107992517Y-48265475D01*
X107992517Y-48260000D01*
X115526502Y-48260000D01*
X115546457Y-48488087D01*
X115547881Y-48493400D01*
X115547881Y-48493402D01*
X115585025Y-48632022D01*
X115605716Y-48709243D01*
X115608039Y-48714224D01*
X115608039Y-48714225D01*
X115700151Y-48911762D01*
X115700154Y-48911767D01*
X115702477Y-48916749D01*
X115833802Y-49104300D01*
X115995700Y-49266198D01*
X116000208Y-49269355D01*
X116000211Y-49269357D01*
X116078389Y-49324098D01*
X116183251Y-49397523D01*
X116188233Y-49399846D01*
X116188238Y-49399849D01*
X116384765Y-49491490D01*
X116390757Y-49494284D01*
X116396065Y-49495706D01*
X116396067Y-49495707D01*
X116606598Y-49552119D01*
X116606600Y-49552119D01*
X116611913Y-49553543D01*
X116840000Y-49573498D01*
X117068087Y-49553543D01*
X117073400Y-49552119D01*
X117073402Y-49552119D01*
X117283933Y-49495707D01*
X117283935Y-49495706D01*
X117289243Y-49494284D01*
X117295235Y-49491490D01*
X117491762Y-49399849D01*
X117491767Y-49399846D01*
X117496749Y-49397523D01*
X117601611Y-49324098D01*
X117679789Y-49269357D01*
X117679792Y-49269355D01*
X117684300Y-49266198D01*
X117846198Y-49104300D01*
X117977523Y-48916749D01*
X117979846Y-48911767D01*
X117979849Y-48911762D01*
X118071961Y-48714225D01*
X118071961Y-48714224D01*
X118074284Y-48709243D01*
X118094976Y-48632022D01*
X118132119Y-48493402D01*
X118132119Y-48493400D01*
X118133543Y-48488087D01*
X118153498Y-48260000D01*
X120746411Y-48260000D01*
X120766754Y-48648176D01*
X120827562Y-49032099D01*
X120928167Y-49407562D01*
X120929352Y-49410650D01*
X120929353Y-49410652D01*
X120961822Y-49495236D01*
X121067468Y-49770453D01*
X121243938Y-50116794D01*
X121245734Y-50119560D01*
X121245736Y-50119563D01*
X121252616Y-50130157D01*
X121455643Y-50442793D01*
X121700266Y-50744876D01*
X121975124Y-51019734D01*
X122277207Y-51264357D01*
X122279970Y-51266152D01*
X122279971Y-51266152D01*
X122593629Y-51469843D01*
X122603205Y-51476062D01*
X122606139Y-51477557D01*
X122606146Y-51477561D01*
X122946607Y-51651034D01*
X122949547Y-51652532D01*
X123312438Y-51791833D01*
X123687901Y-51892438D01*
X123891793Y-51924732D01*
X124068576Y-51952732D01*
X124068584Y-51952733D01*
X124071824Y-51953246D01*
X124460000Y-51973589D01*
X124848176Y-51953246D01*
X124851416Y-51952733D01*
X124851424Y-51952732D01*
X125028207Y-51924732D01*
X125232099Y-51892438D01*
X125607562Y-51791833D01*
X125970453Y-51652532D01*
X125973393Y-51651034D01*
X126313854Y-51477561D01*
X126313861Y-51477557D01*
X126316795Y-51476062D01*
X126326372Y-51469843D01*
X126640029Y-51266152D01*
X126640030Y-51266152D01*
X126642793Y-51264357D01*
X126944876Y-51019734D01*
X127219734Y-50744876D01*
X127464357Y-50442793D01*
X127667384Y-50130157D01*
X127674264Y-50119563D01*
X127674266Y-50119560D01*
X127676062Y-50116794D01*
X127852532Y-49770453D01*
X127958178Y-49495236D01*
X127990647Y-49410652D01*
X127990648Y-49410650D01*
X127991833Y-49407562D01*
X128092438Y-49032099D01*
X128153246Y-48648176D01*
X128173589Y-48260000D01*
X128153246Y-47871824D01*
X128092438Y-47487901D01*
X127991833Y-47112438D01*
X127958544Y-47025716D01*
X127853716Y-46752632D01*
X127852532Y-46749547D01*
X127676062Y-46403206D01*
X127464357Y-46077207D01*
X127219734Y-45775124D01*
X126944876Y-45500266D01*
X126642793Y-45255643D01*
X126316795Y-45043938D01*
X126313861Y-45042443D01*
X126313854Y-45042439D01*
X125973393Y-44868966D01*
X125970453Y-44867468D01*
X125607562Y-44728167D01*
X125232099Y-44627562D01*
X125028207Y-44595268D01*
X124851424Y-44567268D01*
X124851416Y-44567267D01*
X124848176Y-44566754D01*
X124460000Y-44546411D01*
X124071824Y-44566754D01*
X124068584Y-44567267D01*
X124068576Y-44567268D01*
X123891793Y-44595268D01*
X123687901Y-44627562D01*
X123312438Y-44728167D01*
X122949547Y-44867468D01*
X122946607Y-44868966D01*
X122606147Y-45042439D01*
X122606140Y-45042443D01*
X122603206Y-45043938D01*
X122277207Y-45255643D01*
X121975124Y-45500266D01*
X121700266Y-45775124D01*
X121455643Y-46077207D01*
X121243938Y-46403206D01*
X121067468Y-46749547D01*
X121066284Y-46752632D01*
X120961457Y-47025716D01*
X120928167Y-47112438D01*
X120827562Y-47487901D01*
X120766754Y-47871824D01*
X120746411Y-48260000D01*
X118153498Y-48260000D01*
X118133543Y-48031913D01*
X118096981Y-47895461D01*
X118075707Y-47816067D01*
X118075706Y-47816065D01*
X118074284Y-47810757D01*
X117979966Y-47608489D01*
X117979849Y-47608238D01*
X117979846Y-47608233D01*
X117977523Y-47603251D01*
X117846198Y-47415700D01*
X117684300Y-47253802D01*
X117679792Y-47250645D01*
X117679789Y-47250643D01*
X117553920Y-47162509D01*
X117496749Y-47122477D01*
X117491767Y-47120154D01*
X117491762Y-47120151D01*
X117294225Y-47028039D01*
X117294224Y-47028039D01*
X117289243Y-47025716D01*
X117283935Y-47024294D01*
X117283933Y-47024293D01*
X117073402Y-46967881D01*
X117073400Y-46967881D01*
X117068087Y-46966457D01*
X116840000Y-46946502D01*
X116611913Y-46966457D01*
X116606600Y-46967881D01*
X116606598Y-46967881D01*
X116396067Y-47024293D01*
X116396065Y-47024294D01*
X116390757Y-47025716D01*
X116385776Y-47028039D01*
X116385775Y-47028039D01*
X116188238Y-47120151D01*
X116188233Y-47120154D01*
X116183251Y-47122477D01*
X116126080Y-47162509D01*
X116000211Y-47250643D01*
X116000208Y-47250645D01*
X115995700Y-47253802D01*
X115833802Y-47415700D01*
X115702477Y-47603251D01*
X115700154Y-47608233D01*
X115700151Y-47608238D01*
X115700034Y-47608489D01*
X115605716Y-47810757D01*
X115604294Y-47816065D01*
X115604293Y-47816067D01*
X115583019Y-47895461D01*
X115546457Y-48031913D01*
X115526502Y-48260000D01*
X107992517Y-48260000D01*
X107992517Y-48254525D01*
X107973528Y-48037481D01*
X107971625Y-48026688D01*
X107915236Y-47816239D01*
X107911490Y-47805947D01*
X107819414Y-47608489D01*
X107813931Y-47598994D01*
X107777491Y-47546952D01*
X107767012Y-47538576D01*
X107753566Y-47545644D01*
X107052022Y-48247188D01*
X107044408Y-48261132D01*
X106314356Y-48261132D01*
X106315592Y-48258868D01*
X106315461Y-48257035D01*
X106311210Y-48250420D01*
X105605713Y-47544923D01*
X105593938Y-47538493D01*
X105581923Y-47547789D01*
X105546069Y-47598994D01*
X105540586Y-47608489D01*
X105448510Y-47805947D01*
X105444764Y-47816239D01*
X105388375Y-48026688D01*
X105386472Y-48037481D01*
X105367483Y-48254525D01*
X105367483Y-48265475D01*
X100373019Y-48265475D01*
X100373498Y-48260000D01*
X100353543Y-48031913D01*
X100316981Y-47895461D01*
X100295707Y-47816067D01*
X100295706Y-47816065D01*
X100294284Y-47810757D01*
X100199966Y-47608489D01*
X100199849Y-47608238D01*
X100199846Y-47608233D01*
X100197523Y-47603251D01*
X100066198Y-47415700D01*
X99904300Y-47253802D01*
X99899792Y-47250645D01*
X99899789Y-47250643D01*
X99788886Y-47172988D01*
X105958576Y-47172988D01*
X105965644Y-47186434D01*
X106667188Y-47887978D01*
X106681132Y-47895592D01*
X106682965Y-47895461D01*
X106689580Y-47891210D01*
X107395077Y-47185713D01*
X107401507Y-47173938D01*
X107392211Y-47161923D01*
X107341006Y-47126069D01*
X107331511Y-47120586D01*
X107134053Y-47028510D01*
X107123761Y-47024764D01*
X106913312Y-46968375D01*
X106902519Y-46966472D01*
X106685475Y-46947483D01*
X106674525Y-46947483D01*
X106457481Y-46966472D01*
X106446688Y-46968375D01*
X106236239Y-47024764D01*
X106225947Y-47028510D01*
X106028489Y-47120586D01*
X106018994Y-47126069D01*
X105966952Y-47162509D01*
X105958576Y-47172988D01*
X99788886Y-47172988D01*
X99773920Y-47162509D01*
X99716749Y-47122477D01*
X99711767Y-47120154D01*
X99711762Y-47120151D01*
X99514225Y-47028039D01*
X99514224Y-47028039D01*
X99509243Y-47025716D01*
X99503935Y-47024294D01*
X99503933Y-47024293D01*
X99293402Y-46967881D01*
X99293400Y-46967881D01*
X99288087Y-46966457D01*
X99060000Y-46946502D01*
X98831913Y-46966457D01*
X98826600Y-46967881D01*
X98826598Y-46967881D01*
X98616067Y-47024293D01*
X98616065Y-47024294D01*
X98610757Y-47025716D01*
X98605776Y-47028039D01*
X98605775Y-47028039D01*
X98408238Y-47120151D01*
X98408233Y-47120154D01*
X98403251Y-47122477D01*
X98346080Y-47162509D01*
X98220211Y-47250643D01*
X98220208Y-47250645D01*
X98215700Y-47253802D01*
X98053802Y-47415700D01*
X97922477Y-47603251D01*
X97920154Y-47608233D01*
X97920151Y-47608238D01*
X97920034Y-47608489D01*
X97825716Y-47810757D01*
X97824294Y-47816065D01*
X97824293Y-47816067D01*
X97803019Y-47895461D01*
X97766457Y-48031913D01*
X97746502Y-48260000D01*
X90213498Y-48260000D01*
X90193543Y-48031913D01*
X90156981Y-47895461D01*
X90135707Y-47816067D01*
X90135706Y-47816065D01*
X90134284Y-47810757D01*
X90039966Y-47608489D01*
X90039849Y-47608238D01*
X90039846Y-47608233D01*
X90037523Y-47603251D01*
X89906198Y-47415700D01*
X89744300Y-47253802D01*
X89739792Y-47250645D01*
X89739789Y-47250643D01*
X89613920Y-47162509D01*
X89556749Y-47122477D01*
X89551767Y-47120154D01*
X89551762Y-47120151D01*
X89354225Y-47028039D01*
X89354224Y-47028039D01*
X89349243Y-47025716D01*
X89343935Y-47024294D01*
X89343933Y-47024293D01*
X89133402Y-46967881D01*
X89133400Y-46967881D01*
X89128087Y-46966457D01*
X88900000Y-46946502D01*
X88671913Y-46966457D01*
X88666600Y-46967881D01*
X88666598Y-46967881D01*
X88456067Y-47024293D01*
X88456065Y-47024294D01*
X88450757Y-47025716D01*
X88445776Y-47028039D01*
X88445775Y-47028039D01*
X88248238Y-47120151D01*
X88248233Y-47120154D01*
X88243251Y-47122477D01*
X88186080Y-47162509D01*
X88060211Y-47250643D01*
X88060208Y-47250645D01*
X88055700Y-47253802D01*
X87893802Y-47415700D01*
X87762477Y-47603251D01*
X87760154Y-47608233D01*
X87760151Y-47608238D01*
X87760034Y-47608489D01*
X87665716Y-47810757D01*
X87664294Y-47816065D01*
X87664293Y-47816067D01*
X87643019Y-47895461D01*
X87606457Y-48031913D01*
X87586502Y-48260000D01*
X82593498Y-48260000D01*
X82573543Y-48031913D01*
X82536981Y-47895461D01*
X82515707Y-47816067D01*
X82515706Y-47816065D01*
X82514284Y-47810757D01*
X82419966Y-47608489D01*
X82419849Y-47608238D01*
X82419846Y-47608233D01*
X82417523Y-47603251D01*
X82286198Y-47415700D01*
X82124300Y-47253802D01*
X82119792Y-47250645D01*
X82119789Y-47250643D01*
X81993920Y-47162509D01*
X81936749Y-47122477D01*
X81931767Y-47120154D01*
X81931762Y-47120151D01*
X81734225Y-47028039D01*
X81734224Y-47028039D01*
X81729243Y-47025716D01*
X81723935Y-47024294D01*
X81723933Y-47024293D01*
X81513402Y-46967881D01*
X81513400Y-46967881D01*
X81508087Y-46966457D01*
X81280000Y-46946502D01*
X81051913Y-46966457D01*
X81046600Y-46967881D01*
X81046598Y-46967881D01*
X80836067Y-47024293D01*
X80836065Y-47024294D01*
X80830757Y-47025716D01*
X80825776Y-47028039D01*
X80825775Y-47028039D01*
X80628238Y-47120151D01*
X80628233Y-47120154D01*
X80623251Y-47122477D01*
X80566080Y-47162509D01*
X80440211Y-47250643D01*
X80440208Y-47250645D01*
X80435700Y-47253802D01*
X80273802Y-47415700D01*
X80142477Y-47603251D01*
X80140154Y-47608233D01*
X80140151Y-47608238D01*
X80140034Y-47608489D01*
X80045716Y-47810757D01*
X80044294Y-47816065D01*
X80044293Y-47816067D01*
X80023019Y-47895461D01*
X79986457Y-48031913D01*
X79966502Y-48260000D01*
X72433498Y-48260000D01*
X72413543Y-48031913D01*
X72376981Y-47895461D01*
X72355707Y-47816067D01*
X72355706Y-47816065D01*
X72354284Y-47810757D01*
X72259966Y-47608489D01*
X72259849Y-47608238D01*
X72259846Y-47608233D01*
X72257523Y-47603251D01*
X72126198Y-47415700D01*
X71964300Y-47253802D01*
X71959792Y-47250645D01*
X71959789Y-47250643D01*
X71833920Y-47162509D01*
X71776749Y-47122477D01*
X71771767Y-47120154D01*
X71771762Y-47120151D01*
X71574225Y-47028039D01*
X71574224Y-47028039D01*
X71569243Y-47025716D01*
X71563935Y-47024294D01*
X71563933Y-47024293D01*
X71353402Y-46967881D01*
X71353400Y-46967881D01*
X71348087Y-46966457D01*
X71120000Y-46946502D01*
X70891913Y-46966457D01*
X70886600Y-46967881D01*
X70886598Y-46967881D01*
X70676067Y-47024293D01*
X70676065Y-47024294D01*
X70670757Y-47025716D01*
X70665776Y-47028039D01*
X70665775Y-47028039D01*
X70468238Y-47120151D01*
X70468233Y-47120154D01*
X70463251Y-47122477D01*
X70406080Y-47162509D01*
X70280211Y-47250643D01*
X70280208Y-47250645D01*
X70275700Y-47253802D01*
X70113802Y-47415700D01*
X69982477Y-47603251D01*
X69980154Y-47608233D01*
X69980151Y-47608238D01*
X69980034Y-47608489D01*
X69885716Y-47810757D01*
X69884294Y-47816065D01*
X69884293Y-47816067D01*
X69863019Y-47895461D01*
X69826457Y-48031913D01*
X69806502Y-48260000D01*
X67353589Y-48260000D01*
X67333246Y-47871824D01*
X67272438Y-47487901D01*
X67171833Y-47112438D01*
X67138544Y-47025716D01*
X67033716Y-46752632D01*
X67032532Y-46749547D01*
X66856062Y-46403206D01*
X66644357Y-46077207D01*
X66399734Y-45775124D01*
X66124876Y-45500266D01*
X65822793Y-45255643D01*
X65496795Y-45043938D01*
X65493861Y-45042443D01*
X65493854Y-45042439D01*
X65153393Y-44868966D01*
X65150453Y-44867468D01*
X64787562Y-44728167D01*
X64412099Y-44627562D01*
X64208207Y-44595268D01*
X64031424Y-44567268D01*
X64031416Y-44567267D01*
X64028176Y-44566754D01*
X63640000Y-44546411D01*
X63251824Y-44566754D01*
X63248584Y-44567267D01*
X63248576Y-44567268D01*
X63071793Y-44595268D01*
X62867901Y-44627562D01*
X62492438Y-44728167D01*
X62129547Y-44867468D01*
X62126607Y-44868966D01*
X61786147Y-45042439D01*
X61786140Y-45042443D01*
X61783206Y-45043938D01*
X61457207Y-45255643D01*
X61155124Y-45500266D01*
X60880266Y-45775124D01*
X60635643Y-46077207D01*
X60423938Y-46403206D01*
X60247468Y-46749547D01*
X60246284Y-46752632D01*
X60141457Y-47025716D01*
X60108167Y-47112438D01*
X60007562Y-47487901D01*
X59946754Y-47871824D01*
X59926411Y-48260000D01*
X58420000Y-48260000D01*
X58420000Y-43814000D01*
X58440002Y-43745879D01*
X58493658Y-43699386D01*
X58546000Y-43688000D01*
X129414000Y-43688000D01*
X129482121Y-43708002D01*
G37*
%TD.AperFunction*%
%TA.AperFunction,Conductor*%
G36*
X82585304Y-75583502D02*
G01*
X82631797Y-75637158D01*
X82641901Y-75707432D01*
X82631377Y-75742751D01*
X82621560Y-75763804D01*
X82564022Y-75978537D01*
X82544647Y-76200000D01*
X82564022Y-76421463D01*
X82621560Y-76636196D01*
X82623882Y-76641177D01*
X82623883Y-76641178D01*
X82713186Y-76832689D01*
X82713189Y-76832694D01*
X82715512Y-76837676D01*
X82718668Y-76842183D01*
X82718669Y-76842185D01*
X82755107Y-76894223D01*
X82843023Y-77019781D01*
X83000219Y-77176977D01*
X83004727Y-77180134D01*
X83004730Y-77180136D01*
X83080495Y-77233187D01*
X83182323Y-77304488D01*
X83187305Y-77306811D01*
X83187310Y-77306814D01*
X83377810Y-77395645D01*
X83383804Y-77398440D01*
X83389112Y-77399862D01*
X83389114Y-77399863D01*
X83454949Y-77417503D01*
X83598537Y-77455978D01*
X83820000Y-77475353D01*
X84041463Y-77455978D01*
X84185051Y-77417503D01*
X84250886Y-77399863D01*
X84250888Y-77399862D01*
X84256196Y-77398440D01*
X84262190Y-77395645D01*
X84452690Y-77306814D01*
X84452695Y-77306811D01*
X84457677Y-77304488D01*
X84559505Y-77233187D01*
X84635270Y-77180136D01*
X84635273Y-77180134D01*
X84639781Y-77176977D01*
X84796977Y-77019781D01*
X84884894Y-76894223D01*
X84921331Y-76842185D01*
X84921332Y-76842183D01*
X84924488Y-76837676D01*
X84926811Y-76832694D01*
X84926814Y-76832689D01*
X84975805Y-76727627D01*
X85022723Y-76674342D01*
X85091000Y-76654881D01*
X85158960Y-76675423D01*
X85204195Y-76727627D01*
X85253186Y-76832689D01*
X85253189Y-76832694D01*
X85255512Y-76837676D01*
X85258668Y-76842183D01*
X85258669Y-76842185D01*
X85295107Y-76894223D01*
X85383023Y-77019781D01*
X85540219Y-77176977D01*
X85544727Y-77180134D01*
X85544730Y-77180136D01*
X85620495Y-77233187D01*
X85722323Y-77304488D01*
X85727305Y-77306811D01*
X85727310Y-77306814D01*
X85917810Y-77395645D01*
X85923804Y-77398440D01*
X85929112Y-77399862D01*
X85929114Y-77399863D01*
X85994949Y-77417503D01*
X86138537Y-77455978D01*
X86360000Y-77475353D01*
X86581463Y-77455978D01*
X86725051Y-77417503D01*
X86790886Y-77399863D01*
X86790888Y-77399862D01*
X86796196Y-77398440D01*
X86802190Y-77395645D01*
X86992690Y-77306814D01*
X86992695Y-77306811D01*
X86997677Y-77304488D01*
X87099505Y-77233187D01*
X87175270Y-77180136D01*
X87175273Y-77180134D01*
X87179781Y-77176977D01*
X87336977Y-77019781D01*
X87424894Y-76894223D01*
X87461331Y-76842185D01*
X87461332Y-76842183D01*
X87464488Y-76837676D01*
X87466811Y-76832694D01*
X87466814Y-76832689D01*
X87515805Y-76727627D01*
X87562723Y-76674342D01*
X87631000Y-76654881D01*
X87698960Y-76675423D01*
X87744195Y-76727627D01*
X87793186Y-76832689D01*
X87793189Y-76832694D01*
X87795512Y-76837676D01*
X87798668Y-76842183D01*
X87798669Y-76842185D01*
X87835107Y-76894223D01*
X87923023Y-77019781D01*
X88080219Y-77176977D01*
X88084727Y-77180134D01*
X88084730Y-77180136D01*
X88160495Y-77233187D01*
X88262323Y-77304488D01*
X88267305Y-77306811D01*
X88267310Y-77306814D01*
X88457810Y-77395645D01*
X88463804Y-77398440D01*
X88469112Y-77399862D01*
X88469114Y-77399863D01*
X88534949Y-77417503D01*
X88678537Y-77455978D01*
X88900000Y-77475353D01*
X89121463Y-77455978D01*
X89265051Y-77417503D01*
X89330886Y-77399863D01*
X89330888Y-77399862D01*
X89336196Y-77398440D01*
X89342190Y-77395645D01*
X89532690Y-77306814D01*
X89532695Y-77306811D01*
X89537677Y-77304488D01*
X89639505Y-77233187D01*
X89715270Y-77180136D01*
X89715273Y-77180134D01*
X89719781Y-77176977D01*
X89876977Y-77019781D01*
X89964894Y-76894223D01*
X90001331Y-76842185D01*
X90001332Y-76842183D01*
X90004488Y-76837676D01*
X90006811Y-76832694D01*
X90006814Y-76832689D01*
X90055805Y-76727627D01*
X90102723Y-76674342D01*
X90171000Y-76654881D01*
X90238960Y-76675423D01*
X90284195Y-76727627D01*
X90333186Y-76832689D01*
X90333189Y-76832694D01*
X90335512Y-76837676D01*
X90338668Y-76842183D01*
X90338669Y-76842185D01*
X90375107Y-76894223D01*
X90463023Y-77019781D01*
X90620219Y-77176977D01*
X90624727Y-77180134D01*
X90624730Y-77180136D01*
X90700495Y-77233187D01*
X90802323Y-77304488D01*
X90807305Y-77306811D01*
X90807310Y-77306814D01*
X90997810Y-77395645D01*
X91003804Y-77398440D01*
X91009112Y-77399862D01*
X91009114Y-77399863D01*
X91074949Y-77417503D01*
X91218537Y-77455978D01*
X91440000Y-77475353D01*
X91661463Y-77455978D01*
X91805051Y-77417503D01*
X91870886Y-77399863D01*
X91870888Y-77399862D01*
X91876196Y-77398440D01*
X91882190Y-77395645D01*
X92072690Y-77306814D01*
X92072695Y-77306811D01*
X92077677Y-77304488D01*
X92179505Y-77233187D01*
X92255270Y-77180136D01*
X92255273Y-77180134D01*
X92259781Y-77176977D01*
X92416977Y-77019781D01*
X92504894Y-76894223D01*
X92541331Y-76842185D01*
X92541332Y-76842183D01*
X92544488Y-76837676D01*
X92546811Y-76832694D01*
X92546814Y-76832689D01*
X92595805Y-76727627D01*
X92642723Y-76674342D01*
X92711000Y-76654881D01*
X92778960Y-76675423D01*
X92824195Y-76727627D01*
X92873186Y-76832689D01*
X92873189Y-76832694D01*
X92875512Y-76837676D01*
X92878668Y-76842183D01*
X92878669Y-76842185D01*
X92915107Y-76894223D01*
X93003023Y-77019781D01*
X93160219Y-77176977D01*
X93164727Y-77180134D01*
X93164730Y-77180136D01*
X93240495Y-77233187D01*
X93342323Y-77304488D01*
X93347305Y-77306811D01*
X93347310Y-77306814D01*
X93537810Y-77395645D01*
X93543804Y-77398440D01*
X93549112Y-77399862D01*
X93549114Y-77399863D01*
X93614949Y-77417503D01*
X93758537Y-77455978D01*
X93980000Y-77475353D01*
X94201463Y-77455978D01*
X94345051Y-77417503D01*
X94410886Y-77399863D01*
X94410888Y-77399862D01*
X94416196Y-77398440D01*
X94422190Y-77395645D01*
X94612690Y-77306814D01*
X94612695Y-77306811D01*
X94617677Y-77304488D01*
X94719505Y-77233187D01*
X94795270Y-77180136D01*
X94795273Y-77180134D01*
X94799781Y-77176977D01*
X94956977Y-77019781D01*
X95044894Y-76894223D01*
X95081331Y-76842185D01*
X95081332Y-76842183D01*
X95084488Y-76837676D01*
X95086811Y-76832694D01*
X95086814Y-76832689D01*
X95135805Y-76727627D01*
X95182723Y-76674342D01*
X95251000Y-76654881D01*
X95318960Y-76675423D01*
X95364195Y-76727627D01*
X95413186Y-76832689D01*
X95413189Y-76832694D01*
X95415512Y-76837676D01*
X95418668Y-76842183D01*
X95418669Y-76842185D01*
X95455107Y-76894223D01*
X95543023Y-77019781D01*
X95700219Y-77176977D01*
X95704727Y-77180134D01*
X95704730Y-77180136D01*
X95780495Y-77233187D01*
X95882323Y-77304488D01*
X95887305Y-77306811D01*
X95887310Y-77306814D01*
X96077810Y-77395645D01*
X96083804Y-77398440D01*
X96089112Y-77399862D01*
X96089114Y-77399863D01*
X96154949Y-77417503D01*
X96298537Y-77455978D01*
X96520000Y-77475353D01*
X96741463Y-77455978D01*
X96885051Y-77417503D01*
X96950886Y-77399863D01*
X96950888Y-77399862D01*
X96956196Y-77398440D01*
X96962190Y-77395645D01*
X97152690Y-77306814D01*
X97152695Y-77306811D01*
X97157677Y-77304488D01*
X97259505Y-77233187D01*
X97335270Y-77180136D01*
X97335273Y-77180134D01*
X97339781Y-77176977D01*
X97496977Y-77019781D01*
X97584894Y-76894223D01*
X97621331Y-76842185D01*
X97621332Y-76842183D01*
X97624488Y-76837676D01*
X97626811Y-76832694D01*
X97626814Y-76832689D01*
X97675805Y-76727627D01*
X97722723Y-76674342D01*
X97791000Y-76654881D01*
X97858960Y-76675423D01*
X97904195Y-76727627D01*
X97953186Y-76832689D01*
X97953189Y-76832694D01*
X97955512Y-76837676D01*
X97958668Y-76842183D01*
X97958669Y-76842185D01*
X97995107Y-76894223D01*
X98083023Y-77019781D01*
X98240219Y-77176977D01*
X98244727Y-77180134D01*
X98244730Y-77180136D01*
X98320495Y-77233187D01*
X98422323Y-77304488D01*
X98427305Y-77306811D01*
X98427310Y-77306814D01*
X98617810Y-77395645D01*
X98623804Y-77398440D01*
X98629112Y-77399862D01*
X98629114Y-77399863D01*
X98694949Y-77417503D01*
X98838537Y-77455978D01*
X99060000Y-77475353D01*
X99281463Y-77455978D01*
X99425051Y-77417503D01*
X99490886Y-77399863D01*
X99490888Y-77399862D01*
X99496196Y-77398440D01*
X99502190Y-77395645D01*
X99692690Y-77306814D01*
X99692695Y-77306811D01*
X99697677Y-77304488D01*
X99799505Y-77233187D01*
X99875270Y-77180136D01*
X99875273Y-77180134D01*
X99879781Y-77176977D01*
X100036977Y-77019781D01*
X100124894Y-76894223D01*
X100161331Y-76842185D01*
X100161332Y-76842183D01*
X100164488Y-76837676D01*
X100166811Y-76832694D01*
X100166814Y-76832689D01*
X100215805Y-76727627D01*
X100262723Y-76674342D01*
X100331000Y-76654881D01*
X100398960Y-76675423D01*
X100444195Y-76727627D01*
X100493186Y-76832689D01*
X100493189Y-76832694D01*
X100495512Y-76837676D01*
X100498668Y-76842183D01*
X100498669Y-76842185D01*
X100535107Y-76894223D01*
X100623023Y-77019781D01*
X100780219Y-77176977D01*
X100784727Y-77180134D01*
X100784730Y-77180136D01*
X100860495Y-77233187D01*
X100962323Y-77304488D01*
X100967305Y-77306811D01*
X100967310Y-77306814D01*
X101157810Y-77395645D01*
X101163804Y-77398440D01*
X101169112Y-77399862D01*
X101169114Y-77399863D01*
X101234949Y-77417503D01*
X101378537Y-77455978D01*
X101600000Y-77475353D01*
X101821463Y-77455978D01*
X101965051Y-77417503D01*
X102030886Y-77399863D01*
X102030888Y-77399862D01*
X102036196Y-77398440D01*
X102042190Y-77395645D01*
X102232690Y-77306814D01*
X102232695Y-77306811D01*
X102237677Y-77304488D01*
X102302959Y-77258777D01*
X103445777Y-77258777D01*
X103455074Y-77270793D01*
X103498069Y-77300898D01*
X103507555Y-77306376D01*
X103698993Y-77395645D01*
X103709285Y-77399391D01*
X103913309Y-77454059D01*
X103924104Y-77455962D01*
X104134525Y-77474372D01*
X104145475Y-77474372D01*
X104355896Y-77455962D01*
X104366691Y-77454059D01*
X104570715Y-77399391D01*
X104581007Y-77395645D01*
X104772445Y-77306376D01*
X104781931Y-77300898D01*
X104825764Y-77270207D01*
X104834139Y-77259729D01*
X104827071Y-77246281D01*
X104152812Y-76572022D01*
X104138868Y-76564408D01*
X104137035Y-76564539D01*
X104130420Y-76568790D01*
X103452207Y-77247003D01*
X103445777Y-77258777D01*
X102302959Y-77258777D01*
X102339505Y-77233187D01*
X102415270Y-77180136D01*
X102415273Y-77180134D01*
X102419781Y-77176977D01*
X102576977Y-77019781D01*
X102664894Y-76894223D01*
X102701331Y-76842185D01*
X102701332Y-76842183D01*
X102704488Y-76837676D01*
X102706811Y-76832694D01*
X102706814Y-76832689D01*
X102756081Y-76727035D01*
X102802999Y-76673750D01*
X102871276Y-76654289D01*
X102939236Y-76674831D01*
X102984471Y-76727035D01*
X103033623Y-76832441D01*
X103039103Y-76841932D01*
X103069794Y-76885765D01*
X103080271Y-76894140D01*
X103093718Y-76887072D01*
X104050905Y-75929885D01*
X104113217Y-75895859D01*
X104184032Y-75900924D01*
X104229095Y-75929885D01*
X105187003Y-76887793D01*
X105198777Y-76894223D01*
X105210793Y-76884926D01*
X105240897Y-76841932D01*
X105246377Y-76832441D01*
X105335645Y-76641007D01*
X105339391Y-76630715D01*
X105394059Y-76426691D01*
X105395962Y-76415896D01*
X105414372Y-76205475D01*
X105414372Y-76194525D01*
X105395962Y-75984104D01*
X105394059Y-75973309D01*
X105339391Y-75769285D01*
X105335645Y-75758992D01*
X105328070Y-75742748D01*
X105317410Y-75672556D01*
X105346391Y-75607744D01*
X105405811Y-75568889D01*
X105442266Y-75563500D01*
X109551686Y-75563500D01*
X109619807Y-75583502D01*
X109640781Y-75600405D01*
X113201781Y-79161405D01*
X113235807Y-79223717D01*
X113230742Y-79294532D01*
X113188195Y-79351368D01*
X113121675Y-79376179D01*
X113112686Y-79376500D01*
X74847314Y-79376500D01*
X74779193Y-79356498D01*
X74732700Y-79302842D01*
X74722596Y-79232568D01*
X74752090Y-79167988D01*
X74758219Y-79161405D01*
X78319219Y-75600405D01*
X78381531Y-75566379D01*
X78408314Y-75563500D01*
X82517183Y-75563500D01*
X82585304Y-75583502D01*
G37*
%TD.AperFunction*%
%TD*%
M02*
