%TF.GenerationSoftware,KiCad,Pcbnew,7.0.1*%
%TF.CreationDate,2023-04-28T09:32:53+02:00*%
%TF.ProjectId,CC1101_ANT,43433131-3031-45f4-914e-542e6b696361,rev?*%
%TF.SameCoordinates,Original*%
%TF.FileFunction,Legend,Bot*%
%TF.FilePolarity,Positive*%
%FSLAX46Y46*%
G04 Gerber Fmt 4.6, Leading zero omitted, Abs format (unit mm)*
G04 Created by KiCad (PCBNEW 7.0.1) date 2023-04-28 09:32:53*
%MOMM*%
%LPD*%
G01*
G04 APERTURE LIST*
%ADD10C,0.150000*%
G04 APERTURE END LIST*
D10*
X139889762Y-46927619D02*
X139889762Y-45927619D01*
X139889762Y-45927619D02*
X139508810Y-45927619D01*
X139508810Y-45927619D02*
X139413572Y-45975238D01*
X139413572Y-45975238D02*
X139365953Y-46022857D01*
X139365953Y-46022857D02*
X139318334Y-46118095D01*
X139318334Y-46118095D02*
X139318334Y-46260952D01*
X139318334Y-46260952D02*
X139365953Y-46356190D01*
X139365953Y-46356190D02*
X139413572Y-46403809D01*
X139413572Y-46403809D02*
X139508810Y-46451428D01*
X139508810Y-46451428D02*
X139889762Y-46451428D01*
X138889762Y-46927619D02*
X138889762Y-45927619D01*
X138889762Y-45927619D02*
X138556429Y-46641904D01*
X138556429Y-46641904D02*
X138223096Y-45927619D01*
X138223096Y-45927619D02*
X138223096Y-46927619D01*
X137556429Y-45927619D02*
X137365953Y-45927619D01*
X137365953Y-45927619D02*
X137270715Y-45975238D01*
X137270715Y-45975238D02*
X137175477Y-46070476D01*
X137175477Y-46070476D02*
X137127858Y-46260952D01*
X137127858Y-46260952D02*
X137127858Y-46594285D01*
X137127858Y-46594285D02*
X137175477Y-46784761D01*
X137175477Y-46784761D02*
X137270715Y-46880000D01*
X137270715Y-46880000D02*
X137365953Y-46927619D01*
X137365953Y-46927619D02*
X137556429Y-46927619D01*
X137556429Y-46927619D02*
X137651667Y-46880000D01*
X137651667Y-46880000D02*
X137746905Y-46784761D01*
X137746905Y-46784761D02*
X137794524Y-46594285D01*
X137794524Y-46594285D02*
X137794524Y-46260952D01*
X137794524Y-46260952D02*
X137746905Y-46070476D01*
X137746905Y-46070476D02*
X137651667Y-45975238D01*
X137651667Y-45975238D02*
X137556429Y-45927619D01*
X136699286Y-46927619D02*
X136699286Y-45927619D01*
X136699286Y-45927619D02*
X136461191Y-45927619D01*
X136461191Y-45927619D02*
X136318334Y-45975238D01*
X136318334Y-45975238D02*
X136223096Y-46070476D01*
X136223096Y-46070476D02*
X136175477Y-46165714D01*
X136175477Y-46165714D02*
X136127858Y-46356190D01*
X136127858Y-46356190D02*
X136127858Y-46499047D01*
X136127858Y-46499047D02*
X136175477Y-46689523D01*
X136175477Y-46689523D02*
X136223096Y-46784761D01*
X136223096Y-46784761D02*
X136318334Y-46880000D01*
X136318334Y-46880000D02*
X136461191Y-46927619D01*
X136461191Y-46927619D02*
X136699286Y-46927619D01*
X134604048Y-46403809D02*
X134461191Y-46451428D01*
X134461191Y-46451428D02*
X134413572Y-46499047D01*
X134413572Y-46499047D02*
X134365953Y-46594285D01*
X134365953Y-46594285D02*
X134365953Y-46737142D01*
X134365953Y-46737142D02*
X134413572Y-46832380D01*
X134413572Y-46832380D02*
X134461191Y-46880000D01*
X134461191Y-46880000D02*
X134556429Y-46927619D01*
X134556429Y-46927619D02*
X134937381Y-46927619D01*
X134937381Y-46927619D02*
X134937381Y-45927619D01*
X134937381Y-45927619D02*
X134604048Y-45927619D01*
X134604048Y-45927619D02*
X134508810Y-45975238D01*
X134508810Y-45975238D02*
X134461191Y-46022857D01*
X134461191Y-46022857D02*
X134413572Y-46118095D01*
X134413572Y-46118095D02*
X134413572Y-46213333D01*
X134413572Y-46213333D02*
X134461191Y-46308571D01*
X134461191Y-46308571D02*
X134508810Y-46356190D01*
X134508810Y-46356190D02*
X134604048Y-46403809D01*
X134604048Y-46403809D02*
X134937381Y-46403809D01*
X133937381Y-46927619D02*
X133937381Y-46260952D01*
X133937381Y-46451428D02*
X133889762Y-46356190D01*
X133889762Y-46356190D02*
X133842143Y-46308571D01*
X133842143Y-46308571D02*
X133746905Y-46260952D01*
X133746905Y-46260952D02*
X133651667Y-46260952D01*
X132937381Y-46880000D02*
X133032619Y-46927619D01*
X133032619Y-46927619D02*
X133223095Y-46927619D01*
X133223095Y-46927619D02*
X133318333Y-46880000D01*
X133318333Y-46880000D02*
X133365952Y-46784761D01*
X133365952Y-46784761D02*
X133365952Y-46403809D01*
X133365952Y-46403809D02*
X133318333Y-46308571D01*
X133318333Y-46308571D02*
X133223095Y-46260952D01*
X133223095Y-46260952D02*
X133032619Y-46260952D01*
X133032619Y-46260952D02*
X132937381Y-46308571D01*
X132937381Y-46308571D02*
X132889762Y-46403809D01*
X132889762Y-46403809D02*
X132889762Y-46499047D01*
X132889762Y-46499047D02*
X133365952Y-46594285D01*
X132032619Y-46927619D02*
X132032619Y-46403809D01*
X132032619Y-46403809D02*
X132080238Y-46308571D01*
X132080238Y-46308571D02*
X132175476Y-46260952D01*
X132175476Y-46260952D02*
X132365952Y-46260952D01*
X132365952Y-46260952D02*
X132461190Y-46308571D01*
X132032619Y-46880000D02*
X132127857Y-46927619D01*
X132127857Y-46927619D02*
X132365952Y-46927619D01*
X132365952Y-46927619D02*
X132461190Y-46880000D01*
X132461190Y-46880000D02*
X132508809Y-46784761D01*
X132508809Y-46784761D02*
X132508809Y-46689523D01*
X132508809Y-46689523D02*
X132461190Y-46594285D01*
X132461190Y-46594285D02*
X132365952Y-46546666D01*
X132365952Y-46546666D02*
X132127857Y-46546666D01*
X132127857Y-46546666D02*
X132032619Y-46499047D01*
X131556428Y-46927619D02*
X131556428Y-45927619D01*
X131461190Y-46546666D02*
X131175476Y-46927619D01*
X131175476Y-46260952D02*
X131556428Y-46641904D01*
X130604047Y-46927619D02*
X130699285Y-46880000D01*
X130699285Y-46880000D02*
X130746904Y-46832380D01*
X130746904Y-46832380D02*
X130794523Y-46737142D01*
X130794523Y-46737142D02*
X130794523Y-46451428D01*
X130794523Y-46451428D02*
X130746904Y-46356190D01*
X130746904Y-46356190D02*
X130699285Y-46308571D01*
X130699285Y-46308571D02*
X130604047Y-46260952D01*
X130604047Y-46260952D02*
X130461190Y-46260952D01*
X130461190Y-46260952D02*
X130365952Y-46308571D01*
X130365952Y-46308571D02*
X130318333Y-46356190D01*
X130318333Y-46356190D02*
X130270714Y-46451428D01*
X130270714Y-46451428D02*
X130270714Y-46737142D01*
X130270714Y-46737142D02*
X130318333Y-46832380D01*
X130318333Y-46832380D02*
X130365952Y-46880000D01*
X130365952Y-46880000D02*
X130461190Y-46927619D01*
X130461190Y-46927619D02*
X130604047Y-46927619D01*
X129413571Y-46260952D02*
X129413571Y-46927619D01*
X129842142Y-46260952D02*
X129842142Y-46784761D01*
X129842142Y-46784761D02*
X129794523Y-46880000D01*
X129794523Y-46880000D02*
X129699285Y-46927619D01*
X129699285Y-46927619D02*
X129556428Y-46927619D01*
X129556428Y-46927619D02*
X129461190Y-46880000D01*
X129461190Y-46880000D02*
X129413571Y-46832380D01*
X129080237Y-46260952D02*
X128699285Y-46260952D01*
X128937380Y-45927619D02*
X128937380Y-46784761D01*
X128937380Y-46784761D02*
X128889761Y-46880000D01*
X128889761Y-46880000D02*
X128794523Y-46927619D01*
X128794523Y-46927619D02*
X128699285Y-46927619D01*
X139437381Y-48452380D02*
X139485000Y-48500000D01*
X139485000Y-48500000D02*
X139627857Y-48547619D01*
X139627857Y-48547619D02*
X139723095Y-48547619D01*
X139723095Y-48547619D02*
X139865952Y-48500000D01*
X139865952Y-48500000D02*
X139961190Y-48404761D01*
X139961190Y-48404761D02*
X140008809Y-48309523D01*
X140008809Y-48309523D02*
X140056428Y-48119047D01*
X140056428Y-48119047D02*
X140056428Y-47976190D01*
X140056428Y-47976190D02*
X140008809Y-47785714D01*
X140008809Y-47785714D02*
X139961190Y-47690476D01*
X139961190Y-47690476D02*
X139865952Y-47595238D01*
X139865952Y-47595238D02*
X139723095Y-47547619D01*
X139723095Y-47547619D02*
X139627857Y-47547619D01*
X139627857Y-47547619D02*
X139485000Y-47595238D01*
X139485000Y-47595238D02*
X139437381Y-47642857D01*
X138437381Y-48452380D02*
X138485000Y-48500000D01*
X138485000Y-48500000D02*
X138627857Y-48547619D01*
X138627857Y-48547619D02*
X138723095Y-48547619D01*
X138723095Y-48547619D02*
X138865952Y-48500000D01*
X138865952Y-48500000D02*
X138961190Y-48404761D01*
X138961190Y-48404761D02*
X139008809Y-48309523D01*
X139008809Y-48309523D02*
X139056428Y-48119047D01*
X139056428Y-48119047D02*
X139056428Y-47976190D01*
X139056428Y-47976190D02*
X139008809Y-47785714D01*
X139008809Y-47785714D02*
X138961190Y-47690476D01*
X138961190Y-47690476D02*
X138865952Y-47595238D01*
X138865952Y-47595238D02*
X138723095Y-47547619D01*
X138723095Y-47547619D02*
X138627857Y-47547619D01*
X138627857Y-47547619D02*
X138485000Y-47595238D01*
X138485000Y-47595238D02*
X138437381Y-47642857D01*
X137485000Y-48547619D02*
X138056428Y-48547619D01*
X137770714Y-48547619D02*
X137770714Y-47547619D01*
X137770714Y-47547619D02*
X137865952Y-47690476D01*
X137865952Y-47690476D02*
X137961190Y-47785714D01*
X137961190Y-47785714D02*
X138056428Y-47833333D01*
X136532619Y-48547619D02*
X137104047Y-48547619D01*
X136818333Y-48547619D02*
X136818333Y-47547619D01*
X136818333Y-47547619D02*
X136913571Y-47690476D01*
X136913571Y-47690476D02*
X137008809Y-47785714D01*
X137008809Y-47785714D02*
X137104047Y-47833333D01*
X135913571Y-47547619D02*
X135818333Y-47547619D01*
X135818333Y-47547619D02*
X135723095Y-47595238D01*
X135723095Y-47595238D02*
X135675476Y-47642857D01*
X135675476Y-47642857D02*
X135627857Y-47738095D01*
X135627857Y-47738095D02*
X135580238Y-47928571D01*
X135580238Y-47928571D02*
X135580238Y-48166666D01*
X135580238Y-48166666D02*
X135627857Y-48357142D01*
X135627857Y-48357142D02*
X135675476Y-48452380D01*
X135675476Y-48452380D02*
X135723095Y-48500000D01*
X135723095Y-48500000D02*
X135818333Y-48547619D01*
X135818333Y-48547619D02*
X135913571Y-48547619D01*
X135913571Y-48547619D02*
X136008809Y-48500000D01*
X136008809Y-48500000D02*
X136056428Y-48452380D01*
X136056428Y-48452380D02*
X136104047Y-48357142D01*
X136104047Y-48357142D02*
X136151666Y-48166666D01*
X136151666Y-48166666D02*
X136151666Y-47928571D01*
X136151666Y-47928571D02*
X136104047Y-47738095D01*
X136104047Y-47738095D02*
X136056428Y-47642857D01*
X136056428Y-47642857D02*
X136008809Y-47595238D01*
X136008809Y-47595238D02*
X135913571Y-47547619D01*
X134627857Y-48547619D02*
X135199285Y-48547619D01*
X134913571Y-48547619D02*
X134913571Y-47547619D01*
X134913571Y-47547619D02*
X135008809Y-47690476D01*
X135008809Y-47690476D02*
X135104047Y-47785714D01*
X135104047Y-47785714D02*
X135199285Y-47833333D01*
X133437380Y-48547619D02*
X133437380Y-47547619D01*
X133437380Y-47547619D02*
X133104047Y-48261904D01*
X133104047Y-48261904D02*
X132770714Y-47547619D01*
X132770714Y-47547619D02*
X132770714Y-48547619D01*
X132104047Y-47547619D02*
X131913571Y-47547619D01*
X131913571Y-47547619D02*
X131818333Y-47595238D01*
X131818333Y-47595238D02*
X131723095Y-47690476D01*
X131723095Y-47690476D02*
X131675476Y-47880952D01*
X131675476Y-47880952D02*
X131675476Y-48214285D01*
X131675476Y-48214285D02*
X131723095Y-48404761D01*
X131723095Y-48404761D02*
X131818333Y-48500000D01*
X131818333Y-48500000D02*
X131913571Y-48547619D01*
X131913571Y-48547619D02*
X132104047Y-48547619D01*
X132104047Y-48547619D02*
X132199285Y-48500000D01*
X132199285Y-48500000D02*
X132294523Y-48404761D01*
X132294523Y-48404761D02*
X132342142Y-48214285D01*
X132342142Y-48214285D02*
X132342142Y-47880952D01*
X132342142Y-47880952D02*
X132294523Y-47690476D01*
X132294523Y-47690476D02*
X132199285Y-47595238D01*
X132199285Y-47595238D02*
X132104047Y-47547619D01*
X131246904Y-48547619D02*
X131246904Y-47547619D01*
X131246904Y-47547619D02*
X131008809Y-47547619D01*
X131008809Y-47547619D02*
X130865952Y-47595238D01*
X130865952Y-47595238D02*
X130770714Y-47690476D01*
X130770714Y-47690476D02*
X130723095Y-47785714D01*
X130723095Y-47785714D02*
X130675476Y-47976190D01*
X130675476Y-47976190D02*
X130675476Y-48119047D01*
X130675476Y-48119047D02*
X130723095Y-48309523D01*
X130723095Y-48309523D02*
X130770714Y-48404761D01*
X130770714Y-48404761D02*
X130865952Y-48500000D01*
X130865952Y-48500000D02*
X131008809Y-48547619D01*
X131008809Y-48547619D02*
X131246904Y-48547619D01*
X130246904Y-47547619D02*
X130246904Y-48357142D01*
X130246904Y-48357142D02*
X130199285Y-48452380D01*
X130199285Y-48452380D02*
X130151666Y-48500000D01*
X130151666Y-48500000D02*
X130056428Y-48547619D01*
X130056428Y-48547619D02*
X129865952Y-48547619D01*
X129865952Y-48547619D02*
X129770714Y-48500000D01*
X129770714Y-48500000D02*
X129723095Y-48452380D01*
X129723095Y-48452380D02*
X129675476Y-48357142D01*
X129675476Y-48357142D02*
X129675476Y-47547619D01*
X128723095Y-48547619D02*
X129199285Y-48547619D01*
X129199285Y-48547619D02*
X129199285Y-47547619D01*
X128389761Y-48023809D02*
X128056428Y-48023809D01*
X127913571Y-48547619D02*
X128389761Y-48547619D01*
X128389761Y-48547619D02*
X128389761Y-47547619D01*
X128389761Y-47547619D02*
X127913571Y-47547619D01*
X139508809Y-50120000D02*
X139365952Y-50167619D01*
X139365952Y-50167619D02*
X139127857Y-50167619D01*
X139127857Y-50167619D02*
X139032619Y-50120000D01*
X139032619Y-50120000D02*
X138985000Y-50072380D01*
X138985000Y-50072380D02*
X138937381Y-49977142D01*
X138937381Y-49977142D02*
X138937381Y-49881904D01*
X138937381Y-49881904D02*
X138985000Y-49786666D01*
X138985000Y-49786666D02*
X139032619Y-49739047D01*
X139032619Y-49739047D02*
X139127857Y-49691428D01*
X139127857Y-49691428D02*
X139318333Y-49643809D01*
X139318333Y-49643809D02*
X139413571Y-49596190D01*
X139413571Y-49596190D02*
X139461190Y-49548571D01*
X139461190Y-49548571D02*
X139508809Y-49453333D01*
X139508809Y-49453333D02*
X139508809Y-49358095D01*
X139508809Y-49358095D02*
X139461190Y-49262857D01*
X139461190Y-49262857D02*
X139413571Y-49215238D01*
X139413571Y-49215238D02*
X139318333Y-49167619D01*
X139318333Y-49167619D02*
X139080238Y-49167619D01*
X139080238Y-49167619D02*
X138937381Y-49215238D01*
X138508809Y-49500952D02*
X138508809Y-50500952D01*
X138508809Y-49548571D02*
X138413571Y-49500952D01*
X138413571Y-49500952D02*
X138223095Y-49500952D01*
X138223095Y-49500952D02*
X138127857Y-49548571D01*
X138127857Y-49548571D02*
X138080238Y-49596190D01*
X138080238Y-49596190D02*
X138032619Y-49691428D01*
X138032619Y-49691428D02*
X138032619Y-49977142D01*
X138032619Y-49977142D02*
X138080238Y-50072380D01*
X138080238Y-50072380D02*
X138127857Y-50120000D01*
X138127857Y-50120000D02*
X138223095Y-50167619D01*
X138223095Y-50167619D02*
X138413571Y-50167619D01*
X138413571Y-50167619D02*
X138508809Y-50120000D01*
X137604047Y-50167619D02*
X137604047Y-49500952D01*
X137604047Y-49691428D02*
X137556428Y-49596190D01*
X137556428Y-49596190D02*
X137508809Y-49548571D01*
X137508809Y-49548571D02*
X137413571Y-49500952D01*
X137413571Y-49500952D02*
X137318333Y-49500952D01*
X136984999Y-50167619D02*
X136984999Y-49500952D01*
X136984999Y-49167619D02*
X137032618Y-49215238D01*
X137032618Y-49215238D02*
X136984999Y-49262857D01*
X136984999Y-49262857D02*
X136937380Y-49215238D01*
X136937380Y-49215238D02*
X136984999Y-49167619D01*
X136984999Y-49167619D02*
X136984999Y-49262857D01*
X136508809Y-49500952D02*
X136508809Y-50167619D01*
X136508809Y-49596190D02*
X136461190Y-49548571D01*
X136461190Y-49548571D02*
X136365952Y-49500952D01*
X136365952Y-49500952D02*
X136223095Y-49500952D01*
X136223095Y-49500952D02*
X136127857Y-49548571D01*
X136127857Y-49548571D02*
X136080238Y-49643809D01*
X136080238Y-49643809D02*
X136080238Y-50167619D01*
X135175476Y-49500952D02*
X135175476Y-50310476D01*
X135175476Y-50310476D02*
X135223095Y-50405714D01*
X135223095Y-50405714D02*
X135270714Y-50453333D01*
X135270714Y-50453333D02*
X135365952Y-50500952D01*
X135365952Y-50500952D02*
X135508809Y-50500952D01*
X135508809Y-50500952D02*
X135604047Y-50453333D01*
X135175476Y-50120000D02*
X135270714Y-50167619D01*
X135270714Y-50167619D02*
X135461190Y-50167619D01*
X135461190Y-50167619D02*
X135556428Y-50120000D01*
X135556428Y-50120000D02*
X135604047Y-50072380D01*
X135604047Y-50072380D02*
X135651666Y-49977142D01*
X135651666Y-49977142D02*
X135651666Y-49691428D01*
X135651666Y-49691428D02*
X135604047Y-49596190D01*
X135604047Y-49596190D02*
X135556428Y-49548571D01*
X135556428Y-49548571D02*
X135461190Y-49500952D01*
X135461190Y-49500952D02*
X135270714Y-49500952D01*
X135270714Y-49500952D02*
X135175476Y-49548571D01*
X133984999Y-49881904D02*
X133508809Y-49881904D01*
X134080237Y-50167619D02*
X133746904Y-49167619D01*
X133746904Y-49167619D02*
X133413571Y-50167619D01*
X133080237Y-49500952D02*
X133080237Y-50167619D01*
X133080237Y-49596190D02*
X133032618Y-49548571D01*
X133032618Y-49548571D02*
X132937380Y-49500952D01*
X132937380Y-49500952D02*
X132794523Y-49500952D01*
X132794523Y-49500952D02*
X132699285Y-49548571D01*
X132699285Y-49548571D02*
X132651666Y-49643809D01*
X132651666Y-49643809D02*
X132651666Y-50167619D01*
X132318332Y-49500952D02*
X131937380Y-49500952D01*
X132175475Y-49167619D02*
X132175475Y-50024761D01*
X132175475Y-50024761D02*
X132127856Y-50120000D01*
X132127856Y-50120000D02*
X132032618Y-50167619D01*
X132032618Y-50167619D02*
X131937380Y-50167619D01*
X131223094Y-50120000D02*
X131318332Y-50167619D01*
X131318332Y-50167619D02*
X131508808Y-50167619D01*
X131508808Y-50167619D02*
X131604046Y-50120000D01*
X131604046Y-50120000D02*
X131651665Y-50024761D01*
X131651665Y-50024761D02*
X131651665Y-49643809D01*
X131651665Y-49643809D02*
X131604046Y-49548571D01*
X131604046Y-49548571D02*
X131508808Y-49500952D01*
X131508808Y-49500952D02*
X131318332Y-49500952D01*
X131318332Y-49500952D02*
X131223094Y-49548571D01*
X131223094Y-49548571D02*
X131175475Y-49643809D01*
X131175475Y-49643809D02*
X131175475Y-49739047D01*
X131175475Y-49739047D02*
X131651665Y-49834285D01*
X130746903Y-49500952D02*
X130746903Y-50167619D01*
X130746903Y-49596190D02*
X130699284Y-49548571D01*
X130699284Y-49548571D02*
X130604046Y-49500952D01*
X130604046Y-49500952D02*
X130461189Y-49500952D01*
X130461189Y-49500952D02*
X130365951Y-49548571D01*
X130365951Y-49548571D02*
X130318332Y-49643809D01*
X130318332Y-49643809D02*
X130318332Y-50167619D01*
X129842141Y-49500952D02*
X129842141Y-50167619D01*
X129842141Y-49596190D02*
X129794522Y-49548571D01*
X129794522Y-49548571D02*
X129699284Y-49500952D01*
X129699284Y-49500952D02*
X129556427Y-49500952D01*
X129556427Y-49500952D02*
X129461189Y-49548571D01*
X129461189Y-49548571D02*
X129413570Y-49643809D01*
X129413570Y-49643809D02*
X129413570Y-50167619D01*
X128508808Y-50167619D02*
X128508808Y-49643809D01*
X128508808Y-49643809D02*
X128556427Y-49548571D01*
X128556427Y-49548571D02*
X128651665Y-49500952D01*
X128651665Y-49500952D02*
X128842141Y-49500952D01*
X128842141Y-49500952D02*
X128937379Y-49548571D01*
X128508808Y-50120000D02*
X128604046Y-50167619D01*
X128604046Y-50167619D02*
X128842141Y-50167619D01*
X128842141Y-50167619D02*
X128937379Y-50120000D01*
X128937379Y-50120000D02*
X128984998Y-50024761D01*
X128984998Y-50024761D02*
X128984998Y-49929523D01*
X128984998Y-49929523D02*
X128937379Y-49834285D01*
X128937379Y-49834285D02*
X128842141Y-49786666D01*
X128842141Y-49786666D02*
X128604046Y-49786666D01*
X128604046Y-49786666D02*
X128508808Y-49739047D01*
X138175475Y-50787619D02*
X137842142Y-51787619D01*
X137842142Y-51787619D02*
X137508809Y-50787619D01*
X136794523Y-51740000D02*
X136889761Y-51787619D01*
X136889761Y-51787619D02*
X137080237Y-51787619D01*
X137080237Y-51787619D02*
X137175475Y-51740000D01*
X137175475Y-51740000D02*
X137223094Y-51644761D01*
X137223094Y-51644761D02*
X137223094Y-51263809D01*
X137223094Y-51263809D02*
X137175475Y-51168571D01*
X137175475Y-51168571D02*
X137080237Y-51120952D01*
X137080237Y-51120952D02*
X136889761Y-51120952D01*
X136889761Y-51120952D02*
X136794523Y-51168571D01*
X136794523Y-51168571D02*
X136746904Y-51263809D01*
X136746904Y-51263809D02*
X136746904Y-51359047D01*
X136746904Y-51359047D02*
X137223094Y-51454285D01*
X136318332Y-51787619D02*
X136318332Y-51120952D01*
X136318332Y-51311428D02*
X136270713Y-51216190D01*
X136270713Y-51216190D02*
X136223094Y-51168571D01*
X136223094Y-51168571D02*
X136127856Y-51120952D01*
X136127856Y-51120952D02*
X136032618Y-51120952D01*
X135746903Y-51740000D02*
X135651665Y-51787619D01*
X135651665Y-51787619D02*
X135461189Y-51787619D01*
X135461189Y-51787619D02*
X135365951Y-51740000D01*
X135365951Y-51740000D02*
X135318332Y-51644761D01*
X135318332Y-51644761D02*
X135318332Y-51597142D01*
X135318332Y-51597142D02*
X135365951Y-51501904D01*
X135365951Y-51501904D02*
X135461189Y-51454285D01*
X135461189Y-51454285D02*
X135604046Y-51454285D01*
X135604046Y-51454285D02*
X135699284Y-51406666D01*
X135699284Y-51406666D02*
X135746903Y-51311428D01*
X135746903Y-51311428D02*
X135746903Y-51263809D01*
X135746903Y-51263809D02*
X135699284Y-51168571D01*
X135699284Y-51168571D02*
X135604046Y-51120952D01*
X135604046Y-51120952D02*
X135461189Y-51120952D01*
X135461189Y-51120952D02*
X135365951Y-51168571D01*
X134889760Y-51787619D02*
X134889760Y-51120952D01*
X134889760Y-50787619D02*
X134937379Y-50835238D01*
X134937379Y-50835238D02*
X134889760Y-50882857D01*
X134889760Y-50882857D02*
X134842141Y-50835238D01*
X134842141Y-50835238D02*
X134889760Y-50787619D01*
X134889760Y-50787619D02*
X134889760Y-50882857D01*
X134270713Y-51787619D02*
X134365951Y-51740000D01*
X134365951Y-51740000D02*
X134413570Y-51692380D01*
X134413570Y-51692380D02*
X134461189Y-51597142D01*
X134461189Y-51597142D02*
X134461189Y-51311428D01*
X134461189Y-51311428D02*
X134413570Y-51216190D01*
X134413570Y-51216190D02*
X134365951Y-51168571D01*
X134365951Y-51168571D02*
X134270713Y-51120952D01*
X134270713Y-51120952D02*
X134127856Y-51120952D01*
X134127856Y-51120952D02*
X134032618Y-51168571D01*
X134032618Y-51168571D02*
X133984999Y-51216190D01*
X133984999Y-51216190D02*
X133937380Y-51311428D01*
X133937380Y-51311428D02*
X133937380Y-51597142D01*
X133937380Y-51597142D02*
X133984999Y-51692380D01*
X133984999Y-51692380D02*
X134032618Y-51740000D01*
X134032618Y-51740000D02*
X134127856Y-51787619D01*
X134127856Y-51787619D02*
X134270713Y-51787619D01*
X133508808Y-51120952D02*
X133508808Y-51787619D01*
X133508808Y-51216190D02*
X133461189Y-51168571D01*
X133461189Y-51168571D02*
X133365951Y-51120952D01*
X133365951Y-51120952D02*
X133223094Y-51120952D01*
X133223094Y-51120952D02*
X133127856Y-51168571D01*
X133127856Y-51168571D02*
X133080237Y-51263809D01*
X133080237Y-51263809D02*
X133080237Y-51787619D01*
X131651665Y-50787619D02*
X131556427Y-50787619D01*
X131556427Y-50787619D02*
X131461189Y-50835238D01*
X131461189Y-50835238D02*
X131413570Y-50882857D01*
X131413570Y-50882857D02*
X131365951Y-50978095D01*
X131365951Y-50978095D02*
X131318332Y-51168571D01*
X131318332Y-51168571D02*
X131318332Y-51406666D01*
X131318332Y-51406666D02*
X131365951Y-51597142D01*
X131365951Y-51597142D02*
X131413570Y-51692380D01*
X131413570Y-51692380D02*
X131461189Y-51740000D01*
X131461189Y-51740000D02*
X131556427Y-51787619D01*
X131556427Y-51787619D02*
X131651665Y-51787619D01*
X131651665Y-51787619D02*
X131746903Y-51740000D01*
X131746903Y-51740000D02*
X131794522Y-51692380D01*
X131794522Y-51692380D02*
X131842141Y-51597142D01*
X131842141Y-51597142D02*
X131889760Y-51406666D01*
X131889760Y-51406666D02*
X131889760Y-51168571D01*
X131889760Y-51168571D02*
X131842141Y-50978095D01*
X131842141Y-50978095D02*
X131794522Y-50882857D01*
X131794522Y-50882857D02*
X131746903Y-50835238D01*
X131746903Y-50835238D02*
X131651665Y-50787619D01*
X130889760Y-51692380D02*
X130842141Y-51740000D01*
X130842141Y-51740000D02*
X130889760Y-51787619D01*
X130889760Y-51787619D02*
X130937379Y-51740000D01*
X130937379Y-51740000D02*
X130889760Y-51692380D01*
X130889760Y-51692380D02*
X130889760Y-51787619D01*
X130508808Y-50787619D02*
X129889761Y-50787619D01*
X129889761Y-50787619D02*
X130223094Y-51168571D01*
X130223094Y-51168571D02*
X130080237Y-51168571D01*
X130080237Y-51168571D02*
X129984999Y-51216190D01*
X129984999Y-51216190D02*
X129937380Y-51263809D01*
X129937380Y-51263809D02*
X129889761Y-51359047D01*
X129889761Y-51359047D02*
X129889761Y-51597142D01*
X129889761Y-51597142D02*
X129937380Y-51692380D01*
X129937380Y-51692380D02*
X129984999Y-51740000D01*
X129984999Y-51740000D02*
X130080237Y-51787619D01*
X130080237Y-51787619D02*
X130365951Y-51787619D01*
X130365951Y-51787619D02*
X130461189Y-51740000D01*
X130461189Y-51740000D02*
X130508808Y-51692380D01*
M02*
