M48
; DRILL file {KiCad (6.0.10)} date do 05 jan 2023 13:55:31 CET
; FORMAT={-:-/ absolute / inch / decimal}
; #@! TF.CreationDate,2023-01-05T13:55:31+01:00
; #@! TF.GenerationSoftware,Kicad,Pcbnew,(6.0.10)
; #@! TF.FileFunction,Plated,1,2,PTH
FMAT,2
INCH
; #@! TA.AperFunction,Plated,PTH,ViaDrill
T1C0.0157
; #@! TA.AperFunction,Plated,PTH,ComponentDrill
T2C0.0197
; #@! TA.AperFunction,Plated,PTH,ComponentDrill
T3C0.0256
; #@! TA.AperFunction,Plated,PTH,ComponentDrill
T4C0.0300
; #@! TA.AperFunction,Plated,PTH,ComponentDrill
T5C0.0394
; #@! TA.AperFunction,Plated,PTH,ComponentDrill
T6C0.1260
%
G90
G05
T1
X2.8Y-0.95
X3.05Y-0.95
X3.05Y-1.1
X3.8Y-1.3
X3.95Y-1.3
X4.0Y-1.2346
X4.55Y-2.75
X4.55Y-2.95
X4.6Y-2.75
X4.6Y-2.95
X4.65Y-2.15
X4.65Y-2.3
X4.65Y-2.75
X4.65Y-2.95
X4.7Y-2.15
X4.7Y-2.3
X4.7Y-2.75
X4.7Y-2.95
X4.75Y-2.15
X4.75Y-2.3
X4.8Y-2.15
X4.8Y-2.3
X5.0Y-2.9
T2
X1.9055Y-0.9
X1.9055Y-3.4
X1.9332Y-0.8332
X1.9332Y-0.9668
X1.9332Y-3.3332
X1.9332Y-3.4668
X2.0Y-0.8055
X2.0Y-0.9945
X2.0Y-3.3055
X2.0Y-3.4945
X2.0668Y-0.8332
X2.0668Y-0.9668
X2.0668Y-3.3332
X2.0668Y-3.4668
X2.0945Y-0.9
X2.0945Y-3.4
X5.0055Y-0.9
X5.0055Y-3.4
X5.0332Y-0.8332
X5.0332Y-0.9668
X5.0332Y-3.3332
X5.0332Y-3.4668
X5.1Y-0.8055
X5.1Y-0.9945
X5.1Y-3.3055
X5.1Y-3.4945
X5.1668Y-0.8332
X5.1668Y-0.9668
X5.1668Y-3.3332
X5.1668Y-3.4668
X5.1945Y-0.9
X5.1945Y-3.4
T3
X5.1Y-2.6
X5.1Y-2.65
X5.1Y-2.7
X5.1Y-2.75
X5.1Y-2.8
X5.15Y-2.6
X5.15Y-2.65
X5.15Y-2.7
X5.15Y-2.75
X5.15Y-2.8
T4
X2.9Y-2.2
X2.9Y-3.2
X3.0Y-2.2
X3.0Y-3.2
X3.1Y-2.2
X3.1Y-3.2
X3.2Y-2.2
X3.2Y-3.2
X3.3Y-2.2
X3.3Y-3.2
X3.4Y-2.2
X3.4Y-3.2
X3.5Y-2.2
X3.5Y-3.2
X3.6Y-2.2
X3.6Y-3.2
X3.7Y-2.2
X3.7Y-3.2
X3.8Y-2.2
X3.8Y-3.2
X3.9Y-2.2
X3.9Y-3.2
X4.0Y-2.2
X4.0Y-3.2
X4.1Y-2.2
X4.1Y-3.2
X4.2Y-2.2
X4.2Y-3.2
X4.3Y-2.2
X4.3Y-3.2
T5
X2.4Y-1.1
X2.4Y-1.2
X2.5Y-1.1
X2.5Y-1.2
X2.6Y-1.1
X2.6Y-1.2
X2.7Y-1.1
X2.7Y-1.2
X2.8Y-1.1
X2.8Y-1.2
X2.9Y-1.1
X2.9Y-1.2
X3.3Y-1.1
X3.3Y-1.2
X3.4Y-1.1
X3.4Y-1.2
X3.5Y-1.1
X3.5Y-1.2
X3.6Y-1.1
X3.6Y-1.2
X3.7Y-1.1
X3.7Y-1.2
X3.8Y-1.1
X3.8Y-1.2
X4.2Y-1.1215
X4.2Y-1.2215
X4.3Y-1.1215
X4.3Y-1.2215
X4.4Y-1.1215
X4.4Y-1.2215
X4.5Y-1.1215
X4.5Y-1.2215
X4.6Y-1.1215
X4.6Y-1.2215
X4.7Y-1.1215
X4.7Y-1.2215
X5.1Y-1.35
X5.1Y-1.45
T6
X2.0Y-0.9
X2.0Y-3.4
X5.1Y-0.9
X5.1Y-3.4
T0
M30
