%TF.GenerationSoftware,KiCad,Pcbnew,7.0.1*%
%TF.CreationDate,2023-03-26T17:23:28+02:00*%
%TF.ProjectId,RFM9xW_ANT_PMOD,52464d39-7857-45f4-914e-545f504d4f44,rev?*%
%TF.SameCoordinates,Original*%
%TF.FileFunction,Legend,Top*%
%TF.FilePolarity,Positive*%
%FSLAX46Y46*%
G04 Gerber Fmt 4.6, Leading zero omitted, Abs format (unit mm)*
G04 Created by KiCad (PCBNEW 7.0.1) date 2023-03-26 17:23:28*
%MOMM*%
%LPD*%
G01*
G04 APERTURE LIST*
%ADD10C,0.150000*%
%ADD11C,0.120000*%
G04 APERTURE END LIST*
D10*
%TO.C,C1*%
X126198333Y-46087380D02*
X126150714Y-46135000D01*
X126150714Y-46135000D02*
X126007857Y-46182619D01*
X126007857Y-46182619D02*
X125912619Y-46182619D01*
X125912619Y-46182619D02*
X125769762Y-46135000D01*
X125769762Y-46135000D02*
X125674524Y-46039761D01*
X125674524Y-46039761D02*
X125626905Y-45944523D01*
X125626905Y-45944523D02*
X125579286Y-45754047D01*
X125579286Y-45754047D02*
X125579286Y-45611190D01*
X125579286Y-45611190D02*
X125626905Y-45420714D01*
X125626905Y-45420714D02*
X125674524Y-45325476D01*
X125674524Y-45325476D02*
X125769762Y-45230238D01*
X125769762Y-45230238D02*
X125912619Y-45182619D01*
X125912619Y-45182619D02*
X126007857Y-45182619D01*
X126007857Y-45182619D02*
X126150714Y-45230238D01*
X126150714Y-45230238D02*
X126198333Y-45277857D01*
X127150714Y-46182619D02*
X126579286Y-46182619D01*
X126865000Y-46182619D02*
X126865000Y-45182619D01*
X126865000Y-45182619D02*
X126769762Y-45325476D01*
X126769762Y-45325476D02*
X126674524Y-45420714D01*
X126674524Y-45420714D02*
X126579286Y-45468333D01*
%TO.C,U1*%
X136398095Y-58192619D02*
X136398095Y-59002142D01*
X136398095Y-59002142D02*
X136445714Y-59097380D01*
X136445714Y-59097380D02*
X136493333Y-59145000D01*
X136493333Y-59145000D02*
X136588571Y-59192619D01*
X136588571Y-59192619D02*
X136779047Y-59192619D01*
X136779047Y-59192619D02*
X136874285Y-59145000D01*
X136874285Y-59145000D02*
X136921904Y-59097380D01*
X136921904Y-59097380D02*
X136969523Y-59002142D01*
X136969523Y-59002142D02*
X136969523Y-58192619D01*
X137969523Y-59192619D02*
X137398095Y-59192619D01*
X137683809Y-59192619D02*
X137683809Y-58192619D01*
X137683809Y-58192619D02*
X137588571Y-58335476D01*
X137588571Y-58335476D02*
X137493333Y-58430714D01*
X137493333Y-58430714D02*
X137398095Y-58478333D01*
%TO.C,C2*%
X126198333Y-55612380D02*
X126150714Y-55660000D01*
X126150714Y-55660000D02*
X126007857Y-55707619D01*
X126007857Y-55707619D02*
X125912619Y-55707619D01*
X125912619Y-55707619D02*
X125769762Y-55660000D01*
X125769762Y-55660000D02*
X125674524Y-55564761D01*
X125674524Y-55564761D02*
X125626905Y-55469523D01*
X125626905Y-55469523D02*
X125579286Y-55279047D01*
X125579286Y-55279047D02*
X125579286Y-55136190D01*
X125579286Y-55136190D02*
X125626905Y-54945714D01*
X125626905Y-54945714D02*
X125674524Y-54850476D01*
X125674524Y-54850476D02*
X125769762Y-54755238D01*
X125769762Y-54755238D02*
X125912619Y-54707619D01*
X125912619Y-54707619D02*
X126007857Y-54707619D01*
X126007857Y-54707619D02*
X126150714Y-54755238D01*
X126150714Y-54755238D02*
X126198333Y-54802857D01*
X126579286Y-54802857D02*
X126626905Y-54755238D01*
X126626905Y-54755238D02*
X126722143Y-54707619D01*
X126722143Y-54707619D02*
X126960238Y-54707619D01*
X126960238Y-54707619D02*
X127055476Y-54755238D01*
X127055476Y-54755238D02*
X127103095Y-54802857D01*
X127103095Y-54802857D02*
X127150714Y-54898095D01*
X127150714Y-54898095D02*
X127150714Y-54993333D01*
X127150714Y-54993333D02*
X127103095Y-55136190D01*
X127103095Y-55136190D02*
X126531667Y-55707619D01*
X126531667Y-55707619D02*
X127150714Y-55707619D01*
D11*
%TO.C,J1*%
X148590000Y-41910000D02*
X149860000Y-41910000D01*
X148590000Y-43180000D02*
X148590000Y-41910000D01*
X150902929Y-45340000D02*
X151357071Y-45340000D01*
X150902929Y-46100000D02*
X151357071Y-46100000D01*
X150902929Y-47880000D02*
X151357071Y-47880000D01*
X150902929Y-48640000D02*
X151357071Y-48640000D01*
X150902929Y-50420000D02*
X151357071Y-50420000D01*
X150902929Y-51180000D02*
X151357071Y-51180000D01*
X150902929Y-52960000D02*
X151357071Y-52960000D01*
X150902929Y-53720000D02*
X151357071Y-53720000D01*
X150902929Y-55500000D02*
X151357071Y-55500000D01*
X150902929Y-56260000D02*
X151357071Y-56260000D01*
X150970000Y-42800000D02*
X151357071Y-42800000D01*
X150970000Y-43560000D02*
X151357071Y-43560000D01*
X153442929Y-42800000D02*
X153840000Y-42800000D01*
X153442929Y-43560000D02*
X153840000Y-43560000D01*
X153442929Y-45340000D02*
X153840000Y-45340000D01*
X153442929Y-46100000D02*
X153840000Y-46100000D01*
X153442929Y-47880000D02*
X153840000Y-47880000D01*
X153442929Y-48640000D02*
X153840000Y-48640000D01*
X153442929Y-50420000D02*
X153840000Y-50420000D01*
X153442929Y-51180000D02*
X153840000Y-51180000D01*
X153442929Y-52960000D02*
X153840000Y-52960000D01*
X153442929Y-53720000D02*
X153840000Y-53720000D01*
X153442929Y-55500000D02*
X153840000Y-55500000D01*
X153442929Y-56260000D02*
X153840000Y-56260000D01*
X153840000Y-41850000D02*
X153840000Y-57210000D01*
X153840000Y-44450000D02*
X156500000Y-44450000D01*
X153840000Y-46990000D02*
X156500000Y-46990000D01*
X153840000Y-49530000D02*
X156500000Y-49530000D01*
X153840000Y-52070000D02*
X156500000Y-52070000D01*
X153840000Y-54610000D02*
X156500000Y-54610000D01*
X153840000Y-57210000D02*
X156500000Y-57210000D01*
X156500000Y-41850000D02*
X153840000Y-41850000D01*
X156500000Y-42800000D02*
X162500000Y-42800000D01*
X156500000Y-42860000D02*
X162500000Y-42860000D01*
X156500000Y-42980000D02*
X162500000Y-42980000D01*
X156500000Y-43100000D02*
X162500000Y-43100000D01*
X156500000Y-43220000D02*
X162500000Y-43220000D01*
X156500000Y-43340000D02*
X162500000Y-43340000D01*
X156500000Y-43460000D02*
X162500000Y-43460000D01*
X156500000Y-45340000D02*
X162500000Y-45340000D01*
X156500000Y-47880000D02*
X162500000Y-47880000D01*
X156500000Y-50420000D02*
X162500000Y-50420000D01*
X156500000Y-52960000D02*
X162500000Y-52960000D01*
X156500000Y-55500000D02*
X162500000Y-55500000D01*
X156500000Y-57210000D02*
X156500000Y-41850000D01*
X162500000Y-42800000D02*
X162500000Y-43560000D01*
X162500000Y-43560000D02*
X156500000Y-43560000D01*
X162500000Y-45340000D02*
X162500000Y-46100000D01*
X162500000Y-46100000D02*
X156500000Y-46100000D01*
X162500000Y-47880000D02*
X162500000Y-48640000D01*
X162500000Y-48640000D02*
X156500000Y-48640000D01*
X162500000Y-50420000D02*
X162500000Y-51180000D01*
X162500000Y-51180000D02*
X156500000Y-51180000D01*
X162500000Y-52960000D02*
X162500000Y-53720000D01*
X162500000Y-53720000D02*
X156500000Y-53720000D01*
X162500000Y-55500000D02*
X162500000Y-56260000D01*
X162500000Y-56260000D02*
X156500000Y-56260000D01*
%TO.C,C1*%
X125630000Y-48521252D02*
X125630000Y-47998748D01*
X127100000Y-48521252D02*
X127100000Y-47998748D01*
%TO.C,U1*%
X145260000Y-57630000D02*
X145260000Y-57280000D01*
X145260000Y-57630000D02*
X129060000Y-57630000D01*
X145260000Y-57280000D02*
X146160000Y-57280000D01*
X145260000Y-41830000D02*
X145260000Y-41430000D01*
X145260000Y-41430000D02*
X129060000Y-41430000D01*
X129060000Y-57630000D02*
X129060000Y-57230000D01*
X129060000Y-41430000D02*
X129060000Y-41830000D01*
%TO.C,Je*%
X124400000Y-41215000D02*
X125730000Y-41215000D01*
X124400000Y-42545000D02*
X124400000Y-41215000D01*
X124400000Y-43815000D02*
X124400000Y-43875000D01*
X124400000Y-43815000D02*
X127060000Y-43815000D01*
X124400000Y-43875000D02*
X127060000Y-43875000D01*
X127060000Y-43815000D02*
X127060000Y-43875000D01*
%TO.C,C2*%
X127100000Y-52443748D02*
X127100000Y-52966252D01*
X125630000Y-52443748D02*
X125630000Y-52966252D01*
%TD*%
M02*
