%TF.GenerationSoftware,KiCad,Pcbnew,7.0.1*%
%TF.CreationDate,2023-04-28T09:42:27+02:00*%
%TF.ProjectId,RFM69HW_ANT,52464d36-3948-4575-9f41-4e542e6b6963,rev?*%
%TF.SameCoordinates,Original*%
%TF.FileFunction,Legend,Top*%
%TF.FilePolarity,Positive*%
%FSLAX46Y46*%
G04 Gerber Fmt 4.6, Leading zero omitted, Abs format (unit mm)*
G04 Created by KiCad (PCBNEW 7.0.1) date 2023-04-28 09:42:27*
%MOMM*%
%LPD*%
G01*
G04 APERTURE LIST*
%ADD10C,0.150000*%
%ADD11C,0.120000*%
%ADD12C,0.100000*%
G04 APERTURE END LIST*
D10*
%TO.C,C1*%
X140299880Y-39536666D02*
X140347500Y-39584285D01*
X140347500Y-39584285D02*
X140395119Y-39727142D01*
X140395119Y-39727142D02*
X140395119Y-39822380D01*
X140395119Y-39822380D02*
X140347500Y-39965237D01*
X140347500Y-39965237D02*
X140252261Y-40060475D01*
X140252261Y-40060475D02*
X140157023Y-40108094D01*
X140157023Y-40108094D02*
X139966547Y-40155713D01*
X139966547Y-40155713D02*
X139823690Y-40155713D01*
X139823690Y-40155713D02*
X139633214Y-40108094D01*
X139633214Y-40108094D02*
X139537976Y-40060475D01*
X139537976Y-40060475D02*
X139442738Y-39965237D01*
X139442738Y-39965237D02*
X139395119Y-39822380D01*
X139395119Y-39822380D02*
X139395119Y-39727142D01*
X139395119Y-39727142D02*
X139442738Y-39584285D01*
X139442738Y-39584285D02*
X139490357Y-39536666D01*
X140395119Y-38584285D02*
X140395119Y-39155713D01*
X140395119Y-38869999D02*
X139395119Y-38869999D01*
X139395119Y-38869999D02*
X139537976Y-38965237D01*
X139537976Y-38965237D02*
X139633214Y-39060475D01*
X139633214Y-39060475D02*
X139680833Y-39155713D01*
%TO.C,U1*%
X142928095Y-57992619D02*
X142928095Y-58802142D01*
X142928095Y-58802142D02*
X142975714Y-58897380D01*
X142975714Y-58897380D02*
X143023333Y-58945000D01*
X143023333Y-58945000D02*
X143118571Y-58992619D01*
X143118571Y-58992619D02*
X143309047Y-58992619D01*
X143309047Y-58992619D02*
X143404285Y-58945000D01*
X143404285Y-58945000D02*
X143451904Y-58897380D01*
X143451904Y-58897380D02*
X143499523Y-58802142D01*
X143499523Y-58802142D02*
X143499523Y-57992619D01*
X144499523Y-58992619D02*
X143928095Y-58992619D01*
X144213809Y-58992619D02*
X144213809Y-57992619D01*
X144213809Y-57992619D02*
X144118571Y-58135476D01*
X144118571Y-58135476D02*
X144023333Y-58230714D01*
X144023333Y-58230714D02*
X143928095Y-58278333D01*
%TO.C,C2*%
X149824880Y-39536666D02*
X149872500Y-39584285D01*
X149872500Y-39584285D02*
X149920119Y-39727142D01*
X149920119Y-39727142D02*
X149920119Y-39822380D01*
X149920119Y-39822380D02*
X149872500Y-39965237D01*
X149872500Y-39965237D02*
X149777261Y-40060475D01*
X149777261Y-40060475D02*
X149682023Y-40108094D01*
X149682023Y-40108094D02*
X149491547Y-40155713D01*
X149491547Y-40155713D02*
X149348690Y-40155713D01*
X149348690Y-40155713D02*
X149158214Y-40108094D01*
X149158214Y-40108094D02*
X149062976Y-40060475D01*
X149062976Y-40060475D02*
X148967738Y-39965237D01*
X148967738Y-39965237D02*
X148920119Y-39822380D01*
X148920119Y-39822380D02*
X148920119Y-39727142D01*
X148920119Y-39727142D02*
X148967738Y-39584285D01*
X148967738Y-39584285D02*
X149015357Y-39536666D01*
X149015357Y-39155713D02*
X148967738Y-39108094D01*
X148967738Y-39108094D02*
X148920119Y-39012856D01*
X148920119Y-39012856D02*
X148920119Y-38774761D01*
X148920119Y-38774761D02*
X148967738Y-38679523D01*
X148967738Y-38679523D02*
X149015357Y-38631904D01*
X149015357Y-38631904D02*
X149110595Y-38584285D01*
X149110595Y-38584285D02*
X149205833Y-38584285D01*
X149205833Y-38584285D02*
X149348690Y-38631904D01*
X149348690Y-38631904D02*
X149920119Y-39203332D01*
X149920119Y-39203332D02*
X149920119Y-38584285D01*
D11*
%TO.C,J1*%
X156500000Y-45340000D02*
X162500000Y-45340000D01*
X153442929Y-43560000D02*
X153840000Y-43560000D01*
X162500000Y-43560000D02*
X156500000Y-43560000D01*
X153442929Y-50420000D02*
X153840000Y-50420000D01*
X162500000Y-51180000D02*
X156500000Y-51180000D01*
X150902929Y-56260000D02*
X151357071Y-56260000D01*
X150902929Y-47880000D02*
X151357071Y-47880000D01*
X156500000Y-42980000D02*
X162500000Y-42980000D01*
X153840000Y-57210000D02*
X156500000Y-57210000D01*
X153840000Y-41850000D02*
X153840000Y-57210000D01*
X150902929Y-50420000D02*
X151357071Y-50420000D01*
X156500000Y-42860000D02*
X162500000Y-42860000D01*
X150902929Y-52960000D02*
X151357071Y-52960000D01*
X153840000Y-52070000D02*
X156500000Y-52070000D01*
X150902929Y-55500000D02*
X151357071Y-55500000D01*
X153442929Y-45340000D02*
X153840000Y-45340000D01*
X148590000Y-41910000D02*
X149860000Y-41910000D01*
X153840000Y-49530000D02*
X156500000Y-49530000D01*
X156500000Y-55500000D02*
X162500000Y-55500000D01*
X153442929Y-42800000D02*
X153840000Y-42800000D01*
X156500000Y-43100000D02*
X162500000Y-43100000D01*
X162500000Y-42800000D02*
X162500000Y-43560000D01*
X162500000Y-48640000D02*
X156500000Y-48640000D01*
X156500000Y-57210000D02*
X156500000Y-41850000D01*
X148590000Y-43180000D02*
X148590000Y-41910000D01*
X162500000Y-52960000D02*
X162500000Y-53720000D01*
X156500000Y-42800000D02*
X162500000Y-42800000D01*
X156500000Y-43460000D02*
X162500000Y-43460000D01*
X162500000Y-50420000D02*
X162500000Y-51180000D01*
X162500000Y-46100000D02*
X156500000Y-46100000D01*
X153442929Y-55500000D02*
X153840000Y-55500000D01*
X156500000Y-50420000D02*
X162500000Y-50420000D01*
X150970000Y-42800000D02*
X151357071Y-42800000D01*
X156500000Y-43340000D02*
X162500000Y-43340000D01*
X150970000Y-43560000D02*
X151357071Y-43560000D01*
X150902929Y-51180000D02*
X151357071Y-51180000D01*
X153442929Y-51180000D02*
X153840000Y-51180000D01*
X153840000Y-44450000D02*
X156500000Y-44450000D01*
X153442929Y-48640000D02*
X153840000Y-48640000D01*
X153442929Y-56260000D02*
X153840000Y-56260000D01*
X162500000Y-56260000D02*
X156500000Y-56260000D01*
X150902929Y-48640000D02*
X151357071Y-48640000D01*
X150902929Y-46100000D02*
X151357071Y-46100000D01*
X162500000Y-55500000D02*
X162500000Y-56260000D01*
X156500000Y-43220000D02*
X162500000Y-43220000D01*
X153442929Y-53720000D02*
X153840000Y-53720000D01*
X150902929Y-53720000D02*
X151357071Y-53720000D01*
X162500000Y-53720000D02*
X156500000Y-53720000D01*
X162500000Y-45340000D02*
X162500000Y-46100000D01*
X153840000Y-46990000D02*
X156500000Y-46990000D01*
X153840000Y-54610000D02*
X156500000Y-54610000D01*
X156500000Y-47880000D02*
X162500000Y-47880000D01*
X153442929Y-52960000D02*
X153840000Y-52960000D01*
X156500000Y-41850000D02*
X153840000Y-41850000D01*
X156500000Y-52960000D02*
X162500000Y-52960000D01*
X162500000Y-47880000D02*
X162500000Y-48640000D01*
X153442929Y-47880000D02*
X153840000Y-47880000D01*
X153442929Y-46100000D02*
X153840000Y-46100000D01*
X150902929Y-45340000D02*
X151357071Y-45340000D01*
%TO.C,C1*%
X142733752Y-40105000D02*
X142211248Y-40105000D01*
X142733752Y-38635000D02*
X142211248Y-38635000D01*
D12*
%TO.C,U1*%
X145940000Y-57730000D02*
X145940000Y-57330000D01*
X145940000Y-57730000D02*
X135940000Y-57730000D01*
X145940000Y-41730000D02*
X145940000Y-41330000D01*
X145940000Y-41330000D02*
X145440000Y-41330000D01*
X126340000Y-57730000D02*
X125840000Y-57730000D01*
X126340000Y-41330000D02*
X125840000Y-41330000D01*
X125840000Y-57730000D02*
X125840000Y-57330000D01*
X125840000Y-41730000D02*
X125840000Y-41330000D01*
D11*
%TO.C,J2*%
X119320000Y-43200000D02*
X120650000Y-43200000D01*
X119320000Y-44530000D02*
X119320000Y-43200000D01*
X119320000Y-45800000D02*
X119320000Y-45860000D01*
X119320000Y-45800000D02*
X121980000Y-45800000D01*
X119320000Y-45860000D02*
X121980000Y-45860000D01*
X121980000Y-45800000D02*
X121980000Y-45860000D01*
%TO.C,C2*%
X146656248Y-38635000D02*
X147178752Y-38635000D01*
X146656248Y-40105000D02*
X147178752Y-40105000D01*
%TD*%
M02*
