%TF.GenerationSoftware,KiCad,Pcbnew,7.0.4*%
%TF.CreationDate,2023-05-26T13:28:04+02:00*%
%TF.ProjectId,RFM9xW_868,52464d39-7857-45f3-9836-382e6b696361,rev?*%
%TF.SameCoordinates,Original*%
%TF.FileFunction,Legend,Top*%
%TF.FilePolarity,Positive*%
%FSLAX46Y46*%
G04 Gerber Fmt 4.6, Leading zero omitted, Abs format (unit mm)*
G04 Created by KiCad (PCBNEW 7.0.4) date 2023-05-26 13:28:04*
%MOMM*%
%LPD*%
G01*
G04 APERTURE LIST*
%ADD10C,0.150000*%
%ADD11C,0.120000*%
G04 APERTURE END LIST*
D10*
%TO.C,M3*%
X119205476Y-55064819D02*
X119205476Y-54064819D01*
X119205476Y-54064819D02*
X119538809Y-54779104D01*
X119538809Y-54779104D02*
X119872142Y-54064819D01*
X119872142Y-54064819D02*
X119872142Y-55064819D01*
X120253095Y-54064819D02*
X120872142Y-54064819D01*
X120872142Y-54064819D02*
X120538809Y-54445771D01*
X120538809Y-54445771D02*
X120681666Y-54445771D01*
X120681666Y-54445771D02*
X120776904Y-54493390D01*
X120776904Y-54493390D02*
X120824523Y-54541009D01*
X120824523Y-54541009D02*
X120872142Y-54636247D01*
X120872142Y-54636247D02*
X120872142Y-54874342D01*
X120872142Y-54874342D02*
X120824523Y-54969580D01*
X120824523Y-54969580D02*
X120776904Y-55017200D01*
X120776904Y-55017200D02*
X120681666Y-55064819D01*
X120681666Y-55064819D02*
X120395952Y-55064819D01*
X120395952Y-55064819D02*
X120300714Y-55017200D01*
X120300714Y-55017200D02*
X120253095Y-54969580D01*
%TO.C,U1*%
X133128095Y-58184819D02*
X133128095Y-58994342D01*
X133128095Y-58994342D02*
X133175714Y-59089580D01*
X133175714Y-59089580D02*
X133223333Y-59137200D01*
X133223333Y-59137200D02*
X133318571Y-59184819D01*
X133318571Y-59184819D02*
X133509047Y-59184819D01*
X133509047Y-59184819D02*
X133604285Y-59137200D01*
X133604285Y-59137200D02*
X133651904Y-59089580D01*
X133651904Y-59089580D02*
X133699523Y-58994342D01*
X133699523Y-58994342D02*
X133699523Y-58184819D01*
X134699523Y-59184819D02*
X134128095Y-59184819D01*
X134413809Y-59184819D02*
X134413809Y-58184819D01*
X134413809Y-58184819D02*
X134318571Y-58327676D01*
X134318571Y-58327676D02*
X134223333Y-58422914D01*
X134223333Y-58422914D02*
X134128095Y-58470533D01*
%TO.C,M1*%
X119205476Y-49984819D02*
X119205476Y-48984819D01*
X119205476Y-48984819D02*
X119538809Y-49699104D01*
X119538809Y-49699104D02*
X119872142Y-48984819D01*
X119872142Y-48984819D02*
X119872142Y-49984819D01*
X120872142Y-49984819D02*
X120300714Y-49984819D01*
X120586428Y-49984819D02*
X120586428Y-48984819D01*
X120586428Y-48984819D02*
X120491190Y-49127676D01*
X120491190Y-49127676D02*
X120395952Y-49222914D01*
X120395952Y-49222914D02*
X120300714Y-49270533D01*
%TO.C,M2*%
X119205476Y-52334819D02*
X119205476Y-51334819D01*
X119205476Y-51334819D02*
X119538809Y-52049104D01*
X119538809Y-52049104D02*
X119872142Y-51334819D01*
X119872142Y-51334819D02*
X119872142Y-52334819D01*
X120300714Y-51430057D02*
X120348333Y-51382438D01*
X120348333Y-51382438D02*
X120443571Y-51334819D01*
X120443571Y-51334819D02*
X120681666Y-51334819D01*
X120681666Y-51334819D02*
X120776904Y-51382438D01*
X120776904Y-51382438D02*
X120824523Y-51430057D01*
X120824523Y-51430057D02*
X120872142Y-51525295D01*
X120872142Y-51525295D02*
X120872142Y-51620533D01*
X120872142Y-51620533D02*
X120824523Y-51763390D01*
X120824523Y-51763390D02*
X120253095Y-52334819D01*
X120253095Y-52334819D02*
X120872142Y-52334819D01*
D11*
%TO.C,J1*%
X148590000Y-41910000D02*
X149860000Y-41910000D01*
X148590000Y-43180000D02*
X148590000Y-41910000D01*
X150902929Y-45340000D02*
X151357071Y-45340000D01*
X150902929Y-46100000D02*
X151357071Y-46100000D01*
X150902929Y-47880000D02*
X151357071Y-47880000D01*
X150902929Y-48640000D02*
X151357071Y-48640000D01*
X150902929Y-50420000D02*
X151357071Y-50420000D01*
X150902929Y-51180000D02*
X151357071Y-51180000D01*
X150902929Y-52960000D02*
X151357071Y-52960000D01*
X150902929Y-53720000D02*
X151357071Y-53720000D01*
X150902929Y-55500000D02*
X151357071Y-55500000D01*
X150902929Y-56260000D02*
X151357071Y-56260000D01*
X150970000Y-42800000D02*
X151357071Y-42800000D01*
X150970000Y-43560000D02*
X151357071Y-43560000D01*
X153442929Y-42800000D02*
X153840000Y-42800000D01*
X153442929Y-43560000D02*
X153840000Y-43560000D01*
X153442929Y-45340000D02*
X153840000Y-45340000D01*
X153442929Y-46100000D02*
X153840000Y-46100000D01*
X153442929Y-47880000D02*
X153840000Y-47880000D01*
X153442929Y-48640000D02*
X153840000Y-48640000D01*
X153442929Y-50420000D02*
X153840000Y-50420000D01*
X153442929Y-51180000D02*
X153840000Y-51180000D01*
X153442929Y-52960000D02*
X153840000Y-52960000D01*
X153442929Y-53720000D02*
X153840000Y-53720000D01*
X153442929Y-55500000D02*
X153840000Y-55500000D01*
X153442929Y-56260000D02*
X153840000Y-56260000D01*
X153840000Y-41850000D02*
X153840000Y-57210000D01*
X153840000Y-44450000D02*
X156500000Y-44450000D01*
X153840000Y-46990000D02*
X156500000Y-46990000D01*
X153840000Y-49530000D02*
X156500000Y-49530000D01*
X153840000Y-52070000D02*
X156500000Y-52070000D01*
X153840000Y-54610000D02*
X156500000Y-54610000D01*
X153840000Y-57210000D02*
X156500000Y-57210000D01*
X156500000Y-41850000D02*
X153840000Y-41850000D01*
X156500000Y-42800000D02*
X162500000Y-42800000D01*
X156500000Y-42860000D02*
X162500000Y-42860000D01*
X156500000Y-42980000D02*
X162500000Y-42980000D01*
X156500000Y-43100000D02*
X162500000Y-43100000D01*
X156500000Y-43220000D02*
X162500000Y-43220000D01*
X156500000Y-43340000D02*
X162500000Y-43340000D01*
X156500000Y-43460000D02*
X162500000Y-43460000D01*
X156500000Y-45340000D02*
X162500000Y-45340000D01*
X156500000Y-47880000D02*
X162500000Y-47880000D01*
X156500000Y-50420000D02*
X162500000Y-50420000D01*
X156500000Y-52960000D02*
X162500000Y-52960000D01*
X156500000Y-55500000D02*
X162500000Y-55500000D01*
X156500000Y-57210000D02*
X156500000Y-41850000D01*
X162500000Y-42800000D02*
X162500000Y-43560000D01*
X162500000Y-43560000D02*
X156500000Y-43560000D01*
X162500000Y-45340000D02*
X162500000Y-46100000D01*
X162500000Y-46100000D02*
X156500000Y-46100000D01*
X162500000Y-47880000D02*
X162500000Y-48640000D01*
X162500000Y-48640000D02*
X156500000Y-48640000D01*
X162500000Y-50420000D02*
X162500000Y-51180000D01*
X162500000Y-51180000D02*
X156500000Y-51180000D01*
X162500000Y-52960000D02*
X162500000Y-53720000D01*
X162500000Y-53720000D02*
X156500000Y-53720000D01*
X162500000Y-55500000D02*
X162500000Y-56260000D01*
X162500000Y-56260000D02*
X156500000Y-56260000D01*
%TO.C,M3*%
X122507742Y-54087500D02*
X122982258Y-54087500D01*
X122507742Y-55132500D02*
X122982258Y-55132500D01*
%TO.C,U1*%
X141990000Y-57630000D02*
X141990000Y-57280000D01*
X141990000Y-57630000D02*
X125790000Y-57630000D01*
X141990000Y-57280000D02*
X142890000Y-57280000D01*
X141990000Y-41830000D02*
X141990000Y-41430000D01*
X141990000Y-41430000D02*
X125790000Y-41430000D01*
X125790000Y-57630000D02*
X125790000Y-57230000D01*
X125790000Y-41430000D02*
X125790000Y-41830000D01*
%TO.C,M1*%
X122507742Y-49007500D02*
X122982258Y-49007500D01*
X122507742Y-50052500D02*
X122982258Y-50052500D01*
%TO.C,M2*%
X122442500Y-51832742D02*
X122442500Y-52307258D01*
X121397500Y-51832742D02*
X121397500Y-52307258D01*
%TD*%
M02*
