%TF.GenerationSoftware,KiCad,Pcbnew,7.0.1*%
%TF.CreationDate,2023-04-28T09:34:28+02:00*%
%TF.ProjectId,RA01_ANT,52413031-5f41-44e5-942e-6b696361645f,rev?*%
%TF.SameCoordinates,Original*%
%TF.FileFunction,Copper,L1,Top*%
%TF.FilePolarity,Positive*%
%FSLAX46Y46*%
G04 Gerber Fmt 4.6, Leading zero omitted, Abs format (unit mm)*
G04 Created by KiCad (PCBNEW 7.0.1) date 2023-04-28 09:34:28*
%MOMM*%
%LPD*%
G01*
G04 APERTURE LIST*
G04 Aperture macros list*
%AMRoundRect*
0 Rectangle with rounded corners*
0 $1 Rounding radius*
0 $2 $3 $4 $5 $6 $7 $8 $9 X,Y pos of 4 corners*
0 Add a 4 corners polygon primitive as box body*
4,1,4,$2,$3,$4,$5,$6,$7,$8,$9,$2,$3,0*
0 Add four circle primitives for the rounded corners*
1,1,$1+$1,$2,$3*
1,1,$1+$1,$4,$5*
1,1,$1+$1,$6,$7*
1,1,$1+$1,$8,$9*
0 Add four rect primitives between the rounded corners*
20,1,$1+$1,$2,$3,$4,$5,0*
20,1,$1+$1,$4,$5,$6,$7,0*
20,1,$1+$1,$6,$7,$8,$9,0*
20,1,$1+$1,$8,$9,$2,$3,0*%
G04 Aperture macros list end*
%TA.AperFunction,ComponentPad*%
%ADD10R,1.700000X1.700000*%
%TD*%
%TA.AperFunction,ComponentPad*%
%ADD11O,1.700000X1.700000*%
%TD*%
%TA.AperFunction,SMDPad,CuDef*%
%ADD12R,2.000000X1.500000*%
%TD*%
%TA.AperFunction,SMDPad,CuDef*%
%ADD13RoundRect,0.250000X-0.337500X-0.475000X0.337500X-0.475000X0.337500X0.475000X-0.337500X0.475000X0*%
%TD*%
%TA.AperFunction,SMDPad,CuDef*%
%ADD14RoundRect,0.250000X0.337500X0.475000X-0.337500X0.475000X-0.337500X-0.475000X0.337500X-0.475000X0*%
%TD*%
%TA.AperFunction,ViaPad*%
%ADD15C,0.800000*%
%TD*%
%TA.AperFunction,Conductor*%
%ADD16C,0.250000*%
%TD*%
%TA.AperFunction,Conductor*%
%ADD17C,0.350000*%
%TD*%
G04 APERTURE END LIST*
D10*
%TO.P,J1,1,Pin_1*%
%TO.N,VCC*%
X149860000Y-43180000D03*
D11*
%TO.P,J1,2,Pin_2*%
X152400000Y-43180000D03*
%TO.P,J1,3,Pin_3*%
%TO.N,GND*%
X149860000Y-45720000D03*
%TO.P,J1,4,Pin_4*%
X152400000Y-45720000D03*
%TO.P,J1,5,Pin_5*%
%TO.N,SCK*%
X149860000Y-48260000D03*
%TO.P,J1,6,Pin_6*%
%TO.N,unconnected-(J1-Pin_6-Pad6)*%
X152400000Y-48260000D03*
%TO.P,J1,7,Pin_7*%
%TO.N,MISO*%
X149860000Y-50800000D03*
%TO.P,J1,8,Pin_8*%
%TO.N,unconnected-(J1-Pin_8-Pad8)*%
X152400000Y-50800000D03*
%TO.P,J1,9,Pin_9*%
%TO.N,MOSI*%
X149860000Y-53340000D03*
%TO.P,J1,10,Pin_10*%
%TO.N,nRESET*%
X152400000Y-53340000D03*
%TO.P,J1,11,Pin_11*%
%TO.N,nCS*%
X149860000Y-55880000D03*
%TO.P,J1,12,Pin_12*%
%TO.N,DIO0*%
X152400000Y-55880000D03*
%TD*%
D12*
%TO.P,U1,1,ANT*%
%TO.N,Net-(J2-Pin_1)*%
X129160000Y-42990000D03*
%TO.P,U1,2,GND*%
%TO.N,GND*%
X129160000Y-44990000D03*
%TO.P,U1,3,VDD*%
%TO.N,VCC*%
X129160000Y-46990000D03*
%TO.P,U1,4,~{RESET}*%
%TO.N,nRESET*%
X129160000Y-48990000D03*
%TO.P,U1,5,DIO0*%
%TO.N,DIO0*%
X129160000Y-50990000D03*
%TO.P,U1,6,DIO1*%
%TO.N,unconnected-(U1-DIO1-Pad6)*%
X129160000Y-52990000D03*
%TO.P,U1,7,DIO2*%
%TO.N,unconnected-(U1-DIO2-Pad7)*%
X129160000Y-54990000D03*
%TO.P,U1,8,DIO3*%
%TO.N,unconnected-(U1-DIO3-Pad8)*%
X129160000Y-56990000D03*
%TO.P,U1,9,GND*%
%TO.N,GND*%
X145160000Y-56990000D03*
%TO.P,U1,10,DIO4*%
%TO.N,unconnected-(U1-DIO4-Pad10)*%
X145160000Y-54990000D03*
%TO.P,U1,11,DIO5*%
%TO.N,unconnected-(U1-DIO5-Pad11)*%
X145160000Y-52990000D03*
%TO.P,U1,12,SCK*%
%TO.N,SCK*%
X145160000Y-50990000D03*
%TO.P,U1,13,MISO*%
%TO.N,MISO*%
X145160000Y-48990000D03*
%TO.P,U1,14,MOSI*%
%TO.N,MOSI*%
X145160000Y-46990000D03*
%TO.P,U1,15,~{NSS}*%
%TO.N,nCS*%
X145160000Y-44990000D03*
%TO.P,U1,16,GND*%
%TO.N,GND*%
X145160000Y-42990000D03*
%TD*%
D13*
%TO.P,C1,1*%
%TO.N,VCC*%
X137625000Y-39370000D03*
%TO.P,C1,2*%
%TO.N,GND*%
X139700000Y-39370000D03*
%TD*%
D10*
%TO.P,J2,1,Pin_1*%
%TO.N,Net-(J2-Pin_1)*%
X120650000Y-42990000D03*
%TD*%
D14*
%TO.P,C2,1*%
%TO.N,VCC*%
X135657500Y-39370000D03*
%TO.P,C2,2*%
%TO.N,GND*%
X133582500Y-39370000D03*
%TD*%
D15*
%TO.N,GND*%
X131445000Y-55880000D03*
X126365000Y-55880000D03*
%TO.N,nCS*%
X145160000Y-44990000D03*
%TO.N,MOSI*%
X145160000Y-46990000D03*
%TD*%
D16*
%TO.N,nRESET*%
X125095000Y-49530000D02*
X125095000Y-57785000D01*
X125635000Y-48990000D02*
X125095000Y-49530000D01*
X153670000Y-54610000D02*
X152400000Y-53340000D01*
X127000000Y-59690000D02*
X151765000Y-59690000D01*
X129160000Y-48990000D02*
X125635000Y-48990000D01*
X153670000Y-57785000D02*
X153670000Y-54610000D01*
X151765000Y-59690000D02*
X153670000Y-57785000D01*
X125095000Y-57785000D02*
X127000000Y-59690000D01*
%TO.N,SCK*%
X145410000Y-50990000D02*
X146490000Y-52070000D01*
X151130000Y-49530000D02*
X149860000Y-48260000D01*
X150251701Y-52070000D02*
X151130000Y-51191701D01*
X151130000Y-51191701D02*
X151130000Y-49530000D01*
X146490000Y-52070000D02*
X150251701Y-52070000D01*
X145160000Y-50990000D02*
X145410000Y-50990000D01*
%TO.N,MISO*%
X145160000Y-48990000D02*
X148050000Y-48990000D01*
X148050000Y-48990000D02*
X149860000Y-50800000D01*
%TO.N,VCC*%
X137625000Y-39370000D02*
X138895000Y-40640000D01*
X149860000Y-43180000D02*
X152400000Y-43180000D01*
X129160000Y-46990000D02*
X132080000Y-46990000D01*
X138895000Y-40640000D02*
X147320000Y-40640000D01*
X135657500Y-43412500D02*
X135657500Y-39370000D01*
X137625000Y-39370000D02*
X135657500Y-39370000D01*
X132080000Y-46990000D02*
X135657500Y-43412500D01*
X147320000Y-40640000D02*
X149860000Y-43180000D01*
D17*
%TO.N,Net-(J2-Pin_1)*%
X129160000Y-42990000D02*
X120650000Y-42990000D01*
D16*
%TO.N,DIO0*%
X133985000Y-59055000D02*
X151130000Y-59055000D01*
X129160000Y-50990000D02*
X131635000Y-50990000D01*
X151130000Y-59055000D02*
X152400000Y-57785000D01*
X152400000Y-57785000D02*
X152400000Y-55880000D01*
X132715000Y-57785000D02*
X133985000Y-59055000D01*
X131635000Y-50990000D02*
X132715000Y-52070000D01*
X132715000Y-52070000D02*
X132715000Y-57785000D01*
%TD*%
%TA.AperFunction,Conductor*%
%TO.N,GND*%
G36*
X127910000Y-49328763D02*
G01*
X127946237Y-49365000D01*
X127959500Y-49414500D01*
X127959500Y-49759747D01*
X127971133Y-49818231D01*
X128015447Y-49884552D01*
X128050068Y-49907685D01*
X128082376Y-49943332D01*
X128094066Y-49990000D01*
X128082376Y-50036668D01*
X128050068Y-50072315D01*
X128015447Y-50095447D01*
X127971133Y-50161768D01*
X127959500Y-50220253D01*
X127959500Y-51759747D01*
X127971133Y-51818231D01*
X128015447Y-51884552D01*
X128050068Y-51907685D01*
X128082376Y-51943332D01*
X128094066Y-51990000D01*
X128082376Y-52036668D01*
X128050068Y-52072315D01*
X128015447Y-52095447D01*
X127971133Y-52161768D01*
X127971132Y-52161769D01*
X127971133Y-52161769D01*
X127961948Y-52207948D01*
X127959500Y-52220253D01*
X127959500Y-53759747D01*
X127971133Y-53818231D01*
X128015447Y-53884552D01*
X128050068Y-53907685D01*
X128082376Y-53943332D01*
X128094066Y-53990000D01*
X128082376Y-54036668D01*
X128050068Y-54072315D01*
X128015447Y-54095447D01*
X127971133Y-54161768D01*
X127959500Y-54220253D01*
X127959500Y-55759747D01*
X127971133Y-55818231D01*
X128015447Y-55884552D01*
X128050068Y-55907685D01*
X128082376Y-55943332D01*
X128094066Y-55990000D01*
X128082376Y-56036668D01*
X128050068Y-56072315D01*
X128015447Y-56095447D01*
X127971133Y-56161768D01*
X127959500Y-56220253D01*
X127959500Y-57759747D01*
X127971133Y-57818231D01*
X128015447Y-57884552D01*
X128037591Y-57899348D01*
X128081769Y-57928867D01*
X128140252Y-57940500D01*
X130179747Y-57940500D01*
X130179748Y-57940500D01*
X130238231Y-57928867D01*
X130304552Y-57884552D01*
X130348867Y-57818231D01*
X130360500Y-57759748D01*
X130360500Y-56220252D01*
X130348867Y-56161769D01*
X130304552Y-56095448D01*
X130269930Y-56072314D01*
X130237623Y-56036668D01*
X130225933Y-55990000D01*
X130237623Y-55943332D01*
X130269930Y-55907685D01*
X130304552Y-55884552D01*
X130348867Y-55818231D01*
X130360500Y-55759748D01*
X130360500Y-54220252D01*
X130348867Y-54161769D01*
X130304552Y-54095448D01*
X130269930Y-54072314D01*
X130237623Y-54036668D01*
X130225933Y-53990000D01*
X130237623Y-53943332D01*
X130269930Y-53907685D01*
X130304552Y-53884552D01*
X130348867Y-53818231D01*
X130360500Y-53759748D01*
X130360500Y-52220252D01*
X130348867Y-52161769D01*
X130304552Y-52095448D01*
X130269930Y-52072314D01*
X130237623Y-52036668D01*
X130225933Y-51990000D01*
X130237623Y-51943332D01*
X130269930Y-51907685D01*
X130304552Y-51884552D01*
X130348867Y-51818231D01*
X130360500Y-51759748D01*
X130360500Y-51414500D01*
X130373763Y-51365000D01*
X130410000Y-51328763D01*
X130459500Y-51315500D01*
X131459166Y-51315500D01*
X131497052Y-51323036D01*
X131529170Y-51344496D01*
X132360504Y-52175830D01*
X132381964Y-52207948D01*
X132389500Y-52245834D01*
X132389500Y-57766466D01*
X132389123Y-57775096D01*
X132385735Y-57813807D01*
X132395795Y-57851350D01*
X132397663Y-57859778D01*
X132404411Y-57898042D01*
X132404412Y-57898045D01*
X132405166Y-57899352D01*
X132415055Y-57923225D01*
X132415446Y-57924685D01*
X132437732Y-57956514D01*
X132442370Y-57963794D01*
X132461803Y-57997452D01*
X132461805Y-57997454D01*
X132461806Y-57997455D01*
X132491574Y-58022433D01*
X132497938Y-58028264D01*
X133665169Y-59195496D01*
X133692263Y-59246186D01*
X133686629Y-59303386D01*
X133650166Y-59347815D01*
X133595165Y-59364500D01*
X127175834Y-59364500D01*
X127137948Y-59356964D01*
X127105830Y-59335504D01*
X125449496Y-57679170D01*
X125428036Y-57647052D01*
X125420500Y-57609166D01*
X125420500Y-49705833D01*
X125428036Y-49667947D01*
X125449497Y-49635829D01*
X125740831Y-49344496D01*
X125772948Y-49323036D01*
X125810834Y-49315500D01*
X127860500Y-49315500D01*
X127910000Y-49328763D01*
G37*
%TD.AperFunction*%
%TA.AperFunction,Conductor*%
G36*
X156135000Y-38138763D02*
G01*
X156171237Y-38175000D01*
X156184500Y-38224500D01*
X156184500Y-60835500D01*
X156171237Y-60885000D01*
X156135000Y-60921237D01*
X156085500Y-60934500D01*
X118234500Y-60934500D01*
X118185000Y-60921237D01*
X118148763Y-60885000D01*
X118135500Y-60835500D01*
X118135500Y-57813807D01*
X124765735Y-57813807D01*
X124775795Y-57851350D01*
X124777663Y-57859778D01*
X124784411Y-57898042D01*
X124784412Y-57898045D01*
X124785166Y-57899352D01*
X124795055Y-57923225D01*
X124795446Y-57924685D01*
X124817732Y-57956514D01*
X124822370Y-57963794D01*
X124841803Y-57997452D01*
X124841805Y-57997454D01*
X124841806Y-57997455D01*
X124871574Y-58022433D01*
X124877938Y-58028264D01*
X126756730Y-59907056D01*
X126762564Y-59913423D01*
X126787545Y-59943194D01*
X126821215Y-59962633D01*
X126828477Y-59967260D01*
X126860316Y-59989554D01*
X126861761Y-59989941D01*
X126861768Y-59989943D01*
X126885650Y-59999834D01*
X126886955Y-60000588D01*
X126920732Y-60006543D01*
X126925220Y-60007335D01*
X126933647Y-60009203D01*
X126971193Y-60019264D01*
X127009909Y-60015876D01*
X127018537Y-60015500D01*
X151746466Y-60015500D01*
X151755093Y-60015876D01*
X151768357Y-60017037D01*
X151793805Y-60019264D01*
X151793805Y-60019263D01*
X151793807Y-60019264D01*
X151831359Y-60009201D01*
X151839777Y-60007335D01*
X151878045Y-60000588D01*
X151879346Y-59999836D01*
X151903232Y-59989942D01*
X151904684Y-59989554D01*
X151936529Y-59967254D01*
X151943785Y-59962632D01*
X151977455Y-59943194D01*
X152002442Y-59913414D01*
X152008254Y-59907070D01*
X153887066Y-58028258D01*
X153893410Y-58022444D01*
X153923194Y-57997455D01*
X153942632Y-57963785D01*
X153947254Y-57956529D01*
X153969554Y-57924684D01*
X153969942Y-57923232D01*
X153979838Y-57899343D01*
X153980588Y-57898045D01*
X153987335Y-57859777D01*
X153989204Y-57851348D01*
X153989208Y-57851336D01*
X153999264Y-57813807D01*
X153995876Y-57775090D01*
X153995500Y-57766463D01*
X153995500Y-54628526D01*
X153995877Y-54619897D01*
X153999263Y-54581194D01*
X153999263Y-54581193D01*
X153989199Y-54543638D01*
X153987335Y-54535223D01*
X153980589Y-54496958D01*
X153980588Y-54496956D01*
X153980588Y-54496955D01*
X153979834Y-54495650D01*
X153969943Y-54471768D01*
X153969554Y-54470317D01*
X153969554Y-54470316D01*
X153947257Y-54438473D01*
X153942626Y-54431203D01*
X153923193Y-54397543D01*
X153893434Y-54372573D01*
X153887066Y-54366739D01*
X153388502Y-53868175D01*
X153365850Y-53833041D01*
X153359718Y-53791691D01*
X153371199Y-53751498D01*
X153375232Y-53743954D01*
X153435300Y-53545934D01*
X153455583Y-53340000D01*
X153435300Y-53134066D01*
X153375232Y-52936046D01*
X153277685Y-52753550D01*
X153146410Y-52593590D01*
X152986450Y-52462315D01*
X152803954Y-52364768D01*
X152803953Y-52364767D01*
X152803952Y-52364767D01*
X152605933Y-52304699D01*
X152400000Y-52284416D01*
X152194066Y-52304699D01*
X151996047Y-52364767D01*
X151813549Y-52462315D01*
X151653590Y-52593590D01*
X151522315Y-52753549D01*
X151424767Y-52936047D01*
X151364699Y-53134066D01*
X151344416Y-53339999D01*
X151364699Y-53545933D01*
X151424767Y-53743952D01*
X151424768Y-53743954D01*
X151522315Y-53926450D01*
X151653590Y-54086410D01*
X151813550Y-54217685D01*
X151996046Y-54315232D01*
X152194066Y-54375300D01*
X152400000Y-54395583D01*
X152605934Y-54375300D01*
X152692155Y-54349145D01*
X152803952Y-54315233D01*
X152803954Y-54315232D01*
X152811498Y-54311199D01*
X152851691Y-54299718D01*
X152893041Y-54305850D01*
X152928175Y-54328502D01*
X153315504Y-54715831D01*
X153336964Y-54747949D01*
X153344500Y-54785835D01*
X153344500Y-55098277D01*
X153326441Y-55155282D01*
X153278852Y-55191490D01*
X153219096Y-55193691D01*
X153168973Y-55161084D01*
X153146410Y-55133590D01*
X152986450Y-55002315D01*
X152803954Y-54904768D01*
X152803953Y-54904767D01*
X152803952Y-54904767D01*
X152605933Y-54844699D01*
X152400000Y-54824416D01*
X152194066Y-54844699D01*
X151996047Y-54904767D01*
X151813549Y-55002315D01*
X151653590Y-55133590D01*
X151522315Y-55293549D01*
X151424767Y-55476047D01*
X151364699Y-55674066D01*
X151344416Y-55880000D01*
X151364699Y-56085933D01*
X151424767Y-56283952D01*
X151424768Y-56283954D01*
X151522315Y-56466450D01*
X151653590Y-56626410D01*
X151813550Y-56757685D01*
X151898497Y-56803091D01*
X151996045Y-56855232D01*
X152004235Y-56857716D01*
X152040774Y-56878021D01*
X152065675Y-56911595D01*
X152074500Y-56952454D01*
X152074500Y-57609165D01*
X152066964Y-57647051D01*
X152045504Y-57679169D01*
X151024170Y-58700504D01*
X150992052Y-58721964D01*
X150954166Y-58729500D01*
X134160835Y-58729500D01*
X134122949Y-58721964D01*
X134090831Y-58700504D01*
X133150023Y-57759697D01*
X143960000Y-57759697D01*
X143971604Y-57818036D01*
X144015807Y-57884192D01*
X144081963Y-57928395D01*
X144140303Y-57940000D01*
X145059999Y-57940000D01*
X145060000Y-57939999D01*
X145260000Y-57939999D01*
X145260001Y-57940000D01*
X146179697Y-57940000D01*
X146238036Y-57928395D01*
X146304192Y-57884192D01*
X146348395Y-57818036D01*
X146360000Y-57759697D01*
X146360000Y-57090001D01*
X146359999Y-57090000D01*
X145260001Y-57090000D01*
X145260000Y-57090001D01*
X145260000Y-57939999D01*
X145060000Y-57939999D01*
X145060000Y-57090001D01*
X145059999Y-57090000D01*
X143960001Y-57090000D01*
X143960000Y-57090001D01*
X143960000Y-57759697D01*
X133150023Y-57759697D01*
X133069496Y-57679170D01*
X133048036Y-57647052D01*
X133040500Y-57609166D01*
X133040500Y-55759747D01*
X143959500Y-55759747D01*
X143971133Y-55818231D01*
X144015447Y-55884552D01*
X144050517Y-55907985D01*
X144082825Y-55943632D01*
X144094515Y-55990300D01*
X144082826Y-56036967D01*
X144050518Y-56072615D01*
X144015807Y-56095808D01*
X143971604Y-56161963D01*
X143960000Y-56220303D01*
X143960000Y-56889999D01*
X143960001Y-56890000D01*
X146359999Y-56890000D01*
X146360000Y-56889999D01*
X146360000Y-56220303D01*
X146348395Y-56161963D01*
X146304191Y-56095807D01*
X146269482Y-56072615D01*
X146237174Y-56036968D01*
X146225484Y-55990300D01*
X146237174Y-55943631D01*
X146269481Y-55907985D01*
X146304552Y-55884552D01*
X146307594Y-55880000D01*
X148804416Y-55880000D01*
X148824699Y-56085933D01*
X148884767Y-56283952D01*
X148884768Y-56283954D01*
X148982315Y-56466450D01*
X149113590Y-56626410D01*
X149273550Y-56757685D01*
X149456046Y-56855232D01*
X149654066Y-56915300D01*
X149860000Y-56935583D01*
X150065934Y-56915300D01*
X150263954Y-56855232D01*
X150446450Y-56757685D01*
X150606410Y-56626410D01*
X150737685Y-56466450D01*
X150835232Y-56283954D01*
X150895300Y-56085934D01*
X150915583Y-55880000D01*
X150895300Y-55674066D01*
X150835232Y-55476046D01*
X150737685Y-55293550D01*
X150606410Y-55133590D01*
X150446450Y-55002315D01*
X150263954Y-54904768D01*
X150263953Y-54904767D01*
X150263952Y-54904767D01*
X150065933Y-54844699D01*
X149860000Y-54824416D01*
X149654066Y-54844699D01*
X149456047Y-54904767D01*
X149273549Y-55002315D01*
X149113590Y-55133590D01*
X148982315Y-55293549D01*
X148884767Y-55476047D01*
X148824699Y-55674066D01*
X148804416Y-55880000D01*
X146307594Y-55880000D01*
X146348867Y-55818231D01*
X146360500Y-55759748D01*
X146360500Y-54220252D01*
X146348867Y-54161769D01*
X146304552Y-54095448D01*
X146269930Y-54072314D01*
X146237623Y-54036668D01*
X146225933Y-53990000D01*
X146237623Y-53943332D01*
X146269930Y-53907685D01*
X146304552Y-53884552D01*
X146348867Y-53818231D01*
X146360500Y-53759748D01*
X146360500Y-52498790D01*
X146372360Y-52451804D01*
X146405099Y-52416077D01*
X146450872Y-52400167D01*
X146499909Y-52395877D01*
X146508537Y-52395500D01*
X149078277Y-52395500D01*
X149135282Y-52413559D01*
X149171490Y-52461148D01*
X149173691Y-52520904D01*
X149141084Y-52571026D01*
X149113590Y-52593590D01*
X149113588Y-52593592D01*
X148982315Y-52753549D01*
X148884767Y-52936047D01*
X148824699Y-53134066D01*
X148804416Y-53339999D01*
X148824699Y-53545933D01*
X148884767Y-53743952D01*
X148884768Y-53743954D01*
X148982315Y-53926450D01*
X149113590Y-54086410D01*
X149273550Y-54217685D01*
X149456046Y-54315232D01*
X149654066Y-54375300D01*
X149860000Y-54395583D01*
X150065934Y-54375300D01*
X150263954Y-54315232D01*
X150446450Y-54217685D01*
X150606410Y-54086410D01*
X150737685Y-53926450D01*
X150835232Y-53743954D01*
X150895300Y-53545934D01*
X150915583Y-53340000D01*
X150895300Y-53134066D01*
X150835232Y-52936046D01*
X150737685Y-52753550D01*
X150606410Y-52593590D01*
X150490895Y-52498790D01*
X150464822Y-52477392D01*
X150436475Y-52439493D01*
X150428959Y-52392766D01*
X150443992Y-52347890D01*
X150454457Y-52337846D01*
X150452934Y-52336568D01*
X150464156Y-52323194D01*
X150489143Y-52293414D01*
X150494955Y-52287070D01*
X151347072Y-51434954D01*
X151353430Y-51429130D01*
X151396567Y-51392935D01*
X151397845Y-51394458D01*
X151407890Y-51383992D01*
X151452766Y-51368959D01*
X151499493Y-51376475D01*
X151537393Y-51404822D01*
X151653590Y-51546410D01*
X151813550Y-51677685D01*
X151996046Y-51775232D01*
X152165827Y-51826734D01*
X152194066Y-51835300D01*
X152399999Y-51855583D01*
X152399999Y-51855582D01*
X152400000Y-51855583D01*
X152605934Y-51835300D01*
X152803954Y-51775232D01*
X152986450Y-51677685D01*
X153146410Y-51546410D01*
X153277685Y-51386450D01*
X153375232Y-51203954D01*
X153435300Y-51005934D01*
X153455583Y-50800000D01*
X153435300Y-50594066D01*
X153375232Y-50396046D01*
X153277685Y-50213550D01*
X153146410Y-50053590D01*
X152986450Y-49922315D01*
X152803954Y-49824768D01*
X152803953Y-49824767D01*
X152803952Y-49824767D01*
X152605933Y-49764699D01*
X152399999Y-49744416D01*
X152194066Y-49764699D01*
X151996047Y-49824767D01*
X151813549Y-49922315D01*
X151653592Y-50053588D01*
X151653590Y-50053590D01*
X151631026Y-50081084D01*
X151580904Y-50113691D01*
X151521148Y-50111490D01*
X151473559Y-50075282D01*
X151455500Y-50018277D01*
X151455500Y-49548526D01*
X151455877Y-49539897D01*
X151459263Y-49501194D01*
X151459262Y-49501191D01*
X151449199Y-49463638D01*
X151447335Y-49455223D01*
X151440589Y-49416958D01*
X151440588Y-49416956D01*
X151440588Y-49416955D01*
X151439832Y-49415645D01*
X151429943Y-49391768D01*
X151429941Y-49391761D01*
X151429554Y-49390316D01*
X151407257Y-49358473D01*
X151402626Y-49351203D01*
X151383193Y-49317543D01*
X151353434Y-49292573D01*
X151347066Y-49286739D01*
X150848502Y-48788175D01*
X150825850Y-48753041D01*
X150819718Y-48711691D01*
X150831199Y-48671498D01*
X150835232Y-48663954D01*
X150836209Y-48660736D01*
X150895300Y-48465933D01*
X150915583Y-48259999D01*
X151344416Y-48259999D01*
X151364699Y-48465933D01*
X151423792Y-48660737D01*
X151424768Y-48663954D01*
X151522315Y-48846450D01*
X151653590Y-49006410D01*
X151813550Y-49137685D01*
X151996046Y-49235232D01*
X152194066Y-49295300D01*
X152400000Y-49315583D01*
X152605934Y-49295300D01*
X152803954Y-49235232D01*
X152986450Y-49137685D01*
X153146410Y-49006410D01*
X153277685Y-48846450D01*
X153375232Y-48663954D01*
X153435300Y-48465934D01*
X153455583Y-48260000D01*
X153437097Y-48072316D01*
X153435300Y-48054066D01*
X153434410Y-48051133D01*
X153375232Y-47856046D01*
X153277685Y-47673550D01*
X153146410Y-47513590D01*
X152986450Y-47382315D01*
X152803954Y-47284768D01*
X152803953Y-47284767D01*
X152803952Y-47284767D01*
X152605933Y-47224699D01*
X152400000Y-47204416D01*
X152194066Y-47224699D01*
X151996047Y-47284767D01*
X151813549Y-47382315D01*
X151653590Y-47513590D01*
X151522315Y-47673549D01*
X151424767Y-47856047D01*
X151364699Y-48054066D01*
X151344416Y-48259999D01*
X150915583Y-48259999D01*
X150895300Y-48054066D01*
X150894410Y-48051133D01*
X150835232Y-47856046D01*
X150737685Y-47673550D01*
X150606410Y-47513590D01*
X150446450Y-47382315D01*
X150263954Y-47284768D01*
X150263953Y-47284767D01*
X150263952Y-47284767D01*
X150065933Y-47224699D01*
X149860000Y-47204416D01*
X149654066Y-47224699D01*
X149456047Y-47284767D01*
X149273549Y-47382315D01*
X149113590Y-47513590D01*
X148982315Y-47673549D01*
X148884767Y-47856047D01*
X148824699Y-48054066D01*
X148804416Y-48259999D01*
X148824699Y-48465933D01*
X148883792Y-48660737D01*
X148884768Y-48663954D01*
X148982315Y-48846450D01*
X149113590Y-49006410D01*
X149273550Y-49137685D01*
X149456046Y-49235232D01*
X149654066Y-49295300D01*
X149860000Y-49315583D01*
X150065934Y-49295300D01*
X150152155Y-49269145D01*
X150263952Y-49235233D01*
X150263954Y-49235232D01*
X150271498Y-49231199D01*
X150311691Y-49219718D01*
X150353041Y-49225850D01*
X150388175Y-49248502D01*
X150775504Y-49635831D01*
X150796964Y-49667949D01*
X150804500Y-49705835D01*
X150804500Y-50018277D01*
X150786441Y-50075282D01*
X150738852Y-50111490D01*
X150679096Y-50113691D01*
X150628973Y-50081084D01*
X150606410Y-50053590D01*
X150446450Y-49922315D01*
X150263954Y-49824768D01*
X150263953Y-49824767D01*
X150263952Y-49824767D01*
X150065933Y-49764699D01*
X149859999Y-49744416D01*
X149654066Y-49764699D01*
X149456045Y-49824767D01*
X149448492Y-49828805D01*
X149408299Y-49840281D01*
X149366953Y-49834147D01*
X149331823Y-49811497D01*
X148293268Y-48772942D01*
X148287434Y-48766574D01*
X148262454Y-48736805D01*
X148228794Y-48717370D01*
X148221514Y-48712732D01*
X148189685Y-48690446D01*
X148188225Y-48690055D01*
X148164352Y-48680166D01*
X148163045Y-48679412D01*
X148163043Y-48679411D01*
X148163042Y-48679411D01*
X148124778Y-48672663D01*
X148116350Y-48670795D01*
X148078807Y-48660735D01*
X148043330Y-48663839D01*
X148040093Y-48664123D01*
X148031466Y-48664500D01*
X146459500Y-48664500D01*
X146410000Y-48651237D01*
X146373763Y-48615000D01*
X146360500Y-48565500D01*
X146360500Y-48220253D01*
X146360500Y-48220252D01*
X146348867Y-48161769D01*
X146304552Y-48095448D01*
X146269930Y-48072314D01*
X146237623Y-48036668D01*
X146225933Y-47990000D01*
X146237623Y-47943332D01*
X146269930Y-47907685D01*
X146304552Y-47884552D01*
X146348867Y-47818231D01*
X146360500Y-47759748D01*
X146360500Y-46220252D01*
X146348867Y-46161769D01*
X146304552Y-46095448D01*
X146269930Y-46072314D01*
X146237623Y-46036668D01*
X146225933Y-45990000D01*
X146237623Y-45943332D01*
X146269930Y-45907685D01*
X146304552Y-45884552D01*
X146347685Y-45820000D01*
X148814767Y-45820000D01*
X148825191Y-45925835D01*
X148885231Y-46123763D01*
X148982730Y-46306170D01*
X149113945Y-46466054D01*
X149273829Y-46597269D01*
X149456236Y-46694768D01*
X149654164Y-46754808D01*
X149759999Y-46765232D01*
X149760000Y-46765232D01*
X149960000Y-46765232D01*
X150065835Y-46754808D01*
X150263763Y-46694768D01*
X150446170Y-46597269D01*
X150606054Y-46466054D01*
X150737269Y-46306170D01*
X150834768Y-46123763D01*
X150894808Y-45925835D01*
X150905232Y-45820000D01*
X151354767Y-45820000D01*
X151365191Y-45925835D01*
X151425231Y-46123763D01*
X151522730Y-46306170D01*
X151653945Y-46466054D01*
X151813829Y-46597269D01*
X151996236Y-46694768D01*
X152194164Y-46754808D01*
X152299999Y-46765232D01*
X152300000Y-46765232D01*
X152500000Y-46765232D01*
X152605835Y-46754808D01*
X152803763Y-46694768D01*
X152986170Y-46597269D01*
X153146054Y-46466054D01*
X153277269Y-46306170D01*
X153374768Y-46123763D01*
X153434808Y-45925835D01*
X153445232Y-45820000D01*
X152500001Y-45820000D01*
X152500000Y-45820001D01*
X152500000Y-46765232D01*
X152300000Y-46765232D01*
X152300000Y-45820001D01*
X152299999Y-45820000D01*
X151354767Y-45820000D01*
X150905232Y-45820000D01*
X149960001Y-45820000D01*
X149960000Y-45820001D01*
X149960000Y-46765232D01*
X149760000Y-46765232D01*
X149760000Y-45820001D01*
X149759999Y-45820000D01*
X148814767Y-45820000D01*
X146347685Y-45820000D01*
X146348867Y-45818231D01*
X146360500Y-45759748D01*
X146360500Y-45619999D01*
X148814767Y-45619999D01*
X148814768Y-45620000D01*
X149759999Y-45620000D01*
X149760000Y-45619999D01*
X149760000Y-44674768D01*
X149759999Y-44674767D01*
X149960000Y-44674767D01*
X149960000Y-45619999D01*
X149960001Y-45620000D01*
X150905232Y-45620000D01*
X150905232Y-45619999D01*
X151354767Y-45619999D01*
X151354768Y-45620000D01*
X152299999Y-45620000D01*
X152300000Y-45619999D01*
X152300000Y-44674768D01*
X152299999Y-44674767D01*
X152500000Y-44674767D01*
X152500000Y-45619999D01*
X152500001Y-45620000D01*
X153445232Y-45620000D01*
X153445232Y-45619999D01*
X153434808Y-45514164D01*
X153374768Y-45316236D01*
X153277269Y-45133829D01*
X153146054Y-44973945D01*
X152986170Y-44842730D01*
X152803763Y-44745231D01*
X152605835Y-44685191D01*
X152500000Y-44674767D01*
X152299999Y-44674767D01*
X152194164Y-44685191D01*
X151996236Y-44745231D01*
X151813829Y-44842730D01*
X151653945Y-44973945D01*
X151522730Y-45133829D01*
X151425231Y-45316236D01*
X151365191Y-45514164D01*
X151354767Y-45619999D01*
X150905232Y-45619999D01*
X150894808Y-45514164D01*
X150834768Y-45316236D01*
X150737269Y-45133829D01*
X150606054Y-44973945D01*
X150446170Y-44842730D01*
X150263763Y-44745231D01*
X150065835Y-44685191D01*
X149960000Y-44674767D01*
X149759999Y-44674767D01*
X149654164Y-44685191D01*
X149456236Y-44745231D01*
X149273829Y-44842730D01*
X149113945Y-44973945D01*
X148982730Y-45133829D01*
X148885231Y-45316236D01*
X148825191Y-45514164D01*
X148814767Y-45619999D01*
X146360500Y-45619999D01*
X146360500Y-44220252D01*
X146348867Y-44161769D01*
X146304552Y-44095448D01*
X146304551Y-44095447D01*
X146269482Y-44072014D01*
X146237173Y-44036366D01*
X146225484Y-43989698D01*
X146237174Y-43943030D01*
X146269483Y-43907383D01*
X146304192Y-43884191D01*
X146348395Y-43818036D01*
X146360000Y-43759697D01*
X146360000Y-43090001D01*
X146359999Y-43090000D01*
X143960001Y-43090000D01*
X143960000Y-43090001D01*
X143960000Y-43759697D01*
X143971604Y-43818036D01*
X144015807Y-43884192D01*
X144050517Y-43907384D01*
X144082825Y-43943030D01*
X144094515Y-43989698D01*
X144082826Y-44036366D01*
X144050518Y-44072013D01*
X144015448Y-44095446D01*
X143971133Y-44161768D01*
X143971132Y-44161769D01*
X143971133Y-44161769D01*
X143959776Y-44218867D01*
X143959500Y-44220253D01*
X143959500Y-45759747D01*
X143971133Y-45818231D01*
X144015447Y-45884552D01*
X144050068Y-45907685D01*
X144082376Y-45943332D01*
X144094066Y-45990000D01*
X144082376Y-46036668D01*
X144050068Y-46072315D01*
X144015447Y-46095447D01*
X143971133Y-46161768D01*
X143959500Y-46220253D01*
X143959500Y-47759747D01*
X143971133Y-47818231D01*
X144015447Y-47884552D01*
X144050068Y-47907685D01*
X144082376Y-47943332D01*
X144094066Y-47990000D01*
X144082376Y-48036668D01*
X144050068Y-48072315D01*
X144015447Y-48095447D01*
X143971133Y-48161768D01*
X143959500Y-48220253D01*
X143959500Y-49759747D01*
X143971133Y-49818231D01*
X144015447Y-49884552D01*
X144050068Y-49907685D01*
X144082376Y-49943332D01*
X144094066Y-49990000D01*
X144082376Y-50036668D01*
X144050068Y-50072315D01*
X144015447Y-50095447D01*
X143971133Y-50161768D01*
X143959500Y-50220253D01*
X143959500Y-51759747D01*
X143971133Y-51818231D01*
X144015447Y-51884552D01*
X144050068Y-51907685D01*
X144082376Y-51943332D01*
X144094066Y-51990000D01*
X144082376Y-52036668D01*
X144050068Y-52072315D01*
X144015447Y-52095447D01*
X143971133Y-52161768D01*
X143971132Y-52161769D01*
X143971133Y-52161769D01*
X143961948Y-52207948D01*
X143959500Y-52220253D01*
X143959500Y-53759747D01*
X143971133Y-53818231D01*
X144015447Y-53884552D01*
X144050068Y-53907685D01*
X144082376Y-53943332D01*
X144094066Y-53990000D01*
X144082376Y-54036668D01*
X144050068Y-54072315D01*
X144015447Y-54095447D01*
X143971133Y-54161768D01*
X143959500Y-54220253D01*
X143959500Y-55759747D01*
X133040500Y-55759747D01*
X133040500Y-52088534D01*
X133040877Y-52079904D01*
X133044264Y-52041193D01*
X133034205Y-52003655D01*
X133032335Y-51995220D01*
X133031415Y-51990000D01*
X133025588Y-51956955D01*
X133024834Y-51955650D01*
X133014943Y-51931768D01*
X133014942Y-51931765D01*
X133014554Y-51930316D01*
X132992260Y-51898477D01*
X132987633Y-51891215D01*
X132968194Y-51857545D01*
X132938428Y-51832568D01*
X132932060Y-51826734D01*
X131878268Y-50772942D01*
X131872434Y-50766574D01*
X131847454Y-50736805D01*
X131813794Y-50717370D01*
X131806514Y-50712732D01*
X131774685Y-50690446D01*
X131773225Y-50690055D01*
X131749352Y-50680166D01*
X131748045Y-50679412D01*
X131748043Y-50679411D01*
X131748042Y-50679411D01*
X131709778Y-50672663D01*
X131701350Y-50670795D01*
X131663807Y-50660735D01*
X131628330Y-50663839D01*
X131625093Y-50664123D01*
X131616466Y-50664500D01*
X130459500Y-50664500D01*
X130410000Y-50651237D01*
X130373763Y-50615000D01*
X130360500Y-50565500D01*
X130360500Y-50220253D01*
X130359167Y-50213550D01*
X130348867Y-50161769D01*
X130304552Y-50095448D01*
X130269930Y-50072314D01*
X130237623Y-50036668D01*
X130225933Y-49990000D01*
X130237623Y-49943332D01*
X130269930Y-49907685D01*
X130304552Y-49884552D01*
X130348867Y-49818231D01*
X130360500Y-49759748D01*
X130360500Y-48220252D01*
X130348867Y-48161769D01*
X130304552Y-48095448D01*
X130269930Y-48072314D01*
X130237623Y-48036668D01*
X130225933Y-47990000D01*
X130237623Y-47943332D01*
X130269930Y-47907685D01*
X130304552Y-47884552D01*
X130348867Y-47818231D01*
X130360500Y-47759748D01*
X130360500Y-47414500D01*
X130373763Y-47365000D01*
X130410000Y-47328763D01*
X130459500Y-47315500D01*
X132061466Y-47315500D01*
X132070093Y-47315876D01*
X132083357Y-47317037D01*
X132108805Y-47319264D01*
X132108805Y-47319263D01*
X132108807Y-47319264D01*
X132146359Y-47309201D01*
X132154777Y-47307335D01*
X132193045Y-47300588D01*
X132194346Y-47299836D01*
X132218232Y-47289942D01*
X132219684Y-47289554D01*
X132251529Y-47267254D01*
X132258785Y-47262632D01*
X132292455Y-47243194D01*
X132317442Y-47213414D01*
X132323254Y-47207070D01*
X135874566Y-43655758D01*
X135880910Y-43649944D01*
X135910694Y-43624955D01*
X135930132Y-43591285D01*
X135934754Y-43584029D01*
X135957054Y-43552184D01*
X135957442Y-43550732D01*
X135967338Y-43526843D01*
X135968088Y-43525545D01*
X135974835Y-43487277D01*
X135976701Y-43478859D01*
X135986764Y-43441307D01*
X135983376Y-43402593D01*
X135983000Y-43393966D01*
X135983000Y-42889999D01*
X143960000Y-42889999D01*
X143960001Y-42890000D01*
X145059999Y-42890000D01*
X145060000Y-42889999D01*
X145260000Y-42889999D01*
X145260001Y-42890000D01*
X146359999Y-42890000D01*
X146360000Y-42889999D01*
X146360000Y-42220303D01*
X146348395Y-42161963D01*
X146304192Y-42095807D01*
X146238036Y-42051604D01*
X146179697Y-42040000D01*
X145260001Y-42040000D01*
X145260000Y-42040001D01*
X145260000Y-42889999D01*
X145060000Y-42889999D01*
X145060000Y-42040001D01*
X145059999Y-42040000D01*
X144140303Y-42040000D01*
X144081963Y-42051604D01*
X144015807Y-42095807D01*
X143971604Y-42161963D01*
X143960000Y-42220303D01*
X143960000Y-42889999D01*
X135983000Y-42889999D01*
X135983000Y-40391864D01*
X135994763Y-40345060D01*
X136027255Y-40309377D01*
X136072753Y-40293297D01*
X136079699Y-40292646D01*
X136207882Y-40247793D01*
X136317150Y-40167150D01*
X136397793Y-40057882D01*
X136442646Y-39929699D01*
X136445500Y-39899266D01*
X136445500Y-39794500D01*
X136458763Y-39745000D01*
X136495000Y-39708763D01*
X136544500Y-39695500D01*
X136738000Y-39695500D01*
X136787500Y-39708763D01*
X136823737Y-39745000D01*
X136837000Y-39794500D01*
X136837000Y-39899270D01*
X136839853Y-39929695D01*
X136839853Y-39929697D01*
X136839854Y-39929699D01*
X136884707Y-40057882D01*
X136965350Y-40167150D01*
X137074618Y-40247793D01*
X137202801Y-40292646D01*
X137215843Y-40293869D01*
X137233230Y-40295500D01*
X137233234Y-40295500D01*
X138016766Y-40295500D01*
X138016770Y-40295500D01*
X138037539Y-40293552D01*
X138080353Y-40298984D01*
X138116788Y-40322115D01*
X138651741Y-40857068D01*
X138657565Y-40863424D01*
X138682545Y-40893194D01*
X138682547Y-40893195D01*
X138716203Y-40912627D01*
X138723473Y-40917257D01*
X138755316Y-40939554D01*
X138756761Y-40939941D01*
X138756768Y-40939943D01*
X138780650Y-40949834D01*
X138781955Y-40950588D01*
X138781956Y-40950588D01*
X138781958Y-40950589D01*
X138807029Y-40955008D01*
X138820228Y-40957336D01*
X138828638Y-40959199D01*
X138866193Y-40969263D01*
X138866193Y-40969262D01*
X138866194Y-40969263D01*
X138888978Y-40967269D01*
X138904897Y-40965876D01*
X138913525Y-40965500D01*
X147144166Y-40965500D01*
X147182052Y-40973036D01*
X147214170Y-40994496D01*
X148780504Y-42560831D01*
X148801964Y-42592949D01*
X148809500Y-42630835D01*
X148809500Y-44049748D01*
X148811079Y-44057684D01*
X148821133Y-44108231D01*
X148865447Y-44174552D01*
X148909762Y-44204162D01*
X148931769Y-44218867D01*
X148990252Y-44230500D01*
X150729747Y-44230500D01*
X150729748Y-44230500D01*
X150788231Y-44218867D01*
X150854552Y-44174552D01*
X150898867Y-44108231D01*
X150910500Y-44049748D01*
X150910500Y-43604500D01*
X150923763Y-43555000D01*
X150960000Y-43518763D01*
X151009500Y-43505500D01*
X151327546Y-43505500D01*
X151368405Y-43514325D01*
X151401979Y-43539226D01*
X151422284Y-43575765D01*
X151424767Y-43583954D01*
X151463154Y-43655769D01*
X151522315Y-43766450D01*
X151653590Y-43926410D01*
X151813550Y-44057685D01*
X151996046Y-44155232D01*
X152194066Y-44215300D01*
X152400000Y-44235583D01*
X152605934Y-44215300D01*
X152803954Y-44155232D01*
X152986450Y-44057685D01*
X153146410Y-43926410D01*
X153277685Y-43766450D01*
X153375232Y-43583954D01*
X153435300Y-43385934D01*
X153455583Y-43180000D01*
X153435300Y-42974066D01*
X153375232Y-42776046D01*
X153277685Y-42593550D01*
X153146410Y-42433590D01*
X152986450Y-42302315D01*
X152803954Y-42204768D01*
X152803953Y-42204767D01*
X152803952Y-42204767D01*
X152605933Y-42144699D01*
X152400000Y-42124416D01*
X152194066Y-42144699D01*
X151996047Y-42204767D01*
X151813549Y-42302315D01*
X151653590Y-42433590D01*
X151522315Y-42593549D01*
X151424767Y-42776045D01*
X151422284Y-42784235D01*
X151401979Y-42820774D01*
X151368405Y-42845675D01*
X151327546Y-42854500D01*
X151009500Y-42854500D01*
X150960000Y-42841237D01*
X150923763Y-42805000D01*
X150910500Y-42755500D01*
X150910500Y-42310253D01*
X150908921Y-42302315D01*
X150898867Y-42251769D01*
X150877808Y-42220252D01*
X150854552Y-42185447D01*
X150788231Y-42141133D01*
X150788230Y-42141132D01*
X150729748Y-42129500D01*
X150729747Y-42129500D01*
X149310835Y-42129500D01*
X149272949Y-42121964D01*
X149240831Y-42100504D01*
X147563268Y-40422942D01*
X147557434Y-40416574D01*
X147532454Y-40386805D01*
X147498794Y-40367370D01*
X147491514Y-40362732D01*
X147459685Y-40340446D01*
X147458225Y-40340055D01*
X147434352Y-40330166D01*
X147433045Y-40329412D01*
X147433043Y-40329411D01*
X147433042Y-40329411D01*
X147394778Y-40322663D01*
X147386350Y-40320795D01*
X147348807Y-40310735D01*
X147313330Y-40313839D01*
X147310093Y-40314123D01*
X147301466Y-40314500D01*
X140446386Y-40314500D01*
X140394501Y-40299814D01*
X140358009Y-40260115D01*
X140347736Y-40207179D01*
X140366731Y-40156711D01*
X140439845Y-40057645D01*
X140484649Y-39929601D01*
X140487500Y-39899208D01*
X140487500Y-39470001D01*
X140487499Y-39470000D01*
X138912502Y-39470000D01*
X138912501Y-39470001D01*
X138912501Y-39899200D01*
X138915351Y-39929604D01*
X138917649Y-39936172D01*
X138921192Y-39988728D01*
X138897277Y-40035662D01*
X138852676Y-40063686D01*
X138800014Y-40064868D01*
X138754201Y-40038873D01*
X138441997Y-39726670D01*
X138420536Y-39694552D01*
X138413000Y-39656666D01*
X138413000Y-39269999D01*
X138912500Y-39269999D01*
X138912501Y-39270000D01*
X139599999Y-39270000D01*
X139600000Y-39269999D01*
X139800000Y-39269999D01*
X139800001Y-39270000D01*
X140487498Y-39270000D01*
X140487499Y-39269999D01*
X140487499Y-38840800D01*
X140484648Y-38810395D01*
X140439845Y-38682354D01*
X140359291Y-38573208D01*
X140250145Y-38492654D01*
X140122101Y-38447850D01*
X140091708Y-38445000D01*
X139800001Y-38445000D01*
X139800000Y-38445001D01*
X139800000Y-39269999D01*
X139600000Y-39269999D01*
X139600000Y-38445002D01*
X139599999Y-38445001D01*
X139308300Y-38445001D01*
X139277895Y-38447851D01*
X139149854Y-38492654D01*
X139040708Y-38573208D01*
X138960154Y-38682354D01*
X138915350Y-38810398D01*
X138912500Y-38840792D01*
X138912500Y-39269999D01*
X138413000Y-39269999D01*
X138413000Y-38840730D01*
X138410146Y-38810304D01*
X138410146Y-38810301D01*
X138365293Y-38682118D01*
X138284650Y-38572850D01*
X138175382Y-38492207D01*
X138047199Y-38447354D01*
X138047197Y-38447353D01*
X138047195Y-38447353D01*
X138016770Y-38444500D01*
X138016766Y-38444500D01*
X137233234Y-38444500D01*
X137233230Y-38444500D01*
X137202804Y-38447353D01*
X137202801Y-38447353D01*
X137202801Y-38447354D01*
X137074618Y-38492207D01*
X137074617Y-38492207D01*
X137074616Y-38492208D01*
X137074012Y-38492654D01*
X136965350Y-38572850D01*
X136884707Y-38682118D01*
X136839854Y-38810301D01*
X136839853Y-38810304D01*
X136837000Y-38840730D01*
X136837000Y-38945500D01*
X136823737Y-38995000D01*
X136787500Y-39031237D01*
X136738000Y-39044500D01*
X136544500Y-39044500D01*
X136495000Y-39031237D01*
X136458763Y-38995000D01*
X136445500Y-38945500D01*
X136445500Y-38840730D01*
X136442646Y-38810304D01*
X136442646Y-38810301D01*
X136397793Y-38682118D01*
X136317150Y-38572850D01*
X136207882Y-38492207D01*
X136079699Y-38447354D01*
X136079697Y-38447353D01*
X136079695Y-38447353D01*
X136049270Y-38444500D01*
X136049266Y-38444500D01*
X135265734Y-38444500D01*
X135265730Y-38444500D01*
X135235304Y-38447353D01*
X135235301Y-38447353D01*
X135235301Y-38447354D01*
X135107118Y-38492207D01*
X135107117Y-38492207D01*
X135107116Y-38492208D01*
X135106512Y-38492654D01*
X134997850Y-38572850D01*
X134917207Y-38682118D01*
X134872354Y-38810301D01*
X134872353Y-38810304D01*
X134869500Y-38840730D01*
X134869500Y-39899270D01*
X134872353Y-39929695D01*
X134872353Y-39929697D01*
X134872354Y-39929699D01*
X134917207Y-40057882D01*
X134997850Y-40167150D01*
X135107118Y-40247793D01*
X135235301Y-40292646D01*
X135242246Y-40293297D01*
X135287745Y-40309377D01*
X135320237Y-40345060D01*
X135332000Y-40391864D01*
X135332000Y-43236666D01*
X135324464Y-43274552D01*
X135303004Y-43306670D01*
X131974170Y-46635504D01*
X131942052Y-46656964D01*
X131904166Y-46664500D01*
X130459500Y-46664500D01*
X130410000Y-46651237D01*
X130373763Y-46615000D01*
X130360500Y-46565500D01*
X130360500Y-46220253D01*
X130360500Y-46220252D01*
X130348867Y-46161769D01*
X130304552Y-46095448D01*
X130304551Y-46095447D01*
X130269482Y-46072014D01*
X130237173Y-46036366D01*
X130225484Y-45989698D01*
X130237174Y-45943030D01*
X130269483Y-45907383D01*
X130304192Y-45884191D01*
X130348395Y-45818036D01*
X130360000Y-45759697D01*
X130360000Y-45090001D01*
X130359999Y-45090000D01*
X127960001Y-45090000D01*
X127960000Y-45090001D01*
X127960000Y-45759697D01*
X127971604Y-45818036D01*
X128015807Y-45884192D01*
X128050517Y-45907384D01*
X128082825Y-45943030D01*
X128094515Y-45989698D01*
X128082826Y-46036366D01*
X128050518Y-46072013D01*
X128015448Y-46095446D01*
X127971133Y-46161768D01*
X127959500Y-46220253D01*
X127959500Y-47759747D01*
X127971133Y-47818231D01*
X128015447Y-47884552D01*
X128050068Y-47907685D01*
X128082376Y-47943332D01*
X128094066Y-47990000D01*
X128082376Y-48036668D01*
X128050068Y-48072315D01*
X128015447Y-48095447D01*
X127971133Y-48161768D01*
X127959500Y-48220253D01*
X127959500Y-48565500D01*
X127946237Y-48615000D01*
X127910000Y-48651237D01*
X127860500Y-48664500D01*
X125653523Y-48664500D01*
X125644894Y-48664123D01*
X125641509Y-48663826D01*
X125606192Y-48660736D01*
X125568656Y-48670794D01*
X125560227Y-48672663D01*
X125521954Y-48679412D01*
X125520645Y-48680168D01*
X125496780Y-48690053D01*
X125495318Y-48690444D01*
X125463484Y-48712734D01*
X125456205Y-48717371D01*
X125422543Y-48736806D01*
X125397573Y-48766564D01*
X125391741Y-48772930D01*
X124877940Y-49286732D01*
X124871574Y-49292565D01*
X124841804Y-49317545D01*
X124822371Y-49351204D01*
X124817734Y-49358484D01*
X124795444Y-49390318D01*
X124795053Y-49391780D01*
X124785168Y-49415645D01*
X124784410Y-49416956D01*
X124777662Y-49455223D01*
X124775794Y-49463649D01*
X124765735Y-49501191D01*
X124769123Y-49539904D01*
X124769500Y-49548534D01*
X124769500Y-57766466D01*
X124769123Y-57775096D01*
X124765735Y-57813807D01*
X118135500Y-57813807D01*
X118135500Y-43859747D01*
X119599500Y-43859747D01*
X119611133Y-43918231D01*
X119655447Y-43984552D01*
X119663149Y-43989698D01*
X119721769Y-44028867D01*
X119780252Y-44040500D01*
X121519747Y-44040500D01*
X121519748Y-44040500D01*
X121578231Y-44028867D01*
X121644552Y-43984552D01*
X121688867Y-43918231D01*
X121700500Y-43859748D01*
X121700500Y-43464500D01*
X121713763Y-43415000D01*
X121750000Y-43378763D01*
X121799500Y-43365500D01*
X127860500Y-43365500D01*
X127910000Y-43378763D01*
X127946237Y-43415000D01*
X127959500Y-43464500D01*
X127959500Y-43759747D01*
X127971133Y-43818231D01*
X128015447Y-43884552D01*
X128050517Y-43907985D01*
X128082825Y-43943632D01*
X128094515Y-43990300D01*
X128082826Y-44036967D01*
X128050518Y-44072615D01*
X128015807Y-44095808D01*
X127971604Y-44161963D01*
X127960000Y-44220303D01*
X127960000Y-44889999D01*
X127960001Y-44890000D01*
X130359999Y-44890000D01*
X130360000Y-44889999D01*
X130360000Y-44220303D01*
X130348395Y-44161963D01*
X130304191Y-44095807D01*
X130269482Y-44072615D01*
X130237174Y-44036968D01*
X130225484Y-43990300D01*
X130237174Y-43943631D01*
X130269481Y-43907985D01*
X130304552Y-43884552D01*
X130348867Y-43818231D01*
X130360500Y-43759748D01*
X130360500Y-42220252D01*
X130348867Y-42161769D01*
X130322270Y-42121964D01*
X130304552Y-42095447D01*
X130238231Y-42051133D01*
X130238230Y-42051132D01*
X130179748Y-42039500D01*
X128140252Y-42039500D01*
X128111010Y-42045316D01*
X128081768Y-42051133D01*
X128015447Y-42095447D01*
X127971133Y-42161768D01*
X127959500Y-42220253D01*
X127959500Y-42515500D01*
X127946237Y-42565000D01*
X127910000Y-42601237D01*
X127860500Y-42614500D01*
X121799500Y-42614500D01*
X121750000Y-42601237D01*
X121713763Y-42565000D01*
X121700500Y-42515500D01*
X121700500Y-42120253D01*
X121700500Y-42120252D01*
X121688867Y-42061769D01*
X121673987Y-42039500D01*
X121644552Y-41995447D01*
X121578231Y-41951133D01*
X121578230Y-41951132D01*
X121519748Y-41939500D01*
X119780252Y-41939500D01*
X119751010Y-41945316D01*
X119721768Y-41951133D01*
X119655447Y-41995447D01*
X119611133Y-42061768D01*
X119599500Y-42120253D01*
X119599500Y-43859747D01*
X118135500Y-43859747D01*
X118135500Y-39899200D01*
X132795001Y-39899200D01*
X132797851Y-39929604D01*
X132842654Y-40057645D01*
X132923208Y-40166791D01*
X133032354Y-40247345D01*
X133160398Y-40292149D01*
X133190792Y-40295000D01*
X133482499Y-40295000D01*
X133482500Y-40294999D01*
X133482500Y-40294998D01*
X133682500Y-40294998D01*
X133682501Y-40294999D01*
X133974200Y-40294999D01*
X134004604Y-40292148D01*
X134132645Y-40247345D01*
X134241791Y-40166791D01*
X134322345Y-40057645D01*
X134367149Y-39929601D01*
X134370000Y-39899208D01*
X134370000Y-39470001D01*
X134369999Y-39470000D01*
X133682501Y-39470000D01*
X133682500Y-39470001D01*
X133682500Y-40294998D01*
X133482500Y-40294998D01*
X133482500Y-39470001D01*
X133482499Y-39470000D01*
X132795002Y-39470000D01*
X132795001Y-39470001D01*
X132795001Y-39899200D01*
X118135500Y-39899200D01*
X118135500Y-39269999D01*
X132795000Y-39269999D01*
X132795001Y-39270000D01*
X133482499Y-39270000D01*
X133482500Y-39269999D01*
X133682500Y-39269999D01*
X133682501Y-39270000D01*
X134369998Y-39270000D01*
X134369999Y-39269999D01*
X134369999Y-38840800D01*
X134367148Y-38810395D01*
X134322345Y-38682354D01*
X134241791Y-38573208D01*
X134132645Y-38492654D01*
X134004601Y-38447850D01*
X133974208Y-38445000D01*
X133682501Y-38445000D01*
X133682500Y-38445001D01*
X133682500Y-39269999D01*
X133482500Y-39269999D01*
X133482500Y-38445002D01*
X133482499Y-38445001D01*
X133190800Y-38445001D01*
X133160395Y-38447851D01*
X133032354Y-38492654D01*
X132923208Y-38573208D01*
X132842654Y-38682354D01*
X132797850Y-38810398D01*
X132795000Y-38840792D01*
X132795000Y-39269999D01*
X118135500Y-39269999D01*
X118135500Y-38224500D01*
X118148763Y-38175000D01*
X118185000Y-38138763D01*
X118234500Y-38125500D01*
X156085500Y-38125500D01*
X156135000Y-38138763D01*
G37*
%TD.AperFunction*%
%TD*%
M02*
