%TF.GenerationSoftware,KiCad,Pcbnew,7.0.1*%
%TF.CreationDate,2023-04-28T09:34:28+02:00*%
%TF.ProjectId,RA01_ANT,52413031-5f41-44e5-942e-6b696361645f,rev?*%
%TF.SameCoordinates,Original*%
%TF.FileFunction,Copper,L2,Bot*%
%TF.FilePolarity,Positive*%
%FSLAX46Y46*%
G04 Gerber Fmt 4.6, Leading zero omitted, Abs format (unit mm)*
G04 Created by KiCad (PCBNEW 7.0.1) date 2023-04-28 09:34:28*
%MOMM*%
%LPD*%
G01*
G04 APERTURE LIST*
%TA.AperFunction,ComponentPad*%
%ADD10R,1.700000X1.700000*%
%TD*%
%TA.AperFunction,ComponentPad*%
%ADD11O,1.700000X1.700000*%
%TD*%
%TA.AperFunction,ViaPad*%
%ADD12C,0.800000*%
%TD*%
%TA.AperFunction,Conductor*%
%ADD13C,0.250000*%
%TD*%
G04 APERTURE END LIST*
D10*
%TO.P,J1,1,Pin_1*%
%TO.N,VCC*%
X149860000Y-43180000D03*
D11*
%TO.P,J1,2,Pin_2*%
X152400000Y-43180000D03*
%TO.P,J1,3,Pin_3*%
%TO.N,GND*%
X149860000Y-45720000D03*
%TO.P,J1,4,Pin_4*%
X152400000Y-45720000D03*
%TO.P,J1,5,Pin_5*%
%TO.N,SCK*%
X149860000Y-48260000D03*
%TO.P,J1,6,Pin_6*%
%TO.N,unconnected-(J1-Pin_6-Pad6)*%
X152400000Y-48260000D03*
%TO.P,J1,7,Pin_7*%
%TO.N,MISO*%
X149860000Y-50800000D03*
%TO.P,J1,8,Pin_8*%
%TO.N,unconnected-(J1-Pin_8-Pad8)*%
X152400000Y-50800000D03*
%TO.P,J1,9,Pin_9*%
%TO.N,MOSI*%
X149860000Y-53340000D03*
%TO.P,J1,10,Pin_10*%
%TO.N,nRESET*%
X152400000Y-53340000D03*
%TO.P,J1,11,Pin_11*%
%TO.N,nCS*%
X149860000Y-55880000D03*
%TO.P,J1,12,Pin_12*%
%TO.N,DIO0*%
X152400000Y-55880000D03*
%TD*%
D10*
%TO.P,J2,1,Pin_1*%
%TO.N,Net-(J2-Pin_1)*%
X120650000Y-42990000D03*
%TD*%
D12*
%TO.N,GND*%
X131445000Y-55880000D03*
X126365000Y-55880000D03*
%TO.N,nCS*%
X145160000Y-44990000D03*
%TO.N,MOSI*%
X145160000Y-46990000D03*
%TD*%
D13*
%TO.N,nCS*%
X151035000Y-54705000D02*
X151035000Y-47530000D01*
X149860000Y-55880000D02*
X151035000Y-54705000D01*
X151035000Y-47530000D02*
X150400000Y-46895000D01*
X148495000Y-46895000D02*
X146590000Y-44990000D01*
X146590000Y-44990000D02*
X145160000Y-44990000D01*
X150400000Y-46895000D02*
X148495000Y-46895000D01*
%TO.N,MOSI*%
X149860000Y-53340000D02*
X147955000Y-51435000D01*
X146685000Y-46990000D02*
X145160000Y-46990000D01*
X147955000Y-48260000D02*
X146685000Y-46990000D01*
X147955000Y-51435000D02*
X147955000Y-48260000D01*
%TD*%
%TA.AperFunction,Conductor*%
%TO.N,GND*%
G36*
X156135000Y-38138763D02*
G01*
X156171237Y-38175000D01*
X156184500Y-38224500D01*
X156184500Y-60835500D01*
X156171237Y-60885000D01*
X156135000Y-60921237D01*
X156085500Y-60934500D01*
X118234500Y-60934500D01*
X118185000Y-60921237D01*
X118148763Y-60885000D01*
X118135500Y-60835500D01*
X118135500Y-46990000D01*
X144554318Y-46990000D01*
X144574955Y-47146761D01*
X144635464Y-47292841D01*
X144731717Y-47418282D01*
X144790849Y-47463655D01*
X144857159Y-47514536D01*
X145003238Y-47575044D01*
X145160000Y-47595682D01*
X145316762Y-47575044D01*
X145462841Y-47514536D01*
X145588282Y-47418282D01*
X145609742Y-47390315D01*
X145637429Y-47354233D01*
X145672184Y-47325710D01*
X145715971Y-47315500D01*
X146509166Y-47315500D01*
X146547052Y-47323036D01*
X146579170Y-47344496D01*
X147600504Y-48365831D01*
X147621964Y-48397949D01*
X147629500Y-48435835D01*
X147629500Y-51416466D01*
X147629123Y-51425096D01*
X147625735Y-51463807D01*
X147635795Y-51501350D01*
X147637663Y-51509778D01*
X147644411Y-51548042D01*
X147644412Y-51548045D01*
X147645166Y-51549352D01*
X147655055Y-51573225D01*
X147655446Y-51574685D01*
X147677732Y-51606514D01*
X147682370Y-51613794D01*
X147701803Y-51647452D01*
X147701805Y-51647454D01*
X147701806Y-51647455D01*
X147731583Y-51672441D01*
X147737938Y-51678264D01*
X148871497Y-52811823D01*
X148894147Y-52846953D01*
X148900281Y-52888299D01*
X148888805Y-52928492D01*
X148884767Y-52936045D01*
X148824699Y-53134066D01*
X148804416Y-53339999D01*
X148824699Y-53545933D01*
X148884767Y-53743952D01*
X148884768Y-53743954D01*
X148982315Y-53926450D01*
X149113590Y-54086410D01*
X149273550Y-54217685D01*
X149456046Y-54315232D01*
X149654066Y-54375300D01*
X149860000Y-54395583D01*
X150065934Y-54375300D01*
X150263954Y-54315232D01*
X150446450Y-54217685D01*
X150547694Y-54134596D01*
X150598381Y-54112869D01*
X150652828Y-54121629D01*
X150694141Y-54158159D01*
X150709500Y-54211124D01*
X150709500Y-54529167D01*
X150701964Y-54567053D01*
X150680503Y-54599171D01*
X150388175Y-54891497D01*
X150353044Y-54914148D01*
X150311696Y-54920281D01*
X150271503Y-54908803D01*
X150263952Y-54904766D01*
X150065933Y-54844699D01*
X149860000Y-54824416D01*
X149654066Y-54844699D01*
X149456047Y-54904767D01*
X149273549Y-55002315D01*
X149113590Y-55133590D01*
X148982315Y-55293549D01*
X148884767Y-55476047D01*
X148824699Y-55674066D01*
X148804416Y-55880000D01*
X148824699Y-56085933D01*
X148884767Y-56283952D01*
X148884768Y-56283954D01*
X148982315Y-56466450D01*
X149113590Y-56626410D01*
X149273550Y-56757685D01*
X149456046Y-56855232D01*
X149654066Y-56915300D01*
X149860000Y-56935583D01*
X150065934Y-56915300D01*
X150263954Y-56855232D01*
X150446450Y-56757685D01*
X150606410Y-56626410D01*
X150737685Y-56466450D01*
X150835232Y-56283954D01*
X150895300Y-56085934D01*
X150915583Y-55880000D01*
X151344416Y-55880000D01*
X151364699Y-56085933D01*
X151424767Y-56283952D01*
X151424768Y-56283954D01*
X151522315Y-56466450D01*
X151653590Y-56626410D01*
X151813550Y-56757685D01*
X151996046Y-56855232D01*
X152194066Y-56915300D01*
X152400000Y-56935583D01*
X152605934Y-56915300D01*
X152803954Y-56855232D01*
X152986450Y-56757685D01*
X153146410Y-56626410D01*
X153277685Y-56466450D01*
X153375232Y-56283954D01*
X153435300Y-56085934D01*
X153455583Y-55880000D01*
X153435300Y-55674066D01*
X153375232Y-55476046D01*
X153277685Y-55293550D01*
X153146410Y-55133590D01*
X152986450Y-55002315D01*
X152803954Y-54904768D01*
X152803953Y-54904767D01*
X152803952Y-54904767D01*
X152605933Y-54844699D01*
X152400000Y-54824416D01*
X152194066Y-54844699D01*
X151996047Y-54904767D01*
X151813549Y-55002315D01*
X151653590Y-55133590D01*
X151522315Y-55293549D01*
X151424767Y-55476047D01*
X151364699Y-55674066D01*
X151344416Y-55880000D01*
X150915583Y-55880000D01*
X150895300Y-55674066D01*
X150835232Y-55476046D01*
X150831196Y-55468495D01*
X150819718Y-55428301D01*
X150825851Y-55386953D01*
X150848500Y-55351824D01*
X151252066Y-54948258D01*
X151258410Y-54942444D01*
X151288194Y-54917455D01*
X151307632Y-54883785D01*
X151312254Y-54876529D01*
X151334554Y-54844684D01*
X151334942Y-54843232D01*
X151344838Y-54819343D01*
X151345588Y-54818045D01*
X151352335Y-54779777D01*
X151354201Y-54771359D01*
X151364264Y-54733807D01*
X151360876Y-54695093D01*
X151360500Y-54686466D01*
X151360500Y-54005965D01*
X151378559Y-53948960D01*
X151426148Y-53912752D01*
X151485904Y-53910551D01*
X151536028Y-53943160D01*
X151653590Y-54086410D01*
X151813550Y-54217685D01*
X151996046Y-54315232D01*
X152194066Y-54375300D01*
X152400000Y-54395583D01*
X152605934Y-54375300D01*
X152803954Y-54315232D01*
X152986450Y-54217685D01*
X153146410Y-54086410D01*
X153277685Y-53926450D01*
X153375232Y-53743954D01*
X153435300Y-53545934D01*
X153455583Y-53340000D01*
X153435300Y-53134066D01*
X153375232Y-52936046D01*
X153277685Y-52753550D01*
X153146410Y-52593590D01*
X152986450Y-52462315D01*
X152803954Y-52364768D01*
X152803953Y-52364767D01*
X152803952Y-52364767D01*
X152605933Y-52304699D01*
X152400000Y-52284416D01*
X152194066Y-52304699D01*
X151996047Y-52364767D01*
X151813549Y-52462315D01*
X151653590Y-52593590D01*
X151536028Y-52736840D01*
X151485904Y-52769449D01*
X151426148Y-52767248D01*
X151378559Y-52731040D01*
X151360500Y-52674035D01*
X151360500Y-51465965D01*
X151378559Y-51408960D01*
X151426148Y-51372752D01*
X151485904Y-51370551D01*
X151536028Y-51403160D01*
X151578323Y-51454697D01*
X151653590Y-51546410D01*
X151813550Y-51677685D01*
X151996046Y-51775232D01*
X152194065Y-51835299D01*
X152194066Y-51835300D01*
X152399999Y-51855583D01*
X152399999Y-51855582D01*
X152400000Y-51855583D01*
X152605934Y-51835300D01*
X152803954Y-51775232D01*
X152986450Y-51677685D01*
X153146410Y-51546410D01*
X153277685Y-51386450D01*
X153375232Y-51203954D01*
X153435300Y-51005934D01*
X153455583Y-50800000D01*
X153435300Y-50594066D01*
X153375232Y-50396046D01*
X153277685Y-50213550D01*
X153146410Y-50053590D01*
X152986450Y-49922315D01*
X152803954Y-49824768D01*
X152803953Y-49824767D01*
X152803952Y-49824767D01*
X152605933Y-49764699D01*
X152399999Y-49744416D01*
X152194066Y-49764699D01*
X151996047Y-49824767D01*
X151813549Y-49922315D01*
X151653590Y-50053590D01*
X151536028Y-50196840D01*
X151485904Y-50229449D01*
X151426148Y-50227248D01*
X151378559Y-50191040D01*
X151360500Y-50134035D01*
X151360500Y-48925965D01*
X151378559Y-48868960D01*
X151426148Y-48832752D01*
X151485904Y-48830551D01*
X151536028Y-48863160D01*
X151653590Y-49006410D01*
X151813550Y-49137685D01*
X151996046Y-49235232D01*
X152194066Y-49295300D01*
X152400000Y-49315583D01*
X152605934Y-49295300D01*
X152803954Y-49235232D01*
X152986450Y-49137685D01*
X153146410Y-49006410D01*
X153277685Y-48846450D01*
X153375232Y-48663954D01*
X153435300Y-48465934D01*
X153455583Y-48260000D01*
X153435300Y-48054066D01*
X153375232Y-47856046D01*
X153277685Y-47673550D01*
X153146410Y-47513590D01*
X152986450Y-47382315D01*
X152803954Y-47284768D01*
X152803953Y-47284767D01*
X152803952Y-47284767D01*
X152605933Y-47224699D01*
X152400000Y-47204416D01*
X152194066Y-47224699D01*
X151996047Y-47284767D01*
X151813549Y-47382315D01*
X151653590Y-47513590D01*
X151536028Y-47656840D01*
X151485904Y-47689449D01*
X151426148Y-47687248D01*
X151378559Y-47651040D01*
X151360500Y-47594035D01*
X151360500Y-47548534D01*
X151360877Y-47539904D01*
X151364264Y-47501193D01*
X151354205Y-47463655D01*
X151352335Y-47455220D01*
X151351543Y-47450732D01*
X151345588Y-47416955D01*
X151344834Y-47415650D01*
X151334943Y-47391768D01*
X151334942Y-47391765D01*
X151334554Y-47390316D01*
X151312260Y-47358477D01*
X151307633Y-47351215D01*
X151288194Y-47317545D01*
X151258428Y-47292568D01*
X151252060Y-47286734D01*
X150643268Y-46677942D01*
X150637434Y-46671574D01*
X150612455Y-46641805D01*
X150606858Y-46638574D01*
X150572719Y-46605801D01*
X150557692Y-46560926D01*
X150565211Y-46514203D01*
X150593559Y-46476309D01*
X150606054Y-46466054D01*
X150737269Y-46306170D01*
X150834768Y-46123763D01*
X150894808Y-45925835D01*
X150905232Y-45820000D01*
X151354767Y-45820000D01*
X151365191Y-45925835D01*
X151425231Y-46123763D01*
X151522730Y-46306170D01*
X151653945Y-46466054D01*
X151813829Y-46597269D01*
X151996236Y-46694768D01*
X152194164Y-46754808D01*
X152299999Y-46765232D01*
X152300000Y-46765232D01*
X152500000Y-46765232D01*
X152605835Y-46754808D01*
X152803763Y-46694768D01*
X152986170Y-46597269D01*
X153146054Y-46466054D01*
X153277269Y-46306170D01*
X153374768Y-46123763D01*
X153434808Y-45925835D01*
X153445232Y-45820000D01*
X152500001Y-45820000D01*
X152500000Y-45820001D01*
X152500000Y-46765232D01*
X152300000Y-46765232D01*
X152300000Y-45820001D01*
X152299999Y-45820000D01*
X151354767Y-45820000D01*
X150905232Y-45820000D01*
X148814767Y-45820000D01*
X148825191Y-45925835D01*
X148885231Y-46123763D01*
X148982730Y-46306170D01*
X149066050Y-46407695D01*
X149087777Y-46458381D01*
X149079017Y-46512828D01*
X149042487Y-46554140D01*
X148989522Y-46569500D01*
X148670834Y-46569500D01*
X148632948Y-46561964D01*
X148600830Y-46540504D01*
X147680325Y-45619999D01*
X148814767Y-45619999D01*
X148814768Y-45620000D01*
X149759999Y-45620000D01*
X149760000Y-45619999D01*
X149760000Y-44674768D01*
X149759999Y-44674767D01*
X149960000Y-44674767D01*
X149960000Y-45619999D01*
X149960001Y-45620000D01*
X150905232Y-45620000D01*
X150905232Y-45619999D01*
X151354767Y-45619999D01*
X151354768Y-45620000D01*
X152299999Y-45620000D01*
X152300000Y-45619999D01*
X152300000Y-44674768D01*
X152299999Y-44674767D01*
X152500000Y-44674767D01*
X152500000Y-45619999D01*
X152500001Y-45620000D01*
X153445232Y-45620000D01*
X153445232Y-45619999D01*
X153434808Y-45514164D01*
X153374768Y-45316236D01*
X153277269Y-45133829D01*
X153146054Y-44973945D01*
X152986170Y-44842730D01*
X152803763Y-44745231D01*
X152605835Y-44685191D01*
X152500000Y-44674767D01*
X152299999Y-44674767D01*
X152194164Y-44685191D01*
X151996236Y-44745231D01*
X151813829Y-44842730D01*
X151653945Y-44973945D01*
X151522730Y-45133829D01*
X151425231Y-45316236D01*
X151365191Y-45514164D01*
X151354767Y-45619999D01*
X150905232Y-45619999D01*
X150894808Y-45514164D01*
X150834768Y-45316236D01*
X150737269Y-45133829D01*
X150606054Y-44973945D01*
X150446170Y-44842730D01*
X150263763Y-44745231D01*
X150065835Y-44685191D01*
X149960000Y-44674767D01*
X149759999Y-44674767D01*
X149654164Y-44685191D01*
X149456236Y-44745231D01*
X149273829Y-44842730D01*
X149113945Y-44973945D01*
X148982730Y-45133829D01*
X148885231Y-45316236D01*
X148825191Y-45514164D01*
X148814767Y-45619999D01*
X147680325Y-45619999D01*
X146833268Y-44772942D01*
X146827434Y-44766574D01*
X146802454Y-44736805D01*
X146768794Y-44717370D01*
X146761514Y-44712732D01*
X146729685Y-44690446D01*
X146728225Y-44690055D01*
X146704352Y-44680166D01*
X146703045Y-44679412D01*
X146703043Y-44679411D01*
X146703042Y-44679411D01*
X146664778Y-44672663D01*
X146656350Y-44670795D01*
X146618807Y-44660735D01*
X146583330Y-44663839D01*
X146580093Y-44664123D01*
X146571466Y-44664500D01*
X145715971Y-44664500D01*
X145672184Y-44654290D01*
X145637429Y-44625767D01*
X145588282Y-44561717D01*
X145462841Y-44465464D01*
X145316761Y-44404955D01*
X145160000Y-44384318D01*
X145003238Y-44404955D01*
X144857158Y-44465464D01*
X144731717Y-44561717D01*
X144635464Y-44687158D01*
X144574955Y-44833238D01*
X144554318Y-44990000D01*
X144574955Y-45146761D01*
X144635464Y-45292841D01*
X144731717Y-45418282D01*
X144827971Y-45492139D01*
X144857159Y-45514536D01*
X145003238Y-45575044D01*
X145160000Y-45595682D01*
X145316762Y-45575044D01*
X145462841Y-45514536D01*
X145588282Y-45418282D01*
X145588281Y-45418282D01*
X145637429Y-45354233D01*
X145672184Y-45325710D01*
X145715971Y-45315500D01*
X146414166Y-45315500D01*
X146452052Y-45323036D01*
X146484170Y-45344496D01*
X148251730Y-47112056D01*
X148257564Y-47118423D01*
X148281343Y-47146762D01*
X148282545Y-47148194D01*
X148316215Y-47167633D01*
X148323477Y-47172260D01*
X148355316Y-47194554D01*
X148356765Y-47194942D01*
X148356768Y-47194943D01*
X148380650Y-47204834D01*
X148381955Y-47205588D01*
X148415732Y-47211543D01*
X148420220Y-47212335D01*
X148428647Y-47214203D01*
X148466193Y-47224264D01*
X148504909Y-47220876D01*
X148513537Y-47220500D01*
X149194035Y-47220500D01*
X149251040Y-47238559D01*
X149287248Y-47286148D01*
X149289449Y-47345904D01*
X149256840Y-47396028D01*
X149113590Y-47513590D01*
X148982315Y-47673549D01*
X148884767Y-47856047D01*
X148824699Y-48054066D01*
X148804416Y-48259999D01*
X148824699Y-48465933D01*
X148884767Y-48663952D01*
X148884768Y-48663954D01*
X148982315Y-48846450D01*
X149113590Y-49006410D01*
X149273550Y-49137685D01*
X149456046Y-49235232D01*
X149654066Y-49295300D01*
X149860000Y-49315583D01*
X150065934Y-49295300D01*
X150263954Y-49235232D01*
X150446450Y-49137685D01*
X150547694Y-49054596D01*
X150598381Y-49032869D01*
X150652828Y-49041629D01*
X150694141Y-49078159D01*
X150709500Y-49131124D01*
X150709500Y-49928876D01*
X150694141Y-49981841D01*
X150652828Y-50018371D01*
X150598381Y-50027131D01*
X150547695Y-50005404D01*
X150446450Y-49922315D01*
X150263952Y-49824767D01*
X150065933Y-49764699D01*
X149859999Y-49744416D01*
X149654066Y-49764699D01*
X149456047Y-49824767D01*
X149273549Y-49922315D01*
X149113590Y-50053590D01*
X148982315Y-50213549D01*
X148884767Y-50396047D01*
X148824699Y-50594066D01*
X148804416Y-50800000D01*
X148824699Y-51005933D01*
X148884767Y-51203952D01*
X148884768Y-51203954D01*
X148982315Y-51386450D01*
X149113590Y-51546410D01*
X149273550Y-51677685D01*
X149456046Y-51775232D01*
X149654065Y-51835299D01*
X149654066Y-51835300D01*
X149859999Y-51855583D01*
X149859999Y-51855582D01*
X149860000Y-51855583D01*
X150065934Y-51835300D01*
X150263954Y-51775232D01*
X150446450Y-51677685D01*
X150547694Y-51594596D01*
X150598381Y-51572869D01*
X150652828Y-51581629D01*
X150694141Y-51618159D01*
X150709500Y-51671124D01*
X150709500Y-52468876D01*
X150694141Y-52521841D01*
X150652828Y-52558371D01*
X150598381Y-52567131D01*
X150547695Y-52545404D01*
X150446450Y-52462315D01*
X150336257Y-52403415D01*
X150263954Y-52364768D01*
X150263953Y-52364767D01*
X150263952Y-52364767D01*
X150065933Y-52304699D01*
X149860000Y-52284416D01*
X149654066Y-52304699D01*
X149456045Y-52364767D01*
X149448492Y-52368805D01*
X149408299Y-52380281D01*
X149366953Y-52374147D01*
X149331823Y-52351497D01*
X148309496Y-51329170D01*
X148288036Y-51297052D01*
X148280500Y-51259166D01*
X148280500Y-48278526D01*
X148280877Y-48269897D01*
X148284263Y-48231194D01*
X148284263Y-48231193D01*
X148274199Y-48193638D01*
X148272335Y-48185223D01*
X148265589Y-48146958D01*
X148265588Y-48146956D01*
X148265588Y-48146955D01*
X148264834Y-48145650D01*
X148254943Y-48121768D01*
X148254554Y-48120317D01*
X148254554Y-48120316D01*
X148232257Y-48088473D01*
X148227626Y-48081203D01*
X148208193Y-48047543D01*
X148178434Y-48022573D01*
X148172066Y-48016739D01*
X146928268Y-46772942D01*
X146922434Y-46766574D01*
X146897454Y-46736805D01*
X146863794Y-46717370D01*
X146856514Y-46712732D01*
X146824685Y-46690446D01*
X146823225Y-46690055D01*
X146799352Y-46680166D01*
X146798045Y-46679412D01*
X146798043Y-46679411D01*
X146798042Y-46679411D01*
X146759778Y-46672663D01*
X146751350Y-46670795D01*
X146713807Y-46660735D01*
X146678330Y-46663839D01*
X146675093Y-46664123D01*
X146666466Y-46664500D01*
X145715971Y-46664500D01*
X145672184Y-46654290D01*
X145637429Y-46625767D01*
X145588282Y-46561717D01*
X145462841Y-46465464D01*
X145316761Y-46404955D01*
X145160000Y-46384318D01*
X145003238Y-46404955D01*
X144857158Y-46465464D01*
X144731717Y-46561717D01*
X144635464Y-46687158D01*
X144574955Y-46833238D01*
X144554318Y-46990000D01*
X118135500Y-46990000D01*
X118135500Y-44049747D01*
X148809500Y-44049747D01*
X148821133Y-44108231D01*
X148865447Y-44174552D01*
X148909762Y-44204162D01*
X148931769Y-44218867D01*
X148990252Y-44230500D01*
X150729747Y-44230500D01*
X150729748Y-44230500D01*
X150788231Y-44218867D01*
X150854552Y-44174552D01*
X150898867Y-44108231D01*
X150910500Y-44049748D01*
X150910500Y-43179999D01*
X151344416Y-43179999D01*
X151364699Y-43385933D01*
X151424767Y-43583952D01*
X151424768Y-43583954D01*
X151522315Y-43766450D01*
X151653590Y-43926410D01*
X151813550Y-44057685D01*
X151996046Y-44155232D01*
X152194066Y-44215300D01*
X152400000Y-44235583D01*
X152605934Y-44215300D01*
X152803954Y-44155232D01*
X152986450Y-44057685D01*
X153146410Y-43926410D01*
X153277685Y-43766450D01*
X153375232Y-43583954D01*
X153435300Y-43385934D01*
X153455583Y-43180000D01*
X153435300Y-42974066D01*
X153375232Y-42776046D01*
X153277685Y-42593550D01*
X153146410Y-42433590D01*
X152986450Y-42302315D01*
X152803954Y-42204768D01*
X152803953Y-42204767D01*
X152803952Y-42204767D01*
X152605933Y-42144699D01*
X152400000Y-42124416D01*
X152194066Y-42144699D01*
X151996047Y-42204767D01*
X151813549Y-42302315D01*
X151653590Y-42433590D01*
X151522315Y-42593549D01*
X151424767Y-42776047D01*
X151364699Y-42974066D01*
X151344416Y-43179999D01*
X150910500Y-43179999D01*
X150910500Y-42310252D01*
X150898867Y-42251769D01*
X150884162Y-42229762D01*
X150854552Y-42185447D01*
X150788231Y-42141133D01*
X150788230Y-42141132D01*
X150729748Y-42129500D01*
X148990252Y-42129500D01*
X148961010Y-42135316D01*
X148931768Y-42141133D01*
X148865447Y-42185447D01*
X148821133Y-42251768D01*
X148809500Y-42310253D01*
X148809500Y-44049747D01*
X118135500Y-44049747D01*
X118135500Y-43859747D01*
X119599500Y-43859747D01*
X119611133Y-43918231D01*
X119655447Y-43984552D01*
X119699762Y-44014162D01*
X119721769Y-44028867D01*
X119780252Y-44040500D01*
X121519747Y-44040500D01*
X121519748Y-44040500D01*
X121578231Y-44028867D01*
X121644552Y-43984552D01*
X121688867Y-43918231D01*
X121700500Y-43859748D01*
X121700500Y-42120252D01*
X121688867Y-42061769D01*
X121674162Y-42039762D01*
X121644552Y-41995447D01*
X121578231Y-41951133D01*
X121578230Y-41951132D01*
X121519748Y-41939500D01*
X119780252Y-41939500D01*
X119751010Y-41945316D01*
X119721768Y-41951133D01*
X119655447Y-41995447D01*
X119611133Y-42061768D01*
X119599500Y-42120253D01*
X119599500Y-43859747D01*
X118135500Y-43859747D01*
X118135500Y-38224500D01*
X118148763Y-38175000D01*
X118185000Y-38138763D01*
X118234500Y-38125500D01*
X156085500Y-38125500D01*
X156135000Y-38138763D01*
G37*
%TD.AperFunction*%
%TD*%
M02*
