%TF.GenerationSoftware,KiCad,Pcbnew,5.1.10*%
%TF.CreationDate,2021-12-30T14:02:32+01:00*%
%TF.ProjectId,modules_board,6d6f6475-6c65-4735-9f62-6f6172642e6b,rev?*%
%TF.SameCoordinates,Original*%
%TF.FileFunction,Soldermask,Top*%
%TF.FilePolarity,Negative*%
%FSLAX46Y46*%
G04 Gerber Fmt 4.6, Leading zero omitted, Abs format (unit mm)*
G04 Created by KiCad (PCBNEW 5.1.10) date 2021-12-30 14:02:32*
%MOMM*%
%LPD*%
G01*
G04 APERTURE LIST*
%ADD10C,0.800000*%
%ADD11C,6.400000*%
%ADD12O,1.700000X1.700000*%
%ADD13R,1.700000X1.700000*%
%ADD14C,1.524000*%
%ADD15R,1.000000X1.500000*%
%ADD16C,0.100000*%
%ADD17O,1.600000X1.600000*%
%ADD18R,1.600000X1.600000*%
%ADD19C,3.048000*%
%ADD20C,3.000000*%
G04 APERTURE END LIST*
D10*
%TO.C,H4*%
X204897056Y-130382944D03*
X203200000Y-129680000D03*
X201502944Y-130382944D03*
X200800000Y-132080000D03*
X201502944Y-133777056D03*
X203200000Y-134480000D03*
X204897056Y-133777056D03*
X205600000Y-132080000D03*
D11*
X203200000Y-132080000D03*
%TD*%
D10*
%TO.C,H3*%
X204897056Y-46562944D03*
X203200000Y-45860000D03*
X201502944Y-46562944D03*
X200800000Y-48260000D03*
X201502944Y-49957056D03*
X203200000Y-50660000D03*
X204897056Y-49957056D03*
X205600000Y-48260000D03*
D11*
X203200000Y-48260000D03*
%TD*%
D10*
%TO.C,H2*%
X65337056Y-130382944D03*
X63640000Y-129680000D03*
X61942944Y-130382944D03*
X61240000Y-132080000D03*
X61942944Y-133777056D03*
X63640000Y-134480000D03*
X65337056Y-133777056D03*
X66040000Y-132080000D03*
D11*
X63640000Y-132080000D03*
%TD*%
D10*
%TO.C,H1*%
X65337056Y-46562944D03*
X63640000Y-45860000D03*
X61942944Y-46562944D03*
X61240000Y-48260000D03*
X61942944Y-49957056D03*
X63640000Y-50660000D03*
X65337056Y-49957056D03*
X66040000Y-48260000D03*
D11*
X63640000Y-48260000D03*
%TD*%
D12*
%TO.C,J9*%
X205740000Y-60960000D03*
X203200000Y-60960000D03*
X205740000Y-63500000D03*
X203200000Y-63500000D03*
X205740000Y-66040000D03*
X203200000Y-66040000D03*
X205740000Y-68580000D03*
X203200000Y-68580000D03*
X205740000Y-71120000D03*
X203200000Y-71120000D03*
X205740000Y-73660000D03*
D13*
X203200000Y-73660000D03*
%TD*%
D12*
%TO.C,J8*%
X205740000Y-83820000D03*
X203200000Y-83820000D03*
X205740000Y-86360000D03*
X203200000Y-86360000D03*
X205740000Y-88900000D03*
X203200000Y-88900000D03*
X205740000Y-91440000D03*
X203200000Y-91440000D03*
X205740000Y-93980000D03*
X203200000Y-93980000D03*
X205740000Y-96520000D03*
D13*
X203200000Y-96520000D03*
%TD*%
D12*
%TO.C,J7*%
X205740000Y-106680000D03*
X203200000Y-106680000D03*
X205740000Y-109220000D03*
X203200000Y-109220000D03*
X205740000Y-111760000D03*
X203200000Y-111760000D03*
X205740000Y-114300000D03*
X203200000Y-114300000D03*
X205740000Y-116840000D03*
X203200000Y-116840000D03*
X205740000Y-119380000D03*
D13*
X203200000Y-119380000D03*
%TD*%
D14*
%TO.C,R17*%
X193040000Y-102870000D03*
X193040000Y-92710000D03*
G36*
G01*
X192589999Y-98190000D02*
X193490001Y-98190000D01*
G75*
G02*
X193740000Y-98439999I0J-249999D01*
G01*
X193740000Y-99140001D01*
G75*
G02*
X193490001Y-99390000I-249999J0D01*
G01*
X192589999Y-99390000D01*
G75*
G02*
X192340000Y-99140001I0J249999D01*
G01*
X192340000Y-98439999D01*
G75*
G02*
X192589999Y-98190000I249999J0D01*
G01*
G37*
G36*
G01*
X192589999Y-96190000D02*
X193490001Y-96190000D01*
G75*
G02*
X193740000Y-96439999I0J-249999D01*
G01*
X193740000Y-97140001D01*
G75*
G02*
X193490001Y-97390000I-249999J0D01*
G01*
X192589999Y-97390000D01*
G75*
G02*
X192340000Y-97140001I0J249999D01*
G01*
X192340000Y-96439999D01*
G75*
G02*
X192589999Y-96190000I249999J0D01*
G01*
G37*
%TD*%
D12*
%TO.C,J6*%
X78740000Y-66040000D03*
X78740000Y-68580000D03*
D13*
X78740000Y-71120000D03*
%TD*%
D12*
%TO.C,J5*%
X78740000Y-78740000D03*
X78740000Y-81280000D03*
D13*
X78740000Y-83820000D03*
%TD*%
D12*
%TO.C,J4*%
X77470000Y-114300000D03*
X74930000Y-114300000D03*
X77470000Y-111760000D03*
X74930000Y-111760000D03*
X77470000Y-109220000D03*
X74930000Y-109220000D03*
X77470000Y-106680000D03*
D13*
X74930000Y-106680000D03*
%TD*%
D14*
%TO.C,R16*%
X139700000Y-101600000D03*
X129540000Y-101600000D03*
G36*
G01*
X135020000Y-102050001D02*
X135020000Y-101149999D01*
G75*
G02*
X135269999Y-100900000I249999J0D01*
G01*
X135970001Y-100900000D01*
G75*
G02*
X136220000Y-101149999I0J-249999D01*
G01*
X136220000Y-102050001D01*
G75*
G02*
X135970001Y-102300000I-249999J0D01*
G01*
X135269999Y-102300000D01*
G75*
G02*
X135020000Y-102050001I0J249999D01*
G01*
G37*
G36*
G01*
X133020000Y-102050001D02*
X133020000Y-101149999D01*
G75*
G02*
X133269999Y-100900000I249999J0D01*
G01*
X133970001Y-100900000D01*
G75*
G02*
X134220000Y-101149999I0J-249999D01*
G01*
X134220000Y-102050001D01*
G75*
G02*
X133970001Y-102300000I-249999J0D01*
G01*
X133269999Y-102300000D01*
G75*
G02*
X133020000Y-102050001I0J249999D01*
G01*
G37*
%TD*%
%TO.C,R15*%
X125730000Y-68580000D03*
X115570000Y-68580000D03*
G36*
G01*
X121050000Y-69030001D02*
X121050000Y-68129999D01*
G75*
G02*
X121299999Y-67880000I249999J0D01*
G01*
X122000001Y-67880000D01*
G75*
G02*
X122250000Y-68129999I0J-249999D01*
G01*
X122250000Y-69030001D01*
G75*
G02*
X122000001Y-69280000I-249999J0D01*
G01*
X121299999Y-69280000D01*
G75*
G02*
X121050000Y-69030001I0J249999D01*
G01*
G37*
G36*
G01*
X119050000Y-69030001D02*
X119050000Y-68129999D01*
G75*
G02*
X119299999Y-67880000I249999J0D01*
G01*
X120000001Y-67880000D01*
G75*
G02*
X120250000Y-68129999I0J-249999D01*
G01*
X120250000Y-69030001D01*
G75*
G02*
X120000001Y-69280000I-249999J0D01*
G01*
X119299999Y-69280000D01*
G75*
G02*
X119050000Y-69030001I0J249999D01*
G01*
G37*
%TD*%
%TO.C,R14*%
X187960000Y-97790000D03*
X177800000Y-97790000D03*
G36*
G01*
X183280000Y-98240001D02*
X183280000Y-97339999D01*
G75*
G02*
X183529999Y-97090000I249999J0D01*
G01*
X184230001Y-97090000D01*
G75*
G02*
X184480000Y-97339999I0J-249999D01*
G01*
X184480000Y-98240001D01*
G75*
G02*
X184230001Y-98490000I-249999J0D01*
G01*
X183529999Y-98490000D01*
G75*
G02*
X183280000Y-98240001I0J249999D01*
G01*
G37*
G36*
G01*
X181280000Y-98240001D02*
X181280000Y-97339999D01*
G75*
G02*
X181529999Y-97090000I249999J0D01*
G01*
X182230001Y-97090000D01*
G75*
G02*
X182480000Y-97339999I0J-249999D01*
G01*
X182480000Y-98240001D01*
G75*
G02*
X182230001Y-98490000I-249999J0D01*
G01*
X181529999Y-98490000D01*
G75*
G02*
X181280000Y-98240001I0J249999D01*
G01*
G37*
%TD*%
%TO.C,R13*%
X149860000Y-68580000D03*
X139700000Y-68580000D03*
G36*
G01*
X145180000Y-69030001D02*
X145180000Y-68129999D01*
G75*
G02*
X145429999Y-67880000I249999J0D01*
G01*
X146130001Y-67880000D01*
G75*
G02*
X146380000Y-68129999I0J-249999D01*
G01*
X146380000Y-69030001D01*
G75*
G02*
X146130001Y-69280000I-249999J0D01*
G01*
X145429999Y-69280000D01*
G75*
G02*
X145180000Y-69030001I0J249999D01*
G01*
G37*
G36*
G01*
X143180000Y-69030001D02*
X143180000Y-68129999D01*
G75*
G02*
X143429999Y-67880000I249999J0D01*
G01*
X144130001Y-67880000D01*
G75*
G02*
X144380000Y-68129999I0J-249999D01*
G01*
X144380000Y-69030001D01*
G75*
G02*
X144130001Y-69280000I-249999J0D01*
G01*
X143429999Y-69280000D01*
G75*
G02*
X143180000Y-69030001I0J249999D01*
G01*
G37*
%TD*%
%TO.C,R12*%
X162560000Y-97790000D03*
X152400000Y-97790000D03*
G36*
G01*
X157880000Y-98240001D02*
X157880000Y-97339999D01*
G75*
G02*
X158129999Y-97090000I249999J0D01*
G01*
X158830001Y-97090000D01*
G75*
G02*
X159080000Y-97339999I0J-249999D01*
G01*
X159080000Y-98240001D01*
G75*
G02*
X158830001Y-98490000I-249999J0D01*
G01*
X158129999Y-98490000D01*
G75*
G02*
X157880000Y-98240001I0J249999D01*
G01*
G37*
G36*
G01*
X155880000Y-98240001D02*
X155880000Y-97339999D01*
G75*
G02*
X156129999Y-97090000I249999J0D01*
G01*
X156830001Y-97090000D01*
G75*
G02*
X157080000Y-97339999I0J-249999D01*
G01*
X157080000Y-98240001D01*
G75*
G02*
X156830001Y-98490000I-249999J0D01*
G01*
X156129999Y-98490000D01*
G75*
G02*
X155880000Y-98240001I0J249999D01*
G01*
G37*
%TD*%
%TO.C,R11*%
X125730000Y-102870000D03*
X125730000Y-92710000D03*
G36*
G01*
X125279999Y-98190000D02*
X126180001Y-98190000D01*
G75*
G02*
X126430000Y-98439999I0J-249999D01*
G01*
X126430000Y-99140001D01*
G75*
G02*
X126180001Y-99390000I-249999J0D01*
G01*
X125279999Y-99390000D01*
G75*
G02*
X125030000Y-99140001I0J249999D01*
G01*
X125030000Y-98439999D01*
G75*
G02*
X125279999Y-98190000I249999J0D01*
G01*
G37*
G36*
G01*
X125279999Y-96190000D02*
X126180001Y-96190000D01*
G75*
G02*
X126430000Y-96439999I0J-249999D01*
G01*
X126430000Y-97140001D01*
G75*
G02*
X126180001Y-97390000I-249999J0D01*
G01*
X125279999Y-97390000D01*
G75*
G02*
X125030000Y-97140001I0J249999D01*
G01*
X125030000Y-96439999D01*
G75*
G02*
X125279999Y-96190000I249999J0D01*
G01*
G37*
%TD*%
%TO.C,R10*%
X101600000Y-68580000D03*
X91440000Y-68580000D03*
G36*
G01*
X96920000Y-69030001D02*
X96920000Y-68129999D01*
G75*
G02*
X97169999Y-67880000I249999J0D01*
G01*
X97870001Y-67880000D01*
G75*
G02*
X98120000Y-68129999I0J-249999D01*
G01*
X98120000Y-69030001D01*
G75*
G02*
X97870001Y-69280000I-249999J0D01*
G01*
X97169999Y-69280000D01*
G75*
G02*
X96920000Y-69030001I0J249999D01*
G01*
G37*
G36*
G01*
X94920000Y-69030001D02*
X94920000Y-68129999D01*
G75*
G02*
X95169999Y-67880000I249999J0D01*
G01*
X95870001Y-67880000D01*
G75*
G02*
X96120000Y-68129999I0J-249999D01*
G01*
X96120000Y-69030001D01*
G75*
G02*
X95870001Y-69280000I-249999J0D01*
G01*
X95169999Y-69280000D01*
G75*
G02*
X94920000Y-69030001I0J249999D01*
G01*
G37*
%TD*%
%TO.C,R9*%
X187960000Y-101600000D03*
X177800000Y-101600000D03*
G36*
G01*
X183280000Y-102050001D02*
X183280000Y-101149999D01*
G75*
G02*
X183529999Y-100900000I249999J0D01*
G01*
X184230001Y-100900000D01*
G75*
G02*
X184480000Y-101149999I0J-249999D01*
G01*
X184480000Y-102050001D01*
G75*
G02*
X184230001Y-102300000I-249999J0D01*
G01*
X183529999Y-102300000D01*
G75*
G02*
X183280000Y-102050001I0J249999D01*
G01*
G37*
G36*
G01*
X181280000Y-102050001D02*
X181280000Y-101149999D01*
G75*
G02*
X181529999Y-100900000I249999J0D01*
G01*
X182230001Y-100900000D01*
G75*
G02*
X182480000Y-101149999I0J-249999D01*
G01*
X182480000Y-102050001D01*
G75*
G02*
X182230001Y-102300000I-249999J0D01*
G01*
X181529999Y-102300000D01*
G75*
G02*
X181280000Y-102050001I0J249999D01*
G01*
G37*
%TD*%
%TO.C,R8*%
X101600000Y-72390000D03*
X91440000Y-72390000D03*
G36*
G01*
X96920000Y-72840001D02*
X96920000Y-71939999D01*
G75*
G02*
X97169999Y-71690000I249999J0D01*
G01*
X97870001Y-71690000D01*
G75*
G02*
X98120000Y-71939999I0J-249999D01*
G01*
X98120000Y-72840001D01*
G75*
G02*
X97870001Y-73090000I-249999J0D01*
G01*
X97169999Y-73090000D01*
G75*
G02*
X96920000Y-72840001I0J249999D01*
G01*
G37*
G36*
G01*
X94920000Y-72840001D02*
X94920000Y-71939999D01*
G75*
G02*
X95169999Y-71690000I249999J0D01*
G01*
X95870001Y-71690000D01*
G75*
G02*
X96120000Y-71939999I0J-249999D01*
G01*
X96120000Y-72840001D01*
G75*
G02*
X95870001Y-73090000I-249999J0D01*
G01*
X95169999Y-73090000D01*
G75*
G02*
X94920000Y-72840001I0J249999D01*
G01*
G37*
%TD*%
%TO.C,R7*%
X125730000Y-72390000D03*
X115570000Y-72390000D03*
G36*
G01*
X121050000Y-72840001D02*
X121050000Y-71939999D01*
G75*
G02*
X121299999Y-71690000I249999J0D01*
G01*
X122000001Y-71690000D01*
G75*
G02*
X122250000Y-71939999I0J-249999D01*
G01*
X122250000Y-72840001D01*
G75*
G02*
X122000001Y-73090000I-249999J0D01*
G01*
X121299999Y-73090000D01*
G75*
G02*
X121050000Y-72840001I0J249999D01*
G01*
G37*
G36*
G01*
X119050000Y-72840001D02*
X119050000Y-71939999D01*
G75*
G02*
X119299999Y-71690000I249999J0D01*
G01*
X120000001Y-71690000D01*
G75*
G02*
X120250000Y-71939999I0J-249999D01*
G01*
X120250000Y-72840001D01*
G75*
G02*
X120000001Y-73090000I-249999J0D01*
G01*
X119299999Y-73090000D01*
G75*
G02*
X119050000Y-72840001I0J249999D01*
G01*
G37*
%TD*%
%TO.C,R6*%
X139700000Y-97790000D03*
X129540000Y-97790000D03*
G36*
G01*
X135020000Y-98240001D02*
X135020000Y-97339999D01*
G75*
G02*
X135269999Y-97090000I249999J0D01*
G01*
X135970001Y-97090000D01*
G75*
G02*
X136220000Y-97339999I0J-249999D01*
G01*
X136220000Y-98240001D01*
G75*
G02*
X135970001Y-98490000I-249999J0D01*
G01*
X135269999Y-98490000D01*
G75*
G02*
X135020000Y-98240001I0J249999D01*
G01*
G37*
G36*
G01*
X133020000Y-98240001D02*
X133020000Y-97339999D01*
G75*
G02*
X133269999Y-97090000I249999J0D01*
G01*
X133970001Y-97090000D01*
G75*
G02*
X134220000Y-97339999I0J-249999D01*
G01*
X134220000Y-98240001D01*
G75*
G02*
X133970001Y-98490000I-249999J0D01*
G01*
X133269999Y-98490000D01*
G75*
G02*
X133020000Y-98240001I0J249999D01*
G01*
G37*
%TD*%
%TO.C,R5*%
X109220000Y-97790000D03*
X119380000Y-97790000D03*
G36*
G01*
X113900000Y-97339999D02*
X113900000Y-98240001D01*
G75*
G02*
X113650001Y-98490000I-249999J0D01*
G01*
X112949999Y-98490000D01*
G75*
G02*
X112700000Y-98240001I0J249999D01*
G01*
X112700000Y-97339999D01*
G75*
G02*
X112949999Y-97090000I249999J0D01*
G01*
X113650001Y-97090000D01*
G75*
G02*
X113900000Y-97339999I0J-249999D01*
G01*
G37*
G36*
G01*
X115900000Y-97339999D02*
X115900000Y-98240001D01*
G75*
G02*
X115650001Y-98490000I-249999J0D01*
G01*
X114949999Y-98490000D01*
G75*
G02*
X114700000Y-98240001I0J249999D01*
G01*
X114700000Y-97339999D01*
G75*
G02*
X114949999Y-97090000I249999J0D01*
G01*
X115650001Y-97090000D01*
G75*
G02*
X115900000Y-97339999I0J-249999D01*
G01*
G37*
%TD*%
%TO.C,R4*%
X91440000Y-64770000D03*
X101600000Y-64770000D03*
G36*
G01*
X96120000Y-64319999D02*
X96120000Y-65220001D01*
G75*
G02*
X95870001Y-65470000I-249999J0D01*
G01*
X95169999Y-65470000D01*
G75*
G02*
X94920000Y-65220001I0J249999D01*
G01*
X94920000Y-64319999D01*
G75*
G02*
X95169999Y-64070000I249999J0D01*
G01*
X95870001Y-64070000D01*
G75*
G02*
X96120000Y-64319999I0J-249999D01*
G01*
G37*
G36*
G01*
X98120000Y-64319999D02*
X98120000Y-65220001D01*
G75*
G02*
X97870001Y-65470000I-249999J0D01*
G01*
X97169999Y-65470000D01*
G75*
G02*
X96920000Y-65220001I0J249999D01*
G01*
X96920000Y-64319999D01*
G75*
G02*
X97169999Y-64070000I249999J0D01*
G01*
X97870001Y-64070000D01*
G75*
G02*
X98120000Y-64319999I0J-249999D01*
G01*
G37*
%TD*%
%TO.C,R3*%
X149860000Y-72390000D03*
X139700000Y-72390000D03*
G36*
G01*
X145180000Y-72840001D02*
X145180000Y-71939999D01*
G75*
G02*
X145429999Y-71690000I249999J0D01*
G01*
X146130001Y-71690000D01*
G75*
G02*
X146380000Y-71939999I0J-249999D01*
G01*
X146380000Y-72840001D01*
G75*
G02*
X146130001Y-73090000I-249999J0D01*
G01*
X145429999Y-73090000D01*
G75*
G02*
X145180000Y-72840001I0J249999D01*
G01*
G37*
G36*
G01*
X143180000Y-72840001D02*
X143180000Y-71939999D01*
G75*
G02*
X143429999Y-71690000I249999J0D01*
G01*
X144130001Y-71690000D01*
G75*
G02*
X144380000Y-71939999I0J-249999D01*
G01*
X144380000Y-72840001D01*
G75*
G02*
X144130001Y-73090000I-249999J0D01*
G01*
X143429999Y-73090000D01*
G75*
G02*
X143180000Y-72840001I0J249999D01*
G01*
G37*
%TD*%
%TO.C,R2*%
X69850000Y-113030000D03*
X69850000Y-102870000D03*
G36*
G01*
X69399999Y-108350000D02*
X70300001Y-108350000D01*
G75*
G02*
X70550000Y-108599999I0J-249999D01*
G01*
X70550000Y-109300001D01*
G75*
G02*
X70300001Y-109550000I-249999J0D01*
G01*
X69399999Y-109550000D01*
G75*
G02*
X69150000Y-109300001I0J249999D01*
G01*
X69150000Y-108599999D01*
G75*
G02*
X69399999Y-108350000I249999J0D01*
G01*
G37*
G36*
G01*
X69399999Y-106350000D02*
X70300001Y-106350000D01*
G75*
G02*
X70550000Y-106599999I0J-249999D01*
G01*
X70550000Y-107300001D01*
G75*
G02*
X70300001Y-107550000I-249999J0D01*
G01*
X69399999Y-107550000D01*
G75*
G02*
X69150000Y-107300001I0J249999D01*
G01*
X69150000Y-106599999D01*
G75*
G02*
X69399999Y-106350000I249999J0D01*
G01*
G37*
%TD*%
%TO.C,R1*%
X162560000Y-101600000D03*
X152400000Y-101600000D03*
G36*
G01*
X157880000Y-102050001D02*
X157880000Y-101149999D01*
G75*
G02*
X158129999Y-100900000I249999J0D01*
G01*
X158830001Y-100900000D01*
G75*
G02*
X159080000Y-101149999I0J-249999D01*
G01*
X159080000Y-102050001D01*
G75*
G02*
X158830001Y-102300000I-249999J0D01*
G01*
X158129999Y-102300000D01*
G75*
G02*
X157880000Y-102050001I0J249999D01*
G01*
G37*
G36*
G01*
X155880000Y-102050001D02*
X155880000Y-101149999D01*
G75*
G02*
X156129999Y-100900000I249999J0D01*
G01*
X156830001Y-100900000D01*
G75*
G02*
X157080000Y-101149999I0J-249999D01*
G01*
X157080000Y-102050001D01*
G75*
G02*
X156830001Y-102300000I-249999J0D01*
G01*
X156129999Y-102300000D01*
G75*
G02*
X155880000Y-102050001I0J249999D01*
G01*
G37*
%TD*%
D15*
%TO.C,JP6*%
X120650000Y-64770000D03*
D16*
G36*
X121950000Y-64020602D02*
G01*
X121974534Y-64020602D01*
X122023365Y-64025412D01*
X122071490Y-64034984D01*
X122118445Y-64049228D01*
X122163778Y-64068005D01*
X122207051Y-64091136D01*
X122247850Y-64118396D01*
X122285779Y-64149524D01*
X122320476Y-64184221D01*
X122351604Y-64222150D01*
X122378864Y-64262949D01*
X122401995Y-64306222D01*
X122420772Y-64351555D01*
X122435016Y-64398510D01*
X122444588Y-64446635D01*
X122449398Y-64495466D01*
X122449398Y-64520000D01*
X122450000Y-64520000D01*
X122450000Y-65020000D01*
X122449398Y-65020000D01*
X122449398Y-65044534D01*
X122444588Y-65093365D01*
X122435016Y-65141490D01*
X122420772Y-65188445D01*
X122401995Y-65233778D01*
X122378864Y-65277051D01*
X122351604Y-65317850D01*
X122320476Y-65355779D01*
X122285779Y-65390476D01*
X122247850Y-65421604D01*
X122207051Y-65448864D01*
X122163778Y-65471995D01*
X122118445Y-65490772D01*
X122071490Y-65505016D01*
X122023365Y-65514588D01*
X121974534Y-65519398D01*
X121950000Y-65519398D01*
X121950000Y-65520000D01*
X121400000Y-65520000D01*
X121400000Y-64020000D01*
X121950000Y-64020000D01*
X121950000Y-64020602D01*
G37*
G36*
X119900000Y-65520000D02*
G01*
X119350000Y-65520000D01*
X119350000Y-65519398D01*
X119325466Y-65519398D01*
X119276635Y-65514588D01*
X119228510Y-65505016D01*
X119181555Y-65490772D01*
X119136222Y-65471995D01*
X119092949Y-65448864D01*
X119052150Y-65421604D01*
X119014221Y-65390476D01*
X118979524Y-65355779D01*
X118948396Y-65317850D01*
X118921136Y-65277051D01*
X118898005Y-65233778D01*
X118879228Y-65188445D01*
X118864984Y-65141490D01*
X118855412Y-65093365D01*
X118850602Y-65044534D01*
X118850602Y-65020000D01*
X118850000Y-65020000D01*
X118850000Y-64520000D01*
X118850602Y-64520000D01*
X118850602Y-64495466D01*
X118855412Y-64446635D01*
X118864984Y-64398510D01*
X118879228Y-64351555D01*
X118898005Y-64306222D01*
X118921136Y-64262949D01*
X118948396Y-64222150D01*
X118979524Y-64184221D01*
X119014221Y-64149524D01*
X119052150Y-64118396D01*
X119092949Y-64091136D01*
X119136222Y-64068005D01*
X119181555Y-64049228D01*
X119228510Y-64034984D01*
X119276635Y-64025412D01*
X119325466Y-64020602D01*
X119350000Y-64020602D01*
X119350000Y-64020000D01*
X119900000Y-64020000D01*
X119900000Y-65520000D01*
G37*
%TD*%
D15*
%TO.C,JP5*%
X182880000Y-93980000D03*
D16*
G36*
X184180000Y-93230602D02*
G01*
X184204534Y-93230602D01*
X184253365Y-93235412D01*
X184301490Y-93244984D01*
X184348445Y-93259228D01*
X184393778Y-93278005D01*
X184437051Y-93301136D01*
X184477850Y-93328396D01*
X184515779Y-93359524D01*
X184550476Y-93394221D01*
X184581604Y-93432150D01*
X184608864Y-93472949D01*
X184631995Y-93516222D01*
X184650772Y-93561555D01*
X184665016Y-93608510D01*
X184674588Y-93656635D01*
X184679398Y-93705466D01*
X184679398Y-93730000D01*
X184680000Y-93730000D01*
X184680000Y-94230000D01*
X184679398Y-94230000D01*
X184679398Y-94254534D01*
X184674588Y-94303365D01*
X184665016Y-94351490D01*
X184650772Y-94398445D01*
X184631995Y-94443778D01*
X184608864Y-94487051D01*
X184581604Y-94527850D01*
X184550476Y-94565779D01*
X184515779Y-94600476D01*
X184477850Y-94631604D01*
X184437051Y-94658864D01*
X184393778Y-94681995D01*
X184348445Y-94700772D01*
X184301490Y-94715016D01*
X184253365Y-94724588D01*
X184204534Y-94729398D01*
X184180000Y-94729398D01*
X184180000Y-94730000D01*
X183630000Y-94730000D01*
X183630000Y-93230000D01*
X184180000Y-93230000D01*
X184180000Y-93230602D01*
G37*
G36*
X182130000Y-94730000D02*
G01*
X181580000Y-94730000D01*
X181580000Y-94729398D01*
X181555466Y-94729398D01*
X181506635Y-94724588D01*
X181458510Y-94715016D01*
X181411555Y-94700772D01*
X181366222Y-94681995D01*
X181322949Y-94658864D01*
X181282150Y-94631604D01*
X181244221Y-94600476D01*
X181209524Y-94565779D01*
X181178396Y-94527850D01*
X181151136Y-94487051D01*
X181128005Y-94443778D01*
X181109228Y-94398445D01*
X181094984Y-94351490D01*
X181085412Y-94303365D01*
X181080602Y-94254534D01*
X181080602Y-94230000D01*
X181080000Y-94230000D01*
X181080000Y-93730000D01*
X181080602Y-93730000D01*
X181080602Y-93705466D01*
X181085412Y-93656635D01*
X181094984Y-93608510D01*
X181109228Y-93561555D01*
X181128005Y-93516222D01*
X181151136Y-93472949D01*
X181178396Y-93432150D01*
X181209524Y-93394221D01*
X181244221Y-93359524D01*
X181282150Y-93328396D01*
X181322949Y-93301136D01*
X181366222Y-93278005D01*
X181411555Y-93259228D01*
X181458510Y-93244984D01*
X181506635Y-93235412D01*
X181555466Y-93230602D01*
X181580000Y-93230602D01*
X181580000Y-93230000D01*
X182130000Y-93230000D01*
X182130000Y-94730000D01*
G37*
%TD*%
D15*
%TO.C,JP4*%
X144780000Y-64770000D03*
D16*
G36*
X146080000Y-64020602D02*
G01*
X146104534Y-64020602D01*
X146153365Y-64025412D01*
X146201490Y-64034984D01*
X146248445Y-64049228D01*
X146293778Y-64068005D01*
X146337051Y-64091136D01*
X146377850Y-64118396D01*
X146415779Y-64149524D01*
X146450476Y-64184221D01*
X146481604Y-64222150D01*
X146508864Y-64262949D01*
X146531995Y-64306222D01*
X146550772Y-64351555D01*
X146565016Y-64398510D01*
X146574588Y-64446635D01*
X146579398Y-64495466D01*
X146579398Y-64520000D01*
X146580000Y-64520000D01*
X146580000Y-65020000D01*
X146579398Y-65020000D01*
X146579398Y-65044534D01*
X146574588Y-65093365D01*
X146565016Y-65141490D01*
X146550772Y-65188445D01*
X146531995Y-65233778D01*
X146508864Y-65277051D01*
X146481604Y-65317850D01*
X146450476Y-65355779D01*
X146415779Y-65390476D01*
X146377850Y-65421604D01*
X146337051Y-65448864D01*
X146293778Y-65471995D01*
X146248445Y-65490772D01*
X146201490Y-65505016D01*
X146153365Y-65514588D01*
X146104534Y-65519398D01*
X146080000Y-65519398D01*
X146080000Y-65520000D01*
X145530000Y-65520000D01*
X145530000Y-64020000D01*
X146080000Y-64020000D01*
X146080000Y-64020602D01*
G37*
G36*
X144030000Y-65520000D02*
G01*
X143480000Y-65520000D01*
X143480000Y-65519398D01*
X143455466Y-65519398D01*
X143406635Y-65514588D01*
X143358510Y-65505016D01*
X143311555Y-65490772D01*
X143266222Y-65471995D01*
X143222949Y-65448864D01*
X143182150Y-65421604D01*
X143144221Y-65390476D01*
X143109524Y-65355779D01*
X143078396Y-65317850D01*
X143051136Y-65277051D01*
X143028005Y-65233778D01*
X143009228Y-65188445D01*
X142994984Y-65141490D01*
X142985412Y-65093365D01*
X142980602Y-65044534D01*
X142980602Y-65020000D01*
X142980000Y-65020000D01*
X142980000Y-64520000D01*
X142980602Y-64520000D01*
X142980602Y-64495466D01*
X142985412Y-64446635D01*
X142994984Y-64398510D01*
X143009228Y-64351555D01*
X143028005Y-64306222D01*
X143051136Y-64262949D01*
X143078396Y-64222150D01*
X143109524Y-64184221D01*
X143144221Y-64149524D01*
X143182150Y-64118396D01*
X143222949Y-64091136D01*
X143266222Y-64068005D01*
X143311555Y-64049228D01*
X143358510Y-64034984D01*
X143406635Y-64025412D01*
X143455466Y-64020602D01*
X143480000Y-64020602D01*
X143480000Y-64020000D01*
X144030000Y-64020000D01*
X144030000Y-65520000D01*
G37*
%TD*%
D15*
%TO.C,JP3*%
X157450000Y-93980000D03*
D16*
G36*
X158750000Y-93230602D02*
G01*
X158774534Y-93230602D01*
X158823365Y-93235412D01*
X158871490Y-93244984D01*
X158918445Y-93259228D01*
X158963778Y-93278005D01*
X159007051Y-93301136D01*
X159047850Y-93328396D01*
X159085779Y-93359524D01*
X159120476Y-93394221D01*
X159151604Y-93432150D01*
X159178864Y-93472949D01*
X159201995Y-93516222D01*
X159220772Y-93561555D01*
X159235016Y-93608510D01*
X159244588Y-93656635D01*
X159249398Y-93705466D01*
X159249398Y-93730000D01*
X159250000Y-93730000D01*
X159250000Y-94230000D01*
X159249398Y-94230000D01*
X159249398Y-94254534D01*
X159244588Y-94303365D01*
X159235016Y-94351490D01*
X159220772Y-94398445D01*
X159201995Y-94443778D01*
X159178864Y-94487051D01*
X159151604Y-94527850D01*
X159120476Y-94565779D01*
X159085779Y-94600476D01*
X159047850Y-94631604D01*
X159007051Y-94658864D01*
X158963778Y-94681995D01*
X158918445Y-94700772D01*
X158871490Y-94715016D01*
X158823365Y-94724588D01*
X158774534Y-94729398D01*
X158750000Y-94729398D01*
X158750000Y-94730000D01*
X158200000Y-94730000D01*
X158200000Y-93230000D01*
X158750000Y-93230000D01*
X158750000Y-93230602D01*
G37*
G36*
X156700000Y-94730000D02*
G01*
X156150000Y-94730000D01*
X156150000Y-94729398D01*
X156125466Y-94729398D01*
X156076635Y-94724588D01*
X156028510Y-94715016D01*
X155981555Y-94700772D01*
X155936222Y-94681995D01*
X155892949Y-94658864D01*
X155852150Y-94631604D01*
X155814221Y-94600476D01*
X155779524Y-94565779D01*
X155748396Y-94527850D01*
X155721136Y-94487051D01*
X155698005Y-94443778D01*
X155679228Y-94398445D01*
X155664984Y-94351490D01*
X155655412Y-94303365D01*
X155650602Y-94254534D01*
X155650602Y-94230000D01*
X155650000Y-94230000D01*
X155650000Y-93730000D01*
X155650602Y-93730000D01*
X155650602Y-93705466D01*
X155655412Y-93656635D01*
X155664984Y-93608510D01*
X155679228Y-93561555D01*
X155698005Y-93516222D01*
X155721136Y-93472949D01*
X155748396Y-93432150D01*
X155779524Y-93394221D01*
X155814221Y-93359524D01*
X155852150Y-93328396D01*
X155892949Y-93301136D01*
X155936222Y-93278005D01*
X155981555Y-93259228D01*
X156028510Y-93244984D01*
X156076635Y-93235412D01*
X156125466Y-93230602D01*
X156150000Y-93230602D01*
X156150000Y-93230000D01*
X156700000Y-93230000D01*
X156700000Y-94730000D01*
G37*
%TD*%
D15*
%TO.C,JP2*%
X134620000Y-93980000D03*
D16*
G36*
X135920000Y-93230602D02*
G01*
X135944534Y-93230602D01*
X135993365Y-93235412D01*
X136041490Y-93244984D01*
X136088445Y-93259228D01*
X136133778Y-93278005D01*
X136177051Y-93301136D01*
X136217850Y-93328396D01*
X136255779Y-93359524D01*
X136290476Y-93394221D01*
X136321604Y-93432150D01*
X136348864Y-93472949D01*
X136371995Y-93516222D01*
X136390772Y-93561555D01*
X136405016Y-93608510D01*
X136414588Y-93656635D01*
X136419398Y-93705466D01*
X136419398Y-93730000D01*
X136420000Y-93730000D01*
X136420000Y-94230000D01*
X136419398Y-94230000D01*
X136419398Y-94254534D01*
X136414588Y-94303365D01*
X136405016Y-94351490D01*
X136390772Y-94398445D01*
X136371995Y-94443778D01*
X136348864Y-94487051D01*
X136321604Y-94527850D01*
X136290476Y-94565779D01*
X136255779Y-94600476D01*
X136217850Y-94631604D01*
X136177051Y-94658864D01*
X136133778Y-94681995D01*
X136088445Y-94700772D01*
X136041490Y-94715016D01*
X135993365Y-94724588D01*
X135944534Y-94729398D01*
X135920000Y-94729398D01*
X135920000Y-94730000D01*
X135370000Y-94730000D01*
X135370000Y-93230000D01*
X135920000Y-93230000D01*
X135920000Y-93230602D01*
G37*
G36*
X133870000Y-94730000D02*
G01*
X133320000Y-94730000D01*
X133320000Y-94729398D01*
X133295466Y-94729398D01*
X133246635Y-94724588D01*
X133198510Y-94715016D01*
X133151555Y-94700772D01*
X133106222Y-94681995D01*
X133062949Y-94658864D01*
X133022150Y-94631604D01*
X132984221Y-94600476D01*
X132949524Y-94565779D01*
X132918396Y-94527850D01*
X132891136Y-94487051D01*
X132868005Y-94443778D01*
X132849228Y-94398445D01*
X132834984Y-94351490D01*
X132825412Y-94303365D01*
X132820602Y-94254534D01*
X132820602Y-94230000D01*
X132820000Y-94230000D01*
X132820000Y-93730000D01*
X132820602Y-93730000D01*
X132820602Y-93705466D01*
X132825412Y-93656635D01*
X132834984Y-93608510D01*
X132849228Y-93561555D01*
X132868005Y-93516222D01*
X132891136Y-93472949D01*
X132918396Y-93432150D01*
X132949524Y-93394221D01*
X132984221Y-93359524D01*
X133022150Y-93328396D01*
X133062949Y-93301136D01*
X133106222Y-93278005D01*
X133151555Y-93259228D01*
X133198510Y-93244984D01*
X133246635Y-93235412D01*
X133295466Y-93230602D01*
X133320000Y-93230602D01*
X133320000Y-93230000D01*
X133870000Y-93230000D01*
X133870000Y-94730000D01*
G37*
%TD*%
D15*
%TO.C,JP1*%
X114300000Y-93980000D03*
D16*
G36*
X115600000Y-93230602D02*
G01*
X115624534Y-93230602D01*
X115673365Y-93235412D01*
X115721490Y-93244984D01*
X115768445Y-93259228D01*
X115813778Y-93278005D01*
X115857051Y-93301136D01*
X115897850Y-93328396D01*
X115935779Y-93359524D01*
X115970476Y-93394221D01*
X116001604Y-93432150D01*
X116028864Y-93472949D01*
X116051995Y-93516222D01*
X116070772Y-93561555D01*
X116085016Y-93608510D01*
X116094588Y-93656635D01*
X116099398Y-93705466D01*
X116099398Y-93730000D01*
X116100000Y-93730000D01*
X116100000Y-94230000D01*
X116099398Y-94230000D01*
X116099398Y-94254534D01*
X116094588Y-94303365D01*
X116085016Y-94351490D01*
X116070772Y-94398445D01*
X116051995Y-94443778D01*
X116028864Y-94487051D01*
X116001604Y-94527850D01*
X115970476Y-94565779D01*
X115935779Y-94600476D01*
X115897850Y-94631604D01*
X115857051Y-94658864D01*
X115813778Y-94681995D01*
X115768445Y-94700772D01*
X115721490Y-94715016D01*
X115673365Y-94724588D01*
X115624534Y-94729398D01*
X115600000Y-94729398D01*
X115600000Y-94730000D01*
X115050000Y-94730000D01*
X115050000Y-93230000D01*
X115600000Y-93230000D01*
X115600000Y-93230602D01*
G37*
G36*
X113550000Y-94730000D02*
G01*
X113000000Y-94730000D01*
X113000000Y-94729398D01*
X112975466Y-94729398D01*
X112926635Y-94724588D01*
X112878510Y-94715016D01*
X112831555Y-94700772D01*
X112786222Y-94681995D01*
X112742949Y-94658864D01*
X112702150Y-94631604D01*
X112664221Y-94600476D01*
X112629524Y-94565779D01*
X112598396Y-94527850D01*
X112571136Y-94487051D01*
X112548005Y-94443778D01*
X112529228Y-94398445D01*
X112514984Y-94351490D01*
X112505412Y-94303365D01*
X112500602Y-94254534D01*
X112500602Y-94230000D01*
X112500000Y-94230000D01*
X112500000Y-93730000D01*
X112500602Y-93730000D01*
X112500602Y-93705466D01*
X112505412Y-93656635D01*
X112514984Y-93608510D01*
X112529228Y-93561555D01*
X112548005Y-93516222D01*
X112571136Y-93472949D01*
X112598396Y-93432150D01*
X112629524Y-93394221D01*
X112664221Y-93359524D01*
X112702150Y-93328396D01*
X112742949Y-93301136D01*
X112786222Y-93278005D01*
X112831555Y-93259228D01*
X112878510Y-93244984D01*
X112926635Y-93235412D01*
X112975466Y-93230602D01*
X113000000Y-93230602D01*
X113000000Y-93230000D01*
X113550000Y-93230000D01*
X113550000Y-94730000D01*
G37*
%TD*%
D17*
%TO.C,U11*%
X129540000Y-57150000D03*
X137160000Y-64770000D03*
X132080000Y-57150000D03*
X134620000Y-64770000D03*
X134620000Y-57150000D03*
X132080000Y-64770000D03*
X137160000Y-57150000D03*
D18*
X129540000Y-64770000D03*
%TD*%
D12*
%TO.C,J3*%
X60960000Y-60960000D03*
X63500000Y-60960000D03*
X60960000Y-63500000D03*
X63500000Y-63500000D03*
X60960000Y-66040000D03*
X63500000Y-66040000D03*
X60960000Y-68580000D03*
X63500000Y-68580000D03*
X60960000Y-71120000D03*
X63500000Y-71120000D03*
X60960000Y-73660000D03*
D13*
X63500000Y-73660000D03*
%TD*%
D12*
%TO.C,J2*%
X60960000Y-83820000D03*
X63500000Y-83820000D03*
X60960000Y-86360000D03*
X63500000Y-86360000D03*
X60960000Y-88900000D03*
X63500000Y-88900000D03*
X60960000Y-91440000D03*
X63500000Y-91440000D03*
X60960000Y-93980000D03*
X63500000Y-93980000D03*
X60960000Y-96520000D03*
D13*
X63500000Y-96520000D03*
%TD*%
D12*
%TO.C,J1*%
X60960000Y-106680000D03*
X63500000Y-106680000D03*
X60960000Y-109220000D03*
X63500000Y-109220000D03*
X60960000Y-111760000D03*
X63500000Y-111760000D03*
X60960000Y-114300000D03*
X63500000Y-114300000D03*
X60960000Y-116840000D03*
X63500000Y-116840000D03*
X60960000Y-119380000D03*
D13*
X63500000Y-119380000D03*
%TD*%
D19*
%TO.C,U10*%
X132080000Y-77470000D03*
X109220000Y-77470000D03*
D14*
X133350000Y-86360000D03*
X130810000Y-86360000D03*
X128270000Y-86360000D03*
X125730000Y-86360000D03*
X123190000Y-86360000D03*
X120650000Y-86360000D03*
X118110000Y-86360000D03*
X115570000Y-86360000D03*
X113030000Y-86360000D03*
X110490000Y-86360000D03*
X107950000Y-86360000D03*
%TD*%
D19*
%TO.C,U6*%
X142240000Y-107950000D03*
X127000000Y-107950000D03*
D14*
X143510000Y-119380000D03*
X140970000Y-119380000D03*
X138430000Y-119380000D03*
X135890000Y-119380000D03*
X133350000Y-119380000D03*
X130810000Y-119380000D03*
X128270000Y-119380000D03*
X125730000Y-119380000D03*
%TD*%
%TO.C,U9*%
X194310000Y-119380000D03*
X191770000Y-119380000D03*
D19*
X193040000Y-107950000D03*
X172720000Y-107950000D03*
D14*
X189230000Y-119380000D03*
X186690000Y-119380000D03*
X184150000Y-119380000D03*
X181610000Y-119380000D03*
X179070000Y-119380000D03*
X176530000Y-119380000D03*
X173990000Y-119380000D03*
X171450000Y-119380000D03*
%TD*%
D19*
%TO.C,U8*%
X149860000Y-77470000D03*
X139700000Y-77470000D03*
D14*
X151130000Y-86360000D03*
X148590000Y-86360000D03*
X146050000Y-86360000D03*
X143510000Y-86360000D03*
X140970000Y-86360000D03*
X138430000Y-86360000D03*
%TD*%
D19*
%TO.C,U7*%
X165100000Y-107950000D03*
X149860000Y-107950000D03*
D14*
X166370000Y-119380000D03*
X163830000Y-119380000D03*
X161290000Y-119380000D03*
X158750000Y-119380000D03*
X156210000Y-119380000D03*
X153670000Y-119380000D03*
X151130000Y-119380000D03*
X148590000Y-119380000D03*
%TD*%
D20*
%TO.C,U5*%
X101600000Y-80010000D03*
X91440000Y-80010000D03*
D14*
X102870000Y-119380000D03*
X100330000Y-119380000D03*
X97790000Y-119380000D03*
X95250000Y-119380000D03*
X92710000Y-119380000D03*
X90170000Y-119380000D03*
%TD*%
%TO.C,U4*%
X166370000Y-76200000D03*
X156210000Y-76200000D03*
X165100000Y-86360000D03*
X162560000Y-86360000D03*
X160020000Y-86360000D03*
X157480000Y-86360000D03*
%TD*%
D19*
%TO.C,U3*%
X165100000Y-60960000D03*
X154940000Y-60960000D03*
D14*
X156210000Y-72390000D03*
X163830000Y-72390000D03*
X161290000Y-72390000D03*
X158750000Y-72390000D03*
%TD*%
D19*
%TO.C,U2*%
X119380000Y-102870000D03*
X109220000Y-102870000D03*
D14*
X119380000Y-119380000D03*
X116840000Y-119380000D03*
X114300000Y-119380000D03*
X111760000Y-119380000D03*
X109220000Y-119380000D03*
%TD*%
D20*
%TO.C,U1*%
X172720000Y-69850000D03*
D14*
X181610000Y-86250000D03*
X179070000Y-86250000D03*
X176530000Y-86250000D03*
X173990000Y-86250000D03*
X171450000Y-86250000D03*
%TD*%
M02*
