%TF.GenerationSoftware,KiCad,Pcbnew,(6.0.10)*%
%TF.CreationDate,2023-01-05T13:47:07+01:00*%
%TF.ProjectId,pmod_esp32c3_baseboard,706d6f64-5f65-4737-9033-3263335f6261,rev?*%
%TF.SameCoordinates,Original*%
%TF.FileFunction,Copper,L2,Bot*%
%TF.FilePolarity,Positive*%
%FSLAX46Y46*%
G04 Gerber Fmt 4.6, Leading zero omitted, Abs format (unit mm)*
G04 Created by KiCad (PCBNEW (6.0.10)) date 2023-01-05 13:47:07*
%MOMM*%
%LPD*%
G01*
G04 APERTURE LIST*
%TA.AperFunction,ComponentPad*%
%ADD10R,1.700000X1.700000*%
%TD*%
%TA.AperFunction,ComponentPad*%
%ADD11O,1.700000X1.700000*%
%TD*%
%TA.AperFunction,ComponentPad*%
%ADD12C,0.800000*%
%TD*%
%TA.AperFunction,ComponentPad*%
%ADD13C,6.400000*%
%TD*%
%TA.AperFunction,ComponentPad*%
%ADD14C,1.524000*%
%TD*%
%TA.AperFunction,ViaPad*%
%ADD15C,0.800000*%
%TD*%
%TA.AperFunction,Conductor*%
%ADD16C,0.250000*%
%TD*%
G04 APERTURE END LIST*
D10*
%TO.P,PMOD2,1,Pin_1*%
%TO.N,VCC*%
X96520000Y-30480000D03*
D11*
%TO.P,PMOD2,2,Pin_2*%
X96520000Y-27940000D03*
%TO.P,PMOD2,3,Pin_3*%
%TO.N,GND*%
X93980000Y-30480000D03*
%TO.P,PMOD2,4,Pin_4*%
X93980000Y-27940000D03*
%TO.P,PMOD2,5,Pin_5*%
%TO.N,PMOD_UART_RTS*%
X91440000Y-30480000D03*
%TO.P,PMOD2,6,Pin_6*%
%TO.N,PMOD_UART_GPIO4*%
X91440000Y-27940000D03*
%TO.P,PMOD2,7,Pin_7*%
%TO.N,PMOD_UART_RXD*%
X88900000Y-30480000D03*
%TO.P,PMOD2,8,Pin_8*%
%TO.N,PMOD_UART_GPIO3*%
X88900000Y-27940000D03*
%TO.P,PMOD2,9,Pin_9*%
%TO.N,PMOD_UART_TXD*%
X86360000Y-30480000D03*
%TO.P,PMOD2,10,Pin_10*%
%TO.N,PMOD_UART_GPIO2_RESET*%
X86360000Y-27940000D03*
%TO.P,PMOD2,11,Pin_11*%
%TO.N,PMOD_UART_CTS*%
X83820000Y-30480000D03*
%TO.P,PMOD2,12,Pin_12*%
%TO.N,PMOD_UART_GPIO1_INT*%
X83820000Y-27940000D03*
%TD*%
D10*
%TO.P,PMOD3,1,Pin_1*%
%TO.N,VCC*%
X119380000Y-30480000D03*
D11*
%TO.P,PMOD3,2,Pin_2*%
X119380000Y-27940000D03*
%TO.P,PMOD3,3,Pin_3*%
%TO.N,GND*%
X116840000Y-30480000D03*
%TO.P,PMOD3,4,Pin_4*%
X116840000Y-27940000D03*
%TO.P,PMOD3,5,Pin_5*%
%TO.N,PMOD_I2C_SDA*%
X114300000Y-30480000D03*
%TO.P,PMOD3,6,Pin_6*%
%TO.N,PMOD_I2C_GPIO4*%
X114300000Y-27940000D03*
%TO.P,PMOD3,7,Pin_7*%
%TO.N,PMOD_I2C_SCL*%
X111760000Y-30480000D03*
%TO.P,PMOD3,8,Pin_8*%
%TO.N,PMOD_I2C_GPIO3*%
X111760000Y-27940000D03*
%TO.P,PMOD3,9,Pin_9*%
%TO.N,PMOD_I2C_RESET*%
X109220000Y-30480000D03*
%TO.P,PMOD3,10,Pin_10*%
%TO.N,PMOD_I2C_GPIO2*%
X109220000Y-27940000D03*
%TO.P,PMOD3,11,Pin_11*%
%TO.N,PMOD_I2C_INT*%
X106680000Y-30480000D03*
%TO.P,PMOD3,12,Pin_12*%
%TO.N,PMOD_I2C_GPIO1*%
X106680000Y-27940000D03*
%TD*%
D10*
%TO.P,PMOD1,1,Pin_1*%
%TO.N,VCC*%
X73660000Y-30480000D03*
D11*
%TO.P,PMOD1,2,Pin_2*%
X73660000Y-27940000D03*
%TO.P,PMOD1,3,Pin_3*%
%TO.N,GND*%
X71120000Y-30480000D03*
%TO.P,PMOD1,4,Pin_4*%
X71120000Y-27940000D03*
%TO.P,PMOD1,5,Pin_5*%
%TO.N,PMOD_SPI_SCK*%
X68580000Y-30480000D03*
%TO.P,PMOD1,6,Pin_6*%
%TO.N,PMOD_SPI_GPIO4_CS3*%
X68580000Y-27940000D03*
%TO.P,PMOD1,7,Pin_7*%
%TO.N,PMOD_SPI_MISO*%
X66040000Y-30480000D03*
%TO.P,PMOD1,8,Pin_8*%
%TO.N,PMOD_SPI_GPIO3_CS2*%
X66040000Y-27940000D03*
%TO.P,PMOD1,9,Pin_9*%
%TO.N,PMOD_SPI_MOSI*%
X63500000Y-30480000D03*
%TO.P,PMOD1,10,Pin_10*%
%TO.N,PMOD_SPI_GPIO2_RESET*%
X63500000Y-27940000D03*
%TO.P,PMOD1,11,Pin_11*%
%TO.N,PMOD_SPI_CS*%
X60960000Y-30480000D03*
%TO.P,PMOD1,12,Pin_12*%
%TO.N,PMOD_SPI_GPIO1_INT*%
X60960000Y-27940000D03*
%TD*%
D12*
%TO.P,H3,1*%
%TO.N,N/C*%
X52497056Y-88057056D03*
X49102944Y-84662944D03*
X50800000Y-83960000D03*
X48400000Y-86360000D03*
X52497056Y-84662944D03*
X49102944Y-88057056D03*
X53200000Y-86360000D03*
D13*
X50800000Y-86360000D03*
D12*
X50800000Y-88760000D03*
%TD*%
%TO.P,H1,1*%
%TO.N,N/C*%
X50800000Y-20460000D03*
X52497056Y-24557056D03*
X50800000Y-25260000D03*
X53200000Y-22860000D03*
X48400000Y-22860000D03*
X52497056Y-21162944D03*
X49102944Y-24557056D03*
D13*
X50800000Y-22860000D03*
D12*
X49102944Y-21162944D03*
%TD*%
D10*
%TO.P,J1,1,Pin_1*%
%TO.N,VCC*%
X129540000Y-36830000D03*
D11*
%TO.P,J1,2,Pin_2*%
%TO.N,GND*%
X129540000Y-34290000D03*
%TD*%
D12*
%TO.P,H4,1*%
%TO.N,N/C*%
X131237056Y-84662944D03*
X127842944Y-88057056D03*
D13*
X129540000Y-86360000D03*
D12*
X127140000Y-86360000D03*
X129540000Y-88760000D03*
X131237056Y-88057056D03*
X127842944Y-84662944D03*
X131940000Y-86360000D03*
X129540000Y-83960000D03*
%TD*%
%TO.P,H2,1*%
%TO.N,N/C*%
X131237056Y-21162944D03*
X131237056Y-24557056D03*
X127842944Y-21162944D03*
D13*
X129540000Y-22860000D03*
D12*
X129540000Y-25260000D03*
X131940000Y-22860000D03*
X129540000Y-20460000D03*
X127140000Y-22860000D03*
X127842944Y-24557056D03*
%TD*%
D14*
%TO.P,U1,1,GND*%
%TO.N,GND*%
X73660000Y-81280000D03*
%TO.P,U1,2,3V3*%
%TO.N,VCC*%
X76200000Y-81280000D03*
%TO.P,U1,3,3V3*%
X78740000Y-81280000D03*
%TO.P,U1,4,2*%
%TO.N,PMOD_SPI_GPIO3_CS2*%
X81280000Y-81280000D03*
%TO.P,U1,5,3*%
%TO.N,PMOD_SPI_GPIO4_CS3*%
X83820000Y-81280000D03*
%TO.P,U1,6,GND*%
%TO.N,GND*%
X86360000Y-81280000D03*
%TO.P,U1,7,R*%
%TO.N,~{RST}*%
X88900000Y-81280000D03*
%TO.P,U1,8,GND*%
%TO.N,GND*%
X91440000Y-81280000D03*
%TO.P,U1,9,0*%
%TO.N,PMOD_SPI_MOSI*%
X93980000Y-81280000D03*
%TO.P,U1,10,1*%
%TO.N,PMOD_SPI_MISO*%
X96520000Y-81280000D03*
%TO.P,U1,11,10*%
%TO.N,PMOD_SPI_SCK*%
X99060000Y-81280000D03*
%TO.P,U1,12,GND*%
%TO.N,GND*%
X101600000Y-81280000D03*
%TO.P,U1,13,5V*%
%TO.N,unconnected-(U1-Pad13)*%
X104140000Y-81280000D03*
%TO.P,U1,14,5V*%
%TO.N,unconnected-(U1-Pad14)*%
X106680000Y-81280000D03*
%TO.P,U1,15,GND*%
%TO.N,GND*%
X109220000Y-81280000D03*
%TO.P,U1,16,GND*%
X109220000Y-55880000D03*
%TO.P,U1,17,USBD+/19*%
%TO.N,unconnected-(U1-Pad17)*%
X106680000Y-55880000D03*
%TO.P,U1,18,USBD-/18*%
%TO.N,unconnected-(U1-Pad18)*%
X104140000Y-55880000D03*
%TO.P,U1,19,GND*%
%TO.N,GND*%
X101600000Y-55880000D03*
%TO.P,U1,20,4*%
%TO.N,PMOD_I2C_SDA*%
X99060000Y-55880000D03*
%TO.P,U1,21,5*%
%TO.N,PMOD_I2C_SCL*%
X96520000Y-55880000D03*
%TO.P,U1,22,6*%
%TO.N,PMOD_UART_RXD*%
X93980000Y-55880000D03*
%TO.P,U1,23,7*%
%TO.N,PMOD_UART_TXD*%
X91440000Y-55880000D03*
%TO.P,U1,24,GND*%
%TO.N,GND*%
X88900000Y-55880000D03*
%TO.P,U1,25,RGB/8*%
%TO.N,unconnected-(U1-Pad25)*%
X86360000Y-55880000D03*
%TO.P,U1,26,9*%
%TO.N,PMOD_SPI_CS*%
X83820000Y-55880000D03*
%TO.P,U1,27,GND*%
%TO.N,GND*%
X81280000Y-55880000D03*
%TO.P,U1,28,RX*%
%TO.N,unconnected-(U1-Pad28)*%
X78740000Y-55880000D03*
%TO.P,U1,29,TX*%
%TO.N,unconnected-(U1-Pad29)*%
X76200000Y-55880000D03*
%TO.P,U1,30,GND*%
%TO.N,GND*%
X73660000Y-55880000D03*
%TD*%
D15*
%TO.N,PMOD_SPI_SCK*%
X97790000Y-53340000D03*
%TO.N,PMOD_SPI_MOSI*%
X92710000Y-53340000D03*
%TO.N,PMOD_SPI_MISO*%
X95250000Y-53340000D03*
%TD*%
D16*
%TO.N,PMOD_SPI_SCK*%
X92710000Y-48260000D02*
X97790000Y-53340000D01*
X68580000Y-46990000D02*
X69850000Y-48260000D01*
X69850000Y-48260000D02*
X92710000Y-48260000D01*
X68580000Y-30480000D02*
X68580000Y-46990000D01*
%TO.N,PMOD_SPI_MOSI*%
X92710000Y-53340000D02*
X91440000Y-52070000D01*
X90170000Y-50800000D02*
X64770000Y-50800000D01*
X91440000Y-52070000D02*
X90170000Y-50800000D01*
X63500000Y-49530000D02*
X64770000Y-50800000D01*
X63500000Y-30480000D02*
X63500000Y-49530000D01*
%TO.N,PMOD_SPI_MISO*%
X66040000Y-48260000D02*
X67310000Y-49530000D01*
X66040000Y-30480000D02*
X66040000Y-48260000D01*
X91440000Y-49530000D02*
X95250000Y-53340000D01*
X67310000Y-49530000D02*
X91440000Y-49530000D01*
%TO.N,PMOD_SPI_CS*%
X83820000Y-55880000D02*
X83820000Y-53340000D01*
X60960000Y-50800000D02*
X60960000Y-30480000D01*
X83820000Y-53340000D02*
X82550000Y-52070000D01*
X82550000Y-52070000D02*
X62230000Y-52070000D01*
X62230000Y-52070000D02*
X60960000Y-50800000D01*
%TD*%
%TA.AperFunction,Conductor*%
%TO.N,GND*%
G36*
X134053621Y-18308502D02*
G01*
X134100114Y-18362158D01*
X134111500Y-18414500D01*
X134111500Y-90805500D01*
X134091498Y-90873621D01*
X134037842Y-90920114D01*
X133985500Y-90931500D01*
X46354500Y-90931500D01*
X46286379Y-90911498D01*
X46239886Y-90857842D01*
X46228500Y-90805500D01*
X46228500Y-86360000D01*
X47086411Y-86360000D01*
X47106754Y-86748176D01*
X47167562Y-87132099D01*
X47268167Y-87507562D01*
X47407468Y-87870453D01*
X47583938Y-88216794D01*
X47795643Y-88542793D01*
X48040266Y-88844876D01*
X48315124Y-89119734D01*
X48617207Y-89364357D01*
X48943205Y-89576062D01*
X48946139Y-89577557D01*
X48946146Y-89577561D01*
X49286607Y-89751034D01*
X49289547Y-89752532D01*
X49652438Y-89891833D01*
X50027901Y-89992438D01*
X50231793Y-90024732D01*
X50408576Y-90052732D01*
X50408584Y-90052733D01*
X50411824Y-90053246D01*
X50800000Y-90073589D01*
X51188176Y-90053246D01*
X51191416Y-90052733D01*
X51191424Y-90052732D01*
X51368207Y-90024732D01*
X51572099Y-89992438D01*
X51947562Y-89891833D01*
X52310453Y-89752532D01*
X52313393Y-89751034D01*
X52653854Y-89577561D01*
X52653861Y-89577557D01*
X52656795Y-89576062D01*
X52982793Y-89364357D01*
X53284876Y-89119734D01*
X53559734Y-88844876D01*
X53804357Y-88542793D01*
X54016062Y-88216794D01*
X54192532Y-87870453D01*
X54331833Y-87507562D01*
X54432438Y-87132099D01*
X54493246Y-86748176D01*
X54513589Y-86360000D01*
X125826411Y-86360000D01*
X125846754Y-86748176D01*
X125907562Y-87132099D01*
X126008167Y-87507562D01*
X126147468Y-87870453D01*
X126323938Y-88216794D01*
X126535643Y-88542793D01*
X126780266Y-88844876D01*
X127055124Y-89119734D01*
X127357207Y-89364357D01*
X127683205Y-89576062D01*
X127686139Y-89577557D01*
X127686146Y-89577561D01*
X128026607Y-89751034D01*
X128029547Y-89752532D01*
X128392438Y-89891833D01*
X128767901Y-89992438D01*
X128971793Y-90024732D01*
X129148576Y-90052732D01*
X129148584Y-90052733D01*
X129151824Y-90053246D01*
X129540000Y-90073589D01*
X129928176Y-90053246D01*
X129931416Y-90052733D01*
X129931424Y-90052732D01*
X130108207Y-90024732D01*
X130312099Y-89992438D01*
X130687562Y-89891833D01*
X131050453Y-89752532D01*
X131053393Y-89751034D01*
X131393854Y-89577561D01*
X131393861Y-89577557D01*
X131396795Y-89576062D01*
X131722793Y-89364357D01*
X132024876Y-89119734D01*
X132299734Y-88844876D01*
X132544357Y-88542793D01*
X132756062Y-88216794D01*
X132932532Y-87870453D01*
X133071833Y-87507562D01*
X133172438Y-87132099D01*
X133233246Y-86748176D01*
X133253589Y-86360000D01*
X133233246Y-85971824D01*
X133172438Y-85587901D01*
X133071833Y-85212438D01*
X132932532Y-84849547D01*
X132756062Y-84503206D01*
X132544357Y-84177207D01*
X132299734Y-83875124D01*
X132024876Y-83600266D01*
X131722793Y-83355643D01*
X131396795Y-83143938D01*
X131393861Y-83142443D01*
X131393854Y-83142439D01*
X131053393Y-82968966D01*
X131050453Y-82967468D01*
X130687562Y-82828167D01*
X130312099Y-82727562D01*
X130108207Y-82695268D01*
X129931424Y-82667268D01*
X129931416Y-82667267D01*
X129928176Y-82666754D01*
X129540000Y-82646411D01*
X129151824Y-82666754D01*
X129148584Y-82667267D01*
X129148576Y-82667268D01*
X128971793Y-82695268D01*
X128767901Y-82727562D01*
X128392438Y-82828167D01*
X128029547Y-82967468D01*
X128026607Y-82968966D01*
X127686147Y-83142439D01*
X127686140Y-83142443D01*
X127683206Y-83143938D01*
X127357207Y-83355643D01*
X127055124Y-83600266D01*
X126780266Y-83875124D01*
X126535643Y-84177207D01*
X126323938Y-84503206D01*
X126147468Y-84849547D01*
X126008167Y-85212438D01*
X125907562Y-85587901D01*
X125846754Y-85971824D01*
X125826411Y-86360000D01*
X54513589Y-86360000D01*
X54493246Y-85971824D01*
X54432438Y-85587901D01*
X54331833Y-85212438D01*
X54192532Y-84849547D01*
X54016062Y-84503206D01*
X53804357Y-84177207D01*
X53559734Y-83875124D01*
X53284876Y-83600266D01*
X52982793Y-83355643D01*
X52656795Y-83143938D01*
X52653861Y-83142443D01*
X52653854Y-83142439D01*
X52313393Y-82968966D01*
X52310453Y-82967468D01*
X51947562Y-82828167D01*
X51572099Y-82727562D01*
X51368207Y-82695268D01*
X51191424Y-82667268D01*
X51191416Y-82667267D01*
X51188176Y-82666754D01*
X50800000Y-82646411D01*
X50411824Y-82666754D01*
X50408584Y-82667267D01*
X50408576Y-82667268D01*
X50231793Y-82695268D01*
X50027901Y-82727562D01*
X49652438Y-82828167D01*
X49289547Y-82967468D01*
X49286607Y-82968966D01*
X48946147Y-83142439D01*
X48946140Y-83142443D01*
X48943206Y-83143938D01*
X48617207Y-83355643D01*
X48315124Y-83600266D01*
X48040266Y-83875124D01*
X47795643Y-84177207D01*
X47583938Y-84503206D01*
X47407468Y-84849547D01*
X47268167Y-85212438D01*
X47167562Y-85587901D01*
X47106754Y-85971824D01*
X47086411Y-86360000D01*
X46228500Y-86360000D01*
X46228500Y-82338777D01*
X72965777Y-82338777D01*
X72975074Y-82350793D01*
X73018069Y-82380898D01*
X73027555Y-82386376D01*
X73218993Y-82475645D01*
X73229285Y-82479391D01*
X73433309Y-82534059D01*
X73444104Y-82535962D01*
X73654525Y-82554372D01*
X73665475Y-82554372D01*
X73875896Y-82535962D01*
X73886691Y-82534059D01*
X74090715Y-82479391D01*
X74101007Y-82475645D01*
X74292445Y-82386376D01*
X74301931Y-82380898D01*
X74345764Y-82350207D01*
X74354139Y-82339729D01*
X74347071Y-82326281D01*
X73672812Y-81652022D01*
X73658868Y-81644408D01*
X73657035Y-81644539D01*
X73650420Y-81648790D01*
X72972207Y-82327003D01*
X72965777Y-82338777D01*
X46228500Y-82338777D01*
X46228500Y-81285475D01*
X72385628Y-81285475D01*
X72404038Y-81495896D01*
X72405941Y-81506691D01*
X72460609Y-81710715D01*
X72464355Y-81721007D01*
X72553623Y-81912441D01*
X72559103Y-81921932D01*
X72589794Y-81965765D01*
X72600271Y-81974140D01*
X72613718Y-81967072D01*
X73287978Y-81292812D01*
X73294356Y-81281132D01*
X74024408Y-81281132D01*
X74024539Y-81282965D01*
X74028790Y-81289580D01*
X74707003Y-81967793D01*
X74718777Y-81974223D01*
X74730793Y-81964926D01*
X74760897Y-81921932D01*
X74766377Y-81912441D01*
X74815529Y-81807035D01*
X74862447Y-81753750D01*
X74930724Y-81734289D01*
X74998684Y-81754831D01*
X75043919Y-81807035D01*
X75093186Y-81912689D01*
X75093189Y-81912694D01*
X75095512Y-81917676D01*
X75098668Y-81922183D01*
X75098669Y-81922185D01*
X75135107Y-81974223D01*
X75223023Y-82099781D01*
X75380219Y-82256977D01*
X75384727Y-82260134D01*
X75384730Y-82260136D01*
X75460495Y-82313187D01*
X75562323Y-82384488D01*
X75567305Y-82386811D01*
X75567310Y-82386814D01*
X75757810Y-82475645D01*
X75763804Y-82478440D01*
X75769112Y-82479862D01*
X75769114Y-82479863D01*
X75834949Y-82497503D01*
X75978537Y-82535978D01*
X76200000Y-82555353D01*
X76421463Y-82535978D01*
X76565051Y-82497503D01*
X76630886Y-82479863D01*
X76630888Y-82479862D01*
X76636196Y-82478440D01*
X76642190Y-82475645D01*
X76832690Y-82386814D01*
X76832695Y-82386811D01*
X76837677Y-82384488D01*
X76939505Y-82313187D01*
X77015270Y-82260136D01*
X77015273Y-82260134D01*
X77019781Y-82256977D01*
X77176977Y-82099781D01*
X77264894Y-81974223D01*
X77301331Y-81922185D01*
X77301332Y-81922183D01*
X77304488Y-81917676D01*
X77306811Y-81912694D01*
X77306814Y-81912689D01*
X77355805Y-81807627D01*
X77402723Y-81754342D01*
X77471000Y-81734881D01*
X77538960Y-81755423D01*
X77584195Y-81807627D01*
X77633186Y-81912689D01*
X77633189Y-81912694D01*
X77635512Y-81917676D01*
X77638668Y-81922183D01*
X77638669Y-81922185D01*
X77675107Y-81974223D01*
X77763023Y-82099781D01*
X77920219Y-82256977D01*
X77924727Y-82260134D01*
X77924730Y-82260136D01*
X78000495Y-82313187D01*
X78102323Y-82384488D01*
X78107305Y-82386811D01*
X78107310Y-82386814D01*
X78297810Y-82475645D01*
X78303804Y-82478440D01*
X78309112Y-82479862D01*
X78309114Y-82479863D01*
X78374949Y-82497503D01*
X78518537Y-82535978D01*
X78740000Y-82555353D01*
X78961463Y-82535978D01*
X79105051Y-82497503D01*
X79170886Y-82479863D01*
X79170888Y-82479862D01*
X79176196Y-82478440D01*
X79182190Y-82475645D01*
X79372690Y-82386814D01*
X79372695Y-82386811D01*
X79377677Y-82384488D01*
X79479505Y-82313187D01*
X79555270Y-82260136D01*
X79555273Y-82260134D01*
X79559781Y-82256977D01*
X79716977Y-82099781D01*
X79804894Y-81974223D01*
X79841331Y-81922185D01*
X79841332Y-81922183D01*
X79844488Y-81917676D01*
X79846811Y-81912694D01*
X79846814Y-81912689D01*
X79895805Y-81807627D01*
X79942723Y-81754342D01*
X80011000Y-81734881D01*
X80078960Y-81755423D01*
X80124195Y-81807627D01*
X80173186Y-81912689D01*
X80173189Y-81912694D01*
X80175512Y-81917676D01*
X80178668Y-81922183D01*
X80178669Y-81922185D01*
X80215107Y-81974223D01*
X80303023Y-82099781D01*
X80460219Y-82256977D01*
X80464727Y-82260134D01*
X80464730Y-82260136D01*
X80540495Y-82313187D01*
X80642323Y-82384488D01*
X80647305Y-82386811D01*
X80647310Y-82386814D01*
X80837810Y-82475645D01*
X80843804Y-82478440D01*
X80849112Y-82479862D01*
X80849114Y-82479863D01*
X80914949Y-82497503D01*
X81058537Y-82535978D01*
X81280000Y-82555353D01*
X81501463Y-82535978D01*
X81645051Y-82497503D01*
X81710886Y-82479863D01*
X81710888Y-82479862D01*
X81716196Y-82478440D01*
X81722190Y-82475645D01*
X81912690Y-82386814D01*
X81912695Y-82386811D01*
X81917677Y-82384488D01*
X82019505Y-82313187D01*
X82095270Y-82260136D01*
X82095273Y-82260134D01*
X82099781Y-82256977D01*
X82256977Y-82099781D01*
X82344894Y-81974223D01*
X82381331Y-81922185D01*
X82381332Y-81922183D01*
X82384488Y-81917676D01*
X82386811Y-81912694D01*
X82386814Y-81912689D01*
X82435805Y-81807627D01*
X82482723Y-81754342D01*
X82551000Y-81734881D01*
X82618960Y-81755423D01*
X82664195Y-81807627D01*
X82713186Y-81912689D01*
X82713189Y-81912694D01*
X82715512Y-81917676D01*
X82718668Y-81922183D01*
X82718669Y-81922185D01*
X82755107Y-81974223D01*
X82843023Y-82099781D01*
X83000219Y-82256977D01*
X83004727Y-82260134D01*
X83004730Y-82260136D01*
X83080495Y-82313187D01*
X83182323Y-82384488D01*
X83187305Y-82386811D01*
X83187310Y-82386814D01*
X83377810Y-82475645D01*
X83383804Y-82478440D01*
X83389112Y-82479862D01*
X83389114Y-82479863D01*
X83454949Y-82497503D01*
X83598537Y-82535978D01*
X83820000Y-82555353D01*
X84041463Y-82535978D01*
X84185051Y-82497503D01*
X84250886Y-82479863D01*
X84250888Y-82479862D01*
X84256196Y-82478440D01*
X84262190Y-82475645D01*
X84452690Y-82386814D01*
X84452695Y-82386811D01*
X84457677Y-82384488D01*
X84522959Y-82338777D01*
X85665777Y-82338777D01*
X85675074Y-82350793D01*
X85718069Y-82380898D01*
X85727555Y-82386376D01*
X85918993Y-82475645D01*
X85929285Y-82479391D01*
X86133309Y-82534059D01*
X86144104Y-82535962D01*
X86354525Y-82554372D01*
X86365475Y-82554372D01*
X86575896Y-82535962D01*
X86586691Y-82534059D01*
X86790715Y-82479391D01*
X86801007Y-82475645D01*
X86992445Y-82386376D01*
X87001931Y-82380898D01*
X87045764Y-82350207D01*
X87054139Y-82339729D01*
X87047071Y-82326281D01*
X86372812Y-81652022D01*
X86358868Y-81644408D01*
X86357035Y-81644539D01*
X86350420Y-81648790D01*
X85672207Y-82327003D01*
X85665777Y-82338777D01*
X84522959Y-82338777D01*
X84559505Y-82313187D01*
X84635270Y-82260136D01*
X84635273Y-82260134D01*
X84639781Y-82256977D01*
X84796977Y-82099781D01*
X84884894Y-81974223D01*
X84921331Y-81922185D01*
X84921332Y-81922183D01*
X84924488Y-81917676D01*
X84926811Y-81912694D01*
X84926814Y-81912689D01*
X84976081Y-81807035D01*
X85022999Y-81753750D01*
X85091276Y-81734289D01*
X85159236Y-81754831D01*
X85204471Y-81807035D01*
X85253623Y-81912441D01*
X85259103Y-81921932D01*
X85289794Y-81965765D01*
X85300271Y-81974140D01*
X85313718Y-81967072D01*
X85987978Y-81292812D01*
X85994356Y-81281132D01*
X86724408Y-81281132D01*
X86724539Y-81282965D01*
X86728790Y-81289580D01*
X87407003Y-81967793D01*
X87418777Y-81974223D01*
X87430793Y-81964926D01*
X87460897Y-81921932D01*
X87466377Y-81912441D01*
X87515529Y-81807035D01*
X87562447Y-81753750D01*
X87630724Y-81734289D01*
X87698684Y-81754831D01*
X87743919Y-81807035D01*
X87793186Y-81912689D01*
X87793189Y-81912694D01*
X87795512Y-81917676D01*
X87798668Y-81922183D01*
X87798669Y-81922185D01*
X87835107Y-81974223D01*
X87923023Y-82099781D01*
X88080219Y-82256977D01*
X88084727Y-82260134D01*
X88084730Y-82260136D01*
X88160495Y-82313187D01*
X88262323Y-82384488D01*
X88267305Y-82386811D01*
X88267310Y-82386814D01*
X88457810Y-82475645D01*
X88463804Y-82478440D01*
X88469112Y-82479862D01*
X88469114Y-82479863D01*
X88534949Y-82497503D01*
X88678537Y-82535978D01*
X88900000Y-82555353D01*
X89121463Y-82535978D01*
X89265051Y-82497503D01*
X89330886Y-82479863D01*
X89330888Y-82479862D01*
X89336196Y-82478440D01*
X89342190Y-82475645D01*
X89532690Y-82386814D01*
X89532695Y-82386811D01*
X89537677Y-82384488D01*
X89602959Y-82338777D01*
X90745777Y-82338777D01*
X90755074Y-82350793D01*
X90798069Y-82380898D01*
X90807555Y-82386376D01*
X90998993Y-82475645D01*
X91009285Y-82479391D01*
X91213309Y-82534059D01*
X91224104Y-82535962D01*
X91434525Y-82554372D01*
X91445475Y-82554372D01*
X91655896Y-82535962D01*
X91666691Y-82534059D01*
X91870715Y-82479391D01*
X91881007Y-82475645D01*
X92072445Y-82386376D01*
X92081931Y-82380898D01*
X92125764Y-82350207D01*
X92134139Y-82339729D01*
X92127071Y-82326281D01*
X91452812Y-81652022D01*
X91438868Y-81644408D01*
X91437035Y-81644539D01*
X91430420Y-81648790D01*
X90752207Y-82327003D01*
X90745777Y-82338777D01*
X89602959Y-82338777D01*
X89639505Y-82313187D01*
X89715270Y-82260136D01*
X89715273Y-82260134D01*
X89719781Y-82256977D01*
X89876977Y-82099781D01*
X89964894Y-81974223D01*
X90001331Y-81922185D01*
X90001332Y-81922183D01*
X90004488Y-81917676D01*
X90006811Y-81912694D01*
X90006814Y-81912689D01*
X90056081Y-81807035D01*
X90102999Y-81753750D01*
X90171276Y-81734289D01*
X90239236Y-81754831D01*
X90284471Y-81807035D01*
X90333623Y-81912441D01*
X90339103Y-81921932D01*
X90369794Y-81965765D01*
X90380271Y-81974140D01*
X90393718Y-81967072D01*
X91067978Y-81292812D01*
X91074356Y-81281132D01*
X91804408Y-81281132D01*
X91804539Y-81282965D01*
X91808790Y-81289580D01*
X92487003Y-81967793D01*
X92498777Y-81974223D01*
X92510793Y-81964926D01*
X92540897Y-81921932D01*
X92546377Y-81912441D01*
X92595529Y-81807035D01*
X92642447Y-81753750D01*
X92710724Y-81734289D01*
X92778684Y-81754831D01*
X92823919Y-81807035D01*
X92873186Y-81912689D01*
X92873189Y-81912694D01*
X92875512Y-81917676D01*
X92878668Y-81922183D01*
X92878669Y-81922185D01*
X92915107Y-81974223D01*
X93003023Y-82099781D01*
X93160219Y-82256977D01*
X93164727Y-82260134D01*
X93164730Y-82260136D01*
X93240495Y-82313187D01*
X93342323Y-82384488D01*
X93347305Y-82386811D01*
X93347310Y-82386814D01*
X93537810Y-82475645D01*
X93543804Y-82478440D01*
X93549112Y-82479862D01*
X93549114Y-82479863D01*
X93614949Y-82497503D01*
X93758537Y-82535978D01*
X93980000Y-82555353D01*
X94201463Y-82535978D01*
X94345051Y-82497503D01*
X94410886Y-82479863D01*
X94410888Y-82479862D01*
X94416196Y-82478440D01*
X94422190Y-82475645D01*
X94612690Y-82386814D01*
X94612695Y-82386811D01*
X94617677Y-82384488D01*
X94719505Y-82313187D01*
X94795270Y-82260136D01*
X94795273Y-82260134D01*
X94799781Y-82256977D01*
X94956977Y-82099781D01*
X95044894Y-81974223D01*
X95081331Y-81922185D01*
X95081332Y-81922183D01*
X95084488Y-81917676D01*
X95086811Y-81912694D01*
X95086814Y-81912689D01*
X95135805Y-81807627D01*
X95182723Y-81754342D01*
X95251000Y-81734881D01*
X95318960Y-81755423D01*
X95364195Y-81807627D01*
X95413186Y-81912689D01*
X95413189Y-81912694D01*
X95415512Y-81917676D01*
X95418668Y-81922183D01*
X95418669Y-81922185D01*
X95455107Y-81974223D01*
X95543023Y-82099781D01*
X95700219Y-82256977D01*
X95704727Y-82260134D01*
X95704730Y-82260136D01*
X95780495Y-82313187D01*
X95882323Y-82384488D01*
X95887305Y-82386811D01*
X95887310Y-82386814D01*
X96077810Y-82475645D01*
X96083804Y-82478440D01*
X96089112Y-82479862D01*
X96089114Y-82479863D01*
X96154949Y-82497503D01*
X96298537Y-82535978D01*
X96520000Y-82555353D01*
X96741463Y-82535978D01*
X96885051Y-82497503D01*
X96950886Y-82479863D01*
X96950888Y-82479862D01*
X96956196Y-82478440D01*
X96962190Y-82475645D01*
X97152690Y-82386814D01*
X97152695Y-82386811D01*
X97157677Y-82384488D01*
X97259505Y-82313187D01*
X97335270Y-82260136D01*
X97335273Y-82260134D01*
X97339781Y-82256977D01*
X97496977Y-82099781D01*
X97584894Y-81974223D01*
X97621331Y-81922185D01*
X97621332Y-81922183D01*
X97624488Y-81917676D01*
X97626811Y-81912694D01*
X97626814Y-81912689D01*
X97675805Y-81807627D01*
X97722723Y-81754342D01*
X97791000Y-81734881D01*
X97858960Y-81755423D01*
X97904195Y-81807627D01*
X97953186Y-81912689D01*
X97953189Y-81912694D01*
X97955512Y-81917676D01*
X97958668Y-81922183D01*
X97958669Y-81922185D01*
X97995107Y-81974223D01*
X98083023Y-82099781D01*
X98240219Y-82256977D01*
X98244727Y-82260134D01*
X98244730Y-82260136D01*
X98320495Y-82313187D01*
X98422323Y-82384488D01*
X98427305Y-82386811D01*
X98427310Y-82386814D01*
X98617810Y-82475645D01*
X98623804Y-82478440D01*
X98629112Y-82479862D01*
X98629114Y-82479863D01*
X98694949Y-82497503D01*
X98838537Y-82535978D01*
X99060000Y-82555353D01*
X99281463Y-82535978D01*
X99425051Y-82497503D01*
X99490886Y-82479863D01*
X99490888Y-82479862D01*
X99496196Y-82478440D01*
X99502190Y-82475645D01*
X99692690Y-82386814D01*
X99692695Y-82386811D01*
X99697677Y-82384488D01*
X99762959Y-82338777D01*
X100905777Y-82338777D01*
X100915074Y-82350793D01*
X100958069Y-82380898D01*
X100967555Y-82386376D01*
X101158993Y-82475645D01*
X101169285Y-82479391D01*
X101373309Y-82534059D01*
X101384104Y-82535962D01*
X101594525Y-82554372D01*
X101605475Y-82554372D01*
X101815896Y-82535962D01*
X101826691Y-82534059D01*
X102030715Y-82479391D01*
X102041007Y-82475645D01*
X102232445Y-82386376D01*
X102241931Y-82380898D01*
X102285764Y-82350207D01*
X102294139Y-82339729D01*
X102287071Y-82326281D01*
X101612812Y-81652022D01*
X101598868Y-81644408D01*
X101597035Y-81644539D01*
X101590420Y-81648790D01*
X100912207Y-82327003D01*
X100905777Y-82338777D01*
X99762959Y-82338777D01*
X99799505Y-82313187D01*
X99875270Y-82260136D01*
X99875273Y-82260134D01*
X99879781Y-82256977D01*
X100036977Y-82099781D01*
X100124894Y-81974223D01*
X100161331Y-81922185D01*
X100161332Y-81922183D01*
X100164488Y-81917676D01*
X100166811Y-81912694D01*
X100166814Y-81912689D01*
X100216081Y-81807035D01*
X100262999Y-81753750D01*
X100331276Y-81734289D01*
X100399236Y-81754831D01*
X100444471Y-81807035D01*
X100493623Y-81912441D01*
X100499103Y-81921932D01*
X100529794Y-81965765D01*
X100540271Y-81974140D01*
X100553718Y-81967072D01*
X101227978Y-81292812D01*
X101234356Y-81281132D01*
X101964408Y-81281132D01*
X101964539Y-81282965D01*
X101968790Y-81289580D01*
X102647003Y-81967793D01*
X102658777Y-81974223D01*
X102670793Y-81964926D01*
X102700897Y-81921932D01*
X102706377Y-81912441D01*
X102755529Y-81807035D01*
X102802447Y-81753750D01*
X102870724Y-81734289D01*
X102938684Y-81754831D01*
X102983919Y-81807035D01*
X103033186Y-81912689D01*
X103033189Y-81912694D01*
X103035512Y-81917676D01*
X103038668Y-81922183D01*
X103038669Y-81922185D01*
X103075107Y-81974223D01*
X103163023Y-82099781D01*
X103320219Y-82256977D01*
X103324727Y-82260134D01*
X103324730Y-82260136D01*
X103400495Y-82313187D01*
X103502323Y-82384488D01*
X103507305Y-82386811D01*
X103507310Y-82386814D01*
X103697810Y-82475645D01*
X103703804Y-82478440D01*
X103709112Y-82479862D01*
X103709114Y-82479863D01*
X103774949Y-82497503D01*
X103918537Y-82535978D01*
X104140000Y-82555353D01*
X104361463Y-82535978D01*
X104505051Y-82497503D01*
X104570886Y-82479863D01*
X104570888Y-82479862D01*
X104576196Y-82478440D01*
X104582190Y-82475645D01*
X104772690Y-82386814D01*
X104772695Y-82386811D01*
X104777677Y-82384488D01*
X104879505Y-82313187D01*
X104955270Y-82260136D01*
X104955273Y-82260134D01*
X104959781Y-82256977D01*
X105116977Y-82099781D01*
X105204894Y-81974223D01*
X105241331Y-81922185D01*
X105241332Y-81922183D01*
X105244488Y-81917676D01*
X105246811Y-81912694D01*
X105246814Y-81912689D01*
X105295805Y-81807627D01*
X105342723Y-81754342D01*
X105411000Y-81734881D01*
X105478960Y-81755423D01*
X105524195Y-81807627D01*
X105573186Y-81912689D01*
X105573189Y-81912694D01*
X105575512Y-81917676D01*
X105578668Y-81922183D01*
X105578669Y-81922185D01*
X105615107Y-81974223D01*
X105703023Y-82099781D01*
X105860219Y-82256977D01*
X105864727Y-82260134D01*
X105864730Y-82260136D01*
X105940495Y-82313187D01*
X106042323Y-82384488D01*
X106047305Y-82386811D01*
X106047310Y-82386814D01*
X106237810Y-82475645D01*
X106243804Y-82478440D01*
X106249112Y-82479862D01*
X106249114Y-82479863D01*
X106314949Y-82497503D01*
X106458537Y-82535978D01*
X106680000Y-82555353D01*
X106901463Y-82535978D01*
X107045051Y-82497503D01*
X107110886Y-82479863D01*
X107110888Y-82479862D01*
X107116196Y-82478440D01*
X107122190Y-82475645D01*
X107312690Y-82386814D01*
X107312695Y-82386811D01*
X107317677Y-82384488D01*
X107382959Y-82338777D01*
X108525777Y-82338777D01*
X108535074Y-82350793D01*
X108578069Y-82380898D01*
X108587555Y-82386376D01*
X108778993Y-82475645D01*
X108789285Y-82479391D01*
X108993309Y-82534059D01*
X109004104Y-82535962D01*
X109214525Y-82554372D01*
X109225475Y-82554372D01*
X109435896Y-82535962D01*
X109446691Y-82534059D01*
X109650715Y-82479391D01*
X109661007Y-82475645D01*
X109852445Y-82386376D01*
X109861931Y-82380898D01*
X109905764Y-82350207D01*
X109914139Y-82339729D01*
X109907071Y-82326281D01*
X109232812Y-81652022D01*
X109218868Y-81644408D01*
X109217035Y-81644539D01*
X109210420Y-81648790D01*
X108532207Y-82327003D01*
X108525777Y-82338777D01*
X107382959Y-82338777D01*
X107419505Y-82313187D01*
X107495270Y-82260136D01*
X107495273Y-82260134D01*
X107499781Y-82256977D01*
X107656977Y-82099781D01*
X107744894Y-81974223D01*
X107781331Y-81922185D01*
X107781332Y-81922183D01*
X107784488Y-81917676D01*
X107786811Y-81912694D01*
X107786814Y-81912689D01*
X107836081Y-81807035D01*
X107882999Y-81753750D01*
X107951276Y-81734289D01*
X108019236Y-81754831D01*
X108064471Y-81807035D01*
X108113623Y-81912441D01*
X108119103Y-81921932D01*
X108149794Y-81965765D01*
X108160271Y-81974140D01*
X108173718Y-81967072D01*
X108847978Y-81292812D01*
X108854356Y-81281132D01*
X109584408Y-81281132D01*
X109584539Y-81282965D01*
X109588790Y-81289580D01*
X110267003Y-81967793D01*
X110278777Y-81974223D01*
X110290793Y-81964926D01*
X110320897Y-81921932D01*
X110326377Y-81912441D01*
X110415645Y-81721007D01*
X110419391Y-81710715D01*
X110474059Y-81506691D01*
X110475962Y-81495896D01*
X110494372Y-81285475D01*
X110494372Y-81274525D01*
X110475962Y-81064104D01*
X110474059Y-81053309D01*
X110419391Y-80849285D01*
X110415645Y-80838993D01*
X110326377Y-80647559D01*
X110320897Y-80638068D01*
X110290206Y-80594235D01*
X110279729Y-80585860D01*
X110266282Y-80592928D01*
X109592022Y-81267188D01*
X109584408Y-81281132D01*
X108854356Y-81281132D01*
X108855592Y-81278868D01*
X108855461Y-81277035D01*
X108851210Y-81270420D01*
X108172997Y-80592207D01*
X108161223Y-80585777D01*
X108149207Y-80595074D01*
X108119103Y-80638068D01*
X108113623Y-80647559D01*
X108064471Y-80752965D01*
X108017553Y-80806250D01*
X107949276Y-80825711D01*
X107881316Y-80805169D01*
X107836081Y-80752965D01*
X107786814Y-80647311D01*
X107786811Y-80647306D01*
X107784488Y-80642324D01*
X107781331Y-80637815D01*
X107660136Y-80464730D01*
X107660134Y-80464727D01*
X107656977Y-80460219D01*
X107499781Y-80303023D01*
X107495273Y-80299866D01*
X107495270Y-80299864D01*
X107419505Y-80246813D01*
X107381599Y-80220271D01*
X108525860Y-80220271D01*
X108532928Y-80233718D01*
X109207188Y-80907978D01*
X109221132Y-80915592D01*
X109222965Y-80915461D01*
X109229580Y-80911210D01*
X109907793Y-80232997D01*
X109914223Y-80221223D01*
X109904926Y-80209207D01*
X109861931Y-80179102D01*
X109852445Y-80173624D01*
X109661007Y-80084355D01*
X109650715Y-80080609D01*
X109446691Y-80025941D01*
X109435896Y-80024038D01*
X109225475Y-80005628D01*
X109214525Y-80005628D01*
X109004104Y-80024038D01*
X108993309Y-80025941D01*
X108789285Y-80080609D01*
X108778993Y-80084355D01*
X108587559Y-80173623D01*
X108578068Y-80179103D01*
X108534235Y-80209794D01*
X108525860Y-80220271D01*
X107381599Y-80220271D01*
X107317677Y-80175512D01*
X107312695Y-80173189D01*
X107312690Y-80173186D01*
X107121178Y-80083883D01*
X107121177Y-80083882D01*
X107116196Y-80081560D01*
X107110888Y-80080138D01*
X107110886Y-80080137D01*
X107045051Y-80062497D01*
X106901463Y-80024022D01*
X106680000Y-80004647D01*
X106458537Y-80024022D01*
X106314949Y-80062497D01*
X106249114Y-80080137D01*
X106249112Y-80080138D01*
X106243804Y-80081560D01*
X106238823Y-80083882D01*
X106238822Y-80083883D01*
X106047311Y-80173186D01*
X106047306Y-80173189D01*
X106042324Y-80175512D01*
X106037817Y-80178668D01*
X106037815Y-80178669D01*
X105864730Y-80299864D01*
X105864727Y-80299866D01*
X105860219Y-80303023D01*
X105703023Y-80460219D01*
X105699866Y-80464727D01*
X105699864Y-80464730D01*
X105578669Y-80637815D01*
X105575512Y-80642324D01*
X105573189Y-80647306D01*
X105573186Y-80647311D01*
X105524195Y-80752373D01*
X105477277Y-80805658D01*
X105409000Y-80825119D01*
X105341040Y-80804577D01*
X105295805Y-80752373D01*
X105246814Y-80647311D01*
X105246811Y-80647306D01*
X105244488Y-80642324D01*
X105241331Y-80637815D01*
X105120136Y-80464730D01*
X105120134Y-80464727D01*
X105116977Y-80460219D01*
X104959781Y-80303023D01*
X104955273Y-80299866D01*
X104955270Y-80299864D01*
X104879505Y-80246813D01*
X104777677Y-80175512D01*
X104772695Y-80173189D01*
X104772690Y-80173186D01*
X104581178Y-80083883D01*
X104581177Y-80083882D01*
X104576196Y-80081560D01*
X104570888Y-80080138D01*
X104570886Y-80080137D01*
X104505051Y-80062497D01*
X104361463Y-80024022D01*
X104140000Y-80004647D01*
X103918537Y-80024022D01*
X103774949Y-80062497D01*
X103709114Y-80080137D01*
X103709112Y-80080138D01*
X103703804Y-80081560D01*
X103698823Y-80083882D01*
X103698822Y-80083883D01*
X103507311Y-80173186D01*
X103507306Y-80173189D01*
X103502324Y-80175512D01*
X103497817Y-80178668D01*
X103497815Y-80178669D01*
X103324730Y-80299864D01*
X103324727Y-80299866D01*
X103320219Y-80303023D01*
X103163023Y-80460219D01*
X103159866Y-80464727D01*
X103159864Y-80464730D01*
X103038669Y-80637815D01*
X103035512Y-80642324D01*
X103033189Y-80647306D01*
X103033186Y-80647311D01*
X102983919Y-80752965D01*
X102937001Y-80806250D01*
X102868724Y-80825711D01*
X102800764Y-80805169D01*
X102755529Y-80752965D01*
X102706377Y-80647559D01*
X102700897Y-80638068D01*
X102670206Y-80594235D01*
X102659729Y-80585860D01*
X102646282Y-80592928D01*
X101972022Y-81267188D01*
X101964408Y-81281132D01*
X101234356Y-81281132D01*
X101235592Y-81278868D01*
X101235461Y-81277035D01*
X101231210Y-81270420D01*
X100552997Y-80592207D01*
X100541223Y-80585777D01*
X100529207Y-80595074D01*
X100499103Y-80638068D01*
X100493623Y-80647559D01*
X100444471Y-80752965D01*
X100397553Y-80806250D01*
X100329276Y-80825711D01*
X100261316Y-80805169D01*
X100216081Y-80752965D01*
X100166814Y-80647311D01*
X100166811Y-80647306D01*
X100164488Y-80642324D01*
X100161331Y-80637815D01*
X100040136Y-80464730D01*
X100040134Y-80464727D01*
X100036977Y-80460219D01*
X99879781Y-80303023D01*
X99875273Y-80299866D01*
X99875270Y-80299864D01*
X99799505Y-80246813D01*
X99761599Y-80220271D01*
X100905860Y-80220271D01*
X100912928Y-80233718D01*
X101587188Y-80907978D01*
X101601132Y-80915592D01*
X101602965Y-80915461D01*
X101609580Y-80911210D01*
X102287793Y-80232997D01*
X102294223Y-80221223D01*
X102284926Y-80209207D01*
X102241931Y-80179102D01*
X102232445Y-80173624D01*
X102041007Y-80084355D01*
X102030715Y-80080609D01*
X101826691Y-80025941D01*
X101815896Y-80024038D01*
X101605475Y-80005628D01*
X101594525Y-80005628D01*
X101384104Y-80024038D01*
X101373309Y-80025941D01*
X101169285Y-80080609D01*
X101158993Y-80084355D01*
X100967559Y-80173623D01*
X100958068Y-80179103D01*
X100914235Y-80209794D01*
X100905860Y-80220271D01*
X99761599Y-80220271D01*
X99697677Y-80175512D01*
X99692695Y-80173189D01*
X99692690Y-80173186D01*
X99501178Y-80083883D01*
X99501177Y-80083882D01*
X99496196Y-80081560D01*
X99490888Y-80080138D01*
X99490886Y-80080137D01*
X99425051Y-80062497D01*
X99281463Y-80024022D01*
X99060000Y-80004647D01*
X98838537Y-80024022D01*
X98694949Y-80062497D01*
X98629114Y-80080137D01*
X98629112Y-80080138D01*
X98623804Y-80081560D01*
X98618823Y-80083882D01*
X98618822Y-80083883D01*
X98427311Y-80173186D01*
X98427306Y-80173189D01*
X98422324Y-80175512D01*
X98417817Y-80178668D01*
X98417815Y-80178669D01*
X98244730Y-80299864D01*
X98244727Y-80299866D01*
X98240219Y-80303023D01*
X98083023Y-80460219D01*
X98079866Y-80464727D01*
X98079864Y-80464730D01*
X97958669Y-80637815D01*
X97955512Y-80642324D01*
X97953189Y-80647306D01*
X97953186Y-80647311D01*
X97904195Y-80752373D01*
X97857277Y-80805658D01*
X97789000Y-80825119D01*
X97721040Y-80804577D01*
X97675805Y-80752373D01*
X97626814Y-80647311D01*
X97626811Y-80647306D01*
X97624488Y-80642324D01*
X97621331Y-80637815D01*
X97500136Y-80464730D01*
X97500134Y-80464727D01*
X97496977Y-80460219D01*
X97339781Y-80303023D01*
X97335273Y-80299866D01*
X97335270Y-80299864D01*
X97259505Y-80246813D01*
X97157677Y-80175512D01*
X97152695Y-80173189D01*
X97152690Y-80173186D01*
X96961178Y-80083883D01*
X96961177Y-80083882D01*
X96956196Y-80081560D01*
X96950888Y-80080138D01*
X96950886Y-80080137D01*
X96885051Y-80062497D01*
X96741463Y-80024022D01*
X96520000Y-80004647D01*
X96298537Y-80024022D01*
X96154949Y-80062497D01*
X96089114Y-80080137D01*
X96089112Y-80080138D01*
X96083804Y-80081560D01*
X96078823Y-80083882D01*
X96078822Y-80083883D01*
X95887311Y-80173186D01*
X95887306Y-80173189D01*
X95882324Y-80175512D01*
X95877817Y-80178668D01*
X95877815Y-80178669D01*
X95704730Y-80299864D01*
X95704727Y-80299866D01*
X95700219Y-80303023D01*
X95543023Y-80460219D01*
X95539866Y-80464727D01*
X95539864Y-80464730D01*
X95418669Y-80637815D01*
X95415512Y-80642324D01*
X95413189Y-80647306D01*
X95413186Y-80647311D01*
X95364195Y-80752373D01*
X95317277Y-80805658D01*
X95249000Y-80825119D01*
X95181040Y-80804577D01*
X95135805Y-80752373D01*
X95086814Y-80647311D01*
X95086811Y-80647306D01*
X95084488Y-80642324D01*
X95081331Y-80637815D01*
X94960136Y-80464730D01*
X94960134Y-80464727D01*
X94956977Y-80460219D01*
X94799781Y-80303023D01*
X94795273Y-80299866D01*
X94795270Y-80299864D01*
X94719505Y-80246813D01*
X94617677Y-80175512D01*
X94612695Y-80173189D01*
X94612690Y-80173186D01*
X94421178Y-80083883D01*
X94421177Y-80083882D01*
X94416196Y-80081560D01*
X94410888Y-80080138D01*
X94410886Y-80080137D01*
X94345051Y-80062497D01*
X94201463Y-80024022D01*
X93980000Y-80004647D01*
X93758537Y-80024022D01*
X93614949Y-80062497D01*
X93549114Y-80080137D01*
X93549112Y-80080138D01*
X93543804Y-80081560D01*
X93538823Y-80083882D01*
X93538822Y-80083883D01*
X93347311Y-80173186D01*
X93347306Y-80173189D01*
X93342324Y-80175512D01*
X93337817Y-80178668D01*
X93337815Y-80178669D01*
X93164730Y-80299864D01*
X93164727Y-80299866D01*
X93160219Y-80303023D01*
X93003023Y-80460219D01*
X92999866Y-80464727D01*
X92999864Y-80464730D01*
X92878669Y-80637815D01*
X92875512Y-80642324D01*
X92873189Y-80647306D01*
X92873186Y-80647311D01*
X92823919Y-80752965D01*
X92777001Y-80806250D01*
X92708724Y-80825711D01*
X92640764Y-80805169D01*
X92595529Y-80752965D01*
X92546377Y-80647559D01*
X92540897Y-80638068D01*
X92510206Y-80594235D01*
X92499729Y-80585860D01*
X92486282Y-80592928D01*
X91812022Y-81267188D01*
X91804408Y-81281132D01*
X91074356Y-81281132D01*
X91075592Y-81278868D01*
X91075461Y-81277035D01*
X91071210Y-81270420D01*
X90392997Y-80592207D01*
X90381223Y-80585777D01*
X90369207Y-80595074D01*
X90339103Y-80638068D01*
X90333623Y-80647559D01*
X90284471Y-80752965D01*
X90237553Y-80806250D01*
X90169276Y-80825711D01*
X90101316Y-80805169D01*
X90056081Y-80752965D01*
X90006814Y-80647311D01*
X90006811Y-80647306D01*
X90004488Y-80642324D01*
X90001331Y-80637815D01*
X89880136Y-80464730D01*
X89880134Y-80464727D01*
X89876977Y-80460219D01*
X89719781Y-80303023D01*
X89715273Y-80299866D01*
X89715270Y-80299864D01*
X89639505Y-80246813D01*
X89601599Y-80220271D01*
X90745860Y-80220271D01*
X90752928Y-80233718D01*
X91427188Y-80907978D01*
X91441132Y-80915592D01*
X91442965Y-80915461D01*
X91449580Y-80911210D01*
X92127793Y-80232997D01*
X92134223Y-80221223D01*
X92124926Y-80209207D01*
X92081931Y-80179102D01*
X92072445Y-80173624D01*
X91881007Y-80084355D01*
X91870715Y-80080609D01*
X91666691Y-80025941D01*
X91655896Y-80024038D01*
X91445475Y-80005628D01*
X91434525Y-80005628D01*
X91224104Y-80024038D01*
X91213309Y-80025941D01*
X91009285Y-80080609D01*
X90998993Y-80084355D01*
X90807559Y-80173623D01*
X90798068Y-80179103D01*
X90754235Y-80209794D01*
X90745860Y-80220271D01*
X89601599Y-80220271D01*
X89537677Y-80175512D01*
X89532695Y-80173189D01*
X89532690Y-80173186D01*
X89341178Y-80083883D01*
X89341177Y-80083882D01*
X89336196Y-80081560D01*
X89330888Y-80080138D01*
X89330886Y-80080137D01*
X89265051Y-80062497D01*
X89121463Y-80024022D01*
X88900000Y-80004647D01*
X88678537Y-80024022D01*
X88534949Y-80062497D01*
X88469114Y-80080137D01*
X88469112Y-80080138D01*
X88463804Y-80081560D01*
X88458823Y-80083882D01*
X88458822Y-80083883D01*
X88267311Y-80173186D01*
X88267306Y-80173189D01*
X88262324Y-80175512D01*
X88257817Y-80178668D01*
X88257815Y-80178669D01*
X88084730Y-80299864D01*
X88084727Y-80299866D01*
X88080219Y-80303023D01*
X87923023Y-80460219D01*
X87919866Y-80464727D01*
X87919864Y-80464730D01*
X87798669Y-80637815D01*
X87795512Y-80642324D01*
X87793189Y-80647306D01*
X87793186Y-80647311D01*
X87743919Y-80752965D01*
X87697001Y-80806250D01*
X87628724Y-80825711D01*
X87560764Y-80805169D01*
X87515529Y-80752965D01*
X87466377Y-80647559D01*
X87460897Y-80638068D01*
X87430206Y-80594235D01*
X87419729Y-80585860D01*
X87406282Y-80592928D01*
X86732022Y-81267188D01*
X86724408Y-81281132D01*
X85994356Y-81281132D01*
X85995592Y-81278868D01*
X85995461Y-81277035D01*
X85991210Y-81270420D01*
X85312997Y-80592207D01*
X85301223Y-80585777D01*
X85289207Y-80595074D01*
X85259103Y-80638068D01*
X85253623Y-80647559D01*
X85204471Y-80752965D01*
X85157553Y-80806250D01*
X85089276Y-80825711D01*
X85021316Y-80805169D01*
X84976081Y-80752965D01*
X84926814Y-80647311D01*
X84926811Y-80647306D01*
X84924488Y-80642324D01*
X84921331Y-80637815D01*
X84800136Y-80464730D01*
X84800134Y-80464727D01*
X84796977Y-80460219D01*
X84639781Y-80303023D01*
X84635273Y-80299866D01*
X84635270Y-80299864D01*
X84559505Y-80246813D01*
X84521599Y-80220271D01*
X85665860Y-80220271D01*
X85672928Y-80233718D01*
X86347188Y-80907978D01*
X86361132Y-80915592D01*
X86362965Y-80915461D01*
X86369580Y-80911210D01*
X87047793Y-80232997D01*
X87054223Y-80221223D01*
X87044926Y-80209207D01*
X87001931Y-80179102D01*
X86992445Y-80173624D01*
X86801007Y-80084355D01*
X86790715Y-80080609D01*
X86586691Y-80025941D01*
X86575896Y-80024038D01*
X86365475Y-80005628D01*
X86354525Y-80005628D01*
X86144104Y-80024038D01*
X86133309Y-80025941D01*
X85929285Y-80080609D01*
X85918993Y-80084355D01*
X85727559Y-80173623D01*
X85718068Y-80179103D01*
X85674235Y-80209794D01*
X85665860Y-80220271D01*
X84521599Y-80220271D01*
X84457677Y-80175512D01*
X84452695Y-80173189D01*
X84452690Y-80173186D01*
X84261178Y-80083883D01*
X84261177Y-80083882D01*
X84256196Y-80081560D01*
X84250888Y-80080138D01*
X84250886Y-80080137D01*
X84185051Y-80062497D01*
X84041463Y-80024022D01*
X83820000Y-80004647D01*
X83598537Y-80024022D01*
X83454949Y-80062497D01*
X83389114Y-80080137D01*
X83389112Y-80080138D01*
X83383804Y-80081560D01*
X83378823Y-80083882D01*
X83378822Y-80083883D01*
X83187311Y-80173186D01*
X83187306Y-80173189D01*
X83182324Y-80175512D01*
X83177817Y-80178668D01*
X83177815Y-80178669D01*
X83004730Y-80299864D01*
X83004727Y-80299866D01*
X83000219Y-80303023D01*
X82843023Y-80460219D01*
X82839866Y-80464727D01*
X82839864Y-80464730D01*
X82718669Y-80637815D01*
X82715512Y-80642324D01*
X82713189Y-80647306D01*
X82713186Y-80647311D01*
X82664195Y-80752373D01*
X82617277Y-80805658D01*
X82549000Y-80825119D01*
X82481040Y-80804577D01*
X82435805Y-80752373D01*
X82386814Y-80647311D01*
X82386811Y-80647306D01*
X82384488Y-80642324D01*
X82381331Y-80637815D01*
X82260136Y-80464730D01*
X82260134Y-80464727D01*
X82256977Y-80460219D01*
X82099781Y-80303023D01*
X82095273Y-80299866D01*
X82095270Y-80299864D01*
X82019505Y-80246813D01*
X81917677Y-80175512D01*
X81912695Y-80173189D01*
X81912690Y-80173186D01*
X81721178Y-80083883D01*
X81721177Y-80083882D01*
X81716196Y-80081560D01*
X81710888Y-80080138D01*
X81710886Y-80080137D01*
X81645051Y-80062497D01*
X81501463Y-80024022D01*
X81280000Y-80004647D01*
X81058537Y-80024022D01*
X80914949Y-80062497D01*
X80849114Y-80080137D01*
X80849112Y-80080138D01*
X80843804Y-80081560D01*
X80838823Y-80083882D01*
X80838822Y-80083883D01*
X80647311Y-80173186D01*
X80647306Y-80173189D01*
X80642324Y-80175512D01*
X80637817Y-80178668D01*
X80637815Y-80178669D01*
X80464730Y-80299864D01*
X80464727Y-80299866D01*
X80460219Y-80303023D01*
X80303023Y-80460219D01*
X80299866Y-80464727D01*
X80299864Y-80464730D01*
X80178669Y-80637815D01*
X80175512Y-80642324D01*
X80173189Y-80647306D01*
X80173186Y-80647311D01*
X80124195Y-80752373D01*
X80077277Y-80805658D01*
X80009000Y-80825119D01*
X79941040Y-80804577D01*
X79895805Y-80752373D01*
X79846814Y-80647311D01*
X79846811Y-80647306D01*
X79844488Y-80642324D01*
X79841331Y-80637815D01*
X79720136Y-80464730D01*
X79720134Y-80464727D01*
X79716977Y-80460219D01*
X79559781Y-80303023D01*
X79555273Y-80299866D01*
X79555270Y-80299864D01*
X79479505Y-80246813D01*
X79377677Y-80175512D01*
X79372695Y-80173189D01*
X79372690Y-80173186D01*
X79181178Y-80083883D01*
X79181177Y-80083882D01*
X79176196Y-80081560D01*
X79170888Y-80080138D01*
X79170886Y-80080137D01*
X79105051Y-80062497D01*
X78961463Y-80024022D01*
X78740000Y-80004647D01*
X78518537Y-80024022D01*
X78374949Y-80062497D01*
X78309114Y-80080137D01*
X78309112Y-80080138D01*
X78303804Y-80081560D01*
X78298823Y-80083882D01*
X78298822Y-80083883D01*
X78107311Y-80173186D01*
X78107306Y-80173189D01*
X78102324Y-80175512D01*
X78097817Y-80178668D01*
X78097815Y-80178669D01*
X77924730Y-80299864D01*
X77924727Y-80299866D01*
X77920219Y-80303023D01*
X77763023Y-80460219D01*
X77759866Y-80464727D01*
X77759864Y-80464730D01*
X77638669Y-80637815D01*
X77635512Y-80642324D01*
X77633189Y-80647306D01*
X77633186Y-80647311D01*
X77584195Y-80752373D01*
X77537277Y-80805658D01*
X77469000Y-80825119D01*
X77401040Y-80804577D01*
X77355805Y-80752373D01*
X77306814Y-80647311D01*
X77306811Y-80647306D01*
X77304488Y-80642324D01*
X77301331Y-80637815D01*
X77180136Y-80464730D01*
X77180134Y-80464727D01*
X77176977Y-80460219D01*
X77019781Y-80303023D01*
X77015273Y-80299866D01*
X77015270Y-80299864D01*
X76939505Y-80246813D01*
X76837677Y-80175512D01*
X76832695Y-80173189D01*
X76832690Y-80173186D01*
X76641178Y-80083883D01*
X76641177Y-80083882D01*
X76636196Y-80081560D01*
X76630888Y-80080138D01*
X76630886Y-80080137D01*
X76565051Y-80062497D01*
X76421463Y-80024022D01*
X76200000Y-80004647D01*
X75978537Y-80024022D01*
X75834949Y-80062497D01*
X75769114Y-80080137D01*
X75769112Y-80080138D01*
X75763804Y-80081560D01*
X75758823Y-80083882D01*
X75758822Y-80083883D01*
X75567311Y-80173186D01*
X75567306Y-80173189D01*
X75562324Y-80175512D01*
X75557817Y-80178668D01*
X75557815Y-80178669D01*
X75384730Y-80299864D01*
X75384727Y-80299866D01*
X75380219Y-80303023D01*
X75223023Y-80460219D01*
X75219866Y-80464727D01*
X75219864Y-80464730D01*
X75098669Y-80637815D01*
X75095512Y-80642324D01*
X75093189Y-80647306D01*
X75093186Y-80647311D01*
X75043919Y-80752965D01*
X74997001Y-80806250D01*
X74928724Y-80825711D01*
X74860764Y-80805169D01*
X74815529Y-80752965D01*
X74766377Y-80647559D01*
X74760897Y-80638068D01*
X74730206Y-80594235D01*
X74719729Y-80585860D01*
X74706282Y-80592928D01*
X74032022Y-81267188D01*
X74024408Y-81281132D01*
X73294356Y-81281132D01*
X73295592Y-81278868D01*
X73295461Y-81277035D01*
X73291210Y-81270420D01*
X72612997Y-80592207D01*
X72601223Y-80585777D01*
X72589207Y-80595074D01*
X72559103Y-80638068D01*
X72553623Y-80647559D01*
X72464355Y-80838993D01*
X72460609Y-80849285D01*
X72405941Y-81053309D01*
X72404038Y-81064104D01*
X72385628Y-81274525D01*
X72385628Y-81285475D01*
X46228500Y-81285475D01*
X46228500Y-80220271D01*
X72965860Y-80220271D01*
X72972928Y-80233718D01*
X73647188Y-80907978D01*
X73661132Y-80915592D01*
X73662965Y-80915461D01*
X73669580Y-80911210D01*
X74347793Y-80232997D01*
X74354223Y-80221223D01*
X74344926Y-80209207D01*
X74301931Y-80179102D01*
X74292445Y-80173624D01*
X74101007Y-80084355D01*
X74090715Y-80080609D01*
X73886691Y-80025941D01*
X73875896Y-80024038D01*
X73665475Y-80005628D01*
X73654525Y-80005628D01*
X73444104Y-80024038D01*
X73433309Y-80025941D01*
X73229285Y-80080609D01*
X73218993Y-80084355D01*
X73027559Y-80173623D01*
X73018068Y-80179103D01*
X72974235Y-80209794D01*
X72965860Y-80220271D01*
X46228500Y-80220271D01*
X46228500Y-56938777D01*
X72965777Y-56938777D01*
X72975074Y-56950793D01*
X73018069Y-56980898D01*
X73027555Y-56986376D01*
X73218993Y-57075645D01*
X73229285Y-57079391D01*
X73433309Y-57134059D01*
X73444104Y-57135962D01*
X73654525Y-57154372D01*
X73665475Y-57154372D01*
X73875896Y-57135962D01*
X73886691Y-57134059D01*
X74090715Y-57079391D01*
X74101007Y-57075645D01*
X74292445Y-56986376D01*
X74301931Y-56980898D01*
X74345764Y-56950207D01*
X74354139Y-56939729D01*
X74347071Y-56926281D01*
X73672812Y-56252022D01*
X73658868Y-56244408D01*
X73657035Y-56244539D01*
X73650420Y-56248790D01*
X72972207Y-56927003D01*
X72965777Y-56938777D01*
X46228500Y-56938777D01*
X46228500Y-55885475D01*
X72385628Y-55885475D01*
X72404038Y-56095896D01*
X72405941Y-56106691D01*
X72460609Y-56310715D01*
X72464355Y-56321007D01*
X72553623Y-56512441D01*
X72559103Y-56521932D01*
X72589794Y-56565765D01*
X72600271Y-56574140D01*
X72613718Y-56567072D01*
X73287978Y-55892812D01*
X73294356Y-55881132D01*
X74024408Y-55881132D01*
X74024539Y-55882965D01*
X74028790Y-55889580D01*
X74707003Y-56567793D01*
X74718777Y-56574223D01*
X74730793Y-56564926D01*
X74760897Y-56521932D01*
X74766377Y-56512441D01*
X74815529Y-56407035D01*
X74862447Y-56353750D01*
X74930724Y-56334289D01*
X74998684Y-56354831D01*
X75043919Y-56407035D01*
X75093186Y-56512689D01*
X75093189Y-56512694D01*
X75095512Y-56517676D01*
X75098668Y-56522183D01*
X75098669Y-56522185D01*
X75135107Y-56574223D01*
X75223023Y-56699781D01*
X75380219Y-56856977D01*
X75384727Y-56860134D01*
X75384730Y-56860136D01*
X75460495Y-56913187D01*
X75562323Y-56984488D01*
X75567305Y-56986811D01*
X75567310Y-56986814D01*
X75757810Y-57075645D01*
X75763804Y-57078440D01*
X75769112Y-57079862D01*
X75769114Y-57079863D01*
X75834949Y-57097503D01*
X75978537Y-57135978D01*
X76200000Y-57155353D01*
X76421463Y-57135978D01*
X76565051Y-57097503D01*
X76630886Y-57079863D01*
X76630888Y-57079862D01*
X76636196Y-57078440D01*
X76642190Y-57075645D01*
X76832690Y-56986814D01*
X76832695Y-56986811D01*
X76837677Y-56984488D01*
X76939505Y-56913187D01*
X77015270Y-56860136D01*
X77015273Y-56860134D01*
X77019781Y-56856977D01*
X77176977Y-56699781D01*
X77264894Y-56574223D01*
X77301331Y-56522185D01*
X77301332Y-56522183D01*
X77304488Y-56517676D01*
X77306811Y-56512694D01*
X77306814Y-56512689D01*
X77355805Y-56407627D01*
X77402723Y-56354342D01*
X77471000Y-56334881D01*
X77538960Y-56355423D01*
X77584195Y-56407627D01*
X77633186Y-56512689D01*
X77633189Y-56512694D01*
X77635512Y-56517676D01*
X77638668Y-56522183D01*
X77638669Y-56522185D01*
X77675107Y-56574223D01*
X77763023Y-56699781D01*
X77920219Y-56856977D01*
X77924727Y-56860134D01*
X77924730Y-56860136D01*
X78000495Y-56913187D01*
X78102323Y-56984488D01*
X78107305Y-56986811D01*
X78107310Y-56986814D01*
X78297810Y-57075645D01*
X78303804Y-57078440D01*
X78309112Y-57079862D01*
X78309114Y-57079863D01*
X78374949Y-57097503D01*
X78518537Y-57135978D01*
X78740000Y-57155353D01*
X78961463Y-57135978D01*
X79105051Y-57097503D01*
X79170886Y-57079863D01*
X79170888Y-57079862D01*
X79176196Y-57078440D01*
X79182190Y-57075645D01*
X79372690Y-56986814D01*
X79372695Y-56986811D01*
X79377677Y-56984488D01*
X79442959Y-56938777D01*
X80585777Y-56938777D01*
X80595074Y-56950793D01*
X80638069Y-56980898D01*
X80647555Y-56986376D01*
X80838993Y-57075645D01*
X80849285Y-57079391D01*
X81053309Y-57134059D01*
X81064104Y-57135962D01*
X81274525Y-57154372D01*
X81285475Y-57154372D01*
X81495896Y-57135962D01*
X81506691Y-57134059D01*
X81710715Y-57079391D01*
X81721007Y-57075645D01*
X81912445Y-56986376D01*
X81921931Y-56980898D01*
X81965764Y-56950207D01*
X81974139Y-56939729D01*
X81967071Y-56926281D01*
X81292812Y-56252022D01*
X81278868Y-56244408D01*
X81277035Y-56244539D01*
X81270420Y-56248790D01*
X80592207Y-56927003D01*
X80585777Y-56938777D01*
X79442959Y-56938777D01*
X79479505Y-56913187D01*
X79555270Y-56860136D01*
X79555273Y-56860134D01*
X79559781Y-56856977D01*
X79716977Y-56699781D01*
X79804894Y-56574223D01*
X79841331Y-56522185D01*
X79841332Y-56522183D01*
X79844488Y-56517676D01*
X79846811Y-56512694D01*
X79846814Y-56512689D01*
X79896081Y-56407035D01*
X79942999Y-56353750D01*
X80011276Y-56334289D01*
X80079236Y-56354831D01*
X80124471Y-56407035D01*
X80173623Y-56512441D01*
X80179103Y-56521932D01*
X80209794Y-56565765D01*
X80220271Y-56574140D01*
X80233718Y-56567072D01*
X80907978Y-55892812D01*
X80915592Y-55878868D01*
X80915461Y-55877035D01*
X80911210Y-55870420D01*
X80232997Y-55192207D01*
X80221223Y-55185777D01*
X80209207Y-55195074D01*
X80179103Y-55238068D01*
X80173623Y-55247559D01*
X80124471Y-55352965D01*
X80077553Y-55406250D01*
X80009276Y-55425711D01*
X79941316Y-55405169D01*
X79896081Y-55352965D01*
X79846814Y-55247311D01*
X79846811Y-55247306D01*
X79844488Y-55242324D01*
X79841331Y-55237815D01*
X79720136Y-55064730D01*
X79720134Y-55064727D01*
X79716977Y-55060219D01*
X79559781Y-54903023D01*
X79555273Y-54899866D01*
X79555270Y-54899864D01*
X79479505Y-54846813D01*
X79441599Y-54820271D01*
X80585860Y-54820271D01*
X80592928Y-54833718D01*
X81267188Y-55507978D01*
X81281132Y-55515592D01*
X81282965Y-55515461D01*
X81289580Y-55511210D01*
X81967793Y-54832997D01*
X81974223Y-54821223D01*
X81964926Y-54809207D01*
X81921931Y-54779102D01*
X81912445Y-54773624D01*
X81721007Y-54684355D01*
X81710715Y-54680609D01*
X81506691Y-54625941D01*
X81495896Y-54624038D01*
X81285475Y-54605628D01*
X81274525Y-54605628D01*
X81064104Y-54624038D01*
X81053309Y-54625941D01*
X80849285Y-54680609D01*
X80838993Y-54684355D01*
X80647559Y-54773623D01*
X80638068Y-54779103D01*
X80594235Y-54809794D01*
X80585860Y-54820271D01*
X79441599Y-54820271D01*
X79377677Y-54775512D01*
X79372695Y-54773189D01*
X79372690Y-54773186D01*
X79181178Y-54683883D01*
X79181177Y-54683882D01*
X79176196Y-54681560D01*
X79170888Y-54680138D01*
X79170886Y-54680137D01*
X79105051Y-54662497D01*
X78961463Y-54624022D01*
X78740000Y-54604647D01*
X78518537Y-54624022D01*
X78374949Y-54662497D01*
X78309114Y-54680137D01*
X78309112Y-54680138D01*
X78303804Y-54681560D01*
X78298823Y-54683882D01*
X78298822Y-54683883D01*
X78107311Y-54773186D01*
X78107306Y-54773189D01*
X78102324Y-54775512D01*
X78097817Y-54778668D01*
X78097815Y-54778669D01*
X77924730Y-54899864D01*
X77924727Y-54899866D01*
X77920219Y-54903023D01*
X77763023Y-55060219D01*
X77759866Y-55064727D01*
X77759864Y-55064730D01*
X77638669Y-55237815D01*
X77635512Y-55242324D01*
X77633189Y-55247306D01*
X77633186Y-55247311D01*
X77584195Y-55352373D01*
X77537277Y-55405658D01*
X77469000Y-55425119D01*
X77401040Y-55404577D01*
X77355805Y-55352373D01*
X77306814Y-55247311D01*
X77306811Y-55247306D01*
X77304488Y-55242324D01*
X77301331Y-55237815D01*
X77180136Y-55064730D01*
X77180134Y-55064727D01*
X77176977Y-55060219D01*
X77019781Y-54903023D01*
X77015273Y-54899866D01*
X77015270Y-54899864D01*
X76939505Y-54846813D01*
X76837677Y-54775512D01*
X76832695Y-54773189D01*
X76832690Y-54773186D01*
X76641178Y-54683883D01*
X76641177Y-54683882D01*
X76636196Y-54681560D01*
X76630888Y-54680138D01*
X76630886Y-54680137D01*
X76565051Y-54662497D01*
X76421463Y-54624022D01*
X76200000Y-54604647D01*
X75978537Y-54624022D01*
X75834949Y-54662497D01*
X75769114Y-54680137D01*
X75769112Y-54680138D01*
X75763804Y-54681560D01*
X75758823Y-54683882D01*
X75758822Y-54683883D01*
X75567311Y-54773186D01*
X75567306Y-54773189D01*
X75562324Y-54775512D01*
X75557817Y-54778668D01*
X75557815Y-54778669D01*
X75384730Y-54899864D01*
X75384727Y-54899866D01*
X75380219Y-54903023D01*
X75223023Y-55060219D01*
X75219866Y-55064727D01*
X75219864Y-55064730D01*
X75098669Y-55237815D01*
X75095512Y-55242324D01*
X75093189Y-55247306D01*
X75093186Y-55247311D01*
X75043919Y-55352965D01*
X74997001Y-55406250D01*
X74928724Y-55425711D01*
X74860764Y-55405169D01*
X74815529Y-55352965D01*
X74766377Y-55247559D01*
X74760897Y-55238068D01*
X74730206Y-55194235D01*
X74719729Y-55185860D01*
X74706282Y-55192928D01*
X74032022Y-55867188D01*
X74024408Y-55881132D01*
X73294356Y-55881132D01*
X73295592Y-55878868D01*
X73295461Y-55877035D01*
X73291210Y-55870420D01*
X72612997Y-55192207D01*
X72601223Y-55185777D01*
X72589207Y-55195074D01*
X72559103Y-55238068D01*
X72553623Y-55247559D01*
X72464355Y-55438993D01*
X72460609Y-55449285D01*
X72405941Y-55653309D01*
X72404038Y-55664104D01*
X72385628Y-55874525D01*
X72385628Y-55885475D01*
X46228500Y-55885475D01*
X46228500Y-54820271D01*
X72965860Y-54820271D01*
X72972928Y-54833718D01*
X73647188Y-55507978D01*
X73661132Y-55515592D01*
X73662965Y-55515461D01*
X73669580Y-55511210D01*
X74347793Y-54832997D01*
X74354223Y-54821223D01*
X74344926Y-54809207D01*
X74301931Y-54779102D01*
X74292445Y-54773624D01*
X74101007Y-54684355D01*
X74090715Y-54680609D01*
X73886691Y-54625941D01*
X73875896Y-54624038D01*
X73665475Y-54605628D01*
X73654525Y-54605628D01*
X73444104Y-54624038D01*
X73433309Y-54625941D01*
X73229285Y-54680609D01*
X73218993Y-54684355D01*
X73027559Y-54773623D01*
X73018068Y-54779103D01*
X72974235Y-54809794D01*
X72965860Y-54820271D01*
X46228500Y-54820271D01*
X46228500Y-30446695D01*
X59597251Y-30446695D01*
X59610110Y-30669715D01*
X59611247Y-30674761D01*
X59611248Y-30674767D01*
X59632275Y-30768069D01*
X59659222Y-30887639D01*
X59743266Y-31094616D01*
X59794942Y-31178944D01*
X59857291Y-31280688D01*
X59859987Y-31285088D01*
X60006250Y-31453938D01*
X60178126Y-31596632D01*
X60182593Y-31599242D01*
X60264070Y-31646853D01*
X60312794Y-31698491D01*
X60326500Y-31755641D01*
X60326500Y-50721233D01*
X60325973Y-50732416D01*
X60324298Y-50739909D01*
X60324547Y-50747835D01*
X60324547Y-50747836D01*
X60326438Y-50807986D01*
X60326500Y-50811945D01*
X60326500Y-50839856D01*
X60326997Y-50843790D01*
X60326997Y-50843791D01*
X60327005Y-50843856D01*
X60327938Y-50855693D01*
X60329327Y-50899889D01*
X60334978Y-50919339D01*
X60338987Y-50938700D01*
X60341526Y-50958797D01*
X60344445Y-50966168D01*
X60344445Y-50966170D01*
X60357804Y-50999912D01*
X60361649Y-51011142D01*
X60373982Y-51053593D01*
X60378015Y-51060412D01*
X60378017Y-51060417D01*
X60384293Y-51071028D01*
X60392988Y-51088776D01*
X60400448Y-51107617D01*
X60405110Y-51114033D01*
X60405110Y-51114034D01*
X60426436Y-51143387D01*
X60432952Y-51153307D01*
X60455458Y-51191362D01*
X60469779Y-51205683D01*
X60482619Y-51220716D01*
X60494528Y-51237107D01*
X60500634Y-51242158D01*
X60528605Y-51265298D01*
X60537384Y-51273288D01*
X61726343Y-52462247D01*
X61733887Y-52470537D01*
X61738000Y-52477018D01*
X61743777Y-52482443D01*
X61787667Y-52523658D01*
X61790509Y-52526413D01*
X61810230Y-52546134D01*
X61813425Y-52548612D01*
X61822447Y-52556318D01*
X61854679Y-52586586D01*
X61861628Y-52590406D01*
X61872432Y-52596346D01*
X61888956Y-52607199D01*
X61904959Y-52619613D01*
X61945543Y-52637176D01*
X61956173Y-52642383D01*
X61994940Y-52663695D01*
X62002617Y-52665666D01*
X62002622Y-52665668D01*
X62014558Y-52668732D01*
X62033266Y-52675137D01*
X62051855Y-52683181D01*
X62059683Y-52684421D01*
X62059690Y-52684423D01*
X62095524Y-52690099D01*
X62107144Y-52692505D01*
X62142289Y-52701528D01*
X62149970Y-52703500D01*
X62170224Y-52703500D01*
X62189934Y-52705051D01*
X62209943Y-52708220D01*
X62217835Y-52707474D01*
X62253961Y-52704059D01*
X62265819Y-52703500D01*
X82235406Y-52703500D01*
X82303527Y-52723502D01*
X82324501Y-52740405D01*
X83149595Y-53565499D01*
X83183621Y-53627811D01*
X83186500Y-53654594D01*
X83186500Y-54706996D01*
X83166498Y-54775117D01*
X83132771Y-54810209D01*
X83004730Y-54899864D01*
X83004727Y-54899866D01*
X83000219Y-54903023D01*
X82843023Y-55060219D01*
X82839866Y-55064727D01*
X82839864Y-55064730D01*
X82718669Y-55237815D01*
X82715512Y-55242324D01*
X82713189Y-55247306D01*
X82713186Y-55247311D01*
X82663919Y-55352965D01*
X82617001Y-55406250D01*
X82548724Y-55425711D01*
X82480764Y-55405169D01*
X82435529Y-55352965D01*
X82386377Y-55247559D01*
X82380897Y-55238068D01*
X82350206Y-55194235D01*
X82339729Y-55185860D01*
X82326282Y-55192928D01*
X81652022Y-55867188D01*
X81644408Y-55881132D01*
X81644539Y-55882965D01*
X81648790Y-55889580D01*
X82327003Y-56567793D01*
X82338777Y-56574223D01*
X82350793Y-56564926D01*
X82380897Y-56521932D01*
X82386377Y-56512441D01*
X82435529Y-56407035D01*
X82482447Y-56353750D01*
X82550724Y-56334289D01*
X82618684Y-56354831D01*
X82663919Y-56407035D01*
X82713186Y-56512689D01*
X82713189Y-56512694D01*
X82715512Y-56517676D01*
X82718668Y-56522183D01*
X82718669Y-56522185D01*
X82755107Y-56574223D01*
X82843023Y-56699781D01*
X83000219Y-56856977D01*
X83004727Y-56860134D01*
X83004730Y-56860136D01*
X83080495Y-56913187D01*
X83182323Y-56984488D01*
X83187305Y-56986811D01*
X83187310Y-56986814D01*
X83377810Y-57075645D01*
X83383804Y-57078440D01*
X83389112Y-57079862D01*
X83389114Y-57079863D01*
X83454949Y-57097503D01*
X83598537Y-57135978D01*
X83820000Y-57155353D01*
X84041463Y-57135978D01*
X84185051Y-57097503D01*
X84250886Y-57079863D01*
X84250888Y-57079862D01*
X84256196Y-57078440D01*
X84262190Y-57075645D01*
X84452690Y-56986814D01*
X84452695Y-56986811D01*
X84457677Y-56984488D01*
X84559505Y-56913187D01*
X84635270Y-56860136D01*
X84635273Y-56860134D01*
X84639781Y-56856977D01*
X84796977Y-56699781D01*
X84884894Y-56574223D01*
X84921331Y-56522185D01*
X84921332Y-56522183D01*
X84924488Y-56517676D01*
X84926811Y-56512694D01*
X84926814Y-56512689D01*
X84975805Y-56407627D01*
X85022723Y-56354342D01*
X85091000Y-56334881D01*
X85158960Y-56355423D01*
X85204195Y-56407627D01*
X85253186Y-56512689D01*
X85253189Y-56512694D01*
X85255512Y-56517676D01*
X85258668Y-56522183D01*
X85258669Y-56522185D01*
X85295107Y-56574223D01*
X85383023Y-56699781D01*
X85540219Y-56856977D01*
X85544727Y-56860134D01*
X85544730Y-56860136D01*
X85620495Y-56913187D01*
X85722323Y-56984488D01*
X85727305Y-56986811D01*
X85727310Y-56986814D01*
X85917810Y-57075645D01*
X85923804Y-57078440D01*
X85929112Y-57079862D01*
X85929114Y-57079863D01*
X85994949Y-57097503D01*
X86138537Y-57135978D01*
X86360000Y-57155353D01*
X86581463Y-57135978D01*
X86725051Y-57097503D01*
X86790886Y-57079863D01*
X86790888Y-57079862D01*
X86796196Y-57078440D01*
X86802190Y-57075645D01*
X86992690Y-56986814D01*
X86992695Y-56986811D01*
X86997677Y-56984488D01*
X87062959Y-56938777D01*
X88205777Y-56938777D01*
X88215074Y-56950793D01*
X88258069Y-56980898D01*
X88267555Y-56986376D01*
X88458993Y-57075645D01*
X88469285Y-57079391D01*
X88673309Y-57134059D01*
X88684104Y-57135962D01*
X88894525Y-57154372D01*
X88905475Y-57154372D01*
X89115896Y-57135962D01*
X89126691Y-57134059D01*
X89330715Y-57079391D01*
X89341007Y-57075645D01*
X89532445Y-56986376D01*
X89541931Y-56980898D01*
X89585764Y-56950207D01*
X89594139Y-56939729D01*
X89587071Y-56926281D01*
X88912812Y-56252022D01*
X88898868Y-56244408D01*
X88897035Y-56244539D01*
X88890420Y-56248790D01*
X88212207Y-56927003D01*
X88205777Y-56938777D01*
X87062959Y-56938777D01*
X87099505Y-56913187D01*
X87175270Y-56860136D01*
X87175273Y-56860134D01*
X87179781Y-56856977D01*
X87336977Y-56699781D01*
X87424894Y-56574223D01*
X87461331Y-56522185D01*
X87461332Y-56522183D01*
X87464488Y-56517676D01*
X87466811Y-56512694D01*
X87466814Y-56512689D01*
X87516081Y-56407035D01*
X87562999Y-56353750D01*
X87631276Y-56334289D01*
X87699236Y-56354831D01*
X87744471Y-56407035D01*
X87793623Y-56512441D01*
X87799103Y-56521932D01*
X87829794Y-56565765D01*
X87840271Y-56574140D01*
X87853718Y-56567072D01*
X88527978Y-55892812D01*
X88534356Y-55881132D01*
X89264408Y-55881132D01*
X89264539Y-55882965D01*
X89268790Y-55889580D01*
X89947003Y-56567793D01*
X89958777Y-56574223D01*
X89970793Y-56564926D01*
X90000897Y-56521932D01*
X90006377Y-56512441D01*
X90055529Y-56407035D01*
X90102447Y-56353750D01*
X90170724Y-56334289D01*
X90238684Y-56354831D01*
X90283919Y-56407035D01*
X90333186Y-56512689D01*
X90333189Y-56512694D01*
X90335512Y-56517676D01*
X90338668Y-56522183D01*
X90338669Y-56522185D01*
X90375107Y-56574223D01*
X90463023Y-56699781D01*
X90620219Y-56856977D01*
X90624727Y-56860134D01*
X90624730Y-56860136D01*
X90700495Y-56913187D01*
X90802323Y-56984488D01*
X90807305Y-56986811D01*
X90807310Y-56986814D01*
X90997810Y-57075645D01*
X91003804Y-57078440D01*
X91009112Y-57079862D01*
X91009114Y-57079863D01*
X91074949Y-57097503D01*
X91218537Y-57135978D01*
X91440000Y-57155353D01*
X91661463Y-57135978D01*
X91805051Y-57097503D01*
X91870886Y-57079863D01*
X91870888Y-57079862D01*
X91876196Y-57078440D01*
X91882190Y-57075645D01*
X92072690Y-56986814D01*
X92072695Y-56986811D01*
X92077677Y-56984488D01*
X92179505Y-56913187D01*
X92255270Y-56860136D01*
X92255273Y-56860134D01*
X92259781Y-56856977D01*
X92416977Y-56699781D01*
X92504894Y-56574223D01*
X92541331Y-56522185D01*
X92541332Y-56522183D01*
X92544488Y-56517676D01*
X92546811Y-56512694D01*
X92546814Y-56512689D01*
X92595805Y-56407627D01*
X92642723Y-56354342D01*
X92711000Y-56334881D01*
X92778960Y-56355423D01*
X92824195Y-56407627D01*
X92873186Y-56512689D01*
X92873189Y-56512694D01*
X92875512Y-56517676D01*
X92878668Y-56522183D01*
X92878669Y-56522185D01*
X92915107Y-56574223D01*
X93003023Y-56699781D01*
X93160219Y-56856977D01*
X93164727Y-56860134D01*
X93164730Y-56860136D01*
X93240495Y-56913187D01*
X93342323Y-56984488D01*
X93347305Y-56986811D01*
X93347310Y-56986814D01*
X93537810Y-57075645D01*
X93543804Y-57078440D01*
X93549112Y-57079862D01*
X93549114Y-57079863D01*
X93614949Y-57097503D01*
X93758537Y-57135978D01*
X93980000Y-57155353D01*
X94201463Y-57135978D01*
X94345051Y-57097503D01*
X94410886Y-57079863D01*
X94410888Y-57079862D01*
X94416196Y-57078440D01*
X94422190Y-57075645D01*
X94612690Y-56986814D01*
X94612695Y-56986811D01*
X94617677Y-56984488D01*
X94719505Y-56913187D01*
X94795270Y-56860136D01*
X94795273Y-56860134D01*
X94799781Y-56856977D01*
X94956977Y-56699781D01*
X95044894Y-56574223D01*
X95081331Y-56522185D01*
X95081332Y-56522183D01*
X95084488Y-56517676D01*
X95086811Y-56512694D01*
X95086814Y-56512689D01*
X95135805Y-56407627D01*
X95182723Y-56354342D01*
X95251000Y-56334881D01*
X95318960Y-56355423D01*
X95364195Y-56407627D01*
X95413186Y-56512689D01*
X95413189Y-56512694D01*
X95415512Y-56517676D01*
X95418668Y-56522183D01*
X95418669Y-56522185D01*
X95455107Y-56574223D01*
X95543023Y-56699781D01*
X95700219Y-56856977D01*
X95704727Y-56860134D01*
X95704730Y-56860136D01*
X95780495Y-56913187D01*
X95882323Y-56984488D01*
X95887305Y-56986811D01*
X95887310Y-56986814D01*
X96077810Y-57075645D01*
X96083804Y-57078440D01*
X96089112Y-57079862D01*
X96089114Y-57079863D01*
X96154949Y-57097503D01*
X96298537Y-57135978D01*
X96520000Y-57155353D01*
X96741463Y-57135978D01*
X96885051Y-57097503D01*
X96950886Y-57079863D01*
X96950888Y-57079862D01*
X96956196Y-57078440D01*
X96962190Y-57075645D01*
X97152690Y-56986814D01*
X97152695Y-56986811D01*
X97157677Y-56984488D01*
X97259505Y-56913187D01*
X97335270Y-56860136D01*
X97335273Y-56860134D01*
X97339781Y-56856977D01*
X97496977Y-56699781D01*
X97584894Y-56574223D01*
X97621331Y-56522185D01*
X97621332Y-56522183D01*
X97624488Y-56517676D01*
X97626811Y-56512694D01*
X97626814Y-56512689D01*
X97675805Y-56407627D01*
X97722723Y-56354342D01*
X97791000Y-56334881D01*
X97858960Y-56355423D01*
X97904195Y-56407627D01*
X97953186Y-56512689D01*
X97953189Y-56512694D01*
X97955512Y-56517676D01*
X97958668Y-56522183D01*
X97958669Y-56522185D01*
X97995107Y-56574223D01*
X98083023Y-56699781D01*
X98240219Y-56856977D01*
X98244727Y-56860134D01*
X98244730Y-56860136D01*
X98320495Y-56913187D01*
X98422323Y-56984488D01*
X98427305Y-56986811D01*
X98427310Y-56986814D01*
X98617810Y-57075645D01*
X98623804Y-57078440D01*
X98629112Y-57079862D01*
X98629114Y-57079863D01*
X98694949Y-57097503D01*
X98838537Y-57135978D01*
X99060000Y-57155353D01*
X99281463Y-57135978D01*
X99425051Y-57097503D01*
X99490886Y-57079863D01*
X99490888Y-57079862D01*
X99496196Y-57078440D01*
X99502190Y-57075645D01*
X99692690Y-56986814D01*
X99692695Y-56986811D01*
X99697677Y-56984488D01*
X99762959Y-56938777D01*
X100905777Y-56938777D01*
X100915074Y-56950793D01*
X100958069Y-56980898D01*
X100967555Y-56986376D01*
X101158993Y-57075645D01*
X101169285Y-57079391D01*
X101373309Y-57134059D01*
X101384104Y-57135962D01*
X101594525Y-57154372D01*
X101605475Y-57154372D01*
X101815896Y-57135962D01*
X101826691Y-57134059D01*
X102030715Y-57079391D01*
X102041007Y-57075645D01*
X102232445Y-56986376D01*
X102241931Y-56980898D01*
X102285764Y-56950207D01*
X102294139Y-56939729D01*
X102287071Y-56926281D01*
X101612812Y-56252022D01*
X101598868Y-56244408D01*
X101597035Y-56244539D01*
X101590420Y-56248790D01*
X100912207Y-56927003D01*
X100905777Y-56938777D01*
X99762959Y-56938777D01*
X99799505Y-56913187D01*
X99875270Y-56860136D01*
X99875273Y-56860134D01*
X99879781Y-56856977D01*
X100036977Y-56699781D01*
X100124894Y-56574223D01*
X100161331Y-56522185D01*
X100161332Y-56522183D01*
X100164488Y-56517676D01*
X100166811Y-56512694D01*
X100166814Y-56512689D01*
X100216081Y-56407035D01*
X100262999Y-56353750D01*
X100331276Y-56334289D01*
X100399236Y-56354831D01*
X100444471Y-56407035D01*
X100493623Y-56512441D01*
X100499103Y-56521932D01*
X100529794Y-56565765D01*
X100540271Y-56574140D01*
X100553718Y-56567072D01*
X101227978Y-55892812D01*
X101234356Y-55881132D01*
X101964408Y-55881132D01*
X101964539Y-55882965D01*
X101968790Y-55889580D01*
X102647003Y-56567793D01*
X102658777Y-56574223D01*
X102670793Y-56564926D01*
X102700897Y-56521932D01*
X102706377Y-56512441D01*
X102755529Y-56407035D01*
X102802447Y-56353750D01*
X102870724Y-56334289D01*
X102938684Y-56354831D01*
X102983919Y-56407035D01*
X103033186Y-56512689D01*
X103033189Y-56512694D01*
X103035512Y-56517676D01*
X103038668Y-56522183D01*
X103038669Y-56522185D01*
X103075107Y-56574223D01*
X103163023Y-56699781D01*
X103320219Y-56856977D01*
X103324727Y-56860134D01*
X103324730Y-56860136D01*
X103400495Y-56913187D01*
X103502323Y-56984488D01*
X103507305Y-56986811D01*
X103507310Y-56986814D01*
X103697810Y-57075645D01*
X103703804Y-57078440D01*
X103709112Y-57079862D01*
X103709114Y-57079863D01*
X103774949Y-57097503D01*
X103918537Y-57135978D01*
X104140000Y-57155353D01*
X104361463Y-57135978D01*
X104505051Y-57097503D01*
X104570886Y-57079863D01*
X104570888Y-57079862D01*
X104576196Y-57078440D01*
X104582190Y-57075645D01*
X104772690Y-56986814D01*
X104772695Y-56986811D01*
X104777677Y-56984488D01*
X104879505Y-56913187D01*
X104955270Y-56860136D01*
X104955273Y-56860134D01*
X104959781Y-56856977D01*
X105116977Y-56699781D01*
X105204894Y-56574223D01*
X105241331Y-56522185D01*
X105241332Y-56522183D01*
X105244488Y-56517676D01*
X105246811Y-56512694D01*
X105246814Y-56512689D01*
X105295805Y-56407627D01*
X105342723Y-56354342D01*
X105411000Y-56334881D01*
X105478960Y-56355423D01*
X105524195Y-56407627D01*
X105573186Y-56512689D01*
X105573189Y-56512694D01*
X105575512Y-56517676D01*
X105578668Y-56522183D01*
X105578669Y-56522185D01*
X105615107Y-56574223D01*
X105703023Y-56699781D01*
X105860219Y-56856977D01*
X105864727Y-56860134D01*
X105864730Y-56860136D01*
X105940495Y-56913187D01*
X106042323Y-56984488D01*
X106047305Y-56986811D01*
X106047310Y-56986814D01*
X106237810Y-57075645D01*
X106243804Y-57078440D01*
X106249112Y-57079862D01*
X106249114Y-57079863D01*
X106314949Y-57097503D01*
X106458537Y-57135978D01*
X106680000Y-57155353D01*
X106901463Y-57135978D01*
X107045051Y-57097503D01*
X107110886Y-57079863D01*
X107110888Y-57079862D01*
X107116196Y-57078440D01*
X107122190Y-57075645D01*
X107312690Y-56986814D01*
X107312695Y-56986811D01*
X107317677Y-56984488D01*
X107382959Y-56938777D01*
X108525777Y-56938777D01*
X108535074Y-56950793D01*
X108578069Y-56980898D01*
X108587555Y-56986376D01*
X108778993Y-57075645D01*
X108789285Y-57079391D01*
X108993309Y-57134059D01*
X109004104Y-57135962D01*
X109214525Y-57154372D01*
X109225475Y-57154372D01*
X109435896Y-57135962D01*
X109446691Y-57134059D01*
X109650715Y-57079391D01*
X109661007Y-57075645D01*
X109852445Y-56986376D01*
X109861931Y-56980898D01*
X109905764Y-56950207D01*
X109914139Y-56939729D01*
X109907071Y-56926281D01*
X109232812Y-56252022D01*
X109218868Y-56244408D01*
X109217035Y-56244539D01*
X109210420Y-56248790D01*
X108532207Y-56927003D01*
X108525777Y-56938777D01*
X107382959Y-56938777D01*
X107419505Y-56913187D01*
X107495270Y-56860136D01*
X107495273Y-56860134D01*
X107499781Y-56856977D01*
X107656977Y-56699781D01*
X107744894Y-56574223D01*
X107781331Y-56522185D01*
X107781332Y-56522183D01*
X107784488Y-56517676D01*
X107786811Y-56512694D01*
X107786814Y-56512689D01*
X107836081Y-56407035D01*
X107882999Y-56353750D01*
X107951276Y-56334289D01*
X108019236Y-56354831D01*
X108064471Y-56407035D01*
X108113623Y-56512441D01*
X108119103Y-56521932D01*
X108149794Y-56565765D01*
X108160271Y-56574140D01*
X108173718Y-56567072D01*
X108847978Y-55892812D01*
X108854356Y-55881132D01*
X109584408Y-55881132D01*
X109584539Y-55882965D01*
X109588790Y-55889580D01*
X110267003Y-56567793D01*
X110278777Y-56574223D01*
X110290793Y-56564926D01*
X110320897Y-56521932D01*
X110326377Y-56512441D01*
X110415645Y-56321007D01*
X110419391Y-56310715D01*
X110474059Y-56106691D01*
X110475962Y-56095896D01*
X110494372Y-55885475D01*
X110494372Y-55874525D01*
X110475962Y-55664104D01*
X110474059Y-55653309D01*
X110419391Y-55449285D01*
X110415645Y-55438993D01*
X110326377Y-55247559D01*
X110320897Y-55238068D01*
X110290206Y-55194235D01*
X110279729Y-55185860D01*
X110266282Y-55192928D01*
X109592022Y-55867188D01*
X109584408Y-55881132D01*
X108854356Y-55881132D01*
X108855592Y-55878868D01*
X108855461Y-55877035D01*
X108851210Y-55870420D01*
X108172997Y-55192207D01*
X108161223Y-55185777D01*
X108149207Y-55195074D01*
X108119103Y-55238068D01*
X108113623Y-55247559D01*
X108064471Y-55352965D01*
X108017553Y-55406250D01*
X107949276Y-55425711D01*
X107881316Y-55405169D01*
X107836081Y-55352965D01*
X107786814Y-55247311D01*
X107786811Y-55247306D01*
X107784488Y-55242324D01*
X107781331Y-55237815D01*
X107660136Y-55064730D01*
X107660134Y-55064727D01*
X107656977Y-55060219D01*
X107499781Y-54903023D01*
X107495273Y-54899866D01*
X107495270Y-54899864D01*
X107419505Y-54846813D01*
X107381599Y-54820271D01*
X108525860Y-54820271D01*
X108532928Y-54833718D01*
X109207188Y-55507978D01*
X109221132Y-55515592D01*
X109222965Y-55515461D01*
X109229580Y-55511210D01*
X109907793Y-54832997D01*
X109914223Y-54821223D01*
X109904926Y-54809207D01*
X109861931Y-54779102D01*
X109852445Y-54773624D01*
X109661007Y-54684355D01*
X109650715Y-54680609D01*
X109446691Y-54625941D01*
X109435896Y-54624038D01*
X109225475Y-54605628D01*
X109214525Y-54605628D01*
X109004104Y-54624038D01*
X108993309Y-54625941D01*
X108789285Y-54680609D01*
X108778993Y-54684355D01*
X108587559Y-54773623D01*
X108578068Y-54779103D01*
X108534235Y-54809794D01*
X108525860Y-54820271D01*
X107381599Y-54820271D01*
X107317677Y-54775512D01*
X107312695Y-54773189D01*
X107312690Y-54773186D01*
X107121178Y-54683883D01*
X107121177Y-54683882D01*
X107116196Y-54681560D01*
X107110888Y-54680138D01*
X107110886Y-54680137D01*
X107045051Y-54662497D01*
X106901463Y-54624022D01*
X106680000Y-54604647D01*
X106458537Y-54624022D01*
X106314949Y-54662497D01*
X106249114Y-54680137D01*
X106249112Y-54680138D01*
X106243804Y-54681560D01*
X106238823Y-54683882D01*
X106238822Y-54683883D01*
X106047311Y-54773186D01*
X106047306Y-54773189D01*
X106042324Y-54775512D01*
X106037817Y-54778668D01*
X106037815Y-54778669D01*
X105864730Y-54899864D01*
X105864727Y-54899866D01*
X105860219Y-54903023D01*
X105703023Y-55060219D01*
X105699866Y-55064727D01*
X105699864Y-55064730D01*
X105578669Y-55237815D01*
X105575512Y-55242324D01*
X105573189Y-55247306D01*
X105573186Y-55247311D01*
X105524195Y-55352373D01*
X105477277Y-55405658D01*
X105409000Y-55425119D01*
X105341040Y-55404577D01*
X105295805Y-55352373D01*
X105246814Y-55247311D01*
X105246811Y-55247306D01*
X105244488Y-55242324D01*
X105241331Y-55237815D01*
X105120136Y-55064730D01*
X105120134Y-55064727D01*
X105116977Y-55060219D01*
X104959781Y-54903023D01*
X104955273Y-54899866D01*
X104955270Y-54899864D01*
X104879505Y-54846813D01*
X104777677Y-54775512D01*
X104772695Y-54773189D01*
X104772690Y-54773186D01*
X104581178Y-54683883D01*
X104581177Y-54683882D01*
X104576196Y-54681560D01*
X104570888Y-54680138D01*
X104570886Y-54680137D01*
X104505051Y-54662497D01*
X104361463Y-54624022D01*
X104140000Y-54604647D01*
X103918537Y-54624022D01*
X103774949Y-54662497D01*
X103709114Y-54680137D01*
X103709112Y-54680138D01*
X103703804Y-54681560D01*
X103698823Y-54683882D01*
X103698822Y-54683883D01*
X103507311Y-54773186D01*
X103507306Y-54773189D01*
X103502324Y-54775512D01*
X103497817Y-54778668D01*
X103497815Y-54778669D01*
X103324730Y-54899864D01*
X103324727Y-54899866D01*
X103320219Y-54903023D01*
X103163023Y-55060219D01*
X103159866Y-55064727D01*
X103159864Y-55064730D01*
X103038669Y-55237815D01*
X103035512Y-55242324D01*
X103033189Y-55247306D01*
X103033186Y-55247311D01*
X102983919Y-55352965D01*
X102937001Y-55406250D01*
X102868724Y-55425711D01*
X102800764Y-55405169D01*
X102755529Y-55352965D01*
X102706377Y-55247559D01*
X102700897Y-55238068D01*
X102670206Y-55194235D01*
X102659729Y-55185860D01*
X102646282Y-55192928D01*
X101972022Y-55867188D01*
X101964408Y-55881132D01*
X101234356Y-55881132D01*
X101235592Y-55878868D01*
X101235461Y-55877035D01*
X101231210Y-55870420D01*
X100552997Y-55192207D01*
X100541223Y-55185777D01*
X100529207Y-55195074D01*
X100499103Y-55238068D01*
X100493623Y-55247559D01*
X100444471Y-55352965D01*
X100397553Y-55406250D01*
X100329276Y-55425711D01*
X100261316Y-55405169D01*
X100216081Y-55352965D01*
X100166814Y-55247311D01*
X100166811Y-55247306D01*
X100164488Y-55242324D01*
X100161331Y-55237815D01*
X100040136Y-55064730D01*
X100040134Y-55064727D01*
X100036977Y-55060219D01*
X99879781Y-54903023D01*
X99875273Y-54899866D01*
X99875270Y-54899864D01*
X99799505Y-54846813D01*
X99761599Y-54820271D01*
X100905860Y-54820271D01*
X100912928Y-54833718D01*
X101587188Y-55507978D01*
X101601132Y-55515592D01*
X101602965Y-55515461D01*
X101609580Y-55511210D01*
X102287793Y-54832997D01*
X102294223Y-54821223D01*
X102284926Y-54809207D01*
X102241931Y-54779102D01*
X102232445Y-54773624D01*
X102041007Y-54684355D01*
X102030715Y-54680609D01*
X101826691Y-54625941D01*
X101815896Y-54624038D01*
X101605475Y-54605628D01*
X101594525Y-54605628D01*
X101384104Y-54624038D01*
X101373309Y-54625941D01*
X101169285Y-54680609D01*
X101158993Y-54684355D01*
X100967559Y-54773623D01*
X100958068Y-54779103D01*
X100914235Y-54809794D01*
X100905860Y-54820271D01*
X99761599Y-54820271D01*
X99697677Y-54775512D01*
X99692695Y-54773189D01*
X99692690Y-54773186D01*
X99501178Y-54683883D01*
X99501177Y-54683882D01*
X99496196Y-54681560D01*
X99490888Y-54680138D01*
X99490886Y-54680137D01*
X99425051Y-54662497D01*
X99281463Y-54624022D01*
X99060000Y-54604647D01*
X98838537Y-54624022D01*
X98694949Y-54662497D01*
X98629114Y-54680137D01*
X98629112Y-54680138D01*
X98623804Y-54681560D01*
X98618823Y-54683882D01*
X98618822Y-54683883D01*
X98427311Y-54773186D01*
X98427306Y-54773189D01*
X98422324Y-54775512D01*
X98417817Y-54778668D01*
X98417815Y-54778669D01*
X98244730Y-54899864D01*
X98244727Y-54899866D01*
X98240219Y-54903023D01*
X98083023Y-55060219D01*
X98079866Y-55064727D01*
X98079864Y-55064730D01*
X97958669Y-55237815D01*
X97955512Y-55242324D01*
X97953189Y-55247306D01*
X97953186Y-55247311D01*
X97904195Y-55352373D01*
X97857277Y-55405658D01*
X97789000Y-55425119D01*
X97721040Y-55404577D01*
X97675805Y-55352373D01*
X97626814Y-55247311D01*
X97626811Y-55247306D01*
X97624488Y-55242324D01*
X97621331Y-55237815D01*
X97500136Y-55064730D01*
X97500134Y-55064727D01*
X97496977Y-55060219D01*
X97339781Y-54903023D01*
X97335273Y-54899866D01*
X97335270Y-54899864D01*
X97259505Y-54846813D01*
X97157677Y-54775512D01*
X97152695Y-54773189D01*
X97152690Y-54773186D01*
X96961178Y-54683883D01*
X96961177Y-54683882D01*
X96956196Y-54681560D01*
X96950888Y-54680138D01*
X96950886Y-54680137D01*
X96885051Y-54662497D01*
X96741463Y-54624022D01*
X96520000Y-54604647D01*
X96298537Y-54624022D01*
X96154949Y-54662497D01*
X96089114Y-54680137D01*
X96089112Y-54680138D01*
X96083804Y-54681560D01*
X96078823Y-54683882D01*
X96078822Y-54683883D01*
X95887311Y-54773186D01*
X95887306Y-54773189D01*
X95882324Y-54775512D01*
X95877817Y-54778668D01*
X95877815Y-54778669D01*
X95704730Y-54899864D01*
X95704727Y-54899866D01*
X95700219Y-54903023D01*
X95543023Y-55060219D01*
X95539866Y-55064727D01*
X95539864Y-55064730D01*
X95418669Y-55237815D01*
X95415512Y-55242324D01*
X95413189Y-55247306D01*
X95413186Y-55247311D01*
X95364195Y-55352373D01*
X95317277Y-55405658D01*
X95249000Y-55425119D01*
X95181040Y-55404577D01*
X95135805Y-55352373D01*
X95086814Y-55247311D01*
X95086811Y-55247306D01*
X95084488Y-55242324D01*
X95081331Y-55237815D01*
X94960136Y-55064730D01*
X94960134Y-55064727D01*
X94956977Y-55060219D01*
X94799781Y-54903023D01*
X94795273Y-54899866D01*
X94795270Y-54899864D01*
X94719505Y-54846813D01*
X94617677Y-54775512D01*
X94612695Y-54773189D01*
X94612690Y-54773186D01*
X94421178Y-54683883D01*
X94421177Y-54683882D01*
X94416196Y-54681560D01*
X94410888Y-54680138D01*
X94410886Y-54680137D01*
X94345051Y-54662497D01*
X94201463Y-54624022D01*
X93980000Y-54604647D01*
X93758537Y-54624022D01*
X93614949Y-54662497D01*
X93549114Y-54680137D01*
X93549112Y-54680138D01*
X93543804Y-54681560D01*
X93538823Y-54683882D01*
X93538822Y-54683883D01*
X93347311Y-54773186D01*
X93347306Y-54773189D01*
X93342324Y-54775512D01*
X93337817Y-54778668D01*
X93337815Y-54778669D01*
X93164730Y-54899864D01*
X93164727Y-54899866D01*
X93160219Y-54903023D01*
X93003023Y-55060219D01*
X92999866Y-55064727D01*
X92999864Y-55064730D01*
X92878669Y-55237815D01*
X92875512Y-55242324D01*
X92873189Y-55247306D01*
X92873186Y-55247311D01*
X92824195Y-55352373D01*
X92777277Y-55405658D01*
X92709000Y-55425119D01*
X92641040Y-55404577D01*
X92595805Y-55352373D01*
X92546814Y-55247311D01*
X92546811Y-55247306D01*
X92544488Y-55242324D01*
X92541331Y-55237815D01*
X92420136Y-55064730D01*
X92420134Y-55064727D01*
X92416977Y-55060219D01*
X92259781Y-54903023D01*
X92255273Y-54899866D01*
X92255270Y-54899864D01*
X92179505Y-54846813D01*
X92077677Y-54775512D01*
X92072695Y-54773189D01*
X92072690Y-54773186D01*
X91881178Y-54683883D01*
X91881177Y-54683882D01*
X91876196Y-54681560D01*
X91870888Y-54680138D01*
X91870886Y-54680137D01*
X91805051Y-54662497D01*
X91661463Y-54624022D01*
X91440000Y-54604647D01*
X91218537Y-54624022D01*
X91074949Y-54662497D01*
X91009114Y-54680137D01*
X91009112Y-54680138D01*
X91003804Y-54681560D01*
X90998823Y-54683882D01*
X90998822Y-54683883D01*
X90807311Y-54773186D01*
X90807306Y-54773189D01*
X90802324Y-54775512D01*
X90797817Y-54778668D01*
X90797815Y-54778669D01*
X90624730Y-54899864D01*
X90624727Y-54899866D01*
X90620219Y-54903023D01*
X90463023Y-55060219D01*
X90459866Y-55064727D01*
X90459864Y-55064730D01*
X90338669Y-55237815D01*
X90335512Y-55242324D01*
X90333189Y-55247306D01*
X90333186Y-55247311D01*
X90283919Y-55352965D01*
X90237001Y-55406250D01*
X90168724Y-55425711D01*
X90100764Y-55405169D01*
X90055529Y-55352965D01*
X90006377Y-55247559D01*
X90000897Y-55238068D01*
X89970206Y-55194235D01*
X89959729Y-55185860D01*
X89946282Y-55192928D01*
X89272022Y-55867188D01*
X89264408Y-55881132D01*
X88534356Y-55881132D01*
X88535592Y-55878868D01*
X88535461Y-55877035D01*
X88531210Y-55870420D01*
X87852997Y-55192207D01*
X87841223Y-55185777D01*
X87829207Y-55195074D01*
X87799103Y-55238068D01*
X87793623Y-55247559D01*
X87744471Y-55352965D01*
X87697553Y-55406250D01*
X87629276Y-55425711D01*
X87561316Y-55405169D01*
X87516081Y-55352965D01*
X87466814Y-55247311D01*
X87466811Y-55247306D01*
X87464488Y-55242324D01*
X87461331Y-55237815D01*
X87340136Y-55064730D01*
X87340134Y-55064727D01*
X87336977Y-55060219D01*
X87179781Y-54903023D01*
X87175273Y-54899866D01*
X87175270Y-54899864D01*
X87099505Y-54846813D01*
X87061599Y-54820271D01*
X88205860Y-54820271D01*
X88212928Y-54833718D01*
X88887188Y-55507978D01*
X88901132Y-55515592D01*
X88902965Y-55515461D01*
X88909580Y-55511210D01*
X89587793Y-54832997D01*
X89594223Y-54821223D01*
X89584926Y-54809207D01*
X89541931Y-54779102D01*
X89532445Y-54773624D01*
X89341007Y-54684355D01*
X89330715Y-54680609D01*
X89126691Y-54625941D01*
X89115896Y-54624038D01*
X88905475Y-54605628D01*
X88894525Y-54605628D01*
X88684104Y-54624038D01*
X88673309Y-54625941D01*
X88469285Y-54680609D01*
X88458993Y-54684355D01*
X88267559Y-54773623D01*
X88258068Y-54779103D01*
X88214235Y-54809794D01*
X88205860Y-54820271D01*
X87061599Y-54820271D01*
X86997677Y-54775512D01*
X86992695Y-54773189D01*
X86992690Y-54773186D01*
X86801178Y-54683883D01*
X86801177Y-54683882D01*
X86796196Y-54681560D01*
X86790888Y-54680138D01*
X86790886Y-54680137D01*
X86725051Y-54662497D01*
X86581463Y-54624022D01*
X86360000Y-54604647D01*
X86138537Y-54624022D01*
X85994949Y-54662497D01*
X85929114Y-54680137D01*
X85929112Y-54680138D01*
X85923804Y-54681560D01*
X85918823Y-54683882D01*
X85918822Y-54683883D01*
X85727311Y-54773186D01*
X85727306Y-54773189D01*
X85722324Y-54775512D01*
X85717817Y-54778668D01*
X85717815Y-54778669D01*
X85544730Y-54899864D01*
X85544727Y-54899866D01*
X85540219Y-54903023D01*
X85383023Y-55060219D01*
X85379866Y-55064727D01*
X85379864Y-55064730D01*
X85258669Y-55237815D01*
X85255512Y-55242324D01*
X85253189Y-55247306D01*
X85253186Y-55247311D01*
X85204195Y-55352373D01*
X85157277Y-55405658D01*
X85089000Y-55425119D01*
X85021040Y-55404577D01*
X84975805Y-55352373D01*
X84926814Y-55247311D01*
X84926811Y-55247306D01*
X84924488Y-55242324D01*
X84921331Y-55237815D01*
X84800136Y-55064730D01*
X84800134Y-55064727D01*
X84796977Y-55060219D01*
X84639781Y-54903023D01*
X84635273Y-54899866D01*
X84635270Y-54899864D01*
X84554275Y-54843151D01*
X84507229Y-54810209D01*
X84462901Y-54754752D01*
X84453500Y-54706996D01*
X84453500Y-53418767D01*
X84454027Y-53407584D01*
X84455702Y-53400091D01*
X84453562Y-53332014D01*
X84453500Y-53328055D01*
X84453500Y-53300144D01*
X84452995Y-53296144D01*
X84452062Y-53284301D01*
X84450922Y-53248029D01*
X84450673Y-53240110D01*
X84445022Y-53220658D01*
X84441014Y-53201306D01*
X84439467Y-53189063D01*
X84438474Y-53181203D01*
X84435556Y-53173832D01*
X84422200Y-53140097D01*
X84418355Y-53128870D01*
X84417721Y-53126687D01*
X84406018Y-53086407D01*
X84401984Y-53079585D01*
X84401981Y-53079579D01*
X84395706Y-53068968D01*
X84387010Y-53051218D01*
X84382472Y-53039756D01*
X84382469Y-53039751D01*
X84379552Y-53032383D01*
X84353573Y-52996625D01*
X84347057Y-52986707D01*
X84328575Y-52955457D01*
X84324542Y-52948637D01*
X84310218Y-52934313D01*
X84297376Y-52919278D01*
X84285472Y-52902893D01*
X84251406Y-52874711D01*
X84242627Y-52866722D01*
X83053652Y-51677747D01*
X83046112Y-51669461D01*
X83042000Y-51662982D01*
X83029614Y-51651351D01*
X82993648Y-51590138D01*
X82996485Y-51519198D01*
X83037225Y-51461054D01*
X83102933Y-51434165D01*
X83115866Y-51433500D01*
X89855406Y-51433500D01*
X89923527Y-51453502D01*
X89944501Y-51470405D01*
X91762878Y-53288782D01*
X91796904Y-53351094D01*
X91799092Y-53364703D01*
X91816458Y-53529928D01*
X91875473Y-53711556D01*
X91970960Y-53876944D01*
X92098747Y-54018866D01*
X92253248Y-54131118D01*
X92259276Y-54133802D01*
X92259278Y-54133803D01*
X92421681Y-54206109D01*
X92427712Y-54208794D01*
X92521112Y-54228647D01*
X92608056Y-54247128D01*
X92608061Y-54247128D01*
X92614513Y-54248500D01*
X92805487Y-54248500D01*
X92811939Y-54247128D01*
X92811944Y-54247128D01*
X92898888Y-54228647D01*
X92992288Y-54208794D01*
X92998319Y-54206109D01*
X93160722Y-54133803D01*
X93160724Y-54133802D01*
X93166752Y-54131118D01*
X93321253Y-54018866D01*
X93449040Y-53876944D01*
X93544527Y-53711556D01*
X93603542Y-53529928D01*
X93623504Y-53340000D01*
X93613005Y-53240110D01*
X93604232Y-53156635D01*
X93604232Y-53156633D01*
X93603542Y-53150072D01*
X93544527Y-52968444D01*
X93533092Y-52948637D01*
X93452341Y-52808774D01*
X93449040Y-52803056D01*
X93340771Y-52682811D01*
X93334263Y-52669250D01*
X93334161Y-52669228D01*
X93320485Y-52660576D01*
X93172094Y-52552763D01*
X93172093Y-52552762D01*
X93166752Y-52548882D01*
X93160724Y-52546198D01*
X93160722Y-52546197D01*
X92998319Y-52473891D01*
X92998318Y-52473891D01*
X92992288Y-52471206D01*
X92898887Y-52451353D01*
X92811944Y-52432872D01*
X92811939Y-52432872D01*
X92805487Y-52431500D01*
X92749595Y-52431500D01*
X92681474Y-52411498D01*
X92660500Y-52394595D01*
X90673652Y-50407747D01*
X90666112Y-50399461D01*
X90662000Y-50392982D01*
X90649614Y-50381351D01*
X90613648Y-50320138D01*
X90616485Y-50249198D01*
X90657225Y-50191054D01*
X90722933Y-50164165D01*
X90735866Y-50163500D01*
X91125406Y-50163500D01*
X91193527Y-50183502D01*
X91214501Y-50200405D01*
X93483641Y-52469545D01*
X93494600Y-52489615D01*
X93500497Y-52491225D01*
X93523502Y-52509406D01*
X94302878Y-53288782D01*
X94336904Y-53351094D01*
X94339092Y-53364703D01*
X94356458Y-53529928D01*
X94415473Y-53711556D01*
X94510960Y-53876944D01*
X94638747Y-54018866D01*
X94793248Y-54131118D01*
X94799276Y-54133802D01*
X94799278Y-54133803D01*
X94961681Y-54206109D01*
X94967712Y-54208794D01*
X95061112Y-54228647D01*
X95148056Y-54247128D01*
X95148061Y-54247128D01*
X95154513Y-54248500D01*
X95345487Y-54248500D01*
X95351939Y-54247128D01*
X95351944Y-54247128D01*
X95438888Y-54228647D01*
X95532288Y-54208794D01*
X95538319Y-54206109D01*
X95700722Y-54133803D01*
X95700724Y-54133802D01*
X95706752Y-54131118D01*
X95861253Y-54018866D01*
X95989040Y-53876944D01*
X96084527Y-53711556D01*
X96143542Y-53529928D01*
X96163504Y-53340000D01*
X96153005Y-53240110D01*
X96144232Y-53156635D01*
X96144232Y-53156633D01*
X96143542Y-53150072D01*
X96084527Y-52968444D01*
X96073092Y-52948637D01*
X95992341Y-52808774D01*
X95989040Y-52803056D01*
X95880779Y-52682820D01*
X95874267Y-52669250D01*
X95874158Y-52669226D01*
X95860482Y-52660574D01*
X95859522Y-52659876D01*
X95706752Y-52548882D01*
X95700724Y-52546198D01*
X95700722Y-52546197D01*
X95538319Y-52473891D01*
X95538318Y-52473891D01*
X95532288Y-52471206D01*
X95438887Y-52451353D01*
X95351944Y-52432872D01*
X95351939Y-52432872D01*
X95345487Y-52431500D01*
X95289594Y-52431500D01*
X95221473Y-52411498D01*
X95200499Y-52394595D01*
X91943652Y-49137747D01*
X91936112Y-49129461D01*
X91932000Y-49122982D01*
X91919614Y-49111351D01*
X91883648Y-49050138D01*
X91886485Y-48979198D01*
X91927225Y-48921054D01*
X91992933Y-48894165D01*
X92005866Y-48893500D01*
X92395406Y-48893500D01*
X92463527Y-48913502D01*
X92484501Y-48930405D01*
X96023638Y-52469543D01*
X96034602Y-52489622D01*
X96040505Y-52491234D01*
X96063510Y-52509415D01*
X96842878Y-53288783D01*
X96876904Y-53351095D01*
X96879093Y-53364706D01*
X96896458Y-53529928D01*
X96955473Y-53711556D01*
X97050960Y-53876944D01*
X97178747Y-54018866D01*
X97333248Y-54131118D01*
X97339276Y-54133802D01*
X97339278Y-54133803D01*
X97501681Y-54206109D01*
X97507712Y-54208794D01*
X97601112Y-54228647D01*
X97688056Y-54247128D01*
X97688061Y-54247128D01*
X97694513Y-54248500D01*
X97885487Y-54248500D01*
X97891939Y-54247128D01*
X97891944Y-54247128D01*
X97978888Y-54228647D01*
X98072288Y-54208794D01*
X98078319Y-54206109D01*
X98240722Y-54133803D01*
X98240724Y-54133802D01*
X98246752Y-54131118D01*
X98401253Y-54018866D01*
X98529040Y-53876944D01*
X98624527Y-53711556D01*
X98683542Y-53529928D01*
X98703504Y-53340000D01*
X98693005Y-53240110D01*
X98684232Y-53156635D01*
X98684232Y-53156633D01*
X98683542Y-53150072D01*
X98624527Y-52968444D01*
X98613092Y-52948637D01*
X98532341Y-52808774D01*
X98529040Y-52803056D01*
X98443650Y-52708220D01*
X98405675Y-52666045D01*
X98405674Y-52666044D01*
X98401253Y-52661134D01*
X98246752Y-52548882D01*
X98240724Y-52546198D01*
X98240722Y-52546197D01*
X98078319Y-52473891D01*
X98078318Y-52473891D01*
X98072288Y-52471206D01*
X97978887Y-52451353D01*
X97891944Y-52432872D01*
X97891939Y-52432872D01*
X97885487Y-52431500D01*
X97829594Y-52431500D01*
X97761473Y-52411498D01*
X97740499Y-52394595D01*
X95492403Y-50146498D01*
X93213652Y-47867747D01*
X93206112Y-47859461D01*
X93202000Y-47852982D01*
X93152348Y-47806356D01*
X93149507Y-47803602D01*
X93129770Y-47783865D01*
X93126573Y-47781385D01*
X93117551Y-47773680D01*
X93091100Y-47748841D01*
X93085321Y-47743414D01*
X93078375Y-47739595D01*
X93078372Y-47739593D01*
X93067566Y-47733652D01*
X93051047Y-47722801D01*
X93050583Y-47722441D01*
X93035041Y-47710386D01*
X93027772Y-47707241D01*
X93027768Y-47707238D01*
X92994463Y-47692826D01*
X92983813Y-47687609D01*
X92945060Y-47666305D01*
X92925437Y-47661267D01*
X92906734Y-47654863D01*
X92895420Y-47649967D01*
X92895419Y-47649967D01*
X92888145Y-47646819D01*
X92880322Y-47645580D01*
X92880312Y-47645577D01*
X92844476Y-47639901D01*
X92832856Y-47637495D01*
X92797711Y-47628472D01*
X92797710Y-47628472D01*
X92790030Y-47626500D01*
X92769776Y-47626500D01*
X92750065Y-47624949D01*
X92737886Y-47623020D01*
X92730057Y-47621780D01*
X92722165Y-47622526D01*
X92686039Y-47625941D01*
X92674181Y-47626500D01*
X70164595Y-47626500D01*
X70096474Y-47606498D01*
X70075500Y-47589595D01*
X69250405Y-46764500D01*
X69216379Y-46702188D01*
X69213500Y-46675405D01*
X69213500Y-37728134D01*
X128181500Y-37728134D01*
X128188255Y-37790316D01*
X128239385Y-37926705D01*
X128326739Y-38043261D01*
X128443295Y-38130615D01*
X128579684Y-38181745D01*
X128641866Y-38188500D01*
X130438134Y-38188500D01*
X130500316Y-38181745D01*
X130636705Y-38130615D01*
X130753261Y-38043261D01*
X130840615Y-37926705D01*
X130891745Y-37790316D01*
X130898500Y-37728134D01*
X130898500Y-35931866D01*
X130891745Y-35869684D01*
X130840615Y-35733295D01*
X130753261Y-35616739D01*
X130636705Y-35529385D01*
X130517687Y-35484767D01*
X130460923Y-35442125D01*
X130436223Y-35375564D01*
X130451430Y-35306215D01*
X130472977Y-35277535D01*
X130574052Y-35176812D01*
X130580730Y-35168965D01*
X130705003Y-34996020D01*
X130710313Y-34987183D01*
X130804670Y-34796267D01*
X130808469Y-34786672D01*
X130870377Y-34582910D01*
X130872555Y-34572837D01*
X130873986Y-34561962D01*
X130871775Y-34547778D01*
X130858617Y-34544000D01*
X128223225Y-34544000D01*
X128209694Y-34547973D01*
X128208257Y-34557966D01*
X128238565Y-34692446D01*
X128241645Y-34702275D01*
X128321770Y-34899603D01*
X128326413Y-34908794D01*
X128437694Y-35090388D01*
X128443777Y-35098699D01*
X128583213Y-35259667D01*
X128590577Y-35266879D01*
X128595522Y-35270985D01*
X128635156Y-35329889D01*
X128636653Y-35400870D01*
X128599537Y-35461392D01*
X128559264Y-35485910D01*
X128451705Y-35526232D01*
X128451704Y-35526233D01*
X128443295Y-35529385D01*
X128326739Y-35616739D01*
X128239385Y-35733295D01*
X128188255Y-35869684D01*
X128181500Y-35931866D01*
X128181500Y-37728134D01*
X69213500Y-37728134D01*
X69213500Y-34024183D01*
X128204389Y-34024183D01*
X128205912Y-34032607D01*
X128218292Y-34036000D01*
X129267885Y-34036000D01*
X129283124Y-34031525D01*
X129284329Y-34030135D01*
X129286000Y-34022452D01*
X129286000Y-34017885D01*
X129794000Y-34017885D01*
X129798475Y-34033124D01*
X129799865Y-34034329D01*
X129807548Y-34036000D01*
X130858344Y-34036000D01*
X130871875Y-34032027D01*
X130873180Y-34022947D01*
X130831214Y-33855875D01*
X130827894Y-33846124D01*
X130742972Y-33650814D01*
X130738105Y-33641739D01*
X130622426Y-33462926D01*
X130616136Y-33454757D01*
X130472806Y-33297240D01*
X130465273Y-33290215D01*
X130298139Y-33158222D01*
X130289552Y-33152517D01*
X130103117Y-33049599D01*
X130093705Y-33045369D01*
X129892959Y-32974280D01*
X129882988Y-32971646D01*
X129811837Y-32958972D01*
X129798540Y-32960432D01*
X129794000Y-32974989D01*
X129794000Y-34017885D01*
X129286000Y-34017885D01*
X129286000Y-32973102D01*
X129282082Y-32959758D01*
X129267806Y-32957771D01*
X129229324Y-32963660D01*
X129219288Y-32966051D01*
X129016868Y-33032212D01*
X129007359Y-33036209D01*
X128818463Y-33134542D01*
X128809738Y-33140036D01*
X128639433Y-33267905D01*
X128631726Y-33274748D01*
X128484590Y-33428717D01*
X128478104Y-33436727D01*
X128358098Y-33612649D01*
X128353000Y-33621623D01*
X128263338Y-33814783D01*
X128259775Y-33824470D01*
X128204389Y-34024183D01*
X69213500Y-34024183D01*
X69213500Y-31760427D01*
X69233502Y-31692306D01*
X69274618Y-31652550D01*
X69277994Y-31650896D01*
X69459860Y-31521173D01*
X69618096Y-31363489D01*
X69677594Y-31280689D01*
X69748453Y-31182077D01*
X69749640Y-31182930D01*
X69796960Y-31139362D01*
X69866897Y-31127145D01*
X69932338Y-31154678D01*
X69960166Y-31186511D01*
X70017694Y-31280388D01*
X70023777Y-31288699D01*
X70163213Y-31449667D01*
X70170580Y-31456883D01*
X70334434Y-31592916D01*
X70342881Y-31598831D01*
X70526756Y-31706279D01*
X70536042Y-31710729D01*
X70735001Y-31786703D01*
X70744899Y-31789579D01*
X70848250Y-31810606D01*
X70862299Y-31809410D01*
X70866000Y-31799065D01*
X70866000Y-31798517D01*
X71374000Y-31798517D01*
X71378064Y-31812359D01*
X71391478Y-31814393D01*
X71398184Y-31813534D01*
X71408262Y-31811392D01*
X71612255Y-31750191D01*
X71621842Y-31746433D01*
X71813095Y-31652739D01*
X71821945Y-31647464D01*
X71995328Y-31523792D01*
X72003193Y-31517145D01*
X72107897Y-31412805D01*
X72170268Y-31378889D01*
X72241075Y-31384077D01*
X72297837Y-31426723D01*
X72314819Y-31457826D01*
X72359385Y-31576705D01*
X72446739Y-31693261D01*
X72563295Y-31780615D01*
X72699684Y-31831745D01*
X72761866Y-31838500D01*
X74558134Y-31838500D01*
X74620316Y-31831745D01*
X74756705Y-31780615D01*
X74873261Y-31693261D01*
X74960615Y-31576705D01*
X75011745Y-31440316D01*
X75018500Y-31378134D01*
X75018500Y-30446695D01*
X82457251Y-30446695D01*
X82470110Y-30669715D01*
X82471247Y-30674761D01*
X82471248Y-30674767D01*
X82492275Y-30768069D01*
X82519222Y-30887639D01*
X82603266Y-31094616D01*
X82654942Y-31178944D01*
X82717291Y-31280688D01*
X82719987Y-31285088D01*
X82866250Y-31453938D01*
X83038126Y-31596632D01*
X83231000Y-31709338D01*
X83439692Y-31789030D01*
X83444760Y-31790061D01*
X83444763Y-31790062D01*
X83539862Y-31809410D01*
X83658597Y-31833567D01*
X83663772Y-31833757D01*
X83663774Y-31833757D01*
X83876673Y-31841564D01*
X83876677Y-31841564D01*
X83881837Y-31841753D01*
X83886957Y-31841097D01*
X83886959Y-31841097D01*
X84098288Y-31814025D01*
X84098289Y-31814025D01*
X84103416Y-31813368D01*
X84108366Y-31811883D01*
X84312429Y-31750661D01*
X84312434Y-31750659D01*
X84317384Y-31749174D01*
X84517994Y-31650896D01*
X84699860Y-31521173D01*
X84858096Y-31363489D01*
X84917594Y-31280689D01*
X84988453Y-31182077D01*
X84989776Y-31183028D01*
X85036645Y-31139857D01*
X85106580Y-31127625D01*
X85172026Y-31155144D01*
X85199875Y-31186994D01*
X85259987Y-31285088D01*
X85406250Y-31453938D01*
X85578126Y-31596632D01*
X85771000Y-31709338D01*
X85979692Y-31789030D01*
X85984760Y-31790061D01*
X85984763Y-31790062D01*
X86079862Y-31809410D01*
X86198597Y-31833567D01*
X86203772Y-31833757D01*
X86203774Y-31833757D01*
X86416673Y-31841564D01*
X86416677Y-31841564D01*
X86421837Y-31841753D01*
X86426957Y-31841097D01*
X86426959Y-31841097D01*
X86638288Y-31814025D01*
X86638289Y-31814025D01*
X86643416Y-31813368D01*
X86648366Y-31811883D01*
X86852429Y-31750661D01*
X86852434Y-31750659D01*
X86857384Y-31749174D01*
X87057994Y-31650896D01*
X87239860Y-31521173D01*
X87398096Y-31363489D01*
X87457594Y-31280689D01*
X87528453Y-31182077D01*
X87529776Y-31183028D01*
X87576645Y-31139857D01*
X87646580Y-31127625D01*
X87712026Y-31155144D01*
X87739875Y-31186994D01*
X87799987Y-31285088D01*
X87946250Y-31453938D01*
X88118126Y-31596632D01*
X88311000Y-31709338D01*
X88519692Y-31789030D01*
X88524760Y-31790061D01*
X88524763Y-31790062D01*
X88619862Y-31809410D01*
X88738597Y-31833567D01*
X88743772Y-31833757D01*
X88743774Y-31833757D01*
X88956673Y-31841564D01*
X88956677Y-31841564D01*
X88961837Y-31841753D01*
X88966957Y-31841097D01*
X88966959Y-31841097D01*
X89178288Y-31814025D01*
X89178289Y-31814025D01*
X89183416Y-31813368D01*
X89188366Y-31811883D01*
X89392429Y-31750661D01*
X89392434Y-31750659D01*
X89397384Y-31749174D01*
X89597994Y-31650896D01*
X89779860Y-31521173D01*
X89938096Y-31363489D01*
X89997594Y-31280689D01*
X90068453Y-31182077D01*
X90069776Y-31183028D01*
X90116645Y-31139857D01*
X90186580Y-31127625D01*
X90252026Y-31155144D01*
X90279875Y-31186994D01*
X90339987Y-31285088D01*
X90486250Y-31453938D01*
X90658126Y-31596632D01*
X90851000Y-31709338D01*
X91059692Y-31789030D01*
X91064760Y-31790061D01*
X91064763Y-31790062D01*
X91159862Y-31809410D01*
X91278597Y-31833567D01*
X91283772Y-31833757D01*
X91283774Y-31833757D01*
X91496673Y-31841564D01*
X91496677Y-31841564D01*
X91501837Y-31841753D01*
X91506957Y-31841097D01*
X91506959Y-31841097D01*
X91718288Y-31814025D01*
X91718289Y-31814025D01*
X91723416Y-31813368D01*
X91728366Y-31811883D01*
X91932429Y-31750661D01*
X91932434Y-31750659D01*
X91937384Y-31749174D01*
X92137994Y-31650896D01*
X92319860Y-31521173D01*
X92478096Y-31363489D01*
X92537594Y-31280689D01*
X92608453Y-31182077D01*
X92609640Y-31182930D01*
X92656960Y-31139362D01*
X92726897Y-31127145D01*
X92792338Y-31154678D01*
X92820166Y-31186511D01*
X92877694Y-31280388D01*
X92883777Y-31288699D01*
X93023213Y-31449667D01*
X93030580Y-31456883D01*
X93194434Y-31592916D01*
X93202881Y-31598831D01*
X93386756Y-31706279D01*
X93396042Y-31710729D01*
X93595001Y-31786703D01*
X93604899Y-31789579D01*
X93708250Y-31810606D01*
X93722299Y-31809410D01*
X93726000Y-31799065D01*
X93726000Y-31798517D01*
X94234000Y-31798517D01*
X94238064Y-31812359D01*
X94251478Y-31814393D01*
X94258184Y-31813534D01*
X94268262Y-31811392D01*
X94472255Y-31750191D01*
X94481842Y-31746433D01*
X94673095Y-31652739D01*
X94681945Y-31647464D01*
X94855328Y-31523792D01*
X94863193Y-31517145D01*
X94967897Y-31412805D01*
X95030268Y-31378889D01*
X95101075Y-31384077D01*
X95157837Y-31426723D01*
X95174819Y-31457826D01*
X95219385Y-31576705D01*
X95306739Y-31693261D01*
X95423295Y-31780615D01*
X95559684Y-31831745D01*
X95621866Y-31838500D01*
X97418134Y-31838500D01*
X97480316Y-31831745D01*
X97616705Y-31780615D01*
X97733261Y-31693261D01*
X97820615Y-31576705D01*
X97871745Y-31440316D01*
X97878500Y-31378134D01*
X97878500Y-30446695D01*
X105317251Y-30446695D01*
X105330110Y-30669715D01*
X105331247Y-30674761D01*
X105331248Y-30674767D01*
X105352275Y-30768069D01*
X105379222Y-30887639D01*
X105463266Y-31094616D01*
X105514942Y-31178944D01*
X105577291Y-31280688D01*
X105579987Y-31285088D01*
X105726250Y-31453938D01*
X105898126Y-31596632D01*
X106091000Y-31709338D01*
X106299692Y-31789030D01*
X106304760Y-31790061D01*
X106304763Y-31790062D01*
X106399862Y-31809410D01*
X106518597Y-31833567D01*
X106523772Y-31833757D01*
X106523774Y-31833757D01*
X106736673Y-31841564D01*
X106736677Y-31841564D01*
X106741837Y-31841753D01*
X106746957Y-31841097D01*
X106746959Y-31841097D01*
X106958288Y-31814025D01*
X106958289Y-31814025D01*
X106963416Y-31813368D01*
X106968366Y-31811883D01*
X107172429Y-31750661D01*
X107172434Y-31750659D01*
X107177384Y-31749174D01*
X107377994Y-31650896D01*
X107559860Y-31521173D01*
X107718096Y-31363489D01*
X107777594Y-31280689D01*
X107848453Y-31182077D01*
X107849776Y-31183028D01*
X107896645Y-31139857D01*
X107966580Y-31127625D01*
X108032026Y-31155144D01*
X108059875Y-31186994D01*
X108119987Y-31285088D01*
X108266250Y-31453938D01*
X108438126Y-31596632D01*
X108631000Y-31709338D01*
X108839692Y-31789030D01*
X108844760Y-31790061D01*
X108844763Y-31790062D01*
X108939862Y-31809410D01*
X109058597Y-31833567D01*
X109063772Y-31833757D01*
X109063774Y-31833757D01*
X109276673Y-31841564D01*
X109276677Y-31841564D01*
X109281837Y-31841753D01*
X109286957Y-31841097D01*
X109286959Y-31841097D01*
X109498288Y-31814025D01*
X109498289Y-31814025D01*
X109503416Y-31813368D01*
X109508366Y-31811883D01*
X109712429Y-31750661D01*
X109712434Y-31750659D01*
X109717384Y-31749174D01*
X109917994Y-31650896D01*
X110099860Y-31521173D01*
X110258096Y-31363489D01*
X110317594Y-31280689D01*
X110388453Y-31182077D01*
X110389776Y-31183028D01*
X110436645Y-31139857D01*
X110506580Y-31127625D01*
X110572026Y-31155144D01*
X110599875Y-31186994D01*
X110659987Y-31285088D01*
X110806250Y-31453938D01*
X110978126Y-31596632D01*
X111171000Y-31709338D01*
X111379692Y-31789030D01*
X111384760Y-31790061D01*
X111384763Y-31790062D01*
X111479862Y-31809410D01*
X111598597Y-31833567D01*
X111603772Y-31833757D01*
X111603774Y-31833757D01*
X111816673Y-31841564D01*
X111816677Y-31841564D01*
X111821837Y-31841753D01*
X111826957Y-31841097D01*
X111826959Y-31841097D01*
X112038288Y-31814025D01*
X112038289Y-31814025D01*
X112043416Y-31813368D01*
X112048366Y-31811883D01*
X112252429Y-31750661D01*
X112252434Y-31750659D01*
X112257384Y-31749174D01*
X112457994Y-31650896D01*
X112639860Y-31521173D01*
X112798096Y-31363489D01*
X112857594Y-31280689D01*
X112928453Y-31182077D01*
X112929776Y-31183028D01*
X112976645Y-31139857D01*
X113046580Y-31127625D01*
X113112026Y-31155144D01*
X113139875Y-31186994D01*
X113199987Y-31285088D01*
X113346250Y-31453938D01*
X113518126Y-31596632D01*
X113711000Y-31709338D01*
X113919692Y-31789030D01*
X113924760Y-31790061D01*
X113924763Y-31790062D01*
X114019862Y-31809410D01*
X114138597Y-31833567D01*
X114143772Y-31833757D01*
X114143774Y-31833757D01*
X114356673Y-31841564D01*
X114356677Y-31841564D01*
X114361837Y-31841753D01*
X114366957Y-31841097D01*
X114366959Y-31841097D01*
X114578288Y-31814025D01*
X114578289Y-31814025D01*
X114583416Y-31813368D01*
X114588366Y-31811883D01*
X114792429Y-31750661D01*
X114792434Y-31750659D01*
X114797384Y-31749174D01*
X114997994Y-31650896D01*
X115179860Y-31521173D01*
X115338096Y-31363489D01*
X115397594Y-31280689D01*
X115468453Y-31182077D01*
X115469640Y-31182930D01*
X115516960Y-31139362D01*
X115586897Y-31127145D01*
X115652338Y-31154678D01*
X115680166Y-31186511D01*
X115737694Y-31280388D01*
X115743777Y-31288699D01*
X115883213Y-31449667D01*
X115890580Y-31456883D01*
X116054434Y-31592916D01*
X116062881Y-31598831D01*
X116246756Y-31706279D01*
X116256042Y-31710729D01*
X116455001Y-31786703D01*
X116464899Y-31789579D01*
X116568250Y-31810606D01*
X116582299Y-31809410D01*
X116586000Y-31799065D01*
X116586000Y-31798517D01*
X117094000Y-31798517D01*
X117098064Y-31812359D01*
X117111478Y-31814393D01*
X117118184Y-31813534D01*
X117128262Y-31811392D01*
X117332255Y-31750191D01*
X117341842Y-31746433D01*
X117533095Y-31652739D01*
X117541945Y-31647464D01*
X117715328Y-31523792D01*
X117723193Y-31517145D01*
X117827897Y-31412805D01*
X117890268Y-31378889D01*
X117961075Y-31384077D01*
X118017837Y-31426723D01*
X118034819Y-31457826D01*
X118079385Y-31576705D01*
X118166739Y-31693261D01*
X118283295Y-31780615D01*
X118419684Y-31831745D01*
X118481866Y-31838500D01*
X120278134Y-31838500D01*
X120340316Y-31831745D01*
X120476705Y-31780615D01*
X120593261Y-31693261D01*
X120680615Y-31576705D01*
X120731745Y-31440316D01*
X120738500Y-31378134D01*
X120738500Y-29581866D01*
X120731745Y-29519684D01*
X120680615Y-29383295D01*
X120593261Y-29266739D01*
X120476705Y-29179385D01*
X120401362Y-29151140D01*
X120358203Y-29134960D01*
X120301439Y-29092318D01*
X120276739Y-29025756D01*
X120291947Y-28956408D01*
X120313493Y-28927727D01*
X120414435Y-28827137D01*
X120418096Y-28823489D01*
X120477594Y-28740689D01*
X120545435Y-28646277D01*
X120548453Y-28642077D01*
X120561995Y-28614678D01*
X120645136Y-28446453D01*
X120645137Y-28446451D01*
X120647430Y-28441811D01*
X120712370Y-28228069D01*
X120741529Y-28006590D01*
X120743156Y-27940000D01*
X120724852Y-27717361D01*
X120670431Y-27500702D01*
X120581354Y-27295840D01*
X120460014Y-27108277D01*
X120309670Y-26943051D01*
X120305619Y-26939852D01*
X120305615Y-26939848D01*
X120138414Y-26807800D01*
X120138410Y-26807798D01*
X120134359Y-26804598D01*
X120098028Y-26784542D01*
X120082136Y-26775769D01*
X119938789Y-26696638D01*
X119933920Y-26694914D01*
X119933916Y-26694912D01*
X119733087Y-26623795D01*
X119733083Y-26623794D01*
X119728212Y-26622069D01*
X119723119Y-26621162D01*
X119723116Y-26621161D01*
X119513373Y-26583800D01*
X119513367Y-26583799D01*
X119508284Y-26582894D01*
X119434452Y-26581992D01*
X119290081Y-26580228D01*
X119290079Y-26580228D01*
X119284911Y-26580165D01*
X119064091Y-26613955D01*
X118851756Y-26683357D01*
X118653607Y-26786507D01*
X118649474Y-26789610D01*
X118649471Y-26789612D01*
X118625247Y-26807800D01*
X118474965Y-26920635D01*
X118320629Y-27082138D01*
X118213204Y-27239618D01*
X118212898Y-27240066D01*
X118157987Y-27285069D01*
X118087462Y-27293240D01*
X118023715Y-27261986D01*
X118003018Y-27237502D01*
X117922426Y-27112926D01*
X117916136Y-27104757D01*
X117772806Y-26947240D01*
X117765273Y-26940215D01*
X117598139Y-26808222D01*
X117589552Y-26802517D01*
X117403117Y-26699599D01*
X117393705Y-26695369D01*
X117192959Y-26624280D01*
X117182988Y-26621646D01*
X117111837Y-26608972D01*
X117098540Y-26610432D01*
X117094000Y-26624989D01*
X117094000Y-31798517D01*
X116586000Y-31798517D01*
X116586000Y-26623102D01*
X116582082Y-26609758D01*
X116567806Y-26607771D01*
X116529324Y-26613660D01*
X116519288Y-26616051D01*
X116316868Y-26682212D01*
X116307359Y-26686209D01*
X116118463Y-26784542D01*
X116109738Y-26790036D01*
X115939433Y-26917905D01*
X115931726Y-26924748D01*
X115784590Y-27078717D01*
X115778109Y-27086722D01*
X115673498Y-27240074D01*
X115618587Y-27285076D01*
X115548062Y-27293247D01*
X115484315Y-27261993D01*
X115463618Y-27237509D01*
X115382822Y-27112617D01*
X115382820Y-27112614D01*
X115380014Y-27108277D01*
X115229670Y-26943051D01*
X115225619Y-26939852D01*
X115225615Y-26939848D01*
X115058414Y-26807800D01*
X115058410Y-26807798D01*
X115054359Y-26804598D01*
X115018028Y-26784542D01*
X115002136Y-26775769D01*
X114858789Y-26696638D01*
X114853920Y-26694914D01*
X114853916Y-26694912D01*
X114653087Y-26623795D01*
X114653083Y-26623794D01*
X114648212Y-26622069D01*
X114643119Y-26621162D01*
X114643116Y-26621161D01*
X114433373Y-26583800D01*
X114433367Y-26583799D01*
X114428284Y-26582894D01*
X114354452Y-26581992D01*
X114210081Y-26580228D01*
X114210079Y-26580228D01*
X114204911Y-26580165D01*
X113984091Y-26613955D01*
X113771756Y-26683357D01*
X113573607Y-26786507D01*
X113569474Y-26789610D01*
X113569471Y-26789612D01*
X113545247Y-26807800D01*
X113394965Y-26920635D01*
X113240629Y-27082138D01*
X113133201Y-27239621D01*
X113078293Y-27284621D01*
X113007768Y-27292792D01*
X112944021Y-27261538D01*
X112923324Y-27237054D01*
X112842822Y-27112617D01*
X112842820Y-27112614D01*
X112840014Y-27108277D01*
X112689670Y-26943051D01*
X112685619Y-26939852D01*
X112685615Y-26939848D01*
X112518414Y-26807800D01*
X112518410Y-26807798D01*
X112514359Y-26804598D01*
X112478028Y-26784542D01*
X112462136Y-26775769D01*
X112318789Y-26696638D01*
X112313920Y-26694914D01*
X112313916Y-26694912D01*
X112113087Y-26623795D01*
X112113083Y-26623794D01*
X112108212Y-26622069D01*
X112103119Y-26621162D01*
X112103116Y-26621161D01*
X111893373Y-26583800D01*
X111893367Y-26583799D01*
X111888284Y-26582894D01*
X111814452Y-26581992D01*
X111670081Y-26580228D01*
X111670079Y-26580228D01*
X111664911Y-26580165D01*
X111444091Y-26613955D01*
X111231756Y-26683357D01*
X111033607Y-26786507D01*
X111029474Y-26789610D01*
X111029471Y-26789612D01*
X111005247Y-26807800D01*
X110854965Y-26920635D01*
X110700629Y-27082138D01*
X110593201Y-27239621D01*
X110538293Y-27284621D01*
X110467768Y-27292792D01*
X110404021Y-27261538D01*
X110383324Y-27237054D01*
X110302822Y-27112617D01*
X110302820Y-27112614D01*
X110300014Y-27108277D01*
X110149670Y-26943051D01*
X110145619Y-26939852D01*
X110145615Y-26939848D01*
X109978414Y-26807800D01*
X109978410Y-26807798D01*
X109974359Y-26804598D01*
X109938028Y-26784542D01*
X109922136Y-26775769D01*
X109778789Y-26696638D01*
X109773920Y-26694914D01*
X109773916Y-26694912D01*
X109573087Y-26623795D01*
X109573083Y-26623794D01*
X109568212Y-26622069D01*
X109563119Y-26621162D01*
X109563116Y-26621161D01*
X109353373Y-26583800D01*
X109353367Y-26583799D01*
X109348284Y-26582894D01*
X109274452Y-26581992D01*
X109130081Y-26580228D01*
X109130079Y-26580228D01*
X109124911Y-26580165D01*
X108904091Y-26613955D01*
X108691756Y-26683357D01*
X108493607Y-26786507D01*
X108489474Y-26789610D01*
X108489471Y-26789612D01*
X108465247Y-26807800D01*
X108314965Y-26920635D01*
X108160629Y-27082138D01*
X108053201Y-27239621D01*
X107998293Y-27284621D01*
X107927768Y-27292792D01*
X107864021Y-27261538D01*
X107843324Y-27237054D01*
X107762822Y-27112617D01*
X107762820Y-27112614D01*
X107760014Y-27108277D01*
X107609670Y-26943051D01*
X107605619Y-26939852D01*
X107605615Y-26939848D01*
X107438414Y-26807800D01*
X107438410Y-26807798D01*
X107434359Y-26804598D01*
X107398028Y-26784542D01*
X107382136Y-26775769D01*
X107238789Y-26696638D01*
X107233920Y-26694914D01*
X107233916Y-26694912D01*
X107033087Y-26623795D01*
X107033083Y-26623794D01*
X107028212Y-26622069D01*
X107023119Y-26621162D01*
X107023116Y-26621161D01*
X106813373Y-26583800D01*
X106813367Y-26583799D01*
X106808284Y-26582894D01*
X106734452Y-26581992D01*
X106590081Y-26580228D01*
X106590079Y-26580228D01*
X106584911Y-26580165D01*
X106364091Y-26613955D01*
X106151756Y-26683357D01*
X105953607Y-26786507D01*
X105949474Y-26789610D01*
X105949471Y-26789612D01*
X105925247Y-26807800D01*
X105774965Y-26920635D01*
X105620629Y-27082138D01*
X105494743Y-27266680D01*
X105400688Y-27469305D01*
X105340989Y-27684570D01*
X105317251Y-27906695D01*
X105317548Y-27911848D01*
X105317548Y-27911851D01*
X105323011Y-28006590D01*
X105330110Y-28129715D01*
X105331247Y-28134761D01*
X105331248Y-28134767D01*
X105351119Y-28222939D01*
X105379222Y-28347639D01*
X105463266Y-28554616D01*
X105514019Y-28637438D01*
X105577291Y-28740688D01*
X105579987Y-28745088D01*
X105726250Y-28913938D01*
X105898126Y-29056632D01*
X105959196Y-29092318D01*
X105971445Y-29099476D01*
X106020169Y-29151114D01*
X106033240Y-29220897D01*
X106006509Y-29286669D01*
X105966055Y-29320027D01*
X105953607Y-29326507D01*
X105949474Y-29329610D01*
X105949471Y-29329612D01*
X105866771Y-29391705D01*
X105774965Y-29460635D01*
X105620629Y-29622138D01*
X105494743Y-29806680D01*
X105400688Y-30009305D01*
X105340989Y-30224570D01*
X105317251Y-30446695D01*
X97878500Y-30446695D01*
X97878500Y-29581866D01*
X97871745Y-29519684D01*
X97820615Y-29383295D01*
X97733261Y-29266739D01*
X97616705Y-29179385D01*
X97541362Y-29151140D01*
X97498203Y-29134960D01*
X97441439Y-29092318D01*
X97416739Y-29025756D01*
X97431947Y-28956408D01*
X97453493Y-28927727D01*
X97554435Y-28827137D01*
X97558096Y-28823489D01*
X97617594Y-28740689D01*
X97685435Y-28646277D01*
X97688453Y-28642077D01*
X97701995Y-28614678D01*
X97785136Y-28446453D01*
X97785137Y-28446451D01*
X97787430Y-28441811D01*
X97852370Y-28228069D01*
X97881529Y-28006590D01*
X97883156Y-27940000D01*
X97864852Y-27717361D01*
X97810431Y-27500702D01*
X97721354Y-27295840D01*
X97600014Y-27108277D01*
X97449670Y-26943051D01*
X97445619Y-26939852D01*
X97445615Y-26939848D01*
X97278414Y-26807800D01*
X97278410Y-26807798D01*
X97274359Y-26804598D01*
X97238028Y-26784542D01*
X97222136Y-26775769D01*
X97078789Y-26696638D01*
X97073920Y-26694914D01*
X97073916Y-26694912D01*
X96873087Y-26623795D01*
X96873083Y-26623794D01*
X96868212Y-26622069D01*
X96863119Y-26621162D01*
X96863116Y-26621161D01*
X96653373Y-26583800D01*
X96653367Y-26583799D01*
X96648284Y-26582894D01*
X96574452Y-26581992D01*
X96430081Y-26580228D01*
X96430079Y-26580228D01*
X96424911Y-26580165D01*
X96204091Y-26613955D01*
X95991756Y-26683357D01*
X95793607Y-26786507D01*
X95789474Y-26789610D01*
X95789471Y-26789612D01*
X95765247Y-26807800D01*
X95614965Y-26920635D01*
X95460629Y-27082138D01*
X95353204Y-27239618D01*
X95352898Y-27240066D01*
X95297987Y-27285069D01*
X95227462Y-27293240D01*
X95163715Y-27261986D01*
X95143018Y-27237502D01*
X95062426Y-27112926D01*
X95056136Y-27104757D01*
X94912806Y-26947240D01*
X94905273Y-26940215D01*
X94738139Y-26808222D01*
X94729552Y-26802517D01*
X94543117Y-26699599D01*
X94533705Y-26695369D01*
X94332959Y-26624280D01*
X94322988Y-26621646D01*
X94251837Y-26608972D01*
X94238540Y-26610432D01*
X94234000Y-26624989D01*
X94234000Y-31798517D01*
X93726000Y-31798517D01*
X93726000Y-26623102D01*
X93722082Y-26609758D01*
X93707806Y-26607771D01*
X93669324Y-26613660D01*
X93659288Y-26616051D01*
X93456868Y-26682212D01*
X93447359Y-26686209D01*
X93258463Y-26784542D01*
X93249738Y-26790036D01*
X93079433Y-26917905D01*
X93071726Y-26924748D01*
X92924590Y-27078717D01*
X92918109Y-27086722D01*
X92813498Y-27240074D01*
X92758587Y-27285076D01*
X92688062Y-27293247D01*
X92624315Y-27261993D01*
X92603618Y-27237509D01*
X92522822Y-27112617D01*
X92522820Y-27112614D01*
X92520014Y-27108277D01*
X92369670Y-26943051D01*
X92365619Y-26939852D01*
X92365615Y-26939848D01*
X92198414Y-26807800D01*
X92198410Y-26807798D01*
X92194359Y-26804598D01*
X92158028Y-26784542D01*
X92142136Y-26775769D01*
X91998789Y-26696638D01*
X91993920Y-26694914D01*
X91993916Y-26694912D01*
X91793087Y-26623795D01*
X91793083Y-26623794D01*
X91788212Y-26622069D01*
X91783119Y-26621162D01*
X91783116Y-26621161D01*
X91573373Y-26583800D01*
X91573367Y-26583799D01*
X91568284Y-26582894D01*
X91494452Y-26581992D01*
X91350081Y-26580228D01*
X91350079Y-26580228D01*
X91344911Y-26580165D01*
X91124091Y-26613955D01*
X90911756Y-26683357D01*
X90713607Y-26786507D01*
X90709474Y-26789610D01*
X90709471Y-26789612D01*
X90685247Y-26807800D01*
X90534965Y-26920635D01*
X90380629Y-27082138D01*
X90273201Y-27239621D01*
X90218293Y-27284621D01*
X90147768Y-27292792D01*
X90084021Y-27261538D01*
X90063324Y-27237054D01*
X89982822Y-27112617D01*
X89982820Y-27112614D01*
X89980014Y-27108277D01*
X89829670Y-26943051D01*
X89825619Y-26939852D01*
X89825615Y-26939848D01*
X89658414Y-26807800D01*
X89658410Y-26807798D01*
X89654359Y-26804598D01*
X89618028Y-26784542D01*
X89602136Y-26775769D01*
X89458789Y-26696638D01*
X89453920Y-26694914D01*
X89453916Y-26694912D01*
X89253087Y-26623795D01*
X89253083Y-26623794D01*
X89248212Y-26622069D01*
X89243119Y-26621162D01*
X89243116Y-26621161D01*
X89033373Y-26583800D01*
X89033367Y-26583799D01*
X89028284Y-26582894D01*
X88954452Y-26581992D01*
X88810081Y-26580228D01*
X88810079Y-26580228D01*
X88804911Y-26580165D01*
X88584091Y-26613955D01*
X88371756Y-26683357D01*
X88173607Y-26786507D01*
X88169474Y-26789610D01*
X88169471Y-26789612D01*
X88145247Y-26807800D01*
X87994965Y-26920635D01*
X87840629Y-27082138D01*
X87733201Y-27239621D01*
X87678293Y-27284621D01*
X87607768Y-27292792D01*
X87544021Y-27261538D01*
X87523324Y-27237054D01*
X87442822Y-27112617D01*
X87442820Y-27112614D01*
X87440014Y-27108277D01*
X87289670Y-26943051D01*
X87285619Y-26939852D01*
X87285615Y-26939848D01*
X87118414Y-26807800D01*
X87118410Y-26807798D01*
X87114359Y-26804598D01*
X87078028Y-26784542D01*
X87062136Y-26775769D01*
X86918789Y-26696638D01*
X86913920Y-26694914D01*
X86913916Y-26694912D01*
X86713087Y-26623795D01*
X86713083Y-26623794D01*
X86708212Y-26622069D01*
X86703119Y-26621162D01*
X86703116Y-26621161D01*
X86493373Y-26583800D01*
X86493367Y-26583799D01*
X86488284Y-26582894D01*
X86414452Y-26581992D01*
X86270081Y-26580228D01*
X86270079Y-26580228D01*
X86264911Y-26580165D01*
X86044091Y-26613955D01*
X85831756Y-26683357D01*
X85633607Y-26786507D01*
X85629474Y-26789610D01*
X85629471Y-26789612D01*
X85605247Y-26807800D01*
X85454965Y-26920635D01*
X85300629Y-27082138D01*
X85193201Y-27239621D01*
X85138293Y-27284621D01*
X85067768Y-27292792D01*
X85004021Y-27261538D01*
X84983324Y-27237054D01*
X84902822Y-27112617D01*
X84902820Y-27112614D01*
X84900014Y-27108277D01*
X84749670Y-26943051D01*
X84745619Y-26939852D01*
X84745615Y-26939848D01*
X84578414Y-26807800D01*
X84578410Y-26807798D01*
X84574359Y-26804598D01*
X84538028Y-26784542D01*
X84522136Y-26775769D01*
X84378789Y-26696638D01*
X84373920Y-26694914D01*
X84373916Y-26694912D01*
X84173087Y-26623795D01*
X84173083Y-26623794D01*
X84168212Y-26622069D01*
X84163119Y-26621162D01*
X84163116Y-26621161D01*
X83953373Y-26583800D01*
X83953367Y-26583799D01*
X83948284Y-26582894D01*
X83874452Y-26581992D01*
X83730081Y-26580228D01*
X83730079Y-26580228D01*
X83724911Y-26580165D01*
X83504091Y-26613955D01*
X83291756Y-26683357D01*
X83093607Y-26786507D01*
X83089474Y-26789610D01*
X83089471Y-26789612D01*
X83065247Y-26807800D01*
X82914965Y-26920635D01*
X82760629Y-27082138D01*
X82634743Y-27266680D01*
X82540688Y-27469305D01*
X82480989Y-27684570D01*
X82457251Y-27906695D01*
X82457548Y-27911848D01*
X82457548Y-27911851D01*
X82463011Y-28006590D01*
X82470110Y-28129715D01*
X82471247Y-28134761D01*
X82471248Y-28134767D01*
X82491119Y-28222939D01*
X82519222Y-28347639D01*
X82603266Y-28554616D01*
X82654019Y-28637438D01*
X82717291Y-28740688D01*
X82719987Y-28745088D01*
X82866250Y-28913938D01*
X83038126Y-29056632D01*
X83099196Y-29092318D01*
X83111445Y-29099476D01*
X83160169Y-29151114D01*
X83173240Y-29220897D01*
X83146509Y-29286669D01*
X83106055Y-29320027D01*
X83093607Y-29326507D01*
X83089474Y-29329610D01*
X83089471Y-29329612D01*
X83006771Y-29391705D01*
X82914965Y-29460635D01*
X82760629Y-29622138D01*
X82634743Y-29806680D01*
X82540688Y-30009305D01*
X82480989Y-30224570D01*
X82457251Y-30446695D01*
X75018500Y-30446695D01*
X75018500Y-29581866D01*
X75011745Y-29519684D01*
X74960615Y-29383295D01*
X74873261Y-29266739D01*
X74756705Y-29179385D01*
X74681362Y-29151140D01*
X74638203Y-29134960D01*
X74581439Y-29092318D01*
X74556739Y-29025756D01*
X74571947Y-28956408D01*
X74593493Y-28927727D01*
X74694435Y-28827137D01*
X74698096Y-28823489D01*
X74757594Y-28740689D01*
X74825435Y-28646277D01*
X74828453Y-28642077D01*
X74841995Y-28614678D01*
X74925136Y-28446453D01*
X74925137Y-28446451D01*
X74927430Y-28441811D01*
X74992370Y-28228069D01*
X75021529Y-28006590D01*
X75023156Y-27940000D01*
X75004852Y-27717361D01*
X74950431Y-27500702D01*
X74861354Y-27295840D01*
X74740014Y-27108277D01*
X74589670Y-26943051D01*
X74585619Y-26939852D01*
X74585615Y-26939848D01*
X74418414Y-26807800D01*
X74418410Y-26807798D01*
X74414359Y-26804598D01*
X74378028Y-26784542D01*
X74362136Y-26775769D01*
X74218789Y-26696638D01*
X74213920Y-26694914D01*
X74213916Y-26694912D01*
X74013087Y-26623795D01*
X74013083Y-26623794D01*
X74008212Y-26622069D01*
X74003119Y-26621162D01*
X74003116Y-26621161D01*
X73793373Y-26583800D01*
X73793367Y-26583799D01*
X73788284Y-26582894D01*
X73714452Y-26581992D01*
X73570081Y-26580228D01*
X73570079Y-26580228D01*
X73564911Y-26580165D01*
X73344091Y-26613955D01*
X73131756Y-26683357D01*
X72933607Y-26786507D01*
X72929474Y-26789610D01*
X72929471Y-26789612D01*
X72905247Y-26807800D01*
X72754965Y-26920635D01*
X72600629Y-27082138D01*
X72493204Y-27239618D01*
X72492898Y-27240066D01*
X72437987Y-27285069D01*
X72367462Y-27293240D01*
X72303715Y-27261986D01*
X72283018Y-27237502D01*
X72202426Y-27112926D01*
X72196136Y-27104757D01*
X72052806Y-26947240D01*
X72045273Y-26940215D01*
X71878139Y-26808222D01*
X71869552Y-26802517D01*
X71683117Y-26699599D01*
X71673705Y-26695369D01*
X71472959Y-26624280D01*
X71462988Y-26621646D01*
X71391837Y-26608972D01*
X71378540Y-26610432D01*
X71374000Y-26624989D01*
X71374000Y-31798517D01*
X70866000Y-31798517D01*
X70866000Y-26623102D01*
X70862082Y-26609758D01*
X70847806Y-26607771D01*
X70809324Y-26613660D01*
X70799288Y-26616051D01*
X70596868Y-26682212D01*
X70587359Y-26686209D01*
X70398463Y-26784542D01*
X70389738Y-26790036D01*
X70219433Y-26917905D01*
X70211726Y-26924748D01*
X70064590Y-27078717D01*
X70058109Y-27086722D01*
X69953498Y-27240074D01*
X69898587Y-27285076D01*
X69828062Y-27293247D01*
X69764315Y-27261993D01*
X69743618Y-27237509D01*
X69662822Y-27112617D01*
X69662820Y-27112614D01*
X69660014Y-27108277D01*
X69509670Y-26943051D01*
X69505619Y-26939852D01*
X69505615Y-26939848D01*
X69338414Y-26807800D01*
X69338410Y-26807798D01*
X69334359Y-26804598D01*
X69298028Y-26784542D01*
X69282136Y-26775769D01*
X69138789Y-26696638D01*
X69133920Y-26694914D01*
X69133916Y-26694912D01*
X68933087Y-26623795D01*
X68933083Y-26623794D01*
X68928212Y-26622069D01*
X68923119Y-26621162D01*
X68923116Y-26621161D01*
X68713373Y-26583800D01*
X68713367Y-26583799D01*
X68708284Y-26582894D01*
X68634452Y-26581992D01*
X68490081Y-26580228D01*
X68490079Y-26580228D01*
X68484911Y-26580165D01*
X68264091Y-26613955D01*
X68051756Y-26683357D01*
X67853607Y-26786507D01*
X67849474Y-26789610D01*
X67849471Y-26789612D01*
X67825247Y-26807800D01*
X67674965Y-26920635D01*
X67520629Y-27082138D01*
X67413201Y-27239621D01*
X67358293Y-27284621D01*
X67287768Y-27292792D01*
X67224021Y-27261538D01*
X67203324Y-27237054D01*
X67122822Y-27112617D01*
X67122820Y-27112614D01*
X67120014Y-27108277D01*
X66969670Y-26943051D01*
X66965619Y-26939852D01*
X66965615Y-26939848D01*
X66798414Y-26807800D01*
X66798410Y-26807798D01*
X66794359Y-26804598D01*
X66758028Y-26784542D01*
X66742136Y-26775769D01*
X66598789Y-26696638D01*
X66593920Y-26694914D01*
X66593916Y-26694912D01*
X66393087Y-26623795D01*
X66393083Y-26623794D01*
X66388212Y-26622069D01*
X66383119Y-26621162D01*
X66383116Y-26621161D01*
X66173373Y-26583800D01*
X66173367Y-26583799D01*
X66168284Y-26582894D01*
X66094452Y-26581992D01*
X65950081Y-26580228D01*
X65950079Y-26580228D01*
X65944911Y-26580165D01*
X65724091Y-26613955D01*
X65511756Y-26683357D01*
X65313607Y-26786507D01*
X65309474Y-26789610D01*
X65309471Y-26789612D01*
X65285247Y-26807800D01*
X65134965Y-26920635D01*
X64980629Y-27082138D01*
X64873201Y-27239621D01*
X64818293Y-27284621D01*
X64747768Y-27292792D01*
X64684021Y-27261538D01*
X64663324Y-27237054D01*
X64582822Y-27112617D01*
X64582820Y-27112614D01*
X64580014Y-27108277D01*
X64429670Y-26943051D01*
X64425619Y-26939852D01*
X64425615Y-26939848D01*
X64258414Y-26807800D01*
X64258410Y-26807798D01*
X64254359Y-26804598D01*
X64218028Y-26784542D01*
X64202136Y-26775769D01*
X64058789Y-26696638D01*
X64053920Y-26694914D01*
X64053916Y-26694912D01*
X63853087Y-26623795D01*
X63853083Y-26623794D01*
X63848212Y-26622069D01*
X63843119Y-26621162D01*
X63843116Y-26621161D01*
X63633373Y-26583800D01*
X63633367Y-26583799D01*
X63628284Y-26582894D01*
X63554452Y-26581992D01*
X63410081Y-26580228D01*
X63410079Y-26580228D01*
X63404911Y-26580165D01*
X63184091Y-26613955D01*
X62971756Y-26683357D01*
X62773607Y-26786507D01*
X62769474Y-26789610D01*
X62769471Y-26789612D01*
X62745247Y-26807800D01*
X62594965Y-26920635D01*
X62440629Y-27082138D01*
X62333201Y-27239621D01*
X62278293Y-27284621D01*
X62207768Y-27292792D01*
X62144021Y-27261538D01*
X62123324Y-27237054D01*
X62042822Y-27112617D01*
X62042820Y-27112614D01*
X62040014Y-27108277D01*
X61889670Y-26943051D01*
X61885619Y-26939852D01*
X61885615Y-26939848D01*
X61718414Y-26807800D01*
X61718410Y-26807798D01*
X61714359Y-26804598D01*
X61678028Y-26784542D01*
X61662136Y-26775769D01*
X61518789Y-26696638D01*
X61513920Y-26694914D01*
X61513916Y-26694912D01*
X61313087Y-26623795D01*
X61313083Y-26623794D01*
X61308212Y-26622069D01*
X61303119Y-26621162D01*
X61303116Y-26621161D01*
X61093373Y-26583800D01*
X61093367Y-26583799D01*
X61088284Y-26582894D01*
X61014452Y-26581992D01*
X60870081Y-26580228D01*
X60870079Y-26580228D01*
X60864911Y-26580165D01*
X60644091Y-26613955D01*
X60431756Y-26683357D01*
X60233607Y-26786507D01*
X60229474Y-26789610D01*
X60229471Y-26789612D01*
X60205247Y-26807800D01*
X60054965Y-26920635D01*
X59900629Y-27082138D01*
X59774743Y-27266680D01*
X59680688Y-27469305D01*
X59620989Y-27684570D01*
X59597251Y-27906695D01*
X59597548Y-27911848D01*
X59597548Y-27911851D01*
X59603011Y-28006590D01*
X59610110Y-28129715D01*
X59611247Y-28134761D01*
X59611248Y-28134767D01*
X59631119Y-28222939D01*
X59659222Y-28347639D01*
X59743266Y-28554616D01*
X59794019Y-28637438D01*
X59857291Y-28740688D01*
X59859987Y-28745088D01*
X60006250Y-28913938D01*
X60178126Y-29056632D01*
X60239196Y-29092318D01*
X60251445Y-29099476D01*
X60300169Y-29151114D01*
X60313240Y-29220897D01*
X60286509Y-29286669D01*
X60246055Y-29320027D01*
X60233607Y-29326507D01*
X60229474Y-29329610D01*
X60229471Y-29329612D01*
X60146771Y-29391705D01*
X60054965Y-29460635D01*
X59900629Y-29622138D01*
X59774743Y-29806680D01*
X59680688Y-30009305D01*
X59620989Y-30224570D01*
X59597251Y-30446695D01*
X46228500Y-30446695D01*
X46228500Y-22860000D01*
X47086411Y-22860000D01*
X47106754Y-23248176D01*
X47167562Y-23632099D01*
X47268167Y-24007562D01*
X47407468Y-24370453D01*
X47583938Y-24716794D01*
X47795643Y-25042793D01*
X48040266Y-25344876D01*
X48315124Y-25619734D01*
X48617207Y-25864357D01*
X48943205Y-26076062D01*
X48946139Y-26077557D01*
X48946146Y-26077561D01*
X49286607Y-26251034D01*
X49289547Y-26252532D01*
X49652438Y-26391833D01*
X50027901Y-26492438D01*
X50231793Y-26524732D01*
X50408576Y-26552732D01*
X50408584Y-26552733D01*
X50411824Y-26553246D01*
X50800000Y-26573589D01*
X51188176Y-26553246D01*
X51191416Y-26552733D01*
X51191424Y-26552732D01*
X51368207Y-26524732D01*
X51572099Y-26492438D01*
X51947562Y-26391833D01*
X52310453Y-26252532D01*
X52313393Y-26251034D01*
X52653854Y-26077561D01*
X52653861Y-26077557D01*
X52656795Y-26076062D01*
X52982793Y-25864357D01*
X53284876Y-25619734D01*
X53559734Y-25344876D01*
X53804357Y-25042793D01*
X54016062Y-24716794D01*
X54192532Y-24370453D01*
X54331833Y-24007562D01*
X54432438Y-23632099D01*
X54493246Y-23248176D01*
X54513589Y-22860000D01*
X125826411Y-22860000D01*
X125846754Y-23248176D01*
X125907562Y-23632099D01*
X126008167Y-24007562D01*
X126147468Y-24370453D01*
X126323938Y-24716794D01*
X126535643Y-25042793D01*
X126780266Y-25344876D01*
X127055124Y-25619734D01*
X127357207Y-25864357D01*
X127683205Y-26076062D01*
X127686139Y-26077557D01*
X127686146Y-26077561D01*
X128026607Y-26251034D01*
X128029547Y-26252532D01*
X128392438Y-26391833D01*
X128767901Y-26492438D01*
X128971793Y-26524732D01*
X129148576Y-26552732D01*
X129148584Y-26552733D01*
X129151824Y-26553246D01*
X129540000Y-26573589D01*
X129928176Y-26553246D01*
X129931416Y-26552733D01*
X129931424Y-26552732D01*
X130108207Y-26524732D01*
X130312099Y-26492438D01*
X130687562Y-26391833D01*
X131050453Y-26252532D01*
X131053393Y-26251034D01*
X131393854Y-26077561D01*
X131393861Y-26077557D01*
X131396795Y-26076062D01*
X131722793Y-25864357D01*
X132024876Y-25619734D01*
X132299734Y-25344876D01*
X132544357Y-25042793D01*
X132756062Y-24716794D01*
X132932532Y-24370453D01*
X133071833Y-24007562D01*
X133172438Y-23632099D01*
X133233246Y-23248176D01*
X133253589Y-22860000D01*
X133233246Y-22471824D01*
X133172438Y-22087901D01*
X133071833Y-21712438D01*
X132932532Y-21349547D01*
X132756062Y-21003206D01*
X132544357Y-20677207D01*
X132299734Y-20375124D01*
X132024876Y-20100266D01*
X131722793Y-19855643D01*
X131396795Y-19643938D01*
X131393861Y-19642443D01*
X131393854Y-19642439D01*
X131053393Y-19468966D01*
X131050453Y-19467468D01*
X130687562Y-19328167D01*
X130312099Y-19227562D01*
X130108207Y-19195268D01*
X129931424Y-19167268D01*
X129931416Y-19167267D01*
X129928176Y-19166754D01*
X129540000Y-19146411D01*
X129151824Y-19166754D01*
X129148584Y-19167267D01*
X129148576Y-19167268D01*
X128971793Y-19195268D01*
X128767901Y-19227562D01*
X128392438Y-19328167D01*
X128029547Y-19467468D01*
X128026607Y-19468966D01*
X127686147Y-19642439D01*
X127686140Y-19642443D01*
X127683206Y-19643938D01*
X127357207Y-19855643D01*
X127055124Y-20100266D01*
X126780266Y-20375124D01*
X126535643Y-20677207D01*
X126323938Y-21003206D01*
X126147468Y-21349547D01*
X126008167Y-21712438D01*
X125907562Y-22087901D01*
X125846754Y-22471824D01*
X125826411Y-22860000D01*
X54513589Y-22860000D01*
X54493246Y-22471824D01*
X54432438Y-22087901D01*
X54331833Y-21712438D01*
X54192532Y-21349547D01*
X54016062Y-21003206D01*
X53804357Y-20677207D01*
X53559734Y-20375124D01*
X53284876Y-20100266D01*
X52982793Y-19855643D01*
X52656795Y-19643938D01*
X52653861Y-19642443D01*
X52653854Y-19642439D01*
X52313393Y-19468966D01*
X52310453Y-19467468D01*
X51947562Y-19328167D01*
X51572099Y-19227562D01*
X51368207Y-19195268D01*
X51191424Y-19167268D01*
X51191416Y-19167267D01*
X51188176Y-19166754D01*
X50800000Y-19146411D01*
X50411824Y-19166754D01*
X50408584Y-19167267D01*
X50408576Y-19167268D01*
X50231793Y-19195268D01*
X50027901Y-19227562D01*
X49652438Y-19328167D01*
X49289547Y-19467468D01*
X49286607Y-19468966D01*
X48946147Y-19642439D01*
X48946140Y-19642443D01*
X48943206Y-19643938D01*
X48617207Y-19855643D01*
X48315124Y-20100266D01*
X48040266Y-20375124D01*
X47795643Y-20677207D01*
X47583938Y-21003206D01*
X47407468Y-21349547D01*
X47268167Y-21712438D01*
X47167562Y-22087901D01*
X47106754Y-22471824D01*
X47086411Y-22860000D01*
X46228500Y-22860000D01*
X46228500Y-18414500D01*
X46248502Y-18346379D01*
X46302158Y-18299886D01*
X46354500Y-18288500D01*
X133985500Y-18288500D01*
X134053621Y-18308502D01*
G37*
%TD.AperFunction*%
%TD*%
M02*
