%TF.GenerationSoftware,KiCad,Pcbnew,(6.0.10)*%
%TF.CreationDate,2023-01-05T13:47:08+01:00*%
%TF.ProjectId,pmod_esp32c3_baseboard,706d6f64-5f65-4737-9033-3263335f6261,rev?*%
%TF.SameCoordinates,Original*%
%TF.FileFunction,Soldermask,Bot*%
%TF.FilePolarity,Negative*%
%FSLAX46Y46*%
G04 Gerber Fmt 4.6, Leading zero omitted, Abs format (unit mm)*
G04 Created by KiCad (PCBNEW (6.0.10)) date 2023-01-05 13:47:08*
%MOMM*%
%LPD*%
G01*
G04 APERTURE LIST*
%ADD10R,1.700000X1.700000*%
%ADD11O,1.700000X1.700000*%
%ADD12C,0.800000*%
%ADD13C,6.400000*%
%ADD14C,1.524000*%
G04 APERTURE END LIST*
D10*
%TO.C,PMOD2*%
X96520000Y-30480000D03*
D11*
X96520000Y-27940000D03*
X93980000Y-30480000D03*
X93980000Y-27940000D03*
X91440000Y-30480000D03*
X91440000Y-27940000D03*
X88900000Y-30480000D03*
X88900000Y-27940000D03*
X86360000Y-30480000D03*
X86360000Y-27940000D03*
X83820000Y-30480000D03*
X83820000Y-27940000D03*
%TD*%
D10*
%TO.C,PMOD3*%
X119380000Y-30480000D03*
D11*
X119380000Y-27940000D03*
X116840000Y-30480000D03*
X116840000Y-27940000D03*
X114300000Y-30480000D03*
X114300000Y-27940000D03*
X111760000Y-30480000D03*
X111760000Y-27940000D03*
X109220000Y-30480000D03*
X109220000Y-27940000D03*
X106680000Y-30480000D03*
X106680000Y-27940000D03*
%TD*%
D10*
%TO.C,PMOD1*%
X73660000Y-30480000D03*
D11*
X73660000Y-27940000D03*
X71120000Y-30480000D03*
X71120000Y-27940000D03*
X68580000Y-30480000D03*
X68580000Y-27940000D03*
X66040000Y-30480000D03*
X66040000Y-27940000D03*
X63500000Y-30480000D03*
X63500000Y-27940000D03*
X60960000Y-30480000D03*
X60960000Y-27940000D03*
%TD*%
D12*
%TO.C,H3*%
X52497056Y-88057056D03*
X49102944Y-84662944D03*
X50800000Y-83960000D03*
X48400000Y-86360000D03*
X52497056Y-84662944D03*
X49102944Y-88057056D03*
X53200000Y-86360000D03*
D13*
X50800000Y-86360000D03*
D12*
X50800000Y-88760000D03*
%TD*%
%TO.C,H1*%
X50800000Y-20460000D03*
X52497056Y-24557056D03*
X50800000Y-25260000D03*
X53200000Y-22860000D03*
X48400000Y-22860000D03*
X52497056Y-21162944D03*
X49102944Y-24557056D03*
D13*
X50800000Y-22860000D03*
D12*
X49102944Y-21162944D03*
%TD*%
D10*
%TO.C,J1*%
X129540000Y-36830000D03*
D11*
X129540000Y-34290000D03*
%TD*%
D12*
%TO.C,H4*%
X131237056Y-84662944D03*
X127842944Y-88057056D03*
D13*
X129540000Y-86360000D03*
D12*
X127140000Y-86360000D03*
X129540000Y-88760000D03*
X131237056Y-88057056D03*
X127842944Y-84662944D03*
X131940000Y-86360000D03*
X129540000Y-83960000D03*
%TD*%
%TO.C,H2*%
X131237056Y-21162944D03*
X131237056Y-24557056D03*
X127842944Y-21162944D03*
D13*
X129540000Y-22860000D03*
D12*
X129540000Y-25260000D03*
X131940000Y-22860000D03*
X129540000Y-20460000D03*
X127140000Y-22860000D03*
X127842944Y-24557056D03*
%TD*%
D14*
%TO.C,U1*%
X73660000Y-81280000D03*
X76200000Y-81280000D03*
X78740000Y-81280000D03*
X81280000Y-81280000D03*
X83820000Y-81280000D03*
X86360000Y-81280000D03*
X88900000Y-81280000D03*
X91440000Y-81280000D03*
X93980000Y-81280000D03*
X96520000Y-81280000D03*
X99060000Y-81280000D03*
X101600000Y-81280000D03*
X104140000Y-81280000D03*
X106680000Y-81280000D03*
X109220000Y-81280000D03*
X109220000Y-55880000D03*
X106680000Y-55880000D03*
X104140000Y-55880000D03*
X101600000Y-55880000D03*
X99060000Y-55880000D03*
X96520000Y-55880000D03*
X93980000Y-55880000D03*
X91440000Y-55880000D03*
X88900000Y-55880000D03*
X86360000Y-55880000D03*
X83820000Y-55880000D03*
X81280000Y-55880000D03*
X78740000Y-55880000D03*
X76200000Y-55880000D03*
X73660000Y-55880000D03*
%TD*%
M02*
