%TF.GenerationSoftware,KiCad,Pcbnew,7.0.1*%
%TF.CreationDate,2023-04-28T09:41:15+02:00*%
%TF.ProjectId,RFM9xW_ANT,52464d39-7857-45f4-914e-542e6b696361,rev?*%
%TF.SameCoordinates,Original*%
%TF.FileFunction,Copper,L2,Bot*%
%TF.FilePolarity,Positive*%
%FSLAX46Y46*%
G04 Gerber Fmt 4.6, Leading zero omitted, Abs format (unit mm)*
G04 Created by KiCad (PCBNEW 7.0.1) date 2023-04-28 09:41:15*
%MOMM*%
%LPD*%
G01*
G04 APERTURE LIST*
%TA.AperFunction,ComponentPad*%
%ADD10R,1.700000X1.700000*%
%TD*%
%TA.AperFunction,ComponentPad*%
%ADD11O,1.700000X1.700000*%
%TD*%
G04 APERTURE END LIST*
D10*
%TO.P,J1,1,Pin_1*%
%TO.N,VCC*%
X149860000Y-43180000D03*
D11*
%TO.P,J1,2,Pin_2*%
X152400000Y-43180000D03*
%TO.P,J1,3,Pin_3*%
%TO.N,GND*%
X149860000Y-45720000D03*
%TO.P,J1,4,Pin_4*%
X152400000Y-45720000D03*
%TO.P,J1,5,Pin_5*%
%TO.N,SCK*%
X149860000Y-48260000D03*
%TO.P,J1,6,Pin_6*%
%TO.N,unconnected-(J1-Pin_6-Pad6)*%
X152400000Y-48260000D03*
%TO.P,J1,7,Pin_7*%
%TO.N,MISO*%
X149860000Y-50800000D03*
%TO.P,J1,8,Pin_8*%
%TO.N,unconnected-(J1-Pin_8-Pad8)*%
X152400000Y-50800000D03*
%TO.P,J1,9,Pin_9*%
%TO.N,MOSI*%
X149860000Y-53340000D03*
%TO.P,J1,10,Pin_10*%
%TO.N,nRESET*%
X152400000Y-53340000D03*
%TO.P,J1,11,Pin_11*%
%TO.N,nCS*%
X149860000Y-55880000D03*
%TO.P,J1,12,Pin_12*%
%TO.N,DIO0*%
X152400000Y-55880000D03*
%TD*%
D10*
%TO.P,Je,1,Pin_1*%
%TO.N,Net-(J2-Pin_1)*%
X120650000Y-42530000D03*
%TD*%
%TA.AperFunction,Conductor*%
%TO.N,GND*%
G36*
X156135000Y-38138763D02*
G01*
X156171237Y-38175000D01*
X156184500Y-38224500D01*
X156184500Y-60835500D01*
X156171237Y-60885000D01*
X156135000Y-60921237D01*
X156085500Y-60934500D01*
X118234500Y-60934500D01*
X118185000Y-60921237D01*
X118148763Y-60885000D01*
X118135500Y-60835500D01*
X118135500Y-55880000D01*
X148804416Y-55880000D01*
X148824699Y-56085933D01*
X148884767Y-56283952D01*
X148884768Y-56283954D01*
X148982315Y-56466450D01*
X149113590Y-56626410D01*
X149273550Y-56757685D01*
X149456046Y-56855232D01*
X149654066Y-56915300D01*
X149860000Y-56935583D01*
X150065934Y-56915300D01*
X150263954Y-56855232D01*
X150446450Y-56757685D01*
X150606410Y-56626410D01*
X150737685Y-56466450D01*
X150835232Y-56283954D01*
X150895300Y-56085934D01*
X150915583Y-55880000D01*
X151344416Y-55880000D01*
X151364699Y-56085933D01*
X151424767Y-56283952D01*
X151424768Y-56283954D01*
X151522315Y-56466450D01*
X151653590Y-56626410D01*
X151813550Y-56757685D01*
X151996046Y-56855232D01*
X152194066Y-56915300D01*
X152400000Y-56935583D01*
X152605934Y-56915300D01*
X152803954Y-56855232D01*
X152986450Y-56757685D01*
X153146410Y-56626410D01*
X153277685Y-56466450D01*
X153375232Y-56283954D01*
X153435300Y-56085934D01*
X153455583Y-55880000D01*
X153435300Y-55674066D01*
X153375232Y-55476046D01*
X153277685Y-55293550D01*
X153146410Y-55133590D01*
X152986450Y-55002315D01*
X152803954Y-54904768D01*
X152803953Y-54904767D01*
X152803952Y-54904767D01*
X152605933Y-54844699D01*
X152400000Y-54824416D01*
X152194066Y-54844699D01*
X151996047Y-54904767D01*
X151813549Y-55002315D01*
X151653590Y-55133590D01*
X151522315Y-55293549D01*
X151424767Y-55476047D01*
X151364699Y-55674066D01*
X151344416Y-55880000D01*
X150915583Y-55880000D01*
X150895300Y-55674066D01*
X150835232Y-55476046D01*
X150737685Y-55293550D01*
X150606410Y-55133590D01*
X150446450Y-55002315D01*
X150263954Y-54904768D01*
X150263953Y-54904767D01*
X150263952Y-54904767D01*
X150065933Y-54844699D01*
X149860000Y-54824416D01*
X149654066Y-54844699D01*
X149456047Y-54904767D01*
X149273549Y-55002315D01*
X149113590Y-55133590D01*
X148982315Y-55293549D01*
X148884767Y-55476047D01*
X148824699Y-55674066D01*
X148804416Y-55880000D01*
X118135500Y-55880000D01*
X118135500Y-53339999D01*
X148804416Y-53339999D01*
X148824699Y-53545933D01*
X148884767Y-53743952D01*
X148884768Y-53743954D01*
X148982315Y-53926450D01*
X149113590Y-54086410D01*
X149273550Y-54217685D01*
X149456046Y-54315232D01*
X149654066Y-54375300D01*
X149860000Y-54395583D01*
X150065934Y-54375300D01*
X150263954Y-54315232D01*
X150446450Y-54217685D01*
X150606410Y-54086410D01*
X150737685Y-53926450D01*
X150835232Y-53743954D01*
X150895300Y-53545934D01*
X150915583Y-53340000D01*
X150915583Y-53339999D01*
X151344416Y-53339999D01*
X151364699Y-53545933D01*
X151424767Y-53743952D01*
X151424768Y-53743954D01*
X151522315Y-53926450D01*
X151653590Y-54086410D01*
X151813550Y-54217685D01*
X151996046Y-54315232D01*
X152194066Y-54375300D01*
X152400000Y-54395583D01*
X152605934Y-54375300D01*
X152803954Y-54315232D01*
X152986450Y-54217685D01*
X153146410Y-54086410D01*
X153277685Y-53926450D01*
X153375232Y-53743954D01*
X153435300Y-53545934D01*
X153455583Y-53340000D01*
X153435300Y-53134066D01*
X153375232Y-52936046D01*
X153277685Y-52753550D01*
X153146410Y-52593590D01*
X152986450Y-52462315D01*
X152803954Y-52364768D01*
X152803953Y-52364767D01*
X152803952Y-52364767D01*
X152605933Y-52304699D01*
X152400000Y-52284416D01*
X152194066Y-52304699D01*
X151996047Y-52364767D01*
X151813549Y-52462315D01*
X151653590Y-52593590D01*
X151522315Y-52753549D01*
X151424767Y-52936047D01*
X151364699Y-53134066D01*
X151344416Y-53339999D01*
X150915583Y-53339999D01*
X150895300Y-53134066D01*
X150835232Y-52936046D01*
X150737685Y-52753550D01*
X150606410Y-52593590D01*
X150446450Y-52462315D01*
X150263954Y-52364768D01*
X150263953Y-52364767D01*
X150263952Y-52364767D01*
X150065933Y-52304699D01*
X149860000Y-52284416D01*
X149654066Y-52304699D01*
X149456047Y-52364767D01*
X149273549Y-52462315D01*
X149113590Y-52593590D01*
X148982315Y-52753549D01*
X148884767Y-52936047D01*
X148824699Y-53134066D01*
X148804416Y-53339999D01*
X118135500Y-53339999D01*
X118135500Y-50800000D01*
X148804416Y-50800000D01*
X148824699Y-51005933D01*
X148884767Y-51203952D01*
X148884768Y-51203954D01*
X148982315Y-51386450D01*
X149113590Y-51546410D01*
X149273550Y-51677685D01*
X149456046Y-51775232D01*
X149654065Y-51835299D01*
X149654066Y-51835300D01*
X149859999Y-51855583D01*
X149859999Y-51855582D01*
X149860000Y-51855583D01*
X150065934Y-51835300D01*
X150263954Y-51775232D01*
X150446450Y-51677685D01*
X150606410Y-51546410D01*
X150737685Y-51386450D01*
X150835232Y-51203954D01*
X150895300Y-51005934D01*
X150915583Y-50800000D01*
X151344416Y-50800000D01*
X151364699Y-51005933D01*
X151424767Y-51203952D01*
X151424768Y-51203954D01*
X151522315Y-51386450D01*
X151653590Y-51546410D01*
X151813550Y-51677685D01*
X151996046Y-51775232D01*
X152194065Y-51835299D01*
X152194066Y-51835300D01*
X152399999Y-51855583D01*
X152399999Y-51855582D01*
X152400000Y-51855583D01*
X152605934Y-51835300D01*
X152803954Y-51775232D01*
X152986450Y-51677685D01*
X153146410Y-51546410D01*
X153277685Y-51386450D01*
X153375232Y-51203954D01*
X153435300Y-51005934D01*
X153455583Y-50800000D01*
X153435300Y-50594066D01*
X153375232Y-50396046D01*
X153277685Y-50213550D01*
X153146410Y-50053590D01*
X152986450Y-49922315D01*
X152803954Y-49824768D01*
X152803953Y-49824767D01*
X152803952Y-49824767D01*
X152605933Y-49764699D01*
X152399999Y-49744416D01*
X152194066Y-49764699D01*
X151996047Y-49824767D01*
X151813549Y-49922315D01*
X151653590Y-50053590D01*
X151522315Y-50213549D01*
X151424767Y-50396047D01*
X151364699Y-50594066D01*
X151344416Y-50800000D01*
X150915583Y-50800000D01*
X150895300Y-50594066D01*
X150835232Y-50396046D01*
X150737685Y-50213550D01*
X150606410Y-50053590D01*
X150446450Y-49922315D01*
X150263954Y-49824768D01*
X150263953Y-49824767D01*
X150263952Y-49824767D01*
X150065933Y-49764699D01*
X149859999Y-49744416D01*
X149654066Y-49764699D01*
X149456047Y-49824767D01*
X149273549Y-49922315D01*
X149113590Y-50053590D01*
X148982315Y-50213549D01*
X148884767Y-50396047D01*
X148824699Y-50594066D01*
X148804416Y-50800000D01*
X118135500Y-50800000D01*
X118135500Y-48259999D01*
X148804416Y-48259999D01*
X148824699Y-48465933D01*
X148884767Y-48663952D01*
X148884768Y-48663954D01*
X148982315Y-48846450D01*
X149113590Y-49006410D01*
X149273550Y-49137685D01*
X149456046Y-49235232D01*
X149654066Y-49295300D01*
X149860000Y-49315583D01*
X150065934Y-49295300D01*
X150263954Y-49235232D01*
X150446450Y-49137685D01*
X150606410Y-49006410D01*
X150737685Y-48846450D01*
X150835232Y-48663954D01*
X150895300Y-48465934D01*
X150915583Y-48260000D01*
X150915583Y-48259999D01*
X151344416Y-48259999D01*
X151364699Y-48465933D01*
X151424767Y-48663952D01*
X151424768Y-48663954D01*
X151522315Y-48846450D01*
X151653590Y-49006410D01*
X151813550Y-49137685D01*
X151996046Y-49235232D01*
X152194066Y-49295300D01*
X152400000Y-49315583D01*
X152605934Y-49295300D01*
X152803954Y-49235232D01*
X152986450Y-49137685D01*
X153146410Y-49006410D01*
X153277685Y-48846450D01*
X153375232Y-48663954D01*
X153435300Y-48465934D01*
X153455583Y-48260000D01*
X153435300Y-48054066D01*
X153375232Y-47856046D01*
X153277685Y-47673550D01*
X153146410Y-47513590D01*
X152986450Y-47382315D01*
X152803954Y-47284768D01*
X152803953Y-47284767D01*
X152803952Y-47284767D01*
X152605933Y-47224699D01*
X152400000Y-47204416D01*
X152194066Y-47224699D01*
X151996047Y-47284767D01*
X151813549Y-47382315D01*
X151653590Y-47513590D01*
X151522315Y-47673549D01*
X151424767Y-47856047D01*
X151364699Y-48054066D01*
X151344416Y-48259999D01*
X150915583Y-48259999D01*
X150895300Y-48054066D01*
X150835232Y-47856046D01*
X150737685Y-47673550D01*
X150606410Y-47513590D01*
X150446450Y-47382315D01*
X150263954Y-47284768D01*
X150263953Y-47284767D01*
X150263952Y-47284767D01*
X150065933Y-47224699D01*
X149860000Y-47204416D01*
X149654066Y-47224699D01*
X149456047Y-47284767D01*
X149273549Y-47382315D01*
X149113590Y-47513590D01*
X148982315Y-47673549D01*
X148884767Y-47856047D01*
X148824699Y-48054066D01*
X148804416Y-48259999D01*
X118135500Y-48259999D01*
X118135500Y-45820000D01*
X148814767Y-45820000D01*
X148825191Y-45925835D01*
X148885231Y-46123763D01*
X148982730Y-46306170D01*
X149113945Y-46466054D01*
X149273829Y-46597269D01*
X149456236Y-46694768D01*
X149654164Y-46754808D01*
X149759999Y-46765232D01*
X149760000Y-46765232D01*
X149960000Y-46765232D01*
X150065835Y-46754808D01*
X150263763Y-46694768D01*
X150446170Y-46597269D01*
X150606054Y-46466054D01*
X150737269Y-46306170D01*
X150834768Y-46123763D01*
X150894808Y-45925835D01*
X150905232Y-45820000D01*
X151354767Y-45820000D01*
X151365191Y-45925835D01*
X151425231Y-46123763D01*
X151522730Y-46306170D01*
X151653945Y-46466054D01*
X151813829Y-46597269D01*
X151996236Y-46694768D01*
X152194164Y-46754808D01*
X152299999Y-46765232D01*
X152300000Y-46765232D01*
X152500000Y-46765232D01*
X152605835Y-46754808D01*
X152803763Y-46694768D01*
X152986170Y-46597269D01*
X153146054Y-46466054D01*
X153277269Y-46306170D01*
X153374768Y-46123763D01*
X153434808Y-45925835D01*
X153445232Y-45820000D01*
X152500001Y-45820000D01*
X152500000Y-45820001D01*
X152500000Y-46765232D01*
X152300000Y-46765232D01*
X152300000Y-45820001D01*
X152299999Y-45820000D01*
X151354767Y-45820000D01*
X150905232Y-45820000D01*
X149960001Y-45820000D01*
X149960000Y-45820001D01*
X149960000Y-46765232D01*
X149760000Y-46765232D01*
X149760000Y-45820001D01*
X149759999Y-45820000D01*
X148814767Y-45820000D01*
X118135500Y-45820000D01*
X118135500Y-45619999D01*
X148814767Y-45619999D01*
X148814768Y-45620000D01*
X149759999Y-45620000D01*
X149760000Y-45619999D01*
X149760000Y-44674768D01*
X149759999Y-44674767D01*
X149960000Y-44674767D01*
X149960000Y-45619999D01*
X149960001Y-45620000D01*
X150905232Y-45620000D01*
X150905232Y-45619999D01*
X151354767Y-45619999D01*
X151354768Y-45620000D01*
X152299999Y-45620000D01*
X152300000Y-45619999D01*
X152300000Y-44674768D01*
X152299999Y-44674767D01*
X152500000Y-44674767D01*
X152500000Y-45619999D01*
X152500001Y-45620000D01*
X153445232Y-45620000D01*
X153445232Y-45619999D01*
X153434808Y-45514164D01*
X153374768Y-45316236D01*
X153277269Y-45133829D01*
X153146054Y-44973945D01*
X152986170Y-44842730D01*
X152803763Y-44745231D01*
X152605835Y-44685191D01*
X152500000Y-44674767D01*
X152299999Y-44674767D01*
X152194164Y-44685191D01*
X151996236Y-44745231D01*
X151813829Y-44842730D01*
X151653945Y-44973945D01*
X151522730Y-45133829D01*
X151425231Y-45316236D01*
X151365191Y-45514164D01*
X151354767Y-45619999D01*
X150905232Y-45619999D01*
X150894808Y-45514164D01*
X150834768Y-45316236D01*
X150737269Y-45133829D01*
X150606054Y-44973945D01*
X150446170Y-44842730D01*
X150263763Y-44745231D01*
X150065835Y-44685191D01*
X149960000Y-44674767D01*
X149759999Y-44674767D01*
X149654164Y-44685191D01*
X149456236Y-44745231D01*
X149273829Y-44842730D01*
X149113945Y-44973945D01*
X148982730Y-45133829D01*
X148885231Y-45316236D01*
X148825191Y-45514164D01*
X148814767Y-45619999D01*
X118135500Y-45619999D01*
X118135500Y-44049747D01*
X148809500Y-44049747D01*
X148821133Y-44108231D01*
X148865447Y-44174552D01*
X148909762Y-44204162D01*
X148931769Y-44218867D01*
X148990252Y-44230500D01*
X150729747Y-44230500D01*
X150729748Y-44230500D01*
X150788231Y-44218867D01*
X150854552Y-44174552D01*
X150898867Y-44108231D01*
X150910500Y-44049748D01*
X150910500Y-43179999D01*
X151344416Y-43179999D01*
X151364699Y-43385933D01*
X151420191Y-43568866D01*
X151424768Y-43583954D01*
X151522315Y-43766450D01*
X151653590Y-43926410D01*
X151813550Y-44057685D01*
X151996046Y-44155232D01*
X152194066Y-44215300D01*
X152400000Y-44235583D01*
X152605934Y-44215300D01*
X152803954Y-44155232D01*
X152986450Y-44057685D01*
X153146410Y-43926410D01*
X153277685Y-43766450D01*
X153375232Y-43583954D01*
X153435300Y-43385934D01*
X153455583Y-43180000D01*
X153435300Y-42974066D01*
X153375232Y-42776046D01*
X153277685Y-42593550D01*
X153146410Y-42433590D01*
X152986450Y-42302315D01*
X152803954Y-42204768D01*
X152803953Y-42204767D01*
X152803952Y-42204767D01*
X152605933Y-42144699D01*
X152400000Y-42124416D01*
X152194066Y-42144699D01*
X151996047Y-42204767D01*
X151813549Y-42302315D01*
X151653590Y-42433590D01*
X151522315Y-42593549D01*
X151424767Y-42776047D01*
X151364699Y-42974066D01*
X151344416Y-43179999D01*
X150910500Y-43179999D01*
X150910500Y-42310252D01*
X150898867Y-42251769D01*
X150884162Y-42229762D01*
X150854552Y-42185447D01*
X150788231Y-42141133D01*
X150788230Y-42141132D01*
X150729748Y-42129500D01*
X148990252Y-42129500D01*
X148961010Y-42135316D01*
X148931768Y-42141133D01*
X148865447Y-42185447D01*
X148821133Y-42251768D01*
X148809500Y-42310253D01*
X148809500Y-44049747D01*
X118135500Y-44049747D01*
X118135500Y-43399747D01*
X119599500Y-43399747D01*
X119611133Y-43458231D01*
X119655447Y-43524552D01*
X119699762Y-43554162D01*
X119721769Y-43568867D01*
X119780252Y-43580500D01*
X121519747Y-43580500D01*
X121519748Y-43580500D01*
X121578231Y-43568867D01*
X121644552Y-43524552D01*
X121688867Y-43458231D01*
X121700500Y-43399748D01*
X121700500Y-41660252D01*
X121688867Y-41601769D01*
X121674162Y-41579761D01*
X121644552Y-41535447D01*
X121578231Y-41491133D01*
X121578230Y-41491132D01*
X121519748Y-41479500D01*
X119780252Y-41479500D01*
X119751010Y-41485316D01*
X119721768Y-41491133D01*
X119655447Y-41535447D01*
X119611133Y-41601768D01*
X119599500Y-41660253D01*
X119599500Y-43399747D01*
X118135500Y-43399747D01*
X118135500Y-38224500D01*
X118148763Y-38175000D01*
X118185000Y-38138763D01*
X118234500Y-38125500D01*
X156085500Y-38125500D01*
X156135000Y-38138763D01*
G37*
%TD.AperFunction*%
%TD*%
M02*
