%TF.GenerationSoftware,KiCad,Pcbnew,5.1.10*%
%TF.CreationDate,2021-12-30T18:02:29+01:00*%
%TF.ProjectId,Mini_SI4432_PMOD,4d696e69-5f53-4493-9434-33325f504d4f,rev?*%
%TF.SameCoordinates,Original*%
%TF.FileFunction,Copper,L1,Top*%
%TF.FilePolarity,Positive*%
%FSLAX46Y46*%
G04 Gerber Fmt 4.6, Leading zero omitted, Abs format (unit mm)*
G04 Created by KiCad (PCBNEW 5.1.10) date 2021-12-30 18:02:29*
%MOMM*%
%LPD*%
G01*
G04 APERTURE LIST*
%TA.AperFunction,ComponentPad*%
%ADD10O,1.700000X1.700000*%
%TD*%
%TA.AperFunction,ComponentPad*%
%ADD11R,1.700000X1.700000*%
%TD*%
%TA.AperFunction,ComponentPad*%
%ADD12O,1.000000X1.000000*%
%TD*%
%TA.AperFunction,ComponentPad*%
%ADD13R,1.000000X1.000000*%
%TD*%
%TA.AperFunction,ViaPad*%
%ADD14C,0.800000*%
%TD*%
%TA.AperFunction,Conductor*%
%ADD15C,0.250000*%
%TD*%
%TA.AperFunction,Conductor*%
%ADD16C,0.254000*%
%TD*%
%TA.AperFunction,Conductor*%
%ADD17C,0.100000*%
%TD*%
G04 APERTURE END LIST*
D10*
%TO.P,J2,12*%
%TO.N,nIRQ*%
X152400000Y-55880000D03*
%TO.P,J2,11*%
%TO.N,nCS*%
X149860000Y-55880000D03*
%TO.P,J2,10*%
%TO.N,nSD*%
X152400000Y-53340000D03*
%TO.P,J2,9*%
%TO.N,MOSI*%
X149860000Y-53340000D03*
%TO.P,J2,8*%
%TO.N,GPIO1*%
X152400000Y-50800000D03*
%TO.P,J2,7*%
%TO.N,MISO*%
X149860000Y-50800000D03*
%TO.P,J2,6*%
%TO.N,GPIO0*%
X152400000Y-48260000D03*
%TO.P,J2,5*%
%TO.N,SCK*%
X149860000Y-48260000D03*
%TO.P,J2,4*%
%TO.N,GND*%
X152400000Y-45720000D03*
%TO.P,J2,3*%
X149860000Y-45720000D03*
%TO.P,J2,2*%
%TO.N,VCC*%
X152400000Y-43180000D03*
D11*
%TO.P,J2,1*%
X149860000Y-43180000D03*
%TD*%
D12*
%TO.P,J1,12*%
%TO.N,GND*%
X137160000Y-41910000D03*
%TO.P,J1,11*%
%TO.N,nSD*%
X137160000Y-43180000D03*
%TO.P,J1,10*%
%TO.N,nIRQ*%
X137160000Y-44450000D03*
%TO.P,J1,9*%
%TO.N,nCS*%
X137160000Y-45720000D03*
%TO.P,J1,8*%
%TO.N,SCK*%
X137160000Y-46990000D03*
%TO.P,J1,7*%
%TO.N,MOSI*%
X137160000Y-48260000D03*
%TO.P,J1,6*%
%TO.N,MISO*%
X137160000Y-49530000D03*
%TO.P,J1,5*%
%TO.N,VCC*%
X137160000Y-50800000D03*
%TO.P,J1,4*%
%TO.N,GPIO2*%
X137160000Y-52070000D03*
%TO.P,J1,3*%
%TO.N,GPIO1*%
X137160000Y-53340000D03*
%TO.P,J1,2*%
%TO.N,GPIO0*%
X137160000Y-54610000D03*
D13*
%TO.P,J1,1*%
%TO.N,GND*%
X137160000Y-55880000D03*
%TD*%
D14*
%TO.N,nSD*%
X147320000Y-43180000D03*
%TO.N,nIRQ*%
X146050000Y-44450000D03*
X146050000Y-54610000D03*
%TO.N,nCS*%
X140970000Y-55880000D03*
X140970000Y-45720000D03*
%TO.N,MOSI*%
X142240000Y-48260000D03*
X142240000Y-53340000D03*
%TO.N,GPIO0*%
X144780000Y-54610000D03*
X144780000Y-48260000D03*
%TD*%
D15*
%TO.N,nSD*%
X137160000Y-43180000D02*
X147320000Y-43180000D01*
%TO.N,nIRQ*%
X137160000Y-44450000D02*
X146050000Y-44450000D01*
X151130000Y-54610000D02*
X152400000Y-55880000D01*
X146050000Y-54610000D02*
X151130000Y-54610000D01*
%TO.N,nCS*%
X149860000Y-55880000D02*
X140970000Y-55880000D01*
X137160000Y-45720000D02*
X140970000Y-45720000D01*
%TO.N,SCK*%
X148590000Y-46990000D02*
X149860000Y-48260000D01*
X137160000Y-46990000D02*
X148590000Y-46990000D01*
%TO.N,MOSI*%
X137160000Y-48260000D02*
X142240000Y-48260000D01*
X142240000Y-53340000D02*
X149860000Y-53340000D01*
%TO.N,MISO*%
X148590000Y-49530000D02*
X149860000Y-50800000D01*
X137160000Y-49530000D02*
X148590000Y-49530000D01*
%TO.N,GPIO1*%
X151224999Y-51975001D02*
X152400000Y-50800000D01*
X138524999Y-51975001D02*
X151224999Y-51975001D01*
X137160000Y-53340000D02*
X138524999Y-51975001D01*
%TO.N,GPIO0*%
X137160000Y-54610000D02*
X144780000Y-54610000D01*
X151224999Y-49435001D02*
X152400000Y-48260000D01*
X149295999Y-49435001D02*
X151224999Y-49435001D01*
X148120998Y-48260000D02*
X149295999Y-49435001D01*
X144780000Y-48260000D02*
X148120998Y-48260000D01*
%TD*%
D16*
%TO.N,GND*%
X155550000Y-59030000D02*
X134010000Y-59030000D01*
X134010000Y-56380000D01*
X136021928Y-56380000D01*
X136034188Y-56504482D01*
X136070498Y-56624180D01*
X136129463Y-56734494D01*
X136208815Y-56831185D01*
X136305506Y-56910537D01*
X136415820Y-56969502D01*
X136535518Y-57005812D01*
X136660000Y-57018072D01*
X136874250Y-57015000D01*
X137033000Y-56856250D01*
X137033000Y-56007000D01*
X137287000Y-56007000D01*
X137287000Y-56856250D01*
X137445750Y-57015000D01*
X137660000Y-57018072D01*
X137784482Y-57005812D01*
X137904180Y-56969502D01*
X138014494Y-56910537D01*
X138111185Y-56831185D01*
X138190537Y-56734494D01*
X138249502Y-56624180D01*
X138285812Y-56504482D01*
X138298072Y-56380000D01*
X138295000Y-56165750D01*
X138136250Y-56007000D01*
X137287000Y-56007000D01*
X137033000Y-56007000D01*
X136183750Y-56007000D01*
X136025000Y-56165750D01*
X136021928Y-56380000D01*
X134010000Y-56380000D01*
X134010000Y-55380000D01*
X136021928Y-55380000D01*
X136025000Y-55594250D01*
X136183750Y-55753000D01*
X137033000Y-55753000D01*
X137033000Y-55741974D01*
X137048212Y-55745000D01*
X137271788Y-55745000D01*
X137287000Y-55741974D01*
X137287000Y-55753000D01*
X138136250Y-55753000D01*
X138295000Y-55594250D01*
X138298072Y-55380000D01*
X138297087Y-55370000D01*
X140065987Y-55370000D01*
X140052795Y-55389744D01*
X139974774Y-55578102D01*
X139935000Y-55778061D01*
X139935000Y-55981939D01*
X139974774Y-56181898D01*
X140052795Y-56370256D01*
X140166063Y-56539774D01*
X140310226Y-56683937D01*
X140479744Y-56797205D01*
X140668102Y-56875226D01*
X140868061Y-56915000D01*
X141071939Y-56915000D01*
X141271898Y-56875226D01*
X141460256Y-56797205D01*
X141629774Y-56683937D01*
X141673711Y-56640000D01*
X148581822Y-56640000D01*
X148706525Y-56826632D01*
X148913368Y-57033475D01*
X149156589Y-57195990D01*
X149426842Y-57307932D01*
X149713740Y-57365000D01*
X150006260Y-57365000D01*
X150293158Y-57307932D01*
X150563411Y-57195990D01*
X150806632Y-57033475D01*
X151013475Y-56826632D01*
X151130000Y-56652240D01*
X151246525Y-56826632D01*
X151453368Y-57033475D01*
X151696589Y-57195990D01*
X151966842Y-57307932D01*
X152253740Y-57365000D01*
X152546260Y-57365000D01*
X152833158Y-57307932D01*
X153103411Y-57195990D01*
X153346632Y-57033475D01*
X153553475Y-56826632D01*
X153715990Y-56583411D01*
X153827932Y-56313158D01*
X153885000Y-56026260D01*
X153885000Y-55733740D01*
X153827932Y-55446842D01*
X153715990Y-55176589D01*
X153553475Y-54933368D01*
X153346632Y-54726525D01*
X153172240Y-54610000D01*
X153346632Y-54493475D01*
X153553475Y-54286632D01*
X153715990Y-54043411D01*
X153827932Y-53773158D01*
X153885000Y-53486260D01*
X153885000Y-53193740D01*
X153827932Y-52906842D01*
X153715990Y-52636589D01*
X153553475Y-52393368D01*
X153346632Y-52186525D01*
X153172240Y-52070000D01*
X153346632Y-51953475D01*
X153553475Y-51746632D01*
X153715990Y-51503411D01*
X153827932Y-51233158D01*
X153885000Y-50946260D01*
X153885000Y-50653740D01*
X153827932Y-50366842D01*
X153715990Y-50096589D01*
X153553475Y-49853368D01*
X153346632Y-49646525D01*
X153172240Y-49530000D01*
X153346632Y-49413475D01*
X153553475Y-49206632D01*
X153715990Y-48963411D01*
X153827932Y-48693158D01*
X153885000Y-48406260D01*
X153885000Y-48113740D01*
X153827932Y-47826842D01*
X153715990Y-47556589D01*
X153553475Y-47313368D01*
X153346632Y-47106525D01*
X153164466Y-46984805D01*
X153281355Y-46915178D01*
X153497588Y-46720269D01*
X153671641Y-46486920D01*
X153796825Y-46224099D01*
X153841476Y-46076890D01*
X153720155Y-45847000D01*
X152527000Y-45847000D01*
X152527000Y-45867000D01*
X152273000Y-45867000D01*
X152273000Y-45847000D01*
X149987000Y-45847000D01*
X149987000Y-45867000D01*
X149733000Y-45867000D01*
X149733000Y-45847000D01*
X148539845Y-45847000D01*
X148418524Y-46076890D01*
X148463175Y-46224099D01*
X148465986Y-46230000D01*
X141874013Y-46230000D01*
X141887205Y-46210256D01*
X141965226Y-46021898D01*
X142005000Y-45821939D01*
X142005000Y-45618061D01*
X141965226Y-45418102D01*
X141887205Y-45229744D01*
X141874013Y-45210000D01*
X145346289Y-45210000D01*
X145390226Y-45253937D01*
X145559744Y-45367205D01*
X145748102Y-45445226D01*
X145948061Y-45485000D01*
X146151939Y-45485000D01*
X146351898Y-45445226D01*
X146540256Y-45367205D01*
X146709774Y-45253937D01*
X146853937Y-45109774D01*
X146967205Y-44940256D01*
X147045226Y-44751898D01*
X147085000Y-44551939D01*
X147085000Y-44348061D01*
X147051961Y-44181961D01*
X147218061Y-44215000D01*
X147421939Y-44215000D01*
X147621898Y-44175226D01*
X147810256Y-44097205D01*
X147979774Y-43983937D01*
X148123937Y-43839774D01*
X148237205Y-43670256D01*
X148315226Y-43481898D01*
X148355000Y-43281939D01*
X148355000Y-43078061D01*
X148315226Y-42878102D01*
X148237205Y-42689744D01*
X148123937Y-42520226D01*
X147979774Y-42376063D01*
X147910836Y-42330000D01*
X148371928Y-42330000D01*
X148371928Y-44030000D01*
X148384188Y-44154482D01*
X148420498Y-44274180D01*
X148479463Y-44384494D01*
X148558815Y-44481185D01*
X148655506Y-44560537D01*
X148765820Y-44619502D01*
X148846466Y-44643966D01*
X148762412Y-44719731D01*
X148588359Y-44953080D01*
X148463175Y-45215901D01*
X148418524Y-45363110D01*
X148539845Y-45593000D01*
X149733000Y-45593000D01*
X149733000Y-45573000D01*
X149987000Y-45573000D01*
X149987000Y-45593000D01*
X152273000Y-45593000D01*
X152273000Y-45573000D01*
X152527000Y-45573000D01*
X152527000Y-45593000D01*
X153720155Y-45593000D01*
X153841476Y-45363110D01*
X153796825Y-45215901D01*
X153671641Y-44953080D01*
X153497588Y-44719731D01*
X153281355Y-44524822D01*
X153164466Y-44455195D01*
X153346632Y-44333475D01*
X153553475Y-44126632D01*
X153715990Y-43883411D01*
X153827932Y-43613158D01*
X153885000Y-43326260D01*
X153885000Y-43033740D01*
X153827932Y-42746842D01*
X153715990Y-42476589D01*
X153553475Y-42233368D01*
X153346632Y-42026525D01*
X153103411Y-41864010D01*
X152833158Y-41752068D01*
X152546260Y-41695000D01*
X152253740Y-41695000D01*
X151966842Y-41752068D01*
X151696589Y-41864010D01*
X151453368Y-42026525D01*
X151321513Y-42158380D01*
X151299502Y-42085820D01*
X151240537Y-41975506D01*
X151161185Y-41878815D01*
X151064494Y-41799463D01*
X150954180Y-41740498D01*
X150834482Y-41704188D01*
X150710000Y-41691928D01*
X149010000Y-41691928D01*
X148885518Y-41704188D01*
X148765820Y-41740498D01*
X148655506Y-41799463D01*
X148558815Y-41878815D01*
X148479463Y-41975506D01*
X148420498Y-42085820D01*
X148384188Y-42205518D01*
X148371928Y-42330000D01*
X147910836Y-42330000D01*
X147810256Y-42262795D01*
X147621898Y-42184774D01*
X147421939Y-42145000D01*
X147218061Y-42145000D01*
X147018102Y-42184774D01*
X146829744Y-42262795D01*
X146660226Y-42376063D01*
X146616289Y-42420000D01*
X138169424Y-42420000D01*
X138237446Y-42266864D01*
X138254119Y-42211874D01*
X138127954Y-42037000D01*
X137287000Y-42037000D01*
X137287000Y-42048026D01*
X137271788Y-42045000D01*
X137048212Y-42045000D01*
X137033000Y-42048026D01*
X137033000Y-42037000D01*
X136192046Y-42037000D01*
X136065881Y-42211874D01*
X136082554Y-42266864D01*
X136172877Y-42470206D01*
X136222353Y-42540342D01*
X136154176Y-42642376D01*
X136068617Y-42848933D01*
X136025000Y-43068212D01*
X136025000Y-43291788D01*
X136068617Y-43511067D01*
X136154176Y-43717624D01*
X136219241Y-43815000D01*
X136154176Y-43912376D01*
X136068617Y-44118933D01*
X136025000Y-44338212D01*
X136025000Y-44561788D01*
X136068617Y-44781067D01*
X136154176Y-44987624D01*
X136219241Y-45085000D01*
X136154176Y-45182376D01*
X136068617Y-45388933D01*
X136025000Y-45608212D01*
X136025000Y-45831788D01*
X136068617Y-46051067D01*
X136154176Y-46257624D01*
X136219241Y-46355000D01*
X136154176Y-46452376D01*
X136068617Y-46658933D01*
X136025000Y-46878212D01*
X136025000Y-47101788D01*
X136068617Y-47321067D01*
X136154176Y-47527624D01*
X136219241Y-47625000D01*
X136154176Y-47722376D01*
X136068617Y-47928933D01*
X136025000Y-48148212D01*
X136025000Y-48371788D01*
X136068617Y-48591067D01*
X136154176Y-48797624D01*
X136219241Y-48895000D01*
X136154176Y-48992376D01*
X136068617Y-49198933D01*
X136025000Y-49418212D01*
X136025000Y-49641788D01*
X136068617Y-49861067D01*
X136154176Y-50067624D01*
X136219241Y-50165000D01*
X136154176Y-50262376D01*
X136068617Y-50468933D01*
X136025000Y-50688212D01*
X136025000Y-50911788D01*
X136068617Y-51131067D01*
X136154176Y-51337624D01*
X136219241Y-51435000D01*
X136154176Y-51532376D01*
X136068617Y-51738933D01*
X136025000Y-51958212D01*
X136025000Y-52181788D01*
X136068617Y-52401067D01*
X136154176Y-52607624D01*
X136219241Y-52705000D01*
X136154176Y-52802376D01*
X136068617Y-53008933D01*
X136025000Y-53228212D01*
X136025000Y-53451788D01*
X136068617Y-53671067D01*
X136154176Y-53877624D01*
X136219241Y-53975000D01*
X136154176Y-54072376D01*
X136068617Y-54278933D01*
X136025000Y-54498212D01*
X136025000Y-54721788D01*
X136068617Y-54941067D01*
X136114888Y-55052774D01*
X136070498Y-55135820D01*
X136034188Y-55255518D01*
X136021928Y-55380000D01*
X134010000Y-55380000D01*
X134010000Y-41608126D01*
X136065881Y-41608126D01*
X136192046Y-41783000D01*
X137033000Y-41783000D01*
X137033000Y-40940871D01*
X137287000Y-40940871D01*
X137287000Y-41783000D01*
X138127954Y-41783000D01*
X138254119Y-41608126D01*
X138237446Y-41553136D01*
X138147123Y-41349794D01*
X138018865Y-41167980D01*
X137857601Y-41014682D01*
X137669529Y-40895790D01*
X137461876Y-40815874D01*
X137287000Y-40940871D01*
X137033000Y-40940871D01*
X136858124Y-40815874D01*
X136650471Y-40895790D01*
X136462399Y-41014682D01*
X136301135Y-41167980D01*
X136172877Y-41349794D01*
X136082554Y-41553136D01*
X136065881Y-41608126D01*
X134010000Y-41608126D01*
X134010000Y-40030000D01*
X155550001Y-40030000D01*
X155550000Y-59030000D01*
%TA.AperFunction,Conductor*%
D17*
G36*
X155550000Y-59030000D02*
G01*
X134010000Y-59030000D01*
X134010000Y-56380000D01*
X136021928Y-56380000D01*
X136034188Y-56504482D01*
X136070498Y-56624180D01*
X136129463Y-56734494D01*
X136208815Y-56831185D01*
X136305506Y-56910537D01*
X136415820Y-56969502D01*
X136535518Y-57005812D01*
X136660000Y-57018072D01*
X136874250Y-57015000D01*
X137033000Y-56856250D01*
X137033000Y-56007000D01*
X137287000Y-56007000D01*
X137287000Y-56856250D01*
X137445750Y-57015000D01*
X137660000Y-57018072D01*
X137784482Y-57005812D01*
X137904180Y-56969502D01*
X138014494Y-56910537D01*
X138111185Y-56831185D01*
X138190537Y-56734494D01*
X138249502Y-56624180D01*
X138285812Y-56504482D01*
X138298072Y-56380000D01*
X138295000Y-56165750D01*
X138136250Y-56007000D01*
X137287000Y-56007000D01*
X137033000Y-56007000D01*
X136183750Y-56007000D01*
X136025000Y-56165750D01*
X136021928Y-56380000D01*
X134010000Y-56380000D01*
X134010000Y-55380000D01*
X136021928Y-55380000D01*
X136025000Y-55594250D01*
X136183750Y-55753000D01*
X137033000Y-55753000D01*
X137033000Y-55741974D01*
X137048212Y-55745000D01*
X137271788Y-55745000D01*
X137287000Y-55741974D01*
X137287000Y-55753000D01*
X138136250Y-55753000D01*
X138295000Y-55594250D01*
X138298072Y-55380000D01*
X138297087Y-55370000D01*
X140065987Y-55370000D01*
X140052795Y-55389744D01*
X139974774Y-55578102D01*
X139935000Y-55778061D01*
X139935000Y-55981939D01*
X139974774Y-56181898D01*
X140052795Y-56370256D01*
X140166063Y-56539774D01*
X140310226Y-56683937D01*
X140479744Y-56797205D01*
X140668102Y-56875226D01*
X140868061Y-56915000D01*
X141071939Y-56915000D01*
X141271898Y-56875226D01*
X141460256Y-56797205D01*
X141629774Y-56683937D01*
X141673711Y-56640000D01*
X148581822Y-56640000D01*
X148706525Y-56826632D01*
X148913368Y-57033475D01*
X149156589Y-57195990D01*
X149426842Y-57307932D01*
X149713740Y-57365000D01*
X150006260Y-57365000D01*
X150293158Y-57307932D01*
X150563411Y-57195990D01*
X150806632Y-57033475D01*
X151013475Y-56826632D01*
X151130000Y-56652240D01*
X151246525Y-56826632D01*
X151453368Y-57033475D01*
X151696589Y-57195990D01*
X151966842Y-57307932D01*
X152253740Y-57365000D01*
X152546260Y-57365000D01*
X152833158Y-57307932D01*
X153103411Y-57195990D01*
X153346632Y-57033475D01*
X153553475Y-56826632D01*
X153715990Y-56583411D01*
X153827932Y-56313158D01*
X153885000Y-56026260D01*
X153885000Y-55733740D01*
X153827932Y-55446842D01*
X153715990Y-55176589D01*
X153553475Y-54933368D01*
X153346632Y-54726525D01*
X153172240Y-54610000D01*
X153346632Y-54493475D01*
X153553475Y-54286632D01*
X153715990Y-54043411D01*
X153827932Y-53773158D01*
X153885000Y-53486260D01*
X153885000Y-53193740D01*
X153827932Y-52906842D01*
X153715990Y-52636589D01*
X153553475Y-52393368D01*
X153346632Y-52186525D01*
X153172240Y-52070000D01*
X153346632Y-51953475D01*
X153553475Y-51746632D01*
X153715990Y-51503411D01*
X153827932Y-51233158D01*
X153885000Y-50946260D01*
X153885000Y-50653740D01*
X153827932Y-50366842D01*
X153715990Y-50096589D01*
X153553475Y-49853368D01*
X153346632Y-49646525D01*
X153172240Y-49530000D01*
X153346632Y-49413475D01*
X153553475Y-49206632D01*
X153715990Y-48963411D01*
X153827932Y-48693158D01*
X153885000Y-48406260D01*
X153885000Y-48113740D01*
X153827932Y-47826842D01*
X153715990Y-47556589D01*
X153553475Y-47313368D01*
X153346632Y-47106525D01*
X153164466Y-46984805D01*
X153281355Y-46915178D01*
X153497588Y-46720269D01*
X153671641Y-46486920D01*
X153796825Y-46224099D01*
X153841476Y-46076890D01*
X153720155Y-45847000D01*
X152527000Y-45847000D01*
X152527000Y-45867000D01*
X152273000Y-45867000D01*
X152273000Y-45847000D01*
X149987000Y-45847000D01*
X149987000Y-45867000D01*
X149733000Y-45867000D01*
X149733000Y-45847000D01*
X148539845Y-45847000D01*
X148418524Y-46076890D01*
X148463175Y-46224099D01*
X148465986Y-46230000D01*
X141874013Y-46230000D01*
X141887205Y-46210256D01*
X141965226Y-46021898D01*
X142005000Y-45821939D01*
X142005000Y-45618061D01*
X141965226Y-45418102D01*
X141887205Y-45229744D01*
X141874013Y-45210000D01*
X145346289Y-45210000D01*
X145390226Y-45253937D01*
X145559744Y-45367205D01*
X145748102Y-45445226D01*
X145948061Y-45485000D01*
X146151939Y-45485000D01*
X146351898Y-45445226D01*
X146540256Y-45367205D01*
X146709774Y-45253937D01*
X146853937Y-45109774D01*
X146967205Y-44940256D01*
X147045226Y-44751898D01*
X147085000Y-44551939D01*
X147085000Y-44348061D01*
X147051961Y-44181961D01*
X147218061Y-44215000D01*
X147421939Y-44215000D01*
X147621898Y-44175226D01*
X147810256Y-44097205D01*
X147979774Y-43983937D01*
X148123937Y-43839774D01*
X148237205Y-43670256D01*
X148315226Y-43481898D01*
X148355000Y-43281939D01*
X148355000Y-43078061D01*
X148315226Y-42878102D01*
X148237205Y-42689744D01*
X148123937Y-42520226D01*
X147979774Y-42376063D01*
X147910836Y-42330000D01*
X148371928Y-42330000D01*
X148371928Y-44030000D01*
X148384188Y-44154482D01*
X148420498Y-44274180D01*
X148479463Y-44384494D01*
X148558815Y-44481185D01*
X148655506Y-44560537D01*
X148765820Y-44619502D01*
X148846466Y-44643966D01*
X148762412Y-44719731D01*
X148588359Y-44953080D01*
X148463175Y-45215901D01*
X148418524Y-45363110D01*
X148539845Y-45593000D01*
X149733000Y-45593000D01*
X149733000Y-45573000D01*
X149987000Y-45573000D01*
X149987000Y-45593000D01*
X152273000Y-45593000D01*
X152273000Y-45573000D01*
X152527000Y-45573000D01*
X152527000Y-45593000D01*
X153720155Y-45593000D01*
X153841476Y-45363110D01*
X153796825Y-45215901D01*
X153671641Y-44953080D01*
X153497588Y-44719731D01*
X153281355Y-44524822D01*
X153164466Y-44455195D01*
X153346632Y-44333475D01*
X153553475Y-44126632D01*
X153715990Y-43883411D01*
X153827932Y-43613158D01*
X153885000Y-43326260D01*
X153885000Y-43033740D01*
X153827932Y-42746842D01*
X153715990Y-42476589D01*
X153553475Y-42233368D01*
X153346632Y-42026525D01*
X153103411Y-41864010D01*
X152833158Y-41752068D01*
X152546260Y-41695000D01*
X152253740Y-41695000D01*
X151966842Y-41752068D01*
X151696589Y-41864010D01*
X151453368Y-42026525D01*
X151321513Y-42158380D01*
X151299502Y-42085820D01*
X151240537Y-41975506D01*
X151161185Y-41878815D01*
X151064494Y-41799463D01*
X150954180Y-41740498D01*
X150834482Y-41704188D01*
X150710000Y-41691928D01*
X149010000Y-41691928D01*
X148885518Y-41704188D01*
X148765820Y-41740498D01*
X148655506Y-41799463D01*
X148558815Y-41878815D01*
X148479463Y-41975506D01*
X148420498Y-42085820D01*
X148384188Y-42205518D01*
X148371928Y-42330000D01*
X147910836Y-42330000D01*
X147810256Y-42262795D01*
X147621898Y-42184774D01*
X147421939Y-42145000D01*
X147218061Y-42145000D01*
X147018102Y-42184774D01*
X146829744Y-42262795D01*
X146660226Y-42376063D01*
X146616289Y-42420000D01*
X138169424Y-42420000D01*
X138237446Y-42266864D01*
X138254119Y-42211874D01*
X138127954Y-42037000D01*
X137287000Y-42037000D01*
X137287000Y-42048026D01*
X137271788Y-42045000D01*
X137048212Y-42045000D01*
X137033000Y-42048026D01*
X137033000Y-42037000D01*
X136192046Y-42037000D01*
X136065881Y-42211874D01*
X136082554Y-42266864D01*
X136172877Y-42470206D01*
X136222353Y-42540342D01*
X136154176Y-42642376D01*
X136068617Y-42848933D01*
X136025000Y-43068212D01*
X136025000Y-43291788D01*
X136068617Y-43511067D01*
X136154176Y-43717624D01*
X136219241Y-43815000D01*
X136154176Y-43912376D01*
X136068617Y-44118933D01*
X136025000Y-44338212D01*
X136025000Y-44561788D01*
X136068617Y-44781067D01*
X136154176Y-44987624D01*
X136219241Y-45085000D01*
X136154176Y-45182376D01*
X136068617Y-45388933D01*
X136025000Y-45608212D01*
X136025000Y-45831788D01*
X136068617Y-46051067D01*
X136154176Y-46257624D01*
X136219241Y-46355000D01*
X136154176Y-46452376D01*
X136068617Y-46658933D01*
X136025000Y-46878212D01*
X136025000Y-47101788D01*
X136068617Y-47321067D01*
X136154176Y-47527624D01*
X136219241Y-47625000D01*
X136154176Y-47722376D01*
X136068617Y-47928933D01*
X136025000Y-48148212D01*
X136025000Y-48371788D01*
X136068617Y-48591067D01*
X136154176Y-48797624D01*
X136219241Y-48895000D01*
X136154176Y-48992376D01*
X136068617Y-49198933D01*
X136025000Y-49418212D01*
X136025000Y-49641788D01*
X136068617Y-49861067D01*
X136154176Y-50067624D01*
X136219241Y-50165000D01*
X136154176Y-50262376D01*
X136068617Y-50468933D01*
X136025000Y-50688212D01*
X136025000Y-50911788D01*
X136068617Y-51131067D01*
X136154176Y-51337624D01*
X136219241Y-51435000D01*
X136154176Y-51532376D01*
X136068617Y-51738933D01*
X136025000Y-51958212D01*
X136025000Y-52181788D01*
X136068617Y-52401067D01*
X136154176Y-52607624D01*
X136219241Y-52705000D01*
X136154176Y-52802376D01*
X136068617Y-53008933D01*
X136025000Y-53228212D01*
X136025000Y-53451788D01*
X136068617Y-53671067D01*
X136154176Y-53877624D01*
X136219241Y-53975000D01*
X136154176Y-54072376D01*
X136068617Y-54278933D01*
X136025000Y-54498212D01*
X136025000Y-54721788D01*
X136068617Y-54941067D01*
X136114888Y-55052774D01*
X136070498Y-55135820D01*
X136034188Y-55255518D01*
X136021928Y-55380000D01*
X134010000Y-55380000D01*
X134010000Y-41608126D01*
X136065881Y-41608126D01*
X136192046Y-41783000D01*
X137033000Y-41783000D01*
X137033000Y-40940871D01*
X137287000Y-40940871D01*
X137287000Y-41783000D01*
X138127954Y-41783000D01*
X138254119Y-41608126D01*
X138237446Y-41553136D01*
X138147123Y-41349794D01*
X138018865Y-41167980D01*
X137857601Y-41014682D01*
X137669529Y-40895790D01*
X137461876Y-40815874D01*
X137287000Y-40940871D01*
X137033000Y-40940871D01*
X136858124Y-40815874D01*
X136650471Y-40895790D01*
X136462399Y-41014682D01*
X136301135Y-41167980D01*
X136172877Y-41349794D01*
X136082554Y-41553136D01*
X136065881Y-41608126D01*
X134010000Y-41608126D01*
X134010000Y-40030000D01*
X155550001Y-40030000D01*
X155550000Y-59030000D01*
G37*
%TD.AperFunction*%
%TD*%
M02*
