%TF.GenerationSoftware,KiCad,Pcbnew,7.0.10*%
%TF.CreationDate,2024-01-02T11:24:53+01:00*%
%TF.ProjectId,sim800x_break,73696d38-3030-4785-9f62-7265616b2e6b,rev?*%
%TF.SameCoordinates,Original*%
%TF.FileFunction,Legend,Top*%
%TF.FilePolarity,Positive*%
%FSLAX46Y46*%
G04 Gerber Fmt 4.6, Leading zero omitted, Abs format (unit mm)*
G04 Created by KiCad (PCBNEW 7.0.10) date 2024-01-02 11:24:53*
%MOMM*%
%LPD*%
G01*
G04 APERTURE LIST*
%ADD10C,0.150000*%
%ADD11C,0.120000*%
G04 APERTURE END LIST*
D10*
X107315000Y-50800000D02*
X106680000Y-50800000D01*
X104140000Y-45720000D02*
X107315000Y-45720000D01*
X107315000Y-45720000D02*
X107315000Y-50800000D01*
X104140000Y-44450000D02*
X104140000Y-45720000D01*
X105410000Y-38100000D02*
X114300000Y-38100000D01*
X114300000Y-44450000D01*
X105410000Y-44450000D01*
X105410000Y-38100000D01*
X81280000Y-55880000D02*
X81280000Y-52070000D01*
X102235000Y-55880000D02*
X107315000Y-55880000D01*
X81280000Y-52070000D02*
X72390000Y-52070000D01*
X95250000Y-55880000D02*
X81280000Y-55880000D01*
X102870000Y-44450000D02*
X95504000Y-44450000D01*
X107315000Y-50800000D02*
X107315000Y-55880000D01*
X99695000Y-50800000D02*
X106680000Y-50800000D01*
X95504000Y-44450000D02*
X95504000Y-38100000D01*
X105410000Y-44450000D02*
X102870000Y-44450000D01*
X94615000Y-50800000D02*
X99695000Y-50800000D01*
X123825000Y-52705000D02*
X107315000Y-52705000D01*
X94615000Y-55880000D02*
X94615000Y-50800000D01*
X95250000Y-55880000D02*
X102235000Y-55880000D01*
X111423220Y-43691133D02*
X110661316Y-43691133D01*
X84109160Y-130632200D02*
X84252017Y-130679819D01*
X84252017Y-130679819D02*
X84490112Y-130679819D01*
X84490112Y-130679819D02*
X84585350Y-130632200D01*
X84585350Y-130632200D02*
X84632969Y-130584580D01*
X84632969Y-130584580D02*
X84680588Y-130489342D01*
X84680588Y-130489342D02*
X84680588Y-130394104D01*
X84680588Y-130394104D02*
X84632969Y-130298866D01*
X84632969Y-130298866D02*
X84585350Y-130251247D01*
X84585350Y-130251247D02*
X84490112Y-130203628D01*
X84490112Y-130203628D02*
X84299636Y-130156009D01*
X84299636Y-130156009D02*
X84204398Y-130108390D01*
X84204398Y-130108390D02*
X84156779Y-130060771D01*
X84156779Y-130060771D02*
X84109160Y-129965533D01*
X84109160Y-129965533D02*
X84109160Y-129870295D01*
X84109160Y-129870295D02*
X84156779Y-129775057D01*
X84156779Y-129775057D02*
X84204398Y-129727438D01*
X84204398Y-129727438D02*
X84299636Y-129679819D01*
X84299636Y-129679819D02*
X84537731Y-129679819D01*
X84537731Y-129679819D02*
X84680588Y-129727438D01*
X85109160Y-130679819D02*
X85109160Y-129679819D01*
X85109160Y-129679819D02*
X85490112Y-129679819D01*
X85490112Y-129679819D02*
X85585350Y-129727438D01*
X85585350Y-129727438D02*
X85632969Y-129775057D01*
X85632969Y-129775057D02*
X85680588Y-129870295D01*
X85680588Y-129870295D02*
X85680588Y-130013152D01*
X85680588Y-130013152D02*
X85632969Y-130108390D01*
X85632969Y-130108390D02*
X85585350Y-130156009D01*
X85585350Y-130156009D02*
X85490112Y-130203628D01*
X85490112Y-130203628D02*
X85109160Y-130203628D01*
X86109160Y-130679819D02*
X86109160Y-129679819D01*
X86680588Y-130679819D02*
X86252017Y-130108390D01*
X86680588Y-129679819D02*
X86109160Y-130251247D01*
X81616779Y-63904819D02*
X81616779Y-62904819D01*
X81616779Y-62904819D02*
X81950112Y-63619104D01*
X81950112Y-63619104D02*
X82283445Y-62904819D01*
X82283445Y-62904819D02*
X82283445Y-63904819D01*
X82950112Y-62904819D02*
X83140588Y-62904819D01*
X83140588Y-62904819D02*
X83235826Y-62952438D01*
X83235826Y-62952438D02*
X83331064Y-63047676D01*
X83331064Y-63047676D02*
X83378683Y-63238152D01*
X83378683Y-63238152D02*
X83378683Y-63571485D01*
X83378683Y-63571485D02*
X83331064Y-63761961D01*
X83331064Y-63761961D02*
X83235826Y-63857200D01*
X83235826Y-63857200D02*
X83140588Y-63904819D01*
X83140588Y-63904819D02*
X82950112Y-63904819D01*
X82950112Y-63904819D02*
X82854874Y-63857200D01*
X82854874Y-63857200D02*
X82759636Y-63761961D01*
X82759636Y-63761961D02*
X82712017Y-63571485D01*
X82712017Y-63571485D02*
X82712017Y-63238152D01*
X82712017Y-63238152D02*
X82759636Y-63047676D01*
X82759636Y-63047676D02*
X82854874Y-62952438D01*
X82854874Y-62952438D02*
X82950112Y-62904819D01*
X83807255Y-63904819D02*
X83807255Y-62904819D01*
X83807255Y-62904819D02*
X84045350Y-62904819D01*
X84045350Y-62904819D02*
X84188207Y-62952438D01*
X84188207Y-62952438D02*
X84283445Y-63047676D01*
X84283445Y-63047676D02*
X84331064Y-63142914D01*
X84331064Y-63142914D02*
X84378683Y-63333390D01*
X84378683Y-63333390D02*
X84378683Y-63476247D01*
X84378683Y-63476247D02*
X84331064Y-63666723D01*
X84331064Y-63666723D02*
X84283445Y-63761961D01*
X84283445Y-63761961D02*
X84188207Y-63857200D01*
X84188207Y-63857200D02*
X84045350Y-63904819D01*
X84045350Y-63904819D02*
X83807255Y-63904819D01*
X84807255Y-63381009D02*
X85140588Y-63381009D01*
X85283445Y-63904819D02*
X84807255Y-63904819D01*
X84807255Y-63904819D02*
X84807255Y-62904819D01*
X84807255Y-62904819D02*
X85283445Y-62904819D01*
X85712017Y-63904819D02*
X85712017Y-62904819D01*
X85712017Y-62904819D02*
X86045350Y-63619104D01*
X86045350Y-63619104D02*
X86378683Y-62904819D01*
X86378683Y-62904819D02*
X86378683Y-63904819D01*
X87616779Y-63904819D02*
X87616779Y-62904819D01*
X87616779Y-62904819D02*
X87997731Y-62904819D01*
X87997731Y-62904819D02*
X88092969Y-62952438D01*
X88092969Y-62952438D02*
X88140588Y-63000057D01*
X88140588Y-63000057D02*
X88188207Y-63095295D01*
X88188207Y-63095295D02*
X88188207Y-63238152D01*
X88188207Y-63238152D02*
X88140588Y-63333390D01*
X88140588Y-63333390D02*
X88092969Y-63381009D01*
X88092969Y-63381009D02*
X87997731Y-63428628D01*
X87997731Y-63428628D02*
X87616779Y-63428628D01*
X88616779Y-63904819D02*
X88616779Y-62904819D01*
X88616779Y-62904819D02*
X88950112Y-63619104D01*
X88950112Y-63619104D02*
X89283445Y-62904819D01*
X89283445Y-62904819D02*
X89283445Y-63904819D01*
X89950112Y-62904819D02*
X90140588Y-62904819D01*
X90140588Y-62904819D02*
X90235826Y-62952438D01*
X90235826Y-62952438D02*
X90331064Y-63047676D01*
X90331064Y-63047676D02*
X90378683Y-63238152D01*
X90378683Y-63238152D02*
X90378683Y-63571485D01*
X90378683Y-63571485D02*
X90331064Y-63761961D01*
X90331064Y-63761961D02*
X90235826Y-63857200D01*
X90235826Y-63857200D02*
X90140588Y-63904819D01*
X90140588Y-63904819D02*
X89950112Y-63904819D01*
X89950112Y-63904819D02*
X89854874Y-63857200D01*
X89854874Y-63857200D02*
X89759636Y-63761961D01*
X89759636Y-63761961D02*
X89712017Y-63571485D01*
X89712017Y-63571485D02*
X89712017Y-63238152D01*
X89712017Y-63238152D02*
X89759636Y-63047676D01*
X89759636Y-63047676D02*
X89854874Y-62952438D01*
X89854874Y-62952438D02*
X89950112Y-62904819D01*
X90807255Y-63904819D02*
X90807255Y-62904819D01*
X90807255Y-62904819D02*
X91045350Y-62904819D01*
X91045350Y-62904819D02*
X91188207Y-62952438D01*
X91188207Y-62952438D02*
X91283445Y-63047676D01*
X91283445Y-63047676D02*
X91331064Y-63142914D01*
X91331064Y-63142914D02*
X91378683Y-63333390D01*
X91378683Y-63333390D02*
X91378683Y-63476247D01*
X91378683Y-63476247D02*
X91331064Y-63666723D01*
X91331064Y-63666723D02*
X91283445Y-63761961D01*
X91283445Y-63761961D02*
X91188207Y-63857200D01*
X91188207Y-63857200D02*
X91045350Y-63904819D01*
X91045350Y-63904819D02*
X90807255Y-63904819D01*
X81569160Y-65467200D02*
X81712017Y-65514819D01*
X81712017Y-65514819D02*
X81950112Y-65514819D01*
X81950112Y-65514819D02*
X82045350Y-65467200D01*
X82045350Y-65467200D02*
X82092969Y-65419580D01*
X82092969Y-65419580D02*
X82140588Y-65324342D01*
X82140588Y-65324342D02*
X82140588Y-65229104D01*
X82140588Y-65229104D02*
X82092969Y-65133866D01*
X82092969Y-65133866D02*
X82045350Y-65086247D01*
X82045350Y-65086247D02*
X81950112Y-65038628D01*
X81950112Y-65038628D02*
X81759636Y-64991009D01*
X81759636Y-64991009D02*
X81664398Y-64943390D01*
X81664398Y-64943390D02*
X81616779Y-64895771D01*
X81616779Y-64895771D02*
X81569160Y-64800533D01*
X81569160Y-64800533D02*
X81569160Y-64705295D01*
X81569160Y-64705295D02*
X81616779Y-64610057D01*
X81616779Y-64610057D02*
X81664398Y-64562438D01*
X81664398Y-64562438D02*
X81759636Y-64514819D01*
X81759636Y-64514819D02*
X81997731Y-64514819D01*
X81997731Y-64514819D02*
X82140588Y-64562438D01*
X82569160Y-65514819D02*
X82569160Y-64514819D01*
X83045350Y-65514819D02*
X83045350Y-64514819D01*
X83045350Y-64514819D02*
X83378683Y-65229104D01*
X83378683Y-65229104D02*
X83712016Y-64514819D01*
X83712016Y-64514819D02*
X83712016Y-65514819D01*
X84331064Y-64943390D02*
X84235826Y-64895771D01*
X84235826Y-64895771D02*
X84188207Y-64848152D01*
X84188207Y-64848152D02*
X84140588Y-64752914D01*
X84140588Y-64752914D02*
X84140588Y-64705295D01*
X84140588Y-64705295D02*
X84188207Y-64610057D01*
X84188207Y-64610057D02*
X84235826Y-64562438D01*
X84235826Y-64562438D02*
X84331064Y-64514819D01*
X84331064Y-64514819D02*
X84521540Y-64514819D01*
X84521540Y-64514819D02*
X84616778Y-64562438D01*
X84616778Y-64562438D02*
X84664397Y-64610057D01*
X84664397Y-64610057D02*
X84712016Y-64705295D01*
X84712016Y-64705295D02*
X84712016Y-64752914D01*
X84712016Y-64752914D02*
X84664397Y-64848152D01*
X84664397Y-64848152D02*
X84616778Y-64895771D01*
X84616778Y-64895771D02*
X84521540Y-64943390D01*
X84521540Y-64943390D02*
X84331064Y-64943390D01*
X84331064Y-64943390D02*
X84235826Y-64991009D01*
X84235826Y-64991009D02*
X84188207Y-65038628D01*
X84188207Y-65038628D02*
X84140588Y-65133866D01*
X84140588Y-65133866D02*
X84140588Y-65324342D01*
X84140588Y-65324342D02*
X84188207Y-65419580D01*
X84188207Y-65419580D02*
X84235826Y-65467200D01*
X84235826Y-65467200D02*
X84331064Y-65514819D01*
X84331064Y-65514819D02*
X84521540Y-65514819D01*
X84521540Y-65514819D02*
X84616778Y-65467200D01*
X84616778Y-65467200D02*
X84664397Y-65419580D01*
X84664397Y-65419580D02*
X84712016Y-65324342D01*
X84712016Y-65324342D02*
X84712016Y-65133866D01*
X84712016Y-65133866D02*
X84664397Y-65038628D01*
X84664397Y-65038628D02*
X84616778Y-64991009D01*
X84616778Y-64991009D02*
X84521540Y-64943390D01*
X85331064Y-64514819D02*
X85426302Y-64514819D01*
X85426302Y-64514819D02*
X85521540Y-64562438D01*
X85521540Y-64562438D02*
X85569159Y-64610057D01*
X85569159Y-64610057D02*
X85616778Y-64705295D01*
X85616778Y-64705295D02*
X85664397Y-64895771D01*
X85664397Y-64895771D02*
X85664397Y-65133866D01*
X85664397Y-65133866D02*
X85616778Y-65324342D01*
X85616778Y-65324342D02*
X85569159Y-65419580D01*
X85569159Y-65419580D02*
X85521540Y-65467200D01*
X85521540Y-65467200D02*
X85426302Y-65514819D01*
X85426302Y-65514819D02*
X85331064Y-65514819D01*
X85331064Y-65514819D02*
X85235826Y-65467200D01*
X85235826Y-65467200D02*
X85188207Y-65419580D01*
X85188207Y-65419580D02*
X85140588Y-65324342D01*
X85140588Y-65324342D02*
X85092969Y-65133866D01*
X85092969Y-65133866D02*
X85092969Y-64895771D01*
X85092969Y-64895771D02*
X85140588Y-64705295D01*
X85140588Y-64705295D02*
X85188207Y-64610057D01*
X85188207Y-64610057D02*
X85235826Y-64562438D01*
X85235826Y-64562438D02*
X85331064Y-64514819D01*
X86283445Y-64514819D02*
X86378683Y-64514819D01*
X86378683Y-64514819D02*
X86473921Y-64562438D01*
X86473921Y-64562438D02*
X86521540Y-64610057D01*
X86521540Y-64610057D02*
X86569159Y-64705295D01*
X86569159Y-64705295D02*
X86616778Y-64895771D01*
X86616778Y-64895771D02*
X86616778Y-65133866D01*
X86616778Y-65133866D02*
X86569159Y-65324342D01*
X86569159Y-65324342D02*
X86521540Y-65419580D01*
X86521540Y-65419580D02*
X86473921Y-65467200D01*
X86473921Y-65467200D02*
X86378683Y-65514819D01*
X86378683Y-65514819D02*
X86283445Y-65514819D01*
X86283445Y-65514819D02*
X86188207Y-65467200D01*
X86188207Y-65467200D02*
X86140588Y-65419580D01*
X86140588Y-65419580D02*
X86092969Y-65324342D01*
X86092969Y-65324342D02*
X86045350Y-65133866D01*
X86045350Y-65133866D02*
X86045350Y-64895771D01*
X86045350Y-64895771D02*
X86092969Y-64705295D01*
X86092969Y-64705295D02*
X86140588Y-64610057D01*
X86140588Y-64610057D02*
X86188207Y-64562438D01*
X86188207Y-64562438D02*
X86283445Y-64514819D01*
X86950112Y-65514819D02*
X87473921Y-64848152D01*
X86950112Y-64848152D02*
X87473921Y-65514819D01*
X88950112Y-64991009D02*
X89092969Y-65038628D01*
X89092969Y-65038628D02*
X89140588Y-65086247D01*
X89140588Y-65086247D02*
X89188207Y-65181485D01*
X89188207Y-65181485D02*
X89188207Y-65324342D01*
X89188207Y-65324342D02*
X89140588Y-65419580D01*
X89140588Y-65419580D02*
X89092969Y-65467200D01*
X89092969Y-65467200D02*
X88997731Y-65514819D01*
X88997731Y-65514819D02*
X88616779Y-65514819D01*
X88616779Y-65514819D02*
X88616779Y-64514819D01*
X88616779Y-64514819D02*
X88950112Y-64514819D01*
X88950112Y-64514819D02*
X89045350Y-64562438D01*
X89045350Y-64562438D02*
X89092969Y-64610057D01*
X89092969Y-64610057D02*
X89140588Y-64705295D01*
X89140588Y-64705295D02*
X89140588Y-64800533D01*
X89140588Y-64800533D02*
X89092969Y-64895771D01*
X89092969Y-64895771D02*
X89045350Y-64943390D01*
X89045350Y-64943390D02*
X88950112Y-64991009D01*
X88950112Y-64991009D02*
X88616779Y-64991009D01*
X89616779Y-65514819D02*
X89616779Y-64848152D01*
X89616779Y-65038628D02*
X89664398Y-64943390D01*
X89664398Y-64943390D02*
X89712017Y-64895771D01*
X89712017Y-64895771D02*
X89807255Y-64848152D01*
X89807255Y-64848152D02*
X89902493Y-64848152D01*
X90616779Y-65467200D02*
X90521541Y-65514819D01*
X90521541Y-65514819D02*
X90331065Y-65514819D01*
X90331065Y-65514819D02*
X90235827Y-65467200D01*
X90235827Y-65467200D02*
X90188208Y-65371961D01*
X90188208Y-65371961D02*
X90188208Y-64991009D01*
X90188208Y-64991009D02*
X90235827Y-64895771D01*
X90235827Y-64895771D02*
X90331065Y-64848152D01*
X90331065Y-64848152D02*
X90521541Y-64848152D01*
X90521541Y-64848152D02*
X90616779Y-64895771D01*
X90616779Y-64895771D02*
X90664398Y-64991009D01*
X90664398Y-64991009D02*
X90664398Y-65086247D01*
X90664398Y-65086247D02*
X90188208Y-65181485D01*
X91521541Y-65514819D02*
X91521541Y-64991009D01*
X91521541Y-64991009D02*
X91473922Y-64895771D01*
X91473922Y-64895771D02*
X91378684Y-64848152D01*
X91378684Y-64848152D02*
X91188208Y-64848152D01*
X91188208Y-64848152D02*
X91092970Y-64895771D01*
X91521541Y-65467200D02*
X91426303Y-65514819D01*
X91426303Y-65514819D02*
X91188208Y-65514819D01*
X91188208Y-65514819D02*
X91092970Y-65467200D01*
X91092970Y-65467200D02*
X91045351Y-65371961D01*
X91045351Y-65371961D02*
X91045351Y-65276723D01*
X91045351Y-65276723D02*
X91092970Y-65181485D01*
X91092970Y-65181485D02*
X91188208Y-65133866D01*
X91188208Y-65133866D02*
X91426303Y-65133866D01*
X91426303Y-65133866D02*
X91521541Y-65086247D01*
X91997732Y-65514819D02*
X91997732Y-64514819D01*
X92092970Y-65133866D02*
X92378684Y-65514819D01*
X92378684Y-64848152D02*
X91997732Y-65229104D01*
X92950113Y-65514819D02*
X92854875Y-65467200D01*
X92854875Y-65467200D02*
X92807256Y-65419580D01*
X92807256Y-65419580D02*
X92759637Y-65324342D01*
X92759637Y-65324342D02*
X92759637Y-65038628D01*
X92759637Y-65038628D02*
X92807256Y-64943390D01*
X92807256Y-64943390D02*
X92854875Y-64895771D01*
X92854875Y-64895771D02*
X92950113Y-64848152D01*
X92950113Y-64848152D02*
X93092970Y-64848152D01*
X93092970Y-64848152D02*
X93188208Y-64895771D01*
X93188208Y-64895771D02*
X93235827Y-64943390D01*
X93235827Y-64943390D02*
X93283446Y-65038628D01*
X93283446Y-65038628D02*
X93283446Y-65324342D01*
X93283446Y-65324342D02*
X93235827Y-65419580D01*
X93235827Y-65419580D02*
X93188208Y-65467200D01*
X93188208Y-65467200D02*
X93092970Y-65514819D01*
X93092970Y-65514819D02*
X92950113Y-65514819D01*
X94140589Y-64848152D02*
X94140589Y-65514819D01*
X93712018Y-64848152D02*
X93712018Y-65371961D01*
X93712018Y-65371961D02*
X93759637Y-65467200D01*
X93759637Y-65467200D02*
X93854875Y-65514819D01*
X93854875Y-65514819D02*
X93997732Y-65514819D01*
X93997732Y-65514819D02*
X94092970Y-65467200D01*
X94092970Y-65467200D02*
X94140589Y-65419580D01*
X94473923Y-64848152D02*
X94854875Y-64848152D01*
X94616780Y-64514819D02*
X94616780Y-65371961D01*
X94616780Y-65371961D02*
X94664399Y-65467200D01*
X94664399Y-65467200D02*
X94759637Y-65514819D01*
X94759637Y-65514819D02*
X94854875Y-65514819D01*
X81473922Y-66124819D02*
X81807255Y-67124819D01*
X81807255Y-67124819D02*
X82140588Y-66124819D01*
X82854874Y-67077200D02*
X82759636Y-67124819D01*
X82759636Y-67124819D02*
X82569160Y-67124819D01*
X82569160Y-67124819D02*
X82473922Y-67077200D01*
X82473922Y-67077200D02*
X82426303Y-66981961D01*
X82426303Y-66981961D02*
X82426303Y-66601009D01*
X82426303Y-66601009D02*
X82473922Y-66505771D01*
X82473922Y-66505771D02*
X82569160Y-66458152D01*
X82569160Y-66458152D02*
X82759636Y-66458152D01*
X82759636Y-66458152D02*
X82854874Y-66505771D01*
X82854874Y-66505771D02*
X82902493Y-66601009D01*
X82902493Y-66601009D02*
X82902493Y-66696247D01*
X82902493Y-66696247D02*
X82426303Y-66791485D01*
X83331065Y-67124819D02*
X83331065Y-66458152D01*
X83331065Y-66648628D02*
X83378684Y-66553390D01*
X83378684Y-66553390D02*
X83426303Y-66505771D01*
X83426303Y-66505771D02*
X83521541Y-66458152D01*
X83521541Y-66458152D02*
X83616779Y-66458152D01*
X83902494Y-67077200D02*
X83997732Y-67124819D01*
X83997732Y-67124819D02*
X84188208Y-67124819D01*
X84188208Y-67124819D02*
X84283446Y-67077200D01*
X84283446Y-67077200D02*
X84331065Y-66981961D01*
X84331065Y-66981961D02*
X84331065Y-66934342D01*
X84331065Y-66934342D02*
X84283446Y-66839104D01*
X84283446Y-66839104D02*
X84188208Y-66791485D01*
X84188208Y-66791485D02*
X84045351Y-66791485D01*
X84045351Y-66791485D02*
X83950113Y-66743866D01*
X83950113Y-66743866D02*
X83902494Y-66648628D01*
X83902494Y-66648628D02*
X83902494Y-66601009D01*
X83902494Y-66601009D02*
X83950113Y-66505771D01*
X83950113Y-66505771D02*
X84045351Y-66458152D01*
X84045351Y-66458152D02*
X84188208Y-66458152D01*
X84188208Y-66458152D02*
X84283446Y-66505771D01*
X84759637Y-67124819D02*
X84759637Y-66458152D01*
X84759637Y-66124819D02*
X84712018Y-66172438D01*
X84712018Y-66172438D02*
X84759637Y-66220057D01*
X84759637Y-66220057D02*
X84807256Y-66172438D01*
X84807256Y-66172438D02*
X84759637Y-66124819D01*
X84759637Y-66124819D02*
X84759637Y-66220057D01*
X85378684Y-67124819D02*
X85283446Y-67077200D01*
X85283446Y-67077200D02*
X85235827Y-67029580D01*
X85235827Y-67029580D02*
X85188208Y-66934342D01*
X85188208Y-66934342D02*
X85188208Y-66648628D01*
X85188208Y-66648628D02*
X85235827Y-66553390D01*
X85235827Y-66553390D02*
X85283446Y-66505771D01*
X85283446Y-66505771D02*
X85378684Y-66458152D01*
X85378684Y-66458152D02*
X85521541Y-66458152D01*
X85521541Y-66458152D02*
X85616779Y-66505771D01*
X85616779Y-66505771D02*
X85664398Y-66553390D01*
X85664398Y-66553390D02*
X85712017Y-66648628D01*
X85712017Y-66648628D02*
X85712017Y-66934342D01*
X85712017Y-66934342D02*
X85664398Y-67029580D01*
X85664398Y-67029580D02*
X85616779Y-67077200D01*
X85616779Y-67077200D02*
X85521541Y-67124819D01*
X85521541Y-67124819D02*
X85378684Y-67124819D01*
X86140589Y-66458152D02*
X86140589Y-67124819D01*
X86140589Y-66553390D02*
X86188208Y-66505771D01*
X86188208Y-66505771D02*
X86283446Y-66458152D01*
X86283446Y-66458152D02*
X86426303Y-66458152D01*
X86426303Y-66458152D02*
X86521541Y-66505771D01*
X86521541Y-66505771D02*
X86569160Y-66601009D01*
X86569160Y-66601009D02*
X86569160Y-67124819D01*
X87997732Y-66124819D02*
X88092970Y-66124819D01*
X88092970Y-66124819D02*
X88188208Y-66172438D01*
X88188208Y-66172438D02*
X88235827Y-66220057D01*
X88235827Y-66220057D02*
X88283446Y-66315295D01*
X88283446Y-66315295D02*
X88331065Y-66505771D01*
X88331065Y-66505771D02*
X88331065Y-66743866D01*
X88331065Y-66743866D02*
X88283446Y-66934342D01*
X88283446Y-66934342D02*
X88235827Y-67029580D01*
X88235827Y-67029580D02*
X88188208Y-67077200D01*
X88188208Y-67077200D02*
X88092970Y-67124819D01*
X88092970Y-67124819D02*
X87997732Y-67124819D01*
X87997732Y-67124819D02*
X87902494Y-67077200D01*
X87902494Y-67077200D02*
X87854875Y-67029580D01*
X87854875Y-67029580D02*
X87807256Y-66934342D01*
X87807256Y-66934342D02*
X87759637Y-66743866D01*
X87759637Y-66743866D02*
X87759637Y-66505771D01*
X87759637Y-66505771D02*
X87807256Y-66315295D01*
X87807256Y-66315295D02*
X87854875Y-66220057D01*
X87854875Y-66220057D02*
X87902494Y-66172438D01*
X87902494Y-66172438D02*
X87997732Y-66124819D01*
X88759637Y-67029580D02*
X88807256Y-67077200D01*
X88807256Y-67077200D02*
X88759637Y-67124819D01*
X88759637Y-67124819D02*
X88712018Y-67077200D01*
X88712018Y-67077200D02*
X88759637Y-67029580D01*
X88759637Y-67029580D02*
X88759637Y-67124819D01*
X89140589Y-66124819D02*
X89759636Y-66124819D01*
X89759636Y-66124819D02*
X89426303Y-66505771D01*
X89426303Y-66505771D02*
X89569160Y-66505771D01*
X89569160Y-66505771D02*
X89664398Y-66553390D01*
X89664398Y-66553390D02*
X89712017Y-66601009D01*
X89712017Y-66601009D02*
X89759636Y-66696247D01*
X89759636Y-66696247D02*
X89759636Y-66934342D01*
X89759636Y-66934342D02*
X89712017Y-67029580D01*
X89712017Y-67029580D02*
X89664398Y-67077200D01*
X89664398Y-67077200D02*
X89569160Y-67124819D01*
X89569160Y-67124819D02*
X89283446Y-67124819D01*
X89283446Y-67124819D02*
X89188208Y-67077200D01*
X89188208Y-67077200D02*
X89140589Y-67029580D01*
X104200364Y-130679819D02*
X104200364Y-129679819D01*
X104200364Y-129679819D02*
X104533697Y-130394104D01*
X104533697Y-130394104D02*
X104867030Y-129679819D01*
X104867030Y-129679819D02*
X104867030Y-130679819D01*
X105343221Y-130679819D02*
X105343221Y-129679819D01*
X106390839Y-130584580D02*
X106343220Y-130632200D01*
X106343220Y-130632200D02*
X106200363Y-130679819D01*
X106200363Y-130679819D02*
X106105125Y-130679819D01*
X106105125Y-130679819D02*
X105962268Y-130632200D01*
X105962268Y-130632200D02*
X105867030Y-130536961D01*
X105867030Y-130536961D02*
X105819411Y-130441723D01*
X105819411Y-130441723D02*
X105771792Y-130251247D01*
X105771792Y-130251247D02*
X105771792Y-130108390D01*
X105771792Y-130108390D02*
X105819411Y-129917914D01*
X105819411Y-129917914D02*
X105867030Y-129822676D01*
X105867030Y-129822676D02*
X105962268Y-129727438D01*
X105962268Y-129727438D02*
X106105125Y-129679819D01*
X106105125Y-129679819D02*
X106200363Y-129679819D01*
X106200363Y-129679819D02*
X106343220Y-129727438D01*
X106343220Y-129727438D02*
X106390839Y-129775057D01*
X108883220Y-43691133D02*
X108121316Y-43691133D01*
X108502268Y-43310180D02*
X108502268Y-44072085D01*
X120846071Y-51524819D02*
X120846071Y-52334342D01*
X120846071Y-52334342D02*
X120881785Y-52429580D01*
X120881785Y-52429580D02*
X120917500Y-52477200D01*
X120917500Y-52477200D02*
X120988928Y-52524819D01*
X120988928Y-52524819D02*
X121131785Y-52524819D01*
X121131785Y-52524819D02*
X121203214Y-52477200D01*
X121203214Y-52477200D02*
X121238928Y-52429580D01*
X121238928Y-52429580D02*
X121274642Y-52334342D01*
X121274642Y-52334342D02*
X121274642Y-51524819D01*
X121596071Y-51620057D02*
X121631785Y-51572438D01*
X121631785Y-51572438D02*
X121703214Y-51524819D01*
X121703214Y-51524819D02*
X121881785Y-51524819D01*
X121881785Y-51524819D02*
X121953214Y-51572438D01*
X121953214Y-51572438D02*
X121988928Y-51620057D01*
X121988928Y-51620057D02*
X122024642Y-51715295D01*
X122024642Y-51715295D02*
X122024642Y-51810533D01*
X122024642Y-51810533D02*
X121988928Y-51953390D01*
X121988928Y-51953390D02*
X121560356Y-52524819D01*
X121560356Y-52524819D02*
X122024642Y-52524819D01*
X105918095Y-60414819D02*
X105918095Y-61224342D01*
X105918095Y-61224342D02*
X105965714Y-61319580D01*
X105965714Y-61319580D02*
X106013333Y-61367200D01*
X106013333Y-61367200D02*
X106108571Y-61414819D01*
X106108571Y-61414819D02*
X106299047Y-61414819D01*
X106299047Y-61414819D02*
X106394285Y-61367200D01*
X106394285Y-61367200D02*
X106441904Y-61319580D01*
X106441904Y-61319580D02*
X106489523Y-61224342D01*
X106489523Y-61224342D02*
X106489523Y-60414819D01*
X107013333Y-61414819D02*
X107203809Y-61414819D01*
X107203809Y-61414819D02*
X107299047Y-61367200D01*
X107299047Y-61367200D02*
X107346666Y-61319580D01*
X107346666Y-61319580D02*
X107441904Y-61176723D01*
X107441904Y-61176723D02*
X107489523Y-60986247D01*
X107489523Y-60986247D02*
X107489523Y-60605295D01*
X107489523Y-60605295D02*
X107441904Y-60510057D01*
X107441904Y-60510057D02*
X107394285Y-60462438D01*
X107394285Y-60462438D02*
X107299047Y-60414819D01*
X107299047Y-60414819D02*
X107108571Y-60414819D01*
X107108571Y-60414819D02*
X107013333Y-60462438D01*
X107013333Y-60462438D02*
X106965714Y-60510057D01*
X106965714Y-60510057D02*
X106918095Y-60605295D01*
X106918095Y-60605295D02*
X106918095Y-60843390D01*
X106918095Y-60843390D02*
X106965714Y-60938628D01*
X106965714Y-60938628D02*
X107013333Y-60986247D01*
X107013333Y-60986247D02*
X107108571Y-61033866D01*
X107108571Y-61033866D02*
X107299047Y-61033866D01*
X107299047Y-61033866D02*
X107394285Y-60986247D01*
X107394285Y-60986247D02*
X107441904Y-60938628D01*
X107441904Y-60938628D02*
X107489523Y-60843390D01*
X75440000Y-50619819D02*
X75082857Y-50619819D01*
X75082857Y-50619819D02*
X75082857Y-49619819D01*
X75654286Y-49715057D02*
X75690000Y-49667438D01*
X75690000Y-49667438D02*
X75761429Y-49619819D01*
X75761429Y-49619819D02*
X75940000Y-49619819D01*
X75940000Y-49619819D02*
X76011429Y-49667438D01*
X76011429Y-49667438D02*
X76047143Y-49715057D01*
X76047143Y-49715057D02*
X76082857Y-49810295D01*
X76082857Y-49810295D02*
X76082857Y-49905533D01*
X76082857Y-49905533D02*
X76047143Y-50048390D01*
X76047143Y-50048390D02*
X75618571Y-50619819D01*
X75618571Y-50619819D02*
X76082857Y-50619819D01*
X105284999Y-55699819D02*
X105034999Y-55223628D01*
X104856428Y-55699819D02*
X104856428Y-54699819D01*
X104856428Y-54699819D02*
X105142142Y-54699819D01*
X105142142Y-54699819D02*
X105213571Y-54747438D01*
X105213571Y-54747438D02*
X105249285Y-54795057D01*
X105249285Y-54795057D02*
X105284999Y-54890295D01*
X105284999Y-54890295D02*
X105284999Y-55033152D01*
X105284999Y-55033152D02*
X105249285Y-55128390D01*
X105249285Y-55128390D02*
X105213571Y-55176009D01*
X105213571Y-55176009D02*
X105142142Y-55223628D01*
X105142142Y-55223628D02*
X104856428Y-55223628D01*
X105713571Y-55128390D02*
X105642142Y-55080771D01*
X105642142Y-55080771D02*
X105606428Y-55033152D01*
X105606428Y-55033152D02*
X105570714Y-54937914D01*
X105570714Y-54937914D02*
X105570714Y-54890295D01*
X105570714Y-54890295D02*
X105606428Y-54795057D01*
X105606428Y-54795057D02*
X105642142Y-54747438D01*
X105642142Y-54747438D02*
X105713571Y-54699819D01*
X105713571Y-54699819D02*
X105856428Y-54699819D01*
X105856428Y-54699819D02*
X105927857Y-54747438D01*
X105927857Y-54747438D02*
X105963571Y-54795057D01*
X105963571Y-54795057D02*
X105999285Y-54890295D01*
X105999285Y-54890295D02*
X105999285Y-54937914D01*
X105999285Y-54937914D02*
X105963571Y-55033152D01*
X105963571Y-55033152D02*
X105927857Y-55080771D01*
X105927857Y-55080771D02*
X105856428Y-55128390D01*
X105856428Y-55128390D02*
X105713571Y-55128390D01*
X105713571Y-55128390D02*
X105642142Y-55176009D01*
X105642142Y-55176009D02*
X105606428Y-55223628D01*
X105606428Y-55223628D02*
X105570714Y-55318866D01*
X105570714Y-55318866D02*
X105570714Y-55509342D01*
X105570714Y-55509342D02*
X105606428Y-55604580D01*
X105606428Y-55604580D02*
X105642142Y-55652200D01*
X105642142Y-55652200D02*
X105713571Y-55699819D01*
X105713571Y-55699819D02*
X105856428Y-55699819D01*
X105856428Y-55699819D02*
X105927857Y-55652200D01*
X105927857Y-55652200D02*
X105963571Y-55604580D01*
X105963571Y-55604580D02*
X105999285Y-55509342D01*
X105999285Y-55509342D02*
X105999285Y-55318866D01*
X105999285Y-55318866D02*
X105963571Y-55223628D01*
X105963571Y-55223628D02*
X105927857Y-55176009D01*
X105927857Y-55176009D02*
X105856428Y-55128390D01*
X83694999Y-40364580D02*
X83659285Y-40412200D01*
X83659285Y-40412200D02*
X83552142Y-40459819D01*
X83552142Y-40459819D02*
X83480714Y-40459819D01*
X83480714Y-40459819D02*
X83373571Y-40412200D01*
X83373571Y-40412200D02*
X83302142Y-40316961D01*
X83302142Y-40316961D02*
X83266428Y-40221723D01*
X83266428Y-40221723D02*
X83230714Y-40031247D01*
X83230714Y-40031247D02*
X83230714Y-39888390D01*
X83230714Y-39888390D02*
X83266428Y-39697914D01*
X83266428Y-39697914D02*
X83302142Y-39602676D01*
X83302142Y-39602676D02*
X83373571Y-39507438D01*
X83373571Y-39507438D02*
X83480714Y-39459819D01*
X83480714Y-39459819D02*
X83552142Y-39459819D01*
X83552142Y-39459819D02*
X83659285Y-39507438D01*
X83659285Y-39507438D02*
X83694999Y-39555057D01*
X84052142Y-40459819D02*
X84194999Y-40459819D01*
X84194999Y-40459819D02*
X84266428Y-40412200D01*
X84266428Y-40412200D02*
X84302142Y-40364580D01*
X84302142Y-40364580D02*
X84373571Y-40221723D01*
X84373571Y-40221723D02*
X84409285Y-40031247D01*
X84409285Y-40031247D02*
X84409285Y-39650295D01*
X84409285Y-39650295D02*
X84373571Y-39555057D01*
X84373571Y-39555057D02*
X84337857Y-39507438D01*
X84337857Y-39507438D02*
X84266428Y-39459819D01*
X84266428Y-39459819D02*
X84123571Y-39459819D01*
X84123571Y-39459819D02*
X84052142Y-39507438D01*
X84052142Y-39507438D02*
X84016428Y-39555057D01*
X84016428Y-39555057D02*
X83980714Y-39650295D01*
X83980714Y-39650295D02*
X83980714Y-39888390D01*
X83980714Y-39888390D02*
X84016428Y-39983628D01*
X84016428Y-39983628D02*
X84052142Y-40031247D01*
X84052142Y-40031247D02*
X84123571Y-40078866D01*
X84123571Y-40078866D02*
X84266428Y-40078866D01*
X84266428Y-40078866D02*
X84337857Y-40031247D01*
X84337857Y-40031247D02*
X84373571Y-39983628D01*
X84373571Y-39983628D02*
X84409285Y-39888390D01*
X73983571Y-41999819D02*
X74412143Y-41999819D01*
X74197857Y-42999819D02*
X74197857Y-41999819D01*
X74662143Y-42999819D02*
X74662143Y-41999819D01*
X74662143Y-41999819D02*
X74947857Y-41999819D01*
X74947857Y-41999819D02*
X75019286Y-42047438D01*
X75019286Y-42047438D02*
X75055000Y-42095057D01*
X75055000Y-42095057D02*
X75090714Y-42190295D01*
X75090714Y-42190295D02*
X75090714Y-42333152D01*
X75090714Y-42333152D02*
X75055000Y-42428390D01*
X75055000Y-42428390D02*
X75019286Y-42476009D01*
X75019286Y-42476009D02*
X74947857Y-42523628D01*
X74947857Y-42523628D02*
X74662143Y-42523628D01*
X75340714Y-41999819D02*
X75805000Y-41999819D01*
X75805000Y-41999819D02*
X75555000Y-42380771D01*
X75555000Y-42380771D02*
X75662143Y-42380771D01*
X75662143Y-42380771D02*
X75733572Y-42428390D01*
X75733572Y-42428390D02*
X75769286Y-42476009D01*
X75769286Y-42476009D02*
X75805000Y-42571247D01*
X75805000Y-42571247D02*
X75805000Y-42809342D01*
X75805000Y-42809342D02*
X75769286Y-42904580D01*
X75769286Y-42904580D02*
X75733572Y-42952200D01*
X75733572Y-42952200D02*
X75662143Y-42999819D01*
X75662143Y-42999819D02*
X75447857Y-42999819D01*
X75447857Y-42999819D02*
X75376429Y-42952200D01*
X75376429Y-42952200D02*
X75340714Y-42904580D01*
X85919999Y-119104580D02*
X85884285Y-119152200D01*
X85884285Y-119152200D02*
X85777142Y-119199819D01*
X85777142Y-119199819D02*
X85705714Y-119199819D01*
X85705714Y-119199819D02*
X85598571Y-119152200D01*
X85598571Y-119152200D02*
X85527142Y-119056961D01*
X85527142Y-119056961D02*
X85491428Y-118961723D01*
X85491428Y-118961723D02*
X85455714Y-118771247D01*
X85455714Y-118771247D02*
X85455714Y-118628390D01*
X85455714Y-118628390D02*
X85491428Y-118437914D01*
X85491428Y-118437914D02*
X85527142Y-118342676D01*
X85527142Y-118342676D02*
X85598571Y-118247438D01*
X85598571Y-118247438D02*
X85705714Y-118199819D01*
X85705714Y-118199819D02*
X85777142Y-118199819D01*
X85777142Y-118199819D02*
X85884285Y-118247438D01*
X85884285Y-118247438D02*
X85919999Y-118295057D01*
X86562857Y-118533152D02*
X86562857Y-119199819D01*
X86384285Y-118152200D02*
X86205714Y-118866485D01*
X86205714Y-118866485D02*
X86669999Y-118866485D01*
X108648571Y-51524819D02*
X108648571Y-52334342D01*
X108648571Y-52334342D02*
X108684285Y-52429580D01*
X108684285Y-52429580D02*
X108720000Y-52477200D01*
X108720000Y-52477200D02*
X108791428Y-52524819D01*
X108791428Y-52524819D02*
X108934285Y-52524819D01*
X108934285Y-52524819D02*
X109005714Y-52477200D01*
X109005714Y-52477200D02*
X109041428Y-52429580D01*
X109041428Y-52429580D02*
X109077142Y-52334342D01*
X109077142Y-52334342D02*
X109077142Y-51524819D01*
X109362856Y-51524819D02*
X109827142Y-51524819D01*
X109827142Y-51524819D02*
X109577142Y-51905771D01*
X109577142Y-51905771D02*
X109684285Y-51905771D01*
X109684285Y-51905771D02*
X109755714Y-51953390D01*
X109755714Y-51953390D02*
X109791428Y-52001009D01*
X109791428Y-52001009D02*
X109827142Y-52096247D01*
X109827142Y-52096247D02*
X109827142Y-52334342D01*
X109827142Y-52334342D02*
X109791428Y-52429580D01*
X109791428Y-52429580D02*
X109755714Y-52477200D01*
X109755714Y-52477200D02*
X109684285Y-52524819D01*
X109684285Y-52524819D02*
X109469999Y-52524819D01*
X109469999Y-52524819D02*
X109398571Y-52477200D01*
X109398571Y-52477200D02*
X109362856Y-52429580D01*
X89052856Y-61319580D02*
X89017142Y-61367200D01*
X89017142Y-61367200D02*
X88909999Y-61414819D01*
X88909999Y-61414819D02*
X88838571Y-61414819D01*
X88838571Y-61414819D02*
X88731428Y-61367200D01*
X88731428Y-61367200D02*
X88659999Y-61271961D01*
X88659999Y-61271961D02*
X88624285Y-61176723D01*
X88624285Y-61176723D02*
X88588571Y-60986247D01*
X88588571Y-60986247D02*
X88588571Y-60843390D01*
X88588571Y-60843390D02*
X88624285Y-60652914D01*
X88624285Y-60652914D02*
X88659999Y-60557676D01*
X88659999Y-60557676D02*
X88731428Y-60462438D01*
X88731428Y-60462438D02*
X88838571Y-60414819D01*
X88838571Y-60414819D02*
X88909999Y-60414819D01*
X88909999Y-60414819D02*
X89017142Y-60462438D01*
X89017142Y-60462438D02*
X89052856Y-60510057D01*
X89767142Y-61414819D02*
X89338571Y-61414819D01*
X89552856Y-61414819D02*
X89552856Y-60414819D01*
X89552856Y-60414819D02*
X89481428Y-60557676D01*
X89481428Y-60557676D02*
X89409999Y-60652914D01*
X89409999Y-60652914D02*
X89338571Y-60700533D01*
X90052857Y-60510057D02*
X90088571Y-60462438D01*
X90088571Y-60462438D02*
X90160000Y-60414819D01*
X90160000Y-60414819D02*
X90338571Y-60414819D01*
X90338571Y-60414819D02*
X90410000Y-60462438D01*
X90410000Y-60462438D02*
X90445714Y-60510057D01*
X90445714Y-60510057D02*
X90481428Y-60605295D01*
X90481428Y-60605295D02*
X90481428Y-60700533D01*
X90481428Y-60700533D02*
X90445714Y-60843390D01*
X90445714Y-60843390D02*
X90017142Y-61414819D01*
X90017142Y-61414819D02*
X90481428Y-61414819D01*
X104648095Y-49619819D02*
X104648095Y-50429342D01*
X104648095Y-50429342D02*
X104695714Y-50524580D01*
X104695714Y-50524580D02*
X104743333Y-50572200D01*
X104743333Y-50572200D02*
X104838571Y-50619819D01*
X104838571Y-50619819D02*
X105029047Y-50619819D01*
X105029047Y-50619819D02*
X105124285Y-50572200D01*
X105124285Y-50572200D02*
X105171904Y-50524580D01*
X105171904Y-50524580D02*
X105219523Y-50429342D01*
X105219523Y-50429342D02*
X105219523Y-49619819D01*
X105600476Y-49619819D02*
X106267142Y-49619819D01*
X106267142Y-49619819D02*
X105838571Y-50619819D01*
X85242856Y-55699819D02*
X84992856Y-55223628D01*
X84814285Y-55699819D02*
X84814285Y-54699819D01*
X84814285Y-54699819D02*
X85099999Y-54699819D01*
X85099999Y-54699819D02*
X85171428Y-54747438D01*
X85171428Y-54747438D02*
X85207142Y-54795057D01*
X85207142Y-54795057D02*
X85242856Y-54890295D01*
X85242856Y-54890295D02*
X85242856Y-55033152D01*
X85242856Y-55033152D02*
X85207142Y-55128390D01*
X85207142Y-55128390D02*
X85171428Y-55176009D01*
X85171428Y-55176009D02*
X85099999Y-55223628D01*
X85099999Y-55223628D02*
X84814285Y-55223628D01*
X85957142Y-55699819D02*
X85528571Y-55699819D01*
X85742856Y-55699819D02*
X85742856Y-54699819D01*
X85742856Y-54699819D02*
X85671428Y-54842676D01*
X85671428Y-54842676D02*
X85599999Y-54937914D01*
X85599999Y-54937914D02*
X85528571Y-54985533D01*
X86207142Y-54699819D02*
X86671428Y-54699819D01*
X86671428Y-54699819D02*
X86421428Y-55080771D01*
X86421428Y-55080771D02*
X86528571Y-55080771D01*
X86528571Y-55080771D02*
X86600000Y-55128390D01*
X86600000Y-55128390D02*
X86635714Y-55176009D01*
X86635714Y-55176009D02*
X86671428Y-55271247D01*
X86671428Y-55271247D02*
X86671428Y-55509342D01*
X86671428Y-55509342D02*
X86635714Y-55604580D01*
X86635714Y-55604580D02*
X86600000Y-55652200D01*
X86600000Y-55652200D02*
X86528571Y-55699819D01*
X86528571Y-55699819D02*
X86314285Y-55699819D01*
X86314285Y-55699819D02*
X86242857Y-55652200D01*
X86242857Y-55652200D02*
X86207142Y-55604580D01*
X93539999Y-112754580D02*
X93504285Y-112802200D01*
X93504285Y-112802200D02*
X93397142Y-112849819D01*
X93397142Y-112849819D02*
X93325714Y-112849819D01*
X93325714Y-112849819D02*
X93218571Y-112802200D01*
X93218571Y-112802200D02*
X93147142Y-112706961D01*
X93147142Y-112706961D02*
X93111428Y-112611723D01*
X93111428Y-112611723D02*
X93075714Y-112421247D01*
X93075714Y-112421247D02*
X93075714Y-112278390D01*
X93075714Y-112278390D02*
X93111428Y-112087914D01*
X93111428Y-112087914D02*
X93147142Y-111992676D01*
X93147142Y-111992676D02*
X93218571Y-111897438D01*
X93218571Y-111897438D02*
X93325714Y-111849819D01*
X93325714Y-111849819D02*
X93397142Y-111849819D01*
X93397142Y-111849819D02*
X93504285Y-111897438D01*
X93504285Y-111897438D02*
X93539999Y-111945057D01*
X93789999Y-111849819D02*
X94254285Y-111849819D01*
X94254285Y-111849819D02*
X94004285Y-112230771D01*
X94004285Y-112230771D02*
X94111428Y-112230771D01*
X94111428Y-112230771D02*
X94182857Y-112278390D01*
X94182857Y-112278390D02*
X94218571Y-112326009D01*
X94218571Y-112326009D02*
X94254285Y-112421247D01*
X94254285Y-112421247D02*
X94254285Y-112659342D01*
X94254285Y-112659342D02*
X94218571Y-112754580D01*
X94218571Y-112754580D02*
X94182857Y-112802200D01*
X94182857Y-112802200D02*
X94111428Y-112849819D01*
X94111428Y-112849819D02*
X93897142Y-112849819D01*
X93897142Y-112849819D02*
X93825714Y-112802200D01*
X93825714Y-112802200D02*
X93789999Y-112754580D01*
X104612856Y-112979580D02*
X104577142Y-113027200D01*
X104577142Y-113027200D02*
X104469999Y-113074819D01*
X104469999Y-113074819D02*
X104398571Y-113074819D01*
X104398571Y-113074819D02*
X104291428Y-113027200D01*
X104291428Y-113027200D02*
X104219999Y-112931961D01*
X104219999Y-112931961D02*
X104184285Y-112836723D01*
X104184285Y-112836723D02*
X104148571Y-112646247D01*
X104148571Y-112646247D02*
X104148571Y-112503390D01*
X104148571Y-112503390D02*
X104184285Y-112312914D01*
X104184285Y-112312914D02*
X104219999Y-112217676D01*
X104219999Y-112217676D02*
X104291428Y-112122438D01*
X104291428Y-112122438D02*
X104398571Y-112074819D01*
X104398571Y-112074819D02*
X104469999Y-112074819D01*
X104469999Y-112074819D02*
X104577142Y-112122438D01*
X104577142Y-112122438D02*
X104612856Y-112170057D01*
X104898571Y-112170057D02*
X104934285Y-112122438D01*
X104934285Y-112122438D02*
X105005714Y-112074819D01*
X105005714Y-112074819D02*
X105184285Y-112074819D01*
X105184285Y-112074819D02*
X105255714Y-112122438D01*
X105255714Y-112122438D02*
X105291428Y-112170057D01*
X105291428Y-112170057D02*
X105327142Y-112265295D01*
X105327142Y-112265295D02*
X105327142Y-112360533D01*
X105327142Y-112360533D02*
X105291428Y-112503390D01*
X105291428Y-112503390D02*
X104862856Y-113074819D01*
X104862856Y-113074819D02*
X105327142Y-113074819D01*
X106041428Y-113074819D02*
X105612857Y-113074819D01*
X105827142Y-113074819D02*
X105827142Y-112074819D01*
X105827142Y-112074819D02*
X105755714Y-112217676D01*
X105755714Y-112217676D02*
X105684285Y-112312914D01*
X105684285Y-112312914D02*
X105612857Y-112360533D01*
X85600000Y-45539819D02*
X85242857Y-45539819D01*
X85242857Y-45539819D02*
X85242857Y-44539819D01*
X86242857Y-45539819D02*
X85814286Y-45539819D01*
X86028571Y-45539819D02*
X86028571Y-44539819D01*
X86028571Y-44539819D02*
X85957143Y-44682676D01*
X85957143Y-44682676D02*
X85885714Y-44777914D01*
X85885714Y-44777914D02*
X85814286Y-44825533D01*
X100997142Y-73919580D02*
X100949523Y-73967200D01*
X100949523Y-73967200D02*
X100806666Y-74014819D01*
X100806666Y-74014819D02*
X100711428Y-74014819D01*
X100711428Y-74014819D02*
X100568571Y-73967200D01*
X100568571Y-73967200D02*
X100473333Y-73871961D01*
X100473333Y-73871961D02*
X100425714Y-73776723D01*
X100425714Y-73776723D02*
X100378095Y-73586247D01*
X100378095Y-73586247D02*
X100378095Y-73443390D01*
X100378095Y-73443390D02*
X100425714Y-73252914D01*
X100425714Y-73252914D02*
X100473333Y-73157676D01*
X100473333Y-73157676D02*
X100568571Y-73062438D01*
X100568571Y-73062438D02*
X100711428Y-73014819D01*
X100711428Y-73014819D02*
X100806666Y-73014819D01*
X100806666Y-73014819D02*
X100949523Y-73062438D01*
X100949523Y-73062438D02*
X100997142Y-73110057D01*
X101949523Y-74014819D02*
X101378095Y-74014819D01*
X101663809Y-74014819D02*
X101663809Y-73014819D01*
X101663809Y-73014819D02*
X101568571Y-73157676D01*
X101568571Y-73157676D02*
X101473333Y-73252914D01*
X101473333Y-73252914D02*
X101378095Y-73300533D01*
X102806666Y-73348152D02*
X102806666Y-74014819D01*
X102568571Y-72967200D02*
X102330476Y-73681485D01*
X102330476Y-73681485D02*
X102949523Y-73681485D01*
X102951428Y-61414819D02*
X102951428Y-60414819D01*
X102951428Y-60414819D02*
X103129999Y-60414819D01*
X103129999Y-60414819D02*
X103237142Y-60462438D01*
X103237142Y-60462438D02*
X103308571Y-60557676D01*
X103308571Y-60557676D02*
X103344285Y-60652914D01*
X103344285Y-60652914D02*
X103379999Y-60843390D01*
X103379999Y-60843390D02*
X103379999Y-60986247D01*
X103379999Y-60986247D02*
X103344285Y-61176723D01*
X103344285Y-61176723D02*
X103308571Y-61271961D01*
X103308571Y-61271961D02*
X103237142Y-61367200D01*
X103237142Y-61367200D02*
X103129999Y-61414819D01*
X103129999Y-61414819D02*
X102951428Y-61414819D01*
X103629999Y-60414819D02*
X104094285Y-60414819D01*
X104094285Y-60414819D02*
X103844285Y-60795771D01*
X103844285Y-60795771D02*
X103951428Y-60795771D01*
X103951428Y-60795771D02*
X104022857Y-60843390D01*
X104022857Y-60843390D02*
X104058571Y-60891009D01*
X104058571Y-60891009D02*
X104094285Y-60986247D01*
X104094285Y-60986247D02*
X104094285Y-61224342D01*
X104094285Y-61224342D02*
X104058571Y-61319580D01*
X104058571Y-61319580D02*
X104022857Y-61367200D01*
X104022857Y-61367200D02*
X103951428Y-61414819D01*
X103951428Y-61414819D02*
X103737142Y-61414819D01*
X103737142Y-61414819D02*
X103665714Y-61367200D01*
X103665714Y-61367200D02*
X103629999Y-61319580D01*
X89729999Y-112754580D02*
X89694285Y-112802200D01*
X89694285Y-112802200D02*
X89587142Y-112849819D01*
X89587142Y-112849819D02*
X89515714Y-112849819D01*
X89515714Y-112849819D02*
X89408571Y-112802200D01*
X89408571Y-112802200D02*
X89337142Y-112706961D01*
X89337142Y-112706961D02*
X89301428Y-112611723D01*
X89301428Y-112611723D02*
X89265714Y-112421247D01*
X89265714Y-112421247D02*
X89265714Y-112278390D01*
X89265714Y-112278390D02*
X89301428Y-112087914D01*
X89301428Y-112087914D02*
X89337142Y-111992676D01*
X89337142Y-111992676D02*
X89408571Y-111897438D01*
X89408571Y-111897438D02*
X89515714Y-111849819D01*
X89515714Y-111849819D02*
X89587142Y-111849819D01*
X89587142Y-111849819D02*
X89694285Y-111897438D01*
X89694285Y-111897438D02*
X89729999Y-111945057D01*
X90444285Y-112849819D02*
X90015714Y-112849819D01*
X90229999Y-112849819D02*
X90229999Y-111849819D01*
X90229999Y-111849819D02*
X90158571Y-111992676D01*
X90158571Y-111992676D02*
X90087142Y-112087914D01*
X90087142Y-112087914D02*
X90015714Y-112135533D01*
X94678571Y-60274819D02*
X94678571Y-61084342D01*
X94678571Y-61084342D02*
X94714285Y-61179580D01*
X94714285Y-61179580D02*
X94750000Y-61227200D01*
X94750000Y-61227200D02*
X94821428Y-61274819D01*
X94821428Y-61274819D02*
X94964285Y-61274819D01*
X94964285Y-61274819D02*
X95035714Y-61227200D01*
X95035714Y-61227200D02*
X95071428Y-61179580D01*
X95071428Y-61179580D02*
X95107142Y-61084342D01*
X95107142Y-61084342D02*
X95107142Y-60274819D01*
X95821428Y-60274819D02*
X95464285Y-60274819D01*
X95464285Y-60274819D02*
X95428571Y-60751009D01*
X95428571Y-60751009D02*
X95464285Y-60703390D01*
X95464285Y-60703390D02*
X95535714Y-60655771D01*
X95535714Y-60655771D02*
X95714285Y-60655771D01*
X95714285Y-60655771D02*
X95785714Y-60703390D01*
X95785714Y-60703390D02*
X95821428Y-60751009D01*
X95821428Y-60751009D02*
X95857142Y-60846247D01*
X95857142Y-60846247D02*
X95857142Y-61084342D01*
X95857142Y-61084342D02*
X95821428Y-61179580D01*
X95821428Y-61179580D02*
X95785714Y-61227200D01*
X95785714Y-61227200D02*
X95714285Y-61274819D01*
X95714285Y-61274819D02*
X95535714Y-61274819D01*
X95535714Y-61274819D02*
X95464285Y-61227200D01*
X95464285Y-61227200D02*
X95428571Y-61179580D01*
X87782856Y-55604580D02*
X87747142Y-55652200D01*
X87747142Y-55652200D02*
X87639999Y-55699819D01*
X87639999Y-55699819D02*
X87568571Y-55699819D01*
X87568571Y-55699819D02*
X87461428Y-55652200D01*
X87461428Y-55652200D02*
X87389999Y-55556961D01*
X87389999Y-55556961D02*
X87354285Y-55461723D01*
X87354285Y-55461723D02*
X87318571Y-55271247D01*
X87318571Y-55271247D02*
X87318571Y-55128390D01*
X87318571Y-55128390D02*
X87354285Y-54937914D01*
X87354285Y-54937914D02*
X87389999Y-54842676D01*
X87389999Y-54842676D02*
X87461428Y-54747438D01*
X87461428Y-54747438D02*
X87568571Y-54699819D01*
X87568571Y-54699819D02*
X87639999Y-54699819D01*
X87639999Y-54699819D02*
X87747142Y-54747438D01*
X87747142Y-54747438D02*
X87782856Y-54795057D01*
X88497142Y-55699819D02*
X88068571Y-55699819D01*
X88282856Y-55699819D02*
X88282856Y-54699819D01*
X88282856Y-54699819D02*
X88211428Y-54842676D01*
X88211428Y-54842676D02*
X88139999Y-54937914D01*
X88139999Y-54937914D02*
X88068571Y-54985533D01*
X88961428Y-54699819D02*
X89032857Y-54699819D01*
X89032857Y-54699819D02*
X89104285Y-54747438D01*
X89104285Y-54747438D02*
X89140000Y-54795057D01*
X89140000Y-54795057D02*
X89175714Y-54890295D01*
X89175714Y-54890295D02*
X89211428Y-55080771D01*
X89211428Y-55080771D02*
X89211428Y-55318866D01*
X89211428Y-55318866D02*
X89175714Y-55509342D01*
X89175714Y-55509342D02*
X89140000Y-55604580D01*
X89140000Y-55604580D02*
X89104285Y-55652200D01*
X89104285Y-55652200D02*
X89032857Y-55699819D01*
X89032857Y-55699819D02*
X88961428Y-55699819D01*
X88961428Y-55699819D02*
X88890000Y-55652200D01*
X88890000Y-55652200D02*
X88854285Y-55604580D01*
X88854285Y-55604580D02*
X88818571Y-55509342D01*
X88818571Y-55509342D02*
X88782857Y-55318866D01*
X88782857Y-55318866D02*
X88782857Y-55080771D01*
X88782857Y-55080771D02*
X88818571Y-54890295D01*
X88818571Y-54890295D02*
X88854285Y-54795057D01*
X88854285Y-54795057D02*
X88890000Y-54747438D01*
X88890000Y-54747438D02*
X88961428Y-54699819D01*
X85919999Y-112754580D02*
X85884285Y-112802200D01*
X85884285Y-112802200D02*
X85777142Y-112849819D01*
X85777142Y-112849819D02*
X85705714Y-112849819D01*
X85705714Y-112849819D02*
X85598571Y-112802200D01*
X85598571Y-112802200D02*
X85527142Y-112706961D01*
X85527142Y-112706961D02*
X85491428Y-112611723D01*
X85491428Y-112611723D02*
X85455714Y-112421247D01*
X85455714Y-112421247D02*
X85455714Y-112278390D01*
X85455714Y-112278390D02*
X85491428Y-112087914D01*
X85491428Y-112087914D02*
X85527142Y-111992676D01*
X85527142Y-111992676D02*
X85598571Y-111897438D01*
X85598571Y-111897438D02*
X85705714Y-111849819D01*
X85705714Y-111849819D02*
X85777142Y-111849819D01*
X85777142Y-111849819D02*
X85884285Y-111897438D01*
X85884285Y-111897438D02*
X85919999Y-111945057D01*
X86205714Y-111945057D02*
X86241428Y-111897438D01*
X86241428Y-111897438D02*
X86312857Y-111849819D01*
X86312857Y-111849819D02*
X86491428Y-111849819D01*
X86491428Y-111849819D02*
X86562857Y-111897438D01*
X86562857Y-111897438D02*
X86598571Y-111945057D01*
X86598571Y-111945057D02*
X86634285Y-112040295D01*
X86634285Y-112040295D02*
X86634285Y-112135533D01*
X86634285Y-112135533D02*
X86598571Y-112278390D01*
X86598571Y-112278390D02*
X86169999Y-112849819D01*
X86169999Y-112849819D02*
X86634285Y-112849819D01*
X89354819Y-82675000D02*
X88878628Y-82925000D01*
X89354819Y-83103571D02*
X88354819Y-83103571D01*
X88354819Y-83103571D02*
X88354819Y-82817857D01*
X88354819Y-82817857D02*
X88402438Y-82746428D01*
X88402438Y-82746428D02*
X88450057Y-82710714D01*
X88450057Y-82710714D02*
X88545295Y-82675000D01*
X88545295Y-82675000D02*
X88688152Y-82675000D01*
X88688152Y-82675000D02*
X88783390Y-82710714D01*
X88783390Y-82710714D02*
X88831009Y-82746428D01*
X88831009Y-82746428D02*
X88878628Y-82817857D01*
X88878628Y-82817857D02*
X88878628Y-83103571D01*
X88354819Y-82425000D02*
X88354819Y-81960714D01*
X88354819Y-81960714D02*
X88735771Y-82210714D01*
X88735771Y-82210714D02*
X88735771Y-82103571D01*
X88735771Y-82103571D02*
X88783390Y-82032143D01*
X88783390Y-82032143D02*
X88831009Y-81996428D01*
X88831009Y-81996428D02*
X88926247Y-81960714D01*
X88926247Y-81960714D02*
X89164342Y-81960714D01*
X89164342Y-81960714D02*
X89259580Y-81996428D01*
X89259580Y-81996428D02*
X89307200Y-82032143D01*
X89307200Y-82032143D02*
X89354819Y-82103571D01*
X89354819Y-82103571D02*
X89354819Y-82317857D01*
X89354819Y-82317857D02*
X89307200Y-82389285D01*
X89307200Y-82389285D02*
X89259580Y-82425000D01*
X88963571Y-49619819D02*
X88963571Y-50429342D01*
X88963571Y-50429342D02*
X88999285Y-50524580D01*
X88999285Y-50524580D02*
X89035000Y-50572200D01*
X89035000Y-50572200D02*
X89106428Y-50619819D01*
X89106428Y-50619819D02*
X89249285Y-50619819D01*
X89249285Y-50619819D02*
X89320714Y-50572200D01*
X89320714Y-50572200D02*
X89356428Y-50524580D01*
X89356428Y-50524580D02*
X89392142Y-50429342D01*
X89392142Y-50429342D02*
X89392142Y-49619819D01*
X90070714Y-49953152D02*
X90070714Y-50619819D01*
X89892142Y-49572200D02*
X89713571Y-50286485D01*
X89713571Y-50286485D02*
X90177856Y-50286485D01*
X89354819Y-80135000D02*
X88878628Y-80385000D01*
X89354819Y-80563571D02*
X88354819Y-80563571D01*
X88354819Y-80563571D02*
X88354819Y-80277857D01*
X88354819Y-80277857D02*
X88402438Y-80206428D01*
X88402438Y-80206428D02*
X88450057Y-80170714D01*
X88450057Y-80170714D02*
X88545295Y-80135000D01*
X88545295Y-80135000D02*
X88688152Y-80135000D01*
X88688152Y-80135000D02*
X88783390Y-80170714D01*
X88783390Y-80170714D02*
X88831009Y-80206428D01*
X88831009Y-80206428D02*
X88878628Y-80277857D01*
X88878628Y-80277857D02*
X88878628Y-80563571D01*
X88450057Y-79849285D02*
X88402438Y-79813571D01*
X88402438Y-79813571D02*
X88354819Y-79742143D01*
X88354819Y-79742143D02*
X88354819Y-79563571D01*
X88354819Y-79563571D02*
X88402438Y-79492143D01*
X88402438Y-79492143D02*
X88450057Y-79456428D01*
X88450057Y-79456428D02*
X88545295Y-79420714D01*
X88545295Y-79420714D02*
X88640533Y-79420714D01*
X88640533Y-79420714D02*
X88783390Y-79456428D01*
X88783390Y-79456428D02*
X89354819Y-79885000D01*
X89354819Y-79885000D02*
X89354819Y-79420714D01*
X104612856Y-119104580D02*
X104577142Y-119152200D01*
X104577142Y-119152200D02*
X104469999Y-119199819D01*
X104469999Y-119199819D02*
X104398571Y-119199819D01*
X104398571Y-119199819D02*
X104291428Y-119152200D01*
X104291428Y-119152200D02*
X104219999Y-119056961D01*
X104219999Y-119056961D02*
X104184285Y-118961723D01*
X104184285Y-118961723D02*
X104148571Y-118771247D01*
X104148571Y-118771247D02*
X104148571Y-118628390D01*
X104148571Y-118628390D02*
X104184285Y-118437914D01*
X104184285Y-118437914D02*
X104219999Y-118342676D01*
X104219999Y-118342676D02*
X104291428Y-118247438D01*
X104291428Y-118247438D02*
X104398571Y-118199819D01*
X104398571Y-118199819D02*
X104469999Y-118199819D01*
X104469999Y-118199819D02*
X104577142Y-118247438D01*
X104577142Y-118247438D02*
X104612856Y-118295057D01*
X104898571Y-118295057D02*
X104934285Y-118247438D01*
X104934285Y-118247438D02*
X105005714Y-118199819D01*
X105005714Y-118199819D02*
X105184285Y-118199819D01*
X105184285Y-118199819D02*
X105255714Y-118247438D01*
X105255714Y-118247438D02*
X105291428Y-118295057D01*
X105291428Y-118295057D02*
X105327142Y-118390295D01*
X105327142Y-118390295D02*
X105327142Y-118485533D01*
X105327142Y-118485533D02*
X105291428Y-118628390D01*
X105291428Y-118628390D02*
X104862856Y-119199819D01*
X104862856Y-119199819D02*
X105327142Y-119199819D01*
X105970000Y-118533152D02*
X105970000Y-119199819D01*
X105791428Y-118152200D02*
X105612857Y-118866485D01*
X105612857Y-118866485D02*
X106077142Y-118866485D01*
X100204999Y-55637319D02*
X99954999Y-55161128D01*
X99776428Y-55637319D02*
X99776428Y-54637319D01*
X99776428Y-54637319D02*
X100062142Y-54637319D01*
X100062142Y-54637319D02*
X100133571Y-54684938D01*
X100133571Y-54684938D02*
X100169285Y-54732557D01*
X100169285Y-54732557D02*
X100204999Y-54827795D01*
X100204999Y-54827795D02*
X100204999Y-54970652D01*
X100204999Y-54970652D02*
X100169285Y-55065890D01*
X100169285Y-55065890D02*
X100133571Y-55113509D01*
X100133571Y-55113509D02*
X100062142Y-55161128D01*
X100062142Y-55161128D02*
X99776428Y-55161128D01*
X100562142Y-55637319D02*
X100704999Y-55637319D01*
X100704999Y-55637319D02*
X100776428Y-55589700D01*
X100776428Y-55589700D02*
X100812142Y-55542080D01*
X100812142Y-55542080D02*
X100883571Y-55399223D01*
X100883571Y-55399223D02*
X100919285Y-55208747D01*
X100919285Y-55208747D02*
X100919285Y-54827795D01*
X100919285Y-54827795D02*
X100883571Y-54732557D01*
X100883571Y-54732557D02*
X100847857Y-54684938D01*
X100847857Y-54684938D02*
X100776428Y-54637319D01*
X100776428Y-54637319D02*
X100633571Y-54637319D01*
X100633571Y-54637319D02*
X100562142Y-54684938D01*
X100562142Y-54684938D02*
X100526428Y-54732557D01*
X100526428Y-54732557D02*
X100490714Y-54827795D01*
X100490714Y-54827795D02*
X100490714Y-55065890D01*
X100490714Y-55065890D02*
X100526428Y-55161128D01*
X100526428Y-55161128D02*
X100562142Y-55208747D01*
X100562142Y-55208747D02*
X100633571Y-55256366D01*
X100633571Y-55256366D02*
X100776428Y-55256366D01*
X100776428Y-55256366D02*
X100847857Y-55208747D01*
X100847857Y-55208747D02*
X100883571Y-55161128D01*
X100883571Y-55161128D02*
X100919285Y-55065890D01*
X86512856Y-61319580D02*
X86477142Y-61367200D01*
X86477142Y-61367200D02*
X86369999Y-61414819D01*
X86369999Y-61414819D02*
X86298571Y-61414819D01*
X86298571Y-61414819D02*
X86191428Y-61367200D01*
X86191428Y-61367200D02*
X86119999Y-61271961D01*
X86119999Y-61271961D02*
X86084285Y-61176723D01*
X86084285Y-61176723D02*
X86048571Y-60986247D01*
X86048571Y-60986247D02*
X86048571Y-60843390D01*
X86048571Y-60843390D02*
X86084285Y-60652914D01*
X86084285Y-60652914D02*
X86119999Y-60557676D01*
X86119999Y-60557676D02*
X86191428Y-60462438D01*
X86191428Y-60462438D02*
X86298571Y-60414819D01*
X86298571Y-60414819D02*
X86369999Y-60414819D01*
X86369999Y-60414819D02*
X86477142Y-60462438D01*
X86477142Y-60462438D02*
X86512856Y-60510057D01*
X86798571Y-60510057D02*
X86834285Y-60462438D01*
X86834285Y-60462438D02*
X86905714Y-60414819D01*
X86905714Y-60414819D02*
X87084285Y-60414819D01*
X87084285Y-60414819D02*
X87155714Y-60462438D01*
X87155714Y-60462438D02*
X87191428Y-60510057D01*
X87191428Y-60510057D02*
X87227142Y-60605295D01*
X87227142Y-60605295D02*
X87227142Y-60700533D01*
X87227142Y-60700533D02*
X87191428Y-60843390D01*
X87191428Y-60843390D02*
X86762856Y-61414819D01*
X86762856Y-61414819D02*
X87227142Y-61414819D01*
X87905714Y-60414819D02*
X87548571Y-60414819D01*
X87548571Y-60414819D02*
X87512857Y-60891009D01*
X87512857Y-60891009D02*
X87548571Y-60843390D01*
X87548571Y-60843390D02*
X87620000Y-60795771D01*
X87620000Y-60795771D02*
X87798571Y-60795771D01*
X87798571Y-60795771D02*
X87870000Y-60843390D01*
X87870000Y-60843390D02*
X87905714Y-60891009D01*
X87905714Y-60891009D02*
X87941428Y-60986247D01*
X87941428Y-60986247D02*
X87941428Y-61224342D01*
X87941428Y-61224342D02*
X87905714Y-61319580D01*
X87905714Y-61319580D02*
X87870000Y-61367200D01*
X87870000Y-61367200D02*
X87798571Y-61414819D01*
X87798571Y-61414819D02*
X87620000Y-61414819D01*
X87620000Y-61414819D02*
X87548571Y-61367200D01*
X87548571Y-61367200D02*
X87512857Y-61319580D01*
X84274819Y-77595000D02*
X83798628Y-77845000D01*
X84274819Y-78023571D02*
X83274819Y-78023571D01*
X83274819Y-78023571D02*
X83274819Y-77737857D01*
X83274819Y-77737857D02*
X83322438Y-77666428D01*
X83322438Y-77666428D02*
X83370057Y-77630714D01*
X83370057Y-77630714D02*
X83465295Y-77595000D01*
X83465295Y-77595000D02*
X83608152Y-77595000D01*
X83608152Y-77595000D02*
X83703390Y-77630714D01*
X83703390Y-77630714D02*
X83751009Y-77666428D01*
X83751009Y-77666428D02*
X83798628Y-77737857D01*
X83798628Y-77737857D02*
X83798628Y-78023571D01*
X83608152Y-76952143D02*
X84274819Y-76952143D01*
X83227200Y-77130714D02*
X83941485Y-77309285D01*
X83941485Y-77309285D02*
X83941485Y-76845000D01*
X100411428Y-61414819D02*
X100411428Y-60414819D01*
X100411428Y-60414819D02*
X100589999Y-60414819D01*
X100589999Y-60414819D02*
X100697142Y-60462438D01*
X100697142Y-60462438D02*
X100768571Y-60557676D01*
X100768571Y-60557676D02*
X100804285Y-60652914D01*
X100804285Y-60652914D02*
X100839999Y-60843390D01*
X100839999Y-60843390D02*
X100839999Y-60986247D01*
X100839999Y-60986247D02*
X100804285Y-61176723D01*
X100804285Y-61176723D02*
X100768571Y-61271961D01*
X100768571Y-61271961D02*
X100697142Y-61367200D01*
X100697142Y-61367200D02*
X100589999Y-61414819D01*
X100589999Y-61414819D02*
X100411428Y-61414819D01*
X101125714Y-60510057D02*
X101161428Y-60462438D01*
X101161428Y-60462438D02*
X101232857Y-60414819D01*
X101232857Y-60414819D02*
X101411428Y-60414819D01*
X101411428Y-60414819D02*
X101482857Y-60462438D01*
X101482857Y-60462438D02*
X101518571Y-60510057D01*
X101518571Y-60510057D02*
X101554285Y-60605295D01*
X101554285Y-60605295D02*
X101554285Y-60700533D01*
X101554285Y-60700533D02*
X101518571Y-60843390D01*
X101518571Y-60843390D02*
X101089999Y-61414819D01*
X101089999Y-61414819D02*
X101554285Y-61414819D01*
X102387856Y-55699819D02*
X102137856Y-55223628D01*
X101959285Y-55699819D02*
X101959285Y-54699819D01*
X101959285Y-54699819D02*
X102244999Y-54699819D01*
X102244999Y-54699819D02*
X102316428Y-54747438D01*
X102316428Y-54747438D02*
X102352142Y-54795057D01*
X102352142Y-54795057D02*
X102387856Y-54890295D01*
X102387856Y-54890295D02*
X102387856Y-55033152D01*
X102387856Y-55033152D02*
X102352142Y-55128390D01*
X102352142Y-55128390D02*
X102316428Y-55176009D01*
X102316428Y-55176009D02*
X102244999Y-55223628D01*
X102244999Y-55223628D02*
X101959285Y-55223628D01*
X103102142Y-55699819D02*
X102673571Y-55699819D01*
X102887856Y-55699819D02*
X102887856Y-54699819D01*
X102887856Y-54699819D02*
X102816428Y-54842676D01*
X102816428Y-54842676D02*
X102744999Y-54937914D01*
X102744999Y-54937914D02*
X102673571Y-54985533D01*
X103530714Y-55128390D02*
X103459285Y-55080771D01*
X103459285Y-55080771D02*
X103423571Y-55033152D01*
X103423571Y-55033152D02*
X103387857Y-54937914D01*
X103387857Y-54937914D02*
X103387857Y-54890295D01*
X103387857Y-54890295D02*
X103423571Y-54795057D01*
X103423571Y-54795057D02*
X103459285Y-54747438D01*
X103459285Y-54747438D02*
X103530714Y-54699819D01*
X103530714Y-54699819D02*
X103673571Y-54699819D01*
X103673571Y-54699819D02*
X103745000Y-54747438D01*
X103745000Y-54747438D02*
X103780714Y-54795057D01*
X103780714Y-54795057D02*
X103816428Y-54890295D01*
X103816428Y-54890295D02*
X103816428Y-54937914D01*
X103816428Y-54937914D02*
X103780714Y-55033152D01*
X103780714Y-55033152D02*
X103745000Y-55080771D01*
X103745000Y-55080771D02*
X103673571Y-55128390D01*
X103673571Y-55128390D02*
X103530714Y-55128390D01*
X103530714Y-55128390D02*
X103459285Y-55176009D01*
X103459285Y-55176009D02*
X103423571Y-55223628D01*
X103423571Y-55223628D02*
X103387857Y-55318866D01*
X103387857Y-55318866D02*
X103387857Y-55509342D01*
X103387857Y-55509342D02*
X103423571Y-55604580D01*
X103423571Y-55604580D02*
X103459285Y-55652200D01*
X103459285Y-55652200D02*
X103530714Y-55699819D01*
X103530714Y-55699819D02*
X103673571Y-55699819D01*
X103673571Y-55699819D02*
X103745000Y-55652200D01*
X103745000Y-55652200D02*
X103780714Y-55604580D01*
X103780714Y-55604580D02*
X103816428Y-55509342D01*
X103816428Y-55509342D02*
X103816428Y-55318866D01*
X103816428Y-55318866D02*
X103780714Y-55223628D01*
X103780714Y-55223628D02*
X103745000Y-55176009D01*
X103745000Y-55176009D02*
X103673571Y-55128390D01*
X95402856Y-50524580D02*
X95367142Y-50572200D01*
X95367142Y-50572200D02*
X95259999Y-50619819D01*
X95259999Y-50619819D02*
X95188571Y-50619819D01*
X95188571Y-50619819D02*
X95081428Y-50572200D01*
X95081428Y-50572200D02*
X95009999Y-50476961D01*
X95009999Y-50476961D02*
X94974285Y-50381723D01*
X94974285Y-50381723D02*
X94938571Y-50191247D01*
X94938571Y-50191247D02*
X94938571Y-50048390D01*
X94938571Y-50048390D02*
X94974285Y-49857914D01*
X94974285Y-49857914D02*
X95009999Y-49762676D01*
X95009999Y-49762676D02*
X95081428Y-49667438D01*
X95081428Y-49667438D02*
X95188571Y-49619819D01*
X95188571Y-49619819D02*
X95259999Y-49619819D01*
X95259999Y-49619819D02*
X95367142Y-49667438D01*
X95367142Y-49667438D02*
X95402856Y-49715057D01*
X96117142Y-50619819D02*
X95688571Y-50619819D01*
X95902856Y-50619819D02*
X95902856Y-49619819D01*
X95902856Y-49619819D02*
X95831428Y-49762676D01*
X95831428Y-49762676D02*
X95759999Y-49857914D01*
X95759999Y-49857914D02*
X95688571Y-49905533D01*
X96831428Y-50619819D02*
X96402857Y-50619819D01*
X96617142Y-50619819D02*
X96617142Y-49619819D01*
X96617142Y-49619819D02*
X96545714Y-49762676D01*
X96545714Y-49762676D02*
X96474285Y-49857914D01*
X96474285Y-49857914D02*
X96402857Y-49905533D01*
X89729999Y-119104580D02*
X89694285Y-119152200D01*
X89694285Y-119152200D02*
X89587142Y-119199819D01*
X89587142Y-119199819D02*
X89515714Y-119199819D01*
X89515714Y-119199819D02*
X89408571Y-119152200D01*
X89408571Y-119152200D02*
X89337142Y-119056961D01*
X89337142Y-119056961D02*
X89301428Y-118961723D01*
X89301428Y-118961723D02*
X89265714Y-118771247D01*
X89265714Y-118771247D02*
X89265714Y-118628390D01*
X89265714Y-118628390D02*
X89301428Y-118437914D01*
X89301428Y-118437914D02*
X89337142Y-118342676D01*
X89337142Y-118342676D02*
X89408571Y-118247438D01*
X89408571Y-118247438D02*
X89515714Y-118199819D01*
X89515714Y-118199819D02*
X89587142Y-118199819D01*
X89587142Y-118199819D02*
X89694285Y-118247438D01*
X89694285Y-118247438D02*
X89729999Y-118295057D01*
X90408571Y-118199819D02*
X90051428Y-118199819D01*
X90051428Y-118199819D02*
X90015714Y-118676009D01*
X90015714Y-118676009D02*
X90051428Y-118628390D01*
X90051428Y-118628390D02*
X90122857Y-118580771D01*
X90122857Y-118580771D02*
X90301428Y-118580771D01*
X90301428Y-118580771D02*
X90372857Y-118628390D01*
X90372857Y-118628390D02*
X90408571Y-118676009D01*
X90408571Y-118676009D02*
X90444285Y-118771247D01*
X90444285Y-118771247D02*
X90444285Y-119009342D01*
X90444285Y-119009342D02*
X90408571Y-119104580D01*
X90408571Y-119104580D02*
X90372857Y-119152200D01*
X90372857Y-119152200D02*
X90301428Y-119199819D01*
X90301428Y-119199819D02*
X90122857Y-119199819D01*
X90122857Y-119199819D02*
X90051428Y-119152200D01*
X90051428Y-119152200D02*
X90015714Y-119104580D01*
X84274819Y-85215000D02*
X83798628Y-85465000D01*
X84274819Y-85643571D02*
X83274819Y-85643571D01*
X83274819Y-85643571D02*
X83274819Y-85357857D01*
X83274819Y-85357857D02*
X83322438Y-85286428D01*
X83322438Y-85286428D02*
X83370057Y-85250714D01*
X83370057Y-85250714D02*
X83465295Y-85215000D01*
X83465295Y-85215000D02*
X83608152Y-85215000D01*
X83608152Y-85215000D02*
X83703390Y-85250714D01*
X83703390Y-85250714D02*
X83751009Y-85286428D01*
X83751009Y-85286428D02*
X83798628Y-85357857D01*
X83798628Y-85357857D02*
X83798628Y-85643571D01*
X83274819Y-84572143D02*
X83274819Y-84715000D01*
X83274819Y-84715000D02*
X83322438Y-84786428D01*
X83322438Y-84786428D02*
X83370057Y-84822143D01*
X83370057Y-84822143D02*
X83512914Y-84893571D01*
X83512914Y-84893571D02*
X83703390Y-84929285D01*
X83703390Y-84929285D02*
X84084342Y-84929285D01*
X84084342Y-84929285D02*
X84179580Y-84893571D01*
X84179580Y-84893571D02*
X84227200Y-84857857D01*
X84227200Y-84857857D02*
X84274819Y-84786428D01*
X84274819Y-84786428D02*
X84274819Y-84643571D01*
X84274819Y-84643571D02*
X84227200Y-84572143D01*
X84227200Y-84572143D02*
X84179580Y-84536428D01*
X84179580Y-84536428D02*
X84084342Y-84500714D01*
X84084342Y-84500714D02*
X83846247Y-84500714D01*
X83846247Y-84500714D02*
X83751009Y-84536428D01*
X83751009Y-84536428D02*
X83703390Y-84572143D01*
X83703390Y-84572143D02*
X83655771Y-84643571D01*
X83655771Y-84643571D02*
X83655771Y-84786428D01*
X83655771Y-84786428D02*
X83703390Y-84857857D01*
X83703390Y-84857857D02*
X83751009Y-84893571D01*
X83751009Y-84893571D02*
X83846247Y-84929285D01*
X96992856Y-119104580D02*
X96957142Y-119152200D01*
X96957142Y-119152200D02*
X96849999Y-119199819D01*
X96849999Y-119199819D02*
X96778571Y-119199819D01*
X96778571Y-119199819D02*
X96671428Y-119152200D01*
X96671428Y-119152200D02*
X96599999Y-119056961D01*
X96599999Y-119056961D02*
X96564285Y-118961723D01*
X96564285Y-118961723D02*
X96528571Y-118771247D01*
X96528571Y-118771247D02*
X96528571Y-118628390D01*
X96528571Y-118628390D02*
X96564285Y-118437914D01*
X96564285Y-118437914D02*
X96599999Y-118342676D01*
X96599999Y-118342676D02*
X96671428Y-118247438D01*
X96671428Y-118247438D02*
X96778571Y-118199819D01*
X96778571Y-118199819D02*
X96849999Y-118199819D01*
X96849999Y-118199819D02*
X96957142Y-118247438D01*
X96957142Y-118247438D02*
X96992856Y-118295057D01*
X97278571Y-118295057D02*
X97314285Y-118247438D01*
X97314285Y-118247438D02*
X97385714Y-118199819D01*
X97385714Y-118199819D02*
X97564285Y-118199819D01*
X97564285Y-118199819D02*
X97635714Y-118247438D01*
X97635714Y-118247438D02*
X97671428Y-118295057D01*
X97671428Y-118295057D02*
X97707142Y-118390295D01*
X97707142Y-118390295D02*
X97707142Y-118485533D01*
X97707142Y-118485533D02*
X97671428Y-118628390D01*
X97671428Y-118628390D02*
X97242856Y-119199819D01*
X97242856Y-119199819D02*
X97707142Y-119199819D01*
X97992857Y-118295057D02*
X98028571Y-118247438D01*
X98028571Y-118247438D02*
X98100000Y-118199819D01*
X98100000Y-118199819D02*
X98278571Y-118199819D01*
X98278571Y-118199819D02*
X98350000Y-118247438D01*
X98350000Y-118247438D02*
X98385714Y-118295057D01*
X98385714Y-118295057D02*
X98421428Y-118390295D01*
X98421428Y-118390295D02*
X98421428Y-118485533D01*
X98421428Y-118485533D02*
X98385714Y-118628390D01*
X98385714Y-118628390D02*
X97957142Y-119199819D01*
X97957142Y-119199819D02*
X98421428Y-119199819D01*
X105562856Y-45539819D02*
X105312856Y-45063628D01*
X105134285Y-45539819D02*
X105134285Y-44539819D01*
X105134285Y-44539819D02*
X105419999Y-44539819D01*
X105419999Y-44539819D02*
X105491428Y-44587438D01*
X105491428Y-44587438D02*
X105527142Y-44635057D01*
X105527142Y-44635057D02*
X105562856Y-44730295D01*
X105562856Y-44730295D02*
X105562856Y-44873152D01*
X105562856Y-44873152D02*
X105527142Y-44968390D01*
X105527142Y-44968390D02*
X105491428Y-45016009D01*
X105491428Y-45016009D02*
X105419999Y-45063628D01*
X105419999Y-45063628D02*
X105134285Y-45063628D01*
X106277142Y-45539819D02*
X105848571Y-45539819D01*
X106062856Y-45539819D02*
X106062856Y-44539819D01*
X106062856Y-44539819D02*
X105991428Y-44682676D01*
X105991428Y-44682676D02*
X105919999Y-44777914D01*
X105919999Y-44777914D02*
X105848571Y-44825533D01*
X106741428Y-44539819D02*
X106812857Y-44539819D01*
X106812857Y-44539819D02*
X106884285Y-44587438D01*
X106884285Y-44587438D02*
X106920000Y-44635057D01*
X106920000Y-44635057D02*
X106955714Y-44730295D01*
X106955714Y-44730295D02*
X106991428Y-44920771D01*
X106991428Y-44920771D02*
X106991428Y-45158866D01*
X106991428Y-45158866D02*
X106955714Y-45349342D01*
X106955714Y-45349342D02*
X106920000Y-45444580D01*
X106920000Y-45444580D02*
X106884285Y-45492200D01*
X106884285Y-45492200D02*
X106812857Y-45539819D01*
X106812857Y-45539819D02*
X106741428Y-45539819D01*
X106741428Y-45539819D02*
X106670000Y-45492200D01*
X106670000Y-45492200D02*
X106634285Y-45444580D01*
X106634285Y-45444580D02*
X106598571Y-45349342D01*
X106598571Y-45349342D02*
X106562857Y-45158866D01*
X106562857Y-45158866D02*
X106562857Y-44920771D01*
X106562857Y-44920771D02*
X106598571Y-44730295D01*
X106598571Y-44730295D02*
X106634285Y-44635057D01*
X106634285Y-44635057D02*
X106670000Y-44587438D01*
X106670000Y-44587438D02*
X106741428Y-44539819D01*
X84274819Y-82675000D02*
X83798628Y-82925000D01*
X84274819Y-83103571D02*
X83274819Y-83103571D01*
X83274819Y-83103571D02*
X83274819Y-82817857D01*
X83274819Y-82817857D02*
X83322438Y-82746428D01*
X83322438Y-82746428D02*
X83370057Y-82710714D01*
X83370057Y-82710714D02*
X83465295Y-82675000D01*
X83465295Y-82675000D02*
X83608152Y-82675000D01*
X83608152Y-82675000D02*
X83703390Y-82710714D01*
X83703390Y-82710714D02*
X83751009Y-82746428D01*
X83751009Y-82746428D02*
X83798628Y-82817857D01*
X83798628Y-82817857D02*
X83798628Y-83103571D01*
X84274819Y-81960714D02*
X84274819Y-82389285D01*
X84274819Y-82175000D02*
X83274819Y-82175000D01*
X83274819Y-82175000D02*
X83417676Y-82246428D01*
X83417676Y-82246428D02*
X83512914Y-82317857D01*
X83512914Y-82317857D02*
X83560533Y-82389285D01*
X108459999Y-105454580D02*
X108424285Y-105502200D01*
X108424285Y-105502200D02*
X108317142Y-105549819D01*
X108317142Y-105549819D02*
X108245714Y-105549819D01*
X108245714Y-105549819D02*
X108138571Y-105502200D01*
X108138571Y-105502200D02*
X108067142Y-105406961D01*
X108067142Y-105406961D02*
X108031428Y-105311723D01*
X108031428Y-105311723D02*
X107995714Y-105121247D01*
X107995714Y-105121247D02*
X107995714Y-104978390D01*
X107995714Y-104978390D02*
X108031428Y-104787914D01*
X108031428Y-104787914D02*
X108067142Y-104692676D01*
X108067142Y-104692676D02*
X108138571Y-104597438D01*
X108138571Y-104597438D02*
X108245714Y-104549819D01*
X108245714Y-104549819D02*
X108317142Y-104549819D01*
X108317142Y-104549819D02*
X108424285Y-104597438D01*
X108424285Y-104597438D02*
X108459999Y-104645057D01*
X109102857Y-104549819D02*
X108959999Y-104549819D01*
X108959999Y-104549819D02*
X108888571Y-104597438D01*
X108888571Y-104597438D02*
X108852857Y-104645057D01*
X108852857Y-104645057D02*
X108781428Y-104787914D01*
X108781428Y-104787914D02*
X108745714Y-104978390D01*
X108745714Y-104978390D02*
X108745714Y-105359342D01*
X108745714Y-105359342D02*
X108781428Y-105454580D01*
X108781428Y-105454580D02*
X108817142Y-105502200D01*
X108817142Y-105502200D02*
X108888571Y-105549819D01*
X108888571Y-105549819D02*
X109031428Y-105549819D01*
X109031428Y-105549819D02*
X109102857Y-105502200D01*
X109102857Y-105502200D02*
X109138571Y-105454580D01*
X109138571Y-105454580D02*
X109174285Y-105359342D01*
X109174285Y-105359342D02*
X109174285Y-105121247D01*
X109174285Y-105121247D02*
X109138571Y-105026009D01*
X109138571Y-105026009D02*
X109102857Y-104978390D01*
X109102857Y-104978390D02*
X109031428Y-104930771D01*
X109031428Y-104930771D02*
X108888571Y-104930771D01*
X108888571Y-104930771D02*
X108817142Y-104978390D01*
X108817142Y-104978390D02*
X108781428Y-105026009D01*
X108781428Y-105026009D02*
X108745714Y-105121247D01*
X110813571Y-71209819D02*
X111242143Y-71209819D01*
X111027857Y-72209819D02*
X111027857Y-71209819D01*
X111492143Y-72209819D02*
X111492143Y-71209819D01*
X111492143Y-71209819D02*
X111777857Y-71209819D01*
X111777857Y-71209819D02*
X111849286Y-71257438D01*
X111849286Y-71257438D02*
X111885000Y-71305057D01*
X111885000Y-71305057D02*
X111920714Y-71400295D01*
X111920714Y-71400295D02*
X111920714Y-71543152D01*
X111920714Y-71543152D02*
X111885000Y-71638390D01*
X111885000Y-71638390D02*
X111849286Y-71686009D01*
X111849286Y-71686009D02*
X111777857Y-71733628D01*
X111777857Y-71733628D02*
X111492143Y-71733628D01*
X112635000Y-72209819D02*
X112206429Y-72209819D01*
X112420714Y-72209819D02*
X112420714Y-71209819D01*
X112420714Y-71209819D02*
X112349286Y-71352676D01*
X112349286Y-71352676D02*
X112277857Y-71447914D01*
X112277857Y-71447914D02*
X112206429Y-71495533D01*
X92862856Y-50619819D02*
X92612856Y-50143628D01*
X92434285Y-50619819D02*
X92434285Y-49619819D01*
X92434285Y-49619819D02*
X92719999Y-49619819D01*
X92719999Y-49619819D02*
X92791428Y-49667438D01*
X92791428Y-49667438D02*
X92827142Y-49715057D01*
X92827142Y-49715057D02*
X92862856Y-49810295D01*
X92862856Y-49810295D02*
X92862856Y-49953152D01*
X92862856Y-49953152D02*
X92827142Y-50048390D01*
X92827142Y-50048390D02*
X92791428Y-50096009D01*
X92791428Y-50096009D02*
X92719999Y-50143628D01*
X92719999Y-50143628D02*
X92434285Y-50143628D01*
X93577142Y-50619819D02*
X93148571Y-50619819D01*
X93362856Y-50619819D02*
X93362856Y-49619819D01*
X93362856Y-49619819D02*
X93291428Y-49762676D01*
X93291428Y-49762676D02*
X93219999Y-49857914D01*
X93219999Y-49857914D02*
X93148571Y-49905533D01*
X93862857Y-49715057D02*
X93898571Y-49667438D01*
X93898571Y-49667438D02*
X93970000Y-49619819D01*
X93970000Y-49619819D02*
X94148571Y-49619819D01*
X94148571Y-49619819D02*
X94220000Y-49667438D01*
X94220000Y-49667438D02*
X94255714Y-49715057D01*
X94255714Y-49715057D02*
X94291428Y-49810295D01*
X94291428Y-49810295D02*
X94291428Y-49905533D01*
X94291428Y-49905533D02*
X94255714Y-50048390D01*
X94255714Y-50048390D02*
X93827142Y-50619819D01*
X93827142Y-50619819D02*
X94291428Y-50619819D01*
X82274285Y-55699819D02*
X82274285Y-54699819D01*
X82274285Y-54699819D02*
X82452856Y-54699819D01*
X82452856Y-54699819D02*
X82559999Y-54747438D01*
X82559999Y-54747438D02*
X82631428Y-54842676D01*
X82631428Y-54842676D02*
X82667142Y-54937914D01*
X82667142Y-54937914D02*
X82702856Y-55128390D01*
X82702856Y-55128390D02*
X82702856Y-55271247D01*
X82702856Y-55271247D02*
X82667142Y-55461723D01*
X82667142Y-55461723D02*
X82631428Y-55556961D01*
X82631428Y-55556961D02*
X82559999Y-55652200D01*
X82559999Y-55652200D02*
X82452856Y-55699819D01*
X82452856Y-55699819D02*
X82274285Y-55699819D01*
X83417142Y-55699819D02*
X82988571Y-55699819D01*
X83202856Y-55699819D02*
X83202856Y-54699819D01*
X83202856Y-54699819D02*
X83131428Y-54842676D01*
X83131428Y-54842676D02*
X83059999Y-54937914D01*
X83059999Y-54937914D02*
X82988571Y-54985533D01*
X83702857Y-54795057D02*
X83738571Y-54747438D01*
X83738571Y-54747438D02*
X83810000Y-54699819D01*
X83810000Y-54699819D02*
X83988571Y-54699819D01*
X83988571Y-54699819D02*
X84060000Y-54747438D01*
X84060000Y-54747438D02*
X84095714Y-54795057D01*
X84095714Y-54795057D02*
X84131428Y-54890295D01*
X84131428Y-54890295D02*
X84131428Y-54985533D01*
X84131428Y-54985533D02*
X84095714Y-55128390D01*
X84095714Y-55128390D02*
X83667142Y-55699819D01*
X83667142Y-55699819D02*
X84131428Y-55699819D01*
X100838095Y-49619819D02*
X100838095Y-50429342D01*
X100838095Y-50429342D02*
X100885714Y-50524580D01*
X100885714Y-50524580D02*
X100933333Y-50572200D01*
X100933333Y-50572200D02*
X101028571Y-50619819D01*
X101028571Y-50619819D02*
X101219047Y-50619819D01*
X101219047Y-50619819D02*
X101314285Y-50572200D01*
X101314285Y-50572200D02*
X101361904Y-50524580D01*
X101361904Y-50524580D02*
X101409523Y-50429342D01*
X101409523Y-50429342D02*
X101409523Y-49619819D01*
X102314285Y-49619819D02*
X102123809Y-49619819D01*
X102123809Y-49619819D02*
X102028571Y-49667438D01*
X102028571Y-49667438D02*
X101980952Y-49715057D01*
X101980952Y-49715057D02*
X101885714Y-49857914D01*
X101885714Y-49857914D02*
X101838095Y-50048390D01*
X101838095Y-50048390D02*
X101838095Y-50429342D01*
X101838095Y-50429342D02*
X101885714Y-50524580D01*
X101885714Y-50524580D02*
X101933333Y-50572200D01*
X101933333Y-50572200D02*
X102028571Y-50619819D01*
X102028571Y-50619819D02*
X102219047Y-50619819D01*
X102219047Y-50619819D02*
X102314285Y-50572200D01*
X102314285Y-50572200D02*
X102361904Y-50524580D01*
X102361904Y-50524580D02*
X102409523Y-50429342D01*
X102409523Y-50429342D02*
X102409523Y-50191247D01*
X102409523Y-50191247D02*
X102361904Y-50096009D01*
X102361904Y-50096009D02*
X102314285Y-50048390D01*
X102314285Y-50048390D02*
X102219047Y-50000771D01*
X102219047Y-50000771D02*
X102028571Y-50000771D01*
X102028571Y-50000771D02*
X101933333Y-50048390D01*
X101933333Y-50048390D02*
X101885714Y-50096009D01*
X101885714Y-50096009D02*
X101838095Y-50191247D01*
X97416071Y-55795057D02*
X97344642Y-55747438D01*
X97344642Y-55747438D02*
X97273214Y-55652200D01*
X97273214Y-55652200D02*
X97166071Y-55509342D01*
X97166071Y-55509342D02*
X97094642Y-55461723D01*
X97094642Y-55461723D02*
X97023214Y-55461723D01*
X97058928Y-55699819D02*
X96987500Y-55652200D01*
X96987500Y-55652200D02*
X96916071Y-55556961D01*
X96916071Y-55556961D02*
X96880357Y-55366485D01*
X96880357Y-55366485D02*
X96880357Y-55033152D01*
X96880357Y-55033152D02*
X96916071Y-54842676D01*
X96916071Y-54842676D02*
X96987500Y-54747438D01*
X96987500Y-54747438D02*
X97058928Y-54699819D01*
X97058928Y-54699819D02*
X97201785Y-54699819D01*
X97201785Y-54699819D02*
X97273214Y-54747438D01*
X97273214Y-54747438D02*
X97344642Y-54842676D01*
X97344642Y-54842676D02*
X97380357Y-55033152D01*
X97380357Y-55033152D02*
X97380357Y-55366485D01*
X97380357Y-55366485D02*
X97344642Y-55556961D01*
X97344642Y-55556961D02*
X97273214Y-55652200D01*
X97273214Y-55652200D02*
X97201785Y-55699819D01*
X97201785Y-55699819D02*
X97058928Y-55699819D01*
X98094642Y-55699819D02*
X97666071Y-55699819D01*
X97880356Y-55699819D02*
X97880356Y-54699819D01*
X97880356Y-54699819D02*
X97808928Y-54842676D01*
X97808928Y-54842676D02*
X97737499Y-54937914D01*
X97737499Y-54937914D02*
X97666071Y-54985533D01*
X105733571Y-71209819D02*
X106162143Y-71209819D01*
X105947857Y-72209819D02*
X105947857Y-71209819D01*
X106412143Y-72209819D02*
X106412143Y-71209819D01*
X106412143Y-71209819D02*
X106697857Y-71209819D01*
X106697857Y-71209819D02*
X106769286Y-71257438D01*
X106769286Y-71257438D02*
X106805000Y-71305057D01*
X106805000Y-71305057D02*
X106840714Y-71400295D01*
X106840714Y-71400295D02*
X106840714Y-71543152D01*
X106840714Y-71543152D02*
X106805000Y-71638390D01*
X106805000Y-71638390D02*
X106769286Y-71686009D01*
X106769286Y-71686009D02*
X106697857Y-71733628D01*
X106697857Y-71733628D02*
X106412143Y-71733628D01*
X107483572Y-71543152D02*
X107483572Y-72209819D01*
X107305000Y-71162200D02*
X107126429Y-71876485D01*
X107126429Y-71876485D02*
X107590714Y-71876485D01*
X111326666Y-136714819D02*
X111326666Y-137429104D01*
X111326666Y-137429104D02*
X111279047Y-137571961D01*
X111279047Y-137571961D02*
X111183809Y-137667200D01*
X111183809Y-137667200D02*
X111040952Y-137714819D01*
X111040952Y-137714819D02*
X110945714Y-137714819D01*
X111755238Y-136810057D02*
X111802857Y-136762438D01*
X111802857Y-136762438D02*
X111898095Y-136714819D01*
X111898095Y-136714819D02*
X112136190Y-136714819D01*
X112136190Y-136714819D02*
X112231428Y-136762438D01*
X112231428Y-136762438D02*
X112279047Y-136810057D01*
X112279047Y-136810057D02*
X112326666Y-136905295D01*
X112326666Y-136905295D02*
X112326666Y-137000533D01*
X112326666Y-137000533D02*
X112279047Y-137143390D01*
X112279047Y-137143390D02*
X111707619Y-137714819D01*
X111707619Y-137714819D02*
X112326666Y-137714819D01*
X108459999Y-100374580D02*
X108424285Y-100422200D01*
X108424285Y-100422200D02*
X108317142Y-100469819D01*
X108317142Y-100469819D02*
X108245714Y-100469819D01*
X108245714Y-100469819D02*
X108138571Y-100422200D01*
X108138571Y-100422200D02*
X108067142Y-100326961D01*
X108067142Y-100326961D02*
X108031428Y-100231723D01*
X108031428Y-100231723D02*
X107995714Y-100041247D01*
X107995714Y-100041247D02*
X107995714Y-99898390D01*
X107995714Y-99898390D02*
X108031428Y-99707914D01*
X108031428Y-99707914D02*
X108067142Y-99612676D01*
X108067142Y-99612676D02*
X108138571Y-99517438D01*
X108138571Y-99517438D02*
X108245714Y-99469819D01*
X108245714Y-99469819D02*
X108317142Y-99469819D01*
X108317142Y-99469819D02*
X108424285Y-99517438D01*
X108424285Y-99517438D02*
X108459999Y-99565057D01*
X108709999Y-99469819D02*
X109209999Y-99469819D01*
X109209999Y-99469819D02*
X108888571Y-100469819D01*
X111912856Y-52429580D02*
X111877142Y-52477200D01*
X111877142Y-52477200D02*
X111769999Y-52524819D01*
X111769999Y-52524819D02*
X111698571Y-52524819D01*
X111698571Y-52524819D02*
X111591428Y-52477200D01*
X111591428Y-52477200D02*
X111519999Y-52381961D01*
X111519999Y-52381961D02*
X111484285Y-52286723D01*
X111484285Y-52286723D02*
X111448571Y-52096247D01*
X111448571Y-52096247D02*
X111448571Y-51953390D01*
X111448571Y-51953390D02*
X111484285Y-51762914D01*
X111484285Y-51762914D02*
X111519999Y-51667676D01*
X111519999Y-51667676D02*
X111591428Y-51572438D01*
X111591428Y-51572438D02*
X111698571Y-51524819D01*
X111698571Y-51524819D02*
X111769999Y-51524819D01*
X111769999Y-51524819D02*
X111877142Y-51572438D01*
X111877142Y-51572438D02*
X111912856Y-51620057D01*
X112198571Y-51620057D02*
X112234285Y-51572438D01*
X112234285Y-51572438D02*
X112305714Y-51524819D01*
X112305714Y-51524819D02*
X112484285Y-51524819D01*
X112484285Y-51524819D02*
X112555714Y-51572438D01*
X112555714Y-51572438D02*
X112591428Y-51620057D01*
X112591428Y-51620057D02*
X112627142Y-51715295D01*
X112627142Y-51715295D02*
X112627142Y-51810533D01*
X112627142Y-51810533D02*
X112591428Y-51953390D01*
X112591428Y-51953390D02*
X112162856Y-52524819D01*
X112162856Y-52524819D02*
X112627142Y-52524819D01*
X113270000Y-51524819D02*
X113127142Y-51524819D01*
X113127142Y-51524819D02*
X113055714Y-51572438D01*
X113055714Y-51572438D02*
X113020000Y-51620057D01*
X113020000Y-51620057D02*
X112948571Y-51762914D01*
X112948571Y-51762914D02*
X112912857Y-51953390D01*
X112912857Y-51953390D02*
X112912857Y-52334342D01*
X112912857Y-52334342D02*
X112948571Y-52429580D01*
X112948571Y-52429580D02*
X112984285Y-52477200D01*
X112984285Y-52477200D02*
X113055714Y-52524819D01*
X113055714Y-52524819D02*
X113198571Y-52524819D01*
X113198571Y-52524819D02*
X113270000Y-52477200D01*
X113270000Y-52477200D02*
X113305714Y-52429580D01*
X113305714Y-52429580D02*
X113341428Y-52334342D01*
X113341428Y-52334342D02*
X113341428Y-52096247D01*
X113341428Y-52096247D02*
X113305714Y-52001009D01*
X113305714Y-52001009D02*
X113270000Y-51953390D01*
X113270000Y-51953390D02*
X113198571Y-51905771D01*
X113198571Y-51905771D02*
X113055714Y-51905771D01*
X113055714Y-51905771D02*
X112984285Y-51953390D01*
X112984285Y-51953390D02*
X112948571Y-52001009D01*
X112948571Y-52001009D02*
X112912857Y-52096247D01*
X114452856Y-52524819D02*
X114202856Y-52048628D01*
X114024285Y-52524819D02*
X114024285Y-51524819D01*
X114024285Y-51524819D02*
X114309999Y-51524819D01*
X114309999Y-51524819D02*
X114381428Y-51572438D01*
X114381428Y-51572438D02*
X114417142Y-51620057D01*
X114417142Y-51620057D02*
X114452856Y-51715295D01*
X114452856Y-51715295D02*
X114452856Y-51858152D01*
X114452856Y-51858152D02*
X114417142Y-51953390D01*
X114417142Y-51953390D02*
X114381428Y-52001009D01*
X114381428Y-52001009D02*
X114309999Y-52048628D01*
X114309999Y-52048628D02*
X114024285Y-52048628D01*
X115167142Y-52524819D02*
X114738571Y-52524819D01*
X114952856Y-52524819D02*
X114952856Y-51524819D01*
X114952856Y-51524819D02*
X114881428Y-51667676D01*
X114881428Y-51667676D02*
X114809999Y-51762914D01*
X114809999Y-51762914D02*
X114738571Y-51810533D01*
X115881428Y-52524819D02*
X115452857Y-52524819D01*
X115667142Y-52524819D02*
X115667142Y-51524819D01*
X115667142Y-51524819D02*
X115595714Y-51667676D01*
X115595714Y-51667676D02*
X115524285Y-51762914D01*
X115524285Y-51762914D02*
X115452857Y-51810533D01*
X78428571Y-41999819D02*
X78857143Y-41999819D01*
X78642857Y-42999819D02*
X78642857Y-41999819D01*
X79107143Y-42999819D02*
X79107143Y-41999819D01*
X79107143Y-41999819D02*
X79392857Y-41999819D01*
X79392857Y-41999819D02*
X79464286Y-42047438D01*
X79464286Y-42047438D02*
X79500000Y-42095057D01*
X79500000Y-42095057D02*
X79535714Y-42190295D01*
X79535714Y-42190295D02*
X79535714Y-42333152D01*
X79535714Y-42333152D02*
X79500000Y-42428390D01*
X79500000Y-42428390D02*
X79464286Y-42476009D01*
X79464286Y-42476009D02*
X79392857Y-42523628D01*
X79392857Y-42523628D02*
X79107143Y-42523628D01*
X79821429Y-42095057D02*
X79857143Y-42047438D01*
X79857143Y-42047438D02*
X79928572Y-41999819D01*
X79928572Y-41999819D02*
X80107143Y-41999819D01*
X80107143Y-41999819D02*
X80178572Y-42047438D01*
X80178572Y-42047438D02*
X80214286Y-42095057D01*
X80214286Y-42095057D02*
X80250000Y-42190295D01*
X80250000Y-42190295D02*
X80250000Y-42285533D01*
X80250000Y-42285533D02*
X80214286Y-42428390D01*
X80214286Y-42428390D02*
X79785714Y-42999819D01*
X79785714Y-42999819D02*
X80250000Y-42999819D01*
X115016428Y-46174819D02*
X115016428Y-45174819D01*
X115016428Y-45174819D02*
X115194999Y-45174819D01*
X115194999Y-45174819D02*
X115302142Y-45222438D01*
X115302142Y-45222438D02*
X115373571Y-45317676D01*
X115373571Y-45317676D02*
X115409285Y-45412914D01*
X115409285Y-45412914D02*
X115444999Y-45603390D01*
X115444999Y-45603390D02*
X115444999Y-45746247D01*
X115444999Y-45746247D02*
X115409285Y-45936723D01*
X115409285Y-45936723D02*
X115373571Y-46031961D01*
X115373571Y-46031961D02*
X115302142Y-46127200D01*
X115302142Y-46127200D02*
X115194999Y-46174819D01*
X115194999Y-46174819D02*
X115016428Y-46174819D01*
X116159285Y-46174819D02*
X115730714Y-46174819D01*
X115944999Y-46174819D02*
X115944999Y-45174819D01*
X115944999Y-45174819D02*
X115873571Y-45317676D01*
X115873571Y-45317676D02*
X115802142Y-45412914D01*
X115802142Y-45412914D02*
X115730714Y-45460533D01*
X97942856Y-50524580D02*
X97907142Y-50572200D01*
X97907142Y-50572200D02*
X97799999Y-50619819D01*
X97799999Y-50619819D02*
X97728571Y-50619819D01*
X97728571Y-50619819D02*
X97621428Y-50572200D01*
X97621428Y-50572200D02*
X97549999Y-50476961D01*
X97549999Y-50476961D02*
X97514285Y-50381723D01*
X97514285Y-50381723D02*
X97478571Y-50191247D01*
X97478571Y-50191247D02*
X97478571Y-50048390D01*
X97478571Y-50048390D02*
X97514285Y-49857914D01*
X97514285Y-49857914D02*
X97549999Y-49762676D01*
X97549999Y-49762676D02*
X97621428Y-49667438D01*
X97621428Y-49667438D02*
X97728571Y-49619819D01*
X97728571Y-49619819D02*
X97799999Y-49619819D01*
X97799999Y-49619819D02*
X97907142Y-49667438D01*
X97907142Y-49667438D02*
X97942856Y-49715057D01*
X98657142Y-50619819D02*
X98228571Y-50619819D01*
X98442856Y-50619819D02*
X98442856Y-49619819D01*
X98442856Y-49619819D02*
X98371428Y-49762676D01*
X98371428Y-49762676D02*
X98299999Y-49857914D01*
X98299999Y-49857914D02*
X98228571Y-49905533D01*
X99300000Y-49619819D02*
X99157142Y-49619819D01*
X99157142Y-49619819D02*
X99085714Y-49667438D01*
X99085714Y-49667438D02*
X99050000Y-49715057D01*
X99050000Y-49715057D02*
X98978571Y-49857914D01*
X98978571Y-49857914D02*
X98942857Y-50048390D01*
X98942857Y-50048390D02*
X98942857Y-50429342D01*
X98942857Y-50429342D02*
X98978571Y-50524580D01*
X98978571Y-50524580D02*
X99014285Y-50572200D01*
X99014285Y-50572200D02*
X99085714Y-50619819D01*
X99085714Y-50619819D02*
X99228571Y-50619819D01*
X99228571Y-50619819D02*
X99300000Y-50572200D01*
X99300000Y-50572200D02*
X99335714Y-50524580D01*
X99335714Y-50524580D02*
X99371428Y-50429342D01*
X99371428Y-50429342D02*
X99371428Y-50191247D01*
X99371428Y-50191247D02*
X99335714Y-50096009D01*
X99335714Y-50096009D02*
X99300000Y-50048390D01*
X99300000Y-50048390D02*
X99228571Y-50000771D01*
X99228571Y-50000771D02*
X99085714Y-50000771D01*
X99085714Y-50000771D02*
X99014285Y-50048390D01*
X99014285Y-50048390D02*
X98978571Y-50096009D01*
X98978571Y-50096009D02*
X98942857Y-50191247D01*
X90322856Y-55604580D02*
X90287142Y-55652200D01*
X90287142Y-55652200D02*
X90179999Y-55699819D01*
X90179999Y-55699819D02*
X90108571Y-55699819D01*
X90108571Y-55699819D02*
X90001428Y-55652200D01*
X90001428Y-55652200D02*
X89929999Y-55556961D01*
X89929999Y-55556961D02*
X89894285Y-55461723D01*
X89894285Y-55461723D02*
X89858571Y-55271247D01*
X89858571Y-55271247D02*
X89858571Y-55128390D01*
X89858571Y-55128390D02*
X89894285Y-54937914D01*
X89894285Y-54937914D02*
X89929999Y-54842676D01*
X89929999Y-54842676D02*
X90001428Y-54747438D01*
X90001428Y-54747438D02*
X90108571Y-54699819D01*
X90108571Y-54699819D02*
X90179999Y-54699819D01*
X90179999Y-54699819D02*
X90287142Y-54747438D01*
X90287142Y-54747438D02*
X90322856Y-54795057D01*
X91037142Y-55699819D02*
X90608571Y-55699819D01*
X90822856Y-55699819D02*
X90822856Y-54699819D01*
X90822856Y-54699819D02*
X90751428Y-54842676D01*
X90751428Y-54842676D02*
X90679999Y-54937914D01*
X90679999Y-54937914D02*
X90608571Y-54985533D01*
X91287142Y-54699819D02*
X91751428Y-54699819D01*
X91751428Y-54699819D02*
X91501428Y-55080771D01*
X91501428Y-55080771D02*
X91608571Y-55080771D01*
X91608571Y-55080771D02*
X91680000Y-55128390D01*
X91680000Y-55128390D02*
X91715714Y-55176009D01*
X91715714Y-55176009D02*
X91751428Y-55271247D01*
X91751428Y-55271247D02*
X91751428Y-55509342D01*
X91751428Y-55509342D02*
X91715714Y-55604580D01*
X91715714Y-55604580D02*
X91680000Y-55652200D01*
X91680000Y-55652200D02*
X91608571Y-55699819D01*
X91608571Y-55699819D02*
X91394285Y-55699819D01*
X91394285Y-55699819D02*
X91322857Y-55652200D01*
X91322857Y-55652200D02*
X91287142Y-55604580D01*
X91592856Y-61414819D02*
X91342856Y-60938628D01*
X91164285Y-61414819D02*
X91164285Y-60414819D01*
X91164285Y-60414819D02*
X91449999Y-60414819D01*
X91449999Y-60414819D02*
X91521428Y-60462438D01*
X91521428Y-60462438D02*
X91557142Y-60510057D01*
X91557142Y-60510057D02*
X91592856Y-60605295D01*
X91592856Y-60605295D02*
X91592856Y-60748152D01*
X91592856Y-60748152D02*
X91557142Y-60843390D01*
X91557142Y-60843390D02*
X91521428Y-60891009D01*
X91521428Y-60891009D02*
X91449999Y-60938628D01*
X91449999Y-60938628D02*
X91164285Y-60938628D01*
X92307142Y-61414819D02*
X91878571Y-61414819D01*
X92092856Y-61414819D02*
X92092856Y-60414819D01*
X92092856Y-60414819D02*
X92021428Y-60557676D01*
X92021428Y-60557676D02*
X91949999Y-60652914D01*
X91949999Y-60652914D02*
X91878571Y-60700533D01*
X92950000Y-60414819D02*
X92807142Y-60414819D01*
X92807142Y-60414819D02*
X92735714Y-60462438D01*
X92735714Y-60462438D02*
X92700000Y-60510057D01*
X92700000Y-60510057D02*
X92628571Y-60652914D01*
X92628571Y-60652914D02*
X92592857Y-60843390D01*
X92592857Y-60843390D02*
X92592857Y-61224342D01*
X92592857Y-61224342D02*
X92628571Y-61319580D01*
X92628571Y-61319580D02*
X92664285Y-61367200D01*
X92664285Y-61367200D02*
X92735714Y-61414819D01*
X92735714Y-61414819D02*
X92878571Y-61414819D01*
X92878571Y-61414819D02*
X92950000Y-61367200D01*
X92950000Y-61367200D02*
X92985714Y-61319580D01*
X92985714Y-61319580D02*
X93021428Y-61224342D01*
X93021428Y-61224342D02*
X93021428Y-60986247D01*
X93021428Y-60986247D02*
X92985714Y-60891009D01*
X92985714Y-60891009D02*
X92950000Y-60843390D01*
X92950000Y-60843390D02*
X92878571Y-60795771D01*
X92878571Y-60795771D02*
X92735714Y-60795771D01*
X92735714Y-60795771D02*
X92664285Y-60843390D01*
X92664285Y-60843390D02*
X92628571Y-60891009D01*
X92628571Y-60891009D02*
X92592857Y-60986247D01*
X87693571Y-100419819D02*
X87693571Y-101229342D01*
X87693571Y-101229342D02*
X87729285Y-101324580D01*
X87729285Y-101324580D02*
X87765000Y-101372200D01*
X87765000Y-101372200D02*
X87836428Y-101419819D01*
X87836428Y-101419819D02*
X87979285Y-101419819D01*
X87979285Y-101419819D02*
X88050714Y-101372200D01*
X88050714Y-101372200D02*
X88086428Y-101324580D01*
X88086428Y-101324580D02*
X88122142Y-101229342D01*
X88122142Y-101229342D02*
X88122142Y-100419819D01*
X88872142Y-101419819D02*
X88443571Y-101419819D01*
X88657856Y-101419819D02*
X88657856Y-100419819D01*
X88657856Y-100419819D02*
X88586428Y-100562676D01*
X88586428Y-100562676D02*
X88514999Y-100657914D01*
X88514999Y-100657914D02*
X88443571Y-100705533D01*
X89354819Y-85215000D02*
X88878628Y-85465000D01*
X89354819Y-85643571D02*
X88354819Y-85643571D01*
X88354819Y-85643571D02*
X88354819Y-85357857D01*
X88354819Y-85357857D02*
X88402438Y-85286428D01*
X88402438Y-85286428D02*
X88450057Y-85250714D01*
X88450057Y-85250714D02*
X88545295Y-85215000D01*
X88545295Y-85215000D02*
X88688152Y-85215000D01*
X88688152Y-85215000D02*
X88783390Y-85250714D01*
X88783390Y-85250714D02*
X88831009Y-85286428D01*
X88831009Y-85286428D02*
X88878628Y-85357857D01*
X88878628Y-85357857D02*
X88878628Y-85643571D01*
X88354819Y-84965000D02*
X88354819Y-84465000D01*
X88354819Y-84465000D02*
X89354819Y-84786428D01*
X100802856Y-112754580D02*
X100767142Y-112802200D01*
X100767142Y-112802200D02*
X100659999Y-112849819D01*
X100659999Y-112849819D02*
X100588571Y-112849819D01*
X100588571Y-112849819D02*
X100481428Y-112802200D01*
X100481428Y-112802200D02*
X100409999Y-112706961D01*
X100409999Y-112706961D02*
X100374285Y-112611723D01*
X100374285Y-112611723D02*
X100338571Y-112421247D01*
X100338571Y-112421247D02*
X100338571Y-112278390D01*
X100338571Y-112278390D02*
X100374285Y-112087914D01*
X100374285Y-112087914D02*
X100409999Y-111992676D01*
X100409999Y-111992676D02*
X100481428Y-111897438D01*
X100481428Y-111897438D02*
X100588571Y-111849819D01*
X100588571Y-111849819D02*
X100659999Y-111849819D01*
X100659999Y-111849819D02*
X100767142Y-111897438D01*
X100767142Y-111897438D02*
X100802856Y-111945057D01*
X101088571Y-111945057D02*
X101124285Y-111897438D01*
X101124285Y-111897438D02*
X101195714Y-111849819D01*
X101195714Y-111849819D02*
X101374285Y-111849819D01*
X101374285Y-111849819D02*
X101445714Y-111897438D01*
X101445714Y-111897438D02*
X101481428Y-111945057D01*
X101481428Y-111945057D02*
X101517142Y-112040295D01*
X101517142Y-112040295D02*
X101517142Y-112135533D01*
X101517142Y-112135533D02*
X101481428Y-112278390D01*
X101481428Y-112278390D02*
X101052856Y-112849819D01*
X101052856Y-112849819D02*
X101517142Y-112849819D01*
X101981428Y-111849819D02*
X102052857Y-111849819D01*
X102052857Y-111849819D02*
X102124285Y-111897438D01*
X102124285Y-111897438D02*
X102160000Y-111945057D01*
X102160000Y-111945057D02*
X102195714Y-112040295D01*
X102195714Y-112040295D02*
X102231428Y-112230771D01*
X102231428Y-112230771D02*
X102231428Y-112468866D01*
X102231428Y-112468866D02*
X102195714Y-112659342D01*
X102195714Y-112659342D02*
X102160000Y-112754580D01*
X102160000Y-112754580D02*
X102124285Y-112802200D01*
X102124285Y-112802200D02*
X102052857Y-112849819D01*
X102052857Y-112849819D02*
X101981428Y-112849819D01*
X101981428Y-112849819D02*
X101910000Y-112802200D01*
X101910000Y-112802200D02*
X101874285Y-112754580D01*
X101874285Y-112754580D02*
X101838571Y-112659342D01*
X101838571Y-112659342D02*
X101802857Y-112468866D01*
X101802857Y-112468866D02*
X101802857Y-112230771D01*
X101802857Y-112230771D02*
X101838571Y-112040295D01*
X101838571Y-112040295D02*
X101874285Y-111945057D01*
X101874285Y-111945057D02*
X101910000Y-111897438D01*
X101910000Y-111897438D02*
X101981428Y-111849819D01*
X78306666Y-136714819D02*
X78306666Y-137429104D01*
X78306666Y-137429104D02*
X78259047Y-137571961D01*
X78259047Y-137571961D02*
X78163809Y-137667200D01*
X78163809Y-137667200D02*
X78020952Y-137714819D01*
X78020952Y-137714819D02*
X77925714Y-137714819D01*
X78687619Y-136714819D02*
X79306666Y-136714819D01*
X79306666Y-136714819D02*
X78973333Y-137095771D01*
X78973333Y-137095771D02*
X79116190Y-137095771D01*
X79116190Y-137095771D02*
X79211428Y-137143390D01*
X79211428Y-137143390D02*
X79259047Y-137191009D01*
X79259047Y-137191009D02*
X79306666Y-137286247D01*
X79306666Y-137286247D02*
X79306666Y-137524342D01*
X79306666Y-137524342D02*
X79259047Y-137619580D01*
X79259047Y-137619580D02*
X79211428Y-137667200D01*
X79211428Y-137667200D02*
X79116190Y-137714819D01*
X79116190Y-137714819D02*
X78830476Y-137714819D01*
X78830476Y-137714819D02*
X78735238Y-137667200D01*
X78735238Y-137667200D02*
X78687619Y-137619580D01*
X84274819Y-80135000D02*
X83798628Y-80385000D01*
X84274819Y-80563571D02*
X83274819Y-80563571D01*
X83274819Y-80563571D02*
X83274819Y-80277857D01*
X83274819Y-80277857D02*
X83322438Y-80206428D01*
X83322438Y-80206428D02*
X83370057Y-80170714D01*
X83370057Y-80170714D02*
X83465295Y-80135000D01*
X83465295Y-80135000D02*
X83608152Y-80135000D01*
X83608152Y-80135000D02*
X83703390Y-80170714D01*
X83703390Y-80170714D02*
X83751009Y-80206428D01*
X83751009Y-80206428D02*
X83798628Y-80277857D01*
X83798628Y-80277857D02*
X83798628Y-80563571D01*
X83274819Y-79456428D02*
X83274819Y-79813571D01*
X83274819Y-79813571D02*
X83751009Y-79849285D01*
X83751009Y-79849285D02*
X83703390Y-79813571D01*
X83703390Y-79813571D02*
X83655771Y-79742143D01*
X83655771Y-79742143D02*
X83655771Y-79563571D01*
X83655771Y-79563571D02*
X83703390Y-79492143D01*
X83703390Y-79492143D02*
X83751009Y-79456428D01*
X83751009Y-79456428D02*
X83846247Y-79420714D01*
X83846247Y-79420714D02*
X84084342Y-79420714D01*
X84084342Y-79420714D02*
X84179580Y-79456428D01*
X84179580Y-79456428D02*
X84227200Y-79492143D01*
X84227200Y-79492143D02*
X84274819Y-79563571D01*
X84274819Y-79563571D02*
X84274819Y-79742143D01*
X84274819Y-79742143D02*
X84227200Y-79813571D01*
X84227200Y-79813571D02*
X84179580Y-79849285D01*
X92862856Y-55604580D02*
X92827142Y-55652200D01*
X92827142Y-55652200D02*
X92719999Y-55699819D01*
X92719999Y-55699819D02*
X92648571Y-55699819D01*
X92648571Y-55699819D02*
X92541428Y-55652200D01*
X92541428Y-55652200D02*
X92469999Y-55556961D01*
X92469999Y-55556961D02*
X92434285Y-55461723D01*
X92434285Y-55461723D02*
X92398571Y-55271247D01*
X92398571Y-55271247D02*
X92398571Y-55128390D01*
X92398571Y-55128390D02*
X92434285Y-54937914D01*
X92434285Y-54937914D02*
X92469999Y-54842676D01*
X92469999Y-54842676D02*
X92541428Y-54747438D01*
X92541428Y-54747438D02*
X92648571Y-54699819D01*
X92648571Y-54699819D02*
X92719999Y-54699819D01*
X92719999Y-54699819D02*
X92827142Y-54747438D01*
X92827142Y-54747438D02*
X92862856Y-54795057D01*
X93577142Y-55699819D02*
X93148571Y-55699819D01*
X93362856Y-55699819D02*
X93362856Y-54699819D01*
X93362856Y-54699819D02*
X93291428Y-54842676D01*
X93291428Y-54842676D02*
X93219999Y-54937914D01*
X93219999Y-54937914D02*
X93148571Y-54985533D01*
X93827142Y-54699819D02*
X94327142Y-54699819D01*
X94327142Y-54699819D02*
X94005714Y-55699819D01*
X93182856Y-119104580D02*
X93147142Y-119152200D01*
X93147142Y-119152200D02*
X93039999Y-119199819D01*
X93039999Y-119199819D02*
X92968571Y-119199819D01*
X92968571Y-119199819D02*
X92861428Y-119152200D01*
X92861428Y-119152200D02*
X92789999Y-119056961D01*
X92789999Y-119056961D02*
X92754285Y-118961723D01*
X92754285Y-118961723D02*
X92718571Y-118771247D01*
X92718571Y-118771247D02*
X92718571Y-118628390D01*
X92718571Y-118628390D02*
X92754285Y-118437914D01*
X92754285Y-118437914D02*
X92789999Y-118342676D01*
X92789999Y-118342676D02*
X92861428Y-118247438D01*
X92861428Y-118247438D02*
X92968571Y-118199819D01*
X92968571Y-118199819D02*
X93039999Y-118199819D01*
X93039999Y-118199819D02*
X93147142Y-118247438D01*
X93147142Y-118247438D02*
X93182856Y-118295057D01*
X93897142Y-119199819D02*
X93468571Y-119199819D01*
X93682856Y-119199819D02*
X93682856Y-118199819D01*
X93682856Y-118199819D02*
X93611428Y-118342676D01*
X93611428Y-118342676D02*
X93539999Y-118437914D01*
X93539999Y-118437914D02*
X93468571Y-118485533D01*
X94325714Y-118628390D02*
X94254285Y-118580771D01*
X94254285Y-118580771D02*
X94218571Y-118533152D01*
X94218571Y-118533152D02*
X94182857Y-118437914D01*
X94182857Y-118437914D02*
X94182857Y-118390295D01*
X94182857Y-118390295D02*
X94218571Y-118295057D01*
X94218571Y-118295057D02*
X94254285Y-118247438D01*
X94254285Y-118247438D02*
X94325714Y-118199819D01*
X94325714Y-118199819D02*
X94468571Y-118199819D01*
X94468571Y-118199819D02*
X94540000Y-118247438D01*
X94540000Y-118247438D02*
X94575714Y-118295057D01*
X94575714Y-118295057D02*
X94611428Y-118390295D01*
X94611428Y-118390295D02*
X94611428Y-118437914D01*
X94611428Y-118437914D02*
X94575714Y-118533152D01*
X94575714Y-118533152D02*
X94540000Y-118580771D01*
X94540000Y-118580771D02*
X94468571Y-118628390D01*
X94468571Y-118628390D02*
X94325714Y-118628390D01*
X94325714Y-118628390D02*
X94254285Y-118676009D01*
X94254285Y-118676009D02*
X94218571Y-118723628D01*
X94218571Y-118723628D02*
X94182857Y-118818866D01*
X94182857Y-118818866D02*
X94182857Y-119009342D01*
X94182857Y-119009342D02*
X94218571Y-119104580D01*
X94218571Y-119104580D02*
X94254285Y-119152200D01*
X94254285Y-119152200D02*
X94325714Y-119199819D01*
X94325714Y-119199819D02*
X94468571Y-119199819D01*
X94468571Y-119199819D02*
X94540000Y-119152200D01*
X94540000Y-119152200D02*
X94575714Y-119104580D01*
X94575714Y-119104580D02*
X94611428Y-119009342D01*
X94611428Y-119009342D02*
X94611428Y-118818866D01*
X94611428Y-118818866D02*
X94575714Y-118723628D01*
X94575714Y-118723628D02*
X94540000Y-118676009D01*
X94540000Y-118676009D02*
X94468571Y-118628390D01*
X85242856Y-50619819D02*
X84992856Y-50143628D01*
X84814285Y-50619819D02*
X84814285Y-49619819D01*
X84814285Y-49619819D02*
X85099999Y-49619819D01*
X85099999Y-49619819D02*
X85171428Y-49667438D01*
X85171428Y-49667438D02*
X85207142Y-49715057D01*
X85207142Y-49715057D02*
X85242856Y-49810295D01*
X85242856Y-49810295D02*
X85242856Y-49953152D01*
X85242856Y-49953152D02*
X85207142Y-50048390D01*
X85207142Y-50048390D02*
X85171428Y-50096009D01*
X85171428Y-50096009D02*
X85099999Y-50143628D01*
X85099999Y-50143628D02*
X84814285Y-50143628D01*
X85957142Y-50619819D02*
X85528571Y-50619819D01*
X85742856Y-50619819D02*
X85742856Y-49619819D01*
X85742856Y-49619819D02*
X85671428Y-49762676D01*
X85671428Y-49762676D02*
X85599999Y-49857914D01*
X85599999Y-49857914D02*
X85528571Y-49905533D01*
X86600000Y-49953152D02*
X86600000Y-50619819D01*
X86421428Y-49572200D02*
X86242857Y-50286485D01*
X86242857Y-50286485D02*
X86707142Y-50286485D01*
X101473333Y-86619580D02*
X101425714Y-86667200D01*
X101425714Y-86667200D02*
X101282857Y-86714819D01*
X101282857Y-86714819D02*
X101187619Y-86714819D01*
X101187619Y-86714819D02*
X101044762Y-86667200D01*
X101044762Y-86667200D02*
X100949524Y-86571961D01*
X100949524Y-86571961D02*
X100901905Y-86476723D01*
X100901905Y-86476723D02*
X100854286Y-86286247D01*
X100854286Y-86286247D02*
X100854286Y-86143390D01*
X100854286Y-86143390D02*
X100901905Y-85952914D01*
X100901905Y-85952914D02*
X100949524Y-85857676D01*
X100949524Y-85857676D02*
X101044762Y-85762438D01*
X101044762Y-85762438D02*
X101187619Y-85714819D01*
X101187619Y-85714819D02*
X101282857Y-85714819D01*
X101282857Y-85714819D02*
X101425714Y-85762438D01*
X101425714Y-85762438D02*
X101473333Y-85810057D01*
X102044762Y-86143390D02*
X101949524Y-86095771D01*
X101949524Y-86095771D02*
X101901905Y-86048152D01*
X101901905Y-86048152D02*
X101854286Y-85952914D01*
X101854286Y-85952914D02*
X101854286Y-85905295D01*
X101854286Y-85905295D02*
X101901905Y-85810057D01*
X101901905Y-85810057D02*
X101949524Y-85762438D01*
X101949524Y-85762438D02*
X102044762Y-85714819D01*
X102044762Y-85714819D02*
X102235238Y-85714819D01*
X102235238Y-85714819D02*
X102330476Y-85762438D01*
X102330476Y-85762438D02*
X102378095Y-85810057D01*
X102378095Y-85810057D02*
X102425714Y-85905295D01*
X102425714Y-85905295D02*
X102425714Y-85952914D01*
X102425714Y-85952914D02*
X102378095Y-86048152D01*
X102378095Y-86048152D02*
X102330476Y-86095771D01*
X102330476Y-86095771D02*
X102235238Y-86143390D01*
X102235238Y-86143390D02*
X102044762Y-86143390D01*
X102044762Y-86143390D02*
X101949524Y-86191009D01*
X101949524Y-86191009D02*
X101901905Y-86238628D01*
X101901905Y-86238628D02*
X101854286Y-86333866D01*
X101854286Y-86333866D02*
X101854286Y-86524342D01*
X101854286Y-86524342D02*
X101901905Y-86619580D01*
X101901905Y-86619580D02*
X101949524Y-86667200D01*
X101949524Y-86667200D02*
X102044762Y-86714819D01*
X102044762Y-86714819D02*
X102235238Y-86714819D01*
X102235238Y-86714819D02*
X102330476Y-86667200D01*
X102330476Y-86667200D02*
X102378095Y-86619580D01*
X102378095Y-86619580D02*
X102425714Y-86524342D01*
X102425714Y-86524342D02*
X102425714Y-86333866D01*
X102425714Y-86333866D02*
X102378095Y-86238628D01*
X102378095Y-86238628D02*
X102330476Y-86191009D01*
X102330476Y-86191009D02*
X102235238Y-86143390D01*
X82423095Y-60414819D02*
X82423095Y-61224342D01*
X82423095Y-61224342D02*
X82470714Y-61319580D01*
X82470714Y-61319580D02*
X82518333Y-61367200D01*
X82518333Y-61367200D02*
X82613571Y-61414819D01*
X82613571Y-61414819D02*
X82804047Y-61414819D01*
X82804047Y-61414819D02*
X82899285Y-61367200D01*
X82899285Y-61367200D02*
X82946904Y-61319580D01*
X82946904Y-61319580D02*
X82994523Y-61224342D01*
X82994523Y-61224342D02*
X82994523Y-60414819D01*
X83613571Y-60843390D02*
X83518333Y-60795771D01*
X83518333Y-60795771D02*
X83470714Y-60748152D01*
X83470714Y-60748152D02*
X83423095Y-60652914D01*
X83423095Y-60652914D02*
X83423095Y-60605295D01*
X83423095Y-60605295D02*
X83470714Y-60510057D01*
X83470714Y-60510057D02*
X83518333Y-60462438D01*
X83518333Y-60462438D02*
X83613571Y-60414819D01*
X83613571Y-60414819D02*
X83804047Y-60414819D01*
X83804047Y-60414819D02*
X83899285Y-60462438D01*
X83899285Y-60462438D02*
X83946904Y-60510057D01*
X83946904Y-60510057D02*
X83994523Y-60605295D01*
X83994523Y-60605295D02*
X83994523Y-60652914D01*
X83994523Y-60652914D02*
X83946904Y-60748152D01*
X83946904Y-60748152D02*
X83899285Y-60795771D01*
X83899285Y-60795771D02*
X83804047Y-60843390D01*
X83804047Y-60843390D02*
X83613571Y-60843390D01*
X83613571Y-60843390D02*
X83518333Y-60891009D01*
X83518333Y-60891009D02*
X83470714Y-60938628D01*
X83470714Y-60938628D02*
X83423095Y-61033866D01*
X83423095Y-61033866D02*
X83423095Y-61224342D01*
X83423095Y-61224342D02*
X83470714Y-61319580D01*
X83470714Y-61319580D02*
X83518333Y-61367200D01*
X83518333Y-61367200D02*
X83613571Y-61414819D01*
X83613571Y-61414819D02*
X83804047Y-61414819D01*
X83804047Y-61414819D02*
X83899285Y-61367200D01*
X83899285Y-61367200D02*
X83946904Y-61319580D01*
X83946904Y-61319580D02*
X83994523Y-61224342D01*
X83994523Y-61224342D02*
X83994523Y-61033866D01*
X83994523Y-61033866D02*
X83946904Y-60938628D01*
X83946904Y-60938628D02*
X83899285Y-60891009D01*
X83899285Y-60891009D02*
X83804047Y-60843390D01*
X97942856Y-61414819D02*
X97692856Y-60938628D01*
X97514285Y-61414819D02*
X97514285Y-60414819D01*
X97514285Y-60414819D02*
X97799999Y-60414819D01*
X97799999Y-60414819D02*
X97871428Y-60462438D01*
X97871428Y-60462438D02*
X97907142Y-60510057D01*
X97907142Y-60510057D02*
X97942856Y-60605295D01*
X97942856Y-60605295D02*
X97942856Y-60748152D01*
X97942856Y-60748152D02*
X97907142Y-60843390D01*
X97907142Y-60843390D02*
X97871428Y-60891009D01*
X97871428Y-60891009D02*
X97799999Y-60938628D01*
X97799999Y-60938628D02*
X97514285Y-60938628D01*
X98657142Y-61414819D02*
X98228571Y-61414819D01*
X98442856Y-61414819D02*
X98442856Y-60414819D01*
X98442856Y-60414819D02*
X98371428Y-60557676D01*
X98371428Y-60557676D02*
X98299999Y-60652914D01*
X98299999Y-60652914D02*
X98228571Y-60700533D01*
X98907142Y-60414819D02*
X99407142Y-60414819D01*
X99407142Y-60414819D02*
X99085714Y-61414819D01*
X96992856Y-112754580D02*
X96957142Y-112802200D01*
X96957142Y-112802200D02*
X96849999Y-112849819D01*
X96849999Y-112849819D02*
X96778571Y-112849819D01*
X96778571Y-112849819D02*
X96671428Y-112802200D01*
X96671428Y-112802200D02*
X96599999Y-112706961D01*
X96599999Y-112706961D02*
X96564285Y-112611723D01*
X96564285Y-112611723D02*
X96528571Y-112421247D01*
X96528571Y-112421247D02*
X96528571Y-112278390D01*
X96528571Y-112278390D02*
X96564285Y-112087914D01*
X96564285Y-112087914D02*
X96599999Y-111992676D01*
X96599999Y-111992676D02*
X96671428Y-111897438D01*
X96671428Y-111897438D02*
X96778571Y-111849819D01*
X96778571Y-111849819D02*
X96849999Y-111849819D01*
X96849999Y-111849819D02*
X96957142Y-111897438D01*
X96957142Y-111897438D02*
X96992856Y-111945057D01*
X97707142Y-112849819D02*
X97278571Y-112849819D01*
X97492856Y-112849819D02*
X97492856Y-111849819D01*
X97492856Y-111849819D02*
X97421428Y-111992676D01*
X97421428Y-111992676D02*
X97349999Y-112087914D01*
X97349999Y-112087914D02*
X97278571Y-112135533D01*
X98064285Y-112849819D02*
X98207142Y-112849819D01*
X98207142Y-112849819D02*
X98278571Y-112802200D01*
X98278571Y-112802200D02*
X98314285Y-112754580D01*
X98314285Y-112754580D02*
X98385714Y-112611723D01*
X98385714Y-112611723D02*
X98421428Y-112421247D01*
X98421428Y-112421247D02*
X98421428Y-112040295D01*
X98421428Y-112040295D02*
X98385714Y-111945057D01*
X98385714Y-111945057D02*
X98350000Y-111897438D01*
X98350000Y-111897438D02*
X98278571Y-111849819D01*
X98278571Y-111849819D02*
X98135714Y-111849819D01*
X98135714Y-111849819D02*
X98064285Y-111897438D01*
X98064285Y-111897438D02*
X98028571Y-111945057D01*
X98028571Y-111945057D02*
X97992857Y-112040295D01*
X97992857Y-112040295D02*
X97992857Y-112278390D01*
X97992857Y-112278390D02*
X98028571Y-112373628D01*
X98028571Y-112373628D02*
X98064285Y-112421247D01*
X98064285Y-112421247D02*
X98135714Y-112468866D01*
X98135714Y-112468866D02*
X98278571Y-112468866D01*
X98278571Y-112468866D02*
X98350000Y-112421247D01*
X98350000Y-112421247D02*
X98385714Y-112373628D01*
X98385714Y-112373628D02*
X98421428Y-112278390D01*
X100802856Y-119104580D02*
X100767142Y-119152200D01*
X100767142Y-119152200D02*
X100659999Y-119199819D01*
X100659999Y-119199819D02*
X100588571Y-119199819D01*
X100588571Y-119199819D02*
X100481428Y-119152200D01*
X100481428Y-119152200D02*
X100409999Y-119056961D01*
X100409999Y-119056961D02*
X100374285Y-118961723D01*
X100374285Y-118961723D02*
X100338571Y-118771247D01*
X100338571Y-118771247D02*
X100338571Y-118628390D01*
X100338571Y-118628390D02*
X100374285Y-118437914D01*
X100374285Y-118437914D02*
X100409999Y-118342676D01*
X100409999Y-118342676D02*
X100481428Y-118247438D01*
X100481428Y-118247438D02*
X100588571Y-118199819D01*
X100588571Y-118199819D02*
X100659999Y-118199819D01*
X100659999Y-118199819D02*
X100767142Y-118247438D01*
X100767142Y-118247438D02*
X100802856Y-118295057D01*
X101088571Y-118295057D02*
X101124285Y-118247438D01*
X101124285Y-118247438D02*
X101195714Y-118199819D01*
X101195714Y-118199819D02*
X101374285Y-118199819D01*
X101374285Y-118199819D02*
X101445714Y-118247438D01*
X101445714Y-118247438D02*
X101481428Y-118295057D01*
X101481428Y-118295057D02*
X101517142Y-118390295D01*
X101517142Y-118390295D02*
X101517142Y-118485533D01*
X101517142Y-118485533D02*
X101481428Y-118628390D01*
X101481428Y-118628390D02*
X101052856Y-119199819D01*
X101052856Y-119199819D02*
X101517142Y-119199819D01*
X101767142Y-118199819D02*
X102231428Y-118199819D01*
X102231428Y-118199819D02*
X101981428Y-118580771D01*
X101981428Y-118580771D02*
X102088571Y-118580771D01*
X102088571Y-118580771D02*
X102160000Y-118628390D01*
X102160000Y-118628390D02*
X102195714Y-118676009D01*
X102195714Y-118676009D02*
X102231428Y-118771247D01*
X102231428Y-118771247D02*
X102231428Y-119009342D01*
X102231428Y-119009342D02*
X102195714Y-119104580D01*
X102195714Y-119104580D02*
X102160000Y-119152200D01*
X102160000Y-119152200D02*
X102088571Y-119199819D01*
X102088571Y-119199819D02*
X101874285Y-119199819D01*
X101874285Y-119199819D02*
X101802857Y-119152200D01*
X101802857Y-119152200D02*
X101767142Y-119104580D01*
X116992856Y-52524819D02*
X116742856Y-52048628D01*
X116564285Y-52524819D02*
X116564285Y-51524819D01*
X116564285Y-51524819D02*
X116849999Y-51524819D01*
X116849999Y-51524819D02*
X116921428Y-51572438D01*
X116921428Y-51572438D02*
X116957142Y-51620057D01*
X116957142Y-51620057D02*
X116992856Y-51715295D01*
X116992856Y-51715295D02*
X116992856Y-51858152D01*
X116992856Y-51858152D02*
X116957142Y-51953390D01*
X116957142Y-51953390D02*
X116921428Y-52001009D01*
X116921428Y-52001009D02*
X116849999Y-52048628D01*
X116849999Y-52048628D02*
X116564285Y-52048628D01*
X117707142Y-52524819D02*
X117278571Y-52524819D01*
X117492856Y-52524819D02*
X117492856Y-51524819D01*
X117492856Y-51524819D02*
X117421428Y-51667676D01*
X117421428Y-51667676D02*
X117349999Y-51762914D01*
X117349999Y-51762914D02*
X117278571Y-51810533D01*
X118385714Y-51524819D02*
X118028571Y-51524819D01*
X118028571Y-51524819D02*
X117992857Y-52001009D01*
X117992857Y-52001009D02*
X118028571Y-51953390D01*
X118028571Y-51953390D02*
X118100000Y-51905771D01*
X118100000Y-51905771D02*
X118278571Y-51905771D01*
X118278571Y-51905771D02*
X118350000Y-51953390D01*
X118350000Y-51953390D02*
X118385714Y-52001009D01*
X118385714Y-52001009D02*
X118421428Y-52096247D01*
X118421428Y-52096247D02*
X118421428Y-52334342D01*
X118421428Y-52334342D02*
X118385714Y-52429580D01*
X118385714Y-52429580D02*
X118350000Y-52477200D01*
X118350000Y-52477200D02*
X118278571Y-52524819D01*
X118278571Y-52524819D02*
X118100000Y-52524819D01*
X118100000Y-52524819D02*
X118028571Y-52477200D01*
X118028571Y-52477200D02*
X117992857Y-52429580D01*
D11*
%TO.C,PMOD4*%
X124390000Y-69910000D02*
X124390000Y-54550000D01*
X124390000Y-69910000D02*
X115760000Y-69910000D01*
X124390000Y-69790000D02*
X115760000Y-69790000D01*
X124390000Y-69671905D02*
X115760000Y-69671905D01*
X124390000Y-69553810D02*
X115760000Y-69553810D01*
X124390000Y-69435715D02*
X115760000Y-69435715D01*
X124390000Y-69317620D02*
X115760000Y-69317620D01*
X124390000Y-69199525D02*
X115760000Y-69199525D01*
X124390000Y-69081430D02*
X115760000Y-69081430D01*
X124390000Y-68963335D02*
X115760000Y-68963335D01*
X124390000Y-68845240D02*
X115760000Y-68845240D01*
X124390000Y-68727145D02*
X115760000Y-68727145D01*
X124390000Y-68609050D02*
X115760000Y-68609050D01*
X124390000Y-68490955D02*
X115760000Y-68490955D01*
X124390000Y-68372860D02*
X115760000Y-68372860D01*
X124390000Y-68254765D02*
X115760000Y-68254765D01*
X124390000Y-68136670D02*
X115760000Y-68136670D01*
X124390000Y-68018575D02*
X115760000Y-68018575D01*
X124390000Y-67900480D02*
X115760000Y-67900480D01*
X124390000Y-67782385D02*
X115760000Y-67782385D01*
X124390000Y-67664290D02*
X115760000Y-67664290D01*
X124390000Y-67546195D02*
X115760000Y-67546195D01*
X124390000Y-67428100D02*
X115760000Y-67428100D01*
X124390000Y-67310000D02*
X115760000Y-67310000D01*
X124390000Y-64770000D02*
X115760000Y-64770000D01*
X124390000Y-62230000D02*
X115760000Y-62230000D01*
X124390000Y-59690000D02*
X115760000Y-59690000D01*
X124390000Y-57150000D02*
X115760000Y-57150000D01*
X124390000Y-54550000D02*
X115760000Y-54550000D01*
X115760000Y-69910000D02*
X115760000Y-54550000D01*
X115760000Y-68940000D02*
X115350000Y-68940000D01*
X115760000Y-68220000D02*
X115350000Y-68220000D01*
X115760000Y-66400000D02*
X115350000Y-66400000D01*
X115760000Y-65680000D02*
X115350000Y-65680000D01*
X115760000Y-63860000D02*
X115350000Y-63860000D01*
X115760000Y-63140000D02*
X115350000Y-63140000D01*
X115760000Y-61320000D02*
X115350000Y-61320000D01*
X115760000Y-60600000D02*
X115350000Y-60600000D01*
X115760000Y-58780000D02*
X115350000Y-58780000D01*
X115760000Y-58060000D02*
X115350000Y-58060000D01*
X115760000Y-56240000D02*
X115350000Y-56240000D01*
X115760000Y-55520000D02*
X115350000Y-55520000D01*
X113250000Y-68940000D02*
X112870000Y-68940000D01*
X113250000Y-68220000D02*
X112870000Y-68220000D01*
X113250000Y-66400000D02*
X112810000Y-66400000D01*
X113250000Y-65680000D02*
X112810000Y-65680000D01*
X113250000Y-63860000D02*
X112810000Y-63860000D01*
X113250000Y-63140000D02*
X112810000Y-63140000D01*
X113250000Y-61320000D02*
X112810000Y-61320000D01*
X113250000Y-60600000D02*
X112810000Y-60600000D01*
X113250000Y-58780000D02*
X112810000Y-58780000D01*
X113250000Y-58060000D02*
X112810000Y-58060000D01*
X113250000Y-56240000D02*
X112810000Y-56240000D01*
X113250000Y-55520000D02*
X112810000Y-55520000D01*
X111760000Y-69910000D02*
X110650000Y-69910000D01*
X110650000Y-69910000D02*
X110650000Y-68580000D01*
%TO.C,U2*%
X121417500Y-48285000D02*
X119617500Y-48285000D01*
X121417500Y-48285000D02*
X122217500Y-48285000D01*
X121417500Y-51405000D02*
X120617500Y-51405000D01*
X121417500Y-51405000D02*
X122217500Y-51405000D01*
%TO.C,PMOD3*%
X80010000Y-115570000D02*
X78740000Y-115570000D01*
X80010000Y-114300000D02*
X80010000Y-115570000D01*
X77697071Y-112140000D02*
X77242929Y-112140000D01*
X77697071Y-111380000D02*
X77242929Y-111380000D01*
X77697071Y-109600000D02*
X77242929Y-109600000D01*
X77697071Y-108840000D02*
X77242929Y-108840000D01*
X77697071Y-107060000D02*
X77242929Y-107060000D01*
X77697071Y-106300000D02*
X77242929Y-106300000D01*
X77697071Y-104520000D02*
X77242929Y-104520000D01*
X77697071Y-103760000D02*
X77242929Y-103760000D01*
X77697071Y-101980000D02*
X77242929Y-101980000D01*
X77697071Y-101220000D02*
X77242929Y-101220000D01*
X77630000Y-114680000D02*
X77242929Y-114680000D01*
X77630000Y-113920000D02*
X77242929Y-113920000D01*
X75157071Y-114680000D02*
X74760000Y-114680000D01*
X75157071Y-113920000D02*
X74760000Y-113920000D01*
X75157071Y-112140000D02*
X74760000Y-112140000D01*
X75157071Y-111380000D02*
X74760000Y-111380000D01*
X75157071Y-109600000D02*
X74760000Y-109600000D01*
X75157071Y-108840000D02*
X74760000Y-108840000D01*
X75157071Y-107060000D02*
X74760000Y-107060000D01*
X75157071Y-106300000D02*
X74760000Y-106300000D01*
X75157071Y-104520000D02*
X74760000Y-104520000D01*
X75157071Y-103760000D02*
X74760000Y-103760000D01*
X75157071Y-101980000D02*
X74760000Y-101980000D01*
X75157071Y-101220000D02*
X74760000Y-101220000D01*
X74760000Y-115630000D02*
X74760000Y-100270000D01*
X74760000Y-113030000D02*
X72100000Y-113030000D01*
X74760000Y-110490000D02*
X72100000Y-110490000D01*
X74760000Y-107950000D02*
X72100000Y-107950000D01*
X74760000Y-105410000D02*
X72100000Y-105410000D01*
X74760000Y-102870000D02*
X72100000Y-102870000D01*
X74760000Y-100270000D02*
X72100000Y-100270000D01*
X72100000Y-115630000D02*
X74760000Y-115630000D01*
X72100000Y-114680000D02*
X66100000Y-114680000D01*
X72100000Y-114620000D02*
X66100000Y-114620000D01*
X72100000Y-114500000D02*
X66100000Y-114500000D01*
X72100000Y-114380000D02*
X66100000Y-114380000D01*
X72100000Y-114260000D02*
X66100000Y-114260000D01*
X72100000Y-114140000D02*
X66100000Y-114140000D01*
X72100000Y-114020000D02*
X66100000Y-114020000D01*
X72100000Y-112140000D02*
X66100000Y-112140000D01*
X72100000Y-109600000D02*
X66100000Y-109600000D01*
X72100000Y-107060000D02*
X66100000Y-107060000D01*
X72100000Y-104520000D02*
X66100000Y-104520000D01*
X72100000Y-101980000D02*
X66100000Y-101980000D01*
X72100000Y-100270000D02*
X72100000Y-115630000D01*
X66100000Y-114680000D02*
X66100000Y-113920000D01*
X66100000Y-113920000D02*
X72100000Y-113920000D01*
X66100000Y-112140000D02*
X66100000Y-111380000D01*
X66100000Y-111380000D02*
X72100000Y-111380000D01*
X66100000Y-109600000D02*
X66100000Y-108840000D01*
X66100000Y-108840000D02*
X72100000Y-108840000D01*
X66100000Y-107060000D02*
X66100000Y-106300000D01*
X66100000Y-106300000D02*
X72100000Y-106300000D01*
X66100000Y-104520000D02*
X66100000Y-103760000D01*
X66100000Y-103760000D02*
X72100000Y-103760000D01*
X66100000Y-101980000D02*
X66100000Y-101220000D01*
X66100000Y-101220000D02*
X72100000Y-101220000D01*
%TO.C,U9*%
X105120000Y-58420000D02*
X105120000Y-60220000D01*
X105120000Y-58420000D02*
X105120000Y-57620000D01*
X108240000Y-58420000D02*
X108240000Y-59220000D01*
X108240000Y-58420000D02*
X108240000Y-57620000D01*
%TO.C,L2*%
X83470000Y-48940000D02*
X83470000Y-49790000D01*
X83470000Y-44240000D02*
X83470000Y-45040000D01*
X82860000Y-50400000D02*
X77160000Y-50400000D01*
X77160000Y-43580000D02*
X82810000Y-43580000D01*
X76550000Y-49790000D02*
X76550000Y-48940000D01*
X76550000Y-45040000D02*
X76550000Y-44190000D01*
X82860000Y-50400000D02*
G75*
G03*
X83470000Y-49790000I0J610000D01*
G01*
X83470000Y-44240000D02*
G75*
G03*
X82810000Y-43580000I-660002J-2D01*
G01*
X76550000Y-49790000D02*
G75*
G03*
X77160000Y-50400000I610000J0D01*
G01*
X77160000Y-43580000D02*
G75*
G03*
X76550000Y-44190000I0J-610000D01*
G01*
%TO.C,R8*%
X106145000Y-52477936D02*
X106145000Y-52932064D01*
X104675000Y-52477936D02*
X104675000Y-52932064D01*
%TO.C,PMOD2*%
X80010000Y-92710000D02*
X78740000Y-92710000D01*
X80010000Y-91440000D02*
X80010000Y-92710000D01*
X77697071Y-89280000D02*
X77242929Y-89280000D01*
X77697071Y-88520000D02*
X77242929Y-88520000D01*
X77697071Y-86740000D02*
X77242929Y-86740000D01*
X77697071Y-85980000D02*
X77242929Y-85980000D01*
X77697071Y-84200000D02*
X77242929Y-84200000D01*
X77697071Y-83440000D02*
X77242929Y-83440000D01*
X77697071Y-81660000D02*
X77242929Y-81660000D01*
X77697071Y-80900000D02*
X77242929Y-80900000D01*
X77697071Y-79120000D02*
X77242929Y-79120000D01*
X77697071Y-78360000D02*
X77242929Y-78360000D01*
X77630000Y-91820000D02*
X77242929Y-91820000D01*
X77630000Y-91060000D02*
X77242929Y-91060000D01*
X75157071Y-91820000D02*
X74760000Y-91820000D01*
X75157071Y-91060000D02*
X74760000Y-91060000D01*
X75157071Y-89280000D02*
X74760000Y-89280000D01*
X75157071Y-88520000D02*
X74760000Y-88520000D01*
X75157071Y-86740000D02*
X74760000Y-86740000D01*
X75157071Y-85980000D02*
X74760000Y-85980000D01*
X75157071Y-84200000D02*
X74760000Y-84200000D01*
X75157071Y-83440000D02*
X74760000Y-83440000D01*
X75157071Y-81660000D02*
X74760000Y-81660000D01*
X75157071Y-80900000D02*
X74760000Y-80900000D01*
X75157071Y-79120000D02*
X74760000Y-79120000D01*
X75157071Y-78360000D02*
X74760000Y-78360000D01*
X74760000Y-92770000D02*
X74760000Y-77410000D01*
X74760000Y-90170000D02*
X72100000Y-90170000D01*
X74760000Y-87630000D02*
X72100000Y-87630000D01*
X74760000Y-85090000D02*
X72100000Y-85090000D01*
X74760000Y-82550000D02*
X72100000Y-82550000D01*
X74760000Y-80010000D02*
X72100000Y-80010000D01*
X74760000Y-77410000D02*
X72100000Y-77410000D01*
X72100000Y-92770000D02*
X74760000Y-92770000D01*
X72100000Y-91820000D02*
X66100000Y-91820000D01*
X72100000Y-91760000D02*
X66100000Y-91760000D01*
X72100000Y-91640000D02*
X66100000Y-91640000D01*
X72100000Y-91520000D02*
X66100000Y-91520000D01*
X72100000Y-91400000D02*
X66100000Y-91400000D01*
X72100000Y-91280000D02*
X66100000Y-91280000D01*
X72100000Y-91160000D02*
X66100000Y-91160000D01*
X72100000Y-89280000D02*
X66100000Y-89280000D01*
X72100000Y-86740000D02*
X66100000Y-86740000D01*
X72100000Y-84200000D02*
X66100000Y-84200000D01*
X72100000Y-81660000D02*
X66100000Y-81660000D01*
X72100000Y-79120000D02*
X66100000Y-79120000D01*
X72100000Y-77410000D02*
X72100000Y-92770000D01*
X66100000Y-91820000D02*
X66100000Y-91060000D01*
X66100000Y-91060000D02*
X72100000Y-91060000D01*
X66100000Y-89280000D02*
X66100000Y-88520000D01*
X66100000Y-88520000D02*
X72100000Y-88520000D01*
X66100000Y-86740000D02*
X66100000Y-85980000D01*
X66100000Y-85980000D02*
X72100000Y-85980000D01*
X66100000Y-84200000D02*
X66100000Y-83440000D01*
X66100000Y-83440000D02*
X72100000Y-83440000D01*
X66100000Y-81660000D02*
X66100000Y-80900000D01*
X66100000Y-80900000D02*
X72100000Y-80900000D01*
X66100000Y-79120000D02*
X66100000Y-78360000D01*
X66100000Y-78360000D02*
X72100000Y-78360000D01*
%TO.C,PMOD1*%
X80010000Y-69850000D02*
X78740000Y-69850000D01*
X80010000Y-68580000D02*
X80010000Y-69850000D01*
X77697071Y-66420000D02*
X77242929Y-66420000D01*
X77697071Y-65660000D02*
X77242929Y-65660000D01*
X77697071Y-63880000D02*
X77242929Y-63880000D01*
X77697071Y-63120000D02*
X77242929Y-63120000D01*
X77697071Y-61340000D02*
X77242929Y-61340000D01*
X77697071Y-60580000D02*
X77242929Y-60580000D01*
X77697071Y-58800000D02*
X77242929Y-58800000D01*
X77697071Y-58040000D02*
X77242929Y-58040000D01*
X77697071Y-56260000D02*
X77242929Y-56260000D01*
X77697071Y-55500000D02*
X77242929Y-55500000D01*
X77630000Y-68960000D02*
X77242929Y-68960000D01*
X77630000Y-68200000D02*
X77242929Y-68200000D01*
X75157071Y-68960000D02*
X74760000Y-68960000D01*
X75157071Y-68200000D02*
X74760000Y-68200000D01*
X75157071Y-66420000D02*
X74760000Y-66420000D01*
X75157071Y-65660000D02*
X74760000Y-65660000D01*
X75157071Y-63880000D02*
X74760000Y-63880000D01*
X75157071Y-63120000D02*
X74760000Y-63120000D01*
X75157071Y-61340000D02*
X74760000Y-61340000D01*
X75157071Y-60580000D02*
X74760000Y-60580000D01*
X75157071Y-58800000D02*
X74760000Y-58800000D01*
X75157071Y-58040000D02*
X74760000Y-58040000D01*
X75157071Y-56260000D02*
X74760000Y-56260000D01*
X75157071Y-55500000D02*
X74760000Y-55500000D01*
X74760000Y-69910000D02*
X74760000Y-54550000D01*
X74760000Y-67310000D02*
X72100000Y-67310000D01*
X74760000Y-64770000D02*
X72100000Y-64770000D01*
X74760000Y-62230000D02*
X72100000Y-62230000D01*
X74760000Y-59690000D02*
X72100000Y-59690000D01*
X74760000Y-57150000D02*
X72100000Y-57150000D01*
X74760000Y-54550000D02*
X72100000Y-54550000D01*
X72100000Y-69910000D02*
X74760000Y-69910000D01*
X72100000Y-68960000D02*
X66100000Y-68960000D01*
X72100000Y-68900000D02*
X66100000Y-68900000D01*
X72100000Y-68780000D02*
X66100000Y-68780000D01*
X72100000Y-68660000D02*
X66100000Y-68660000D01*
X72100000Y-68540000D02*
X66100000Y-68540000D01*
X72100000Y-68420000D02*
X66100000Y-68420000D01*
X72100000Y-68300000D02*
X66100000Y-68300000D01*
X72100000Y-66420000D02*
X66100000Y-66420000D01*
X72100000Y-63880000D02*
X66100000Y-63880000D01*
X72100000Y-61340000D02*
X66100000Y-61340000D01*
X72100000Y-58800000D02*
X66100000Y-58800000D01*
X72100000Y-56260000D02*
X66100000Y-56260000D01*
X72100000Y-54550000D02*
X72100000Y-69910000D01*
X66100000Y-68960000D02*
X66100000Y-68200000D01*
X66100000Y-68200000D02*
X72100000Y-68200000D01*
X66100000Y-66420000D02*
X66100000Y-65660000D01*
X66100000Y-65660000D02*
X72100000Y-65660000D01*
X66100000Y-63880000D02*
X66100000Y-63120000D01*
X66100000Y-63120000D02*
X72100000Y-63120000D01*
X66100000Y-61340000D02*
X66100000Y-60580000D01*
X66100000Y-60580000D02*
X72100000Y-60580000D01*
X66100000Y-58800000D02*
X66100000Y-58040000D01*
X66100000Y-58040000D02*
X72100000Y-58040000D01*
X66100000Y-56260000D02*
X66100000Y-55500000D01*
X66100000Y-55500000D02*
X72100000Y-55500000D01*
%TO.C,C9*%
X84081252Y-42645000D02*
X83558748Y-42645000D01*
X84081252Y-41175000D02*
X83558748Y-41175000D01*
%TO.C,TP3*%
X76130000Y-40005000D02*
G75*
G03*
X73730000Y-40005000I-1200000J0D01*
G01*
X73730000Y-40005000D02*
G75*
G03*
X76130000Y-40005000I1200000J0D01*
G01*
%TO.C,C4*%
X85783748Y-116105000D02*
X86306252Y-116105000D01*
X85783748Y-117575000D02*
X86306252Y-117575000D01*
%TO.C,U3*%
X107660000Y-49530000D02*
X107660000Y-51330000D01*
X107660000Y-49530000D02*
X107660000Y-48730000D01*
X110780000Y-49530000D02*
X110780000Y-50330000D01*
X110780000Y-49530000D02*
X110780000Y-48730000D01*
%TO.C,C12*%
X90270000Y-58158748D02*
X90270000Y-58681252D01*
X88800000Y-58158748D02*
X88800000Y-58681252D01*
%TO.C,U7*%
X106970000Y-47625000D02*
X106970000Y-45825000D01*
X106970000Y-47625000D02*
X106970000Y-48425000D01*
X103850000Y-47625000D02*
X103850000Y-46825000D01*
X103850000Y-47625000D02*
X103850000Y-48425000D01*
%TO.C,R13*%
X84990000Y-52932064D02*
X84990000Y-52477936D01*
X86460000Y-52932064D02*
X86460000Y-52477936D01*
%TO.C,C3*%
X93403748Y-113565000D02*
X93926252Y-113565000D01*
X93403748Y-115035000D02*
X93926252Y-115035000D01*
%TO.C,C21*%
X104833748Y-113565000D02*
X105356252Y-113565000D01*
X104833748Y-115035000D02*
X105356252Y-115035000D01*
%TO.C,L1*%
X93630000Y-43860000D02*
X93630000Y-44710000D01*
X93630000Y-39160000D02*
X93630000Y-39960000D01*
X93020000Y-45320000D02*
X87320000Y-45320000D01*
X87320000Y-38500000D02*
X92970000Y-38500000D01*
X86710000Y-44710000D02*
X86710000Y-43860000D01*
X86710000Y-39960000D02*
X86710000Y-39110000D01*
X93020000Y-45320000D02*
G75*
G03*
X93630000Y-44710000I0J610000D01*
G01*
X93630000Y-39160000D02*
G75*
G03*
X92970000Y-38500000I-660002J-2D01*
G01*
X86710000Y-44710000D02*
G75*
G03*
X87320000Y-45320000I610000J0D01*
G01*
X87320000Y-38500000D02*
G75*
G03*
X86710000Y-39110000I0J-610000D01*
G01*
%TO.C,C14*%
X107119646Y-70185000D02*
X106119646Y-70185000D01*
X106619646Y-70685000D02*
X106619646Y-69685000D01*
X101640000Y-72390000D02*
X101640000Y-62230000D01*
X101600000Y-72390000D02*
X101600000Y-62230000D01*
X101560000Y-72390000D02*
X101560000Y-62230000D01*
X101520000Y-72389000D02*
X101520000Y-62231000D01*
X101480000Y-72388000D02*
X101480000Y-62232000D01*
X101440000Y-72387000D02*
X101440000Y-62233000D01*
X101400000Y-72385000D02*
X101400000Y-62235000D01*
X101360000Y-72383000D02*
X101360000Y-62237000D01*
X101320000Y-72380000D02*
X101320000Y-62240000D01*
X101280000Y-72378000D02*
X101280000Y-62242000D01*
X101240000Y-72375000D02*
X101240000Y-62245000D01*
X101200000Y-72372000D02*
X101200000Y-62248000D01*
X101160000Y-72368000D02*
X101160000Y-62252000D01*
X101120000Y-72364000D02*
X101120000Y-62256000D01*
X101080000Y-72360000D02*
X101080000Y-62260000D01*
X101040000Y-72355000D02*
X101040000Y-62265000D01*
X101000000Y-72350000D02*
X101000000Y-62270000D01*
X100960000Y-72345000D02*
X100960000Y-62275000D01*
X100919000Y-72340000D02*
X100919000Y-62280000D01*
X100879000Y-72334000D02*
X100879000Y-62286000D01*
X100839000Y-72328000D02*
X100839000Y-62292000D01*
X100799000Y-72321000D02*
X100799000Y-62299000D01*
X100759000Y-72314000D02*
X100759000Y-62306000D01*
X100719000Y-72307000D02*
X100719000Y-62313000D01*
X100679000Y-72300000D02*
X100679000Y-62320000D01*
X100639000Y-72292000D02*
X100639000Y-62328000D01*
X100599000Y-72284000D02*
X100599000Y-62336000D01*
X100559000Y-72275000D02*
X100559000Y-62345000D01*
X100519000Y-72266000D02*
X100519000Y-62354000D01*
X100479000Y-72257000D02*
X100479000Y-62363000D01*
X100439000Y-72248000D02*
X100439000Y-62372000D01*
X100399000Y-72238000D02*
X100399000Y-62382000D01*
X100359000Y-72228000D02*
X100359000Y-68551000D01*
X100359000Y-66069000D02*
X100359000Y-62392000D01*
X100319000Y-72217000D02*
X100319000Y-68551000D01*
X100319000Y-66069000D02*
X100319000Y-62403000D01*
X100279000Y-72207000D02*
X100279000Y-68551000D01*
X100279000Y-66069000D02*
X100279000Y-62413000D01*
X100239000Y-72195000D02*
X100239000Y-68551000D01*
X100239000Y-66069000D02*
X100239000Y-62425000D01*
X100199000Y-72184000D02*
X100199000Y-68551000D01*
X100199000Y-66069000D02*
X100199000Y-62436000D01*
X100159000Y-72172000D02*
X100159000Y-68551000D01*
X100159000Y-66069000D02*
X100159000Y-62448000D01*
X100119000Y-72160000D02*
X100119000Y-68551000D01*
X100119000Y-66069000D02*
X100119000Y-62460000D01*
X100079000Y-72147000D02*
X100079000Y-68551000D01*
X100079000Y-66069000D02*
X100079000Y-62473000D01*
X100039000Y-72134000D02*
X100039000Y-68551000D01*
X100039000Y-66069000D02*
X100039000Y-62486000D01*
X99999000Y-72121000D02*
X99999000Y-68551000D01*
X99999000Y-66069000D02*
X99999000Y-62499000D01*
X99959000Y-72107000D02*
X99959000Y-68551000D01*
X99959000Y-66069000D02*
X99959000Y-62513000D01*
X99919000Y-72093000D02*
X99919000Y-68551000D01*
X99919000Y-66069000D02*
X99919000Y-62527000D01*
X99879000Y-72078000D02*
X99879000Y-68551000D01*
X99879000Y-66069000D02*
X99879000Y-62542000D01*
X99839000Y-72064000D02*
X99839000Y-68551000D01*
X99839000Y-66069000D02*
X99839000Y-62556000D01*
X99799000Y-72048000D02*
X99799000Y-68551000D01*
X99799000Y-66069000D02*
X99799000Y-62572000D01*
X99759000Y-72033000D02*
X99759000Y-68551000D01*
X99759000Y-66069000D02*
X99759000Y-62587000D01*
X99719000Y-72017000D02*
X99719000Y-68551000D01*
X99719000Y-66069000D02*
X99719000Y-62603000D01*
X99679000Y-72000000D02*
X99679000Y-68551000D01*
X99679000Y-66069000D02*
X99679000Y-62620000D01*
X99639000Y-71984000D02*
X99639000Y-68551000D01*
X99639000Y-66069000D02*
X99639000Y-62636000D01*
X99599000Y-71967000D02*
X99599000Y-68551000D01*
X99599000Y-66069000D02*
X99599000Y-62653000D01*
X99559000Y-71949000D02*
X99559000Y-68551000D01*
X99559000Y-66069000D02*
X99559000Y-62671000D01*
X99519000Y-71931000D02*
X99519000Y-68551000D01*
X99519000Y-66069000D02*
X99519000Y-62689000D01*
X99479000Y-71913000D02*
X99479000Y-68551000D01*
X99479000Y-66069000D02*
X99479000Y-62707000D01*
X99439000Y-71894000D02*
X99439000Y-68551000D01*
X99439000Y-66069000D02*
X99439000Y-62726000D01*
X99399000Y-71874000D02*
X99399000Y-68551000D01*
X99399000Y-66069000D02*
X99399000Y-62746000D01*
X99359000Y-71855000D02*
X99359000Y-68551000D01*
X99359000Y-66069000D02*
X99359000Y-62765000D01*
X99319000Y-71835000D02*
X99319000Y-68551000D01*
X99319000Y-66069000D02*
X99319000Y-62785000D01*
X99279000Y-71814000D02*
X99279000Y-68551000D01*
X99279000Y-66069000D02*
X99279000Y-62806000D01*
X99239000Y-71793000D02*
X99239000Y-68551000D01*
X99239000Y-66069000D02*
X99239000Y-62827000D01*
X99199000Y-71772000D02*
X99199000Y-68551000D01*
X99199000Y-66069000D02*
X99199000Y-62848000D01*
X99159000Y-71750000D02*
X99159000Y-68551000D01*
X99159000Y-66069000D02*
X99159000Y-62870000D01*
X99119000Y-71727000D02*
X99119000Y-68551000D01*
X99119000Y-66069000D02*
X99119000Y-62893000D01*
X99079000Y-71705000D02*
X99079000Y-68551000D01*
X99079000Y-66069000D02*
X99079000Y-62915000D01*
X99039000Y-71681000D02*
X99039000Y-68551000D01*
X99039000Y-66069000D02*
X99039000Y-62939000D01*
X98999000Y-71657000D02*
X98999000Y-68551000D01*
X98999000Y-66069000D02*
X98999000Y-62963000D01*
X98959000Y-71633000D02*
X98959000Y-68551000D01*
X98959000Y-66069000D02*
X98959000Y-62987000D01*
X98919000Y-71608000D02*
X98919000Y-68551000D01*
X98919000Y-66069000D02*
X98919000Y-63012000D01*
X98879000Y-71583000D02*
X98879000Y-68551000D01*
X98879000Y-66069000D02*
X98879000Y-63037000D01*
X98839000Y-71557000D02*
X98839000Y-68551000D01*
X98839000Y-66069000D02*
X98839000Y-63063000D01*
X98799000Y-71531000D02*
X98799000Y-68551000D01*
X98799000Y-66069000D02*
X98799000Y-63089000D01*
X98759000Y-71504000D02*
X98759000Y-68551000D01*
X98759000Y-66069000D02*
X98759000Y-63116000D01*
X98719000Y-71476000D02*
X98719000Y-68551000D01*
X98719000Y-66069000D02*
X98719000Y-63144000D01*
X98679000Y-71448000D02*
X98679000Y-68551000D01*
X98679000Y-66069000D02*
X98679000Y-63172000D01*
X98639000Y-71420000D02*
X98639000Y-68551000D01*
X98639000Y-66069000D02*
X98639000Y-63200000D01*
X98599000Y-71390000D02*
X98599000Y-68551000D01*
X98599000Y-66069000D02*
X98599000Y-63230000D01*
X98559000Y-71360000D02*
X98559000Y-68551000D01*
X98559000Y-66069000D02*
X98559000Y-63260000D01*
X98519000Y-71330000D02*
X98519000Y-68551000D01*
X98519000Y-66069000D02*
X98519000Y-63290000D01*
X98479000Y-71299000D02*
X98479000Y-68551000D01*
X98479000Y-66069000D02*
X98479000Y-63321000D01*
X98439000Y-71267000D02*
X98439000Y-68551000D01*
X98439000Y-66069000D02*
X98439000Y-63353000D01*
X98399000Y-71235000D02*
X98399000Y-68551000D01*
X98399000Y-66069000D02*
X98399000Y-63385000D01*
X98359000Y-71202000D02*
X98359000Y-68551000D01*
X98359000Y-66069000D02*
X98359000Y-63418000D01*
X98319000Y-71168000D02*
X98319000Y-68551000D01*
X98319000Y-66069000D02*
X98319000Y-63452000D01*
X98279000Y-71134000D02*
X98279000Y-68551000D01*
X98279000Y-66069000D02*
X98279000Y-63486000D01*
X98239000Y-71099000D02*
X98239000Y-68551000D01*
X98239000Y-66069000D02*
X98239000Y-63521000D01*
X98199000Y-71063000D02*
X98199000Y-68551000D01*
X98199000Y-66069000D02*
X98199000Y-63557000D01*
X98159000Y-71026000D02*
X98159000Y-68551000D01*
X98159000Y-66069000D02*
X98159000Y-63594000D01*
X98119000Y-70989000D02*
X98119000Y-68551000D01*
X98119000Y-66069000D02*
X98119000Y-63631000D01*
X98079000Y-70950000D02*
X98079000Y-68551000D01*
X98079000Y-66069000D02*
X98079000Y-63670000D01*
X98039000Y-70911000D02*
X98039000Y-68551000D01*
X98039000Y-66069000D02*
X98039000Y-63709000D01*
X97999000Y-70871000D02*
X97999000Y-68551000D01*
X97999000Y-66069000D02*
X97999000Y-63749000D01*
X97959000Y-70830000D02*
X97959000Y-68551000D01*
X97959000Y-66069000D02*
X97959000Y-63790000D01*
X97919000Y-70788000D02*
X97919000Y-68551000D01*
X97919000Y-66069000D02*
X97919000Y-63832000D01*
X97879000Y-70746000D02*
X97879000Y-63874000D01*
X97839000Y-70702000D02*
X97839000Y-63918000D01*
X97799000Y-70657000D02*
X97799000Y-63963000D01*
X97759000Y-70611000D02*
X97759000Y-64009000D01*
X97719000Y-70564000D02*
X97719000Y-64056000D01*
X97679000Y-70516000D02*
X97679000Y-64104000D01*
X97639000Y-70466000D02*
X97639000Y-64154000D01*
X97599000Y-70416000D02*
X97599000Y-64204000D01*
X97559000Y-70364000D02*
X97559000Y-64256000D01*
X97519000Y-70310000D02*
X97519000Y-64310000D01*
X97479000Y-70255000D02*
X97479000Y-64365000D01*
X97439000Y-70199000D02*
X97439000Y-64421000D01*
X97399000Y-70140000D02*
X97399000Y-64480000D01*
X97359000Y-70080000D02*
X97359000Y-64540000D01*
X97319000Y-70019000D02*
X97319000Y-64601000D01*
X97279000Y-69955000D02*
X97279000Y-64665000D01*
X97239000Y-69889000D02*
X97239000Y-64731000D01*
X97199000Y-69820000D02*
X97199000Y-64800000D01*
X97159000Y-69749000D02*
X97159000Y-64871000D01*
X97119000Y-69675000D02*
X97119000Y-64945000D01*
X97079000Y-69599000D02*
X97079000Y-65021000D01*
X97039000Y-69519000D02*
X97039000Y-65101000D01*
X96999000Y-69435000D02*
X96999000Y-65185000D01*
X96959000Y-69347000D02*
X96959000Y-65273000D01*
X96919000Y-69254000D02*
X96919000Y-65366000D01*
X96879000Y-69156000D02*
X96879000Y-65464000D01*
X96839000Y-69052000D02*
X96839000Y-65568000D01*
X96799000Y-68940000D02*
X96799000Y-65680000D01*
X96759000Y-68820000D02*
X96759000Y-65800000D01*
X96719000Y-68688000D02*
X96719000Y-65932000D01*
X96679000Y-68540000D02*
X96679000Y-66080000D01*
X96639000Y-68372000D02*
X96639000Y-66248000D01*
X96599000Y-68172000D02*
X96599000Y-66448000D01*
X96559000Y-67909000D02*
X96559000Y-66711000D01*
X106760000Y-67310000D02*
G75*
G03*
X96520000Y-67310000I-5120000J0D01*
G01*
X96520000Y-67310000D02*
G75*
G03*
X106760000Y-67310000I5120000J0D01*
G01*
%TO.C,D3*%
X102545000Y-60105000D02*
X104465000Y-60105000D01*
X104465000Y-60105000D02*
X104465000Y-57420000D01*
X102545000Y-57420000D02*
X102545000Y-60105000D01*
%TO.C,C1*%
X89593748Y-113565000D02*
X90116252Y-113565000D01*
X89593748Y-115035000D02*
X90116252Y-115035000D01*
%TO.C,U5*%
X95250000Y-59980000D02*
X97050000Y-59980000D01*
X95250000Y-59980000D02*
X94450000Y-59980000D01*
X95250000Y-56860000D02*
X96050000Y-56860000D01*
X95250000Y-56860000D02*
X94450000Y-56860000D01*
%TO.C,C10*%
X89000000Y-52443748D02*
X89000000Y-52966252D01*
X87530000Y-52443748D02*
X87530000Y-52966252D01*
%TO.C,C2*%
X85783748Y-113565000D02*
X86306252Y-113565000D01*
X85783748Y-115035000D02*
X86306252Y-115035000D01*
%TO.C,R3*%
X91667064Y-83285000D02*
X91212936Y-83285000D01*
X91667064Y-81815000D02*
X91212936Y-81815000D01*
%TO.C,U4*%
X89535000Y-46065000D02*
X87735000Y-46065000D01*
X89535000Y-46065000D02*
X90335000Y-46065000D01*
X89535000Y-49185000D02*
X88735000Y-49185000D01*
X89535000Y-49185000D02*
X90335000Y-49185000D01*
%TO.C,R2*%
X91667064Y-80745000D02*
X91212936Y-80745000D01*
X91667064Y-79275000D02*
X91212936Y-79275000D01*
%TO.C,C24*%
X104833748Y-116105000D02*
X105356252Y-116105000D01*
X104833748Y-117575000D02*
X105356252Y-117575000D01*
%TO.C,R9*%
X99595000Y-52932064D02*
X99595000Y-52477936D01*
X101065000Y-52932064D02*
X101065000Y-52477936D01*
%TO.C,C25*%
X87730000Y-58158748D02*
X87730000Y-58681252D01*
X86260000Y-58158748D02*
X86260000Y-58681252D01*
%TO.C,R4*%
X86587064Y-78205000D02*
X86132936Y-78205000D01*
X86587064Y-76735000D02*
X86132936Y-76735000D01*
%TO.C,D2*%
X100005000Y-60105000D02*
X101925000Y-60105000D01*
X101925000Y-60105000D02*
X101925000Y-57420000D01*
X100005000Y-57420000D02*
X100005000Y-60105000D01*
%TO.C,R18*%
X103605000Y-52477936D02*
X103605000Y-52932064D01*
X102135000Y-52477936D02*
X102135000Y-52932064D01*
%TO.C,C11*%
X95150000Y-47886252D02*
X95150000Y-47363748D01*
X96620000Y-47886252D02*
X96620000Y-47363748D01*
%TO.C,C5*%
X89593748Y-116105000D02*
X90116252Y-116105000D01*
X89593748Y-117575000D02*
X90116252Y-117575000D01*
%TO.C,R6*%
X86587064Y-85825000D02*
X86132936Y-85825000D01*
X86587064Y-84355000D02*
X86132936Y-84355000D01*
%TO.C,C22*%
X97213748Y-116105000D02*
X97736252Y-116105000D01*
X97213748Y-117575000D02*
X97736252Y-117575000D01*
%TO.C,R10*%
X108992936Y-44985000D02*
X109447064Y-44985000D01*
X108992936Y-46455000D02*
X109447064Y-46455000D01*
%TO.C,R1*%
X86587064Y-83285000D02*
X86132936Y-83285000D01*
X86587064Y-81815000D02*
X86132936Y-81815000D01*
%TO.C,PMOD5*%
X124390000Y-115630000D02*
X124390000Y-100270000D01*
X124390000Y-115630000D02*
X115760000Y-115630000D01*
X124390000Y-115510000D02*
X115760000Y-115510000D01*
X124390000Y-115391905D02*
X115760000Y-115391905D01*
X124390000Y-115273810D02*
X115760000Y-115273810D01*
X124390000Y-115155715D02*
X115760000Y-115155715D01*
X124390000Y-115037620D02*
X115760000Y-115037620D01*
X124390000Y-114919525D02*
X115760000Y-114919525D01*
X124390000Y-114801430D02*
X115760000Y-114801430D01*
X124390000Y-114683335D02*
X115760000Y-114683335D01*
X124390000Y-114565240D02*
X115760000Y-114565240D01*
X124390000Y-114447145D02*
X115760000Y-114447145D01*
X124390000Y-114329050D02*
X115760000Y-114329050D01*
X124390000Y-114210955D02*
X115760000Y-114210955D01*
X124390000Y-114092860D02*
X115760000Y-114092860D01*
X124390000Y-113974765D02*
X115760000Y-113974765D01*
X124390000Y-113856670D02*
X115760000Y-113856670D01*
X124390000Y-113738575D02*
X115760000Y-113738575D01*
X124390000Y-113620480D02*
X115760000Y-113620480D01*
X124390000Y-113502385D02*
X115760000Y-113502385D01*
X124390000Y-113384290D02*
X115760000Y-113384290D01*
X124390000Y-113266195D02*
X115760000Y-113266195D01*
X124390000Y-113148100D02*
X115760000Y-113148100D01*
X124390000Y-113030000D02*
X115760000Y-113030000D01*
X124390000Y-110490000D02*
X115760000Y-110490000D01*
X124390000Y-107950000D02*
X115760000Y-107950000D01*
X124390000Y-105410000D02*
X115760000Y-105410000D01*
X124390000Y-102870000D02*
X115760000Y-102870000D01*
X124390000Y-100270000D02*
X115760000Y-100270000D01*
X115760000Y-115630000D02*
X115760000Y-100270000D01*
X115760000Y-114660000D02*
X115350000Y-114660000D01*
X115760000Y-113940000D02*
X115350000Y-113940000D01*
X115760000Y-112120000D02*
X115350000Y-112120000D01*
X115760000Y-111400000D02*
X115350000Y-111400000D01*
X115760000Y-109580000D02*
X115350000Y-109580000D01*
X115760000Y-108860000D02*
X115350000Y-108860000D01*
X115760000Y-107040000D02*
X115350000Y-107040000D01*
X115760000Y-106320000D02*
X115350000Y-106320000D01*
X115760000Y-104500000D02*
X115350000Y-104500000D01*
X115760000Y-103780000D02*
X115350000Y-103780000D01*
X115760000Y-101960000D02*
X115350000Y-101960000D01*
X115760000Y-101240000D02*
X115350000Y-101240000D01*
X113250000Y-114660000D02*
X112870000Y-114660000D01*
X113250000Y-113940000D02*
X112870000Y-113940000D01*
X113250000Y-112120000D02*
X112810000Y-112120000D01*
X113250000Y-111400000D02*
X112810000Y-111400000D01*
X113250000Y-109580000D02*
X112810000Y-109580000D01*
X113250000Y-108860000D02*
X112810000Y-108860000D01*
X113250000Y-107040000D02*
X112810000Y-107040000D01*
X113250000Y-106320000D02*
X112810000Y-106320000D01*
X113250000Y-104500000D02*
X112810000Y-104500000D01*
X113250000Y-103780000D02*
X112810000Y-103780000D01*
X113250000Y-101960000D02*
X112810000Y-101960000D01*
X113250000Y-101240000D02*
X112810000Y-101240000D01*
X111760000Y-115630000D02*
X110650000Y-115630000D01*
X110650000Y-115630000D02*
X110650000Y-114300000D01*
%TO.C,C6*%
X109320000Y-102293748D02*
X109320000Y-102816252D01*
X107850000Y-102293748D02*
X107850000Y-102816252D01*
%TO.C,TP1*%
X112960000Y-73660000D02*
G75*
G03*
X110560000Y-73660000I-1200000J0D01*
G01*
X110560000Y-73660000D02*
G75*
G03*
X112960000Y-73660000I1200000J0D01*
G01*
%TO.C,R12*%
X94080000Y-47397936D02*
X94080000Y-47852064D01*
X92610000Y-47397936D02*
X92610000Y-47852064D01*
%TO.C,D12*%
X82225000Y-54390000D02*
X84145000Y-54390000D01*
X84145000Y-54390000D02*
X84145000Y-51705000D01*
X82225000Y-51705000D02*
X82225000Y-54390000D01*
%TO.C,U6*%
X103160000Y-47625000D02*
X103160000Y-45825000D01*
X103160000Y-47625000D02*
X103160000Y-48425000D01*
X100040000Y-47625000D02*
X100040000Y-46825000D01*
X100040000Y-47625000D02*
X100040000Y-48425000D01*
%TO.C,Q1*%
X97155000Y-54265000D02*
X98830000Y-54265000D01*
X97155000Y-54265000D02*
X96505000Y-54265000D01*
X97155000Y-51145000D02*
X97805000Y-51145000D01*
X97155000Y-51145000D02*
X96505000Y-51145000D01*
%TO.C,TP4*%
X107880000Y-73660000D02*
G75*
G03*
X105480000Y-73660000I-1200000J0D01*
G01*
X105480000Y-73660000D02*
G75*
G03*
X107880000Y-73660000I1200000J0D01*
G01*
%TO.C,J2*%
X115880000Y-132130000D02*
X113980000Y-132130000D01*
X115880000Y-117890000D02*
X115880000Y-132130000D01*
X113980000Y-136130000D02*
X107740000Y-136130000D01*
X113980000Y-132130000D02*
X113980000Y-136130000D01*
X107740000Y-136130000D02*
X107740000Y-132130000D01*
X107740000Y-132130000D02*
X107440000Y-132130000D01*
X107440000Y-132130000D02*
X107440000Y-117890000D01*
X107440000Y-117890000D02*
X115880000Y-117890000D01*
%TO.C,C7*%
X107850000Y-97736252D02*
X107850000Y-97213748D01*
X109320000Y-97736252D02*
X109320000Y-97213748D01*
%TO.C,C26*%
X113130000Y-49268748D02*
X113130000Y-49791252D01*
X111660000Y-49268748D02*
X111660000Y-49791252D01*
%TO.C,R11*%
X114200000Y-49757064D02*
X114200000Y-49302936D01*
X115670000Y-49757064D02*
X115670000Y-49302936D01*
%TO.C,J1*%
X107255000Y-41970000D02*
X107255000Y-40640000D01*
X108585000Y-41970000D02*
X107255000Y-41970000D01*
X109855000Y-41970000D02*
X112455000Y-41970000D01*
X109855000Y-41970000D02*
X109855000Y-39310000D01*
X112455000Y-41970000D02*
X112455000Y-39310000D01*
X109855000Y-39310000D02*
X112455000Y-39310000D01*
%TO.C,TP2*%
X80575000Y-40005000D02*
G75*
G03*
X78175000Y-40005000I-1200000J0D01*
G01*
X78175000Y-40005000D02*
G75*
G03*
X80575000Y-40005000I1200000J0D01*
G01*
%TO.C,D1*%
X114715000Y-46680000D02*
X114715000Y-44760000D01*
X114715000Y-44760000D02*
X112030000Y-44760000D01*
X112030000Y-46680000D02*
X114715000Y-46680000D01*
%TO.C,C16*%
X97690000Y-47886252D02*
X97690000Y-47363748D01*
X99160000Y-47886252D02*
X99160000Y-47363748D01*
%TO.C,C13*%
X91540000Y-52443748D02*
X91540000Y-52966252D01*
X90070000Y-52443748D02*
X90070000Y-52966252D01*
%TO.C,R16*%
X92810000Y-58192936D02*
X92810000Y-58647064D01*
X91340000Y-58192936D02*
X91340000Y-58647064D01*
%TO.C,U1*%
X107315000Y-110490000D02*
X83185000Y-110490000D01*
X83185000Y-110490000D02*
X83185000Y-87630000D01*
X83185000Y-87630000D02*
X107315000Y-87630000D01*
X107315000Y-87630000D02*
X107315000Y-110490000D01*
X103530400Y-108585000D02*
X97155000Y-108585000D01*
X97155000Y-108585000D02*
X97155000Y-104140000D01*
X97155000Y-104140000D02*
X103530400Y-104140000D01*
X103530400Y-104140000D02*
X103530400Y-108585000D01*
X103505000Y-102235000D02*
X86995000Y-102235000D01*
X86995000Y-102235000D02*
X86995000Y-88265000D01*
X86995000Y-88265000D02*
X103505000Y-88265000D01*
X103505000Y-88265000D02*
X103505000Y-102235000D01*
X95885000Y-108585000D02*
X93980000Y-108585000D01*
X93980000Y-108585000D02*
X93980000Y-104140000D01*
X93980000Y-104140000D02*
X95885000Y-104140000D01*
X95885000Y-104140000D02*
X95885000Y-108585000D01*
X92710000Y-108585000D02*
X90805000Y-108585000D01*
X90805000Y-108585000D02*
X90805000Y-104140000D01*
X90805000Y-104140000D02*
X92710000Y-104140000D01*
X92710000Y-104140000D02*
X92710000Y-108585000D01*
X89535000Y-108585000D02*
X87630000Y-108585000D01*
X87630000Y-108585000D02*
X87630000Y-104140000D01*
X87630000Y-104140000D02*
X89535000Y-104140000D01*
X89535000Y-104140000D02*
X89535000Y-108585000D01*
X86360000Y-108585000D02*
X84455000Y-108585000D01*
X84455000Y-108585000D02*
X84455000Y-104140000D01*
X84455000Y-104140000D02*
X86360000Y-104140000D01*
X86360000Y-104140000D02*
X86360000Y-108585000D01*
%TO.C,R7*%
X91667064Y-85825000D02*
X91212936Y-85825000D01*
X91667064Y-84355000D02*
X91212936Y-84355000D01*
%TO.C,C20*%
X101023748Y-113565000D02*
X101546252Y-113565000D01*
X101023748Y-115035000D02*
X101546252Y-115035000D01*
%TO.C,J3*%
X82860000Y-132130000D02*
X80960000Y-132130000D01*
X82860000Y-117890000D02*
X82860000Y-132130000D01*
X80960000Y-136130000D02*
X74720000Y-136130000D01*
X80960000Y-132130000D02*
X80960000Y-136130000D01*
X74720000Y-136130000D02*
X74720000Y-132130000D01*
X74720000Y-132130000D02*
X74420000Y-132130000D01*
X74420000Y-132130000D02*
X74420000Y-117890000D01*
X74420000Y-117890000D02*
X82860000Y-117890000D01*
%TO.C,R5*%
X86587064Y-80745000D02*
X86132936Y-80745000D01*
X86587064Y-79275000D02*
X86132936Y-79275000D01*
%TO.C,C17*%
X94080000Y-52443748D02*
X94080000Y-52966252D01*
X92610000Y-52443748D02*
X92610000Y-52966252D01*
%TO.C,C18*%
X93403748Y-116105000D02*
X93926252Y-116105000D01*
X93403748Y-117575000D02*
X93926252Y-117575000D01*
%TO.C,R14*%
X84990000Y-47852064D02*
X84990000Y-47397936D01*
X86460000Y-47852064D02*
X86460000Y-47397936D01*
%TO.C,C8*%
X107119646Y-82885000D02*
X106119646Y-82885000D01*
X106619646Y-83385000D02*
X106619646Y-82385000D01*
X101640000Y-85090000D02*
X101640000Y-74930000D01*
X101600000Y-85090000D02*
X101600000Y-74930000D01*
X101560000Y-85090000D02*
X101560000Y-74930000D01*
X101520000Y-85089000D02*
X101520000Y-74931000D01*
X101480000Y-85088000D02*
X101480000Y-74932000D01*
X101440000Y-85087000D02*
X101440000Y-74933000D01*
X101400000Y-85085000D02*
X101400000Y-74935000D01*
X101360000Y-85083000D02*
X101360000Y-74937000D01*
X101320000Y-85080000D02*
X101320000Y-74940000D01*
X101280000Y-85078000D02*
X101280000Y-74942000D01*
X101240000Y-85075000D02*
X101240000Y-74945000D01*
X101200000Y-85072000D02*
X101200000Y-74948000D01*
X101160000Y-85068000D02*
X101160000Y-74952000D01*
X101120000Y-85064000D02*
X101120000Y-74956000D01*
X101080000Y-85060000D02*
X101080000Y-74960000D01*
X101040000Y-85055000D02*
X101040000Y-74965000D01*
X101000000Y-85050000D02*
X101000000Y-74970000D01*
X100960000Y-85045000D02*
X100960000Y-74975000D01*
X100919000Y-85040000D02*
X100919000Y-74980000D01*
X100879000Y-85034000D02*
X100879000Y-74986000D01*
X100839000Y-85028000D02*
X100839000Y-74992000D01*
X100799000Y-85021000D02*
X100799000Y-74999000D01*
X100759000Y-85014000D02*
X100759000Y-75006000D01*
X100719000Y-85007000D02*
X100719000Y-75013000D01*
X100679000Y-85000000D02*
X100679000Y-75020000D01*
X100639000Y-84992000D02*
X100639000Y-75028000D01*
X100599000Y-84984000D02*
X100599000Y-75036000D01*
X100559000Y-84975000D02*
X100559000Y-75045000D01*
X100519000Y-84966000D02*
X100519000Y-75054000D01*
X100479000Y-84957000D02*
X100479000Y-75063000D01*
X100439000Y-84948000D02*
X100439000Y-75072000D01*
X100399000Y-84938000D02*
X100399000Y-75082000D01*
X100359000Y-84928000D02*
X100359000Y-81251000D01*
X100359000Y-78769000D02*
X100359000Y-75092000D01*
X100319000Y-84917000D02*
X100319000Y-81251000D01*
X100319000Y-78769000D02*
X100319000Y-75103000D01*
X100279000Y-84907000D02*
X100279000Y-81251000D01*
X100279000Y-78769000D02*
X100279000Y-75113000D01*
X100239000Y-84895000D02*
X100239000Y-81251000D01*
X100239000Y-78769000D02*
X100239000Y-75125000D01*
X100199000Y-84884000D02*
X100199000Y-81251000D01*
X100199000Y-78769000D02*
X100199000Y-75136000D01*
X100159000Y-84872000D02*
X100159000Y-81251000D01*
X100159000Y-78769000D02*
X100159000Y-75148000D01*
X100119000Y-84860000D02*
X100119000Y-81251000D01*
X100119000Y-78769000D02*
X100119000Y-75160000D01*
X100079000Y-84847000D02*
X100079000Y-81251000D01*
X100079000Y-78769000D02*
X100079000Y-75173000D01*
X100039000Y-84834000D02*
X100039000Y-81251000D01*
X100039000Y-78769000D02*
X100039000Y-75186000D01*
X99999000Y-84821000D02*
X99999000Y-81251000D01*
X99999000Y-78769000D02*
X99999000Y-75199000D01*
X99959000Y-84807000D02*
X99959000Y-81251000D01*
X99959000Y-78769000D02*
X99959000Y-75213000D01*
X99919000Y-84793000D02*
X99919000Y-81251000D01*
X99919000Y-78769000D02*
X99919000Y-75227000D01*
X99879000Y-84778000D02*
X99879000Y-81251000D01*
X99879000Y-78769000D02*
X99879000Y-75242000D01*
X99839000Y-84764000D02*
X99839000Y-81251000D01*
X99839000Y-78769000D02*
X99839000Y-75256000D01*
X99799000Y-84748000D02*
X99799000Y-81251000D01*
X99799000Y-78769000D02*
X99799000Y-75272000D01*
X99759000Y-84733000D02*
X99759000Y-81251000D01*
X99759000Y-78769000D02*
X99759000Y-75287000D01*
X99719000Y-84717000D02*
X99719000Y-81251000D01*
X99719000Y-78769000D02*
X99719000Y-75303000D01*
X99679000Y-84700000D02*
X99679000Y-81251000D01*
X99679000Y-78769000D02*
X99679000Y-75320000D01*
X99639000Y-84684000D02*
X99639000Y-81251000D01*
X99639000Y-78769000D02*
X99639000Y-75336000D01*
X99599000Y-84667000D02*
X99599000Y-81251000D01*
X99599000Y-78769000D02*
X99599000Y-75353000D01*
X99559000Y-84649000D02*
X99559000Y-81251000D01*
X99559000Y-78769000D02*
X99559000Y-75371000D01*
X99519000Y-84631000D02*
X99519000Y-81251000D01*
X99519000Y-78769000D02*
X99519000Y-75389000D01*
X99479000Y-84613000D02*
X99479000Y-81251000D01*
X99479000Y-78769000D02*
X99479000Y-75407000D01*
X99439000Y-84594000D02*
X99439000Y-81251000D01*
X99439000Y-78769000D02*
X99439000Y-75426000D01*
X99399000Y-84574000D02*
X99399000Y-81251000D01*
X99399000Y-78769000D02*
X99399000Y-75446000D01*
X99359000Y-84555000D02*
X99359000Y-81251000D01*
X99359000Y-78769000D02*
X99359000Y-75465000D01*
X99319000Y-84535000D02*
X99319000Y-81251000D01*
X99319000Y-78769000D02*
X99319000Y-75485000D01*
X99279000Y-84514000D02*
X99279000Y-81251000D01*
X99279000Y-78769000D02*
X99279000Y-75506000D01*
X99239000Y-84493000D02*
X99239000Y-81251000D01*
X99239000Y-78769000D02*
X99239000Y-75527000D01*
X99199000Y-84472000D02*
X99199000Y-81251000D01*
X99199000Y-78769000D02*
X99199000Y-75548000D01*
X99159000Y-84450000D02*
X99159000Y-81251000D01*
X99159000Y-78769000D02*
X99159000Y-75570000D01*
X99119000Y-84427000D02*
X99119000Y-81251000D01*
X99119000Y-78769000D02*
X99119000Y-75593000D01*
X99079000Y-84405000D02*
X99079000Y-81251000D01*
X99079000Y-78769000D02*
X99079000Y-75615000D01*
X99039000Y-84381000D02*
X99039000Y-81251000D01*
X99039000Y-78769000D02*
X99039000Y-75639000D01*
X98999000Y-84357000D02*
X98999000Y-81251000D01*
X98999000Y-78769000D02*
X98999000Y-75663000D01*
X98959000Y-84333000D02*
X98959000Y-81251000D01*
X98959000Y-78769000D02*
X98959000Y-75687000D01*
X98919000Y-84308000D02*
X98919000Y-81251000D01*
X98919000Y-78769000D02*
X98919000Y-75712000D01*
X98879000Y-84283000D02*
X98879000Y-81251000D01*
X98879000Y-78769000D02*
X98879000Y-75737000D01*
X98839000Y-84257000D02*
X98839000Y-81251000D01*
X98839000Y-78769000D02*
X98839000Y-75763000D01*
X98799000Y-84231000D02*
X98799000Y-81251000D01*
X98799000Y-78769000D02*
X98799000Y-75789000D01*
X98759000Y-84204000D02*
X98759000Y-81251000D01*
X98759000Y-78769000D02*
X98759000Y-75816000D01*
X98719000Y-84176000D02*
X98719000Y-81251000D01*
X98719000Y-78769000D02*
X98719000Y-75844000D01*
X98679000Y-84148000D02*
X98679000Y-81251000D01*
X98679000Y-78769000D02*
X98679000Y-75872000D01*
X98639000Y-84120000D02*
X98639000Y-81251000D01*
X98639000Y-78769000D02*
X98639000Y-75900000D01*
X98599000Y-84090000D02*
X98599000Y-81251000D01*
X98599000Y-78769000D02*
X98599000Y-75930000D01*
X98559000Y-84060000D02*
X98559000Y-81251000D01*
X98559000Y-78769000D02*
X98559000Y-75960000D01*
X98519000Y-84030000D02*
X98519000Y-81251000D01*
X98519000Y-78769000D02*
X98519000Y-75990000D01*
X98479000Y-83999000D02*
X98479000Y-81251000D01*
X98479000Y-78769000D02*
X98479000Y-76021000D01*
X98439000Y-83967000D02*
X98439000Y-81251000D01*
X98439000Y-78769000D02*
X98439000Y-76053000D01*
X98399000Y-83935000D02*
X98399000Y-81251000D01*
X98399000Y-78769000D02*
X98399000Y-76085000D01*
X98359000Y-83902000D02*
X98359000Y-81251000D01*
X98359000Y-78769000D02*
X98359000Y-76118000D01*
X98319000Y-83868000D02*
X98319000Y-81251000D01*
X98319000Y-78769000D02*
X98319000Y-76152000D01*
X98279000Y-83834000D02*
X98279000Y-81251000D01*
X98279000Y-78769000D02*
X98279000Y-76186000D01*
X98239000Y-83799000D02*
X98239000Y-81251000D01*
X98239000Y-78769000D02*
X98239000Y-76221000D01*
X98199000Y-83763000D02*
X98199000Y-81251000D01*
X98199000Y-78769000D02*
X98199000Y-76257000D01*
X98159000Y-83726000D02*
X98159000Y-81251000D01*
X98159000Y-78769000D02*
X98159000Y-76294000D01*
X98119000Y-83689000D02*
X98119000Y-81251000D01*
X98119000Y-78769000D02*
X98119000Y-76331000D01*
X98079000Y-83650000D02*
X98079000Y-81251000D01*
X98079000Y-78769000D02*
X98079000Y-76370000D01*
X98039000Y-83611000D02*
X98039000Y-81251000D01*
X98039000Y-78769000D02*
X98039000Y-76409000D01*
X97999000Y-83571000D02*
X97999000Y-81251000D01*
X97999000Y-78769000D02*
X97999000Y-76449000D01*
X97959000Y-83530000D02*
X97959000Y-81251000D01*
X97959000Y-78769000D02*
X97959000Y-76490000D01*
X97919000Y-83488000D02*
X97919000Y-81251000D01*
X97919000Y-78769000D02*
X97919000Y-76532000D01*
X97879000Y-83446000D02*
X97879000Y-76574000D01*
X97839000Y-83402000D02*
X97839000Y-76618000D01*
X97799000Y-83357000D02*
X97799000Y-76663000D01*
X97759000Y-83311000D02*
X97759000Y-76709000D01*
X97719000Y-83264000D02*
X97719000Y-76756000D01*
X97679000Y-83216000D02*
X97679000Y-76804000D01*
X97639000Y-83166000D02*
X97639000Y-76854000D01*
X97599000Y-83116000D02*
X97599000Y-76904000D01*
X97559000Y-83064000D02*
X97559000Y-76956000D01*
X97519000Y-83010000D02*
X97519000Y-77010000D01*
X97479000Y-82955000D02*
X97479000Y-77065000D01*
X97439000Y-82899000D02*
X97439000Y-77121000D01*
X97399000Y-82840000D02*
X97399000Y-77180000D01*
X97359000Y-82780000D02*
X97359000Y-77240000D01*
X97319000Y-82719000D02*
X97319000Y-77301000D01*
X97279000Y-82655000D02*
X97279000Y-77365000D01*
X97239000Y-82589000D02*
X97239000Y-77431000D01*
X97199000Y-82520000D02*
X97199000Y-77500000D01*
X97159000Y-82449000D02*
X97159000Y-77571000D01*
X97119000Y-82375000D02*
X97119000Y-77645000D01*
X97079000Y-82299000D02*
X97079000Y-77721000D01*
X97039000Y-82219000D02*
X97039000Y-77801000D01*
X96999000Y-82135000D02*
X96999000Y-77885000D01*
X96959000Y-82047000D02*
X96959000Y-77973000D01*
X96919000Y-81954000D02*
X96919000Y-78066000D01*
X96879000Y-81856000D02*
X96879000Y-78164000D01*
X96839000Y-81752000D02*
X96839000Y-78268000D01*
X96799000Y-81640000D02*
X96799000Y-78380000D01*
X96759000Y-81520000D02*
X96759000Y-78500000D01*
X96719000Y-81388000D02*
X96719000Y-78632000D01*
X96679000Y-81240000D02*
X96679000Y-78780000D01*
X96639000Y-81072000D02*
X96639000Y-78948000D01*
X96599000Y-80872000D02*
X96599000Y-79148000D01*
X96559000Y-80609000D02*
X96559000Y-79411000D01*
X106760000Y-80010000D02*
G75*
G03*
X96520000Y-80010000I-5120000J0D01*
G01*
X96520000Y-80010000D02*
G75*
G03*
X106760000Y-80010000I5120000J0D01*
G01*
%TO.C,PMOD6*%
X124390000Y-92770000D02*
X124390000Y-77410000D01*
X124390000Y-92770000D02*
X115760000Y-92770000D01*
X124390000Y-92650000D02*
X115760000Y-92650000D01*
X124390000Y-92531905D02*
X115760000Y-92531905D01*
X124390000Y-92413810D02*
X115760000Y-92413810D01*
X124390000Y-92295715D02*
X115760000Y-92295715D01*
X124390000Y-92177620D02*
X115760000Y-92177620D01*
X124390000Y-92059525D02*
X115760000Y-92059525D01*
X124390000Y-91941430D02*
X115760000Y-91941430D01*
X124390000Y-91823335D02*
X115760000Y-91823335D01*
X124390000Y-91705240D02*
X115760000Y-91705240D01*
X124390000Y-91587145D02*
X115760000Y-91587145D01*
X124390000Y-91469050D02*
X115760000Y-91469050D01*
X124390000Y-91350955D02*
X115760000Y-91350955D01*
X124390000Y-91232860D02*
X115760000Y-91232860D01*
X124390000Y-91114765D02*
X115760000Y-91114765D01*
X124390000Y-90996670D02*
X115760000Y-90996670D01*
X124390000Y-90878575D02*
X115760000Y-90878575D01*
X124390000Y-90760480D02*
X115760000Y-90760480D01*
X124390000Y-90642385D02*
X115760000Y-90642385D01*
X124390000Y-90524290D02*
X115760000Y-90524290D01*
X124390000Y-90406195D02*
X115760000Y-90406195D01*
X124390000Y-90288100D02*
X115760000Y-90288100D01*
X124390000Y-90170000D02*
X115760000Y-90170000D01*
X124390000Y-87630000D02*
X115760000Y-87630000D01*
X124390000Y-85090000D02*
X115760000Y-85090000D01*
X124390000Y-82550000D02*
X115760000Y-82550000D01*
X124390000Y-80010000D02*
X115760000Y-80010000D01*
X124390000Y-77410000D02*
X115760000Y-77410000D01*
X115760000Y-92770000D02*
X115760000Y-77410000D01*
X115760000Y-91800000D02*
X115350000Y-91800000D01*
X115760000Y-91080000D02*
X115350000Y-91080000D01*
X115760000Y-89260000D02*
X115350000Y-89260000D01*
X115760000Y-88540000D02*
X115350000Y-88540000D01*
X115760000Y-86720000D02*
X115350000Y-86720000D01*
X115760000Y-86000000D02*
X115350000Y-86000000D01*
X115760000Y-84180000D02*
X115350000Y-84180000D01*
X115760000Y-83460000D02*
X115350000Y-83460000D01*
X115760000Y-81640000D02*
X115350000Y-81640000D01*
X115760000Y-80920000D02*
X115350000Y-80920000D01*
X115760000Y-79100000D02*
X115350000Y-79100000D01*
X115760000Y-78380000D02*
X115350000Y-78380000D01*
X113250000Y-91800000D02*
X112870000Y-91800000D01*
X113250000Y-91080000D02*
X112870000Y-91080000D01*
X113250000Y-89260000D02*
X112810000Y-89260000D01*
X113250000Y-88540000D02*
X112810000Y-88540000D01*
X113250000Y-86720000D02*
X112810000Y-86720000D01*
X113250000Y-86000000D02*
X112810000Y-86000000D01*
X113250000Y-84180000D02*
X112810000Y-84180000D01*
X113250000Y-83460000D02*
X112810000Y-83460000D01*
X113250000Y-81640000D02*
X112810000Y-81640000D01*
X113250000Y-80920000D02*
X112810000Y-80920000D01*
X113250000Y-79100000D02*
X112810000Y-79100000D01*
X113250000Y-78380000D02*
X112810000Y-78380000D01*
X111760000Y-92770000D02*
X110650000Y-92770000D01*
X110650000Y-92770000D02*
X110650000Y-91440000D01*
%TO.C,U8*%
X81625000Y-58420000D02*
X81625000Y-60220000D01*
X81625000Y-58420000D02*
X81625000Y-57620000D01*
X84745000Y-58420000D02*
X84745000Y-59220000D01*
X84745000Y-58420000D02*
X84745000Y-57620000D01*
%TO.C,R17*%
X97690000Y-58647064D02*
X97690000Y-58192936D01*
X99160000Y-58647064D02*
X99160000Y-58192936D01*
%TO.C,C19*%
X97213748Y-113565000D02*
X97736252Y-113565000D01*
X97213748Y-115035000D02*
X97736252Y-115035000D01*
%TO.C,C23*%
X101023748Y-116105000D02*
X101546252Y-116105000D01*
X101023748Y-117575000D02*
X101546252Y-117575000D01*
%TO.C,R15*%
X116740000Y-49757064D02*
X116740000Y-49302936D01*
X118210000Y-49757064D02*
X118210000Y-49302936D01*
%TD*%
M02*
