M48
; DRILL file {KiCad 7.0.10} date di 02 jan 2024 11:24:57 CET
; FORMAT={-:-/ absolute / inch / decimal}
; #@! TF.CreationDate,2024-01-02T11:24:57+01:00
; #@! TF.GenerationSoftware,Kicad,Pcbnew,7.0.10
; #@! TF.FileFunction,Plated,1,2,PTH
FMAT,2
INCH
; #@! TA.AperFunction,Plated,PTH,ViaDrill
T1C0.0157
; #@! TA.AperFunction,Plated,PTH,ComponentDrill
T2C0.0177
; #@! TA.AperFunction,Plated,PTH,ComponentDrill
T3C0.0197
; #@! TA.AperFunction,Plated,PTH,ComponentDrill
T4C0.0300
; #@! TA.AperFunction,Plated,PTH,ComponentDrill
T5C0.0394
; #@! TA.AperFunction,Plated,PTH,ComponentDrill
T6C0.1260
%
G90
G05
T1
X3.025Y-1.8
X3.025Y-1.9
X3.025Y-1.9
X3.2Y-4.9
X3.25Y-2.375
X3.325Y-4.4025
X3.325Y-4.45
X3.325Y-4.575
X3.325Y-4.575
X3.375Y-1.825
X3.425Y-2.25
X3.425Y-2.25
X3.425Y-3.325
X3.45Y-3.025
X3.45Y-3.125
X3.45Y-3.225
X3.45Y-4.4
X3.475Y-1.875
X3.475Y-3.8
X3.475Y-4.45
X3.525Y-2.25
X3.525Y-3.8715
X3.575Y-2.025
X3.575Y-3.9285
X3.625Y-2.325
X3.625Y-3.9
X3.625Y-4.45
X3.65Y-3.125
X3.65Y-3.225
X3.675Y-2.025
X3.6785Y-3.7
X3.7Y-1.925
X3.75Y-4.3785
X3.775Y-1.925
X3.775Y-2.15
X3.775Y-2.3
X3.85Y-2.025
X3.85Y-4.3785
X3.875Y-1.925
X3.9Y-2.15
X3.95Y-2.025
X4.025Y-1.825
X4.05Y-2.1109
X4.175Y-2.375
X4.275Y-4.725
X4.3Y-1.975
X4.375Y-1.675
X4.4Y-4.975
X4.525Y-1.6
X4.525Y-1.9859
X4.7Y-2.05
X4.7765Y-1.9519
X4.8Y-1.55
X4.8Y-1.825
T3
X4.5841Y-1.6945
X4.6055Y-5.0
X4.6117Y-1.6277
X4.6117Y-1.7613
X4.6332Y-4.9332
X4.6332Y-5.0668
X4.6785Y-1.6
X4.6785Y-1.789
X4.7Y-4.9055
X4.7Y-5.0945
X4.7454Y-1.6277
X4.7454Y-1.7613
X4.7668Y-4.9332
X4.7668Y-5.0668
X4.773Y-1.6945
X4.7945Y-5.0
T4
X3.325Y-3.5
X3.325Y-3.6
X3.325Y-3.7
X3.325Y-3.8
X3.325Y-3.9
X3.325Y-4.0
X4.175Y-3.6
X4.175Y-3.7
X4.175Y-3.8
X4.175Y-3.9
X4.175Y-4.0
X4.175Y-4.1
T5
X2.95Y-1.575
X3.0Y-2.2
X3.0Y-2.3
X3.0Y-2.4
X3.0Y-2.5
X3.0Y-2.6
X3.0Y-2.7
X3.0Y-3.1
X3.0Y-3.2
X3.0Y-3.3
X3.0Y-3.4
X3.0Y-3.5
X3.0Y-3.6
X3.0Y-4.0
X3.0Y-4.1
X3.0Y-4.2
X3.0Y-4.3
X3.0Y-4.4
X3.0Y-4.5
X3.1Y-2.2
X3.1Y-2.3
X3.1Y-2.4
X3.1Y-2.5
X3.1Y-2.6
X3.1Y-2.7
X3.1Y-3.1
X3.1Y-3.2
X3.1Y-3.3
X3.1Y-3.4
X3.1Y-3.5
X3.1Y-3.6
X3.1Y-4.0
X3.1Y-4.1
X3.1Y-4.2
X3.1Y-4.3
X3.1Y-4.4
X3.1Y-4.5
X3.125Y-1.575
X3.9031Y-2.65
X3.9031Y-3.15
X4.1Y-2.65
X4.1Y-3.15
X4.2Y-2.9
X4.275Y-1.6
X4.375Y-1.6
X4.4Y-2.2
X4.4Y-2.3
X4.4Y-2.4
X4.4Y-2.5
X4.4Y-2.6
X4.4Y-2.7
X4.4Y-2.9
X4.4Y-3.1
X4.4Y-3.2
X4.4Y-3.3
X4.4Y-3.4
X4.4Y-3.5
X4.4Y-3.6
X4.4Y-4.0
X4.4Y-4.1
X4.4Y-4.2
X4.4Y-4.3
X4.4Y-4.4
X4.4Y-4.5
X4.5Y-2.2
X4.5Y-2.3
X4.5Y-2.4
X4.5Y-2.5
X4.5Y-2.6
X4.5Y-2.7
X4.5Y-3.1
X4.5Y-3.2
X4.5Y-3.3
X4.5Y-3.4
X4.5Y-3.5
X4.5Y-3.6
X4.5Y-4.0
X4.5Y-4.1
X4.5Y-4.2
X4.5Y-4.3
X4.5Y-4.4
X4.5Y-4.5
T6
X4.6785Y-1.6945
X4.7Y-5.0
T2
G00X3.8193Y-1.5657
M15
G01X3.8193Y-1.5343
M16
G05
G00X3.8202Y-1.7016
M15
G01X3.8202Y-1.6701
M16
G05
G00X4.1007Y-1.5657
M15
G01X4.1007Y-1.5343
M16
G05
G00X4.1007Y-1.7016
M15
G01X4.1007Y-1.6701
M16
G05
T5
G00X3.0409Y-4.839
M15
G01X3.0016Y-4.839
M16
G05
G00X3.0409Y-5.0555
M15
G01X3.0016Y-5.0555
M16
G05
G00X3.1197Y-4.6933
M15
G01X3.0803Y-4.6933
M16
G05
G00X3.1197Y-4.9098
M15
G01X3.0803Y-4.9098
M16
G05
G00X3.1197Y-5.15
M15
G01X3.0803Y-5.15
M16
G05
G00X4.3409Y-4.839
M15
G01X4.3016Y-4.839
M16
G05
G00X4.3409Y-5.0555
M15
G01X4.3016Y-5.0555
M16
G05
G00X4.4197Y-4.6933
M15
G01X4.3803Y-4.6933
M16
G05
G00X4.4197Y-4.9098
M15
G01X4.3803Y-4.9098
M16
G05
G00X4.4197Y-5.15
M15
G01X4.3803Y-5.15
M16
G05
M30
