%TF.GenerationSoftware,KiCad,Pcbnew,7.0.10*%
%TF.CreationDate,2024-01-02T11:24:53+01:00*%
%TF.ProjectId,sim800x_break,73696d38-3030-4785-9f62-7265616b2e6b,rev?*%
%TF.SameCoordinates,Original*%
%TF.FileFunction,Soldermask,Top*%
%TF.FilePolarity,Negative*%
%FSLAX46Y46*%
G04 Gerber Fmt 4.6, Leading zero omitted, Abs format (unit mm)*
G04 Created by KiCad (PCBNEW 7.0.10) date 2024-01-02 11:24:53*
%MOMM*%
%LPD*%
G01*
G04 APERTURE LIST*
G04 Aperture macros list*
%AMRoundRect*
0 Rectangle with rounded corners*
0 $1 Rounding radius*
0 $2 $3 $4 $5 $6 $7 $8 $9 X,Y pos of 4 corners*
0 Add a 4 corners polygon primitive as box body*
4,1,4,$2,$3,$4,$5,$6,$7,$8,$9,$2,$3,0*
0 Add four circle primitives for the rounded corners*
1,1,$1+$1,$2,$3*
1,1,$1+$1,$4,$5*
1,1,$1+$1,$6,$7*
1,1,$1+$1,$8,$9*
0 Add four rect primitives between the rounded corners*
20,1,$1+$1,$2,$3,$4,$5,0*
20,1,$1+$1,$4,$5,$6,$7,0*
20,1,$1+$1,$6,$7,$8,$9,0*
20,1,$1+$1,$8,$9,$2,$3,0*%
G04 Aperture macros list end*
%ADD10R,1.700000X1.700000*%
%ADD11O,1.700000X1.700000*%
%ADD12RoundRect,0.150000X-0.512500X-0.150000X0.512500X-0.150000X0.512500X0.150000X-0.512500X0.150000X0*%
%ADD13RoundRect,0.150000X0.150000X-0.512500X0.150000X0.512500X-0.150000X0.512500X-0.150000X-0.512500X0*%
%ADD14R,2.950000X3.500000*%
%ADD15RoundRect,0.250000X-0.450000X0.262500X-0.450000X-0.262500X0.450000X-0.262500X0.450000X0.262500X0*%
%ADD16RoundRect,0.250000X0.250000X0.475000X-0.250000X0.475000X-0.250000X-0.475000X0.250000X-0.475000X0*%
%ADD17C,2.000000*%
%ADD18RoundRect,0.250000X-0.250000X-0.475000X0.250000X-0.475000X0.250000X0.475000X-0.250000X0.475000X0*%
%ADD19RoundRect,0.250000X-0.475000X0.250000X-0.475000X-0.250000X0.475000X-0.250000X0.475000X0.250000X0*%
%ADD20RoundRect,0.150000X-0.150000X0.512500X-0.150000X-0.512500X0.150000X-0.512500X0.150000X0.512500X0*%
%ADD21RoundRect,0.250000X0.450000X-0.262500X0.450000X0.262500X-0.450000X0.262500X-0.450000X-0.262500X0*%
%ADD22C,0.800000*%
%ADD23C,6.400000*%
%ADD24R,2.000000X2.000000*%
%ADD25RoundRect,0.243750X0.456250X-0.243750X0.456250X0.243750X-0.456250X0.243750X-0.456250X-0.243750X0*%
%ADD26C,0.650000*%
%ADD27R,0.400000X1.400000*%
%ADD28O,1.050000X1.850000*%
%ADD29RoundRect,0.150000X0.512500X0.150000X-0.512500X0.150000X-0.512500X-0.150000X0.512500X-0.150000X0*%
%ADD30RoundRect,0.250000X0.262500X0.450000X-0.262500X0.450000X-0.262500X-0.450000X0.262500X-0.450000X0*%
%ADD31RoundRect,0.250000X0.475000X-0.250000X0.475000X0.250000X-0.475000X0.250000X-0.475000X-0.250000X0*%
%ADD32RoundRect,0.250000X-0.262500X-0.450000X0.262500X-0.450000X0.262500X0.450000X-0.262500X0.450000X0*%
%ADD33RoundRect,0.150000X0.587500X0.150000X-0.587500X0.150000X-0.587500X-0.150000X0.587500X-0.150000X0*%
%ADD34O,2.800000X1.800000*%
%ADD35RoundRect,0.243750X0.243750X0.456250X-0.243750X0.456250X-0.243750X-0.456250X0.243750X-0.456250X0*%
%ADD36C,1.524000*%
G04 APERTURE END LIST*
D10*
%TO.C,PMOD4*%
X111760000Y-68580000D03*
D11*
X114300000Y-68580000D03*
X111760000Y-66040000D03*
X114300000Y-66040000D03*
X111760000Y-63500000D03*
X114300000Y-63500000D03*
X111760000Y-60960000D03*
X114300000Y-60960000D03*
X111760000Y-58420000D03*
X114300000Y-58420000D03*
X111760000Y-55880000D03*
X114300000Y-55880000D03*
%TD*%
D12*
%TO.C,U2*%
X120280000Y-48895000D03*
X120280000Y-49845000D03*
X120280000Y-50795000D03*
X122555000Y-50795000D03*
X122555000Y-48895000D03*
%TD*%
D10*
%TO.C,PMOD3*%
X78740000Y-114300000D03*
D11*
X76200000Y-114300000D03*
X78740000Y-111760000D03*
X76200000Y-111760000D03*
X78740000Y-109220000D03*
X76200000Y-109220000D03*
X78740000Y-106680000D03*
X76200000Y-106680000D03*
X78740000Y-104140000D03*
X76200000Y-104140000D03*
X78740000Y-101600000D03*
X76200000Y-101600000D03*
%TD*%
D13*
%TO.C,U9*%
X105730000Y-59557500D03*
X107630000Y-59557500D03*
X106680000Y-57282500D03*
%TD*%
D14*
%TO.C,L2*%
X82735000Y-46990000D03*
X77285000Y-46990000D03*
%TD*%
D15*
%TO.C,R8*%
X105410000Y-51792500D03*
X105410000Y-53617500D03*
%TD*%
D10*
%TO.C,PMOD2*%
X78740000Y-91440000D03*
D11*
X76200000Y-91440000D03*
X78740000Y-88900000D03*
X76200000Y-88900000D03*
X78740000Y-86360000D03*
X76200000Y-86360000D03*
X78740000Y-83820000D03*
X76200000Y-83820000D03*
X78740000Y-81280000D03*
X76200000Y-81280000D03*
X78740000Y-78740000D03*
X76200000Y-78740000D03*
%TD*%
D10*
%TO.C,PMOD1*%
X78740000Y-68580000D03*
D11*
X76200000Y-68580000D03*
X78740000Y-66040000D03*
X76200000Y-66040000D03*
X78740000Y-63500000D03*
X76200000Y-63500000D03*
X78740000Y-60960000D03*
X76200000Y-60960000D03*
X78740000Y-58420000D03*
X76200000Y-58420000D03*
X78740000Y-55880000D03*
X76200000Y-55880000D03*
%TD*%
D16*
%TO.C,C9*%
X84770000Y-41910000D03*
X82870000Y-41910000D03*
%TD*%
D17*
%TO.C,TP3*%
X74930000Y-40005000D03*
%TD*%
D18*
%TO.C,C4*%
X85095000Y-116840000D03*
X86995000Y-116840000D03*
%TD*%
D13*
%TO.C,U3*%
X108270000Y-50667500D03*
X110170000Y-50667500D03*
X109220000Y-48392500D03*
%TD*%
D19*
%TO.C,C12*%
X89535000Y-57470000D03*
X89535000Y-59370000D03*
%TD*%
D20*
%TO.C,U7*%
X106360000Y-46487500D03*
X104460000Y-46487500D03*
X105410000Y-48762500D03*
%TD*%
D21*
%TO.C,R13*%
X85725000Y-53617500D03*
X85725000Y-51792500D03*
%TD*%
D18*
%TO.C,C3*%
X92715000Y-114300000D03*
X94615000Y-114300000D03*
%TD*%
%TO.C,C21*%
X104145000Y-114300000D03*
X106045000Y-114300000D03*
%TD*%
D22*
%TO.C,H2*%
X119380000Y-124600000D03*
X121077056Y-125302944D03*
X117682944Y-125302944D03*
X121780000Y-127000000D03*
D23*
X119380000Y-127000000D03*
D22*
X116980000Y-127000000D03*
X121077056Y-128697056D03*
X117682944Y-128697056D03*
X119380000Y-129400000D03*
%TD*%
D14*
%TO.C,L1*%
X92895000Y-41910000D03*
X87445000Y-41910000D03*
%TD*%
D24*
%TO.C,C14*%
X104140000Y-67310000D03*
D17*
X99140000Y-67310000D03*
%TD*%
D25*
%TO.C,D3*%
X103505000Y-59357500D03*
X103505000Y-57482500D03*
%TD*%
D26*
%TO.C,J5*%
X102584000Y-41500000D03*
X98584000Y-41500000D03*
D27*
X101884000Y-42320000D03*
X101234000Y-42320000D03*
X100584000Y-42320000D03*
X99934000Y-42320000D03*
X99284000Y-42320000D03*
D28*
X104159000Y-42820000D03*
X104159000Y-39370000D03*
X97034000Y-42820000D03*
X97009000Y-39370000D03*
%TD*%
D18*
%TO.C,C1*%
X88905000Y-114300000D03*
X90805000Y-114300000D03*
%TD*%
D29*
%TO.C,U5*%
X96387500Y-59370000D03*
X96387500Y-58420000D03*
X96387500Y-57470000D03*
X94112500Y-57470000D03*
X94112500Y-59370000D03*
%TD*%
D19*
%TO.C,C10*%
X88265000Y-51755000D03*
X88265000Y-53655000D03*
%TD*%
D18*
%TO.C,C2*%
X85095000Y-114300000D03*
X86995000Y-114300000D03*
%TD*%
D30*
%TO.C,R3*%
X92352500Y-82550000D03*
X90527500Y-82550000D03*
%TD*%
D12*
%TO.C,U4*%
X88397500Y-46675000D03*
X88397500Y-47625000D03*
X88397500Y-48575000D03*
X90672500Y-48575000D03*
X90672500Y-46675000D03*
%TD*%
D30*
%TO.C,R2*%
X92352500Y-80010000D03*
X90527500Y-80010000D03*
%TD*%
D18*
%TO.C,C24*%
X104145000Y-116840000D03*
X106045000Y-116840000D03*
%TD*%
D21*
%TO.C,R9*%
X100330000Y-53617500D03*
X100330000Y-51792500D03*
%TD*%
D19*
%TO.C,C25*%
X86995000Y-57470000D03*
X86995000Y-59370000D03*
%TD*%
D30*
%TO.C,R4*%
X87272500Y-77470000D03*
X85447500Y-77470000D03*
%TD*%
D25*
%TO.C,D2*%
X100965000Y-59357500D03*
X100965000Y-57482500D03*
%TD*%
D15*
%TO.C,R18*%
X102870000Y-51792500D03*
X102870000Y-53617500D03*
%TD*%
D22*
%TO.C,H1*%
X118835000Y-40640000D03*
X120532056Y-41342944D03*
X117137944Y-41342944D03*
X121235000Y-43040000D03*
D23*
X118835000Y-43040000D03*
D22*
X116435000Y-43040000D03*
X120532056Y-44737056D03*
X117137944Y-44737056D03*
X118835000Y-45440000D03*
%TD*%
D31*
%TO.C,C11*%
X95885000Y-48575000D03*
X95885000Y-46675000D03*
%TD*%
D18*
%TO.C,C5*%
X88905000Y-116840000D03*
X90805000Y-116840000D03*
%TD*%
D30*
%TO.C,R6*%
X87272500Y-85090000D03*
X85447500Y-85090000D03*
%TD*%
D18*
%TO.C,C22*%
X96525000Y-116840000D03*
X98425000Y-116840000D03*
%TD*%
D32*
%TO.C,R10*%
X108307500Y-45720000D03*
X110132500Y-45720000D03*
%TD*%
D30*
%TO.C,R1*%
X87272500Y-82550000D03*
X85447500Y-82550000D03*
%TD*%
D10*
%TO.C,PMOD5*%
X111760000Y-114300000D03*
D11*
X114300000Y-114300000D03*
X111760000Y-111760000D03*
X114300000Y-111760000D03*
X111760000Y-109220000D03*
X114300000Y-109220000D03*
X111760000Y-106680000D03*
X114300000Y-106680000D03*
X111760000Y-104140000D03*
X114300000Y-104140000D03*
X111760000Y-101600000D03*
X114300000Y-101600000D03*
%TD*%
D19*
%TO.C,C6*%
X108585000Y-101605000D03*
X108585000Y-103505000D03*
%TD*%
D17*
%TO.C,TP1*%
X111760000Y-73660000D03*
%TD*%
D15*
%TO.C,R12*%
X93345000Y-46712500D03*
X93345000Y-48537500D03*
%TD*%
D25*
%TO.C,D12*%
X83185000Y-53642500D03*
X83185000Y-51767500D03*
%TD*%
D20*
%TO.C,U6*%
X102550000Y-46487500D03*
X100650000Y-46487500D03*
X101600000Y-48762500D03*
%TD*%
D33*
%TO.C,Q1*%
X98092500Y-53655000D03*
X98092500Y-51755000D03*
X96217500Y-52705000D03*
%TD*%
D17*
%TO.C,TP4*%
X106680000Y-73660000D03*
%TD*%
D34*
%TO.C,J2*%
X109760000Y-122910000D03*
X111760000Y-124710000D03*
X111760000Y-130810000D03*
X109760000Y-128410000D03*
X111760000Y-119210000D03*
%TD*%
D31*
%TO.C,C7*%
X108585000Y-98425000D03*
X108585000Y-96525000D03*
%TD*%
D19*
%TO.C,C26*%
X112395000Y-48580000D03*
X112395000Y-50480000D03*
%TD*%
D21*
%TO.C,R11*%
X114935000Y-50442500D03*
X114935000Y-48617500D03*
%TD*%
D10*
%TO.C,J1*%
X108585000Y-40640000D03*
D11*
X111125000Y-40640000D03*
%TD*%
D17*
%TO.C,TP2*%
X79375000Y-40005000D03*
%TD*%
D35*
%TO.C,D1*%
X113967500Y-45720000D03*
X112092500Y-45720000D03*
%TD*%
D31*
%TO.C,C16*%
X98425000Y-48575000D03*
X98425000Y-46675000D03*
%TD*%
D19*
%TO.C,C13*%
X90805000Y-51755000D03*
X90805000Y-53655000D03*
%TD*%
D15*
%TO.C,R16*%
X92075000Y-57507500D03*
X92075000Y-59332500D03*
%TD*%
D36*
%TO.C,U1*%
X106045000Y-104140000D03*
X106045000Y-101600000D03*
X106045000Y-99060000D03*
X106045000Y-96520000D03*
X106045000Y-93980000D03*
X106045000Y-91440000D03*
X84455000Y-88900000D03*
X84455000Y-91440000D03*
X84455000Y-93980000D03*
X84455000Y-96520000D03*
X84455000Y-99060000D03*
X84455000Y-101600000D03*
%TD*%
D30*
%TO.C,R7*%
X92352500Y-85090000D03*
X90527500Y-85090000D03*
%TD*%
D18*
%TO.C,C20*%
X100335000Y-114300000D03*
X102235000Y-114300000D03*
%TD*%
D34*
%TO.C,J3*%
X76740000Y-122910000D03*
X78740000Y-124710000D03*
X78740000Y-130810000D03*
X76740000Y-128410000D03*
X78740000Y-119210000D03*
%TD*%
D30*
%TO.C,R5*%
X87272500Y-80010000D03*
X85447500Y-80010000D03*
%TD*%
D19*
%TO.C,C17*%
X93345000Y-51755000D03*
X93345000Y-53655000D03*
%TD*%
D18*
%TO.C,C18*%
X92715000Y-116840000D03*
X94615000Y-116840000D03*
%TD*%
D21*
%TO.C,R14*%
X85725000Y-48537500D03*
X85725000Y-46712500D03*
%TD*%
D24*
%TO.C,C8*%
X104140000Y-80010000D03*
D17*
X99140000Y-80010000D03*
%TD*%
D10*
%TO.C,PMOD6*%
X111760000Y-91440000D03*
D11*
X114300000Y-91440000D03*
X111760000Y-88900000D03*
X114300000Y-88900000D03*
X111760000Y-86360000D03*
X114300000Y-86360000D03*
X111760000Y-83820000D03*
X114300000Y-83820000D03*
X111760000Y-81280000D03*
X114300000Y-81280000D03*
X111760000Y-78740000D03*
X114300000Y-78740000D03*
%TD*%
D13*
%TO.C,U8*%
X82235000Y-59557500D03*
X84135000Y-59557500D03*
X83185000Y-57282500D03*
%TD*%
D21*
%TO.C,R17*%
X98425000Y-59332500D03*
X98425000Y-57507500D03*
%TD*%
D18*
%TO.C,C19*%
X96525000Y-114300000D03*
X98425000Y-114300000D03*
%TD*%
%TO.C,C23*%
X100335000Y-116840000D03*
X102235000Y-116840000D03*
%TD*%
D21*
%TO.C,R15*%
X117475000Y-50442500D03*
X117475000Y-48617500D03*
%TD*%
M02*
