%TF.GenerationSoftware,KiCad,Pcbnew,(6.0.1)*%
%TF.CreationDate,2022-02-03T19:59:55+01:00*%
%TF.ProjectId,modules_board,6d6f6475-6c65-4735-9f62-6f6172642e6b,rev?*%
%TF.SameCoordinates,Original*%
%TF.FileFunction,Copper,L2,Bot*%
%TF.FilePolarity,Positive*%
%FSLAX46Y46*%
G04 Gerber Fmt 4.6, Leading zero omitted, Abs format (unit mm)*
G04 Created by KiCad (PCBNEW (6.0.1)) date 2022-02-03 19:59:55*
%MOMM*%
%LPD*%
G01*
G04 APERTURE LIST*
%TA.AperFunction,ComponentPad*%
%ADD10C,1.524000*%
%TD*%
%TA.AperFunction,ComponentPad*%
%ADD11R,1.700000X1.700000*%
%TD*%
%TA.AperFunction,ComponentPad*%
%ADD12O,1.700000X1.700000*%
%TD*%
%TA.AperFunction,ComponentPad*%
%ADD13C,0.800000*%
%TD*%
%TA.AperFunction,ComponentPad*%
%ADD14C,6.400000*%
%TD*%
%TA.AperFunction,ComponentPad*%
%ADD15C,1.600000*%
%TD*%
%TA.AperFunction,ComponentPad*%
%ADD16O,1.600000X1.600000*%
%TD*%
%TA.AperFunction,ViaPad*%
%ADD17C,0.800000*%
%TD*%
%TA.AperFunction,Conductor*%
%ADD18C,0.250000*%
%TD*%
G04 APERTURE END LIST*
D10*
%TO.P,U1,8,~{CS}*%
%TO.N,SDA_CS_RX*%
X86360000Y-97790000D03*
%TO.P,U1,7,SCK*%
%TO.N,ADDR1_SCK_DTRQ*%
X88900000Y-97790000D03*
%TO.P,U1,6,MOSI*%
%TO.N,ADDR0_MOSI_MX*%
X91440000Y-97790000D03*
%TO.P,U1,5,MISO*%
%TO.N,SCL_MISO_TX*%
X93980000Y-97790000D03*
%TO.P,U1,4,INT*%
%TO.N,INT*%
X96520000Y-97790000D03*
%TO.P,U1,3,GND*%
%TO.N,GND*%
X99060000Y-97790000D03*
%TO.P,U1,2,~{RST}*%
%TO.N,RESET*%
X101600000Y-97790000D03*
%TO.P,U1,1,VCC*%
%TO.N,VCC*%
X104140000Y-97790000D03*
%TO.P,U1,0*%
%TO.N,N/C*%
X106680000Y-97790000D03*
%TD*%
D11*
%TO.P,J1,1,Pin_1*%
%TO.N,VCC*%
X63500000Y-119380000D03*
D12*
%TO.P,J1,2,Pin_2*%
X60960000Y-119380000D03*
%TO.P,J1,3,Pin_3*%
%TO.N,GND*%
X63500000Y-116840000D03*
%TO.P,J1,4,Pin_4*%
X60960000Y-116840000D03*
%TO.P,J1,5,Pin_5*%
%TO.N,PMOD_I2C_SDA*%
X63500000Y-114300000D03*
%TO.P,J1,6,Pin_6*%
%TO.N,PMOD_I2C_GPIO4*%
X60960000Y-114300000D03*
%TO.P,J1,7,Pin_7*%
%TO.N,PMOD_I2C_SCL*%
X63500000Y-111760000D03*
%TO.P,J1,8,Pin_8*%
%TO.N,PMOD_I2C_GPIO3*%
X60960000Y-111760000D03*
%TO.P,J1,9,Pin_9*%
%TO.N,PMOD_I2C_RESET*%
X63500000Y-109220000D03*
%TO.P,J1,10,Pin_10*%
%TO.N,PMOD_I2C_GPIO2*%
X60960000Y-109220000D03*
%TO.P,J1,11,Pin_11*%
%TO.N,PMOD_I2C_INT*%
X63500000Y-106680000D03*
%TO.P,J1,12,Pin_12*%
%TO.N,PMOD_I2C_GPIO1*%
X60960000Y-106680000D03*
%TD*%
D11*
%TO.P,J2,1,Pin_1*%
%TO.N,VCC*%
X63500000Y-96520000D03*
D12*
%TO.P,J2,2,Pin_2*%
X60960000Y-96520000D03*
%TO.P,J2,3,Pin_3*%
%TO.N,GND*%
X63500000Y-93980000D03*
%TO.P,J2,4,Pin_4*%
X60960000Y-93980000D03*
%TO.P,J2,5,Pin_5*%
%TO.N,PMOD_UART_RTS*%
X63500000Y-91440000D03*
%TO.P,J2,6,Pin_6*%
%TO.N,PMOD_UART_GPIO4*%
X60960000Y-91440000D03*
%TO.P,J2,7,Pin_7*%
%TO.N,PMOD_UART_RXD*%
X63500000Y-88900000D03*
%TO.P,J2,8,Pin_8*%
%TO.N,PMOD_UART_GPIO3*%
X60960000Y-88900000D03*
%TO.P,J2,9,Pin_9*%
%TO.N,PMOD_UART_TXD*%
X63500000Y-86360000D03*
%TO.P,J2,10,Pin_10*%
%TO.N,PMOD_UART_RESET*%
X60960000Y-86360000D03*
%TO.P,J2,11,Pin_11*%
%TO.N,PMOD_UART_CTS*%
X63500000Y-83820000D03*
%TO.P,J2,12,Pin_12*%
%TO.N,PMOD_UART_INT*%
X60960000Y-83820000D03*
%TD*%
D11*
%TO.P,J3,1,Pin_1*%
%TO.N,VCC*%
X63500000Y-73660000D03*
D12*
%TO.P,J3,2,Pin_2*%
X60960000Y-73660000D03*
%TO.P,J3,3,Pin_3*%
%TO.N,GND*%
X63500000Y-71120000D03*
%TO.P,J3,4,Pin_4*%
X60960000Y-71120000D03*
%TO.P,J3,5,Pin_5*%
%TO.N,PMOD_SPI_SCK*%
X63500000Y-68580000D03*
%TO.P,J3,6,Pin_6*%
%TO.N,PMOD_SPI_CS3*%
X60960000Y-68580000D03*
%TO.P,J3,7,Pin_7*%
%TO.N,PMOD_SPI_MISO*%
X63500000Y-66040000D03*
%TO.P,J3,8,Pin_8*%
%TO.N,PMOD_SPI_CS2*%
X60960000Y-66040000D03*
%TO.P,J3,9,Pin_9*%
%TO.N,PMOD_SPI_MOSI*%
X63500000Y-63500000D03*
%TO.P,J3,10,Pin_10*%
%TO.N,PMOD_SPI_RESET*%
X60960000Y-63500000D03*
%TO.P,J3,11,Pin_11*%
%TO.N,PMOD_SPI_CS*%
X63500000Y-60960000D03*
%TO.P,J3,12,Pin_12*%
%TO.N,PMOD_SPI_INT*%
X60960000Y-60960000D03*
%TD*%
D11*
%TO.P,J7,1,Pin_1*%
%TO.N,VCC*%
X124460000Y-119380000D03*
D12*
%TO.P,J7,2,Pin_2*%
X127000000Y-119380000D03*
%TO.P,J7,3,Pin_3*%
%TO.N,GND*%
X124460000Y-116840000D03*
%TO.P,J7,4,Pin_4*%
X127000000Y-116840000D03*
%TO.P,J7,5,Pin_5*%
%TO.N,PMOD_I2C_SDA*%
X124460000Y-114300000D03*
%TO.P,J7,6,Pin_6*%
%TO.N,PMOD_I2C_GPIO4*%
X127000000Y-114300000D03*
%TO.P,J7,7,Pin_7*%
%TO.N,PMOD_I2C_SCL*%
X124460000Y-111760000D03*
%TO.P,J7,8,Pin_8*%
%TO.N,PMOD_I2C_GPIO3*%
X127000000Y-111760000D03*
%TO.P,J7,9,Pin_9*%
%TO.N,PMOD_I2C_RESET*%
X124460000Y-109220000D03*
%TO.P,J7,10,Pin_10*%
%TO.N,PMOD_I2C_GPIO2*%
X127000000Y-109220000D03*
%TO.P,J7,11,Pin_11*%
%TO.N,PMOD_I2C_INT*%
X124460000Y-106680000D03*
%TO.P,J7,12,Pin_12*%
%TO.N,PMOD_I2C_GPIO1*%
X127000000Y-106680000D03*
%TD*%
D11*
%TO.P,J8,1,Pin_1*%
%TO.N,VCC*%
X124460000Y-96520000D03*
D12*
%TO.P,J8,2,Pin_2*%
X127000000Y-96520000D03*
%TO.P,J8,3,Pin_3*%
%TO.N,GND*%
X124460000Y-93980000D03*
%TO.P,J8,4,Pin_4*%
X127000000Y-93980000D03*
%TO.P,J8,5,Pin_5*%
%TO.N,PMOD_UART_RTS*%
X124460000Y-91440000D03*
%TO.P,J8,6,Pin_6*%
%TO.N,PMOD_UART_GPIO4*%
X127000000Y-91440000D03*
%TO.P,J8,7,Pin_7*%
%TO.N,PMOD_UART_RXD*%
X124460000Y-88900000D03*
%TO.P,J8,8,Pin_8*%
%TO.N,PMOD_UART_GPIO3*%
X127000000Y-88900000D03*
%TO.P,J8,9,Pin_9*%
%TO.N,PMOD_UART_TXD*%
X124460000Y-86360000D03*
%TO.P,J8,10,Pin_10*%
%TO.N,PMOD_UART_RESET*%
X127000000Y-86360000D03*
%TO.P,J8,11,Pin_11*%
%TO.N,PMOD_UART_CTS*%
X124460000Y-83820000D03*
%TO.P,J8,12,Pin_12*%
%TO.N,PMOD_UART_INT*%
X127000000Y-83820000D03*
%TD*%
D11*
%TO.P,J9,1,Pin_1*%
%TO.N,VCC*%
X124460000Y-73660000D03*
D12*
%TO.P,J9,2,Pin_2*%
X127000000Y-73660000D03*
%TO.P,J9,3,Pin_3*%
%TO.N,GND*%
X124460000Y-71120000D03*
%TO.P,J9,4,Pin_4*%
X127000000Y-71120000D03*
%TO.P,J9,5,Pin_5*%
%TO.N,PMOD_SPI_SCK*%
X124460000Y-68580000D03*
%TO.P,J9,6,Pin_6*%
%TO.N,PMOD_SPI_CS3*%
X127000000Y-68580000D03*
%TO.P,J9,7,Pin_7*%
%TO.N,PMOD_SPI_MISO*%
X124460000Y-66040000D03*
%TO.P,J9,8,Pin_8*%
%TO.N,PMOD_SPI_CS2*%
X127000000Y-66040000D03*
%TO.P,J9,9,Pin_9*%
%TO.N,PMOD_SPI_MOSI*%
X124460000Y-63500000D03*
%TO.P,J9,10,Pin_10*%
%TO.N,PMOD_SPI_RESET*%
X127000000Y-63500000D03*
%TO.P,J9,11,Pin_11*%
%TO.N,PMOD_SPI_CS*%
X124460000Y-60960000D03*
%TO.P,J9,12,Pin_12*%
%TO.N,PMOD_SPI_INT*%
X127000000Y-60960000D03*
%TD*%
D13*
%TO.P,H1,1*%
%TO.N,N/C*%
X63927056Y-49957056D03*
X60532944Y-49957056D03*
X59830000Y-48260000D03*
X62230000Y-45860000D03*
X62230000Y-50660000D03*
X64630000Y-48260000D03*
D14*
X62230000Y-48260000D03*
D13*
X63927056Y-46562944D03*
X60532944Y-46562944D03*
%TD*%
D14*
%TO.P,H2,1*%
%TO.N,N/C*%
X62230000Y-132080000D03*
D13*
X62230000Y-129680000D03*
X64630000Y-132080000D03*
X62230000Y-134480000D03*
X60532944Y-133777056D03*
X63927056Y-133777056D03*
X59830000Y-132080000D03*
X60532944Y-130382944D03*
X63927056Y-130382944D03*
%TD*%
%TO.P,H3,1*%
%TO.N,N/C*%
X130382944Y-49957056D03*
X132080000Y-50660000D03*
X129680000Y-48260000D03*
X134480000Y-48260000D03*
X132080000Y-45860000D03*
D14*
X132080000Y-48260000D03*
D13*
X133777056Y-46562944D03*
X133777056Y-49957056D03*
X130382944Y-46562944D03*
%TD*%
%TO.P,H4,1*%
%TO.N,N/C*%
X133917056Y-130382944D03*
X130522944Y-133777056D03*
X132220000Y-134480000D03*
X134620000Y-132080000D03*
X129820000Y-132080000D03*
D14*
X132220000Y-132080000D03*
D13*
X130522944Y-130382944D03*
X133917056Y-133777056D03*
X132220000Y-129680000D03*
%TD*%
D15*
%TO.P,R2,1*%
%TO.N,VCC*%
X116840000Y-55880000D03*
D16*
%TO.P,R2,2*%
%TO.N,INT*%
X127000000Y-55880000D03*
%TD*%
D15*
%TO.P,R1,1*%
%TO.N,VCC*%
X116840000Y-50800000D03*
D16*
%TO.P,R1,2*%
%TO.N,RESET*%
X127000000Y-50800000D03*
%TD*%
D11*
%TO.P,J5,1,Pin_1*%
%TO.N,SCL_MISO_TX*%
X90170000Y-62230000D03*
D12*
%TO.P,J5,2,Pin_2*%
%TO.N,PMOD_SPI_MISO*%
X90170000Y-59690000D03*
%TO.P,J5,3,Pin_3*%
%TO.N,SCL_MISO_TX*%
X92710000Y-62230000D03*
%TO.P,J5,4,Pin_4*%
%TO.N,PMOD_I2C_SCL*%
X92710000Y-59690000D03*
%TO.P,J5,5,Pin_5*%
%TO.N,SCL_MISO_TX*%
X95250000Y-62230000D03*
%TO.P,J5,6,Pin_6*%
%TO.N,PMOD_UART_TXD*%
X95250000Y-59690000D03*
%TD*%
D11*
%TO.P,J6,1,Pin_1*%
%TO.N,ADDR0_MOSI_MX*%
X104140000Y-62230000D03*
D12*
%TO.P,J6,2,Pin_2*%
%TO.N,PMOD_SPI_MOSI*%
X104140000Y-59690000D03*
%TD*%
D11*
%TO.P,J10,1,Pin_1*%
%TO.N,ADDR1_SCK_DTRQ*%
X113030000Y-62230000D03*
D12*
%TO.P,J10,2,Pin_2*%
%TO.N,PMOD_SPI_SCK*%
X113030000Y-59690000D03*
%TD*%
D11*
%TO.P,J11,1,Pin_1*%
%TO.N,PMOD_SPI_CS*%
X111760000Y-52070000D03*
D12*
%TO.P,J11,2,Pin_2*%
%TO.N,CS*%
X111760000Y-54610000D03*
%TO.P,J11,3,Pin_3*%
%TO.N,PMOD_SPI_CS2*%
X109220000Y-52070000D03*
%TO.P,J11,4,Pin_4*%
%TO.N,CS*%
X109220000Y-54610000D03*
%TO.P,J11,5,Pin_5*%
%TO.N,PMOD_SPI_CS3*%
X106680000Y-52070000D03*
%TO.P,J11,6,Pin_6*%
%TO.N,CS*%
X106680000Y-54610000D03*
%TD*%
D11*
%TO.P,J4,1,Pin_1*%
%TO.N,SDA_CS_RX*%
X76200000Y-62230000D03*
D12*
%TO.P,J4,2,Pin_2*%
%TO.N,CS*%
X76200000Y-59690000D03*
%TO.P,J4,3,Pin_3*%
%TO.N,SDA_CS_RX*%
X78740000Y-62230000D03*
%TO.P,J4,4,Pin_4*%
%TO.N,PMOD_I2C_SDA*%
X78740000Y-59690000D03*
%TO.P,J4,5,Pin_5*%
%TO.N,SDA_CS_RX*%
X81280000Y-62230000D03*
%TO.P,J4,6,Pin_6*%
%TO.N,PMOD_UART_RXD*%
X81280000Y-59690000D03*
%TD*%
D11*
%TO.P,J12,1,Pin_1*%
%TO.N,RESET*%
X76200000Y-54610000D03*
D12*
%TO.P,J12,2,Pin_2*%
%TO.N,PMOD_SPI_RESET*%
X76200000Y-52070000D03*
%TO.P,J12,3,Pin_3*%
%TO.N,RESET*%
X78740000Y-54610000D03*
%TO.P,J12,4,Pin_4*%
%TO.N,PMOD_I2C_RESET*%
X78740000Y-52070000D03*
%TO.P,J12,5,Pin_5*%
%TO.N,RESET*%
X81280000Y-54610000D03*
%TO.P,J12,6,Pin_6*%
%TO.N,PMOD_UART_RESET*%
X81280000Y-52070000D03*
%TD*%
D11*
%TO.P,J13,1,Pin_1*%
%TO.N,INT*%
X90185000Y-54615000D03*
D12*
%TO.P,J13,2,Pin_2*%
%TO.N,PMOD_SPI_INT*%
X90185000Y-52075000D03*
%TO.P,J13,3,Pin_3*%
%TO.N,INT*%
X92725000Y-54615000D03*
%TO.P,J13,4,Pin_4*%
%TO.N,PMOD_I2C_INT*%
X92725000Y-52075000D03*
%TO.P,J13,5,Pin_5*%
%TO.N,INT*%
X95265000Y-54615000D03*
%TO.P,J13,6,Pin_6*%
%TO.N,PMOD_UART_INT*%
X95265000Y-52075000D03*
%TD*%
D17*
%TO.N,PMOD_SPI_CS*%
X110490000Y-73660000D03*
%TO.N,PMOD_SPI_CS2*%
X107950000Y-80010000D03*
%TO.N,PMOD_SPI_CS3*%
X106680000Y-82550000D03*
%TO.N,PMOD_UART_INT*%
X99155489Y-84994511D03*
%TO.N,PMOD_I2C_INT*%
X97790000Y-106680000D03*
%TO.N,PMOD_SPI_INT*%
X87450989Y-74930000D03*
%TO.N,RESET*%
X101600000Y-49530000D03*
%TO.N,PMOD_SPI_MOSI*%
X105410000Y-76200000D03*
%TO.N,PMOD_SPI_SCK*%
X111760000Y-81280000D03*
%TO.N,PMOD_UART_TXD*%
X92710000Y-86360000D03*
%TO.N,PMOD_I2C_SCL*%
X90170000Y-111760000D03*
%TO.N,PMOD_SPI_MISO*%
X88175500Y-78740000D03*
%TO.N,PMOD_UART_RESET*%
X83915489Y-87725489D03*
%TO.N,PMOD_I2C_RESET*%
X82550000Y-109220000D03*
%TO.N,PMOD_SPI_RESET*%
X74930000Y-77470000D03*
%TO.N,PMOD_UART_RXD*%
X80010000Y-88900000D03*
%TO.N,PMOD_I2C_SDA*%
X77470000Y-114300000D03*
%TO.N,RESET*%
X101600000Y-57150000D03*
%TO.N,ADDR0_MOSI_MX*%
X104140000Y-69850000D03*
X91440000Y-69850000D03*
%TO.N,ADDR1_SCK_DTRQ*%
X88900000Y-68580000D03*
X113030000Y-68580000D03*
%TO.N,SDA_CS_RX*%
X86360000Y-62230000D03*
%TO.N,PMOD_SPI_INT*%
X115570000Y-62230000D03*
%TO.N,PMOD_SPI_CS3*%
X64770000Y-69850000D03*
%TO.N,RESET*%
X129540000Y-57150000D03*
%TO.N,PMOD_SPI_CS*%
X73660000Y-60960000D03*
%TO.N,PMOD_SPI_RESET*%
X69850000Y-64770000D03*
X118110000Y-64770000D03*
%TO.N,PMOD_SPI_SCK*%
X121920000Y-68580000D03*
%TO.N,PMOD_SPI_INT*%
X72390000Y-62230000D03*
%TO.N,PMOD_SPI_MISO*%
X68580000Y-66040000D03*
X119380000Y-66040000D03*
%TO.N,PMOD_SPI_CS*%
X114303912Y-60956088D03*
%TO.N,PMOD_SPI_SCK*%
X66040000Y-68580000D03*
%TO.N,PMOD_SPI_CS3*%
X123190000Y-69850000D03*
%TO.N,PMOD_SPI_MOSI*%
X116840000Y-63500000D03*
%TO.N,PMOD_SPI_CS2*%
X120650000Y-67310000D03*
X67310000Y-67310000D03*
%TO.N,PMOD_SPI_MOSI*%
X71120000Y-63500000D03*
%TO.N,PMOD_SPI_INT*%
X72390000Y-74930000D03*
X115570000Y-74930000D03*
%TO.N,PMOD_SPI_CS*%
X114300000Y-73660000D03*
X73660000Y-73660000D03*
%TO.N,PMOD_SPI_RESET*%
X118110000Y-77470000D03*
X69850000Y-77470000D03*
%TO.N,PMOD_SPI_MOSI*%
X116840000Y-76200000D03*
X71120000Y-76200000D03*
%TO.N,PMOD_SPI_CS2*%
X67310000Y-80010000D03*
X120650000Y-80010000D03*
%TO.N,PMOD_SPI_MISO*%
X119380000Y-78740000D03*
X68580000Y-78740000D03*
%TO.N,PMOD_SPI_CS3*%
X123190000Y-82550000D03*
X64770000Y-82550000D03*
%TO.N,PMOD_SPI_SCK*%
X66040000Y-81280000D03*
X121920000Y-81280000D03*
%TD*%
D18*
%TO.N,VCC*%
X116840000Y-50800000D02*
X116840000Y-55880000D01*
%TO.N,PMOD_SPI_CS*%
X110490000Y-53340000D02*
X110490000Y-73660000D01*
X111760000Y-52070000D02*
X110490000Y-53340000D01*
%TO.N,PMOD_SPI_CS2*%
X107950000Y-53340000D02*
X107950000Y-80010000D01*
X109220000Y-52070000D02*
X107950000Y-53340000D01*
%TO.N,PMOD_SPI_CS3*%
X106680000Y-56271010D02*
X106680000Y-82550000D01*
X105505489Y-55096499D02*
X106680000Y-56271010D01*
X105505489Y-53244511D02*
X105505489Y-55096499D01*
X106680000Y-52070000D02*
X105505489Y-53244511D01*
%TO.N,PMOD_UART_INT*%
X95265000Y-52075000D02*
X99155489Y-55965489D01*
X99155489Y-55965489D02*
X99155489Y-84994511D01*
%TO.N,PMOD_I2C_INT*%
X92725000Y-52075000D02*
X94090489Y-53440489D01*
X97790000Y-55478990D02*
X97790000Y-106680000D01*
X94090489Y-53440489D02*
X95751499Y-53440489D01*
X95751499Y-53440489D02*
X97790000Y-55478990D01*
%TO.N,PMOD_SPI_INT*%
X87450989Y-54809011D02*
X87450989Y-74930000D01*
X90185000Y-52075000D02*
X87450989Y-54809011D01*
%TO.N,RESET*%
X101600000Y-57150000D02*
X101600000Y-49530000D01*
%TO.N,PMOD_SPI_MOSI*%
X105410000Y-60960000D02*
X105410000Y-76200000D01*
X104140000Y-59690000D02*
X105410000Y-60960000D01*
%TO.N,PMOD_SPI_SCK*%
X111760000Y-60960000D02*
X111760000Y-81280000D01*
X113030000Y-59690000D02*
X111760000Y-60960000D01*
%TO.N,PMOD_UART_TXD*%
X95250000Y-59690000D02*
X93884511Y-61055489D01*
X93884511Y-61055489D02*
X93884511Y-62716499D01*
X93884511Y-62716499D02*
X92710000Y-63891010D01*
X92710000Y-63891010D02*
X92710000Y-86360000D01*
%TO.N,PMOD_I2C_SCL*%
X90170000Y-69850000D02*
X90170000Y-111760000D01*
X91344511Y-68675489D02*
X90170000Y-69850000D01*
X92710000Y-59690000D02*
X91344511Y-61055489D01*
X91344511Y-61055489D02*
X91344511Y-68675489D01*
%TO.N,PMOD_SPI_MISO*%
X88175489Y-78739989D02*
X88175500Y-78740000D01*
X88175489Y-61684511D02*
X88175489Y-78739989D01*
X90170000Y-59690000D02*
X88175489Y-61684511D01*
%TO.N,PMOD_UART_RESET*%
X81280000Y-52070000D02*
X83915489Y-54705489D01*
X83915489Y-54705489D02*
X83915489Y-87725489D01*
%TO.N,PMOD_I2C_RESET*%
X82550000Y-58420000D02*
X82550000Y-109220000D01*
X80105489Y-55975489D02*
X82550000Y-58420000D01*
X80105489Y-53435489D02*
X80105489Y-55975489D01*
X78740000Y-52070000D02*
X80105489Y-53435489D01*
%TO.N,PMOD_SPI_RESET*%
X74930000Y-53340000D02*
X74930000Y-77470000D01*
X76200000Y-52070000D02*
X74930000Y-53340000D01*
%TO.N,PMOD_UART_RXD*%
X81280000Y-59690000D02*
X80010000Y-60960000D01*
X80010000Y-60960000D02*
X80010000Y-88900000D01*
%TO.N,PMOD_I2C_SDA*%
X77565489Y-114204511D02*
X77470000Y-114300000D01*
X77565489Y-60864511D02*
X77565489Y-114204511D01*
X78740000Y-59690000D02*
X77565489Y-60864511D01*
%TO.N,RESET*%
X101600000Y-97790000D02*
X101600000Y-57150000D01*
%TO.N,INT*%
X96520000Y-97790000D02*
X96520000Y-55870000D01*
X96520000Y-55870000D02*
X95265000Y-54615000D01*
%TO.N,SCL_MISO_TX*%
X93980000Y-97790000D02*
X93980000Y-63500000D01*
X93980000Y-63500000D02*
X95250000Y-62230000D01*
%TO.N,ADDR0_MOSI_MX*%
X91440000Y-97790000D02*
X91440000Y-69850000D01*
X104140000Y-69850000D02*
X104140000Y-62230000D01*
%TO.N,ADDR1_SCK_DTRQ*%
X88900000Y-97790000D02*
X88900000Y-68580000D01*
%TO.N,SDA_CS_RX*%
X86360000Y-97790000D02*
X86360000Y-62230000D01*
%TO.N,PMOD_SPI_CS*%
X114303912Y-54613912D02*
X114303912Y-60956088D01*
X114303912Y-60956088D02*
X114300000Y-60960000D01*
%TO.N,RESET*%
X129540000Y-53340000D02*
X127000000Y-50800000D01*
X129540000Y-57150000D02*
X129540000Y-53340000D01*
%TO.N,ADDR1_SCK_DTRQ*%
X113030000Y-68580000D02*
X113030000Y-62230000D01*
%TO.N,PMOD_SPI_INT*%
X115570000Y-62230000D02*
X115570000Y-74930000D01*
X72390000Y-62230000D02*
X72390000Y-74930000D01*
%TO.N,PMOD_SPI_CS*%
X73660000Y-73660000D02*
X73660000Y-60960000D01*
X114300000Y-60960000D02*
X114300000Y-73660000D01*
%TO.N,PMOD_SPI_RESET*%
X69850000Y-64770000D02*
X69850000Y-77470000D01*
X118110000Y-77470000D02*
X118110000Y-64770000D01*
%TO.N,PMOD_SPI_MOSI*%
X71120000Y-76200000D02*
X71120000Y-63500000D01*
X116840000Y-63500000D02*
X116840000Y-76200000D01*
%TO.N,PMOD_SPI_CS2*%
X120650000Y-80010000D02*
X120650000Y-67310000D01*
X67310000Y-67310000D02*
X67310000Y-80010000D01*
%TO.N,PMOD_SPI_MISO*%
X119380000Y-66040000D02*
X119380000Y-78740000D01*
X68580000Y-78740000D02*
X68580000Y-66040000D01*
%TO.N,PMOD_SPI_CS3*%
X64770000Y-69850000D02*
X64770000Y-82550000D01*
X123190000Y-82550000D02*
X123190000Y-69850000D01*
%TO.N,PMOD_SPI_SCK*%
X66040000Y-81280000D02*
X66040000Y-68580000D01*
X121920000Y-68580000D02*
X121920000Y-81280000D01*
%TD*%
%TA.AperFunction,Conductor*%
%TO.N,GND*%
G36*
X136594121Y-43708002D02*
G01*
X136640614Y-43761658D01*
X136652000Y-43814000D01*
X136652000Y-136526000D01*
X136631998Y-136594121D01*
X136578342Y-136640614D01*
X136526000Y-136652000D01*
X57784000Y-136652000D01*
X57715879Y-136631998D01*
X57669386Y-136578342D01*
X57658000Y-136526000D01*
X57658000Y-132080000D01*
X58516411Y-132080000D01*
X58536754Y-132468176D01*
X58537267Y-132471416D01*
X58537268Y-132471424D01*
X58558260Y-132603961D01*
X58597562Y-132852099D01*
X58698167Y-133227562D01*
X58837468Y-133590453D01*
X58838966Y-133593393D01*
X59004521Y-133918312D01*
X59013938Y-133936794D01*
X59225643Y-134262793D01*
X59227718Y-134265355D01*
X59460481Y-134552792D01*
X59470266Y-134564876D01*
X59745124Y-134839734D01*
X60047207Y-135084357D01*
X60049970Y-135086152D01*
X60049971Y-135086152D01*
X60216479Y-135194283D01*
X60373205Y-135296062D01*
X60376139Y-135297557D01*
X60376146Y-135297561D01*
X60716607Y-135471034D01*
X60719547Y-135472532D01*
X61082438Y-135611833D01*
X61457901Y-135712438D01*
X61661793Y-135744732D01*
X61838576Y-135772732D01*
X61838584Y-135772733D01*
X61841824Y-135773246D01*
X62230000Y-135793589D01*
X62618176Y-135773246D01*
X62621416Y-135772733D01*
X62621424Y-135772732D01*
X62798207Y-135744732D01*
X63002099Y-135712438D01*
X63377562Y-135611833D01*
X63740453Y-135472532D01*
X63743393Y-135471034D01*
X64083854Y-135297561D01*
X64083861Y-135297557D01*
X64086795Y-135296062D01*
X64243522Y-135194283D01*
X64410029Y-135086152D01*
X64410030Y-135086152D01*
X64412793Y-135084357D01*
X64714876Y-134839734D01*
X64989734Y-134564876D01*
X64999520Y-134552792D01*
X65232282Y-134265355D01*
X65234357Y-134262793D01*
X65446062Y-133936794D01*
X65455480Y-133918312D01*
X65621034Y-133593393D01*
X65622532Y-133590453D01*
X65698605Y-133392277D01*
X78147009Y-133392277D01*
X78172625Y-133660769D01*
X78173710Y-133665203D01*
X78173711Y-133665209D01*
X78235645Y-133918312D01*
X78236731Y-133922750D01*
X78337985Y-134172733D01*
X78474265Y-134405482D01*
X78477118Y-134409049D01*
X78594686Y-134556060D01*
X78642716Y-134616119D01*
X78839809Y-134800234D01*
X79061416Y-134953968D01*
X79065499Y-134955999D01*
X79065502Y-134956001D01*
X79181013Y-135013466D01*
X79302894Y-135074101D01*
X79307228Y-135075522D01*
X79307231Y-135075523D01*
X79554853Y-135156698D01*
X79554859Y-135156699D01*
X79559186Y-135158118D01*
X79563677Y-135158898D01*
X79563678Y-135158898D01*
X79821140Y-135203601D01*
X79821148Y-135203602D01*
X79824921Y-135204257D01*
X79828758Y-135204448D01*
X79908578Y-135208422D01*
X79908586Y-135208422D01*
X79910149Y-135208500D01*
X80078512Y-135208500D01*
X80080780Y-135208335D01*
X80080792Y-135208335D01*
X80211884Y-135198823D01*
X80279004Y-135193953D01*
X80283459Y-135192969D01*
X80283462Y-135192969D01*
X80537912Y-135136791D01*
X80537916Y-135136790D01*
X80542372Y-135135806D01*
X80683646Y-135082282D01*
X80790318Y-135041868D01*
X80790321Y-135041867D01*
X80794588Y-135040250D01*
X81030368Y-134909286D01*
X81244773Y-134745657D01*
X81433312Y-134552792D01*
X81592034Y-134334730D01*
X81675190Y-134176676D01*
X81715490Y-134100079D01*
X81715493Y-134100073D01*
X81717615Y-134096039D01*
X81780378Y-133918312D01*
X81805902Y-133846033D01*
X81805902Y-133846032D01*
X81807425Y-133841720D01*
X81856370Y-133593393D01*
X81858700Y-133581572D01*
X81858701Y-133581566D01*
X81859581Y-133577100D01*
X81868782Y-133392277D01*
X111167009Y-133392277D01*
X111192625Y-133660769D01*
X111193710Y-133665203D01*
X111193711Y-133665209D01*
X111255645Y-133918312D01*
X111256731Y-133922750D01*
X111357985Y-134172733D01*
X111494265Y-134405482D01*
X111497118Y-134409049D01*
X111614686Y-134556060D01*
X111662716Y-134616119D01*
X111859809Y-134800234D01*
X112081416Y-134953968D01*
X112085499Y-134955999D01*
X112085502Y-134956001D01*
X112201013Y-135013466D01*
X112322894Y-135074101D01*
X112327228Y-135075522D01*
X112327231Y-135075523D01*
X112574853Y-135156698D01*
X112574859Y-135156699D01*
X112579186Y-135158118D01*
X112583677Y-135158898D01*
X112583678Y-135158898D01*
X112841140Y-135203601D01*
X112841148Y-135203602D01*
X112844921Y-135204257D01*
X112848758Y-135204448D01*
X112928578Y-135208422D01*
X112928586Y-135208422D01*
X112930149Y-135208500D01*
X113098512Y-135208500D01*
X113100780Y-135208335D01*
X113100792Y-135208335D01*
X113231884Y-135198823D01*
X113299004Y-135193953D01*
X113303459Y-135192969D01*
X113303462Y-135192969D01*
X113557912Y-135136791D01*
X113557916Y-135136790D01*
X113562372Y-135135806D01*
X113703646Y-135082282D01*
X113810318Y-135041868D01*
X113810321Y-135041867D01*
X113814588Y-135040250D01*
X114050368Y-134909286D01*
X114264773Y-134745657D01*
X114453312Y-134552792D01*
X114612034Y-134334730D01*
X114695190Y-134176676D01*
X114735490Y-134100079D01*
X114735493Y-134100073D01*
X114737615Y-134096039D01*
X114800378Y-133918312D01*
X114825902Y-133846033D01*
X114825902Y-133846032D01*
X114827425Y-133841720D01*
X114876370Y-133593393D01*
X114878700Y-133581572D01*
X114878701Y-133581566D01*
X114879581Y-133577100D01*
X114888782Y-133392277D01*
X114892764Y-133312292D01*
X114892764Y-133312286D01*
X114892991Y-133307723D01*
X114867375Y-133039231D01*
X114822042Y-132853967D01*
X114804355Y-132781688D01*
X114803269Y-132777250D01*
X114702015Y-132527267D01*
X114565735Y-132294518D01*
X114447928Y-132147208D01*
X114400136Y-132087447D01*
X114400135Y-132087445D01*
X114397284Y-132083881D01*
X114393129Y-132080000D01*
X128506411Y-132080000D01*
X128526754Y-132468176D01*
X128527267Y-132471416D01*
X128527268Y-132471424D01*
X128548260Y-132603961D01*
X128587562Y-132852099D01*
X128688167Y-133227562D01*
X128827468Y-133590453D01*
X128828966Y-133593393D01*
X128994521Y-133918312D01*
X129003938Y-133936794D01*
X129215643Y-134262793D01*
X129217718Y-134265355D01*
X129450481Y-134552792D01*
X129460266Y-134564876D01*
X129735124Y-134839734D01*
X130037207Y-135084357D01*
X130039970Y-135086152D01*
X130039971Y-135086152D01*
X130206479Y-135194283D01*
X130363205Y-135296062D01*
X130366139Y-135297557D01*
X130366146Y-135297561D01*
X130706607Y-135471034D01*
X130709547Y-135472532D01*
X131072438Y-135611833D01*
X131447901Y-135712438D01*
X131651793Y-135744732D01*
X131828576Y-135772732D01*
X131828584Y-135772733D01*
X131831824Y-135773246D01*
X132220000Y-135793589D01*
X132608176Y-135773246D01*
X132611416Y-135772733D01*
X132611424Y-135772732D01*
X132788207Y-135744732D01*
X132992099Y-135712438D01*
X133367562Y-135611833D01*
X133730453Y-135472532D01*
X133733393Y-135471034D01*
X134073854Y-135297561D01*
X134073861Y-135297557D01*
X134076795Y-135296062D01*
X134233522Y-135194283D01*
X134400029Y-135086152D01*
X134400030Y-135086152D01*
X134402793Y-135084357D01*
X134704876Y-134839734D01*
X134979734Y-134564876D01*
X134989520Y-134552792D01*
X135222282Y-134265355D01*
X135224357Y-134262793D01*
X135436062Y-133936794D01*
X135445480Y-133918312D01*
X135611034Y-133593393D01*
X135612532Y-133590453D01*
X135751833Y-133227562D01*
X135852438Y-132852099D01*
X135891740Y-132603961D01*
X135912732Y-132471424D01*
X135912733Y-132471416D01*
X135913246Y-132468176D01*
X135933589Y-132080000D01*
X135913246Y-131691824D01*
X135902805Y-131625899D01*
X135882293Y-131496399D01*
X135852438Y-131307901D01*
X135751833Y-130932438D01*
X135612532Y-130569547D01*
X135436062Y-130223206D01*
X135224357Y-129897207D01*
X134979734Y-129595124D01*
X134704876Y-129320266D01*
X134402793Y-129075643D01*
X134076795Y-128863938D01*
X134073861Y-128862443D01*
X134073854Y-128862439D01*
X133733393Y-128688966D01*
X133730453Y-128687468D01*
X133367562Y-128548167D01*
X132992099Y-128447562D01*
X132788207Y-128415268D01*
X132611424Y-128387268D01*
X132611416Y-128387267D01*
X132608176Y-128386754D01*
X132220000Y-128366411D01*
X131831824Y-128386754D01*
X131828584Y-128387267D01*
X131828576Y-128387268D01*
X131651793Y-128415268D01*
X131447901Y-128447562D01*
X131072438Y-128548167D01*
X130709547Y-128687468D01*
X130706607Y-128688966D01*
X130366147Y-128862439D01*
X130366140Y-128862443D01*
X130363206Y-128863938D01*
X130037207Y-129075643D01*
X129735124Y-129320266D01*
X129460266Y-129595124D01*
X129215643Y-129897207D01*
X129003938Y-130223206D01*
X128827468Y-130569547D01*
X128688167Y-130932438D01*
X128587562Y-131307901D01*
X128557707Y-131496399D01*
X128537196Y-131625899D01*
X128526754Y-131691824D01*
X128506411Y-132080000D01*
X114393129Y-132080000D01*
X114200191Y-131899766D01*
X113978584Y-131746032D01*
X113974501Y-131744001D01*
X113974498Y-131743999D01*
X113809606Y-131661967D01*
X113737106Y-131625899D01*
X113732772Y-131624478D01*
X113732769Y-131624477D01*
X113485147Y-131543302D01*
X113485141Y-131543301D01*
X113480814Y-131541882D01*
X113476322Y-131541102D01*
X113218860Y-131496399D01*
X113218852Y-131496398D01*
X113215079Y-131495743D01*
X113203817Y-131495182D01*
X113131422Y-131491578D01*
X113131414Y-131491578D01*
X113129851Y-131491500D01*
X112961488Y-131491500D01*
X112959220Y-131491665D01*
X112959208Y-131491665D01*
X112828116Y-131501177D01*
X112760996Y-131506047D01*
X112756541Y-131507031D01*
X112756538Y-131507031D01*
X112502088Y-131563209D01*
X112502084Y-131563210D01*
X112497628Y-131564194D01*
X112371520Y-131611972D01*
X112249682Y-131658132D01*
X112249679Y-131658133D01*
X112245412Y-131659750D01*
X112009632Y-131790714D01*
X111795227Y-131954343D01*
X111606688Y-132147208D01*
X111447966Y-132365270D01*
X111445844Y-132369304D01*
X111324510Y-132599921D01*
X111324507Y-132599927D01*
X111322385Y-132603961D01*
X111320865Y-132608266D01*
X111320863Y-132608270D01*
X111235909Y-132848838D01*
X111232575Y-132858280D01*
X111180419Y-133122900D01*
X111180192Y-133127453D01*
X111180192Y-133127456D01*
X111170991Y-133312292D01*
X111167009Y-133392277D01*
X81868782Y-133392277D01*
X81872764Y-133312292D01*
X81872764Y-133312286D01*
X81872991Y-133307723D01*
X81847375Y-133039231D01*
X81802042Y-132853967D01*
X81784355Y-132781688D01*
X81783269Y-132777250D01*
X81682015Y-132527267D01*
X81545735Y-132294518D01*
X81427928Y-132147208D01*
X81380136Y-132087447D01*
X81380135Y-132087445D01*
X81377284Y-132083881D01*
X81180191Y-131899766D01*
X80958584Y-131746032D01*
X80954501Y-131744001D01*
X80954498Y-131743999D01*
X80789606Y-131661967D01*
X80717106Y-131625899D01*
X80712772Y-131624478D01*
X80712769Y-131624477D01*
X80465147Y-131543302D01*
X80465141Y-131543301D01*
X80460814Y-131541882D01*
X80456322Y-131541102D01*
X80198860Y-131496399D01*
X80198852Y-131496398D01*
X80195079Y-131495743D01*
X80183817Y-131495182D01*
X80111422Y-131491578D01*
X80111414Y-131491578D01*
X80109851Y-131491500D01*
X79941488Y-131491500D01*
X79939220Y-131491665D01*
X79939208Y-131491665D01*
X79808116Y-131501177D01*
X79740996Y-131506047D01*
X79736541Y-131507031D01*
X79736538Y-131507031D01*
X79482088Y-131563209D01*
X79482084Y-131563210D01*
X79477628Y-131564194D01*
X79351520Y-131611972D01*
X79229682Y-131658132D01*
X79229679Y-131658133D01*
X79225412Y-131659750D01*
X78989632Y-131790714D01*
X78775227Y-131954343D01*
X78586688Y-132147208D01*
X78427966Y-132365270D01*
X78425844Y-132369304D01*
X78304510Y-132599921D01*
X78304507Y-132599927D01*
X78302385Y-132603961D01*
X78300865Y-132608266D01*
X78300863Y-132608270D01*
X78215909Y-132848838D01*
X78212575Y-132858280D01*
X78160419Y-133122900D01*
X78160192Y-133127453D01*
X78160192Y-133127456D01*
X78150991Y-133312292D01*
X78147009Y-133392277D01*
X65698605Y-133392277D01*
X65761833Y-133227562D01*
X65862438Y-132852099D01*
X65901740Y-132603961D01*
X65922732Y-132471424D01*
X65922733Y-132471416D01*
X65923246Y-132468176D01*
X65943589Y-132080000D01*
X65923246Y-131691824D01*
X65912805Y-131625899D01*
X65892293Y-131496399D01*
X65862438Y-131307901D01*
X65761833Y-130932438D01*
X65622532Y-130569547D01*
X65446062Y-130223206D01*
X65234357Y-129897207D01*
X64989734Y-129595124D01*
X64714876Y-129320266D01*
X64412793Y-129075643D01*
X64086795Y-128863938D01*
X64083861Y-128862443D01*
X64083854Y-128862439D01*
X63743393Y-128688966D01*
X63740453Y-128687468D01*
X63377562Y-128548167D01*
X63002099Y-128447562D01*
X62798207Y-128415268D01*
X62621424Y-128387268D01*
X62621416Y-128387267D01*
X62618176Y-128386754D01*
X62230000Y-128366411D01*
X61841824Y-128386754D01*
X61838584Y-128387267D01*
X61838576Y-128387268D01*
X61661793Y-128415268D01*
X61457901Y-128447562D01*
X61082438Y-128548167D01*
X60719547Y-128687468D01*
X60716607Y-128688966D01*
X60376147Y-128862439D01*
X60376140Y-128862443D01*
X60373206Y-128863938D01*
X60047207Y-129075643D01*
X59745124Y-129320266D01*
X59470266Y-129595124D01*
X59225643Y-129897207D01*
X59013938Y-130223206D01*
X58837468Y-130569547D01*
X58698167Y-130932438D01*
X58597562Y-131307901D01*
X58567707Y-131496399D01*
X58547196Y-131625899D01*
X58536754Y-131691824D01*
X58516411Y-132080000D01*
X57658000Y-132080000D01*
X57658000Y-119346695D01*
X59597251Y-119346695D01*
X59597548Y-119351848D01*
X59597548Y-119351851D01*
X59603011Y-119446590D01*
X59610110Y-119569715D01*
X59611247Y-119574761D01*
X59611248Y-119574767D01*
X59631119Y-119662939D01*
X59659222Y-119787639D01*
X59743266Y-119994616D01*
X59859987Y-120185088D01*
X60006250Y-120353938D01*
X60178126Y-120496632D01*
X60371000Y-120609338D01*
X60579692Y-120689030D01*
X60584760Y-120690061D01*
X60584763Y-120690062D01*
X60692017Y-120711883D01*
X60798597Y-120733567D01*
X60803772Y-120733757D01*
X60803774Y-120733757D01*
X61016673Y-120741564D01*
X61016677Y-120741564D01*
X61021837Y-120741753D01*
X61026957Y-120741097D01*
X61026959Y-120741097D01*
X61238288Y-120714025D01*
X61238289Y-120714025D01*
X61243416Y-120713368D01*
X61248366Y-120711883D01*
X61452429Y-120650661D01*
X61452434Y-120650659D01*
X61457384Y-120649174D01*
X61657994Y-120550896D01*
X61839860Y-120421173D01*
X61948091Y-120313319D01*
X62010462Y-120279404D01*
X62081268Y-120284592D01*
X62138030Y-120327238D01*
X62155012Y-120358341D01*
X62177201Y-120417529D01*
X62199385Y-120476705D01*
X62286739Y-120593261D01*
X62403295Y-120680615D01*
X62539684Y-120731745D01*
X62601866Y-120738500D01*
X64398134Y-120738500D01*
X64460316Y-120731745D01*
X64596705Y-120680615D01*
X64713261Y-120593261D01*
X64800615Y-120476705D01*
X64851745Y-120340316D01*
X64858500Y-120278134D01*
X123101500Y-120278134D01*
X123108255Y-120340316D01*
X123159385Y-120476705D01*
X123246739Y-120593261D01*
X123363295Y-120680615D01*
X123499684Y-120731745D01*
X123561866Y-120738500D01*
X125358134Y-120738500D01*
X125420316Y-120731745D01*
X125556705Y-120680615D01*
X125673261Y-120593261D01*
X125760615Y-120476705D01*
X125782799Y-120417529D01*
X125804598Y-120359382D01*
X125847240Y-120302618D01*
X125913802Y-120277918D01*
X125983150Y-120293126D01*
X126017817Y-120321114D01*
X126046250Y-120353938D01*
X126218126Y-120496632D01*
X126411000Y-120609338D01*
X126619692Y-120689030D01*
X126624760Y-120690061D01*
X126624763Y-120690062D01*
X126732017Y-120711883D01*
X126838597Y-120733567D01*
X126843772Y-120733757D01*
X126843774Y-120733757D01*
X127056673Y-120741564D01*
X127056677Y-120741564D01*
X127061837Y-120741753D01*
X127066957Y-120741097D01*
X127066959Y-120741097D01*
X127278288Y-120714025D01*
X127278289Y-120714025D01*
X127283416Y-120713368D01*
X127288366Y-120711883D01*
X127492429Y-120650661D01*
X127492434Y-120650659D01*
X127497384Y-120649174D01*
X127697994Y-120550896D01*
X127879860Y-120421173D01*
X128038096Y-120263489D01*
X128097594Y-120180689D01*
X128165435Y-120086277D01*
X128168453Y-120082077D01*
X128267430Y-119881811D01*
X128332370Y-119668069D01*
X128361529Y-119446590D01*
X128363156Y-119380000D01*
X128344852Y-119157361D01*
X128290431Y-118940702D01*
X128201354Y-118735840D01*
X128080014Y-118548277D01*
X127929670Y-118383051D01*
X127925619Y-118379852D01*
X127925615Y-118379848D01*
X127758414Y-118247800D01*
X127758410Y-118247798D01*
X127754359Y-118244598D01*
X127712569Y-118221529D01*
X127662598Y-118171097D01*
X127647826Y-118101654D01*
X127672942Y-118035248D01*
X127700294Y-118008641D01*
X127875328Y-117883792D01*
X127883200Y-117877139D01*
X128034052Y-117726812D01*
X128040730Y-117718965D01*
X128165003Y-117546020D01*
X128170313Y-117537183D01*
X128264670Y-117346267D01*
X128268469Y-117336672D01*
X128330377Y-117132910D01*
X128332555Y-117122837D01*
X128333986Y-117111962D01*
X128331775Y-117097778D01*
X128318617Y-117094000D01*
X123143225Y-117094000D01*
X123129694Y-117097973D01*
X123128257Y-117107966D01*
X123158565Y-117242446D01*
X123161645Y-117252275D01*
X123241770Y-117449603D01*
X123246413Y-117458794D01*
X123357694Y-117640388D01*
X123363777Y-117648699D01*
X123503213Y-117809667D01*
X123510577Y-117816879D01*
X123515522Y-117820985D01*
X123555156Y-117879889D01*
X123556653Y-117950870D01*
X123519537Y-118011392D01*
X123479264Y-118035910D01*
X123371705Y-118076232D01*
X123371704Y-118076233D01*
X123363295Y-118079385D01*
X123246739Y-118166739D01*
X123159385Y-118283295D01*
X123108255Y-118419684D01*
X123101500Y-118481866D01*
X123101500Y-120278134D01*
X64858500Y-120278134D01*
X64858500Y-118481866D01*
X64851745Y-118419684D01*
X64800615Y-118283295D01*
X64713261Y-118166739D01*
X64596705Y-118079385D01*
X64477687Y-118034767D01*
X64420923Y-117992125D01*
X64396223Y-117925564D01*
X64411430Y-117856215D01*
X64432977Y-117827535D01*
X64534052Y-117726812D01*
X64540730Y-117718965D01*
X64665003Y-117546020D01*
X64670313Y-117537183D01*
X64764670Y-117346267D01*
X64768469Y-117336672D01*
X64830377Y-117132910D01*
X64832555Y-117122837D01*
X64833986Y-117111962D01*
X64831775Y-117097778D01*
X64818617Y-117094000D01*
X59643225Y-117094000D01*
X59629694Y-117097973D01*
X59628257Y-117107966D01*
X59658565Y-117242446D01*
X59661645Y-117252275D01*
X59741770Y-117449603D01*
X59746413Y-117458794D01*
X59857694Y-117640388D01*
X59863777Y-117648699D01*
X60003213Y-117809667D01*
X60010580Y-117816883D01*
X60174434Y-117952916D01*
X60182881Y-117958831D01*
X60251969Y-117999203D01*
X60300693Y-118050842D01*
X60313764Y-118120625D01*
X60287033Y-118186396D01*
X60246584Y-118219752D01*
X60233607Y-118226507D01*
X60229474Y-118229610D01*
X60229471Y-118229612D01*
X60059100Y-118357530D01*
X60054965Y-118360635D01*
X60015525Y-118401907D01*
X59943729Y-118477037D01*
X59900629Y-118522138D01*
X59774743Y-118706680D01*
X59680688Y-118909305D01*
X59620989Y-119124570D01*
X59597251Y-119346695D01*
X57658000Y-119346695D01*
X57658000Y-114266695D01*
X59597251Y-114266695D01*
X59597548Y-114271848D01*
X59597548Y-114271851D01*
X59603011Y-114366590D01*
X59610110Y-114489715D01*
X59611247Y-114494761D01*
X59611248Y-114494767D01*
X59631119Y-114582939D01*
X59659222Y-114707639D01*
X59743266Y-114914616D01*
X59782638Y-114978866D01*
X59857291Y-115100688D01*
X59859987Y-115105088D01*
X60006250Y-115273938D01*
X60178126Y-115416632D01*
X60251955Y-115459774D01*
X60300679Y-115511412D01*
X60313750Y-115581195D01*
X60287019Y-115646967D01*
X60246562Y-115680327D01*
X60238457Y-115684546D01*
X60229738Y-115690036D01*
X60059433Y-115817905D01*
X60051726Y-115824748D01*
X59904590Y-115978717D01*
X59898104Y-115986727D01*
X59778098Y-116162649D01*
X59773000Y-116171623D01*
X59683338Y-116364783D01*
X59679775Y-116374470D01*
X59624389Y-116574183D01*
X59625912Y-116582607D01*
X59638292Y-116586000D01*
X64818344Y-116586000D01*
X64831875Y-116582027D01*
X64833180Y-116572947D01*
X64791214Y-116405875D01*
X64787894Y-116396124D01*
X64702972Y-116200814D01*
X64698105Y-116191739D01*
X64582426Y-116012926D01*
X64576136Y-116004757D01*
X64432806Y-115847240D01*
X64425273Y-115840215D01*
X64258139Y-115708222D01*
X64249556Y-115702520D01*
X64212602Y-115682120D01*
X64162631Y-115631687D01*
X64147859Y-115562245D01*
X64172975Y-115495839D01*
X64200327Y-115469232D01*
X64223797Y-115452491D01*
X64379860Y-115341173D01*
X64538096Y-115183489D01*
X64547670Y-115170166D01*
X64665435Y-115006277D01*
X64668453Y-115002077D01*
X64678006Y-114982749D01*
X64765136Y-114806453D01*
X64765137Y-114806451D01*
X64767430Y-114801811D01*
X64832370Y-114588069D01*
X64861529Y-114366590D01*
X64863156Y-114300000D01*
X64844852Y-114077361D01*
X64790431Y-113860702D01*
X64701354Y-113655840D01*
X64580014Y-113468277D01*
X64429670Y-113303051D01*
X64425619Y-113299852D01*
X64425615Y-113299848D01*
X64258414Y-113167800D01*
X64258410Y-113167798D01*
X64254359Y-113164598D01*
X64213053Y-113141796D01*
X64163084Y-113091364D01*
X64148312Y-113021921D01*
X64173428Y-112955516D01*
X64200780Y-112928909D01*
X64244603Y-112897650D01*
X64379860Y-112801173D01*
X64538096Y-112643489D01*
X64547670Y-112630166D01*
X64665435Y-112466277D01*
X64668453Y-112462077D01*
X64678006Y-112442749D01*
X64765136Y-112266453D01*
X64765137Y-112266451D01*
X64767430Y-112261811D01*
X64832370Y-112048069D01*
X64861529Y-111826590D01*
X64863156Y-111760000D01*
X64844852Y-111537361D01*
X64790431Y-111320702D01*
X64701354Y-111115840D01*
X64580014Y-110928277D01*
X64429670Y-110763051D01*
X64425619Y-110759852D01*
X64425615Y-110759848D01*
X64258414Y-110627800D01*
X64258410Y-110627798D01*
X64254359Y-110624598D01*
X64213053Y-110601796D01*
X64163084Y-110551364D01*
X64148312Y-110481921D01*
X64173428Y-110415516D01*
X64200780Y-110388909D01*
X64244603Y-110357650D01*
X64379860Y-110261173D01*
X64538096Y-110103489D01*
X64547670Y-110090166D01*
X64665435Y-109926277D01*
X64668453Y-109922077D01*
X64678006Y-109902749D01*
X64765136Y-109726453D01*
X64765137Y-109726451D01*
X64767430Y-109721811D01*
X64832370Y-109508069D01*
X64861529Y-109286590D01*
X64863156Y-109220000D01*
X64844852Y-108997361D01*
X64790431Y-108780702D01*
X64701354Y-108575840D01*
X64580014Y-108388277D01*
X64429670Y-108223051D01*
X64425619Y-108219852D01*
X64425615Y-108219848D01*
X64258414Y-108087800D01*
X64258410Y-108087798D01*
X64254359Y-108084598D01*
X64213053Y-108061796D01*
X64163084Y-108011364D01*
X64148312Y-107941921D01*
X64173428Y-107875516D01*
X64200780Y-107848909D01*
X64244603Y-107817650D01*
X64379860Y-107721173D01*
X64538096Y-107563489D01*
X64547670Y-107550166D01*
X64665435Y-107386277D01*
X64668453Y-107382077D01*
X64678006Y-107362749D01*
X64765136Y-107186453D01*
X64765137Y-107186451D01*
X64767430Y-107181811D01*
X64832370Y-106968069D01*
X64861529Y-106746590D01*
X64863156Y-106680000D01*
X64844852Y-106457361D01*
X64790431Y-106240702D01*
X64701354Y-106035840D01*
X64580014Y-105848277D01*
X64429670Y-105683051D01*
X64425619Y-105679852D01*
X64425615Y-105679848D01*
X64258414Y-105547800D01*
X64258410Y-105547798D01*
X64254359Y-105544598D01*
X64058789Y-105436638D01*
X64053920Y-105434914D01*
X64053916Y-105434912D01*
X63853087Y-105363795D01*
X63853083Y-105363794D01*
X63848212Y-105362069D01*
X63843119Y-105361162D01*
X63843116Y-105361161D01*
X63633373Y-105323800D01*
X63633367Y-105323799D01*
X63628284Y-105322894D01*
X63554452Y-105321992D01*
X63410081Y-105320228D01*
X63410079Y-105320228D01*
X63404911Y-105320165D01*
X63184091Y-105353955D01*
X62971756Y-105423357D01*
X62773607Y-105526507D01*
X62769474Y-105529610D01*
X62769471Y-105529612D01*
X62745247Y-105547800D01*
X62594965Y-105660635D01*
X62440629Y-105822138D01*
X62333201Y-105979621D01*
X62278293Y-106024621D01*
X62207768Y-106032792D01*
X62144021Y-106001538D01*
X62123324Y-105977054D01*
X62042822Y-105852617D01*
X62042820Y-105852614D01*
X62040014Y-105848277D01*
X61889670Y-105683051D01*
X61885619Y-105679852D01*
X61885615Y-105679848D01*
X61718414Y-105547800D01*
X61718410Y-105547798D01*
X61714359Y-105544598D01*
X61518789Y-105436638D01*
X61513920Y-105434914D01*
X61513916Y-105434912D01*
X61313087Y-105363795D01*
X61313083Y-105363794D01*
X61308212Y-105362069D01*
X61303119Y-105361162D01*
X61303116Y-105361161D01*
X61093373Y-105323800D01*
X61093367Y-105323799D01*
X61088284Y-105322894D01*
X61014452Y-105321992D01*
X60870081Y-105320228D01*
X60870079Y-105320228D01*
X60864911Y-105320165D01*
X60644091Y-105353955D01*
X60431756Y-105423357D01*
X60233607Y-105526507D01*
X60229474Y-105529610D01*
X60229471Y-105529612D01*
X60205247Y-105547800D01*
X60054965Y-105660635D01*
X59900629Y-105822138D01*
X59774743Y-106006680D01*
X59749163Y-106061787D01*
X59713716Y-106138153D01*
X59680688Y-106209305D01*
X59620989Y-106424570D01*
X59597251Y-106646695D01*
X59597548Y-106651848D01*
X59597548Y-106651851D01*
X59603011Y-106746590D01*
X59610110Y-106869715D01*
X59611247Y-106874761D01*
X59611248Y-106874767D01*
X59631119Y-106962939D01*
X59659222Y-107087639D01*
X59743266Y-107294616D01*
X59782638Y-107358866D01*
X59857291Y-107480688D01*
X59859987Y-107485088D01*
X60006250Y-107653938D01*
X60178126Y-107796632D01*
X60248595Y-107837811D01*
X60251445Y-107839476D01*
X60300169Y-107891114D01*
X60313240Y-107960897D01*
X60286509Y-108026669D01*
X60246055Y-108060027D01*
X60233607Y-108066507D01*
X60229474Y-108069610D01*
X60229471Y-108069612D01*
X60205247Y-108087800D01*
X60054965Y-108200635D01*
X59900629Y-108362138D01*
X59774743Y-108546680D01*
X59749163Y-108601787D01*
X59713716Y-108678153D01*
X59680688Y-108749305D01*
X59620989Y-108964570D01*
X59597251Y-109186695D01*
X59597548Y-109191848D01*
X59597548Y-109191851D01*
X59603011Y-109286590D01*
X59610110Y-109409715D01*
X59611247Y-109414761D01*
X59611248Y-109414767D01*
X59631119Y-109502939D01*
X59659222Y-109627639D01*
X59743266Y-109834616D01*
X59782638Y-109898866D01*
X59857291Y-110020688D01*
X59859987Y-110025088D01*
X60006250Y-110193938D01*
X60178126Y-110336632D01*
X60248595Y-110377811D01*
X60251445Y-110379476D01*
X60300169Y-110431114D01*
X60313240Y-110500897D01*
X60286509Y-110566669D01*
X60246055Y-110600027D01*
X60233607Y-110606507D01*
X60229474Y-110609610D01*
X60229471Y-110609612D01*
X60205247Y-110627800D01*
X60054965Y-110740635D01*
X59900629Y-110902138D01*
X59774743Y-111086680D01*
X59749163Y-111141787D01*
X59713716Y-111218153D01*
X59680688Y-111289305D01*
X59620989Y-111504570D01*
X59597251Y-111726695D01*
X59597548Y-111731848D01*
X59597548Y-111731851D01*
X59603011Y-111826590D01*
X59610110Y-111949715D01*
X59611247Y-111954761D01*
X59611248Y-111954767D01*
X59631119Y-112042939D01*
X59659222Y-112167639D01*
X59743266Y-112374616D01*
X59782638Y-112438866D01*
X59857291Y-112560688D01*
X59859987Y-112565088D01*
X60006250Y-112733938D01*
X60178126Y-112876632D01*
X60248595Y-112917811D01*
X60251445Y-112919476D01*
X60300169Y-112971114D01*
X60313240Y-113040897D01*
X60286509Y-113106669D01*
X60246055Y-113140027D01*
X60233607Y-113146507D01*
X60229474Y-113149610D01*
X60229471Y-113149612D01*
X60205247Y-113167800D01*
X60054965Y-113280635D01*
X59900629Y-113442138D01*
X59774743Y-113626680D01*
X59680688Y-113829305D01*
X59620989Y-114044570D01*
X59597251Y-114266695D01*
X57658000Y-114266695D01*
X57658000Y-96486695D01*
X59597251Y-96486695D01*
X59597548Y-96491848D01*
X59597548Y-96491851D01*
X59608921Y-96689102D01*
X59610110Y-96709715D01*
X59611247Y-96714761D01*
X59611248Y-96714767D01*
X59631119Y-96802939D01*
X59659222Y-96927639D01*
X59743266Y-97134616D01*
X59778500Y-97192113D01*
X59853909Y-97315169D01*
X59859987Y-97325088D01*
X60006250Y-97493938D01*
X60178126Y-97636632D01*
X60371000Y-97749338D01*
X60579692Y-97829030D01*
X60584760Y-97830061D01*
X60584763Y-97830062D01*
X60688596Y-97851187D01*
X60798597Y-97873567D01*
X60803772Y-97873757D01*
X60803774Y-97873757D01*
X61016673Y-97881564D01*
X61016677Y-97881564D01*
X61021837Y-97881753D01*
X61026957Y-97881097D01*
X61026959Y-97881097D01*
X61238288Y-97854025D01*
X61238289Y-97854025D01*
X61243416Y-97853368D01*
X61250686Y-97851187D01*
X61452429Y-97790661D01*
X61452434Y-97790659D01*
X61457384Y-97789174D01*
X61657994Y-97690896D01*
X61839860Y-97561173D01*
X61948091Y-97453319D01*
X62010462Y-97419404D01*
X62081268Y-97424592D01*
X62138030Y-97467238D01*
X62155012Y-97498341D01*
X62177201Y-97557529D01*
X62199385Y-97616705D01*
X62286739Y-97733261D01*
X62403295Y-97820615D01*
X62539684Y-97871745D01*
X62601866Y-97878500D01*
X64398134Y-97878500D01*
X64460316Y-97871745D01*
X64596705Y-97820615D01*
X64713261Y-97733261D01*
X64800615Y-97616705D01*
X64851745Y-97480316D01*
X64858500Y-97418134D01*
X64858500Y-95621866D01*
X64851745Y-95559684D01*
X64800615Y-95423295D01*
X64713261Y-95306739D01*
X64596705Y-95219385D01*
X64477687Y-95174767D01*
X64420923Y-95132125D01*
X64396223Y-95065564D01*
X64411430Y-94996215D01*
X64432977Y-94967535D01*
X64534052Y-94866812D01*
X64540730Y-94858965D01*
X64665003Y-94686020D01*
X64670313Y-94677183D01*
X64764670Y-94486267D01*
X64768469Y-94476672D01*
X64830377Y-94272910D01*
X64832555Y-94262837D01*
X64833986Y-94251962D01*
X64831775Y-94237778D01*
X64818617Y-94234000D01*
X59643225Y-94234000D01*
X59629694Y-94237973D01*
X59628257Y-94247966D01*
X59658565Y-94382446D01*
X59661645Y-94392275D01*
X59741770Y-94589603D01*
X59746413Y-94598794D01*
X59857694Y-94780388D01*
X59863777Y-94788699D01*
X60003213Y-94949667D01*
X60010580Y-94956883D01*
X60174434Y-95092916D01*
X60182881Y-95098831D01*
X60251969Y-95139203D01*
X60300693Y-95190842D01*
X60313764Y-95260625D01*
X60287033Y-95326396D01*
X60246584Y-95359752D01*
X60233607Y-95366507D01*
X60229474Y-95369610D01*
X60229471Y-95369612D01*
X60059100Y-95497530D01*
X60054965Y-95500635D01*
X60015525Y-95541907D01*
X59943729Y-95617037D01*
X59900629Y-95662138D01*
X59774743Y-95846680D01*
X59680688Y-96049305D01*
X59620989Y-96264570D01*
X59597251Y-96486695D01*
X57658000Y-96486695D01*
X57658000Y-91406695D01*
X59597251Y-91406695D01*
X59597548Y-91411848D01*
X59597548Y-91411851D01*
X59603011Y-91506590D01*
X59610110Y-91629715D01*
X59611247Y-91634761D01*
X59611248Y-91634767D01*
X59631119Y-91722939D01*
X59659222Y-91847639D01*
X59743266Y-92054616D01*
X59794019Y-92137438D01*
X59857291Y-92240688D01*
X59859987Y-92245088D01*
X60006250Y-92413938D01*
X60178126Y-92556632D01*
X60251955Y-92599774D01*
X60300679Y-92651412D01*
X60313750Y-92721195D01*
X60287019Y-92786967D01*
X60246562Y-92820327D01*
X60238457Y-92824546D01*
X60229738Y-92830036D01*
X60059433Y-92957905D01*
X60051726Y-92964748D01*
X59904590Y-93118717D01*
X59898104Y-93126727D01*
X59778098Y-93302649D01*
X59773000Y-93311623D01*
X59683338Y-93504783D01*
X59679775Y-93514470D01*
X59624389Y-93714183D01*
X59625912Y-93722607D01*
X59638292Y-93726000D01*
X64818344Y-93726000D01*
X64831875Y-93722027D01*
X64833180Y-93712947D01*
X64791214Y-93545875D01*
X64787894Y-93536124D01*
X64702972Y-93340814D01*
X64698105Y-93331739D01*
X64582426Y-93152926D01*
X64576136Y-93144757D01*
X64432806Y-92987240D01*
X64425273Y-92980215D01*
X64258139Y-92848222D01*
X64249556Y-92842520D01*
X64212602Y-92822120D01*
X64162631Y-92771687D01*
X64147859Y-92702245D01*
X64172975Y-92635839D01*
X64200327Y-92609232D01*
X64223797Y-92592491D01*
X64379860Y-92481173D01*
X64538096Y-92323489D01*
X64597594Y-92240689D01*
X64665435Y-92146277D01*
X64668453Y-92142077D01*
X64689320Y-92099857D01*
X64765136Y-91946453D01*
X64765137Y-91946451D01*
X64767430Y-91941811D01*
X64832370Y-91728069D01*
X64861529Y-91506590D01*
X64863156Y-91440000D01*
X64844852Y-91217361D01*
X64790431Y-91000702D01*
X64701354Y-90795840D01*
X64580014Y-90608277D01*
X64429670Y-90443051D01*
X64425619Y-90439852D01*
X64425615Y-90439848D01*
X64258414Y-90307800D01*
X64258410Y-90307798D01*
X64254359Y-90304598D01*
X64213053Y-90281796D01*
X64163084Y-90231364D01*
X64148312Y-90161921D01*
X64173428Y-90095516D01*
X64200780Y-90068909D01*
X64244603Y-90037650D01*
X64379860Y-89941173D01*
X64538096Y-89783489D01*
X64547670Y-89770166D01*
X64665435Y-89606277D01*
X64668453Y-89602077D01*
X64678006Y-89582749D01*
X64765136Y-89406453D01*
X64765137Y-89406451D01*
X64767430Y-89401811D01*
X64832370Y-89188069D01*
X64861529Y-88966590D01*
X64863156Y-88900000D01*
X64844852Y-88677361D01*
X64790431Y-88460702D01*
X64701354Y-88255840D01*
X64580014Y-88068277D01*
X64429670Y-87903051D01*
X64425619Y-87899852D01*
X64425615Y-87899848D01*
X64258414Y-87767800D01*
X64258410Y-87767798D01*
X64254359Y-87764598D01*
X64213053Y-87741796D01*
X64163084Y-87691364D01*
X64148312Y-87621921D01*
X64173428Y-87555516D01*
X64200780Y-87528909D01*
X64244603Y-87497650D01*
X64379860Y-87401173D01*
X64538096Y-87243489D01*
X64547670Y-87230166D01*
X64665435Y-87066277D01*
X64668453Y-87062077D01*
X64689320Y-87019857D01*
X64765136Y-86866453D01*
X64765137Y-86866451D01*
X64767430Y-86861811D01*
X64832370Y-86648069D01*
X64861529Y-86426590D01*
X64863156Y-86360000D01*
X64844852Y-86137361D01*
X64790431Y-85920702D01*
X64701354Y-85715840D01*
X64580014Y-85528277D01*
X64429670Y-85363051D01*
X64425619Y-85359852D01*
X64425615Y-85359848D01*
X64258414Y-85227800D01*
X64258410Y-85227798D01*
X64254359Y-85224598D01*
X64213053Y-85201796D01*
X64163084Y-85151364D01*
X64148312Y-85081921D01*
X64173428Y-85015516D01*
X64200780Y-84988909D01*
X64244603Y-84957650D01*
X64379860Y-84861173D01*
X64538096Y-84703489D01*
X64597594Y-84620689D01*
X64665435Y-84526277D01*
X64668453Y-84522077D01*
X64689320Y-84479857D01*
X64765136Y-84326453D01*
X64765137Y-84326451D01*
X64767430Y-84321811D01*
X64832370Y-84108069D01*
X64861529Y-83886590D01*
X64863156Y-83820000D01*
X64844852Y-83597361D01*
X64843593Y-83592348D01*
X64842748Y-83587243D01*
X64845006Y-83586869D01*
X64847435Y-83525521D01*
X64888151Y-83467360D01*
X64940635Y-83442527D01*
X65045831Y-83420167D01*
X65045836Y-83420166D01*
X65052288Y-83418794D01*
X65126574Y-83385720D01*
X65220722Y-83343803D01*
X65220724Y-83343802D01*
X65226752Y-83341118D01*
X65240120Y-83331406D01*
X65282157Y-83300864D01*
X65381253Y-83228866D01*
X65432913Y-83171492D01*
X65504621Y-83091852D01*
X65504622Y-83091851D01*
X65509040Y-83086944D01*
X65581097Y-82962138D01*
X65601223Y-82927279D01*
X65601224Y-82927278D01*
X65604527Y-82921556D01*
X65663542Y-82739928D01*
X65670933Y-82669612D01*
X65682814Y-82556565D01*
X65683504Y-82550000D01*
X65664911Y-82373100D01*
X65664232Y-82366635D01*
X65664232Y-82366633D01*
X65663542Y-82360072D01*
X65650254Y-82319176D01*
X65648226Y-82248209D01*
X65684889Y-82187411D01*
X65748601Y-82156085D01*
X65796284Y-82156993D01*
X65938056Y-82187128D01*
X65938061Y-82187128D01*
X65944513Y-82188500D01*
X66135487Y-82188500D01*
X66141939Y-82187128D01*
X66141944Y-82187128D01*
X66228888Y-82168647D01*
X66322288Y-82148794D01*
X66328319Y-82146109D01*
X66490722Y-82073803D01*
X66490724Y-82073802D01*
X66496752Y-82071118D01*
X66651253Y-81958866D01*
X66779040Y-81816944D01*
X66874527Y-81651556D01*
X66933542Y-81469928D01*
X66953504Y-81280000D01*
X66933542Y-81090072D01*
X66920254Y-81049176D01*
X66918226Y-80978209D01*
X66954889Y-80917411D01*
X67018601Y-80886085D01*
X67066284Y-80886993D01*
X67208056Y-80917128D01*
X67208061Y-80917128D01*
X67214513Y-80918500D01*
X67405487Y-80918500D01*
X67411939Y-80917128D01*
X67411944Y-80917128D01*
X67498888Y-80898647D01*
X67592288Y-80878794D01*
X67598319Y-80876109D01*
X67760722Y-80803803D01*
X67760724Y-80803802D01*
X67766752Y-80801118D01*
X67781967Y-80790064D01*
X67846667Y-80743056D01*
X67921253Y-80688866D01*
X68049040Y-80546944D01*
X68144527Y-80381556D01*
X68203542Y-80199928D01*
X68223504Y-80010000D01*
X68203542Y-79820072D01*
X68190254Y-79779176D01*
X68188226Y-79708209D01*
X68224889Y-79647411D01*
X68288601Y-79616085D01*
X68336284Y-79616993D01*
X68478056Y-79647128D01*
X68478061Y-79647128D01*
X68484513Y-79648500D01*
X68675487Y-79648500D01*
X68681939Y-79647128D01*
X68681944Y-79647128D01*
X68768887Y-79628647D01*
X68862288Y-79608794D01*
X68868319Y-79606109D01*
X69030722Y-79533803D01*
X69030724Y-79533802D01*
X69036752Y-79531118D01*
X69191253Y-79418866D01*
X69319040Y-79276944D01*
X69414527Y-79111556D01*
X69473542Y-78929928D01*
X69493504Y-78740000D01*
X69473542Y-78550072D01*
X69460254Y-78509176D01*
X69458226Y-78438209D01*
X69494889Y-78377411D01*
X69558601Y-78346085D01*
X69606284Y-78346993D01*
X69748056Y-78377128D01*
X69748061Y-78377128D01*
X69754513Y-78378500D01*
X69945487Y-78378500D01*
X69951939Y-78377128D01*
X69951944Y-78377128D01*
X70038888Y-78358647D01*
X70132288Y-78338794D01*
X70138319Y-78336109D01*
X70300722Y-78263803D01*
X70300724Y-78263802D01*
X70306752Y-78261118D01*
X70461253Y-78148866D01*
X70589040Y-78006944D01*
X70684527Y-77841556D01*
X70743542Y-77659928D01*
X70763504Y-77470000D01*
X70743542Y-77280072D01*
X70730254Y-77239176D01*
X70728226Y-77168209D01*
X70764889Y-77107411D01*
X70828601Y-77076085D01*
X70876284Y-77076993D01*
X71018056Y-77107128D01*
X71018061Y-77107128D01*
X71024513Y-77108500D01*
X71215487Y-77108500D01*
X71221939Y-77107128D01*
X71221944Y-77107128D01*
X71308887Y-77088647D01*
X71402288Y-77068794D01*
X71408319Y-77066109D01*
X71570722Y-76993803D01*
X71570724Y-76993802D01*
X71576752Y-76991118D01*
X71731253Y-76878866D01*
X71859040Y-76736944D01*
X71954527Y-76571556D01*
X72013542Y-76389928D01*
X72033504Y-76200000D01*
X72013542Y-76010072D01*
X72000254Y-75969176D01*
X71998226Y-75898209D01*
X72034889Y-75837411D01*
X72098601Y-75806085D01*
X72146284Y-75806993D01*
X72288056Y-75837128D01*
X72288061Y-75837128D01*
X72294513Y-75838500D01*
X72485487Y-75838500D01*
X72491939Y-75837128D01*
X72491944Y-75837128D01*
X72578888Y-75818647D01*
X72672288Y-75798794D01*
X72681407Y-75794734D01*
X72840722Y-75723803D01*
X72840724Y-75723802D01*
X72846752Y-75721118D01*
X73001253Y-75608866D01*
X73129040Y-75466944D01*
X73224527Y-75301556D01*
X73283542Y-75119928D01*
X73293861Y-75021753D01*
X73302814Y-74936565D01*
X73303504Y-74930000D01*
X73287037Y-74773327D01*
X73284232Y-74746635D01*
X73284232Y-74746633D01*
X73283542Y-74740072D01*
X73270254Y-74699176D01*
X73268226Y-74628209D01*
X73304889Y-74567411D01*
X73368601Y-74536085D01*
X73416284Y-74536993D01*
X73558056Y-74567128D01*
X73558061Y-74567128D01*
X73564513Y-74568500D01*
X73755487Y-74568500D01*
X73761939Y-74567128D01*
X73761944Y-74567128D01*
X73855991Y-74547137D01*
X73942288Y-74528794D01*
X73966656Y-74517945D01*
X74116752Y-74451118D01*
X74117677Y-74453196D01*
X74176488Y-74438924D01*
X74243581Y-74462141D01*
X74287472Y-74517945D01*
X74296500Y-74564782D01*
X74296500Y-76767476D01*
X74276498Y-76835597D01*
X74264142Y-76851779D01*
X74190960Y-76933056D01*
X74095473Y-77098444D01*
X74036458Y-77280072D01*
X74016496Y-77470000D01*
X74036458Y-77659928D01*
X74095473Y-77841556D01*
X74190960Y-78006944D01*
X74318747Y-78148866D01*
X74473248Y-78261118D01*
X74479276Y-78263802D01*
X74479278Y-78263803D01*
X74641681Y-78336109D01*
X74647712Y-78338794D01*
X74741112Y-78358647D01*
X74828056Y-78377128D01*
X74828061Y-78377128D01*
X74834513Y-78378500D01*
X75025487Y-78378500D01*
X75031939Y-78377128D01*
X75031944Y-78377128D01*
X75118888Y-78358647D01*
X75212288Y-78338794D01*
X75218319Y-78336109D01*
X75380722Y-78263803D01*
X75380724Y-78263802D01*
X75386752Y-78261118D01*
X75541253Y-78148866D01*
X75669040Y-78006944D01*
X75764527Y-77841556D01*
X75823542Y-77659928D01*
X75843504Y-77470000D01*
X75823542Y-77280072D01*
X75764527Y-77098444D01*
X75669040Y-76933056D01*
X75595863Y-76851785D01*
X75565147Y-76787779D01*
X75563500Y-76767476D01*
X75563500Y-63714500D01*
X75583502Y-63646379D01*
X75637158Y-63599886D01*
X75689500Y-63588500D01*
X76805989Y-63588500D01*
X76874110Y-63608502D01*
X76920603Y-63662158D01*
X76931989Y-63714500D01*
X76931989Y-113503720D01*
X76911987Y-113571841D01*
X76880051Y-113605655D01*
X76864094Y-113617249D01*
X76858747Y-113621134D01*
X76854326Y-113626044D01*
X76854325Y-113626045D01*
X76777034Y-113711886D01*
X76730960Y-113763056D01*
X76635473Y-113928444D01*
X76576458Y-114110072D01*
X76556496Y-114300000D01*
X76557186Y-114306565D01*
X76563844Y-114369908D01*
X76576458Y-114489928D01*
X76635473Y-114671556D01*
X76638776Y-114677278D01*
X76638777Y-114677279D01*
X76659069Y-114712425D01*
X76730960Y-114836944D01*
X76735378Y-114841851D01*
X76735379Y-114841852D01*
X76841631Y-114959857D01*
X76858747Y-114978866D01*
X77013248Y-115091118D01*
X77019276Y-115093802D01*
X77019278Y-115093803D01*
X77044625Y-115105088D01*
X77187712Y-115168794D01*
X77274009Y-115187137D01*
X77368056Y-115207128D01*
X77368061Y-115207128D01*
X77374513Y-115208500D01*
X77565487Y-115208500D01*
X77571939Y-115207128D01*
X77571944Y-115207128D01*
X77665991Y-115187137D01*
X77752288Y-115168794D01*
X77895375Y-115105088D01*
X77920722Y-115093803D01*
X77920724Y-115093802D01*
X77926752Y-115091118D01*
X78081253Y-114978866D01*
X78098369Y-114959857D01*
X78204621Y-114841852D01*
X78204622Y-114841851D01*
X78209040Y-114836944D01*
X78280931Y-114712425D01*
X78301223Y-114677279D01*
X78301224Y-114677278D01*
X78304527Y-114671556D01*
X78363542Y-114489928D01*
X78376157Y-114369908D01*
X78382814Y-114306565D01*
X78383504Y-114300000D01*
X78380004Y-114266695D01*
X123097251Y-114266695D01*
X123097548Y-114271848D01*
X123097548Y-114271851D01*
X123103011Y-114366590D01*
X123110110Y-114489715D01*
X123111247Y-114494761D01*
X123111248Y-114494767D01*
X123131119Y-114582939D01*
X123159222Y-114707639D01*
X123243266Y-114914616D01*
X123282638Y-114978866D01*
X123357291Y-115100688D01*
X123359987Y-115105088D01*
X123506250Y-115273938D01*
X123678126Y-115416632D01*
X123751955Y-115459774D01*
X123800679Y-115511412D01*
X123813750Y-115581195D01*
X123787019Y-115646967D01*
X123746562Y-115680327D01*
X123738457Y-115684546D01*
X123729738Y-115690036D01*
X123559433Y-115817905D01*
X123551726Y-115824748D01*
X123404590Y-115978717D01*
X123398104Y-115986727D01*
X123278098Y-116162649D01*
X123273000Y-116171623D01*
X123183338Y-116364783D01*
X123179775Y-116374470D01*
X123124389Y-116574183D01*
X123125912Y-116582607D01*
X123138292Y-116586000D01*
X128318344Y-116586000D01*
X128331875Y-116582027D01*
X128333180Y-116572947D01*
X128291214Y-116405875D01*
X128287894Y-116396124D01*
X128202972Y-116200814D01*
X128198105Y-116191739D01*
X128082426Y-116012926D01*
X128076136Y-116004757D01*
X127932806Y-115847240D01*
X127925273Y-115840215D01*
X127758139Y-115708222D01*
X127749556Y-115702520D01*
X127712602Y-115682120D01*
X127662631Y-115631687D01*
X127647859Y-115562245D01*
X127672975Y-115495839D01*
X127700327Y-115469232D01*
X127723797Y-115452491D01*
X127879860Y-115341173D01*
X128038096Y-115183489D01*
X128047670Y-115170166D01*
X128165435Y-115006277D01*
X128168453Y-115002077D01*
X128178006Y-114982749D01*
X128265136Y-114806453D01*
X128265137Y-114806451D01*
X128267430Y-114801811D01*
X128332370Y-114588069D01*
X128361529Y-114366590D01*
X128363156Y-114300000D01*
X128344852Y-114077361D01*
X128290431Y-113860702D01*
X128201354Y-113655840D01*
X128080014Y-113468277D01*
X127929670Y-113303051D01*
X127925619Y-113299852D01*
X127925615Y-113299848D01*
X127758414Y-113167800D01*
X127758410Y-113167798D01*
X127754359Y-113164598D01*
X127713053Y-113141796D01*
X127663084Y-113091364D01*
X127648312Y-113021921D01*
X127673428Y-112955516D01*
X127700780Y-112928909D01*
X127744603Y-112897650D01*
X127879860Y-112801173D01*
X128038096Y-112643489D01*
X128047670Y-112630166D01*
X128165435Y-112466277D01*
X128168453Y-112462077D01*
X128178006Y-112442749D01*
X128265136Y-112266453D01*
X128265137Y-112266451D01*
X128267430Y-112261811D01*
X128332370Y-112048069D01*
X128361529Y-111826590D01*
X128363156Y-111760000D01*
X128344852Y-111537361D01*
X128290431Y-111320702D01*
X128201354Y-111115840D01*
X128080014Y-110928277D01*
X127929670Y-110763051D01*
X127925619Y-110759852D01*
X127925615Y-110759848D01*
X127758414Y-110627800D01*
X127758410Y-110627798D01*
X127754359Y-110624598D01*
X127713053Y-110601796D01*
X127663084Y-110551364D01*
X127648312Y-110481921D01*
X127673428Y-110415516D01*
X127700780Y-110388909D01*
X127744603Y-110357650D01*
X127879860Y-110261173D01*
X128038096Y-110103489D01*
X128047670Y-110090166D01*
X128165435Y-109926277D01*
X128168453Y-109922077D01*
X128178006Y-109902749D01*
X128265136Y-109726453D01*
X128265137Y-109726451D01*
X128267430Y-109721811D01*
X128332370Y-109508069D01*
X128361529Y-109286590D01*
X128363156Y-109220000D01*
X128344852Y-108997361D01*
X128290431Y-108780702D01*
X128201354Y-108575840D01*
X128080014Y-108388277D01*
X127929670Y-108223051D01*
X127925619Y-108219852D01*
X127925615Y-108219848D01*
X127758414Y-108087800D01*
X127758410Y-108087798D01*
X127754359Y-108084598D01*
X127713053Y-108061796D01*
X127663084Y-108011364D01*
X127648312Y-107941921D01*
X127673428Y-107875516D01*
X127700780Y-107848909D01*
X127744603Y-107817650D01*
X127879860Y-107721173D01*
X128038096Y-107563489D01*
X128047670Y-107550166D01*
X128165435Y-107386277D01*
X128168453Y-107382077D01*
X128178006Y-107362749D01*
X128265136Y-107186453D01*
X128265137Y-107186451D01*
X128267430Y-107181811D01*
X128332370Y-106968069D01*
X128361529Y-106746590D01*
X128363156Y-106680000D01*
X128344852Y-106457361D01*
X128290431Y-106240702D01*
X128201354Y-106035840D01*
X128080014Y-105848277D01*
X127929670Y-105683051D01*
X127925619Y-105679852D01*
X127925615Y-105679848D01*
X127758414Y-105547800D01*
X127758410Y-105547798D01*
X127754359Y-105544598D01*
X127558789Y-105436638D01*
X127553920Y-105434914D01*
X127553916Y-105434912D01*
X127353087Y-105363795D01*
X127353083Y-105363794D01*
X127348212Y-105362069D01*
X127343119Y-105361162D01*
X127343116Y-105361161D01*
X127133373Y-105323800D01*
X127133367Y-105323799D01*
X127128284Y-105322894D01*
X127054452Y-105321992D01*
X126910081Y-105320228D01*
X126910079Y-105320228D01*
X126904911Y-105320165D01*
X126684091Y-105353955D01*
X126471756Y-105423357D01*
X126273607Y-105526507D01*
X126269474Y-105529610D01*
X126269471Y-105529612D01*
X126245247Y-105547800D01*
X126094965Y-105660635D01*
X125940629Y-105822138D01*
X125833201Y-105979621D01*
X125778293Y-106024621D01*
X125707768Y-106032792D01*
X125644021Y-106001538D01*
X125623324Y-105977054D01*
X125542822Y-105852617D01*
X125542820Y-105852614D01*
X125540014Y-105848277D01*
X125389670Y-105683051D01*
X125385619Y-105679852D01*
X125385615Y-105679848D01*
X125218414Y-105547800D01*
X125218410Y-105547798D01*
X125214359Y-105544598D01*
X125018789Y-105436638D01*
X125013920Y-105434914D01*
X125013916Y-105434912D01*
X124813087Y-105363795D01*
X124813083Y-105363794D01*
X124808212Y-105362069D01*
X124803119Y-105361162D01*
X124803116Y-105361161D01*
X124593373Y-105323800D01*
X124593367Y-105323799D01*
X124588284Y-105322894D01*
X124514452Y-105321992D01*
X124370081Y-105320228D01*
X124370079Y-105320228D01*
X124364911Y-105320165D01*
X124144091Y-105353955D01*
X123931756Y-105423357D01*
X123733607Y-105526507D01*
X123729474Y-105529610D01*
X123729471Y-105529612D01*
X123705247Y-105547800D01*
X123554965Y-105660635D01*
X123400629Y-105822138D01*
X123274743Y-106006680D01*
X123249163Y-106061787D01*
X123213716Y-106138153D01*
X123180688Y-106209305D01*
X123120989Y-106424570D01*
X123097251Y-106646695D01*
X123097548Y-106651848D01*
X123097548Y-106651851D01*
X123103011Y-106746590D01*
X123110110Y-106869715D01*
X123111247Y-106874761D01*
X123111248Y-106874767D01*
X123131119Y-106962939D01*
X123159222Y-107087639D01*
X123243266Y-107294616D01*
X123282638Y-107358866D01*
X123357291Y-107480688D01*
X123359987Y-107485088D01*
X123506250Y-107653938D01*
X123678126Y-107796632D01*
X123748595Y-107837811D01*
X123751445Y-107839476D01*
X123800169Y-107891114D01*
X123813240Y-107960897D01*
X123786509Y-108026669D01*
X123746055Y-108060027D01*
X123733607Y-108066507D01*
X123729474Y-108069610D01*
X123729471Y-108069612D01*
X123705247Y-108087800D01*
X123554965Y-108200635D01*
X123400629Y-108362138D01*
X123274743Y-108546680D01*
X123249163Y-108601787D01*
X123213716Y-108678153D01*
X123180688Y-108749305D01*
X123120989Y-108964570D01*
X123097251Y-109186695D01*
X123097548Y-109191848D01*
X123097548Y-109191851D01*
X123103011Y-109286590D01*
X123110110Y-109409715D01*
X123111247Y-109414761D01*
X123111248Y-109414767D01*
X123131119Y-109502939D01*
X123159222Y-109627639D01*
X123243266Y-109834616D01*
X123282638Y-109898866D01*
X123357291Y-110020688D01*
X123359987Y-110025088D01*
X123506250Y-110193938D01*
X123678126Y-110336632D01*
X123748595Y-110377811D01*
X123751445Y-110379476D01*
X123800169Y-110431114D01*
X123813240Y-110500897D01*
X123786509Y-110566669D01*
X123746055Y-110600027D01*
X123733607Y-110606507D01*
X123729474Y-110609610D01*
X123729471Y-110609612D01*
X123705247Y-110627800D01*
X123554965Y-110740635D01*
X123400629Y-110902138D01*
X123274743Y-111086680D01*
X123249163Y-111141787D01*
X123213716Y-111218153D01*
X123180688Y-111289305D01*
X123120989Y-111504570D01*
X123097251Y-111726695D01*
X123097548Y-111731848D01*
X123097548Y-111731851D01*
X123103011Y-111826590D01*
X123110110Y-111949715D01*
X123111247Y-111954761D01*
X123111248Y-111954767D01*
X123131119Y-112042939D01*
X123159222Y-112167639D01*
X123243266Y-112374616D01*
X123282638Y-112438866D01*
X123357291Y-112560688D01*
X123359987Y-112565088D01*
X123506250Y-112733938D01*
X123678126Y-112876632D01*
X123748595Y-112917811D01*
X123751445Y-112919476D01*
X123800169Y-112971114D01*
X123813240Y-113040897D01*
X123786509Y-113106669D01*
X123746055Y-113140027D01*
X123733607Y-113146507D01*
X123729474Y-113149610D01*
X123729471Y-113149612D01*
X123705247Y-113167800D01*
X123554965Y-113280635D01*
X123400629Y-113442138D01*
X123274743Y-113626680D01*
X123180688Y-113829305D01*
X123120989Y-114044570D01*
X123097251Y-114266695D01*
X78380004Y-114266695D01*
X78363542Y-114110072D01*
X78304527Y-113928444D01*
X78215870Y-113774886D01*
X78198989Y-113711886D01*
X78198989Y-101379903D01*
X78218991Y-101311782D01*
X78272647Y-101265289D01*
X78342921Y-101255185D01*
X78407501Y-101284679D01*
X78433721Y-101316238D01*
X78474265Y-101385482D01*
X78477118Y-101389049D01*
X78594686Y-101536060D01*
X78642716Y-101596119D01*
X78839809Y-101780234D01*
X79061416Y-101933968D01*
X79065499Y-101935999D01*
X79065502Y-101936001D01*
X79181013Y-101993466D01*
X79302894Y-102054101D01*
X79307228Y-102055522D01*
X79307231Y-102055523D01*
X79554853Y-102136698D01*
X79554859Y-102136699D01*
X79559186Y-102138118D01*
X79563677Y-102138898D01*
X79563678Y-102138898D01*
X79821140Y-102183601D01*
X79821148Y-102183602D01*
X79824921Y-102184257D01*
X79828758Y-102184448D01*
X79908578Y-102188422D01*
X79908586Y-102188422D01*
X79910149Y-102188500D01*
X80078512Y-102188500D01*
X80080780Y-102188335D01*
X80080792Y-102188335D01*
X80211884Y-102178823D01*
X80279004Y-102173953D01*
X80283459Y-102172969D01*
X80283462Y-102172969D01*
X80537912Y-102116791D01*
X80537916Y-102116790D01*
X80542372Y-102115806D01*
X80668480Y-102068028D01*
X80790318Y-102021868D01*
X80790321Y-102021867D01*
X80794588Y-102020250D01*
X81030368Y-101889286D01*
X81244773Y-101725657D01*
X81433312Y-101532792D01*
X81592034Y-101314730D01*
X81678991Y-101149451D01*
X81728411Y-101098478D01*
X81797543Y-101082315D01*
X81864439Y-101106094D01*
X81907860Y-101162264D01*
X81916500Y-101208118D01*
X81916500Y-108517476D01*
X81896498Y-108585597D01*
X81884142Y-108601779D01*
X81810960Y-108683056D01*
X81715473Y-108848444D01*
X81656458Y-109030072D01*
X81636496Y-109220000D01*
X81637186Y-109226565D01*
X81643844Y-109289908D01*
X81656458Y-109409928D01*
X81715473Y-109591556D01*
X81718776Y-109597278D01*
X81718777Y-109597279D01*
X81739069Y-109632425D01*
X81810960Y-109756944D01*
X81815378Y-109761851D01*
X81815379Y-109761852D01*
X81921631Y-109879857D01*
X81938747Y-109898866D01*
X82093248Y-110011118D01*
X82099276Y-110013802D01*
X82099278Y-110013803D01*
X82124625Y-110025088D01*
X82267712Y-110088794D01*
X82354009Y-110107137D01*
X82448056Y-110127128D01*
X82448061Y-110127128D01*
X82454513Y-110128500D01*
X82645487Y-110128500D01*
X82651939Y-110127128D01*
X82651944Y-110127128D01*
X82745991Y-110107137D01*
X82832288Y-110088794D01*
X82975375Y-110025088D01*
X83000722Y-110013803D01*
X83000724Y-110013802D01*
X83006752Y-110011118D01*
X83161253Y-109898866D01*
X83178369Y-109879857D01*
X83284621Y-109761852D01*
X83284622Y-109761851D01*
X83289040Y-109756944D01*
X83360931Y-109632425D01*
X83381223Y-109597279D01*
X83381224Y-109597278D01*
X83384527Y-109591556D01*
X83443542Y-109409928D01*
X83456157Y-109289908D01*
X83462814Y-109226565D01*
X83463504Y-109220000D01*
X83443542Y-109030072D01*
X83384527Y-108848444D01*
X83289040Y-108683056D01*
X83215863Y-108601785D01*
X83185147Y-108537779D01*
X83183500Y-108517476D01*
X83183500Y-97790000D01*
X85084647Y-97790000D01*
X85104022Y-98011463D01*
X85161560Y-98226196D01*
X85163882Y-98231177D01*
X85163883Y-98231178D01*
X85253186Y-98422689D01*
X85253189Y-98422694D01*
X85255512Y-98427676D01*
X85258668Y-98432183D01*
X85258669Y-98432185D01*
X85338232Y-98545812D01*
X85383023Y-98609781D01*
X85540219Y-98766977D01*
X85544727Y-98770134D01*
X85544730Y-98770136D01*
X85620495Y-98823187D01*
X85722323Y-98894488D01*
X85727305Y-98896811D01*
X85727310Y-98896814D01*
X85902751Y-98978623D01*
X85923804Y-98988440D01*
X85929112Y-98989862D01*
X85929114Y-98989863D01*
X85955526Y-98996940D01*
X86138537Y-99045978D01*
X86360000Y-99065353D01*
X86581463Y-99045978D01*
X86764474Y-98996940D01*
X86790886Y-98989863D01*
X86790888Y-98989862D01*
X86796196Y-98988440D01*
X86817249Y-98978623D01*
X86992690Y-98896814D01*
X86992695Y-98896811D01*
X86997677Y-98894488D01*
X87099505Y-98823187D01*
X87175270Y-98770136D01*
X87175273Y-98770134D01*
X87179781Y-98766977D01*
X87336977Y-98609781D01*
X87381769Y-98545812D01*
X87461331Y-98432185D01*
X87461332Y-98432183D01*
X87464488Y-98427676D01*
X87466811Y-98422694D01*
X87466814Y-98422689D01*
X87515805Y-98317627D01*
X87562723Y-98264342D01*
X87631000Y-98244881D01*
X87698960Y-98265423D01*
X87744195Y-98317627D01*
X87793186Y-98422689D01*
X87793189Y-98422694D01*
X87795512Y-98427676D01*
X87798668Y-98432183D01*
X87798669Y-98432185D01*
X87878232Y-98545812D01*
X87923023Y-98609781D01*
X88080219Y-98766977D01*
X88084727Y-98770134D01*
X88084730Y-98770136D01*
X88160495Y-98823187D01*
X88262323Y-98894488D01*
X88267305Y-98896811D01*
X88267310Y-98896814D01*
X88442751Y-98978623D01*
X88463804Y-98988440D01*
X88469112Y-98989862D01*
X88469114Y-98989863D01*
X88495526Y-98996940D01*
X88678537Y-99045978D01*
X88900000Y-99065353D01*
X89121463Y-99045978D01*
X89304474Y-98996940D01*
X89330886Y-98989863D01*
X89330888Y-98989862D01*
X89336196Y-98988440D01*
X89341178Y-98986117D01*
X89341183Y-98986115D01*
X89357249Y-98978623D01*
X89427440Y-98967961D01*
X89492253Y-98996940D01*
X89531110Y-99056359D01*
X89536500Y-99092817D01*
X89536500Y-111057476D01*
X89516498Y-111125597D01*
X89504142Y-111141779D01*
X89430960Y-111223056D01*
X89335473Y-111388444D01*
X89276458Y-111570072D01*
X89256496Y-111760000D01*
X89257186Y-111766565D01*
X89263844Y-111829908D01*
X89276458Y-111949928D01*
X89335473Y-112131556D01*
X89338776Y-112137278D01*
X89338777Y-112137279D01*
X89359069Y-112172425D01*
X89430960Y-112296944D01*
X89435378Y-112301851D01*
X89435379Y-112301852D01*
X89541631Y-112419857D01*
X89558747Y-112438866D01*
X89713248Y-112551118D01*
X89719276Y-112553802D01*
X89719278Y-112553803D01*
X89744625Y-112565088D01*
X89887712Y-112628794D01*
X89974009Y-112647137D01*
X90068056Y-112667128D01*
X90068061Y-112667128D01*
X90074513Y-112668500D01*
X90265487Y-112668500D01*
X90271939Y-112667128D01*
X90271944Y-112667128D01*
X90365991Y-112647137D01*
X90452288Y-112628794D01*
X90595375Y-112565088D01*
X90620722Y-112553803D01*
X90620724Y-112553802D01*
X90626752Y-112551118D01*
X90781253Y-112438866D01*
X90798369Y-112419857D01*
X90904621Y-112301852D01*
X90904622Y-112301851D01*
X90909040Y-112296944D01*
X90980931Y-112172425D01*
X91001223Y-112137279D01*
X91001224Y-112137278D01*
X91004527Y-112131556D01*
X91063542Y-111949928D01*
X91076157Y-111829908D01*
X91082814Y-111766565D01*
X91083504Y-111760000D01*
X91063542Y-111570072D01*
X91004527Y-111388444D01*
X90909040Y-111223056D01*
X90835863Y-111141785D01*
X90805147Y-111077779D01*
X90803500Y-111057476D01*
X90803500Y-99092817D01*
X90823502Y-99024696D01*
X90877158Y-98978203D01*
X90947432Y-98968099D01*
X90982751Y-98978623D01*
X90998817Y-98986115D01*
X90998822Y-98986117D01*
X91003804Y-98988440D01*
X91009112Y-98989862D01*
X91009114Y-98989863D01*
X91035526Y-98996940D01*
X91218537Y-99045978D01*
X91440000Y-99065353D01*
X91661463Y-99045978D01*
X91844474Y-98996940D01*
X91870886Y-98989863D01*
X91870888Y-98989862D01*
X91876196Y-98988440D01*
X91897249Y-98978623D01*
X92072690Y-98896814D01*
X92072695Y-98896811D01*
X92077677Y-98894488D01*
X92179505Y-98823187D01*
X92255270Y-98770136D01*
X92255273Y-98770134D01*
X92259781Y-98766977D01*
X92416977Y-98609781D01*
X92461769Y-98545812D01*
X92541331Y-98432185D01*
X92541332Y-98432183D01*
X92544488Y-98427676D01*
X92546811Y-98422694D01*
X92546814Y-98422689D01*
X92595805Y-98317627D01*
X92642723Y-98264342D01*
X92711000Y-98244881D01*
X92778960Y-98265423D01*
X92824195Y-98317627D01*
X92873186Y-98422689D01*
X92873189Y-98422694D01*
X92875512Y-98427676D01*
X92878668Y-98432183D01*
X92878669Y-98432185D01*
X92958232Y-98545812D01*
X93003023Y-98609781D01*
X93160219Y-98766977D01*
X93164727Y-98770134D01*
X93164730Y-98770136D01*
X93240495Y-98823187D01*
X93342323Y-98894488D01*
X93347305Y-98896811D01*
X93347310Y-98896814D01*
X93522751Y-98978623D01*
X93543804Y-98988440D01*
X93549112Y-98989862D01*
X93549114Y-98989863D01*
X93575526Y-98996940D01*
X93758537Y-99045978D01*
X93980000Y-99065353D01*
X94201463Y-99045978D01*
X94384474Y-98996940D01*
X94410886Y-98989863D01*
X94410888Y-98989862D01*
X94416196Y-98988440D01*
X94437249Y-98978623D01*
X94612690Y-98896814D01*
X94612695Y-98896811D01*
X94617677Y-98894488D01*
X94719505Y-98823187D01*
X94795270Y-98770136D01*
X94795273Y-98770134D01*
X94799781Y-98766977D01*
X94956977Y-98609781D01*
X95001769Y-98545812D01*
X95081331Y-98432185D01*
X95081332Y-98432183D01*
X95084488Y-98427676D01*
X95086811Y-98422694D01*
X95086814Y-98422689D01*
X95135805Y-98317627D01*
X95182723Y-98264342D01*
X95251000Y-98244881D01*
X95318960Y-98265423D01*
X95364195Y-98317627D01*
X95413186Y-98422689D01*
X95413189Y-98422694D01*
X95415512Y-98427676D01*
X95418668Y-98432183D01*
X95418669Y-98432185D01*
X95498232Y-98545812D01*
X95543023Y-98609781D01*
X95700219Y-98766977D01*
X95704727Y-98770134D01*
X95704730Y-98770136D01*
X95780495Y-98823187D01*
X95882323Y-98894488D01*
X95887305Y-98896811D01*
X95887310Y-98896814D01*
X96062751Y-98978623D01*
X96083804Y-98988440D01*
X96089112Y-98989862D01*
X96089114Y-98989863D01*
X96115526Y-98996940D01*
X96298537Y-99045978D01*
X96520000Y-99065353D01*
X96741463Y-99045978D01*
X96924474Y-98996940D01*
X96950886Y-98989863D01*
X96950888Y-98989862D01*
X96956196Y-98988440D01*
X96961178Y-98986117D01*
X96961183Y-98986115D01*
X96977249Y-98978623D01*
X97047440Y-98967961D01*
X97112253Y-98996940D01*
X97151110Y-99056359D01*
X97156500Y-99092817D01*
X97156500Y-105977476D01*
X97136498Y-106045597D01*
X97124142Y-106061779D01*
X97050960Y-106143056D01*
X96955473Y-106308444D01*
X96896458Y-106490072D01*
X96876496Y-106680000D01*
X96877186Y-106686565D01*
X96883844Y-106749908D01*
X96896458Y-106869928D01*
X96955473Y-107051556D01*
X96958776Y-107057278D01*
X96958777Y-107057279D01*
X96979069Y-107092425D01*
X97050960Y-107216944D01*
X97055378Y-107221851D01*
X97055379Y-107221852D01*
X97161631Y-107339857D01*
X97178747Y-107358866D01*
X97333248Y-107471118D01*
X97339276Y-107473802D01*
X97339278Y-107473803D01*
X97364625Y-107485088D01*
X97507712Y-107548794D01*
X97594009Y-107567137D01*
X97688056Y-107587128D01*
X97688061Y-107587128D01*
X97694513Y-107588500D01*
X97885487Y-107588500D01*
X97891939Y-107587128D01*
X97891944Y-107587128D01*
X97985991Y-107567137D01*
X98072288Y-107548794D01*
X98215375Y-107485088D01*
X98240722Y-107473803D01*
X98240724Y-107473802D01*
X98246752Y-107471118D01*
X98401253Y-107358866D01*
X98418369Y-107339857D01*
X98524621Y-107221852D01*
X98524622Y-107221851D01*
X98529040Y-107216944D01*
X98600931Y-107092425D01*
X98621223Y-107057279D01*
X98621224Y-107057278D01*
X98624527Y-107051556D01*
X98683542Y-106869928D01*
X98696157Y-106749908D01*
X98702814Y-106686565D01*
X98703504Y-106680000D01*
X98683542Y-106490072D01*
X98624527Y-106308444D01*
X98529040Y-106143056D01*
X98455863Y-106061785D01*
X98425147Y-105997779D01*
X98423500Y-105977476D01*
X98423500Y-100372277D01*
X111167009Y-100372277D01*
X111192625Y-100640769D01*
X111193710Y-100645203D01*
X111193711Y-100645209D01*
X111255645Y-100898312D01*
X111256731Y-100902750D01*
X111357985Y-101152733D01*
X111494265Y-101385482D01*
X111497118Y-101389049D01*
X111614686Y-101536060D01*
X111662716Y-101596119D01*
X111859809Y-101780234D01*
X112081416Y-101933968D01*
X112085499Y-101935999D01*
X112085502Y-101936001D01*
X112201013Y-101993466D01*
X112322894Y-102054101D01*
X112327228Y-102055522D01*
X112327231Y-102055523D01*
X112574853Y-102136698D01*
X112574859Y-102136699D01*
X112579186Y-102138118D01*
X112583677Y-102138898D01*
X112583678Y-102138898D01*
X112841140Y-102183601D01*
X112841148Y-102183602D01*
X112844921Y-102184257D01*
X112848758Y-102184448D01*
X112928578Y-102188422D01*
X112928586Y-102188422D01*
X112930149Y-102188500D01*
X113098512Y-102188500D01*
X113100780Y-102188335D01*
X113100792Y-102188335D01*
X113231884Y-102178823D01*
X113299004Y-102173953D01*
X113303459Y-102172969D01*
X113303462Y-102172969D01*
X113557912Y-102116791D01*
X113557916Y-102116790D01*
X113562372Y-102115806D01*
X113688480Y-102068028D01*
X113810318Y-102021868D01*
X113810321Y-102021867D01*
X113814588Y-102020250D01*
X114050368Y-101889286D01*
X114264773Y-101725657D01*
X114453312Y-101532792D01*
X114612034Y-101314730D01*
X114695190Y-101156676D01*
X114735490Y-101080079D01*
X114735493Y-101080073D01*
X114737615Y-101076039D01*
X114800378Y-100898312D01*
X114825902Y-100826033D01*
X114825902Y-100826032D01*
X114827425Y-100821720D01*
X114879581Y-100557100D01*
X114888782Y-100372277D01*
X114892764Y-100292292D01*
X114892764Y-100292286D01*
X114892991Y-100287723D01*
X114867375Y-100019231D01*
X114822042Y-99833967D01*
X114804355Y-99761688D01*
X114803269Y-99757250D01*
X114702015Y-99507267D01*
X114565735Y-99274518D01*
X114447928Y-99127208D01*
X114400136Y-99067447D01*
X114400135Y-99067445D01*
X114397284Y-99063881D01*
X114200191Y-98879766D01*
X113978584Y-98726032D01*
X113974501Y-98724001D01*
X113974498Y-98723999D01*
X113809606Y-98641967D01*
X113737106Y-98605899D01*
X113732772Y-98604478D01*
X113732769Y-98604477D01*
X113485147Y-98523302D01*
X113485141Y-98523301D01*
X113480814Y-98521882D01*
X113476322Y-98521102D01*
X113218860Y-98476399D01*
X113218852Y-98476398D01*
X113215079Y-98475743D01*
X113198668Y-98474926D01*
X113131422Y-98471578D01*
X113131414Y-98471578D01*
X113129851Y-98471500D01*
X112961488Y-98471500D01*
X112959220Y-98471665D01*
X112959208Y-98471665D01*
X112828116Y-98481177D01*
X112760996Y-98486047D01*
X112756541Y-98487031D01*
X112756538Y-98487031D01*
X112502088Y-98543209D01*
X112502084Y-98543210D01*
X112497628Y-98544194D01*
X112371520Y-98591972D01*
X112249682Y-98638132D01*
X112249679Y-98638133D01*
X112245412Y-98639750D01*
X112009632Y-98770714D01*
X111795227Y-98934343D01*
X111606688Y-99127208D01*
X111447966Y-99345270D01*
X111426146Y-99386744D01*
X111324510Y-99579921D01*
X111324507Y-99579927D01*
X111322385Y-99583961D01*
X111320865Y-99588266D01*
X111320863Y-99588270D01*
X111234098Y-99833967D01*
X111232575Y-99838280D01*
X111180419Y-100102900D01*
X111180192Y-100107453D01*
X111180192Y-100107456D01*
X111170991Y-100292292D01*
X111167009Y-100372277D01*
X98423500Y-100372277D01*
X98423500Y-99092266D01*
X98443502Y-99024145D01*
X98497158Y-98977652D01*
X98567432Y-98967548D01*
X98602748Y-98978070D01*
X98618992Y-98985645D01*
X98629285Y-98989391D01*
X98833309Y-99044059D01*
X98844104Y-99045962D01*
X99054525Y-99064372D01*
X99065475Y-99064372D01*
X99275896Y-99045962D01*
X99286691Y-99044059D01*
X99490715Y-98989391D01*
X99501007Y-98985645D01*
X99692445Y-98896376D01*
X99701931Y-98890898D01*
X99745764Y-98860207D01*
X99754139Y-98849729D01*
X99747071Y-98836281D01*
X98789885Y-97879095D01*
X98755859Y-97816783D01*
X98757694Y-97791132D01*
X99424408Y-97791132D01*
X99424539Y-97792965D01*
X99428790Y-97799580D01*
X100107003Y-98477793D01*
X100118777Y-98484223D01*
X100130793Y-98474926D01*
X100160897Y-98431932D01*
X100166377Y-98422441D01*
X100215529Y-98317035D01*
X100262447Y-98263750D01*
X100330724Y-98244289D01*
X100398684Y-98264831D01*
X100443919Y-98317035D01*
X100493186Y-98422689D01*
X100493189Y-98422694D01*
X100495512Y-98427676D01*
X100498668Y-98432183D01*
X100498669Y-98432185D01*
X100578232Y-98545812D01*
X100623023Y-98609781D01*
X100780219Y-98766977D01*
X100784727Y-98770134D01*
X100784730Y-98770136D01*
X100860495Y-98823187D01*
X100962323Y-98894488D01*
X100967305Y-98896811D01*
X100967310Y-98896814D01*
X101142751Y-98978623D01*
X101163804Y-98988440D01*
X101169112Y-98989862D01*
X101169114Y-98989863D01*
X101195526Y-98996940D01*
X101378537Y-99045978D01*
X101600000Y-99065353D01*
X101821463Y-99045978D01*
X102004474Y-98996940D01*
X102030886Y-98989863D01*
X102030888Y-98989862D01*
X102036196Y-98988440D01*
X102057249Y-98978623D01*
X102232690Y-98896814D01*
X102232695Y-98896811D01*
X102237677Y-98894488D01*
X102339505Y-98823187D01*
X102415270Y-98770136D01*
X102415273Y-98770134D01*
X102419781Y-98766977D01*
X102576977Y-98609781D01*
X102621769Y-98545812D01*
X102701331Y-98432185D01*
X102701332Y-98432183D01*
X102704488Y-98427676D01*
X102706811Y-98422694D01*
X102706814Y-98422689D01*
X102755805Y-98317627D01*
X102802723Y-98264342D01*
X102871000Y-98244881D01*
X102938960Y-98265423D01*
X102984195Y-98317627D01*
X103033186Y-98422689D01*
X103033189Y-98422694D01*
X103035512Y-98427676D01*
X103038668Y-98432183D01*
X103038669Y-98432185D01*
X103118232Y-98545812D01*
X103163023Y-98609781D01*
X103320219Y-98766977D01*
X103324727Y-98770134D01*
X103324730Y-98770136D01*
X103400495Y-98823187D01*
X103502323Y-98894488D01*
X103507305Y-98896811D01*
X103507310Y-98896814D01*
X103682751Y-98978623D01*
X103703804Y-98988440D01*
X103709112Y-98989862D01*
X103709114Y-98989863D01*
X103735526Y-98996940D01*
X103918537Y-99045978D01*
X104140000Y-99065353D01*
X104361463Y-99045978D01*
X104544474Y-98996940D01*
X104570886Y-98989863D01*
X104570888Y-98989862D01*
X104576196Y-98988440D01*
X104597249Y-98978623D01*
X104772690Y-98896814D01*
X104772695Y-98896811D01*
X104777677Y-98894488D01*
X104879505Y-98823187D01*
X104955270Y-98770136D01*
X104955273Y-98770134D01*
X104959781Y-98766977D01*
X105116977Y-98609781D01*
X105161769Y-98545812D01*
X105241331Y-98432185D01*
X105241332Y-98432183D01*
X105244488Y-98427676D01*
X105246811Y-98422694D01*
X105246814Y-98422689D01*
X105295805Y-98317627D01*
X105342723Y-98264342D01*
X105411000Y-98244881D01*
X105478960Y-98265423D01*
X105524195Y-98317627D01*
X105573186Y-98422689D01*
X105573189Y-98422694D01*
X105575512Y-98427676D01*
X105578668Y-98432183D01*
X105578669Y-98432185D01*
X105658232Y-98545812D01*
X105703023Y-98609781D01*
X105860219Y-98766977D01*
X105864727Y-98770134D01*
X105864730Y-98770136D01*
X105940495Y-98823187D01*
X106042323Y-98894488D01*
X106047305Y-98896811D01*
X106047310Y-98896814D01*
X106222751Y-98978623D01*
X106243804Y-98988440D01*
X106249112Y-98989862D01*
X106249114Y-98989863D01*
X106275526Y-98996940D01*
X106458537Y-99045978D01*
X106680000Y-99065353D01*
X106901463Y-99045978D01*
X107084474Y-98996940D01*
X107110886Y-98989863D01*
X107110888Y-98989862D01*
X107116196Y-98988440D01*
X107137249Y-98978623D01*
X107312690Y-98896814D01*
X107312695Y-98896811D01*
X107317677Y-98894488D01*
X107419505Y-98823187D01*
X107495270Y-98770136D01*
X107495273Y-98770134D01*
X107499781Y-98766977D01*
X107656977Y-98609781D01*
X107701769Y-98545812D01*
X107781331Y-98432185D01*
X107781332Y-98432183D01*
X107784488Y-98427676D01*
X107786811Y-98422694D01*
X107786814Y-98422689D01*
X107876117Y-98231178D01*
X107876118Y-98231177D01*
X107878440Y-98226196D01*
X107935978Y-98011463D01*
X107955353Y-97790000D01*
X107935978Y-97568537D01*
X107895677Y-97418134D01*
X123101500Y-97418134D01*
X123108255Y-97480316D01*
X123159385Y-97616705D01*
X123246739Y-97733261D01*
X123363295Y-97820615D01*
X123499684Y-97871745D01*
X123561866Y-97878500D01*
X125358134Y-97878500D01*
X125420316Y-97871745D01*
X125556705Y-97820615D01*
X125673261Y-97733261D01*
X125760615Y-97616705D01*
X125765346Y-97604086D01*
X125804598Y-97499382D01*
X125847240Y-97442618D01*
X125913802Y-97417918D01*
X125983150Y-97433126D01*
X126017817Y-97461114D01*
X126046250Y-97493938D01*
X126218126Y-97636632D01*
X126411000Y-97749338D01*
X126619692Y-97829030D01*
X126624760Y-97830061D01*
X126624763Y-97830062D01*
X126728596Y-97851187D01*
X126838597Y-97873567D01*
X126843772Y-97873757D01*
X126843774Y-97873757D01*
X127056673Y-97881564D01*
X127056677Y-97881564D01*
X127061837Y-97881753D01*
X127066957Y-97881097D01*
X127066959Y-97881097D01*
X127278288Y-97854025D01*
X127278289Y-97854025D01*
X127283416Y-97853368D01*
X127290686Y-97851187D01*
X127492429Y-97790661D01*
X127492434Y-97790659D01*
X127497384Y-97789174D01*
X127697994Y-97690896D01*
X127879860Y-97561173D01*
X128038096Y-97403489D01*
X128069983Y-97359114D01*
X128165435Y-97226277D01*
X128168453Y-97222077D01*
X128205031Y-97148068D01*
X128265136Y-97026453D01*
X128265137Y-97026451D01*
X128267430Y-97021811D01*
X128332370Y-96808069D01*
X128361529Y-96586590D01*
X128362813Y-96534038D01*
X128363074Y-96523365D01*
X128363074Y-96523361D01*
X128363156Y-96520000D01*
X128344852Y-96297361D01*
X128290431Y-96080702D01*
X128201354Y-95875840D01*
X128080014Y-95688277D01*
X127929670Y-95523051D01*
X127925619Y-95519852D01*
X127925615Y-95519848D01*
X127758414Y-95387800D01*
X127758410Y-95387798D01*
X127754359Y-95384598D01*
X127712569Y-95361529D01*
X127662598Y-95311097D01*
X127647826Y-95241654D01*
X127672942Y-95175248D01*
X127700294Y-95148641D01*
X127875328Y-95023792D01*
X127883200Y-95017139D01*
X128034052Y-94866812D01*
X128040730Y-94858965D01*
X128165003Y-94686020D01*
X128170313Y-94677183D01*
X128264670Y-94486267D01*
X128268469Y-94476672D01*
X128330377Y-94272910D01*
X128332555Y-94262837D01*
X128333986Y-94251962D01*
X128331775Y-94237778D01*
X128318617Y-94234000D01*
X123143225Y-94234000D01*
X123129694Y-94237973D01*
X123128257Y-94247966D01*
X123158565Y-94382446D01*
X123161645Y-94392275D01*
X123241770Y-94589603D01*
X123246413Y-94598794D01*
X123357694Y-94780388D01*
X123363777Y-94788699D01*
X123503213Y-94949667D01*
X123510577Y-94956879D01*
X123515522Y-94960985D01*
X123555156Y-95019889D01*
X123556653Y-95090870D01*
X123519537Y-95151392D01*
X123479264Y-95175910D01*
X123371705Y-95216232D01*
X123371704Y-95216233D01*
X123363295Y-95219385D01*
X123246739Y-95306739D01*
X123159385Y-95423295D01*
X123108255Y-95559684D01*
X123101500Y-95621866D01*
X123101500Y-97418134D01*
X107895677Y-97418134D01*
X107878440Y-97353804D01*
X107866869Y-97328990D01*
X107786814Y-97157311D01*
X107786811Y-97157306D01*
X107784488Y-97152324D01*
X107781331Y-97147815D01*
X107660136Y-96974730D01*
X107660134Y-96974727D01*
X107656977Y-96970219D01*
X107499781Y-96813023D01*
X107495273Y-96809866D01*
X107495270Y-96809864D01*
X107352242Y-96709715D01*
X107317677Y-96685512D01*
X107312695Y-96683189D01*
X107312690Y-96683186D01*
X107121178Y-96593883D01*
X107121177Y-96593882D01*
X107116196Y-96591560D01*
X107110888Y-96590138D01*
X107110886Y-96590137D01*
X107045051Y-96572497D01*
X106901463Y-96534022D01*
X106680000Y-96514647D01*
X106458537Y-96534022D01*
X106314949Y-96572497D01*
X106249114Y-96590137D01*
X106249112Y-96590138D01*
X106243804Y-96591560D01*
X106238823Y-96593882D01*
X106238822Y-96593883D01*
X106047311Y-96683186D01*
X106047306Y-96683189D01*
X106042324Y-96685512D01*
X106037817Y-96688668D01*
X106037815Y-96688669D01*
X105864730Y-96809864D01*
X105864727Y-96809866D01*
X105860219Y-96813023D01*
X105703023Y-96970219D01*
X105699866Y-96974727D01*
X105699864Y-96974730D01*
X105578669Y-97147815D01*
X105575512Y-97152324D01*
X105573189Y-97157306D01*
X105573186Y-97157311D01*
X105524195Y-97262373D01*
X105477277Y-97315658D01*
X105409000Y-97335119D01*
X105341040Y-97314577D01*
X105295805Y-97262373D01*
X105246814Y-97157311D01*
X105246811Y-97157306D01*
X105244488Y-97152324D01*
X105241331Y-97147815D01*
X105120136Y-96974730D01*
X105120134Y-96974727D01*
X105116977Y-96970219D01*
X104959781Y-96813023D01*
X104955273Y-96809866D01*
X104955270Y-96809864D01*
X104812242Y-96709715D01*
X104777677Y-96685512D01*
X104772695Y-96683189D01*
X104772690Y-96683186D01*
X104581178Y-96593883D01*
X104581177Y-96593882D01*
X104576196Y-96591560D01*
X104570888Y-96590138D01*
X104570886Y-96590137D01*
X104505051Y-96572497D01*
X104361463Y-96534022D01*
X104140000Y-96514647D01*
X103918537Y-96534022D01*
X103774949Y-96572497D01*
X103709114Y-96590137D01*
X103709112Y-96590138D01*
X103703804Y-96591560D01*
X103698823Y-96593882D01*
X103698822Y-96593883D01*
X103507311Y-96683186D01*
X103507306Y-96683189D01*
X103502324Y-96685512D01*
X103497817Y-96688668D01*
X103497815Y-96688669D01*
X103324730Y-96809864D01*
X103324727Y-96809866D01*
X103320219Y-96813023D01*
X103163023Y-96970219D01*
X103159866Y-96974727D01*
X103159864Y-96974730D01*
X103038669Y-97147815D01*
X103035512Y-97152324D01*
X103033189Y-97157306D01*
X103033186Y-97157311D01*
X102984195Y-97262373D01*
X102937277Y-97315658D01*
X102869000Y-97335119D01*
X102801040Y-97314577D01*
X102755805Y-97262373D01*
X102706814Y-97157311D01*
X102706811Y-97157306D01*
X102704488Y-97152324D01*
X102701331Y-97147815D01*
X102580136Y-96974730D01*
X102580134Y-96974727D01*
X102576977Y-96970219D01*
X102419781Y-96813023D01*
X102415273Y-96809866D01*
X102415270Y-96809864D01*
X102287229Y-96720209D01*
X102242901Y-96664752D01*
X102233500Y-96616996D01*
X102233500Y-59656695D01*
X102777251Y-59656695D01*
X102777548Y-59661848D01*
X102777548Y-59661851D01*
X102783011Y-59756590D01*
X102790110Y-59879715D01*
X102791247Y-59884761D01*
X102791248Y-59884767D01*
X102811119Y-59972939D01*
X102839222Y-60097639D01*
X102923266Y-60304616D01*
X102925965Y-60309020D01*
X103030978Y-60480386D01*
X103039987Y-60495088D01*
X103186250Y-60663938D01*
X103190230Y-60667242D01*
X103194981Y-60671187D01*
X103234616Y-60730090D01*
X103236113Y-60801071D01*
X103198997Y-60861593D01*
X103158725Y-60886112D01*
X103094364Y-60910240D01*
X103043295Y-60929385D01*
X102926739Y-61016739D01*
X102839385Y-61133295D01*
X102788255Y-61269684D01*
X102781500Y-61331866D01*
X102781500Y-63128134D01*
X102788255Y-63190316D01*
X102839385Y-63326705D01*
X102926739Y-63443261D01*
X103043295Y-63530615D01*
X103179684Y-63581745D01*
X103241866Y-63588500D01*
X103380500Y-63588500D01*
X103448621Y-63608502D01*
X103495114Y-63662158D01*
X103506500Y-63714500D01*
X103506500Y-69147476D01*
X103486498Y-69215597D01*
X103474142Y-69231779D01*
X103400960Y-69313056D01*
X103367438Y-69371118D01*
X103341144Y-69416661D01*
X103305473Y-69478444D01*
X103246458Y-69660072D01*
X103245768Y-69666633D01*
X103245768Y-69666635D01*
X103232654Y-69791412D01*
X103226496Y-69850000D01*
X103227186Y-69856565D01*
X103241024Y-69988222D01*
X103246458Y-70039928D01*
X103305473Y-70221556D01*
X103308776Y-70227278D01*
X103308777Y-70227279D01*
X103341962Y-70284757D01*
X103400960Y-70386944D01*
X103528747Y-70528866D01*
X103683248Y-70641118D01*
X103689276Y-70643802D01*
X103689278Y-70643803D01*
X103851681Y-70716109D01*
X103857712Y-70718794D01*
X103951113Y-70738647D01*
X104038056Y-70757128D01*
X104038061Y-70757128D01*
X104044513Y-70758500D01*
X104235487Y-70758500D01*
X104241939Y-70757128D01*
X104241944Y-70757128D01*
X104328887Y-70738647D01*
X104422288Y-70718794D01*
X104446656Y-70707945D01*
X104596752Y-70641118D01*
X104597677Y-70643196D01*
X104656488Y-70628924D01*
X104723581Y-70652141D01*
X104767472Y-70707945D01*
X104776500Y-70754782D01*
X104776500Y-75497476D01*
X104756498Y-75565597D01*
X104744142Y-75581779D01*
X104670960Y-75663056D01*
X104667659Y-75668774D01*
X104594936Y-75794734D01*
X104575473Y-75828444D01*
X104516458Y-76010072D01*
X104496496Y-76200000D01*
X104516458Y-76389928D01*
X104575473Y-76571556D01*
X104670960Y-76736944D01*
X104798747Y-76878866D01*
X104953248Y-76991118D01*
X104959276Y-76993802D01*
X104959278Y-76993803D01*
X105121681Y-77066109D01*
X105127712Y-77068794D01*
X105221113Y-77088647D01*
X105308056Y-77107128D01*
X105308061Y-77107128D01*
X105314513Y-77108500D01*
X105505487Y-77108500D01*
X105511939Y-77107128D01*
X105511944Y-77107128D01*
X105598887Y-77088647D01*
X105692288Y-77068794D01*
X105716656Y-77057945D01*
X105866752Y-76991118D01*
X105867677Y-76993196D01*
X105926488Y-76978924D01*
X105993581Y-77002141D01*
X106037472Y-77057945D01*
X106046500Y-77104782D01*
X106046500Y-81847476D01*
X106026498Y-81915597D01*
X106014142Y-81931779D01*
X105940960Y-82013056D01*
X105845473Y-82178444D01*
X105786458Y-82360072D01*
X105785768Y-82366633D01*
X105785768Y-82366635D01*
X105785089Y-82373100D01*
X105766496Y-82550000D01*
X105767186Y-82556565D01*
X105779068Y-82669612D01*
X105786458Y-82739928D01*
X105845473Y-82921556D01*
X105848776Y-82927278D01*
X105848777Y-82927279D01*
X105868903Y-82962138D01*
X105940960Y-83086944D01*
X105945378Y-83091851D01*
X105945379Y-83091852D01*
X106017087Y-83171492D01*
X106068747Y-83228866D01*
X106167843Y-83300864D01*
X106209881Y-83331406D01*
X106223248Y-83341118D01*
X106229276Y-83343802D01*
X106229278Y-83343803D01*
X106323426Y-83385720D01*
X106397712Y-83418794D01*
X106491112Y-83438647D01*
X106578056Y-83457128D01*
X106578061Y-83457128D01*
X106584513Y-83458500D01*
X106775487Y-83458500D01*
X106781939Y-83457128D01*
X106781944Y-83457128D01*
X106868888Y-83438647D01*
X106962288Y-83418794D01*
X107036574Y-83385720D01*
X107130722Y-83343803D01*
X107130724Y-83343802D01*
X107136752Y-83341118D01*
X107150120Y-83331406D01*
X107192157Y-83300864D01*
X107291253Y-83228866D01*
X107342913Y-83171492D01*
X107414621Y-83091852D01*
X107414622Y-83091851D01*
X107419040Y-83086944D01*
X107491097Y-82962138D01*
X107511223Y-82927279D01*
X107511224Y-82927278D01*
X107514527Y-82921556D01*
X107573542Y-82739928D01*
X107580933Y-82669612D01*
X107592814Y-82556565D01*
X107593504Y-82550000D01*
X107574911Y-82373100D01*
X107574232Y-82366635D01*
X107574232Y-82366633D01*
X107573542Y-82360072D01*
X107514527Y-82178444D01*
X107419040Y-82013056D01*
X107345863Y-81931785D01*
X107315147Y-81867779D01*
X107313500Y-81847476D01*
X107313500Y-80914782D01*
X107333502Y-80846661D01*
X107387158Y-80800168D01*
X107457432Y-80790064D01*
X107492730Y-80802282D01*
X107493248Y-80801118D01*
X107667712Y-80878794D01*
X107761112Y-80898647D01*
X107848056Y-80917128D01*
X107848061Y-80917128D01*
X107854513Y-80918500D01*
X108045487Y-80918500D01*
X108051939Y-80917128D01*
X108051944Y-80917128D01*
X108138888Y-80898647D01*
X108232288Y-80878794D01*
X108238319Y-80876109D01*
X108400722Y-80803803D01*
X108400724Y-80803802D01*
X108406752Y-80801118D01*
X108421967Y-80790064D01*
X108486667Y-80743056D01*
X108561253Y-80688866D01*
X108689040Y-80546944D01*
X108784527Y-80381556D01*
X108843542Y-80199928D01*
X108863504Y-80010000D01*
X108843542Y-79820072D01*
X108784527Y-79638444D01*
X108689040Y-79473056D01*
X108615863Y-79391785D01*
X108585147Y-79327779D01*
X108583500Y-79307476D01*
X108583500Y-56004189D01*
X108603502Y-55936068D01*
X108657158Y-55889575D01*
X108727432Y-55879471D01*
X108754449Y-55886479D01*
X108762557Y-55889575D01*
X108839692Y-55919030D01*
X108844760Y-55920061D01*
X108844763Y-55920062D01*
X108923436Y-55936068D01*
X109058597Y-55963567D01*
X109063772Y-55963757D01*
X109063774Y-55963757D01*
X109276673Y-55971564D01*
X109276677Y-55971564D01*
X109281837Y-55971753D01*
X109286957Y-55971097D01*
X109286959Y-55971097D01*
X109498288Y-55944025D01*
X109498289Y-55944025D01*
X109503416Y-55943368D01*
X109514836Y-55939942D01*
X109694292Y-55886102D01*
X109765288Y-55885685D01*
X109825238Y-55923718D01*
X109855110Y-55988124D01*
X109856500Y-56006788D01*
X109856500Y-72957476D01*
X109836498Y-73025597D01*
X109824142Y-73041779D01*
X109750960Y-73123056D01*
X109655473Y-73288444D01*
X109596458Y-73470072D01*
X109576496Y-73660000D01*
X109577186Y-73666565D01*
X109583844Y-73729908D01*
X109596458Y-73849928D01*
X109655473Y-74031556D01*
X109658776Y-74037278D01*
X109658777Y-74037279D01*
X109679069Y-74072425D01*
X109750960Y-74196944D01*
X109755378Y-74201851D01*
X109755379Y-74201852D01*
X109874325Y-74333955D01*
X109878747Y-74338866D01*
X110033248Y-74451118D01*
X110039276Y-74453802D01*
X110039278Y-74453803D01*
X110201681Y-74526109D01*
X110207712Y-74528794D01*
X110294009Y-74547137D01*
X110388056Y-74567128D01*
X110388061Y-74567128D01*
X110394513Y-74568500D01*
X110585487Y-74568500D01*
X110591939Y-74567128D01*
X110591944Y-74567128D01*
X110685991Y-74547137D01*
X110772288Y-74528794D01*
X110796656Y-74517945D01*
X110946752Y-74451118D01*
X110947677Y-74453196D01*
X111006488Y-74438924D01*
X111073581Y-74462141D01*
X111117472Y-74517945D01*
X111126500Y-74564782D01*
X111126500Y-80577476D01*
X111106498Y-80645597D01*
X111094142Y-80661779D01*
X111020960Y-80743056D01*
X111017659Y-80748774D01*
X110961144Y-80846661D01*
X110925473Y-80908444D01*
X110866458Y-81090072D01*
X110846496Y-81280000D01*
X110866458Y-81469928D01*
X110925473Y-81651556D01*
X111020960Y-81816944D01*
X111148747Y-81958866D01*
X111303248Y-82071118D01*
X111309276Y-82073802D01*
X111309278Y-82073803D01*
X111471681Y-82146109D01*
X111477712Y-82148794D01*
X111571112Y-82168647D01*
X111658056Y-82187128D01*
X111658061Y-82187128D01*
X111664513Y-82188500D01*
X111855487Y-82188500D01*
X111861939Y-82187128D01*
X111861944Y-82187128D01*
X111948888Y-82168647D01*
X112042288Y-82148794D01*
X112048319Y-82146109D01*
X112210722Y-82073803D01*
X112210724Y-82073802D01*
X112216752Y-82071118D01*
X112371253Y-81958866D01*
X112499040Y-81816944D01*
X112594527Y-81651556D01*
X112653542Y-81469928D01*
X112673504Y-81280000D01*
X112653542Y-81090072D01*
X112594527Y-80908444D01*
X112558857Y-80846661D01*
X112502341Y-80748774D01*
X112499040Y-80743056D01*
X112425863Y-80661785D01*
X112395147Y-80597779D01*
X112393500Y-80577476D01*
X112393500Y-69484782D01*
X112413502Y-69416661D01*
X112467158Y-69370168D01*
X112537432Y-69360064D01*
X112572730Y-69372282D01*
X112573248Y-69371118D01*
X112723738Y-69438120D01*
X112747712Y-69448794D01*
X112834009Y-69467137D01*
X112928056Y-69487128D01*
X112928061Y-69487128D01*
X112934513Y-69488500D01*
X113125487Y-69488500D01*
X113131939Y-69487128D01*
X113131944Y-69487128D01*
X113225991Y-69467137D01*
X113312288Y-69448794D01*
X113336263Y-69438120D01*
X113486752Y-69371118D01*
X113487677Y-69373196D01*
X113546488Y-69358924D01*
X113613581Y-69382141D01*
X113657472Y-69437945D01*
X113666500Y-69484782D01*
X113666500Y-72957476D01*
X113646498Y-73025597D01*
X113634142Y-73041779D01*
X113560960Y-73123056D01*
X113465473Y-73288444D01*
X113406458Y-73470072D01*
X113386496Y-73660000D01*
X113387186Y-73666565D01*
X113393844Y-73729908D01*
X113406458Y-73849928D01*
X113465473Y-74031556D01*
X113468776Y-74037278D01*
X113468777Y-74037279D01*
X113489069Y-74072425D01*
X113560960Y-74196944D01*
X113565378Y-74201851D01*
X113565379Y-74201852D01*
X113684325Y-74333955D01*
X113688747Y-74338866D01*
X113843248Y-74451118D01*
X113849276Y-74453802D01*
X113849278Y-74453803D01*
X114011681Y-74526109D01*
X114017712Y-74528794D01*
X114104009Y-74547137D01*
X114198056Y-74567128D01*
X114198061Y-74567128D01*
X114204513Y-74568500D01*
X114395487Y-74568500D01*
X114401939Y-74567128D01*
X114401944Y-74567128D01*
X114543716Y-74536993D01*
X114614507Y-74542395D01*
X114671139Y-74585212D01*
X114695633Y-74651850D01*
X114689746Y-74699176D01*
X114676458Y-74740072D01*
X114675768Y-74746633D01*
X114675768Y-74746635D01*
X114672963Y-74773327D01*
X114656496Y-74930000D01*
X114657186Y-74936565D01*
X114666140Y-75021753D01*
X114676458Y-75119928D01*
X114735473Y-75301556D01*
X114830960Y-75466944D01*
X114958747Y-75608866D01*
X115113248Y-75721118D01*
X115119276Y-75723802D01*
X115119278Y-75723803D01*
X115278593Y-75794734D01*
X115287712Y-75798794D01*
X115381112Y-75818647D01*
X115468056Y-75837128D01*
X115468061Y-75837128D01*
X115474513Y-75838500D01*
X115665487Y-75838500D01*
X115671939Y-75837128D01*
X115671944Y-75837128D01*
X115813716Y-75806993D01*
X115884507Y-75812395D01*
X115941139Y-75855212D01*
X115965633Y-75921850D01*
X115959746Y-75969176D01*
X115946458Y-76010072D01*
X115926496Y-76200000D01*
X115946458Y-76389928D01*
X116005473Y-76571556D01*
X116100960Y-76736944D01*
X116228747Y-76878866D01*
X116383248Y-76991118D01*
X116389276Y-76993802D01*
X116389278Y-76993803D01*
X116551681Y-77066109D01*
X116557712Y-77068794D01*
X116651113Y-77088647D01*
X116738056Y-77107128D01*
X116738061Y-77107128D01*
X116744513Y-77108500D01*
X116935487Y-77108500D01*
X116941939Y-77107128D01*
X116941944Y-77107128D01*
X117083716Y-77076993D01*
X117154507Y-77082395D01*
X117211139Y-77125212D01*
X117235633Y-77191850D01*
X117229746Y-77239176D01*
X117216458Y-77280072D01*
X117196496Y-77470000D01*
X117216458Y-77659928D01*
X117275473Y-77841556D01*
X117370960Y-78006944D01*
X117498747Y-78148866D01*
X117653248Y-78261118D01*
X117659276Y-78263802D01*
X117659278Y-78263803D01*
X117821681Y-78336109D01*
X117827712Y-78338794D01*
X117921112Y-78358647D01*
X118008056Y-78377128D01*
X118008061Y-78377128D01*
X118014513Y-78378500D01*
X118205487Y-78378500D01*
X118211939Y-78377128D01*
X118211944Y-78377128D01*
X118353716Y-78346993D01*
X118424507Y-78352395D01*
X118481139Y-78395212D01*
X118505633Y-78461850D01*
X118499746Y-78509176D01*
X118486458Y-78550072D01*
X118466496Y-78740000D01*
X118486458Y-78929928D01*
X118545473Y-79111556D01*
X118640960Y-79276944D01*
X118768747Y-79418866D01*
X118923248Y-79531118D01*
X118929276Y-79533802D01*
X118929278Y-79533803D01*
X119091681Y-79606109D01*
X119097712Y-79608794D01*
X119191113Y-79628647D01*
X119278056Y-79647128D01*
X119278061Y-79647128D01*
X119284513Y-79648500D01*
X119475487Y-79648500D01*
X119481939Y-79647128D01*
X119481944Y-79647128D01*
X119623716Y-79616993D01*
X119694507Y-79622395D01*
X119751139Y-79665212D01*
X119775633Y-79731850D01*
X119769746Y-79779176D01*
X119756458Y-79820072D01*
X119736496Y-80010000D01*
X119756458Y-80199928D01*
X119815473Y-80381556D01*
X119910960Y-80546944D01*
X120038747Y-80688866D01*
X120113333Y-80743056D01*
X120178034Y-80790064D01*
X120193248Y-80801118D01*
X120199276Y-80803802D01*
X120199278Y-80803803D01*
X120361681Y-80876109D01*
X120367712Y-80878794D01*
X120461112Y-80898647D01*
X120548056Y-80917128D01*
X120548061Y-80917128D01*
X120554513Y-80918500D01*
X120745487Y-80918500D01*
X120751939Y-80917128D01*
X120751944Y-80917128D01*
X120893716Y-80886993D01*
X120964507Y-80892395D01*
X121021139Y-80935212D01*
X121045633Y-81001850D01*
X121039746Y-81049176D01*
X121026458Y-81090072D01*
X121006496Y-81280000D01*
X121026458Y-81469928D01*
X121085473Y-81651556D01*
X121180960Y-81816944D01*
X121308747Y-81958866D01*
X121463248Y-82071118D01*
X121469276Y-82073802D01*
X121469278Y-82073803D01*
X121631681Y-82146109D01*
X121637712Y-82148794D01*
X121731112Y-82168647D01*
X121818056Y-82187128D01*
X121818061Y-82187128D01*
X121824513Y-82188500D01*
X122015487Y-82188500D01*
X122021939Y-82187128D01*
X122021944Y-82187128D01*
X122163716Y-82156993D01*
X122234507Y-82162395D01*
X122291139Y-82205212D01*
X122315633Y-82271850D01*
X122309746Y-82319176D01*
X122296458Y-82360072D01*
X122295768Y-82366633D01*
X122295768Y-82366635D01*
X122295089Y-82373100D01*
X122276496Y-82550000D01*
X122277186Y-82556565D01*
X122289068Y-82669612D01*
X122296458Y-82739928D01*
X122355473Y-82921556D01*
X122358776Y-82927278D01*
X122358777Y-82927279D01*
X122378903Y-82962138D01*
X122450960Y-83086944D01*
X122455378Y-83091851D01*
X122455379Y-83091852D01*
X122527087Y-83171492D01*
X122578747Y-83228866D01*
X122677843Y-83300864D01*
X122719881Y-83331406D01*
X122733248Y-83341118D01*
X122739276Y-83343802D01*
X122739278Y-83343803D01*
X122833426Y-83385720D01*
X122907712Y-83418794D01*
X123020319Y-83442729D01*
X123082791Y-83476457D01*
X123117113Y-83538607D01*
X123119408Y-83579364D01*
X123097251Y-83786695D01*
X123097548Y-83791848D01*
X123097548Y-83791851D01*
X123103011Y-83886590D01*
X123110110Y-84009715D01*
X123111247Y-84014761D01*
X123111248Y-84014767D01*
X123131119Y-84102939D01*
X123159222Y-84227639D01*
X123243266Y-84434616D01*
X123294019Y-84517438D01*
X123357291Y-84620688D01*
X123359987Y-84625088D01*
X123506250Y-84793938D01*
X123678126Y-84936632D01*
X123748595Y-84977811D01*
X123751445Y-84979476D01*
X123800169Y-85031114D01*
X123813240Y-85100897D01*
X123786509Y-85166669D01*
X123746055Y-85200027D01*
X123733607Y-85206507D01*
X123729474Y-85209610D01*
X123729471Y-85209612D01*
X123705247Y-85227800D01*
X123554965Y-85340635D01*
X123400629Y-85502138D01*
X123274743Y-85686680D01*
X123230614Y-85781748D01*
X123192757Y-85863305D01*
X123180688Y-85889305D01*
X123120989Y-86104570D01*
X123097251Y-86326695D01*
X123097548Y-86331848D01*
X123097548Y-86331851D01*
X123103011Y-86426590D01*
X123110110Y-86549715D01*
X123111247Y-86554761D01*
X123111248Y-86554767D01*
X123131119Y-86642939D01*
X123159222Y-86767639D01*
X123243266Y-86974616D01*
X123282638Y-87038866D01*
X123357291Y-87160688D01*
X123359987Y-87165088D01*
X123506250Y-87333938D01*
X123678126Y-87476632D01*
X123748595Y-87517811D01*
X123751445Y-87519476D01*
X123800169Y-87571114D01*
X123813240Y-87640897D01*
X123786509Y-87706669D01*
X123746055Y-87740027D01*
X123733607Y-87746507D01*
X123729474Y-87749610D01*
X123729471Y-87749612D01*
X123705247Y-87767800D01*
X123554965Y-87880635D01*
X123400629Y-88042138D01*
X123274743Y-88226680D01*
X123255869Y-88267341D01*
X123213716Y-88358153D01*
X123180688Y-88429305D01*
X123120989Y-88644570D01*
X123097251Y-88866695D01*
X123097548Y-88871848D01*
X123097548Y-88871851D01*
X123103011Y-88966590D01*
X123110110Y-89089715D01*
X123111247Y-89094761D01*
X123111248Y-89094767D01*
X123131119Y-89182939D01*
X123159222Y-89307639D01*
X123243266Y-89514616D01*
X123282638Y-89578866D01*
X123357291Y-89700688D01*
X123359987Y-89705088D01*
X123506250Y-89873938D01*
X123678126Y-90016632D01*
X123748595Y-90057811D01*
X123751445Y-90059476D01*
X123800169Y-90111114D01*
X123813240Y-90180897D01*
X123786509Y-90246669D01*
X123746055Y-90280027D01*
X123733607Y-90286507D01*
X123729474Y-90289610D01*
X123729471Y-90289612D01*
X123705247Y-90307800D01*
X123554965Y-90420635D01*
X123400629Y-90582138D01*
X123274743Y-90766680D01*
X123180688Y-90969305D01*
X123120989Y-91184570D01*
X123097251Y-91406695D01*
X123097548Y-91411848D01*
X123097548Y-91411851D01*
X123103011Y-91506590D01*
X123110110Y-91629715D01*
X123111247Y-91634761D01*
X123111248Y-91634767D01*
X123131119Y-91722939D01*
X123159222Y-91847639D01*
X123243266Y-92054616D01*
X123294019Y-92137438D01*
X123357291Y-92240688D01*
X123359987Y-92245088D01*
X123506250Y-92413938D01*
X123678126Y-92556632D01*
X123751955Y-92599774D01*
X123800679Y-92651412D01*
X123813750Y-92721195D01*
X123787019Y-92786967D01*
X123746562Y-92820327D01*
X123738457Y-92824546D01*
X123729738Y-92830036D01*
X123559433Y-92957905D01*
X123551726Y-92964748D01*
X123404590Y-93118717D01*
X123398104Y-93126727D01*
X123278098Y-93302649D01*
X123273000Y-93311623D01*
X123183338Y-93504783D01*
X123179775Y-93514470D01*
X123124389Y-93714183D01*
X123125912Y-93722607D01*
X123138292Y-93726000D01*
X128318344Y-93726000D01*
X128331875Y-93722027D01*
X128333180Y-93712947D01*
X128291214Y-93545875D01*
X128287894Y-93536124D01*
X128202972Y-93340814D01*
X128198105Y-93331739D01*
X128082426Y-93152926D01*
X128076136Y-93144757D01*
X127932806Y-92987240D01*
X127925273Y-92980215D01*
X127758139Y-92848222D01*
X127749556Y-92842520D01*
X127712602Y-92822120D01*
X127662631Y-92771687D01*
X127647859Y-92702245D01*
X127672975Y-92635839D01*
X127700327Y-92609232D01*
X127723797Y-92592491D01*
X127879860Y-92481173D01*
X128038096Y-92323489D01*
X128097594Y-92240689D01*
X128165435Y-92146277D01*
X128168453Y-92142077D01*
X128189320Y-92099857D01*
X128265136Y-91946453D01*
X128265137Y-91946451D01*
X128267430Y-91941811D01*
X128332370Y-91728069D01*
X128361529Y-91506590D01*
X128363156Y-91440000D01*
X128344852Y-91217361D01*
X128290431Y-91000702D01*
X128201354Y-90795840D01*
X128080014Y-90608277D01*
X127929670Y-90443051D01*
X127925619Y-90439852D01*
X127925615Y-90439848D01*
X127758414Y-90307800D01*
X127758410Y-90307798D01*
X127754359Y-90304598D01*
X127713053Y-90281796D01*
X127663084Y-90231364D01*
X127648312Y-90161921D01*
X127673428Y-90095516D01*
X127700780Y-90068909D01*
X127744603Y-90037650D01*
X127879860Y-89941173D01*
X128038096Y-89783489D01*
X128047670Y-89770166D01*
X128165435Y-89606277D01*
X128168453Y-89602077D01*
X128178006Y-89582749D01*
X128265136Y-89406453D01*
X128265137Y-89406451D01*
X128267430Y-89401811D01*
X128332370Y-89188069D01*
X128361529Y-88966590D01*
X128363156Y-88900000D01*
X128344852Y-88677361D01*
X128290431Y-88460702D01*
X128201354Y-88255840D01*
X128080014Y-88068277D01*
X127929670Y-87903051D01*
X127925619Y-87899852D01*
X127925615Y-87899848D01*
X127758414Y-87767800D01*
X127758410Y-87767798D01*
X127754359Y-87764598D01*
X127713053Y-87741796D01*
X127663084Y-87691364D01*
X127648312Y-87621921D01*
X127673428Y-87555516D01*
X127700780Y-87528909D01*
X127744603Y-87497650D01*
X127879860Y-87401173D01*
X128038096Y-87243489D01*
X128047670Y-87230166D01*
X128165435Y-87066277D01*
X128168453Y-87062077D01*
X128189320Y-87019857D01*
X128265136Y-86866453D01*
X128265137Y-86866451D01*
X128267430Y-86861811D01*
X128332370Y-86648069D01*
X128361529Y-86426590D01*
X128363156Y-86360000D01*
X128344852Y-86137361D01*
X128290431Y-85920702D01*
X128201354Y-85715840D01*
X128080014Y-85528277D01*
X127929670Y-85363051D01*
X127925619Y-85359852D01*
X127925615Y-85359848D01*
X127758414Y-85227800D01*
X127758410Y-85227798D01*
X127754359Y-85224598D01*
X127713053Y-85201796D01*
X127663084Y-85151364D01*
X127648312Y-85081921D01*
X127673428Y-85015516D01*
X127700780Y-84988909D01*
X127744603Y-84957650D01*
X127879860Y-84861173D01*
X128038096Y-84703489D01*
X128097594Y-84620689D01*
X128165435Y-84526277D01*
X128168453Y-84522077D01*
X128189320Y-84479857D01*
X128265136Y-84326453D01*
X128265137Y-84326451D01*
X128267430Y-84321811D01*
X128332370Y-84108069D01*
X128361529Y-83886590D01*
X128363156Y-83820000D01*
X128344852Y-83597361D01*
X128290431Y-83380702D01*
X128201354Y-83175840D01*
X128143845Y-83086944D01*
X128082822Y-82992617D01*
X128082820Y-82992614D01*
X128080014Y-82988277D01*
X127929670Y-82823051D01*
X127925619Y-82819852D01*
X127925615Y-82819848D01*
X127758414Y-82687800D01*
X127758410Y-82687798D01*
X127754359Y-82684598D01*
X127558789Y-82576638D01*
X127553920Y-82574914D01*
X127553916Y-82574912D01*
X127353087Y-82503795D01*
X127353083Y-82503794D01*
X127348212Y-82502069D01*
X127343119Y-82501162D01*
X127343116Y-82501161D01*
X127133373Y-82463800D01*
X127133367Y-82463799D01*
X127128284Y-82462894D01*
X127054452Y-82461992D01*
X126910081Y-82460228D01*
X126910079Y-82460228D01*
X126904911Y-82460165D01*
X126684091Y-82493955D01*
X126471756Y-82563357D01*
X126273607Y-82666507D01*
X126269474Y-82669610D01*
X126269471Y-82669612D01*
X126099100Y-82797530D01*
X126094965Y-82800635D01*
X125940629Y-82962138D01*
X125833201Y-83119621D01*
X125778293Y-83164621D01*
X125707768Y-83172792D01*
X125644021Y-83141538D01*
X125623324Y-83117054D01*
X125542822Y-82992617D01*
X125542820Y-82992614D01*
X125540014Y-82988277D01*
X125389670Y-82823051D01*
X125385619Y-82819852D01*
X125385615Y-82819848D01*
X125218414Y-82687800D01*
X125218410Y-82687798D01*
X125214359Y-82684598D01*
X125018789Y-82576638D01*
X125013920Y-82574914D01*
X125013916Y-82574912D01*
X124813087Y-82503795D01*
X124813083Y-82503794D01*
X124808212Y-82502069D01*
X124803119Y-82501162D01*
X124803116Y-82501161D01*
X124593373Y-82463800D01*
X124593367Y-82463799D01*
X124588284Y-82462894D01*
X124514452Y-82461992D01*
X124370081Y-82460228D01*
X124370079Y-82460228D01*
X124364911Y-82460165D01*
X124228911Y-82480976D01*
X124158550Y-82471508D01*
X124104476Y-82425503D01*
X124085779Y-82373063D01*
X124085606Y-82373100D01*
X124085331Y-82371806D01*
X124084543Y-82369596D01*
X124084232Y-82366635D01*
X124084232Y-82366633D01*
X124083542Y-82360072D01*
X124024527Y-82178444D01*
X123929040Y-82013056D01*
X123855863Y-81931785D01*
X123825147Y-81867779D01*
X123823500Y-81847476D01*
X123823500Y-75144500D01*
X123843502Y-75076379D01*
X123897158Y-75029886D01*
X123949500Y-75018500D01*
X125358134Y-75018500D01*
X125420316Y-75011745D01*
X125556705Y-74960615D01*
X125673261Y-74873261D01*
X125760615Y-74756705D01*
X125782799Y-74697529D01*
X125804598Y-74639382D01*
X125847240Y-74582618D01*
X125913802Y-74557918D01*
X125983150Y-74573126D01*
X126017817Y-74601114D01*
X126046250Y-74633938D01*
X126218126Y-74776632D01*
X126411000Y-74889338D01*
X126619692Y-74969030D01*
X126624760Y-74970061D01*
X126624763Y-74970062D01*
X126732017Y-74991883D01*
X126838597Y-75013567D01*
X126843772Y-75013757D01*
X126843774Y-75013757D01*
X127056673Y-75021564D01*
X127056677Y-75021564D01*
X127061837Y-75021753D01*
X127066957Y-75021097D01*
X127066959Y-75021097D01*
X127278288Y-74994025D01*
X127278289Y-74994025D01*
X127283416Y-74993368D01*
X127288366Y-74991883D01*
X127492429Y-74930661D01*
X127492434Y-74930659D01*
X127497384Y-74929174D01*
X127697994Y-74830896D01*
X127879860Y-74701173D01*
X128038096Y-74543489D01*
X128047670Y-74530166D01*
X128165435Y-74366277D01*
X128168453Y-74362077D01*
X128178006Y-74342749D01*
X128265136Y-74166453D01*
X128265137Y-74166451D01*
X128267430Y-74161811D01*
X128332370Y-73948069D01*
X128361529Y-73726590D01*
X128363156Y-73660000D01*
X128344852Y-73437361D01*
X128290431Y-73220702D01*
X128201354Y-73015840D01*
X128080014Y-72828277D01*
X127929670Y-72663051D01*
X127925619Y-72659852D01*
X127925615Y-72659848D01*
X127758414Y-72527800D01*
X127758410Y-72527798D01*
X127754359Y-72524598D01*
X127712569Y-72501529D01*
X127662598Y-72451097D01*
X127647826Y-72381654D01*
X127672942Y-72315248D01*
X127700294Y-72288641D01*
X127875328Y-72163792D01*
X127883200Y-72157139D01*
X128034052Y-72006812D01*
X128040730Y-71998965D01*
X128165003Y-71826020D01*
X128170313Y-71817183D01*
X128264670Y-71626267D01*
X128268469Y-71616672D01*
X128330377Y-71412910D01*
X128332555Y-71402837D01*
X128333986Y-71391962D01*
X128331775Y-71377778D01*
X128318617Y-71374000D01*
X124332000Y-71374000D01*
X124263879Y-71353998D01*
X124217386Y-71300342D01*
X124206000Y-71248000D01*
X124206000Y-70992000D01*
X124226002Y-70923879D01*
X124279658Y-70877386D01*
X124332000Y-70866000D01*
X128318344Y-70866000D01*
X128331875Y-70862027D01*
X128333180Y-70852947D01*
X128291214Y-70685875D01*
X128287894Y-70676124D01*
X128202972Y-70480814D01*
X128198105Y-70471739D01*
X128082426Y-70292926D01*
X128076136Y-70284757D01*
X127932806Y-70127240D01*
X127925273Y-70120215D01*
X127758139Y-69988222D01*
X127749556Y-69982520D01*
X127712602Y-69962120D01*
X127662631Y-69911687D01*
X127647859Y-69842245D01*
X127672975Y-69775839D01*
X127700327Y-69749232D01*
X127723797Y-69732491D01*
X127879860Y-69621173D01*
X128038096Y-69463489D01*
X128047670Y-69450166D01*
X128165435Y-69286277D01*
X128168453Y-69282077D01*
X128189320Y-69239857D01*
X128265136Y-69086453D01*
X128265137Y-69086451D01*
X128267430Y-69081811D01*
X128315138Y-68924787D01*
X128330865Y-68873023D01*
X128330865Y-68873021D01*
X128332370Y-68868069D01*
X128361529Y-68646590D01*
X128363156Y-68580000D01*
X128344852Y-68357361D01*
X128290431Y-68140702D01*
X128201354Y-67935840D01*
X128139224Y-67839801D01*
X128082822Y-67752617D01*
X128082820Y-67752614D01*
X128080014Y-67748277D01*
X127929670Y-67583051D01*
X127925619Y-67579852D01*
X127925615Y-67579848D01*
X127758414Y-67447800D01*
X127758410Y-67447798D01*
X127754359Y-67444598D01*
X127713053Y-67421796D01*
X127663084Y-67371364D01*
X127648312Y-67301921D01*
X127673428Y-67235516D01*
X127700780Y-67208909D01*
X127744603Y-67177650D01*
X127879860Y-67081173D01*
X128038096Y-66923489D01*
X128097594Y-66840689D01*
X128165435Y-66746277D01*
X128168453Y-66742077D01*
X128189320Y-66699857D01*
X128265136Y-66546453D01*
X128265137Y-66546451D01*
X128267430Y-66541811D01*
X128332370Y-66328069D01*
X128361529Y-66106590D01*
X128363156Y-66040000D01*
X128344852Y-65817361D01*
X128290431Y-65600702D01*
X128201354Y-65395840D01*
X128139224Y-65299801D01*
X128082822Y-65212617D01*
X128082820Y-65212614D01*
X128080014Y-65208277D01*
X127929670Y-65043051D01*
X127925619Y-65039852D01*
X127925615Y-65039848D01*
X127758414Y-64907800D01*
X127758410Y-64907798D01*
X127754359Y-64904598D01*
X127713053Y-64881796D01*
X127663084Y-64831364D01*
X127648312Y-64761921D01*
X127673428Y-64695516D01*
X127700780Y-64668909D01*
X127744603Y-64637650D01*
X127879860Y-64541173D01*
X128038096Y-64383489D01*
X128097594Y-64300689D01*
X128165435Y-64206277D01*
X128168453Y-64202077D01*
X128189320Y-64159857D01*
X128265136Y-64006453D01*
X128265137Y-64006451D01*
X128267430Y-64001811D01*
X128332370Y-63788069D01*
X128361529Y-63566590D01*
X128362177Y-63540061D01*
X128363074Y-63503365D01*
X128363074Y-63503361D01*
X128363156Y-63500000D01*
X128344852Y-63277361D01*
X128290431Y-63060702D01*
X128201354Y-62855840D01*
X128161906Y-62794862D01*
X128082822Y-62672617D01*
X128082820Y-62672614D01*
X128080014Y-62668277D01*
X127929670Y-62503051D01*
X127925619Y-62499852D01*
X127925615Y-62499848D01*
X127758414Y-62367800D01*
X127758410Y-62367798D01*
X127754359Y-62364598D01*
X127713053Y-62341796D01*
X127663084Y-62291364D01*
X127648312Y-62221921D01*
X127673428Y-62155516D01*
X127700780Y-62128909D01*
X127744603Y-62097650D01*
X127879860Y-62001173D01*
X128038096Y-61843489D01*
X128097594Y-61760689D01*
X128165435Y-61666277D01*
X128168453Y-61662077D01*
X128189320Y-61619857D01*
X128265136Y-61466453D01*
X128265137Y-61466451D01*
X128267430Y-61461811D01*
X128300487Y-61353007D01*
X128330865Y-61253023D01*
X128330865Y-61253021D01*
X128332370Y-61248069D01*
X128361529Y-61026590D01*
X128363156Y-60960000D01*
X128344852Y-60737361D01*
X128290431Y-60520702D01*
X128201354Y-60315840D01*
X128113434Y-60179936D01*
X128082822Y-60132617D01*
X128082820Y-60132614D01*
X128080014Y-60128277D01*
X127929670Y-59963051D01*
X127925619Y-59959852D01*
X127925615Y-59959848D01*
X127758414Y-59827800D01*
X127758410Y-59827798D01*
X127754359Y-59824598D01*
X127558789Y-59716638D01*
X127553920Y-59714914D01*
X127553916Y-59714912D01*
X127353087Y-59643795D01*
X127353083Y-59643794D01*
X127348212Y-59642069D01*
X127343119Y-59641162D01*
X127343116Y-59641161D01*
X127133373Y-59603800D01*
X127133367Y-59603799D01*
X127128284Y-59602894D01*
X127054452Y-59601992D01*
X126910081Y-59600228D01*
X126910079Y-59600228D01*
X126904911Y-59600165D01*
X126684091Y-59633955D01*
X126471756Y-59703357D01*
X126441443Y-59719137D01*
X126369497Y-59756590D01*
X126273607Y-59806507D01*
X126269474Y-59809610D01*
X126269471Y-59809612D01*
X126169374Y-59884767D01*
X126094965Y-59940635D01*
X126091393Y-59944373D01*
X125949748Y-60092596D01*
X125940629Y-60102138D01*
X125833201Y-60259621D01*
X125778293Y-60304621D01*
X125707768Y-60312792D01*
X125644021Y-60281538D01*
X125623324Y-60257054D01*
X125542822Y-60132617D01*
X125542820Y-60132614D01*
X125540014Y-60128277D01*
X125389670Y-59963051D01*
X125385619Y-59959852D01*
X125385615Y-59959848D01*
X125218414Y-59827800D01*
X125218410Y-59827798D01*
X125214359Y-59824598D01*
X125018789Y-59716638D01*
X125013920Y-59714914D01*
X125013916Y-59714912D01*
X124813087Y-59643795D01*
X124813083Y-59643794D01*
X124808212Y-59642069D01*
X124803119Y-59641162D01*
X124803116Y-59641161D01*
X124593373Y-59603800D01*
X124593367Y-59603799D01*
X124588284Y-59602894D01*
X124514452Y-59601992D01*
X124370081Y-59600228D01*
X124370079Y-59600228D01*
X124364911Y-59600165D01*
X124144091Y-59633955D01*
X123931756Y-59703357D01*
X123901443Y-59719137D01*
X123829497Y-59756590D01*
X123733607Y-59806507D01*
X123729474Y-59809610D01*
X123729471Y-59809612D01*
X123629374Y-59884767D01*
X123554965Y-59940635D01*
X123551393Y-59944373D01*
X123409748Y-60092596D01*
X123400629Y-60102138D01*
X123274743Y-60286680D01*
X123259003Y-60320590D01*
X123192278Y-60464337D01*
X123180688Y-60489305D01*
X123120989Y-60704570D01*
X123097251Y-60926695D01*
X123097548Y-60931848D01*
X123097548Y-60931851D01*
X123102857Y-61023919D01*
X123110110Y-61149715D01*
X123111247Y-61154761D01*
X123111248Y-61154767D01*
X123132275Y-61248069D01*
X123159222Y-61367639D01*
X123243266Y-61574616D01*
X123294019Y-61657438D01*
X123357291Y-61760688D01*
X123359987Y-61765088D01*
X123506250Y-61933938D01*
X123678126Y-62076632D01*
X123748595Y-62117811D01*
X123751445Y-62119476D01*
X123800169Y-62171114D01*
X123813240Y-62240897D01*
X123786509Y-62306669D01*
X123746055Y-62340027D01*
X123733607Y-62346507D01*
X123729474Y-62349610D01*
X123729471Y-62349612D01*
X123559100Y-62477530D01*
X123554965Y-62480635D01*
X123400629Y-62642138D01*
X123274743Y-62826680D01*
X123180688Y-63029305D01*
X123120989Y-63244570D01*
X123097251Y-63466695D01*
X123097548Y-63471848D01*
X123097548Y-63471851D01*
X123105427Y-63608502D01*
X123110110Y-63689715D01*
X123111247Y-63694761D01*
X123111248Y-63694767D01*
X123118174Y-63725499D01*
X123159222Y-63907639D01*
X123243266Y-64114616D01*
X123294019Y-64197438D01*
X123357291Y-64300688D01*
X123359987Y-64305088D01*
X123506250Y-64473938D01*
X123678126Y-64616632D01*
X123748595Y-64657811D01*
X123751445Y-64659476D01*
X123800169Y-64711114D01*
X123813240Y-64780897D01*
X123786509Y-64846669D01*
X123746055Y-64880027D01*
X123733607Y-64886507D01*
X123729474Y-64889610D01*
X123729471Y-64889612D01*
X123559100Y-65017530D01*
X123554965Y-65020635D01*
X123400629Y-65182138D01*
X123274743Y-65366680D01*
X123180688Y-65569305D01*
X123120989Y-65784570D01*
X123097251Y-66006695D01*
X123097548Y-66011848D01*
X123097548Y-66011851D01*
X123103011Y-66106590D01*
X123110110Y-66229715D01*
X123111247Y-66234761D01*
X123111248Y-66234767D01*
X123119374Y-66270824D01*
X123159222Y-66447639D01*
X123243266Y-66654616D01*
X123294019Y-66737438D01*
X123357291Y-66840688D01*
X123359987Y-66845088D01*
X123506250Y-67013938D01*
X123678126Y-67156632D01*
X123748595Y-67197811D01*
X123751445Y-67199476D01*
X123800169Y-67251114D01*
X123813240Y-67320897D01*
X123786509Y-67386669D01*
X123746055Y-67420027D01*
X123733607Y-67426507D01*
X123729474Y-67429610D01*
X123729471Y-67429612D01*
X123559100Y-67557530D01*
X123554965Y-67560635D01*
X123400629Y-67722138D01*
X123274743Y-67906680D01*
X123180688Y-68109305D01*
X123120989Y-68324570D01*
X123097251Y-68546695D01*
X123097548Y-68551848D01*
X123097548Y-68551851D01*
X123107551Y-68725341D01*
X123110110Y-68769715D01*
X123118300Y-68806056D01*
X123113764Y-68876906D01*
X123071643Y-68934057D01*
X123021580Y-68957002D01*
X122990065Y-68963701D01*
X122946283Y-68973007D01*
X122875492Y-68967604D01*
X122818860Y-68924787D01*
X122794367Y-68858149D01*
X122800254Y-68810824D01*
X122811502Y-68776206D01*
X122813542Y-68769928D01*
X122815057Y-68755519D01*
X122832814Y-68586565D01*
X122833504Y-68580000D01*
X122829464Y-68541562D01*
X122814232Y-68396635D01*
X122814232Y-68396633D01*
X122813542Y-68390072D01*
X122754527Y-68208444D01*
X122659040Y-68043056D01*
X122562503Y-67935840D01*
X122535675Y-67906045D01*
X122535674Y-67906044D01*
X122531253Y-67901134D01*
X122376752Y-67788882D01*
X122370724Y-67786198D01*
X122370722Y-67786197D01*
X122208319Y-67713891D01*
X122208318Y-67713891D01*
X122202288Y-67711206D01*
X122108888Y-67691353D01*
X122021944Y-67672872D01*
X122021939Y-67672872D01*
X122015487Y-67671500D01*
X121824513Y-67671500D01*
X121818061Y-67672872D01*
X121818056Y-67672872D01*
X121676284Y-67703007D01*
X121605493Y-67697605D01*
X121548861Y-67654788D01*
X121524367Y-67588150D01*
X121530254Y-67540824D01*
X121541502Y-67506206D01*
X121543542Y-67499928D01*
X121549620Y-67442104D01*
X121562814Y-67316565D01*
X121563504Y-67310000D01*
X121543542Y-67120072D01*
X121484527Y-66938444D01*
X121389040Y-66773056D01*
X121361147Y-66742077D01*
X121265675Y-66636045D01*
X121265674Y-66636044D01*
X121261253Y-66631134D01*
X121138311Y-66541811D01*
X121112094Y-66522763D01*
X121112093Y-66522762D01*
X121106752Y-66518882D01*
X121100724Y-66516198D01*
X121100722Y-66516197D01*
X120938319Y-66443891D01*
X120938318Y-66443891D01*
X120932288Y-66441206D01*
X120838888Y-66421353D01*
X120751944Y-66402872D01*
X120751939Y-66402872D01*
X120745487Y-66401500D01*
X120554513Y-66401500D01*
X120548061Y-66402872D01*
X120548056Y-66402872D01*
X120406284Y-66433007D01*
X120335493Y-66427605D01*
X120278861Y-66384788D01*
X120254367Y-66318150D01*
X120260254Y-66270824D01*
X120271502Y-66236206D01*
X120273542Y-66229928D01*
X120286157Y-66109908D01*
X120292814Y-66046565D01*
X120293504Y-66040000D01*
X120273542Y-65850072D01*
X120214527Y-65668444D01*
X120119040Y-65503056D01*
X120022503Y-65395840D01*
X119995675Y-65366045D01*
X119995674Y-65366044D01*
X119991253Y-65361134D01*
X119836752Y-65248882D01*
X119830724Y-65246198D01*
X119830722Y-65246197D01*
X119668319Y-65173891D01*
X119668318Y-65173891D01*
X119662288Y-65171206D01*
X119568887Y-65151353D01*
X119481944Y-65132872D01*
X119481939Y-65132872D01*
X119475487Y-65131500D01*
X119284513Y-65131500D01*
X119278061Y-65132872D01*
X119278056Y-65132872D01*
X119136284Y-65163007D01*
X119065493Y-65157605D01*
X119008861Y-65114788D01*
X118984367Y-65048150D01*
X118990254Y-65000824D01*
X119001502Y-64966206D01*
X119003542Y-64959928D01*
X119009620Y-64902104D01*
X119022814Y-64776565D01*
X119023504Y-64770000D01*
X119003542Y-64580072D01*
X118944527Y-64398444D01*
X118849040Y-64233056D01*
X118821147Y-64202077D01*
X118725675Y-64096045D01*
X118725674Y-64096044D01*
X118721253Y-64091134D01*
X118598311Y-64001811D01*
X118572094Y-63982763D01*
X118572093Y-63982762D01*
X118566752Y-63978882D01*
X118560724Y-63976198D01*
X118560722Y-63976197D01*
X118398319Y-63903891D01*
X118398318Y-63903891D01*
X118392288Y-63901206D01*
X118298888Y-63881353D01*
X118211944Y-63862872D01*
X118211939Y-63862872D01*
X118205487Y-63861500D01*
X118014513Y-63861500D01*
X118008061Y-63862872D01*
X118008056Y-63862872D01*
X117866284Y-63893007D01*
X117795493Y-63887605D01*
X117738861Y-63844788D01*
X117714367Y-63778150D01*
X117720254Y-63730824D01*
X117731502Y-63696206D01*
X117733542Y-63689928D01*
X117736718Y-63659716D01*
X117752814Y-63506565D01*
X117753504Y-63500000D01*
X117740448Y-63375782D01*
X117734232Y-63316635D01*
X117734232Y-63316633D01*
X117733542Y-63310072D01*
X117674527Y-63128444D01*
X117579040Y-62963056D01*
X117482503Y-62855840D01*
X117455675Y-62826045D01*
X117455674Y-62826044D01*
X117451253Y-62821134D01*
X117296752Y-62708882D01*
X117290724Y-62706198D01*
X117290722Y-62706197D01*
X117128319Y-62633891D01*
X117128318Y-62633891D01*
X117122288Y-62631206D01*
X117009721Y-62607279D01*
X116941944Y-62592872D01*
X116941939Y-62592872D01*
X116935487Y-62591500D01*
X116744513Y-62591500D01*
X116738061Y-62592872D01*
X116738056Y-62592872D01*
X116596284Y-62623007D01*
X116525493Y-62617605D01*
X116468861Y-62574788D01*
X116444367Y-62508150D01*
X116450254Y-62460824D01*
X116461502Y-62426206D01*
X116463542Y-62419928D01*
X116469620Y-62362104D01*
X116482814Y-62236565D01*
X116483504Y-62230000D01*
X116463542Y-62040072D01*
X116404527Y-61858444D01*
X116309040Y-61693056D01*
X116281147Y-61662077D01*
X116185675Y-61556045D01*
X116185674Y-61556044D01*
X116181253Y-61551134D01*
X116058311Y-61461811D01*
X116032094Y-61442763D01*
X116032093Y-61442762D01*
X116026752Y-61438882D01*
X116020724Y-61436198D01*
X116020722Y-61436197D01*
X115858319Y-61363891D01*
X115858318Y-61363891D01*
X115852288Y-61361206D01*
X115730331Y-61335283D01*
X115671944Y-61322872D01*
X115671939Y-61322872D01*
X115665487Y-61321500D01*
X115474513Y-61321500D01*
X115468061Y-61322872D01*
X115468056Y-61322872D01*
X115329121Y-61352404D01*
X115258330Y-61347002D01*
X115201698Y-61304185D01*
X115177204Y-61237547D01*
X115183091Y-61190221D01*
X115194143Y-61156206D01*
X115197454Y-61146016D01*
X115217416Y-60956088D01*
X115207411Y-60860896D01*
X115198144Y-60772723D01*
X115198144Y-60772721D01*
X115197454Y-60766160D01*
X115138439Y-60584532D01*
X115117417Y-60548120D01*
X115084259Y-60490689D01*
X115042952Y-60419144D01*
X114969775Y-60337873D01*
X114939059Y-60273867D01*
X114937412Y-60253564D01*
X114937412Y-55880000D01*
X115526502Y-55880000D01*
X115546457Y-56108087D01*
X115547881Y-56113400D01*
X115547881Y-56113402D01*
X115604226Y-56323681D01*
X115605716Y-56329243D01*
X115608039Y-56334224D01*
X115608039Y-56334225D01*
X115700151Y-56531762D01*
X115700154Y-56531767D01*
X115702477Y-56536749D01*
X115833802Y-56724300D01*
X115995700Y-56886198D01*
X116000208Y-56889355D01*
X116000211Y-56889357D01*
X116078389Y-56944098D01*
X116183251Y-57017523D01*
X116188233Y-57019846D01*
X116188238Y-57019849D01*
X116385775Y-57111961D01*
X116390757Y-57114284D01*
X116396065Y-57115706D01*
X116396067Y-57115707D01*
X116606598Y-57172119D01*
X116606600Y-57172119D01*
X116611913Y-57173543D01*
X116840000Y-57193498D01*
X117068087Y-57173543D01*
X117073400Y-57172119D01*
X117073402Y-57172119D01*
X117283933Y-57115707D01*
X117283935Y-57115706D01*
X117289243Y-57114284D01*
X117294225Y-57111961D01*
X117491762Y-57019849D01*
X117491767Y-57019846D01*
X117496749Y-57017523D01*
X117601611Y-56944098D01*
X117679789Y-56889357D01*
X117679792Y-56889355D01*
X117684300Y-56886198D01*
X117846198Y-56724300D01*
X117977523Y-56536749D01*
X117979846Y-56531767D01*
X117979849Y-56531762D01*
X118071961Y-56334225D01*
X118071961Y-56334224D01*
X118074284Y-56329243D01*
X118075775Y-56323681D01*
X118132119Y-56113402D01*
X118132119Y-56113400D01*
X118133543Y-56108087D01*
X118153498Y-55880000D01*
X125686502Y-55880000D01*
X125706457Y-56108087D01*
X125707881Y-56113400D01*
X125707881Y-56113402D01*
X125764226Y-56323681D01*
X125765716Y-56329243D01*
X125768039Y-56334224D01*
X125768039Y-56334225D01*
X125860151Y-56531762D01*
X125860154Y-56531767D01*
X125862477Y-56536749D01*
X125993802Y-56724300D01*
X126155700Y-56886198D01*
X126160208Y-56889355D01*
X126160211Y-56889357D01*
X126238389Y-56944098D01*
X126343251Y-57017523D01*
X126348233Y-57019846D01*
X126348238Y-57019849D01*
X126545775Y-57111961D01*
X126550757Y-57114284D01*
X126556065Y-57115706D01*
X126556067Y-57115707D01*
X126766598Y-57172119D01*
X126766600Y-57172119D01*
X126771913Y-57173543D01*
X127000000Y-57193498D01*
X127228087Y-57173543D01*
X127233400Y-57172119D01*
X127233402Y-57172119D01*
X127443933Y-57115707D01*
X127443935Y-57115706D01*
X127449243Y-57114284D01*
X127454225Y-57111961D01*
X127651762Y-57019849D01*
X127651767Y-57019846D01*
X127656749Y-57017523D01*
X127761611Y-56944098D01*
X127839789Y-56889357D01*
X127839792Y-56889355D01*
X127844300Y-56886198D01*
X128006198Y-56724300D01*
X128137523Y-56536749D01*
X128139846Y-56531767D01*
X128139849Y-56531762D01*
X128231961Y-56334225D01*
X128231961Y-56334224D01*
X128234284Y-56329243D01*
X128235775Y-56323681D01*
X128292119Y-56113402D01*
X128292119Y-56113400D01*
X128293543Y-56108087D01*
X128313498Y-55880000D01*
X128293543Y-55651913D01*
X128285558Y-55622114D01*
X128235707Y-55436067D01*
X128235706Y-55436065D01*
X128234284Y-55430757D01*
X128227257Y-55415688D01*
X128139849Y-55228238D01*
X128139846Y-55228233D01*
X128137523Y-55223251D01*
X128020051Y-55055484D01*
X128009357Y-55040211D01*
X128009355Y-55040208D01*
X128006198Y-55035700D01*
X127844300Y-54873802D01*
X127839792Y-54870645D01*
X127839789Y-54870643D01*
X127703812Y-54775431D01*
X127656749Y-54742477D01*
X127651767Y-54740154D01*
X127651762Y-54740151D01*
X127454225Y-54648039D01*
X127454224Y-54648039D01*
X127449243Y-54645716D01*
X127443935Y-54644294D01*
X127443933Y-54644293D01*
X127233402Y-54587881D01*
X127233400Y-54587881D01*
X127228087Y-54586457D01*
X127000000Y-54566502D01*
X126771913Y-54586457D01*
X126766600Y-54587881D01*
X126766598Y-54587881D01*
X126556067Y-54644293D01*
X126556065Y-54644294D01*
X126550757Y-54645716D01*
X126545776Y-54648039D01*
X126545775Y-54648039D01*
X126348238Y-54740151D01*
X126348233Y-54740154D01*
X126343251Y-54742477D01*
X126296188Y-54775431D01*
X126160211Y-54870643D01*
X126160208Y-54870645D01*
X126155700Y-54873802D01*
X125993802Y-55035700D01*
X125990645Y-55040208D01*
X125990643Y-55040211D01*
X125979949Y-55055484D01*
X125862477Y-55223251D01*
X125860154Y-55228233D01*
X125860151Y-55228238D01*
X125772743Y-55415688D01*
X125765716Y-55430757D01*
X125764294Y-55436065D01*
X125764293Y-55436067D01*
X125714442Y-55622114D01*
X125706457Y-55651913D01*
X125686502Y-55880000D01*
X118153498Y-55880000D01*
X118133543Y-55651913D01*
X118125558Y-55622114D01*
X118075707Y-55436067D01*
X118075706Y-55436065D01*
X118074284Y-55430757D01*
X118067257Y-55415688D01*
X117979849Y-55228238D01*
X117979846Y-55228233D01*
X117977523Y-55223251D01*
X117860051Y-55055484D01*
X117849357Y-55040211D01*
X117849355Y-55040208D01*
X117846198Y-55035700D01*
X117684300Y-54873802D01*
X117679792Y-54870645D01*
X117679789Y-54870643D01*
X117527229Y-54763819D01*
X117482901Y-54708362D01*
X117473500Y-54660606D01*
X117473500Y-52019394D01*
X117493502Y-51951273D01*
X117527229Y-51916181D01*
X117679789Y-51809357D01*
X117679792Y-51809355D01*
X117684300Y-51806198D01*
X117846198Y-51644300D01*
X117852219Y-51635702D01*
X117962950Y-51477561D01*
X117977523Y-51456749D01*
X117979846Y-51451767D01*
X117979849Y-51451762D01*
X118071961Y-51254225D01*
X118071961Y-51254224D01*
X118074284Y-51249243D01*
X118076060Y-51242617D01*
X118132119Y-51033402D01*
X118132120Y-51033398D01*
X118133543Y-51028087D01*
X118153498Y-50800000D01*
X125686502Y-50800000D01*
X125706457Y-51028087D01*
X125707880Y-51033398D01*
X125707881Y-51033402D01*
X125763941Y-51242617D01*
X125765716Y-51249243D01*
X125768039Y-51254224D01*
X125768039Y-51254225D01*
X125860151Y-51451762D01*
X125860154Y-51451767D01*
X125862477Y-51456749D01*
X125877050Y-51477561D01*
X125987782Y-51635702D01*
X125993802Y-51644300D01*
X126155700Y-51806198D01*
X126160208Y-51809355D01*
X126160211Y-51809357D01*
X126214487Y-51847361D01*
X126343251Y-51937523D01*
X126348233Y-51939846D01*
X126348238Y-51939849D01*
X126545775Y-52031961D01*
X126550757Y-52034284D01*
X126556065Y-52035706D01*
X126556067Y-52035707D01*
X126766598Y-52092119D01*
X126766600Y-52092119D01*
X126771913Y-52093543D01*
X127000000Y-52113498D01*
X127228087Y-52093543D01*
X127233398Y-52092120D01*
X127233409Y-52092118D01*
X127291541Y-52076541D01*
X127362517Y-52078230D01*
X127413248Y-52109152D01*
X128869595Y-53565499D01*
X128903621Y-53627811D01*
X128906500Y-53654594D01*
X128906500Y-56447476D01*
X128886498Y-56515597D01*
X128874142Y-56531779D01*
X128800960Y-56613056D01*
X128705473Y-56778444D01*
X128646458Y-56960072D01*
X128645768Y-56966633D01*
X128645768Y-56966635D01*
X128640420Y-57017523D01*
X128626496Y-57150000D01*
X128646458Y-57339928D01*
X128705473Y-57521556D01*
X128800960Y-57686944D01*
X128928747Y-57828866D01*
X129083248Y-57941118D01*
X129089276Y-57943802D01*
X129089278Y-57943803D01*
X129247656Y-58014317D01*
X129257712Y-58018794D01*
X129351112Y-58038647D01*
X129438056Y-58057128D01*
X129438061Y-58057128D01*
X129444513Y-58058500D01*
X129635487Y-58058500D01*
X129641939Y-58057128D01*
X129641944Y-58057128D01*
X129728888Y-58038647D01*
X129822288Y-58018794D01*
X129832344Y-58014317D01*
X129990722Y-57943803D01*
X129990724Y-57943802D01*
X129996752Y-57941118D01*
X130151253Y-57828866D01*
X130279040Y-57686944D01*
X130374527Y-57521556D01*
X130433542Y-57339928D01*
X130453504Y-57150000D01*
X130439580Y-57017523D01*
X130434232Y-56966635D01*
X130434232Y-56966633D01*
X130433542Y-56960072D01*
X130374527Y-56778444D01*
X130279040Y-56613056D01*
X130205863Y-56531785D01*
X130175147Y-56467779D01*
X130173500Y-56447476D01*
X130173500Y-53418763D01*
X130174027Y-53407579D01*
X130175701Y-53400091D01*
X130173562Y-53332032D01*
X130173500Y-53328075D01*
X130173500Y-53300144D01*
X130172994Y-53296138D01*
X130172061Y-53284292D01*
X130170922Y-53248037D01*
X130170673Y-53240110D01*
X130165022Y-53220658D01*
X130161014Y-53201306D01*
X130159468Y-53189068D01*
X130159467Y-53189066D01*
X130158474Y-53181203D01*
X130142194Y-53140086D01*
X130138359Y-53128885D01*
X130126018Y-53086406D01*
X130121985Y-53079587D01*
X130121983Y-53079582D01*
X130115707Y-53068971D01*
X130107010Y-53051221D01*
X130099552Y-53032383D01*
X130092343Y-53022460D01*
X130077848Y-53002510D01*
X130073571Y-52996623D01*
X130067053Y-52986701D01*
X130048578Y-52955460D01*
X130048574Y-52955455D01*
X130044542Y-52948637D01*
X130030218Y-52934313D01*
X130017376Y-52919278D01*
X130005472Y-52902893D01*
X129971406Y-52874711D01*
X129962627Y-52866722D01*
X128309152Y-51213247D01*
X128275126Y-51150935D01*
X128276540Y-51091541D01*
X128293543Y-51028087D01*
X128313498Y-50800000D01*
X128293543Y-50571913D01*
X128234284Y-50350757D01*
X128231961Y-50345775D01*
X128139849Y-50148238D01*
X128139846Y-50148233D01*
X128137523Y-50143251D01*
X128006198Y-49955700D01*
X127844300Y-49793802D01*
X127839792Y-49790645D01*
X127839789Y-49790643D01*
X127729424Y-49713365D01*
X127656749Y-49662477D01*
X127651767Y-49660154D01*
X127651762Y-49660151D01*
X127454225Y-49568039D01*
X127454224Y-49568039D01*
X127449243Y-49565716D01*
X127443935Y-49564294D01*
X127443933Y-49564293D01*
X127233402Y-49507881D01*
X127233400Y-49507881D01*
X127228087Y-49506457D01*
X127000000Y-49486502D01*
X126771913Y-49506457D01*
X126766600Y-49507881D01*
X126766598Y-49507881D01*
X126556067Y-49564293D01*
X126556065Y-49564294D01*
X126550757Y-49565716D01*
X126545776Y-49568039D01*
X126545775Y-49568039D01*
X126348238Y-49660151D01*
X126348233Y-49660154D01*
X126343251Y-49662477D01*
X126270576Y-49713365D01*
X126160211Y-49790643D01*
X126160208Y-49790645D01*
X126155700Y-49793802D01*
X125993802Y-49955700D01*
X125862477Y-50143251D01*
X125860154Y-50148233D01*
X125860151Y-50148238D01*
X125768039Y-50345775D01*
X125765716Y-50350757D01*
X125706457Y-50571913D01*
X125686502Y-50800000D01*
X118153498Y-50800000D01*
X118133543Y-50571913D01*
X118074284Y-50350757D01*
X118071961Y-50345775D01*
X117979849Y-50148238D01*
X117979846Y-50148233D01*
X117977523Y-50143251D01*
X117846198Y-49955700D01*
X117684300Y-49793802D01*
X117679792Y-49790645D01*
X117679789Y-49790643D01*
X117569424Y-49713365D01*
X117496749Y-49662477D01*
X117491767Y-49660154D01*
X117491762Y-49660151D01*
X117294225Y-49568039D01*
X117294224Y-49568039D01*
X117289243Y-49565716D01*
X117283935Y-49564294D01*
X117283933Y-49564293D01*
X117073402Y-49507881D01*
X117073400Y-49507881D01*
X117068087Y-49506457D01*
X116840000Y-49486502D01*
X116611913Y-49506457D01*
X116606600Y-49507881D01*
X116606598Y-49507881D01*
X116396067Y-49564293D01*
X116396065Y-49564294D01*
X116390757Y-49565716D01*
X116385776Y-49568039D01*
X116385775Y-49568039D01*
X116188238Y-49660151D01*
X116188233Y-49660154D01*
X116183251Y-49662477D01*
X116110576Y-49713365D01*
X116000211Y-49790643D01*
X116000208Y-49790645D01*
X115995700Y-49793802D01*
X115833802Y-49955700D01*
X115702477Y-50143251D01*
X115700154Y-50148233D01*
X115700151Y-50148238D01*
X115608039Y-50345775D01*
X115605716Y-50350757D01*
X115546457Y-50571913D01*
X115526502Y-50800000D01*
X115546457Y-51028087D01*
X115547880Y-51033398D01*
X115547881Y-51033402D01*
X115603941Y-51242617D01*
X115605716Y-51249243D01*
X115608039Y-51254224D01*
X115608039Y-51254225D01*
X115700151Y-51451762D01*
X115700154Y-51451767D01*
X115702477Y-51456749D01*
X115717050Y-51477561D01*
X115827782Y-51635702D01*
X115833802Y-51644300D01*
X115995700Y-51806198D01*
X116000208Y-51809355D01*
X116000211Y-51809357D01*
X116152771Y-51916181D01*
X116197099Y-51971638D01*
X116206500Y-52019394D01*
X116206500Y-54660606D01*
X116186498Y-54728727D01*
X116152771Y-54763819D01*
X116000211Y-54870643D01*
X116000208Y-54870645D01*
X115995700Y-54873802D01*
X115833802Y-55035700D01*
X115830645Y-55040208D01*
X115830643Y-55040211D01*
X115819949Y-55055484D01*
X115702477Y-55223251D01*
X115700154Y-55228233D01*
X115700151Y-55228238D01*
X115612743Y-55415688D01*
X115605716Y-55430757D01*
X115604294Y-55436065D01*
X115604293Y-55436067D01*
X115554442Y-55622114D01*
X115546457Y-55651913D01*
X115526502Y-55880000D01*
X114937412Y-55880000D01*
X114937412Y-54574056D01*
X114930019Y-54515538D01*
X114923380Y-54462980D01*
X114923379Y-54462977D01*
X114922386Y-54455115D01*
X114863464Y-54306295D01*
X114769384Y-54176805D01*
X114646056Y-54074779D01*
X114638889Y-54071406D01*
X114638885Y-54071404D01*
X114558752Y-54033697D01*
X114501230Y-54006629D01*
X114344006Y-53976637D01*
X114255512Y-53982204D01*
X114192174Y-53986189D01*
X114192172Y-53986189D01*
X114184262Y-53986687D01*
X114176726Y-53989136D01*
X114176724Y-53989136D01*
X114039579Y-54033697D01*
X114039576Y-54033698D01*
X114032037Y-54036148D01*
X113896894Y-54121912D01*
X113787326Y-54238591D01*
X113710217Y-54378852D01*
X113670412Y-54533882D01*
X113670412Y-58297256D01*
X113650410Y-58365377D01*
X113596754Y-58411870D01*
X113526480Y-58421974D01*
X113502353Y-58416029D01*
X113383091Y-58373796D01*
X113383083Y-58373794D01*
X113378212Y-58372069D01*
X113373119Y-58371162D01*
X113373116Y-58371161D01*
X113163373Y-58333800D01*
X113163367Y-58333799D01*
X113158284Y-58332894D01*
X113084452Y-58331992D01*
X112940081Y-58330228D01*
X112940079Y-58330228D01*
X112934911Y-58330165D01*
X112714091Y-58363955D01*
X112501756Y-58433357D01*
X112303607Y-58536507D01*
X112299474Y-58539610D01*
X112299471Y-58539612D01*
X112275247Y-58557800D01*
X112124965Y-58670635D01*
X111970629Y-58832138D01*
X111844743Y-59016680D01*
X111750688Y-59219305D01*
X111690989Y-59434570D01*
X111667251Y-59656695D01*
X111667548Y-59661848D01*
X111667548Y-59661851D01*
X111673011Y-59756590D01*
X111680110Y-59879715D01*
X111681247Y-59884761D01*
X111681248Y-59884767D01*
X111713453Y-60027668D01*
X111708917Y-60098520D01*
X111679631Y-60144464D01*
X111367747Y-60456348D01*
X111359461Y-60463888D01*
X111352982Y-60468000D01*
X111347557Y-60473777D01*
X111341351Y-60480386D01*
X111280138Y-60516352D01*
X111209198Y-60513515D01*
X111151054Y-60472775D01*
X111124165Y-60407067D01*
X111123500Y-60394134D01*
X111123500Y-56004189D01*
X111143502Y-55936068D01*
X111197158Y-55889575D01*
X111267432Y-55879471D01*
X111294449Y-55886479D01*
X111302557Y-55889575D01*
X111379692Y-55919030D01*
X111384760Y-55920061D01*
X111384763Y-55920062D01*
X111463436Y-55936068D01*
X111598597Y-55963567D01*
X111603772Y-55963757D01*
X111603774Y-55963757D01*
X111816673Y-55971564D01*
X111816677Y-55971564D01*
X111821837Y-55971753D01*
X111826957Y-55971097D01*
X111826959Y-55971097D01*
X112038288Y-55944025D01*
X112038289Y-55944025D01*
X112043416Y-55943368D01*
X112048366Y-55941883D01*
X112252429Y-55880661D01*
X112252434Y-55880659D01*
X112257384Y-55879174D01*
X112457994Y-55780896D01*
X112639860Y-55651173D01*
X112678974Y-55612196D01*
X112752770Y-55538657D01*
X112798096Y-55493489D01*
X112836614Y-55439886D01*
X112925435Y-55316277D01*
X112928453Y-55312077D01*
X112972354Y-55223251D01*
X113025136Y-55116453D01*
X113025137Y-55116451D01*
X113027430Y-55111811D01*
X113071156Y-54967893D01*
X113090865Y-54903023D01*
X113090865Y-54903021D01*
X113092370Y-54898069D01*
X113121529Y-54676590D01*
X113121893Y-54661698D01*
X113123074Y-54613365D01*
X113123074Y-54613361D01*
X113123156Y-54610000D01*
X113104852Y-54387361D01*
X113050431Y-54170702D01*
X112961354Y-53965840D01*
X112840014Y-53778277D01*
X112820779Y-53757138D01*
X112692798Y-53616488D01*
X112661746Y-53552642D01*
X112670141Y-53482143D01*
X112715317Y-53427375D01*
X112741761Y-53413706D01*
X112848297Y-53373767D01*
X112856705Y-53370615D01*
X112973261Y-53283261D01*
X113060615Y-53166705D01*
X113111745Y-53030316D01*
X113118500Y-52968134D01*
X113118500Y-51171866D01*
X113111745Y-51109684D01*
X113060615Y-50973295D01*
X112973261Y-50856739D01*
X112856705Y-50769385D01*
X112720316Y-50718255D01*
X112658134Y-50711500D01*
X110861866Y-50711500D01*
X110799684Y-50718255D01*
X110663295Y-50769385D01*
X110546739Y-50856739D01*
X110459385Y-50973295D01*
X110456233Y-50981703D01*
X110414919Y-51091907D01*
X110372277Y-51148671D01*
X110305716Y-51173371D01*
X110236367Y-51158163D01*
X110203743Y-51132476D01*
X110153151Y-51076875D01*
X110153142Y-51076866D01*
X110149670Y-51073051D01*
X110145619Y-51069852D01*
X110145615Y-51069848D01*
X109978414Y-50937800D01*
X109978410Y-50937798D01*
X109974359Y-50934598D01*
X109956270Y-50924612D01*
X109922136Y-50905769D01*
X109778789Y-50826638D01*
X109773920Y-50824914D01*
X109773916Y-50824912D01*
X109573087Y-50753795D01*
X109573083Y-50753794D01*
X109568212Y-50752069D01*
X109563119Y-50751162D01*
X109563116Y-50751161D01*
X109353373Y-50713800D01*
X109353367Y-50713799D01*
X109348284Y-50712894D01*
X109274452Y-50711992D01*
X109130081Y-50710228D01*
X109130079Y-50710228D01*
X109124911Y-50710165D01*
X108904091Y-50743955D01*
X108691756Y-50813357D01*
X108493607Y-50916507D01*
X108489474Y-50919610D01*
X108489471Y-50919612D01*
X108337917Y-51033402D01*
X108314965Y-51050635D01*
X108288766Y-51078051D01*
X108221280Y-51148671D01*
X108160629Y-51212138D01*
X108053201Y-51369621D01*
X107998293Y-51414621D01*
X107927768Y-51422792D01*
X107864021Y-51391538D01*
X107843324Y-51367054D01*
X107762822Y-51242617D01*
X107762820Y-51242614D01*
X107760014Y-51238277D01*
X107609670Y-51073051D01*
X107605619Y-51069852D01*
X107605615Y-51069848D01*
X107438414Y-50937800D01*
X107438410Y-50937798D01*
X107434359Y-50934598D01*
X107416270Y-50924612D01*
X107382136Y-50905769D01*
X107238789Y-50826638D01*
X107233920Y-50824914D01*
X107233916Y-50824912D01*
X107033087Y-50753795D01*
X107033083Y-50753794D01*
X107028212Y-50752069D01*
X107023119Y-50751162D01*
X107023116Y-50751161D01*
X106813373Y-50713800D01*
X106813367Y-50713799D01*
X106808284Y-50712894D01*
X106734452Y-50711992D01*
X106590081Y-50710228D01*
X106590079Y-50710228D01*
X106584911Y-50710165D01*
X106364091Y-50743955D01*
X106151756Y-50813357D01*
X105953607Y-50916507D01*
X105949474Y-50919610D01*
X105949471Y-50919612D01*
X105797917Y-51033402D01*
X105774965Y-51050635D01*
X105748766Y-51078051D01*
X105681280Y-51148671D01*
X105620629Y-51212138D01*
X105494743Y-51396680D01*
X105400688Y-51599305D01*
X105340989Y-51814570D01*
X105317251Y-52036695D01*
X105317548Y-52041848D01*
X105317548Y-52041851D01*
X105323011Y-52136590D01*
X105330110Y-52259715D01*
X105331247Y-52264761D01*
X105331248Y-52264767D01*
X105363453Y-52407668D01*
X105358917Y-52478520D01*
X105329631Y-52524464D01*
X105113236Y-52740859D01*
X105104950Y-52748399D01*
X105098471Y-52752511D01*
X105093046Y-52758288D01*
X105051846Y-52802162D01*
X105049091Y-52805004D01*
X105029354Y-52824741D01*
X105026874Y-52827938D01*
X105019171Y-52836958D01*
X104988903Y-52869190D01*
X104985084Y-52876136D01*
X104985082Y-52876139D01*
X104979141Y-52886945D01*
X104968290Y-52903464D01*
X104955875Y-52919470D01*
X104952730Y-52926739D01*
X104952727Y-52926743D01*
X104938315Y-52960048D01*
X104933098Y-52970698D01*
X104911794Y-53009451D01*
X104909823Y-53017126D01*
X104909823Y-53017127D01*
X104906756Y-53029073D01*
X104900352Y-53047777D01*
X104892308Y-53066366D01*
X104891069Y-53074189D01*
X104891066Y-53074199D01*
X104885390Y-53110035D01*
X104882984Y-53121655D01*
X104877436Y-53143266D01*
X104871989Y-53164481D01*
X104871989Y-53184735D01*
X104870438Y-53204445D01*
X104867269Y-53224454D01*
X104868015Y-53232346D01*
X104871430Y-53268472D01*
X104871989Y-53280330D01*
X104871989Y-55017732D01*
X104871462Y-55028915D01*
X104869787Y-55036408D01*
X104870036Y-55044334D01*
X104870036Y-55044335D01*
X104871927Y-55104485D01*
X104871989Y-55108444D01*
X104871989Y-55136355D01*
X104872486Y-55140289D01*
X104872486Y-55140290D01*
X104872494Y-55140355D01*
X104873427Y-55152192D01*
X104874816Y-55196388D01*
X104880467Y-55215838D01*
X104884476Y-55235199D01*
X104887015Y-55255296D01*
X104889934Y-55262667D01*
X104889934Y-55262669D01*
X104903293Y-55296411D01*
X104907138Y-55307641D01*
X104919471Y-55350092D01*
X104923504Y-55356911D01*
X104923506Y-55356916D01*
X104929782Y-55367527D01*
X104938477Y-55385275D01*
X104945937Y-55404116D01*
X104950599Y-55410532D01*
X104950599Y-55410533D01*
X104971925Y-55439886D01*
X104978441Y-55449806D01*
X105000947Y-55487861D01*
X105015268Y-55502182D01*
X105028108Y-55517215D01*
X105040017Y-55533606D01*
X105061182Y-55551115D01*
X105074094Y-55561797D01*
X105082873Y-55569787D01*
X106009595Y-56496509D01*
X106043621Y-56558821D01*
X106046500Y-56585604D01*
X106046500Y-60396405D01*
X106026498Y-60464526D01*
X105972842Y-60511019D01*
X105902568Y-60521123D01*
X105837988Y-60491629D01*
X105831405Y-60485500D01*
X105491218Y-60145313D01*
X105457192Y-60083001D01*
X105459755Y-60019589D01*
X105470865Y-59983022D01*
X105472370Y-59978069D01*
X105501529Y-59756590D01*
X105502505Y-59716638D01*
X105503074Y-59693365D01*
X105503074Y-59693361D01*
X105503156Y-59690000D01*
X105484852Y-59467361D01*
X105430431Y-59250702D01*
X105341354Y-59045840D01*
X105220014Y-58858277D01*
X105069670Y-58693051D01*
X105065619Y-58689852D01*
X105065615Y-58689848D01*
X104898414Y-58557800D01*
X104898410Y-58557798D01*
X104894359Y-58554598D01*
X104698789Y-58446638D01*
X104693920Y-58444914D01*
X104693916Y-58444912D01*
X104493087Y-58373795D01*
X104493083Y-58373794D01*
X104488212Y-58372069D01*
X104483119Y-58371162D01*
X104483116Y-58371161D01*
X104273373Y-58333800D01*
X104273367Y-58333799D01*
X104268284Y-58332894D01*
X104194452Y-58331992D01*
X104050081Y-58330228D01*
X104050079Y-58330228D01*
X104044911Y-58330165D01*
X103824091Y-58363955D01*
X103611756Y-58433357D01*
X103413607Y-58536507D01*
X103409474Y-58539610D01*
X103409471Y-58539612D01*
X103385247Y-58557800D01*
X103234965Y-58670635D01*
X103080629Y-58832138D01*
X102954743Y-59016680D01*
X102860688Y-59219305D01*
X102800989Y-59434570D01*
X102777251Y-59656695D01*
X102233500Y-59656695D01*
X102233500Y-57852524D01*
X102253502Y-57784403D01*
X102265858Y-57768221D01*
X102339040Y-57686944D01*
X102434527Y-57521556D01*
X102493542Y-57339928D01*
X102513504Y-57150000D01*
X102499580Y-57017523D01*
X102494232Y-56966635D01*
X102494232Y-56966633D01*
X102493542Y-56960072D01*
X102434527Y-56778444D01*
X102339040Y-56613056D01*
X102265863Y-56531785D01*
X102235147Y-56467779D01*
X102233500Y-56447476D01*
X102233500Y-50232524D01*
X102253502Y-50164403D01*
X102265858Y-50148221D01*
X102339040Y-50066944D01*
X102434527Y-49901556D01*
X102493542Y-49719928D01*
X102499249Y-49665634D01*
X102512814Y-49536565D01*
X102513504Y-49530000D01*
X102500960Y-49410652D01*
X102494232Y-49346635D01*
X102494232Y-49346633D01*
X102493542Y-49340072D01*
X102434527Y-49158444D01*
X102339040Y-48993056D01*
X102211253Y-48851134D01*
X102056752Y-48738882D01*
X102050724Y-48736198D01*
X102050722Y-48736197D01*
X101888319Y-48663891D01*
X101888318Y-48663891D01*
X101882288Y-48661206D01*
X101788888Y-48641353D01*
X101701944Y-48622872D01*
X101701939Y-48622872D01*
X101695487Y-48621500D01*
X101504513Y-48621500D01*
X101498061Y-48622872D01*
X101498056Y-48622872D01*
X101411113Y-48641353D01*
X101317712Y-48661206D01*
X101311682Y-48663891D01*
X101311681Y-48663891D01*
X101149278Y-48736197D01*
X101149276Y-48736198D01*
X101143248Y-48738882D01*
X100988747Y-48851134D01*
X100860960Y-48993056D01*
X100765473Y-49158444D01*
X100706458Y-49340072D01*
X100705768Y-49346633D01*
X100705768Y-49346635D01*
X100699040Y-49410652D01*
X100686496Y-49530000D01*
X100687186Y-49536565D01*
X100700752Y-49665634D01*
X100706458Y-49719928D01*
X100765473Y-49901556D01*
X100860960Y-50066944D01*
X100934137Y-50148215D01*
X100964853Y-50212221D01*
X100966500Y-50232524D01*
X100966500Y-56447476D01*
X100946498Y-56515597D01*
X100934142Y-56531779D01*
X100860960Y-56613056D01*
X100765473Y-56778444D01*
X100706458Y-56960072D01*
X100705768Y-56966633D01*
X100705768Y-56966635D01*
X100700420Y-57017523D01*
X100686496Y-57150000D01*
X100706458Y-57339928D01*
X100765473Y-57521556D01*
X100860960Y-57686944D01*
X100934137Y-57768215D01*
X100964853Y-57832221D01*
X100966500Y-57852524D01*
X100966500Y-96616996D01*
X100946498Y-96685117D01*
X100912771Y-96720209D01*
X100784730Y-96809864D01*
X100784727Y-96809866D01*
X100780219Y-96813023D01*
X100623023Y-96970219D01*
X100619866Y-96974727D01*
X100619864Y-96974730D01*
X100498669Y-97147815D01*
X100495512Y-97152324D01*
X100493189Y-97157306D01*
X100493186Y-97157311D01*
X100443919Y-97262965D01*
X100397001Y-97316250D01*
X100328724Y-97335711D01*
X100260764Y-97315169D01*
X100215529Y-97262965D01*
X100166377Y-97157559D01*
X100160897Y-97148068D01*
X100130206Y-97104235D01*
X100119729Y-97095860D01*
X100106282Y-97102928D01*
X99432022Y-97777188D01*
X99424408Y-97791132D01*
X98757694Y-97791132D01*
X98760924Y-97745968D01*
X98789885Y-97700905D01*
X99747793Y-96742997D01*
X99754223Y-96731223D01*
X99744926Y-96719207D01*
X99701931Y-96689102D01*
X99692445Y-96683624D01*
X99501007Y-96594355D01*
X99490715Y-96590609D01*
X99286691Y-96535941D01*
X99275896Y-96534038D01*
X99065475Y-96515628D01*
X99054525Y-96515628D01*
X98844104Y-96534038D01*
X98833309Y-96535941D01*
X98629285Y-96590609D01*
X98618992Y-96594355D01*
X98602748Y-96601930D01*
X98532556Y-96612590D01*
X98467744Y-96583609D01*
X98428889Y-96524189D01*
X98423500Y-96487734D01*
X98423500Y-85832946D01*
X98443502Y-85764825D01*
X98497158Y-85718332D01*
X98567432Y-85708228D01*
X98623560Y-85731010D01*
X98698737Y-85785629D01*
X98704765Y-85788313D01*
X98704767Y-85788314D01*
X98805013Y-85832946D01*
X98873201Y-85863305D01*
X98966601Y-85883158D01*
X99053545Y-85901639D01*
X99053550Y-85901639D01*
X99060002Y-85903011D01*
X99250976Y-85903011D01*
X99257428Y-85901639D01*
X99257433Y-85901639D01*
X99344377Y-85883158D01*
X99437777Y-85863305D01*
X99505965Y-85832946D01*
X99606211Y-85788314D01*
X99606213Y-85788313D01*
X99612241Y-85785629D01*
X99766742Y-85673377D01*
X99894529Y-85531455D01*
X99990016Y-85366067D01*
X100049031Y-85184439D01*
X100068993Y-84994511D01*
X100049031Y-84804583D01*
X99990016Y-84622955D01*
X99894529Y-84457567D01*
X99821352Y-84376296D01*
X99790636Y-84312290D01*
X99788989Y-84291987D01*
X99788989Y-56044256D01*
X99789516Y-56033073D01*
X99791191Y-56025580D01*
X99790935Y-56017416D01*
X99789051Y-55957503D01*
X99788989Y-55953544D01*
X99788989Y-55925633D01*
X99788484Y-55921633D01*
X99787551Y-55909790D01*
X99786636Y-55880661D01*
X99786162Y-55865599D01*
X99780511Y-55846147D01*
X99776503Y-55826795D01*
X99774956Y-55814552D01*
X99773963Y-55806692D01*
X99766631Y-55788173D01*
X99757689Y-55765586D01*
X99753844Y-55754359D01*
X99747241Y-55731632D01*
X99741507Y-55711896D01*
X99737473Y-55705074D01*
X99737470Y-55705068D01*
X99731195Y-55694457D01*
X99722499Y-55676707D01*
X99717961Y-55665245D01*
X99717958Y-55665240D01*
X99715041Y-55657872D01*
X99689062Y-55622114D01*
X99682546Y-55612196D01*
X99668791Y-55588938D01*
X99660031Y-55574126D01*
X99645707Y-55559802D01*
X99632865Y-55544767D01*
X99627671Y-55537618D01*
X99620961Y-55528382D01*
X99586895Y-55500200D01*
X99578116Y-55492211D01*
X96616218Y-52530313D01*
X96582192Y-52468001D01*
X96584755Y-52404589D01*
X96595865Y-52368022D01*
X96597370Y-52363069D01*
X96626529Y-52141590D01*
X96626733Y-52133240D01*
X96628074Y-52078365D01*
X96628074Y-52078361D01*
X96628156Y-52075000D01*
X96609852Y-51852361D01*
X96555431Y-51635702D01*
X96466354Y-51430840D01*
X96359813Y-51266152D01*
X96347822Y-51247617D01*
X96347820Y-51247614D01*
X96345014Y-51243277D01*
X96194670Y-51078051D01*
X96190619Y-51074852D01*
X96190615Y-51074848D01*
X96023414Y-50942800D01*
X96023410Y-50942798D01*
X96019359Y-50939598D01*
X96010302Y-50934598D01*
X95882266Y-50863919D01*
X95823789Y-50831638D01*
X95818920Y-50829914D01*
X95818916Y-50829912D01*
X95618087Y-50758795D01*
X95618083Y-50758794D01*
X95613212Y-50757069D01*
X95608119Y-50756162D01*
X95608116Y-50756161D01*
X95398373Y-50718800D01*
X95398367Y-50718799D01*
X95393284Y-50717894D01*
X95319452Y-50716992D01*
X95175081Y-50715228D01*
X95175079Y-50715228D01*
X95169911Y-50715165D01*
X94949091Y-50748955D01*
X94736756Y-50818357D01*
X94538607Y-50921507D01*
X94534474Y-50924610D01*
X94534471Y-50924612D01*
X94366624Y-51050635D01*
X94359965Y-51055635D01*
X94205629Y-51217138D01*
X94098201Y-51374621D01*
X94043293Y-51419621D01*
X93972768Y-51427792D01*
X93909021Y-51396538D01*
X93888324Y-51372054D01*
X93807822Y-51247617D01*
X93807820Y-51247614D01*
X93805014Y-51243277D01*
X93654670Y-51078051D01*
X93650619Y-51074852D01*
X93650615Y-51074848D01*
X93483414Y-50942800D01*
X93483410Y-50942798D01*
X93479359Y-50939598D01*
X93470302Y-50934598D01*
X93342266Y-50863919D01*
X93283789Y-50831638D01*
X93278920Y-50829914D01*
X93278916Y-50829912D01*
X93078087Y-50758795D01*
X93078083Y-50758794D01*
X93073212Y-50757069D01*
X93068119Y-50756162D01*
X93068116Y-50756161D01*
X92858373Y-50718800D01*
X92858367Y-50718799D01*
X92853284Y-50717894D01*
X92779452Y-50716992D01*
X92635081Y-50715228D01*
X92635079Y-50715228D01*
X92629911Y-50715165D01*
X92409091Y-50748955D01*
X92196756Y-50818357D01*
X91998607Y-50921507D01*
X91994474Y-50924610D01*
X91994471Y-50924612D01*
X91826624Y-51050635D01*
X91819965Y-51055635D01*
X91665629Y-51217138D01*
X91558201Y-51374621D01*
X91503293Y-51419621D01*
X91432768Y-51427792D01*
X91369021Y-51396538D01*
X91348324Y-51372054D01*
X91267822Y-51247617D01*
X91267820Y-51247614D01*
X91265014Y-51243277D01*
X91114670Y-51078051D01*
X91110619Y-51074852D01*
X91110615Y-51074848D01*
X90943414Y-50942800D01*
X90943410Y-50942798D01*
X90939359Y-50939598D01*
X90930302Y-50934598D01*
X90802266Y-50863919D01*
X90743789Y-50831638D01*
X90738920Y-50829914D01*
X90738916Y-50829912D01*
X90538087Y-50758795D01*
X90538083Y-50758794D01*
X90533212Y-50757069D01*
X90528119Y-50756162D01*
X90528116Y-50756161D01*
X90318373Y-50718800D01*
X90318367Y-50718799D01*
X90313284Y-50717894D01*
X90239452Y-50716992D01*
X90095081Y-50715228D01*
X90095079Y-50715228D01*
X90089911Y-50715165D01*
X89869091Y-50748955D01*
X89656756Y-50818357D01*
X89458607Y-50921507D01*
X89454474Y-50924610D01*
X89454471Y-50924612D01*
X89286624Y-51050635D01*
X89279965Y-51055635D01*
X89125629Y-51217138D01*
X88999743Y-51401680D01*
X88905688Y-51604305D01*
X88845989Y-51819570D01*
X88822251Y-52041695D01*
X88822548Y-52046848D01*
X88822548Y-52046851D01*
X88827914Y-52139908D01*
X88835110Y-52264715D01*
X88836247Y-52269761D01*
X88836248Y-52269767D01*
X88868453Y-52412668D01*
X88863917Y-52483520D01*
X88834631Y-52529464D01*
X87058736Y-54305359D01*
X87050450Y-54312899D01*
X87043971Y-54317011D01*
X87038546Y-54322788D01*
X86997346Y-54366662D01*
X86994591Y-54369504D01*
X86974854Y-54389241D01*
X86972374Y-54392438D01*
X86964671Y-54401458D01*
X86934403Y-54433690D01*
X86930584Y-54440636D01*
X86930582Y-54440639D01*
X86924641Y-54451445D01*
X86913790Y-54467964D01*
X86901375Y-54483970D01*
X86898230Y-54491239D01*
X86898227Y-54491243D01*
X86883815Y-54524548D01*
X86878598Y-54535198D01*
X86857294Y-54573951D01*
X86855323Y-54581626D01*
X86855323Y-54581627D01*
X86852256Y-54593573D01*
X86845852Y-54612277D01*
X86837808Y-54630866D01*
X86836569Y-54638689D01*
X86836566Y-54638699D01*
X86830890Y-54674535D01*
X86828484Y-54686155D01*
X86817489Y-54728981D01*
X86817489Y-54749235D01*
X86815938Y-54768945D01*
X86812769Y-54788954D01*
X86813515Y-54796846D01*
X86816930Y-54832972D01*
X86817489Y-54844830D01*
X86817489Y-61245434D01*
X86797487Y-61313555D01*
X86743831Y-61360048D01*
X86673557Y-61370152D01*
X86652550Y-61365266D01*
X86648319Y-61363891D01*
X86642288Y-61361206D01*
X86575464Y-61347002D01*
X86461944Y-61322872D01*
X86461939Y-61322872D01*
X86455487Y-61321500D01*
X86264513Y-61321500D01*
X86258061Y-61322872D01*
X86258056Y-61322872D01*
X86199669Y-61335283D01*
X86077712Y-61361206D01*
X86071682Y-61363891D01*
X86071681Y-61363891D01*
X85909278Y-61436197D01*
X85909276Y-61436198D01*
X85903248Y-61438882D01*
X85897907Y-61442762D01*
X85897906Y-61442763D01*
X85871689Y-61461811D01*
X85748747Y-61551134D01*
X85744326Y-61556044D01*
X85744325Y-61556045D01*
X85648854Y-61662077D01*
X85620960Y-61693056D01*
X85525473Y-61858444D01*
X85466458Y-62040072D01*
X85446496Y-62230000D01*
X85447186Y-62236565D01*
X85460381Y-62362104D01*
X85466458Y-62419928D01*
X85525473Y-62601556D01*
X85528776Y-62607278D01*
X85528777Y-62607279D01*
X85548903Y-62642138D01*
X85620960Y-62766944D01*
X85694137Y-62848215D01*
X85724853Y-62912221D01*
X85726500Y-62932524D01*
X85726500Y-96616996D01*
X85706498Y-96685117D01*
X85672771Y-96720209D01*
X85544730Y-96809864D01*
X85544727Y-96809866D01*
X85540219Y-96813023D01*
X85383023Y-96970219D01*
X85379866Y-96974727D01*
X85379864Y-96974730D01*
X85258669Y-97147815D01*
X85255512Y-97152324D01*
X85253189Y-97157306D01*
X85253186Y-97157311D01*
X85173131Y-97328990D01*
X85161560Y-97353804D01*
X85104022Y-97568537D01*
X85084647Y-97790000D01*
X83183500Y-97790000D01*
X83183500Y-88563924D01*
X83203502Y-88495803D01*
X83257158Y-88449310D01*
X83327432Y-88439206D01*
X83383560Y-88461988D01*
X83458737Y-88516607D01*
X83464765Y-88519291D01*
X83464767Y-88519292D01*
X83565013Y-88563924D01*
X83633201Y-88594283D01*
X83726602Y-88614136D01*
X83813545Y-88632617D01*
X83813550Y-88632617D01*
X83820002Y-88633989D01*
X84010976Y-88633989D01*
X84017428Y-88632617D01*
X84017433Y-88632617D01*
X84104376Y-88614136D01*
X84197777Y-88594283D01*
X84265965Y-88563924D01*
X84366211Y-88519292D01*
X84366213Y-88519291D01*
X84372241Y-88516607D01*
X84526742Y-88404355D01*
X84563928Y-88363056D01*
X84650110Y-88267341D01*
X84650111Y-88267340D01*
X84654529Y-88262433D01*
X84750016Y-88097045D01*
X84809031Y-87915417D01*
X84809930Y-87906870D01*
X84828303Y-87732054D01*
X84828993Y-87725489D01*
X84812768Y-87571114D01*
X84809721Y-87542124D01*
X84809721Y-87542122D01*
X84809031Y-87535561D01*
X84750016Y-87353933D01*
X84654529Y-87188545D01*
X84581352Y-87107274D01*
X84550636Y-87043268D01*
X84548989Y-87022965D01*
X84548989Y-54784256D01*
X84549516Y-54773073D01*
X84551191Y-54765580D01*
X84549051Y-54697503D01*
X84548989Y-54693544D01*
X84548989Y-54665633D01*
X84548484Y-54661633D01*
X84547551Y-54649790D01*
X84547203Y-54638699D01*
X84546162Y-54605599D01*
X84540511Y-54586147D01*
X84536503Y-54566795D01*
X84534956Y-54554552D01*
X84533963Y-54546692D01*
X84529417Y-54535209D01*
X84517689Y-54505586D01*
X84513844Y-54494359D01*
X84512939Y-54491243D01*
X84501507Y-54451896D01*
X84497473Y-54445074D01*
X84497470Y-54445068D01*
X84491195Y-54434457D01*
X84482499Y-54416707D01*
X84477961Y-54405245D01*
X84477958Y-54405240D01*
X84475041Y-54397872D01*
X84454431Y-54369504D01*
X84449062Y-54362114D01*
X84442546Y-54352196D01*
X84429066Y-54329404D01*
X84420031Y-54314126D01*
X84405707Y-54299802D01*
X84392865Y-54284767D01*
X84380961Y-54268382D01*
X84346895Y-54240200D01*
X84338116Y-54232211D01*
X82631218Y-52525313D01*
X82597192Y-52463001D01*
X82599755Y-52399589D01*
X82610865Y-52363022D01*
X82612370Y-52358069D01*
X82641529Y-52136590D01*
X82642105Y-52113019D01*
X82643074Y-52073365D01*
X82643074Y-52073361D01*
X82643156Y-52070000D01*
X82624852Y-51847361D01*
X82570431Y-51630702D01*
X82481354Y-51425840D01*
X82375544Y-51262282D01*
X82362822Y-51242617D01*
X82362820Y-51242614D01*
X82360014Y-51238277D01*
X82209670Y-51073051D01*
X82205619Y-51069852D01*
X82205615Y-51069848D01*
X82038414Y-50937800D01*
X82038410Y-50937798D01*
X82034359Y-50934598D01*
X82016270Y-50924612D01*
X81982136Y-50905769D01*
X81838789Y-50826638D01*
X81833920Y-50824914D01*
X81833916Y-50824912D01*
X81633087Y-50753795D01*
X81633083Y-50753794D01*
X81628212Y-50752069D01*
X81623119Y-50751162D01*
X81623116Y-50751161D01*
X81413373Y-50713800D01*
X81413367Y-50713799D01*
X81408284Y-50712894D01*
X81334452Y-50711992D01*
X81190081Y-50710228D01*
X81190079Y-50710228D01*
X81184911Y-50710165D01*
X80964091Y-50743955D01*
X80751756Y-50813357D01*
X80553607Y-50916507D01*
X80549474Y-50919610D01*
X80549471Y-50919612D01*
X80397917Y-51033402D01*
X80374965Y-51050635D01*
X80348766Y-51078051D01*
X80281280Y-51148671D01*
X80220629Y-51212138D01*
X80113201Y-51369621D01*
X80058293Y-51414621D01*
X79987768Y-51422792D01*
X79924021Y-51391538D01*
X79903324Y-51367054D01*
X79822822Y-51242617D01*
X79822820Y-51242614D01*
X79820014Y-51238277D01*
X79669670Y-51073051D01*
X79665619Y-51069852D01*
X79665615Y-51069848D01*
X79498414Y-50937800D01*
X79498410Y-50937798D01*
X79494359Y-50934598D01*
X79476270Y-50924612D01*
X79442136Y-50905769D01*
X79298789Y-50826638D01*
X79293920Y-50824914D01*
X79293916Y-50824912D01*
X79093087Y-50753795D01*
X79093083Y-50753794D01*
X79088212Y-50752069D01*
X79083119Y-50751162D01*
X79083116Y-50751161D01*
X78873373Y-50713800D01*
X78873367Y-50713799D01*
X78868284Y-50712894D01*
X78794452Y-50711992D01*
X78650081Y-50710228D01*
X78650079Y-50710228D01*
X78644911Y-50710165D01*
X78424091Y-50743955D01*
X78211756Y-50813357D01*
X78013607Y-50916507D01*
X78009474Y-50919610D01*
X78009471Y-50919612D01*
X77857917Y-51033402D01*
X77834965Y-51050635D01*
X77808766Y-51078051D01*
X77741280Y-51148671D01*
X77680629Y-51212138D01*
X77573201Y-51369621D01*
X77518293Y-51414621D01*
X77447768Y-51422792D01*
X77384021Y-51391538D01*
X77363324Y-51367054D01*
X77282822Y-51242617D01*
X77282820Y-51242614D01*
X77280014Y-51238277D01*
X77129670Y-51073051D01*
X77125619Y-51069852D01*
X77125615Y-51069848D01*
X76958414Y-50937800D01*
X76958410Y-50937798D01*
X76954359Y-50934598D01*
X76936270Y-50924612D01*
X76902136Y-50905769D01*
X76758789Y-50826638D01*
X76753920Y-50824914D01*
X76753916Y-50824912D01*
X76553087Y-50753795D01*
X76553083Y-50753794D01*
X76548212Y-50752069D01*
X76543119Y-50751162D01*
X76543116Y-50751161D01*
X76333373Y-50713800D01*
X76333367Y-50713799D01*
X76328284Y-50712894D01*
X76254452Y-50711992D01*
X76110081Y-50710228D01*
X76110079Y-50710228D01*
X76104911Y-50710165D01*
X75884091Y-50743955D01*
X75671756Y-50813357D01*
X75473607Y-50916507D01*
X75469474Y-50919610D01*
X75469471Y-50919612D01*
X75317917Y-51033402D01*
X75294965Y-51050635D01*
X75268766Y-51078051D01*
X75201280Y-51148671D01*
X75140629Y-51212138D01*
X75014743Y-51396680D01*
X74920688Y-51599305D01*
X74860989Y-51814570D01*
X74837251Y-52036695D01*
X74837548Y-52041848D01*
X74837548Y-52041851D01*
X74843011Y-52136590D01*
X74850110Y-52259715D01*
X74851247Y-52264761D01*
X74851248Y-52264767D01*
X74883453Y-52407668D01*
X74878917Y-52478520D01*
X74849631Y-52524464D01*
X74537747Y-52836348D01*
X74529461Y-52843888D01*
X74522982Y-52848000D01*
X74517557Y-52853777D01*
X74476357Y-52897651D01*
X74473602Y-52900493D01*
X74453865Y-52920230D01*
X74451385Y-52923427D01*
X74443682Y-52932447D01*
X74413414Y-52964679D01*
X74409595Y-52971625D01*
X74409593Y-52971628D01*
X74403652Y-52982434D01*
X74392801Y-52998953D01*
X74380386Y-53014959D01*
X74377241Y-53022228D01*
X74377238Y-53022232D01*
X74362826Y-53055537D01*
X74357609Y-53066187D01*
X74336305Y-53104940D01*
X74334334Y-53112615D01*
X74334334Y-53112616D01*
X74331267Y-53124562D01*
X74324863Y-53143266D01*
X74316819Y-53161855D01*
X74315580Y-53169678D01*
X74315577Y-53169688D01*
X74309901Y-53205524D01*
X74307495Y-53217144D01*
X74303045Y-53234476D01*
X74296500Y-53259970D01*
X74296500Y-53280224D01*
X74294949Y-53299934D01*
X74291780Y-53319943D01*
X74292526Y-53327835D01*
X74295941Y-53363961D01*
X74296500Y-53375819D01*
X74296500Y-60055218D01*
X74276498Y-60123339D01*
X74222842Y-60169832D01*
X74152568Y-60179936D01*
X74117270Y-60167718D01*
X74116752Y-60168882D01*
X73948319Y-60093891D01*
X73948318Y-60093891D01*
X73942288Y-60091206D01*
X73848888Y-60071353D01*
X73761944Y-60052872D01*
X73761939Y-60052872D01*
X73755487Y-60051500D01*
X73564513Y-60051500D01*
X73558061Y-60052872D01*
X73558056Y-60052872D01*
X73471112Y-60071353D01*
X73377712Y-60091206D01*
X73371682Y-60093891D01*
X73371681Y-60093891D01*
X73209278Y-60166197D01*
X73209276Y-60166198D01*
X73203248Y-60168882D01*
X73197907Y-60172762D01*
X73197906Y-60172763D01*
X73147843Y-60209136D01*
X73048747Y-60281134D01*
X73044326Y-60286044D01*
X73044325Y-60286045D01*
X72935357Y-60407067D01*
X72920960Y-60423056D01*
X72885422Y-60484610D01*
X72836909Y-60568637D01*
X72825473Y-60588444D01*
X72766458Y-60770072D01*
X72765768Y-60776633D01*
X72765768Y-60776635D01*
X72763200Y-60801071D01*
X72746496Y-60960000D01*
X72747186Y-60966565D01*
X72765594Y-61141703D01*
X72766458Y-61149928D01*
X72768498Y-61156206D01*
X72779746Y-61190824D01*
X72781774Y-61261791D01*
X72745111Y-61322589D01*
X72681399Y-61353915D01*
X72633716Y-61353007D01*
X72491944Y-61322872D01*
X72491939Y-61322872D01*
X72485487Y-61321500D01*
X72294513Y-61321500D01*
X72288061Y-61322872D01*
X72288056Y-61322872D01*
X72229669Y-61335283D01*
X72107712Y-61361206D01*
X72101682Y-61363891D01*
X72101681Y-61363891D01*
X71939278Y-61436197D01*
X71939276Y-61436198D01*
X71933248Y-61438882D01*
X71927907Y-61442762D01*
X71927906Y-61442763D01*
X71901689Y-61461811D01*
X71778747Y-61551134D01*
X71774326Y-61556044D01*
X71774325Y-61556045D01*
X71678854Y-61662077D01*
X71650960Y-61693056D01*
X71555473Y-61858444D01*
X71496458Y-62040072D01*
X71476496Y-62230000D01*
X71477186Y-62236565D01*
X71490381Y-62362104D01*
X71496458Y-62419928D01*
X71498498Y-62426206D01*
X71509746Y-62460824D01*
X71511774Y-62531791D01*
X71475111Y-62592589D01*
X71411399Y-62623915D01*
X71363716Y-62623007D01*
X71221944Y-62592872D01*
X71221939Y-62592872D01*
X71215487Y-62591500D01*
X71024513Y-62591500D01*
X71018061Y-62592872D01*
X71018056Y-62592872D01*
X70950279Y-62607279D01*
X70837712Y-62631206D01*
X70831682Y-62633891D01*
X70831681Y-62633891D01*
X70669278Y-62706197D01*
X70669276Y-62706198D01*
X70663248Y-62708882D01*
X70508747Y-62821134D01*
X70504326Y-62826044D01*
X70504325Y-62826045D01*
X70477498Y-62855840D01*
X70380960Y-62963056D01*
X70285473Y-63128444D01*
X70226458Y-63310072D01*
X70225768Y-63316633D01*
X70225768Y-63316635D01*
X70219552Y-63375782D01*
X70206496Y-63500000D01*
X70207186Y-63506565D01*
X70223283Y-63659716D01*
X70226458Y-63689928D01*
X70228498Y-63696206D01*
X70239746Y-63730824D01*
X70241774Y-63801791D01*
X70205111Y-63862589D01*
X70141399Y-63893915D01*
X70093716Y-63893007D01*
X69951944Y-63862872D01*
X69951939Y-63862872D01*
X69945487Y-63861500D01*
X69754513Y-63861500D01*
X69748061Y-63862872D01*
X69748056Y-63862872D01*
X69661112Y-63881353D01*
X69567712Y-63901206D01*
X69561682Y-63903891D01*
X69561681Y-63903891D01*
X69399278Y-63976197D01*
X69399276Y-63976198D01*
X69393248Y-63978882D01*
X69387907Y-63982762D01*
X69387906Y-63982763D01*
X69361689Y-64001811D01*
X69238747Y-64091134D01*
X69234326Y-64096044D01*
X69234325Y-64096045D01*
X69138854Y-64202077D01*
X69110960Y-64233056D01*
X69015473Y-64398444D01*
X68956458Y-64580072D01*
X68936496Y-64770000D01*
X68937186Y-64776565D01*
X68950381Y-64902104D01*
X68956458Y-64959928D01*
X68958498Y-64966206D01*
X68969746Y-65000824D01*
X68971774Y-65071791D01*
X68935111Y-65132589D01*
X68871399Y-65163915D01*
X68823716Y-65163007D01*
X68681944Y-65132872D01*
X68681939Y-65132872D01*
X68675487Y-65131500D01*
X68484513Y-65131500D01*
X68478061Y-65132872D01*
X68478056Y-65132872D01*
X68391113Y-65151353D01*
X68297712Y-65171206D01*
X68291682Y-65173891D01*
X68291681Y-65173891D01*
X68129278Y-65246197D01*
X68129276Y-65246198D01*
X68123248Y-65248882D01*
X67968747Y-65361134D01*
X67964326Y-65366044D01*
X67964325Y-65366045D01*
X67937498Y-65395840D01*
X67840960Y-65503056D01*
X67745473Y-65668444D01*
X67686458Y-65850072D01*
X67666496Y-66040000D01*
X67667186Y-66046565D01*
X67673844Y-66109908D01*
X67686458Y-66229928D01*
X67688498Y-66236206D01*
X67699746Y-66270824D01*
X67701774Y-66341791D01*
X67665111Y-66402589D01*
X67601399Y-66433915D01*
X67553716Y-66433007D01*
X67411944Y-66402872D01*
X67411939Y-66402872D01*
X67405487Y-66401500D01*
X67214513Y-66401500D01*
X67208061Y-66402872D01*
X67208056Y-66402872D01*
X67121112Y-66421353D01*
X67027712Y-66441206D01*
X67021682Y-66443891D01*
X67021681Y-66443891D01*
X66859278Y-66516197D01*
X66859276Y-66516198D01*
X66853248Y-66518882D01*
X66847907Y-66522762D01*
X66847906Y-66522763D01*
X66821689Y-66541811D01*
X66698747Y-66631134D01*
X66694326Y-66636044D01*
X66694325Y-66636045D01*
X66598854Y-66742077D01*
X66570960Y-66773056D01*
X66475473Y-66938444D01*
X66416458Y-67120072D01*
X66396496Y-67310000D01*
X66397186Y-67316565D01*
X66410381Y-67442104D01*
X66416458Y-67499928D01*
X66418498Y-67506206D01*
X66429746Y-67540824D01*
X66431774Y-67611791D01*
X66395111Y-67672589D01*
X66331399Y-67703915D01*
X66283716Y-67703007D01*
X66141944Y-67672872D01*
X66141939Y-67672872D01*
X66135487Y-67671500D01*
X65944513Y-67671500D01*
X65938061Y-67672872D01*
X65938056Y-67672872D01*
X65851112Y-67691353D01*
X65757712Y-67711206D01*
X65751682Y-67713891D01*
X65751681Y-67713891D01*
X65589278Y-67786197D01*
X65589276Y-67786198D01*
X65583248Y-67788882D01*
X65428747Y-67901134D01*
X65424326Y-67906044D01*
X65424325Y-67906045D01*
X65397498Y-67935840D01*
X65300960Y-68043056D01*
X65205473Y-68208444D01*
X65146458Y-68390072D01*
X65145768Y-68396633D01*
X65145768Y-68396635D01*
X65130536Y-68541562D01*
X65126496Y-68580000D01*
X65127186Y-68586565D01*
X65144944Y-68755519D01*
X65146458Y-68769928D01*
X65148498Y-68776206D01*
X65159746Y-68810824D01*
X65161774Y-68881791D01*
X65125111Y-68942589D01*
X65061399Y-68973915D01*
X65013717Y-68973007D01*
X64958372Y-68961243D01*
X64937796Y-68956870D01*
X64875322Y-68923142D01*
X64841001Y-68860993D01*
X64839070Y-68817176D01*
X64839907Y-68810824D01*
X64861529Y-68646590D01*
X64863156Y-68580000D01*
X64844852Y-68357361D01*
X64790431Y-68140702D01*
X64701354Y-67935840D01*
X64639224Y-67839801D01*
X64582822Y-67752617D01*
X64582820Y-67752614D01*
X64580014Y-67748277D01*
X64429670Y-67583051D01*
X64425619Y-67579852D01*
X64425615Y-67579848D01*
X64258414Y-67447800D01*
X64258410Y-67447798D01*
X64254359Y-67444598D01*
X64213053Y-67421796D01*
X64163084Y-67371364D01*
X64148312Y-67301921D01*
X64173428Y-67235516D01*
X64200780Y-67208909D01*
X64244603Y-67177650D01*
X64379860Y-67081173D01*
X64538096Y-66923489D01*
X64597594Y-66840689D01*
X64665435Y-66746277D01*
X64668453Y-66742077D01*
X64689320Y-66699857D01*
X64765136Y-66546453D01*
X64765137Y-66546451D01*
X64767430Y-66541811D01*
X64832370Y-66328069D01*
X64861529Y-66106590D01*
X64863156Y-66040000D01*
X64844852Y-65817361D01*
X64790431Y-65600702D01*
X64701354Y-65395840D01*
X64639224Y-65299801D01*
X64582822Y-65212617D01*
X64582820Y-65212614D01*
X64580014Y-65208277D01*
X64429670Y-65043051D01*
X64425619Y-65039852D01*
X64425615Y-65039848D01*
X64258414Y-64907800D01*
X64258410Y-64907798D01*
X64254359Y-64904598D01*
X64213053Y-64881796D01*
X64163084Y-64831364D01*
X64148312Y-64761921D01*
X64173428Y-64695516D01*
X64200780Y-64668909D01*
X64244603Y-64637650D01*
X64379860Y-64541173D01*
X64538096Y-64383489D01*
X64597594Y-64300689D01*
X64665435Y-64206277D01*
X64668453Y-64202077D01*
X64689320Y-64159857D01*
X64765136Y-64006453D01*
X64765137Y-64006451D01*
X64767430Y-64001811D01*
X64832370Y-63788069D01*
X64861529Y-63566590D01*
X64862177Y-63540061D01*
X64863074Y-63503365D01*
X64863074Y-63503361D01*
X64863156Y-63500000D01*
X64844852Y-63277361D01*
X64790431Y-63060702D01*
X64701354Y-62855840D01*
X64661906Y-62794862D01*
X64582822Y-62672617D01*
X64582820Y-62672614D01*
X64580014Y-62668277D01*
X64429670Y-62503051D01*
X64425619Y-62499852D01*
X64425615Y-62499848D01*
X64258414Y-62367800D01*
X64258410Y-62367798D01*
X64254359Y-62364598D01*
X64213053Y-62341796D01*
X64163084Y-62291364D01*
X64148312Y-62221921D01*
X64173428Y-62155516D01*
X64200780Y-62128909D01*
X64244603Y-62097650D01*
X64379860Y-62001173D01*
X64538096Y-61843489D01*
X64597594Y-61760689D01*
X64665435Y-61666277D01*
X64668453Y-61662077D01*
X64689320Y-61619857D01*
X64765136Y-61466453D01*
X64765137Y-61466451D01*
X64767430Y-61461811D01*
X64800487Y-61353007D01*
X64830865Y-61253023D01*
X64830865Y-61253021D01*
X64832370Y-61248069D01*
X64861529Y-61026590D01*
X64863156Y-60960000D01*
X64844852Y-60737361D01*
X64790431Y-60520702D01*
X64701354Y-60315840D01*
X64613434Y-60179936D01*
X64582822Y-60132617D01*
X64582820Y-60132614D01*
X64580014Y-60128277D01*
X64429670Y-59963051D01*
X64425619Y-59959852D01*
X64425615Y-59959848D01*
X64258414Y-59827800D01*
X64258410Y-59827798D01*
X64254359Y-59824598D01*
X64058789Y-59716638D01*
X64053920Y-59714914D01*
X64053916Y-59714912D01*
X63853087Y-59643795D01*
X63853083Y-59643794D01*
X63848212Y-59642069D01*
X63843119Y-59641162D01*
X63843116Y-59641161D01*
X63633373Y-59603800D01*
X63633367Y-59603799D01*
X63628284Y-59602894D01*
X63554452Y-59601992D01*
X63410081Y-59600228D01*
X63410079Y-59600228D01*
X63404911Y-59600165D01*
X63184091Y-59633955D01*
X62971756Y-59703357D01*
X62941443Y-59719137D01*
X62869497Y-59756590D01*
X62773607Y-59806507D01*
X62769474Y-59809610D01*
X62769471Y-59809612D01*
X62669374Y-59884767D01*
X62594965Y-59940635D01*
X62591393Y-59944373D01*
X62449748Y-60092596D01*
X62440629Y-60102138D01*
X62333201Y-60259621D01*
X62278293Y-60304621D01*
X62207768Y-60312792D01*
X62144021Y-60281538D01*
X62123324Y-60257054D01*
X62042822Y-60132617D01*
X62042820Y-60132614D01*
X62040014Y-60128277D01*
X61889670Y-59963051D01*
X61885619Y-59959852D01*
X61885615Y-59959848D01*
X61718414Y-59827800D01*
X61718410Y-59827798D01*
X61714359Y-59824598D01*
X61518789Y-59716638D01*
X61513920Y-59714914D01*
X61513916Y-59714912D01*
X61313087Y-59643795D01*
X61313083Y-59643794D01*
X61308212Y-59642069D01*
X61303119Y-59641162D01*
X61303116Y-59641161D01*
X61093373Y-59603800D01*
X61093367Y-59603799D01*
X61088284Y-59602894D01*
X61014452Y-59601992D01*
X60870081Y-59600228D01*
X60870079Y-59600228D01*
X60864911Y-59600165D01*
X60644091Y-59633955D01*
X60431756Y-59703357D01*
X60401443Y-59719137D01*
X60329497Y-59756590D01*
X60233607Y-59806507D01*
X60229474Y-59809610D01*
X60229471Y-59809612D01*
X60129374Y-59884767D01*
X60054965Y-59940635D01*
X60051393Y-59944373D01*
X59909748Y-60092596D01*
X59900629Y-60102138D01*
X59774743Y-60286680D01*
X59759003Y-60320590D01*
X59692278Y-60464337D01*
X59680688Y-60489305D01*
X59620989Y-60704570D01*
X59597251Y-60926695D01*
X59597548Y-60931848D01*
X59597548Y-60931851D01*
X59602857Y-61023919D01*
X59610110Y-61149715D01*
X59611247Y-61154761D01*
X59611248Y-61154767D01*
X59632275Y-61248069D01*
X59659222Y-61367639D01*
X59743266Y-61574616D01*
X59794019Y-61657438D01*
X59857291Y-61760688D01*
X59859987Y-61765088D01*
X60006250Y-61933938D01*
X60178126Y-62076632D01*
X60248595Y-62117811D01*
X60251445Y-62119476D01*
X60300169Y-62171114D01*
X60313240Y-62240897D01*
X60286509Y-62306669D01*
X60246055Y-62340027D01*
X60233607Y-62346507D01*
X60229474Y-62349610D01*
X60229471Y-62349612D01*
X60059100Y-62477530D01*
X60054965Y-62480635D01*
X59900629Y-62642138D01*
X59774743Y-62826680D01*
X59680688Y-63029305D01*
X59620989Y-63244570D01*
X59597251Y-63466695D01*
X59597548Y-63471848D01*
X59597548Y-63471851D01*
X59605427Y-63608502D01*
X59610110Y-63689715D01*
X59611247Y-63694761D01*
X59611248Y-63694767D01*
X59618174Y-63725499D01*
X59659222Y-63907639D01*
X59743266Y-64114616D01*
X59794019Y-64197438D01*
X59857291Y-64300688D01*
X59859987Y-64305088D01*
X60006250Y-64473938D01*
X60178126Y-64616632D01*
X60248595Y-64657811D01*
X60251445Y-64659476D01*
X60300169Y-64711114D01*
X60313240Y-64780897D01*
X60286509Y-64846669D01*
X60246055Y-64880027D01*
X60233607Y-64886507D01*
X60229474Y-64889610D01*
X60229471Y-64889612D01*
X60059100Y-65017530D01*
X60054965Y-65020635D01*
X59900629Y-65182138D01*
X59774743Y-65366680D01*
X59680688Y-65569305D01*
X59620989Y-65784570D01*
X59597251Y-66006695D01*
X59597548Y-66011848D01*
X59597548Y-66011851D01*
X59603011Y-66106590D01*
X59610110Y-66229715D01*
X59611247Y-66234761D01*
X59611248Y-66234767D01*
X59619374Y-66270824D01*
X59659222Y-66447639D01*
X59743266Y-66654616D01*
X59794019Y-66737438D01*
X59857291Y-66840688D01*
X59859987Y-66845088D01*
X60006250Y-67013938D01*
X60178126Y-67156632D01*
X60248595Y-67197811D01*
X60251445Y-67199476D01*
X60300169Y-67251114D01*
X60313240Y-67320897D01*
X60286509Y-67386669D01*
X60246055Y-67420027D01*
X60233607Y-67426507D01*
X60229474Y-67429610D01*
X60229471Y-67429612D01*
X60059100Y-67557530D01*
X60054965Y-67560635D01*
X59900629Y-67722138D01*
X59774743Y-67906680D01*
X59680688Y-68109305D01*
X59620989Y-68324570D01*
X59597251Y-68546695D01*
X59597548Y-68551848D01*
X59597548Y-68551851D01*
X59607551Y-68725341D01*
X59610110Y-68769715D01*
X59611247Y-68774761D01*
X59611248Y-68774767D01*
X59618299Y-68806054D01*
X59659222Y-68987639D01*
X59743266Y-69194616D01*
X59782638Y-69258866D01*
X59857291Y-69380688D01*
X59859987Y-69385088D01*
X60006250Y-69553938D01*
X60178126Y-69696632D01*
X60220493Y-69721389D01*
X60251955Y-69739774D01*
X60300679Y-69791412D01*
X60313750Y-69861195D01*
X60287019Y-69926967D01*
X60246562Y-69960327D01*
X60238457Y-69964546D01*
X60229738Y-69970036D01*
X60059433Y-70097905D01*
X60051726Y-70104748D01*
X59904590Y-70258717D01*
X59898104Y-70266727D01*
X59778098Y-70442649D01*
X59773000Y-70451623D01*
X59683338Y-70644783D01*
X59679775Y-70654470D01*
X59624389Y-70854183D01*
X59625912Y-70862607D01*
X59638292Y-70866000D01*
X63628000Y-70866000D01*
X63696121Y-70886002D01*
X63742614Y-70939658D01*
X63754000Y-70992000D01*
X63754000Y-71248000D01*
X63733998Y-71316121D01*
X63680342Y-71362614D01*
X63628000Y-71374000D01*
X59643225Y-71374000D01*
X59629694Y-71377973D01*
X59628257Y-71387966D01*
X59658565Y-71522446D01*
X59661645Y-71532275D01*
X59741770Y-71729603D01*
X59746413Y-71738794D01*
X59857694Y-71920388D01*
X59863777Y-71928699D01*
X60003213Y-72089667D01*
X60010580Y-72096883D01*
X60174434Y-72232916D01*
X60182881Y-72238831D01*
X60251969Y-72279203D01*
X60300693Y-72330842D01*
X60313764Y-72400625D01*
X60287033Y-72466396D01*
X60246584Y-72499752D01*
X60233607Y-72506507D01*
X60229474Y-72509610D01*
X60229471Y-72509612D01*
X60059100Y-72637530D01*
X60054965Y-72640635D01*
X60015525Y-72681907D01*
X59943729Y-72757037D01*
X59900629Y-72802138D01*
X59774743Y-72986680D01*
X59749163Y-73041787D01*
X59713716Y-73118153D01*
X59680688Y-73189305D01*
X59620989Y-73404570D01*
X59597251Y-73626695D01*
X59597548Y-73631848D01*
X59597548Y-73631851D01*
X59603011Y-73726590D01*
X59610110Y-73849715D01*
X59611247Y-73854761D01*
X59611248Y-73854767D01*
X59631119Y-73942939D01*
X59659222Y-74067639D01*
X59743266Y-74274616D01*
X59778500Y-74332113D01*
X59853072Y-74453803D01*
X59859987Y-74465088D01*
X60006250Y-74633938D01*
X60178126Y-74776632D01*
X60371000Y-74889338D01*
X60579692Y-74969030D01*
X60584760Y-74970061D01*
X60584763Y-74970062D01*
X60692017Y-74991883D01*
X60798597Y-75013567D01*
X60803772Y-75013757D01*
X60803774Y-75013757D01*
X61016673Y-75021564D01*
X61016677Y-75021564D01*
X61021837Y-75021753D01*
X61026957Y-75021097D01*
X61026959Y-75021097D01*
X61238288Y-74994025D01*
X61238289Y-74994025D01*
X61243416Y-74993368D01*
X61248366Y-74991883D01*
X61452429Y-74930661D01*
X61452434Y-74930659D01*
X61457384Y-74929174D01*
X61657994Y-74830896D01*
X61839860Y-74701173D01*
X61948091Y-74593319D01*
X62010462Y-74559404D01*
X62081268Y-74564592D01*
X62138030Y-74607238D01*
X62155012Y-74638341D01*
X62177201Y-74697529D01*
X62199385Y-74756705D01*
X62286739Y-74873261D01*
X62403295Y-74960615D01*
X62539684Y-75011745D01*
X62601866Y-75018500D01*
X64010500Y-75018500D01*
X64078621Y-75038502D01*
X64125114Y-75092158D01*
X64136500Y-75144500D01*
X64136500Y-81847476D01*
X64116498Y-81915597D01*
X64104142Y-81931779D01*
X64030960Y-82013056D01*
X63935473Y-82178444D01*
X63876458Y-82360072D01*
X63875769Y-82366631D01*
X63875768Y-82366634D01*
X63875437Y-82369787D01*
X63874736Y-82371490D01*
X63874394Y-82373100D01*
X63874100Y-82373037D01*
X63848423Y-82435444D01*
X63790201Y-82476073D01*
X63728032Y-82480662D01*
X63628284Y-82462894D01*
X63554452Y-82461992D01*
X63410081Y-82460228D01*
X63410079Y-82460228D01*
X63404911Y-82460165D01*
X63184091Y-82493955D01*
X62971756Y-82563357D01*
X62773607Y-82666507D01*
X62769474Y-82669610D01*
X62769471Y-82669612D01*
X62599100Y-82797530D01*
X62594965Y-82800635D01*
X62440629Y-82962138D01*
X62333201Y-83119621D01*
X62278293Y-83164621D01*
X62207768Y-83172792D01*
X62144021Y-83141538D01*
X62123324Y-83117054D01*
X62042822Y-82992617D01*
X62042820Y-82992614D01*
X62040014Y-82988277D01*
X61889670Y-82823051D01*
X61885619Y-82819852D01*
X61885615Y-82819848D01*
X61718414Y-82687800D01*
X61718410Y-82687798D01*
X61714359Y-82684598D01*
X61518789Y-82576638D01*
X61513920Y-82574914D01*
X61513916Y-82574912D01*
X61313087Y-82503795D01*
X61313083Y-82503794D01*
X61308212Y-82502069D01*
X61303119Y-82501162D01*
X61303116Y-82501161D01*
X61093373Y-82463800D01*
X61093367Y-82463799D01*
X61088284Y-82462894D01*
X61014452Y-82461992D01*
X60870081Y-82460228D01*
X60870079Y-82460228D01*
X60864911Y-82460165D01*
X60644091Y-82493955D01*
X60431756Y-82563357D01*
X60233607Y-82666507D01*
X60229474Y-82669610D01*
X60229471Y-82669612D01*
X60059100Y-82797530D01*
X60054965Y-82800635D01*
X59900629Y-82962138D01*
X59774743Y-83146680D01*
X59759003Y-83180590D01*
X59686290Y-83337237D01*
X59680688Y-83349305D01*
X59620989Y-83564570D01*
X59597251Y-83786695D01*
X59597548Y-83791848D01*
X59597548Y-83791851D01*
X59603011Y-83886590D01*
X59610110Y-84009715D01*
X59611247Y-84014761D01*
X59611248Y-84014767D01*
X59631119Y-84102939D01*
X59659222Y-84227639D01*
X59743266Y-84434616D01*
X59794019Y-84517438D01*
X59857291Y-84620688D01*
X59859987Y-84625088D01*
X60006250Y-84793938D01*
X60178126Y-84936632D01*
X60248595Y-84977811D01*
X60251445Y-84979476D01*
X60300169Y-85031114D01*
X60313240Y-85100897D01*
X60286509Y-85166669D01*
X60246055Y-85200027D01*
X60233607Y-85206507D01*
X60229474Y-85209610D01*
X60229471Y-85209612D01*
X60205247Y-85227800D01*
X60054965Y-85340635D01*
X59900629Y-85502138D01*
X59774743Y-85686680D01*
X59730614Y-85781748D01*
X59692757Y-85863305D01*
X59680688Y-85889305D01*
X59620989Y-86104570D01*
X59597251Y-86326695D01*
X59597548Y-86331848D01*
X59597548Y-86331851D01*
X59603011Y-86426590D01*
X59610110Y-86549715D01*
X59611247Y-86554761D01*
X59611248Y-86554767D01*
X59631119Y-86642939D01*
X59659222Y-86767639D01*
X59743266Y-86974616D01*
X59782638Y-87038866D01*
X59857291Y-87160688D01*
X59859987Y-87165088D01*
X60006250Y-87333938D01*
X60178126Y-87476632D01*
X60248595Y-87517811D01*
X60251445Y-87519476D01*
X60300169Y-87571114D01*
X60313240Y-87640897D01*
X60286509Y-87706669D01*
X60246055Y-87740027D01*
X60233607Y-87746507D01*
X60229474Y-87749610D01*
X60229471Y-87749612D01*
X60205247Y-87767800D01*
X60054965Y-87880635D01*
X59900629Y-88042138D01*
X59774743Y-88226680D01*
X59755869Y-88267341D01*
X59713716Y-88358153D01*
X59680688Y-88429305D01*
X59620989Y-88644570D01*
X59597251Y-88866695D01*
X59597548Y-88871848D01*
X59597548Y-88871851D01*
X59603011Y-88966590D01*
X59610110Y-89089715D01*
X59611247Y-89094761D01*
X59611248Y-89094767D01*
X59631119Y-89182939D01*
X59659222Y-89307639D01*
X59743266Y-89514616D01*
X59782638Y-89578866D01*
X59857291Y-89700688D01*
X59859987Y-89705088D01*
X60006250Y-89873938D01*
X60178126Y-90016632D01*
X60248595Y-90057811D01*
X60251445Y-90059476D01*
X60300169Y-90111114D01*
X60313240Y-90180897D01*
X60286509Y-90246669D01*
X60246055Y-90280027D01*
X60233607Y-90286507D01*
X60229474Y-90289610D01*
X60229471Y-90289612D01*
X60205247Y-90307800D01*
X60054965Y-90420635D01*
X59900629Y-90582138D01*
X59774743Y-90766680D01*
X59680688Y-90969305D01*
X59620989Y-91184570D01*
X59597251Y-91406695D01*
X57658000Y-91406695D01*
X57658000Y-48260000D01*
X58516411Y-48260000D01*
X58536754Y-48648176D01*
X58537267Y-48651416D01*
X58537268Y-48651424D01*
X58551735Y-48742763D01*
X58597562Y-49032099D01*
X58698167Y-49407562D01*
X58837468Y-49770453D01*
X58838966Y-49773393D01*
X58985625Y-50061226D01*
X59013938Y-50116794D01*
X59015734Y-50119560D01*
X59015736Y-50119563D01*
X59162639Y-50345775D01*
X59225643Y-50442793D01*
X59227718Y-50445355D01*
X59448709Y-50718255D01*
X59470266Y-50744876D01*
X59745124Y-51019734D01*
X59747682Y-51021806D01*
X59747686Y-51021809D01*
X59865904Y-51117540D01*
X60047207Y-51264357D01*
X60049970Y-51266152D01*
X60049971Y-51266152D01*
X60343466Y-51456749D01*
X60373205Y-51476062D01*
X60376139Y-51477557D01*
X60376146Y-51477561D01*
X60694537Y-51639789D01*
X60719547Y-51652532D01*
X61082438Y-51791833D01*
X61457901Y-51892438D01*
X61661793Y-51924732D01*
X61838576Y-51952732D01*
X61838584Y-51952733D01*
X61841824Y-51953246D01*
X62230000Y-51973589D01*
X62618176Y-51953246D01*
X62621416Y-51952733D01*
X62621424Y-51952732D01*
X62798207Y-51924732D01*
X63002099Y-51892438D01*
X63377562Y-51791833D01*
X63740453Y-51652532D01*
X63765463Y-51639789D01*
X64083854Y-51477561D01*
X64083861Y-51477557D01*
X64086795Y-51476062D01*
X64116535Y-51456749D01*
X64410029Y-51266152D01*
X64410030Y-51266152D01*
X64412793Y-51264357D01*
X64594096Y-51117540D01*
X64712314Y-51021809D01*
X64712318Y-51021806D01*
X64714876Y-51019734D01*
X64989734Y-50744876D01*
X65011292Y-50718255D01*
X65232282Y-50445355D01*
X65234357Y-50442793D01*
X65297361Y-50345775D01*
X65444264Y-50119563D01*
X65444266Y-50119560D01*
X65446062Y-50116794D01*
X65474376Y-50061226D01*
X65621034Y-49773393D01*
X65622532Y-49770453D01*
X65761833Y-49407562D01*
X65862438Y-49032099D01*
X65908265Y-48742763D01*
X65922732Y-48651424D01*
X65922733Y-48651416D01*
X65923246Y-48648176D01*
X65943589Y-48260000D01*
X128366411Y-48260000D01*
X128386754Y-48648176D01*
X128387267Y-48651416D01*
X128387268Y-48651424D01*
X128401735Y-48742763D01*
X128447562Y-49032099D01*
X128548167Y-49407562D01*
X128687468Y-49770453D01*
X128688966Y-49773393D01*
X128835625Y-50061226D01*
X128863938Y-50116794D01*
X128865734Y-50119560D01*
X128865736Y-50119563D01*
X129012639Y-50345775D01*
X129075643Y-50442793D01*
X129077718Y-50445355D01*
X129298709Y-50718255D01*
X129320266Y-50744876D01*
X129595124Y-51019734D01*
X129597682Y-51021806D01*
X129597686Y-51021809D01*
X129715904Y-51117540D01*
X129897207Y-51264357D01*
X129899970Y-51266152D01*
X129899971Y-51266152D01*
X130193466Y-51456749D01*
X130223205Y-51476062D01*
X130226139Y-51477557D01*
X130226146Y-51477561D01*
X130544537Y-51639789D01*
X130569547Y-51652532D01*
X130932438Y-51791833D01*
X131307901Y-51892438D01*
X131511793Y-51924732D01*
X131688576Y-51952732D01*
X131688584Y-51952733D01*
X131691824Y-51953246D01*
X132080000Y-51973589D01*
X132468176Y-51953246D01*
X132471416Y-51952733D01*
X132471424Y-51952732D01*
X132648207Y-51924732D01*
X132852099Y-51892438D01*
X133227562Y-51791833D01*
X133590453Y-51652532D01*
X133615463Y-51639789D01*
X133933854Y-51477561D01*
X133933861Y-51477557D01*
X133936795Y-51476062D01*
X133966535Y-51456749D01*
X134260029Y-51266152D01*
X134260030Y-51266152D01*
X134262793Y-51264357D01*
X134444096Y-51117540D01*
X134562314Y-51021809D01*
X134562318Y-51021806D01*
X134564876Y-51019734D01*
X134839734Y-50744876D01*
X134861292Y-50718255D01*
X135082282Y-50445355D01*
X135084357Y-50442793D01*
X135147361Y-50345775D01*
X135294264Y-50119563D01*
X135294266Y-50119560D01*
X135296062Y-50116794D01*
X135324376Y-50061226D01*
X135471034Y-49773393D01*
X135472532Y-49770453D01*
X135611833Y-49407562D01*
X135712438Y-49032099D01*
X135758265Y-48742763D01*
X135772732Y-48651424D01*
X135772733Y-48651416D01*
X135773246Y-48648176D01*
X135793589Y-48260000D01*
X135773246Y-47871824D01*
X135712438Y-47487901D01*
X135611833Y-47112438D01*
X135472532Y-46749547D01*
X135296062Y-46403206D01*
X135084357Y-46077207D01*
X134839734Y-45775124D01*
X134564876Y-45500266D01*
X134262793Y-45255643D01*
X133936795Y-45043938D01*
X133933861Y-45042443D01*
X133933854Y-45042439D01*
X133593393Y-44868966D01*
X133590453Y-44867468D01*
X133227562Y-44728167D01*
X132852099Y-44627562D01*
X132648207Y-44595268D01*
X132471424Y-44567268D01*
X132471416Y-44567267D01*
X132468176Y-44566754D01*
X132080000Y-44546411D01*
X131691824Y-44566754D01*
X131688584Y-44567267D01*
X131688576Y-44567268D01*
X131511793Y-44595268D01*
X131307901Y-44627562D01*
X130932438Y-44728167D01*
X130569547Y-44867468D01*
X130566607Y-44868966D01*
X130226147Y-45042439D01*
X130226140Y-45042443D01*
X130223206Y-45043938D01*
X129897207Y-45255643D01*
X129595124Y-45500266D01*
X129320266Y-45775124D01*
X129075643Y-46077207D01*
X128863938Y-46403206D01*
X128687468Y-46749547D01*
X128548167Y-47112438D01*
X128447562Y-47487901D01*
X128386754Y-47871824D01*
X128366411Y-48260000D01*
X65943589Y-48260000D01*
X65923246Y-47871824D01*
X65862438Y-47487901D01*
X65761833Y-47112438D01*
X65622532Y-46749547D01*
X65446062Y-46403206D01*
X65234357Y-46077207D01*
X64989734Y-45775124D01*
X64714876Y-45500266D01*
X64412793Y-45255643D01*
X64086795Y-45043938D01*
X64083861Y-45042443D01*
X64083854Y-45042439D01*
X63743393Y-44868966D01*
X63740453Y-44867468D01*
X63377562Y-44728167D01*
X63002099Y-44627562D01*
X62798207Y-44595268D01*
X62621424Y-44567268D01*
X62621416Y-44567267D01*
X62618176Y-44566754D01*
X62230000Y-44546411D01*
X61841824Y-44566754D01*
X61838584Y-44567267D01*
X61838576Y-44567268D01*
X61661793Y-44595268D01*
X61457901Y-44627562D01*
X61082438Y-44728167D01*
X60719547Y-44867468D01*
X60716607Y-44868966D01*
X60376147Y-45042439D01*
X60376140Y-45042443D01*
X60373206Y-45043938D01*
X60047207Y-45255643D01*
X59745124Y-45500266D01*
X59470266Y-45775124D01*
X59225643Y-46077207D01*
X59013938Y-46403206D01*
X58837468Y-46749547D01*
X58698167Y-47112438D01*
X58597562Y-47487901D01*
X58536754Y-47871824D01*
X58516411Y-48260000D01*
X57658000Y-48260000D01*
X57658000Y-43814000D01*
X57678002Y-43745879D01*
X57731658Y-43699386D01*
X57784000Y-43688000D01*
X136526000Y-43688000D01*
X136594121Y-43708002D01*
G37*
%TD.AperFunction*%
%TD*%
M02*
