%TF.GenerationSoftware,KiCad,Pcbnew,(6.0.1)*%
%TF.CreationDate,2022-02-02T16:31:26+01:00*%
%TF.ProjectId,modules_board,6d6f6475-6c65-4735-9f62-6f6172642e6b,rev?*%
%TF.SameCoordinates,Original*%
%TF.FileFunction,Legend,Top*%
%TF.FilePolarity,Positive*%
%FSLAX46Y46*%
G04 Gerber Fmt 4.6, Leading zero omitted, Abs format (unit mm)*
G04 Created by KiCad (PCBNEW (6.0.1)) date 2022-02-02 16:31:26*
%MOMM*%
%LPD*%
G01*
G04 APERTURE LIST*
%ADD10C,0.150000*%
%ADD11C,0.120000*%
G04 APERTURE END LIST*
D10*
X80922857Y-46067261D02*
X80875238Y-46019642D01*
X80827619Y-45876785D01*
X80827619Y-45781547D01*
X80875238Y-45638690D01*
X80970476Y-45543452D01*
X81065714Y-45495833D01*
X81256190Y-45448214D01*
X81399047Y-45448214D01*
X81589523Y-45495833D01*
X81684761Y-45543452D01*
X81780000Y-45638690D01*
X81827619Y-45781547D01*
X81827619Y-45876785D01*
X81780000Y-46019642D01*
X81732380Y-46067261D01*
X80875238Y-46448214D02*
X80827619Y-46591071D01*
X80827619Y-46829166D01*
X80875238Y-46924404D01*
X80922857Y-46972023D01*
X81018095Y-47019642D01*
X81113333Y-47019642D01*
X81208571Y-46972023D01*
X81256190Y-46924404D01*
X81303809Y-46829166D01*
X81351428Y-46638690D01*
X81399047Y-46543452D01*
X81446666Y-46495833D01*
X81541904Y-46448214D01*
X81637142Y-46448214D01*
X81732380Y-46495833D01*
X81780000Y-46543452D01*
X81827619Y-46638690D01*
X81827619Y-46876785D01*
X81780000Y-47019642D01*
X80827619Y-47972023D02*
X80827619Y-47400595D01*
X80827619Y-47686309D02*
X81827619Y-47686309D01*
X81684761Y-47591071D01*
X81589523Y-47495833D01*
X81541904Y-47400595D01*
X78382857Y-46067261D02*
X78335238Y-46019642D01*
X78287619Y-45876785D01*
X78287619Y-45781547D01*
X78335238Y-45638690D01*
X78430476Y-45543452D01*
X78525714Y-45495833D01*
X78716190Y-45448214D01*
X78859047Y-45448214D01*
X79049523Y-45495833D01*
X79144761Y-45543452D01*
X79240000Y-45638690D01*
X79287619Y-45781547D01*
X79287619Y-45876785D01*
X79240000Y-46019642D01*
X79192380Y-46067261D01*
X78335238Y-46448214D02*
X78287619Y-46591071D01*
X78287619Y-46829166D01*
X78335238Y-46924404D01*
X78382857Y-46972023D01*
X78478095Y-47019642D01*
X78573333Y-47019642D01*
X78668571Y-46972023D01*
X78716190Y-46924404D01*
X78763809Y-46829166D01*
X78811428Y-46638690D01*
X78859047Y-46543452D01*
X78906666Y-46495833D01*
X79001904Y-46448214D01*
X79097142Y-46448214D01*
X79192380Y-46495833D01*
X79240000Y-46543452D01*
X79287619Y-46638690D01*
X79287619Y-46876785D01*
X79240000Y-47019642D01*
X79192380Y-47400595D02*
X79240000Y-47448214D01*
X79287619Y-47543452D01*
X79287619Y-47781547D01*
X79240000Y-47876785D01*
X79192380Y-47924404D01*
X79097142Y-47972023D01*
X79001904Y-47972023D01*
X78859047Y-47924404D01*
X78287619Y-47352976D01*
X78287619Y-47972023D01*
X82885595Y-122622380D02*
X82885595Y-121622380D01*
X83266547Y-121622380D01*
X83361785Y-121670000D01*
X83409404Y-121717619D01*
X83457023Y-121812857D01*
X83457023Y-121955714D01*
X83409404Y-122050952D01*
X83361785Y-122098571D01*
X83266547Y-122146190D01*
X82885595Y-122146190D01*
X83885595Y-122622380D02*
X83885595Y-121622380D01*
X84218928Y-122336666D01*
X84552261Y-121622380D01*
X84552261Y-122622380D01*
X85218928Y-121622380D02*
X85409404Y-121622380D01*
X85504642Y-121670000D01*
X85599880Y-121765238D01*
X85647500Y-121955714D01*
X85647500Y-122289047D01*
X85599880Y-122479523D01*
X85504642Y-122574761D01*
X85409404Y-122622380D01*
X85218928Y-122622380D01*
X85123690Y-122574761D01*
X85028452Y-122479523D01*
X84980833Y-122289047D01*
X84980833Y-121955714D01*
X85028452Y-121765238D01*
X85123690Y-121670000D01*
X85218928Y-121622380D01*
X86076071Y-122622380D02*
X86076071Y-121622380D01*
X86314166Y-121622380D01*
X86457023Y-121670000D01*
X86552261Y-121765238D01*
X86599880Y-121860476D01*
X86647500Y-122050952D01*
X86647500Y-122193809D01*
X86599880Y-122384285D01*
X86552261Y-122479523D01*
X86457023Y-122574761D01*
X86314166Y-122622380D01*
X86076071Y-122622380D01*
X88171309Y-122098571D02*
X88314166Y-122146190D01*
X88361785Y-122193809D01*
X88409404Y-122289047D01*
X88409404Y-122431904D01*
X88361785Y-122527142D01*
X88314166Y-122574761D01*
X88218928Y-122622380D01*
X87837976Y-122622380D01*
X87837976Y-121622380D01*
X88171309Y-121622380D01*
X88266547Y-121670000D01*
X88314166Y-121717619D01*
X88361785Y-121812857D01*
X88361785Y-121908095D01*
X88314166Y-122003333D01*
X88266547Y-122050952D01*
X88171309Y-122098571D01*
X87837976Y-122098571D01*
X89028452Y-121622380D02*
X89218928Y-121622380D01*
X89314166Y-121670000D01*
X89409404Y-121765238D01*
X89457023Y-121955714D01*
X89457023Y-122289047D01*
X89409404Y-122479523D01*
X89314166Y-122574761D01*
X89218928Y-122622380D01*
X89028452Y-122622380D01*
X88933214Y-122574761D01*
X88837976Y-122479523D01*
X88790357Y-122289047D01*
X88790357Y-121955714D01*
X88837976Y-121765238D01*
X88933214Y-121670000D01*
X89028452Y-121622380D01*
X89837976Y-122336666D02*
X90314166Y-122336666D01*
X89742738Y-122622380D02*
X90076071Y-121622380D01*
X90409404Y-122622380D01*
X91314166Y-122622380D02*
X90980833Y-122146190D01*
X90742738Y-122622380D02*
X90742738Y-121622380D01*
X91123690Y-121622380D01*
X91218928Y-121670000D01*
X91266547Y-121717619D01*
X91314166Y-121812857D01*
X91314166Y-121955714D01*
X91266547Y-122050952D01*
X91218928Y-122098571D01*
X91123690Y-122146190D01*
X90742738Y-122146190D01*
X91742738Y-122622380D02*
X91742738Y-121622380D01*
X91980833Y-121622380D01*
X92123690Y-121670000D01*
X92218928Y-121765238D01*
X92266547Y-121860476D01*
X92314166Y-122050952D01*
X92314166Y-122193809D01*
X92266547Y-122384285D01*
X92218928Y-122479523D01*
X92123690Y-122574761D01*
X91980833Y-122622380D01*
X91742738Y-122622380D01*
X93837976Y-122098571D02*
X93504642Y-122098571D01*
X93504642Y-122622380D02*
X93504642Y-121622380D01*
X93980833Y-121622380D01*
X94552261Y-121622380D02*
X94742738Y-121622380D01*
X94837976Y-121670000D01*
X94933214Y-121765238D01*
X94980833Y-121955714D01*
X94980833Y-122289047D01*
X94933214Y-122479523D01*
X94837976Y-122574761D01*
X94742738Y-122622380D01*
X94552261Y-122622380D01*
X94457023Y-122574761D01*
X94361785Y-122479523D01*
X94314166Y-122289047D01*
X94314166Y-121955714D01*
X94361785Y-121765238D01*
X94457023Y-121670000D01*
X94552261Y-121622380D01*
X95980833Y-122622380D02*
X95647500Y-122146190D01*
X95409404Y-122622380D02*
X95409404Y-121622380D01*
X95790357Y-121622380D01*
X95885595Y-121670000D01*
X95933214Y-121717619D01*
X95980833Y-121812857D01*
X95980833Y-121955714D01*
X95933214Y-122050952D01*
X95885595Y-122098571D01*
X95790357Y-122146190D01*
X95409404Y-122146190D01*
X97742738Y-122622380D02*
X97409404Y-122146190D01*
X97171309Y-122622380D02*
X97171309Y-121622380D01*
X97552261Y-121622380D01*
X97647500Y-121670000D01*
X97695119Y-121717619D01*
X97742738Y-121812857D01*
X97742738Y-121955714D01*
X97695119Y-122050952D01*
X97647500Y-122098571D01*
X97552261Y-122146190D01*
X97171309Y-122146190D01*
X98504642Y-122098571D02*
X98171309Y-122098571D01*
X98171309Y-122622380D02*
X98171309Y-121622380D01*
X98647500Y-121622380D01*
X99028452Y-122622380D02*
X99028452Y-121622380D01*
X99504642Y-122622380D02*
X99504642Y-121622380D01*
X99742738Y-121622380D01*
X99885595Y-121670000D01*
X99980833Y-121765238D01*
X100028452Y-121860476D01*
X100076071Y-122050952D01*
X100076071Y-122193809D01*
X100028452Y-122384285D01*
X99980833Y-122479523D01*
X99885595Y-122574761D01*
X99742738Y-122622380D01*
X99504642Y-122622380D01*
X101266547Y-122622380D02*
X101266547Y-121622380D01*
X101599880Y-122336666D01*
X101933214Y-121622380D01*
X101933214Y-122622380D01*
X102599880Y-121622380D02*
X102790357Y-121622380D01*
X102885595Y-121670000D01*
X102980833Y-121765238D01*
X103028452Y-121955714D01*
X103028452Y-122289047D01*
X102980833Y-122479523D01*
X102885595Y-122574761D01*
X102790357Y-122622380D01*
X102599880Y-122622380D01*
X102504642Y-122574761D01*
X102409404Y-122479523D01*
X102361785Y-122289047D01*
X102361785Y-121955714D01*
X102409404Y-121765238D01*
X102504642Y-121670000D01*
X102599880Y-121622380D01*
X103457023Y-122622380D02*
X103457023Y-121622380D01*
X103695119Y-121622380D01*
X103837976Y-121670000D01*
X103933214Y-121765238D01*
X103980833Y-121860476D01*
X104028452Y-122050952D01*
X104028452Y-122193809D01*
X103980833Y-122384285D01*
X103933214Y-122479523D01*
X103837976Y-122574761D01*
X103695119Y-122622380D01*
X103457023Y-122622380D01*
X104457023Y-121622380D02*
X104457023Y-122431904D01*
X104504642Y-122527142D01*
X104552261Y-122574761D01*
X104647500Y-122622380D01*
X104837976Y-122622380D01*
X104933214Y-122574761D01*
X104980833Y-122527142D01*
X105028452Y-122431904D01*
X105028452Y-121622380D01*
X105980833Y-122622380D02*
X105504642Y-122622380D01*
X105504642Y-121622380D01*
X106314166Y-122098571D02*
X106647500Y-122098571D01*
X106790357Y-122622380D02*
X106314166Y-122622380D01*
X106314166Y-121622380D01*
X106790357Y-121622380D01*
X107171309Y-122574761D02*
X107314166Y-122622380D01*
X107552261Y-122622380D01*
X107647500Y-122574761D01*
X107695119Y-122527142D01*
X107742738Y-122431904D01*
X107742738Y-122336666D01*
X107695119Y-122241428D01*
X107647500Y-122193809D01*
X107552261Y-122146190D01*
X107361785Y-122098571D01*
X107266547Y-122050952D01*
X107218928Y-122003333D01*
X107171309Y-121908095D01*
X107171309Y-121812857D01*
X107218928Y-121717619D01*
X107266547Y-121670000D01*
X107361785Y-121622380D01*
X107599880Y-121622380D01*
X107742738Y-121670000D01*
X82837976Y-124184761D02*
X82980833Y-124232380D01*
X83218928Y-124232380D01*
X83314166Y-124184761D01*
X83361785Y-124137142D01*
X83409404Y-124041904D01*
X83409404Y-123946666D01*
X83361785Y-123851428D01*
X83314166Y-123803809D01*
X83218928Y-123756190D01*
X83028452Y-123708571D01*
X82933214Y-123660952D01*
X82885595Y-123613333D01*
X82837976Y-123518095D01*
X82837976Y-123422857D01*
X82885595Y-123327619D01*
X82933214Y-123280000D01*
X83028452Y-123232380D01*
X83266547Y-123232380D01*
X83409404Y-123280000D01*
X83695119Y-123232380D02*
X84266547Y-123232380D01*
X83980833Y-124232380D02*
X83980833Y-123232380D01*
X85171309Y-124232380D02*
X84837976Y-123756190D01*
X84599880Y-124232380D02*
X84599880Y-123232380D01*
X84980833Y-123232380D01*
X85076071Y-123280000D01*
X85123690Y-123327619D01*
X85171309Y-123422857D01*
X85171309Y-123565714D01*
X85123690Y-123660952D01*
X85076071Y-123708571D01*
X84980833Y-123756190D01*
X84599880Y-123756190D01*
X85552261Y-123946666D02*
X86028452Y-123946666D01*
X85457023Y-124232380D02*
X85790357Y-123232380D01*
X86123690Y-124232380D01*
X86457023Y-124232380D02*
X86457023Y-123232380D01*
X87457023Y-123280000D02*
X87361785Y-123232380D01*
X87218928Y-123232380D01*
X87076071Y-123280000D01*
X86980833Y-123375238D01*
X86933214Y-123470476D01*
X86885595Y-123660952D01*
X86885595Y-123803809D01*
X86933214Y-123994285D01*
X86980833Y-124089523D01*
X87076071Y-124184761D01*
X87218928Y-124232380D01*
X87314166Y-124232380D01*
X87457023Y-124184761D01*
X87504642Y-124137142D01*
X87504642Y-123803809D01*
X87314166Y-123803809D01*
X87933214Y-124232380D02*
X87933214Y-123232380D01*
X87933214Y-123708571D02*
X88504642Y-123708571D01*
X88504642Y-124232380D02*
X88504642Y-123232380D01*
X88837976Y-123232380D02*
X89409404Y-123232380D01*
X89123690Y-124232380D02*
X89123690Y-123232380D01*
X90504642Y-124232380D02*
X90504642Y-123232380D01*
X90885595Y-123232380D01*
X90980833Y-123280000D01*
X91028452Y-123327619D01*
X91076071Y-123422857D01*
X91076071Y-123565714D01*
X91028452Y-123660952D01*
X90980833Y-123708571D01*
X90885595Y-123756190D01*
X90504642Y-123756190D01*
X91504642Y-124232380D02*
X91504642Y-123232380D01*
X91980833Y-124232380D02*
X91980833Y-123232380D01*
X92552261Y-124232380D01*
X92552261Y-123232380D01*
X92980833Y-124184761D02*
X93123690Y-124232380D01*
X93361785Y-124232380D01*
X93457023Y-124184761D01*
X93504642Y-124137142D01*
X93552261Y-124041904D01*
X93552261Y-123946666D01*
X93504642Y-123851428D01*
X93457023Y-123803809D01*
X93361785Y-123756190D01*
X93171309Y-123708571D01*
X93076071Y-123660952D01*
X93028452Y-123613333D01*
X92980833Y-123518095D01*
X92980833Y-123422857D01*
X93028452Y-123327619D01*
X93076071Y-123280000D01*
X93171309Y-123232380D01*
X93409404Y-123232380D01*
X93552261Y-123280000D01*
X94028452Y-124184761D02*
X94028452Y-124232380D01*
X93980833Y-124327619D01*
X93933214Y-124375238D01*
X95552261Y-123708571D02*
X95218928Y-123708571D01*
X95218928Y-124232380D02*
X95218928Y-123232380D01*
X95695119Y-123232380D01*
X96028452Y-123946666D02*
X96504642Y-123946666D01*
X95933214Y-124232380D02*
X96266547Y-123232380D01*
X96599880Y-124232380D01*
X97504642Y-124137142D02*
X97457023Y-124184761D01*
X97314166Y-124232380D01*
X97218928Y-124232380D01*
X97076071Y-124184761D01*
X96980833Y-124089523D01*
X96933214Y-123994285D01*
X96885595Y-123803809D01*
X96885595Y-123660952D01*
X96933214Y-123470476D01*
X96980833Y-123375238D01*
X97076071Y-123280000D01*
X97218928Y-123232380D01*
X97314166Y-123232380D01*
X97457023Y-123280000D01*
X97504642Y-123327619D01*
X97933214Y-124232380D02*
X97933214Y-123232380D01*
X98409404Y-124232380D02*
X98409404Y-123232380D01*
X98980833Y-124232380D01*
X98980833Y-123232380D01*
X99980833Y-123280000D02*
X99885595Y-123232380D01*
X99742738Y-123232380D01*
X99599880Y-123280000D01*
X99504642Y-123375238D01*
X99457023Y-123470476D01*
X99409404Y-123660952D01*
X99409404Y-123803809D01*
X99457023Y-123994285D01*
X99504642Y-124089523D01*
X99599880Y-124184761D01*
X99742738Y-124232380D01*
X99837976Y-124232380D01*
X99980833Y-124184761D01*
X100028452Y-124137142D01*
X100028452Y-123803809D01*
X99837976Y-123803809D01*
X101218928Y-123232380D02*
X101218928Y-124041904D01*
X101266547Y-124137142D01*
X101314166Y-124184761D01*
X101409404Y-124232380D01*
X101599880Y-124232380D01*
X101695119Y-124184761D01*
X101742738Y-124137142D01*
X101790357Y-124041904D01*
X101790357Y-123232380D01*
X102266547Y-124232380D02*
X102266547Y-123232380D01*
X102647500Y-123232380D01*
X102742738Y-123280000D01*
X102790357Y-123327619D01*
X102837976Y-123422857D01*
X102837976Y-123565714D01*
X102790357Y-123660952D01*
X102742738Y-123708571D01*
X102647500Y-123756190D01*
X102266547Y-123756190D01*
X82885595Y-125842380D02*
X82885595Y-124842380D01*
X83218928Y-125556666D01*
X83552261Y-124842380D01*
X83552261Y-125842380D01*
X84361785Y-125318571D02*
X84028452Y-125318571D01*
X84028452Y-125842380D02*
X84028452Y-124842380D01*
X84504642Y-124842380D01*
X85457023Y-125842380D02*
X85123690Y-125366190D01*
X84885595Y-125842380D02*
X84885595Y-124842380D01*
X85266547Y-124842380D01*
X85361785Y-124890000D01*
X85409404Y-124937619D01*
X85457023Y-125032857D01*
X85457023Y-125175714D01*
X85409404Y-125270952D01*
X85361785Y-125318571D01*
X85266547Y-125366190D01*
X84885595Y-125366190D01*
X86457023Y-125747142D02*
X86409404Y-125794761D01*
X86266547Y-125842380D01*
X86171309Y-125842380D01*
X86028452Y-125794761D01*
X85933214Y-125699523D01*
X85885595Y-125604285D01*
X85837976Y-125413809D01*
X85837976Y-125270952D01*
X85885595Y-125080476D01*
X85933214Y-124985238D01*
X86028452Y-124890000D01*
X86171309Y-124842380D01*
X86266547Y-124842380D01*
X86409404Y-124890000D01*
X86457023Y-124937619D01*
X87361785Y-124842380D02*
X86885595Y-124842380D01*
X86837976Y-125318571D01*
X86885595Y-125270952D01*
X86980833Y-125223333D01*
X87218928Y-125223333D01*
X87314166Y-125270952D01*
X87361785Y-125318571D01*
X87409404Y-125413809D01*
X87409404Y-125651904D01*
X87361785Y-125747142D01*
X87314166Y-125794761D01*
X87218928Y-125842380D01*
X86980833Y-125842380D01*
X86885595Y-125794761D01*
X86837976Y-125747142D01*
X87790357Y-124937619D02*
X87837976Y-124890000D01*
X87933214Y-124842380D01*
X88171309Y-124842380D01*
X88266547Y-124890000D01*
X88314166Y-124937619D01*
X88361785Y-125032857D01*
X88361785Y-125128095D01*
X88314166Y-125270952D01*
X87742738Y-125842380D01*
X88361785Y-125842380D01*
X88742738Y-124937619D02*
X88790357Y-124890000D01*
X88885595Y-124842380D01*
X89123690Y-124842380D01*
X89218928Y-124890000D01*
X89266547Y-124937619D01*
X89314166Y-125032857D01*
X89314166Y-125128095D01*
X89266547Y-125270952D01*
X88695119Y-125842380D01*
X89314166Y-125842380D01*
X89742738Y-125747142D02*
X89790357Y-125794761D01*
X89742738Y-125842380D01*
X89695119Y-125794761D01*
X89742738Y-125747142D01*
X89742738Y-125842380D01*
X89742738Y-125223333D02*
X89790357Y-125270952D01*
X89742738Y-125318571D01*
X89695119Y-125270952D01*
X89742738Y-125223333D01*
X89742738Y-125318571D01*
X90933214Y-124842380D02*
X90933214Y-125032857D01*
X91314166Y-124842380D02*
X91314166Y-125032857D01*
X92314166Y-125842380D02*
X91980833Y-125366190D01*
X91742738Y-125842380D02*
X91742738Y-124842380D01*
X92123690Y-124842380D01*
X92218928Y-124890000D01*
X92266547Y-124937619D01*
X92314166Y-125032857D01*
X92314166Y-125175714D01*
X92266547Y-125270952D01*
X92218928Y-125318571D01*
X92123690Y-125366190D01*
X91742738Y-125366190D01*
X93076071Y-125318571D02*
X92742738Y-125318571D01*
X92742738Y-125842380D02*
X92742738Y-124842380D01*
X93218928Y-124842380D01*
X93599880Y-125842380D02*
X93599880Y-124842380D01*
X94076071Y-125842380D02*
X94076071Y-124842380D01*
X94314166Y-124842380D01*
X94457023Y-124890000D01*
X94552261Y-124985238D01*
X94599880Y-125080476D01*
X94647500Y-125270952D01*
X94647500Y-125413809D01*
X94599880Y-125604285D01*
X94552261Y-125699523D01*
X94457023Y-125794761D01*
X94314166Y-125842380D01*
X94076071Y-125842380D01*
X95076071Y-125461428D02*
X95837976Y-125461428D01*
X96885595Y-125842380D02*
X96552261Y-125366190D01*
X96314166Y-125842380D02*
X96314166Y-124842380D01*
X96695119Y-124842380D01*
X96790357Y-124890000D01*
X96837976Y-124937619D01*
X96885595Y-125032857D01*
X96885595Y-125175714D01*
X96837976Y-125270952D01*
X96790357Y-125318571D01*
X96695119Y-125366190D01*
X96314166Y-125366190D01*
X97885595Y-125747142D02*
X97837976Y-125794761D01*
X97695119Y-125842380D01*
X97599880Y-125842380D01*
X97457023Y-125794761D01*
X97361785Y-125699523D01*
X97314166Y-125604285D01*
X97266547Y-125413809D01*
X97266547Y-125270952D01*
X97314166Y-125080476D01*
X97361785Y-124985238D01*
X97457023Y-124890000D01*
X97599880Y-124842380D01*
X97695119Y-124842380D01*
X97837976Y-124890000D01*
X97885595Y-124937619D01*
X98790357Y-124842380D02*
X98314166Y-124842380D01*
X98266547Y-125318571D01*
X98314166Y-125270952D01*
X98409404Y-125223333D01*
X98647500Y-125223333D01*
X98742738Y-125270952D01*
X98790357Y-125318571D01*
X98837976Y-125413809D01*
X98837976Y-125651904D01*
X98790357Y-125747142D01*
X98742738Y-125794761D01*
X98647500Y-125842380D01*
X98409404Y-125842380D01*
X98314166Y-125794761D01*
X98266547Y-125747142D01*
X99218928Y-124937619D02*
X99266547Y-124890000D01*
X99361785Y-124842380D01*
X99599880Y-124842380D01*
X99695119Y-124890000D01*
X99742738Y-124937619D01*
X99790357Y-125032857D01*
X99790357Y-125128095D01*
X99742738Y-125270952D01*
X99171309Y-125842380D01*
X99790357Y-125842380D01*
X100171309Y-124937619D02*
X100218928Y-124890000D01*
X100314166Y-124842380D01*
X100552261Y-124842380D01*
X100647500Y-124890000D01*
X100695119Y-124937619D01*
X100742738Y-125032857D01*
X100742738Y-125128095D01*
X100695119Y-125270952D01*
X100123690Y-125842380D01*
X100742738Y-125842380D01*
X101123690Y-124842380D02*
X101123690Y-125032857D01*
X101504642Y-124842380D02*
X101504642Y-125032857D01*
X83457023Y-127357142D02*
X83409404Y-127404761D01*
X83266547Y-127452380D01*
X83171309Y-127452380D01*
X83028452Y-127404761D01*
X82933214Y-127309523D01*
X82885595Y-127214285D01*
X82837976Y-127023809D01*
X82837976Y-126880952D01*
X82885595Y-126690476D01*
X82933214Y-126595238D01*
X83028452Y-126500000D01*
X83171309Y-126452380D01*
X83266547Y-126452380D01*
X83409404Y-126500000D01*
X83457023Y-126547619D01*
X84361785Y-127452380D02*
X83885595Y-127452380D01*
X83885595Y-126452380D01*
X85266547Y-127452380D02*
X84933214Y-126976190D01*
X84695119Y-127452380D02*
X84695119Y-126452380D01*
X85076071Y-126452380D01*
X85171309Y-126500000D01*
X85218928Y-126547619D01*
X85266547Y-126642857D01*
X85266547Y-126785714D01*
X85218928Y-126880952D01*
X85171309Y-126928571D01*
X85076071Y-126976190D01*
X84695119Y-126976190D01*
X86266547Y-127357142D02*
X86218928Y-127404761D01*
X86076071Y-127452380D01*
X85980833Y-127452380D01*
X85837976Y-127404761D01*
X85742738Y-127309523D01*
X85695119Y-127214285D01*
X85647500Y-127023809D01*
X85647500Y-126880952D01*
X85695119Y-126690476D01*
X85742738Y-126595238D01*
X85837976Y-126500000D01*
X85980833Y-126452380D01*
X86076071Y-126452380D01*
X86218928Y-126500000D01*
X86266547Y-126547619D01*
X87123690Y-126452380D02*
X86933214Y-126452380D01*
X86837976Y-126500000D01*
X86790357Y-126547619D01*
X86695119Y-126690476D01*
X86647500Y-126880952D01*
X86647500Y-127261904D01*
X86695119Y-127357142D01*
X86742738Y-127404761D01*
X86837976Y-127452380D01*
X87028452Y-127452380D01*
X87123690Y-127404761D01*
X87171309Y-127357142D01*
X87218928Y-127261904D01*
X87218928Y-127023809D01*
X87171309Y-126928571D01*
X87123690Y-126880952D01*
X87028452Y-126833333D01*
X86837976Y-126833333D01*
X86742738Y-126880952D01*
X86695119Y-126928571D01*
X86647500Y-127023809D01*
X88076071Y-126452380D02*
X87885595Y-126452380D01*
X87790357Y-126500000D01*
X87742738Y-126547619D01*
X87647500Y-126690476D01*
X87599880Y-126880952D01*
X87599880Y-127261904D01*
X87647500Y-127357142D01*
X87695119Y-127404761D01*
X87790357Y-127452380D01*
X87980833Y-127452380D01*
X88076071Y-127404761D01*
X88123690Y-127357142D01*
X88171309Y-127261904D01*
X88171309Y-127023809D01*
X88123690Y-126928571D01*
X88076071Y-126880952D01*
X87980833Y-126833333D01*
X87790357Y-126833333D01*
X87695119Y-126880952D01*
X87647500Y-126928571D01*
X87599880Y-127023809D01*
X88504642Y-126452380D02*
X89123690Y-126452380D01*
X88790357Y-126833333D01*
X88933214Y-126833333D01*
X89028452Y-126880952D01*
X89076071Y-126928571D01*
X89123690Y-127023809D01*
X89123690Y-127261904D01*
X89076071Y-127357142D01*
X89028452Y-127404761D01*
X88933214Y-127452380D01*
X88647500Y-127452380D01*
X88552261Y-127404761D01*
X88504642Y-127357142D01*
X89552261Y-127357142D02*
X89599880Y-127404761D01*
X89552261Y-127452380D01*
X89504642Y-127404761D01*
X89552261Y-127357142D01*
X89552261Y-127452380D01*
X89552261Y-126833333D02*
X89599880Y-126880952D01*
X89552261Y-126928571D01*
X89504642Y-126880952D01*
X89552261Y-126833333D01*
X89552261Y-126928571D01*
X90742738Y-126452380D02*
X90742738Y-126642857D01*
X91123690Y-126452380D02*
X91123690Y-126642857D01*
X92123690Y-127452380D02*
X91790357Y-126976190D01*
X91552261Y-127452380D02*
X91552261Y-126452380D01*
X91933214Y-126452380D01*
X92028452Y-126500000D01*
X92076071Y-126547619D01*
X92123690Y-126642857D01*
X92123690Y-126785714D01*
X92076071Y-126880952D01*
X92028452Y-126928571D01*
X91933214Y-126976190D01*
X91552261Y-126976190D01*
X92885595Y-126928571D02*
X92552261Y-126928571D01*
X92552261Y-127452380D02*
X92552261Y-126452380D01*
X93028452Y-126452380D01*
X93409404Y-127452380D02*
X93409404Y-126452380D01*
X93885595Y-127452380D02*
X93885595Y-126452380D01*
X94123690Y-126452380D01*
X94266547Y-126500000D01*
X94361785Y-126595238D01*
X94409404Y-126690476D01*
X94457023Y-126880952D01*
X94457023Y-127023809D01*
X94409404Y-127214285D01*
X94361785Y-127309523D01*
X94266547Y-127404761D01*
X94123690Y-127452380D01*
X93885595Y-127452380D01*
X94885595Y-127071428D02*
X95647500Y-127071428D01*
X96123690Y-127452380D02*
X96123690Y-126452380D01*
X96123690Y-126928571D02*
X96695119Y-126928571D01*
X96695119Y-127452380D02*
X96695119Y-126452380D01*
X97742738Y-127357142D02*
X97695119Y-127404761D01*
X97552261Y-127452380D01*
X97457023Y-127452380D01*
X97314166Y-127404761D01*
X97218928Y-127309523D01*
X97171309Y-127214285D01*
X97123690Y-127023809D01*
X97123690Y-126880952D01*
X97171309Y-126690476D01*
X97218928Y-126595238D01*
X97314166Y-126500000D01*
X97457023Y-126452380D01*
X97552261Y-126452380D01*
X97695119Y-126500000D01*
X97742738Y-126547619D01*
X98171309Y-127452380D02*
X98171309Y-126452380D01*
X98409404Y-126452380D01*
X98552261Y-126500000D01*
X98647500Y-126595238D01*
X98695119Y-126690476D01*
X98742738Y-126880952D01*
X98742738Y-127023809D01*
X98695119Y-127214285D01*
X98647500Y-127309523D01*
X98552261Y-127404761D01*
X98409404Y-127452380D01*
X98171309Y-127452380D01*
X99218928Y-127452380D02*
X99409404Y-127452380D01*
X99504642Y-127404761D01*
X99552261Y-127357142D01*
X99647500Y-127214285D01*
X99695119Y-127023809D01*
X99695119Y-126642857D01*
X99647500Y-126547619D01*
X99599880Y-126500000D01*
X99504642Y-126452380D01*
X99314166Y-126452380D01*
X99218928Y-126500000D01*
X99171309Y-126547619D01*
X99123690Y-126642857D01*
X99123690Y-126880952D01*
X99171309Y-126976190D01*
X99218928Y-127023809D01*
X99314166Y-127071428D01*
X99504642Y-127071428D01*
X99599880Y-127023809D01*
X99647500Y-126976190D01*
X99695119Y-126880952D01*
X100266547Y-126880952D02*
X100171309Y-126833333D01*
X100123690Y-126785714D01*
X100076071Y-126690476D01*
X100076071Y-126642857D01*
X100123690Y-126547619D01*
X100171309Y-126500000D01*
X100266547Y-126452380D01*
X100457023Y-126452380D01*
X100552261Y-126500000D01*
X100599880Y-126547619D01*
X100647500Y-126642857D01*
X100647500Y-126690476D01*
X100599880Y-126785714D01*
X100552261Y-126833333D01*
X100457023Y-126880952D01*
X100266547Y-126880952D01*
X100171309Y-126928571D01*
X100123690Y-126976190D01*
X100076071Y-127071428D01*
X100076071Y-127261904D01*
X100123690Y-127357142D01*
X100171309Y-127404761D01*
X100266547Y-127452380D01*
X100457023Y-127452380D01*
X100552261Y-127404761D01*
X100599880Y-127357142D01*
X100647500Y-127261904D01*
X100647500Y-127071428D01*
X100599880Y-126976190D01*
X100552261Y-126928571D01*
X100457023Y-126880952D01*
X101218928Y-126880952D02*
X101123690Y-126833333D01*
X101076071Y-126785714D01*
X101028452Y-126690476D01*
X101028452Y-126642857D01*
X101076071Y-126547619D01*
X101123690Y-126500000D01*
X101218928Y-126452380D01*
X101409404Y-126452380D01*
X101504642Y-126500000D01*
X101552261Y-126547619D01*
X101599880Y-126642857D01*
X101599880Y-126690476D01*
X101552261Y-126785714D01*
X101504642Y-126833333D01*
X101409404Y-126880952D01*
X101218928Y-126880952D01*
X101123690Y-126928571D01*
X101076071Y-126976190D01*
X101028452Y-127071428D01*
X101028452Y-127261904D01*
X101076071Y-127357142D01*
X101123690Y-127404761D01*
X101218928Y-127452380D01*
X101409404Y-127452380D01*
X101504642Y-127404761D01*
X101552261Y-127357142D01*
X101599880Y-127261904D01*
X101599880Y-127071428D01*
X101552261Y-126976190D01*
X101504642Y-126928571D01*
X101409404Y-126880952D01*
X101933214Y-126452380D02*
X102552261Y-126452380D01*
X102218928Y-126833333D01*
X102361785Y-126833333D01*
X102457023Y-126880952D01*
X102504642Y-126928571D01*
X102552261Y-127023809D01*
X102552261Y-127261904D01*
X102504642Y-127357142D01*
X102457023Y-127404761D01*
X102361785Y-127452380D01*
X102076071Y-127452380D01*
X101980833Y-127404761D01*
X101933214Y-127357142D01*
X102933214Y-126452380D02*
X102933214Y-126642857D01*
X103314166Y-126452380D02*
X103314166Y-126642857D01*
X82742738Y-129672380D02*
X83076071Y-130672380D01*
X83409404Y-129672380D01*
X83742738Y-130148571D02*
X84076071Y-130148571D01*
X84218928Y-130672380D02*
X83742738Y-130672380D01*
X83742738Y-129672380D01*
X84218928Y-129672380D01*
X85218928Y-130672380D02*
X84885595Y-130196190D01*
X84647500Y-130672380D02*
X84647500Y-129672380D01*
X85028452Y-129672380D01*
X85123690Y-129720000D01*
X85171309Y-129767619D01*
X85218928Y-129862857D01*
X85218928Y-130005714D01*
X85171309Y-130100952D01*
X85123690Y-130148571D01*
X85028452Y-130196190D01*
X84647500Y-130196190D01*
X85599880Y-130624761D02*
X85742738Y-130672380D01*
X85980833Y-130672380D01*
X86076071Y-130624761D01*
X86123690Y-130577142D01*
X86171309Y-130481904D01*
X86171309Y-130386666D01*
X86123690Y-130291428D01*
X86076071Y-130243809D01*
X85980833Y-130196190D01*
X85790357Y-130148571D01*
X85695119Y-130100952D01*
X85647500Y-130053333D01*
X85599880Y-129958095D01*
X85599880Y-129862857D01*
X85647500Y-129767619D01*
X85695119Y-129720000D01*
X85790357Y-129672380D01*
X86028452Y-129672380D01*
X86171309Y-129720000D01*
X86599880Y-130672380D02*
X86599880Y-129672380D01*
X87266547Y-129672380D02*
X87457023Y-129672380D01*
X87552261Y-129720000D01*
X87647500Y-129815238D01*
X87695119Y-130005714D01*
X87695119Y-130339047D01*
X87647500Y-130529523D01*
X87552261Y-130624761D01*
X87457023Y-130672380D01*
X87266547Y-130672380D01*
X87171309Y-130624761D01*
X87076071Y-130529523D01*
X87028452Y-130339047D01*
X87028452Y-130005714D01*
X87076071Y-129815238D01*
X87171309Y-129720000D01*
X87266547Y-129672380D01*
X88123690Y-130672380D02*
X88123690Y-129672380D01*
X88695119Y-130672380D01*
X88695119Y-129672380D01*
X90123690Y-129672380D02*
X90218928Y-129672380D01*
X90314166Y-129720000D01*
X90361785Y-129767619D01*
X90409404Y-129862857D01*
X90457023Y-130053333D01*
X90457023Y-130291428D01*
X90409404Y-130481904D01*
X90361785Y-130577142D01*
X90314166Y-130624761D01*
X90218928Y-130672380D01*
X90123690Y-130672380D01*
X90028452Y-130624761D01*
X89980833Y-130577142D01*
X89933214Y-130481904D01*
X89885595Y-130291428D01*
X89885595Y-130053333D01*
X89933214Y-129862857D01*
X89980833Y-129767619D01*
X90028452Y-129720000D01*
X90123690Y-129672380D01*
X90885595Y-130577142D02*
X90933214Y-130624761D01*
X90885595Y-130672380D01*
X90837976Y-130624761D01*
X90885595Y-130577142D01*
X90885595Y-130672380D01*
X91885595Y-130672380D02*
X91314166Y-130672380D01*
X91599880Y-130672380D02*
X91599880Y-129672380D01*
X91504642Y-129815238D01*
X91409404Y-129910476D01*
X91314166Y-129958095D01*
X82885595Y-132282380D02*
X82885595Y-131282380D01*
X83314166Y-132282380D02*
X83314166Y-131758571D01*
X83266547Y-131663333D01*
X83171309Y-131615714D01*
X83028452Y-131615714D01*
X82933214Y-131663333D01*
X82885595Y-131710952D01*
X83647500Y-131615714D02*
X84028452Y-131615714D01*
X83790357Y-131282380D02*
X83790357Y-132139523D01*
X83837976Y-132234761D01*
X83933214Y-132282380D01*
X84028452Y-132282380D01*
X84218928Y-131615714D02*
X84599880Y-131615714D01*
X84361785Y-131282380D02*
X84361785Y-132139523D01*
X84409404Y-132234761D01*
X84504642Y-132282380D01*
X84599880Y-132282380D01*
X84933214Y-131615714D02*
X84933214Y-132615714D01*
X84933214Y-131663333D02*
X85028452Y-131615714D01*
X85218928Y-131615714D01*
X85314166Y-131663333D01*
X85361785Y-131710952D01*
X85409404Y-131806190D01*
X85409404Y-132091904D01*
X85361785Y-132187142D01*
X85314166Y-132234761D01*
X85218928Y-132282380D01*
X85028452Y-132282380D01*
X84933214Y-132234761D01*
X85790357Y-132234761D02*
X85885595Y-132282380D01*
X86076071Y-132282380D01*
X86171309Y-132234761D01*
X86218928Y-132139523D01*
X86218928Y-132091904D01*
X86171309Y-131996666D01*
X86076071Y-131949047D01*
X85933214Y-131949047D01*
X85837976Y-131901428D01*
X85790357Y-131806190D01*
X85790357Y-131758571D01*
X85837976Y-131663333D01*
X85933214Y-131615714D01*
X86076071Y-131615714D01*
X86171309Y-131663333D01*
X86647500Y-132187142D02*
X86695119Y-132234761D01*
X86647500Y-132282380D01*
X86599880Y-132234761D01*
X86647500Y-132187142D01*
X86647500Y-132282380D01*
X86647500Y-131663333D02*
X86695119Y-131710952D01*
X86647500Y-131758571D01*
X86599880Y-131710952D01*
X86647500Y-131663333D01*
X86647500Y-131758571D01*
X87837976Y-131234761D02*
X86980833Y-132520476D01*
X88885595Y-131234761D02*
X88028452Y-132520476D01*
X89123690Y-131615714D02*
X89314166Y-132282380D01*
X89504642Y-131806190D01*
X89695119Y-132282380D01*
X89885595Y-131615714D01*
X90171309Y-131615714D02*
X90361785Y-132282380D01*
X90552261Y-131806190D01*
X90742738Y-132282380D01*
X90933214Y-131615714D01*
X91218928Y-131615714D02*
X91409404Y-132282380D01*
X91599880Y-131806190D01*
X91790357Y-132282380D01*
X91980833Y-131615714D01*
X92361785Y-132187142D02*
X92409404Y-132234761D01*
X92361785Y-132282380D01*
X92314166Y-132234761D01*
X92361785Y-132187142D01*
X92361785Y-132282380D01*
X92837976Y-132282380D02*
X92837976Y-131282380D01*
X92837976Y-131663333D02*
X92933214Y-131615714D01*
X93123690Y-131615714D01*
X93218928Y-131663333D01*
X93266547Y-131710952D01*
X93314166Y-131806190D01*
X93314166Y-132091904D01*
X93266547Y-132187142D01*
X93218928Y-132234761D01*
X93123690Y-132282380D01*
X92933214Y-132282380D01*
X92837976Y-132234761D01*
X93885595Y-132282380D02*
X93790357Y-132234761D01*
X93742738Y-132139523D01*
X93742738Y-131282380D01*
X94695119Y-132282380D02*
X94695119Y-131758571D01*
X94647500Y-131663333D01*
X94552261Y-131615714D01*
X94361785Y-131615714D01*
X94266547Y-131663333D01*
X94695119Y-132234761D02*
X94599880Y-132282380D01*
X94361785Y-132282380D01*
X94266547Y-132234761D01*
X94218928Y-132139523D01*
X94218928Y-132044285D01*
X94266547Y-131949047D01*
X94361785Y-131901428D01*
X94599880Y-131901428D01*
X94695119Y-131853809D01*
X95599880Y-132282380D02*
X95599880Y-131758571D01*
X95552261Y-131663333D01*
X95457023Y-131615714D01*
X95266547Y-131615714D01*
X95171309Y-131663333D01*
X95599880Y-132234761D02*
X95504642Y-132282380D01*
X95266547Y-132282380D01*
X95171309Y-132234761D01*
X95123690Y-132139523D01*
X95123690Y-132044285D01*
X95171309Y-131949047D01*
X95266547Y-131901428D01*
X95504642Y-131901428D01*
X95599880Y-131853809D01*
X95933214Y-131615714D02*
X96314166Y-131615714D01*
X96076071Y-131282380D02*
X96076071Y-132139523D01*
X96123690Y-132234761D01*
X96218928Y-132282380D01*
X96314166Y-132282380D01*
X96599880Y-132234761D02*
X96695119Y-132282380D01*
X96885595Y-132282380D01*
X96980833Y-132234761D01*
X97028452Y-132139523D01*
X97028452Y-132091904D01*
X96980833Y-131996666D01*
X96885595Y-131949047D01*
X96742738Y-131949047D01*
X96647500Y-131901428D01*
X96599880Y-131806190D01*
X96599880Y-131758571D01*
X96647500Y-131663333D01*
X96742738Y-131615714D01*
X96885595Y-131615714D01*
X96980833Y-131663333D01*
X97885595Y-132234761D02*
X97790357Y-132282380D01*
X97599880Y-132282380D01*
X97504642Y-132234761D01*
X97457023Y-132187142D01*
X97409404Y-132091904D01*
X97409404Y-131806190D01*
X97457023Y-131710952D01*
X97504642Y-131663333D01*
X97599880Y-131615714D01*
X97790357Y-131615714D01*
X97885595Y-131663333D01*
X98314166Y-132282380D02*
X98314166Y-131282380D01*
X98742738Y-132282380D02*
X98742738Y-131758571D01*
X98695119Y-131663333D01*
X98599880Y-131615714D01*
X98457023Y-131615714D01*
X98361785Y-131663333D01*
X98314166Y-131710952D01*
X99647500Y-132282380D02*
X99647500Y-131758571D01*
X99599880Y-131663333D01*
X99504642Y-131615714D01*
X99314166Y-131615714D01*
X99218928Y-131663333D01*
X99647500Y-132234761D02*
X99552261Y-132282380D01*
X99314166Y-132282380D01*
X99218928Y-132234761D01*
X99171309Y-132139523D01*
X99171309Y-132044285D01*
X99218928Y-131949047D01*
X99314166Y-131901428D01*
X99552261Y-131901428D01*
X99647500Y-131853809D01*
X100552261Y-132282380D02*
X100552261Y-131758571D01*
X100504642Y-131663333D01*
X100409404Y-131615714D01*
X100218928Y-131615714D01*
X100123690Y-131663333D01*
X100552261Y-132234761D02*
X100457023Y-132282380D01*
X100218928Y-132282380D01*
X100123690Y-132234761D01*
X100076071Y-132139523D01*
X100076071Y-132044285D01*
X100123690Y-131949047D01*
X100218928Y-131901428D01*
X100457023Y-131901428D01*
X100552261Y-131853809D01*
X101028452Y-131615714D02*
X101028452Y-132615714D01*
X101028452Y-131663333D02*
X101123690Y-131615714D01*
X101314166Y-131615714D01*
X101409404Y-131663333D01*
X101457023Y-131710952D01*
X101504642Y-131806190D01*
X101504642Y-132091904D01*
X101457023Y-132187142D01*
X101409404Y-132234761D01*
X101314166Y-132282380D01*
X101123690Y-132282380D01*
X101028452Y-132234761D01*
X101933214Y-132187142D02*
X101980833Y-132234761D01*
X101933214Y-132282380D01*
X101885595Y-132234761D01*
X101933214Y-132187142D01*
X101933214Y-132282380D01*
X102409404Y-132282380D02*
X102409404Y-131282380D01*
X102409404Y-131663333D02*
X102504642Y-131615714D01*
X102695119Y-131615714D01*
X102790357Y-131663333D01*
X102837976Y-131710952D01*
X102885595Y-131806190D01*
X102885595Y-132091904D01*
X102837976Y-132187142D01*
X102790357Y-132234761D01*
X102695119Y-132282380D01*
X102504642Y-132282380D01*
X102409404Y-132234761D01*
X103695119Y-132234761D02*
X103599880Y-132282380D01*
X103409404Y-132282380D01*
X103314166Y-132234761D01*
X103266547Y-132139523D01*
X103266547Y-131758571D01*
X103314166Y-131663333D01*
X103409404Y-131615714D01*
X103599880Y-131615714D01*
X103695119Y-131663333D01*
X103742738Y-131758571D01*
X103742738Y-131853809D01*
X103266547Y-131949047D01*
X96067619Y-51194880D02*
X97067619Y-51194880D01*
X96067619Y-51671071D02*
X97067619Y-51671071D01*
X96067619Y-52242500D01*
X97067619Y-52242500D01*
X97067619Y-52575833D02*
X97067619Y-53147261D01*
X96067619Y-52861547D02*
X97067619Y-52861547D01*
X75842857Y-46067261D02*
X75795238Y-46019642D01*
X75747619Y-45876785D01*
X75747619Y-45781547D01*
X75795238Y-45638690D01*
X75890476Y-45543452D01*
X75985714Y-45495833D01*
X76176190Y-45448214D01*
X76319047Y-45448214D01*
X76509523Y-45495833D01*
X76604761Y-45543452D01*
X76700000Y-45638690D01*
X76747619Y-45781547D01*
X76747619Y-45876785D01*
X76700000Y-46019642D01*
X76652380Y-46067261D01*
X75795238Y-46448214D02*
X75747619Y-46591071D01*
X75747619Y-46829166D01*
X75795238Y-46924404D01*
X75842857Y-46972023D01*
X75938095Y-47019642D01*
X76033333Y-47019642D01*
X76128571Y-46972023D01*
X76176190Y-46924404D01*
X76223809Y-46829166D01*
X76271428Y-46638690D01*
X76319047Y-46543452D01*
X76366666Y-46495833D01*
X76461904Y-46448214D01*
X76557142Y-46448214D01*
X76652380Y-46495833D01*
X76700000Y-46543452D01*
X76747619Y-46638690D01*
X76747619Y-46876785D01*
X76700000Y-47019642D01*
X76747619Y-47352976D02*
X76747619Y-47972023D01*
X76366666Y-47638690D01*
X76366666Y-47781547D01*
X76319047Y-47876785D01*
X76271428Y-47924404D01*
X76176190Y-47972023D01*
X75938095Y-47972023D01*
X75842857Y-47924404D01*
X75795238Y-47876785D01*
X75747619Y-47781547D01*
X75747619Y-47495833D01*
X75795238Y-47400595D01*
X75842857Y-47352976D01*
X110037619Y-50798214D02*
X110513809Y-50464880D01*
X110037619Y-50226785D02*
X111037619Y-50226785D01*
X111037619Y-50607738D01*
X110990000Y-50702976D01*
X110942380Y-50750595D01*
X110847142Y-50798214D01*
X110704285Y-50798214D01*
X110609047Y-50750595D01*
X110561428Y-50702976D01*
X110513809Y-50607738D01*
X110513809Y-50226785D01*
X110561428Y-51226785D02*
X110561428Y-51560119D01*
X110037619Y-51702976D02*
X110037619Y-51226785D01*
X111037619Y-51226785D01*
X111037619Y-51702976D01*
X110085238Y-52083928D02*
X110037619Y-52226785D01*
X110037619Y-52464880D01*
X110085238Y-52560119D01*
X110132857Y-52607738D01*
X110228095Y-52655357D01*
X110323333Y-52655357D01*
X110418571Y-52607738D01*
X110466190Y-52560119D01*
X110513809Y-52464880D01*
X110561428Y-52274404D01*
X110609047Y-52179166D01*
X110656666Y-52131547D01*
X110751904Y-52083928D01*
X110847142Y-52083928D01*
X110942380Y-52131547D01*
X110990000Y-52179166D01*
X111037619Y-52274404D01*
X111037619Y-52512500D01*
X110990000Y-52655357D01*
X110561428Y-53083928D02*
X110561428Y-53417261D01*
X110037619Y-53560119D02*
X110037619Y-53083928D01*
X111037619Y-53083928D01*
X111037619Y-53560119D01*
X111037619Y-53845833D02*
X111037619Y-54417261D01*
X110037619Y-54131547D02*
X111037619Y-54131547D01*
%TO.C,J1*%
X57511666Y-121102380D02*
X57511666Y-121816666D01*
X57464047Y-121959523D01*
X57368809Y-122054761D01*
X57225952Y-122102380D01*
X57130714Y-122102380D01*
X58511666Y-122102380D02*
X57940238Y-122102380D01*
X58225952Y-122102380D02*
X58225952Y-121102380D01*
X58130714Y-121245238D01*
X58035476Y-121340476D01*
X57940238Y-121388095D01*
%TO.C,J2*%
X57511666Y-98242380D02*
X57511666Y-98956666D01*
X57464047Y-99099523D01*
X57368809Y-99194761D01*
X57225952Y-99242380D01*
X57130714Y-99242380D01*
X57940238Y-98337619D02*
X57987857Y-98290000D01*
X58083095Y-98242380D01*
X58321190Y-98242380D01*
X58416428Y-98290000D01*
X58464047Y-98337619D01*
X58511666Y-98432857D01*
X58511666Y-98528095D01*
X58464047Y-98670952D01*
X57892619Y-99242380D01*
X58511666Y-99242380D01*
%TO.C,J3*%
X57511666Y-75382380D02*
X57511666Y-76096666D01*
X57464047Y-76239523D01*
X57368809Y-76334761D01*
X57225952Y-76382380D01*
X57130714Y-76382380D01*
X57892619Y-75382380D02*
X58511666Y-75382380D01*
X58178333Y-75763333D01*
X58321190Y-75763333D01*
X58416428Y-75810952D01*
X58464047Y-75858571D01*
X58511666Y-75953809D01*
X58511666Y-76191904D01*
X58464047Y-76287142D01*
X58416428Y-76334761D01*
X58321190Y-76382380D01*
X58035476Y-76382380D01*
X57940238Y-76334761D01*
X57892619Y-76287142D01*
%TO.C,J7*%
X129776666Y-121602380D02*
X129776666Y-122316666D01*
X129729047Y-122459523D01*
X129633809Y-122554761D01*
X129490952Y-122602380D01*
X129395714Y-122602380D01*
X130157619Y-121602380D02*
X130824285Y-121602380D01*
X130395714Y-122602380D01*
%TO.C,J8*%
X129776666Y-98742380D02*
X129776666Y-99456666D01*
X129729047Y-99599523D01*
X129633809Y-99694761D01*
X129490952Y-99742380D01*
X129395714Y-99742380D01*
X130395714Y-99170952D02*
X130300476Y-99123333D01*
X130252857Y-99075714D01*
X130205238Y-98980476D01*
X130205238Y-98932857D01*
X130252857Y-98837619D01*
X130300476Y-98790000D01*
X130395714Y-98742380D01*
X130586190Y-98742380D01*
X130681428Y-98790000D01*
X130729047Y-98837619D01*
X130776666Y-98932857D01*
X130776666Y-98980476D01*
X130729047Y-99075714D01*
X130681428Y-99123333D01*
X130586190Y-99170952D01*
X130395714Y-99170952D01*
X130300476Y-99218571D01*
X130252857Y-99266190D01*
X130205238Y-99361428D01*
X130205238Y-99551904D01*
X130252857Y-99647142D01*
X130300476Y-99694761D01*
X130395714Y-99742380D01*
X130586190Y-99742380D01*
X130681428Y-99694761D01*
X130729047Y-99647142D01*
X130776666Y-99551904D01*
X130776666Y-99361428D01*
X130729047Y-99266190D01*
X130681428Y-99218571D01*
X130586190Y-99170952D01*
%TO.C,J9*%
X129776666Y-75882380D02*
X129776666Y-76596666D01*
X129729047Y-76739523D01*
X129633809Y-76834761D01*
X129490952Y-76882380D01*
X129395714Y-76882380D01*
X130300476Y-76882380D02*
X130490952Y-76882380D01*
X130586190Y-76834761D01*
X130633809Y-76787142D01*
X130729047Y-76644285D01*
X130776666Y-76453809D01*
X130776666Y-76072857D01*
X130729047Y-75977619D01*
X130681428Y-75930000D01*
X130586190Y-75882380D01*
X130395714Y-75882380D01*
X130300476Y-75930000D01*
X130252857Y-75977619D01*
X130205238Y-76072857D01*
X130205238Y-76310952D01*
X130252857Y-76406190D01*
X130300476Y-76453809D01*
X130395714Y-76501428D01*
X130586190Y-76501428D01*
X130681428Y-76453809D01*
X130729047Y-76406190D01*
X130776666Y-76310952D01*
%TO.C,U1*%
X93478095Y-105992380D02*
X93478095Y-106801904D01*
X93525714Y-106897142D01*
X93573333Y-106944761D01*
X93668571Y-106992380D01*
X93859047Y-106992380D01*
X93954285Y-106944761D01*
X94001904Y-106897142D01*
X94049523Y-106801904D01*
X94049523Y-105992380D01*
X95049523Y-106992380D02*
X94478095Y-106992380D01*
X94763809Y-106992380D02*
X94763809Y-105992380D01*
X94668571Y-106135238D01*
X94573333Y-106230476D01*
X94478095Y-106278095D01*
%TO.C,J4*%
X83062380Y-52403333D02*
X83776666Y-52403333D01*
X83919523Y-52450952D01*
X84014761Y-52546190D01*
X84062380Y-52689047D01*
X84062380Y-52784285D01*
X83395714Y-51498571D02*
X84062380Y-51498571D01*
X83014761Y-51736666D02*
X83729047Y-51974761D01*
X83729047Y-51355714D01*
%TO.C,J10*%
X107140476Y-55122380D02*
X107140476Y-55836666D01*
X107092857Y-55979523D01*
X106997619Y-56074761D01*
X106854761Y-56122380D01*
X106759523Y-56122380D01*
X108140476Y-56122380D02*
X107569047Y-56122380D01*
X107854761Y-56122380D02*
X107854761Y-55122380D01*
X107759523Y-55265238D01*
X107664285Y-55360476D01*
X107569047Y-55408095D01*
X108759523Y-55122380D02*
X108854761Y-55122380D01*
X108950000Y-55170000D01*
X108997619Y-55217619D01*
X109045238Y-55312857D01*
X109092857Y-55503333D01*
X109092857Y-55741428D01*
X109045238Y-55931904D01*
X108997619Y-56027142D01*
X108950000Y-56074761D01*
X108854761Y-56122380D01*
X108759523Y-56122380D01*
X108664285Y-56074761D01*
X108616666Y-56027142D01*
X108569047Y-55931904D01*
X108521428Y-55741428D01*
X108521428Y-55503333D01*
X108569047Y-55312857D01*
X108616666Y-55217619D01*
X108664285Y-55170000D01*
X108759523Y-55122380D01*
%TO.C,J11*%
X93170476Y-55122380D02*
X93170476Y-55836666D01*
X93122857Y-55979523D01*
X93027619Y-56074761D01*
X92884761Y-56122380D01*
X92789523Y-56122380D01*
X94170476Y-56122380D02*
X93599047Y-56122380D01*
X93884761Y-56122380D02*
X93884761Y-55122380D01*
X93789523Y-55265238D01*
X93694285Y-55360476D01*
X93599047Y-55408095D01*
X95122857Y-56122380D02*
X94551428Y-56122380D01*
X94837142Y-56122380D02*
X94837142Y-55122380D01*
X94741904Y-55265238D01*
X94646666Y-55360476D01*
X94551428Y-55408095D01*
%TO.C,R2*%
X88733333Y-45072380D02*
X88400000Y-44596190D01*
X88161904Y-45072380D02*
X88161904Y-44072380D01*
X88542857Y-44072380D01*
X88638095Y-44120000D01*
X88685714Y-44167619D01*
X88733333Y-44262857D01*
X88733333Y-44405714D01*
X88685714Y-44500952D01*
X88638095Y-44548571D01*
X88542857Y-44596190D01*
X88161904Y-44596190D01*
X89114285Y-44167619D02*
X89161904Y-44120000D01*
X89257142Y-44072380D01*
X89495238Y-44072380D01*
X89590476Y-44120000D01*
X89638095Y-44167619D01*
X89685714Y-44262857D01*
X89685714Y-44358095D01*
X89638095Y-44500952D01*
X89066666Y-45072380D01*
X89685714Y-45072380D01*
%TO.C,R1*%
X102703333Y-45072380D02*
X102370000Y-44596190D01*
X102131904Y-45072380D02*
X102131904Y-44072380D01*
X102512857Y-44072380D01*
X102608095Y-44120000D01*
X102655714Y-44167619D01*
X102703333Y-44262857D01*
X102703333Y-44405714D01*
X102655714Y-44500952D01*
X102608095Y-44548571D01*
X102512857Y-44596190D01*
X102131904Y-44596190D01*
X103655714Y-45072380D02*
X103084285Y-45072380D01*
X103370000Y-45072380D02*
X103370000Y-44072380D01*
X103274761Y-44215238D01*
X103179523Y-44310476D01*
X103084285Y-44358095D01*
D11*
%TO.C,J1*%
X56860000Y-112140000D02*
X50860000Y-112140000D01*
X50860000Y-107060000D02*
X50860000Y-106300000D01*
X50860000Y-108840000D02*
X56860000Y-108840000D01*
X56860000Y-119340000D02*
X50860000Y-119340000D01*
X62457071Y-114680000D02*
X62002929Y-114680000D01*
X62457071Y-107060000D02*
X62002929Y-107060000D01*
X59917071Y-119760000D02*
X59520000Y-119760000D01*
X50860000Y-113920000D02*
X56860000Y-113920000D01*
X59917071Y-116460000D02*
X59520000Y-116460000D01*
X56860000Y-120710000D02*
X59520000Y-120710000D01*
X59917071Y-109600000D02*
X59520000Y-109600000D01*
X50860000Y-111380000D02*
X56860000Y-111380000D01*
X56860000Y-117220000D02*
X50860000Y-117220000D01*
X64770000Y-119380000D02*
X64770000Y-120650000D01*
X50860000Y-112140000D02*
X50860000Y-111380000D01*
X56860000Y-119460000D02*
X50860000Y-119460000D01*
X59520000Y-115570000D02*
X56860000Y-115570000D01*
X59520000Y-118110000D02*
X56860000Y-118110000D01*
X59917071Y-114680000D02*
X59520000Y-114680000D01*
X56860000Y-114680000D02*
X50860000Y-114680000D01*
X56860000Y-107060000D02*
X50860000Y-107060000D01*
X59520000Y-105350000D02*
X56860000Y-105350000D01*
X50860000Y-119000000D02*
X56860000Y-119000000D01*
X62457071Y-113920000D02*
X62002929Y-113920000D01*
X62457071Y-108840000D02*
X62002929Y-108840000D01*
X50860000Y-114680000D02*
X50860000Y-113920000D01*
X59917071Y-117220000D02*
X59520000Y-117220000D01*
X62457071Y-117220000D02*
X62002929Y-117220000D01*
X62457071Y-112140000D02*
X62002929Y-112140000D01*
X59917071Y-107060000D02*
X59520000Y-107060000D01*
X59917071Y-106300000D02*
X59520000Y-106300000D01*
X62457071Y-106300000D02*
X62002929Y-106300000D01*
X56860000Y-119760000D02*
X50860000Y-119760000D01*
X59917071Y-119000000D02*
X59520000Y-119000000D01*
X56860000Y-119580000D02*
X50860000Y-119580000D01*
X62390000Y-119000000D02*
X62002929Y-119000000D01*
X50860000Y-117220000D02*
X50860000Y-116460000D01*
X56860000Y-119220000D02*
X50860000Y-119220000D01*
X56860000Y-109600000D02*
X50860000Y-109600000D01*
X59520000Y-110490000D02*
X56860000Y-110490000D01*
X62457071Y-109600000D02*
X62002929Y-109600000D01*
X59520000Y-120710000D02*
X59520000Y-105350000D01*
X59917071Y-108840000D02*
X59520000Y-108840000D01*
X56860000Y-105350000D02*
X56860000Y-120710000D01*
X59520000Y-113030000D02*
X56860000Y-113030000D01*
X62457071Y-111380000D02*
X62002929Y-111380000D01*
X59520000Y-107950000D02*
X56860000Y-107950000D01*
X59917071Y-113920000D02*
X59520000Y-113920000D01*
X64770000Y-120650000D02*
X63500000Y-120650000D01*
X56860000Y-119700000D02*
X50860000Y-119700000D01*
X50860000Y-119760000D02*
X50860000Y-119000000D01*
X62457071Y-116460000D02*
X62002929Y-116460000D01*
X59917071Y-111380000D02*
X59520000Y-111380000D01*
X62390000Y-119760000D02*
X62002929Y-119760000D01*
X50860000Y-116460000D02*
X56860000Y-116460000D01*
X59917071Y-112140000D02*
X59520000Y-112140000D01*
X56860000Y-119100000D02*
X50860000Y-119100000D01*
X50860000Y-106300000D02*
X56860000Y-106300000D01*
X50860000Y-109600000D02*
X50860000Y-108840000D01*
%TO.C,J2*%
X56860000Y-96360000D02*
X50860000Y-96360000D01*
X62457071Y-93600000D02*
X62002929Y-93600000D01*
X59917071Y-96900000D02*
X59520000Y-96900000D01*
X59917071Y-89280000D02*
X59520000Y-89280000D01*
X62457071Y-91060000D02*
X62002929Y-91060000D01*
X62457071Y-85980000D02*
X62002929Y-85980000D01*
X64770000Y-96520000D02*
X64770000Y-97790000D01*
X56860000Y-89280000D02*
X50860000Y-89280000D01*
X56860000Y-84200000D02*
X50860000Y-84200000D01*
X62390000Y-96900000D02*
X62002929Y-96900000D01*
X59520000Y-92710000D02*
X56860000Y-92710000D01*
X50860000Y-85980000D02*
X56860000Y-85980000D01*
X56860000Y-96900000D02*
X50860000Y-96900000D01*
X50860000Y-93600000D02*
X56860000Y-93600000D01*
X50860000Y-89280000D02*
X50860000Y-88520000D01*
X56860000Y-96720000D02*
X50860000Y-96720000D01*
X50860000Y-88520000D02*
X56860000Y-88520000D01*
X62390000Y-96140000D02*
X62002929Y-96140000D01*
X56860000Y-96240000D02*
X50860000Y-96240000D01*
X56860000Y-86740000D02*
X50860000Y-86740000D01*
X59917071Y-91820000D02*
X59520000Y-91820000D01*
X56860000Y-91820000D02*
X50860000Y-91820000D01*
X59917071Y-86740000D02*
X59520000Y-86740000D01*
X59917071Y-94360000D02*
X59520000Y-94360000D01*
X59917071Y-84200000D02*
X59520000Y-84200000D01*
X56860000Y-94360000D02*
X50860000Y-94360000D01*
X59520000Y-90170000D02*
X56860000Y-90170000D01*
X50860000Y-91820000D02*
X50860000Y-91060000D01*
X50860000Y-84200000D02*
X50860000Y-83440000D01*
X56860000Y-96600000D02*
X50860000Y-96600000D01*
X62457071Y-84200000D02*
X62002929Y-84200000D01*
X59917071Y-85980000D02*
X59520000Y-85980000D01*
X50860000Y-94360000D02*
X50860000Y-93600000D01*
X59520000Y-97850000D02*
X59520000Y-82490000D01*
X56860000Y-96840000D02*
X50860000Y-96840000D01*
X59520000Y-87630000D02*
X56860000Y-87630000D01*
X50860000Y-91060000D02*
X56860000Y-91060000D01*
X62457071Y-86740000D02*
X62002929Y-86740000D01*
X59917071Y-83440000D02*
X59520000Y-83440000D01*
X62457071Y-88520000D02*
X62002929Y-88520000D01*
X64770000Y-97790000D02*
X63500000Y-97790000D01*
X62457071Y-91820000D02*
X62002929Y-91820000D01*
X59520000Y-95250000D02*
X56860000Y-95250000D01*
X50860000Y-86740000D02*
X50860000Y-85980000D01*
X50860000Y-96900000D02*
X50860000Y-96140000D01*
X62457071Y-89280000D02*
X62002929Y-89280000D01*
X56860000Y-96480000D02*
X50860000Y-96480000D01*
X56860000Y-97850000D02*
X59520000Y-97850000D01*
X59917071Y-93600000D02*
X59520000Y-93600000D01*
X59917071Y-88520000D02*
X59520000Y-88520000D01*
X50860000Y-83440000D02*
X56860000Y-83440000D01*
X59917071Y-91060000D02*
X59520000Y-91060000D01*
X59520000Y-82490000D02*
X56860000Y-82490000D01*
X62457071Y-83440000D02*
X62002929Y-83440000D01*
X56860000Y-82490000D02*
X56860000Y-97850000D01*
X59520000Y-85090000D02*
X56860000Y-85090000D01*
X62457071Y-94360000D02*
X62002929Y-94360000D01*
X59917071Y-96140000D02*
X59520000Y-96140000D01*
X50860000Y-96140000D02*
X56860000Y-96140000D01*
%TO.C,J3*%
X59917071Y-61340000D02*
X59520000Y-61340000D01*
X56860000Y-73740000D02*
X50860000Y-73740000D01*
X62457071Y-68200000D02*
X62002929Y-68200000D01*
X56860000Y-61340000D02*
X50860000Y-61340000D01*
X62457071Y-63880000D02*
X62002929Y-63880000D01*
X59917071Y-63880000D02*
X59520000Y-63880000D01*
X50860000Y-71500000D02*
X50860000Y-70740000D01*
X56860000Y-74040000D02*
X50860000Y-74040000D01*
X62457071Y-71500000D02*
X62002929Y-71500000D01*
X56860000Y-73860000D02*
X50860000Y-73860000D01*
X50860000Y-66420000D02*
X50860000Y-65660000D01*
X50860000Y-63120000D02*
X56860000Y-63120000D01*
X56860000Y-73620000D02*
X50860000Y-73620000D01*
X56860000Y-73380000D02*
X50860000Y-73380000D01*
X62457071Y-61340000D02*
X62002929Y-61340000D01*
X50860000Y-70740000D02*
X56860000Y-70740000D01*
X59520000Y-64770000D02*
X56860000Y-64770000D01*
X56860000Y-63880000D02*
X50860000Y-63880000D01*
X64770000Y-73660000D02*
X64770000Y-74930000D01*
X62457071Y-68960000D02*
X62002929Y-68960000D01*
X50860000Y-65660000D02*
X56860000Y-65660000D01*
X59520000Y-62230000D02*
X56860000Y-62230000D01*
X62457071Y-63120000D02*
X62002929Y-63120000D01*
X50860000Y-60580000D02*
X56860000Y-60580000D01*
X59917071Y-65660000D02*
X59520000Y-65660000D01*
X59917071Y-68200000D02*
X59520000Y-68200000D01*
X59917071Y-70740000D02*
X59520000Y-70740000D01*
X50860000Y-68960000D02*
X50860000Y-68200000D01*
X59520000Y-67310000D02*
X56860000Y-67310000D01*
X50860000Y-74040000D02*
X50860000Y-73280000D01*
X59520000Y-59630000D02*
X56860000Y-59630000D01*
X62390000Y-73280000D02*
X62002929Y-73280000D01*
X59917071Y-71500000D02*
X59520000Y-71500000D01*
X59917071Y-60580000D02*
X59520000Y-60580000D01*
X59917071Y-73280000D02*
X59520000Y-73280000D01*
X59917071Y-68960000D02*
X59520000Y-68960000D01*
X50860000Y-68200000D02*
X56860000Y-68200000D01*
X62390000Y-74040000D02*
X62002929Y-74040000D01*
X62457071Y-70740000D02*
X62002929Y-70740000D01*
X62457071Y-66420000D02*
X62002929Y-66420000D01*
X59520000Y-72390000D02*
X56860000Y-72390000D01*
X56860000Y-68960000D02*
X50860000Y-68960000D01*
X56860000Y-59630000D02*
X56860000Y-74990000D01*
X64770000Y-74930000D02*
X63500000Y-74930000D01*
X50860000Y-63880000D02*
X50860000Y-63120000D01*
X56860000Y-73500000D02*
X50860000Y-73500000D01*
X59520000Y-69850000D02*
X56860000Y-69850000D01*
X59917071Y-66420000D02*
X59520000Y-66420000D01*
X59917071Y-74040000D02*
X59520000Y-74040000D01*
X62457071Y-65660000D02*
X62002929Y-65660000D01*
X59520000Y-74990000D02*
X59520000Y-59630000D01*
X56860000Y-73980000D02*
X50860000Y-73980000D01*
X59917071Y-63120000D02*
X59520000Y-63120000D01*
X50860000Y-61340000D02*
X50860000Y-60580000D01*
X56860000Y-71500000D02*
X50860000Y-71500000D01*
X56860000Y-66420000D02*
X50860000Y-66420000D01*
X56860000Y-74990000D02*
X59520000Y-74990000D01*
X62457071Y-60580000D02*
X62002929Y-60580000D01*
X50860000Y-73280000D02*
X56860000Y-73280000D01*
%TO.C,J7*%
X128460000Y-114660000D02*
X128050000Y-114660000D01*
X128460000Y-120710000D02*
X128460000Y-105350000D01*
X125950000Y-119020000D02*
X125570000Y-119020000D01*
X125950000Y-112120000D02*
X125510000Y-112120000D01*
X137090000Y-120117620D02*
X128460000Y-120117620D01*
X128460000Y-117200000D02*
X128050000Y-117200000D01*
X137090000Y-119763335D02*
X128460000Y-119763335D01*
X137090000Y-119290955D02*
X128460000Y-119290955D01*
X137090000Y-119172860D02*
X128460000Y-119172860D01*
X137090000Y-120590000D02*
X128460000Y-120590000D01*
X125950000Y-113940000D02*
X125510000Y-113940000D01*
X137090000Y-118936670D02*
X128460000Y-118936670D01*
X125950000Y-107040000D02*
X125510000Y-107040000D01*
X137090000Y-119999525D02*
X128460000Y-119999525D01*
X123350000Y-120710000D02*
X123350000Y-119380000D01*
X137090000Y-119527145D02*
X128460000Y-119527145D01*
X128460000Y-113940000D02*
X128050000Y-113940000D01*
X137090000Y-119054765D02*
X128460000Y-119054765D01*
X125950000Y-111400000D02*
X125510000Y-111400000D01*
X137090000Y-120710000D02*
X128460000Y-120710000D01*
X125950000Y-114660000D02*
X125510000Y-114660000D01*
X137090000Y-115570000D02*
X128460000Y-115570000D01*
X137090000Y-119645240D02*
X128460000Y-119645240D01*
X137090000Y-120353810D02*
X128460000Y-120353810D01*
X137090000Y-118464290D02*
X128460000Y-118464290D01*
X128460000Y-106320000D02*
X128050000Y-106320000D01*
X124460000Y-120710000D02*
X123350000Y-120710000D01*
X137090000Y-120710000D02*
X137090000Y-105350000D01*
X125950000Y-119740000D02*
X125570000Y-119740000D01*
X137090000Y-118818575D02*
X128460000Y-118818575D01*
X128460000Y-108860000D02*
X128050000Y-108860000D01*
X137090000Y-118700480D02*
X128460000Y-118700480D01*
X128460000Y-119020000D02*
X128050000Y-119020000D01*
X128460000Y-112120000D02*
X128050000Y-112120000D01*
X128460000Y-107040000D02*
X128050000Y-107040000D01*
X128460000Y-119740000D02*
X128050000Y-119740000D01*
X128460000Y-116480000D02*
X128050000Y-116480000D01*
X137090000Y-120235715D02*
X128460000Y-120235715D01*
X128460000Y-111400000D02*
X128050000Y-111400000D01*
X125950000Y-106320000D02*
X125510000Y-106320000D01*
X137090000Y-118110000D02*
X128460000Y-118110000D01*
X137090000Y-118228100D02*
X128460000Y-118228100D01*
X125950000Y-117200000D02*
X125510000Y-117200000D01*
X137090000Y-113030000D02*
X128460000Y-113030000D01*
X128460000Y-109580000D02*
X128050000Y-109580000D01*
X137090000Y-118346195D02*
X128460000Y-118346195D01*
X137090000Y-110490000D02*
X128460000Y-110490000D01*
X137090000Y-105350000D02*
X128460000Y-105350000D01*
X125950000Y-108860000D02*
X125510000Y-108860000D01*
X137090000Y-118582385D02*
X128460000Y-118582385D01*
X137090000Y-119881430D02*
X128460000Y-119881430D01*
X137090000Y-107950000D02*
X128460000Y-107950000D01*
X125950000Y-109580000D02*
X125510000Y-109580000D01*
X137090000Y-120471905D02*
X128460000Y-120471905D01*
X125950000Y-116480000D02*
X125510000Y-116480000D01*
X137090000Y-119409050D02*
X128460000Y-119409050D01*
%TO.C,J8*%
X137090000Y-96785240D02*
X128460000Y-96785240D01*
X137090000Y-96076670D02*
X128460000Y-96076670D01*
X137090000Y-85090000D02*
X128460000Y-85090000D01*
X123350000Y-97850000D02*
X123350000Y-96520000D01*
X137090000Y-96903335D02*
X128460000Y-96903335D01*
X137090000Y-96667145D02*
X128460000Y-96667145D01*
X124460000Y-97850000D02*
X123350000Y-97850000D01*
X137090000Y-96430955D02*
X128460000Y-96430955D01*
X137090000Y-96194765D02*
X128460000Y-96194765D01*
X128460000Y-97850000D02*
X128460000Y-82490000D01*
X125950000Y-89260000D02*
X125510000Y-89260000D01*
X128460000Y-91800000D02*
X128050000Y-91800000D01*
X128460000Y-86720000D02*
X128050000Y-86720000D01*
X125950000Y-91080000D02*
X125510000Y-91080000D01*
X137090000Y-92710000D02*
X128460000Y-92710000D01*
X125950000Y-83460000D02*
X125510000Y-83460000D01*
X137090000Y-87630000D02*
X128460000Y-87630000D01*
X128460000Y-91080000D02*
X128050000Y-91080000D01*
X137090000Y-97850000D02*
X137090000Y-82490000D01*
X137090000Y-95486195D02*
X128460000Y-95486195D01*
X137090000Y-95604290D02*
X128460000Y-95604290D01*
X125950000Y-96160000D02*
X125570000Y-96160000D01*
X137090000Y-97139525D02*
X128460000Y-97139525D01*
X125950000Y-88540000D02*
X125510000Y-88540000D01*
X125950000Y-94340000D02*
X125510000Y-94340000D01*
X128460000Y-96160000D02*
X128050000Y-96160000D01*
X137090000Y-95250000D02*
X128460000Y-95250000D01*
X137090000Y-97257620D02*
X128460000Y-97257620D01*
X137090000Y-96312860D02*
X128460000Y-96312860D01*
X125950000Y-91800000D02*
X125510000Y-91800000D01*
X137090000Y-82490000D02*
X128460000Y-82490000D01*
X128460000Y-94340000D02*
X128050000Y-94340000D01*
X137090000Y-97021430D02*
X128460000Y-97021430D01*
X137090000Y-97611905D02*
X128460000Y-97611905D01*
X137090000Y-96549050D02*
X128460000Y-96549050D01*
X137090000Y-95840480D02*
X128460000Y-95840480D01*
X125950000Y-84180000D02*
X125510000Y-84180000D01*
X137090000Y-95958575D02*
X128460000Y-95958575D01*
X137090000Y-90170000D02*
X128460000Y-90170000D01*
X137090000Y-97375715D02*
X128460000Y-97375715D01*
X125950000Y-86000000D02*
X125510000Y-86000000D01*
X137090000Y-95368100D02*
X128460000Y-95368100D01*
X137090000Y-97493810D02*
X128460000Y-97493810D01*
X128460000Y-88540000D02*
X128050000Y-88540000D01*
X128460000Y-96880000D02*
X128050000Y-96880000D01*
X128460000Y-86000000D02*
X128050000Y-86000000D01*
X125950000Y-96880000D02*
X125570000Y-96880000D01*
X125950000Y-86720000D02*
X125510000Y-86720000D01*
X125950000Y-93620000D02*
X125510000Y-93620000D01*
X128460000Y-89260000D02*
X128050000Y-89260000D01*
X137090000Y-97850000D02*
X128460000Y-97850000D01*
X137090000Y-97730000D02*
X128460000Y-97730000D01*
X128460000Y-83460000D02*
X128050000Y-83460000D01*
X128460000Y-93620000D02*
X128050000Y-93620000D01*
X128460000Y-84180000D02*
X128050000Y-84180000D01*
X137090000Y-95722385D02*
X128460000Y-95722385D01*
%TO.C,J9*%
X128460000Y-63140000D02*
X128050000Y-63140000D01*
X128460000Y-70760000D02*
X128050000Y-70760000D01*
X128460000Y-61320000D02*
X128050000Y-61320000D01*
X137090000Y-69850000D02*
X128460000Y-69850000D01*
X128460000Y-65680000D02*
X128050000Y-65680000D01*
X137090000Y-73570955D02*
X128460000Y-73570955D01*
X137090000Y-72390000D02*
X128460000Y-72390000D01*
X137090000Y-73334765D02*
X128460000Y-73334765D01*
X125950000Y-68940000D02*
X125510000Y-68940000D01*
X125950000Y-73300000D02*
X125570000Y-73300000D01*
X128460000Y-68940000D02*
X128050000Y-68940000D01*
X137090000Y-73689050D02*
X128460000Y-73689050D01*
X125950000Y-60600000D02*
X125510000Y-60600000D01*
X125950000Y-63140000D02*
X125510000Y-63140000D01*
X125950000Y-65680000D02*
X125510000Y-65680000D01*
X137090000Y-72744290D02*
X128460000Y-72744290D01*
X137090000Y-74279525D02*
X128460000Y-74279525D01*
X125950000Y-71480000D02*
X125510000Y-71480000D01*
X128460000Y-66400000D02*
X128050000Y-66400000D01*
X125950000Y-66400000D02*
X125510000Y-66400000D01*
X137090000Y-74870000D02*
X128460000Y-74870000D01*
X137090000Y-73452860D02*
X128460000Y-73452860D01*
X137090000Y-59630000D02*
X128460000Y-59630000D01*
X137090000Y-74990000D02*
X128460000Y-74990000D01*
X137090000Y-74633810D02*
X128460000Y-74633810D01*
X128460000Y-63860000D02*
X128050000Y-63860000D01*
X137090000Y-72508100D02*
X128460000Y-72508100D01*
X137090000Y-72862385D02*
X128460000Y-72862385D01*
X137090000Y-67310000D02*
X128460000Y-67310000D01*
X137090000Y-73216670D02*
X128460000Y-73216670D01*
X128460000Y-74020000D02*
X128050000Y-74020000D01*
X137090000Y-74751905D02*
X128460000Y-74751905D01*
X125950000Y-68220000D02*
X125510000Y-68220000D01*
X128460000Y-68220000D02*
X128050000Y-68220000D01*
X125950000Y-61320000D02*
X125510000Y-61320000D01*
X125950000Y-70760000D02*
X125510000Y-70760000D01*
X137090000Y-64770000D02*
X128460000Y-64770000D01*
X137090000Y-74397620D02*
X128460000Y-74397620D01*
X128460000Y-60600000D02*
X128050000Y-60600000D01*
X137090000Y-72626195D02*
X128460000Y-72626195D01*
X128460000Y-71480000D02*
X128050000Y-71480000D01*
X137090000Y-74990000D02*
X137090000Y-59630000D01*
X125950000Y-63860000D02*
X125510000Y-63860000D01*
X137090000Y-73098575D02*
X128460000Y-73098575D01*
X128460000Y-74990000D02*
X128460000Y-59630000D01*
X137090000Y-74043335D02*
X128460000Y-74043335D01*
X137090000Y-74515715D02*
X128460000Y-74515715D01*
X123350000Y-74990000D02*
X123350000Y-73660000D01*
X137090000Y-62230000D02*
X128460000Y-62230000D01*
X125950000Y-74020000D02*
X125570000Y-74020000D01*
X137090000Y-73807145D02*
X128460000Y-73807145D01*
X124460000Y-74990000D02*
X123350000Y-74990000D01*
X137090000Y-73925240D02*
X128460000Y-73925240D01*
X137090000Y-74161430D02*
X128460000Y-74161430D01*
X128460000Y-73300000D02*
X128050000Y-73300000D01*
X137090000Y-72980480D02*
X128460000Y-72980480D01*
%TO.C,U1*%
X74740000Y-74500000D02*
X113740000Y-74500000D01*
X74740000Y-134500000D02*
X74740000Y-74500000D01*
X113740000Y-74500000D02*
X113740000Y-134500000D01*
X113740000Y-134500000D02*
X74740000Y-134500000D01*
%TO.C,J4*%
X82610000Y-52070000D02*
X82610000Y-54670000D01*
X80010000Y-49470000D02*
X80010000Y-52070000D01*
X81280000Y-49470000D02*
X82610000Y-49470000D01*
X80010000Y-49470000D02*
X74870000Y-49470000D01*
X80010000Y-52070000D02*
X82610000Y-52070000D01*
X82610000Y-49470000D02*
X82610000Y-50800000D01*
X74870000Y-49470000D02*
X74870000Y-54670000D01*
X82610000Y-54670000D02*
X74870000Y-54670000D01*
%TO.C,J10*%
X109280000Y-53340000D02*
X109280000Y-54670000D01*
X106620000Y-52070000D02*
X106620000Y-49470000D01*
X109280000Y-49470000D02*
X106620000Y-49470000D01*
X109280000Y-54670000D02*
X107950000Y-54670000D01*
X109280000Y-52070000D02*
X106620000Y-52070000D01*
X109280000Y-52070000D02*
X109280000Y-49470000D01*
%TO.C,J11*%
X95310000Y-52070000D02*
X92650000Y-52070000D01*
X92650000Y-52070000D02*
X92650000Y-49470000D01*
X95310000Y-52070000D02*
X95310000Y-49470000D01*
X95310000Y-54670000D02*
X93980000Y-54670000D01*
X95310000Y-49470000D02*
X92650000Y-49470000D01*
X95310000Y-53340000D02*
X95310000Y-54670000D01*
%TO.C,R2*%
X85630000Y-45620000D02*
X85630000Y-48360000D01*
X84860000Y-46990000D02*
X85630000Y-46990000D01*
X92940000Y-46990000D02*
X92170000Y-46990000D01*
X92170000Y-45620000D02*
X85630000Y-45620000D01*
X92170000Y-48360000D02*
X92170000Y-45620000D01*
X85630000Y-48360000D02*
X92170000Y-48360000D01*
%TO.C,R1*%
X106140000Y-48360000D02*
X106140000Y-45620000D01*
X106910000Y-46990000D02*
X106140000Y-46990000D01*
X106140000Y-45620000D02*
X99600000Y-45620000D01*
X99600000Y-45620000D02*
X99600000Y-48360000D01*
X99600000Y-48360000D02*
X106140000Y-48360000D01*
X98830000Y-46990000D02*
X99600000Y-46990000D01*
%TD*%
M02*
