%TF.GenerationSoftware,KiCad,Pcbnew,(6.0.1)*%
%TF.CreationDate,2022-02-02T16:31:26+01:00*%
%TF.ProjectId,modules_board,6d6f6475-6c65-4735-9f62-6f6172642e6b,rev?*%
%TF.SameCoordinates,Original*%
%TF.FileFunction,Soldermask,Bot*%
%TF.FilePolarity,Negative*%
%FSLAX46Y46*%
G04 Gerber Fmt 4.6, Leading zero omitted, Abs format (unit mm)*
G04 Created by KiCad (PCBNEW (6.0.1)) date 2022-02-02 16:31:26*
%MOMM*%
%LPD*%
G01*
G04 APERTURE LIST*
%ADD10R,1.700000X1.700000*%
%ADD11O,1.700000X1.700000*%
%ADD12C,0.800000*%
%ADD13C,6.400000*%
%ADD14C,3.200000*%
%ADD15C,1.524000*%
%ADD16C,1.600000*%
%ADD17O,1.600000X1.600000*%
G04 APERTURE END LIST*
D10*
%TO.C,J1*%
X63500000Y-119380000D03*
D11*
X60960000Y-119380000D03*
X63500000Y-116840000D03*
X60960000Y-116840000D03*
X63500000Y-114300000D03*
X60960000Y-114300000D03*
X63500000Y-111760000D03*
X60960000Y-111760000D03*
X63500000Y-109220000D03*
X60960000Y-109220000D03*
X63500000Y-106680000D03*
X60960000Y-106680000D03*
%TD*%
D10*
%TO.C,J2*%
X63500000Y-96520000D03*
D11*
X60960000Y-96520000D03*
X63500000Y-93980000D03*
X60960000Y-93980000D03*
X63500000Y-91440000D03*
X60960000Y-91440000D03*
X63500000Y-88900000D03*
X60960000Y-88900000D03*
X63500000Y-86360000D03*
X60960000Y-86360000D03*
X63500000Y-83820000D03*
X60960000Y-83820000D03*
%TD*%
D10*
%TO.C,J3*%
X63500000Y-73660000D03*
D11*
X60960000Y-73660000D03*
X63500000Y-71120000D03*
X60960000Y-71120000D03*
X63500000Y-68580000D03*
X60960000Y-68580000D03*
X63500000Y-66040000D03*
X60960000Y-66040000D03*
X63500000Y-63500000D03*
X60960000Y-63500000D03*
X63500000Y-60960000D03*
X60960000Y-60960000D03*
%TD*%
D10*
%TO.C,J7*%
X124460000Y-119380000D03*
D11*
X127000000Y-119380000D03*
X124460000Y-116840000D03*
X127000000Y-116840000D03*
X124460000Y-114300000D03*
X127000000Y-114300000D03*
X124460000Y-111760000D03*
X127000000Y-111760000D03*
X124460000Y-109220000D03*
X127000000Y-109220000D03*
X124460000Y-106680000D03*
X127000000Y-106680000D03*
%TD*%
D10*
%TO.C,J8*%
X124460000Y-96520000D03*
D11*
X127000000Y-96520000D03*
X124460000Y-93980000D03*
X127000000Y-93980000D03*
X124460000Y-91440000D03*
X127000000Y-91440000D03*
X124460000Y-88900000D03*
X127000000Y-88900000D03*
X124460000Y-86360000D03*
X127000000Y-86360000D03*
X124460000Y-83820000D03*
X127000000Y-83820000D03*
%TD*%
D10*
%TO.C,J9*%
X124460000Y-73660000D03*
D11*
X127000000Y-73660000D03*
X124460000Y-71120000D03*
X127000000Y-71120000D03*
X124460000Y-68580000D03*
X127000000Y-68580000D03*
X124460000Y-66040000D03*
X127000000Y-66040000D03*
X124460000Y-63500000D03*
X127000000Y-63500000D03*
X124460000Y-60960000D03*
X127000000Y-60960000D03*
%TD*%
D12*
%TO.C,H1*%
X66040000Y-48260000D03*
X61942944Y-49957056D03*
X63640000Y-45860000D03*
X65337056Y-46562944D03*
X63640000Y-50660000D03*
X61240000Y-48260000D03*
X65337056Y-49957056D03*
D13*
X63640000Y-48260000D03*
D12*
X61942944Y-46562944D03*
%TD*%
D13*
%TO.C,H2*%
X63640000Y-132080000D03*
D12*
X63640000Y-134480000D03*
X66040000Y-132080000D03*
X65337056Y-133777056D03*
X61240000Y-132080000D03*
X61942944Y-130382944D03*
X65337056Y-130382944D03*
X63640000Y-129680000D03*
X61942944Y-133777056D03*
%TD*%
%TO.C,H3*%
X126860000Y-48260000D03*
D13*
X124460000Y-48260000D03*
D12*
X124460000Y-45860000D03*
X122060000Y-48260000D03*
X126157056Y-46562944D03*
X124460000Y-50660000D03*
X122762944Y-49957056D03*
X122762944Y-46562944D03*
X126157056Y-49957056D03*
%TD*%
%TO.C,H4*%
X122762944Y-133777056D03*
X122060000Y-132080000D03*
X122762944Y-130382944D03*
X126157056Y-130382944D03*
X126860000Y-132080000D03*
X124460000Y-134480000D03*
D13*
X124460000Y-132080000D03*
D12*
X126157056Y-133777056D03*
X124460000Y-129680000D03*
%TD*%
D14*
%TO.C,U1*%
X106740000Y-87200000D03*
X80340000Y-128000000D03*
X81740000Y-87200000D03*
X108140000Y-128000000D03*
D15*
X86360000Y-76200000D03*
X88900000Y-76200000D03*
X91440000Y-76200000D03*
X93980000Y-76200000D03*
X96520000Y-76200000D03*
X99060000Y-76200000D03*
X101600000Y-76200000D03*
X104140000Y-76200000D03*
%TD*%
D10*
%TO.C,J4*%
X81280000Y-50800000D03*
D11*
X81280000Y-53340000D03*
X78740000Y-50800000D03*
X78740000Y-53340000D03*
X76200000Y-50800000D03*
X76200000Y-53340000D03*
%TD*%
D10*
%TO.C,J10*%
X107950000Y-53340000D03*
D11*
X107950000Y-50800000D03*
%TD*%
D10*
%TO.C,J11*%
X93980000Y-53340000D03*
D11*
X93980000Y-50800000D03*
%TD*%
D16*
%TO.C,R2*%
X83820000Y-46990000D03*
D17*
X93980000Y-46990000D03*
%TD*%
D16*
%TO.C,R1*%
X97790000Y-46990000D03*
D17*
X107950000Y-46990000D03*
%TD*%
M02*
