%TF.GenerationSoftware,KiCad,Pcbnew,7.0.1*%
%TF.CreationDate,2023-03-26T17:18:11+02:00*%
%TF.ProjectId,AS4432_ANT_PMOD,41533434-3332-45f4-914e-545f504d4f44,rev?*%
%TF.SameCoordinates,Original*%
%TF.FileFunction,Copper,L2,Bot*%
%TF.FilePolarity,Positive*%
%FSLAX46Y46*%
G04 Gerber Fmt 4.6, Leading zero omitted, Abs format (unit mm)*
G04 Created by KiCad (PCBNEW 7.0.1) date 2023-03-26 17:18:11*
%MOMM*%
%LPD*%
G01*
G04 APERTURE LIST*
%TA.AperFunction,ComponentPad*%
%ADD10R,1.700000X1.700000*%
%TD*%
%TA.AperFunction,ComponentPad*%
%ADD11O,1.700000X1.700000*%
%TD*%
G04 APERTURE END LIST*
D10*
%TO.P,J1,1,Pin_1*%
%TO.N,VCC*%
X149860000Y-43180000D03*
D11*
%TO.P,J1,2,Pin_2*%
X152400000Y-43180000D03*
%TO.P,J1,3,Pin_3*%
%TO.N,GND*%
X149860000Y-45720000D03*
%TO.P,J1,4,Pin_4*%
X152400000Y-45720000D03*
%TO.P,J1,5,Pin_5*%
%TO.N,SCK*%
X149860000Y-48260000D03*
%TO.P,J1,6,Pin_6*%
%TO.N,unconnected-(J1-Pin_6-Pad6)*%
X152400000Y-48260000D03*
%TO.P,J1,7,Pin_7*%
%TO.N,MISO*%
X149860000Y-50800000D03*
%TO.P,J1,8,Pin_8*%
%TO.N,unconnected-(J1-Pin_8-Pad8)*%
X152400000Y-50800000D03*
%TO.P,J1,9,Pin_9*%
%TO.N,MOSI*%
X149860000Y-53340000D03*
%TO.P,J1,10,Pin_10*%
%TO.N,nRESET*%
X152400000Y-53340000D03*
%TO.P,J1,11,Pin_11*%
%TO.N,nCS*%
X149860000Y-55880000D03*
%TO.P,J1,12,Pin_12*%
%TO.N,IRQ*%
X152400000Y-55880000D03*
%TD*%
D10*
%TO.P,J2,1,Pin_1*%
%TO.N,Net-(J2-Pin_1)*%
X124460000Y-58420000D03*
%TD*%
%TA.AperFunction,Conductor*%
%TO.N,GND*%
G36*
X156121500Y-38142381D02*
G01*
X156167619Y-38188500D01*
X156184500Y-38251500D01*
X156184500Y-60808500D01*
X156167619Y-60871500D01*
X156121500Y-60917619D01*
X156058500Y-60934500D01*
X122071500Y-60934500D01*
X122008500Y-60917619D01*
X121962381Y-60871500D01*
X121945500Y-60808500D01*
X121945500Y-59317874D01*
X123109500Y-59317874D01*
X123115908Y-59377481D01*
X123166204Y-59512331D01*
X123252453Y-59627546D01*
X123338703Y-59692112D01*
X123367669Y-59713796D01*
X123502517Y-59764091D01*
X123562127Y-59770500D01*
X125357872Y-59770499D01*
X125357874Y-59770499D01*
X125387677Y-59767295D01*
X125417483Y-59764091D01*
X125552331Y-59713796D01*
X125667546Y-59627546D01*
X125753796Y-59512331D01*
X125804091Y-59377483D01*
X125810500Y-59317873D01*
X125810499Y-57522128D01*
X125804091Y-57462517D01*
X125753796Y-57327669D01*
X125732112Y-57298702D01*
X125667546Y-57212453D01*
X125552331Y-57126204D01*
X125417483Y-57075909D01*
X125357872Y-57069500D01*
X123562125Y-57069500D01*
X123502518Y-57075908D01*
X123367668Y-57126204D01*
X123252453Y-57212453D01*
X123166204Y-57327668D01*
X123115909Y-57462517D01*
X123109500Y-57522127D01*
X123109500Y-59317874D01*
X121945500Y-59317874D01*
X121945500Y-55880000D01*
X148504341Y-55880000D01*
X148524937Y-56115409D01*
X148586096Y-56343663D01*
X148685965Y-56557830D01*
X148821507Y-56751404D01*
X148988595Y-56918492D01*
X148988598Y-56918494D01*
X148988599Y-56918495D01*
X149182170Y-57054035D01*
X149229077Y-57075908D01*
X149396336Y-57153903D01*
X149479881Y-57176288D01*
X149624592Y-57215063D01*
X149860000Y-57235659D01*
X150095408Y-57215063D01*
X150323663Y-57153903D01*
X150537830Y-57054035D01*
X150731401Y-56918495D01*
X150898495Y-56751401D01*
X151026787Y-56568180D01*
X151071820Y-56528689D01*
X151130000Y-56514452D01*
X151188180Y-56528689D01*
X151233213Y-56568181D01*
X151361507Y-56751404D01*
X151528595Y-56918492D01*
X151528598Y-56918494D01*
X151528599Y-56918495D01*
X151722170Y-57054035D01*
X151769077Y-57075908D01*
X151936336Y-57153903D01*
X152019881Y-57176288D01*
X152164592Y-57215063D01*
X152400000Y-57235659D01*
X152635408Y-57215063D01*
X152863663Y-57153903D01*
X153077830Y-57054035D01*
X153271401Y-56918495D01*
X153438495Y-56751401D01*
X153574035Y-56557830D01*
X153673903Y-56343663D01*
X153735063Y-56115408D01*
X153755659Y-55880000D01*
X153735063Y-55644592D01*
X153673903Y-55416337D01*
X153574035Y-55202171D01*
X153438495Y-55008599D01*
X153438494Y-55008598D01*
X153438492Y-55008595D01*
X153271404Y-54841507D01*
X153088181Y-54713212D01*
X153048688Y-54668179D01*
X153034452Y-54609999D01*
X153048689Y-54551818D01*
X153088180Y-54506787D01*
X153271401Y-54378495D01*
X153438495Y-54211401D01*
X153574035Y-54017830D01*
X153673903Y-53803663D01*
X153735063Y-53575408D01*
X153755659Y-53340000D01*
X153735063Y-53104592D01*
X153673903Y-52876337D01*
X153574035Y-52662171D01*
X153438495Y-52468599D01*
X153438494Y-52468598D01*
X153438492Y-52468595D01*
X153271404Y-52301507D01*
X153088181Y-52173213D01*
X153048689Y-52128180D01*
X153034452Y-52070000D01*
X153048689Y-52011820D01*
X153088181Y-51966787D01*
X153271401Y-51838495D01*
X153438495Y-51671401D01*
X153574035Y-51477830D01*
X153673903Y-51263663D01*
X153735063Y-51035408D01*
X153755659Y-50800000D01*
X153735063Y-50564592D01*
X153673903Y-50336337D01*
X153574035Y-50122171D01*
X153438495Y-49928599D01*
X153438494Y-49928598D01*
X153438492Y-49928595D01*
X153271404Y-49761507D01*
X153088181Y-49633213D01*
X153048689Y-49588180D01*
X153034452Y-49530000D01*
X153048689Y-49471820D01*
X153088181Y-49426787D01*
X153271401Y-49298495D01*
X153438495Y-49131401D01*
X153574035Y-48937830D01*
X153673903Y-48723663D01*
X153735063Y-48495408D01*
X153755659Y-48260000D01*
X153735063Y-48024592D01*
X153673903Y-47796337D01*
X153574035Y-47582171D01*
X153438495Y-47388599D01*
X153438494Y-47388598D01*
X153438492Y-47388595D01*
X153271404Y-47221507D01*
X153092882Y-47096504D01*
X153051765Y-47048239D01*
X153039361Y-46986060D01*
X153058809Y-46925712D01*
X153105185Y-46882477D01*
X153145298Y-46860769D01*
X153322903Y-46722533D01*
X153475321Y-46556962D01*
X153598419Y-46368548D01*
X153688822Y-46162451D01*
X153736544Y-45974000D01*
X148523455Y-45974000D01*
X148571177Y-46162451D01*
X148661580Y-46368548D01*
X148784678Y-46556962D01*
X148937096Y-46722533D01*
X149114701Y-46860769D01*
X149154815Y-46882477D01*
X149201191Y-46925712D01*
X149220639Y-46986060D01*
X149208235Y-47048239D01*
X149167118Y-47096504D01*
X148988595Y-47221507D01*
X148821507Y-47388595D01*
X148685965Y-47582170D01*
X148586096Y-47796337D01*
X148524937Y-48024590D01*
X148504341Y-48259999D01*
X148524937Y-48495409D01*
X148586096Y-48723663D01*
X148685965Y-48937830D01*
X148821507Y-49131404D01*
X148988595Y-49298492D01*
X149171819Y-49426787D01*
X149211311Y-49471820D01*
X149225548Y-49530000D01*
X149211311Y-49588180D01*
X149171819Y-49633213D01*
X148988595Y-49761507D01*
X148821507Y-49928595D01*
X148685965Y-50122170D01*
X148586096Y-50336337D01*
X148524937Y-50564590D01*
X148504341Y-50800000D01*
X148524937Y-51035409D01*
X148586096Y-51263663D01*
X148685965Y-51477830D01*
X148821507Y-51671404D01*
X148988595Y-51838492D01*
X149171819Y-51966787D01*
X149211311Y-52011820D01*
X149225548Y-52070000D01*
X149211311Y-52128180D01*
X149171819Y-52173213D01*
X148988595Y-52301507D01*
X148821507Y-52468595D01*
X148685965Y-52662170D01*
X148586096Y-52876337D01*
X148524937Y-53104590D01*
X148504341Y-53339999D01*
X148524937Y-53575409D01*
X148586096Y-53803663D01*
X148685965Y-54017830D01*
X148821507Y-54211404D01*
X148988595Y-54378492D01*
X148988598Y-54378494D01*
X148988599Y-54378495D01*
X149171819Y-54506787D01*
X149211311Y-54551820D01*
X149225548Y-54610000D01*
X149211311Y-54668180D01*
X149171819Y-54713213D01*
X148988595Y-54841507D01*
X148821507Y-55008595D01*
X148685965Y-55202170D01*
X148586096Y-55416337D01*
X148524937Y-55644590D01*
X148504341Y-55880000D01*
X121945500Y-55880000D01*
X121945500Y-44077874D01*
X148509500Y-44077874D01*
X148515908Y-44137481D01*
X148566204Y-44272331D01*
X148652453Y-44387546D01*
X148738702Y-44452112D01*
X148767669Y-44473796D01*
X148885164Y-44517618D01*
X148935497Y-44552181D01*
X148963671Y-44606351D01*
X148963070Y-44667407D01*
X148933833Y-44721011D01*
X148784676Y-44883040D01*
X148661580Y-45071451D01*
X148571177Y-45277548D01*
X148523455Y-45465999D01*
X148523456Y-45466000D01*
X153736544Y-45466000D01*
X153736544Y-45465999D01*
X153688822Y-45277548D01*
X153598419Y-45071451D01*
X153475321Y-44883037D01*
X153322903Y-44717466D01*
X153145302Y-44579233D01*
X153105183Y-44557522D01*
X153058808Y-44514285D01*
X153039361Y-44453938D01*
X153051766Y-44391759D01*
X153092881Y-44343496D01*
X153271401Y-44218495D01*
X153438495Y-44051401D01*
X153574035Y-43857830D01*
X153673903Y-43643663D01*
X153735063Y-43415408D01*
X153755659Y-43180000D01*
X153735063Y-42944592D01*
X153673903Y-42716337D01*
X153574035Y-42502171D01*
X153438495Y-42308599D01*
X153438494Y-42308598D01*
X153438492Y-42308595D01*
X153271404Y-42141507D01*
X153077830Y-42005965D01*
X152863663Y-41906096D01*
X152635409Y-41844937D01*
X152517704Y-41834639D01*
X152400000Y-41824341D01*
X152399999Y-41824341D01*
X152164590Y-41844937D01*
X151936337Y-41906096D01*
X151722170Y-42005965D01*
X151528598Y-42141505D01*
X151408873Y-42261230D01*
X151355276Y-42293030D01*
X151292994Y-42295254D01*
X151237265Y-42267358D01*
X151201722Y-42216166D01*
X151173876Y-42141507D01*
X151153796Y-42087669D01*
X151132112Y-42058703D01*
X151067546Y-41972453D01*
X150952331Y-41886204D01*
X150841688Y-41844937D01*
X150817483Y-41835909D01*
X150757872Y-41829500D01*
X148962125Y-41829500D01*
X148902518Y-41835908D01*
X148767668Y-41886204D01*
X148652453Y-41972453D01*
X148566204Y-42087668D01*
X148515909Y-42222517D01*
X148509500Y-42282127D01*
X148509500Y-44077874D01*
X121945500Y-44077874D01*
X121945500Y-38251500D01*
X121962381Y-38188500D01*
X122008500Y-38142381D01*
X122071500Y-38125500D01*
X156058500Y-38125500D01*
X156121500Y-38142381D01*
G37*
%TD.AperFunction*%
%TD*%
M02*
