%TF.GenerationSoftware,KiCad,Pcbnew,7.0.4*%
%TF.CreationDate,2023-05-26T13:22:51+02:00*%
%TF.ProjectId,RC_ST_868_PMOD,52435f53-545f-4383-9638-5f504d4f442e,rev?*%
%TF.SameCoordinates,Original*%
%TF.FileFunction,Legend,Bot*%
%TF.FilePolarity,Positive*%
%FSLAX46Y46*%
G04 Gerber Fmt 4.6, Leading zero omitted, Abs format (unit mm)*
G04 Created by KiCad (PCBNEW 7.0.4) date 2023-05-26 13:22:51*
%MOMM*%
%LPD*%
G01*
G04 APERTURE LIST*
%ADD10C,0.150000*%
%ADD11C,0.120000*%
G04 APERTURE END LIST*
D10*
X145776792Y-46859819D02*
X146110125Y-46383628D01*
X146348220Y-46859819D02*
X146348220Y-45859819D01*
X146348220Y-45859819D02*
X145967268Y-45859819D01*
X145967268Y-45859819D02*
X145872030Y-45907438D01*
X145872030Y-45907438D02*
X145824411Y-45955057D01*
X145824411Y-45955057D02*
X145776792Y-46050295D01*
X145776792Y-46050295D02*
X145776792Y-46193152D01*
X145776792Y-46193152D02*
X145824411Y-46288390D01*
X145824411Y-46288390D02*
X145872030Y-46336009D01*
X145872030Y-46336009D02*
X145967268Y-46383628D01*
X145967268Y-46383628D02*
X146348220Y-46383628D01*
X146443458Y-52209819D02*
X146205363Y-53209819D01*
X146205363Y-53209819D02*
X146014887Y-52495533D01*
X146014887Y-52495533D02*
X145824411Y-53209819D01*
X145824411Y-53209819D02*
X145586316Y-52209819D01*
X120419819Y-42990237D02*
X119419819Y-42990237D01*
X119419819Y-42990237D02*
X119419819Y-43371189D01*
X119419819Y-43371189D02*
X119467438Y-43466427D01*
X119467438Y-43466427D02*
X119515057Y-43514046D01*
X119515057Y-43514046D02*
X119610295Y-43561665D01*
X119610295Y-43561665D02*
X119753152Y-43561665D01*
X119753152Y-43561665D02*
X119848390Y-43514046D01*
X119848390Y-43514046D02*
X119896009Y-43466427D01*
X119896009Y-43466427D02*
X119943628Y-43371189D01*
X119943628Y-43371189D02*
X119943628Y-42990237D01*
X120419819Y-43990237D02*
X119419819Y-43990237D01*
X119419819Y-43990237D02*
X120134104Y-44323570D01*
X120134104Y-44323570D02*
X119419819Y-44656903D01*
X119419819Y-44656903D02*
X120419819Y-44656903D01*
X119419819Y-45323570D02*
X119419819Y-45514046D01*
X119419819Y-45514046D02*
X119467438Y-45609284D01*
X119467438Y-45609284D02*
X119562676Y-45704522D01*
X119562676Y-45704522D02*
X119753152Y-45752141D01*
X119753152Y-45752141D02*
X120086485Y-45752141D01*
X120086485Y-45752141D02*
X120276961Y-45704522D01*
X120276961Y-45704522D02*
X120372200Y-45609284D01*
X120372200Y-45609284D02*
X120419819Y-45514046D01*
X120419819Y-45514046D02*
X120419819Y-45323570D01*
X120419819Y-45323570D02*
X120372200Y-45228332D01*
X120372200Y-45228332D02*
X120276961Y-45133094D01*
X120276961Y-45133094D02*
X120086485Y-45085475D01*
X120086485Y-45085475D02*
X119753152Y-45085475D01*
X119753152Y-45085475D02*
X119562676Y-45133094D01*
X119562676Y-45133094D02*
X119467438Y-45228332D01*
X119467438Y-45228332D02*
X119419819Y-45323570D01*
X120419819Y-46180713D02*
X119419819Y-46180713D01*
X119419819Y-46180713D02*
X119419819Y-46418808D01*
X119419819Y-46418808D02*
X119467438Y-46561665D01*
X119467438Y-46561665D02*
X119562676Y-46656903D01*
X119562676Y-46656903D02*
X119657914Y-46704522D01*
X119657914Y-46704522D02*
X119848390Y-46752141D01*
X119848390Y-46752141D02*
X119991247Y-46752141D01*
X119991247Y-46752141D02*
X120181723Y-46704522D01*
X120181723Y-46704522D02*
X120276961Y-46656903D01*
X120276961Y-46656903D02*
X120372200Y-46561665D01*
X120372200Y-46561665D02*
X120419819Y-46418808D01*
X120419819Y-46418808D02*
X120419819Y-46180713D01*
X119896009Y-48275951D02*
X119943628Y-48418808D01*
X119943628Y-48418808D02*
X119991247Y-48466427D01*
X119991247Y-48466427D02*
X120086485Y-48514046D01*
X120086485Y-48514046D02*
X120229342Y-48514046D01*
X120229342Y-48514046D02*
X120324580Y-48466427D01*
X120324580Y-48466427D02*
X120372200Y-48418808D01*
X120372200Y-48418808D02*
X120419819Y-48323570D01*
X120419819Y-48323570D02*
X120419819Y-47942618D01*
X120419819Y-47942618D02*
X119419819Y-47942618D01*
X119419819Y-47942618D02*
X119419819Y-48275951D01*
X119419819Y-48275951D02*
X119467438Y-48371189D01*
X119467438Y-48371189D02*
X119515057Y-48418808D01*
X119515057Y-48418808D02*
X119610295Y-48466427D01*
X119610295Y-48466427D02*
X119705533Y-48466427D01*
X119705533Y-48466427D02*
X119800771Y-48418808D01*
X119800771Y-48418808D02*
X119848390Y-48371189D01*
X119848390Y-48371189D02*
X119896009Y-48275951D01*
X119896009Y-48275951D02*
X119896009Y-47942618D01*
X120419819Y-48942618D02*
X119753152Y-48942618D01*
X119943628Y-48942618D02*
X119848390Y-48990237D01*
X119848390Y-48990237D02*
X119800771Y-49037856D01*
X119800771Y-49037856D02*
X119753152Y-49133094D01*
X119753152Y-49133094D02*
X119753152Y-49228332D01*
X120372200Y-49942618D02*
X120419819Y-49847380D01*
X120419819Y-49847380D02*
X120419819Y-49656904D01*
X120419819Y-49656904D02*
X120372200Y-49561666D01*
X120372200Y-49561666D02*
X120276961Y-49514047D01*
X120276961Y-49514047D02*
X119896009Y-49514047D01*
X119896009Y-49514047D02*
X119800771Y-49561666D01*
X119800771Y-49561666D02*
X119753152Y-49656904D01*
X119753152Y-49656904D02*
X119753152Y-49847380D01*
X119753152Y-49847380D02*
X119800771Y-49942618D01*
X119800771Y-49942618D02*
X119896009Y-49990237D01*
X119896009Y-49990237D02*
X119991247Y-49990237D01*
X119991247Y-49990237D02*
X120086485Y-49514047D01*
X120419819Y-50847380D02*
X119896009Y-50847380D01*
X119896009Y-50847380D02*
X119800771Y-50799761D01*
X119800771Y-50799761D02*
X119753152Y-50704523D01*
X119753152Y-50704523D02*
X119753152Y-50514047D01*
X119753152Y-50514047D02*
X119800771Y-50418809D01*
X120372200Y-50847380D02*
X120419819Y-50752142D01*
X120419819Y-50752142D02*
X120419819Y-50514047D01*
X120419819Y-50514047D02*
X120372200Y-50418809D01*
X120372200Y-50418809D02*
X120276961Y-50371190D01*
X120276961Y-50371190D02*
X120181723Y-50371190D01*
X120181723Y-50371190D02*
X120086485Y-50418809D01*
X120086485Y-50418809D02*
X120038866Y-50514047D01*
X120038866Y-50514047D02*
X120038866Y-50752142D01*
X120038866Y-50752142D02*
X119991247Y-50847380D01*
X120419819Y-51323571D02*
X119419819Y-51323571D01*
X120038866Y-51418809D02*
X120419819Y-51704523D01*
X119753152Y-51704523D02*
X120134104Y-51323571D01*
X120419819Y-52275952D02*
X120372200Y-52180714D01*
X120372200Y-52180714D02*
X120324580Y-52133095D01*
X120324580Y-52133095D02*
X120229342Y-52085476D01*
X120229342Y-52085476D02*
X119943628Y-52085476D01*
X119943628Y-52085476D02*
X119848390Y-52133095D01*
X119848390Y-52133095D02*
X119800771Y-52180714D01*
X119800771Y-52180714D02*
X119753152Y-52275952D01*
X119753152Y-52275952D02*
X119753152Y-52418809D01*
X119753152Y-52418809D02*
X119800771Y-52514047D01*
X119800771Y-52514047D02*
X119848390Y-52561666D01*
X119848390Y-52561666D02*
X119943628Y-52609285D01*
X119943628Y-52609285D02*
X120229342Y-52609285D01*
X120229342Y-52609285D02*
X120324580Y-52561666D01*
X120324580Y-52561666D02*
X120372200Y-52514047D01*
X120372200Y-52514047D02*
X120419819Y-52418809D01*
X120419819Y-52418809D02*
X120419819Y-52275952D01*
X119753152Y-53466428D02*
X120419819Y-53466428D01*
X119753152Y-53037857D02*
X120276961Y-53037857D01*
X120276961Y-53037857D02*
X120372200Y-53085476D01*
X120372200Y-53085476D02*
X120419819Y-53180714D01*
X120419819Y-53180714D02*
X120419819Y-53323571D01*
X120419819Y-53323571D02*
X120372200Y-53418809D01*
X120372200Y-53418809D02*
X120324580Y-53466428D01*
X119753152Y-53799762D02*
X119753152Y-54180714D01*
X119419819Y-53942619D02*
X120276961Y-53942619D01*
X120276961Y-53942619D02*
X120372200Y-53990238D01*
X120372200Y-53990238D02*
X120419819Y-54085476D01*
X120419819Y-54085476D02*
X120419819Y-54180714D01*
X121363152Y-44252142D02*
X121363152Y-44633094D01*
X122029819Y-44394999D02*
X121172676Y-44394999D01*
X121172676Y-44394999D02*
X121077438Y-44442618D01*
X121077438Y-44442618D02*
X121029819Y-44537856D01*
X121029819Y-44537856D02*
X121029819Y-44633094D01*
X122029819Y-45109285D02*
X121982200Y-45014047D01*
X121982200Y-45014047D02*
X121934580Y-44966428D01*
X121934580Y-44966428D02*
X121839342Y-44918809D01*
X121839342Y-44918809D02*
X121553628Y-44918809D01*
X121553628Y-44918809D02*
X121458390Y-44966428D01*
X121458390Y-44966428D02*
X121410771Y-45014047D01*
X121410771Y-45014047D02*
X121363152Y-45109285D01*
X121363152Y-45109285D02*
X121363152Y-45252142D01*
X121363152Y-45252142D02*
X121410771Y-45347380D01*
X121410771Y-45347380D02*
X121458390Y-45394999D01*
X121458390Y-45394999D02*
X121553628Y-45442618D01*
X121553628Y-45442618D02*
X121839342Y-45442618D01*
X121839342Y-45442618D02*
X121934580Y-45394999D01*
X121934580Y-45394999D02*
X121982200Y-45347380D01*
X121982200Y-45347380D02*
X122029819Y-45252142D01*
X122029819Y-45252142D02*
X122029819Y-45109285D01*
X122029819Y-45871190D02*
X121363152Y-45871190D01*
X121553628Y-45871190D02*
X121458390Y-45918809D01*
X121458390Y-45918809D02*
X121410771Y-45966428D01*
X121410771Y-45966428D02*
X121363152Y-46061666D01*
X121363152Y-46061666D02*
X121363152Y-46156904D01*
X121458390Y-47395000D02*
X121410771Y-47299762D01*
X121410771Y-47299762D02*
X121363152Y-47252143D01*
X121363152Y-47252143D02*
X121267914Y-47204524D01*
X121267914Y-47204524D02*
X121220295Y-47204524D01*
X121220295Y-47204524D02*
X121125057Y-47252143D01*
X121125057Y-47252143D02*
X121077438Y-47299762D01*
X121077438Y-47299762D02*
X121029819Y-47395000D01*
X121029819Y-47395000D02*
X121029819Y-47585476D01*
X121029819Y-47585476D02*
X121077438Y-47680714D01*
X121077438Y-47680714D02*
X121125057Y-47728333D01*
X121125057Y-47728333D02*
X121220295Y-47775952D01*
X121220295Y-47775952D02*
X121267914Y-47775952D01*
X121267914Y-47775952D02*
X121363152Y-47728333D01*
X121363152Y-47728333D02*
X121410771Y-47680714D01*
X121410771Y-47680714D02*
X121458390Y-47585476D01*
X121458390Y-47585476D02*
X121458390Y-47395000D01*
X121458390Y-47395000D02*
X121506009Y-47299762D01*
X121506009Y-47299762D02*
X121553628Y-47252143D01*
X121553628Y-47252143D02*
X121648866Y-47204524D01*
X121648866Y-47204524D02*
X121839342Y-47204524D01*
X121839342Y-47204524D02*
X121934580Y-47252143D01*
X121934580Y-47252143D02*
X121982200Y-47299762D01*
X121982200Y-47299762D02*
X122029819Y-47395000D01*
X122029819Y-47395000D02*
X122029819Y-47585476D01*
X122029819Y-47585476D02*
X121982200Y-47680714D01*
X121982200Y-47680714D02*
X121934580Y-47728333D01*
X121934580Y-47728333D02*
X121839342Y-47775952D01*
X121839342Y-47775952D02*
X121648866Y-47775952D01*
X121648866Y-47775952D02*
X121553628Y-47728333D01*
X121553628Y-47728333D02*
X121506009Y-47680714D01*
X121506009Y-47680714D02*
X121458390Y-47585476D01*
X121029819Y-48633095D02*
X121029819Y-48442619D01*
X121029819Y-48442619D02*
X121077438Y-48347381D01*
X121077438Y-48347381D02*
X121125057Y-48299762D01*
X121125057Y-48299762D02*
X121267914Y-48204524D01*
X121267914Y-48204524D02*
X121458390Y-48156905D01*
X121458390Y-48156905D02*
X121839342Y-48156905D01*
X121839342Y-48156905D02*
X121934580Y-48204524D01*
X121934580Y-48204524D02*
X121982200Y-48252143D01*
X121982200Y-48252143D02*
X122029819Y-48347381D01*
X122029819Y-48347381D02*
X122029819Y-48537857D01*
X122029819Y-48537857D02*
X121982200Y-48633095D01*
X121982200Y-48633095D02*
X121934580Y-48680714D01*
X121934580Y-48680714D02*
X121839342Y-48728333D01*
X121839342Y-48728333D02*
X121601247Y-48728333D01*
X121601247Y-48728333D02*
X121506009Y-48680714D01*
X121506009Y-48680714D02*
X121458390Y-48633095D01*
X121458390Y-48633095D02*
X121410771Y-48537857D01*
X121410771Y-48537857D02*
X121410771Y-48347381D01*
X121410771Y-48347381D02*
X121458390Y-48252143D01*
X121458390Y-48252143D02*
X121506009Y-48204524D01*
X121506009Y-48204524D02*
X121601247Y-48156905D01*
X121458390Y-49299762D02*
X121410771Y-49204524D01*
X121410771Y-49204524D02*
X121363152Y-49156905D01*
X121363152Y-49156905D02*
X121267914Y-49109286D01*
X121267914Y-49109286D02*
X121220295Y-49109286D01*
X121220295Y-49109286D02*
X121125057Y-49156905D01*
X121125057Y-49156905D02*
X121077438Y-49204524D01*
X121077438Y-49204524D02*
X121029819Y-49299762D01*
X121029819Y-49299762D02*
X121029819Y-49490238D01*
X121029819Y-49490238D02*
X121077438Y-49585476D01*
X121077438Y-49585476D02*
X121125057Y-49633095D01*
X121125057Y-49633095D02*
X121220295Y-49680714D01*
X121220295Y-49680714D02*
X121267914Y-49680714D01*
X121267914Y-49680714D02*
X121363152Y-49633095D01*
X121363152Y-49633095D02*
X121410771Y-49585476D01*
X121410771Y-49585476D02*
X121458390Y-49490238D01*
X121458390Y-49490238D02*
X121458390Y-49299762D01*
X121458390Y-49299762D02*
X121506009Y-49204524D01*
X121506009Y-49204524D02*
X121553628Y-49156905D01*
X121553628Y-49156905D02*
X121648866Y-49109286D01*
X121648866Y-49109286D02*
X121839342Y-49109286D01*
X121839342Y-49109286D02*
X121934580Y-49156905D01*
X121934580Y-49156905D02*
X121982200Y-49204524D01*
X121982200Y-49204524D02*
X122029819Y-49299762D01*
X122029819Y-49299762D02*
X122029819Y-49490238D01*
X122029819Y-49490238D02*
X121982200Y-49585476D01*
X121982200Y-49585476D02*
X121934580Y-49633095D01*
X121934580Y-49633095D02*
X121839342Y-49680714D01*
X121839342Y-49680714D02*
X121648866Y-49680714D01*
X121648866Y-49680714D02*
X121553628Y-49633095D01*
X121553628Y-49633095D02*
X121506009Y-49585476D01*
X121506009Y-49585476D02*
X121458390Y-49490238D01*
X122029819Y-50871191D02*
X121029819Y-50871191D01*
X121029819Y-50871191D02*
X121744104Y-51204524D01*
X121744104Y-51204524D02*
X121029819Y-51537857D01*
X121029819Y-51537857D02*
X122029819Y-51537857D01*
X122029819Y-52014048D02*
X121029819Y-52014048D01*
X121506009Y-52014048D02*
X121506009Y-52585476D01*
X122029819Y-52585476D02*
X121029819Y-52585476D01*
X121363152Y-52966429D02*
X121363152Y-53490238D01*
X121363152Y-53490238D02*
X122029819Y-52966429D01*
X122029819Y-52966429D02*
X122029819Y-53490238D01*
X123639819Y-44394999D02*
X123163628Y-44061666D01*
X123639819Y-43823571D02*
X122639819Y-43823571D01*
X122639819Y-43823571D02*
X122639819Y-44204523D01*
X122639819Y-44204523D02*
X122687438Y-44299761D01*
X122687438Y-44299761D02*
X122735057Y-44347380D01*
X122735057Y-44347380D02*
X122830295Y-44394999D01*
X122830295Y-44394999D02*
X122973152Y-44394999D01*
X122973152Y-44394999D02*
X123068390Y-44347380D01*
X123068390Y-44347380D02*
X123116009Y-44299761D01*
X123116009Y-44299761D02*
X123163628Y-44204523D01*
X123163628Y-44204523D02*
X123163628Y-43823571D01*
X123639819Y-45252142D02*
X123116009Y-45252142D01*
X123116009Y-45252142D02*
X123020771Y-45204523D01*
X123020771Y-45204523D02*
X122973152Y-45109285D01*
X122973152Y-45109285D02*
X122973152Y-44918809D01*
X122973152Y-44918809D02*
X123020771Y-44823571D01*
X123592200Y-45252142D02*
X123639819Y-45156904D01*
X123639819Y-45156904D02*
X123639819Y-44918809D01*
X123639819Y-44918809D02*
X123592200Y-44823571D01*
X123592200Y-44823571D02*
X123496961Y-44775952D01*
X123496961Y-44775952D02*
X123401723Y-44775952D01*
X123401723Y-44775952D02*
X123306485Y-44823571D01*
X123306485Y-44823571D02*
X123258866Y-44918809D01*
X123258866Y-44918809D02*
X123258866Y-45156904D01*
X123258866Y-45156904D02*
X123211247Y-45252142D01*
X123639819Y-46156904D02*
X122639819Y-46156904D01*
X123592200Y-46156904D02*
X123639819Y-46061666D01*
X123639819Y-46061666D02*
X123639819Y-45871190D01*
X123639819Y-45871190D02*
X123592200Y-45775952D01*
X123592200Y-45775952D02*
X123544580Y-45728333D01*
X123544580Y-45728333D02*
X123449342Y-45680714D01*
X123449342Y-45680714D02*
X123163628Y-45680714D01*
X123163628Y-45680714D02*
X123068390Y-45728333D01*
X123068390Y-45728333D02*
X123020771Y-45775952D01*
X123020771Y-45775952D02*
X122973152Y-45871190D01*
X122973152Y-45871190D02*
X122973152Y-46061666D01*
X122973152Y-46061666D02*
X123020771Y-46156904D01*
X123639819Y-46633095D02*
X122973152Y-46633095D01*
X122639819Y-46633095D02*
X122687438Y-46585476D01*
X122687438Y-46585476D02*
X122735057Y-46633095D01*
X122735057Y-46633095D02*
X122687438Y-46680714D01*
X122687438Y-46680714D02*
X122639819Y-46633095D01*
X122639819Y-46633095D02*
X122735057Y-46633095D01*
X123639819Y-47252142D02*
X123592200Y-47156904D01*
X123592200Y-47156904D02*
X123544580Y-47109285D01*
X123544580Y-47109285D02*
X123449342Y-47061666D01*
X123449342Y-47061666D02*
X123163628Y-47061666D01*
X123163628Y-47061666D02*
X123068390Y-47109285D01*
X123068390Y-47109285D02*
X123020771Y-47156904D01*
X123020771Y-47156904D02*
X122973152Y-47252142D01*
X122973152Y-47252142D02*
X122973152Y-47394999D01*
X122973152Y-47394999D02*
X123020771Y-47490237D01*
X123020771Y-47490237D02*
X123068390Y-47537856D01*
X123068390Y-47537856D02*
X123163628Y-47585475D01*
X123163628Y-47585475D02*
X123449342Y-47585475D01*
X123449342Y-47585475D02*
X123544580Y-47537856D01*
X123544580Y-47537856D02*
X123592200Y-47490237D01*
X123592200Y-47490237D02*
X123639819Y-47394999D01*
X123639819Y-47394999D02*
X123639819Y-47252142D01*
X123544580Y-48585475D02*
X123592200Y-48537856D01*
X123592200Y-48537856D02*
X123639819Y-48394999D01*
X123639819Y-48394999D02*
X123639819Y-48299761D01*
X123639819Y-48299761D02*
X123592200Y-48156904D01*
X123592200Y-48156904D02*
X123496961Y-48061666D01*
X123496961Y-48061666D02*
X123401723Y-48014047D01*
X123401723Y-48014047D02*
X123211247Y-47966428D01*
X123211247Y-47966428D02*
X123068390Y-47966428D01*
X123068390Y-47966428D02*
X122877914Y-48014047D01*
X122877914Y-48014047D02*
X122782676Y-48061666D01*
X122782676Y-48061666D02*
X122687438Y-48156904D01*
X122687438Y-48156904D02*
X122639819Y-48299761D01*
X122639819Y-48299761D02*
X122639819Y-48394999D01*
X122639819Y-48394999D02*
X122687438Y-48537856D01*
X122687438Y-48537856D02*
X122735057Y-48585475D01*
X123639819Y-49156904D02*
X123592200Y-49061666D01*
X123592200Y-49061666D02*
X123544580Y-49014047D01*
X123544580Y-49014047D02*
X123449342Y-48966428D01*
X123449342Y-48966428D02*
X123163628Y-48966428D01*
X123163628Y-48966428D02*
X123068390Y-49014047D01*
X123068390Y-49014047D02*
X123020771Y-49061666D01*
X123020771Y-49061666D02*
X122973152Y-49156904D01*
X122973152Y-49156904D02*
X122973152Y-49299761D01*
X122973152Y-49299761D02*
X123020771Y-49394999D01*
X123020771Y-49394999D02*
X123068390Y-49442618D01*
X123068390Y-49442618D02*
X123163628Y-49490237D01*
X123163628Y-49490237D02*
X123449342Y-49490237D01*
X123449342Y-49490237D02*
X123544580Y-49442618D01*
X123544580Y-49442618D02*
X123592200Y-49394999D01*
X123592200Y-49394999D02*
X123639819Y-49299761D01*
X123639819Y-49299761D02*
X123639819Y-49156904D01*
X122973152Y-49918809D02*
X123639819Y-49918809D01*
X123068390Y-49918809D02*
X123020771Y-49966428D01*
X123020771Y-49966428D02*
X122973152Y-50061666D01*
X122973152Y-50061666D02*
X122973152Y-50204523D01*
X122973152Y-50204523D02*
X123020771Y-50299761D01*
X123020771Y-50299761D02*
X123116009Y-50347380D01*
X123116009Y-50347380D02*
X123639819Y-50347380D01*
X122973152Y-50680714D02*
X122973152Y-51061666D01*
X122639819Y-50823571D02*
X123496961Y-50823571D01*
X123496961Y-50823571D02*
X123592200Y-50871190D01*
X123592200Y-50871190D02*
X123639819Y-50966428D01*
X123639819Y-50966428D02*
X123639819Y-51061666D01*
X123639819Y-51395000D02*
X122973152Y-51395000D01*
X123163628Y-51395000D02*
X123068390Y-51442619D01*
X123068390Y-51442619D02*
X123020771Y-51490238D01*
X123020771Y-51490238D02*
X122973152Y-51585476D01*
X122973152Y-51585476D02*
X122973152Y-51680714D01*
X123639819Y-52156905D02*
X123592200Y-52061667D01*
X123592200Y-52061667D02*
X123544580Y-52014048D01*
X123544580Y-52014048D02*
X123449342Y-51966429D01*
X123449342Y-51966429D02*
X123163628Y-51966429D01*
X123163628Y-51966429D02*
X123068390Y-52014048D01*
X123068390Y-52014048D02*
X123020771Y-52061667D01*
X123020771Y-52061667D02*
X122973152Y-52156905D01*
X122973152Y-52156905D02*
X122973152Y-52299762D01*
X122973152Y-52299762D02*
X123020771Y-52395000D01*
X123020771Y-52395000D02*
X123068390Y-52442619D01*
X123068390Y-52442619D02*
X123163628Y-52490238D01*
X123163628Y-52490238D02*
X123449342Y-52490238D01*
X123449342Y-52490238D02*
X123544580Y-52442619D01*
X123544580Y-52442619D02*
X123592200Y-52395000D01*
X123592200Y-52395000D02*
X123639819Y-52299762D01*
X123639819Y-52299762D02*
X123639819Y-52156905D01*
X123639819Y-53061667D02*
X123592200Y-52966429D01*
X123592200Y-52966429D02*
X123496961Y-52918810D01*
X123496961Y-52918810D02*
X122639819Y-52918810D01*
X123639819Y-53585477D02*
X123592200Y-53490239D01*
X123592200Y-53490239D02*
X123496961Y-53442620D01*
X123496961Y-53442620D02*
X122639819Y-53442620D01*
X123639819Y-53966430D02*
X122973152Y-53966430D01*
X122639819Y-53966430D02*
X122687438Y-53918811D01*
X122687438Y-53918811D02*
X122735057Y-53966430D01*
X122735057Y-53966430D02*
X122687438Y-54014049D01*
X122687438Y-54014049D02*
X122639819Y-53966430D01*
X122639819Y-53966430D02*
X122735057Y-53966430D01*
X125202200Y-43371190D02*
X125249819Y-43514047D01*
X125249819Y-43514047D02*
X125249819Y-43752142D01*
X125249819Y-43752142D02*
X125202200Y-43847380D01*
X125202200Y-43847380D02*
X125154580Y-43894999D01*
X125154580Y-43894999D02*
X125059342Y-43942618D01*
X125059342Y-43942618D02*
X124964104Y-43942618D01*
X124964104Y-43942618D02*
X124868866Y-43894999D01*
X124868866Y-43894999D02*
X124821247Y-43847380D01*
X124821247Y-43847380D02*
X124773628Y-43752142D01*
X124773628Y-43752142D02*
X124726009Y-43561666D01*
X124726009Y-43561666D02*
X124678390Y-43466428D01*
X124678390Y-43466428D02*
X124630771Y-43418809D01*
X124630771Y-43418809D02*
X124535533Y-43371190D01*
X124535533Y-43371190D02*
X124440295Y-43371190D01*
X124440295Y-43371190D02*
X124345057Y-43418809D01*
X124345057Y-43418809D02*
X124297438Y-43466428D01*
X124297438Y-43466428D02*
X124249819Y-43561666D01*
X124249819Y-43561666D02*
X124249819Y-43799761D01*
X124249819Y-43799761D02*
X124297438Y-43942618D01*
X124583152Y-44371190D02*
X125583152Y-44371190D01*
X124630771Y-44371190D02*
X124583152Y-44466428D01*
X124583152Y-44466428D02*
X124583152Y-44656904D01*
X124583152Y-44656904D02*
X124630771Y-44752142D01*
X124630771Y-44752142D02*
X124678390Y-44799761D01*
X124678390Y-44799761D02*
X124773628Y-44847380D01*
X124773628Y-44847380D02*
X125059342Y-44847380D01*
X125059342Y-44847380D02*
X125154580Y-44799761D01*
X125154580Y-44799761D02*
X125202200Y-44752142D01*
X125202200Y-44752142D02*
X125249819Y-44656904D01*
X125249819Y-44656904D02*
X125249819Y-44466428D01*
X125249819Y-44466428D02*
X125202200Y-44371190D01*
X125249819Y-45275952D02*
X124583152Y-45275952D01*
X124249819Y-45275952D02*
X124297438Y-45228333D01*
X124297438Y-45228333D02*
X124345057Y-45275952D01*
X124345057Y-45275952D02*
X124297438Y-45323571D01*
X124297438Y-45323571D02*
X124249819Y-45275952D01*
X124249819Y-45275952D02*
X124345057Y-45275952D01*
X125249819Y-45752142D02*
X124583152Y-45752142D01*
X124773628Y-45752142D02*
X124678390Y-45799761D01*
X124678390Y-45799761D02*
X124630771Y-45847380D01*
X124630771Y-45847380D02*
X124583152Y-45942618D01*
X124583152Y-45942618D02*
X124583152Y-46037856D01*
X125249819Y-46371190D02*
X124583152Y-46371190D01*
X124249819Y-46371190D02*
X124297438Y-46323571D01*
X124297438Y-46323571D02*
X124345057Y-46371190D01*
X124345057Y-46371190D02*
X124297438Y-46418809D01*
X124297438Y-46418809D02*
X124249819Y-46371190D01*
X124249819Y-46371190D02*
X124345057Y-46371190D01*
X124583152Y-46704523D02*
X124583152Y-47085475D01*
X124249819Y-46847380D02*
X125106961Y-46847380D01*
X125106961Y-46847380D02*
X125202200Y-46894999D01*
X125202200Y-46894999D02*
X125249819Y-46990237D01*
X125249819Y-46990237D02*
X125249819Y-47085475D01*
X125249819Y-47942618D02*
X125249819Y-47371190D01*
X125249819Y-47656904D02*
X124249819Y-47656904D01*
X124249819Y-47656904D02*
X124392676Y-47561666D01*
X124392676Y-47561666D02*
X124487914Y-47466428D01*
X124487914Y-47466428D02*
X124535533Y-47371190D01*
X125249819Y-49942619D02*
X125249819Y-49895000D01*
X125249819Y-49895000D02*
X125202200Y-49799761D01*
X125202200Y-49799761D02*
X125059342Y-49656904D01*
X125059342Y-49656904D02*
X124773628Y-49418809D01*
X124773628Y-49418809D02*
X124630771Y-49323571D01*
X124630771Y-49323571D02*
X124487914Y-49275952D01*
X124487914Y-49275952D02*
X124392676Y-49275952D01*
X124392676Y-49275952D02*
X124297438Y-49323571D01*
X124297438Y-49323571D02*
X124249819Y-49418809D01*
X124249819Y-49418809D02*
X124249819Y-49466428D01*
X124249819Y-49466428D02*
X124297438Y-49561666D01*
X124297438Y-49561666D02*
X124392676Y-49609285D01*
X124392676Y-49609285D02*
X124440295Y-49609285D01*
X124440295Y-49609285D02*
X124535533Y-49561666D01*
X124535533Y-49561666D02*
X124583152Y-49514047D01*
X124583152Y-49514047D02*
X124773628Y-49228333D01*
X124773628Y-49228333D02*
X124821247Y-49180714D01*
X124821247Y-49180714D02*
X124916485Y-49133095D01*
X124916485Y-49133095D02*
X125059342Y-49133095D01*
X125059342Y-49133095D02*
X125154580Y-49180714D01*
X125154580Y-49180714D02*
X125202200Y-49228333D01*
X125202200Y-49228333D02*
X125249819Y-49323571D01*
X125249819Y-49323571D02*
X125249819Y-49466428D01*
X125249819Y-49466428D02*
X125202200Y-49561666D01*
X125202200Y-49561666D02*
X125154580Y-49609285D01*
X125154580Y-49609285D02*
X124964104Y-49752142D01*
X124964104Y-49752142D02*
X124821247Y-49799761D01*
X124821247Y-49799761D02*
X124726009Y-49799761D01*
X125202200Y-51085476D02*
X125249819Y-51228333D01*
X125249819Y-51228333D02*
X125249819Y-51466428D01*
X125249819Y-51466428D02*
X125202200Y-51561666D01*
X125202200Y-51561666D02*
X125154580Y-51609285D01*
X125154580Y-51609285D02*
X125059342Y-51656904D01*
X125059342Y-51656904D02*
X124964104Y-51656904D01*
X124964104Y-51656904D02*
X124868866Y-51609285D01*
X124868866Y-51609285D02*
X124821247Y-51561666D01*
X124821247Y-51561666D02*
X124773628Y-51466428D01*
X124773628Y-51466428D02*
X124726009Y-51275952D01*
X124726009Y-51275952D02*
X124678390Y-51180714D01*
X124678390Y-51180714D02*
X124630771Y-51133095D01*
X124630771Y-51133095D02*
X124535533Y-51085476D01*
X124535533Y-51085476D02*
X124440295Y-51085476D01*
X124440295Y-51085476D02*
X124345057Y-51133095D01*
X124345057Y-51133095D02*
X124297438Y-51180714D01*
X124297438Y-51180714D02*
X124249819Y-51275952D01*
X124249819Y-51275952D02*
X124249819Y-51514047D01*
X124249819Y-51514047D02*
X124297438Y-51656904D01*
X124345057Y-52037857D02*
X124297438Y-52085476D01*
X124297438Y-52085476D02*
X124249819Y-52180714D01*
X124249819Y-52180714D02*
X124249819Y-52418809D01*
X124249819Y-52418809D02*
X124297438Y-52514047D01*
X124297438Y-52514047D02*
X124345057Y-52561666D01*
X124345057Y-52561666D02*
X124440295Y-52609285D01*
X124440295Y-52609285D02*
X124535533Y-52609285D01*
X124535533Y-52609285D02*
X124678390Y-52561666D01*
X124678390Y-52561666D02*
X125249819Y-51990238D01*
X125249819Y-51990238D02*
X125249819Y-52609285D01*
X125249819Y-53514047D02*
X125249819Y-53037857D01*
X125249819Y-53037857D02*
X124249819Y-53037857D01*
X125249819Y-53847381D02*
X124249819Y-53847381D01*
X124249819Y-53847381D02*
X124249819Y-54228333D01*
X124249819Y-54228333D02*
X124297438Y-54323571D01*
X124297438Y-54323571D02*
X124345057Y-54371190D01*
X124345057Y-54371190D02*
X124440295Y-54418809D01*
X124440295Y-54418809D02*
X124583152Y-54418809D01*
X124583152Y-54418809D02*
X124678390Y-54371190D01*
X124678390Y-54371190D02*
X124726009Y-54323571D01*
X124726009Y-54323571D02*
X124773628Y-54228333D01*
X124773628Y-54228333D02*
X124773628Y-53847381D01*
X126079762Y-61804819D02*
X125603572Y-61804819D01*
X125603572Y-61804819D02*
X125555953Y-62281009D01*
X125555953Y-62281009D02*
X125603572Y-62233390D01*
X125603572Y-62233390D02*
X125698810Y-62185771D01*
X125698810Y-62185771D02*
X125936905Y-62185771D01*
X125936905Y-62185771D02*
X126032143Y-62233390D01*
X126032143Y-62233390D02*
X126079762Y-62281009D01*
X126079762Y-62281009D02*
X126127381Y-62376247D01*
X126127381Y-62376247D02*
X126127381Y-62614342D01*
X126127381Y-62614342D02*
X126079762Y-62709580D01*
X126079762Y-62709580D02*
X126032143Y-62757200D01*
X126032143Y-62757200D02*
X125936905Y-62804819D01*
X125936905Y-62804819D02*
X125698810Y-62804819D01*
X125698810Y-62804819D02*
X125603572Y-62757200D01*
X125603572Y-62757200D02*
X125555953Y-62709580D01*
X126508334Y-61900057D02*
X126555953Y-61852438D01*
X126555953Y-61852438D02*
X126651191Y-61804819D01*
X126651191Y-61804819D02*
X126889286Y-61804819D01*
X126889286Y-61804819D02*
X126984524Y-61852438D01*
X126984524Y-61852438D02*
X127032143Y-61900057D01*
X127032143Y-61900057D02*
X127079762Y-61995295D01*
X127079762Y-61995295D02*
X127079762Y-62090533D01*
X127079762Y-62090533D02*
X127032143Y-62233390D01*
X127032143Y-62233390D02*
X126460715Y-62804819D01*
X126460715Y-62804819D02*
X127079762Y-62804819D01*
X127555953Y-62757200D02*
X127555953Y-62804819D01*
X127555953Y-62804819D02*
X127508334Y-62900057D01*
X127508334Y-62900057D02*
X127460715Y-62947676D01*
X128175000Y-61804819D02*
X128270238Y-61804819D01*
X128270238Y-61804819D02*
X128365476Y-61852438D01*
X128365476Y-61852438D02*
X128413095Y-61900057D01*
X128413095Y-61900057D02*
X128460714Y-61995295D01*
X128460714Y-61995295D02*
X128508333Y-62185771D01*
X128508333Y-62185771D02*
X128508333Y-62423866D01*
X128508333Y-62423866D02*
X128460714Y-62614342D01*
X128460714Y-62614342D02*
X128413095Y-62709580D01*
X128413095Y-62709580D02*
X128365476Y-62757200D01*
X128365476Y-62757200D02*
X128270238Y-62804819D01*
X128270238Y-62804819D02*
X128175000Y-62804819D01*
X128175000Y-62804819D02*
X128079762Y-62757200D01*
X128079762Y-62757200D02*
X128032143Y-62709580D01*
X128032143Y-62709580D02*
X127984524Y-62614342D01*
X127984524Y-62614342D02*
X127936905Y-62423866D01*
X127936905Y-62423866D02*
X127936905Y-62185771D01*
X127936905Y-62185771D02*
X127984524Y-61995295D01*
X127984524Y-61995295D02*
X128032143Y-61900057D01*
X128032143Y-61900057D02*
X128079762Y-61852438D01*
X128079762Y-61852438D02*
X128175000Y-61804819D01*
X128841667Y-61804819D02*
X129508333Y-61804819D01*
X129508333Y-61804819D02*
X129079762Y-62804819D01*
X130079762Y-61804819D02*
X130175000Y-61804819D01*
X130175000Y-61804819D02*
X130270238Y-61852438D01*
X130270238Y-61852438D02*
X130317857Y-61900057D01*
X130317857Y-61900057D02*
X130365476Y-61995295D01*
X130365476Y-61995295D02*
X130413095Y-62185771D01*
X130413095Y-62185771D02*
X130413095Y-62423866D01*
X130413095Y-62423866D02*
X130365476Y-62614342D01*
X130365476Y-62614342D02*
X130317857Y-62709580D01*
X130317857Y-62709580D02*
X130270238Y-62757200D01*
X130270238Y-62757200D02*
X130175000Y-62804819D01*
X130175000Y-62804819D02*
X130079762Y-62804819D01*
X130079762Y-62804819D02*
X129984524Y-62757200D01*
X129984524Y-62757200D02*
X129936905Y-62709580D01*
X129936905Y-62709580D02*
X129889286Y-62614342D01*
X129889286Y-62614342D02*
X129841667Y-62423866D01*
X129841667Y-62423866D02*
X129841667Y-62185771D01*
X129841667Y-62185771D02*
X129889286Y-61995295D01*
X129889286Y-61995295D02*
X129936905Y-61900057D01*
X129936905Y-61900057D02*
X129984524Y-61852438D01*
X129984524Y-61852438D02*
X130079762Y-61804819D01*
X131032143Y-61804819D02*
X131127381Y-61804819D01*
X131127381Y-61804819D02*
X131222619Y-61852438D01*
X131222619Y-61852438D02*
X131270238Y-61900057D01*
X131270238Y-61900057D02*
X131317857Y-61995295D01*
X131317857Y-61995295D02*
X131365476Y-62185771D01*
X131365476Y-62185771D02*
X131365476Y-62423866D01*
X131365476Y-62423866D02*
X131317857Y-62614342D01*
X131317857Y-62614342D02*
X131270238Y-62709580D01*
X131270238Y-62709580D02*
X131222619Y-62757200D01*
X131222619Y-62757200D02*
X131127381Y-62804819D01*
X131127381Y-62804819D02*
X131032143Y-62804819D01*
X131032143Y-62804819D02*
X130936905Y-62757200D01*
X130936905Y-62757200D02*
X130889286Y-62709580D01*
X130889286Y-62709580D02*
X130841667Y-62614342D01*
X130841667Y-62614342D02*
X130794048Y-62423866D01*
X130794048Y-62423866D02*
X130794048Y-62185771D01*
X130794048Y-62185771D02*
X130841667Y-61995295D01*
X130841667Y-61995295D02*
X130889286Y-61900057D01*
X130889286Y-61900057D02*
X130936905Y-61852438D01*
X130936905Y-61852438D02*
X131032143Y-61804819D01*
X132555953Y-62804819D02*
X132555953Y-62138152D01*
X132555953Y-62233390D02*
X132603572Y-62185771D01*
X132603572Y-62185771D02*
X132698810Y-62138152D01*
X132698810Y-62138152D02*
X132841667Y-62138152D01*
X132841667Y-62138152D02*
X132936905Y-62185771D01*
X132936905Y-62185771D02*
X132984524Y-62281009D01*
X132984524Y-62281009D02*
X132984524Y-62804819D01*
X132984524Y-62281009D02*
X133032143Y-62185771D01*
X133032143Y-62185771D02*
X133127381Y-62138152D01*
X133127381Y-62138152D02*
X133270238Y-62138152D01*
X133270238Y-62138152D02*
X133365477Y-62185771D01*
X133365477Y-62185771D02*
X133413096Y-62281009D01*
X133413096Y-62281009D02*
X133413096Y-62804819D01*
X133889286Y-62804819D02*
X133889286Y-62138152D01*
X133889286Y-62233390D02*
X133936905Y-62185771D01*
X133936905Y-62185771D02*
X134032143Y-62138152D01*
X134032143Y-62138152D02*
X134175000Y-62138152D01*
X134175000Y-62138152D02*
X134270238Y-62185771D01*
X134270238Y-62185771D02*
X134317857Y-62281009D01*
X134317857Y-62281009D02*
X134317857Y-62804819D01*
X134317857Y-62281009D02*
X134365476Y-62185771D01*
X134365476Y-62185771D02*
X134460714Y-62138152D01*
X134460714Y-62138152D02*
X134603571Y-62138152D01*
X134603571Y-62138152D02*
X134698810Y-62185771D01*
X134698810Y-62185771D02*
X134746429Y-62281009D01*
X134746429Y-62281009D02*
X134746429Y-62804819D01*
D11*
X104140000Y-62095000D02*
X104140000Y-64086420D01*
X156210000Y-62095000D02*
X156210000Y-64086420D01*
X104140000Y-63500000D02*
X156210000Y-63500000D01*
X104140000Y-63500000D02*
X156210000Y-63500000D01*
X104140000Y-63500000D02*
X105266504Y-62913579D01*
X104140000Y-63500000D02*
X105266504Y-64086421D01*
X156210000Y-63500000D02*
X155083496Y-64086421D01*
X156210000Y-63500000D02*
X155083496Y-62913579D01*
D10*
%TO.C,R2*%
X143676666Y-55699819D02*
X144009999Y-55223628D01*
X144248094Y-55699819D02*
X144248094Y-54699819D01*
X144248094Y-54699819D02*
X143867142Y-54699819D01*
X143867142Y-54699819D02*
X143771904Y-54747438D01*
X143771904Y-54747438D02*
X143724285Y-54795057D01*
X143724285Y-54795057D02*
X143676666Y-54890295D01*
X143676666Y-54890295D02*
X143676666Y-55033152D01*
X143676666Y-55033152D02*
X143724285Y-55128390D01*
X143724285Y-55128390D02*
X143771904Y-55176009D01*
X143771904Y-55176009D02*
X143867142Y-55223628D01*
X143867142Y-55223628D02*
X144248094Y-55223628D01*
X143295713Y-54795057D02*
X143248094Y-54747438D01*
X143248094Y-54747438D02*
X143152856Y-54699819D01*
X143152856Y-54699819D02*
X142914761Y-54699819D01*
X142914761Y-54699819D02*
X142819523Y-54747438D01*
X142819523Y-54747438D02*
X142771904Y-54795057D01*
X142771904Y-54795057D02*
X142724285Y-54890295D01*
X142724285Y-54890295D02*
X142724285Y-54985533D01*
X142724285Y-54985533D02*
X142771904Y-55128390D01*
X142771904Y-55128390D02*
X143343332Y-55699819D01*
X143343332Y-55699819D02*
X142724285Y-55699819D01*
%TO.C,C1*%
X139634166Y-42904580D02*
X139681785Y-42952200D01*
X139681785Y-42952200D02*
X139824642Y-42999819D01*
X139824642Y-42999819D02*
X139919880Y-42999819D01*
X139919880Y-42999819D02*
X140062737Y-42952200D01*
X140062737Y-42952200D02*
X140157975Y-42856961D01*
X140157975Y-42856961D02*
X140205594Y-42761723D01*
X140205594Y-42761723D02*
X140253213Y-42571247D01*
X140253213Y-42571247D02*
X140253213Y-42428390D01*
X140253213Y-42428390D02*
X140205594Y-42237914D01*
X140205594Y-42237914D02*
X140157975Y-42142676D01*
X140157975Y-42142676D02*
X140062737Y-42047438D01*
X140062737Y-42047438D02*
X139919880Y-41999819D01*
X139919880Y-41999819D02*
X139824642Y-41999819D01*
X139824642Y-41999819D02*
X139681785Y-42047438D01*
X139681785Y-42047438D02*
X139634166Y-42095057D01*
X138681785Y-42999819D02*
X139253213Y-42999819D01*
X138967499Y-42999819D02*
X138967499Y-41999819D01*
X138967499Y-41999819D02*
X139062737Y-42142676D01*
X139062737Y-42142676D02*
X139157975Y-42237914D01*
X139157975Y-42237914D02*
X139253213Y-42285533D01*
%TO.C,JP1*%
X147409819Y-48696666D02*
X148124104Y-48696666D01*
X148124104Y-48696666D02*
X148266961Y-48649047D01*
X148266961Y-48649047D02*
X148362200Y-48553809D01*
X148362200Y-48553809D02*
X148409819Y-48410952D01*
X148409819Y-48410952D02*
X148409819Y-48315714D01*
X148409819Y-49172857D02*
X147409819Y-49172857D01*
X147409819Y-49172857D02*
X147409819Y-49553809D01*
X147409819Y-49553809D02*
X147457438Y-49649047D01*
X147457438Y-49649047D02*
X147505057Y-49696666D01*
X147505057Y-49696666D02*
X147600295Y-49744285D01*
X147600295Y-49744285D02*
X147743152Y-49744285D01*
X147743152Y-49744285D02*
X147838390Y-49696666D01*
X147838390Y-49696666D02*
X147886009Y-49649047D01*
X147886009Y-49649047D02*
X147933628Y-49553809D01*
X147933628Y-49553809D02*
X147933628Y-49172857D01*
X148409819Y-50696666D02*
X148409819Y-50125238D01*
X148409819Y-50410952D02*
X147409819Y-50410952D01*
X147409819Y-50410952D02*
X147552676Y-50315714D01*
X147552676Y-50315714D02*
X147647914Y-50220476D01*
X147647914Y-50220476D02*
X147695533Y-50125238D01*
%TO.C,R1*%
X138596666Y-55699819D02*
X138929999Y-55223628D01*
X139168094Y-55699819D02*
X139168094Y-54699819D01*
X139168094Y-54699819D02*
X138787142Y-54699819D01*
X138787142Y-54699819D02*
X138691904Y-54747438D01*
X138691904Y-54747438D02*
X138644285Y-54795057D01*
X138644285Y-54795057D02*
X138596666Y-54890295D01*
X138596666Y-54890295D02*
X138596666Y-55033152D01*
X138596666Y-55033152D02*
X138644285Y-55128390D01*
X138644285Y-55128390D02*
X138691904Y-55176009D01*
X138691904Y-55176009D02*
X138787142Y-55223628D01*
X138787142Y-55223628D02*
X139168094Y-55223628D01*
X137644285Y-55699819D02*
X138215713Y-55699819D01*
X137929999Y-55699819D02*
X137929999Y-54699819D01*
X137929999Y-54699819D02*
X138025237Y-54842676D01*
X138025237Y-54842676D02*
X138120475Y-54937914D01*
X138120475Y-54937914D02*
X138215713Y-54985533D01*
%TO.C,C2*%
X143676666Y-42904580D02*
X143724285Y-42952200D01*
X143724285Y-42952200D02*
X143867142Y-42999819D01*
X143867142Y-42999819D02*
X143962380Y-42999819D01*
X143962380Y-42999819D02*
X144105237Y-42952200D01*
X144105237Y-42952200D02*
X144200475Y-42856961D01*
X144200475Y-42856961D02*
X144248094Y-42761723D01*
X144248094Y-42761723D02*
X144295713Y-42571247D01*
X144295713Y-42571247D02*
X144295713Y-42428390D01*
X144295713Y-42428390D02*
X144248094Y-42237914D01*
X144248094Y-42237914D02*
X144200475Y-42142676D01*
X144200475Y-42142676D02*
X144105237Y-42047438D01*
X144105237Y-42047438D02*
X143962380Y-41999819D01*
X143962380Y-41999819D02*
X143867142Y-41999819D01*
X143867142Y-41999819D02*
X143724285Y-42047438D01*
X143724285Y-42047438D02*
X143676666Y-42095057D01*
X143295713Y-42095057D02*
X143248094Y-42047438D01*
X143248094Y-42047438D02*
X143152856Y-41999819D01*
X143152856Y-41999819D02*
X142914761Y-41999819D01*
X142914761Y-41999819D02*
X142819523Y-42047438D01*
X142819523Y-42047438D02*
X142771904Y-42095057D01*
X142771904Y-42095057D02*
X142724285Y-42190295D01*
X142724285Y-42190295D02*
X142724285Y-42285533D01*
X142724285Y-42285533D02*
X142771904Y-42428390D01*
X142771904Y-42428390D02*
X143343332Y-42999819D01*
X143343332Y-42999819D02*
X142724285Y-42999819D01*
%TO.C,JP2*%
X133439819Y-48696666D02*
X134154104Y-48696666D01*
X134154104Y-48696666D02*
X134296961Y-48649047D01*
X134296961Y-48649047D02*
X134392200Y-48553809D01*
X134392200Y-48553809D02*
X134439819Y-48410952D01*
X134439819Y-48410952D02*
X134439819Y-48315714D01*
X134439819Y-49172857D02*
X133439819Y-49172857D01*
X133439819Y-49172857D02*
X133439819Y-49553809D01*
X133439819Y-49553809D02*
X133487438Y-49649047D01*
X133487438Y-49649047D02*
X133535057Y-49696666D01*
X133535057Y-49696666D02*
X133630295Y-49744285D01*
X133630295Y-49744285D02*
X133773152Y-49744285D01*
X133773152Y-49744285D02*
X133868390Y-49696666D01*
X133868390Y-49696666D02*
X133916009Y-49649047D01*
X133916009Y-49649047D02*
X133963628Y-49553809D01*
X133963628Y-49553809D02*
X133963628Y-49172857D01*
X133535057Y-50125238D02*
X133487438Y-50172857D01*
X133487438Y-50172857D02*
X133439819Y-50268095D01*
X133439819Y-50268095D02*
X133439819Y-50506190D01*
X133439819Y-50506190D02*
X133487438Y-50601428D01*
X133487438Y-50601428D02*
X133535057Y-50649047D01*
X133535057Y-50649047D02*
X133630295Y-50696666D01*
X133630295Y-50696666D02*
X133725533Y-50696666D01*
X133725533Y-50696666D02*
X133868390Y-50649047D01*
X133868390Y-50649047D02*
X134439819Y-50077619D01*
X134439819Y-50077619D02*
X134439819Y-50696666D01*
%TO.C,U2*%
X141731904Y-45809819D02*
X141731904Y-46619342D01*
X141731904Y-46619342D02*
X141684285Y-46714580D01*
X141684285Y-46714580D02*
X141636666Y-46762200D01*
X141636666Y-46762200D02*
X141541428Y-46809819D01*
X141541428Y-46809819D02*
X141350952Y-46809819D01*
X141350952Y-46809819D02*
X141255714Y-46762200D01*
X141255714Y-46762200D02*
X141208095Y-46714580D01*
X141208095Y-46714580D02*
X141160476Y-46619342D01*
X141160476Y-46619342D02*
X141160476Y-45809819D01*
X140731904Y-45905057D02*
X140684285Y-45857438D01*
X140684285Y-45857438D02*
X140589047Y-45809819D01*
X140589047Y-45809819D02*
X140350952Y-45809819D01*
X140350952Y-45809819D02*
X140255714Y-45857438D01*
X140255714Y-45857438D02*
X140208095Y-45905057D01*
X140208095Y-45905057D02*
X140160476Y-46000295D01*
X140160476Y-46000295D02*
X140160476Y-46095533D01*
X140160476Y-46095533D02*
X140208095Y-46238390D01*
X140208095Y-46238390D02*
X140779523Y-46809819D01*
X140779523Y-46809819D02*
X140160476Y-46809819D01*
D11*
%TO.C,R2*%
X143737064Y-54075000D02*
X143282936Y-54075000D01*
X143737064Y-52605000D02*
X143282936Y-52605000D01*
%TO.C,C1*%
X139728752Y-45185000D02*
X139206248Y-45185000D01*
X139728752Y-43715000D02*
X139206248Y-43715000D01*
%TO.C,JP1*%
X146350000Y-47510000D02*
X145750000Y-47510000D01*
X147550000Y-48060000D02*
X147550000Y-48660000D01*
X145050000Y-48160000D02*
X145050000Y-50960000D01*
X147250000Y-48360000D02*
X147550000Y-48060000D01*
X147250000Y-48360000D02*
X147550000Y-48660000D01*
X147050000Y-50960000D02*
X147050000Y-48160000D01*
X145750000Y-51610000D02*
X146350000Y-51610000D01*
X147050000Y-48210000D02*
G75*
G03*
X146350000Y-47510000I-699999J1D01*
G01*
X145750000Y-47510000D02*
G75*
G03*
X145050000Y-48210000I-1J-699999D01*
G01*
X146350000Y-51610000D02*
G75*
G03*
X147050000Y-50910000I0J700000D01*
G01*
X145050000Y-50910000D02*
G75*
G03*
X145750000Y-51610000I700000J0D01*
G01*
%TO.C,R1*%
X139014564Y-54075000D02*
X138560436Y-54075000D01*
X139014564Y-52605000D02*
X138560436Y-52605000D01*
%TO.C,C2*%
X143016248Y-43715000D02*
X143538752Y-43715000D01*
X143016248Y-45185000D02*
X143538752Y-45185000D01*
%TO.C,JP2*%
X135590000Y-50945000D02*
X136190000Y-50945000D01*
X136890000Y-50245000D02*
X136890000Y-48845000D01*
X134890000Y-48845000D02*
X134890000Y-50245000D01*
X136190000Y-48145000D02*
X135590000Y-48145000D01*
X134890000Y-50245000D02*
G75*
G03*
X135590000Y-50945000I699999J-1D01*
G01*
X136190000Y-50945000D02*
G75*
G03*
X136890000Y-50245000I1J699999D01*
G01*
X135590000Y-48145000D02*
G75*
G03*
X134890000Y-48845000I0J-700000D01*
G01*
X136890000Y-48845000D02*
G75*
G03*
X136190000Y-48145000I-700000J0D01*
G01*
%TO.C,U2*%
X141055000Y-46970000D02*
X139105000Y-46970000D01*
X141055000Y-46970000D02*
X143005000Y-46970000D01*
X141055000Y-52090000D02*
X137605000Y-52090000D01*
X141055000Y-52090000D02*
X143005000Y-52090000D01*
%TD*%
M02*
