%TF.GenerationSoftware,KiCad,Pcbnew,7.0.10*%
%TF.CreationDate,2024-01-17T19:35:15+01:00*%
%TF.ProjectId,RFM69CW_868,52464d36-3943-4575-9f38-36382e6b6963,rev?*%
%TF.SameCoordinates,Original*%
%TF.FileFunction,Copper,L1,Top*%
%TF.FilePolarity,Positive*%
%FSLAX46Y46*%
G04 Gerber Fmt 4.6, Leading zero omitted, Abs format (unit mm)*
G04 Created by KiCad (PCBNEW 7.0.10) date 2024-01-17 19:35:15*
%MOMM*%
%LPD*%
G01*
G04 APERTURE LIST*
G04 Aperture macros list*
%AMRoundRect*
0 Rectangle with rounded corners*
0 $1 Rounding radius*
0 $2 $3 $4 $5 $6 $7 $8 $9 X,Y pos of 4 corners*
0 Add a 4 corners polygon primitive as box body*
4,1,4,$2,$3,$4,$5,$6,$7,$8,$9,$2,$3,0*
0 Add four circle primitives for the rounded corners*
1,1,$1+$1,$2,$3*
1,1,$1+$1,$4,$5*
1,1,$1+$1,$6,$7*
1,1,$1+$1,$8,$9*
0 Add four rect primitives between the rounded corners*
20,1,$1+$1,$2,$3,$4,$5,0*
20,1,$1+$1,$4,$5,$6,$7,0*
20,1,$1+$1,$6,$7,$8,$9,0*
20,1,$1+$1,$8,$9,$2,$3,0*%
%AMOutline4P*
0 Free polygon, 4 corners , with rotation*
0 The origin of the aperture is its center*
0 number of corners: always 4*
0 $1 to $8 corner X, Y*
0 $9 Rotation angle, in degrees counterclockwise*
0 create outline with 4 corners*
4,1,4,$1,$2,$3,$4,$5,$6,$7,$8,$1,$2,$9*%
G04 Aperture macros list end*
%TA.AperFunction,EtchedComponent*%
%ADD10C,1.000000*%
%TD*%
%TA.AperFunction,ComponentPad*%
%ADD11R,1.700000X1.700000*%
%TD*%
%TA.AperFunction,ComponentPad*%
%ADD12O,1.700000X1.700000*%
%TD*%
%TA.AperFunction,SMDPad,CuDef*%
%ADD13RoundRect,0.250000X-0.262500X-0.450000X0.262500X-0.450000X0.262500X0.450000X-0.262500X0.450000X0*%
%TD*%
%TA.AperFunction,SMDPad,CuDef*%
%ADD14RoundRect,0.317500X-1.157500X-0.317500X1.157500X-0.317500X1.157500X0.317500X-1.157500X0.317500X0*%
%TD*%
%TA.AperFunction,SMDPad,CuDef*%
%ADD15RoundRect,0.250000X-0.450000X0.262500X-0.450000X-0.262500X0.450000X-0.262500X0.450000X0.262500X0*%
%TD*%
%TA.AperFunction,ComponentPad*%
%ADD16C,1.000000*%
%TD*%
%TA.AperFunction,SMDPad,CuDef*%
%ADD17Outline4P,-0.350000X-0.400000X0.350000X-0.400000X0.050000X0.400000X-0.050000X0.400000X270.000000*%
%TD*%
%TA.AperFunction,ViaPad*%
%ADD18C,0.800000*%
%TD*%
%TA.AperFunction,Conductor*%
%ADD19C,0.250000*%
%TD*%
%TA.AperFunction,Conductor*%
%ADD20C,1.000000*%
%TD*%
G04 APERTURE END LIST*
D10*
%TO.C,AE1*%
X116960000Y-58530000D02*
X105960000Y-58530000D01*
X105960000Y-56530000D02*
X110960000Y-56530000D01*
X105960000Y-54530000D02*
X110960000Y-54530000D01*
X105960000Y-52530000D02*
X110960000Y-52530000D01*
X105960000Y-50530000D02*
X110960000Y-50530000D01*
X105960000Y-48530000D02*
X110960000Y-48530000D01*
X105960000Y-46530000D02*
X110960000Y-46530000D01*
X105960000Y-44530000D02*
X110960000Y-44530000D01*
X105960000Y-42530000D02*
X110960000Y-42530000D01*
X105960000Y-40530000D02*
X110960000Y-40530000D01*
%TD*%
D11*
%TO.P,J1,1,Pin_1*%
%TO.N,VCC*%
X149860000Y-43180000D03*
D12*
%TO.P,J1,2,Pin_2*%
X152400000Y-43180000D03*
%TO.P,J1,3,Pin_3*%
%TO.N,GND*%
X149860000Y-45720000D03*
%TO.P,J1,4,Pin_4*%
X152400000Y-45720000D03*
%TO.P,J1,5,Pin_5*%
%TO.N,SCK*%
X149860000Y-48260000D03*
%TO.P,J1,6,Pin_6*%
%TO.N,unconnected-(J1-Pin_6-Pad6)*%
X152400000Y-48260000D03*
%TO.P,J1,7,Pin_7*%
%TO.N,MISO*%
X149860000Y-50800000D03*
%TO.P,J1,8,Pin_8*%
%TO.N,nCS2*%
X152400000Y-50800000D03*
%TO.P,J1,9,Pin_9*%
%TO.N,MOSI*%
X149860000Y-53340000D03*
%TO.P,J1,10,Pin_10*%
%TO.N,nRESET*%
X152400000Y-53340000D03*
%TO.P,J1,11,Pin_11*%
%TO.N,nCS*%
X149860000Y-55880000D03*
%TO.P,J1,12,Pin_12*%
%TO.N,DIO0*%
X152400000Y-55880000D03*
%TD*%
D13*
%TO.P,M3,1*%
%TO.N,Net-(AE1-A)*%
X121920000Y-54610000D03*
%TO.P,M3,2*%
%TO.N,GND*%
X123745000Y-54610000D03*
%TD*%
%TO.P,M1,1*%
%TO.N,Net-(U1-ANA)*%
X121832500Y-48260000D03*
%TO.P,M1,2*%
%TO.N,GND*%
X123657500Y-48260000D03*
%TD*%
D14*
%TO.P,U1,1,ANA*%
%TO.N,Net-(U1-ANA)*%
X126555000Y-43245000D03*
%TO.P,U1,2,3.3V*%
%TO.N,VCC*%
X126555000Y-45245000D03*
%TO.P,U1,3,GND*%
%TO.N,GND*%
X126555000Y-47245000D03*
%TO.P,U1,4,DIO3*%
%TO.N,unconnected-(U1-DIO3-Pad4)*%
X126555000Y-49245000D03*
%TO.P,U1,5,MOSI*%
%TO.N,MISO*%
X126555000Y-51245000D03*
%TO.P,U1,6,SCK*%
%TO.N,SCK*%
X126555000Y-53245000D03*
%TO.P,U1,7,NSS*%
%TO.N,nCS*%
X126555000Y-55245000D03*
%TO.P,U1,8,MISO*%
%TO.N,MOSI*%
X141605000Y-55245000D03*
%TO.P,U1,9,DIO0*%
%TO.N,DIO0*%
X141605000Y-53245000D03*
%TO.P,U1,10,DIO2*%
%TO.N,unconnected-(U1-DIO2-Pad10)*%
X141605000Y-51245000D03*
%TO.P,U1,11,DIO1*%
%TO.N,unconnected-(U1-DIO1-Pad11)*%
X141605000Y-49245000D03*
%TO.P,U1,12,DIO5*%
%TO.N,unconnected-(U1-DIO5-Pad12)*%
X141605000Y-47245000D03*
%TO.P,U1,13,RESET*%
%TO.N,nRESET*%
X141605000Y-45245000D03*
%TO.P,U1,14,GND*%
%TO.N,GND*%
X141605000Y-43245000D03*
%TD*%
D15*
%TO.P,M2,1*%
%TO.N,Net-(U1-ANA)*%
X121920000Y-50522500D03*
%TO.P,M2,2*%
%TO.N,Net-(AE1-A)*%
X121920000Y-52347500D03*
%TD*%
D16*
%TO.P,AE1,*%
%TO.N,*%
X105960000Y-58530000D03*
X105960000Y-56530000D03*
X110960000Y-56530000D03*
X105960000Y-54530000D03*
X110960000Y-54530000D03*
X105960000Y-52530000D03*
X110960000Y-52530000D03*
X105960000Y-50530000D03*
X110960000Y-50530000D03*
X105960000Y-48530000D03*
X110960000Y-48530000D03*
X105960000Y-46530000D03*
X110960000Y-46530000D03*
X105960000Y-44530000D03*
X110960000Y-44530000D03*
X105960000Y-42530000D03*
X110960000Y-42530000D03*
X105960000Y-40530000D03*
X110960000Y-40530000D03*
D17*
%TO.P,AE1,1,A*%
%TO.N,Net-(AE1-A)*%
X117660000Y-58530000D03*
%TD*%
D18*
%TO.N,GND*%
X136525000Y-60325000D03*
X149225000Y-38735000D03*
X123825000Y-60325000D03*
X130175000Y-60325000D03*
X155575000Y-52705000D03*
X155575000Y-53975000D03*
X155575000Y-38735000D03*
X155575000Y-40005000D03*
X155575000Y-57785000D03*
X155575000Y-51435000D03*
X137795000Y-60325000D03*
X128905000Y-53340000D03*
X131445000Y-60325000D03*
X155575000Y-47625000D03*
X150495000Y-38735000D03*
X141605000Y-38735000D03*
X146685000Y-60325000D03*
X155575000Y-42545000D03*
X133985000Y-60325000D03*
X155575000Y-59055000D03*
X145415000Y-38735000D03*
X150495000Y-60325000D03*
X155575000Y-50165000D03*
X155575000Y-46355000D03*
X132715000Y-60325000D03*
X122555000Y-38735000D03*
X146050000Y-48260000D03*
X121285000Y-60325000D03*
X151765000Y-60325000D03*
X144145000Y-60325000D03*
X155575000Y-60325000D03*
X128905000Y-38735000D03*
X154305000Y-60325000D03*
X128905000Y-60325000D03*
X155575000Y-45085000D03*
X139065000Y-60325000D03*
X145415000Y-60325000D03*
X155575000Y-48895000D03*
X142875000Y-38735000D03*
X153035000Y-38735000D03*
X151765000Y-38735000D03*
X125095000Y-38735000D03*
X122555000Y-60325000D03*
X147955000Y-60325000D03*
X121285000Y-38735000D03*
X126365000Y-38735000D03*
X132715000Y-38735000D03*
X125095000Y-60325000D03*
X127635000Y-60325000D03*
X120015000Y-38735000D03*
X140335000Y-38735000D03*
X128905000Y-51435000D03*
X155575000Y-56515000D03*
X144145000Y-38735000D03*
X118745000Y-38735000D03*
X155575000Y-41275000D03*
X146685000Y-38735000D03*
X118745000Y-60325000D03*
X149225000Y-60325000D03*
X140335000Y-60325000D03*
X133985000Y-38735000D03*
X137795000Y-38735000D03*
X153035000Y-60325000D03*
X142875000Y-60325000D03*
X155575000Y-43815000D03*
X130175000Y-38735000D03*
X154305000Y-38735000D03*
X141605000Y-60325000D03*
X147955000Y-38735000D03*
X135255000Y-38735000D03*
X155575000Y-55245000D03*
X120015000Y-60325000D03*
X136525000Y-38735000D03*
X131445000Y-38735000D03*
X123825000Y-38735000D03*
X139065000Y-38735000D03*
X127635000Y-38735000D03*
X135255000Y-60325000D03*
X126365000Y-60325000D03*
%TO.N,DIO0*%
X147955000Y-53340000D03*
%TO.N,nCS*%
X144780000Y-54285000D03*
%TO.N,SCK*%
X135890000Y-52285000D03*
%TO.N,MOSI*%
X141605000Y-55245000D03*
%TO.N,MISO*%
X147955000Y-50285000D03*
%TO.N,VCC*%
X126555000Y-45245000D03*
%TD*%
D19*
%TO.N,DIO0*%
X141605000Y-53245000D02*
X147860000Y-53245000D01*
X147860000Y-53245000D02*
X147955000Y-53340000D01*
%TO.N,nRESET*%
X141605000Y-45245000D02*
X142305000Y-44545000D01*
X152400000Y-53340000D02*
X154850000Y-50890000D01*
X142305000Y-44545000D02*
X154305000Y-44545000D01*
X154850000Y-50890000D02*
X154850000Y-45090000D01*
X154850000Y-45090000D02*
X154305000Y-44545000D01*
%TO.N,nCS*%
X126555000Y-55245000D02*
X127515000Y-54285000D01*
X127515000Y-54285000D02*
X144780000Y-54285000D01*
X144780000Y-54285000D02*
X148265000Y-54285000D01*
X148265000Y-54285000D02*
X149860000Y-55880000D01*
%TO.N,SCK*%
X151035000Y-49435000D02*
X149860000Y-48260000D01*
X135890000Y-52285000D02*
X149253299Y-52285000D01*
X149468299Y-52070000D02*
X150441701Y-52070000D01*
X151035000Y-51476701D02*
X151035000Y-49435000D01*
X127515000Y-52285000D02*
X135890000Y-52285000D01*
X126555000Y-53245000D02*
X127515000Y-52285000D01*
X149253299Y-52285000D02*
X149468299Y-52070000D01*
X150441701Y-52070000D02*
X151035000Y-51476701D01*
%TO.N,MOSI*%
X150590000Y-57055000D02*
X151035000Y-56610000D01*
X141605000Y-55245000D02*
X143415000Y-57055000D01*
X143415000Y-57055000D02*
X150590000Y-57055000D01*
X151035000Y-54515000D02*
X149860000Y-53340000D01*
X151035000Y-56610000D02*
X151035000Y-54515000D01*
%TO.N,MISO*%
X149345000Y-50285000D02*
X149860000Y-50800000D01*
X127515000Y-50285000D02*
X147955000Y-50285000D01*
X147955000Y-50285000D02*
X149345000Y-50285000D01*
X126555000Y-51245000D02*
X127515000Y-50285000D01*
D20*
%TO.N,Net-(AE1-A)*%
X115000000Y-58530000D02*
X119905000Y-58530000D01*
X119905000Y-58530000D02*
X121920000Y-56515000D01*
X121920000Y-56515000D02*
X121920000Y-52895000D01*
%TO.N,Net-(U1-ANA)*%
X121920000Y-46355000D02*
X121920000Y-45085000D01*
X123760000Y-43245000D02*
X126555000Y-43245000D01*
X121920000Y-50522500D02*
X121920000Y-46355000D01*
X121920000Y-45085000D02*
X123760000Y-43245000D01*
%TD*%
%TA.AperFunction,Conductor*%
%TO.N,GND*%
G36*
X135392221Y-52629407D02*
G01*
X135412570Y-52649231D01*
X135461718Y-52713282D01*
X135587159Y-52809536D01*
X135587160Y-52809536D01*
X135587161Y-52809537D01*
X135601470Y-52815464D01*
X135733238Y-52870044D01*
X135850809Y-52885522D01*
X135889999Y-52890682D01*
X135890000Y-52890682D01*
X135890001Y-52890682D01*
X135921352Y-52886554D01*
X136046762Y-52870044D01*
X136192841Y-52809536D01*
X136318282Y-52713282D01*
X136367428Y-52649232D01*
X136417852Y-52614577D01*
X136445970Y-52610500D01*
X139870226Y-52610500D01*
X139928417Y-52629407D01*
X139964381Y-52678907D01*
X139964381Y-52740093D01*
X139962324Y-52745818D01*
X139939497Y-52803702D01*
X139937194Y-52822883D01*
X139929500Y-52886948D01*
X139929500Y-53603052D01*
X139939497Y-53686297D01*
X139991735Y-53818764D01*
X139991736Y-53818766D01*
X139993872Y-53824181D01*
X139997630Y-53885251D01*
X139964775Y-53936867D01*
X139907855Y-53959313D01*
X139901774Y-53959500D01*
X128258226Y-53959500D01*
X128200035Y-53940593D01*
X128164071Y-53891093D01*
X128164071Y-53829907D01*
X128166128Y-53824181D01*
X128168263Y-53818766D01*
X128168265Y-53818764D01*
X128220503Y-53686297D01*
X128230500Y-53603052D01*
X128230500Y-52886948D01*
X128220503Y-52803703D01*
X128197675Y-52745817D01*
X128193918Y-52684749D01*
X128226773Y-52633133D01*
X128283693Y-52610687D01*
X128289774Y-52610500D01*
X135334030Y-52610500D01*
X135392221Y-52629407D01*
G37*
%TD.AperFunction*%
%TA.AperFunction,Conductor*%
G36*
X139928417Y-50629407D02*
G01*
X139964381Y-50678907D01*
X139964381Y-50740093D01*
X139962324Y-50745818D01*
X139939497Y-50803702D01*
X139930840Y-50875793D01*
X139929500Y-50886948D01*
X139929500Y-51603052D01*
X139939497Y-51686297D01*
X139991735Y-51818764D01*
X139991736Y-51818766D01*
X139993872Y-51824181D01*
X139997630Y-51885251D01*
X139964775Y-51936867D01*
X139907855Y-51959313D01*
X139901774Y-51959500D01*
X136445970Y-51959500D01*
X136387779Y-51940593D01*
X136367428Y-51920767D01*
X136318285Y-51856722D01*
X136318282Y-51856718D01*
X136318277Y-51856714D01*
X136318276Y-51856713D01*
X136238126Y-51795212D01*
X136192841Y-51760464D01*
X136192840Y-51760463D01*
X136192838Y-51760462D01*
X136046766Y-51699957D01*
X136046758Y-51699955D01*
X135890001Y-51679318D01*
X135889999Y-51679318D01*
X135733241Y-51699955D01*
X135733233Y-51699957D01*
X135587161Y-51760462D01*
X135587160Y-51760462D01*
X135461723Y-51856713D01*
X135461714Y-51856722D01*
X135412572Y-51920767D01*
X135362148Y-51955423D01*
X135334030Y-51959500D01*
X128258226Y-51959500D01*
X128200035Y-51940593D01*
X128164071Y-51891093D01*
X128164071Y-51829907D01*
X128166128Y-51824181D01*
X128168263Y-51818766D01*
X128168265Y-51818764D01*
X128220503Y-51686297D01*
X128230500Y-51603052D01*
X128230500Y-50886948D01*
X128220503Y-50803703D01*
X128197675Y-50745817D01*
X128193918Y-50684749D01*
X128226773Y-50633133D01*
X128283693Y-50610687D01*
X128289774Y-50610500D01*
X139870226Y-50610500D01*
X139928417Y-50629407D01*
G37*
%TD.AperFunction*%
%TA.AperFunction,Conductor*%
G36*
X156143691Y-38144407D02*
G01*
X156179655Y-38193907D01*
X156184500Y-38224500D01*
X156184500Y-60835500D01*
X156165593Y-60893691D01*
X156116093Y-60929655D01*
X156085500Y-60934500D01*
X118209000Y-60934500D01*
X118150809Y-60915593D01*
X118114845Y-60866093D01*
X118110000Y-60835500D01*
X118110000Y-59329500D01*
X118128907Y-59271309D01*
X118178407Y-59235345D01*
X118209000Y-59230500D01*
X119880845Y-59230500D01*
X119886822Y-59230680D01*
X119916656Y-59232485D01*
X119947605Y-59234358D01*
X119947605Y-59234357D01*
X119947606Y-59234358D01*
X120007539Y-59223374D01*
X120013419Y-59222479D01*
X120073872Y-59215140D01*
X120085462Y-59210744D01*
X120102725Y-59205931D01*
X120114932Y-59203695D01*
X120170487Y-59178690D01*
X120176003Y-59176407D01*
X120177896Y-59175689D01*
X120232930Y-59154818D01*
X120243142Y-59147768D01*
X120258750Y-59138965D01*
X120270057Y-59133878D01*
X120270057Y-59133877D01*
X120270059Y-59133877D01*
X120317995Y-59096321D01*
X120322813Y-59092775D01*
X120372929Y-59058183D01*
X120413312Y-59012598D01*
X120417378Y-59008277D01*
X122398277Y-57027378D01*
X122402598Y-57023312D01*
X122448183Y-56982929D01*
X122482782Y-56932802D01*
X122486324Y-56927990D01*
X122523873Y-56880062D01*
X122523872Y-56880062D01*
X122523877Y-56880057D01*
X122528967Y-56868745D01*
X122537766Y-56853144D01*
X122544818Y-56842930D01*
X122566412Y-56785988D01*
X122568702Y-56780461D01*
X122593694Y-56724932D01*
X122593695Y-56724930D01*
X122595929Y-56712736D01*
X122600743Y-56695465D01*
X122604794Y-56684784D01*
X122605140Y-56683872D01*
X122612483Y-56623388D01*
X122613373Y-56617542D01*
X122624357Y-56557606D01*
X122620680Y-56496832D01*
X122620500Y-56490856D01*
X122620500Y-55603052D01*
X124879500Y-55603052D01*
X124889497Y-55686297D01*
X124941735Y-55818764D01*
X124941737Y-55818766D01*
X124941738Y-55818769D01*
X125027771Y-55932220D01*
X125027775Y-55932225D01*
X125027778Y-55932227D01*
X125027779Y-55932228D01*
X125141230Y-56018261D01*
X125141231Y-56018261D01*
X125141236Y-56018265D01*
X125273703Y-56070503D01*
X125356948Y-56080500D01*
X125356950Y-56080500D01*
X127753050Y-56080500D01*
X127753052Y-56080500D01*
X127836297Y-56070503D01*
X127968764Y-56018265D01*
X128082225Y-55932225D01*
X128168265Y-55818764D01*
X128220503Y-55686297D01*
X128230500Y-55603052D01*
X128230500Y-54886948D01*
X128220503Y-54803703D01*
X128197675Y-54745817D01*
X128193918Y-54684749D01*
X128226773Y-54633133D01*
X128283693Y-54610687D01*
X128289774Y-54610500D01*
X139870226Y-54610500D01*
X139928417Y-54629407D01*
X139964381Y-54678907D01*
X139964381Y-54740093D01*
X139962324Y-54745818D01*
X139939497Y-54803702D01*
X139934574Y-54844700D01*
X139929500Y-54886948D01*
X139929500Y-55603052D01*
X139939497Y-55686297D01*
X139991735Y-55818764D01*
X139991737Y-55818766D01*
X139991738Y-55818769D01*
X140077771Y-55932220D01*
X140077775Y-55932225D01*
X140077778Y-55932227D01*
X140077779Y-55932228D01*
X140191230Y-56018261D01*
X140191231Y-56018261D01*
X140191236Y-56018265D01*
X140323703Y-56070503D01*
X140406948Y-56080500D01*
X141939166Y-56080500D01*
X141997357Y-56099407D01*
X142009170Y-56109496D01*
X143171730Y-57272056D01*
X143177564Y-57278423D01*
X143202545Y-57308194D01*
X143236209Y-57327630D01*
X143243482Y-57332264D01*
X143264173Y-57346752D01*
X143275316Y-57354554D01*
X143276767Y-57354942D01*
X143300659Y-57364840D01*
X143301954Y-57365588D01*
X143340220Y-57372335D01*
X143348647Y-57374203D01*
X143386193Y-57384264D01*
X143424909Y-57380877D01*
X143433537Y-57380500D01*
X150571466Y-57380500D01*
X150580094Y-57380876D01*
X150618807Y-57384264D01*
X150656354Y-57374202D01*
X150664784Y-57372334D01*
X150703045Y-57365588D01*
X150704345Y-57364838D01*
X150728236Y-57354942D01*
X150728464Y-57354880D01*
X150729684Y-57354554D01*
X150761533Y-57332251D01*
X150768779Y-57327635D01*
X150802455Y-57308194D01*
X150827443Y-57278413D01*
X150833254Y-57272070D01*
X151252066Y-56853258D01*
X151258425Y-56847433D01*
X151263792Y-56842930D01*
X151288194Y-56822455D01*
X151307635Y-56788779D01*
X151312251Y-56781533D01*
X151334554Y-56749684D01*
X151334942Y-56748236D01*
X151344838Y-56724345D01*
X151345588Y-56723045D01*
X151352334Y-56684784D01*
X151354204Y-56676348D01*
X151364264Y-56638806D01*
X151360877Y-56600094D01*
X151360500Y-56591465D01*
X151360500Y-56545964D01*
X151379407Y-56487773D01*
X151428907Y-56451809D01*
X151490093Y-56451809D01*
X151536027Y-56483158D01*
X151587570Y-56545964D01*
X151648695Y-56620446D01*
X151653590Y-56626410D01*
X151653595Y-56626414D01*
X151813547Y-56757683D01*
X151813548Y-56757683D01*
X151813550Y-56757685D01*
X151996046Y-56855232D01*
X152077901Y-56880062D01*
X152194065Y-56915300D01*
X152194070Y-56915301D01*
X152399997Y-56935583D01*
X152400000Y-56935583D01*
X152400003Y-56935583D01*
X152605929Y-56915301D01*
X152605934Y-56915300D01*
X152803954Y-56855232D01*
X152986450Y-56757685D01*
X153146410Y-56626410D01*
X153277685Y-56466450D01*
X153375232Y-56283954D01*
X153435300Y-56085934D01*
X153435301Y-56085929D01*
X153455583Y-55880003D01*
X153455583Y-55879996D01*
X153435301Y-55674070D01*
X153435300Y-55674065D01*
X153385531Y-55509998D01*
X153375232Y-55476046D01*
X153277685Y-55293550D01*
X153260530Y-55272647D01*
X153146414Y-55133595D01*
X153146410Y-55133590D01*
X153122872Y-55114273D01*
X152986452Y-55002316D01*
X152803954Y-54904768D01*
X152605934Y-54844699D01*
X152605929Y-54844698D01*
X152400003Y-54824417D01*
X152399997Y-54824417D01*
X152194070Y-54844698D01*
X152194065Y-54844699D01*
X151996045Y-54904768D01*
X151813547Y-55002316D01*
X151653595Y-55133585D01*
X151653585Y-55133595D01*
X151536028Y-55276840D01*
X151484497Y-55309827D01*
X151423417Y-55306225D01*
X151376121Y-55267410D01*
X151360500Y-55214035D01*
X151360500Y-54533533D01*
X151360877Y-54524904D01*
X151362181Y-54509999D01*
X151364264Y-54486193D01*
X151354204Y-54448652D01*
X151352335Y-54440220D01*
X151345588Y-54401954D01*
X151344840Y-54400659D01*
X151334942Y-54376767D01*
X151334554Y-54375316D01*
X151312264Y-54343482D01*
X151307630Y-54336209D01*
X151288194Y-54302545D01*
X151285684Y-54300439D01*
X151258428Y-54277568D01*
X151252060Y-54271734D01*
X150848502Y-53868176D01*
X150820725Y-53813659D01*
X150830296Y-53753227D01*
X150831174Y-53751544D01*
X150835232Y-53743954D01*
X150895300Y-53545934D01*
X150895301Y-53545929D01*
X150915583Y-53340003D01*
X150915583Y-53339996D01*
X150895301Y-53134070D01*
X150895300Y-53134065D01*
X150877078Y-53073997D01*
X150835232Y-52936046D01*
X150737685Y-52753550D01*
X150726641Y-52740093D01*
X150606414Y-52593595D01*
X150606410Y-52593590D01*
X150543440Y-52541912D01*
X150510453Y-52490381D01*
X150514055Y-52429301D01*
X150552870Y-52382005D01*
X150580629Y-52369756D01*
X150581385Y-52369554D01*
X150613234Y-52347251D01*
X150620480Y-52342635D01*
X150654156Y-52323194D01*
X150679144Y-52293413D01*
X150684955Y-52287070D01*
X151252072Y-51719954D01*
X151258431Y-51714129D01*
X151275321Y-51699957D01*
X151288194Y-51689156D01*
X151307627Y-51655494D01*
X151312266Y-51648214D01*
X151319871Y-51637353D01*
X151334553Y-51616385D01*
X151334942Y-51614932D01*
X151344833Y-51591053D01*
X151345588Y-51589746D01*
X151352338Y-51551462D01*
X151354199Y-51543063D01*
X151364263Y-51505508D01*
X151361639Y-51475521D01*
X151375402Y-51415907D01*
X151421578Y-51375765D01*
X151482531Y-51370431D01*
X151534977Y-51401943D01*
X151536790Y-51404089D01*
X151650819Y-51543034D01*
X151653590Y-51546410D01*
X151653595Y-51546414D01*
X151813547Y-51677683D01*
X151813548Y-51677683D01*
X151813550Y-51677685D01*
X151996046Y-51775232D01*
X152111229Y-51810172D01*
X152194065Y-51835300D01*
X152194070Y-51835301D01*
X152399997Y-51855583D01*
X152400000Y-51855583D01*
X152400003Y-51855583D01*
X152605929Y-51835301D01*
X152605934Y-51835300D01*
X152803954Y-51775232D01*
X152986450Y-51677685D01*
X153146410Y-51546410D01*
X153277685Y-51386450D01*
X153375232Y-51203954D01*
X153435300Y-51005934D01*
X153435301Y-51005929D01*
X153455583Y-50800003D01*
X153455583Y-50799996D01*
X153435301Y-50594070D01*
X153435300Y-50594065D01*
X153417078Y-50533997D01*
X153375232Y-50396046D01*
X153277685Y-50213550D01*
X153271263Y-50205725D01*
X153146414Y-50053595D01*
X153146410Y-50053590D01*
X153103366Y-50018265D01*
X152986452Y-49922316D01*
X152803954Y-49824768D01*
X152605934Y-49764699D01*
X152605929Y-49764698D01*
X152400003Y-49744417D01*
X152399997Y-49744417D01*
X152194070Y-49764698D01*
X152194065Y-49764699D01*
X151996045Y-49824768D01*
X151813547Y-49922316D01*
X151653595Y-50053585D01*
X151653585Y-50053595D01*
X151536028Y-50196840D01*
X151484497Y-50229827D01*
X151423417Y-50226225D01*
X151376121Y-50187410D01*
X151360500Y-50134035D01*
X151360500Y-49453533D01*
X151360877Y-49444904D01*
X151364264Y-49406193D01*
X151354204Y-49368652D01*
X151352335Y-49360220D01*
X151345588Y-49321954D01*
X151344840Y-49320659D01*
X151334942Y-49296767D01*
X151334554Y-49295316D01*
X151312264Y-49263482D01*
X151307630Y-49256209D01*
X151288194Y-49222545D01*
X151285684Y-49220439D01*
X151258428Y-49197568D01*
X151252060Y-49191734D01*
X150848502Y-48788176D01*
X150820725Y-48733659D01*
X150830296Y-48673227D01*
X150831174Y-48671544D01*
X150835232Y-48663954D01*
X150895300Y-48465934D01*
X150895301Y-48465929D01*
X150915583Y-48260003D01*
X151344417Y-48260003D01*
X151364698Y-48465929D01*
X151364699Y-48465934D01*
X151424768Y-48663954D01*
X151522316Y-48846452D01*
X151643189Y-48993736D01*
X151653590Y-49006410D01*
X151653595Y-49006414D01*
X151813547Y-49137683D01*
X151813548Y-49137683D01*
X151813550Y-49137685D01*
X151996046Y-49235232D01*
X152133997Y-49277078D01*
X152194065Y-49295300D01*
X152194070Y-49295301D01*
X152399997Y-49315583D01*
X152400000Y-49315583D01*
X152400003Y-49315583D01*
X152605929Y-49295301D01*
X152605934Y-49295300D01*
X152803954Y-49235232D01*
X152986450Y-49137685D01*
X153146410Y-49006410D01*
X153277685Y-48846450D01*
X153375232Y-48663954D01*
X153435300Y-48465934D01*
X153435301Y-48465929D01*
X153455583Y-48260003D01*
X153455583Y-48259996D01*
X153435301Y-48054070D01*
X153435300Y-48054065D01*
X153398339Y-47932220D01*
X153375232Y-47856046D01*
X153277685Y-47673550D01*
X153219827Y-47603050D01*
X153146414Y-47513595D01*
X153146410Y-47513590D01*
X153017326Y-47407654D01*
X152986452Y-47382316D01*
X152803954Y-47284768D01*
X152605934Y-47224699D01*
X152605929Y-47224698D01*
X152400003Y-47204417D01*
X152399997Y-47204417D01*
X152194070Y-47224698D01*
X152194065Y-47224699D01*
X151996045Y-47284768D01*
X151813547Y-47382316D01*
X151653595Y-47513585D01*
X151653585Y-47513595D01*
X151522316Y-47673547D01*
X151424768Y-47856045D01*
X151364699Y-48054065D01*
X151364698Y-48054070D01*
X151344417Y-48259996D01*
X151344417Y-48260003D01*
X150915583Y-48260003D01*
X150915583Y-48259996D01*
X150895301Y-48054070D01*
X150895300Y-48054065D01*
X150858339Y-47932220D01*
X150835232Y-47856046D01*
X150737685Y-47673550D01*
X150679827Y-47603050D01*
X150606414Y-47513595D01*
X150606410Y-47513590D01*
X150477326Y-47407654D01*
X150446452Y-47382316D01*
X150263954Y-47284768D01*
X150065934Y-47224699D01*
X150065929Y-47224698D01*
X149860003Y-47204417D01*
X149859997Y-47204417D01*
X149654070Y-47224698D01*
X149654065Y-47224699D01*
X149456045Y-47284768D01*
X149273547Y-47382316D01*
X149113595Y-47513585D01*
X149113585Y-47513595D01*
X148982316Y-47673547D01*
X148884768Y-47856045D01*
X148824699Y-48054065D01*
X148824698Y-48054070D01*
X148804417Y-48259996D01*
X148804417Y-48260003D01*
X148824698Y-48465929D01*
X148824699Y-48465934D01*
X148884768Y-48663954D01*
X148982316Y-48846452D01*
X149103189Y-48993736D01*
X149113590Y-49006410D01*
X149113595Y-49006414D01*
X149273547Y-49137683D01*
X149273548Y-49137683D01*
X149273550Y-49137685D01*
X149456046Y-49235232D01*
X149593997Y-49277078D01*
X149654065Y-49295300D01*
X149654070Y-49295301D01*
X149859997Y-49315583D01*
X149860000Y-49315583D01*
X149860003Y-49315583D01*
X150065929Y-49295301D01*
X150065934Y-49295300D01*
X150263954Y-49235232D01*
X150271499Y-49231198D01*
X150331730Y-49220439D01*
X150386783Y-49247137D01*
X150388176Y-49248502D01*
X150680504Y-49540830D01*
X150708281Y-49595347D01*
X150709500Y-49610834D01*
X150709500Y-49928876D01*
X150690593Y-49987067D01*
X150641093Y-50023031D01*
X150579907Y-50023031D01*
X150547695Y-50005404D01*
X150468722Y-49940593D01*
X150446452Y-49922316D01*
X150263954Y-49824768D01*
X150065934Y-49764699D01*
X150065929Y-49764698D01*
X149860003Y-49744417D01*
X149859997Y-49744417D01*
X149654070Y-49764698D01*
X149654065Y-49764699D01*
X149456045Y-49824768D01*
X149273551Y-49922314D01*
X149269783Y-49925406D01*
X149255621Y-49937028D01*
X149198646Y-49959328D01*
X149192818Y-49959500D01*
X148510970Y-49959500D01*
X148452779Y-49940593D01*
X148432428Y-49920767D01*
X148383285Y-49856722D01*
X148383282Y-49856718D01*
X148383277Y-49856714D01*
X148383276Y-49856713D01*
X148257838Y-49760462D01*
X148111766Y-49699957D01*
X148111758Y-49699955D01*
X147955001Y-49679318D01*
X147954999Y-49679318D01*
X147798241Y-49699955D01*
X147798233Y-49699957D01*
X147652161Y-49760462D01*
X147652160Y-49760462D01*
X147526723Y-49856713D01*
X147526714Y-49856722D01*
X147477572Y-49920767D01*
X147427148Y-49955423D01*
X147399030Y-49959500D01*
X143308226Y-49959500D01*
X143250035Y-49940593D01*
X143214071Y-49891093D01*
X143214071Y-49829907D01*
X143216128Y-49824181D01*
X143218263Y-49818766D01*
X143218265Y-49818764D01*
X143270503Y-49686297D01*
X143280500Y-49603052D01*
X143280500Y-48886948D01*
X143270503Y-48803703D01*
X143218265Y-48671236D01*
X143218261Y-48671231D01*
X143218261Y-48671230D01*
X143132228Y-48557779D01*
X143132225Y-48557775D01*
X143132220Y-48557771D01*
X143018769Y-48471738D01*
X143018766Y-48471737D01*
X143018764Y-48471735D01*
X142886297Y-48419497D01*
X142844674Y-48414498D01*
X142803054Y-48409500D01*
X142803052Y-48409500D01*
X140406948Y-48409500D01*
X140406945Y-48409500D01*
X140344514Y-48416997D01*
X140323703Y-48419497D01*
X140191236Y-48471735D01*
X140191234Y-48471736D01*
X140191230Y-48471738D01*
X140077779Y-48557771D01*
X140077771Y-48557779D01*
X139991738Y-48671230D01*
X139991736Y-48671234D01*
X139991735Y-48671236D01*
X139939497Y-48803703D01*
X139939497Y-48803704D01*
X139929500Y-48886945D01*
X139929500Y-49603054D01*
X139934498Y-49644674D01*
X139939497Y-49686297D01*
X139991735Y-49818764D01*
X139991736Y-49818766D01*
X139993872Y-49824181D01*
X139997630Y-49885251D01*
X139964775Y-49936867D01*
X139907855Y-49959313D01*
X139901774Y-49959500D01*
X128258226Y-49959500D01*
X128200035Y-49940593D01*
X128164071Y-49891093D01*
X128164071Y-49829907D01*
X128166128Y-49824181D01*
X128168263Y-49818766D01*
X128168265Y-49818764D01*
X128220503Y-49686297D01*
X128230500Y-49603052D01*
X128230500Y-48886948D01*
X128220503Y-48803703D01*
X128168265Y-48671236D01*
X128168261Y-48671231D01*
X128168261Y-48671230D01*
X128082228Y-48557779D01*
X128082225Y-48557775D01*
X128082220Y-48557771D01*
X127968769Y-48471738D01*
X127968766Y-48471737D01*
X127968764Y-48471735D01*
X127836297Y-48419497D01*
X127794674Y-48414498D01*
X127753054Y-48409500D01*
X127753052Y-48409500D01*
X125356948Y-48409500D01*
X125356945Y-48409500D01*
X125294514Y-48416997D01*
X125273703Y-48419497D01*
X125141236Y-48471735D01*
X125141234Y-48471736D01*
X125141230Y-48471738D01*
X125027779Y-48557771D01*
X125027771Y-48557779D01*
X124941738Y-48671230D01*
X124941736Y-48671234D01*
X124941735Y-48671236D01*
X124889497Y-48803703D01*
X124889497Y-48803704D01*
X124879500Y-48886945D01*
X124879500Y-49603054D01*
X124884498Y-49644674D01*
X124889497Y-49686297D01*
X124941735Y-49818764D01*
X124941737Y-49818766D01*
X124941738Y-49818769D01*
X125025235Y-49928876D01*
X125027775Y-49932225D01*
X125027779Y-49932228D01*
X125141230Y-50018261D01*
X125141231Y-50018261D01*
X125141236Y-50018265D01*
X125273703Y-50070503D01*
X125356948Y-50080500D01*
X127020166Y-50080500D01*
X127078357Y-50099407D01*
X127114321Y-50148907D01*
X127114321Y-50210093D01*
X127090170Y-50249504D01*
X126959170Y-50380504D01*
X126904653Y-50408281D01*
X126889166Y-50409500D01*
X125356945Y-50409500D01*
X125294514Y-50416997D01*
X125273703Y-50419497D01*
X125141236Y-50471735D01*
X125141234Y-50471736D01*
X125141230Y-50471738D01*
X125027779Y-50557771D01*
X125027771Y-50557779D01*
X124941738Y-50671230D01*
X124941736Y-50671234D01*
X124941735Y-50671236D01*
X124889497Y-50803703D01*
X124889497Y-50803704D01*
X124880840Y-50875793D01*
X124879500Y-50886948D01*
X124879500Y-51603052D01*
X124889497Y-51686297D01*
X124941735Y-51818764D01*
X124941737Y-51818766D01*
X124941738Y-51818769D01*
X125019086Y-51920767D01*
X125027775Y-51932225D01*
X125027779Y-51932228D01*
X125141230Y-52018261D01*
X125141231Y-52018261D01*
X125141236Y-52018265D01*
X125273703Y-52070503D01*
X125356948Y-52080500D01*
X127020166Y-52080500D01*
X127078357Y-52099407D01*
X127114321Y-52148907D01*
X127114321Y-52210093D01*
X127090170Y-52249504D01*
X126959170Y-52380504D01*
X126904653Y-52408281D01*
X126889166Y-52409500D01*
X125356945Y-52409500D01*
X125294514Y-52416997D01*
X125273703Y-52419497D01*
X125141236Y-52471735D01*
X125141234Y-52471736D01*
X125141230Y-52471738D01*
X125027779Y-52557771D01*
X125027771Y-52557779D01*
X124941738Y-52671230D01*
X124941736Y-52671234D01*
X124941735Y-52671236D01*
X124889497Y-52803703D01*
X124879500Y-52886948D01*
X124879500Y-53603052D01*
X124889497Y-53686297D01*
X124941735Y-53818764D01*
X124941737Y-53818766D01*
X124941738Y-53818769D01*
X125023397Y-53926452D01*
X125027775Y-53932225D01*
X125027779Y-53932228D01*
X125141230Y-54018261D01*
X125141231Y-54018261D01*
X125141236Y-54018265D01*
X125273703Y-54070503D01*
X125356948Y-54080500D01*
X127020166Y-54080500D01*
X127078357Y-54099407D01*
X127114321Y-54148907D01*
X127114321Y-54210093D01*
X127090170Y-54249504D01*
X126959170Y-54380504D01*
X126904653Y-54408281D01*
X126889166Y-54409500D01*
X125356945Y-54409500D01*
X125294514Y-54416997D01*
X125273703Y-54419497D01*
X125141236Y-54471735D01*
X125141234Y-54471736D01*
X125141230Y-54471738D01*
X125027779Y-54557771D01*
X125027771Y-54557779D01*
X124941738Y-54671230D01*
X124941736Y-54671234D01*
X124941735Y-54671236D01*
X124889497Y-54803703D01*
X124879500Y-54886948D01*
X124879500Y-55603052D01*
X122620500Y-55603052D01*
X122620500Y-55189085D01*
X122626057Y-55156385D01*
X122630144Y-55144704D01*
X122630146Y-55144699D01*
X122632999Y-55114273D01*
X122633000Y-55114273D01*
X122633000Y-55114203D01*
X123032501Y-55114203D01*
X123035350Y-55144600D01*
X123035350Y-55144602D01*
X123080154Y-55272647D01*
X123160707Y-55381790D01*
X123160709Y-55381792D01*
X123269852Y-55462345D01*
X123397898Y-55507149D01*
X123428289Y-55509999D01*
X123644998Y-55509999D01*
X123645000Y-55509998D01*
X123845000Y-55509998D01*
X123845001Y-55509999D01*
X124061703Y-55509999D01*
X124092100Y-55507149D01*
X124092102Y-55507149D01*
X124220147Y-55462345D01*
X124329290Y-55381792D01*
X124329292Y-55381790D01*
X124409845Y-55272647D01*
X124454649Y-55144601D01*
X124457499Y-55114211D01*
X124457500Y-55114210D01*
X124457500Y-54710001D01*
X124457499Y-54710000D01*
X123845001Y-54710000D01*
X123845000Y-54710001D01*
X123845000Y-55509998D01*
X123645000Y-55509998D01*
X123645000Y-54710001D01*
X123644999Y-54710000D01*
X123032502Y-54710000D01*
X123032501Y-54710001D01*
X123032501Y-55114203D01*
X122633000Y-55114203D01*
X122633000Y-54509999D01*
X123032500Y-54509999D01*
X123032501Y-54510000D01*
X123644999Y-54510000D01*
X123645000Y-54509999D01*
X123845000Y-54509999D01*
X123845001Y-54510000D01*
X124457498Y-54510000D01*
X124457499Y-54509999D01*
X124457499Y-54105796D01*
X124454649Y-54075399D01*
X124454649Y-54075397D01*
X124409845Y-53947352D01*
X124329292Y-53838209D01*
X124329290Y-53838207D01*
X124220147Y-53757654D01*
X124092101Y-53712850D01*
X124061711Y-53710000D01*
X123845001Y-53710000D01*
X123845000Y-53710001D01*
X123845000Y-54509999D01*
X123645000Y-54509999D01*
X123645000Y-53710001D01*
X123644999Y-53710000D01*
X123428296Y-53710000D01*
X123397899Y-53712850D01*
X123397897Y-53712850D01*
X123269852Y-53757654D01*
X123160709Y-53838207D01*
X123160707Y-53838209D01*
X123080154Y-53947352D01*
X123035350Y-54075398D01*
X123032500Y-54105788D01*
X123032500Y-54509999D01*
X122633000Y-54509999D01*
X122633000Y-54105727D01*
X122632999Y-54105725D01*
X122630146Y-54075301D01*
X122626055Y-54063608D01*
X122620500Y-54030913D01*
X122620500Y-53035007D01*
X122639407Y-52976816D01*
X122660713Y-52955351D01*
X122692150Y-52932150D01*
X122692150Y-52932148D01*
X122692152Y-52932148D01*
X122751972Y-52851093D01*
X122772793Y-52822882D01*
X122817646Y-52694699D01*
X122820499Y-52664273D01*
X122820500Y-52664273D01*
X122820500Y-52030727D01*
X122820499Y-52030725D01*
X122817646Y-52000301D01*
X122772793Y-51872118D01*
X122761430Y-51856722D01*
X122692154Y-51762855D01*
X122692152Y-51762853D01*
X122692150Y-51762850D01*
X122692146Y-51762847D01*
X122692144Y-51762845D01*
X122582883Y-51682207D01*
X122454703Y-51637355D01*
X122454694Y-51637353D01*
X122424274Y-51634500D01*
X122424266Y-51634500D01*
X121415734Y-51634500D01*
X121415725Y-51634500D01*
X121385305Y-51637353D01*
X121385296Y-51637355D01*
X121257116Y-51682207D01*
X121147855Y-51762845D01*
X121147845Y-51762855D01*
X121067207Y-51872116D01*
X121022355Y-52000296D01*
X121022353Y-52000305D01*
X121019500Y-52030725D01*
X121019500Y-52664274D01*
X121022353Y-52694694D01*
X121022355Y-52694703D01*
X121067207Y-52822883D01*
X121147847Y-52932148D01*
X121179287Y-52955351D01*
X121214880Y-53005118D01*
X121219500Y-53035007D01*
X121219500Y-54030913D01*
X121213945Y-54063608D01*
X121209853Y-54075301D01*
X121207000Y-54105725D01*
X121207000Y-55114274D01*
X121209853Y-55144694D01*
X121209855Y-55144704D01*
X121213943Y-55156385D01*
X121219500Y-55189085D01*
X121219500Y-56183835D01*
X121200593Y-56242026D01*
X121190504Y-56253839D01*
X119643839Y-57800504D01*
X119589322Y-57828281D01*
X119573835Y-57829500D01*
X118209000Y-57829500D01*
X118150809Y-57810593D01*
X118114845Y-57761093D01*
X118110000Y-57730500D01*
X118110000Y-50839274D01*
X121019500Y-50839274D01*
X121022353Y-50869694D01*
X121022355Y-50869703D01*
X121067207Y-50997883D01*
X121147845Y-51107144D01*
X121147847Y-51107146D01*
X121147850Y-51107150D01*
X121147853Y-51107152D01*
X121147855Y-51107154D01*
X121257116Y-51187792D01*
X121257117Y-51187792D01*
X121257118Y-51187793D01*
X121385301Y-51232646D01*
X121415725Y-51235499D01*
X121415727Y-51235500D01*
X121415734Y-51235500D01*
X122424273Y-51235500D01*
X122424273Y-51235499D01*
X122454699Y-51232646D01*
X122582882Y-51187793D01*
X122692150Y-51107150D01*
X122772793Y-50997882D01*
X122817646Y-50869699D01*
X122820499Y-50839273D01*
X122820500Y-50839273D01*
X122820500Y-50205727D01*
X122820499Y-50205725D01*
X122819666Y-50196840D01*
X122817646Y-50175301D01*
X122772793Y-50047118D01*
X122692150Y-49937850D01*
X122660711Y-49914647D01*
X122625119Y-49864880D01*
X122620500Y-49834992D01*
X122620500Y-48764203D01*
X122945001Y-48764203D01*
X122947850Y-48794600D01*
X122947850Y-48794602D01*
X122992654Y-48922647D01*
X123073207Y-49031790D01*
X123073209Y-49031792D01*
X123182352Y-49112345D01*
X123310398Y-49157149D01*
X123340789Y-49159999D01*
X123557498Y-49159999D01*
X123557500Y-49159998D01*
X123757500Y-49159998D01*
X123757501Y-49159999D01*
X123974203Y-49159999D01*
X124004600Y-49157149D01*
X124004602Y-49157149D01*
X124132647Y-49112345D01*
X124241790Y-49031792D01*
X124241792Y-49031790D01*
X124322345Y-48922647D01*
X124367149Y-48794601D01*
X124369999Y-48764211D01*
X124370000Y-48764210D01*
X124370000Y-48360001D01*
X124369999Y-48360000D01*
X123757501Y-48360000D01*
X123757500Y-48360001D01*
X123757500Y-49159998D01*
X123557500Y-49159998D01*
X123557500Y-48360001D01*
X123557499Y-48360000D01*
X122945002Y-48360000D01*
X122945001Y-48360001D01*
X122945001Y-48764203D01*
X122620500Y-48764203D01*
X122620500Y-48159999D01*
X122945000Y-48159999D01*
X122945001Y-48160000D01*
X123557499Y-48160000D01*
X123557500Y-48159999D01*
X123757500Y-48159999D01*
X123757501Y-48160000D01*
X124369998Y-48160000D01*
X124369999Y-48159999D01*
X124369999Y-47755796D01*
X124367149Y-47725399D01*
X124367149Y-47725397D01*
X124324327Y-47603016D01*
X124880000Y-47603016D01*
X124889987Y-47686178D01*
X124942175Y-47818516D01*
X125028129Y-47931864D01*
X125028135Y-47931870D01*
X125141483Y-48017824D01*
X125273821Y-48070012D01*
X125356983Y-48079999D01*
X125356990Y-48080000D01*
X126454999Y-48080000D01*
X126455000Y-48079999D01*
X126655000Y-48079999D01*
X126655001Y-48080000D01*
X127753010Y-48080000D01*
X127753016Y-48079999D01*
X127836178Y-48070012D01*
X127968516Y-48017824D01*
X128081864Y-47931870D01*
X128081870Y-47931864D01*
X128167824Y-47818516D01*
X128220012Y-47686178D01*
X128229995Y-47603052D01*
X139929500Y-47603052D01*
X139939497Y-47686297D01*
X139991735Y-47818764D01*
X139991737Y-47818766D01*
X139991738Y-47818769D01*
X140077501Y-47931864D01*
X140077775Y-47932225D01*
X140077779Y-47932228D01*
X140191230Y-48018261D01*
X140191231Y-48018261D01*
X140191236Y-48018265D01*
X140323703Y-48070503D01*
X140406948Y-48080500D01*
X140406950Y-48080500D01*
X142803050Y-48080500D01*
X142803052Y-48080500D01*
X142886297Y-48070503D01*
X143018764Y-48018265D01*
X143132225Y-47932225D01*
X143218265Y-47818764D01*
X143270503Y-47686297D01*
X143280500Y-47603052D01*
X143280500Y-46886948D01*
X143270503Y-46803703D01*
X143218265Y-46671236D01*
X143218261Y-46671231D01*
X143218261Y-46671230D01*
X143132228Y-46557779D01*
X143132225Y-46557775D01*
X143132220Y-46557771D01*
X143018769Y-46471738D01*
X143018766Y-46471737D01*
X143018764Y-46471735D01*
X142886297Y-46419497D01*
X142844674Y-46414498D01*
X142803054Y-46409500D01*
X142803052Y-46409500D01*
X140406948Y-46409500D01*
X140406945Y-46409500D01*
X140344514Y-46416997D01*
X140323703Y-46419497D01*
X140191236Y-46471735D01*
X140191234Y-46471736D01*
X140191230Y-46471738D01*
X140077779Y-46557771D01*
X140077771Y-46557779D01*
X139991738Y-46671230D01*
X139991736Y-46671234D01*
X139991735Y-46671236D01*
X139939497Y-46803703D01*
X139929500Y-46886948D01*
X139929500Y-47603052D01*
X128229995Y-47603052D01*
X128229999Y-47603016D01*
X128230000Y-47603010D01*
X128230000Y-47345001D01*
X128229999Y-47345000D01*
X126655001Y-47345000D01*
X126655000Y-47345001D01*
X126655000Y-48079999D01*
X126455000Y-48079999D01*
X126455000Y-47345001D01*
X126454999Y-47345000D01*
X124880001Y-47345000D01*
X124880000Y-47345001D01*
X124880000Y-47603016D01*
X124324327Y-47603016D01*
X124322345Y-47597352D01*
X124241792Y-47488209D01*
X124241790Y-47488207D01*
X124132647Y-47407654D01*
X124004601Y-47362850D01*
X123974211Y-47360000D01*
X123757501Y-47360000D01*
X123757500Y-47360001D01*
X123757500Y-48159999D01*
X123557500Y-48159999D01*
X123557500Y-47360001D01*
X123557499Y-47360000D01*
X123340796Y-47360000D01*
X123310399Y-47362850D01*
X123310397Y-47362850D01*
X123182352Y-47407654D01*
X123073209Y-47488207D01*
X123073207Y-47488209D01*
X122992654Y-47597352D01*
X122947850Y-47725398D01*
X122945000Y-47755788D01*
X122945000Y-48159999D01*
X122620500Y-48159999D01*
X122620500Y-47144999D01*
X124880000Y-47144999D01*
X124880001Y-47145000D01*
X126454999Y-47145000D01*
X126455000Y-47144999D01*
X126655000Y-47144999D01*
X126655001Y-47145000D01*
X128229999Y-47145000D01*
X128230000Y-47144999D01*
X128230000Y-46886989D01*
X128229999Y-46886983D01*
X128220012Y-46803821D01*
X128167824Y-46671483D01*
X128081870Y-46558135D01*
X128081864Y-46558129D01*
X127968516Y-46472175D01*
X127836178Y-46419987D01*
X127753016Y-46410000D01*
X126655001Y-46410000D01*
X126655000Y-46410001D01*
X126655000Y-47144999D01*
X126455000Y-47144999D01*
X126455000Y-46410001D01*
X126454999Y-46410000D01*
X125356983Y-46410000D01*
X125273821Y-46419987D01*
X125141483Y-46472175D01*
X125028135Y-46558129D01*
X125028129Y-46558135D01*
X124942175Y-46671483D01*
X124889987Y-46803821D01*
X124880000Y-46886983D01*
X124880000Y-47144999D01*
X122620500Y-47144999D01*
X122620500Y-45603052D01*
X124879500Y-45603052D01*
X124889497Y-45686297D01*
X124941735Y-45818764D01*
X124941737Y-45818766D01*
X124941738Y-45818769D01*
X125022926Y-45925831D01*
X125027775Y-45932225D01*
X125027779Y-45932228D01*
X125141230Y-46018261D01*
X125141231Y-46018261D01*
X125141236Y-46018265D01*
X125273703Y-46070503D01*
X125356948Y-46080500D01*
X125356950Y-46080500D01*
X127753050Y-46080500D01*
X127753052Y-46080500D01*
X127836297Y-46070503D01*
X127968764Y-46018265D01*
X128082225Y-45932225D01*
X128168265Y-45818764D01*
X128220503Y-45686297D01*
X128230500Y-45603052D01*
X139929500Y-45603052D01*
X139939497Y-45686297D01*
X139991735Y-45818764D01*
X139991737Y-45818766D01*
X139991738Y-45818769D01*
X140072926Y-45925831D01*
X140077775Y-45932225D01*
X140077779Y-45932228D01*
X140191230Y-46018261D01*
X140191231Y-46018261D01*
X140191236Y-46018265D01*
X140323703Y-46070503D01*
X140406948Y-46080500D01*
X140406950Y-46080500D01*
X142803050Y-46080500D01*
X142803052Y-46080500D01*
X142886297Y-46070503D01*
X143018764Y-46018265D01*
X143132225Y-45932225D01*
X143218265Y-45818764D01*
X143270503Y-45686297D01*
X143280500Y-45603052D01*
X143280500Y-44969500D01*
X143299407Y-44911309D01*
X143348907Y-44875345D01*
X143379500Y-44870500D01*
X148989522Y-44870500D01*
X149047713Y-44889407D01*
X149083677Y-44938907D01*
X149083677Y-45000093D01*
X149066050Y-45032305D01*
X148982731Y-45133829D01*
X148982724Y-45133839D01*
X148885234Y-45316232D01*
X148885232Y-45316237D01*
X148825191Y-45514163D01*
X148825190Y-45514168D01*
X148814767Y-45619999D01*
X148814768Y-45620000D01*
X149368254Y-45620000D01*
X149360000Y-45648111D01*
X149360000Y-45791889D01*
X149368254Y-45820000D01*
X148814767Y-45820000D01*
X148825190Y-45925831D01*
X148825191Y-45925836D01*
X148885232Y-46123762D01*
X148885234Y-46123767D01*
X148982724Y-46306160D01*
X148982731Y-46306170D01*
X149113940Y-46466050D01*
X149113949Y-46466059D01*
X149273829Y-46597268D01*
X149273839Y-46597275D01*
X149456232Y-46694765D01*
X149456237Y-46694767D01*
X149654166Y-46754808D01*
X149759998Y-46765231D01*
X149760000Y-46765230D01*
X149760000Y-46210764D01*
X149824237Y-46220000D01*
X149895763Y-46220000D01*
X149960000Y-46210764D01*
X149960000Y-46765230D01*
X149960001Y-46765231D01*
X150065833Y-46754808D01*
X150263762Y-46694767D01*
X150263767Y-46694765D01*
X150446160Y-46597275D01*
X150446170Y-46597268D01*
X150606050Y-46466059D01*
X150606059Y-46466050D01*
X150737268Y-46306170D01*
X150737275Y-46306160D01*
X150834765Y-46123767D01*
X150834767Y-46123762D01*
X150894808Y-45925836D01*
X150894809Y-45925831D01*
X150905232Y-45820000D01*
X150351746Y-45820000D01*
X150360000Y-45791889D01*
X150360000Y-45648111D01*
X150351746Y-45620000D01*
X150905232Y-45620000D01*
X150905232Y-45619999D01*
X150894809Y-45514168D01*
X150894808Y-45514163D01*
X150834767Y-45316237D01*
X150834765Y-45316232D01*
X150737275Y-45133839D01*
X150737268Y-45133829D01*
X150653950Y-45032305D01*
X150631650Y-44975328D01*
X150647099Y-44916125D01*
X150694396Y-44877310D01*
X150730478Y-44870500D01*
X151529522Y-44870500D01*
X151587713Y-44889407D01*
X151623677Y-44938907D01*
X151623677Y-45000093D01*
X151606050Y-45032305D01*
X151522731Y-45133829D01*
X151522724Y-45133839D01*
X151425234Y-45316232D01*
X151425232Y-45316237D01*
X151365191Y-45514163D01*
X151365190Y-45514168D01*
X151354767Y-45619999D01*
X151354768Y-45620000D01*
X151908254Y-45620000D01*
X151900000Y-45648111D01*
X151900000Y-45791889D01*
X151908254Y-45820000D01*
X151354767Y-45820000D01*
X151365190Y-45925831D01*
X151365191Y-45925836D01*
X151425232Y-46123762D01*
X151425234Y-46123767D01*
X151522724Y-46306160D01*
X151522731Y-46306170D01*
X151653940Y-46466050D01*
X151653949Y-46466059D01*
X151813829Y-46597268D01*
X151813839Y-46597275D01*
X151996232Y-46694765D01*
X151996237Y-46694767D01*
X152194166Y-46754808D01*
X152299998Y-46765231D01*
X152300000Y-46765230D01*
X152300000Y-46210764D01*
X152364237Y-46220000D01*
X152435763Y-46220000D01*
X152500000Y-46210764D01*
X152500000Y-46765230D01*
X152500001Y-46765231D01*
X152605833Y-46754808D01*
X152803762Y-46694767D01*
X152803767Y-46694765D01*
X152986160Y-46597275D01*
X152986170Y-46597268D01*
X153146050Y-46466059D01*
X153146059Y-46466050D01*
X153277268Y-46306170D01*
X153277275Y-46306160D01*
X153374765Y-46123767D01*
X153374767Y-46123762D01*
X153434808Y-45925836D01*
X153434809Y-45925831D01*
X153445232Y-45820000D01*
X152891746Y-45820000D01*
X152900000Y-45791889D01*
X152900000Y-45648111D01*
X152891746Y-45620000D01*
X153445232Y-45620000D01*
X153445232Y-45619999D01*
X153434809Y-45514168D01*
X153434808Y-45514163D01*
X153374767Y-45316237D01*
X153374765Y-45316232D01*
X153277275Y-45133839D01*
X153277268Y-45133829D01*
X153193950Y-45032305D01*
X153171650Y-44975328D01*
X153187099Y-44916125D01*
X153234396Y-44877310D01*
X153270478Y-44870500D01*
X154129166Y-44870500D01*
X154187357Y-44889407D01*
X154199170Y-44899496D01*
X154495504Y-45195830D01*
X154523281Y-45250347D01*
X154524500Y-45265834D01*
X154524500Y-50714165D01*
X154505593Y-50772356D01*
X154495504Y-50784169D01*
X152928175Y-52351497D01*
X152873658Y-52379274D01*
X152813226Y-52369703D01*
X152811548Y-52368827D01*
X152803954Y-52364768D01*
X152738085Y-52344787D01*
X152605934Y-52304699D01*
X152605929Y-52304698D01*
X152400003Y-52284417D01*
X152399997Y-52284417D01*
X152194070Y-52304698D01*
X152194065Y-52304699D01*
X151996045Y-52364768D01*
X151813547Y-52462316D01*
X151653595Y-52593585D01*
X151653585Y-52593595D01*
X151522316Y-52753547D01*
X151424768Y-52936045D01*
X151364699Y-53134065D01*
X151364698Y-53134070D01*
X151344417Y-53339996D01*
X151344417Y-53340003D01*
X151364698Y-53545929D01*
X151364699Y-53545934D01*
X151424768Y-53743954D01*
X151522316Y-53926452D01*
X151648739Y-54080499D01*
X151653590Y-54086410D01*
X151653595Y-54086414D01*
X151813547Y-54217683D01*
X151813548Y-54217683D01*
X151813550Y-54217685D01*
X151996046Y-54315232D01*
X152133997Y-54357078D01*
X152194065Y-54375300D01*
X152194070Y-54375301D01*
X152399997Y-54395583D01*
X152400000Y-54395583D01*
X152400003Y-54395583D01*
X152605929Y-54375301D01*
X152605934Y-54375300D01*
X152803954Y-54315232D01*
X152986450Y-54217685D01*
X153146410Y-54086410D01*
X153277685Y-53926450D01*
X153375232Y-53743954D01*
X153435300Y-53545934D01*
X153435301Y-53545929D01*
X153455583Y-53340003D01*
X153455583Y-53339996D01*
X153435301Y-53134070D01*
X153435300Y-53134065D01*
X153417078Y-53073997D01*
X153375232Y-52936046D01*
X153373150Y-52932150D01*
X153371195Y-52928493D01*
X153360440Y-52868261D01*
X153387142Y-52813210D01*
X153388451Y-52811873D01*
X155067072Y-51133253D01*
X155073431Y-51127428D01*
X155103194Y-51102455D01*
X155122624Y-51068799D01*
X155127252Y-51061532D01*
X155149554Y-51029684D01*
X155149942Y-51028236D01*
X155159838Y-51004345D01*
X155160586Y-51003048D01*
X155160585Y-51003048D01*
X155160588Y-51003045D01*
X155167341Y-50964743D01*
X155169198Y-50956366D01*
X155179263Y-50918807D01*
X155175877Y-50880102D01*
X155175500Y-50871474D01*
X155175500Y-45108522D01*
X155175877Y-45099893D01*
X155179263Y-45061193D01*
X155169206Y-45023663D01*
X155167337Y-45015232D01*
X155160588Y-44976955D01*
X155159834Y-44975649D01*
X155149941Y-44951765D01*
X155149553Y-44950316D01*
X155127261Y-44918480D01*
X155122625Y-44911202D01*
X155118771Y-44904527D01*
X155103194Y-44877545D01*
X155103193Y-44877544D01*
X155103191Y-44877542D01*
X155073434Y-44852573D01*
X155067066Y-44846739D01*
X154548268Y-44327942D01*
X154542434Y-44321574D01*
X154517456Y-44291806D01*
X154483795Y-44272372D01*
X154476512Y-44267732D01*
X154444685Y-44245446D01*
X154444679Y-44245443D01*
X154443224Y-44245054D01*
X154419348Y-44235164D01*
X154418045Y-44234411D01*
X154379779Y-44227664D01*
X154371350Y-44225795D01*
X154345492Y-44218867D01*
X154333807Y-44215736D01*
X154333806Y-44215736D01*
X154333805Y-44215736D01*
X154295095Y-44219123D01*
X154286466Y-44219500D01*
X153065965Y-44219500D01*
X153007774Y-44200593D01*
X152971810Y-44151093D01*
X152971810Y-44089907D01*
X153003160Y-44043972D01*
X153050849Y-44004833D01*
X153146410Y-43926410D01*
X153277685Y-43766450D01*
X153375232Y-43583954D01*
X153435300Y-43385934D01*
X153435301Y-43385929D01*
X153455583Y-43180003D01*
X153455583Y-43179996D01*
X153435301Y-42974070D01*
X153435300Y-42974065D01*
X153383657Y-42803821D01*
X153375232Y-42776046D01*
X153277685Y-42593550D01*
X153250036Y-42559860D01*
X153146414Y-42433595D01*
X153146410Y-42433590D01*
X153117667Y-42410001D01*
X152986452Y-42302316D01*
X152803954Y-42204768D01*
X152605934Y-42144699D01*
X152605929Y-42144698D01*
X152400003Y-42124417D01*
X152399997Y-42124417D01*
X152194070Y-42144698D01*
X152194065Y-42144699D01*
X151996045Y-42204768D01*
X151813547Y-42302316D01*
X151653595Y-42433585D01*
X151653585Y-42433595D01*
X151522316Y-42593547D01*
X151424768Y-42776045D01*
X151364699Y-42974065D01*
X151364698Y-42974070D01*
X151344417Y-43179996D01*
X151344417Y-43180003D01*
X151364698Y-43385929D01*
X151364699Y-43385934D01*
X151424768Y-43583954D01*
X151522316Y-43766452D01*
X151653585Y-43926404D01*
X151653590Y-43926410D01*
X151653595Y-43926414D01*
X151796840Y-44043972D01*
X151829827Y-44095503D01*
X151826225Y-44156583D01*
X151787410Y-44203879D01*
X151734035Y-44219500D01*
X150997366Y-44219500D01*
X150939175Y-44200593D01*
X150903211Y-44151093D01*
X150900268Y-44101187D01*
X150910500Y-44049748D01*
X150910500Y-42310252D01*
X150908921Y-42302316D01*
X150907711Y-42296231D01*
X150898867Y-42251769D01*
X150854552Y-42185448D01*
X150854548Y-42185445D01*
X150788233Y-42141134D01*
X150788231Y-42141133D01*
X150788228Y-42141132D01*
X150788227Y-42141132D01*
X150729758Y-42129501D01*
X150729748Y-42129500D01*
X148990252Y-42129500D01*
X148990251Y-42129500D01*
X148990241Y-42129501D01*
X148931772Y-42141132D01*
X148931766Y-42141134D01*
X148865451Y-42185445D01*
X148865445Y-42185451D01*
X148821134Y-42251766D01*
X148821132Y-42251772D01*
X148809501Y-42310241D01*
X148809500Y-42310251D01*
X148809500Y-42310252D01*
X148809500Y-44049748D01*
X148819731Y-44101186D01*
X148812541Y-44161946D01*
X148771008Y-44206877D01*
X148722634Y-44219500D01*
X143028011Y-44219500D01*
X142969820Y-44200593D01*
X142933856Y-44151093D01*
X142933856Y-44089907D01*
X142969820Y-44040407D01*
X142991692Y-44028402D01*
X143018519Y-44017822D01*
X143131864Y-43931870D01*
X143131870Y-43931864D01*
X143217824Y-43818516D01*
X143270012Y-43686178D01*
X143279999Y-43603016D01*
X143280000Y-43603010D01*
X143280000Y-43345001D01*
X143279999Y-43345000D01*
X141705001Y-43345000D01*
X141705000Y-43345001D01*
X141705000Y-44079999D01*
X141705001Y-44080000D01*
X142087610Y-44080000D01*
X142145801Y-44098907D01*
X142181765Y-44148407D01*
X142181765Y-44209593D01*
X142145801Y-44259093D01*
X142144387Y-44260101D01*
X142133484Y-44267734D01*
X142126209Y-44272368D01*
X142092546Y-44291804D01*
X142067568Y-44321571D01*
X142061736Y-44327935D01*
X142009171Y-44380502D01*
X141954655Y-44408281D01*
X141939166Y-44409500D01*
X140406945Y-44409500D01*
X140344514Y-44416997D01*
X140323703Y-44419497D01*
X140191236Y-44471735D01*
X140191234Y-44471736D01*
X140191230Y-44471738D01*
X140077779Y-44557771D01*
X140077771Y-44557779D01*
X139991738Y-44671230D01*
X139991736Y-44671234D01*
X139991735Y-44671236D01*
X139939497Y-44803703D01*
X139939497Y-44803704D01*
X139930630Y-44877542D01*
X139929500Y-44886948D01*
X139929500Y-45603052D01*
X128230500Y-45603052D01*
X128230500Y-44886948D01*
X128220503Y-44803703D01*
X128168265Y-44671236D01*
X128168261Y-44671231D01*
X128168261Y-44671230D01*
X128082228Y-44557779D01*
X128082225Y-44557775D01*
X128082220Y-44557771D01*
X127968769Y-44471738D01*
X127968766Y-44471737D01*
X127968764Y-44471735D01*
X127836297Y-44419497D01*
X127794674Y-44414498D01*
X127753054Y-44409500D01*
X127753052Y-44409500D01*
X125356948Y-44409500D01*
X125356945Y-44409500D01*
X125294514Y-44416997D01*
X125273703Y-44419497D01*
X125141236Y-44471735D01*
X125141234Y-44471736D01*
X125141230Y-44471738D01*
X125027779Y-44557771D01*
X125027771Y-44557779D01*
X124941738Y-44671230D01*
X124941736Y-44671234D01*
X124941735Y-44671236D01*
X124889497Y-44803703D01*
X124889497Y-44803704D01*
X124880630Y-44877542D01*
X124879500Y-44886948D01*
X124879500Y-45603052D01*
X122620500Y-45603052D01*
X122620500Y-45416165D01*
X122639407Y-45357974D01*
X122649496Y-45346161D01*
X124021161Y-43974496D01*
X124075678Y-43946719D01*
X124091165Y-43945500D01*
X125011989Y-43945500D01*
X125070180Y-43964407D01*
X125071808Y-43965616D01*
X125141230Y-44018261D01*
X125141236Y-44018265D01*
X125273703Y-44070503D01*
X125356948Y-44080500D01*
X125356950Y-44080500D01*
X127753050Y-44080500D01*
X127753052Y-44080500D01*
X127836297Y-44070503D01*
X127968764Y-44018265D01*
X128082225Y-43932225D01*
X128168265Y-43818764D01*
X128220503Y-43686297D01*
X128230500Y-43603052D01*
X128230500Y-43603016D01*
X139930000Y-43603016D01*
X139939987Y-43686178D01*
X139992175Y-43818516D01*
X140078129Y-43931864D01*
X140078135Y-43931870D01*
X140191483Y-44017824D01*
X140323821Y-44070012D01*
X140406983Y-44079999D01*
X140406990Y-44080000D01*
X141504999Y-44080000D01*
X141505000Y-44079999D01*
X141505000Y-43345001D01*
X141504999Y-43345000D01*
X139930001Y-43345000D01*
X139930000Y-43345001D01*
X139930000Y-43603016D01*
X128230500Y-43603016D01*
X128230500Y-43144999D01*
X139930000Y-43144999D01*
X139930001Y-43145000D01*
X141504999Y-43145000D01*
X141505000Y-43144999D01*
X141705000Y-43144999D01*
X141705001Y-43145000D01*
X143279999Y-43145000D01*
X143280000Y-43144999D01*
X143280000Y-42886989D01*
X143279999Y-42886983D01*
X143270012Y-42803821D01*
X143217824Y-42671483D01*
X143131870Y-42558135D01*
X143131864Y-42558129D01*
X143018516Y-42472175D01*
X142886178Y-42419987D01*
X142803016Y-42410000D01*
X141705001Y-42410000D01*
X141705000Y-42410001D01*
X141705000Y-43144999D01*
X141505000Y-43144999D01*
X141505000Y-42410001D01*
X141504999Y-42410000D01*
X140406983Y-42410000D01*
X140323821Y-42419987D01*
X140191483Y-42472175D01*
X140078135Y-42558129D01*
X140078129Y-42558135D01*
X139992175Y-42671483D01*
X139939987Y-42803821D01*
X139930000Y-42886983D01*
X139930000Y-43144999D01*
X128230500Y-43144999D01*
X128230500Y-42886948D01*
X128220503Y-42803703D01*
X128168265Y-42671236D01*
X128168261Y-42671231D01*
X128168261Y-42671230D01*
X128082228Y-42557779D01*
X128082225Y-42557775D01*
X128075297Y-42552521D01*
X127968769Y-42471738D01*
X127968766Y-42471737D01*
X127968764Y-42471735D01*
X127836297Y-42419497D01*
X127794674Y-42414498D01*
X127753054Y-42409500D01*
X127753052Y-42409500D01*
X125356948Y-42409500D01*
X125356945Y-42409500D01*
X125294514Y-42416997D01*
X125273703Y-42419497D01*
X125237953Y-42433595D01*
X125141233Y-42471736D01*
X125071808Y-42524384D01*
X125014017Y-42544479D01*
X125011989Y-42544500D01*
X123784155Y-42544500D01*
X123778177Y-42544319D01*
X123775007Y-42544127D01*
X123717395Y-42540641D01*
X123657470Y-42551622D01*
X123651562Y-42552521D01*
X123591126Y-42559860D01*
X123579529Y-42564258D01*
X123562282Y-42569066D01*
X123550066Y-42571305D01*
X123550065Y-42571305D01*
X123494528Y-42596301D01*
X123489004Y-42598589D01*
X123432076Y-42620179D01*
X123432066Y-42620184D01*
X123421858Y-42627230D01*
X123406259Y-42636028D01*
X123394944Y-42641120D01*
X123394944Y-42641121D01*
X123394943Y-42641122D01*
X123346988Y-42678690D01*
X123342186Y-42682224D01*
X123292071Y-42716816D01*
X123251695Y-42762390D01*
X123247598Y-42766743D01*
X121441743Y-44572598D01*
X121437390Y-44576695D01*
X121391816Y-44617071D01*
X121357224Y-44667186D01*
X121353690Y-44671988D01*
X121325783Y-44707610D01*
X121316121Y-44719944D01*
X121316120Y-44719944D01*
X121311028Y-44731259D01*
X121302230Y-44746858D01*
X121295181Y-44757070D01*
X121295180Y-44757071D01*
X121273593Y-44813993D01*
X121271306Y-44819515D01*
X121246305Y-44875066D01*
X121246302Y-44875074D01*
X121244065Y-44887282D01*
X121239258Y-44904527D01*
X121234860Y-44916125D01*
X121227521Y-44976561D01*
X121226622Y-44982469D01*
X121215641Y-45042395D01*
X121219319Y-45103175D01*
X121219500Y-45109154D01*
X121219500Y-47493686D01*
X121200593Y-47551877D01*
X121200155Y-47552474D01*
X121167207Y-47597116D01*
X121122355Y-47725296D01*
X121122353Y-47725305D01*
X121119500Y-47755725D01*
X121119500Y-48764274D01*
X121122353Y-48794694D01*
X121122355Y-48794703D01*
X121167206Y-48922881D01*
X121167207Y-48922882D01*
X121200154Y-48967524D01*
X121219497Y-49025570D01*
X121219500Y-49026312D01*
X121219500Y-49834992D01*
X121200593Y-49893183D01*
X121179288Y-49914648D01*
X121147849Y-49937850D01*
X121067207Y-50047116D01*
X121022355Y-50175296D01*
X121022353Y-50175305D01*
X121019500Y-50205725D01*
X121019500Y-50839274D01*
X118110000Y-50839274D01*
X118110000Y-38224500D01*
X118128907Y-38166309D01*
X118178407Y-38130345D01*
X118209000Y-38125500D01*
X156085500Y-38125500D01*
X156143691Y-38144407D01*
G37*
%TD.AperFunction*%
%TD*%
M02*
