%TF.GenerationSoftware,KiCad,Pcbnew,7.0.7*%
%TF.CreationDate,2023-08-26T11:09:01+02:00*%
%TF.ProjectId,slimme_meter_pmod,736c696d-6d65-45f6-9d65-7465725f706d,rev?*%
%TF.SameCoordinates,Original*%
%TF.FileFunction,Soldermask,Bot*%
%TF.FilePolarity,Negative*%
%FSLAX46Y46*%
G04 Gerber Fmt 4.6, Leading zero omitted, Abs format (unit mm)*
G04 Created by KiCad (PCBNEW 7.0.7) date 2023-08-26 11:09:01*
%MOMM*%
%LPD*%
G01*
G04 APERTURE LIST*
%ADD10R,2.200000X2.200000*%
%ADD11O,2.200000X2.200000*%
%ADD12R,1.600000X1.600000*%
%ADD13C,1.600000*%
%ADD14R,1.050000X1.500000*%
%ADD15O,1.050000X1.500000*%
%ADD16R,1.700000X1.700000*%
%ADD17O,1.700000X1.700000*%
%ADD18O,1.600000X1.600000*%
%ADD19C,2.300000*%
%ADD20C,1.300000*%
G04 APERTURE END LIST*
D10*
%TO.C,D2*%
X130810000Y-64770000D03*
D11*
X127000000Y-64770000D03*
%TD*%
%TO.C,D4*%
X119380000Y-69850000D03*
D10*
X123190000Y-69850000D03*
%TD*%
%TO.C,D3*%
X123190000Y-64770000D03*
D11*
X119380000Y-64770000D03*
%TD*%
D10*
%TO.C,D1*%
X130810000Y-69850000D03*
D11*
X127000000Y-69850000D03*
%TD*%
D12*
%TO.C,C1*%
X124500000Y-57150000D03*
D13*
X127000000Y-57150000D03*
%TD*%
D14*
%TO.C,Q1*%
X106680000Y-53340000D03*
D15*
X105410000Y-53340000D03*
X104140000Y-53340000D03*
%TD*%
D14*
%TO.C,Q2*%
X114300000Y-53340000D03*
D15*
X113030000Y-53340000D03*
X111760000Y-53340000D03*
%TD*%
D16*
%TO.C,J2*%
X99060000Y-68580000D03*
D17*
X96520000Y-68580000D03*
X99060000Y-66040000D03*
X96520000Y-66040000D03*
X99060000Y-63500000D03*
X96520000Y-63500000D03*
X99060000Y-60960000D03*
X96520000Y-60960000D03*
X99060000Y-58420000D03*
X96520000Y-58420000D03*
X99060000Y-55880000D03*
X96520000Y-55880000D03*
%TD*%
D13*
%TO.C,R2*%
X109220000Y-60960000D03*
D18*
X109220000Y-71120000D03*
%TD*%
D13*
%TO.C,R3*%
X114300000Y-60960000D03*
D18*
X114300000Y-71120000D03*
%TD*%
D13*
%TO.C,R1*%
X104140000Y-71120000D03*
D18*
X104140000Y-60960000D03*
%TD*%
D19*
%TO.C,J1*%
X139700000Y-55310000D03*
X139700000Y-67310000D03*
D20*
X134860000Y-58250000D03*
X137400000Y-59270000D03*
X134860000Y-60290000D03*
X137400000Y-61310000D03*
X134860000Y-62330000D03*
X137400000Y-63350000D03*
%TD*%
M02*
